<!-- Generated by IcoMoon.io -->
<svg version="1.1" xmlns="http://www.w3.org/2000/svg" width="32" height="32" viewBox="0 0 32 32">
<title>abkhazia</title>
<path fill="#73af00" d="M25.443 0.024h-18.887c-2.822 0.176-5.191 2.025-6.127 4.566h31.141c-0.936-2.542-3.305-4.39-6.127-4.566z"></path>
<path fill="#f5f5f5" d="M32 7.005c-0.001-0.848-0.152-1.661-0.429-2.414h-31.141c-0.278 0.754-0.429 1.569-0.429 2.419v2.147h32v-2.153z"></path>
<path fill="#73af00" d="M0 9.158h32v4.566h-32v-4.566z"></path>
<path fill="#f5f5f5" d="M0 13.724h32v4.566h-32v-4.566z"></path>
<path fill="#73af00" d="M0 18.291h32v4.566h-32v-4.566z"></path>
<path fill="#f5f5f5" d="M0 22.857v2.153c0 0.848 0.151 1.661 0.427 2.413h31.145c0.276-0.751 0.427-1.562 0.427-2.408v-2.159h-32z"></path>
<path fill="#73af00" d="M6.466 31.99h19.068c2.785-0.21 5.114-2.049 6.039-4.567h-31.146c0.925 2.518 3.254 4.357 6.039 4.566z"></path>
<path fill="#ff4b55" d="M21.417 0.010h-14.417c-3.866 0-7 3.134-7 7v6.688h21.417v-13.688z"></path>
<path fill="#f5f5f5" d="M11.53 12.618h-1.355c-0.123 0-0.233-0.077-0.276-0.192l-0.436-1.178c-0.17-0.46-0.247-0.949-0.225-1.439l0.152-3.402c0.004-0.086 0.059-0.162 0.141-0.191v0c0.139-0.051 0.287 0.053 0.287 0.201v1.549c0 0.043 0.035 0.078 0.078 0.078v0c0.042 0 0.076-0.033 0.078-0.075l0.122-2.471c0.005-0.1 0.080-0.183 0.18-0.197v0c0.123-0.018 0.235 0.075 0.239 0.2l0.084 2.303c0.002 0.046 0.043 0.081 0.089 0.075v0c0.039-0.005 0.068-0.037 0.069-0.077l0.050-2.559c0.003-0.14 0.14-0.237 0.273-0.193v0c0.081 0.027 0.137 0.101 0.142 0.187l0.125 2.587c0.001 0.029 0.018 0.055 0.044 0.067v0c0.052 0.026 0.114-0.011 0.115-0.069l0.063-2.004c0.005-0.151 0.163-0.248 0.3-0.183v0c0.069 0.033 0.115 0.101 0.119 0.177l0.146 2.46 0.39 1.139c0.022 0.064 0.112 0.065 0.135 0.002 0.111-0.302 0.361-0.865 0.764-1.113 0.071-0.044 0.163-0.038 0.23 0.012v0c0.099 0.074 0.11 0.216 0.026 0.306-0.196 0.209-0.482 0.648-0.462 1.42 0.003 0.098-0.026 0.195-0.084 0.274l-1.1 1.502c-0.11 0.15-0.181 0.326-0.205 0.511l-0.005 0.037c-0.019 0.146-0.144 0.256-0.292 0.256z"></path>
<path fill="#f5f5f5" d="M10.855 1.161l0.221 0.662 0.698 0.005c0.054 0 0.076 0.069 0.033 0.102l-0.562 0.415 0.21 0.665c0.016 0.052-0.042 0.094-0.086 0.063l-0.568-0.406-0.568 0.406c-0.044 0.031-0.103-0.011-0.086-0.063l0.21-0.665-0.562-0.415c-0.043-0.032-0.021-0.101 0.033-0.102l0.698-0.005 0.221-0.662c0.017-0.051 0.090-0.051 0.107 0z"></path>
<path fill="#f5f5f5" d="M7.572 2.114l0.221 0.662 0.698 0.005c0.054 0 0.076 0.069 0.033 0.102l-0.561 0.415 0.211 0.665c0.016 0.052-0.042 0.094-0.086 0.063l-0.568-0.406-0.568 0.406c-0.044 0.031-0.103-0.011-0.086-0.063l0.211-0.665-0.561-0.415c-0.043-0.032-0.021-0.101 0.033-0.102l0.698-0.005 0.221-0.662c0.017-0.051 0.090-0.051 0.107 0z"></path>
<path fill="#f5f5f5" d="M14.219 2.114l0.221 0.662 0.698 0.005c0.054 0 0.076 0.069 0.033 0.102l-0.562 0.415 0.21 0.665c0.016 0.052-0.042 0.094-0.086 0.063l-0.568-0.406-0.568 0.406c-0.044 0.031-0.103-0.011-0.086-0.063l0.211-0.665-0.562-0.415c-0.043-0.032-0.021-0.101 0.033-0.102l0.698-0.005 0.221-0.662c0.017-0.051 0.090-0.051 0.107 0z"></path>
<path fill="#f5f5f5" d="M16.421 4.617l0.221 0.662 0.698 0.005c0.054 0 0.076 0.069 0.033 0.102l-0.561 0.415 0.21 0.665c0.016 0.052-0.042 0.094-0.086 0.063l-0.568-0.406-0.568 0.406c-0.044 0.031-0.103-0.011-0.086-0.063l0.211-0.665-0.562-0.415c-0.043-0.032-0.021-0.101 0.033-0.102l0.698-0.005 0.221-0.662c0.017-0.051 0.090-0.051 0.107 0z"></path>
<path fill="#f5f5f5" d="M5.187 4.617l0.221 0.662 0.698 0.005c0.054 0 0.077 0.069 0.033 0.102l-0.561 0.415 0.211 0.665c0.016 0.052-0.042 0.094-0.086 0.063l-0.568-0.406-0.568 0.406c-0.044 0.031-0.103-0.011-0.086-0.063l0.211-0.665-0.561-0.415c-0.043-0.032-0.021-0.101 0.033-0.102l0.698-0.005 0.221-0.662c0.017-0.051 0.090-0.051 0.107 0z"></path>
<path fill="#f5f5f5" d="M17.054 7.902l0.221 0.662 0.698 0.005c0.054 0 0.076 0.069 0.033 0.102l-0.561 0.415 0.211 0.665c0.016 0.052-0.042 0.094-0.086 0.063l-0.568-0.406-0.568 0.406c-0.044 0.031-0.103-0.011-0.086-0.063l0.211-0.665-0.562-0.415c-0.043-0.032-0.021-0.101 0.033-0.102l0.698-0.005 0.221-0.662c0.017-0.051 0.090-0.051 0.107 0z"></path>
<path fill="#f5f5f5" d="M4.332 7.902l0.221 0.662 0.698 0.005c0.054 0 0.077 0.069 0.033 0.102l-0.561 0.415 0.211 0.665c0.016 0.052-0.042 0.094-0.086 0.063l-0.568-0.406-0.568 0.406c-0.044 0.031-0.103-0.011-0.086-0.063l0.211-0.665-0.562-0.415c-0.043-0.032-0.021-0.101 0.033-0.102l0.698-0.005 0.221-0.662c0.017-0.051 0.090-0.051 0.107 0z"></path>
</svg>
