<!-- Generated by IcoMoon.io -->
<svg version="1.1" xmlns="http://www.w3.org/2000/svg" width="32" height="32" viewBox="0 0 32 32">
<title>afghanistan</title>
<path fill="#464655" d="M7 0c-3.866 0-6.999 3.133-7 6.999v18.002c0.001 3.865 3.134 6.999 7 6.999h3.667v-32h-3.667z"></path>
<path fill="#ff4b55" d="M10.667 0h10.667v32h-10.667v-32z"></path>
<path fill="#73af00" d="M32 25v-18c0-3.866-3.134-7-7-7h-3.667v32h3.667c3.866 0 7-3.134 7-7z"></path>
<path fill="#f5f5f5" d="M17.44 17.082h-2.88l0.16-0.32h2.56z"></path>
<path fill="#f5f5f5" d="M17.44 14.522h-2.88l0.16 0.32h2.56z"></path>
<path fill="#f5f5f5" d="M16.8 14.682h-1.6l0.32-0.32h0.96z"></path>
<path fill="#f5f5f5" d="M14.72 16.282h0.48v0.32h-0.48v-0.32z"></path>
<path fill="#f5f5f5" d="M14.72 15.802h0.48v0.32h-0.48v-0.32z"></path>
<path fill="#f5f5f5" d="M14.72 15.002h0.48v0.32h-0.48v-0.32z"></path>
<path fill="#f5f5f5" d="M14.72 15.482h0.48v0.16h-0.48v-0.16z"></path>
<path fill="#f5f5f5" d="M16.8 16.282h0.48v0.32h-0.48v-0.32z"></path>
<path fill="#f5f5f5" d="M16.8 15.802h0.48v0.32h-0.48v-0.32z"></path>
<path fill="#f5f5f5" d="M16.8 15.002h0.48v0.32h-0.48v-0.32z"></path>
<path fill="#f5f5f5" d="M16.8 15.482h0.48v0.16h-0.48v-0.16z"></path>
<path fill="#f5f5f5" d="M14.88 13.722h0.32v0.64h-0.32v-0.64z"></path>
<path fill="#f5f5f5" d="M15.2 13.562h-0.32v-0.175c0-0.080 0.065-0.145 0.145-0.145h0.030c0.080 0 0.145 0.065 0.145 0.145v0.175h-0z"></path>
<path fill="#f5f5f5" d="M16.8 13.722h0.32v0.64h-0.32v-0.64z"></path>
<path fill="#f5f5f5" d="M17.12 13.562h-0.32v-0.175c0-0.080 0.065-0.145 0.145-0.145h0.030c0.080 0 0.145 0.065 0.145 0.145v0.175h-0z"></path>
<path fill="#f5f5f5" d="M16.060 15.002h-0.12c-0.32 0-0.58 0.26-0.58 0.58v1.020h1.28v-1.020c0-0.32-0.26-0.58-0.58-0.58z"></path>
<path fill="#f5f5f5" d="M14.941 16.010l-0.871-1.016c0.006-0.016 0.010-0.033 0.010-0.052 0-0.088-0.072-0.16-0.16-0.16s-0.16 0.072-0.16 0.16 0.072 0.16 0.16 0.16c0.010 0 0.018-0.004 0.027-0.005l0.090 0.105-0.437 1.020 0.48 0.48 0.414-0.967 0.325 0.379 0.121-0.104zM14.163 16.344l-0.383-0.383 0.173-0.403 0.383 0.383-0.173 0.403z"></path>
<path fill="#f5f5f5" d="M17.185 16.114l0.325-0.379 0.414 0.967 0.48-0.48-0.437-1.020 0.090-0.105c0.009 0.002 0.017 0.005 0.027 0.005 0.088 0 0.16-0.072 0.16-0.16s-0.072-0.16-0.16-0.16-0.16 0.072-0.16 0.16c0 0.018 0.005 0.035 0.010 0.052l-0.871 1.016 0.121 0.104zM17.669 15.941l0.383-0.383 0.173 0.403-0.383 0.383-0.173-0.403z"></path>
<path fill="#f5f5f5" d="M16.181 13.43c-0.050-0.015-0.095-0.042-0.123-0.086-0.019-0.029-0.038-0.063-0.058-0.102-0.019 0.039-0.039 0.072-0.058 0.102-0.028 0.044-0.073 0.072-0.123 0.086-0.265 0.078-0.459 0.322-0.459 0.612 0 0.056 0.009 0.109 0.023 0.16h1.235c0.013-0.051 0.023-0.104 0.023-0.16-0-0.29-0.194-0.534-0.459-0.612z"></path>
<path fill="#f5f5f5" d="M12.334 15.783c-0.008-0.099-0.013-0.2-0.013-0.301 0-0.206 0.019-0.408 0.052-0.606 0.046 0.032 0.094 0.067 0.145 0.107-0.023 0.164-0.036 0.331-0.036 0.499 0 0.118 0.006 0.235 0.018 0.351l0.338 0.102c-0.021-0.148-0.036-0.298-0.036-0.452 0-0.076 0.005-0.152 0.011-0.227 0.177 0.196 0.316 0.432 0.316 0.694 0 0.007 0.513-0.76-0.42-1.607l-0.007 0.36-0.537-0.006c-0.048-0.001-0.091 0.034-0.1 0.082-0.041 0.23-0.063 0.465-0.063 0.704 0 0.068 0.002 0.135 0.005 0.203l0.328 0.099z"></path>
<path fill="#f5f5f5" d="M13.753 12.569c0.070-0.054 0.083-0.154 0.029-0.224s-0.155-0.083-0.224-0.029c-0.724 0.559-1.221 1.327-1.436 2.188l0.33 0.004c0.208-0.762 0.657-1.441 1.302-1.939z"></path>
<path fill="#f5f5f5" d="M13.539 12.968c-0.348 0.341-0.611 0.742-0.79 1.177 0.099 0.081 0.18 0.163 0.247 0.245 0.161-0.444 0.418-0.852 0.767-1.194 0.063-0.062 0.064-0.163 0.002-0.226s-0.163-0.064-0.226-0.002z"></path>
<path fill="#f5f5f5" d="M12.983 17.579c-0.237-0.34-0.419-0.722-0.531-1.132l0.186 0.068c0.116 0.374 0.292 0.722 0.518 1.032l0.353-0.065c-0.199-0.248-0.363-0.525-0.483-0.825l0.209 0.077c0.119 0.262 0.272 0.502 0.453 0.715l0.367-0.067c-0.145-0.148-0.271-0.314-0.38-0.493l-0.213-0.426c-0.066-0.131-0.183-0.23-0.324-0.272l-1.299-0.39 0.11 0.331c0.024 0.073 0.073 0.133 0.137 0.173 0.102 0.483 0.291 0.935 0.55 1.337l0.345-0.063z"></path>
<path fill="#f5f5f5" d="M19.3 14.702l-0.007-0.36c-0.933 0.847-0.42 1.613-0.42 1.607 0-0.261 0.139-0.498 0.316-0.694 0.006 0.075 0.011 0.151 0.011 0.227 0 0.154-0.015 0.304-0.036 0.452l0.338-0.102c0.011-0.115 0.017-0.232 0.017-0.351 0-0.169-0.013-0.335-0.036-0.499 0.050-0.039 0.099-0.075 0.145-0.107 0.033 0.198 0.052 0.4 0.052 0.606 0 0.101-0.005 0.202-0.013 0.301l0.328-0.099c0.003-0.067 0.005-0.135 0.005-0.203 0-0.239-0.022-0.474-0.063-0.704-0.009-0.048-0.051-0.082-0.099-0.082l-0.537 0.006z"></path>
<path fill="#f5f5f5" d="M19.549 14.508l0.33-0.004c-0.215-0.861-0.712-1.629-1.436-2.188-0.070-0.054-0.17-0.041-0.224 0.029s-0.041 0.17 0.029 0.224c0.645 0.498 1.094 1.177 1.302 1.939z"></path>
<path fill="#f5f5f5" d="M19.252 14.145c-0.179-0.436-0.443-0.837-0.791-1.177-0.063-0.062-0.164-0.061-0.226 0.002s-0.061 0.164 0.002 0.226c0.349 0.342 0.606 0.75 0.767 1.194 0.067-0.082 0.148-0.164 0.247-0.245z"></path>
<path fill="#f5f5f5" d="M19.982 15.855l-1.121 0.337c-0.141 0.042-0.258 0.141-0.324 0.272l-0.213 0.426c-0.109 0.179-0.235 0.345-0.38 0.493l0.367 0.067c0.182-0.213 0.334-0.454 0.453-0.715l0.209-0.077c-0.12 0.3-0.284 0.577-0.483 0.825l0.353 0.065c0.226-0.31 0.402-0.658 0.518-1.032l0.186-0.068c-0.113 0.41-0.294 0.792-0.531 1.132l0.346 0.063c0.259-0.402 0.448-0.854 0.55-1.337 0.064-0.040 0.113-0.1 0.137-0.173l0.11-0.331-0.178 0.054z"></path>
<path fill="#f5f5f5" d="M17.667 17.624l-0.008 0.007c-0.465 0.359-1.044 0.57-1.659 0.57s-1.194-0.211-1.659-0.57l-0.008-0.007c-0.060-0.066-0.151-0.096-0.239-0.078l-1.613 0.336 0.358 0.314c0.096 0.084 0.219 0.123 0.341 0.116 0.288 0.287 0.619 0.531 0.983 0.72l-0.105 0.193c0.578 0.314 1.24 0.493 1.943 0.493s1.365-0.179 1.943-0.493l-0.105-0.193c0.364-0.189 0.695-0.433 0.983-0.72 0.122 0.007 0.245-0.032 0.341-0.116l0.358-0.314-1.613-0.336c-0.088-0.018-0.179 0.012-0.239 0.078zM14.315 18.749c-0.29-0.151-0.556-0.341-0.794-0.561l0.155-0.074c0.217 0.192 0.456 0.36 0.715 0.495l-0.076 0.14zM18.479 18.188c-0.239 0.219-0.504 0.41-0.794 0.561l-0.076-0.14c0.259-0.135 0.498-0.303 0.715-0.495l0.155 0.074zM16 18.681c-0.762 0-1.46-0.27-2.010-0.717l0.16-0.076c0.519 0.4 1.164 0.633 1.85 0.633s1.331-0.233 1.85-0.633l0.16 0.076c-0.55 0.447-1.248 0.717-2.010 0.717z"></path>
<path fill="#f5f5f5" d="M14.245 17.397c0.069 0.058 0.14 0.113 0.214 0.164h3.083c0.074-0.051 0.146-0.106 0.214-0.164l-0.156-0.156h-3.2l-0.156 0.156z"></path>
</svg>
