<svg xmlns="http://www.w3.org/2000/svg" width="32" height="32" version="1.1" viewBox="0 0 32 32"><title>algeria</title><path fill="#73af00" d="M7 0c-3.866 0-7 3.134-7 7v18c0 3.866 3.134 7 7 7h9v-32h-9z"/><path fill="#f5f5f5" d="M25 0h-9v32h9c3.866 0 7-3.134 7-7v-18c0-3.866-3.134-7-7-7z"/><path fill="#ff4b55" d="M20.065 12.938l-1.46 1.91-2.28-0.763c-0.128-0.043-0.236 0.101-0.16 0.212l1.365 1.979-1.43 1.932c-0.080 0.108 0.024 0.256 0.152 0.217l2.304-0.687 1.396 1.957c0.078 0.109 0.25 0.057 0.254-0.078l0.058-2.403 2.293-0.723c0.128-0.040 0.131-0.221 0.004-0.265l-2.268-0.798 0.021-2.404c0.001-0.135-0.169-0.193-0.251-0.086z"/><path fill="#ff4b55" d="M17.514 21.784c-3.192 0-5.781-2.589-5.781-5.784 0-3.189 2.589-5.784 5.781-5.784 1.188 0 2.283 0.365 3.195 0.983 0.14 0.095 0.299-0.089 0.182-0.211-1.364-1.418-3.294-2.283-5.435-2.21-3.677 0.126-6.721 3.074-6.956 6.746-0.269 4.206 3.061 7.701 7.207 7.701 2.042 0 3.878-0.854 5.189-2.219 0.116-0.121-0.044-0.302-0.183-0.208-0.914 0.619-2.011 0.985-3.2 0.985z"/></svg>