<svg xmlns="http://www.w3.org/2000/svg" width="32" height="32" version="1.1" viewBox="0 0 32 32"><title>american-samoa</title><path fill="#41479b" d="M25 0h-18c-3.866 0-7 3.134-7 7v18c0 3.866 3.134 7 7 7h18c3.866 0 7-3.134 7-7v-18c0-3.866-3.134-7-7-7z"/><path fill="#ff4b55" d="M29.2 30.6c0.45-0.338 0.858-0.73 1.215-1.165l-26.871-13.435 26.871-13.435c-0.357-0.435-0.765-0.826-1.215-1.165l-29.2 14.6 29.2 14.6z"/><path fill="#f5f5f5" d="M30.415 29.435c0.99-1.207 1.585-2.752 1.585-4.435v-18c0-1.683-0.594-3.228-1.585-4.435l-26.871 13.435 26.871 13.435z"/><path fill="#fff5dc" d="M28.161 13.202c0 0 1.967 0.083 2.151-0.067s0.217-1.15-0.433-1.3c-0.65-0.15-2.417 0.817-2.417 0.817l0.7 0.55z"/><path fill="#d27d69" d="M24.31 14.752c0 0-0.022 0.056-0.033 0.3s0.033 0.878 0.8 1.156l-0.178 0.745 0.811 0.489c0 0 0.6-0.889 0.634-1.634s-2.034-1.056-2.034-1.056z"/><path fill="#d27d69" d="M21.876 14.252l0.317-0.317c0 0-0.648 0.396-0.895 0.039-0.322-0.467 0.111-0.956 0.561-1.173s1.35-0.050 1.35-0.050l0.567 1.45-1.717 1.084-0.183-1.034z"/><path fill="#d27d69" d="M27.195 11.485l1.534-0.183c0 0-0.45 0.65-1.334 1.134 0 0 0.917 0 1.184 0.317s-0.267 0.617-0.467 0.717-1.934 1.167-1.934 1.167l-1.55-0.183 2.567-2.968z"/><path fill="#d27d69" d="M28.334 10.307c0 0 0.333-0.778 0.322-1.323l-1.123 0.778c0 0 0.256-0.122 0.167-0.567l-3.668 1.989-0.745 1.323 2.267 0.7 2.779-2.901z"/><path fill="#ffe15a" d="M25.569 16.37l-0.383 0.608c0 0-0.684-0.15-0.917 0.017s-0.258 0.792 0.15 0.842c0 0 0.283 0.175 0.45 0.033 0 0 0.342 0.133 0.4-0.083s-0.017-0.4-0.017-0.4h0.242l0.425-0.759-0.35-0.258z"/><path fill="#b95546" d="M22.143 15.053c0 0 1.067-0.534 1.067-1.334s-0.989-0.845-1.789-0.578c0 0-0.478-0.378-0.078-0.756 0.549-0.518 2.934-1.601 2.934-1.601l-0.267 1.334c0 0 0.95 0.5 1.334 0.267 0.322-0.196 3.468-2.668 3.468-2.668s-0.267 1.334-2.134 2.668l-0.198 0.989c-0.043 0.217-0.185 0.402-0.383 0.502l-0.753 0.376c0 0 2.134 0.267 2.134 0.534s-0.534 1.6-1.601 2.134l-0.534-0.534 0.267-0.8c0 0-0.8-0.267-1.334-0.534 0 0-0.8 0.267-1.334 0.267s-0.8-0.267-0.8-0.267z"/><path fill="#fff5dc" d="M20.543 16.386v-0.554c0-0.158 0.063-0.309 0.174-0.42l1.16-1.16 0.267 0.534h1.067l-0.267 0.267v0.267l-1.334 0.8-1.067 0.267z"/><path fill="#ffe15a" d="M21.076 16.119h-0.534c0 0-0.534 0.8 0 0.8 0 0 0.8-0.534 1.067-0.8 0 0 0-0.267-0.534 0z"/><path fill="#ffe15a" d="M27.583 17.303h-3.688c-0.030-0.033-0.073-0.054-0.121-0.054 0 0-0.646-0.268-0.738-0.268h-0.076c-0.092 0-0.166 0.074-0.166 0.166v0.155h-0.843v-0.155c0-0.092-0.074-0.166-0.166-0.166h-0.076c-0.092 0-0.166 0.074-0.166 0.166v0.003c-0.361-0.015-1.134-0.061-1.534-0.194l-2.134 0.534 2.134 0.534c0.4-0.133 1.172-0.179 1.534-0.194v0.003c0 0.092 0.074 0.166 0.166 0.166h0.076c0.092 0 0.166-0.075 0.166-0.166v-0.155h0.843v0.155c0 0.092 0.074 0.166 0.166 0.166h0.076c0.092 0 0.738-0.268 0.738-0.268 0.048 0 0.091-0.021 0.121-0.054h3.688c0.103 0 0.187-0.084 0.187-0.187s-0.084-0.187-0.187-0.187z"/><path fill="#ffe15a" d="M27.422 18.020c-0.222-0.044-2.768 0.4-2.768 0.4s-0.156-0.156 0.311-0.589l-0.222-0.056c0 0-0.489 0.345-0.689 0.389-0.172 0.038-0.557 0.225-0.64 0.475l-1.55 0.258 0.033 0.133 1.52-0.178c0.073 0.234 0.311 0.281 0.481 0.212 0 0 0.222 0.089 0.422-0.067 0 0 0.4 0.067 0.422-0.3l2.79-0.422c-0-0 0.111-0.211-0.111-0.256z"/><path fill="#ffe15a" d="M25.844 19.898c0 0-0.211 0.278-0.734 0.033s-1.134 0.022-1.467-0.056-0.834-0.278-1.3-0.1c-0.467 0.178-0.722 0.167-0.622-0.056s0.156-0.389 0-0.467l0.178-0.222-0.033-0.133c0 0-0.889-0.345-1.489 0.133s-0.422 1.567 0.578 1.645c0 0 0.311 0.389 1.078 0.278 0 0 0.5 0.345 1.356 0.189 0 0 0.033 0.1 0.589 0.056s1.178 0.022 1.067 0.4c0 0 0.411-0.078 0.167-0.456 0 0 0.489-0.022 0.822 0.267 0 0 0.022-0.333-0.3-0.511 0 0 0.545-0.189 0.845 0 0 0-0.2-0.422-0.734-0.367 0 0 0.389-0.311 0.567-0.233 0 0-0.167-0.2-0.656 0 0-0 0.311-0.189 0.089-0.4z"/></svg>