<svg xmlns="http://www.w3.org/2000/svg" width="32" height="32" version="1.1" viewBox="0 0 32 32"><title>angola</title><path fill="#ff4b55" d="M25 0h-18c-3.866 0-7 3.134-7 7v9h32v-9c0-3.866-3.134-7-7-7z"/><path fill="#464655" d="M0 25c0 3.866 3.134 7 7 7h18c3.866 0 7-3.134 7-7v-9h-32v9z"/><path fill="#ffe15a" d="M14.083 8.969l0.576 1.726 1.82 0.014c0.141 0.001 0.199 0.181 0.086 0.265l-1.464 1.081 0.549 1.735c0.043 0.134-0.111 0.246-0.225 0.164l-1.48-1.058-1.48 1.058c-0.115 0.082-0.268-0.029-0.225-0.164l0.549-1.735-1.464-1.081c-0.113-0.084-0.055-0.264 0.086-0.265l1.82-0.014 0.576-1.726c0.045-0.134 0.234-0.134 0.278 0z"/><path fill="#ffe15a" d="M21.866 23.626c0 0-10.418-7.859-10.725-8.117-0.475-0.399-0.842-1.105-0.86-1.965 0 0-1.123 1.151-0.903 2.342 0.254 1.377 1.044 1.868 2.061 2.535 0.715 0.468 6.4 4.054 9.718 6.145l0.709-0.94z"/><path fill="#ffe15a" d="M24.983 25.93c-0.136-0.097-1.227-0.903-2.741-2.025l-0.549 0.999c1.111 0.7 1.851 1.166 1.851 1.166s0.105 1.368 1.21 1.14c0.399-0.082 0.719-0.93 0.228-1.281z"/><path fill="#ffe15a" d="M15.987 22.301c-0.787 0.277-1.631 0.436-2.513 0.436-2.236 0-4.24-0.974-5.627-2.515l-1.233 1.11c0.413 0.459 0.855 0.892 1.352 1.261l-0.246 0.425 1.823 1.053 0.241-0.418c0.824 0.358 1.709 0.599 2.636 0.704v0.485h2.105v-0.485c0.927-0.105 1.813-0.346 2.637-0.704l0.241 0.418 0.725-0.418c-0.708-0.446-1.432-0.904-2.142-1.352z"/><path fill="#ffe15a" d="M22.673 14.105c-0.105-0.927-0.346-1.813-0.704-2.636l0.418-0.241-1.053-1.823-0.425 0.246c-0.544-0.734-1.193-1.382-1.927-1.927l0.246-0.425-1.823-1.053-0.241 0.418c-0.683-0.297-1.411-0.508-2.168-0.633l-0.277 1.66c3.592 0.595 6.334 3.707 6.334 7.468 0 2.025-0.799 3.86-2.093 5.22 0.448 0.338 0.892 0.673 1.331 1.005 0.213-0.233 0.43-0.462 0.618-0.717l0.425 0.246 1.053-1.823-0.418-0.241c0.358-0.824 0.599-1.709 0.704-2.636h0.485v-2.105h-0.485z"/></svg>