<!-- Generated by IcoMoon.io -->
<svg version="1.1" xmlns="http://www.w3.org/2000/svg" width="32" height="32" viewBox="0 0 32 32">
<title>anguilla</title>
<path fill="#41479b" d="M25 0h-18c-3.866 0-7 3.134-7 7v18c0 3.866 3.134 7 7 7h18c3.866 0 7-3.134 7-7v-18c0-3.866-3.134-7-7-7z"></path>
<path fill="#f5f5f5" d="M9.263 16.003h0.842v-5.111l5.895 3.862v-1.248l-5.236-3.398h1.547l3.689 2.394v-0.768l-2.482-1.626h2.482v-0.842h-6.737z"></path>
<path fill="#f5f5f5" d="M5.895 16.003h0.842v-6.737h-6.737v0.842h2.482l-2.482 1.626v1.181l4.325-2.807h1.547l-5.872 3.811v0.835l5.895-3.862z"></path>
<path fill="#f5f5f5" d="M6.737 0.005c-0.285 0.011-0.566 0.038-0.842 0.082v5.026l-4.16-2.726c-0.25 0.285-0.477 0.591-0.679 0.915l3.997 2.595h-1.547l-2.853-1.852c-0.078 0.168-0.15 0.338-0.215 0.513l2.044 1.339h-2.395c-0.044 0.276-0.071 0.557-0.081 0.842h6.731v-6.734z"></path>
<path fill="#f5f5f5" d="M16 6.74v-0.842h-2.482l2.482-1.626v-1.196l-4.348 2.822h-1.547l5.895-3.826v-0.82l-5.895 3.862v-5.111h-0.842v6.737z"></path>
<path fill="#ff4b55" d="M6.737 16.003h2.526v-6.737h6.737v-2.526h-6.737v-6.737h-2.459c-0.022 0.001-0.045 0.002-0.067 0.003v6.734h-6.731c-0.003 0.086-0.005 0.173-0.005 0.26v2.266h6.737v6.737z"></path>
<path fill="#ff4b55" d="M4.325 10.108l-4.325 2.807v1.004l5.872-3.811z"></path>
<path fill="#ff4b55" d="M10.764 10.108l5.236 3.398v-1.004l-3.689-2.394z"></path>
<path fill="#ff4b55" d="M5.053 5.898l-3.997-2.595c-0.149 0.238-0.283 0.486-0.403 0.743l2.853 1.852h1.547z"></path>
<path fill="#ff4b55" d="M11.652 5.898l4.348-2.822v-1.004l-5.895 3.827z"></path>
<path fill="#f5f5f5" d="M20.744 18.103c-0.088 1.172-0.452 8.618 4.273 10.301 4.726-1.684 4.361-9.13 4.273-10.301-0.572 0.224-2.645 0.904-4.273-0.255-1.628 1.159-3.7 0.479-4.273 0.255z"></path>
<path fill="#ffa028" d="M27.339 19.605c-0.259-0.201-0.739 0.173-1.276 0.134-0.498-0.036-1.112-0.54-1.91-0.323-0.221-0.203-0.114-0.675-0.114-0.675-0.554 0.358-0.594 0.849-0.559 1.114-0.395 0.522-0.368 1.319-0.295 1.562 0.096 0.317 0.278 0.355 0.307 0.71s0.163 0.23 0.163 0.23c0.277-0.156 0.318-0.449 0.434-0.93 0.451 0.058 0.745-0.346 0.745-0.346-0.296 0.093-0.482-0.070-0.584-0.214 0.016-0.047 0.029-0.091 0.047-0.141 0.336-0.921 1.942-0.668 2.091-0.413 0.269 0.46 0.623 0.633 0.623 0.633 0-0.48-0.355-0.902-0.355-0.902 0.537-0.096 0.681-0.441 0.681-0.441zM23.473 21.581c-0.053 0-0.096-0.043-0.096-0.096s0.043-0.096 0.096-0.096 0.096 0.043 0.096 0.096-0.043 0.096-0.096 0.096z"></path>
<path fill="#ffa028" d="M25.757 25.498c0.313-0.099 0.277-0.706 0.613-1.127 0.312-0.39 1.076-0.609 1.349-1.39 0.292-0.066 0.62 0.289 0.62 0.289 0.019-0.66-0.362-0.97-0.601-1.093-0.206-0.622-0.877-1.052-1.119-1.129-0.315-0.101-0.45 0.028-0.759-0.15s-0.282 0.004-0.282 0.004c-0.029 0.317 0.19 0.517 0.519 0.885-0.303 0.339-0.138 0.81-0.138 0.81 0.091-0.296 0.331-0.357 0.507-0.36 0.030 0.040 0.059 0.075 0.090 0.119 0.568 0.799-0.552 1.978-0.847 1.956-0.532-0.040-0.875 0.154-0.875 0.154 0.395 0.272 0.944 0.219 0.944 0.219-0.226 0.497-0.023 0.811-0.023 0.811zM26.323 21.194c0.030-0.044 0.090-0.055 0.133-0.025s0.055 0.090 0.025 0.133c-0.030 0.044-0.090 0.055-0.133 0.025s-0.055-0.090-0.025-0.133z"></path>
<path fill="#ffa028" d="M21.528 21.234c-0.042 0.325 0.524 0.548 0.764 1.030 0.223 0.447 0.1 1.232 0.693 1.809-0.063 0.293-0.523 0.441-0.523 0.441 0.59 0.295 1.032 0.080 1.244-0.085 0.65 0.075 1.323-0.353 1.495-0.54 0.224-0.244 0.164-0.42 0.455-0.625s0.115-0.257 0.115-0.257c-0.275-0.16-0.548-0.045-1.021 0.098-0.18-0.417-0.677-0.466-0.677-0.466 0.23 0.208 0.185 0.451 0.113 0.612-0.049 0.010-0.093 0.022-0.145 0.031-0.964 0.179-1.562-1.333-1.418-1.591 0.26-0.465 0.228-0.859 0.228-0.859-0.413 0.244-0.596 0.764-0.596 0.764-0.356-0.414-0.726-0.362-0.726-0.362zM25.194 23.559c0.027 0.046 0.012 0.104-0.034 0.131s-0.104 0.012-0.131-0.034c-0.027-0.046-0.012-0.104 0.034-0.131s0.104-0.012 0.131 0.034z"></path>
<path fill="#cdce0c" d="M25.017 28.648l-0.038-0.013c-5.32-1.851-4.46-10.623-4.451-10.711l0.017-0.159 0.145 0.066c0.025 0.011 2.493 1.106 4.258-0.218l0.069-0.052 0.069 0.052c1.767 1.326 4.233 0.229 4.258 0.218l0.145-0.066 0.017 0.159c0.009 0.089 0.869 8.861-4.451 10.711l-0.038 0.013zM20.744 18.103c-0.088 1.172-0.452 8.618 4.273 10.301 4.726-1.684 4.361-9.13 4.273-10.301-0.572 0.224-2.645 0.904-4.273-0.255-1.628 1.159-3.7 0.479-4.273 0.255z"></path>
<path fill="#82afff" d="M22.054 25.764c0.645 1.17 1.587 2.15 2.963 2.641 1.376-0.49 2.318-1.47 2.964-2.641h-5.927z"></path>
</svg>
