<!-- Generated by IcoMoon.io -->
<svg version="1.1" xmlns="http://www.w3.org/2000/svg" width="32" height="32" viewBox="0 0 32 32">
<title>antigua-and-barbuda</title>
<path fill="#464655" d="M32 25v-18c0-3.866-3.134-7-7-7h-18c-3.797 0-6.887 3.023-6.997 6.793v18.413c0.109 3.77 3.2 6.793 6.997 6.793h18c3.866 0 7-3.134 7-7z"></path>
<path fill="#ffe15a" d="M16.003 3.905l0.846 4.419 2.473-3.759-0.91 4.407 3.723-2.527-2.527 3.723 4.407-0.91-3.759 2.473 4.419 0.846-4.419 0.846 3.759 2.473-4.407-0.91 2.527 3.723-3.723-2.527 0.91 4.407-2.473-3.759-0.846 4.42-0.846-4.42-2.473 3.759 0.91-4.407-3.723 2.527 2.527-3.723-4.407 0.91 3.759-2.473-4.42-0.846 4.42-0.846-3.759-2.473 4.407 0.91-2.527-3.723 3.723 2.527-0.91-4.407 2.473 3.759z"></path>
<path fill="#ff4b55" d="M0 7v18c0 3.866 3.134 7 7 7h9.003l-14.603-29.201c-0.879 1.17-1.4 2.624-1.4 4.2z"></path>
<path fill="#ff4b55" d="M32 25v-18c0-1.575-0.52-3.028-1.398-4.198l-14.599 29.198h8.997c3.866 0 7-3.134 7-7z"></path>
<path fill="#4173cd" d="M9.688 19.368h12.632l3.368-6.737h-19.368z"></path>
<path fill="#f5f5f5" d="M9.688 19.368l6.316 12.632 6.316-12.632z"></path>
</svg>
