<svg xmlns="http://www.w3.org/2000/svg" width="32" height="32" version="1.1" viewBox="0 0 32 32"><title>australia</title><path fill="#41479b" d="M25 0h-18c-3.866 0-7 3.134-7 7v18c0 3.866 3.134 7 7 7h18c3.866 0 7-3.134 7-7v-18c0-3.866-3.134-7-7-7z"/><path fill="#f5f5f5" d="M8.151 21.090l0.53 1.75 1.699-0.677c0.145-0.058 0.277 0.108 0.188 0.236l-1.038 1.506 1.588 0.906c0.136 0.077 0.088 0.283-0.067 0.294l-1.824 0.127 0.282 1.807c0.024 0.154-0.166 0.246-0.272 0.131l-1.237-1.347-1.237 1.347c-0.106 0.115-0.296 0.023-0.272-0.131l0.282-1.807-1.824-0.127c-0.156-0.011-0.203-0.217-0.067-0.294l1.588-0.906-1.038-1.506c-0.088-0.128 0.043-0.294 0.188-0.236l1.699 0.677 0.53-1.75c0.045-0.149 0.257-0.149 0.302 0z"/><path fill="#f5f5f5" d="M24.090 5.43l0.259 0.855 0.83-0.331c0.071-0.028 0.135 0.053 0.092 0.115l-0.507 0.735 0.776 0.443c0.066 0.038 0.043 0.138-0.033 0.144l-0.891 0.062 0.138 0.883c0.012 0.075-0.081 0.12-0.133 0.064l-0.604-0.658-0.604 0.658c-0.052 0.056-0.145 0.011-0.133-0.064l0.138-0.883-0.891-0.062c-0.076-0.005-0.099-0.106-0.033-0.144l0.776-0.443-0.507-0.735c-0.043-0.063 0.021-0.143 0.092-0.115l0.83 0.331 0.259-0.855c0.022-0.073 0.125-0.073 0.147 0z"/><path fill="#f5f5f5" d="M18.316 13.265l0.259 0.855 0.83-0.331c0.071-0.028 0.135 0.053 0.092 0.115l-0.507 0.735 0.776 0.443c0.066 0.038 0.043 0.138-0.033 0.144l-0.891 0.062 0.138 0.883c0.012 0.075-0.081 0.12-0.133 0.064l-0.604-0.658-0.604 0.658c-0.052 0.056-0.145 0.011-0.133-0.064l0.138-0.883-0.891-0.062c-0.076-0.005-0.099-0.106-0.033-0.144l0.776-0.443-0.507-0.735c-0.043-0.063 0.021-0.143 0.092-0.115l0.83 0.331 0.259-0.855c0.022-0.073 0.125-0.073 0.147 0z"/><path fill="#f5f5f5" d="M29.552 9.182l0.259 0.855 0.83-0.331c0.071-0.028 0.135 0.053 0.092 0.115l-0.507 0.735 0.776 0.443c0.066 0.038 0.043 0.138-0.033 0.144l-0.891 0.062 0.138 0.883c0.012 0.075-0.081 0.12-0.133 0.064l-0.604-0.658-0.604 0.658c-0.052 0.056-0.145 0.011-0.133-0.064l0.138-0.883-0.891-0.062c-0.076-0.005-0.099-0.106-0.033-0.144l0.776-0.443-0.507-0.735c-0.043-0.063 0.021-0.143 0.092-0.115l0.83 0.331 0.259-0.855c0.022-0.073 0.125-0.073 0.147 0z"/><path fill="#f5f5f5" d="M24.090 23.005l0.259 0.855 0.83-0.331c0.071-0.028 0.135 0.052 0.092 0.115l-0.507 0.735 0.776 0.443c0.066 0.038 0.043 0.138-0.033 0.144l-0.891 0.062 0.138 0.883c0.012 0.075-0.081 0.12-0.133 0.064l-0.604-0.658-0.604 0.658c-0.052 0.056-0.145 0.011-0.133-0.064l0.138-0.883-0.891-0.062c-0.076-0.005-0.099-0.106-0.033-0.144l0.776-0.443-0.507-0.735c-0.043-0.063 0.021-0.143 0.092-0.115l0.83 0.331 0.259-0.855c0.022-0.073 0.125-0.073 0.147 0z"/><path fill="#f5f5f5" d="M26.093 15.436l-0.208 0.623-0.657 0.005c-0.085 0.001-0.12 0.109-0.052 0.16l0.529 0.39-0.198 0.627c-0.026 0.081 0.067 0.148 0.136 0.099l0.535-0.382 0.535 0.382c0.069 0.049 0.162-0.018 0.136-0.099l-0.198-0.627 0.529-0.39c0.068-0.051 0.033-0.159-0.052-0.16l-0.657-0.005-0.208-0.623c-0.027-0.081-0.141-0.081-0.168 0z"/><path fill="#41479b" d="M5.895 0.087c-1.649 0.262-3.106 1.099-4.159 2.299l4.159 2.725v-5.023z"/><path fill="#41479b" d="M0.439 4.556c-0.16 0.428-0.278 0.876-0.352 1.339h2.395l-2.043-1.339z"/><path fill="#41479b" d="M0 10.105v1.626l2.482-1.626z"/><path fill="#41479b" d="M16 1.249v-1.249h-5.895v5.111z"/><path fill="#41479b" d="M16 11.731v-1.626h-2.482z"/><path fill="#41479b" d="M10.105 16h5.895v-1.249l-5.895-3.862z"/><path fill="#41479b" d="M16 5.895v-1.626l-2.482 1.626z"/><path fill="#41479b" d="M5.895 10.889l-5.895 3.862v1.249h5.895z"/><path fill="#f5f5f5" d="M9.263 16h0.842v-5.111l5.895 3.862v-1.248l-5.236-3.398h1.547l3.689 2.394v-0.768l-2.482-1.626h2.482v-0.842h-6.737z"/><path fill="#f5f5f5" d="M5.895 16h0.842v-6.737h-6.737v0.842h2.482l-2.482 1.626v1.181l4.325-2.807h1.547l-5.872 3.811v0.835l5.895-3.862z"/><path fill="#f5f5f5" d="M6.737 0.005c-0.285 0.011-0.566 0.038-0.842 0.082v5.023l-4.159-2.725c-0.25 0.285-0.478 0.591-0.679 0.915l3.996 2.594h-1.547l-2.852-1.851c-0.078 0.168-0.15 0.338-0.215 0.513l2.043 1.339h-2.395c-0.044 0.276-0.071 0.557-0.082 0.842h6.731v-6.731z"/><path fill="#f5f5f5" d="M16 6.737v-0.842h-2.482l2.482-1.626v-1.196l-4.348 2.822h-1.547l5.895-3.826v-0.82l-5.895 3.862v-5.111h-0.842v6.737z"/><path fill="#ff4b55" d="M6.737 16h2.526v-6.737h6.737v-2.526h-6.737v-6.737h-2.263c-0.088 0-0.176 0.002-0.263 0.005v6.731h-6.731c-0.003 0.087-0.005 0.175-0.005 0.263v2.263h6.737v6.737z"/><path fill="#ff4b55" d="M4.325 10.105l-4.325 2.807v1.004l5.872-3.811z"/><path fill="#ff4b55" d="M10.764 10.105l5.236 3.398v-1.004l-3.689-2.394z"/><path fill="#ff4b55" d="M5.053 5.895l-3.996-2.594c-0.149 0.238-0.283 0.486-0.403 0.743l2.852 1.851h1.547z"/><path fill="#ff4b55" d="M11.652 5.895l4.348-2.822v-1.004l-5.895 3.827z"/></svg>