<!-- Generated by IcoMoon.io -->
<svg version="1.1" xmlns="http://www.w3.org/2000/svg" width="32" height="32" viewBox="0 0 32 32">
<title>bahrain</title>
<path fill="#f5f5f5" d="M7 0c-3.866 0-7 3.134-7 7v18c0 3.866 3.134 7 7 7h6.085v-32h-6.085z"></path>
<path fill="#ff4b55" d="M25 0h-18c-0.193 0-0.384 0.008-0.572 0.023l6.658 1.977-6.737 2 6.737 2-6.737 2 6.737 2-6.737 2 6.737 2-6.737 2 6.737 2-6.737 2 6.737 2-6.737 2 6.737 2-6.737 2 6.737 2-6.658 1.977c0.189 0.015 0.38 0.023 0.572 0.023h18c3.866 0 7-3.134 7-7v-18c0-3.866-3.134-7-7-7z"></path>
</svg>
