<!-- Generated by IcoMoon.io -->
<svg version="1.1" xmlns="http://www.w3.org/2000/svg" width="32" height="32" viewBox="0 0 32 32">
<title>balearic-islands</title>
<path fill="#ffe15a" d="M25 0h-18c-2.614 0-4.893 1.433-6.095 3.556h30.19c-1.202-2.123-3.481-3.556-6.095-3.556z"></path>
<path fill="#ff4b55" d="M0.905 3.556c-0.576 1.017-0.905 2.192-0.905 3.444v0.111h32v-0.111c0-1.252-0.329-2.427-0.905-3.444h-30.19z"></path>
<path fill="#ffe15a" d="M0 7.111h32v3.556h-32v-3.556z"></path>
<path fill="#ff4b55" d="M0 10.667h32v3.556h-32v-3.556z"></path>
<path fill="#ffe15a" d="M0 14.223h32v3.556h-32v-3.556z"></path>
<path fill="#ffe15a" d="M7 32h18c2.614 0 4.893-1.433 6.095-3.556h-30.19c1.202 2.123 3.481 3.556 6.095 3.556z"></path>
<path fill="#ff4b55" d="M0 17.777h32v3.556h-32v-3.556z"></path>
<path fill="#ffe15a" d="M0 21.333h32v3.556h-32v-3.556z"></path>
<path fill="#ff4b55" d="M0 25c0 1.252 0.329 2.427 0.905 3.444h30.19c0.576-1.017 0.905-2.192 0.905-3.444v-0.111h-32v0.111z"></path>
<path fill="#64466e" d="M22.109 15.352v-15.352h-15.109c-3.866 0-7 3.134-7 7v9h21.46c0.358 0 0.648-0.29 0.648-0.648z"></path>
<path fill="#f5f5f5" d="M19.812 7.236h-1.686v-1.927h0.241v-0.482h-2.408v0.482h0.241v1.927h-0.963v-1.927h0.241v-0.482h-2.408v0.482h0.241v1.927h-1.445v-2.408h0.241v-0.482h-2.408v0.482h0.241v2.408h-1.445v-1.927h0.241v-0.482h-2.408v0.482h0.241v1.927h-0.963v-1.927h0.241v-0.482h-2.408v0.482h0.241v1.927h-1.927v0.482h0.241v4.335h3.372v-1.445c0-0.266 0.216-0.482 0.482-0.482s0.482 0.216 0.482 0.482v1.445h2.408v-1.445c0-0.266 0.216-0.482 0.482-0.482s0.482 0.216 0.482 0.482v1.445h0.482v-1.686c0-0.399 0.323-0.723 0.723-0.723s0.723 0.323 0.723 0.723v1.686h0.482v-1.445c0-0.266 0.216-0.482 0.482-0.482s0.482 0.216 0.482 0.482v1.445h2.408v-1.445c0-0.266 0.216-0.482 0.482-0.482s0.482 0.216 0.482 0.482v1.445h3.372v-4.335h0.241v-0.482l-0.241-0zM5.122 9.163h-0.963v-1.445c0-0.266 0.216-0.482 0.482-0.482s0.482 0.216 0.482 0.482l0 1.445zM8.011 9.163h-0.963v-1.445c0-0.266 0.216-0.482 0.482-0.482s0.482 0.216 0.482 0.482v1.445h0zM11.383 7.718h-0.963v-0.963c0-0.266 0.216-0.482 0.482-0.482s0.482 0.216 0.482 0.482v0.963h0zM14.755 9.163h-0.963v-1.445c0-0.266 0.216-0.482 0.482-0.482s0.482 0.216 0.482 0.482v1.445h0zM17.644 9.163h-0.963v-1.445c0-0.266 0.216-0.482 0.482-0.482s0.482 0.216 0.482 0.482v1.445h0z"></path>
</svg>
