<!-- Generated by IcoMoon.io -->
<svg version="1.1" xmlns="http://www.w3.org/2000/svg" width="32" height="32" viewBox="0 0 32 32">
<title>barbados</title>
<path fill="#ffe15a" d="M10.667 0h10.667v32h-10.667v-32z"></path>
<path fill="#41479b" d="M7 0c-3.866 0-6.999 3.133-7 6.999v18.002c0.001 3.865 3.134 6.999 7 6.999h3.667v-32h-3.667z"></path>
<path fill="#41479b" d="M32 25v-18c0-3.866-3.134-7-7-7h-3.667v32h3.667c3.866 0 7-3.134 7-7z"></path>
<path fill="#464655" d="M20.414 12.954c0 0-1.535 0-2.687 1.151h0.768c0 0-0.744 1.343-1.127 3.646l-0.792-0.129v-3.528l0.768 0.251-1.343-3.31-1.343 3.31 0.768-0.256v3.533l-0.792 0.129c-0.384-2.303-1.127-3.646-1.127-3.646h0.768c-1.151-1.151-2.687-1.151-2.687-1.151 1.919 2.303 1.919 6.141 1.919 6.141l1.919-0.32v2.623h1.151v-2.623l1.919 0.32c-0 0-0-3.838 1.919-6.141z"></path>
</svg>
