<svg xmlns="http://www.w3.org/2000/svg" width="32" height="32" version="1.1" viewBox="0 0 32 32"><title>belize</title><path fill="#ff4b55" d="M25 0h-18c-2.536 0-4.758 1.349-5.985 3.368h29.971c-1.228-2.020-3.449-3.368-5.985-3.368z"/><path fill="#ff4b55" d="M7 32h18c2.536 0 4.758-1.349 5.985-3.368h-29.971c1.228 2.020 3.449 3.368 5.985 3.368z"/><path fill="#41479b" d="M1.015 3.368c-0.644 1.059-1.015 2.302-1.015 3.632v18c0 1.33 0.371 2.573 1.015 3.632h29.971c0.644-1.059 1.015-2.302 1.015-3.632v-18c0-1.33-0.371-2.573-1.015-3.632h-29.971z"/><path fill="#f5f5f5" d="M24.859 9.189c6.925 10.987-4.684 22.595-15.67 15.67-0.827-0.521-1.527-1.221-2.048-2.048-6.925-10.987 4.684-22.595 15.67-15.67 0.827 0.521 1.527 1.221 2.048 2.048z"/><path fill="#82afff" d="M13.899 21.756l-1.689 0.282c-0.213 0.035-0.407-0.129-0.407-0.345v-0.636h2.095v0.698z"/><path fill="#82afff" d="M18.090 21.756l1.689 0.282c0.213 0.035 0.407-0.129 0.407-0.345v-0.636h-2.096v0.698z"/><path fill="#965032" d="M15.646 10.395h-0.146c-0.175 0-0.333-0.098-0.411-0.254l-0.258-0.517 0.234-0.117 0.258 0.517c0.034 0.068 0.102 0.11 0.177 0.11h0.146v0.262z"/><path fill="#965032" d="M12.941 9.856l0.433 0.866-0.234 0.117-0.433-0.866 0.234-0.117z"/><path fill="#965032" d="M16.475 14.422l-0.716-0.716c-0.155-0.155-0.245-0.371-0.245-0.591v-0.241c0-0.088-0.021-0.177-0.061-0.256l-0.178-0.357c-0.037-0.074-0.112-0.121-0.195-0.121h-0.616c-0.183 0-0.348-0.102-0.43-0.265l-0.253-0.505 0.234-0.117 0.253 0.505c0.037 0.074 0.112 0.121 0.195 0.121h0.616c0.183 0 0.348 0.102 0.43 0.265l0.178 0.357c0.058 0.116 0.088 0.245 0.088 0.373v0.241c0 0.151 0.061 0.299 0.168 0.405l0.269 0.269v-1.22c0-0.331-0.114-0.655-0.321-0.914-0.244-0.305-0.378-0.687-0.378-1.077v-1.013h0.262v1.013c0 0.331 0.114 0.655 0.321 0.914 0.244 0.305 0.378 0.687 0.378 1.077l-0 1.853z"/><path fill="#965032" d="M15.852 13.745h-0.389c-0.24 0-0.457-0.151-0.54-0.376l-0.098-0.265 0.246-0.091 0.098 0.265c0.046 0.123 0.164 0.205 0.295 0.205h0.389v0.262h0z"/><path fill="#965032" d="M15.691 12.613l-0.24-0.106 1.471-3.344 0.24 0.106z"/><path fill="#965032" d="M17.523 12.142h-1.266v-0.262h1.004v-1.266h0.262z"/><path fill="#73af00" d="M15.335 13.408h-1.473c-0.172 0-0.311-0.139-0.311-0.311v-0.426c0-0.172 0.139-0.311 0.311-0.311h1.473c0.172 0 0.311 0.139 0.311 0.311v0.426c0 0.172-0.139 0.311-0.311 0.311z"/><path fill="#73af00" d="M17.779 13.408h-1.473c-0.172 0-0.311-0.139-0.311-0.311v-0.426c0-0.172 0.139-0.311 0.311-0.311h1.473c0.172 0 0.311 0.139 0.311 0.311v0.426c0 0.172-0.139 0.311-0.311 0.311z"/><path fill="#73af00" d="M18.827 12.36h-1.823c-0.172 0-0.311-0.139-0.311-0.311v-0.426c0-0.172 0.139-0.311 0.311-0.311h1.823c0.172 0 0.311 0.139 0.311 0.311v0.426c0 0.172-0.139 0.311-0.311 0.311z"/><path fill="#73af00" d="M19.176 10.963h-2.87c-0.172 0-0.311-0.139-0.311-0.311v-0.426c0-0.172 0.139-0.311 0.311-0.311h2.87c0.172 0 0.311 0.139 0.311 0.311v0.426c0 0.172-0.139 0.311-0.311 0.311z"/><path fill="#73af00" d="M17.779 9.566h-1.124c-0.172 0-0.311-0.139-0.311-0.311v-0.426c0-0.172 0.139-0.311 0.311-0.311h1.124c0.172 0 0.311 0.139 0.311 0.311v0.426c0 0.172-0.139 0.311-0.311 0.311z"/><path fill="#73af00" d="M13.239 10.264h-0.775c-0.172 0-0.311-0.139-0.311-0.311v-0.426c0-0.172 0.139-0.311 0.311-0.311h0.775c0.172 0 0.311 0.139 0.311 0.311v0.426c-0 0.172-0.139 0.311-0.311 0.311z"/><path fill="#73af00" d="M15.684 9.915h-1.473c-0.172 0-0.311-0.139-0.311-0.311v-0.426c0-0.172 0.139-0.311 0.311-0.311h1.473c0.172 0 0.311 0.139 0.311 0.311v0.426c0 0.172-0.139 0.311-0.311 0.311z"/><path fill="#73af00" d="M15.335 11.661h-2.521c-0.172 0-0.311-0.139-0.311-0.311v-0.426c0-0.172 0.139-0.311 0.311-0.311h2.521c0.172 0 0.311 0.139 0.311 0.311v0.426c0 0.172-0.139 0.311-0.311 0.311z"/><path fill="#73af00" d="M21.234 18.962h-10.477c-0.386 0-0.698 0.313-0.698 0.698s0.313 0.698 0.698 0.698h2.794c0 0.386 0.313 0.698 0.698 0.698h3.492c0.386 0 0.698-0.313 0.698-0.698h2.794c0.386 0 0.698-0.313 0.698-0.698s-0.313-0.698-0.699-0.698z"/><path fill="#be7855" d="M22.958 12.763c-0.026-0.052-0.162 0.010-0.247-0.022-1.055-0.392-2.472-1.107-3.398-1.594l-0.186-0.294-1.755-0.853c-0.112-0.054-0.246-0.013-0.308 0.095l-0.087 0.152c-0.066 0.116-0.022 0.264 0.096 0.325l1.671 0.869 0.472-0.035 1.835 0.944c0 0 1.247 0.638 1.313 0.685s0.104 0.309 0.228 0.287c0.088-0.016 0.477-0.333 0.364-0.56z"/><path fill="#ffbe3c" d="M11.382 19.486c0 0 0.116 0.517 0.007 0.575s-0.691 0.058-0.677-0.066 0.095-0.56 0.095-0.56l0.575 0.051z"/><path fill="#ffbe3c" d="M12.35 19.21c0 0-0.095 0.386 0.095 0.4s1.259 0.007 1.288-0.022c0.029-0.029 0.066-0.102 0.066-0.102l-0.99-0.276h-0.458z"/><path fill="#eaf3f5" d="M11.264 14.4c0 0-0.26 0.618-0.355 2.761-0.025 0.57 0.044 0.437-0.24 2.27l0.337 0.176c0.098 0.051 0.216 0.047 0.31-0.010l0.328-0.199c0 0-0.16-2.052 0.364-3.231 0 0 0.277 0.509 0.277 0.888s-0.015 2.197-0.015 2.197 0.611 0.102 0.888 0.073c0 0-0.175-3.947-0.349-4.877l-1.544-0.049z"/><path fill="#965032" d="M11.313 14.139c0 0-0.104 0.076-0.049 0.262 0 0 0.797 0.344 1.544 0.049 0 0 0.082-0.12-0.022-0.267l-1.473-0.044z"/><path fill="#965032" d="M10.247 12.247c-0.453 0.169-1.142 0.589-1.099 0.924s0.281 0.253 0.355 0.171c0.074-0.082 0.286-0.346 0.353-0.393s1.139-0.597 1.139-0.597l2.839-1.46c0 0 0.022-0.142-0.147-0.257 0-0-1.737 0.979-3.44 1.612z"/><path fill="#ffbe3c" d="M11.586 10.602l-0.016 0.12c0 0-0.044 0.769 0.207 0.977 0 0 0.055 0.158-0.033 0.235s-0.95 0.513-0.95 0.513-0.224 0.464-0.218 0.726c0 0-0.213-0.082-0.191-0.186s0.147-0.377 0.109-0.508c-0.038-0.131-0.18-0.093-0.18-0.093s-0.071 0.076 0.044 0.126l-0.038 0.164-0.464 0.273 0.104 0.126c0 0 0.005 0.96 0.573 1.086 0 0 0.3 0.022 0.655-0.655 0 0 0.191 0.338 0.126 0.633 0 0 0.622 0.338 1.473 0.044l0.011-0.589c0 0 0.131 0.906 0.578 0.819 0 0 1.24-0.477 1.033-0.659-0.48-0.422-1.060-0.065-1.060-0.065-0.028-0.613-0.079-1.406-0.159-1.492-0.131-0.142-0.535-0.066-0.615-0.247s-0.058-0.502 0.029-0.873-0.357-0.633-0.357-0.633l-0.662 0.16z"/><path fill="#464655" d="M11.569 10.722c0 0 0.446 0.113 0.795-0.025l0.153 0.378h0.087c0 0 0.21-0.7-0.069-0.692 0 0-0.001-0.227-0.489-0.218-0.419 0.008-0.564 0.28-0.477 0.557z"/><path fill="#965032" d="M20.665 19.486c0 0-0.116 0.517-0.007 0.575s0.691 0.058 0.677-0.066-0.095-0.56-0.095-0.56l-0.575 0.051z"/><path fill="#965032" d="M19.698 19.21c0 0 0.095 0.386-0.095 0.4s-1.259 0.007-1.288-0.022c-0.029-0.029-0.066-0.102-0.066-0.102l0.99-0.276h0.458z"/><path fill="#eaf3f5" d="M20.784 14.4c0 0 0.26 0.618 0.355 2.761 0.025 0.57-0.044 0.437 0.24 2.27l-0.337 0.176c-0.098 0.051-0.216 0.047-0.31-0.010l-0.328-0.199c0 0 0.16-2.052-0.364-3.231 0 0-0.276 0.509-0.276 0.888s0.015 2.197 0.015 2.197-0.611 0.102-0.888 0.073c0 0 0.175-3.947 0.349-4.877l1.544-0.049z"/><path fill="#be7855" d="M20.735 14.139c0 0 0.104 0.076 0.049 0.262 0 0-0.797 0.344-1.544 0.049 0 0-0.082-0.12 0.022-0.267l1.473-0.044z"/><path fill="#965032" d="M20.462 10.602l0.016 0.12c0 0 0.044 0.769-0.207 0.977 0 0-0.055 0.158 0.033 0.235s0.95 0.513 0.95 0.513 0.224 0.464 0.218 0.726c0 0 0.213-0.082 0.191-0.186s-0.147-0.377-0.109-0.508c0.038-0.131 0.18-0.093 0.18-0.093s0.071 0.076-0.044 0.126l0.038 0.164 0.464 0.273-0.104 0.126c0 0-0.005 0.96-0.573 1.086 0 0-0.3 0.022-0.655-0.655 0 0-0.191 0.338-0.125 0.633 0 0-0.622 0.338-1.473 0.044l-0.011-0.589c0 0-0.131 0.906-0.578 0.819 0 0-1.24-0.477-1.033-0.659 0.48-0.422 1.060-0.065 1.060-0.065 0.028-0.613 0.079-1.406 0.159-1.492 0.131-0.142 0.535-0.066 0.615-0.247s0.058-0.502-0.029-0.873 0.357-0.633 0.357-0.633l0.662 0.16z"/><path fill="#464655" d="M20.478 10.722c0 0-0.446 0.113-0.795-0.025l-0.153 0.378h-0.087c0 0-0.21-0.7 0.069-0.692 0 0 0.001-0.227 0.489-0.218 0.419 0.008 0.564 0.28 0.477 0.557z"/><path fill="#eaf3f5" d="M12.991 11.014c-0.036-0.089 0.025-0.113 0.025-0.113s0.442-0.242 0.493-0.238c0.085 0.007 0.189 0.156 0.189 0.284s0.166 0.458 0.507 0.54c0 0-0.426 0.578-1.016 0.499 0-0 0.040-0.396-0.197-0.972z"/><path fill="#82afff" d="M13.61 13.724c-0.131 0-0.237 0.113-0.237 0.253v2.89c0 0.698 0.327 3.143 2.619 3.842 2.292-0.698 2.619-3.143 2.619-3.842v-2.89c0-0.14-0.106-0.253-0.237-0.253h-4.765z"/><path fill="#ffe15a" d="M18.612 16.867v-2.89c0-0.14-0.106-0.253-0.237-0.253h-2.382v2.445l2.302 2.302c0.255-0.673 0.317-1.302 0.317-1.604z"/><path fill="#eaf3f5" d="M13.373 16.867v-2.89c0-0.14 0.106-0.253 0.237-0.253h2.382v2.445l-2.302 2.302c-0.255-0.673-0.317-1.302-0.317-1.604z"/><path fill="#8c5a28" d="M14.448 18.396l0.606 0.641h1.688l0.358-0.459-0.412 0.165h-1.364z"/><path fill="#f5f5f5" d="M15.101 17.569l-0.092 0.933-0.421-0.161c0 0 0.194-0.45 0.514-0.772z"/><path fill="#8c5a28" d="M15.932 17.199h0.062v1.589h-0.062v-1.589z"/><path fill="#8c5a28" d="M16.508 17.334h0.062v1.454h-0.062v-1.454z"/><path fill="#8c5a28" d="M15.358 17.334h0.062v1.454h-0.062v-1.454z"/><path fill="#f5f5f5" d="M16.194 18.637h-0.462c-0.017 0-0.031-0.014-0.031-0.031v-0.274c0-0.017 0.014-0.031 0.031-0.031h0.462c0.017 0 0.031 0.014 0.031 0.031v0.274c0 0.017-0.014 0.031-0.031 0.031z"/><path fill="#f5f5f5" d="M16.194 18.19h-0.462c-0.017 0-0.031-0.014-0.031-0.031v-0.274c0-0.017 0.014-0.031 0.031-0.031h0.462c0.017 0 0.031 0.014 0.031 0.031v0.274c0 0.017-0.014 0.031-0.031 0.031z"/><path fill="#f5f5f5" d="M16.194 17.779h-0.462c-0.017 0-0.031-0.014-0.031-0.031v-0.274c0-0.017 0.014-0.031 0.031-0.031h0.462c0.017 0 0.031 0.014 0.031 0.031v0.274c0 0.017-0.014 0.031-0.031 0.031z"/><path fill="#f5f5f5" d="M16.734 18.637h-0.391c-0.017 0-0.031-0.014-0.031-0.031v-0.274c0-0.017 0.014-0.031 0.031-0.031h0.391c0.017 0 0.031 0.014 0.031 0.031v0.274c0 0.017-0.014 0.031-0.031 0.031z"/><path fill="#f5f5f5" d="M16.734 18.226h-0.391c-0.017 0-0.031-0.014-0.031-0.031v-0.221c0-0.017 0.014-0.031 0.031-0.031h0.391c0.017 0 0.031 0.014 0.031 0.031v0.221c0 0.017-0.014 0.031-0.031 0.031z"/><path fill="#f5f5f5" d="M16.734 17.818h-0.391c-0.017 0-0.031-0.014-0.031-0.031v-0.176c0-0.017 0.014-0.031 0.031-0.031h0.391c0.017 0 0.031 0.014 0.031 0.031v0.176c0 0.017-0.014 0.031-0.031 0.031z"/><path fill="#f5f5f5" d="M15.585 18.637h-0.391c-0.017 0-0.031-0.014-0.031-0.031v-0.274c0-0.017 0.014-0.031 0.031-0.031h0.391c0.017 0 0.031 0.014 0.031 0.031v0.274c0 0.017-0.014 0.031-0.031 0.031z"/><path fill="#f5f5f5" d="M15.585 18.226h-0.391c-0.017 0-0.031-0.014-0.031-0.031v-0.221c0-0.017 0.014-0.031 0.031-0.031h0.391c0.017 0 0.031 0.014 0.031 0.031v0.221c0 0.017-0.014 0.031-0.031 0.031z"/><path fill="#f5f5f5" d="M15.585 17.818h-0.391c-0.017 0-0.031-0.014-0.031-0.031v-0.176c0-0.017 0.014-0.031 0.031-0.031h0.391c0.017 0 0.031 0.014 0.031 0.031v0.176c0 0.017-0.014 0.031-0.031 0.031z"/><path fill="#ff4b55" d="M16.507 17.334v0.188l-0.277-0.096z"/><path fill="#ff4b55" d="M15.358 17.334v0.188l-0.277-0.096z"/><path fill="#ff4b55" d="M15.934 17.199v0.188l-0.277-0.096z"/><path fill="#4173cd" d="M18.072 18.962h-4.158c0.062 0.118 0.13 0.234 0.206 0.349h3.746c0.076-0.115 0.144-0.232 0.206-0.349z"/><path fill="#73af00" d="M17.866 19.312h-3.746c0.165 0.249 0.368 0.485 0.611 0.698h2.523c0.243-0.213 0.446-0.45 0.611-0.698v0z"/><path fill="#ffe15a" d="M14.731 20.010c0.335 0.294 0.746 0.541 1.261 0.698 0.515-0.157 0.926-0.405 1.261-0.698h-2.523z"/><path fill="#be7855" d="M15.544 16.374c0 0-0.026 0.009-0.053 0.006-0.021-0.009-0.065-0.011-0.039-0.091 0.013-0.040 0.040-0.096 0.020-0.111-0.016-0.018-0.033-0.038-0.051-0.059-0.036-0.042-0.077-0.089-0.122-0.141-0.092-0.101-0.2-0.217-0.327-0.332-0.063-0.057-0.129-0.117-0.195-0.177-0.069-0.058-0.132-0.123-0.207-0.177-0.042-0.022-0.096-0.034-0.143-0.051-0.046-0.019-0.075-0.053-0.108-0.083-0.066-0.061-0.131-0.121-0.194-0.179-0.127-0.114-0.239-0.227-0.335-0.325-0.093-0.093-0.168-0.174-0.221-0.232-0.050-0.056-0.047-0.141 0.007-0.194l0.155-0.15c0.054-0.052 0.139-0.052 0.194-0 0.057 0.055 0.135 0.133 0.224 0.229 0.094 0.099 0.203 0.215 0.312 0.347 0.056 0.065 0.113 0.132 0.172 0.2 0.028 0.035 0.062 0.065 0.079 0.111 0.016 0.048 0.025 0.102 0.046 0.145 0.051 0.077 0.114 0.143 0.17 0.214 0.058 0.069 0.115 0.136 0.17 0.201 0.11 0.131 0.222 0.244 0.32 0.339 0.050 0.046 0.096 0.089 0.137 0.127 0.020 0.019 0.039 0.037 0.057 0.053 0.014 0.020 0.071-0.005 0.112-0.016 0.082-0.023 0.081 0.020 0.090 0.042 0.002 0.028-0.008 0.053-0.008 0.053l-0.261 0.251z"/><path fill="#965032" d="M13.834 16.649c-0.027 0-0.054-0.008-0.078-0.026-0.058-0.043-0.071-0.125-0.028-0.183l1.244-1.688c0.043-0.058 0.124-0.071 0.183-0.028s0.071 0.125 0.028 0.183l-1.244 1.688c-0.026 0.035-0.065 0.053-0.106 0.053z"/><path fill="#f5f5f5" d="M14.831 14.641l0.648 0.429 0.276-0.386-0.604-0.488z"/><path fill="#965032" d="M16.552 14.475l1.659 2.046c0 0 0.233 0.011 0.201-0.175l-1.718-2.015-0.143 0.143z"/><path fill="#eaf3f5" d="M16.18 14.756c0 0 0.467-0.085 0.663-0.376l0.265 0.313c0 0-0.435 0.307-0.477 0.642 0 0-0.355-0.095-0.451-0.578z"/><path fill="#965032" d="M17.972 14.554c-0.030 0-0.060-0.017-0.075-0.045-0.047-0.089-0.055-0.17-0.024-0.241 0.044-0.098 0.146-0.127 0.158-0.13 0.046-0.010 0.092 0.016 0.103 0.061s-0.015 0.091-0.060 0.103c-0.009 0.003-0.037 0.015-0.046 0.035s-0.001 0.053 0.020 0.092c0.022 0.041 0.006 0.093-0.036 0.115-0.013 0.007-0.026 0.010-0.039 0.010z"/><path fill="#965032" d="M16.609 15.817c0-0.030-0.017-0.060-0.045-0.075-0.089-0.047-0.17-0.055-0.241-0.024-0.098 0.044-0.127 0.146-0.13 0.158-0.010 0.046 0.016 0.092 0.061 0.103s0.091-0.015 0.103-0.060c0.003-0.009 0.015-0.037 0.035-0.046s0.053-0.001 0.092 0.020c0.041 0.022 0.093 0.006 0.115-0.036 0.007-0.013 0.010-0.026 0.010-0.039z"/><path fill="#eaf3f5" d="M18.029 14.363l-1.562 1.534 0.368 0.41 1.527-1.541z"/><path fill="#ffbe3c" d="M10.094 12.152c0.105-0.024 0.196 0.116 0.102 0.218s-0.368 0.286-0.451 0.269c-0.146-0.029-0.247-0.349 0.349-0.487z"/><path fill="#965032" d="M21.947 12.3c-0.097-0.024-0.182 0.116-0.094 0.218s0.341 0.286 0.418 0.269c0.135-0.029 0.229-0.349-0.324-0.488z"/><path fill="#464655" d="M18.375 13.724c0.131 0 0.237 0.113 0.237 0.253v2.89c0 0.698-0.327 3.143-2.619 3.842-2.292-0.698-2.619-3.143-2.619-3.842v-2.89c0-0.14 0.106-0.253 0.237-0.253h4.765zM18.375 13.549h-4.765c-0.227 0-0.412 0.192-0.412 0.427v2.89c0 0.167 0.023 1.047 0.467 1.995 0.472 1.008 1.259 1.704 2.276 2.014l0.051 0.015 0.051-0.015c1.017-0.31 1.804-1.006 2.276-2.014 0.444-0.948 0.467-1.828 0.467-1.995v-2.89c0-0.236-0.185-0.427-0.412-0.427v0z"/><path fill="#eaf3f5" d="M20.186 20.75c-0.742-0.249-1.538-0.134-2.289 0.367-0.96 0.64-1.596 0.64-1.902 0.64s-0.942 0-1.902-0.64c-0.751-0.501-1.547-0.616-2.289-0.367v0.749c0.468-0.224 1.127-0.317 1.902 0.2 1.136 0.757 1.944 0.757 2.289 0.757s1.154 0 2.289-0.757c0.775-0.517 1.434-0.423 1.902-0.2v-0.749z"/><path fill="#965032" d="M15.995 24.725c-4.911 0-8.906-3.995-8.906-8.906s3.995-8.906 8.906-8.906 8.906 3.995 8.906 8.906-3.995 8.906-8.906 8.906zM15.995 7.263c-4.718 0-8.557 3.838-8.557 8.557s3.838 8.557 8.557 8.557 8.557-3.838 8.557-8.557c0-4.718-3.838-8.557-8.557-8.557z"/><path fill="#73af00" d="M6.252 16.561c0 0-0.036-1.091 1.011-1.091 0 0 0.022 0.429-0.356 0.618-0.306 0.153-0.655 0.473-0.655 0.473z"/><path fill="#73af00" d="M8.275 16.561c0 0 0.036-1.091-1.011-1.091 0 0-0.022 0.429 0.356 0.618 0.306 0.153 0.655 0.473 0.655 0.473z"/><path fill="#73af00" d="M25.73 15.47c0 0 0.036 1.091-1.011 1.091 0 0-0.022-0.429 0.357-0.618 0.306-0.153 0.655-0.473 0.655-0.473z"/><path fill="#73af00" d="M23.707 15.47c0 0-0.036 1.091 1.011 1.091 0 0 0.022-0.429-0.357-0.618-0.306-0.153-0.655-0.473-0.655-0.473z"/><path fill="#73af00" d="M16.537 25.755c0 0-1.091 0.036-1.091-1.011 0 0 0.429-0.022 0.618 0.357 0.153 0.306 0.473 0.655 0.473 0.655z"/><path fill="#73af00" d="M16.537 23.732c0 0-1.091-0.036-1.091 1.011 0 0 0.429 0.022 0.618-0.357 0.153-0.306 0.473-0.655 0.473-0.655z"/><path fill="#73af00" d="M15.446 6.277c0 0 1.091-0.036 1.091 1.011 0 0-0.429 0.022-0.618-0.356-0.153-0.306-0.473-0.655-0.473-0.655z"/><path fill="#73af00" d="M15.446 8.3c0 0 1.091 0.036 1.091-1.011 0 0-0.429-0.022-0.618 0.356-0.153 0.306-0.473 0.655-0.473 0.655z"/><path fill="#73af00" d="M9.491 23.288c0 0-0.797-0.746-0.057-1.487 0 0 0.319 0.288 0.185 0.689-0.108 0.325-0.129 0.797-0.129 0.797z"/><path fill="#73af00" d="M10.921 21.858c0 0-0.746-0.797-1.487-0.057 0 0 0.288 0.319 0.689 0.185 0.324-0.108 0.797-0.129 0.797-0.129z"/><path fill="#73af00" d="M22.492 8.743c0 0 0.797 0.746 0.057 1.487 0 0-0.319-0.288-0.185-0.689 0.108-0.325 0.129-0.797 0.129-0.797z"/><path fill="#73af00" d="M21.061 10.174c0 0 0.746 0.797 1.487 0.057 0 0-0.288-0.319-0.689-0.185-0.324 0.108-0.797 0.129-0.797 0.129z"/><path fill="#73af00" d="M23.264 22.516c0 0-0.746 0.797-1.487 0.057 0 0 0.288-0.319 0.689-0.185 0.325 0.108 0.797 0.129 0.797 0.129z"/><path fill="#73af00" d="M21.833 21.086c0 0-0.797 0.746-0.057 1.487 0 0 0.319-0.288 0.185-0.689-0.108-0.324-0.129-0.797-0.129-0.797z"/><path fill="#73af00" d="M8.719 9.515c0 0 0.746-0.797 1.487-0.057 0 0-0.288 0.319-0.689 0.185-0.325-0.108-0.797-0.129-0.797-0.129z"/><path fill="#73af00" d="M10.149 10.946c0 0 0.797-0.746 0.057-1.487 0 0-0.319 0.288-0.185 0.689 0.108 0.324 0.129 0.797 0.129 0.797z"/><path fill="#73af00" d="M7.202 20.247c0 0-0.451-0.994 0.517-1.395 0 0 0.184 0.388-0.093 0.708-0.224 0.258-0.424 0.688-0.424 0.688z"/><path fill="#73af00" d="M9.071 19.473c0 0-0.384-1.022-1.352-0.621 0 0 0.144 0.405 0.566 0.435 0.341 0.024 0.786 0.186 0.786 0.186z"/><path fill="#73af00" d="M24.78 11.785c0 0 0.451 0.994-0.517 1.395 0 0-0.184-0.388 0.093-0.708 0.224-0.258 0.424-0.688 0.424-0.688z"/><path fill="#73af00" d="M22.911 12.559c0 0 0.384 1.022 1.352 0.621 0 0-0.144-0.405-0.566-0.435-0.341-0.024-0.786-0.186-0.786-0.186z"/><path fill="#73af00" d="M20.222 24.805c0 0-0.994 0.451-1.395-0.517 0 0 0.388-0.184 0.708 0.093 0.258 0.224 0.688 0.424 0.688 0.424z"/><path fill="#73af00" d="M19.448 22.936c0 0-1.022 0.384-0.621 1.352 0 0 0.405-0.144 0.435-0.566 0.024-0.341 0.186-0.786 0.186-0.786z"/><path fill="#73af00" d="M11.76 7.227c0 0 0.994-0.451 1.395 0.517 0 0-0.388 0.184-0.708-0.093-0.258-0.224-0.688-0.424-0.688-0.424z"/><path fill="#73af00" d="M12.534 9.096c0 0 1.022-0.384 0.621-1.352 0 0-0.405 0.144-0.435 0.566-0.024 0.341-0.186 0.786-0.186 0.786z"/><path fill="#73af00" d="M12.768 25.222c0 0-1.022-0.384-0.621-1.352 0 0 0.405 0.144 0.435 0.566 0.024 0.341 0.186 0.786 0.186 0.786z"/><path fill="#73af00" d="M13.543 23.353c0 0-0.994-0.451-1.395 0.517 0 0 0.388 0.184 0.708-0.093 0.258-0.224 0.688-0.424 0.688-0.424z"/><path fill="#73af00" d="M19.214 6.809c0 0 1.022 0.384 0.621 1.352 0 0-0.405-0.144-0.435-0.566-0.024-0.341-0.186-0.786-0.186-0.786z"/><path fill="#73af00" d="M18.44 8.678c0 0 0.994 0.451 1.395-0.517 0 0-0.388-0.184-0.708 0.093-0.258 0.224-0.688 0.424-0.688 0.424z"/><path fill="#73af00" d="M25.198 19.238c0 0-0.384 1.022-1.352 0.621 0 0 0.144-0.405 0.566-0.435 0.341-0.024 0.786-0.186 0.786-0.186z"/><path fill="#73af00" d="M23.329 18.464c0 0-0.451 0.994 0.517 1.395 0 0 0.184-0.388-0.093-0.708-0.224-0.258-0.424-0.688-0.424-0.688z"/><path fill="#73af00" d="M6.785 12.793c0 0 0.384-1.022 1.352-0.621 0 0-0.144 0.405-0.566 0.435-0.341 0.024-0.786 0.186-0.786 0.186z"/><path fill="#73af00" d="M8.654 13.567c0 0 0.451-0.994-0.517-1.395 0 0-0.184 0.388 0.093 0.708 0.224 0.258 0.424 0.688 0.424 0.688z"/><path fill="#73af00" d="M6.546 18.451c0 0-0.249-1.063 0.779-1.268 0 0 0.105 0.417-0.229 0.676-0.27 0.21-0.55 0.592-0.55 0.592z"/><path fill="#73af00" d="M8.53 18.056c0 0-0.177-1.078-1.205-0.873 0 0 0.062 0.425 0.47 0.537 0.33 0.090 0.735 0.336 0.735 0.336z"/><path fill="#73af00" d="M25.437 13.581c0 0 0.249 1.063-0.779 1.268 0 0-0.105-0.417 0.229-0.676 0.27-0.21 0.55-0.592 0.55-0.592z"/><path fill="#73af00" d="M23.453 13.975c0 0 0.177 1.078 1.205 0.873 0 0-0.062-0.425-0.47-0.537-0.33-0.090-0.735-0.336-0.735-0.336z"/><path fill="#73af00" d="M18.426 25.461c0 0-1.063 0.249-1.268-0.779 0 0 0.417-0.105 0.676 0.229 0.21 0.27 0.592 0.55 0.592 0.55z"/><path fill="#73af00" d="M18.032 23.477c0 0-1.078 0.177-0.873 1.205 0 0 0.425-0.062 0.537-0.47 0.090-0.33 0.336-0.735 0.336-0.735z"/><path fill="#73af00" d="M13.556 6.57c0 0 1.063-0.249 1.268 0.779 0 0-0.417 0.105-0.676-0.229-0.21-0.27-0.592-0.55-0.592-0.55z"/><path fill="#73af00" d="M13.951 8.555c0 0 1.078-0.177 0.873-1.205 0 0-0.425 0.062-0.537 0.47-0.090 0.33-0.336 0.735-0.336 0.735z"/><path fill="#73af00" d="M11.034 24.417c0 0-0.928-0.576-0.346-1.447 0 0 0.369 0.22 0.316 0.64-0.043 0.339 0.029 0.807 0.029 0.807z"/><path fill="#73af00" d="M12.158 22.735c0 0-0.887-0.637-1.469 0.235 0 0 0.345 0.257 0.712 0.047 0.297-0.169 0.757-0.282 0.757-0.282z"/><path fill="#73af00" d="M20.948 7.615c0 0 0.928 0.576 0.346 1.447 0 0-0.369-0.22-0.316-0.64 0.043-0.339-0.029-0.807-0.029-0.807z"/><path fill="#73af00" d="M19.824 9.297c0 0 0.887 0.637 1.469-0.235 0 0-0.345-0.257-0.712-0.047-0.297 0.169-0.757 0.282-0.757 0.282z"/><path fill="#73af00" d="M24.392 20.973c0 0-0.576 0.928-1.447 0.346 0 0 0.22-0.369 0.64-0.316 0.339 0.043 0.807-0.029 0.807-0.029z"/><path fill="#73af00" d="M22.71 19.849c0 0-0.637 0.887 0.235 1.469 0 0 0.257-0.345 0.047-0.712-0.169-0.297-0.282-0.757-0.282-0.757z"/><path fill="#73af00" d="M7.59 11.059c0 0 0.576-0.928 1.447-0.346 0 0-0.22 0.369-0.64 0.316-0.339-0.043-0.807 0.029-0.807 0.029z"/><path fill="#73af00" d="M9.273 12.183c0 0 0.637-0.887-0.235-1.469 0 0-0.257 0.345-0.047 0.712 0.169 0.297 0.282 0.757 0.282 0.757z"/><path fill="#73af00" d="M8.197 21.88c0 0-0.637-0.887 0.235-1.469 0 0 0.257 0.345 0.047 0.712-0.169 0.297-0.282 0.757-0.282 0.757z"/><path fill="#73af00" d="M9.879 20.756c0 0-0.576-0.928-1.447-0.346 0 0 0.22 0.369 0.64 0.316 0.339-0.043 0.807 0.029 0.807 0.029z"/><path fill="#73af00" d="M23.786 10.151c0 0 0.637 0.887-0.235 1.469 0 0-0.257-0.345-0.047-0.712 0.169-0.297 0.282-0.757 0.282-0.757z"/><path fill="#73af00" d="M22.104 11.275c0 0 0.576 0.928 1.447 0.346 0 0-0.22-0.369-0.64-0.316-0.339 0.043-0.807-0.029-0.807-0.029z"/><path fill="#73af00" d="M21.856 23.81c0 0-0.887 0.637-1.469-0.235 0 0 0.345-0.257 0.712-0.047 0.297 0.169 0.757 0.282 0.757 0.282z"/><path fill="#73af00" d="M20.732 22.128c0 0-0.928 0.576-0.346 1.447 0 0 0.369-0.22 0.316-0.64-0.043-0.339 0.029-0.807 0.029-0.807z"/><path fill="#73af00" d="M10.127 8.221c0 0 0.887-0.637 1.469 0.235 0 0-0.345 0.257-0.712 0.047-0.297-0.169-0.757-0.282-0.757-0.282z"/><path fill="#73af00" d="M11.251 9.903c0 0 0.928-0.576 0.346-1.447 0 0-0.369 0.22-0.316 0.64 0.043 0.339-0.029 0.807-0.029 0.807z"/><path fill="#73af00" d="M14.627 25.674c0 0-1.078-0.177-0.873-1.205 0 0 0.425 0.062 0.537 0.47 0.090 0.33 0.336 0.735 0.336 0.735z"/><path fill="#73af00" d="M15.021 23.69c0 0-1.063-0.249-1.268 0.779 0 0 0.417 0.105 0.676-0.229 0.21-0.27 0.592-0.55 0.592-0.55z"/><path fill="#73af00" d="M17.356 6.357c0 0 1.078 0.177 0.873 1.205 0 0-0.425-0.062-0.537-0.47-0.090-0.33-0.336-0.735-0.336-0.735z"/><path fill="#73af00" d="M16.961 8.342c0 0 1.063 0.249 1.268-0.779 0 0-0.417-0.105-0.676 0.229-0.21 0.27-0.592 0.55-0.592 0.55z"/><path fill="#73af00" d="M25.649 17.381c0 0-0.177 1.078-1.205 0.873 0 0 0.062-0.425 0.47-0.537 0.33-0.090 0.735-0.336 0.735-0.336z"/><path fill="#73af00" d="M23.665 16.986c0 0-0.249 1.063 0.779 1.268 0 0 0.105-0.417-0.229-0.676-0.27-0.21-0.55-0.592-0.55-0.592z"/><path fill="#73af00" d="M6.333 14.651c0 0 0.177-1.078 1.205-0.873 0 0-0.062 0.425-0.47 0.537-0.33 0.090-0.735 0.336-0.735 0.336z"/><path fill="#73af00" d="M8.317 15.046c0 0 0.249-1.063-0.779-1.268 0 0-0.105 0.417 0.229 0.676 0.27 0.21 0.55 0.592 0.55 0.592z"/></svg>