<!-- Generated by IcoMoon.io -->
<svg version="1.1" xmlns="http://www.w3.org/2000/svg" width="32" height="32" viewBox="0 0 32 32">
<title>bhutan</title>
<path fill="#ff6e55" d="M29.95 2.050l-27.899 27.899c1.267 1.267 3.017 2.050 4.95 2.050h18c3.866 0 7-3.134 7-7v-18c0-1.933-0.784-3.683-2.050-4.95z"></path>
<path fill="#ffe15a" d="M25 0h-18c-3.866 0-7 3.134-7 7v18c0 1.933 0.783 3.683 2.050 4.95l27.9-27.899c-1.267-1.267-3.017-2.050-4.95-2.050z"></path>
<path fill="#fff5dc" d="M18.435 8.562c-0.423 0.091-1.088-0.136-1.088-0.136 0.137 0.236 0.503 0.395 0.834 0.495-0.267 0.027-0.571 0.042-0.909 0.034-1.36-0.030-1.995 0.861-1.995 0.861 0.484-0.302 0.982-0.302 1.723-0.196s2.312-0.363 2.312-0.363l0.136-0.604c0 0-0.589-0.181-1.012-0.091z"></path>
<path fill="#fff5dc" d="M19.832 5.728c0 0 0.703 0.149 1.417 0.558-0.043 0.023-0.084 0.050-0.123 0.082-0.231-0.115-0.509-0.207-0.871-0.244 0 0 0.374 0.097 0.733 0.379-0.093 0.11-0.17 0.234-0.229 0.345-0.791-0.848-1.645-0.282-1.645-0.282 1.061-0.081 1.311 0.601 1.37 0.93-0.205-0.137-0.399-0.25-0.58-0.342 0.027-0.020 0.040-0.038 0.071-0.058 0 0-0.066 0.003-0.159 0.016-1.353-0.651-2.018-0.137-2.018-0.137 0.601-0.074 1.157 0.083 1.597 0.277-0.194 0.112-0.325 0.308-0.217 0.642-0.759-0.207-1.713-0.41-2.182-0.285-0.846 0.227-0.574 1.012-0.574 1.012s0.015-0.529 0.589-0.65c0.43-0.090 2.569 0.589 2.569 0.589l0.695-0.332-0.287-0.242c0 0-0.552-0.221-0.315-0.602 0.396 0.211 0.648 0.421 0.648 0.421l0.17-0.249c0.008 0.064 0.011 0.113 0.011 0.113l0.484-0.212 0.106-0.151c0.042-0.229 0.112-0.392 0.193-0.514 0.14 0.176 0.256 0.393 0.313 0.662l0.438 0.045c0 0-0.071-0.507-0.561-0.909 0.043-0.031 0.086-0.056 0.129-0.074 0.323 0.232 0.624 0.521 0.833 0.885l0.808-0.011c0 0-1.329-1.481-3.415-1.662z"></path>
<path fill="#fff5dc" d="M28.362 12.232c0.65 1.020-0.432 2.101-1.451 1.451-0.072-0.046-0.134-0.108-0.18-0.18-0.65-1.020 0.432-2.101 1.451-1.451 0.072 0.046 0.134 0.108 0.18 0.18z"></path>
<path fill="#fff5dc" d="M26.272 20.529c0.884 1.373-0.577 2.833-1.95 1.95-0.091-0.059-0.17-0.137-0.228-0.228-0.884-1.373 0.577-2.833 1.95-1.95 0.091 0.059 0.17 0.137 0.228 0.228z"></path>
<path fill="#fff5dc" d="M15.696 20.055c0.691 1.084-0.459 2.234-1.543 1.543-0.077-0.049-0.142-0.114-0.191-0.191-0.691-1.084 0.459-2.234 1.543-1.543 0.077 0.049 0.142 0.114 0.191 0.191z"></path>
<path fill="#fff5dc" d="M13.354 25.064c0.798 1.252-0.53 2.579-1.782 1.782-0.088-0.056-0.164-0.132-0.22-0.221-0.798-1.252 0.53-2.579 1.782-1.782 0.088 0.056 0.164 0.132 0.22 0.221z"></path>
<path fill="#fff5dc" d="M24.192 10.224c0 0 2.328 0.83 2.89 1.111 0.793 0.397 2.040-0.759 2.913 0.136 0 0-0.151-0.597-0.876-0.642 0 0 0.015-0.589-0.665-0.559 0 0 0.499 0.363 0.212 0.62 0 0-0.196-0.438-0.756-0.363 0 0 0.423 0.166 0.317 0.423 0 0-0.672 0.325-0.975 0.113s-2.69-1.5-3.445-1.53l0.385 0.691z"></path>
<path fill="#f5f5f5" d="M23.595 10.949c0 0 0.499 0.147 1.224 0.907 0.336 0.352 1.201 0.374 1.065-0.306s-1.813-1.099-1.995-1.099-0.295 0.499-0.295 0.499z"></path>
<path fill="#fff5dc" d="M27.229 9.453l-0.952 0.317c0 0 0.106 0.646-0.438 0.929-0.335 0.175-0.559 0.627-0.544 0.959 0 0 0.317-0.438 0.771-0.68 0.107-0.057 0.205-0.107 0.295-0.158-0.018 0.227-0.023 0.464 0.007 0.671 0.091 0.62-0.106 0.831-0.106 0.831s0.529-0.408 0.468-1.073c-0.023-0.255 0.019-0.436 0.084-0.574 0.047 0.463 0.294 0.68 0.294 0.68-0.181-0.363 0.196-0.756 0.348-1.073s-0.227-0.831-0.227-0.831z"></path>
<path fill="#fff5dc" d="M29.635 8.139c-0.375-0.128-0.737 0.102-0.952 0.295-0.092 0.082-0.333 0.124-0.581 0.146 0.165-0.117 0.341-0.255 0.433-0.373 0.204-0.261 0.578-0.306 0.895-0.408s0.453-0.51 0.453-0.51-0.17 0.249-0.646 0.227c-0.476-0.023-0.635-0.045-0.952 0.295-0.097 0.104-0.234 0.185-0.376 0.25 0.003-0.149 0.016-0.337 0.059-0.466 0.079-0.238 0.442-0.431 0.465-0.907s0.045-0.431 0.317-0.714 0.351-0.816 0.272-0.646-0.442 0.374-0.748 0.657c-0.306 0.283-0.091 0.601-0.249 0.85s-0.533 0.306-0.555 0.771c-0.023 0.465-0.351 0.737-0.351 0.737s-0.805 0.442 0.159 0.793c0.963 0.351 1.743-0.626 2.221-0.601 1.065 0.057 1.349-0.295 1.349-0.295-0.181 0-0.646 0.091-1.213-0.102z"></path>
<path fill="#fff5dc" d="M17.951 15.603c-0.060-0.045-1.103-1.194-1.451-1.36l0.076 0.287c0 0-0.227-0.015-0.635-0.514s-0.71-0.635-0.71-0.635 0.287 0.453 0.272 0.74c0 0-0.62-0.045-1.284 0.272 0 0-0.302-0.589-0.559-0.695 0 0 0.091 0.62-0.121 0.771s1.995 1.194 2.297 1.224c0.302 0.030 2.116-0.091 2.116-0.091z"></path>
<path fill="#fff5dc" d="M19.326 13.352c-0.021-0.005-0.133 0.073-0.277 0.176-0.064-0.367-0.192-1.109-0.192-1.143 0-0.045-1.028-1.481-1.058-1.541-0-0.001-0.004-0.001-0.005-0.002 0.1-0.241 0.207-0.652-0.403-0.33-0.831 0.438-1.164 1.451-1.164 1.451 0.189-0.198 0.52-0.349 0.784-0.447 0.005 0.123 0.006 0.27-0.164 0.522-0.348 0.514-0.151 0.71-0.151 0.71 0.272-0.468 0.876-0.514 0.876-0.514-0.091 0.559 0.227 0.876 0.227 0.876l0.257-0.302c-0.032 0.433 0.2 0.897 0.344 1.141-0.057 0.027-0.109 0.048-0.147 0.053-0.257 0.030-0.665 0.227-0.665 0.227s0.331-0.070 0.518 0.075c0.188 0.145 0.486 0.256 0.648 0.222 0 0-0.077 0.393 0.009 0.538 0 0-0.213-0.060-0.461-0.051s-0.428-0.163-0.428-0.163 0.453 0.65 0.786 0.786c0.332 0.136 0.907-0.363 0.907-0.363s-0.181-1.904-0.242-1.919z"></path>
<path fill="#fff5dc" d="M11.514 22.826c0 0-0.287 0.030-0.559 0.438l-0.121-0.423c0 0-0.332 0.242-0.695 0.091 0 0 0.332-0.076 0.393-0.378s0.181-0.332 0.181-0.332-0.227-0.242-0.468-0.227c0 0 0.665-0.348 1.028-0.015s0.242 0.846 0.242 0.846z"></path>
<path fill="#fff5dc" d="M19.507 19.487c0 0-0.287 0.030-0.559 0.438l-0.121-0.423c0 0-0.332 0.242-0.695 0.091 0 0 0.332-0.076 0.393-0.378s0.181-0.332 0.181-0.332-0.227-0.242-0.468-0.227c0 0 0.665-0.348 1.028-0.015s0.242 0.846 0.242 0.846z"></path>
<path fill="#fff5dc" d="M24.409 15.188c0 0-0.14 0.252 0.038 0.709l-0.416-0.144c0 0 0.007 0.411-0.325 0.621 0 0 0.129-0.316-0.084-0.539s-0.168-0.339-0.168-0.339-0.328 0.047-0.455 0.253c0 0 0.097-0.744 0.578-0.85s0.832 0.288 0.832 0.288z"></path>
<path fill="#ff6e55" d="M25.864 20.295l0.293 0.174c-0.085-0.073-0.186-0.128-0.293-0.174z"></path>
<path fill="#fff5dc" d="M9.368 21.754c0 0-1.345 1.889-2.886 2.297l0.544-0.695c0 0-0.725 0.635-1.541 0.771l0.982-1.133c0 0-2.191 2.040-5.002 2.463 0 0 2.176-1.375 2.614-1.859 0 0-1.058 0.423-2.010 0.438 0 0 2.735-1.058 3.188-1.481 0 0-1.088 0.242-1.768 0.015 0 0 2.357-0.68 2.69-0.589 0 0-1.36-0.544-2.176-0.484 0 0 1.39-0.332 3.007 0l-0.348-0.378c0 0 0.922-0.242 1.828-0.302s0.453-0.136 0.453-0.136l0.106-0.302c0 0-0.589 0.076-1.073 0 0 0 1.451-0.816 1.859-1.179s0.136-0.196 0.136-0.196-0.756 0.257-1.028 0.302c0 0 0.68-0.786 0.892-1.3 0 0-0.62 0.242-1.148 0 0 0 0.635-0.181 0.952-0.499s0.786-1.107 0.786-1.107l-0.544 0.238c0 0 0.476-0.816 0.895-1.020 0 0-0.714 0.057-0.941-0.113 0 0 0.759-0.181 0.986-0.363s0.725-0.657 1.235-0.476c0 0 0.714-0.657 0.476-1.088 0 0 0.465 0.034 0.703 0.317s0.612 0.521 0.612 0.521l-1.942 1.519-1.481 4.805-1.058 1.012z"></path>
<path fill="#f5f5f5" d="M28.393 12.687c0.559 0.907-0.136 0.997-0.136 0.997-0.106-0.861-0.831-0.755-0.831-0.755l0.196 0.635c-1.209 0.151-1.118-1.058-1.118-1.058-0.181 0.151-0.484 0.771-0.484 0.771s-3.264 1.088-5.47-2.146c0 0-0.060-0.574 0.121-0.846l-1.36-1.027-1.753 0.242c0 0-0.695 1.572 0.151 2.539s1.843 2.327 1.662 2.962c-0.108 0.376-0.427 0.529-0.872 0.497-0.305-0.022-0.669-0.131-1.063-0.316-0.967-0.453-3.324-1.42-5.017-0.635s-1.876 2.145-2.206 3.204c-0.292 0.937-0.941 3.328-5.561 5.509-0.221 0.104-0.108 0.44 0.128 0.381 2.003-0.498 4.733-1.328 5.577-2.309l0.68 0.023-0.249 1.043c0 0 0.884 0.272 1.020 1.564 0 0-1.549 0.423-0.672 1.753 0 0 0.136-0.967 1.209-1.012 0 0 0.242 0.317 0.771 0.363 0 0 0.272 0.438 0.136 0.801 0 0 1.073-0.332 0.166-1.617 0 0 1.012-0.242 1.148 1.028 0 0 0.65-2.055-1.67-1.904 0 0 0-0.363-0.612-1.020 0 0-0.151-0.37 0-0.884 0.045-0.155 0.087-0.315 0.121-0.479 0.126 0.070 0.32 0.153 0.574 0.161 0 0 0.378 0.619 1.496 0.514 0 0-0.816-0.378-0.74-1.103s1.028-1.118 1.436-0.831c0 0-0.106-0.952-1.587-0.332 0 0 0-0.71 0.786-0.755 0 0-1.269-0.967-1.556 0.876l-0.525 0.131c-0.257-0.711-0.582-2.363 0.858-2.965 1.519-0.635 3.105 0.793 5.916 0.929 0 0-0.272 1.655 0.635 2.063s3.128 0.793 3.128 0.793c-0.023 2.387 1.715 2.070 1.715 2.070-0.843-0.505-0.843-1.47-0.323-2.033 0.709-0.768 1.94-0.037 1.94-0.037-0.017-1.162-1.647-0.982-1.647-0.982 0.257-0.755 1.269-0.952 1.269-0.952-1.405-0.514-2.569 1.005-2.569 1.005l-2.38-0.68c0 0-0.091-0.476 0.476-1.111s1.043-1.7 0.884-2.833c0 0 0.657-0.461 1.473-0.008s2.569-0.544 2.569-0.544c0.756 0.967 2.554 0.786 2.796-0.378s-0.635-1.3-0.635-1.3z"></path>
<path fill="#f5f5f5" d="M25.899 9.907c-0.45-0.262-1.254-0.484-1.526 0.121s-0.574 1.209-1.511 1.179c-0.937-0.030-1.36 0.771-2.010 0.544 0 0 0.604-0.196 0.725-0.484s0.604-0.816 0.604-0.816l-0.060-0.544c0 0-1.118 0.060-1.451 0.378s-1.587-0.272-1.587-0.272l0.151-1.315c0 0 0.967-1.481 2.312-1.375s1.572-0.242 2.221-0.196c0.65 0.045 0.982 0.71 1.677 0.861s2.085-0.136 2.267 0.287-0.348 0.589-0.484 1.179c-0.136 0.589-0.423 0.982-1.33 0.453z"></path>
<path fill="#fff5dc" d="M21.97 9.529c0 0-0.65 0.438-1.194 0.257s-1.028-0.121-1.587 0.060c0 0 1.028-0.121 1.451 0.272s1.496 0.136 1.572-0.030l-0.242-0.559z"></path>
<path fill="#fff5dc" d="M22.303 10.541c0 0-0.635 0.453-1.269 0.332s-1.209 0.136-1.209 0.136 0.468-0.514 1.103-0.423c0.635 0.091 0.861-0.529 0.861-0.529l0.423 0.030 0.091 0.453z"></path>
<path fill="#fff5dc" d="M23.502 9.457c0.534 0.849-0.362 1.745-1.211 1.211-0.064-0.040-0.119-0.095-0.16-0.16-0.534-0.849 0.362-1.745 1.211-1.211 0.064 0.040 0.119 0.095 0.16 0.16z"></path>
<path fill="#fff5dc" d="M22.318 9.348c0 0-0.332-0.423-1.164-0.257s-1.028-0.136-1.028-0.136 0.393 0.604 1.012 0.529c0.62-0.076 0.876 0.348 0.876 0.348l0.302-0.484z"></path>
<path fill="#fff5dc" d="M25.114 8.289c0.075-0.103 0.169-0.201 0.297-0.276 0.076-0.044 0.154-0.072 0.231-0.095 0.017-0.115 0-0.238-0.065-0.351-0.143-0.245-0.44-0.338-0.663-0.208s-0.289 0.434-0.146 0.68c0.080 0.138 0.21 0.221 0.347 0.25z"></path>
<path fill="#fff5dc" d="M24.372 9.263c0.043-0.12 0.105-0.241 0.207-0.349 0.060-0.064 0.127-0.112 0.195-0.156-0.016-0.115-0.067-0.229-0.162-0.318-0.206-0.195-0.518-0.2-0.695-0.012s-0.154 0.499 0.052 0.693c0.116 0.109 0.263 0.152 0.403 0.142z"></path>
</svg>
