<!-- Generated by IcoMoon.io -->
<svg version="1.1" xmlns="http://www.w3.org/2000/svg" width="32" height="32" viewBox="0 0 32 32">
<title>bolivia</title>
<path fill="#73af00" d="M0 25c0 3.866 3.134 7 7 7h18c3.866 0 7-3.134 7-7v-3.667h-32v3.667z"></path>
<path fill="#ff4b55" d="M25 0h-18c-3.866 0-7 3.134-7 7v3.667h32v-3.667c0-3.866-3.134-7-7-7z"></path>
<path fill="#ffe15a" d="M0 10.667h32v10.667h-32v-10.667z"></path>
<path fill="#73af00" d="M14.912 11.226c0 0-0.022 0.027-0.062 0.078-0.034 0.047-0.085 0.119-0.14 0.215-0.109 0.191-0.224 0.486-0.227 0.839-0.001 0.172 0.034 0.38 0.093 0.546 0.064 0.183 0.169 0.358 0.302 0.515 0.133 0.158 0.312 0.28 0.502 0.369 0.095 0.048 0.198 0.076 0.301 0.101 0.051 0.016 0.105 0.016 0.158 0.027 0.026 0.005 0.054 0.003 0.080 0.005l0.040 0.002 0.020 0.001 0.010 0.001 0.008 0c-0.008 0 0.022-0-0.018 0.001 0.065-0.004 0.144-0.004 0.198-0.011 0.047-0.011 0.086-0.009 0.14-0.025 0.103-0.025 0.207-0.053 0.301-0.101 0.191-0.090 0.369-0.212 0.502-0.369 0.133-0.156 0.239-0.332 0.302-0.515 0.061-0.186 0.093-0.365 0.093-0.547-0.003-0.351-0.118-0.648-0.227-0.838-0.055-0.096-0.106-0.168-0.143-0.217-0.038-0.048-0.058-0.074-0.058-0.074l-0.005-0.006c-0.036-0.046-0.028-0.113 0.018-0.15 0.037-0.029 0.086-0.029 0.123-0.006 0 0 0.031 0.020 0.089 0.057 0.055 0.041 0.141 0.1 0.233 0.194 0.185 0.183 0.425 0.509 0.511 0.982 0.043 0.227 0.047 0.501-0.012 0.77-0.057 0.272-0.173 0.554-0.361 0.8-0.184 0.247-0.431 0.466-0.726 0.614-0.145 0.077-0.303 0.134-0.465 0.173-0.078 0.023-0.176 0.032-0.264 0.046-0.082 0.009-0.141 0.009-0.212 0.014l-0.028 0-0.023-0.001-0.031-0.002-0.063-0.003c-0.042-0.003-0.084-0.003-0.125-0.010-0.082-0.014-0.166-0.021-0.246-0.044-0.162-0.039-0.32-0.095-0.465-0.173-0.294-0.148-0.541-0.367-0.726-0.614-0.187-0.246-0.303-0.528-0.361-0.8-0.061-0.29-0.054-0.534-0.011-0.771 0.086-0.472 0.326-0.799 0.511-0.982 0.092-0.094 0.177-0.153 0.235-0.197 0.055-0.035 0.085-0.053 0.085-0.053 0.050-0.031 0.116-0.016 0.148 0.034 0.025 0.040 0.020 0.090-0.007 0.124z"></path>
<path fill="#ff4b55" d="M15.788 19.612v1.333c0 0.133-0.161 0.2-0.255 0.106l-0.073-0.073c-0.061-0.061-0.095-0.144-0.095-0.23v-1.135l0.423-0z"></path>
<path fill="#ffe15a" d="M15.153 19.401v0.967c0 0.058 0.023 0.114 0.064 0.155l0.147 0.147v-1.27l-0.212 0z"></path>
<path fill="#73af00" d="M14.942 19.401v0.519c0 0.074 0.029 0.145 0.082 0.198l0.13 0.13v-0.846l-0.212-0z"></path>
<path fill="#ff4b55" d="M16.212 19.612v1.333c0 0.133 0.161 0.2 0.255 0.106l0.073-0.073c0.061-0.061 0.095-0.144 0.095-0.23v-1.135l-0.423-0z"></path>
<path fill="#ffe15a" d="M16.847 19.401v0.967c0 0.058-0.023 0.114-0.064 0.155l-0.147 0.147v-1.27l0.212 0z"></path>
<path fill="#73af00" d="M17.058 19.401v0.519c0 0.074-0.029 0.145-0.082 0.198l-0.13 0.13v-0.846l0.212-0z"></path>
<path fill="#ff4b55" d="M17.058 15.591l2.328-1.693v3.482c0 0.999-0.81 1.809-1.809 1.809v0c-0.339 0-0.671-0.095-0.959-0.275l-1.253-0.783v-2.569l1.693 0.029z"></path>
<path fill="#ffe15a" d="M18.54 14.514v2.443c0 0.999-0.81 1.809-1.809 1.809-0.15 0-0.298-0.022-0.443-0.058l-0.923-0.577v-2.569l1.693 0.029 1.481-1.077z"></path>
<path fill="#73af00" d="M17.905 14.976v1.577c0 0.999-0.81 1.809-1.809 1.809-0.15 0-0.298-0.022-0.443-0.058l-0.288-0.18v-2.562l1.693 0.029 0.846-0.616z"></path>
<path fill="#f5f5f5" d="M19.513 13.517l0.931-0.466-0.677 0.847h-0.381z"></path>
<path fill="#ff4b55" d="M18.328 16.649l2.328-1.693v3.482c0 0.999-0.81 1.809-1.809 1.809v0c-0.339 0-0.671-0.095-0.959-0.275l-1.253-0.783v-2.569l1.693 0.029z"></path>
<path fill="#73af00" d="M19.174 16.034v1.577c0 0.999-0.81 1.809-1.809 1.809-0.15 0-0.298-0.022-0.443-0.058l-0.288-0.18v-2.562l1.693 0.029 0.846-0.616z"></path>
<path fill="#f5f5f5" d="M20.783 14.575l0.931-0.466-0.677 0.847h-0.381z"></path>
<path fill="#ff4b55" d="M17.693 16.226l2.328-1.693v3.482c0 0.999-0.81 1.809-1.809 1.809v0c-0.339 0-0.671-0.095-0.959-0.275l-1.253-0.783v-2.569l1.693 0.029z"></path>
<path fill="#ffe15a" d="M19.174 15.149v2.443c0 0.999-0.81 1.809-1.809 1.809-0.15 0-0.298-0.022-0.443-0.058l-0.923-0.577v-2.569l1.693 0.029 1.481-1.077z"></path>
<path fill="#73af00" d="M18.54 15.61v1.577c0 0.999-0.81 1.809-1.809 1.809-0.15 0-0.298-0.022-0.443-0.058l-0.288-0.18v-2.562l1.693 0.029 0.846-0.616z"></path>
<path fill="#f5f5f5" d="M20.148 14.152l0.931-0.466-0.677 0.847h-0.381z"></path>
<path fill="#ff4b55" d="M14.942 15.591l-2.328-1.693v3.482c0 0.999 0.81 1.809 1.809 1.809v0c0.339 0 0.671-0.095 0.959-0.275l1.253-0.783v-2.569l-1.693 0.029z"></path>
<path fill="#ffe15a" d="M13.46 14.514v2.443c0 0.999 0.81 1.809 1.809 1.809 0.15 0 0.298-0.022 0.443-0.058l0.923-0.577v-2.569l-1.693 0.029-1.481-1.077z"></path>
<path fill="#73af00" d="M14.095 14.976v1.577c0 0.999 0.81 1.809 1.809 1.809 0.15 0 0.298-0.022 0.443-0.058l0.288-0.18v-2.562l-1.693 0.029-0.847-0.616z"></path>
<path fill="#f5f5f5" d="M12.487 13.517l-0.931-0.466 0.677 0.847h0.381z"></path>
<path fill="#ff4b55" d="M13.672 16.649l-2.328-1.693v3.482c0 0.999 0.81 1.809 1.809 1.809v0c0.339 0 0.671-0.095 0.959-0.275l1.253-0.783v-2.569l-1.693 0.029z"></path>
<path fill="#73af00" d="M12.826 16.034v1.577c0 0.999 0.81 1.809 1.809 1.809 0.15 0 0.298-0.022 0.443-0.058l0.288-0.18v-2.562l-1.693 0.029-0.846-0.616z"></path>
<path fill="#f5f5f5" d="M11.217 14.575l-0.931-0.466 0.677 0.847h0.381z"></path>
<path fill="#ff4b55" d="M14.307 16.226l-2.328-1.693v3.482c0 0.999 0.81 1.809 1.809 1.809v0c0.339 0 0.671-0.095 0.959-0.275l1.253-0.783v-2.569l-1.693 0.029z"></path>
<path fill="#ffe15a" d="M12.826 15.149v2.443c0 0.999 0.81 1.809 1.809 1.809 0.15 0 0.298-0.022 0.443-0.058l0.923-0.577v-2.569l-1.693 0.029-1.481-1.077z"></path>
<path fill="#73af00" d="M13.46 15.61v1.577c0 0.999 0.81 1.809 1.809 1.809 0.15 0 0.298-0.022 0.443-0.058l0.288-0.18v-2.562l-1.693 0.029-0.847-0.616z"></path>
<path fill="#ffbe5a" d="M13.229 19.373l-0.279-0.279c-0.169-0.169-0.165-0.445 0.010-0.608l4.619-4.34 0.599 0.599-4.34 4.619c-0.164 0.175-0.439 0.179-0.608 0.010z"></path>
<path fill="#ffbe5a" d="M13.303 19.26c-0.055 0.247-0.374 0.247-0.429 0-0.004-0.017-0.004-0.036 0-0.054 0.055-0.247 0.374-0.247 0.429 0 0.004 0.017 0.004 0.036 0 0.054z"></path>
<path fill="#f5f5f5" d="M17.578 14.145c0.083-0.083 0.284-0.016 0.449 0.15s0.232 0.366 0.15 0.449c-0.083 0.083-0.284 0.016-0.449-0.15s-0.232-0.366-0.15-0.449z"></path>
<path fill="#ffbe5a" d="M18.771 19.373l0.279-0.279c0.169-0.169 0.165-0.445-0.010-0.608l-4.619-4.34-0.599 0.599 4.34 4.619c0.163 0.175 0.439 0.179 0.608 0.010z"></path>
<path fill="#ffbe5a" d="M18.697 19.26c0.055 0.247 0.374 0.247 0.429 0 0.004-0.017 0.004-0.036 0-0.054-0.055-0.247-0.374-0.247-0.429 0-0.004 0.017-0.004 0.036 0 0.054z"></path>
<path fill="#f5f5f5" d="M14.422 14.146c0.083 0.083 0.016 0.284-0.15 0.449s-0.366 0.232-0.449 0.15c-0.083-0.083-0.016-0.284 0.15-0.449s0.366-0.232 0.449-0.15z"></path>
<path fill="#ffbe5a" d="M17.871 16.967c0 1.227-0.838 2.222-1.871 2.222s-1.871-0.995-1.871-2.222c0-1.227 0.838-2.222 1.871-2.222s1.871 0.995 1.871 2.222z"></path>
<path fill="#ff4b55" d="M16 14.956l0.099 0.431 0.228-0.379-0.039 0.441 0.334-0.29-0.173 0.407 0.407-0.173-0.29 0.334 0.441-0.039-0.379 0.228 0.431 0.099-0.431 0.099 0.379 0.228-0.441-0.039 0.29 0.334-0.407-0.173 0.173 0.407-0.334-0.29 0.039 0.441-0.228-0.379-0.099 0.431-0.099-0.431-0.228 0.379 0.039-0.441-0.334 0.29 0.173-0.407-0.407 0.173 0.29-0.334-0.441 0.039 0.379-0.228-0.431-0.099 0.431-0.099-0.379-0.228 0.441 0.039-0.29-0.334 0.407 0.173-0.173-0.407 0.334 0.29-0.039-0.441 0.228 0.379z"></path>
<path fill="#73af00" d="M18.341 16.927c0 0-0.701 0.185-1.157-0.198-0.507-0.426-0.887-0.628-1.050-0.703-0.056-0.026-0.118-0.026-0.174-0-0.117 0.054-0.332 0.166-0.522 0.333-0.278 0.245-1.131 0.727-1.303 0.727v1.052l1.342 1.163 1.587-0.046 1.276-2.328z"></path>
<path fill="#3cc8ff" d="M16 19.718c-1.342 0-2.434-1.234-2.434-2.751s1.092-2.751 2.434-2.751 2.434 1.234 2.434 2.751-1.092 2.751-2.434 2.751zM16 14.851c-0.992 0-1.799 0.949-1.799 2.116s0.807 2.116 1.799 2.116 1.799-0.949 1.799-2.116-0.807-2.116-1.799-2.116z"></path>
<path fill="#ffbe5a" d="M15.635 19.143l0.047 0.14 0.147 0.001c0.019 0 0.027 0.024 0.012 0.036l-0.119 0.088 0.044 0.14c0.006 0.018-0.015 0.033-0.030 0.022l-0.12-0.086-0.12 0.086c-0.015 0.011-0.036-0.004-0.030-0.022l0.044-0.14-0.119-0.088c-0.015-0.011-0.007-0.036 0.012-0.036l0.147-0.001 0.047-0.14c0.006-0.018 0.032-0.018 0.038 0z"></path>
<path fill="#ffbe5a" d="M14.974 18.858l0.047 0.14 0.147 0.001c0.019 0 0.027 0.024 0.012 0.036l-0.119 0.088 0.044 0.14c0.006 0.018-0.015 0.033-0.030 0.022l-0.12-0.086-0.12 0.086c-0.015 0.011-0.036-0.004-0.030-0.022l0.044-0.14-0.119-0.088c-0.015-0.011-0.007-0.036 0.012-0.036l0.147-0.001 0.047-0.14c0.006-0.018 0.032-0.018 0.038 0z"></path>
<path fill="#ffbe5a" d="M14.443 18.376l0.047 0.14 0.147 0.001c0.019 0 0.027 0.024 0.012 0.036l-0.119 0.088 0.044 0.14c0.006 0.018-0.015 0.033-0.030 0.022l-0.12-0.086-0.12 0.086c-0.015 0.011-0.036-0.004-0.030-0.022l0.044-0.14-0.119-0.088c-0.015-0.011-0.007-0.036 0.012-0.036l0.147-0.001 0.047-0.14c0.006-0.018 0.032-0.018 0.038 0z"></path>
<path fill="#ffbe5a" d="M14.080 17.733l0.047 0.14 0.147 0.001c0.019 0 0.027 0.024 0.012 0.036l-0.119 0.088 0.044 0.14c0.006 0.018-0.015 0.033-0.030 0.022l-0.12-0.086-0.12 0.086c-0.015 0.011-0.036-0.004-0.030-0.022l0.044-0.14-0.119-0.088c-0.015-0.011-0.007-0.036 0.012-0.036l0.147-0.001 0.047-0.14c0.006-0.018 0.032-0.018 0.038 0z"></path>
<path fill="#ffbe5a" d="M13.92 16.986l0.047 0.14 0.147 0.001c0.019 0 0.027 0.024 0.012 0.036l-0.119 0.088 0.044 0.14c0.006 0.018-0.015 0.033-0.030 0.022l-0.12-0.086-0.12 0.086c-0.015 0.011-0.036-0.004-0.030-0.022l0.044-0.14-0.119-0.088c-0.015-0.011-0.007-0.036 0.012-0.036l0.147-0.001 0.047-0.14c0.006-0.018 0.032-0.018 0.038 0z"></path>
<path fill="#ffbe5a" d="M16.364 19.143l-0.047 0.14-0.147 0.001c-0.019 0-0.027 0.024-0.012 0.036l0.119 0.088-0.044 0.14c-0.006 0.018 0.015 0.033 0.030 0.022l0.12-0.086 0.12 0.086c0.015 0.011 0.036-0.004 0.030-0.022l-0.044-0.14 0.119-0.088c0.015-0.011 0.007-0.036-0.012-0.036l-0.147-0.001-0.047-0.14c-0.006-0.018-0.032-0.018-0.038 0z"></path>
<path fill="#ffbe5a" d="M17.025 18.858l-0.047 0.14-0.147 0.001c-0.019 0-0.027 0.024-0.012 0.036l0.119 0.088-0.044 0.14c-0.006 0.018 0.015 0.033 0.030 0.022l0.12-0.086 0.12 0.086c0.015 0.011 0.036-0.004 0.030-0.022l-0.044-0.14 0.119-0.088c0.015-0.011 0.007-0.036-0.012-0.036l-0.147-0.001-0.047-0.14c-0.006-0.018-0.032-0.018-0.038 0z"></path>
<path fill="#ffbe5a" d="M17.556 18.376l-0.047 0.14-0.147 0.001c-0.019 0-0.027 0.024-0.012 0.036l0.119 0.088-0.044 0.14c-0.006 0.018 0.015 0.033 0.030 0.022l0.12-0.086 0.12 0.086c0.015 0.011 0.036-0.004 0.030-0.022l-0.044-0.14 0.119-0.088c0.015-0.011 0.007-0.036-0.012-0.036l-0.147-0.001-0.047-0.14c-0.006-0.018-0.032-0.018-0.038 0z"></path>
<path fill="#ffbe5a" d="M17.919 17.733l-0.047 0.14-0.147 0.001c-0.019 0-0.027 0.024-0.012 0.036l0.119 0.088-0.044 0.14c-0.006 0.018 0.015 0.033 0.030 0.022l0.12-0.086 0.12 0.086c0.015 0.011 0.036-0.004 0.030-0.022l-0.044-0.14 0.119-0.088c0.015-0.011 0.007-0.036-0.012-0.036l-0.147-0.001-0.047-0.14c-0.006-0.018-0.032-0.018-0.038 0z"></path>
<path fill="#ffbe5a" d="M18.079 16.986l-0.047 0.14-0.147 0.001c-0.019 0-0.027 0.024-0.012 0.036l0.119 0.088-0.044 0.14c-0.006 0.018 0.015 0.033 0.030 0.022l0.12-0.086 0.12 0.086c0.015 0.011 0.036-0.004 0.030-0.022l-0.044-0.14 0.119-0.088c0.015-0.011 0.007-0.036-0.012-0.036l-0.147-0.001-0.047-0.14c-0.006-0.018-0.032-0.018-0.038 0z"></path>
<path fill="#f5f5f5" d="M15.081 18.324l0.070 0.336h0.030v-0.229c0 0 0.050 0.16 0.121 0.229h0.057c-0.027-0.035-0.077-0.108-0.077-0.184 0-0.104 0.083-0.118 0.083-0.23h0.071v0.413h0.041l0.077-0.368c0 0 0.063 0.23 0.183 0.368h0.053c-0.038-0.056-0.118-0.201-0.103-0.42 0 0 0.114-0.057 0.114-0.211v-0.219c0-0.041 0.033-0.074 0.074-0.074h0.051c0 0-0.076-0.147-0.157-0.169v-0.092l-0.061 0.092c-0.058 0.013-0.093 0.067-0.093 0.124v0.133c0 0.041-0.033 0.074-0.074 0.074h-0.265c-0.079 0-0.204 0.079-0.204 0.179s0.075 0.167 0.075 0.167l-0.066 0.079z"></path>
<path fill="#ffbe5a" d="M16.269 17.988h-0.024c-0.192 0.011-0.3 0.137-0.3 0.137l0.195 0.195v0.367h0.233v-0.367l0.195-0.195c0-0-0.107-0.126-0.3-0.137z"></path>
<path fill="#f5f5f5" d="M16.679 17.388h0.071v1.301h-0.071v-1.301z"></path>
<path fill="#f5f5f5" d="M16.716 17.378l-0.38 0.46c0 0-0.050-0.222 0.172-0.44l-0.489 0.089c0 0 0.149-0.278 0.539-0.248l-0.4-0.334c0 0 0.344-0.020 0.519 0.238 0 0 0.099-0.298 0.377-0.311l-0.229 0.348c0 0 0.229-0.117 0.547-0.014l-0.473 0.126c0 0 0.265 0.026 0.374 0.413l-0.41-0.281c0 0 0.126 0.149 0.079 0.44l-0.225-0.486z"></path>
<path fill="#f5f5f5" d="M11.852 14.152l-0.931-0.466 0.677 0.847h0.381z"></path>
<path fill="#825546" d="M16.662 13.613l2.512-0.773-1.334-0.5c-0.238-0.089-0.489-0.135-0.743-0.135h-0.251c-0.117 0-0.212 0.095-0.212 0.212v0.212h-1.27v-0.212c0-0.117-0.095-0.212-0.212-0.212h-0.251c-0.254 0-0.505 0.046-0.743 0.135l-1.334 0.5 2.512 0.773c0.125 0.038 0.185 0.18 0.127 0.297l-0.312 0.623h1.693l-0.312-0.623c-0.059-0.117 0.002-0.258 0.127-0.297z"></path>
<path fill="#f5f5f5" d="M16.337 12.568c0.282 0.43-0.179 0.891-0.609 0.609-0.025-0.017-0.048-0.039-0.064-0.064-0.282-0.43 0.179-0.891 0.609-0.609 0.026 0.017 0.048 0.039 0.064 0.064z"></path>
<path fill="#ffbe5a" d="M16.212 12.84v0c0 0.117-0.095 0.212-0.212 0.212h-0.847l0.361-0.361c0.040-0.040 0.094-0.062 0.15-0.062h0.336c0.117 0 0.212 0.095 0.212 0.212z"></path>
</svg>
