<!-- Generated by IcoMoon.io -->
<svg version="1.1" xmlns="http://www.w3.org/2000/svg" width="32" height="32" viewBox="0 0 32 32">
<title>bonaire</title>
<path fill="#41479b" d="M32 25v-18c0-3.866-3.134-7-7-7h-18c-3.865 0-6.999 3.133-7 6.998v18.003c0.001 3.865 3.135 6.998 7 6.998h18c3.866 0 7-3.134 7-7z"></path>
<path fill="#f5f5f5" d="M25 0h-18c-3.866 0-7 3.134-7 7v18c0 1.933 0.783 3.683 2.050 4.95l27.9-27.899c-1.267-1.267-3.017-2.050-4.95-2.050z"></path>
<path fill="#ffe15a" d="M14.049 0h-7.049c-3.866 0-7 3.134-7 6.999v7.050l14.049-14.049z"></path>
<path fill="#464655" d="M12.28 13.952c-0.25-1.671-1.568-2.989-3.239-3.239l-0.575-1.151-0.575 1.151c-1.671 0.25-2.989 1.568-3.239 3.239l-1.151 0.575 1.151 0.575c0.25 1.671 1.568 2.989 3.239 3.239l0.575 1.151 0.575-1.151c1.671-0.25 2.989-1.568 3.239-3.239l1.151-0.575-1.151-0.575zM8.466 17.838c-1.828 0-3.31-1.482-3.31-3.31s1.482-3.31 3.31-3.31 3.31 1.482 3.31 3.31c0 1.828-1.482 3.31-3.31 3.31z"></path>
<path fill="#ff4b55" d="M8.466 12.406l0.594 1.093 1.243-0.032-0.649 1.061 0.649 1.061-1.243-0.032-0.594 1.093-0.594-1.093-1.243 0.032 0.649-1.061-0.649-1.061 1.243 0.032z"></path>
</svg>
