<!-- Generated by IcoMoon.io -->
<svg version="1.1" xmlns="http://www.w3.org/2000/svg" width="32" height="32" viewBox="0 0 32 32">
<title>bosnia-and-herzegovina</title>
<path fill="#41479b" d="M25 0h-18c-3.866 0-7 3.134-7 7v18c0 3.866 3.134 7 7 7h18c3.866 0 7-3.134 7-7v-18c0-3.866-3.134-7-7-7z"></path>
<path fill="#ffe15a" d="M25 0h-18c-0.125 0-0.249 0.003-0.373 0.010l20.699 31.594c0.087-0.031 0.174-0.063 0.26-0.097v-31.013c-0.8-0.318-1.673-0.493-2.586-0.493z"></path>
<path fill="#f5f5f5" d="M13.23 12.297l0.458 1.372 1.446 0.011c0.112 0.001 0.159 0.144 0.068 0.21l-1.163 0.859 0.436 1.379c0.034 0.107-0.088 0.195-0.179 0.13l-1.177-0.841-1.177 0.841c-0.091 0.065-0.213-0.023-0.179-0.13l0.436-1.379-1.163-0.859c-0.090-0.067-0.044-0.21 0.068-0.21l1.446-0.011 0.458-1.372c0.035-0.106 0.186-0.106 0.221 0z"></path>
<path fill="#f5f5f5" d="M10.605 8.467l0.458 1.372 1.446 0.011c0.112 0.001 0.159 0.144 0.068 0.21l-1.163 0.859 0.436 1.379c0.034 0.107-0.088 0.195-0.179 0.13l-1.177-0.841-1.177 0.841c-0.091 0.065-0.213-0.023-0.179-0.13l0.436-1.379-1.163-0.859c-0.090-0.067-0.044-0.21 0.068-0.21l1.446-0.011 0.458-1.372c0.035-0.106 0.186-0.106 0.221 0z"></path>
<path fill="#f5f5f5" d="M8.293 4.578l0.458 1.372 1.446 0.011c0.112 0.001 0.159 0.144 0.068 0.21l-1.163 0.859 0.436 1.379c0.034 0.107-0.088 0.195-0.179 0.13l-1.177-0.841-1.177 0.841c-0.091 0.065-0.213-0.023-0.179-0.13l0.436-1.379-1.163-0.859c-0.090-0.067-0.044-0.21 0.068-0.21l1.446-0.011 0.458-1.372c0.035-0.106 0.186-0.106 0.221 0z"></path>
<path fill="#f5f5f5" d="M5.616 0.748l0.458 1.372 1.446 0.011c0.112 0.001 0.159 0.144 0.068 0.21l-1.163 0.859 0.436 1.379c0.034 0.107-0.088 0.195-0.179 0.13l-1.177-0.841-1.177 0.841c-0.091 0.065-0.213-0.023-0.179-0.13l0.436-1.379-1.163-0.859c-0.090-0.067-0.044-0.21 0.068-0.21l1.446-0.011 0.458-1.372c0.035-0.106 0.186-0.106 0.221 0z"></path>
<path fill="#f5f5f5" d="M23.081 27.266l0.458 1.372 1.446 0.011c0.112 0.001 0.159 0.144 0.068 0.21l-1.163 0.859 0.436 1.379c0.034 0.107-0.088 0.195-0.179 0.13l-1.177-0.841-1.177 0.841c-0.091 0.065-0.213-0.023-0.179-0.13l0.436-1.379-1.163-0.859c-0.090-0.067-0.044-0.21 0.068-0.21l1.446-0.011 0.458-1.372c0.035-0.106 0.186-0.106 0.221 0z"></path>
<path fill="#f5f5f5" d="M20.741 23.554l0.458 1.372 1.446 0.011c0.112 0.001 0.159 0.144 0.068 0.21l-1.163 0.859 0.436 1.379c0.034 0.107-0.088 0.195-0.179 0.13l-1.177-0.841-1.177 0.841c-0.091 0.065-0.213-0.023-0.179-0.13l0.436-1.379-1.163-0.859c-0.090-0.067-0.044-0.21 0.068-0.21l1.446-0.011 0.458-1.372c0.035-0.106 0.186-0.106 0.221 0z"></path>
<path fill="#f5f5f5" d="M18.178 19.783l0.458 1.372 1.446 0.011c0.112 0.001 0.159 0.144 0.068 0.21l-1.163 0.859 0.436 1.379c0.034 0.107-0.088 0.195-0.179 0.13l-1.177-0.841-1.177 0.841c-0.091 0.065-0.213-0.023-0.179-0.13l0.436-1.379-1.163-0.859c-0.090-0.067-0.044-0.21 0.068-0.21l1.446-0.011 0.458-1.372c0.035-0.106 0.186-0.106 0.221 0z"></path>
<path fill="#f5f5f5" d="M15.553 16.070l0.458 1.372 1.446 0.011c0.112 0.001 0.159 0.144 0.068 0.21l-1.163 0.859 0.436 1.379c0.034 0.107-0.088 0.195-0.179 0.13l-1.177-0.841-1.177 0.841c-0.091 0.065-0.213-0.023-0.179-0.13l0.436-1.379-1.163-0.859c-0.090-0.067-0.044-0.21 0.068-0.21l1.446-0.011 0.458-1.372c0.035-0.106 0.186-0.106 0.221 0z"></path>
</svg>
