<svg xmlns="http://www.w3.org/2000/svg" width="32" height="32" version="1.1" viewBox="0 0 32 32"><title>british-indian-ocean-territory</title><path fill="#f5f5f5" d="M25 0h-18c-3.866 0-7 3.134-7 7v18c0 3.866 3.134 7 7 7h18c3.866 0 7-3.134 7-7v-18c0-3.866-3.134-7-7-7z"/><path fill="#41479b" d="M25.593 22.737c-1.601 0-1.601-0.842-3.201-0.842-1.599 0-1.599 0.842-3.199 0.842s-1.6-0.842-3.2-0.842c-1.6 0-1.6 0.842-3.199 0.842s-1.6-0.842-3.199-0.842c-1.6 0-1.6 0.842-3.199 0.842s-1.599-0.842-3.198-0.842c-1.598 0-1.598 0.842-3.196 0.842v2.263c0 0.088 0.002 0.176 0.005 0.263 1.593-0.002 1.595-0.842 3.191-0.842 1.599 0 1.599 0.842 3.198 0.842s1.6-0.842 3.199-0.842c1.6 0 1.6 0.842 3.199 0.842s1.6-0.842 3.199-0.842c1.6 0 1.6 0.842 3.2 0.842s1.599-0.842 3.199-0.842c1.601 0 1.601 0.842 3.201 0.842 1.602 0 1.602-0.842 3.204-0.842 1.6 0 1.602 0.84 3.198 0.842 0.003-0.087 0.005-0.175 0.005-0.263v-2.263c-1.602 0-1.602-0.842-3.204-0.842s-1.602 0.842-3.204 0.842z"/><path fill="#41479b" d="M25.593 12.632c-1.601 0-1.601-0.842-3.201-0.842-1.599 0-1.599 0.842-3.199 0.842s-1.6-0.842-3.2-0.842c-1.6 0-1.6 0.842-3.199 0.842s-1.6-0.842-3.199-0.842c-1.6 0-1.6 0.842-3.199 0.842s-1.599-0.842-3.198-0.842c-1.598 0-1.598 0.842-3.196 0.842v2.526c1.598 0 1.598-0.842 3.196-0.842s1.599 0.842 3.198 0.842c1.6 0 1.6-0.842 3.199-0.842s1.6 0.842 3.199 0.842 1.6-0.842 3.199-0.842c1.6 0 1.6 0.842 3.2 0.842s1.599-0.842 3.199-0.842c1.601 0 1.601 0.842 3.201 0.842 1.602 0 1.602-0.842 3.204-0.842s1.602 0.842 3.204 0.842v-2.526c-1.602 0-1.602-0.842-3.204-0.842s-1.602 0.842-3.204 0.842z"/><path fill="#41479b" d="M25.593 7.579c-1.601 0-1.601-0.842-3.201-0.842-1.599 0-1.599 0.842-3.199 0.842s-1.6-0.842-3.2-0.842c-1.6 0-1.6 0.842-3.199 0.842s-1.6-0.842-3.199-0.842c-1.6 0-1.6 0.842-3.199 0.842s-1.599-0.842-3.198-0.842c-1.598 0-1.598 0.842-3.196 0.842v2.526c1.598 0 1.598-0.842 3.196-0.842s1.599 0.842 3.198 0.842c1.6 0 1.6-0.842 3.199-0.842s1.6 0.842 3.199 0.842 1.6-0.842 3.199-0.842c1.6 0 1.6 0.842 3.2 0.842s1.599-0.842 3.199-0.842c1.601 0 1.601 0.842 3.201 0.842 1.602 0 1.602-0.842 3.204-0.842s1.602 0.842 3.204 0.842v-2.526c-1.602 0-1.602-0.842-3.204-0.842s-1.602 0.842-3.204 0.842z"/><path fill="#41479b" d="M6.394 5.053c1.6 0 1.6-0.842 3.199-0.842s1.6 0.842 3.199 0.842 1.6-0.842 3.199-0.842c1.6 0 1.6 0.842 3.2 0.842s1.599-0.842 3.199-0.842c1.601 0 1.601 0.842 3.201 0.842 1.602 0 1.602-0.842 3.204-0.842 1.503 0 1.596 0.742 2.926 0.833-0.368-1.268-1.085-2.387-2.041-3.247-0.237-0.068-0.519-0.112-0.885-0.112-1.602 0-1.602 0.842-3.204 0.842-1.601 0-1.601-0.842-3.201-0.842-1.599 0-1.599 0.842-3.199 0.842s-1.6-0.842-3.2-0.842c-1.6 0-1.6 0.842-3.199 0.842s-1.6-0.842-3.199-0.842c-1.6 0-1.6 0.842-3.199 0.842s-1.599-0.842-3.198-0.842c-0.361 0-0.641 0.043-0.876 0.11-0.957 0.86-1.675 1.981-2.043 3.249 1.327-0.091 1.419-0.833 2.919-0.833 1.599 0 1.599 0.842 3.198 0.842z"/><path fill="#41479b" d="M25.593 17.684c-1.601 0-1.601-0.842-3.201-0.842-1.599 0-1.599 0.842-3.199 0.842s-1.6-0.842-3.2-0.842c-1.6 0-1.6 0.842-3.199 0.842s-1.6-0.842-3.199-0.842c-1.6 0-1.6 0.842-3.199 0.842s-1.599-0.842-3.198-0.842c-1.598 0-1.598 0.842-3.196 0.842v2.526c1.598 0 1.598-0.842 3.196-0.842s1.599 0.842 3.198 0.842c1.6 0 1.6-0.842 3.199-0.842s1.6 0.842 3.199 0.842 1.6-0.842 3.199-0.842c1.6 0 1.6 0.842 3.2 0.842s1.599-0.842 3.199-0.842c1.601 0 1.601 0.842 3.201 0.842 1.602 0 1.602-0.842 3.204-0.842s1.602 0.842 3.204 0.842v-2.526c-1.602 0-1.602-0.842-3.204-0.842s-1.602 0.842-3.204 0.842z"/><path fill="#41479b" d="M25.593 27.789c-1.601 0-1.601-0.842-3.201-0.842-1.599 0-1.599 0.842-3.199 0.842s-1.6-0.842-3.2-0.842c-1.6 0-1.6 0.842-3.199 0.842s-1.6-0.842-3.199-0.842c-1.6 0-1.6 0.842-3.199 0.842s-1.599-0.842-3.198-0.842c-1.385 0-1.571 0.632-2.636 0.801 0.319 0.745 0.763 1.424 1.306 2.010 0.327-0.156 0.707-0.285 1.33-0.285 1.599 0 1.599 0.842 3.198 0.842s1.6-0.842 3.199-0.842c1.6 0 1.6 0.842 3.199 0.842s1.6-0.842 3.199-0.842c1.6 0 1.6 0.842 3.2 0.842s1.599-0.842 3.199-0.842c1.601 0 1.601 0.842 3.201 0.842 1.602 0 1.602-0.842 3.204-0.842 0.627 0 1.008 0.129 1.336 0.286 0.544-0.586 0.988-1.265 1.307-2.011-1.069-0.168-1.254-0.801-2.643-0.801-1.602 0-1.602 0.842-3.204 0.842z"/><path fill="#965032" d="M24.764 28.87h-0.206c-0.191 0-0.346-0.155-0.346-0.346v-14.472h0.898v14.472c0 0.191-0.155 0.346-0.346 0.346z"/><path fill="#73af00" d="M30.948 15.849l-0.898-0.449-3.306-0.413 2.046-2.63 0.317-0.953-0.953 0.318-2.63 2.046-0.413-3.306-0.449-0.898-0.449 0.898-0.413 3.306-2.63-2.046-0.953-0.318 0.317 0.953 2.046 2.63-3.306 0.413-0.898 0.449 0.898 0.449 3.306 0.413-2.046 2.63-0.317 0.953 0.953-0.317 2.858-2.223 0.635-1.007 0.635 1.007 2.858 2.223 0.953 0.317-0.317-0.953-2.046-2.63 3.306-0.413z"/><path fill="#ffe15a" d="M26.616 21.078c-0.404-0.403-1.268-0.255-1.73-0.138v-0.377c0-0.124-0.101-0.224-0.224-0.224s-0.224 0.101-0.224 0.224v0.377c-0.463-0.117-1.327-0.265-1.73 0.138-0.385 0.385-0.106 1.312 0.159 1.957v0.597c0 0.165 0.134 0.299 0.299 0.299h2.995c0.165 0 0.299-0.134 0.299-0.299v-0.597c0.265-0.645 0.544-1.572 0.159-1.957zM26.299 21.396c0.171 0.172-0.021 0.923-0.33 1.637h-1.083v-1.629c0.504-0.143 1.195-0.227 1.413-0.008zM23.024 21.396c0.218-0.219 0.909-0.134 1.413 0.008v1.629h-1.083c-0.309-0.714-0.501-1.466-0.33-1.637z"/><path fill="#41479b" d="M5.895 0.087c-1.649 0.262-3.106 1.099-4.159 2.299l4.159 2.725v-5.023z"/><path fill="#41479b" d="M0.439 4.556c-0.159 0.428-0.278 0.876-0.352 1.339h2.395l-2.043-1.339z"/><path fill="#41479b" d="M0 10.105v1.626l2.482-1.626z"/><path fill="#41479b" d="M16 1.249v-1.249h-5.895v5.111z"/><path fill="#41479b" d="M16 11.731v-1.626h-2.482z"/><path fill="#41479b" d="M10.105 16h5.895v-1.249l-5.895-3.862z"/><path fill="#41479b" d="M16 5.895v-1.626l-2.482 1.626z"/><path fill="#41479b" d="M5.895 10.889l-5.895 3.862v1.249h5.895z"/><path fill="#f5f5f5" d="M9.263 16h0.842v-5.111l5.895 3.862v-1.248l-5.236-3.398h1.547l3.689 2.394v-0.768l-2.482-1.626h2.482v-0.842h-6.737z"/><path fill="#f5f5f5" d="M5.895 16h0.842v-6.737h-6.737v0.842h2.482l-2.482 1.626v1.181l4.325-2.807h1.547l-5.872 3.811v0.835l5.895-3.862z"/><path fill="#f5f5f5" d="M6.737 0.005c-0.285 0.011-0.566 0.038-0.842 0.082v5.023l-4.159-2.725c-0.25 0.285-0.478 0.591-0.679 0.915l3.996 2.594h-1.547l-2.852-1.851c-0.078 0.168-0.15 0.338-0.215 0.513l2.043 1.339h-2.395c-0.044 0.276-0.071 0.557-0.082 0.842h6.731v-6.731z"/><path fill="#f5f5f5" d="M16 6.737v-0.842h-2.482l2.482-1.626v-1.196l-4.348 2.822h-1.547l5.895-3.826v-0.82l-5.895 3.862v-5.111h-0.842v6.737z"/><path fill="#ff4b55" d="M6.737 16h2.526v-6.737h6.737v-2.526h-6.737v-6.737h-2.263c-0.088 0-0.176 0.002-0.263 0.005v6.731h-6.731c-0.003 0.087-0.005 0.175-0.005 0.263v2.263h6.737v6.737z"/><path fill="#ff4b55" d="M4.325 10.105l-4.325 2.807v1.004l5.872-3.811z"/><path fill="#ff4b55" d="M10.764 10.105l5.236 3.398v-1.004l-3.689-2.394z"/><path fill="#ff4b55" d="M5.053 5.895l-3.996-2.594c-0.149 0.238-0.283 0.486-0.403 0.743l2.852 1.851h1.547z"/><path fill="#ff4b55" d="M11.652 5.895l4.348-2.822v-1.004l-5.895 3.826z"/></svg>