<svg xmlns="http://www.w3.org/2000/svg" width="32" height="32" version="1.1" viewBox="0 0 32 32"><title>brunei</title><path fill="#ffe15a" d="M32 25v-18c0-3.866-3.134-7-7-7h-18c-3.865 0-6.999 3.133-7 6.998v18.003c0.001 3.865 3.135 6.998 7 6.998h18c3.866 0 7-3.134 7-7z"/><path fill="#f5f5f5" d="M32 25v-4.79l-29.46-18.606c-1.295 1.072-2.198 2.601-2.461 4.34l31.842 20.111c0.052-0.344 0.079-0.697 0.079-1.055z"/><path fill="#464655" d="M29.46 30.396c1.295-1.072 2.198-2.601 2.461-4.34l-31.842-20.11c-0.052 0.344-0.079 0.696-0.079 1.054v4.791l29.46 18.606z"/><path fill="#ff4b55" d="M19.099 15.020l0-0.016c0 0-0.007-0.076-0.021-0.217-0.004-0.071-0.020-0.157-0.042-0.258-0.017-0.101-0.049-0.215-0.090-0.34-0.083-0.249-0.21-0.545-0.431-0.833-0.027-0.036-0.058-0.071-0.087-0.106 0.125-0.143 0.247-0.31 0.362-0.511 0 0-0.63 0.029-1.338-0.28-0.234-0.122-0.487-0.221-0.766-0.287l-0.132-0.528c-0.028-0.113-0.13-0.192-0.246-0.192h-0.182v-0.254h0.888l-0.254-0.507 0.254-0.507h-0.888v-0.254h-0.254v1.522h-0.182c-0.116 0-0.218 0.079-0.246 0.192l-0.129 0.517c-0.171 0.037-0.342 0.083-0.508 0.153-0.136 0.054-0.267 0.122-0.395 0.198-0.651 0.25-1.204 0.226-1.204 0.226 0.115 0.201 0.237 0.367 0.361 0.511-0.025 0.031-0.053 0.058-0.078 0.090-0.173 0.235-0.311 0.499-0.416 0.779-0.1 0.272-0.157 0.617-0.176 0.87l-0.001 0.244c-0.003 0.077 0.006 0.153 0.014 0.229 0.010 0.154 0.044 0.303 0.076 0.454 0.079 0.297 0.195 0.587 0.353 0.852 0.316 0.532 0.798 0.952 1.338 1.212 0.279 0.123 0.543 0.217 0.857 0.261 0.168 0.031 0.272 0.031 0.396 0.041l0.034 0.003 0.037 0.001 0.053-0.002 0.105-0.005c0.070-0.005 0.14-0.004 0.208-0.014 0.552-0.061 1.050-0.275 1.438-0.554 0.388-0.284 0.667-0.63 0.859-0.959 0.194-0.33 0.294-0.649 0.356-0.911 0.029-0.131 0.052-0.25 0.059-0.362 0.013-0.111 0.020-0.202 0.017-0.262-0-0.129-0-0.197-0-0.197zM14.489 16.808c-0.176-0.137-0.336-0.301-0.481-0.482-0.14-0.185-0.252-0.394-0.339-0.615-0.083-0.217-0.128-0.478-0.151-0.691-0.006-0.295 0.008-0.496 0.064-0.748 0.061-0.239 0.151-0.473 0.276-0.689 0.007-0.012 0.017-0.023 0.024-0.036 0.577 0.45 1.186 0.418 1.61 0.2v0.496c0.14 0 0.254 0.284 0.254 0.634s-0.114 0.634-0.254 0.634v0.254c0.476 0.634 0.258 1.17-0.035 1.482-0.133-0.029-0.27-0.068-0.399-0.118-0.2-0.078-0.389-0.19-0.57-0.321zM18.481 14.992c-0 0.004-0.007 0.069-0.020 0.193-0.004 0.069-0.019 0.135-0.037 0.208-0.013 0.073-0.039 0.162-0.074 0.263-0.069 0.197-0.172 0.433-0.352 0.658-0.176 0.226-0.412 0.45-0.708 0.624-0.225 0.133-0.489 0.224-0.768 0.288-0.282-0.315-0.481-0.839-0.016-1.46v-0.254c-0.14 0-0.254-0.284-0.254-0.634s0.114-0.634 0.254-0.634v-0.496c0.425 0.219 1.035 0.251 1.612-0.201 0.010 0.017 0.022 0.034 0.031 0.050 0.154 0.268 0.229 0.526 0.277 0.736 0.023 0.106 0.039 0.201 0.043 0.285 0.009 0.083 0.015 0.154 0.012 0.211-0.001 0.098-0.001 0.148-0.001 0.163z"/><path fill="#ff4b55" d="M16 18.81c-0.937 0-1.786-0.365-2.42-0.958-0.116-0.109-0.301-0.096-0.404 0.025l-0.971 1.133c-0.103 0.12-0.018 0.307 0.141 0.307h0.611l0.814 0.407c0.114 0.057 0.254 0.020 0.325-0.086l0.262-0.393c0.507 0.209 1.061 0.326 1.643 0.326s1.137-0.117 1.643-0.326l0.262 0.393c0.071 0.106 0.21 0.143 0.325 0.086l0.814-0.407h0.611c0.159 0 0.244-0.186 0.141-0.307l-0.971-1.133c-0.104-0.121-0.288-0.134-0.404-0.025-0.634 0.593-1.484 0.958-2.421 0.958z"/><path fill="#ff4b55" d="M12.448 17.795h-1.268l0.254-2.283c0 0-0.888-0.444-0.795-1.747 0.011-0.159 0.145-0.282 0.304-0.282h0.216c0.149 0 0.275 0.108 0.3 0.256 0.053 0.318 0.219 0.841 0.736 1.013l0.254 3.044z"/><path fill="#ff4b55" d="M19.552 17.795h1.268l-0.254-2.283c0 0 0.888-0.444 0.795-1.747-0.011-0.159-0.145-0.282-0.304-0.282h-0.216c-0.149 0-0.275 0.108-0.3 0.256-0.053 0.318-0.219 0.841-0.736 1.013l-0.254 3.044z"/><path fill="#ffe15a" d="M12.587 18.049h-1.546c-0.063 0-0.115-0.051-0.115-0.115v-0.024c0-0.064 0.051-0.115 0.115-0.115h1.546c0.063 0 0.115 0.051 0.115 0.115v0.024c0 0.063-0.051 0.115-0.115 0.115z"/><path fill="#ffe15a" d="M20.959 18.049h-1.546c-0.064 0-0.115-0.051-0.115-0.115v-0.024c0-0.064 0.051-0.115 0.115-0.115h1.546c0.064 0 0.115 0.051 0.115 0.115v0.024c0 0.063-0.052 0.115-0.115 0.115z"/></svg>