<!-- Generated by IcoMoon.io -->
<svg version="1.1" xmlns="http://www.w3.org/2000/svg" width="32" height="32" viewBox="0 0 32 32">
<title>cambodia</title>
<path fill="#41479b" d="M32 25v-18c0-3.866-3.134-7-7-7h-18c-3.866 0-6.999 3.133-7 6.999v18.002c0.001 3.865 3.134 6.999 7 6.999h18c3.866 0 7-3.134 7-7z"></path>
<path fill="#ff4b55" d="M0 7.579h32v16.842h-32v-16.842z"></path>
<path fill="#f5f5f5" d="M27.144 22.385v-1.194h-0.398v-0.796h-0.398v-0.796h-0.398v-0.796h-1.194v-2.388h-0l0.398-0.398v-1.194h-0.398v-0.796h-0.398v-1.194h-0.398v-0.796h-0.398v-0.796h-0.398v-0.398h-0.796v0.398h-0.398v0.796h-0.398v0.796h-0.398v1.194h-0.398v0.796h-2.388v-1.194h-0.398v-1.194h-0.398v-1.194h-0.398v-0.796h-0.398v-0.796h-0.398v-0.398h-0.199v-0.398h-0.398v0.398h-0.199v0.398h-0.398v0.796h-0.398v0.796h-0.398v1.194h-0.398v1.194h-0.398v1.194h-2.388v-0.796h-0.398v-1.194h-0.398v-0.796h-0.398v-0.796h-0.398v-0.398h-0.796v0.398h-0.398v0.796h-0.398v0.796h-0.398v1.194h-0.398v0.796h-0.398v1.194l0.398 0.398v2.388h-1.194v0.796h-0.398v0.796h-0.398v0.796h-0.398v1.194h-0.398v1.194h23.083v-1.194z"></path>
</svg>
