<svg xmlns="http://www.w3.org/2000/svg" width="32" height="32" version="1.1" viewBox="0 0 32 32"><title>cameroon</title><path fill="#73af00" d="M7 0c-3.865 0-6.999 3.133-7 6.998v18.003c0.001 3.865 3.135 6.998 7 6.998h3.667v-32h-3.667z"/><path fill="#ff4b55" d="M10.667 0h10.667v32h-10.667v-32z"/><path fill="#ffe15a" d="M32 25v-18c0-3.866-3.134-7-7-7h-3.667v32h3.667c3.866 0 7-3.134 7-7z"/><path fill="#ffe15a" d="M16.152 13.316l0.629 1.886 1.988 0.015c0.154 0.001 0.218 0.198 0.094 0.289l-1.599 1.181 0.6 1.896c0.046 0.147-0.121 0.268-0.246 0.179l-1.618-1.156-1.618 1.156c-0.125 0.090-0.293-0.032-0.246-0.179l0.6-1.896-1.599-1.181c-0.124-0.091-0.060-0.288 0.094-0.289l1.988-0.015 0.629-1.886c0.049-0.146 0.255-0.146 0.304 0z"/></svg>