<svg xmlns="http://www.w3.org/2000/svg" width="32" height="32" version="1.1" viewBox="0 0 32 32"><title>canada</title><path fill="#f5f5f5" d="M7.173 0h17.655v32h-17.655v-32z"/><path fill="#ff4b55" d="M7 0c-3.866 0-7 3.134-7 7v18c0 3.866 3.134 7 7 7h0.172v-32h-0.172z"/><path fill="#ff4b55" d="M25 0h-0.172v32h0.172c3.866 0 7-3.134 7-7v-18c0-3.866-3.134-7-7-7z"/><path fill="#ff4b55" d="M19.348 18.422l3.274-1.871-0.751-0.376c-0.211-0.105-0.331-0.333-0.3-0.566l0.244-1.833-1.386 0.403c-0.306 0.089-0.624-0.099-0.693-0.411l-0.133-0.6-1.301 1.523c-0.18 0.211-0.524 0.050-0.477-0.224l0.556-3.232-0.851 0.233c-0.249 0.068-0.511-0.045-0.632-0.272l-0.896-1.679v-0.002l-0.001 0.001-0.001-0.001v0.002l-0.896 1.679c-0.121 0.227-0.384 0.34-0.632 0.272l-0.851-0.233 0.556 3.232c0.047 0.274-0.297 0.435-0.477 0.224l-1.301-1.523-0.133 0.6c-0.069 0.311-0.387 0.5-0.693 0.411l-1.386-0.403 0.244 1.833c0.031 0.233-0.089 0.461-0.3 0.566l-0.751 0.376 3.274 1.871c0.339 0.194 0.488 0.605 0.351 0.971l-0.28 0.749 2.805-0.239c0.155-0.013 0.287 0.112 0.283 0.267l-0.088 3.003h0.552l-0.088-3.003c-0.005-0.156 0.128-0.281 0.283-0.267l2.807 0.24-0.28-0.749c-0.137-0.366 0.012-0.777 0.351-0.971z"/></svg>