<svg xmlns="http://www.w3.org/2000/svg" width="32" height="32" version="1.1" viewBox="0 0 32 32"><title>cayman-islands</title><path fill="#41479b" d="M25 0h-18c-3.866 0-7 3.134-7 7v18c0 3.866 3.134 7 7 7h18c3.866 0 7-3.134 7-7v-18c0-3.866-3.134-7-7-7z"/><path fill="#ffe15a" d="M24.719 16.332c0 0-0.264-1.055-1.055-1.582 0 0 0.791 1.318 0.791 2.373l0.264-0.791z"/><path fill="#ffe15a" d="M23.5 15.186c0 0 0.552 0.338 0.849 0.89l-0.239 0.552c0 0-0.198-0.783-0.61-1.442z"/><path fill="#ffe15a" d="M22.89 15.31c0 0 0.956 0.297 1.409 0.915l-0.272 0.412c0 0-0.363-0.7-1.137-1.327z"/><path fill="#ffe15a" d="M22.75 15.788c0 0 1.005 0.157 1.458 0.634l-0.115 0.453c0 0-0.552-0.659-1.343-1.088z"/><path fill="#ffe15a" d="M22.783 16.117c0 0 0.972 0.099 1.417 0.61s-0.165 0.354-0.165 0.354-0.511-0.585-1.252-0.964z"/><path fill="#ffe15a" d="M24.719 16.332c0 0 0.264-1.055 1.055-1.582 0 0-0.791 1.318-0.791 2.373l-0.264-0.791z"/><path fill="#ffe15a" d="M25.939 15.186c0 0-0.552 0.338-0.849 0.89l0.239 0.552c0 0 0.198-0.783 0.61-1.442z"/><path fill="#ffe15a" d="M26.549 15.31c0 0-0.956 0.297-1.409 0.915l0.272 0.412c0 0 0.363-0.7 1.137-1.327z"/><path fill="#ffe15a" d="M26.689 15.788c0 0-1.005 0.157-1.458 0.634l0.115 0.453c-0 0 0.552-0.659 1.343-1.088z"/><path fill="#ffe15a" d="M26.656 16.117c0 0-0.972 0.099-1.417 0.61s0.165 0.354 0.165 0.354 0.511-0.585 1.252-0.964z"/><path fill="#ffe15a" d="M24.719 14.75c0 0-0.264 0.555 0 0.832 0.264-0.277 0-0.832 0-0.832z"/><path fill="#ffe15a" d="M24.457 14.887c0 0-0.035 0.613 0.313 0.771 0.14-0.356-0.313-0.771-0.313-0.771z"/><path fill="#ffe15a" d="M24.982 14.887c0 0 0.035 0.613-0.313 0.771-0.14-0.356 0.313-0.771 0.313-0.771z"/><path fill="#ffe15a" d="M25.069 15.241c0 0-0.23 0.57-0.613 0.563 0.026-0.382 0.613-0.563 0.613-0.563z"/><path fill="#ffe15a" d="M24.37 15.241c0 0 0.23 0.57 0.613 0.563-0.026-0.382-0.613-0.563-0.613-0.563z"/><path fill="#ffd255" d="M25.51 16.596c0 0.582-0.354 1.055-0.791 1.055s-0.791-0.472-0.791-1.055c0-0.582 0.354-1.055 0.791-1.055s0.791 0.472 0.791 1.055z"/><path fill="#73af00" d="M22.912 17.672l-0.181-0.28c0 0-0.527 0.126-0.654-0.269l-0.203-0.017c0 0 0.027-0.269 0.264-0.308 0 0 0.143-0.176 0.395-0.143s0.384 0.247 0.53 0.302c0.146 0.055 0.162 0.236 0.162 0.236l1.11 1.137c0 0-0.319 0.407-0.604 0.538s-1.335-0.511-0.819-1.198z"/><path fill="#73af00" d="M26.516 17.881c0 0 0.461 0.313 0.478 1.178h-0.766c0 0 0.008-0.585-0.14-0.898l0.428-0.28z"/><path fill="#73af00" d="M26.417 17.914c0 0 0.577 0.189 0.931-0.264l-0.602-0.082-0.33 0.346z"/><path fill="#73af00" d="M26.244 17.279l0.586 0.197c0.074 0.025 0.1 0.116 0.048 0.175-0.222 0.25-0.886 0.85-1.955 0.85-1.393 0-1.752-0.876-1.769-0.942s-0.091-0.602-0.091-0.602l0.593-0.066 2.587 0.387z"/><path fill="#ff4b55" d="M20.549 25.347h1.534l-0.791 1.532-0.791-1.055z"/><path fill="#ff4b55" d="M28.89 25.347h-1.534l0.791 1.532 0.791-1.055z"/><path fill="#ffd25a" d="M20.543 27.933c-0.757 0-1.336-0.406-1.366-0.427l0.61-0.861c0.005 0.003 0.516 0.35 1.037 0.193 0.527-0.159 0.873-0.781 1.071-1.275l0.979 0.392c-0.415 1.039-1.008 1.677-1.761 1.898-0.197 0.058-0.389 0.081-0.57 0.081z"/><path fill="#ffd25a" d="M28.896 27.933c0.757 0 1.336-0.406 1.366-0.427l-0.61-0.861c-0.005 0.003-0.516 0.35-1.037 0.193-0.527-0.159-0.873-0.781-1.071-1.275l-0.979 0.392c0.415 1.039 1.008 1.677 1.761 1.898 0.197 0.058 0.389 0.081 0.57 0.081z"/><path fill="#ff4b55" d="M28.147 22.396h-6.856v-2.664c0-0.276 0.224-0.5 0.5-0.5h5.856c0.276 0 0.5 0.224 0.5 0.5v2.664z"/><path fill="#ffe15a" d="M23.162 21.078l-0.082-0.527c-0.387-0.017-0.61-0.47-0.61-0.47l-0.313 0.173c0.33 0.791 1.005 0.824 1.005 0.824z"/><path fill="#ffe15a" d="M27.29 20.534c0.115-0.088 0.368-0.121 0.368-0.121-0.181-0.187-0.379-0.055-0.379-0.055 0.165-0.154 0.071-0.373 0.071-0.373 0 0.071-0.115 0.121-0.115 0.121 0.006-0.143-0.143-0.28-0.143-0.28l-0.077 0.126c-0.049-0.121-0.225-0.214-0.225-0.214l-0.071 0.297c-0.165-0.143-0.456-0.132-0.456-0.132l0.055 0.137c-0.176 0.005-0.654 0.104-0.934 0.137s-0.505-0.044-0.505-0.17c0-0.106 0.245-0.119 0.351-0.12 0.075 0.017 0.169 0.044 0.302 0.083 0.247 0.074 0.392-0.033 0.392-0.033-0.087-0.033-0.096-0.071-0.096-0.071 0.185-0.107 0.359-0.081 0.359-0.081-0.062-0.136-0.33-0.128-0.33-0.128 0.070-0.037 0.124-0.152 0.124-0.152-0.017 0.017-0.169 0.054-0.377 0.082-0.156 0.021-0.303 0.14-0.364 0.195-0.165-0.013-0.596-0.018-0.52 0.281 0.093 0.368 0.835 0.236 1.291 0.165s0.692-0.011 0.791 0.049-0.042 0.265-0.505 0.181c-0.4-0.072-0.621-0.075-0.742-0.062-0.134 0.009-0.249 0.045-0.329 0.062-0.181 0.038-0.879 0.286-1.011-0.071s-0.775 0.582-0.775 0.582l0.050 0.060-0.171-0.041c-0.231 0.309-0.923 0.404-0.923 0.404s-0.103-0.185-0.189-0.21-0.124 0.111-0.124 0.111-0.103 0.004-0.111 0.099 0.074 0.103 0.074 0.103-0.099 0.144 0.066 0.185c0 0-0.012 0.202 0.231 0.062 0.722 0.091 1.249-0.28 1.477-0.482 0.149 0.009 0.381 0.005 0.56-0.088 0.286-0.148 0.615-0.335 0.808-0.264 0 0 0.154 0.472-0.45 0.483 0 0-0.089-0.113-0.179-0.113-0.039 0-0.079 0.047-0.067 0.088 0 0-0.105-0.006-0.124 0.056-0.015 0.051 0.022 0.109 0.099 0.099 0 0-0.053 0.078 0 0.124s0.118 0 0.118 0-0.028 0.096 0.037 0.105c0.056 0.008 0.13-0.083 0.151-0.111 0.097 0.015 0.756 0.091 0.899-0.601 0 0 0.33 0.143 0.654 0.115s0.643 0.022 0.615 0.181c-0.036 0.115-0.107 0.108-0.107 0.108-0.078-0.031-0.208-0.028-0.226 0.084s0.133 0.115 0.133 0.115c0.043 0.102 0.168 0.059 0.168 0.059 0.109 0.078 0.18-0.006 0.18-0.006 0.047 0.040 0.095 0.048 0.14 0.009 0.043-0.037 0.019-0.285 0.015-0.374-0.007-0.147-0.027-0.533-0.242-0.538s-0.489 0.121-0.868-0.198c-0.020-0.017-0.039-0.027-0.059-0.041 0.179 0.017 0.308 0.065 0.432 0.085 0.17 0.027 0.67-0.017 0.786-0.105z"/><path fill="#ffe15a" d="M22.157 20.254c0 0-0.105 0.003-0.157-0.012-0.088-0.026-0.099-0.165-0.004-0.189 0 0-0.114-0.078-0.062-0.165 0.042-0.070 0.148-0.070 0.186-0.028 0 0-0.035-0.115 0.066-0.153 0.080-0.030 0.144 0.062 0.144 0.181 0 0 0.12-0.097 0.181-0.033 0.043 0.045 0.031 0.104-0.041 0.227-0.073 0.125-0.313 0.173-0.313 0.173z"/><path fill="#41479b" d="M22.027 20.203c0 0-0.056 0.096-0.217 0.037 0 0 0.14-0.065 0.158-0.121l0.059 0.084z"/><path fill="#41479b" d="M21.968 19.921c0 0-0.087-0.056-0.183-0.053 0 0 0.143-0.105 0.264-0.012l-0.081 0.065z"/><path fill="#41479b" d="M22.17 19.772c0 0 0.028-0.102-0.028-0.158 0 0 0.115 0.050 0.13 0.143l-0.102 0.015z"/><path fill="#41479b" d="M22.424 19.877c0 0 0.056-0.124 0.006-0.183 0 0 0.149 0.087 0.087 0.23l-0.093-0.047z"/><path fill="#41479b" d="M22.133 21.256c0 0-0.060-0.122-0.137-0.122 0 0 0.162-0.059 0.232 0.080l-0.095 0.042z"/><path fill="#41479b" d="M22.003 21.412c0 0-0.107-0.085-0.176-0.051 0 0 0.121-0.123 0.244-0.028l-0.068 0.079z"/><path fill="#41479b" d="M22.078 21.631c0 0-0.136-0.002-0.17 0.068 0 0 0.020-0.171 0.176-0.171l-0.005 0.104z"/><path fill="#41479b" d="M22.202 21.773c0 0-0.056 0.096-0.217 0.037 0 0 0.14-0.065 0.158-0.121l0.059 0.084z"/><path fill="#41479b" d="M24.654 21.724c0 0-0.046 0.079-0.178 0.030 0 0 0.107-0.038 0.122-0.084l0.055 0.054z"/><path fill="#ffd255" d="M23.258 20.023c0 0-0.297 0.505-0.225 1.236 0 0 0.875-0.128 1.254-1.001 0 0 0.092-0.037 0.128-0.127 0.031-0.076 0.028-0.202-0.119-0.201 0 0 0.044-0.088 0.098-0.108 0 0-0.095-0.037-0.206-0.012 0 0 0.087-0.087 0.087-0.198 0 0-0.132 0.087-0.214 0.095 0 0-0.008-0.136 0.025-0.152 0 0-0.173 0.017-0.26 0.107 0 0-0.058-0.078-0.054-0.161 0 0-0.161 0.070-0.223 0.173 0 0-0.049-0.054-0.045-0.107 0 0-0.115 0.14-0.14 0.214 0 0-0.109-0.030-0.157 0.058-0.034 0.063-0.027 0.133 0.051 0.185z"/><path fill="#41479b" d="M24.522 21.356c0 0-0.035-0.066-0.141-0.081 0 0 0.134-0.062 0.219 0.027l-0.079 0.054z"/><path fill="#41479b" d="M26.703 21.607c0 0-0.077 0.024-0.113 0.133 0 0-0.039-0.155 0.072-0.227l0.042 0.094z"/><path fill="#41479b" d="M26.865 21.664c0 0-0.073 0.071-0.070 0.186 0 0-0.090-0.132-0.011-0.238l0.080 0.052z"/><path fill="#41479b" d="M27.213 21.658c0 0-0.022 0.075 0.045 0.155 0 0-0.138-0.044-0.141-0.164l0.096 0.009z"/><path fill="#41479b" d="M27.049 21.687c0 0-0.059 0.056-0.043 0.169 0 0-0.109-0.096-0.041-0.21l0.084 0.040z"/><path fill="#41479b" d="M24.41 21.491c0 0-0.071-0.025-0.158 0.035 0 0 0.058-0.136 0.18-0.128l-0.022 0.093z"/><path fill="#41479b" d="M24.506 21.642c0 0-0.073-0.019-0.155 0.049 0 0 0.013-0.132 0.136-0.134l0.019 0.085z"/><path fill="#f5f5f5" d="M28.147 22.821c-0.572 0-0.572 0.516-1.144 0.516s-0.572-0.516-1.144-0.516c-0.571 0-0.571 0.516-1.143 0.516s-0.571-0.516-1.142-0.516c-0.571 0-0.571 0.516-1.142 0.516s-0.571-0.516-1.142-0.516v-0.952c0.571 0 0.571 0.516 1.142 0.516s0.571-0.516 1.142-0.516c0.571 0 0.571 0.516 1.142 0.516s0.571-0.516 1.143-0.516c0.572 0 0.572 0.516 1.144 0.516s0.572-0.516 1.144-0.516v0.952z"/><path fill="#41479b" d="M27.004 23.337c-0.572 0-0.572-0.516-1.144-0.516s-0.571 0.516-1.143 0.516c-0.571 0-0.571-0.516-1.142-0.516s-0.571 0.516-1.142 0.516c-0.57 0-0.571-0.513-1.139-0.515 0.008 0.228 0.034 0.566 0.101 0.964 0.464 0.061 0.506 0.504 1.038 0.504 0.571 0 0.571-0.516 1.142-0.516s0.571 0.516 1.142 0.516c0.571 0 0.571-0.516 1.143-0.516s0.572 0.516 1.144 0.516c0.533 0 0.575-0.442 1.040-0.504 0.067-0.398 0.093-0.736 0.101-0.964-0.568 0.002-0.57 0.515-1.141 0.515z"/><path fill="#f5f5f5" d="M27.004 24.289c-0.572 0-0.572-0.516-1.144-0.516s-0.571 0.516-1.143 0.516c-0.571 0-0.571-0.516-1.142-0.516s-0.571 0.516-1.142 0.516c-0.532 0-0.574-0.442-1.038-0.504 0.053 0.315 0.132 0.666 0.249 1.030 0.257 0.148 0.369 0.426 0.789 0.426 0.571 0 0.571-0.516 1.142-0.516s0.571 0.516 1.142 0.516c0.571 0 0.571-0.516 1.143-0.516s0.572 0.516 1.144 0.516c0.421 0 0.533-0.279 0.791-0.427 0.116-0.363 0.195-0.714 0.248-1.029-0.465 0.061-0.507 0.504-1.040 0.504z"/><path fill="#41479b" d="M27.004 25.241c-0.572 0-0.572-0.516-1.144-0.516s-0.571 0.516-1.143 0.516c-0.571 0-0.571-0.516-1.142-0.516s-0.571 0.516-1.142 0.516c-0.42 0-0.532-0.279-0.789-0.426 0.145 0.453 0.349 0.922 0.633 1.36 0.048 0.010 0.097 0.018 0.156 0.018 0.571 0 0.571-0.516 1.142-0.516s0.571 0.516 1.142 0.516c0.571 0 0.571-0.516 1.143-0.516s0.572 0.516 1.144 0.516c0.059 0 0.109-0.008 0.158-0.018 0.285-0.438 0.488-0.908 0.633-1.36-0.258 0.147-0.37 0.426-0.791 0.426z"/><path fill="#f5f5f5" d="M27.004 26.194c-0.572 0-0.572-0.516-1.144-0.516s-0.571 0.516-1.143 0.516c-0.571 0-0.571-0.516-1.142-0.516s-0.571 0.516-1.142 0.516c-0.059 0-0.108-0.008-0.156-0.018 0.181 0.278 0.395 0.543 0.647 0.782 0.175-0.148 0.313-0.328 0.651-0.328 0.571 0 0.571 0.516 1.142 0.516s0.571-0.516 1.143-0.516c0.339 0 0.478 0.181 0.654 0.329 0.253-0.24 0.467-0.505 0.648-0.783-0.048 0.010-0.098 0.018-0.158 0.018z"/><path fill="#41479b" d="M26.514 26.959c-0.175-0.148-0.314-0.329-0.654-0.329-0.571 0-0.571 0.516-1.143 0.516s-0.571-0.516-1.142-0.516c-0.338 0-0.477 0.18-0.651 0.328 0.459 0.436 1.045 0.788 1.795 0.976 0.75-0.187 1.335-0.539 1.794-0.975z"/><path fill="#f5f5f5" d="M25.86 21.869c-0.571 0-0.571 0.516-1.143 0.516s-0.571-0.516-1.142-0.516c-0.571 0-0.571 0.516-1.142 0.516s-0.571-0.516-1.142-0.516c0 0.325 0 0.608 0 0.791 0 0.045 0.001 0.1 0.003 0.162 0.567 0.002 0.569 0.515 1.139 0.515s0.571-0.516 1.142-0.516c0.571 0 0.571 0.516 1.142 0.516s0.571-0.516 1.143-0.516c0.572 0 0.572 0.516 1.144 0.516 0.571 0 0.572-0.513 1.14-0.515 0.002-0.062 0.003-0.117 0.003-0.162 0-0.183 0-0.466 0-0.791-0.572 0-0.572 0.516-1.144 0.516s-0.572-0.516-1.144-0.516z"/><path fill="#f5f5f5" d="M27.884 19.232c0.146 0 0.264 0.118 0.264 0.264v2.9c0 0.1 0 0.191 0 0.264 0 0.045-0.001 0.1-0.003 0.162-0.008 0.228-0.034 0.566-0.101 0.964-0.053 0.315-0.132 0.666-0.248 1.029-0.145 0.453-0.349 0.922-0.633 1.36-0.181 0.279-0.395 0.544-0.648 0.783-0.459 0.436-1.044 0.787-1.794 0.975-0.75-0.188-1.336-0.539-1.795-0.976-0.252-0.239-0.466-0.504-0.647-0.782-0.284-0.438-0.488-0.907-0.633-1.36-0.116-0.363-0.195-0.715-0.249-1.030-0.067-0.398-0.093-0.736-0.101-0.964-0.002-0.062-0.003-0.117-0.003-0.162 0-0.072 0-0.164 0-0.264v-2.9c0-0.146 0.118-0.264 0.264-0.264h6.328zM27.884 19.034h-6.328c-0.254 0-0.461 0.207-0.461 0.461v3.164c0 0.047 0.001 0.104 0.003 0.168 0.007 0.215 0.032 0.562 0.104 0.99 0.061 0.365 0.147 0.72 0.255 1.057 0.167 0.521 0.388 0.995 0.656 1.407 0.197 0.304 0.425 0.579 0.676 0.818 0.524 0.498 1.158 0.843 1.883 1.024l0.048 0.012 0.048-0.012c0.725-0.181 1.358-0.525 1.882-1.023 0.252-0.239 0.48-0.515 0.678-0.819 0.268-0.413 0.489-0.886 0.656-1.408 0.108-0.337 0.194-0.692 0.255-1.057 0.072-0.428 0.096-0.775 0.104-0.99 0.002-0.065 0.003-0.122 0.003-0.168v-3.164c0-0.255-0.207-0.462-0.461-0.462v0z"/><path fill="#73af00" d="M24.719 26.339l-0.724 0.503 0.255-0.844-0.702-0.532 0.881-0.018 0.289-0.833 0.29 0.833 0.881 0.018-0.702 0.532 0.255 0.844z"/><path fill="#ffe15a" d="M24.719 24.778l0.251 0.723 0.765 0.016-0.61 0.462 0.221 0.732-0.628-0.437-0.628 0.437 0.221-0.732-0.61-0.462 0.765-0.016 0.251-0.723zM24.719 24.453l-0.328 0.943-0.998 0.020 0.795 0.603-0.289 0.955 0.819-0.57 0.819 0.57-0.289-0.955 0.795-0.603-0.998-0.020-0.227-0.652-0.101-0.29z"/><path fill="#73af00" d="M23.13 24.282l-0.724 0.503 0.255-0.844-0.702-0.532 0.881-0.018 0.29-0.833 0.289 0.833 0.881 0.018-0.702 0.532 0.255 0.844z"/><path fill="#ffe15a" d="M23.13 22.722l0.251 0.723 0.765 0.016-0.61 0.462 0.221 0.732-0.628-0.437-0.628 0.437 0.221-0.732-0.61-0.462 0.765-0.016 0.251-0.723zM23.13 22.396l-0.328 0.943-0.998 0.020 0.795 0.603-0.289 0.955 0.819-0.57 0.819 0.57-0.289-0.955 0.795-0.603-0.998-0.020-0.227-0.652-0.101-0.29z"/><path fill="#73af00" d="M26.294 24.282l-0.724 0.503 0.255-0.844-0.702-0.532 0.881-0.018 0.29-0.833 0.29 0.833 0.881 0.018-0.702 0.532 0.255 0.844z"/><path fill="#ffe15a" d="M26.294 22.722l0.251 0.723 0.765 0.016-0.61 0.462 0.221 0.732-0.628-0.437-0.628 0.437 0.221-0.732-0.61-0.462 0.765-0.016 0.251-0.723zM26.294 22.396l-0.328 0.943-0.998 0.020 0.795 0.603-0.289 0.955 0.819-0.57 0.819 0.57-0.289-0.955 0.795-0.603-0.998-0.020-0.227-0.652-0.101-0.29z"/><path fill="#ffe15a" d="M28.89 25.347c-0.654 1.666-2.275 2.851-4.171 2.851s-3.516-1.184-4.17-2.851l-0.981 0.384c0.808 2.058 2.81 3.521 5.152 3.521s4.343-1.463 5.152-3.521l-0.981-0.384z"/><path fill="#f5f5f5" d="M25.247 19.232h-0.791l-0.264-0.791h0.791z"/><path fill="#f5f5f5" d="M26.565 19.232h-0.527l-0.176-0.527h0.241c0.171 0 0.323 0.11 0.377 0.272l0.085 0.255z"/><path fill="#f5f5f5" d="M23.665 19.232h-0.527l-0.060-0.18c-0.057-0.171 0.070-0.347 0.25-0.347h0.162l0.176 0.527z"/><path fill="#41479b" d="M26.038 19.232h-0.791l-0.264-0.791h0.601c0.113 0 0.214 0.073 0.25 0.18l0.204 0.611z"/><path fill="#41479b" d="M24.456 19.232h-0.791l-0.178-0.534c-0.042-0.126 0.052-0.257 0.185-0.257h0.52l0.264 0.791z"/><path fill="#509664" d="M26.656 17.403c-0.206 0.297-0.783 0.651-1.722 0.651-0.774 0-1.272-0.467-1.438-0.652-0.041-0.045-0.062-0.102-0.062-0.163v-0.18c0-0.077 0.040-0.148 0.107-0.187 0.167-0.097 0.554-0.253 1.318-0.253 0.948-0 1.796 0.783 1.796 0.783z"/><path fill="#41479b" d="M5.895 0.087c-1.649 0.262-3.106 1.099-4.159 2.299l4.159 2.725v-5.023z"/><path fill="#41479b" d="M0.439 4.556c-0.159 0.428-0.278 0.876-0.352 1.339h2.395l-2.043-1.339z"/><path fill="#41479b" d="M0 10.105v1.626l2.482-1.626z"/><path fill="#41479b" d="M16 1.249v-1.249h-5.895v5.111z"/><path fill="#41479b" d="M16 11.731v-1.626h-2.482z"/><path fill="#41479b" d="M10.105 16h5.895v-1.249l-5.895-3.862z"/><path fill="#41479b" d="M16 5.895v-1.626l-2.482 1.626z"/><path fill="#41479b" d="M5.895 10.889l-5.895 3.862v1.249h5.895z"/><path fill="#f5f5f5" d="M9.263 16h0.842v-5.111l5.895 3.862v-1.248l-5.236-3.398h1.547l3.689 2.394v-0.768l-2.482-1.626h2.482v-0.842h-6.737z"/><path fill="#f5f5f5" d="M5.895 16h0.842v-6.737h-6.737v0.842h2.482l-2.482 1.626v1.181l4.325-2.807h1.547l-5.872 3.811v0.835l5.895-3.862z"/><path fill="#f5f5f5" d="M6.737 0.005c-0.285 0.011-0.566 0.038-0.842 0.082v5.023l-4.159-2.725c-0.25 0.285-0.478 0.591-0.679 0.915l3.996 2.594h-1.547l-2.852-1.851c-0.078 0.167-0.15 0.338-0.215 0.513l2.043 1.339h-2.395c-0.044 0.276-0.071 0.557-0.082 0.842h6.731v-6.731z"/><path fill="#f5f5f5" d="M16 6.737v-0.842h-2.482l2.482-1.626v-1.196l-4.348 2.822h-1.547l5.895-3.826v-0.82l-5.895 3.862v-5.111h-0.842v6.737z"/><path fill="#ff4b55" d="M6.737 16h2.526v-6.737h6.737v-2.526h-6.737v-6.737h-2.263c-0.088 0-0.176 0.002-0.263 0.005v6.731h-6.731c-0.003 0.087-0.005 0.175-0.005 0.263v2.263h6.737v6.737z"/><path fill="#ff4b55" d="M4.325 10.105l-4.325 2.807v1.004l5.872-3.811z"/><path fill="#ff4b55" d="M10.764 10.105l5.236 3.398v-1.004l-3.689-2.394z"/><path fill="#ff4b55" d="M5.053 5.895l-3.996-2.594c-0.149 0.238-0.283 0.486-0.403 0.743l2.852 1.851h1.547z"/><path fill="#ff4b55" d="M11.652 5.895l4.348-2.822v-1.004l-5.895 3.827z"/></svg>