<svg xmlns="http://www.w3.org/2000/svg" width="32" height="32" version="1.1" viewBox="0 0 32 32"><title>chile</title><path fill="#f5f5f5" d="M25 0h-18c-3.866 0-7 3.134-7 7v8.158h1.103v0.842h30.897v-9c0-3.866-3.134-7-7-7z"/><path fill="#ff4b55" d="M1.103 15.158h-1.103v9.842c0 3.866 3.134 7 7 7h18c3.866 0 7-3.134 7-7v-9h-30.897v-0.842z"/><path fill="#41479b" d="M16 0h-9c-3.866 0-7 3.134-7 7v9h16v-16z"/><path fill="#f5f5f5" d="M8.324 4.408l0.803 2.407 2.537 0.020c0.329 0.003 0.465 0.422 0.2 0.617l-2.041 1.507 0.765 2.419c0.099 0.313-0.258 0.572-0.525 0.381l-2.064-1.476-2.064 1.476c-0.267 0.191-0.624-0.068-0.525-0.381l0.765-2.419-2.041-1.507c-0.264-0.195-0.128-0.614 0.2-0.617l2.537-0.020 0.803-2.407c0.104-0.312 0.545-0.312 0.649-0z"/></svg>