<!-- Generated by IcoMoon.io -->
<svg version="1.1" xmlns="http://www.w3.org/2000/svg" width="32" height="32" viewBox="0 0 32 32">
<title>cocos-island</title>
<path fill="#73af00" d="M25 0h-18c-3.866 0-7 3.134-7 7v18c0 3.866 3.134 7 7 7h18c3.864 0 6.997-3.131 7-6.995v-18.011c-0.003-3.864-3.136-6.995-7-6.995z"></path>
<path fill="#ffe15a" d="M17.080 23.247c-1.783 0-3.228-1.445-3.228-3.228s1.445-3.228 3.228-3.228c0.236 0 0.466 0.028 0.687 0.079 0.088 0.020 0.135-0.098 0.058-0.146-0.676-0.419-1.49-0.637-2.359-0.566-1.891 0.154-3.412 1.696-3.541 3.589-0.154 2.262 1.635 4.144 3.864 4.144 0.747 0 1.444-0.212 2.036-0.579 0.077-0.048 0.030-0.166-0.058-0.146-0.221 0.051-0.45 0.079-0.687 0.079z"></path>
<path fill="#ffe15a" d="M19.894 17.286l0.242 0.614 0.631-0.193c0.035-0.011 0.065 0.027 0.047 0.059l-0.329 0.572 0.545 0.373c0.030 0.021 0.020 0.068-0.017 0.073l-0.652 0.1 0.048 0.658c0.003 0.037-0.041 0.058-0.068 0.033l-0.485-0.448-0.485 0.448c-0.027 0.025-0.070 0.004-0.068-0.033l0.048-0.658-0.652-0.1c-0.036-0.006-0.047-0.053-0.017-0.073l0.545-0.373-0.329-0.572c-0.018-0.032 0.012-0.070 0.047-0.059l0.631 0.193 0.242-0.614c0.013-0.034 0.062-0.034 0.075 0z"></path>
<path fill="#ffe15a" d="M28.721 15.631l0.242 0.614 0.631-0.193c0.035-0.011 0.065 0.027 0.047 0.059l-0.329 0.572 0.545 0.373c0.030 0.021 0.020 0.068-0.017 0.073l-0.652 0.1 0.048 0.658c0.003 0.037-0.041 0.058-0.068 0.033l-0.485-0.448-0.485 0.448c-0.027 0.025-0.070 0.004-0.068-0.033l0.048-0.658-0.652-0.1c-0.036-0.006-0.047-0.053-0.017-0.073l0.545-0.373-0.329-0.572c-0.018-0.032 0.012-0.070 0.047-0.059l0.631 0.193 0.242-0.614c0.014-0.034 0.062-0.034 0.075 0z"></path>
<path fill="#ffe15a" d="M24.307 11.65l0.242 0.614 0.631-0.193c0.035-0.011 0.065 0.027 0.047 0.059l-0.329 0.572 0.545 0.373c0.030 0.021 0.020 0.068-0.017 0.073l-0.652 0.1 0.048 0.658c0.003 0.037-0.041 0.057-0.068 0.033l-0.485-0.448-0.485 0.448c-0.027 0.025-0.070 0.004-0.068-0.033l0.048-0.658-0.652-0.1c-0.036-0.006-0.047-0.053-0.017-0.073l0.545-0.373-0.329-0.572c-0.018-0.032 0.012-0.070 0.047-0.059l0.631 0.193 0.242-0.614c0.013-0.034 0.062-0.034 0.075 0z"></path>
<path fill="#ffe15a" d="M24.307 26.113l0.242 0.614 0.631-0.193c0.035-0.011 0.065 0.027 0.047 0.059l-0.329 0.572 0.545 0.373c0.030 0.021 0.020 0.068-0.017 0.073l-0.652 0.1 0.048 0.658c0.003 0.037-0.041 0.058-0.068 0.033l-0.485-0.448-0.485 0.448c-0.027 0.025-0.070 0.004-0.068-0.033l0.048-0.658-0.652-0.1c-0.036-0.006-0.047-0.053-0.017-0.073l0.545-0.373-0.329-0.572c-0.018-0.032 0.012-0.070 0.047-0.059l0.631 0.193 0.242-0.614c0.013-0.034 0.062-0.034 0.075 0z"></path>
<path fill="#ffe15a" d="M26.114 17.841l0.169 0.507 0.535 0.004c0.041 0 0.059 0.053 0.025 0.078l-0.43 0.318 0.161 0.51c0.012 0.040-0.032 0.072-0.066 0.048l-0.435-0.311-0.435 0.311c-0.034 0.024-0.079-0.009-0.066-0.048l0.161-0.51-0.43-0.318c-0.033-0.025-0.016-0.078 0.025-0.078l0.535-0.004 0.169-0.507c0.013-0.039 0.068-0.039 0.082 0z"></path>
<path fill="#ffe15a" d="M10.203 4.53c2.368 4.191-1.915 8.474-6.106 6.106-0.506-0.286-0.927-0.707-1.213-1.213-2.368-4.191 1.915-8.474 6.106-6.106 0.506 0.286 0.927 0.707 1.213 1.213z"></path>
<path fill="#964b50" d="M6.097 10.354h1.171c0 0 0.665-2.981 0.053-4.045l-0.373 0.239c0 0 0.612 2.049-0.852 3.806z"></path>
<path fill="#73af00" d="M6.142 6.442c0 0-0.674 0.461-0.461 1.828 0 0 0.515-0.426 0.798-1.366 0 0-0.408 0.781 0.16 1.402 0 0 0.603-0.852 0.515-1.597 0 0 2.006 2.094 1.579 1.561-0.071-0.089 0.106-0.976-0.585-1.703 0 0 1.136 0.284 1.561 0.177 0 0 0.036-0.905-1.047-1.065l0.248-0.71c0 0-0.834-0.053-1.277 0.373 0 0-0.106-1.1 0.337-1.632 0 0-1.313-0.195-1.366 1.526 0 0-0.479-1.1-1.952-0.834 0 0 0.834 0.603 0.976 0.869 0 0-1.171-0.798-1.721 0.319 0 0 0.94-0.248 1.278 0.195 0 0-1.508-0.16-1.632 1.136-0-0 1.402-0.657 2.59-0.479z"></path>
</svg>
