<svg xmlns="http://www.w3.org/2000/svg" width="32" height="32" version="1.1" viewBox="0 0 32 32"><title>corsica</title><path fill="#f5f5f5" d="M32 25v-18c0-3.866-3.134-7-7-7h-18c-3.866 0-6.999 3.133-7 6.999v18.002c0.001 3.865 3.134 6.999 7 6.999h18c3.866 0 7-3.134 7-7z"/><path fill="#464655" d="M8.89 17.084c0 0 0.015 0.293-0.231 0.554s-0.123 0.601 0.2 0.755c0 0-0.223 0.531 0.108 0.755 0.209 0.141 0.493 0.123 0.493 0.123s0.154 0.632 0.031 1.032c-0.123 0.401 0.046 1.556 2.865 0.893 0 0 0.026 0.739 1.155 1.314s0.908 1.937 0.908 1.937 1.555 0.9 3.273-1.227c1.718-2.128 1.841-2.414 3.069-2.905 0 0-1.923-1.964-1.227-3.682 0.092-0.227 0.195-0.464 0.303-0.709 0.199 0.647 0.592 1.591 1.295 2.14 0.219 0.17 0.488 0.224 0.749 0.276 0.28 0.056 0.522 0.105 0.635 0.277 0.1 0.154 0.109 0.425 0.032 0.8-0.836 0.911-1.643 1.154-1.654 1.157l-0.194 0.052 0.409 1.347-1.219 1.122 0.022 0.109c0.151 0.752 0.615 0.852 0.807 0.86 0.012 0 0.023 0.001 0.035 0.001 0.444 0 0.895-0.373 1.038-0.866 0.248-0.85 1.057-0.947 1.066-0.947l0.123-0.014 0.041-0.116c0.018-0.051 0.439-1.263 0.646-2.498 0.083-0.5 0.099-0.897 0.082-1.245 0.006-0.012 0.014-0.019 0.020-0.031l-0.021-0.011c-0.078-1.317-0.792-1.667-1.498-1.992-0.601-0.279-0.837-0.55-0.954-0.765 0.024 0.001 0.045 0.007 0.070 0.007 0.192 0 0.394-0.022 0.598-0.079 0.57-0.159 1.032-0.549 1.372-1.158 0.207-0.373 1.748-4.6 1.923-5.081l0.121-0.334-1.989 0.425 0.151-1.21-2.578 0.909 0.061 0.184c0.009 0.024 0.83 2.489 0.75 3.994-0.022 0.395-0.146 0.681-0.372 0.85-0.285 0.21-0.67 0.199-0.872 0.177 0.449-1.192 0.738-2.444 0.31-3.565-0.709-1.858-3.846-3.559-6.219-3.314s-4.34 0.819-4.994 3.192c-0.655 2.373-0.472 3-0.39 3.409s-1.459 2.215-1.181 2.773c0.185 0.37 0.832 0.323 0.832 0.323zM20.265 14.938c0.041-0.097 0.082-0.194 0.123-0.293 0.073 0.013 0.18 0.028 0.339 0.028 0.268 0 0.62-0.051 0.913-0.27 0.323-0.242 0.501-0.627 0.528-1.144 0.073-1.35-0.515-3.341-0.71-3.956l1.616-0.569-0.392 3.135 0.389 0.049 0.269-2.145 1.429-0.305c-0.681 1.867-1.639 4.446-1.776 4.691-0.288 0.515-0.67 0.843-1.135 0.972-0.699 0.198-1.365-0.082-1.592-0.193zM21.235 22.393l0.199 0.658c-0.005 0.016-0.015 0.024-0.020 0.041-0.093 0.32-0.394 0.582-0.661 0.582-0.006 0-0.013 0-0.018 0-0.243-0.010-0.359-0.247-0.414-0.44l0.913-0.841zM23.346 18.998c-0.016 0.176-0.033 0.355-0.068 0.565-0.166 0.993-0.486 2.001-0.593 2.324-0.22 0.051-0.674 0.207-0.998 0.647l-0.499-1.644c0.398-0.158 1.331-0.681 2.158-1.892zM20.091 15.348c0.008-0.017 0.015-0.033 0.022-0.050 0.148 0.070 0.397 0.173 0.729 0.238 0.092 0.275 0.309 0.735 1.242 1.167 0.647 0.299 1.191 0.552 1.278 1.552-0.122 0.225-0.256 0.381-0.386 0.565-0.019-0.159-0.056-0.301-0.131-0.415-0.205-0.311-0.566-0.384-0.887-0.448-0.226-0.046-0.44-0.088-0.584-0.201-0.826-0.645-1.179-1.955-1.282-2.408zM9.876 12.447c0 0 0.062-1.386 0.678-2.557l9.426 4.374-0.801 1.725-9.303-3.543z"/></svg>