<svg xmlns="http://www.w3.org/2000/svg" width="32" height="32" version="1.1" viewBox="0 0 32 32"><title>costa-rica</title><path fill="#ff4b55" d="M0 10.947h32v10.105h-32v-10.105z"/><path fill="#41479b" d="M25 0h-18c-3.342 0-6.136 2.342-6.833 5.474h31.665c-0.697-3.132-3.491-5.474-6.833-5.474z"/><path fill="#f5f5f5" d="M0.167 5.474c-0.109 0.491-0.167 1.002-0.167 1.526v3.947h32v-3.947c0-0.524-0.058-1.035-0.167-1.526h-31.665z"/><path fill="#41479b" d="M7 32h18c3.342 0 6.136-2.342 6.833-5.474h-31.665c0.697 3.132 3.491 5.474 6.833 5.474z"/><path fill="#f5f5f5" d="M0 25c0 0.524 0.058 1.035 0.167 1.526h31.665c0.109-0.491 0.167-1.002 0.167-1.526v-3.947h-32v3.947z"/><path fill="#f5f5f5" d="M11.252 16c0 2.325-1.763 4.211-3.939 4.211s-3.939-1.885-3.939-4.211c0-2.325 1.763-4.211 3.939-4.211s3.939 1.885 3.939 4.211z"/><path fill="#3cc8ff" d="M5.276 14.37h4.074v2.037h-4.074v-2.037z"/><path fill="#ffe15a" d="M5.82 15.529l0.046 0.45 0.183-0.413-0.095 0.442 0.302-0.336-0.227 0.391 0.391-0.227-0.336 0.302 0.442-0.095-0.413 0.183 0.449 0.046-0.449 0.047 0.413 0.183-0.442-0.095 0.336 0.302-0.391-0.227 0.227 0.391-0.302-0.336 0.095 0.442-0.183-0.413-0.046 0.45-0.046-0.45-0.183 0.413 0.095-0.442-0.302 0.336 0.227-0.391-0.391 0.227 0.336-0.302-0.442 0.095 0.413-0.183-0.449-0.047 0.449-0.046-0.413-0.183 0.442 0.095-0.336-0.302 0.391 0.227-0.227-0.391 0.302 0.336-0.095-0.442 0.183 0.413z"/><path fill="#41479b" d="M8.129 19.26h-1.63l-1.494-1.222v-1.766h4.754v1.766z"/><path fill="#73af00" d="M8.944 15.728h-0c-0-0.037-0.030-0.067-0.068-0.067s-0.067 0.030-0.068 0.067h-0c0 0.236-0.137 0.562-0.304 0.795-0.234-0.295-0.322-0.638-0.355-0.853-0.016-0.103-0.127-0.16-0.22-0.113-0.045 0.022-0.075 0.066-0.083 0.116-0.104 0.666-0.418 0.949-0.621 1.066-0.304-0.294-0.405-0.771-0.438-1.052-0.013-0.109-0.13-0.172-0.229-0.123-0.038 0.019-0.066 0.053-0.079 0.094-0.426 1.299-1.61 1.43-1.61 1.43v0.407h4.754v-0.679c-0.543-0.136-0.679-1.087-0.679-1.087z"/><path fill="#f0aa00" d="M9.623 14.506c-0.543-0.272-0.543-0.543-0.543-0.543s-0.679-0.272-1.222-0.272c0 0 0.136-0.272-0.136-0.272s-0.407 0-0.407 0-0.136 0-0.407 0-0.136 0.272-0.136 0.272c-0.543 0-1.222 0.272-1.222 0.272s0 0.272-0.543 0.543c-0.543 0.272-0.543 0.883-0.543 0.883 0 0.113 0.091 0.204 0.204 0.204s0.204-0.091 0.204-0.204c0-0.023-0.005-0.045-0.012-0.066l0.012-0.002 1.358-0.951h2.173l1.358 0.951 0.012 0.002c-0.007 0.021-0.012 0.043-0.012 0.066 0 0.113 0.091 0.204 0.204 0.204s0.204-0.091 0.204-0.204c0 0 0-0.611-0.543-0.883z"/><path fill="#f0aa00" d="M10.030 16.136c-0.136 0-0.543 0-0.543-0.408s0.543-0.407 0.543-0.407l-0.815-0.272c-0.272 0.951 0.272 0.951 0.272 2.173 0 1.095-1.222 1.766-1.63 1.766s-0.543 0.272-0.543 0.272-0.136-0.272-0.543-0.272c-0.407 0-1.63-0.671-1.63-1.766 0-1.222 0.543-1.222 0.272-2.173l-0.815 0.272c0 0 0.543 0 0.543 0.407s-0.407 0.407-0.543 0.407-0.679 0-0.679 0.679 0.679 1.494 1.63 2.037 0.543 1.087 1.766 1.087 0.815-0.543 1.766-1.087c0.951-0.543 1.63-1.358 1.63-2.037s-0.543-0.679-0.679-0.679z"/><path fill="#73af00" d="M7.042 14.010l-0.329-0.148c-0.054-0.024-0.115-0.030-0.173-0.017-0.212 0.049-0.737 0.21-1.128 0.66l0.407 0.136 1.222-0.632z"/><path fill="#73af00" d="M7.585 14.010l0.329-0.148c0.054-0.024 0.115-0.030 0.173-0.017 0.212 0.049 0.737 0.21 1.128 0.66l-0.408 0.136-1.222-0.632z"/><path fill="#73af00" d="M7.362 14.098l0.248-0.248c0.013-0.013 0.013-0.035 0-0.048s-0.035-0.013-0.048 0l-0.248 0.248-0.248-0.248c-0.013-0.013-0.035-0.013-0.048 0s-0.013 0.035 0 0.048l0.248 0.248-0.248 0.248c-0.013 0.013-0.013 0.035 0 0.048 0.007 0.007 0.015 0.010 0.024 0.010s0.017-0.003 0.024-0.010l0.248-0.248 0.248 0.248c0.007 0.007 0.015 0.010 0.024 0.010s0.017-0.003 0.024-0.010c0.013-0.013 0.013-0.035 0-0.048l-0.248-0.248z"/><path fill="#f5f5f5" d="M10.030 15.321c0-0.231-0.218-0.331-0.408-0.374v-0.108c-0.256-0.024-0.398-0.12-0.646-0.289-0.095-0.065-0.204-0.139-0.335-0.218-0.478-0.29-0.845-0.332-1.057-0.322v0.224h-0.543v-0.224c-0.212-0.010-0.579 0.032-1.057 0.322-0.131 0.079-0.239 0.153-0.335 0.218-0.248 0.169-0.391 0.265-0.646 0.289v0.108c-0.189 0.043-0.407 0.143-0.407 0.374l0.407-0.136v0.062c0.385-0.028 0.606-0.176 0.876-0.36 0.091-0.062 0.195-0.133 0.317-0.207 0.31-0.189 0.551-0.247 0.709-0.261v0.222h0.815v-0.222c0.158 0.014 0.399 0.072 0.709 0.261 0.122 0.074 0.225 0.144 0.317 0.207 0.27 0.184 0.49 0.332 0.876 0.36v-0.062l0.408 0.136z"/><path fill="#3cc8ff" d="M8.944 13.18v-0.168h-0.378c0.066-0.057 0.107-0.124 0.107-0.204 0-0.375-0.854-0.475-1.358-0.475s-1.358 0.1-1.358 0.475c0 0.080 0.041 0.147 0.107 0.204h-0.378v0.168c-0.332 0.074-0.604 0.253-0.619 0.262l0.151 0.226c0.004-0.002 0.377-0.249 0.74-0.249v-0.136h2.716v0.136c0.362 0 0.736 0.246 0.74 0.249l0.151-0.226c-0.014-0.009-0.286-0.188-0.619-0.262zM7.857 12.974v-0.103c0-0.066-0.063-0.115-0.127-0.099l-0.416 0.104-0.416-0.104c-0.064-0.016-0.127 0.033-0.127 0.099v0.103c-0.305-0.045-0.486-0.119-0.535-0.166 0.074-0.070 0.433-0.204 1.078-0.204s1.005 0.134 1.078 0.204c-0.049 0.047-0.23 0.121-0.535 0.166z"/><path fill="#f5f5f5" d="M7.331 14.693l0.034 0.103 0.109 0.001c0.014 0 0.020 0.018 0.009 0.026l-0.088 0.065 0.033 0.104c0.004 0.013-0.011 0.025-0.022 0.016l-0.088-0.063-0.088 0.063c-0.011 0.008-0.027-0.003-0.022-0.016l0.033-0.104-0.088-0.065c-0.011-0.008-0.005-0.026 0.009-0.026l0.109-0.001 0.034-0.103c0.005-0.013 0.023-0.013 0.028 0z"/><path fill="#f5f5f5" d="M6.798 14.728l0.045 0.099 0.108-0.011c0.014-0.001 0.022 0.016 0.011 0.025l-0.080 0.073 0.043 0.1c0.006 0.013-0.008 0.026-0.021 0.019l-0.095-0.054-0.081 0.072c-0.011 0.009-0.027-0-0.024-0.014l0.022-0.107-0.094-0.055c-0.012-0.007-0.008-0.026 0.006-0.027l0.108-0.012 0.023-0.106c0.003-0.014 0.022-0.016 0.028-0.003z"/><path fill="#f5f5f5" d="M6.252 14.873l0.065 0.087 0.103-0.034c0.013-0.004 0.025 0.011 0.017 0.022l-0.062 0.089 0.064 0.088c0.008 0.011-0.003 0.027-0.016 0.023l-0.104-0.032-0.064 0.088c-0.008 0.011-0.026 0.006-0.027-0.008l-0.002-0.109-0.104-0.033c-0.013-0.004-0.014-0.023-0-0.028l0.103-0.035-0-0.109c-0-0.014 0.018-0.020 0.026-0.009z"/><path fill="#f5f5f5" d="M5.704 15.104l0.076 0.078 0.098-0.047c0.013-0.006 0.026 0.007 0.019 0.020l-0.050 0.097 0.075 0.079c0.010 0.010 0.001 0.027-0.013 0.025l-0.107-0.018-0.052 0.096c-0.007 0.012-0.025 0.009-0.027-0.005l-0.016-0.108-0.107-0.019c-0.014-0.002-0.016-0.021-0.004-0.027l0.097-0.049-0.015-0.108c-0.002-0.014 0.015-0.022 0.025-0.012z"/><path fill="#f5f5f5" d="M7.835 14.728l-0.045 0.099-0.108-0.011c-0.014-0.001-0.022 0.016-0.011 0.025l0.080 0.073-0.043 0.1c-0.006 0.013 0.008 0.026 0.021 0.019l0.095-0.054 0.081 0.072c0.011 0.009 0.027-0 0.024-0.014l-0.022-0.107 0.094-0.055c0.012-0.007 0.008-0.026-0.006-0.027l-0.108-0.012-0.023-0.106c-0.003-0.014-0.022-0.016-0.028-0.003z"/><path fill="#f5f5f5" d="M8.382 14.873l-0.065 0.087-0.103-0.034c-0.013-0.004-0.025 0.011-0.017 0.022l0.062 0.089-0.064 0.088c-0.008 0.011 0.003 0.027 0.016 0.023l0.104-0.032 0.064 0.088c0.008 0.011 0.026 0.006 0.027-0.008l0.002-0.109 0.104-0.033c0.013-0.004 0.014-0.023 0-0.028l-0.103-0.035 0-0.109c0-0.014-0.018-0.020-0.026-0.009z"/><path fill="#f5f5f5" d="M8.93 15.104l-0.076 0.078-0.098-0.047c-0.013-0.006-0.026 0.007-0.019 0.020l0.050 0.097-0.075 0.079c-0.010 0.010-0.001 0.027 0.013 0.025l0.107-0.018 0.052 0.096c0.007 0.012 0.025 0.009 0.027-0.005l0.016-0.108 0.107-0.019c0.014-0.002 0.017-0.021 0.004-0.027l-0.097-0.049 0.015-0.108c0.002-0.014-0.015-0.022-0.025-0.012z"/><path fill="#8c5a28" d="M6.376 17.952l0.692 0.463h0.836l0.386-0.331-0.297 0.119h-0.985z"/><path fill="#f5f5f5" d="M6.847 17.355l-0.067 0.673-0.304-0.116c0 0 0.14-0.325 0.371-0.557z"/><path fill="#8c5a28" d="M7.447 17.089h0.045v1.147h-0.045v-1.147z"/><path fill="#8c5a28" d="M7.862 17.186h0.045v1.050h-0.045v-1.050z"/><path fill="#8c5a28" d="M7.032 17.186h0.045v1.050h-0.045v-1.050z"/><path fill="#f5f5f5" d="M7.628 18.127h-0.316c-0.017 0-0.031-0.014-0.031-0.031v-0.181c0-0.017 0.014-0.031 0.031-0.031h0.316c0.017 0 0.031 0.014 0.031 0.031v0.181c0 0.017-0.014 0.031-0.031 0.031z"/><path fill="#f5f5f5" d="M7.628 17.804h-0.316c-0.017 0-0.031-0.014-0.031-0.031v-0.181c0-0.017 0.014-0.031 0.031-0.031h0.316c0.017 0 0.031 0.014 0.031 0.031v0.181c0 0.017-0.014 0.031-0.031 0.031z"/><path fill="#f5f5f5" d="M7.628 17.507h-0.316c-0.017 0-0.031-0.014-0.031-0.031v-0.181c0-0.017 0.014-0.031 0.031-0.031h0.316c0.017 0 0.031 0.014 0.031 0.031v0.181c0 0.017-0.014 0.031-0.031 0.031z"/><path fill="#f5f5f5" d="M8.018 18.127h-0.265c-0.017 0-0.031-0.014-0.031-0.031v-0.181c0-0.017 0.014-0.031 0.031-0.031h0.265c0.017 0 0.031 0.014 0.031 0.031v0.181c0 0.017-0.014 0.031-0.031 0.031z"/><path fill="#f5f5f5" d="M8.018 17.829h-0.265c-0.017 0-0.031-0.014-0.031-0.031v-0.143c0-0.017 0.014-0.031 0.031-0.031h0.265c0.017 0 0.031 0.014 0.031 0.031v0.143c0 0.017-0.014 0.031-0.031 0.031z"/><path fill="#f5f5f5" d="M8.018 17.535h-0.265c-0.017 0-0.031-0.014-0.031-0.031v-0.11c0-0.017 0.014-0.031 0.031-0.031h0.265c0.017 0 0.031 0.014 0.031 0.031v0.11c0 0.017-0.014 0.031-0.031 0.031z"/><path fill="#f5f5f5" d="M7.188 18.127h-0.265c-0.017 0-0.031-0.014-0.031-0.031v-0.181c0-0.017 0.014-0.031 0.031-0.031h0.265c0.017 0 0.031 0.014 0.031 0.031v0.181c0 0.017-0.014 0.031-0.031 0.031z"/><path fill="#f5f5f5" d="M7.188 17.829h-0.265c-0.017 0-0.031-0.014-0.031-0.031v-0.143c0-0.017 0.014-0.031 0.031-0.031h0.265c0.017 0 0.031 0.014 0.031 0.031v0.143c0 0.017-0.014 0.031-0.031 0.031z"/><path fill="#f5f5f5" d="M7.188 17.535h-0.265c-0.017 0-0.031-0.014-0.031-0.031v-0.11c0-0.017 0.014-0.031 0.031-0.031h0.265c0.017 0 0.031 0.014 0.031 0.031v0.11c0 0.017-0.014 0.031-0.031 0.031z"/><path fill="#f5f5f5" d="M7.077 17.186v0.136l0.2-0.069z"/><path fill="#f5f5f5" d="M7.907 17.186v0.136l0.2-0.069z"/><path fill="#f5f5f5" d="M7.491 17.088v0.136l0.2-0.069z"/><path fill="#8c5a28" d="M6.961 16.172l0.24 0.161h0.29l0.134-0.115-0.103 0.041h-0.342z"/><path fill="#f5f5f5" d="M7.125 15.964l-0.023 0.234-0.106-0.040c0 0 0.049-0.113 0.129-0.194z"/><path fill="#8c5a28" d="M7.333 15.872h0.016v0.398h-0.016v-0.398z"/><path fill="#8c5a28" d="M7.478 15.906h0.016v0.365h-0.016v-0.365z"/><path fill="#8c5a28" d="M7.189 15.906h0.016v0.365h-0.016v-0.365z"/><path fill="#f5f5f5" d="M7.396 16.232h-0.11c-0.006 0-0.011-0.005-0.011-0.011v-0.063c0-0.006 0.005-0.011 0.011-0.011h0.11c0.006 0 0.011 0.005 0.011 0.011v0.063c0 0.006-0.005 0.011-0.011 0.011z"/><path fill="#f5f5f5" d="M7.396 16.12h-0.11c-0.006 0-0.011-0.005-0.011-0.011v-0.063c0-0.006 0.005-0.011 0.011-0.011h0.11c0.006 0 0.011 0.005 0.011 0.011v0.063c0 0.006-0.005 0.011-0.011 0.011z"/><path fill="#f5f5f5" d="M7.396 16.017h-0.11c-0.006 0-0.011-0.005-0.011-0.011v-0.063c0-0.006 0.005-0.011 0.011-0.011h0.11c0.006 0 0.011 0.005 0.011 0.011v0.063c0 0.006-0.005 0.011-0.011 0.011z"/><path fill="#f5f5f5" d="M7.531 16.232h-0.092c-0.006 0-0.011-0.005-0.011-0.011v-0.063c0-0.006 0.005-0.011 0.011-0.011h0.092c0.006 0 0.011 0.005 0.011 0.011v0.063c0 0.006-0.005 0.011-0.011 0.011z"/><path fill="#f5f5f5" d="M7.531 16.129h-0.092c-0.006 0-0.011-0.005-0.011-0.011v-0.050c0-0.006 0.005-0.011 0.011-0.011h0.092c0.006 0 0.011 0.005 0.011 0.011v0.050c0 0.006-0.005 0.011-0.011 0.011z"/><path fill="#f5f5f5" d="M7.531 16.027h-0.092c-0.006 0-0.011-0.005-0.011-0.011v-0.038c0-0.006 0.005-0.011 0.011-0.011h0.092c0.006 0 0.011 0.005 0.011 0.011v0.038c0 0.006-0.005 0.011-0.011 0.011z"/><path fill="#f5f5f5" d="M7.243 16.232h-0.092c-0.006 0-0.011-0.005-0.011-0.011v-0.063c0-0.006 0.005-0.011 0.011-0.011h0.092c0.006 0 0.011 0.005 0.011 0.011v0.063c0 0.006-0.005 0.011-0.011 0.011z"/><path fill="#f5f5f5" d="M7.243 16.129h-0.092c-0.006 0-0.011-0.005-0.011-0.011v-0.050c0-0.006 0.005-0.011 0.011-0.011h0.092c0.006 0 0.011 0.005 0.011 0.011v0.050c0 0.006-0.005 0.011-0.011 0.011z"/><path fill="#f5f5f5" d="M7.243 16.027h-0.092c-0.006 0-0.011-0.005-0.011-0.011v-0.038c0-0.006 0.005-0.011 0.011-0.011h0.092c0.006 0 0.011 0.005 0.011 0.011v0.038c0 0.006-0.005 0.011-0.011 0.011z"/><path fill="#f5f5f5" d="M7.205 15.905v0.047l0.069-0.024z"/><path fill="#f5f5f5" d="M7.493 15.905v0.047l0.069-0.024z"/><path fill="#f5f5f5" d="M7.348 15.871v0.047l0.069-0.024z"/><path fill="#f5f5f5" d="M6.838 15.457h-0.27c-0.038 0-0.069-0.031-0.069-0.069v-0.094c0-0.038 0.031-0.069 0.069-0.069h0.27c0.038 0 0.069 0.031 0.069 0.069v0.094c0 0.038-0.031 0.069-0.069 0.069z"/><path fill="#f5f5f5" d="M8.178 15.457h-0.21c-0.038 0-0.069-0.031-0.069-0.069v-0.094c0-0.038 0.031-0.069 0.069-0.069h0.21c0.038 0 0.069 0.031 0.069 0.069v0.094c0 0.038-0.031 0.069-0.069 0.069z"/><path fill="#f5f5f5" d="M8.984 15.631h-0.156c-0.022 0-0.039-0.018-0.039-0.039v-0.065c0-0.022 0.018-0.039 0.039-0.039h0.156c0.022 0 0.039 0.018 0.039 0.039v0.065c0 0.022-0.018 0.039-0.039 0.039z"/></svg>