<!-- Generated by IcoMoon.io -->
<svg version="1.1" xmlns="http://www.w3.org/2000/svg" width="32" height="32" viewBox="0 0 32 32">
<title>cuba</title>
<path fill="#41479b" d="M25 0h-18c-3.664 0-6.67 2.815-6.974 6.4h31.948c-0.304-3.585-3.31-6.4-6.974-6.4z"></path>
<path fill="#41479b" d="M7 32h18c3.664 0 6.67-2.815 6.974-6.4h-31.948c0.304 3.585 3.31 6.4 6.974 6.4z"></path>
<path fill="#f5f5f5" d="M0.026 6.4c-0.017 0.198-0.026 0.398-0.026 0.6v5.8h32v-5.8c0-0.202-0.009-0.402-0.026-0.6h-31.948z"></path>
<path fill="#41479b" d="M0 12.8h32v6.4h-32v-6.4z"></path>
<path fill="#f5f5f5" d="M0 25c0 0.202 0.009 0.402 0.026 0.6h31.948c0.017-0.198 0.026-0.398 0.026-0.6v-5.8h-32v5.8z"></path>
<path fill="#ff4b55" d="M15.869 15.631l-13.803-13.596c-1.276 1.268-2.066 3.024-2.066 4.965v18c0 1.941 0.79 3.697 2.066 4.965l13.803-13.596c0.174-0.172 0.174-0.567 0-0.739z"></path>
<path fill="#f5f5f5" d="M6.422 11.94l0.865 2.592 2.733 0.021c0.212 0.002 0.3 0.272 0.129 0.398l-2.198 1.623 0.824 2.605c0.064 0.202-0.166 0.369-0.338 0.246l-2.223-1.589-2.223 1.589c-0.172 0.123-0.402-0.044-0.338-0.246l0.824-2.605-2.198-1.623c-0.17-0.126-0.083-0.396 0.129-0.398l2.733-0.021 0.865-2.592c0.067-0.201 0.351-0.201 0.418 0z"></path>
</svg>
