<!-- Generated by IcoMoon.io -->
<svg version="1.1" xmlns="http://www.w3.org/2000/svg" width="32" height="32" viewBox="0 0 32 32">
<title>democratic-republic-of-congo</title>
<path fill="#82afff" d="M25 0h-18c-3.866 0-7 3.134-7 7v18c0 3.866 3.134 7 7 7h18c3.866 0 7-3.134 7-7v-18c0-3.866-3.134-7-7-7z"></path>
<path fill="#ffe15a" d="M28.603 0.998l-28.603 22.581v1.421c0 0.087 0.002 0.173 0.005 0.259l29.697-23.445c-0.338-0.306-0.706-0.58-1.099-0.817z"></path>
<path fill="#ffe15a" d="M2.298 30.186c0.338 0.306 0.706 0.58 1.099 0.817l28.603-22.581v-1.421c0-0.087-0.002-0.173-0.005-0.259l-29.697 23.445z"></path>
<path fill="#ff4b55" d="M29.702 1.814l-29.697 23.445c0.071 1.952 0.941 3.7 2.293 4.927l29.697-23.445c-0.071-1.952-0.941-3.7-2.293-4.927z"></path>
<path fill="#ffe15a" d="M7.668 3.817l0.795 2.383 2.512 0.019c0.14 0.001 0.199 0.18 0.086 0.264l-2.021 1.493 0.758 2.395c0.042 0.134-0.11 0.245-0.224 0.163l-2.044-1.461-2.044 1.461c-0.114 0.082-0.267-0.029-0.224-0.163l0.758-2.396-2.021-1.493c-0.113-0.083-0.055-0.263 0.086-0.264l2.512-0.019 0.795-2.383c0.044-0.133 0.233-0.133 0.277 0z"></path>
</svg>
