<!-- Generated by IcoMoon.io -->
<svg version="1.1" xmlns="http://www.w3.org/2000/svg" width="32" height="32" viewBox="0 0 32 32">
<title>egypt</title>
<path fill="#ff4b55" d="M25.338 0.004h-18.676c-3.709 0.176-6.662 3.239-6.662 6.992v3.669h32v-3.669c0-3.753-2.953-6.815-6.662-6.992z"></path>
<path fill="#464655" d="M0 24.996c0 3.866 3.134 7 7 7h18c3.866 0 7-3.134 7-7v-3.669h-32v3.669z"></path>
<path fill="#f5f5f5" d="M0 10.666h32v10.661h-32v-10.661z"></path>
<path fill="#f0c727" d="M18.362 14.535c0-0.367-0.359-0.626-0.707-0.51l-0.654 0.218-0.159-0.959c-0.095-0.572-0.585-0.987-1.165-0.987h-0.612l-0.64 0.787h0.847l-0.237 1.171-0.69-0.23c-0.348-0.116-0.707 0.143-0.707 0.51v3.978l0.952-0.952-0.449 1.346h-0.504v0.787h4.724v-0.787h-0.503l-0.449-1.346 0.952 0.952v-3.978h0zM15.606 18.907h-0.635l0.436-1.166 0.198 0.253v0.912zM16.394 18.907v-0.912l0.198-0.253 0.436 1.166h-0.635zM16 17.48c0 0-1.218-0.824-1.169-2.362 0 0 0.75-0.123 1.169-0.787 0.418 0.664 1.169 0.787 1.169 0.787 0.049 1.538-1.169 2.362-1.169 2.362z"></path>
</svg>
