<!-- Generated by IcoMoon.io -->
<svg version="1.1" xmlns="http://www.w3.org/2000/svg" width="32" height="32" viewBox="0 0 32 32">
<title>georgia</title>
<path fill="#f5f5f5" d="M25 0h-18c-3.866 0-7 3.134-7 7v18c0 3.866 3.134 7 7 7h18c3.866 0 7-3.134 7-7v-18c0-3.866-3.134-7-7-7z"></path>
<path fill="#ff4b55" d="M32 13.474h-13.474v-13.474h-5.053v13.474h-13.474v5.053h13.474v13.474h5.053v-13.474h13.474z"></path>
<path fill="#ff4b55" d="M10 5.586c-0.834 0.084-1.651 0.168-2.47 0.252 0.084-0.818 0.168-1.636 0.252-2.47-0.765 0.099-1.537 0.099-2.302 0 0.084 0.834 0.168 1.651 0.252 2.47-0.818-0.084-1.636-0.168-2.47-0.252 0.099 0.765 0.099 1.537 0 2.302 0.834-0.084 1.651-0.168 2.47-0.252-0.084 0.818-0.168 1.636-0.252 2.47 0.765-0.099 1.537-0.099 2.302 0-0.084-0.834-0.168-1.651-0.252-2.47 0.818 0.084 1.636 0.168 2.47 0.252-0.099-0.765-0.099-1.537 0-2.302z"></path>
<path fill="#ff4b55" d="M28.813 5.586c-0.834 0.084-1.651 0.168-2.47 0.252 0.084-0.818 0.168-1.636 0.252-2.47-0.765 0.099-1.537 0.099-2.302 0 0.084 0.834 0.168 1.651 0.252 2.47-0.818-0.084-1.636-0.168-2.47-0.252 0.099 0.765 0.099 1.537 0 2.302 0.834-0.084 1.651-0.168 2.47-0.252-0.084 0.818-0.168 1.636-0.252 2.47 0.765-0.099 1.537-0.099 2.302 0-0.084-0.834-0.168-1.651-0.252-2.47 0.818 0.084 1.636 0.168 2.47 0.252-0.099-0.765-0.099-1.537 0-2.302z"></path>
<path fill="#ff4b55" d="M10 24.112c-0.834 0.084-1.651 0.168-2.47 0.252 0.084-0.818 0.168-1.636 0.252-2.47-0.765 0.099-1.537 0.099-2.302 0 0.084 0.834 0.168 1.651 0.252 2.47-0.818-0.084-1.636-0.168-2.47-0.252 0.099 0.765 0.099 1.537 0 2.302 0.834-0.084 1.651-0.168 2.47-0.252-0.084 0.818-0.168 1.636-0.252 2.47 0.765-0.099 1.537-0.099 2.302 0-0.084-0.834-0.168-1.651-0.252-2.47 0.818 0.084 1.636 0.168 2.47 0.252-0.099-0.765-0.099-1.537 0-2.302z"></path>
<path fill="#ff4b55" d="M28.813 24.112c-0.834 0.084-1.651 0.168-2.47 0.252 0.084-0.818 0.168-1.636 0.252-2.47-0.765 0.099-1.537 0.099-2.302 0 0.084 0.834 0.168 1.651 0.252 2.47-0.818-0.084-1.636-0.168-2.47-0.252 0.099 0.765 0.099 1.537 0 2.302 0.834-0.084 1.651-0.168 2.47-0.252-0.084 0.818-0.168 1.636-0.252 2.47 0.765-0.099 1.537-0.099 2.302 0-0.084-0.834-0.168-1.651-0.252-2.47 0.818 0.084 1.636 0.168 2.47 0.252-0.099-0.765-0.099-1.537 0-2.302z"></path>
</svg>
