<!-- Generated by IcoMoon.io -->
<svg version="1.1" xmlns="http://www.w3.org/2000/svg" width="32" height="32" viewBox="0 0 32 32">
<title>greenland</title>
<path fill="#f5f5f5" d="M25 0h-18c-3.866 0-7 3.134-7 7v9h32v-9c0-3.866-3.134-7-7-7z"></path>
<path fill="#ff4b55" d="M0 25c0 3.866 3.134 7 7 7h18c3.866 0 7-3.134 7-7v-9h-32v9z"></path>
<path fill="#ff4b55" d="M11.034 8.828c-3.961 0-7.172 3.211-7.172 7.172h14.345c0-3.961-3.211-7.172-7.172-7.172z"></path>
<path fill="#f5f5f5" d="M11.034 23.172c3.961 0 7.172-3.211 7.172-7.172h-14.345c0 3.961 3.211 7.172 7.172 7.172z"></path>
</svg>
