<svg xmlns="http://www.w3.org/2000/svg" width="32" height="32" version="1.1" viewBox="0 0 32 32"><title>greece</title><path fill="#f5f5f5" d="M16.796 3.541v3.556h15.204v-0.081c0-1.265-0.335-2.451-0.922-3.475 0 0-14.282 0-14.282 0z"/><path fill="#f5f5f5" d="M16.796 10.652h15.204v3.556h-15.204v-3.556z"/><path fill="#f5f5f5" d="M0 17.762h32v3.556h-32v-3.556z"/><path fill="#41479b" d="M0 21.318h32v3.556h-32v-3.556z"/><path fill="#f5f5f5" d="M0 25.015c0 1.24 0.323 2.404 0.888 3.414h30.223c0.566-1.010 0.888-2.174 0.888-3.414v-0.141h-32v0.141z"/><path fill="#41479b" d="M6.351 31.985h19.297c2.351-0.216 4.365-1.594 5.463-3.556h-30.223c1.098 1.961 3.112 3.34 5.463 3.556z"/><path fill="#41479b" d="M16.796 7.096v-3.555h14.282c-1.207-2.106-3.477-3.525-6.078-3.525h-18c-3.866 0-7 3.134-7 7v10.748h32v-3.556h-15.204v-3.556h15.204v-3.556h-15.204z"/><path fill="#f5f5f5" d="M16.842 7.126h-6.643v-7.111h-3.556v7.111h-6.643v3.556h6.643v7.111h3.556v-7.111h6.643z"/></svg>