<!-- Generated by IcoMoon.io -->
<svg version="1.1" xmlns="http://www.w3.org/2000/svg" width="32" height="32" viewBox="0 0 32 32">
<title>grenada</title>
<path fill="#ff4b55" d="M32 25v-18c0-3.866-3.134-7-7-7h-18c-3.866 0-6.999 3.133-7 6.999v18.002c0.001 3.865 3.134 6.999 7 6.999h18c3.866 0 7-3.134 7-7z"></path>
<path fill="#ffe15a" d="M27.875 4.125v23.75h-23.75v-23.75h23.75z"></path>
<path fill="#73af00" d="M4.125 4.125l11.875 11.875-11.875 11.875z"></path>
<path fill="#73af00" d="M27.875 4.125l-11.875 11.875 11.875 11.875z"></path>
<path fill="#ff4b55" d="M18.276 14.458c1.5 2.626-1.192 5.317-3.818 3.818-0.306-0.174-0.56-0.429-0.734-0.734-1.5-2.626 1.192-5.317 3.818-3.818 0.306 0.175 0.56 0.429 0.734 0.734z"></path>
<path fill="#ffe15a" d="M16.171 14.017l0.423 1.269 1.338 0.010c0.173 0.001 0.245 0.222 0.106 0.325l-1.076 0.795 0.404 1.276c0.052 0.165-0.136 0.302-0.277 0.201l-1.089-0.778-1.089 0.778c-0.141 0.101-0.329-0.036-0.277-0.201l0.404-1.276-1.076-0.795c-0.139-0.103-0.068-0.324 0.106-0.325l1.338-0.010 0.423-1.269c0.055-0.164 0.287-0.164 0.342-0z"></path>
<path fill="#ffe15a" d="M16.082 1.053l0.204 0.611 0.645 0.005c0.083 0.001 0.118 0.107 0.051 0.157l-0.519 0.383 0.194 0.615c0.025 0.080-0.065 0.145-0.133 0.097l-0.524-0.375-0.524 0.375c-0.068 0.049-0.159-0.017-0.133-0.097l0.194-0.615-0.518-0.383c-0.067-0.050-0.033-0.156 0.051-0.157l0.645-0.005 0.204-0.611c0.026-0.079 0.138-0.079 0.165 0z"></path>
<path fill="#ffe15a" d="M23.341 1.053l0.204 0.611 0.645 0.005c0.083 0.001 0.118 0.107 0.051 0.157l-0.518 0.383 0.194 0.615c0.025 0.080-0.065 0.145-0.133 0.097l-0.524-0.375-0.524 0.375c-0.068 0.049-0.159-0.017-0.133-0.097l0.194-0.615-0.518-0.383c-0.067-0.050-0.033-0.156 0.051-0.157l0.645-0.005 0.204-0.611c0.026-0.079 0.138-0.079 0.165 0z"></path>
<path fill="#ffe15a" d="M8.824 1.053l0.204 0.611 0.645 0.005c0.083 0.001 0.118 0.107 0.051 0.157l-0.519 0.383 0.194 0.615c0.025 0.080-0.065 0.145-0.133 0.097l-0.524-0.375-0.524 0.375c-0.068 0.049-0.159-0.017-0.133-0.097l0.194-0.615-0.519-0.383c-0.067-0.050-0.033-0.156 0.051-0.157l0.645-0.005 0.204-0.611c0.027-0.079 0.138-0.079 0.165 0z"></path>
<path fill="#ffe15a" d="M16.082 28.866l0.204 0.611 0.645 0.005c0.083 0.001 0.118 0.107 0.051 0.157l-0.519 0.383 0.194 0.615c0.025 0.080-0.065 0.145-0.133 0.097l-0.524-0.375-0.524 0.375c-0.068 0.049-0.159-0.017-0.133-0.097l0.194-0.615-0.518-0.383c-0.067-0.050-0.033-0.156 0.051-0.157l0.645-0.005 0.204-0.611c0.026-0.079 0.138-0.079 0.165 0z"></path>
<path fill="#ffe15a" d="M23.341 28.866l0.204 0.611 0.645 0.005c0.083 0.001 0.118 0.107 0.051 0.157l-0.518 0.383 0.194 0.615c0.025 0.080-0.065 0.145-0.133 0.097l-0.524-0.375-0.524 0.375c-0.068 0.049-0.159-0.017-0.133-0.097l0.194-0.615-0.518-0.383c-0.067-0.050-0.033-0.156 0.051-0.157l0.645-0.005 0.204-0.611c0.026-0.079 0.138-0.079 0.165 0z"></path>
<path fill="#ffe15a" d="M8.824 28.866l0.204 0.611 0.645 0.005c0.083 0.001 0.118 0.107 0.051 0.157l-0.519 0.383 0.194 0.615c0.025 0.080-0.065 0.145-0.133 0.097l-0.524-0.375-0.524 0.375c-0.068 0.049-0.159-0.017-0.133-0.097l0.194-0.615-0.519-0.383c-0.067-0.050-0.033-0.156 0.051-0.157l0.645-0.005 0.204-0.611c0.027-0.079 0.138-0.079 0.165 0z"></path>
<path fill="#ffe15a" d="M8.248 14.621h-1.752v1.752c0 0.968 0.784 1.752 1.752 1.752s1.752-0.784 1.752-1.752c0-0.968-0.784-1.752-1.752-1.752z"></path>
<path fill="#ff4b55" d="M10 18.125l-0.963-0.187-0.789-1.565 1.565 0.789z"></path>
</svg>
