<!-- Generated by IcoMoon.io -->
<svg version="1.1" xmlns="http://www.w3.org/2000/svg" width="32" height="32" viewBox="0 0 32 32">
<title>guam</title>
<path fill="#41479b" d="M31.998 25.219v-18.438c0-3.745-3.036-6.781-6.781-6.781h-18.219c-3.797 0-6.887 3.023-6.997 6.793v18.413c0.109 3.77 3.2 6.793 6.997 6.793h18.219c3.745 0 6.781-3.036 6.781-6.781z"></path>
<path fill="#3cc8ff" d="M16.002 7.579c-3.2 1.684-5.359 5.694-5.359 8.421s2.158 6.737 5.359 8.421c3.2-1.684 5.359-5.694 5.359-8.421s-2.158-6.737-5.359-8.421z"></path>
<path fill="#73af00" d="M16.693 13.117c0.517-0.273 1.4-0.572 2.403-0.204 0 0-0.966-1.076-2.307-0.199 0.361-0.437 0.902-0.979 1.489-1.13 0 0-1.167-0.436-1.874 1.121 0.137-0.785 0.112-2.021-1.154-2.739 0 0 0.708 1.519 0.777 2.779-0.041-0.224-0.123-0.457-0.341-0.684-0.669-0.698-1.251-0.756-1.251-0.756s0.928 1.028 1.384 2.001c-0.263-0.314-0.725-0.717-1.471-0.692-1.746 0.058-2.124 1.106-2.124 1.106 0.724-0.305 1.872-0.456 2.762-0.381-1.149 0.203-1.558 1.634-1.558 1.634 0.923-1.151 1.93-1.338 2.333-1.365-0.735 0.608-0.69 1.727-0.69 1.727 0.171-0.63 0.832-1.348 1.155-1.67 0.868 0.939 0.971 1.994 0.971 1.994s0.19-0.318 0.102-0.964c-0.083-0.61-0.466-1.011-0.758-1.246 1.532 0.211 2.532 1.323 2.532 1.323-0.501-1.463-1.756-1.654-2.381-1.654z"></path>
<path fill="#ff4b55" d="M25.217 0h-18.219c-3.797 0-6.887 3.023-6.997 6.793v18.413c0.109 3.77 3.2 6.793 6.997 6.793h18.219c3.745 0 6.781-3.036 6.781-6.781v-18.438c0-3.745-3.036-6.781-6.781-6.781zM30.317 24.543c0 3.188-2.584 5.773-5.773 5.773h-17.087c-3.188 0-5.772-2.584-5.772-5.773v-17.087c0-3.188 2.584-5.772 5.772-5.772h17.087c3.188 0 5.773 2.584 5.773 5.772v17.087z"></path>
<path fill="#ff965a" d="M14.291 18.035l0.772-1.333 6.342-0.14-0.421 1.754z"></path>
<path fill="#4173cd" d="M10.874 17.684c0.636 2.495 2.54 5.376 5.127 6.737 2.587-1.361 4.492-4.242 5.127-6.737h-10.255z"></path>
<path fill="#ffe15a" d="M11.791 20.21c0 0 1.837-0.091 2.94 0.362 0.276 0.113 0.311 0.486 0.062 0.649-0.538 0.354-1.319 0.963-1.319 1.515l-1.684-2.526z"></path>
<path fill="#ffe15a" d="M15.019 23.579c-0.070-0.702 0.551-1.212 1.403-1.544 1.105-0.43 0.5-1.114-0.053-1.561-0.659-0.534 0.193-0.684 3.772-0.754l-1.754 2.737-2.386 1.965-0.982-0.842z"></path>
<path fill="#ff4b55" d="M16.002 24.897l-0.196-0.104c-3.34-1.757-5.584-5.965-5.584-8.794s2.244-7.037 5.584-8.794l0.196-0.104 0.196 0.104c3.34 1.757 5.584 5.965 5.584 8.794s-2.244 7.037-5.584 8.794l-0.196 0.104zM16.002 8.058c-2.963 1.673-4.938 5.415-4.938 7.942s1.975 6.269 4.938 7.942c2.963-1.673 4.938-5.415 4.938-7.942s-1.975-6.269-4.938-7.942z"></path>
<path fill="#a54b37" d="M17.791 20.807c-0.039 0-0.077-0.010-0.112-0.032-1.144-0.719-1.801-1.91-1.801-3.266v-3.877c0-0.116 0.094-0.21 0.211-0.21s0.21 0.094 0.21 0.21v3.877c0 1.209 0.584 2.269 1.603 2.909 0.099 0.062 0.128 0.192 0.067 0.29-0.040 0.064-0.109 0.099-0.178 0.099z"></path>
<path fill="#a54b37" d="M16.456 13.348c0.307 0.468-0.194 0.97-0.663 0.663-0.028-0.018-0.052-0.042-0.070-0.070-0.307-0.468 0.194-0.97 0.663-0.663 0.028 0.018 0.052 0.042 0.070 0.070z"></path>
</svg>
