<svg xmlns="http://www.w3.org/2000/svg" width="32" height="32" version="1.1" viewBox="0 0 32 32"><title>guernsey</title><path fill="#f5f5f5" d="M25 0h-18c-3.866 0-7 3.134-7 7v18c0 3.866 3.134 7 7 7h18c3.866 0 7-3.134 7-7v-18c0-3.866-3.134-7-7-7z"/><path fill="#ff4b55" d="M32 12.632h-12.632v-12.632h-6.737v12.632h-12.632v6.737h12.632v12.632h6.737v-12.632h12.632z"/><path fill="#ffe15a" d="M26.105 18.526v-5.053l-1.263 1.263h-17.684l-1.263-1.263v5.053l1.263-1.263h17.684z"/><path fill="#ffe15a" d="M13.474 26.105h5.053l-1.263-1.263v-17.684l1.263-1.263h-5.053l1.263 1.263v17.684z"/></svg>