<svg xmlns="http://www.w3.org/2000/svg" width="32" height="32" version="1.1" viewBox="0 0 32 32"><title>guinea-bissau</title><path fill="#ffe15a" d="M25 0h-18c-3.866 0-7 3.134-7 7v9h32v-9c0-3.866-3.134-7-7-7z"/><path fill="#73af00" d="M0 25c0 3.866 3.134 7 7 7h18c3.866 0 7-3.134 7-7v-9h-32v9z"/><path fill="#ff4b55" d="M7 0c-3.866 0-7 3.134-7 7v18c0 3.866 3.134 7 7 7h3.483v-32h-3.483z"/><path fill="#464655" d="M5.137 13.248l-0.608 1.824-1.922 0.015c-0.105 0.001-0.149 0.135-0.064 0.198l1.546 1.142-0.58 1.833c-0.032 0.101 0.083 0.184 0.168 0.122l1.564-1.118 1.564 1.118c0.086 0.061 0.2-0.022 0.168-0.122l-0.58-1.833 1.546-1.142c0.085-0.063 0.041-0.197-0.064-0.198l-1.922-0.015-0.608-1.824c-0.033-0.1-0.175-0.1-0.208-0z"/></svg>