<!-- Generated by IcoMoon.io -->
<svg version="1.1" xmlns="http://www.w3.org/2000/svg" width="32" height="32" viewBox="0 0 32 32">
<title>hawaii</title>
<path fill="#f5f5f5" d="M0 12h32v4h-32v-4z"></path>
<path fill="#ff4b55" d="M32 20h-32v-4.842h0.69v0.842h31.31z"></path>
<path fill="#f5f5f5" d="M0 25c0 1.074 0.242 2.091 0.674 3h30.652c0.432-0.909 0.674-1.926 0.674-3v-1h-32v1z"></path>
<path fill="#ff4b55" d="M7 32h18c2.792 0 5.202-1.635 6.326-4h-30.652c1.123 2.365 3.534 4 6.326 4z"></path>
<path fill="#41479b" d="M0 20h32v4h-32v-4z"></path>
<path fill="#f5f5f5" d="M25 0h-18c-2.792 0-5.202 1.635-6.326 4h30.652c-1.124-2.365-3.534-4-6.326-4z"></path>
<path fill="#ff4b55" d="M0.674 4c-0.432 0.909-0.674 1.926-0.674 3v1h32v-1c0-1.074-0.242-2.091-0.674-3h-30.652z"></path>
<path fill="#41479b" d="M0 8h32v4h-32v-4z"></path>
<path fill="#41479b" d="M5.895 0.087c-1.649 0.262-3.106 1.099-4.159 2.299l4.159 2.725v-5.023z"></path>
<path fill="#41479b" d="M0.439 4.556c-0.159 0.428-0.278 0.876-0.352 1.339h2.395l-2.043-1.339z"></path>
<path fill="#41479b" d="M0 10.105v1.626l2.482-1.626z"></path>
<path fill="#41479b" d="M16 1.249v-1.249h-5.895v5.111z"></path>
<path fill="#41479b" d="M16 11.731v-1.626h-2.482z"></path>
<path fill="#41479b" d="M10.105 16h5.895v-1.249l-5.895-3.862z"></path>
<path fill="#41479b" d="M16 5.895v-1.626l-2.482 1.626z"></path>
<path fill="#41479b" d="M5.895 10.889l-5.895 3.862v1.249h5.895z"></path>
<path fill="#f5f5f5" d="M9.263 16h0.842v-5.111l5.895 3.862v-1.248l-5.236-3.398h1.547l3.689 2.394v-0.768l-2.482-1.626h2.482v-0.842h-6.737z"></path>
<path fill="#f5f5f5" d="M5.895 16h0.842v-6.737h-6.737v0.842h2.482l-2.482 1.626v1.181l4.325-2.807h1.547l-5.872 3.811v0.835l5.895-3.862z"></path>
<path fill="#f5f5f5" d="M6.737 0.005c-0.285 0.011-0.566 0.038-0.842 0.082v5.023l-4.159-2.725c-0.25 0.285-0.478 0.591-0.679 0.915l3.996 2.594h-1.547l-2.852-1.851c-0.078 0.168-0.15 0.338-0.215 0.513l2.043 1.339h-2.395c-0.044 0.276-0.071 0.557-0.082 0.842h6.731l-0-6.731z"></path>
<path fill="#f5f5f5" d="M16 6.737v-0.842h-2.482l2.482-1.626v-1.196l-4.348 2.822h-1.547l5.895-3.826v-0.82l-5.895 3.862v-5.111h-0.842v6.737z"></path>
<path fill="#ff4b55" d="M6.737 16h2.526v-6.737h6.737v-2.526h-6.737v-6.737h-2.263c-0.088 0-0.176 0.002-0.263 0.005v6.731h-6.731c-0.003 0.087-0.005 0.175-0.005 0.263v2.263h6.737v6.737z"></path>
<path fill="#ff4b55" d="M4.325 10.105l-4.325 2.807v1.004l5.872-3.811z"></path>
<path fill="#ff4b55" d="M10.764 10.105l5.236 3.398v-1.004l-3.689-2.394z"></path>
<path fill="#ff4b55" d="M5.053 5.895l-3.996-2.594c-0.149 0.238-0.283 0.486-0.403 0.742l2.852 1.851 1.547 0z"></path>
<path fill="#ff4b55" d="M11.652 5.895l4.348-2.822v-1.004l-5.895 3.826z"></path>
</svg>
