<svg xmlns="http://www.w3.org/2000/svg" width="32" height="32" version="1.1" viewBox="0 0 32 32"><title>hong-kong</title><path fill="#ff4b55" d="M25 0h-18c-3.866 0-7 3.134-7 7v18c0 3.866 3.134 7 7 7h18c3.866 0 7-3.134 7-7v-18c0-3.866-3.134-7-7-7z"/><path fill="#f5f5f5" d="M13.793 16.905c-0.779 0.008-1.654-0.241-2.42-1.086-0.053-0.058-0.045-0.15 0.015-0.201l0-0c0.058-0.049 0.144-0.042 0.196 0.015 1.168 1.283 2.616 1.058 3.481 0.748-0.32 0.014-0.721-0.010-0.979-0.18-1.079-0.709-0.59-1.464-1.307-2.376-0.712-0.906-1.353-0.884-2.362-0.731-0.999 0.151-1.317-0.581-1.416-0.988-0.018-0.073-0.119-0.077-0.145-0.007-1.245 3.364 2.499 7.526 6.342 4.533-0.379 0.14-0.868 0.268-1.404 0.273zM10.989 15.763c-0.022 0.060-0.108 0.058-0.126-0.003l-0.143-0.472-0.493-0.017c-0.064-0.002-0.088-0.085-0.036-0.121l0.405-0.282-0.136-0.475c-0.018-0.061 0.053-0.11 0.104-0.071l0.394 0.298 0.409-0.276c0.053-0.036 0.121 0.017 0.1 0.077l-0.162 0.466 0.389 0.304c0.050 0.039 0.022 0.12-0.042 0.119l-0.494-0.010-0.169 0.464z"/><path fill="#f5f5f5" d="M16.551 14.67c0.619-0.474 1.468-0.799 2.588-0.582 0.077 0.015 0.126 0.093 0.109 0.169l-0 0c-0.017 0.074-0.090 0.12-0.166 0.106-1.704-0.326-2.728 0.722-3.235 1.489 0.247-0.203 0.583-0.425 0.891-0.444 1.289-0.080 1.35 0.817 2.471 1.118 1.113 0.298 1.613-0.104 2.329-0.831 0.709-0.72 1.403-0.325 1.726-0.059 0.058 0.048 0.142-0.010 0.121-0.081-1.021-3.438-6.513-4.524-7.794 0.176 0.22-0.339 0.534-0.734 0.96-1.060zM19.48 13.901c-0.019-0.061 0.052-0.111 0.103-0.073l0.398 0.292 0.405-0.282c0.052-0.037 0.121 0.015 0.101 0.075l-0.155 0.469 0.393 0.298c0.051 0.039 0.023 0.12-0.041 0.12l-0.494-0.002-0.162 0.466c-0.021 0.060-0.107 0.059-0.126-0.002l-0.15-0.47-0.494-0.010c-0.064-0.001-0.089-0.083-0.038-0.12l0.401-0.288-0.143-0.473z"/><path fill="#f5f5f5" d="M14.488 14.994c-0.304-0.717-0.406-1.621 0.084-2.651 0.034-0.071 0.121-0.099 0.191-0.063l0 0c0.068 0.035 0.094 0.118 0.061 0.187-0.742 1.569 0.017 2.822 0.633 3.504-0.135-0.29-0.265-0.671-0.207-0.974 0.245-1.268 1.129-1.103 1.7-2.113 0.567-1.003 0.303-1.588-0.223-2.462-0.52-0.866 0.036-1.439 0.375-1.685 0.061-0.044 0.026-0.14-0.049-0.137-3.584 0.129-6.009 5.174-1.779 7.59-0.273-0.298-0.578-0.701-0.787-1.195zM14.476 11.966c-0.064 0.003-0.094-0.078-0.045-0.118l0.382-0.312-0.172-0.463c-0.022-0.060 0.045-0.114 0.098-0.079l0.415 0.267 0.387-0.306c0.050-0.040 0.122 0.007 0.106 0.069l-0.126 0.477 0.411 0.274c0.053 0.035 0.031 0.118-0.033 0.122l-0.493 0.028-0.133 0.475c-0.017 0.062-0.103 0.066-0.126 0.006l-0.179-0.46-0.493 0.020z"/><path fill="#f5f5f5" d="M17.281 16.622c0.644 0.439 1.219 1.143 1.366 2.274 0.010 0.078-0.048 0.149-0.127 0.157l-0 0c-0.076 0.007-0.142-0.048-0.152-0.124-0.226-1.72-1.543-2.363-2.43-2.603 0.27 0.171 0.586 0.42 0.701 0.707 0.48 1.199-0.352 1.539-0.285 2.697 0.067 1.151 0.605 1.499 1.521 1.95 0.906 0.447 0.749 1.23 0.598 1.62-0.027 0.070 0.054 0.132 0.115 0.089 2.944-2.049 2.249-7.604-2.615-7.344 0.391 0.102 0.865 0.276 1.308 0.578zM18.93 19.161c0.052-0.037 0.121 0.014 0.102 0.075l-0.152 0.47 0.395 0.296c0.051 0.038 0.024 0.12-0.040 0.12l-0.494 0-0.16 0.467c-0.021 0.061-0.106 0.060-0.126-0.001l-0.153-0.469-0.494-0.007c-0.064-0.001-0.090-0.083-0.038-0.12l0.399-0.291-0.146-0.472c-0.019-0.061 0.051-0.111 0.103-0.073l0.4 0.29 0.404-0.284z"/><path fill="#f5f5f5" d="M15.67 18.017c-0.222 0.747-0.718 1.509-1.751 1.993-0.071 0.033-0.157-0.001-0.188-0.073l-0-0c-0.030-0.070 0.003-0.15 0.072-0.183 1.57-0.739 1.782-2.189 1.74-3.107-0.081 0.31-0.222 0.686-0.46 0.883-0.996 0.822-1.573 0.133-2.656 0.549-1.076 0.414-1.243 1.032-1.394 2.042-0.15 0.999-0.943 1.087-1.361 1.062-0.075-0.005-0.109 0.091-0.050 0.137 2.848 2.18 7.928-0.171 6.2-4.725 0.022 0.404 0 0.908-0.153 1.422zM13.754 20.361c0.051 0.039 0.024 0.12-0.040 0.12l-0.494-0.002-0.162 0.466c-0.021 0.060-0.107 0.059-0.126-0.002l-0.15-0.47-0.494-0.010c-0.064-0.001-0.089-0.083-0.038-0.12l0.401-0.288-0.143-0.473c-0.019-0.061 0.051-0.111 0.103-0.073l0.398 0.292 0.405-0.282c0.052-0.037 0.121 0.015 0.101 0.075l-0.155 0.469 0.393 0.298z"/></svg>