<!-- Generated by IcoMoon.io -->
<svg version="1.1" xmlns="http://www.w3.org/2000/svg" width="32" height="32" viewBox="0 0 32 32">
<title>india</title>
<path fill="#fab446" d="M25.489 0.017h-18.977c-3.638 0.251-6.511 3.281-6.511 6.983v3.672h32v-3.672c0-3.702-2.873-6.732-6.511-6.983z"></path>
<path fill="#73af00" d="M0 25c0 3.702 2.873 6.732 6.511 6.983h18.977c3.638-0.251 6.511-3.281 6.511-6.983v-3.672h-32v3.672z"></path>
<path fill="#f5f5f5" d="M0 10.672h32v10.655h-32v-10.655z"></path>
<path fill="#41479b" d="M16 19.653c-2.014 0-3.653-1.639-3.653-3.653s1.639-3.653 3.653-3.653 3.653 1.639 3.653 3.653-1.639 3.653-3.653 3.653zM16 13.027c-1.64 0-2.973 1.334-2.973 2.973s1.334 2.973 2.973 2.973 2.973-1.334 2.973-2.973-1.334-2.973-2.973-2.973z"></path>
<path fill="#41479b" d="M16.414 16c0 0.229-0.185 0.414-0.414 0.414s-0.414-0.185-0.414-0.414c0-0.229 0.185-0.414 0.414-0.414s0.414 0.185 0.414 0.414z"></path>
<path fill="#41479b" d="M16 16.062l-1.052 0.106-2.261-0.106v-0.124l2.261-0.106 1.052 0.106z"></path>
<path fill="#41479b" d="M16 16.062l1.052 0.106 2.261-0.106v-0.124l-2.261-0.106-1.052 0.106z"></path>
<path fill="#41479b" d="M15.938 16l-0.106-1.052 0.106-2.261h0.124l0.106 2.261-0.106 1.052z"></path>
<path fill="#41479b" d="M15.938 16l-0.106 1.052 0.106 2.261h0.124l0.106-2.261-0.106-1.052z"></path>
<path fill="#41479b" d="M15.956 16.044l-0.819-0.669-1.523-1.674 0.088-0.088 1.674 1.523 0.669 0.819z"></path>
<path fill="#41479b" d="M15.956 16.044l0.669 0.819 1.674 1.523 0.088-0.088-1.523-1.674-0.819-0.669z"></path>
<path fill="#41479b" d="M15.956 15.956l0.669-0.819 1.674-1.523 0.088 0.088-1.523 1.674-0.819 0.669z"></path>
<path fill="#41479b" d="M15.956 15.956l-0.819 0.669-1.523 1.674 0.088 0.088 1.674-1.523 0.669-0.819z"></path>
<path fill="#41479b" d="M16.024 16.057l-0.932 0.501-2.129 0.767-0.047-0.115 2.048-0.963 1.013-0.305z"></path>
<path fill="#41479b" d="M16.024 16.057l1.013-0.305 2.048-0.963-0.047-0.115-2.129 0.767-0.932 0.501z"></path>
<path fill="#41479b" d="M15.943 16.024l-0.501-0.932-0.767-2.129 0.115-0.047 0.963 2.048 0.305 1.013z"></path>
<path fill="#41479b" d="M15.943 16.024l0.305 1.013 0.963 2.048 0.115-0.047-0.767-2.129-0.501-0.932z"></path>
<path fill="#41479b" d="M15.976 16.057l-1.013-0.305-2.048-0.963 0.047-0.115 2.129 0.767 0.932 0.501z"></path>
<path fill="#41479b" d="M15.976 16.057l0.932 0.501 2.129 0.767 0.047-0.115-2.048-0.963-1.013-0.305z"></path>
<path fill="#41479b" d="M15.943 15.976l0.305-1.013 0.963-2.048 0.115 0.047-0.767 2.129-0.501 0.932z"></path>
<path fill="#41479b" d="M15.943 15.976l-0.501 0.932-0.767 2.129 0.115 0.047 0.963-2.048 0.305-1.013z"></path>
<path fill="#f5f5f5" d="M16.454 16c0 0.25-0.203 0.454-0.454 0.454s-0.454-0.203-0.454-0.454c0-0.251 0.203-0.454 0.454-0.454s0.454 0.203 0.454 0.454z"></path>
<path fill="#41479b" d="M16.335 16c0 0.185-0.15 0.335-0.335 0.335s-0.335-0.15-0.335-0.335c0-0.185 0.15-0.335 0.335-0.335s0.335 0.15 0.335 0.335z"></path>
</svg>
