<!-- Generated by IcoMoon.io -->
<svg version="1.1" xmlns="http://www.w3.org/2000/svg" width="32" height="32" viewBox="0 0 32 32">
<title>isle-of-man</title>
<path fill="#ff4b55" d="M25 0h-18c-3.866 0-7 3.134-7 7v18c0 3.866 3.134 7 7 7h18c3.866 0 7-3.134 7-7v-18c0-3.866-3.134-7-7-7z"></path>
<path fill="#ffe15a" d="M16.121 16.036l-0.233 0.135c-0.404-0.582-0.382-2.005-0.382-2.021 0.004-0.042-0.021-0.080-0.059-0.097l-1.748-0.765 0.010-0.179c0.912 0.105 1.966 0.529 1.98 0.537 0.036 0.023 0.081 0.017 0.113-0.009l1.451-1.21 0.312 0.279c-0.452 0.556-1.553 1.323-1.567 1.331-0.039 0.017-0.060 0.057-0.056 0.099l0.18 1.902z"></path>
<path fill="#ffe15a" d="M22.464 7.418c0.036 0.018 0.078 0.015 0.111-0.009l0.379-0.281-0.12 0.35c-0.014 0.040-0.002 0.084 0.029 0.113l0.178 0.16c-0.053 0.090-0.074 0.2-0.076 0.315l-0.265 0.134c-0.022 0.011-0.040 0.030-0.050 0.054l-0.197 0.478-0.108-0.396c-0.014-0.052-0.064-0.084-0.116-0.077l-0.476 0.065 0.386-0.438c0.021-0.024 0.030-0.055 0.025-0.085l-0.086-0.578 0.385 0.196z"></path>
<path fill="#ffe15a" d="M18.152 23.016c-0.033 0.022-0.051 0.061-0.046 0.101l0.061 0.468-0.247-0.275c-0.028-0.031-0.073-0.042-0.113-0.029l-0.226 0.079c-0.053-0.090-0.139-0.162-0.238-0.219l0.011-0.296c0.001-0.025-0.007-0.050-0.023-0.070l-0.322-0.404 0.399 0.098c0.052 0.013 0.104-0.015 0.123-0.064l0.174-0.448 0.195 0.55c0.011 0.029 0.033 0.053 0.062 0.063l0.547 0.205-0.358 0.242z"></path>
<path fill="#ffe15a" d="M6.574 12.050c-0.005-0.040-0.032-0.073-0.070-0.086l-0.446-0.154 0.357-0.098c0.040-0.011 0.071-0.046 0.077-0.088l0.031-0.237c0.104-0.007 0.207-0.052 0.303-0.115l0.26 0.142c0.022 0.012 0.048 0.016 0.073 0.011l0.506-0.107-0.266 0.313c-0.035 0.041-0.033 0.1 0.002 0.139l0.323 0.356-0.579-0.071c-0.031-0.004-0.062 0.006-0.085 0.027l-0.428 0.398-0.056-0.428z"></path>
<path fill="#f5f5f5" d="M15.847 26.364c-0.257 0.519-0.815 0.95-0.954 0.975-0.025 0.004-0.046-0.004-0.068-0.025-0.063-0.072-0.093-0.266-0.008-0.523 0.008-0.025 0.017-0.059 0.030-0.097l1-0.329z"></path>
<path fill="#f5f5f5" d="M16.033 25.828c-0.034 0.101-0.063 0.203-0.084 0.279l-1.030 0.342c0.030-0.093 0.059-0.194 0.089-0.304l1.026-0.317z"></path>
<path fill="#ffe15a" d="M16.261 25.25c-0.051 0.114-0.097 0.224-0.139 0.329l-1.047 0.321c0.030-0.114 0.063-0.232 0.093-0.35l1.093-0.3z"></path>
<path fill="#f5f5f5" d="M16.468 24.832c-0.030 0.055-0.059 0.11-0.089 0.169l-1.152 0.312c0.051-0.198 0.093-0.392 0.127-0.561l1.114 0.080z"></path>
<path fill="#f5f5f5" d="M16.793 24.393c-0.067 0.063-0.131 0.143-0.194 0.236l-1.211-0.089c0.017-0.11 0.030-0.207 0.030-0.279 0-0.055-0.004-0.105-0.008-0.16 0.046 0.004 0.097 0.004 0.139 0.004 0.304 0 0.519-0.055 0.675-0.135 0.173 0.253 0.397 0.367 0.57 0.422z"></path>
<path fill="#f5f5f5" d="M17.037 24.22c-0.076-0.008-0.414-0.042-0.642-0.371 0.114-0.097 0.169-0.203 0.194-0.274 0.127-0.355-0.755-0.907-1.296-1.203-0.253-0.139-0.452-0.414-0.629-0.73 0.021 0.004 0.038 0.004 0.059 0.004 0.27 0 0.485-0.127 0.599-0.224 0.101 0.169 0.194 0.325 0.279 0.46 0.384 0.65 0.561 0.945 0.971 1.232 0.013 0.008 0.029 0.017 0.046 0.017 0.198 0.025 0.772 0.152 0.806 0.405 0.046 0.346-0.080 0.566-0.388 0.684z"></path>
<path fill="#f5f5f5" d="M16.392 23.502c-0.046 0.135-0.241 0.439-1.009 0.388-0.068-0.439-0.262-0.751-0.57-0.895-0.401-0.19-1.899-1.262-2.583-1.899 0.135-0.43 0.49-0.781 0.992-0.966 0.072-0.030 0.135-0.055 0.19-0.084 0.135 0.11 0.258 0.232 0.359 0.371 0.156 0.22 0.291 0.498 0.435 0.793 0.266 0.54 0.54 1.102 0.988 1.346 0.827 0.456 1.237 0.848 1.199 0.945z"></path>
<path fill="#f5f5f5" d="M15.21 21.24c-0.080 0.080-0.346 0.262-0.667 0.169-0.051-0.097-0.097-0.194-0.148-0.291-0.148-0.304-0.287-0.591-0.456-0.823-0.097-0.139-0.219-0.262-0.35-0.371 0.19-0.165 0.219-0.342 0.228-0.494 0.333 0.287 0.646 0.646 0.933 1.089 0.181 0.274 0.329 0.511 0.46 0.722z"></path>
<path fill="#f5f5f5" d="M13.619 19.273c-0.004 0.034-0.008 0.072-0.008 0.11-0.008 0.143-0.021 0.283-0.19 0.409-0.354-0.253-0.764-0.426-1.114-0.54 0.16-0.165 0.266-0.329 0.317-0.49 0 0 0 0 0.004 0 0.346 0.097 0.68 0.27 0.992 0.511z"></path>
<path fill="#f5f5f5" d="M13.214 19.902c-0.021 0.008-0.038 0.021-0.063 0.029-0.528 0.194-0.916 0.553-1.089 0.996-0.207-0.207-0.355-0.392-0.473-0.54-0.131-0.169-0.241-0.3-0.376-0.392 0.38-0.194 0.684-0.388 0.916-0.578 0.004 0 0.004 0 0.008 0 0.329 0.101 0.73 0.253 1.076 0.485z"></path>
<path fill="#f5f5f5" d="M11.931 19.303c-0.22 0.173-0.528 0.367-0.962 0.578-0.101-0.025-0.203-0.046-0.287-0.063-0.207-0.038-0.342-0.068-0.447-0.186-0.063-0.068-0.186-0.257-0.304-0.498 0.017 0.008 0.034 0.017 0.051 0.021 0.122 0.030 0.295-0.025 0.511-0.101 0.266-0.089 0.591-0.198 0.886-0.16 0.266 0.034 0.338 0.139 0.422 0.257 0.038 0.051 0.076 0.105 0.131 0.152z"></path>
<path fill="#ffe15a" d="M12.433 18.67c-0.034 0.131-0.127 0.295-0.338 0.494-0.051-0.034-0.084-0.080-0.122-0.135-0.093-0.131-0.211-0.295-0.566-0.342-0.342-0.046-0.696 0.072-0.983 0.169-0.16 0.055-0.329 0.114-0.397 0.097-0.072-0.017-0.165-0.131-0.169-0.245-0.004-0.131 0.114-0.19 0.211-0.22 0.22-0.067 0.485-0.017 0.747 0.030 0.266 0.051 0.519 0.097 0.722 0.017 0.139-0.055 0.3-0.228 0.494-0.477 0.135 0.029 0.249 0.076 0.317 0.173 0.097 0.139 0.122 0.287 0.084 0.439z"></path>
<path fill="#f5f5f5" d="M11.787 18.028c-0.131 0.16-0.245 0.279-0.329 0.312-0.143 0.059-0.367 0.017-0.604-0.030-0.27-0.051-0.578-0.105-0.844-0.025-0.16 0.046-0.249 0.127-0.3 0.203-0.046-0.232-0.046-0.456 0.059-0.633 0.105-0.186 0.245-0.342 0.388-0.498 0.19 0.025 0.329 0.063 0.81 0.485 0.165 0.143 0.431 0.16 0.688 0.173 0.042 0.004 0.089 0.009 0.131 0.013z"></path>
<path fill="#f5f5f5" d="M15.708 16.285c-0.473 0.312-2.579 1.697-3.018 1.878-0.021 0.008-0.038 0.025-0.051 0.042-0.013 0.021-0.021 0.038-0.034 0.059-0.021-0.055-0.051-0.105-0.084-0.156-0.084-0.122-0.211-0.19-0.35-0.232 0.063-0.080 0.127-0.165 0.194-0.257 0.304-0.418 0.654-0.886 1.055-1.304 0.688-0.717 1.608-1.19 1.916-1.334 0.046 0.447 0.148 0.975 0.371 1.304z"></path>
<path fill="#f5f5f5" d="M15.315 14.758c-0.219 0.097-1.262 0.591-2.047 1.41-0.414 0.43-0.781 0.924-1.072 1.325-0.089 0.118-0.173 0.232-0.253 0.338-0.093-0.008-0.186-0.017-0.274-0.021-0.232-0.017-0.452-0.030-0.561-0.127-0.405-0.355-0.595-0.46-0.777-0.506 0.017-0.017 0.030-0.034 0.046-0.051 0.266-0.27 0.544-0.553 0.764-0.945 0.38-0.68 1.65-2.161 2.477-2.697l1.676 0.734c-0 0.101 0.004 0.3 0.021 0.54z"></path>
<path fill="#f5f5f5" d="M4.609 8.492c-0.349-0.462-0.486-1.153-0.446-1.289 0.008-0.025 0.024-0.040 0.053-0.049 0.093-0.025 0.279 0.036 0.472 0.226 0.019 0.019 0.045 0.042 0.074 0.070l-0.152 1.042z"></path>
<path fill="#f5f5f5" d="M5.005 8.898c-0.075-0.075-0.153-0.147-0.211-0.2l0.154-1.074c0.070 0.068 0.147 0.14 0.232 0.215l-0.175 1.059z"></path>
<path fill="#ffe15a" d="M5.421 9.36c-0.079-0.096-0.157-0.187-0.232-0.272l0.181-1.080c0.089 0.077 0.179 0.16 0.272 0.24l-0.22 1.112z"></path>
<path fill="#f5f5f5" d="M5.702 9.732c-0.036-0.051-0.072-0.102-0.111-0.155l0.236-1.17c0.155 0.134 0.31 0.258 0.446 0.364l-0.57 0.961z"></path>
<path fill="#f5f5f5" d="M5.949 10.219c-0.027-0.089-0.070-0.181-0.125-0.279l0.621-1.044c0.091 0.064 0.172 0.119 0.236 0.151 0.049 0.024 0.096 0.043 0.147 0.064-0.024 0.040-0.047 0.085-0.066 0.123-0.136 0.272-0.183 0.489-0.181 0.665-0.304 0.042-0.506 0.191-0.632 0.321z"></path>
<path fill="#f5f5f5" d="M5.995 10.515c0.042-0.064 0.223-0.351 0.619-0.408 0.036 0.145 0.106 0.242 0.159 0.296 0.261 0.272 1.149-0.27 1.655-0.622 0.238-0.164 0.572-0.219 0.934-0.236-0.013 0.017-0.021 0.032-0.030 0.051-0.121 0.242-0.104 0.491-0.068 0.636-0.196 0.015-0.377 0.028-0.536 0.044-0.753 0.053-1.097 0.080-1.536 0.318-0.013 0.008-0.028 0.019-0.036 0.034-0.111 0.166-0.481 0.623-0.723 0.54-0.33-0.113-0.47-0.325-0.438-0.653z"></path>
<path fill="#f5f5f5" d="M6.925 10.258c-0.1-0.102-0.285-0.411 0.103-1.076 0.423 0.136 0.789 0.102 1.055-0.11 0.349-0.274 1.978-1.135 2.853-1.462 0.325 0.313 0.48 0.787 0.421 1.319-0.006 0.077-0.011 0.145-0.009 0.208-0.159 0.072-0.323 0.127-0.493 0.155-0.266 0.042-0.576 0.038-0.904 0.034-0.602-0.004-1.227-0.009-1.646 0.282-0.777 0.536-1.311 0.727-1.381 0.65z"></path>
<path fill="#f5f5f5" d="M9.477 10.212c-0.036-0.108-0.079-0.427 0.147-0.672 0.11-0.002 0.217-0 0.326-0.002 0.338 0.004 0.657 0.007 0.94-0.040 0.168-0.025 0.332-0.079 0.489-0.147 0.062 0.243 0.208 0.349 0.34 0.425-0.406 0.17-0.866 0.289-1.391 0.348-0.326 0.040-0.604 0.066-0.851 0.089z"></path>
<path fill="#f5f5f5" d="M11.948 9.667c-0.028-0.019-0.060-0.040-0.094-0.057-0.125-0.072-0.244-0.145-0.281-0.353 0.385-0.204 0.723-0.493 0.981-0.755 0.076 0.217 0.176 0.385 0.296 0.502 0 0 0 0-0.002 0.004-0.241 0.266-0.545 0.487-0.9 0.659z"></path>
<path fill="#f5f5f5" d="M11.566 9.024c0.002-0.023-0.002-0.043 0.002-0.070 0.062-0.559-0.085-1.066-0.405-1.419 0.277-0.093 0.51-0.142 0.695-0.181 0.21-0.042 0.376-0.081 0.519-0.161 0.004 0.427 0.042 0.785 0.108 1.078-0.002 0.004-0.002 0.004-0.004 0.008-0.238 0.249-0.553 0.54-0.915 0.746z"></path>
<path fill="#f5f5f5" d="M12.676 8.144c-0.057-0.274-0.093-0.636-0.087-1.119 0.068-0.079 0.132-0.16 0.185-0.228 0.126-0.168 0.213-0.276 0.366-0.317 0.089-0.026 0.313-0.051 0.581-0.049-0.015 0.011-0.030 0.023-0.041 0.036-0.081 0.096-0.109 0.276-0.138 0.502-0.040 0.277-0.087 0.617-0.253 0.865-0.149 0.223-0.275 0.24-0.419 0.262-0.062 0.011-0.128 0.021-0.194 0.049z"></path>
<path fill="#ffe15a" d="M13.018 8.876c-0.102-0.089-0.208-0.245-0.291-0.523 0.053-0.030 0.109-0.040 0.175-0.049 0.159-0.025 0.359-0.057 0.559-0.353 0.194-0.285 0.247-0.655 0.288-0.955 0.023-0.168 0.045-0.345 0.090-0.398 0.047-0.057 0.191-0.089 0.294-0.042 0.119 0.055 0.119 0.187 0.102 0.287-0.038 0.226-0.202 0.442-0.36 0.655-0.164 0.215-0.319 0.421-0.338 0.638-0.013 0.149 0.070 0.37 0.206 0.655-0.087 0.108-0.179 0.189-0.296 0.206-0.168 0.025-0.311-0.019-0.43-0.121z"></path>
<path fill="#f5f5f5" d="M13.88 8.585c-0.085-0.189-0.14-0.343-0.132-0.434 0.011-0.155 0.149-0.336 0.296-0.527 0.166-0.219 0.353-0.47 0.4-0.744 0.030-0.164-0.002-0.279-0.047-0.359 0.228 0.062 0.428 0.162 0.54 0.336 0.119 0.177 0.196 0.372 0.272 0.57-0.107 0.159-0.204 0.266-0.796 0.508-0.202 0.083-0.336 0.313-0.462 0.538-0.023 0.036-0.047 0.076-0.070 0.111z"></path>
<path fill="#f5f5f5" d="M13.687 12.871c-0.068-0.562-0.365-3.065-0.332-3.539 0.002-0.023-0.006-0.045-0.015-0.064-0.013-0.021-0.025-0.036-0.038-0.057 0.059 0.006 0.117 0.002 0.177-0.006 0.147-0.021 0.264-0.104 0.364-0.21 0.043 0.092 0.091 0.187 0.144 0.289 0.238 0.459 0.501 0.981 0.695 1.527 0.334 0.936 0.346 1.97 0.337 2.31-0.414-0.091-0.892-0.193-1.333-0.251z"></path>
<path fill="#f5f5f5" d="M15.229 13.203c0.011-0.24 0.035-1.393-0.346-2.461-0.2-0.562-0.478-1.112-0.707-1.551-0.066-0.132-0.13-0.259-0.189-0.377 0.049-0.079 0.098-0.159 0.141-0.236 0.119-0.2 0.228-0.391 0.364-0.446 0.498-0.204 0.678-0.327 0.8-0.468 0.008 0.023 0.017 0.042 0.025 0.064 0.123 0.359 0.251 0.734 0.504 1.106 0.438 0.643 1.196 2.442 1.306 3.421l-1.406 1.171c-0.091-0.045-0.27-0.13-0.493-0.223z"></path>
<path fill="#f5f5f5" d="M26.511 7.809c0.579-0.027 1.226 0.251 1.315 0.361 0.016 0.020 0.019 0.043 0.011 0.071-0.032 0.090-0.187 0.21-0.454 0.261-0.026 0.005-0.060 0.014-0.099 0.021l-0.773-0.715z"></path>
<path fill="#f5f5f5" d="M25.952 7.907c0.105-0.020 0.208-0.043 0.285-0.061l0.799 0.735c-0.096 0.019-0.198 0.043-0.309 0.070l-0.774-0.743z"></path>
<path fill="#ffe15a" d="M25.336 7.988c0.124-0.011 0.243-0.024 0.355-0.038l0.788 0.76c-0.114 0.029-0.234 0.057-0.351 0.089l-0.793-0.81z"></path>
<path fill="#f5f5f5" d="M24.87 8.010c0.062-0.001 0.125-0.002 0.191-0.004l0.832 0.856c-0.198 0.052-0.388 0.109-0.552 0.162l-0.471-1.013z"></path>
<path fill="#f5f5f5" d="M24.328 7.939c0.088 0.028 0.189 0.045 0.301 0.055l0.51 1.102c-0.104 0.039-0.195 0.075-0.258 0.109-0.048 0.027-0.090 0.055-0.136 0.085-0.019-0.043-0.043-0.087-0.064-0.124-0.148-0.266-0.3-0.427-0.446-0.525 0.137-0.274 0.128-0.525 0.092-0.703z"></path>
<path fill="#f5f5f5" d="M24.058 7.809c0.029 0.071 0.164 0.382-0.013 0.741-0.14-0.053-0.259-0.049-0.334-0.037-0.371 0.061-0.427 1.101-0.423 1.717 0.001 0.289-0.142 0.596-0.333 0.904-0.007-0.021-0.015-0.035-0.025-0.054-0.131-0.236-0.346-0.363-0.486-0.415 0.098-0.171 0.19-0.328 0.267-0.467 0.382-0.651 0.554-0.95 0.606-1.447 0.001-0.015 0-0.034-0.008-0.049-0.074-0.186-0.242-0.749-0.037-0.901 0.28-0.209 0.533-0.204 0.786 0.008z"></path>
<path fill="#f5f5f5" d="M23.744 8.722c0.141-0.025 0.5-0.003 0.829 0.694-0.351 0.272-0.53 0.593-0.506 0.932 0.029 0.443-0.182 2.273-0.407 3.18-0.442 0.091-0.92-0.049-1.326-0.398-0.061-0.048-0.113-0.091-0.166-0.125 0.030-0.171 0.078-0.338 0.151-0.494 0.116-0.243 0.294-0.496 0.483-0.765 0.343-0.495 0.701-1.007 0.698-1.517-0.003-0.944 0.142-1.493 0.245-1.507z"></path>
<path fill="#f5f5f5" d="M22.34 10.853c0.109 0.031 0.397 0.176 0.471 0.501-0.060 0.091-0.123 0.179-0.183 0.271-0.194 0.277-0.377 0.538-0.498 0.798-0.075 0.152-0.122 0.319-0.155 0.486-0.236-0.086-0.405-0.026-0.542 0.040 0.089-0.431 0.251-0.878 0.499-1.344 0.152-0.292 0.287-0.536 0.408-0.752z"></path>
<path fill="#f5f5f5" d="M21.393 13.198c0.032-0.013 0.067-0.027 0.1-0.046 0.13-0.062 0.258-0.119 0.45-0.033-0.049 0.433-0.002 0.875 0.068 1.236-0.222-0.060-0.417-0.073-0.582-0.039 0 0 0 0-0.002-0.004-0.083-0.35-0.094-0.725-0.035-1.115z"></path>
<path fill="#f5f5f5" d="M22.139 13.247c0.018 0.014 0.037 0.023 0.057 0.041 0.426 0.367 0.928 0.532 1.399 0.469-0.080 0.281-0.171 0.5-0.243 0.675-0.084 0.196-0.145 0.356-0.161 0.519-0.354-0.238-0.671-0.409-0.95-0.52-0.002-0.004-0.002-0.004-0.004-0.007-0.071-0.337-0.133-0.761-0.098-1.177z"></path>
<path fill="#f5f5f5" d="M22.238 14.66c0.258 0.108 0.577 0.283 0.973 0.561 0.027 0.101 0.058 0.2 0.084 0.282 0.067 0.199 0.107 0.332 0.055 0.481-0.028 0.088-0.135 0.287-0.288 0.507-0.001-0.019-0.002-0.038-0.006-0.055-0.034-0.121-0.166-0.246-0.336-0.397-0.207-0.189-0.46-0.42-0.57-0.697-0.099-0.249-0.042-0.363 0.020-0.494 0.026-0.058 0.055-0.118 0.069-0.188z"></path>
<path fill="#ffe15a" d="M21.441 14.528c0.131-0.034 0.32-0.033 0.596 0.056-0.005 0.061-0.029 0.113-0.059 0.173-0.069 0.145-0.156 0.328-0.024 0.66 0.125 0.321 0.401 0.574 0.625 0.778 0.126 0.114 0.259 0.233 0.277 0.3 0.020 0.071-0.035 0.207-0.132 0.266-0.112 0.067-0.221-0.007-0.294-0.078-0.166-0.159-0.25-0.416-0.337-0.668-0.085-0.257-0.167-0.501-0.335-0.639-0.116-0.095-0.345-0.151-0.657-0.2-0.040-0.132-0.054-0.255-0.002-0.361 0.075-0.152 0.192-0.246 0.343-0.287z"></path>
<path fill="#f5f5f5" d="M21.193 15.404c0.204 0.037 0.362 0.079 0.433 0.136 0.121 0.097 0.193 0.313 0.267 0.542 0.087 0.261 0.188 0.557 0.387 0.75 0.118 0.118 0.232 0.156 0.323 0.164-0.18 0.153-0.376 0.262-0.582 0.256-0.214-0.002-0.418-0.048-0.624-0.098-0.070-0.178-0.104-0.319 0.031-0.944 0.046-0.214-0.069-0.454-0.183-0.685-0.017-0.039-0.036-0.082-0.052-0.12z"></path>
<path fill="#f5f5f5" d="M17.766 12.822c0.503 0.262 2.735 1.431 3.107 1.727 0.018 0.014 0.041 0.021 0.061 0.024 0.025 0.001 0.043 0 0.068 0.001-0.038 0.045-0.068 0.095-0.096 0.15-0.066 0.133-0.064 0.277-0.033 0.419-0.101-0.016-0.205-0.031-0.319-0.045-0.513-0.063-1.092-0.142-1.652-0.29-0.961-0.253-1.821-0.828-2.096-1.028 0.303-0.271 0.705-0.623 0.96-0.958z"></path>
<path fill="#f5f5f5" d="M16.621 13.907c0.191 0.145 1.129 0.817 2.226 1.106 0.577 0.153 1.187 0.234 1.679 0.294 0.146 0.020 0.287 0.039 0.418 0.058 0.038 0.085 0.075 0.171 0.115 0.25 0.098 0.211 0.193 0.409 0.162 0.552-0.113 0.526-0.113 0.744-0.066 0.925-0.023-0.007-0.044-0.009-0.067-0.016-0.365-0.101-0.748-0.208-1.197-0.209-0.779-0.002-2.69-0.394-3.56-0.857l-0.171-1.821c0.089-0.049 0.26-0.149 0.462-0.281z"></path>
<path fill="#464655" d="M28.019 8.082c-0.010-0.018-0.018-0.033-0.030-0.046-0.163-0.199-1.12-0.566-1.799-0.397-0.733 0.185-1.73 0.231-1.977 0.021-0.317-0.28-0.668-0.291-1.016-0.054l-0.14-0.125 0.208-0.605c0.010-0.029 0.007-0.060-0.008-0.086-0.007-0.013-0.017-0.025-0.030-0.034-0.037-0.027-0.088-0.027-0.125 0l-0.6 0.444-0.509-0.259c-0.035-0.018-0.077-0.015-0.109 0.008s-0.049 0.062-0.043 0.101l0.109 0.732-0.542 0.614c-0.029 0.033-0.035 0.081-0.014 0.12 0.021 0.025 0.064 0.061 0.107 0.055l0.666-0.091 0.165 0.605c0.012 0.045 0.050 0.075 0.095 0.078s0.087-0.023 0.104-0.065l0.301-0.727 0.152-0.077c0.031 0.203 0.094 0.387 0.121 0.46-0.051 0.439-0.22 0.726-0.573 1.341-0.206 0.351-0.457 0.785-0.786 1.411-0.546 1.042-0.722 2.003-0.523 2.858-0.060 0.005-0.151 0.007-0.246 0.001-0.504-0.377-3.105-1.723-3.215-1.783-0.006-0.003-0.429-0.366-0.429-0.366-0.117-1.026-0.882-2.828-1.335-3.501-0.24-0.351-0.363-0.71-0.482-1.057-0.113-0.321-0.215-0.627-0.402-0.913-0.415-0.642-1.716-0.55-2.029-0.471-0.223 0.059-0.343 0.215-0.481 0.397-0.055 0.072-0.117 0.149-0.194 0.238-0.128 0.144-0.308 0.181-0.596 0.24-0.226 0.047-0.511 0.108-0.883 0.238-0.872 0.31-2.608 1.235-2.978 1.522-0.364 0.285-0.895 0.091-1.178-0.051-0.4-0.2-1.609-1.304-1.937-1.628-0.229-0.223-0.487-0.328-0.678-0.277-0.081 0.021-0.145 0.074-0.179 0.142-0.009 0.019-0.017 0.034-0.021 0.051-0.072 0.247 0.167 1.244 0.69 1.708 0.566 0.5 1.169 1.296 1.135 1.619-0.052 0.419 0.138 0.716 0.53 0.869l-0.024 0.187-0.617 0.17c-0.029 0.008-0.053 0.028-0.066 0.055-0.007 0.013-0.011 0.028-0.011 0.044-0.001 0.046 0.027 0.088 0.071 0.103l0.705 0.244 0.074 0.566c0.005 0.039 0.032 0.072 0.069 0.085s0.079 0.005 0.107-0.022l0.542-0.504 0.812 0.1c0.044 0.005 0.086-0.017 0.107-0.056 0.009-0.032 0.014-0.087-0.015-0.119l-0.451-0.498 0.406-0.478c0.030-0.036 0.033-0.084 0.010-0.122s-0.068-0.059-0.112-0.049l-0.77 0.163-0.15-0.082c0.15-0.14 0.266-0.297 0.31-0.36 0.391-0.206 0.723-0.229 1.431-0.286 0.406-0.028 0.906-0.066 1.608-0.15 1.168-0.138 2.061-0.537 2.653-1.184 0.038 0.047 0.091 0.121 0.14 0.202-0.026 0.629 0.334 3.535 0.347 3.66 0.001 0.007-0.006 0.314-0.006 0.314-0.865 0.566-2.13 2.047-2.529 2.751-0.207 0.371-0.473 0.642-0.73 0.903-0.236 0.245-0.464 0.473-0.637 0.768-0.388 0.658 0.274 1.781 0.485 2.026 0.152 0.173 0.346 0.211 0.57 0.253 0.089 0.017 0.186 0.038 0.3 0.067 0.186 0.051 0.3 0.194 0.481 0.426 0.143 0.181 0.325 0.409 0.608 0.684 0.667 0.642 2.271 1.781 2.693 1.984 0.418 0.198 0.481 0.76 0.481 1.076 0 0.447-0.447 2.022-0.591 2.461-0.097 0.304-0.076 0.582 0.055 0.73 0.055 0.063 0.131 0.097 0.207 0.097 0.021 0 0.038 0 0.055-0.004 0.253-0.046 1.038-0.705 1.22-1.38 0.194-0.73 0.637-1.625 0.941-1.739 0.399-0.141 0.579-0.443 0.54-0.862l0.178-0.062 0.428 0.476c0.021 0.023 0.049 0.035 0.078 0.035 0.015 0 0.030-0.003 0.044-0.010 0.042-0.019 0.067-0.064 0.061-0.11l-0.097-0.74 0.473-0.32c0.033-0.022 0.050-0.061 0.046-0.1s-0.031-0.073-0.068-0.086l-0.693-0.26-0.274-0.771c-0.015-0.042-0.054-0.070-0.098-0.070-0.032 0.006-0.084 0.026-0.1 0.067l-0.243 0.626-0.609-0.149c-0.045-0.011-0.090 0.008-0.114 0.046s-0.022 0.087 0.006 0.123l0.49 0.616-0.006 0.171c-0.192-0.071-0.384-0.105-0.461-0.117-0.359-0.257-0.528-0.544-0.895-1.152-0.207-0.35-0.464-0.781-0.853-1.372-0.646-0.983-1.401-1.604-2.245-1.844 0.025-0.055 0.068-0.135 0.118-0.215 0.574-0.258 3.013-1.878 3.119-1.946 0.001-0.001 0.001-0.003 0.003-0.004l0.33-0.191c0.915 0.482 2.827 0.868 3.636 0.875 0.425 0.001 0.79 0.102 1.144 0.2 0.329 0.088 0.639 0.177 0.981 0.184 0.764 0.020 1.424-1.104 1.536-1.408 0.078-0.217 0.017-0.405-0.055-0.621-0.028-0.086-0.057-0.181-0.086-0.295-0.046-0.187 0.024-0.356 0.139-0.628 0.089-0.214 0.2-0.483 0.303-0.863 0.237-0.894 0.455-2.85 0.428-3.317-0.029-0.462 0.431-0.789 0.707-0.943 0.391-0.217 1.985-0.59 2.438-0.678 0.313-0.063 0.546-0.216 0.612-0.402 0.029-0.078 0.021-0.161-0.016-0.228zM22.966 8.066l-0.265 0.134c-0.022 0.011-0.040 0.030-0.050 0.054l-0.197 0.478-0.108-0.396c-0.014-0.052-0.064-0.084-0.116-0.077l-0.476 0.065 0.386-0.438c0.021-0.024 0.030-0.055 0.025-0.085l-0.086-0.578 0.385 0.196c0.036 0.018 0.078 0.015 0.111-0.009l0.379-0.281-0.12 0.35c-0.014 0.040-0.002 0.084 0.029 0.113l0.178 0.16c-0.053 0.090-0.074 0.2-0.076 0.315zM22.71 10.198c0.382-0.651 0.554-0.95 0.606-1.447 0.001-0.015 0-0.034-0.008-0.049-0.074-0.186-0.242-0.749-0.037-0.901 0.28-0.209 0.533-0.204 0.786 0.008 0.029 0.071 0.164 0.382-0.013 0.741-0.14-0.053-0.259-0.049-0.334-0.037-0.371 0.061-0.427 1.101-0.423 1.717 0.001 0.289-0.142 0.596-0.333 0.904-0.007-0.021-0.015-0.035-0.025-0.054-0.131-0.236-0.346-0.363-0.486-0.415 0.098-0.171 0.19-0.328 0.267-0.467zM21.932 11.605c0.152-0.292 0.287-0.536 0.408-0.752 0.109 0.031 0.397 0.176 0.471 0.501-0.060 0.091-0.123 0.179-0.183 0.271-0.194 0.277-0.377 0.538-0.498 0.798-0.075 0.152-0.122 0.319-0.155 0.487-0.236-0.086-0.405-0.026-0.542 0.040 0.089-0.431 0.251-0.878 0.499-1.344zM21.393 13.198c0.032-0.013 0.067-0.027 0.1-0.046 0.13-0.062 0.258-0.119 0.45-0.033-0.049 0.433-0.002 0.875 0.068 1.236-0.222-0.060-0.417-0.073-0.582-0.039 0 0 0 0-0.002-0.004-0.083-0.35-0.093-0.725-0.035-1.115zM20.934 14.573c0.025 0.001 0.043 0 0.068 0.001-0.038 0.045-0.068 0.095-0.096 0.15-0.066 0.133-0.064 0.277-0.033 0.419-0.101-0.016-0.205-0.031-0.319-0.045-0.513-0.063-1.092-0.142-1.652-0.29-0.961-0.253-1.821-0.828-2.096-1.028 0.264-0.252 0.647-0.549 0.96-0.958 0.503 0.262 2.735 1.431 3.107 1.727 0.018 0.014 0.041 0.021 0.061 0.024zM16.121 16.036l-0.233 0.135c-0.404-0.582-0.382-2.005-0.382-2.021 0.004-0.042-0.021-0.080-0.059-0.097l-1.748-0.765 0.010-0.179c0.912 0.105 1.966 0.529 1.98 0.537 0.036 0.023 0.081 0.017 0.113-0.009l1.451-1.21 0.312 0.279c-0.452 0.556-1.553 1.323-1.567 1.331-0.039 0.017-0.060 0.057-0.056 0.099l0.18 1.902zM15.293 7.663c0.008 0.023 0.017 0.042 0.025 0.064 0.123 0.359 0.251 0.734 0.504 1.106 0.438 0.643 1.196 2.442 1.305 3.421l-1.406 1.171c-0.091-0.045-0.27-0.13-0.493-0.223 0.011-0.24 0.035-1.393-0.346-2.461-0.2-0.562-0.478-1.112-0.707-1.551-0.066-0.132-0.13-0.259-0.189-0.377 0.049-0.079 0.098-0.159 0.142-0.236 0.119-0.2 0.228-0.391 0.364-0.446 0.498-0.204 0.678-0.327 0.8-0.468zM14.936 6.857c0.119 0.177 0.196 0.372 0.272 0.57-0.107 0.159-0.204 0.266-0.796 0.508-0.202 0.083-0.336 0.313-0.462 0.538-0.023 0.036-0.047 0.076-0.070 0.111-0.085-0.189-0.14-0.344-0.132-0.434 0.011-0.155 0.149-0.336 0.296-0.527 0.166-0.219 0.353-0.47 0.4-0.744 0.030-0.164-0.002-0.279-0.047-0.359 0.228 0.062 0.428 0.162 0.54 0.336zM12.773 6.796c0.126-0.168 0.213-0.276 0.366-0.317 0.089-0.026 0.313-0.051 0.581-0.049-0.015 0.011-0.030 0.023-0.041 0.036-0.081 0.096-0.109 0.276-0.138 0.502-0.040 0.277-0.087 0.617-0.253 0.865-0.149 0.223-0.275 0.24-0.419 0.262-0.062 0.011-0.128 0.021-0.194 0.049-0.057-0.274-0.093-0.636-0.087-1.119 0.068-0.079 0.132-0.16 0.185-0.228zM11.858 7.353c0.21-0.042 0.376-0.081 0.519-0.161 0.004 0.427 0.042 0.785 0.108 1.078-0.002 0.004-0.002 0.004-0.004 0.008-0.238 0.249-0.553 0.54-0.915 0.746 0.002-0.023-0.002-0.043 0.002-0.070 0.062-0.559-0.085-1.066-0.404-1.419 0.277-0.093 0.51-0.142 0.694-0.181zM8.084 9.072c0.349-0.274 1.978-1.135 2.853-1.462 0.325 0.313 0.48 0.787 0.421 1.319-0.006 0.077-0.011 0.145-0.009 0.208-0.159 0.072-0.323 0.127-0.493 0.155-0.266 0.042-0.576 0.038-0.904 0.034-0.602-0.004-1.227-0.009-1.646 0.282-0.777 0.536-1.312 0.727-1.381 0.65-0.1-0.102-0.285-0.411 0.103-1.076 0.423 0.136 0.789 0.102 1.055-0.11zM4.609 8.492c-0.349-0.462-0.486-1.153-0.446-1.289 0.008-0.024 0.024-0.040 0.053-0.049 0.093-0.025 0.279 0.036 0.472 0.226 0.019 0.019 0.045 0.042 0.074 0.070l-0.152 1.042zM5.005 8.898c-0.075-0.075-0.153-0.147-0.211-0.2l0.154-1.074c0.070 0.068 0.147 0.14 0.232 0.215l-0.175 1.059zM5.188 9.088l0.181-1.080c0.089 0.077 0.179 0.16 0.272 0.24l-0.22 1.112c-0.079-0.096-0.157-0.187-0.232-0.272zM5.702 9.732c-0.036-0.051-0.072-0.102-0.111-0.155l0.236-1.17c0.155 0.134 0.31 0.258 0.446 0.364l-0.57 0.961zM5.825 9.939l0.621-1.044c0.091 0.064 0.172 0.119 0.236 0.151 0.049 0.024 0.096 0.043 0.147 0.064-0.024 0.040-0.047 0.085-0.066 0.123-0.136 0.272-0.183 0.489-0.181 0.664-0.304 0.042-0.506 0.191-0.632 0.321-0.026-0.089-0.070-0.181-0.125-0.279zM7.085 11.413c0.022 0.012 0.048 0.016 0.073 0.011l0.506-0.107-0.266 0.313c-0.035 0.041-0.033 0.1 0.002 0.139l0.323 0.356-0.579-0.071c-0.031-0.004-0.062 0.006-0.085 0.027l-0.428 0.398-0.056-0.428c-0.005-0.040-0.032-0.073-0.070-0.086l-0.446-0.154 0.357-0.098c0.040-0.011 0.071-0.046 0.077-0.088l0.031-0.237c0.104-0.007 0.207-0.052 0.303-0.115l0.26 0.142zM9.332 9.596c-0.121 0.242-0.104 0.491-0.068 0.636-0.196 0.015-0.377 0.028-0.536 0.044-0.753 0.053-1.097 0.080-1.536 0.318-0.013 0.008-0.028 0.019-0.036 0.034-0.111 0.166-0.481 0.623-0.723 0.54-0.33-0.113-0.47-0.325-0.438-0.653 0.042-0.064 0.223-0.351 0.619-0.408 0.036 0.145 0.106 0.242 0.159 0.296 0.261 0.272 1.149-0.27 1.655-0.622 0.238-0.164 0.572-0.219 0.934-0.236-0.013 0.017-0.021 0.032-0.030 0.051zM10.328 10.123c-0.327 0.040-0.604 0.066-0.851 0.089-0.036-0.108-0.079-0.427 0.147-0.672 0.11-0.002 0.217-0 0.326-0.002 0.338 0.004 0.657 0.007 0.94-0.040 0.168-0.025 0.332-0.079 0.489-0.147 0.062 0.243 0.208 0.349 0.34 0.425-0.406 0.17-0.866 0.289-1.391 0.348zM12.848 9.008c-0.242 0.266-0.545 0.487-0.9 0.659-0.028-0.019-0.060-0.040-0.094-0.057-0.125-0.072-0.244-0.145-0.281-0.353 0.385-0.204 0.723-0.493 0.981-0.755 0.076 0.217 0.176 0.385 0.296 0.502 0 0 0 0-0.002 0.004zM13.018 8.876c-0.102-0.089-0.208-0.245-0.291-0.523 0.053-0.030 0.109-0.040 0.175-0.049 0.159-0.025 0.359-0.057 0.559-0.353 0.194-0.285 0.247-0.655 0.288-0.955 0.023-0.168 0.045-0.345 0.090-0.398 0.047-0.057 0.191-0.089 0.294-0.042 0.119 0.055 0.119 0.187 0.102 0.287-0.038 0.226-0.202 0.442-0.36 0.655-0.164 0.215-0.319 0.421-0.338 0.638-0.013 0.149 0.070 0.37 0.206 0.655-0.087 0.108-0.179 0.189-0.296 0.206-0.168 0.025-0.311-0.019-0.43-0.121zM13.355 9.333c0.002-0.023-0.006-0.045-0.015-0.064-0.013-0.021-0.024-0.036-0.038-0.057 0.059 0.006 0.117 0.002 0.177-0.006 0.147-0.021 0.264-0.104 0.364-0.21 0.043 0.092 0.091 0.187 0.144 0.289 0.238 0.459 0.501 0.981 0.695 1.527 0.334 0.936 0.346 1.97 0.337 2.31-0.409-0.089-0.825-0.181-1.333-0.251-0.068-0.562-0.366-3.065-0.332-3.539zM10.377 17.125c0.266-0.27 0.544-0.553 0.764-0.945 0.38-0.68 1.65-2.161 2.477-2.697l1.676 0.734c0 0.101 0.004 0.3 0.021 0.54-0.219 0.097-1.262 0.591-2.047 1.41-0.414 0.43-0.781 0.924-1.072 1.325-0.089 0.118-0.173 0.232-0.253 0.338-0.093-0.008-0.186-0.017-0.274-0.021-0.232-0.017-0.452-0.030-0.561-0.127-0.405-0.355-0.595-0.46-0.777-0.506 0.017-0.017 0.029-0.034 0.046-0.051zM9.711 18.488c-0.046-0.232-0.046-0.456 0.059-0.633 0.105-0.186 0.245-0.342 0.388-0.498 0.19 0.025 0.329 0.063 0.81 0.485 0.165 0.143 0.431 0.16 0.688 0.173 0.042 0.004 0.089 0.008 0.131 0.013-0.131 0.16-0.245 0.279-0.329 0.312-0.143 0.059-0.367 0.017-0.604-0.030-0.27-0.051-0.578-0.105-0.844-0.025-0.16 0.046-0.249 0.127-0.3 0.203zM10.069 18.488c0.22-0.067 0.485-0.017 0.747 0.030 0.266 0.051 0.519 0.097 0.722 0.017 0.139-0.055 0.3-0.228 0.494-0.477 0.135 0.029 0.249 0.076 0.317 0.173 0.097 0.139 0.122 0.287 0.084 0.439-0.034 0.131-0.127 0.295-0.338 0.494-0.051-0.034-0.084-0.080-0.122-0.135-0.093-0.131-0.211-0.295-0.566-0.342-0.342-0.046-0.696 0.072-0.983 0.169-0.16 0.055-0.329 0.114-0.397 0.097-0.072-0.017-0.165-0.131-0.169-0.245-0.004-0.131 0.114-0.19 0.211-0.219zM10.968 19.881c-0.101-0.025-0.203-0.046-0.287-0.063-0.207-0.038-0.342-0.068-0.447-0.186-0.063-0.068-0.186-0.257-0.304-0.498 0.017 0.008 0.034 0.017 0.051 0.021 0.122 0.030 0.295-0.025 0.511-0.101 0.266-0.089 0.591-0.198 0.886-0.16 0.266 0.034 0.338 0.139 0.422 0.257 0.038 0.051 0.076 0.105 0.131 0.152-0.22 0.173-0.528 0.367-0.962 0.578zM11.589 20.388c-0.131-0.169-0.241-0.3-0.376-0.392 0.38-0.194 0.684-0.388 0.916-0.578 0.004 0 0.004 0 0.008 0 0.329 0.101 0.73 0.253 1.076 0.485-0.021 0.008-0.038 0.021-0.063 0.029-0.528 0.194-0.916 0.553-1.089 0.996-0.207-0.207-0.355-0.392-0.473-0.54zM14.813 22.996c-0.401-0.19-1.899-1.262-2.583-1.899 0.135-0.43 0.49-0.781 0.992-0.966 0.072-0.030 0.135-0.055 0.19-0.084 0.135 0.11 0.258 0.232 0.359 0.371 0.156 0.22 0.291 0.498 0.435 0.793 0.266 0.54 0.54 1.102 0.988 1.346 0.827 0.456 1.237 0.848 1.199 0.945-0.046 0.135-0.241 0.439-1.009 0.388-0.068-0.439-0.262-0.751-0.57-0.895zM14.893 27.339c-0.025 0.004-0.046-0.004-0.068-0.025-0.063-0.072-0.093-0.266-0.008-0.523 0.008-0.025 0.017-0.059 0.030-0.097l1-0.329c-0.257 0.519-0.815 0.95-0.954 0.975zM15.949 26.106l-1.030 0.342c0.030-0.093 0.059-0.194 0.089-0.304l1.026-0.317c-0.034 0.101-0.063 0.203-0.084 0.279zM16.122 25.579l-1.047 0.321c0.030-0.114 0.063-0.232 0.093-0.35l1.093-0.3c-0.051 0.114-0.097 0.224-0.139 0.329zM16.379 25.001l-1.152 0.312c0.051-0.198 0.093-0.392 0.127-0.561l1.114 0.080c-0.030 0.055-0.059 0.11-0.089 0.169zM16.599 24.629l-1.211-0.089c0.017-0.11 0.030-0.207 0.030-0.279 0-0.055-0.004-0.105-0.008-0.16 0.046 0.004 0.097 0.004 0.139 0.004 0.304 0 0.519-0.055 0.675-0.135 0.173 0.253 0.397 0.367 0.57 0.422-0.067 0.063-0.131 0.143-0.194 0.236zM17.009 22.369l0.399 0.098c0.052 0.013 0.104-0.015 0.123-0.064l0.174-0.448 0.195 0.55c0.011 0.029 0.033 0.053 0.062 0.063l0.547 0.205-0.358 0.242c-0.033 0.022-0.051 0.061-0.046 0.101l0.061 0.468-0.247-0.275c-0.028-0.031-0.073-0.042-0.113-0.029l-0.226 0.079c-0.053-0.090-0.139-0.162-0.238-0.219l0.011-0.296c0.001-0.025-0.007-0.050-0.023-0.070l-0.322-0.404zM15.602 21.882c0.384 0.65 0.561 0.945 0.971 1.232 0.013 0.008 0.029 0.017 0.046 0.017 0.198 0.025 0.772 0.152 0.806 0.405 0.046 0.346-0.080 0.566-0.388 0.684-0.076-0.008-0.414-0.042-0.642-0.371 0.114-0.097 0.169-0.203 0.194-0.274 0.127-0.355-0.755-0.907-1.296-1.203-0.253-0.139-0.452-0.414-0.629-0.73 0.021 0.004 0.038 0.004 0.059 0.004 0.27 0 0.485-0.127 0.599-0.224 0.101 0.169 0.194 0.325 0.278 0.46zM14.75 20.518c0.181 0.274 0.329 0.511 0.46 0.722-0.080 0.080-0.346 0.262-0.667 0.169-0.051-0.097-0.097-0.194-0.148-0.291-0.148-0.304-0.287-0.591-0.456-0.823-0.097-0.139-0.219-0.262-0.35-0.371 0.19-0.165 0.219-0.342 0.228-0.494 0.334 0.287 0.646 0.646 0.933 1.089zM13.619 19.273c-0.004 0.034-0.008 0.072-0.008 0.11-0.008 0.143-0.021 0.283-0.19 0.409-0.354-0.253-0.764-0.426-1.114-0.54 0.16-0.165 0.266-0.329 0.317-0.49 0 0 0 0 0.004 0 0.346 0.097 0.68 0.27 0.992 0.511zM12.69 18.163c-0.021 0.008-0.038 0.025-0.051 0.042-0.013 0.021-0.021 0.038-0.034 0.059-0.021-0.055-0.051-0.105-0.084-0.156-0.084-0.122-0.211-0.19-0.35-0.232 0.063-0.080 0.127-0.165 0.194-0.257 0.304-0.418 0.654-0.886 1.055-1.304 0.688-0.717 1.608-1.19 1.916-1.334 0.046 0.447 0.148 0.975 0.371 1.304-0.473 0.312-2.579 1.697-3.018 1.878zM21.22 16.166c-0.113 0.526-0.113 0.744-0.066 0.925-0.023-0.007-0.044-0.009-0.067-0.016-0.365-0.101-0.748-0.208-1.197-0.209-0.779-0.002-2.69-0.394-3.56-0.857l-0.171-1.821c0.089-0.049 0.26-0.149 0.462-0.281 0.191 0.145 1.129 0.817 2.226 1.106 0.577 0.153 1.187 0.234 1.679 0.294 0.146 0.020 0.287 0.039 0.418 0.058 0.038 0.085 0.075 0.171 0.115 0.25 0.098 0.211 0.193 0.409 0.162 0.552zM22.021 17.252c-0.214-0.002-0.418-0.048-0.624-0.098-0.070-0.178-0.104-0.319 0.031-0.944 0.046-0.214-0.069-0.454-0.183-0.685-0.017-0.039-0.036-0.082-0.052-0.121 0.204 0.037 0.362 0.079 0.433 0.136 0.121 0.097 0.193 0.313 0.267 0.542 0.087 0.261 0.188 0.557 0.388 0.75 0.118 0.118 0.232 0.156 0.323 0.164-0.18 0.153-0.376 0.262-0.582 0.256zM22.723 16.761c-0.112 0.067-0.221-0.008-0.294-0.078-0.166-0.159-0.25-0.416-0.337-0.668-0.085-0.257-0.167-0.501-0.335-0.639-0.116-0.095-0.345-0.151-0.657-0.2-0.040-0.132-0.054-0.255-0.002-0.361 0.075-0.152 0.192-0.246 0.343-0.287 0.131-0.034 0.32-0.033 0.596 0.056-0.005 0.061-0.029 0.113-0.059 0.173-0.069 0.145-0.156 0.328-0.024 0.66 0.125 0.321 0.401 0.574 0.625 0.778 0.126 0.114 0.259 0.233 0.277 0.3 0.020 0.071-0.034 0.207-0.132 0.266zM23.349 15.984c-0.028 0.088-0.135 0.287-0.288 0.507-0.001-0.019-0.002-0.038-0.006-0.055-0.034-0.121-0.166-0.246-0.336-0.397-0.207-0.189-0.46-0.42-0.57-0.697-0.099-0.249-0.042-0.363 0.020-0.494 0.026-0.058 0.055-0.118 0.069-0.188 0.258 0.108 0.577 0.283 0.973 0.561 0.027 0.101 0.058 0.2 0.084 0.282 0.067 0.199 0.107 0.332 0.055 0.481zM23.352 14.433c-0.084 0.196-0.145 0.356-0.161 0.519-0.354-0.238-0.671-0.409-0.95-0.52-0.002-0.004-0.002-0.004-0.004-0.007-0.071-0.337-0.133-0.761-0.098-1.177 0.018 0.014 0.037 0.023 0.057 0.041 0.426 0.367 0.928 0.532 1.399 0.469-0.081 0.281-0.171 0.5-0.243 0.675zM24.068 10.347c0.029 0.443-0.182 2.273-0.407 3.18-0.442 0.091-0.92-0.049-1.326-0.398-0.061-0.048-0.113-0.091-0.166-0.125 0.030-0.171 0.078-0.338 0.151-0.494 0.116-0.243 0.294-0.496 0.483-0.765 0.343-0.495 0.701-1.007 0.698-1.517-0.003-0.944 0.142-1.493 0.245-1.507 0.141-0.025 0.5-0.003 0.829 0.694-0.351 0.272-0.53 0.593-0.506 0.932zM24.882 9.205c-0.048 0.027-0.090 0.055-0.136 0.085-0.019-0.043-0.043-0.087-0.064-0.124-0.148-0.266-0.3-0.427-0.446-0.525 0.137-0.274 0.128-0.525 0.093-0.703 0.088 0.028 0.189 0.045 0.301 0.055l0.51 1.102c-0.104 0.039-0.195 0.075-0.258 0.109zM25.341 9.023l-0.471-1.013c0.062-0.001 0.125-0.002 0.191-0.004l0.832 0.856c-0.198 0.052-0.388 0.109-0.552 0.162zM26.128 8.798l-0.793-0.81c0.124-0.011 0.243-0.024 0.355-0.038l0.788 0.759c-0.114 0.029-0.234 0.057-0.351 0.089zM26.726 8.65l-0.774-0.743c0.105-0.020 0.208-0.043 0.285-0.061l0.799 0.734c-0.095 0.019-0.198 0.043-0.309 0.070zM27.383 8.502c-0.026 0.005-0.060 0.014-0.099 0.021l-0.773-0.715c0.579-0.027 1.226 0.251 1.315 0.361 0.016 0.020 0.019 0.043 0.011 0.071-0.032 0.090-0.187 0.21-0.454 0.261z"></path>
</svg>
