<svg xmlns="http://www.w3.org/2000/svg" width="32" height="32" version="1.1" viewBox="0 0 32 32"><title>israel</title><path fill="#41479b" d="M7 32h18c3.48 0 6.366-2.539 6.908-5.866h-31.816c0.542 3.327 3.428 5.866 6.908 5.866z"/><path fill="#41479b" d="M25 0h-18c-3.48 0-6.366 2.539-6.908 5.866h31.816c-0.542-3.327-3.428-5.866-6.908-5.866z"/><path fill="#f5f5f5" d="M0.092 5.866c-0.060 0.369-0.092 0.748-0.092 1.134v18c0 0.386 0.032 0.765 0.092 1.134h31.816c0.060-0.369 0.092-0.748 0.092-1.134v-18c0-0.386-0.032-0.765-0.092-1.134h-31.816z"/><path fill="#41479b" d="M19.842 16l1.921-3.327h-3.842l-1.921-3.328-1.921 3.328h-3.842l1.921 3.327-1.921 3.327h3.842l1.921 3.328 1.921-3.328h3.842l-1.921-3.327zM19.878 13.761l-0.665 1.151-0.665-1.151h1.329zM18.586 16l-1.293 2.239h-2.586l-1.293-2.239 1.293-2.239h2.586l1.293 2.239zM16 11.521l0.665 1.151h-1.329l0.665-1.151zM12.122 13.761h1.329l-0.665 1.151-0.665-1.151zM12.122 18.239l0.665-1.151 0.665 1.151h-1.329zM16 20.479l-0.665-1.151h1.33l-0.665 1.151zM19.214 17.088l0.665 1.151h-1.329l0.664-1.151z"/></svg>