<svg xmlns="http://www.w3.org/2000/svg" width="32" height="32" version="1.1" viewBox="0 0 32 32"><title>jamaica</title><path fill="#73af00" d="M3.796 31.225c0.96 0.495 2.050 0.775 3.204 0.775h18c1.155 0 2.244-0.28 3.204-0.775l-12.204-12.204-12.204 12.204z"/><path fill="#73af00" d="M28.204 0.775c-0.96-0.495-2.050-0.775-3.204-0.775h-18c-1.155 0-2.244 0.28-3.204 0.775l12.204 12.204 12.204-12.204z"/><path fill="#ffe15a" d="M31.225 3.796c-0.668-1.294-1.727-2.353-3.021-3.021l-12.204 12.204-12.204-12.204c-1.294 0.667-2.353 1.727-3.021 3.021l12.204 12.204-12.204 12.204c0.667 1.294 1.726 2.353 3.021 3.021l12.204-12.204 12.204 12.204c1.294-0.668 2.353-1.727 3.021-3.021l-12.204-12.204 12.204-12.204z"/><path fill="#464655" d="M19.021 16l12.204 12.204c0.495-0.96 0.775-2.050 0.775-3.204v-18c0-1.155-0.28-2.244-0.775-3.204l-12.204 12.204z"/><path fill="#464655" d="M0.775 3.796c-0.495 0.96-0.775 2.050-0.775 3.204v18c0 1.155 0.28 2.244 0.775 3.204l12.204-12.204-12.204-12.204z"/></svg>