<!-- Generated by IcoMoon.io -->
<svg version="1.1" xmlns="http://www.w3.org/2000/svg" width="32" height="32" viewBox="0 0 32 32">
<title>jordan</title>
<path fill="#464655" d="M25 0h-18c-3.866 0-7 3.134-7 7v3.667h32v-3.667c0-3.866-3.134-7-7-7z"></path>
<path fill="#73af00" d="M0 25c0 3.866 3.134 7 7 7h18c3.866 0 7-3.134 7-7v-3.667h-32v3.667z"></path>
<path fill="#f5f5f5" d="M0 10.667h32v10.667h-32v-10.667z"></path>
<path fill="#ff4b55" d="M18.898 15.659l-16.651-13.797c-1.382 1.279-2.247 3.107-2.247 5.138v18c0 2.031 0.865 3.86 2.247 5.138l16.651-13.797c0.177-0.147 0.177-0.535-0-0.682z"></path>
<path fill="#f5f5f5" d="M6.255 13.473l0.58 1.259 1.346-0.331c0.084-0.021 0.154 0.067 0.115 0.144l-0.623 1.239 1.098 0.846c0.069 0.053 0.044 0.162-0.041 0.18l-1.357 0.286 0.023 1.386c0.001 0.087-0.099 0.135-0.166 0.080l-1.069-0.883-1.069 0.883c-0.067 0.055-0.167 0.007-0.166-0.080l0.023-1.386-1.357-0.286c-0.085-0.018-0.11-0.127-0.041-0.18l1.098-0.846-0.623-1.239c-0.039-0.077 0.031-0.165 0.115-0.144l1.346 0.331 0.58-1.259c0.036-0.079 0.148-0.079 0.184-0z"></path>
</svg>
