<svg xmlns="http://www.w3.org/2000/svg" width="32" height="32" version="1.1" viewBox="0 0 32 32"><title>kenya</title><path fill="#73af00" d="M0 25c0 3.866 3.134 7 7 7h18c3.866 0 7-3.134 7-7v-3.667h-32v3.667z"/><path fill="#464655" d="M25 0h-18c-3.866 0-7 3.134-7 7v3.667h32v-3.667c0-3.866-3.134-7-7-7z"/><path fill="#c8414b" d="M0 10.667h32v10.667h-32v-10.667z"/><path fill="#f5f5f5" d="M0 10.105h32v1.684h-32v-1.684z"/><path fill="#f5f5f5" d="M0 20.211h32v1.684h-32v-1.684z"/><path fill="#f5f5f5" d="M20.509 8.904c0.678-1.398 1.386-4.637 1.386-4.637s-2.106 2.561-2.784 3.959c-0.142 0.293-0.082 0.63 0.123 0.858l-7.724 15.925 0.524 0.254 7.724-15.925c0.306 0.020 0.608-0.141 0.75-0.434z"/><path fill="#f5f5f5" d="M11.491 8.904c-0.678-1.398-1.386-4.637-1.386-4.637s2.106 2.561 2.784 3.959c0.142 0.293 0.082 0.63-0.123 0.858l7.724 15.925-0.524 0.254-7.724-15.925c-0.306 0.020-0.608-0.141-0.75-0.434z"/><path fill="#c8414b" d="M20.21 16c0 4.651-3.435 8.421-4.21 8.421s-4.21-3.77-4.21-8.421 3.435-8.421 4.21-8.421c0.775 0 4.21 3.77 4.21 8.421z"/><path fill="#464655" d="M19.368 20.063c0.496-1.205 0.842-2.589 0.842-4.063s-0.346-2.858-0.842-4.063c-0.496 1.205-0.842 2.589-0.842 4.063s0.346 2.858 0.842 4.063z"/><path fill="#464655" d="M12.632 11.937c-0.496 1.205-0.842 2.589-0.842 4.063s0.346 2.858 0.842 4.063c0.496-1.205 0.842-2.589 0.842-4.063s-0.346-2.858-0.842-4.063z"/><path fill="#f5f5f5" d="M16.842 16c0 0.698-0.377 1.263-0.842 1.263s-0.842-0.566-0.842-1.263c0-0.698 0.377-1.263 0.842-1.263s0.842 0.566 0.842 1.263z"/><path fill="#f5f5f5" d="M16.126 7.579v7.158c0.23-0.478 0.637-1.89 0.637-3.579s-0.407-3.101-0.637-3.579z"/><path fill="#f5f5f5" d="M15.874 7.579c-0.23 0.478-0.637 1.89-0.637 3.579s0.407 3.101 0.637 3.579v-7.158z"/><path fill="#f5f5f5" d="M16.126 17.263v7.158c0.23-0.478 0.637-1.89 0.637-3.579s-0.407-3.101-0.637-3.579z"/><path fill="#f5f5f5" d="M15.874 17.263c-0.23 0.478-0.637 1.89-0.637 3.579s0.407 3.101 0.637 3.579v-7.158z"/></svg>