<!-- Generated by IcoMoon.io -->
<svg version="1.1" xmlns="http://www.w3.org/2000/svg" width="32" height="32" viewBox="0 0 32 32">
<title>kwait</title>
<path fill="#73af00" d="M25 0h-18c-3.866 0-7 3.134-7 7v3.667h32v-3.667c0-3.866-3.134-7-7-7z"></path>
<path fill="#ff4b55" d="M0 25c0 3.866 3.134 7 7 7h18c3.866 0 7-3.134 7-7v-3.667h-32v3.667z"></path>
<path fill="#f5f5f5" d="M0 10.667h32v10.667h-32v-10.667z"></path>
<path fill="#464655" d="M8.827 10.652l-6.965-8.405c-1.155 1.248-1.862 2.918-1.862 4.753v18c0 1.835 0.707 3.505 1.862 4.753l6.966-8.406-0-10.696z"></path>
</svg>
