<svg xmlns="http://www.w3.org/2000/svg" width="32" height="32" version="1.1" viewBox="0 0 32 32"><title>laos</title><path fill="#ff4b55" d="M25 0h-18c-3.781 0-6.862 2.998-6.995 6.747h31.99c-0.133-3.749-3.214-6.747-6.995-6.747z"/><path fill="#ff4b55" d="M7 32h18c3.781 0 6.862-2.998 6.995-6.747h-31.99c0.133 3.749 3.214 6.747 6.995 6.747z"/><path fill="#41479b" d="M0.005 6.747c-0.003 0.084-0.005 0.168-0.005 0.253v18c0 0.085 0.002 0.169 0.005 0.253h31.99c0.003-0.084 0.005-0.168 0.005-0.253v-18c0-0.085-0.002-0.169-0.005-0.253h-31.99z"/><path fill="#f5f5f5" d="M21.763 16c0 3.183-2.58 5.763-5.763 5.763s-5.763-2.58-5.763-5.763c0-3.183 2.58-5.763 5.763-5.763s5.763 2.58 5.763 5.763z"/></svg>