<svg xmlns="http://www.w3.org/2000/svg" width="32" height="32" version="1.1" viewBox="0 0 32 32"><title>lesotho</title><path fill="#73af00" d="M0 25c0 3.866 3.134 7 7 7h18c3.866 0 7-3.134 7-7v-3.667h-32v3.667z"/><path fill="#41479b" d="M25 0h-18c-3.866 0-7 3.134-7 7v3.667h32v-3.667c0-3.866-3.134-7-7-7z"/><path fill="#f5f5f5" d="M0 10.667h32v10.667h-32v-10.667z"/><path fill="#464655" d="M18.907 17.9l-0.196 0.1c-0.027 0.014-0.055 0.025-0.083 0.038l-1.729-2.184c0.355-0.773 0.566-1.827 0.566-2.306 0-0.788-0.517-1.444-1.197-1.583-0.046-0.103-0.148-0.175-0.268-0.175s-0.222 0.072-0.268 0.175c-0.68 0.139-1.197 0.795-1.197 1.583 0 0.479 0.211 1.534 0.566 2.306l-1.729 2.184c-0.027-0.013-0.056-0.025-0.082-0.038l-0.196-0.1-0.731 1.436 0.196 0.1c0.997 0.507 2.187 0.775 3.44 0.775s2.444-0.268 3.441-0.775l0.196-0.1-0.731-1.436zM17.173 13.547c0 0.356-0.132 1.105-0.378 1.792-0.032 0.090-0.066 0.176-0.099 0.258l-0.255-0.323v-1.141h0.439l-0.586-0.586v-1.275c0.504 0.147 0.879 0.662 0.879 1.275zM15.207 15.339c-0.245-0.687-0.377-1.435-0.377-1.792 0-0.613 0.374-1.128 0.879-1.275v1.275l-0.586 0.586h0.439v1.141l-0.255 0.323c-0.034-0.081-0.067-0.167-0.099-0.258zM13.238 18.59l0.060 0.246-0.215 0.059 0.155-0.305zM12.982 19.15l0.367-0.1 0.068 0.278c-0.148-0.055-0.294-0.113-0.435-0.177zM13.539 18.59c0.167 0.066 0.341 0.124 0.52 0.176l0.053 0.162-0.463 0.114-0.11-0.453zM13.745 19.439l-0.044-0.183 0.479-0.118 0.149 0.455c-0.199-0.043-0.393-0.095-0.583-0.154zM14.396 18.855c0.184 0.043 0.371 0.080 0.562 0.108l0.080 0.142-0.508 0.158-0.133-0.408zM14.657 19.657l-0.060-0.184 0.55-0.171 0.249 0.446c-0.251-0.019-0.497-0.048-0.739-0.090zM15.318 19.006c0.226 0.021 0.454 0.033 0.684 0.033 0.049 0 0.098-0.003 0.146-0.004l0.061 0.094-0.676 0.262-0.215-0.385zM16.001 19.771c-0.087 0-0.173-0.004-0.259-0.006l-0.101-0.18 0.69-0.268 0.28 0.429c-0.201 0.015-0.404 0.025-0.61 0.025zM16.488 19.021c0.232-0.016 0.462-0.042 0.687-0.079l0.066 0.084-0.535 0.329-0.218-0.334zM16.941 19.715l-0.115-0.177 0.551-0.339 0.306 0.392c-0.242 0.053-0.49 0.094-0.742 0.124zM17.498 18.88c0.192-0.041 0.379-0.090 0.561-0.147l0.068 0.088-0.389 0.365-0.24-0.307zM17.996 19.516l-0.122-0.156 0.388-0.364 0.27 0.35c-0.175 0.063-0.353 0.121-0.536 0.17zM18.352 18.633c0.123-0.046 0.245-0.094 0.361-0.147l0.057 0.113-0.187 0.334-0.231-0.299zM18.818 19.237l-0.089-0.115 0.161-0.287 0.155 0.305c-0.074 0.034-0.151 0.065-0.228 0.097z"/></svg>