<svg xmlns="http://www.w3.org/2000/svg" width="32" height="32" version="1.1" viewBox="0 0 32 32"><title>liberia</title><path fill="#ff4b55" d="M25 0h-18c-2.339 0-4.409 1.147-5.68 2.909h29.361c-1.271-1.762-3.342-2.909-5.68-2.909z"/><path fill="#f5f5f5" d="M30.68 2.909h-29.361c-0.611 0.847-1.037 1.837-1.22 2.909h31.8c-0.182-1.073-0.609-2.062-1.22-2.909z"/><path fill="#ff4b55" d="M0.1 5.818c-0.065 0.384-0.1 0.779-0.1 1.182v1.727h32v-1.727c0-0.403-0.035-0.798-0.1-1.182h-31.8z"/><path fill="#f5f5f5" d="M0 8.727h32v2.909h-32v-2.909z"/><path fill="#ff4b55" d="M0 13.474h0.842l0 1.072h31.158v-2.909h-32z"/><path fill="#f5f5f5" d="M0.842 13.474h-0.842v3.981h32v-2.909h-31.158z"/><path fill="#ff4b55" d="M0 17.454h32v2.909h-32v-2.909z"/><path fill="#f5f5f5" d="M0 20.364h32v2.909h-32v-2.909z"/><path fill="#ff4b55" d="M0 25c0 0.403 0.035 0.798 0.1 1.182h31.8c0.065-0.384 0.1-0.779 0.1-1.182v-1.727h-32v1.727z"/><path fill="#f5f5f5" d="M1.32 29.091h29.361c0.611-0.847 1.037-1.837 1.22-2.909h-31.8c0.182 1.073 0.609 2.062 1.22 2.909z"/><path fill="#ff4b55" d="M7 32h18c2.339 0 4.409-1.147 5.68-2.909h-29.361c1.271 1.762 3.342 2.909 5.68 2.909z"/><path fill="#41479b" d="M14.316 0h-7.316c-3.866 0-7 3.134-7 7v7.545h14.316v-14.545z"/><path fill="#f5f5f5" d="M6.917 3.764l-0.804 2.411-2.541 0.020c-0.244 0.002-0.345 0.313-0.149 0.458l2.044 1.51-0.766 2.423c-0.074 0.232 0.191 0.425 0.389 0.283l2.067-1.478 2.067 1.478c0.198 0.142 0.463-0.050 0.389-0.283l-0.767-2.423 2.044-1.51c0.196-0.145 0.095-0.456-0.149-0.458l-2.541-0.020-0.804-2.411c-0.077-0.231-0.404-0.231-0.481-0z"/></svg>