<svg xmlns="http://www.w3.org/2000/svg" width="32" height="32" version="1.1" viewBox="0 0 32 32"><title>madeira</title><path fill="#41479b" d="M25 0h-3.667v32h3.667c3.866 0 7-3.134 7-7v-18c0-3.866-3.134-7-7-7z"/><path fill="#ffe15a" d="M10.667 0h10.667v32h-10.667v-32z"/><path fill="#41479b" d="M7 0c-3.866 0-7 3.134-7 7v18c0 3.866 3.134 7 7 7h3.667v-32h-3.667z"/><path fill="#ff4b55" d="M18.759 14.621h-1.379v-1.379l0.828-1.103h-4.414l0.828 1.103v1.379h-1.379l-1.103-0.828v4.414l1.103-0.828h1.379v1.379l-0.828 1.103h4.414l-0.828-1.103v-1.379h1.379l1.103 0.828v-4.414z"/><path fill="#f5f5f5" d="M18.759 15.448h-2.207v-2.207h-1.104v2.207h-2.207v1.103h2.207v2.207h1.104v-2.207h2.207z"/></svg>