<!-- Generated by IcoMoon.io -->
<svg version="1.1" xmlns="http://www.w3.org/2000/svg" width="32" height="32" viewBox="0 0 32 32">
<title>maldives</title>
<path fill="#ff4b55" d="M25 0h-18c-3.866 0-7 3.134-7 7v18c0 3.866 3.134 7 7 7h18c3.866 0 7-3.134 7-7v-18c0-3.866-3.134-7-7-7z"></path>
<path fill="#73af00" d="M25.263 6.737v18.526h-18.526v-18.526h18.526z"></path>
<path fill="#f5f5f5" d="M14.319 16.003c0-3.188 2.172-5.859 5.112-6.632 0.098-0.026 0.091-0.167-0.009-0.18-0.267-0.034-0.538-0.054-0.814-0.054-3.795 0-6.868 3.072-6.868 6.867 0 3.778 3.072 6.858 6.868 6.858 0.276 0 0.548-0.020 0.815-0.054 0.1-0.013 0.107-0.154 0.010-0.18-2.941-0.775-5.113-3.449-5.113-6.624z"></path>
</svg>
