<!-- Generated by IcoMoon.io -->
<svg version="1.1" xmlns="http://www.w3.org/2000/svg" width="32" height="32" viewBox="0 0 32 32">
<title>malta</title>
<path fill="#ff4b55" d="M25 0h-9v32h9c3.866 0 7-3.134 7-7v-18c0-3.866-3.134-7-7-7z"></path>
<path fill="#f5f5f5" d="M7 0c-3.866 0-7 3.134-7 7v18c0 3.866 3.134 7 7 7h9v-32h-9z"></path>
<path fill="#ff4b55" d="M7.975 2.485v2.253c0.124 0.005 0.262 0.061 0.378 0.176s0.171 0.253 0.176 0.378h2.253v2.246h-2.253c-0.005 0.124-0.061 0.263-0.176 0.378s-0.253 0.171-0.378 0.176v2.253h-2.246v-2.253c-0.124-0.005-0.263-0.061-0.378-0.176s-0.171-0.253-0.176-0.378h-2.253v-2.246h2.253c0.005-0.124 0.061-0.263 0.176-0.378s0.253-0.171 0.378-0.176v-2.253h2.246zM8.255 2.204h-2.807v2.313c-0.107 0.044-0.208 0.111-0.295 0.199s-0.155 0.188-0.199 0.295h-2.313v2.807h2.313c0.044 0.107 0.111 0.208 0.199 0.295s0.188 0.155 0.295 0.199v2.313h2.807v-2.313c0.107-0.044 0.208-0.111 0.295-0.199s0.155-0.188 0.199-0.295h2.313v-2.807h-2.313c-0.044-0.107-0.111-0.208-0.199-0.295s-0.188-0.155-0.295-0.199v-2.313z"></path>
<path fill="#cdcdcd" d="M10.782 5.292h-2.807v-2.807h-2.246v2.807h-2.807v2.246h2.807v2.807h2.246v-2.807h2.807z"></path>
<path fill="#b4a08c" d="M7.975 6.414c0 0.62-0.503 1.123-1.123 1.123s-1.123-0.503-1.123-1.123c0-0.62 0.503-1.123 1.123-1.123s1.123 0.503 1.123 1.123z"></path>
<path fill="#b4a08c" d="M5.246 7.315c0.136-0.136 0.405-0.089 0.6 0.106s0.242 0.464 0.106 0.6c-0.136 0.136-0.405 0.089-0.6-0.106s-0.242-0.464-0.106-0.6z"></path>
<path fill="#b4a08c" d="M8.458 7.314c0.136 0.136 0.089 0.405-0.106 0.6s-0.464 0.242-0.6 0.106c-0.136-0.136-0.089-0.405 0.106-0.6s0.464-0.242 0.6-0.106z"></path>
<path fill="#b4a08c" d="M8.458 5.514c-0.136 0.136-0.405 0.089-0.6-0.106s-0.242-0.464-0.106-0.6c0.136-0.136 0.405-0.089 0.6 0.106s0.242 0.464 0.106 0.6z"></path>
<path fill="#b4a08c" d="M5.246 5.514c-0.136-0.136-0.089-0.405 0.106-0.6s0.464-0.242 0.6-0.106c0.136 0.136 0.089 0.405-0.106 0.6s-0.464 0.242-0.6 0.106z"></path>
<path fill="#b4a08c" d="M6.852 7.952c-0.848 0-1.537-0.689-1.537-1.537s0.689-1.537 1.537-1.537 1.537 0.689 1.537 1.537-0.689 1.537-1.537 1.537zM6.852 5.018c-0.77 0-1.397 0.627-1.397 1.397s0.627 1.397 1.397 1.397 1.397-0.627 1.397-1.397-0.627-1.397-1.397-1.397z"></path>
</svg>
