<svg xmlns="http://www.w3.org/2000/svg" width="32" height="32" version="1.1" viewBox="0 0 32 32"><title>marshall-island</title><path fill="#41479b" d="M25 0h-18c-3.866 0-7 3.134-7 7v18c0 3.866 3.134 7 7 7h18c3.866 0 7-3.134 7-7v-18c0-3.866-3.134-7-7-7z"/><path fill="#f5f5f5" d="M1.827 29.716c0.222 0.243 0.46 0.47 0.713 0.68l29.46-18.606v-4.79c0-0.355-0.027-0.703-0.078-1.044l-30.096 23.76z"/><path fill="#ff9b55" d="M29.894 1.996l-28.585 27.080c0.16 0.223 0.333 0.437 0.518 0.64l30.096-23.76c-0.231-1.542-0.964-2.92-2.029-3.961z"/><path fill="#f5f5f5" d="M11.026 9.178l3.571-0.446-3.571-0.446 1.81-1.11-2.252 0.551 1.37-1.87-1.87 1.37 0.551-2.252-1.11 1.81-0.446-3.571-0.446 3.571-1.11-1.81 0.551 2.252-1.87-1.37 1.37 1.87-2.252-0.551 1.81 1.11-3.571 0.446 3.571 0.446-1.81 1.11 2.252-0.551-1.37 1.87 1.87-1.37-0.551 2.252 1.11-1.81 0.446 3.571 0.446-3.571 1.11 1.81-0.551-2.252 1.87 1.37-1.37-1.87 2.252 0.551z"/></svg>