<!-- Generated by IcoMoon.io -->
<svg version="1.1" xmlns="http://www.w3.org/2000/svg" width="32" height="32" viewBox="0 0 32 32">
<title>martinique</title>
<path fill="#41479b" d="M32 25v-18c0-3.866-3.134-7-7-7h-18c-3.866 0-6.999 3.133-7 6.999v18.002c0.001 3.865 3.134 6.999 7 6.999h18c3.866 0 7-3.134 7-7z"></path>
<path fill="#f5f5f5" d="M32 14.897h-14.897v-14.897h-2.207v14.897h-14.897v2.207h14.897v14.897h2.207v-14.897h14.897z"></path>
<path fill="#f5f5f5" d="M10.776 10.080c-0.016-0.094-0.051-0.205-0.096-0.277-0.089-0.124-0.193-0.21-0.293-0.264-0.79-0.363-1.451-0.292-2.082-0.294-0.623 0.016-1.206 0.124-1.68 0.227-0.128 0.026-0.24 0.045-0.359 0.068 0.059-0.122 0.275-0.274 0.565-0.366 0.708-0.242 1.517-0.339 2.312-0.494 0.201-0.039 0.404-0.085 0.613-0.145 0.112-0.038 0.207-0.068 0.339-0.13 0.085-0.048 0.168-0.108 0.24-0.173 0.076-0.068 0.070-0.088 0.109-0.134 0.181-0.344 0.010-0.588-0.134-0.716-0.138-0.113-0.254-0.158-0.365-0.203-0.215-0.075-0.414-0.123-0.606-0.163-0.37-0.074-0.734-0.147-1.090-0.218-0.169-0.039-0.333-0.083-0.477-0.135-0.127-0.034-0.306-0.159-0.279-0.125-0.327-0.028 0.448-0.393 1.008-0.597 0.149-0.066 0.296-0.132 0.448-0.225 0.149-0.098 0.302-0.182 0.467-0.457 0.032-0.057 0.031-0.071 0.048-0.108l0.019-0.047c0.041-0.146 0.018-0.107 0.028-0.17 0.019-0.153-0.041-0.317-0.136-0.454-0.194-0.21-0.388-0.27-0.531-0.311-0.594-0.141-1.021-0.102-1.393-0.101-0.704 0.033-1.107 0.052-1.107 0.052l-0.027 0.001c-0.001 0-0.002 0-0.002 0-0.225 0.013-0.397 0.206-0.384 0.431 0.001 0.022 0.012 0.040 0.016 0.061-0.319 0.088-0.823 0.178-1.323 0.060-0.076-0.018-0.146 0.028-0.164 0.101s0.028 0.147 0.101 0.164c0.196 0.046 0.391 0.064 0.576 0.064 0.394 0 0.731-0.080 0.961-0.151 0.074 0.055 0.164 0.090 0.264 0.084 0 0 0.407-0.024 1.118-0.065 0.333-0.012 0.781-0.030 1.15 0.057 0.031 0.005 0.047 0.014 0.067 0.023 0.003-0.033-0.060 0.060-0.157 0.107-0.095 0.061-0.218 0.12-0.347 0.178-0.262 0.119-0.563 0.221-0.896 0.4-0.161 0.095-0.36 0.191-0.525 0.473-0.077 0.131-0.114 0.342-0.073 0.491l0.012 0.061 0.007 0.030 0.004 0.015c-0.026-0.053 0.039 0.090 0.034 0.077l0.033 0.056c0.030 0.042 0.025 0.060 0.096 0.133 0.057 0.062 0.121 0.121 0.188 0.172 0.058 0.040 0.101 0.059 0.154 0.088 0.103 0.061 0.197 0.089 0.294 0.127 0.192 0.068 0.38 0.114 0.567 0.155 0.361 0.068 0.73 0.138 1.106 0.208 0.158 0.030 0.305 0.069 0.441 0.111-0.174 0.063-0.419 0.126-0.629 0.167-0.766 0.162-1.578 0.259-2.404 0.55-0.207 0.079-0.419 0.173-0.626 0.332-0.196 0.148-0.401 0.444-0.375 0.768-0.070 0.010-0.151 0.024-0.215 0.031-0.701 0.093-0.995-0.031-0.976-0.034-0.091-0.054-0.209-0.024-0.263 0.068s-0.024 0.209 0.068 0.263c0 0 0.12 0.082 0.335 0.129 0.213 0.048 0.514 0.070 0.879 0.042 0.101-0.007 0.219-0.022 0.329-0.034 0.077 0.11 0.166 0.232 0.249 0.291 0.193 0.162 0.397 0.265 0.601 0.356 0.82 0.317 1.64 0.384 2.439 0.352 0.401-0.030 0.796-0.077 1.202-0.258 0.189-0.088 0.449-0.227 0.529-0.629-0-0.051 0.008-0.075 0.001-0.148zM10.186 10.207c-0.010-0.059-0.043 0.075-0.196 0.112-0.264 0.116-0.623 0.169-0.977 0.187-0.713 0.023-1.492-0.060-2.16-0.331-0.105-0.049-0.191-0.11-0.281-0.168 0.050-0.008 0.092-0.013 0.143-0.021 0.496-0.079 1.013-0.172 1.608-0.182 0.566-0.010 1.286-0.002 1.765 0.235 0.056 0.030 0.080 0.061 0.098 0.080 0 0-0.016-0.019 0.002-0.031 0.008 0.012-0.002 0.080-0.002 0.117z"></path>
<path fill="#f5f5f5" d="M27.879 10.080c-0.016-0.094-0.051-0.205-0.096-0.277-0.089-0.124-0.193-0.21-0.293-0.264-0.79-0.363-1.451-0.292-2.082-0.294-0.623 0.016-1.206 0.124-1.68 0.227-0.128 0.026-0.24 0.045-0.359 0.068 0.059-0.122 0.275-0.274 0.565-0.366 0.708-0.242 1.517-0.339 2.312-0.494 0.201-0.039 0.404-0.085 0.613-0.145 0.112-0.038 0.207-0.068 0.339-0.13 0.085-0.048 0.168-0.108 0.24-0.173 0.076-0.068 0.070-0.088 0.109-0.134 0.18-0.344 0.010-0.588-0.134-0.716-0.138-0.113-0.254-0.158-0.365-0.203-0.215-0.075-0.414-0.123-0.606-0.163-0.37-0.074-0.734-0.147-1.090-0.218-0.169-0.039-0.333-0.083-0.477-0.135-0.127-0.034-0.306-0.159-0.279-0.125-0.327-0.028 0.448-0.393 1.008-0.597 0.149-0.066 0.296-0.132 0.448-0.225 0.149-0.098 0.302-0.182 0.467-0.457 0.032-0.057 0.031-0.071 0.048-0.108l0.019-0.047c0.041-0.146 0.018-0.107 0.028-0.17 0.019-0.153-0.041-0.317-0.136-0.454-0.194-0.21-0.388-0.27-0.531-0.311-0.594-0.141-1.021-0.102-1.393-0.101-0.704 0.033-1.107 0.052-1.107 0.052l-0.027 0.001c-0.001 0-0.002 0-0.002 0-0.225 0.013-0.397 0.206-0.384 0.431 0.001 0.022 0.012 0.040 0.016 0.061-0.319 0.088-0.823 0.178-1.323 0.060-0.076-0.018-0.146 0.028-0.164 0.101s0.028 0.147 0.101 0.164c0.196 0.046 0.391 0.064 0.576 0.064 0.394 0 0.731-0.080 0.961-0.151 0.074 0.055 0.164 0.090 0.264 0.084 0 0 0.407-0.024 1.118-0.065 0.333-0.012 0.781-0.030 1.15 0.057 0.031 0.005 0.047 0.014 0.067 0.023 0.003-0.033-0.060 0.060-0.157 0.107-0.095 0.061-0.218 0.12-0.347 0.178-0.262 0.119-0.563 0.221-0.896 0.4-0.161 0.095-0.36 0.191-0.525 0.473-0.077 0.131-0.114 0.342-0.073 0.491l0.012 0.061 0.007 0.030 0.004 0.015c-0.026-0.053 0.039 0.090 0.034 0.077l0.033 0.056c0.030 0.042 0.025 0.060 0.096 0.133 0.057 0.062 0.121 0.121 0.188 0.172 0.058 0.040 0.102 0.059 0.154 0.088 0.103 0.061 0.197 0.089 0.294 0.127 0.192 0.068 0.38 0.114 0.567 0.155 0.361 0.068 0.73 0.138 1.106 0.208 0.157 0.030 0.305 0.069 0.441 0.111-0.174 0.063-0.419 0.126-0.629 0.167-0.766 0.162-1.578 0.259-2.404 0.55-0.207 0.079-0.419 0.173-0.626 0.332-0.196 0.148-0.401 0.444-0.375 0.768-0.070 0.010-0.151 0.024-0.215 0.031-0.701 0.093-0.995-0.031-0.976-0.034-0.091-0.054-0.209-0.024-0.263 0.068s-0.024 0.209 0.068 0.263c0 0 0.12 0.082 0.335 0.129 0.213 0.048 0.514 0.070 0.879 0.042 0.101-0.007 0.219-0.022 0.329-0.034 0.077 0.11 0.166 0.232 0.249 0.291 0.193 0.162 0.398 0.265 0.601 0.356 0.82 0.317 1.64 0.384 2.439 0.352 0.401-0.030 0.796-0.077 1.202-0.258 0.189-0.088 0.449-0.227 0.529-0.629-0-0.051 0.009-0.075 0.001-0.148zM27.289 10.207c-0.010-0.059-0.043 0.075-0.196 0.112-0.264 0.116-0.623 0.169-0.977 0.187-0.713 0.023-1.492-0.060-2.16-0.331-0.105-0.049-0.191-0.11-0.281-0.168 0.049-0.008 0.092-0.013 0.143-0.021 0.496-0.079 1.013-0.172 1.607-0.182 0.566-0.010 1.286-0.002 1.765 0.235 0.056 0.030 0.080 0.061 0.098 0.080 0 0-0.016-0.019 0.002-0.031 0.008 0.012-0.002 0.080-0.002 0.117z"></path>
<path fill="#f5f5f5" d="M10.776 26.896c-0.016-0.094-0.051-0.205-0.096-0.277-0.089-0.124-0.193-0.21-0.293-0.264-0.79-0.363-1.451-0.292-2.082-0.294-0.623 0.016-1.206 0.124-1.68 0.227-0.128 0.026-0.24 0.045-0.359 0.068 0.059-0.122 0.275-0.274 0.565-0.366 0.708-0.242 1.517-0.339 2.312-0.494 0.201-0.039 0.404-0.085 0.613-0.145 0.112-0.038 0.207-0.068 0.339-0.13 0.085-0.048 0.168-0.108 0.24-0.173 0.076-0.068 0.070-0.087 0.109-0.134 0.181-0.344 0.010-0.588-0.134-0.716-0.138-0.113-0.254-0.158-0.365-0.203-0.215-0.075-0.414-0.123-0.606-0.163-0.37-0.074-0.734-0.147-1.090-0.218-0.169-0.039-0.333-0.083-0.477-0.135-0.127-0.034-0.306-0.159-0.279-0.125-0.327-0.028 0.448-0.393 1.008-0.597 0.149-0.066 0.296-0.132 0.448-0.225 0.149-0.098 0.302-0.182 0.467-0.456 0.032-0.057 0.031-0.071 0.048-0.108l0.019-0.047c0.041-0.146 0.018-0.107 0.028-0.17 0.019-0.153-0.041-0.317-0.136-0.454-0.194-0.21-0.388-0.27-0.531-0.311-0.594-0.141-1.021-0.102-1.393-0.101-0.704 0.033-1.107 0.052-1.107 0.052l-0.027 0.001c-0.001 0-0.002 0-0.002 0-0.225 0.013-0.397 0.206-0.384 0.431 0.001 0.022 0.012 0.040 0.016 0.061-0.319 0.088-0.823 0.178-1.323 0.060-0.076-0.018-0.146 0.028-0.164 0.101s0.028 0.147 0.101 0.164c0.196 0.046 0.391 0.064 0.576 0.064 0.394 0 0.731-0.080 0.961-0.151 0.074 0.055 0.164 0.090 0.264 0.084 0 0 0.407-0.024 1.118-0.065 0.333-0.012 0.781-0.030 1.15 0.057 0.031 0.005 0.047 0.014 0.067 0.023 0.003-0.033-0.060 0.060-0.157 0.107-0.095 0.061-0.218 0.12-0.347 0.178-0.262 0.119-0.563 0.221-0.896 0.4-0.161 0.095-0.36 0.191-0.525 0.473-0.077 0.131-0.114 0.342-0.073 0.491l0.012 0.061 0.007 0.030 0.004 0.015c-0.026-0.053 0.039 0.090 0.034 0.077l0.033 0.055c0.030 0.042 0.025 0.060 0.096 0.134 0.057 0.062 0.121 0.121 0.188 0.172 0.058 0.040 0.101 0.059 0.154 0.088 0.103 0.061 0.197 0.089 0.294 0.127 0.192 0.068 0.38 0.114 0.567 0.155 0.361 0.068 0.73 0.137 1.106 0.208 0.158 0.030 0.305 0.069 0.441 0.111-0.174 0.063-0.419 0.126-0.629 0.167-0.766 0.162-1.578 0.259-2.404 0.549-0.207 0.079-0.419 0.173-0.626 0.332-0.196 0.148-0.401 0.444-0.375 0.768-0.070 0.010-0.151 0.024-0.215 0.031-0.701 0.093-0.995-0.031-0.976-0.034-0.091-0.054-0.209-0.024-0.263 0.068s-0.024 0.209 0.068 0.263c0 0 0.12 0.082 0.335 0.129 0.213 0.048 0.514 0.070 0.879 0.042 0.101-0.007 0.219-0.022 0.329-0.034 0.077 0.11 0.166 0.232 0.249 0.291 0.193 0.162 0.397 0.265 0.601 0.356 0.82 0.317 1.64 0.384 2.439 0.352 0.401-0.030 0.796-0.077 1.202-0.258 0.189-0.088 0.449-0.227 0.529-0.629-0-0.051 0.008-0.074 0.001-0.148zM10.186 27.022c-0.010-0.059-0.043 0.075-0.196 0.112-0.264 0.116-0.623 0.169-0.977 0.187-0.713 0.023-1.492-0.060-2.16-0.331-0.105-0.049-0.191-0.11-0.281-0.168 0.050-0.008 0.092-0.013 0.143-0.021 0.496-0.079 1.013-0.172 1.608-0.182 0.566-0.010 1.286-0.003 1.765 0.235 0.056 0.030 0.080 0.061 0.098 0.080 0 0-0.016-0.019 0.002-0.031 0.008 0.012-0.002 0.080-0.002 0.117z"></path>
<path fill="#f5f5f5" d="M27.879 26.896c-0.016-0.094-0.051-0.205-0.096-0.277-0.089-0.124-0.193-0.21-0.293-0.264-0.79-0.363-1.451-0.292-2.082-0.294-0.623 0.016-1.206 0.124-1.68 0.227-0.128 0.026-0.24 0.045-0.359 0.068 0.059-0.122 0.275-0.274 0.565-0.366 0.708-0.242 1.517-0.339 2.312-0.494 0.201-0.039 0.404-0.085 0.613-0.145 0.112-0.038 0.207-0.068 0.339-0.13 0.085-0.048 0.168-0.108 0.24-0.173 0.076-0.068 0.070-0.087 0.109-0.134 0.18-0.344 0.010-0.588-0.134-0.716-0.138-0.113-0.254-0.158-0.365-0.203-0.215-0.075-0.414-0.123-0.606-0.163-0.37-0.074-0.734-0.147-1.090-0.218-0.169-0.039-0.333-0.083-0.477-0.135-0.127-0.034-0.306-0.159-0.279-0.125-0.327-0.028 0.448-0.393 1.008-0.597 0.149-0.066 0.296-0.132 0.448-0.225 0.149-0.098 0.302-0.182 0.467-0.456 0.032-0.057 0.031-0.071 0.048-0.108l0.019-0.047c0.041-0.146 0.018-0.107 0.028-0.17 0.019-0.153-0.041-0.317-0.136-0.454-0.194-0.21-0.388-0.27-0.531-0.311-0.594-0.141-1.021-0.102-1.393-0.101-0.704 0.033-1.107 0.052-1.107 0.052l-0.027 0.001c-0.001 0-0.002 0-0.002 0-0.225 0.013-0.397 0.206-0.384 0.431 0.001 0.022 0.012 0.040 0.016 0.061-0.319 0.088-0.823 0.178-1.323 0.060-0.076-0.018-0.146 0.028-0.164 0.101s0.028 0.147 0.101 0.164c0.196 0.046 0.391 0.064 0.576 0.064 0.394 0 0.731-0.080 0.961-0.151 0.074 0.055 0.164 0.090 0.264 0.084 0 0 0.407-0.024 1.118-0.065 0.333-0.012 0.781-0.030 1.15 0.057 0.031 0.005 0.047 0.014 0.067 0.023 0.003-0.033-0.060 0.060-0.157 0.107-0.095 0.061-0.218 0.12-0.347 0.178-0.262 0.119-0.563 0.221-0.896 0.4-0.161 0.095-0.36 0.191-0.525 0.473-0.077 0.131-0.114 0.342-0.073 0.491l0.012 0.061 0.007 0.030 0.004 0.015c-0.026-0.053 0.039 0.090 0.034 0.077l0.033 0.055c0.030 0.042 0.025 0.060 0.096 0.134 0.057 0.062 0.121 0.121 0.188 0.172 0.058 0.040 0.102 0.059 0.154 0.088 0.103 0.061 0.197 0.089 0.294 0.127 0.192 0.068 0.38 0.114 0.567 0.155 0.361 0.068 0.73 0.137 1.106 0.208 0.157 0.030 0.305 0.069 0.441 0.111-0.174 0.063-0.419 0.126-0.629 0.167-0.766 0.162-1.578 0.259-2.404 0.549-0.207 0.079-0.419 0.173-0.626 0.332-0.196 0.148-0.401 0.444-0.375 0.768-0.070 0.010-0.151 0.024-0.215 0.031-0.701 0.093-0.995-0.031-0.976-0.034-0.091-0.054-0.209-0.024-0.263 0.068s-0.024 0.209 0.068 0.263c0 0 0.12 0.082 0.335 0.129 0.213 0.048 0.514 0.070 0.879 0.042 0.101-0.007 0.219-0.022 0.329-0.034 0.077 0.11 0.166 0.232 0.249 0.291 0.193 0.162 0.398 0.265 0.601 0.356 0.82 0.317 1.64 0.384 2.439 0.352 0.401-0.030 0.796-0.077 1.202-0.258 0.189-0.088 0.449-0.227 0.529-0.629-0-0.051 0.009-0.074 0.001-0.148zM27.289 27.022c-0.010-0.059-0.043 0.075-0.196 0.112-0.264 0.116-0.623 0.169-0.977 0.187-0.713 0.023-1.492-0.060-2.16-0.331-0.105-0.049-0.191-0.11-0.281-0.168 0.049-0.008 0.092-0.013 0.143-0.021 0.496-0.079 1.013-0.172 1.607-0.182 0.566-0.010 1.286-0.003 1.765 0.235 0.056 0.030 0.080 0.061 0.098 0.080 0 0-0.016-0.019 0.002-0.031 0.008 0.012-0.002 0.080-0.002 0.117z"></path>
</svg>
