<!-- Generated by IcoMoon.io -->
<svg version="1.1" xmlns="http://www.w3.org/2000/svg" width="32" height="32" viewBox="0 0 32 32">
<title>micronesia</title>
<path fill="#82afff" d="M25 0h-18c-3.866 0-7 3.134-7 7v18c0 3.866 3.134 7 7 7h18c3.866 0 7-3.134 7-7v-18c0-3.866-3.134-7-7-7z"></path>
<path fill="#f5f5f5" d="M15.927 8.536l-0.425 1.274-1.343 0.010c-0.074 0.001-0.104 0.095-0.045 0.138l1.081 0.798-0.405 1.281c-0.022 0.070 0.058 0.128 0.118 0.085l1.093-0.781 1.093 0.781c0.060 0.043 0.14-0.015 0.118-0.085l-0.405-1.281 1.081-0.798c0.059-0.044 0.029-0.138-0.045-0.138l-1.343-0.010-0.425-1.274c-0.023-0.070-0.122-0.070-0.146 0z"></path>
<path fill="#f5f5f5" d="M15.927 19.914l-0.425 1.274-1.343 0.010c-0.074 0.001-0.104 0.095-0.045 0.138l1.081 0.798-0.405 1.281c-0.022 0.070 0.058 0.128 0.118 0.085l1.093-0.781 1.093 0.781c0.060 0.043 0.14-0.015 0.118-0.085l-0.405-1.281 1.081-0.798c0.059-0.044 0.029-0.138-0.045-0.138l-1.343-0.010-0.425-1.274c-0.023-0.070-0.122-0.070-0.146 0z"></path>
<path fill="#f5f5f5" d="M23.464 15.927l-1.274-0.425-0.010-1.343c-0.001-0.074-0.095-0.104-0.138-0.045l-0.798 1.081-1.281-0.405c-0.070-0.022-0.128 0.058-0.085 0.118l0.781 1.093-0.781 1.093c-0.043 0.060 0.015 0.14 0.085 0.118l1.281-0.405 0.798 1.081c0.044 0.059 0.138 0.029 0.138-0.045l0.010-1.343 1.274-0.425c0.070-0.023 0.070-0.122 0-0.146z"></path>
<path fill="#f5f5f5" d="M8.536 15.927l1.274-0.425 0.010-1.343c0.001-0.074 0.095-0.104 0.138-0.045l0.798 1.081 1.281-0.405c0.070-0.022 0.128 0.058 0.085 0.118l-0.781 1.093 0.781 1.093c0.043 0.060-0.015 0.14-0.085 0.118l-1.281-0.405-0.798 1.081c-0.044 0.059-0.138 0.029-0.138-0.045l-0.010-1.343-1.274-0.425c-0.070-0.023-0.070-0.122 0-0.146z"></path>
</svg>
