<svg xmlns="http://www.w3.org/2000/svg" width="32" height="32" version="1.1" viewBox="0 0 32 32"><title>moldova</title><path fill="#ff4b55" d="M25 0h-3.667v32h3.667c3.866 0 7-3.134 7-7v-18c0-3.866-3.134-7-7-7z"/><path fill="#ffe15a" d="M10.667 0h10.667v32h-10.667v-32z"/><path fill="#41479b" d="M7 0c-3.866 0-7 3.134-7 7v18c0 3.866 3.134 7 7 7h3.667v-32h-3.667z"/><path fill="#ffcd5a" d="M18.229 19.558l-0.274 0.224-1.251-1.534 0.274-0.224 1.251 1.534z"/><path fill="#ffbe5a" d="M17.666 18.587l-0.549 0.447-0.55-0.675 0.549-0.447 0.55 0.675z"/><path fill="#ffcd5a" d="M15.174 18.024l0.274 0.224-1.251 1.534-0.274-0.224 1.251-1.534z"/><path fill="#ffbe5a" d="M15.037 17.912l0.549 0.447-0.55 0.675-0.549-0.447 0.55-0.675z"/><path fill="#ffe15a" d="M15.634 18.599l-0.885 1.77 1.239 0.885v-2.479z"/><path fill="#ffcd5a" d="M16.342 18.599l0.885 1.77-1.239 0.885v-2.479z"/><path fill="#ffbe5a" d="M13.509 18.599v-4.603h0.531c0 0 0 3.010 0 3.541s-0.531 1.062-0.531 1.062z"/><path fill="#ffcd5a" d="M13.155 19.484v-5.488h0.531c0 0 0 3.895 0 4.426s-0.531 1.062-0.531 1.062z"/><path fill="#ffe15a" d="M12.801 20.192v-6.197h0.531c0 0 0 4.603 0 5.134s-0.531 1.062-0.531 1.062z"/><path fill="#ff4b55" d="M14.040 14.173c0 0 0 2.523 0 3.364 0 0.885 1.284 0.767 1.947 1.416 0.664-0.649 1.948-0.531 1.948-1.416 0-0.841 0-3.364 0-3.364h-3.895z"/><path fill="#41479b" d="M14.040 16.121c0 0.56 0 1.104 0 1.416 0 0.885 1.284 0.767 1.947 1.416 0.664-0.649 1.948-0.531 1.948-1.416 0-0.312 0-0.856 0-1.416h-3.895z"/><path fill="#ffe15a" d="M15.988 18.422l-0.531-0.354v-0.177l0.177-0.177v-1.062l-0.531-0.354 0.531-0.708h0.177l0.177 0.177 0.177-0.177h0.177l0.531 0.708-0.531 0.354v1.062l0.177 0.177v0.177z"/><path fill="#ffe15a" d="M15.28 14.35c0 0-0.708 0.177-0.708 0.885s0.708 1.062 0.708 1.062l0.354-0.531c-1.062-0.354-0.354-1.416-0.354-1.416z"/><path fill="#ffe15a" d="M16.696 14.35c0 0 0.708 0.177 0.708 0.885s-0.708 1.062-0.708 1.062l-0.354-0.531c1.062-0.354 0.354-1.416 0.354-1.416z"/><path fill="#ffe15a" d="M14.217 16.121l0.354 0.177 0.354-0.177-0.354-0.177z"/><path fill="#ffe15a" d="M17.050 16.121l0.354 0.177 0.354-0.177-0.354-0.177z"/><path fill="#ffe15a" d="M15.988 14.439l0.129 0.132 0.184-0.002-0.002 0.184 0.132 0.129-0.132 0.129 0.002 0.184-0.184-0.002-0.129 0.132-0.129-0.132-0.184 0.002 0.002-0.184-0.132-0.129 0.132-0.129-0.002-0.184 0.184 0.002z"/><path fill="#ffe15a" d="M14.786 16.894l0.128 0.142 0.178-0.070c0.092-0.036 0.178 0.064 0.129 0.149l-0.096 0.165 0.122 0.147c0.063 0.076-0.005 0.189-0.102 0.169l-0.187-0.040-0.102 0.161c-0.053 0.084-0.181 0.053-0.192-0.045l-0.020-0.19-0.185-0.047c-0.096-0.025-0.107-0.156-0.016-0.196l0.175-0.078-0.012-0.191c-0.006-0.099 0.115-0.15 0.182-0.076z"/><path fill="#ffe15a" d="M17.144 17.297c0.039-0.201 0.205-0.344 0.399-0.365-0.040-0.021-0.082-0.039-0.129-0.048-0.248-0.048-0.488 0.114-0.536 0.362s0.114 0.488 0.362 0.536c0.047 0.009 0.092 0.008 0.137 0.003-0.172-0.092-0.273-0.287-0.233-0.488z"/><path fill="#ffe15a" d="M15.28 14.173l0.354-1.77-0.708-0.531 0.177-0.177h0.354c0 0 0.177-0.177 0.531-0.177s0.708 0.177 0.708 0.708 0.177 1.947 0.177 1.947h-1.593z"/><path fill="#ffaa5a" d="M14.040 13.465c-0.391 0-0.708 0.317-0.708 0.708h1.416c0-0.391-0.317-0.708-0.708-0.708z"/><path fill="#ffbe5a" d="M13.863 14.173h-1.062v-1.178c0-0.229 0.186-0.415 0.415-0.415h0.232c0.229 0 0.415 0.186 0.415 0.415v1.178h0z"/><path fill="#ffbe5a" d="M18.466 18.599v-4.603h-0.531c0 0 0 3.010 0 3.541s0.531 1.062 0.531 1.062z"/><path fill="#ffcd5a" d="M18.82 19.484v-5.488h-0.531c0 0 0 3.895 0 4.426s0.531 1.062 0.531 1.062z"/><path fill="#ffe15a" d="M19.175 20.192v-6.197h-0.531c0 0 0 4.603 0 5.134s0.531 1.062 0.531 1.062z"/><path fill="#ffaa5a" d="M17.935 13.465c0.391 0 0.708 0.317 0.708 0.708h-1.416c-0-0.391 0.317-0.708 0.708-0.708z"/><path fill="#ffbe5a" d="M18.112 14.173h1.062v-1.178c0-0.229-0.186-0.415-0.415-0.415h-0.232c-0.229 0-0.415 0.186-0.415 0.415v1.178z"/><path fill="#ffaa5a" d="M19.936 16.051l0.227 0.138-2.479 4.071-0.227-0.138 2.479-4.071z"/><path fill="#ffe15a" d="M18.442 19.473l-0.442 0.553-0.432-0.346 0.442-0.553 0.432 0.346z"/><path fill="#ffcd5a" d="M19.858 16.005l0.378 0.23-0.531 0.873-0.378-0.23 0.531-0.873z"/><path fill="#73af00" d="M12.141 16.253l2.499 3.866-0.149 0.096-2.499-3.866 0.149-0.096z"/><path fill="#73af00" d="M13.713 18.087c-0.063 0.072-0.106 0.181-0.116 0.307-0.087-0.088-0.188-0.144-0.281-0.159-0.025 0.091-0.015 0.206 0.030 0.322-0.119-0.042-0.236-0.048-0.328-0.020 0.026 0.131 0.132 0.272 0.295 0.369s0.338 0.123 0.465 0.084l0.036-0.023c0.088-0.1 0.136-0.27 0.114-0.459s-0.107-0.343-0.216-0.421z"/><path fill="#ff4b55" d="M13.974 18.977c0 0.098-0.079 0.177-0.177 0.177s-0.177-0.079-0.177-0.177c0-0.098 0.079-0.177 0.177-0.177s0.177 0.079 0.177 0.177z"/><path fill="#73af00" d="M13.040 17.046c-0.063 0.072-0.106 0.181-0.116 0.307-0.087-0.088-0.188-0.144-0.281-0.159-0.025 0.091-0.015 0.206 0.030 0.322-0.119-0.042-0.236-0.048-0.328-0.020 0.026 0.13 0.132 0.272 0.295 0.369s0.338 0.123 0.465 0.084l0.036-0.023c0.088-0.1 0.136-0.27 0.114-0.459s-0.107-0.343-0.216-0.421z"/><path fill="#ff4b55" d="M13.301 17.937c0 0.098-0.079 0.177-0.177 0.177s-0.177-0.079-0.177-0.177c0-0.098 0.079-0.177 0.177-0.177s0.177 0.079 0.177 0.177z"/><path fill="#73af00" d="M12.368 16.005c-0.063 0.072-0.106 0.181-0.116 0.307-0.087-0.088-0.188-0.144-0.281-0.159-0.025 0.091-0.015 0.206 0.030 0.322-0.119-0.042-0.236-0.048-0.328-0.020 0.026 0.13 0.132 0.272 0.295 0.369s0.338 0.123 0.465 0.084l0.036-0.023c0.088-0.1 0.136-0.27 0.114-0.459s-0.107-0.343-0.216-0.421z"/><path fill="#ff4b55" d="M12.628 16.896c0 0.098-0.079 0.177-0.177 0.177s-0.177-0.079-0.177-0.177c0-0.098 0.079-0.177 0.177-0.177s0.177 0.079 0.177 0.177z"/><path fill="#ffe15a" d="M14.143 19.128l0.442 0.553-0.432 0.346-0.442-0.553 0.432-0.346z"/><path fill="#ffe15a" d="M14.926 11.163h0.177v1.239h-0.177v-1.239z"/><path fill="#ffe15a" d="M14.749 11.341h0.531v0.177h-0.531v-0.177z"/><path fill="#ff875a" d="M14.926 11.871l0.531 0.398v-0.575h-0.354z"/><path fill="#ffaa5a" d="M15.103 11.163v0.177h0.177v0.177h-0.177v0.177h0.354c0 0 0.177-0.177 0.531-0.177s0.708 0.177 0.708 0.708 0.177 1.947 0.177 1.947h0.354c0-0.391 0.317-0.708 0.708-0.708 0.061 0 0.12 0.010 0.177 0.025v-0.379c0-0.293 0.238-0.531 0.531-0.531s0.531 0.238 0.531 0.531v4.189l0.229-0.376-0.076-0.046 0.531-0.873 0.378 0.23-0.531 0.873-0.076-0.046-0.456 0.748v2.382c0 0-0.423-0.424-0.513-0.893-0.065-0.083-0.139-0.189-0.205-0.309l-0.203 0.333 0.188 0.151-0.442 0.553-0.117-0.094-0.2 0.329-0.227-0.138 0.218-0.358-0.106-0.084 0.151-0.188-0.465-0.57-0.137 0.112-0.413-0.507c-0.11 0.044-0.219 0.093-0.323 0.148l0.847 1.693-1.239 0.885-1.239-0.885 0.847-1.693c-0.063-0.033-0.126-0.065-0.191-0.093l-0.368 0.452-0.137-0.112-0.464 0.57 0.151 0.188-0.15 0.12 0.206 0.318-0.149 0.096-0.196-0.303-0.143 0.114-0.442-0.553 0.199-0.159-0.105-0.163c-0.002 0-0.005 0-0.008 0-0.058 0-0.115-0.026-0.148-0.078-0.014-0.022-0.022-0.046-0.026-0.071-0.033-0.002-0.067-0.007-0.102-0.015-0.066 0.121-0.141 0.228-0.206 0.312-0.090 0.469-0.513 0.893-0.513 0.893v-2.258c-0.053-0.017-0.107-0.038-0.161-0.070-0.163-0.097-0.269-0.239-0.295-0.369 0.037-0.012 0.079-0.017 0.123-0.017 0.064 0 0.134 0.012 0.205 0.037-0.023-0.060-0.036-0.119-0.041-0.176l-0.174-0.269c-0.002 0-0.005 0-0.007 0-0.058 0-0.115-0.026-0.148-0.078-0.014-0.022-0.022-0.046-0.026-0.071-0.098-0.006-0.205-0.036-0.309-0.098-0.163-0.097-0.269-0.239-0.295-0.369 0.037-0.012 0.079-0.017 0.123-0.017 0.064 0 0.134 0.012 0.205 0.037-0.044-0.116-0.055-0.23-0.030-0.322 0.093 0.015 0.194 0.071 0.281 0.159 0.011-0.126 0.053-0.235 0.116-0.307 0.108 0.077 0.194 0.232 0.216 0.421 0.014 0.12-0.003 0.23-0.038 0.322 0.021 0.013 0.040 0.030 0.054 0.052 0.035 0.054 0.034 0.12 0.007 0.174l0.174 0.269c0.007 0.004 0.013 0.008 0.020 0.012v-4.145c0-0.293 0.238-0.531 0.531-0.531s0.531 0.238 0.531 0.531v0.379c0.057-0.015 0.116-0.025 0.177-0.025 0.391 0 0.708 0.317 0.708 0.708h0.531l0.354-1.77-0.531-0.398v0.398h-0.177v-0.885h-0.177v-0.177h0.177v-0.177h0.177zM17.945 19.21l0.065-0.082 0.035 0.028 0.285-0.469c-0.025-0.087-0.041-0.176-0.041-0.265 0-0.009 0-0.021 0-0.031-0.154-0.203-0.354-0.528-0.354-0.854 0 0.373-0.229 0.567-0.542 0.716l0.272 0.334-0.137 0.112 0.416 0.51zM14.048 19.204l0.095-0.076 0.065 0.082 0.416-0.51-0.137-0.112 0.225-0.276c-0.378-0.158-0.672-0.351-0.672-0.774 0 0.237-0.106 0.474-0.223 0.663 0.056 0.082 0.098 0.186 0.112 0.307 0.014 0.12-0.003 0.23-0.038 0.322 0.021 0.013 0.040 0.030 0.054 0.052 0.035 0.054 0.034 0.12 0.007 0.174l0.096 0.148zM15.103 11.031h-0.177c-0.073 0-0.133 0.059-0.133 0.133v0.044h-0.044c-0.073 0-0.133 0.059-0.133 0.133v0.177c0 0.073 0.059 0.133 0.133 0.133h0.044v0.752c0 0.073 0.059 0.133 0.133 0.133h0.177c0.073 0 0.133-0.059 0.133-0.133v-0.133l0.252 0.189-0.316 1.582h-0.3c-0.064-0.401-0.412-0.708-0.831-0.708-0.015 0-0.029 0-0.044 0.001v-0.223c0-0.366-0.298-0.664-0.664-0.664s-0.664 0.298-0.664 0.664v3.098c-0.048-0.132-0.126-0.243-0.224-0.312-0.023-0.017-0.050-0.025-0.077-0.025-0.037 0-0.074 0.015-0.1 0.045-0.041 0.046-0.075 0.103-0.1 0.167-0.058-0.032-0.118-0.053-0.177-0.062-0.007-0.001-0.014-0.002-0.021-0.002-0.059 0-0.112 0.040-0.128 0.098-0.016 0.058-0.021 0.121-0.016 0.187-0.010-0-0.021-0.001-0.031-0.001-0.057 0-0.112 0.008-0.162 0.023-0.065 0.020-0.104 0.086-0.091 0.153 0.034 0.174 0.168 0.345 0.357 0.458 0.087 0.052 0.182 0.088 0.279 0.105 0.004 0.007 0.008 0.014 0.013 0.021 0.044 0.067 0.112 0.114 0.19 0.131l0.097 0.15c-0.003-0-0.006-0-0.010-0-0.057 0-0.112 0.008-0.162 0.023-0.065 0.020-0.104 0.086-0.091 0.153 0.034 0.174 0.168 0.345 0.357 0.458 0.030 0.018 0.062 0.034 0.096 0.049v2.166c0 0.054 0.032 0.102 0.082 0.123 0.016 0.007 0.034 0.010 0.051 0.010 0.035 0 0.069-0.014 0.094-0.039 0.018-0.018 0.434-0.44 0.543-0.93 0.045-0.059 0.086-0.118 0.123-0.177 0.043 0.049 0.101 0.083 0.165 0.098l0.006 0.009-0.105 0.084c-0.027 0.022-0.045 0.054-0.049 0.089s0.006 0.070 0.028 0.098l0.442 0.553c0.022 0.027 0.054 0.045 0.089 0.049 0.005 0.001 0.010 0.001 0.015 0.001 0.030 0 0.059-0.010 0.083-0.029l0.028-0.023 0.116 0.18c0.019 0.030 0.049 0.050 0.084 0.058 0.009 0.002 0.019 0.003 0.028 0.003 0.025 0 0.050-0.007 0.072-0.021l0.086-0.055-0.020 0.039c-0.029 0.058-0.012 0.129 0.042 0.167l1.239 0.885c0.023 0.017 0.050 0.025 0.077 0.025s0.054-0.008 0.077-0.025l1.239-0.885c0.053-0.038 0.071-0.109 0.042-0.167l-0.787-1.575c0.033-0.016 0.068-0.031 0.105-0.047l0.351 0.43c0.026 0.032 0.064 0.049 0.103 0.049 0.029 0 0.059-0.010 0.084-0.030l0.034-0.028 0.313 0.384-0.084 0.105c-0.022 0.027-0.032 0.063-0.028 0.098s0.022 0.067 0.049 0.089l0.015 0.012-0.157 0.258c-0.038 0.063-0.018 0.144 0.044 0.182l0.227 0.138c0.021 0.013 0.045 0.019 0.069 0.019 0.011 0 0.021-0.001 0.031-0.004 0.034-0.008 0.064-0.030 0.082-0.060l0.122-0.2c0.024 0.019 0.053 0.029 0.082 0.029 0.039 0 0.078-0.017 0.104-0.050l0.442-0.553c0.016-0.020 0.026-0.044 0.028-0.068 0.144 0.431 0.49 0.782 0.506 0.798 0.025 0.026 0.059 0.039 0.094 0.039 0.017 0 0.034-0.003 0.051-0.010 0.050-0.020 0.082-0.069 0.082-0.123v-2.345l0.371-0.61c0.009 0.002 0.018 0.003 0.027 0.003 0.045 0 0.089-0.023 0.114-0.064l0.531-0.873c0.018-0.030 0.024-0.066 0.016-0.1s-0.030-0.064-0.060-0.082l-0.378-0.23c-0.022-0.013-0.045-0.019-0.069-0.019-0.045 0-0.089 0.023-0.114 0.064l-0.438 0.72v-3.545c0-0.366-0.298-0.664-0.664-0.664s-0.664 0.298-0.664 0.664v0.223c-0.015-0.001-0.030-0.001-0.044-0.001-0.419 0-0.767 0.307-0.831 0.708h-0.114c-0.042-0.349-0.162-1.386-0.162-1.815 0-0.62-0.434-0.841-0.841-0.841-0.301 0-0.495 0.115-0.579 0.177h-0.004c0.005-0.014 0.008-0.029 0.008-0.044v-0.177c0-0.073-0.059-0.133-0.133-0.133h-0.044v-0.044c-0-0.073-0.060-0.133-0.133-0.133v0zM13.972 18.2c0.034-0.060 0.064-0.119 0.089-0.177 0.111 0.148 0.27 0.254 0.439 0.338l-0.116 0.143c-0.022 0.027-0.033 0.062-0.029 0.097s0.021 0.067 0.048 0.089l0.034 0.028-0.237 0.29c-0.014-0.007-0.028-0.011-0.043-0.013-0.005-0.001-0.010-0.001-0.015-0.001-0.013 0-0.026 0.002-0.039 0.006 0.006-0.067-0.010-0.134-0.047-0.191-0.005-0.007-0.009-0.014-0.014-0.020 0.024-0.095 0.030-0.196 0.018-0.297-0.012-0.104-0.043-0.203-0.089-0.292v0zM17.599 18.295c0.117-0.068 0.23-0.155 0.317-0.271 0.068 0.155 0.157 0.296 0.241 0.411 0.001 0.074 0.011 0.15 0.031 0.231l-0.202 0.331c-0.012 0.002-0.023 0.006-0.034 0.011l-0.237-0.29 0.034-0.028c0.027-0.022 0.045-0.054 0.048-0.089s-0.007-0.070-0.029-0.097l-0.17-0.208zM15.036 19.168c0.039 0 0.077-0.017 0.103-0.049l0.224-0.275-0.606 1.212c-0.002-0.003-0.003-0.006-0.005-0.009l-0.14-0.217 0.057-0.045c0.027-0.022 0.045-0.054 0.049-0.089s-0.006-0.070-0.028-0.098l-0.084-0.105 0.313-0.384 0.034 0.028c0.025 0.020 0.054 0.030 0.084 0.030v0zM18.428 19.292l0.029-0.047c0.025 0.037 0.052 0.075 0.080 0.112 0.003 0.011 0.005 0.022 0.008 0.033-0.006-0.007-0.013-0.014-0.020-0.020l-0.097-0.078z"/></svg>