<!-- Generated by IcoMoon.io -->
<svg version="1.1" xmlns="http://www.w3.org/2000/svg" width="32" height="32" viewBox="0 0 32 32">
<title>mongolia</title>
<path fill="#ff4b55" d="M25 0h-3.667v32h3.667c3.866 0 7-3.134 7-7v-18c0-3.866-3.134-7-7-7z"></path>
<path fill="#41479b" d="M10.667 0h10.667v32h-10.667v-32z"></path>
<path fill="#ff4b55" d="M7 0c-3.866 0-7 3.134-7 7v18c0 3.866 3.134 7 7 7h3.667v-32h-3.667z"></path>
<path fill="#f9cf02" d="M5.356 19.149c-0.834 0-1.548-0.502-1.863-1.22-0 0.011-0.003 0.021-0.003 0.032 0 1.031 0.836 1.867 1.867 1.867s1.867-0.836 1.867-1.867c0-0.011-0.003-0.021-0.003-0.032-0.315 0.718-1.030 1.22-1.863 1.22z"></path>
<path fill="#f9cf02" d="M6.713 17.453c0 0.75-0.608 1.358-1.357 1.358s-1.357-0.608-1.357-1.358c0-0.75 0.608-1.358 1.357-1.358s1.357 0.608 1.357 1.358z"></path>
<path fill="#f9cf02" d="M4.507 14.907c0 0.469 0.38 0.848 0.848 0.848s0.848-0.38 0.848-0.848c0-0.339-0.212-0.382-0.212-0.509s0.127-0.297-0.127-0.509c0.127 0.212-0.085 0.255-0.085 0.467s0.085 0.212 0.085 0.382c0 0.094-0.076 0.17-0.17 0.17s-0.17-0.076-0.17-0.17c0-0.17 0.17-0.339 0.17-0.594s-0.042-0.339-0.17-0.552c-0.127-0.212-0.339-0.382-0.17-0.552-0.255 0.085-0.127 0.424-0.127 0.636s-0.17 0.339-0.17 0.594c0 0.255 0.127 0.297 0.127 0.467 0 0.094-0.076 0.17-0.17 0.17s-0.17-0.076-0.17-0.17c0-0.17 0.085-0.17 0.085-0.382s-0.212-0.255-0.085-0.467c-0.255 0.212-0.127 0.382-0.127 0.509s-0.212 0.17-0.212 0.509z"></path>
<path fill="#f9cf02" d="M1.622 20.308v7.865c0 0.077 0.063 0.14 0.14 0.14h1.417c0.077 0 0.14-0.063 0.14-0.14v-7.865c0-0.077-0.063-0.14-0.14-0.14h-1.417c-0.077 0-0.14 0.063-0.14 0.14z"></path>
<path fill="#f9cf02" d="M7.392 20.308v7.865c0 0.077 0.063 0.14 0.14 0.14h1.417c0.077 0 0.14-0.063 0.14-0.14v-7.865c0-0.077-0.063-0.14-0.14-0.14h-1.417c-0.077 0-0.14 0.063-0.14 0.14z"></path>
<path fill="#f9cf02" d="M3.659 21.665v0.399c0 0.077 0.063 0.14 0.14 0.14h3.114c0.077 0 0.14-0.063 0.14-0.14v-0.399c0-0.077-0.063-0.14-0.14-0.14h-3.114c-0.077 0-0.14 0.063-0.14 0.14z"></path>
<path fill="#f9cf02" d="M3.659 26.416v0.399c0 0.077 0.063 0.14 0.14 0.14h3.114c0.077 0 0.14-0.063 0.14-0.14v-0.399c0-0.077-0.063-0.14-0.14-0.14h-3.114c-0.077 0-0.14 0.063-0.14 0.14z"></path>
<path fill="#f9cf02" d="M3.912 20.167h2.888c0.071 0 0.097 0.094 0.036 0.13l-1.372 0.823c-0.067 0.040-0.15 0.040-0.216 0l-1.372-0.823c-0.061-0.037-0.035-0.13 0.036-0.13z"></path>
<path fill="#f9cf02" d="M3.912 27.294h2.888c0.071 0 0.097 0.094 0.036 0.13l-1.372 0.823c-0.067 0.040-0.15 0.040-0.216 0l-1.372-0.823c-0.061-0.037-0.035-0.13 0.036-0.13z"></path>
<path fill="#f9cf02" d="M5.521 22.556c-0.053-0.005-0.105-0.016-0.16-0.016-0.933 0-1.692 0.759-1.692 1.692 0 0.554 0.271 1.041 0.684 1.349 0.048 0.035 0.11-0.016 0.087-0.070-0.050-0.117-0.077-0.246-0.077-0.382 0-0.552 0.45-1 1.002-0.998 0.29 0.001 0.568-0.142 0.697-0.403 0.266-0.538-0.059-1.073-0.54-1.172zM5.361 23.674c-0.187 0-0.338-0.151-0.338-0.338s0.152-0.338 0.338-0.338 0.338 0.151 0.338 0.338c0 0.187-0.152 0.338-0.338 0.338z"></path>
<path fill="#f9cf02" d="M6.37 22.884c-0.048-0.035-0.11 0.016-0.087 0.070 0.050 0.117 0.077 0.246 0.077 0.382 0 0.552-0.45 1-1.002 0.998-0.29-0.001-0.568 0.142-0.697 0.403-0.266 0.538 0.059 1.073 0.54 1.172 0.053 0.005 0.105 0.016 0.16 0.016 0.933 0 1.692-0.759 1.692-1.692 0-0.554-0.271-1.041-0.684-1.349zM5.361 25.468c-0.187 0-0.338-0.151-0.338-0.338s0.152-0.338 0.338-0.338 0.338 0.151 0.338 0.338-0.152 0.338-0.338 0.338z"></path>
</svg>
