<!-- Generated by IcoMoon.io -->
<svg version="1.1" xmlns="http://www.w3.org/2000/svg" width="32" height="32" viewBox="0 0 32 32">
<title>morocco</title>
<path fill="#ff4b55" d="M25 0h-18c-3.866 0-7 3.134-7 7v18c0 3.866 3.134 7 7 7h18c3.866 0 7-3.134 7-7v-18c0-3.866-3.134-7-7-7z"></path>
<path fill="#5a8250" d="M18.833 17.499l4.555-3.342h-5.64l-1.748-5.379-1.748 5.379h-5.64l4.555 3.342-1.734 5.337 4.563-3.262 0.004 0.003 0.004-0.003 4.563 3.262-1.734-5.337zM19.747 15.349l-1.302 0.955-0.31-0.955h1.612zM14.567 17.047l0.552-1.698h1.763l0.552 1.698-1.433 1.051-1.433-1.051zM16 12.637l0.494 1.52h-0.988l0.494-1.52zM12.253 15.349h1.612l-0.31 0.955-1.302-0.955zM13.686 19.759l0.493-1.518 0.804 0.59-1.298 0.928zM17.821 18.242l0.493 1.518-1.298-0.928 0.804-0.59z"></path>
</svg>
