<svg xmlns="http://www.w3.org/2000/svg" width="32" height="32" version="1.1" viewBox="0 0 32 32"><title>mozambique</title><path fill="#5aa587" d="M25 0h-18c-3.866 0-7 3.134-7 7v3.667h32v-3.667c0-3.866-3.134-7-7-7z"/><path fill="#ffe15a" d="M0 25c0 3.866 3.134 7 7 7h18c3.866 0 7-3.134 7-7v-3.667h-32v3.667z"/><path fill="#464655" d="M0 10.667h32v10.667h-32v-10.667z"/><path fill="#f5f5f5" d="M0 9.719h32v1.33h-32v-1.33z"/><path fill="#f5f5f5" d="M0 20.951h32v1.33h-32v-1.33z"/><path fill="#ff4b55" d="M15.27 15.564l-13.239-13.494c-1.255 1.265-2.031 3.007-2.031 4.93v18c0 1.923 0.776 3.665 2.031 4.93l13.239-13.494c0.218-0.223 0.218-0.65-0-0.873z"/><path fill="#ffe15a" d="M6.403 10.522l1.231 3.691 3.891 0.030c0.218 0.002 0.308 0.279 0.133 0.409l-3.13 2.311 1.174 3.71c0.066 0.207-0.171 0.379-0.348 0.253l-3.166-2.263-3.166 2.263c-0.177 0.127-0.413-0.045-0.348-0.253l1.174-3.71-3.13-2.312c-0.175-0.129-0.085-0.407 0.133-0.409l3.891-0.030 1.231-3.691c0.069-0.206 0.361-0.206 0.43 0z"/><path fill="#f5f5f5" d="M5.962 17.378l-0.304 0.306h-2.545l0.695-2.549 0.284-0.142-0.456 2.272c-0.004 0.028 0.002 0.056 0.021 0.078 0.017 0.022 0.043 0.034 0.071 0.034h2.235z"/><path fill="#f5f5f5" d="M6.573 17.802c-0.11 0.082-0.245 0.129-0.385 0.129s-0.274-0.047-0.385-0.129l0.385-0.385 0.385 0.385z"/><path fill="#f5f5f5" d="M9.263 17.684h-2.545l-0.304-0.306h2.235c0.028 0 0.054-0.011 0.071-0.034 0.019-0.022 0.024-0.050 0.021-0.078l-0.456-2.272 0.284 0.142 0.695 2.549z"/><path fill="#f5f5f5" d="M8.535 17.191h-2.254v-2.325c0.377-0.319 1.372-0.101 1.794 0.030l0.459 2.295z"/><path fill="#f5f5f5" d="M6.095 14.867v2.325h-2.254l0.459-2.295c0.422-0.131 1.417-0.349 1.794-0.030z"/><path fill="#464655" d="M9.476 17.753l-0.738-2.707c-0.007-0.024-0.024-0.047-0.049-0.058l-0.493-0.246c-0.002-0.002-0.004-0.002-0.008-0.002-0.002 0-0.002-0.002-0.004-0.004-0.060-0.021-1.425-0.465-1.998-0.030-0.573-0.435-1.938 0.009-1.998 0.030-0.002 0.002-0.002 0.002-0.004 0.004-0.004 0-0.006 0-0.008 0.002l-0.493 0.246c-0.024 0.011-0.041 0.034-0.049 0.058l-0.737 2.707c-0.007 0.028-0.002 0.058 0.015 0.080 0.019 0.022 0.047 0.037 0.075 0.037h2.614c0.155 0.155 0.364 0.246 0.584 0.246s0.429-0.091 0.584-0.246h2.614c0.028 0 0.056-0.015 0.075-0.037 0.017-0.022 0.022-0.052 0.015-0.080zM6.282 14.867c0.377-0.319 1.372-0.101 1.794 0.030l0.459 2.295h-2.254c0 0 0-2.325 0-2.325zM4.301 14.897c0.422-0.131 1.417-0.349 1.794-0.030v2.325h-2.254l0.459-2.295zM3.113 17.684l0.695-2.549 0.284-0.142-0.456 2.272c-0.004 0.028 0.002 0.056 0.021 0.078 0.017 0.022 0.043 0.034 0.071 0.034h2.235l-0.304 0.306h-2.545zM6.188 17.931c-0.14 0-0.274-0.047-0.385-0.129l0.385-0.385 0.385 0.385c-0.11 0.082-0.245 0.129-0.385 0.129zM6.718 17.684l-0.304-0.306h2.235c0.028 0 0.054-0.011 0.071-0.034 0.019-0.022 0.024-0.050 0.021-0.078l-0.456-2.272 0.284 0.142 0.695 2.549h-2.545z"/><path fill="#464655" d="M8.522 12.428c-0.095 0.066-0.224 0.055-0.306-0.027l-0.124-0.124v0.304l-0.76 0.76h-0.304l-1.216 1.216h-0.304l-2.338 2.338c-0.058 0.058-0.078 0.143-0.052 0.22l0.11 0.33-0.456 0.456h-0.304l-0.929 0.93c-0.074 0.074-0.074 0.195 0 0.269l0.613 0.613c0.089 0.089 0.234 0.083 0.315-0.012l1.369-1.648 0.152-0.456 0.304-0.304 0.608 0.912 0.456-0.456-0.486-0.73 0.121-0.121c0.118-0.118 0.118-0.309 0-0.427l-0.091-0.091 0.085-0.085c0.649 0.556 1.428 0.7 2.17 0.382l-0.254-0.593c-0.613 0.263-1.113 0.043-1.461-0.243l1.284-1.284-0.051-0.253 0.355-0.355h0.304l2.28-2.28-1.089 0.759z"/><path fill="#464655" d="M3.988 12.125l-0.304 0.304c-0.084 0.084-0.084 0.22 0 0.304l0.051 0.051-0.507 0.101-1.368 1.368 0.76 0.76 1.368-1.368 0.101-0.507 0.203 0.203 0.152-0.152 5.056 5.056 0.304-0.304-5.056-5.056 0.152-0.152-0.608-0.608c-0.084-0.084-0.22-0.084-0.304-0z"/></svg>