<!-- Generated by IcoMoon.io -->
<svg version="1.1" xmlns="http://www.w3.org/2000/svg" width="32" height="32" viewBox="0 0 32 32">
<title>myanmar</title>
<path fill="#ff4b55" d="M0 25c0 3.866 3.134 7 7 7h18c3.866 0 7-3.134 7-7v-3.667h-32v3.667z"></path>
<path fill="#ffe15a" d="M25 0h-18c-3.866 0-7 3.134-7 7v3.667h32v-3.667c0-3.866-3.134-7-7-7z"></path>
<path fill="#73af00" d="M0 10.667h32v10.667h-32v-10.667z"></path>
<path fill="#f5f5f5" d="M16.48 5.407l2.522 7.561 7.97 0.062c0.486 0.004 0.688 0.624 0.297 0.913l-6.412 4.735 2.404 7.599c0.147 0.464-0.381 0.847-0.777 0.564l-6.485-4.635-6.485 4.635c-0.396 0.283-0.923-0.101-0.777-0.564l2.404-7.599-6.412-4.735c-0.391-0.289-0.19-0.909 0.297-0.913l7.97-0.062 2.522-7.561c0.154-0.461 0.806-0.461 0.96 0z"></path>
</svg>
