<svg xmlns="http://www.w3.org/2000/svg" width="32" height="32" version="1.1" viewBox="0 0 32 32"><title>namibia</title><path fill="#41479b" d="M7 0c-3.866 0-7 3.134-7 7v17.421l24.276-24.421h-17.276z"/><path fill="#73af00" d="M25 32c3.866 0 7-3.134 7-7v-17.421l-24.276 24.421h17.276z"/><path fill="#f5f5f5" d="M25 0h-1.054l-23.946 23.946v1.054c0 3.866 3.134 7 7 7h1.054l23.946-23.946v-1.054c0-3.866-3.134-7-7-7z"/><path fill="#ff4b55" d="M26.746 0.22l-26.527 26.527c0.632 2.463 2.571 4.402 5.034 5.034l26.527-26.527c-0.632-2.463-2.571-4.402-5.034-5.034z"/><path fill="#ffe15a" d="M6.265 4.776c0.618 0 1.178 0.25 1.583 0.655l0.222-1.542-1.226 0.964-0.579-1.448-0.579 1.448-1.226-0.964 0.222 1.542c0.405-0.405 0.965-0.655 1.583-0.655z"/><path fill="#ffe15a" d="M4.681 8.598c-0.405-0.405-0.655-0.965-0.655-1.583s0.25-1.178 0.655-1.583l-1.542-0.222 0.964 1.226-1.448 0.579 1.448 0.579-0.965 1.226 1.542-0.222z"/><path fill="#ffe15a" d="M9.875 7.015l-1.448-0.579 0.964-1.226-1.542 0.222c0.405 0.405 0.655 0.965 0.655 1.583s-0.25 1.178-0.655 1.583l1.542 0.222-0.964-1.226 1.448-0.579z"/><path fill="#ffe15a" d="M6.265 9.254c-0.618 0-1.178-0.25-1.583-0.655l-0.222 1.542 1.226-0.964 0.579 1.448 0.579-1.448 1.226 0.964-0.222-1.542c-0.405 0.405-0.965 0.655-1.583 0.655z"/><path fill="#ffe15a" d="M8.093 7.015c0 1.010-0.818 1.828-1.828 1.828s-1.828-0.818-1.828-1.828c0-1.010 0.818-1.828 1.828-1.828s1.828 0.818 1.828 1.828z"/></svg>