<!-- Generated by IcoMoon.io -->
<svg version="1.1" xmlns="http://www.w3.org/2000/svg" width="32" height="32" viewBox="0 0 32 32">
<title>nepal</title>
<path fill="#f5f5f5" d="M25 0h-18c-3.866 0-7 3.134-7 7v18c0 3.866 3.134 7 7 7h18c3.866 0 7-3.134 7-7v-18c0-3.866-3.134-7-7-7z"></path>
<path fill="#41479b" d="M21.895 16l-19.513-14.26c-0.277 0.244-0.535 0.509-0.771 0.793l16.931 12.372h-13.443l14.345 16h-16.203c1.086 0.693 2.376 1.095 3.76 1.095h14.895l-14.345-16h14.345z"></path>
<path fill="#41479b" d="M0 7v18c0 1.384 0.402 2.674 1.095 3.76v-25.52c-0.693 1.086-1.095 2.376-1.095 3.76z"></path>
<path fill="#ff4b55" d="M6.735 16.731l-1.637-1.826h13.443l-16.931-12.372c-0.186 0.224-0.359 0.46-0.516 0.707v25.52c0.55 0.862 1.283 1.595 2.145 2.145h16.203l-12.708-14.175z"></path>
<path fill="#f5f5f5" d="M6.424 19.854l0.674 1.391 1.279-0.868c0.056-0.038 0.132 0.005 0.127 0.073l-0.112 1.542 1.542-0.112c0.068-0.005 0.112 0.071 0.073 0.127l-0.868 1.279 1.391 0.674c0.061 0.030 0.061 0.117 0 0.147l-1.391 0.674 0.868 1.279c0.038 0.056-0.005 0.132-0.073 0.127l-1.542-0.112 0.112 1.542c0.005 0.068-0.071 0.112-0.127 0.073l-1.279-0.868-0.674 1.391c-0.030 0.061-0.117 0.061-0.147 0l-0.674-1.391-1.279 0.868c-0.056 0.038-0.132-0.005-0.127-0.073l0.112-1.542-1.542 0.112c-0.068 0.005-0.112-0.071-0.074-0.127l0.868-1.279-1.391-0.674c-0.061-0.030-0.061-0.117 0-0.147l1.391-0.674-0.868-1.279c-0.038-0.056 0.005-0.132 0.074-0.127l1.542 0.112-0.112-1.542c-0.005-0.068 0.071-0.112 0.127-0.073l1.279 0.868 0.674-1.391c0.030-0.061 0.117-0.061 0.147 0z"></path>
<path fill="#f5f5f5" d="M8.175 11.808l-0.585-0.4 0.515-0.54-0.734-0.134 0.251-0.703-0.725 0.176-0.056-0.744-0.591 0.456-0.354-0.657-0.354 0.657-0.591-0.456-0.056 0.744-0.725-0.176 0.251 0.703-0.734 0.134 0.515 0.54-0.585 0.4c-0.738-0.345-1.388-0.848-1.899-1.472 0.343 2 2.081 3.523 4.179 3.523s3.835-1.523 4.179-3.523c-0.511 0.623-1.16 1.127-1.898 1.472z"></path>
</svg>
