<svg xmlns="http://www.w3.org/2000/svg" width="32" height="32" version="1.1" viewBox="0 0 32 32"><title>new-zealand</title><path fill="#41479b" d="M25 0h-18c-3.866 0-7 3.134-7 7v18c0 3.866 3.134 7 7 7h18c3.866 0 7-3.134 7-7v-18c0-3.866-3.134-7-7-7z"/><path fill="#41479b" d="M5.895 0.087c-1.649 0.262-3.106 1.099-4.159 2.299l4.159 2.725v-5.023z"/><path fill="#41479b" d="M0.439 4.556c-0.159 0.428-0.278 0.876-0.352 1.339h2.395l-2.043-1.339z"/><path fill="#41479b" d="M0 10.105v1.626l2.482-1.626z"/><path fill="#41479b" d="M16 1.249v-1.249h-5.895v5.111z"/><path fill="#41479b" d="M16 11.731v-1.626h-2.482z"/><path fill="#41479b" d="M10.105 16h5.895v-1.249l-5.895-3.862z"/><path fill="#41479b" d="M16 5.895v-1.626l-2.482 1.626z"/><path fill="#41479b" d="M5.895 10.889l-5.895 3.862v1.249h5.895z"/><path fill="#f5f5f5" d="M9.263 16h0.842v-5.111l5.895 3.862v-1.248l-5.236-3.398h1.547l3.689 2.394v-0.768l-2.482-1.626h2.482v-0.842h-6.737z"/><path fill="#f5f5f5" d="M5.895 16h0.842v-6.737h-6.737v0.842h2.482l-2.482 1.626v1.181l4.325-2.807h1.547l-5.872 3.811v0.835l5.895-3.862z"/><path fill="#f5f5f5" d="M6.737 0.005c-0.285 0.011-0.566 0.038-0.842 0.082v5.023l-4.159-2.725c-0.25 0.285-0.478 0.591-0.679 0.915l3.996 2.594h-1.547l-2.852-1.851c-0.078 0.168-0.15 0.338-0.215 0.513l2.043 1.339h-2.395c-0.044 0.276-0.071 0.557-0.082 0.842h6.731l-0-6.731z"/><path fill="#f5f5f5" d="M16 6.737v-0.842h-2.482l2.482-1.626v-1.196l-4.348 2.822h-1.547l5.895-3.826v-0.82l-5.895 3.862v-5.111h-0.842v6.737z"/><path fill="#ff4b55" d="M6.737 16h2.526v-6.737h6.737v-2.526h-6.737v-6.737h-2.263c-0.088 0-0.176 0.002-0.263 0.005v6.731h-6.731c-0.003 0.087-0.005 0.175-0.005 0.263v2.263h6.737v6.737z"/><path fill="#ff4b55" d="M4.325 10.105l-4.325 2.807v1.004l5.872-3.811z"/><path fill="#ff4b55" d="M10.764 10.105l5.236 3.398v-1.004l-3.689-2.394z"/><path fill="#ff4b55" d="M5.053 5.895l-3.996-2.594c-0.149 0.238-0.283 0.486-0.403 0.743l2.852 1.851h1.547z"/><path fill="#ff4b55" d="M11.652 5.895l4.348-2.822v-1.004l-5.895 3.826z"/><path fill="#ff4b55" d="M24.724 27.577c-0.022 0-0.045-0.007-0.064-0.020l-0.653-0.467-0.653 0.467c-0.019 0.014-0.042 0.020-0.064 0.020s-0.046-0.007-0.065-0.021c-0.038-0.028-0.055-0.078-0.040-0.123l0.242-0.765-0.645-0.476c-0.038-0.029-0.054-0.078-0.040-0.123s0.057-0.076 0.104-0.076l0.803-0.006 0.254-0.761c0.015-0.045 0.057-0.075 0.105-0.075s0.090 0.031 0.105 0.075l0.254 0.761 0.803 0.006c0.048 0.001 0.089 0.031 0.104 0.076s-0.001 0.094-0.040 0.123l-0.645 0.476 0.242 0.765c0.014 0.045-0.002 0.095-0.040 0.123-0.019 0.014-0.042 0.021-0.065 0.021z"/><path fill="#f5f5f5" d="M24.007 25.26l0.279 0.836 0.881 0.007-0.709 0.524 0.266 0.84-0.717-0.513-0.717 0.513 0.266-0.84-0.709-0.524 0.881-0.007 0.279-0.836zM24.007 25.039c-0.095 0-0.179 0.061-0.209 0.151l-0.229 0.686-0.724 0.006c-0.095 0.001-0.179 0.062-0.208 0.152s0.002 0.189 0.079 0.246l0.582 0.43-0.218 0.69c-0.029 0.091 0.004 0.189 0.081 0.245 0.039 0.028 0.084 0.042 0.13 0.042s0.090-0.014 0.128-0.041l0.589-0.421 0.589 0.421c0.038 0.027 0.083 0.041 0.128 0.041s0.091-0.014 0.13-0.042c0.077-0.056 0.109-0.155 0.081-0.245l-0.218-0.69 0.582-0.43c0.076-0.056 0.108-0.155 0.079-0.246s-0.113-0.152-0.208-0.152l-0.724-0.006-0.229-0.686c-0.030-0.090-0.114-0.151-0.209-0.151v0z"/><path fill="#ff4b55" d="M24.724 16.725c-0.023 0-0.045-0.007-0.064-0.020l-0.653-0.467-0.653 0.467c-0.019 0.014-0.042 0.020-0.064 0.020s-0.046-0.007-0.065-0.021c-0.038-0.028-0.055-0.078-0.040-0.123l0.242-0.765-0.645-0.477c-0.038-0.029-0.054-0.078-0.040-0.123s0.057-0.076 0.104-0.076l0.803-0.006 0.254-0.761c0.015-0.045 0.057-0.075 0.105-0.075s0.090 0.031 0.105 0.075l0.254 0.761 0.803 0.006c0.047 0.001 0.089 0.031 0.104 0.076s-0.001 0.094-0.040 0.123l-0.645 0.477 0.242 0.765c0.014 0.045-0.002 0.095-0.040 0.123-0.019 0.014-0.042 0.021-0.065 0.021z"/><path fill="#f5f5f5" d="M24.007 14.408l0.279 0.836 0.881 0.007-0.709 0.524 0.266 0.84-0.717-0.512-0.717 0.512 0.266-0.84-0.709-0.524 0.881-0.007 0.279-0.836zM24.007 14.187c-0.095 0-0.179 0.061-0.209 0.151l-0.229 0.687-0.724 0.006c-0.095 0.001-0.179 0.062-0.208 0.152s0.002 0.189 0.079 0.246l0.582 0.43-0.218 0.69c-0.029 0.091 0.004 0.189 0.081 0.245 0.039 0.028 0.084 0.042 0.13 0.042s0.090-0.014 0.128-0.041l0.589-0.421 0.589 0.421c0.038 0.027 0.083 0.041 0.128 0.041s0.091-0.014 0.13-0.042c0.077-0.056 0.109-0.155 0.081-0.245l-0.218-0.69 0.582-0.43c0.076-0.056 0.108-0.155 0.079-0.246s-0.113-0.152-0.208-0.152l-0.724-0.006-0.229-0.687c-0.030-0.090-0.114-0.151-0.209-0.151v0z"/><path fill="#ff4b55" d="M28.586 20.797c-0.023 0-0.045-0.007-0.064-0.020l-0.653-0.467-0.653 0.467c-0.019 0.014-0.042 0.020-0.064 0.020s-0.046-0.007-0.065-0.021c-0.038-0.028-0.055-0.078-0.040-0.123l0.242-0.765-0.645-0.477c-0.038-0.029-0.054-0.078-0.040-0.123s0.057-0.076 0.104-0.076l0.803-0.006 0.254-0.761c0.015-0.045 0.057-0.075 0.105-0.075s0.090 0.031 0.105 0.075l0.254 0.761 0.803 0.006c0.047 0.001 0.089 0.031 0.104 0.076s-0.001 0.094-0.040 0.123l-0.645 0.477 0.242 0.765c0.014 0.045-0.002 0.095-0.040 0.123-0.019 0.014-0.042 0.021-0.065 0.021z"/><path fill="#f5f5f5" d="M27.869 18.479l0.279 0.836 0.881 0.007-0.709 0.524 0.266 0.84-0.717-0.512-0.717 0.512 0.266-0.84-0.709-0.524 0.881-0.007 0.279-0.836zM27.869 18.258c-0.095 0-0.179 0.061-0.209 0.151l-0.229 0.686-0.724 0.006c-0.095 0.001-0.179 0.062-0.208 0.152s0.002 0.189 0.079 0.246l0.582 0.43-0.218 0.69c-0.029 0.091 0.004 0.189 0.081 0.245 0.039 0.028 0.084 0.042 0.13 0.042s0.090-0.014 0.128-0.041l0.589-0.421 0.589 0.421c0.038 0.027 0.083 0.041 0.128 0.041s0.091-0.014 0.13-0.042c0.077-0.056 0.109-0.155 0.081-0.245l-0.218-0.69 0.582-0.43c0.076-0.056 0.108-0.155 0.079-0.246s-0.113-0.152-0.208-0.152l-0.724-0.006-0.229-0.686c-0.030-0.090-0.114-0.151-0.209-0.151v0z"/><path fill="#ff4b55" d="M20.862 21.9c-0.023 0-0.045-0.007-0.064-0.020l-0.653-0.467-0.653 0.467c-0.019 0.014-0.042 0.020-0.064 0.020s-0.046-0.007-0.065-0.021c-0.038-0.028-0.055-0.078-0.040-0.123l0.242-0.765-0.645-0.477c-0.038-0.029-0.054-0.078-0.040-0.123s0.057-0.076 0.104-0.076l0.802-0.006 0.254-0.761c0.015-0.045 0.057-0.075 0.105-0.075s0.090 0.031 0.105 0.075l0.254 0.761 0.802 0.006c0.047 0.001 0.089 0.031 0.104 0.076s-0.001 0.094-0.040 0.123l-0.645 0.477 0.242 0.765c0.014 0.045-0.002 0.095-0.040 0.123-0.019 0.014-0.042 0.021-0.065 0.021z"/><path fill="#f5f5f5" d="M20.145 19.582l0.279 0.836 0.881 0.007-0.709 0.524 0.266 0.84-0.717-0.512-0.717 0.512 0.266-0.84-0.709-0.524 0.881-0.007 0.279-0.836zM20.145 19.362c-0.095 0-0.179 0.061-0.209 0.151l-0.229 0.686-0.724 0.006c-0.095 0.001-0.179 0.062-0.208 0.152s0.002 0.189 0.079 0.246l0.582 0.43-0.218 0.69c-0.029 0.091 0.004 0.189 0.081 0.245 0.039 0.028 0.084 0.042 0.13 0.042s0.090-0.014 0.128-0.041l0.589-0.421 0.589 0.421c0.038 0.027 0.083 0.041 0.128 0.041s0.091-0.014 0.13-0.042c0.077-0.056 0.109-0.155 0.081-0.245l-0.218-0.69 0.582-0.43c0.076-0.056 0.108-0.155 0.079-0.246s-0.113-0.152-0.208-0.152l-0.724-0.006-0.229-0.686c-0.030-0.090-0.114-0.151-0.209-0.151v0z"/></svg>