<!-- Generated by IcoMoon.io -->
<svg version="1.1" xmlns="http://www.w3.org/2000/svg" width="32" height="32" viewBox="0 0 32 32">
<title>nicaragua</title>
<path fill="#41479b" d="M25 0h-18c-3.866 0-7 3.134-7 7v3.667h32v-3.667c0-3.866-3.134-7-7-7z"></path>
<path fill="#41479b" d="M0 25c0 3.866 3.134 7 7 7h18c3.866 0 7-3.134 7-7v-3.667h-32v3.667z"></path>
<path fill="#f5f5f5" d="M0 10.667h32v10.667h-32v-10.667z"></path>
<path fill="#afebff" d="M16 12.916l-2.569 3.778h5.138z"></path>
<path fill="#557de6" d="M13.431 16.694l-1.662 2.418h8.462l-1.662-2.418z"></path>
<path fill="#73af00" d="M16.657 16.483c0.010-0.021 0.021-0.042 0.030-0.063-0.009 0.021-0.020 0.042-0.030 0.063z"></path>
<path fill="#73af00" d="M16.728 16.309c0.006-0.019 0.014-0.037 0.019-0.057-0.005 0.019-0.013 0.038-0.019 0.057z"></path>
<path fill="#73af00" d="M16.57 16.642c0.013-0.021 0.026-0.041 0.038-0.063-0.012 0.021-0.025 0.042-0.038 0.063z"></path>
<path fill="#73af00" d="M16.963 15.938c-0.023 0-0.045 0.004-0.065 0.011 0.020-0.007 0.042-0.011 0.065-0.011v0z"></path>
<path fill="#73af00" d="M16.842 15.978c-0.032 0.025-0.054 0.060-0.059 0.1v0c0.005-0.040 0.027-0.075 0.059-0.1z"></path>
<path fill="#73af00" d="M16.764 17.105c0.036 0.034 0.072 0.067 0.108 0.098 0.192-0.166 0.392-0.377 0.532-0.624-0.010 0.018-0.021 0.035-0.032 0.052-0.131-0.241-0.2-0.45-0.234-0.573-0.019-0.071-0.092-0.12-0.176-0.12 0.032 0.282 0.101 0.8-0.199 1.167z"></path>
<path fill="#73af00" d="M17.524 16.309c0.006-0.019 0.014-0.037 0.019-0.057-0.005 0.019-0.013 0.038-0.019 0.057z"></path>
<path fill="#73af00" d="M17.639 15.978c-0.032 0.025-0.054 0.060-0.059 0.1v0c0.005-0.040 0.027-0.075 0.059-0.1z"></path>
<path fill="#73af00" d="M17.454 16.483c0.010-0.021 0.021-0.042 0.030-0.063-0.009 0.021-0.020 0.042-0.030 0.063z"></path>
<path fill="#73af00" d="M19.085 17.299c-0.291 0-0.567-0.14-0.735-0.378-0.253-0.358-0.368-0.692-0.415-0.863-0.019-0.071-0.092-0.12-0.176-0.12l0 0c0.038 0.336 0.13 1.009-0.417 1.361h-0.356c-0.015-0.012-0.029-0.023-0.044-0.035 0 0 0.001 0.001 0.001 0.001-0.1 0.13-0.299 0.166-0.453 0.087-0.647-0.333-0.546-1.060-0.506-1.414-0.083 0-0.156 0.049-0.176 0.12-0.034 0.124-0.103 0.332-0.234 0.573-0.011-0.017-0.022-0.035-0.032-0.052 0.158 0.278 0.392 0.512 0.604 0.685-0.1 0.13-0.299 0.166-0.453 0.087-0.647-0.333-0.546-1.060-0.506-1.414-0.083 0-0.156 0.049-0.176 0.12-0.034 0.124-0.103 0.332-0.234 0.573-0.011-0.017-0.022-0.035-0.032-0.052 0.158 0.278 0.392 0.512 0.604 0.685-0.1 0.13-0.299 0.166-0.453 0.087-0.647-0.333-0.546-1.060-0.506-1.414l0-0c-0.084 0-0.157 0.049-0.176 0.12-0.046 0.171-0.161 0.505-0.415 0.863-0.168 0.238-0.444 0.378-0.735 0.378h-0.239v0.302h6.346v-0.302l-0.088 0z"></path>
<path fill="#73af00" d="M16.26 16.42c0.009 0.022 0.020 0.042 0.030 0.063-0.010-0.021-0.021-0.042-0.030-0.063z"></path>
<path fill="#73af00" d="M16.2 16.252c0.005 0.019 0.013 0.038 0.019 0.057-0.006-0.019-0.014-0.037-0.019-0.057z"></path>
<path fill="#73af00" d="M16.164 16.077l-0-0c-0.005-0.040-0.027-0.075-0.059-0.1 0.032 0.025 0.054 0.060 0.059 0.1l0 0z"></path>
<path fill="#73af00" d="M16.34 16.579c0.012 0.021 0.025 0.042 0.038 0.063-0.013-0.021-0.026-0.041-0.038-0.063z"></path>
<path fill="#73af00" d="M16.478 16.788c-0.002-0.002-0.003-0.004-0.005-0.006 0.013-0.017 0.025-0.035 0.038-0.052-0.012 0.018-0.025 0.035-0.038 0.052-0.013-0.017-0.026-0.035-0.038-0.052 0.014 0.020 0.028 0.039 0.043 0.059z"></path>
<path fill="#73af00" d="M16.545 16.872c0.015 0.018 0.029 0.035 0.044 0.052-0.015-0.017-0.030-0.035-0.044-0.052z"></path>
<path fill="#73af00" d="M16.706 17.049c-0.014-0.014-0.028-0.029-0.042-0.043 0.014 0.015 0.028 0.029 0.042 0.043z"></path>
<path fill="#ffe15a" d="M17.759 15.938l-0-0c-0.046 0-0.088 0.015-0.12 0.040s-0.054 0.060-0.059 0.1l-0 0c-0.007 0.060-0.020 0.118-0.036 0.175-0.005 0.019-0.013 0.038-0.019 0.057-0.012 0.037-0.025 0.075-0.040 0.111-0.009 0.022-0.020 0.042-0.030 0.063-0.016 0.032-0.032 0.065-0.049 0.096-0.14 0.247-0.341 0.458-0.532 0.624-0.036-0.031-0.071-0.064-0.108-0.098 0.3-0.368 0.231-0.885 0.198-1.167l-0-0c-0.023 0-0.045 0.004-0.065 0.011s-0.039 0.017-0.055 0.029c-0.032 0.025-0.054 0.060-0.059 0.1l-0 0c-0.007 0.060-0.020 0.118-0.036 0.175-0.005 0.019-0.013 0.038-0.019 0.057-0.012 0.037-0.025 0.075-0.040 0.111-0.009 0.022-0.020 0.042-0.030 0.063-0.016 0.032-0.032 0.065-0.049 0.096-0.012 0.021-0.025 0.042-0.038 0.063-0.019 0.030-0.038 0.060-0.058 0.088-0.012 0.018-0.025 0.035-0.038 0.052-0.013-0.017-0.026-0.035-0.038-0.052-0.020-0.029-0.039-0.058-0.058-0.088-0.013-0.021-0.026-0.041-0.038-0.063-0.018-0.031-0.034-0.064-0.049-0.096-0.010-0.021-0.021-0.042-0.030-0.063-0.015-0.036-0.028-0.073-0.040-0.111-0.006-0.019-0.014-0.037-0.019-0.057-0.016-0.057-0.029-0.115-0.036-0.175l-0-0c-0.005-0.040-0.027-0.075-0.059-0.1s-0.074-0.040-0.12-0.040l-0 0c-0.040 0.354-0.141 1.080 0.506 1.414 0.109 0.056 0.24 0.054 0.343 0.002 0.066-0.033 0.136-0.055 0.209-0.055h0.3c0.546-0.352 0.455-1.024 0.417-1.361z"></path>
<path fill="#73af00" d="M15.404 16.252c0.005 0.019 0.013 0.038 0.019 0.057-0.006-0.019-0.014-0.037-0.019-0.057z"></path>
<path fill="#73af00" d="M15.368 16.077l-0-0c-0.005-0.040-0.027-0.075-0.059-0.1 0.032 0.025 0.054 0.060 0.059 0.1l0 0z"></path>
<path fill="#73af00" d="M15.463 16.42c0.009 0.022 0.020 0.042 0.030 0.063-0.010-0.021-0.021-0.042-0.030-0.063z"></path>
<path fill="#73af00" d="M15.188 15.938v0c0.023 0 0.045 0.004 0.065 0.011-0.020-0.007-0.042-0.011-0.065-0.011z"></path>
<path fill="#ffe15a" d="M15.694 17.351c0.155 0.080 0.354 0.043 0.453-0.087-0.212-0.174-0.446-0.408-0.604-0.685-0.018-0.031-0.034-0.064-0.050-0.096-0.010-0.021-0.021-0.042-0.030-0.063-0.015-0.036-0.028-0.073-0.040-0.111-0.006-0.019-0.014-0.037-0.019-0.057-0.016-0.057-0.029-0.115-0.036-0.175l-0-0c-0.005-0.040-0.027-0.075-0.059-0.1-0.016-0.012-0.035-0.022-0.055-0.029s-0.042-0.011-0.065-0.011v0l-0 0c-0.040 0.354-0.141 1.080 0.506 1.414z"></path>
<path fill="#73af00" d="M14.607 16.252c0.005 0.019 0.013 0.038 0.019 0.057-0.006-0.019-0.014-0.037-0.019-0.057z"></path>
<path fill="#73af00" d="M14.667 16.42c0.009 0.022 0.020 0.042 0.030 0.063-0.010-0.021-0.021-0.042-0.030-0.063z"></path>
<path fill="#73af00" d="M14.571 16.077l-0-0c-0.005-0.040-0.027-0.075-0.059-0.1 0.032 0.025 0.054 0.060 0.059 0.1l0 0z"></path>
<path fill="#ffe15a" d="M14.898 17.351c0.155 0.080 0.354 0.043 0.453-0.087-0.212-0.174-0.446-0.408-0.604-0.685-0.018-0.031-0.034-0.064-0.050-0.096-0.010-0.021-0.021-0.042-0.030-0.063-0.015-0.036-0.028-0.073-0.040-0.111-0.006-0.019-0.014-0.037-0.019-0.057-0.016-0.057-0.029-0.115-0.036-0.175l-0-0c-0.005-0.040-0.027-0.075-0.059-0.1s-0.074-0.040-0.12-0.040l-0 0c-0.040 0.354-0.141 1.080 0.506 1.414z"></path>
<path fill="#41479b" d="M14.727 14.736c-0.013 0.048-0.025 0.096-0.038 0.145 0.412-0.124 0.868-0.198 1.362-0.198s0.949 0.074 1.362 0.198c-0.013-0.048-0.025-0.096-0.038-0.145-0.41-0.106-0.852-0.167-1.324-0.167s-0.914 0.061-1.324 0.167z"></path>
<path fill="#5aa0e6" d="M14.743 14.673c-0.013 0.048-0.025 0.096-0.038 0.145 0.408-0.124 0.858-0.198 1.345-0.199s0.937 0.075 1.345 0.199c-0.013-0.048-0.025-0.096-0.038-0.145-0.406-0.107-0.842-0.167-1.308-0.167s-0.902 0.061-1.308 0.167z"></path>
<path fill="#9bc800" d="M14.758 14.615c-0.013 0.048-0.025 0.096-0.038 0.145 0.404-0.124 0.848-0.199 1.33-0.199s0.926 0.075 1.33 0.199c-0.013-0.048-0.025-0.096-0.038-0.145-0.401-0.107-0.832-0.168-1.292-0.168s-0.891 0.061-1.292 0.168z"></path>
<path fill="#ffe14e" d="M14.776 14.549c-0.013 0.048-0.025 0.096-0.038 0.145 0.399-0.125 0.838-0.2 1.313-0.2s0.914 0.075 1.313 0.2c-0.013-0.048-0.025-0.096-0.038-0.145-0.397-0.107-0.821-0.168-1.275-0.168s-0.879 0.061-1.275 0.168z"></path>
<path fill="#ffb14e" d="M14.793 14.484c-0.013 0.048-0.025 0.096-0.038 0.145 0.395-0.125 0.827-0.2 1.296-0.2s0.901 0.075 1.296 0.2c-0.013-0.048-0.025-0.096-0.038-0.145-0.392-0.107-0.811-0.169-1.258-0.169s-0.866 0.062-1.258 0.169z"></path>
<path fill="#ff4b55" d="M14.8 14.456c-0.009 0.034-0.018 0.068-0.026 0.101 0.389-0.125 0.816-0.201 1.277-0.201s0.888 0.076 1.277 0.201c-0.009-0.034-0.018-0.068-0.026-0.101-0.39-0.107-0.806-0.169-1.251-0.169s-0.861 0.062-1.251 0.169z"></path>
<path fill="#ffe15a" d="M20.231 19.258h-8.462c-0.056 0-0.107-0.031-0.133-0.080s-0.023-0.109 0.008-0.155l4.231-6.346c0.056-0.084 0.195-0.084 0.251 0l4.231 6.346c0.031 0.046 0.034 0.106 0.008 0.155s-0.077 0.080-0.133 0.080zM12.051 18.956h7.897l-3.949-5.923-3.949 5.923z"></path>
<path fill="#ff4b55" d="M16.289 15.326c0-0.133-0.135-0.335-0.35-0.335-0.126 0-0.228 0.077-0.228 0.172 0 0.047 0.025 0.090 0.067 0.121-0 0.002-0 0.004-0.001 0.005-0.052 0.032-0.085 0.079-0.085 0.133 0 0.091 0.093 0.164 0.211 0.171l0.097 0.194 0.088-0.175c0.115-0.030 0.201-0.146 0.201-0.286z"></path>
</svg>
