<!-- Generated by IcoMoon.io -->
<svg version="1.1" xmlns="http://www.w3.org/2000/svg" width="32" height="32" viewBox="0 0 32 32">
<title>niger</title>
<path fill="#73af00" d="M0 25c0 3.866 3.134 7 7 7h18c3.866 0 7-3.134 7-7v-3.667h-32v3.667z"></path>
<path fill="#ff9b55" d="M25 0h-18c-3.866 0-7 3.134-7 7v3.667h32v-3.667c0-3.866-3.134-7-7-7z"></path>
<path fill="#f5f5f5" d="M0 10.667h32v10.667h-32v-10.667z"></path>
<path fill="#ff9b55" d="M20.211 16c0 2.325-1.885 4.211-4.211 4.211s-4.211-1.885-4.211-4.211c0-2.325 1.885-4.211 4.211-4.211s4.211 1.885 4.211 4.211z"></path>
</svg>
