<svg xmlns="http://www.w3.org/2000/svg" width="32" height="32" version="1.1" viewBox="0 0 32 32"><title>norfolk-island</title><path fill="#73af00" d="M7 0c-3.866 0-6.999 3.133-7 6.999v18.003c0.001 3.865 3.134 6.999 7 6.999h3.667v-32h-3.667z"/><path fill="#f5f5f5" d="M10.667 0h10.667v32h-10.667v-32z"/><path fill="#73af00" d="M32 25v-18c0-3.866-3.134-7-7-7h-3.667v32h3.667c3.866 0 7-3.134 7-7z"/><path fill="#73af00" d="M19.685 21.412l-1.712-9.988c-0.065-0.381-0.201-0.747-0.4-1.079l-1.573-2.621-1.573 2.621c-0.199 0.332-0.335 0.698-0.4 1.079l-1.712 9.988c-0.033 0.191 0.114 0.365 0.308 0.365h2.753v2.498h1.249v-2.498h2.753c0.194 0 0.34-0.174 0.308-0.365z"/></svg>