<!-- Generated by IcoMoon.io -->
<svg version="1.1" xmlns="http://www.w3.org/2000/svg" width="32" height="32" viewBox="0 0 32 32">
<title>northern-marianas-islands</title>
<path fill="#4173cd" d="M25 0h-18c-3.866 0-7 3.134-7 7v18c0 3.866 3.134 7 7 7h18c3.864 0 6.997-3.131 7-6.995v-18.011c-0.003-3.864-3.136-6.995-7-6.995z"></path>
<path fill="#f5f5f5" d="M16 24c-4.411 0-8-3.589-8-8s3.589-8 8-8 8 3.589 8 8-3.589 8-8 8zM16 9.655c-3.499 0-6.345 2.846-6.345 6.345s2.846 6.345 6.345 6.345 6.345-2.846 6.345-6.345-2.846-6.345-6.345-6.345z"></path>
<path fill="#ffdc00" d="M16 23.448c-4.107 0-7.448-3.341-7.448-7.448s3.341-7.448 7.448-7.448 7.448 3.341 7.448 7.448-3.341 7.448-7.448 7.448zM16 9.103c-3.803 0-6.897 3.094-6.897 6.897s3.094 6.897 6.897 6.897 6.897-3.094 6.897-6.897-3.094-6.897-6.897-6.897z"></path>
<path fill="#ffdc00" d="M9.331 15.765c0.201 0.481-0.257 0.939-0.738 0.738-0.121-0.050-0.218-0.148-0.269-0.269-0.201-0.481 0.256-0.939 0.738-0.738 0.121 0.050 0.218 0.148 0.269 0.269z"></path>
<path fill="#ffdc00" d="M23.676 15.765c0.201 0.481-0.256 0.939-0.738 0.738-0.121-0.050-0.218-0.148-0.269-0.269-0.201-0.481 0.256-0.939 0.738-0.738 0.121 0.050 0.218 0.148 0.269 0.269z"></path>
<path fill="#ffdc00" d="M16.235 9.331c-0.481 0.201-0.939-0.257-0.738-0.738 0.050-0.121 0.148-0.218 0.269-0.269 0.481-0.201 0.939 0.256 0.738 0.738-0.050 0.121-0.148 0.218-0.269 0.269z"></path>
<path fill="#ffdc00" d="M11.45 11.118c-0.198 0.482-0.845 0.482-1.043 0-0.050-0.121-0.050-0.259 0-0.38 0.198-0.482 0.845-0.482 1.043 0 0.050 0.121 0.050 0.259 0 0.38z"></path>
<path fill="#ffdc00" d="M20.882 11.45c-0.482-0.198-0.482-0.845 0-1.043 0.121-0.050 0.259-0.050 0.38 0 0.482 0.198 0.482 0.845 0 1.043-0.121 0.050-0.259 0.050-0.38 0z"></path>
<path fill="#ffdc00" d="M23.002 12.846c0.37 0.368 0.122 0.965-0.399 0.964-0.131-0-0.258-0.053-0.351-0.145-0.37-0.368-0.122-0.965 0.399-0.964 0.131 0 0.258 0.053 0.351 0.145z"></path>
<path fill="#ffdc00" d="M13.665 9.749c-0.368 0.37-0.965 0.122-0.964-0.399 0-0.131 0.053-0.258 0.145-0.351 0.368-0.37 0.965-0.122 0.964 0.399-0 0.131-0.053 0.258-0.145 0.351z"></path>
<path fill="#ffdc00" d="M9.928 13.231c0.001 0.522-0.596 0.769-0.964 0.399-0.092-0.093-0.145-0.22-0.145-0.351-0.001-0.522 0.596-0.769 0.964-0.399 0.092 0.093 0.145 0.22 0.145 0.351z"></path>
<path fill="#ffdc00" d="M18.769 9.928c-0.522 0.001-0.769-0.596-0.399-0.964 0.093-0.092 0.22-0.145 0.351-0.145 0.522-0.001 0.769 0.596 0.399 0.964-0.093 0.092-0.22 0.145-0.351 0.145z"></path>
<path fill="#ffdc00" d="M23.482 14.272c0.291 0.433-0.068 0.971-0.58 0.868-0.128-0.026-0.243-0.102-0.316-0.211-0.291-0.433 0.068-0.971 0.58-0.868 0.128 0.026 0.243 0.102 0.316 0.211z"></path>
<path fill="#ffdc00" d="M14.929 9.413c-0.433 0.291-0.971-0.068-0.868-0.58 0.026-0.128 0.102-0.243 0.211-0.316 0.433-0.291 0.971 0.068 0.868 0.58-0.026 0.128-0.102 0.243-0.211 0.316z"></path>
<path fill="#ffdc00" d="M10.585 12.1c-0.1 0.512-0.735 0.638-1.023 0.204-0.072-0.109-0.099-0.244-0.074-0.373 0.1-0.512 0.735-0.638 1.023-0.204 0.072 0.109 0.099 0.244 0.074 0.373z"></path>
<path fill="#ffdc00" d="M19.9 10.585c-0.512-0.1-0.638-0.735-0.204-1.023 0.109-0.072 0.244-0.099 0.372-0.074 0.512 0.1 0.638 0.735 0.204 1.023-0.109 0.072-0.244 0.099-0.372 0.074z"></path>
<path fill="#ffdc00" d="M22.252 11.541c0.434 0.289 0.308 0.923-0.204 1.023-0.128 0.025-0.264-0.002-0.372-0.074-0.434-0.289-0.308-0.923 0.204-1.023 0.128-0.025 0.264 0.002 0.372 0.074z"></path>
<path fill="#ffdc00" d="M12.49 10.324c-0.289 0.434-0.923 0.308-1.023-0.204-0.025-0.128 0.002-0.264 0.074-0.373 0.289-0.434 0.923-0.308 1.023 0.204 0.025 0.128-0.002 0.264-0.074 0.373z"></path>
<path fill="#ffdc00" d="M9.505 14.469c0.103 0.511-0.435 0.871-0.868 0.58-0.109-0.073-0.185-0.188-0.211-0.316-0.103-0.511 0.435-0.871 0.868-0.58 0.109 0.073 0.185 0.188 0.211 0.316z"></path>
<path fill="#ffdc00" d="M17.531 9.505c-0.511 0.103-0.871-0.435-0.58-0.868 0.073-0.109 0.188-0.185 0.316-0.211 0.511-0.103 0.871 0.435 0.58 0.868-0.073 0.109-0.187 0.185-0.316 0.211z"></path>
<path fill="#ffa000" d="M23.172 16.276c-0.152 0-0.276-0.123-0.276-0.276 0-3.803-3.094-6.897-6.897-6.897s-6.896 3.094-6.896 6.897c0 0.152-0.123 0.276-0.276 0.276s-0.276-0.123-0.276-0.276c0-4.107 3.341-7.448 7.448-7.448s7.448 3.341 7.448 7.448c0 0.152-0.123 0.276-0.276 0.276z"></path>
<path fill="#b4b4b4" d="M17.533 24.276h-3.066c-0.655 0-1.166-0.567-1.097-1.219l0.975-9.264h3.31l0.975 9.264c0.069 0.651-0.442 1.219-1.097 1.219z"></path>
<path fill="#aaa" d="M17.64 13.793h-3.292c-0.145 0-0.267-0.109-0.283-0.253l-0.206-1.894c-0.035-0.326 0.22-0.611 0.549-0.611h3.184c0.328 0 0.584 0.285 0.549 0.611l-0.204 1.881c-0.016 0.151-0.144 0.266-0.297 0.266z"></path>
<path fill="#f5f5f5" d="M16.128 11.677l1.023 2.942 3.114 0.063c0.128 0.003 0.181 0.166 0.079 0.243l-2.482 1.882 0.902 2.982c0.037 0.123-0.101 0.223-0.207 0.15l-2.557-1.779-2.557 1.779c-0.105 0.073-0.244-0.027-0.207-0.15l0.902-2.982-2.482-1.882c-0.102-0.078-0.049-0.24 0.079-0.243l3.114-0.063 1.023-2.942c0.042-0.121 0.213-0.121 0.256 0z"></path>
</svg>
