<svg xmlns="http://www.w3.org/2000/svg" width="32" height="32" version="1.1" viewBox="0 0 32 32"><title>palestine</title><path fill="#464655" d="M25 0h-18c-3.866 0-7 3.134-7 7v3.667h32v-3.667c0-3.866-3.134-7-7-7z"/><path fill="#73af00" d="M0 25c0 3.866 3.134 7 7 7h18c3.866 0 7-3.134 7-7v-3.667h-32v3.667z"/><path fill="#f5f5f5" d="M0 10.667h32v10.667h-32v-10.667z"/><path fill="#ff4b55" d="M15.27 15.564l-13.239-13.494c-1.255 1.265-2.031 3.007-2.031 4.93v18c0 1.923 0.776 3.665 2.031 4.93l13.239-13.494c0.218-0.223 0.218-0.65-0-0.873z"/></svg>