<svg xmlns="http://www.w3.org/2000/svg" width="32" height="32" version="1.1" viewBox="0 0 32 32"><title>panama</title><path fill="#f5f5f5" d="M25 0h-18c-3.866 0-7 3.134-7 7v18c0 3.866 3.134 7 7 7h18c3.866 0 7-3.134 7-7v-18c0-3.866-3.134-7-7-7z"/><path fill="#ff4b55" d="M25 0h-9v16h16v-9c0-3.866-3.134-7-7-7z"/><path fill="#4173cd" d="M0 16v9c0 3.866 3.134 7 7 7h9v-16h-16z"/><path fill="#4173cd" d="M8.213 5.647l0.526 1.577 1.662 0.013c0.215 0.002 0.305 0.276 0.131 0.404l-1.337 0.988 0.501 1.585c0.065 0.205-0.169 0.375-0.344 0.25l-1.353-0.967-1.353 0.967c-0.175 0.125-0.409-0.045-0.344-0.25l0.501-1.585-1.337-0.988c-0.173-0.128-0.084-0.403 0.131-0.404l1.662-0.013 0.526-1.577c0.068-0.204 0.357-0.204 0.425-0z"/><path fill="#ff4b55" d="M24.212 21.647l0.526 1.577 1.663 0.013c0.215 0.002 0.305 0.276 0.131 0.404l-1.337 0.988 0.501 1.585c0.065 0.205-0.169 0.375-0.344 0.25l-1.353-0.967-1.353 0.967c-0.175 0.125-0.409-0.045-0.344-0.25l0.501-1.585-1.337-0.988c-0.173-0.128-0.084-0.403 0.131-0.404l1.663-0.013 0.526-1.577c0.068-0.204 0.357-0.204 0.425-0z"/></svg>