<!-- Generated by IcoMoon.io -->
<svg version="1.1" xmlns="http://www.w3.org/2000/svg" width="32" height="32" viewBox="0 0 32 32">
<title>paraguay</title>
<path fill="#ff4b55" d="M25 0h-18c-3.866 0-7 3.134-7 7v3.667h32v-3.667c0-3.866-3.134-7-7-7z"></path>
<path fill="#41479b" d="M0 25c0 3.866 3.134 7 7 7h18c3.866 0 7-3.134 7-7v-3.667h-32v3.667z"></path>
<path fill="#f5f5f5" d="M0 10.667h32v10.667h-32v-10.667z"></path>
<path fill="#ff4b55" d="M16 11.789c-2.325 0-4.21 1.885-4.21 4.21s1.885 4.21 4.21 4.21 4.21-1.885 4.21-4.21c0-2.325-1.885-4.21-4.21-4.21zM16 19.175c-1.754 0-3.175-1.422-3.175-3.175s1.422-3.175 3.175-3.175 3.175 1.422 3.175 3.175-1.422 3.175-3.175 3.175z"></path>
<path fill="#41479b" d="M17.46 16c0 0.807-0.654 1.46-1.46 1.46s-1.46-0.654-1.46-1.46c0-0.807 0.654-1.46 1.46-1.46s1.46 0.654 1.46 1.46z"></path>
<path fill="#ffe15a" d="M16.095 14.894l0.235 0.706 0.744 0.006c0.096 0.001 0.136 0.124 0.059 0.181l-0.599 0.442 0.224 0.709c0.029 0.092-0.076 0.168-0.154 0.112l-0.605-0.433-0.605 0.433c-0.078 0.056-0.183-0.020-0.154-0.112l0.224-0.709-0.599-0.442c-0.078-0.057-0.038-0.18 0.059-0.181l0.744-0.006 0.235-0.706c0.030-0.091 0.16-0.091 0.19 0z"></path>
<path fill="#64c86e" d="M18.763 16.034c0 0 0.083-0.386-0.327 0.077 0 0 0.006-0.132-0.006-0.241 0.090-0.098 0.202-0.312 0.176-0.768 0 0-0.064-0.39-0.276 0.192 0 0-0.058-0.172-0.119-0.267 0.051-0.106 0.090-0.298-0.032-0.663 0 0-0.143-0.312-0.187 0.224 0 0-0.117-0.175-0.193-0.218 0.015-0.086 0.003-0.235-0.169-0.475 0 0-0.172-0.193-0.085 0.203 0 0-0.157-0.128-0.208-0.113-0.026-0.075-0.102-0.203-0.356-0.371 0 0-0.22-0.121 0.032 0.194 0 0-0.223-0.088-0.221-0.038s0.111 0.144 0.199 0.186c0 0-0.327 0.034-0.193 0.107 0 0 0.332 0.114 0.532 0.004 0.016 0.058 0.049 0.123 0.097 0.17 0 0-0.39-0.076-0.284 0.041 0 0 0.292 0.215 0.581 0.182-0.001 0.080 0.023 0.182 0.065 0.259 0 0-0.465-0.248-0.377-0.059 0 0 0.278 0.371 0.647 0.452-0.015 0.083-0.015 0.183 0.005 0.265 0 0-0.441-0.416-0.401-0.179 0 0 0.184 0.489 0.558 0.696-0.030 0.062-0.055 0.131-0.065 0.196 0 0-0.257-0.55-0.307-0.314 0 0-0.009 0.549 0.285 0.877-0.062 0.052-0.124 0.125-0.161 0.196 0 0-0.056-0.604-0.183-0.399 0 0-0.175 0.457-0.056 0.852-0.078 0.023-0.163 0.066-0.226 0.117 0 0 0.186-0.577-0.011-0.439 0 0-0.351 0.379-0.377 0.806-0.093-0.002-0.219 0.032-0.31 0.086 0 0 0.267-0.545 0.052-0.436 0 0-0.382 0.312-0.481 0.718-0.090 0.052-0.244 0.139-0.397 0.226-0.089-0.052-0.176-0.102-0.25-0.145l0.002-0.004-0.869-0.729 0.017 0.238-0.436-0.78-0.054 0.266-0.143-0.863-0.127 0.127 0.049-0.805-0.165 0.089 0.3-0.599-0.141 0.040 0.371-0.355-0.196 0.017 0.469-0.213-0.171-0.026 0.458-0.232-0.197-0.010 0.593-0.205-0.109-0.095 0.514-0.152-0.615-0.047 0.175-0.216-0.47 0.24 0.067-0.325-0.411 0.423 0.071-0.296-0.384 0.382 0.025-0.289-0.38 0.644-0.049-0.288-0.316 0.723-0.087-0.315-0.141 0.896-0.118-0.133 0.155 0.864-0.196-0.147 0.36 0.776c0 0-0.261-0.114-0.294-0.114s0.625 0.668 0.625 0.668l-0.343-0.037 0.663 0.466-0.246 0.061 0.552 0.214-0.135 0.104 1.142 0.082c0 0 0.11 0.092 0.26 0.198-0.079 0.045-0.149 0.083-0.192 0.107s-0.094 0.026-0.14 0.007c-0.108-0.045-0.265-0.11-0.341-0.14 0 0 0.007 0.325 0.345 0.333 0.139 0.003 0.328-0.085 0.504-0.19 0.18 0.112 0.379 0.212 0.523 0.208 0.331-0.008 0.338-0.333 0.338-0.333-0.074 0.030-0.228 0.094-0.334 0.14-0.045 0.019-0.095 0.017-0.137-0.007-0.047-0.026-0.124-0.070-0.212-0.121 0.090-0.061 0.166-0.117 0.219-0.158 0.083 0.065 0.321 0.18 0.853-0.020 0 0 0.353-0.177-0.265-0.206 0 0 0.115-0.084 0.192-0.164 0.101 0.052 0.352 0.114 0.828-0.148 0 0 0.324-0.226-0.292-0.166 0 0 0.082-0.080 0.147-0.162 0.106 0.012 0.369-0.017 0.717-0.462 0 0 0.209-0.335-0.334-0.038 0 0 0.070-0.167 0.087-0.279 0.12-0.058 0.303-0.215 0.446-0.649z"></path>
</svg>
