<!-- Generated by IcoMoon.io -->
<svg version="1.1" xmlns="http://www.w3.org/2000/svg" width="32" height="32" viewBox="0 0 32 32">
<title>pitcairn-islands</title>
<path fill="#41479b" d="M25 0h-18c-3.866 0-7 3.134-7 7v18c0 3.866 3.134 7 7 7h18c3.866 0 7-3.134 7-7v-18c0-3.866-3.134-7-7-7z"></path>
<path fill="#73af00" d="M24.449 16.090c-0.012 0-0.025-0.004-0.036-0.012-0.009-0.007-0.865-0.674-0.361-1.805 0.013-0.030 0.049-0.043 0.079-0.030s0.044 0.049 0.030 0.079c-0.465 1.043 0.291 1.637 0.324 1.662 0.026 0.020 0.031 0.057 0.011 0.083-0.012 0.015-0.029 0.023-0.047 0.023z"></path>
<path fill="#73af00" d="M23.956 15.113c-0.002 0-0.005-0-0.007-0-0.033-0.004-0.056-0.033-0.052-0.066 0.025-0.214 0.105-0.363 0.239-0.444 0.216-0.13 0.485-0.026 0.496-0.021 0.031 0.012 0.046 0.046 0.034 0.077s-0.047 0.046-0.077 0.034c-0.002-0.001-0.227-0.086-0.392 0.013-0.1 0.061-0.161 0.18-0.182 0.355-0.003 0.030-0.029 0.053-0.059 0.053z"></path>
<path fill="#73af00" d="M24.117 14.346c-0.005-0.013-0.134-0.319-0.715-0.189-0.659 0.148-0.666 1.016-0.666 1.025 0 0.030 0.022 0.055 0.052 0.059 0.003 0 0.005 0 0.008 0 0.027 0 0.051-0.018 0.058-0.044 0.245-0.935 1.16-0.778 1.199-0.771 0.022 0.004 0.043-0.004 0.057-0.021s0.017-0.040 0.009-0.060z"></path>
<path fill="#73af00" d="M23.98 14.83c0 0-0.397-0.253-0.56 0.069s-0.040 0.669 0.025 0.808c0 0 0.236-0.261 0.461-0.298 0.278-0.045 0.347-0.392 0.154-0.565-0.231-0.207-0.079-0.015-0.079-0.015z"></path>
<path fill="#73af00" d="M24.414 14.238c-0.006 0.347 0.188 0.393 0.188 0.393 0.125-0.319-0.188-0.393-0.188-0.393z"></path>
<path fill="#73af00" d="M24.353 14.967c0.003-0.329 0.226-0.366 0.226-0.366 0.135 0.306-0.226 0.366-0.226 0.366z"></path>
<path fill="#ff4b55" d="M25.642 14.701c0 0-0.316-0.047-0.437-0.104-0.101-0.048-0.232-0.162-0.403-0.14-0.13 0-0.236 0.106-0.236 0.236s0.089 0.286 0.557 0.252c0.227-0.017 0.42 0.087 0.42 0.087-0.030-0.124 0.098-0.33 0.098-0.33z"></path>
<path fill="#ffe15a" d="M25.314 14.805c0 0-0.485 0.034-0.591-0.045-0.098-0.072-0.073-0.188 0.028-0.199 0.151-0.017 0.563 0.244 0.563 0.244z"></path>
<path fill="#b49b91" d="M26.257 15.353l-1.071 0.669-0.123-0.119 0.588-0.569 0.138 0.056 0.134-0.179-0.32-0.167c0 0-0.848 0.8-1.57 0.867-0.243 0.023-0.49 0.007-0.683-0.073l-0.433 0.623 0.908 0.774 1.332-0.052 1.101-1.495 0.193 0.089 0.164-0.193-0.357-0.231z"></path>
<path fill="#9b8278" d="M23.271 17.156c-0.298 0-0.541-0.242-0.541-0.54s0.242-0.541 0.541-0.541c0.298 0 0.54 0.242 0.54 0.541s-0.242 0.54-0.54 0.54zM23.271 16.254c-0.2 0-0.362 0.162-0.362 0.362s0.162 0.362 0.362 0.362 0.362-0.162 0.362-0.362-0.162-0.362-0.362-0.362z"></path>
<path fill="#73af00" d="M25.523 17.657c0 0 0.099-0.064 0.198-0.367l-0.203 0.030c0 0 0.040-0.169-0.005-0.293l-0.228 0.179c0 0-0.104-0.218-0.149-0.248 0 0-0.159 0.223-0.248 0.253 0 0-0.089-0.322-0.179-0.387l-0.154 0.218-0.228-0.179c0 0 0 0.154-0.005 0.188s-0.298-0.308-0.298-0.308-0.129 0.055-0.302 0.332l-0.218-0.223-0.089 0.293-0.302-0.079 0.050 0.174-0.263-0.020c0 0 0.045 0.258 0.174 0.347l2.45 0.089z"></path>
<path fill="#73af00" d="M22.894 18.76c0 0-0.818 1.041-2.366 0.922l1.681 0.231 0.863-0.818-0.179-0.335z"></path>
<path fill="#ffe15a" d="M20.224 19.527c0.164 0.119 1.175 0.409 1.904 0.059 0 0 0.015 0.171-0.067 0.268 0 0 0.536-0.216 0.826-0.617s-0.603 0.863-0.603 0.863l-1.369 0.253-0.558-0.461-0.134-0.365z"></path>
<path fill="#ffe15a" d="M20.116 15.776c-0.182 0.015-0.378 0.125-0.479 0.258-0.055-0.023-0.176-0.034-0.277 0.034-0.134 0.090-0.382 0.413-0.591 0.327 0 0-0.019 0.305 0.305 0.294 0 0-0.082 0.126-0.067 0.327s-0.13 0.335-0.13 0.335 0.655 0.093 0.681-0.417c0.003-0.062 0.006-0.117 0.009-0.166 0.342 0.184 0.476-0.076 0.476-0.076s-0.205-0.194 0.004-0.47 0.783 0.375 0.783 0.375c0.011-0.26-0.012-0.88-0.714-0.821z"></path>
<path fill="#73af00" d="M22.646 17.493c0 0-0.188 0.129-0.774 0.010 0 0 0.129-0.288 0.069-0.456 0 0-0.159 0.149-0.546 0.298s-0.863 0.625-1.002 0.932c0 0 0.87-2.006 0.171-2.209-0.24-0.070-0.446 0.043-0.519 0.155 0.035 0.042 0.069 0.101 0.073 0.18 0.007 0.171-0.164 1.324-0.417 2.12 0 0-0.074-0.275-0.193-0.409s-0.208-0.35-0.208-0.35-0.201 0.134-0.171 0.379c0 0-0.112-0.089-0.327-0.030s-0.298-0.082-0.298-0.082-0.179 0.476 0.35 0.722c0 0-0.141 0.067-0.208 0.119s-0.171 0.052-0.171 0.052 0.186 0.342 0.58 0.379c0.394 0.037 0.576 0.15 0.699 0.352 0.402 0.657 1.17 1.155 2.425 0.387 0 0-1.785 0.555-1.865-0.585-0.069-0.998 1.022-1.2 1.131-0.982s-0.010 0.407-0.010 0.407 0.595-0.139 0.308-0.684c0-0 0.585 0.089 0.903-0.704z"></path>
<path fill="#73af00" d="M28.377 19.527c-0.164 0.119-1.198 0.565-1.912-0.149s-0.993-1.786-0.952-1.666h-0.714l0.238 2.142 2.648 0.498 0.558-0.461 0.134-0.365z"></path>
<path fill="#73af00" d="M28.484 15.776c0.182 0.015 0.378 0.125 0.479 0.258 0.055-0.023 0.176-0.034 0.277 0.034 0.134 0.090 0.382 0.413 0.591 0.327 0 0 0.019 0.305-0.305 0.294 0 0 0.082 0.126 0.067 0.327s0.13 0.335 0.13 0.335-0.655 0.093-0.681-0.417c-0.003-0.062-0.006-0.117-0.009-0.166-0.342 0.184-0.476-0.076-0.476-0.076s0.205-0.194-0.004-0.47-0.783 0.375-0.783 0.375c-0.011-0.26 0.012-0.88 0.714-0.821z"></path>
<path fill="#ffe15a" d="M25.954 17.493c0 0 0.188 0.129 0.774 0.010 0 0-0.129-0.288-0.069-0.456 0 0 0.159 0.149 0.546 0.298s0.863 0.625 1.002 0.932c0 0-0.87-2.006-0.171-2.209 0.24-0.070 0.446 0.043 0.519 0.155-0.035 0.042-0.069 0.101-0.073 0.18-0.007 0.171 0.164 1.324 0.417 2.12 0 0 0.074-0.275 0.193-0.409s0.208-0.35 0.208-0.35 0.201 0.134 0.171 0.379c0 0 0.112-0.089 0.327-0.030s0.298-0.082 0.298-0.082 0.179 0.476-0.35 0.722c0 0 0.141 0.067 0.208 0.119s0.171 0.052 0.171 0.052-0.186 0.342-0.58 0.379c-0.394 0.037-0.575 0.15-0.699 0.352-0.402 0.657-1.17 1.155-2.425 0.387 0 0 1.785 0.555 1.865-0.585 0.069-0.998-1.022-1.2-1.131-0.982s0.010 0.407 0.010 0.407-0.595-0.139-0.308-0.684c0-0-0.585 0.089-0.902-0.704z"></path>
<path fill="#73af00" d="M25.448 19.16c0.293 0.427 0.699 0.813 1.88 1.18s1.496 0.422 2.114 0.922c0 0 0.117 0.124 0.163 0.323 0.053 0.234-0.308 0.908-0.308 0.908s0.035-0.159-0.183-0.466-1.508-0.863-2.182-1.032-1.84-0.951-1.518-1.537l0.034-0.298z"></path>
<path fill="#73af00" d="M29.441 21.26c0 0.001 0.001 0.001 0.001 0.002-0.001-0.001-0.001-0.002-0.002-0.002l0.001 0.001z"></path>
<path fill="#ffe15a" d="M29.411 22.71c0 0 0.030 0.216-0.149 0.402s-0.305 0.32-0.298 0.476c0 0-0.268-0.193-0.223-0.625 0 0-0.35 0.29-0.878 0.007 0 0 0.052-0.528 0.736-0.595 0 0-0.268-0.208 0.082-0.528 0 0 0.041 0.143 0.357 0.216 0.275 0.063 0.765-0.282 0.403-0.802 0.624 0.705 0.304 1.188-0.031 1.449z"></path>
<path fill="#ffe15a" d="M25.193 18.768c0 0 0.151 0.247 0.543 0.486 0.471 0.288 0.513 0.422 0.513 0.422l-0.32-0.007c0 0 0.409 0.223 0.521 0.506 0 0-0.171 0.030-0.364-0.022 0 0 0.156 0.141 0.082 0.595h-0.796l-0.179-1.979z"></path>
<path fill="#73af00" d="M23.608 20.806v-1.904c0 0-0.646 1.106-1.205 1.904h1.205z"></path>
<path fill="#ffe15a" d="M23.053 18.862c-0.159 0.288-0.655 1.235-1.835 1.602s-1.396 0.298-2.015 0.798c0 0-0.117 0.124-0.163 0.323-0.053 0.234 0.308 0.908 0.308 0.908s-0.035-0.159 0.183-0.466c0.218-0.308 1.5-0.895 2.182-1.032 0.943-0.188 1.796-1.2 1.657-1.855s-0.318-0.278-0.318-0.278z"></path>
<path fill="#73af00" d="M19.204 21.26c-0 0.001-0.001 0.001-0.001 0.002 0.001-0.001 0.001-0.002 0.002-0.002l-0.001 0.001z"></path>
<path fill="#73af00" d="M19.234 22.71c0 0-0.030 0.216 0.149 0.402s0.305 0.32 0.298 0.476c0 0 0.268-0.193 0.223-0.625 0 0 0.35 0.29 0.878 0.007 0 0-0.052-0.528-0.736-0.595 0 0 0.268-0.208-0.082-0.528 0 0-0.041 0.143-0.357 0.216-0.275 0.063-0.765-0.282-0.403-0.802-0.624 0.705-0.304 1.188 0.031 1.449z"></path>
<path fill="#ffe15a" d="M20.881 25.884c0 0 0.169 0.759 0.179 1.542 0 0 0.739 0.025 1.096-0.531 0 0-0.714-0.372-1.096-1.091l-0.179 0.079z"></path>
<path fill="#73af00" d="M20.722 24.208c-0.030-0.357 0.129-1.26 0.853-1.914l0.018-0.802c0 0-0.216 0.022-0.407 0.19l-0.409 0.634-0.379 1.436 0.325 0.456z"></path>
<path fill="#ffe15a" d="M20.742 24.466c0 0 0 0.764 0.317 1.339l-0.179 0.079c0 0-0.64-0.503-0.774-1.537 0 0-0.573 0.379-0.784-0.397 0 0 0.615 0.248 0.813-0.317 0.179-0.51 0.36-1.439 1.049-1.951-0.328 0.503-0.821 1.792-0.439 2.248 0.101 0.121 0.392 0.223 0.71 0.087-0.021 0.254-0.142 0.642-0.715 0.448z"></path>
<path fill="#ffce5a" d="M20.835 26.020l-0.104-0.192c-0.018-0.034-0.006-0.076 0.028-0.094l0.191-0.104c0.034-0.018 0.076-0.006 0.094 0.028l0.104 0.192c0.018 0.034 0.006 0.076-0.028 0.094l-0.191 0.104c-0.034 0.018-0.076 0.006-0.094-0.028z"></path>
<path fill="#ffe15a" d="M27.288 25.884c0 0-0.169 0.759-0.179 1.542 0 0-0.739 0.025-1.096-0.531 0 0 0.714-0.372 1.096-1.091l0.179 0.079z"></path>
<path fill="#ffe15a" d="M27.447 24.208c0.030-0.357-0.129-1.26-0.853-1.914l-0.018-0.802c0 0 0.216 0.022 0.407 0.19l0.409 0.634 0.379 1.436-0.325 0.456z"></path>
<path fill="#73af00" d="M26.712 24.018c0.318 0.136 0.609 0.034 0.71-0.087 0.382-0.456-0.111-1.745-0.439-2.248 0.689 0.512 0.87 1.441 1.049 1.951 0.198 0.565 0.813 0.317 0.813 0.317-0.211 0.776-0.784 0.397-0.784 0.397-0.134 1.034-0.774 1.537-0.774 1.537l-0.179-0.079c0.317-0.575 0.317-1.339 0.317-1.339-0.573 0.193-0.694-0.194-0.715-0.448z"></path>
<path fill="#ffce5a" d="M27.334 26.020l0.104-0.192c0.018-0.034 0.006-0.076-0.028-0.094l-0.191-0.104c-0.034-0.018-0.076-0.006-0.094 0.028l-0.104 0.192c-0.018 0.034-0.006 0.076 0.028 0.094l0.191 0.104c0.034 0.018 0.076 0.006 0.094-0.028z"></path>
<path fill="#4173cd" d="M21.704 20.568c-0.131 0-0.238 0.107-0.238 0.238v2.619c0 0.714 0.238 3.333 2.619 4.285 2.38-0.952 2.619-3.571 2.619-4.285v-2.619c0-0.131-0.107-0.238-0.238-0.238h-4.761z"></path>
<path fill="#ffe15a" d="M23.94 20.568l-2.258 4.327c0.056 0.2 0.127 0.407 0.215 0.616l2.186-4.191 2.186 4.191c0.088-0.209 0.159-0.416 0.215-0.616l-2.258-4.327h-0.289z"></path>
<path fill="#73af00" d="M26.271 25.512l-2.186-4.191-2.186 4.191c0.36 0.852 1.012 1.728 2.186 2.198 1.175-0.47 1.826-1.346 2.186-2.198v0z"></path>
<path fill="#ffe15a" d="M24.97 25.783l0.144 0.069c-0.060 0.089-0.186 0.234-0.426 0.364-0.182 0.099-0.357 0.216-0.484 0.305v-1.965l0.595-0.061v-0.238l-0.595-0.061v-0.296c0-0.066-0.053-0.119-0.119-0.119-0.056 0-0.101 0.040-0.113 0.092-0.040-0.028-0.085-0.049-0.138-0.049-0.133 0-0.242 0.108-0.242 0.242 0 0.063 0.026 0.119 0.065 0.162l-0.286 0.029v0.238l0.595 0.061v1.965c-0.127-0.090-0.302-0.207-0.484-0.305-0.24-0.131-0.366-0.275-0.426-0.364l0.144-0.069-0.543-0.692v0.952l0.183-0.088c0.072 0.117 0.226 0.305 0.529 0.47 0.254 0.138 0.5 0.317 0.597 0.391l0.119 0.092 0.119-0.092c0.098-0.073 0.344-0.253 0.597-0.391 0.303-0.165 0.456-0.353 0.529-0.47l0.183 0.088v-0.952l-0.543 0.692zM23.833 24.189c-0.068 0-0.123-0.055-0.123-0.123s0.055-0.123 0.123-0.123 0.123 0.055 0.123 0.123-0.055 0.123-0.123 0.123z"></path>
<path fill="#f5f5f5" d="M24.285 23.663h-0.4c-0.087 0-0.157-0.070-0.157-0.157v-0.638c0-0.087 0.070-0.157 0.157-0.157h0.4c0.087 0 0.157 0.070 0.157 0.157v0.638c0 0.087-0.070 0.157-0.157 0.157z"></path>
<path fill="#b49b91" d="M25.751 20.568c-0.476-0.714-0.476-2.142-0.476-2.142s0-0.952-1.19-0.952c-0.603 0-0.9 0.244-1.047 0.485-0.571 0.23-0.858 0.705-0.858 0.705 0.244 0.122 0.459 0.18 0.654 0.195 0.388 0.462 0.517 0.908 0.552 1.229-0.224 0.228-0.347 0.779-0.015 1.195 0 0 0.704-0.164 1.299-0.714l1.082 0z"></path>
<path fill="#9b8278" d="M24.669 20.568h0.888c-0.045-0.439-0.476-0.368-0.888 0z"></path>
<path fill="#9b8278" d="M25.535 20.119c-0.26-0.739-0.261-1.693-0.261-1.693s-0-0.015-0.003-0.042c-0.31-0.042-0.627-0.019-1.247 0.221-0.66 0.256-0.983 0.263-1.191 0.254 0.388 0.462 0.517 0.908 0.552 1.229l0.010 0.506c0 0 0.372 0.055 1.19-0.417 0.408-0.235 0.754-0.255 0.95-0.058z"></path>
<path fill="#9b8278" d="M24.268 18.322c0.483-0.121 0.791-0.108 0.989-0.038-0.053-0.265-0.272-0.81-1.173-0.81-0.603 0-0.9 0.244-1.047 0.485l-0.362 0.506c0 0 0.453 0.141 1.592-0.144z"></path>
<path fill="#ffe15a" d="M23.298 17.369c0.047 0.047 0.187 0.384 0.158 0.434-0.019 0.032-0.391 0.125-0.451 0.078-0.054-0.042-0.117-0.405-0.081-0.447 0.033-0.038 0.335-0.103 0.374-0.064z"></path>
<path fill="#73af00" d="M23.777 17.351c0.043 0.050 0.141 0.379 0.102 0.421-0.025 0.027-0.44 0.060-0.498 0.008-0.051-0.046-0.063-0.389-0.017-0.423 0.041-0.030 0.377-0.048 0.413-0.007z"></path>
<path fill="#ffe15a" d="M24.23 17.339c0.045 0.047 0.147 0.357 0.107 0.396-0.026 0.025-0.455 0.055-0.515 0.006-0.053-0.044-0.066-0.366-0.019-0.397 0.042-0.028 0.39-0.044 0.427-0.005z"></path>
<path fill="#73af00" d="M24.691 17.36c0.040 0.051 0.114 0.376 0.073 0.414-0.027 0.024-0.443 0.025-0.497-0.029-0.048-0.048-0.035-0.38 0.012-0.409 0.043-0.026 0.379-0.019 0.412 0.024z"></path>
<path fill="#73af00" d="M25.642 17.558c0.031 0.057 0.028 0.359-0.020 0.389-0.030 0.020-0.405-0.047-0.45-0.11-0.039-0.056 0.028-0.381 0.079-0.401 0.047-0.019 0.364 0.074 0.39 0.122z"></path>
<path fill="#ffe15a" d="M25.205 17.429c0.038 0.052 0.066 0.355 0.021 0.387-0.029 0.021-0.458-0.015-0.51-0.071-0.046-0.050-0.012-0.363 0.038-0.386 0.046-0.021 0.419 0.026 0.451 0.070z"></path>
<path fill="#9b8278" d="M23.416 16.539c0.068 0.146-0.074 0.289-0.221 0.221-0.030-0.014-0.054-0.038-0.068-0.068-0.068-0.146 0.074-0.289 0.221-0.221 0.030 0.014 0.054 0.038 0.068 0.068z"></path>
<path fill="#f5f5f5" d="M9.263 16h0.842v-5.111l5.895 3.862v-1.248l-5.236-3.398h1.547l3.689 2.394v-0.768l-2.482-1.626h2.482v-0.842h-6.737z"></path>
<path fill="#f5f5f5" d="M5.895 16h0.842v-6.737h-6.737v0.842h2.482l-2.482 1.626v1.181l4.325-2.807h1.547l-5.872 3.811v0.835l5.895-3.862z"></path>
<path fill="#f5f5f5" d="M6.737 0.005c-0.285 0.011-0.566 0.038-0.842 0.082v5.023l-4.159-2.725c-0.25 0.285-0.478 0.591-0.679 0.915l3.996 2.594h-1.547l-2.852-1.851c-0.078 0.168-0.15 0.338-0.215 0.513l2.043 1.339h-2.395c-0.044 0.276-0.071 0.557-0.082 0.842h6.731l-0-6.731z"></path>
<path fill="#f5f5f5" d="M16 6.737v-0.842h-2.482l2.482-1.626v-1.196l-4.348 2.822h-1.547l5.895-3.826v-0.82l-5.895 3.862v-5.111h-0.842v6.737z"></path>
<path fill="#ff4b55" d="M6.737 16h2.526v-6.737h6.737v-2.526h-6.737v-6.737h-2.263c-0.088 0-0.176 0.002-0.263 0.005v6.731h-6.731c-0.003 0.087-0.005 0.175-0.005 0.263v2.263h6.737v6.737z"></path>
<path fill="#ff4b55" d="M4.325 10.105l-4.325 2.807v1.004l5.872-3.811z"></path>
<path fill="#ff4b55" d="M10.764 10.105l5.236 3.398v-1.004l-3.689-2.394z"></path>
<path fill="#ff4b55" d="M5.053 5.895l-3.996-2.594c-0.149 0.238-0.283 0.486-0.403 0.742l2.852 1.851 1.547 0z"></path>
<path fill="#ff4b55" d="M11.652 5.895l4.348-2.822v-1.004l-5.895 3.826z"></path>
</svg>
