<svg xmlns="http://www.w3.org/2000/svg" width="32" height="32" version="1.1" viewBox="0 0 32 32"><title>portugal</title><path fill="#ff4b55" d="M25 0h-13.414v32h13.414c3.866 0 7-3.134 7-7v-18c0-3.866-3.134-7-7-7z"/><path fill="#73af00" d="M7 0c-3.866 0-7 3.134-7 7v18c0 3.866 3.134 7 7 7h4.586v-32h-4.586z"/><path fill="#ffe15a" d="M18.614 16c0 3.879-3.145 7.024-7.024 7.024s-7.024-3.145-7.024-7.024c0-3.879 3.145-7.024 7.024-7.024s7.024 3.145 7.024 7.024z"/><path fill="#ff4b55" d="M13.934 13.657v3.124c0 1.292-1.051 2.343-2.343 2.343s-2.343-1.051-2.343-2.343v-3.124h4.687zM14.715 12.095h-6.249c-0.431 0-0.781 0.35-0.781 0.781v3.905c0 2.157 1.749 3.905 3.905 3.905s3.905-1.749 3.905-3.905v-3.905c0-0.431-0.35-0.781-0.781-0.781v0z"/><path fill="#f5f5f5" d="M13.246 14.345v2.207c0 0.913-0.742 1.655-1.655 1.655s-1.655-0.742-1.655-1.655v-2.207h3.31z"/><path fill="#ffe15a" d="M8.851 12.876c0 0.216-0.175 0.391-0.391 0.391s-0.391-0.175-0.391-0.391c0-0.216 0.175-0.391 0.391-0.391s0.391 0.175 0.391 0.391z"/><path fill="#ffe15a" d="M15.099 12.876c0 0.216-0.175 0.391-0.391 0.391s-0.391-0.175-0.391-0.391c0-0.216 0.175-0.391 0.391-0.391s0.391 0.175 0.391 0.391z"/><path fill="#ffe15a" d="M8.851 16c0 0.216-0.175 0.391-0.391 0.391s-0.391-0.175-0.391-0.391c0-0.216 0.175-0.391 0.391-0.391s0.391 0.175 0.391 0.391z"/><path fill="#ffe15a" d="M15.099 16c0 0.216-0.175 0.391-0.391 0.391s-0.391-0.175-0.391-0.391c0-0.216 0.175-0.391 0.391-0.391s0.391 0.175 0.391 0.391z"/><path fill="#ffe15a" d="M11.975 12.876c0 0.216-0.175 0.391-0.391 0.391s-0.391-0.175-0.391-0.391c0-0.216 0.175-0.391 0.391-0.391s0.391 0.175 0.391 0.391z"/><path fill="#ffe15a" d="M14.32 18.88c0 0.216-0.175 0.391-0.391 0.391s-0.391-0.175-0.391-0.391c0-0.216 0.175-0.391 0.391-0.391s0.391 0.175 0.391 0.391z"/><path fill="#ffe15a" d="M9.676 18.88c0 0.216-0.175 0.391-0.391 0.391s-0.391-0.175-0.391-0.391c0-0.216 0.175-0.391 0.391-0.391s0.391 0.175 0.391 0.391z"/><path fill="#41479b" d="M12.095 15.802v0.673c0 0.278-0.226 0.504-0.504 0.504s-0.504-0.226-0.504-0.504v-0.673h1.009z"/><path fill="#41479b" d="M12.095 14.207v0.673c0 0.278-0.226 0.504-0.504 0.504s-0.504-0.226-0.504-0.504v-0.673h1.009z"/><path fill="#41479b" d="M12.095 17.413v0.673c0 0.278-0.226 0.504-0.504 0.504s-0.504-0.226-0.504-0.504v-0.673h1.009z"/><path fill="#41479b" d="M13.454 15.802v0.673c0 0.278-0.226 0.504-0.504 0.504s-0.504-0.226-0.504-0.504v-0.673h1.009z"/><path fill="#41479b" d="M10.736 15.802v0.673c0 0.278-0.226 0.504-0.504 0.504s-0.504-0.226-0.504-0.504v-0.673h1.009z"/></svg>