<!-- Generated by IcoMoon.io -->
<svg version="1.1" xmlns="http://www.w3.org/2000/svg" width="32" height="32" viewBox="0 0 32 32">
<title>puerto-rico</title>
<path fill="#ff4b55" d="M25 0h-18c-3.664 0-6.67 2.815-6.974 6.4h31.948c-0.304-3.585-3.31-6.4-6.974-6.4z"></path>
<path fill="#f5f5f5" d="M0.026 6.4c-0.017 0.198-0.026 0.398-0.026 0.6v5.8h32v-5.8c0-0.202-0.009-0.402-0.026-0.6h-31.948z"></path>
<path fill="#ff4b55" d="M0 12.8h32v6.4h-32v-6.4z"></path>
<path fill="#ff4b55" d="M7 32h18c3.664 0 6.67-2.815 6.974-6.4h-31.948c0.304 3.585 3.31 6.4 6.974 6.4z"></path>
<path fill="#f5f5f5" d="M0 25c0 0.202 0.009 0.402 0.026 0.6h31.948c0.017-0.198 0.026-0.398 0.026-0.6v-5.8h-32v5.8z"></path>
<path fill="#41479b" d="M16.672 15.475l-14.545-13.5c-1.312 1.272-2.128 3.053-2.128 5.025v18c0 1.972 0.816 3.753 2.128 5.025l14.545-13.5c0.267-0.248 0.267-0.802 0-1.050z"></path>
<path fill="#f5f5f5" d="M6.815 12.443l0.8 2.399 2.529 0.020c0.327 0.003 0.463 0.42 0.2 0.615l-2.034 1.502 0.763 2.411c0.099 0.312-0.257 0.57-0.523 0.38l-2.058-1.471-2.058 1.471c-0.266 0.19-0.622-0.068-0.523-0.38l0.763-2.411-2.034-1.502c-0.263-0.194-0.128-0.612 0.2-0.615l2.529-0.020 0.8-2.399c0.104-0.311 0.543-0.311 0.646 0z"></path>
</svg>
