<svg xmlns="http://www.w3.org/2000/svg" width="32" height="32" version="1.1" viewBox="0 0 32 32"><title>rwanda</title><path fill="#4173cd" d="M25 0h-18c-3.866 0-7 3.134-7 7v9h32v-9c0-3.866-3.134-7-7-7z"/><path fill="#ffe15a" d="M0 16h32v8h-32v-8z"/><path fill="#73af00" d="M0 25c0 3.866 3.134 7 7 7h18c3.866 0 7-3.134 7-7v-1h-32v1z"/><path fill="#ffe15a" d="M26.869 8.571l3.447-0.571-3.447-0.571 2.966-1.846-3.403 0.792 2.034-2.841-2.841 2.034 0.792-3.403-1.846 2.966-0.571-3.447-0.571 3.447-1.846-2.966 0.792 3.403-2.841-2.034 2.034 2.841-3.403-0.792 2.966 1.846-3.447 0.571 3.447 0.571-2.966 1.846 3.403-0.792-2.034 2.841 2.841-2.034-0.792 3.403 1.846-2.966 0.571 3.447 0.571-3.447 1.846 2.966-0.792-3.403 2.841 2.034-2.034-2.841 3.403 0.792-2.966-1.846zM24 10.105c-1.163 0-2.105-0.943-2.105-2.105s0.943-2.105 2.105-2.105 2.105 0.943 2.105 2.105-0.943 2.105-2.105 2.105z"/><path fill="#ffe15a" d="M25.579 8c0 0.872-0.707 1.579-1.579 1.579s-1.579-0.707-1.579-1.579c0-0.872 0.707-1.579 1.579-1.579s1.579 0.707 1.579 1.579z"/></svg>