<svg xmlns="http://www.w3.org/2000/svg" width="32" height="32" version="1.1" viewBox="0 0 32 32"><title>saint-kitts-and-nevis</title><path fill="#73af00" d="M32 25v-18c0-3.866-3.134-7-7-7h-18c-3.866 0-6.999 3.133-7 6.999v18.003c0.001 3.865 3.134 6.999 7 6.999h18c3.866 0 7-3.134 7-7z"/><path fill="#ffe15a" d="M25 0h-1.557l-23.443 23.443v1.558c0 0.305 0.020 0.606 0.058 0.901l25.844-25.844c-0.295-0.038-0.596-0.058-0.902-0.058z"/><path fill="#ffe15a" d="M32 7c0-0.306-0.020-0.607-0.058-0.902l-25.844 25.844c0.295 0.038 0.596 0.058 0.902 0.058h1.557l23.443-23.443v-1.557z"/><path fill="#464655" d="M25.902 0.058l-25.844 25.844c0.405 3.145 2.896 5.636 6.040 6.040l25.844-25.844c-0.405-3.145-2.896-5.636-6.040-6.040z"/><path fill="#f5f5f5" d="M10.077 18.674l1.312 0.626 1.017-1.039c0.132-0.134 0.359-0.024 0.334 0.163l-0.19 1.442 1.302 0.646c0.169 0.084 0.134 0.334-0.051 0.368l-1.43 0.265-0.212 1.438c-0.027 0.186-0.276 0.23-0.366 0.065l-0.694-1.278-1.434 0.243c-0.186 0.031-0.304-0.192-0.175-0.328l1.001-1.055-0.674-1.288c-0.087-0.167 0.088-0.349 0.258-0.268z"/><path fill="#f5f5f5" d="M19.202 9.424l1.312 0.626 1.017-1.039c0.132-0.134 0.359-0.024 0.334 0.163l-0.19 1.441 1.302 0.646c0.169 0.084 0.134 0.334-0.051 0.368l-1.43 0.265-0.212 1.438c-0.027 0.186-0.276 0.23-0.366 0.065l-0.694-1.278-1.433 0.243c-0.186 0.031-0.304-0.191-0.175-0.328l1.001-1.055-0.674-1.288c-0.087-0.167 0.088-0.349 0.258-0.268z"/><path fill="#ff4b55" d="M32 25v-16.443l-23.443 23.443h16.443c3.866 0 7-3.134 7-7z"/></svg>