<svg xmlns="http://www.w3.org/2000/svg" width="32" height="32" version="1.1" viewBox="0 0 32 32"><title>samoa</title><path fill="#ff4b55" d="M32 25v-18c0-3.866-3.134-7-7-7h-18c-3.866 0-7 3.134-7 7v18c0 3.866 3.134 7 7 7h18c3.866 0 7-3.134 7-7z"/><path fill="#41479b" d="M16 0h-9c-3.866 0-7 3.134-7 7v9h16v-16z"/><path fill="#f5f5f5" d="M8.048 10.629l-0.387 1.159-1.222 0.009c-0.158 0.001-0.224 0.203-0.096 0.297l0.983 0.726-0.369 1.165c-0.048 0.151 0.124 0.276 0.253 0.184l0.994-0.71 0.994 0.71c0.129 0.092 0.3-0.033 0.253-0.184l-0.369-1.165 0.983-0.726c0.127-0.094 0.062-0.296-0.097-0.297l-1.222-0.009-0.387-1.159c-0.050-0.15-0.262-0.15-0.312-0z"/><path fill="#f5f5f5" d="M8.078 1.591l-0.313 0.938-0.988 0.008c-0.128 0.001-0.181 0.164-0.078 0.24l0.795 0.587-0.298 0.942c-0.039 0.122 0.1 0.223 0.204 0.149l0.804-0.575 0.804 0.575c0.104 0.074 0.243-0.027 0.204-0.149l-0.298-0.942 0.795-0.587c0.103-0.076 0.050-0.239-0.078-0.24l-0.988-0.008-0.313-0.938c-0.041-0.121-0.212-0.121-0.253 0z"/><path fill="#f5f5f5" d="M13.078 4.38l-0.313 0.938-0.988 0.008c-0.128 0.001-0.181 0.164-0.078 0.24l0.795 0.587-0.298 0.942c-0.039 0.122 0.1 0.223 0.204 0.149l0.804-0.575 0.804 0.575c0.104 0.074 0.243-0.027 0.204-0.149l-0.298-0.942 0.795-0.587c0.103-0.076 0.050-0.239-0.078-0.24l-0.988-0.008-0.313-0.938c-0.041-0.121-0.212-0.121-0.253 0z"/><path fill="#f5f5f5" d="M3.183 5.486l-0.313 0.938-0.988 0.008c-0.128 0.001-0.181 0.164-0.078 0.24l0.795 0.587-0.298 0.942c-0.039 0.122 0.1 0.223 0.204 0.149l0.804-0.575 0.804 0.575c0.104 0.074 0.243-0.027 0.204-0.149l-0.298-0.942 0.795-0.587c0.103-0.076 0.050-0.239-0.078-0.24l-0.988-0.008-0.313-0.938c-0.041-0.121-0.212-0.121-0.253 0z"/><path fill="#f5f5f5" d="M10.923 8.547l-0.176 0.526-0.555 0.004c-0.072 0.001-0.102 0.092-0.044 0.135l0.446 0.33-0.167 0.529c-0.022 0.069 0.056 0.125 0.115 0.083l0.451-0.323 0.451 0.323c0.058 0.042 0.136-0.015 0.115-0.083l-0.167-0.529 0.446-0.33c0.058-0.043 0.028-0.134-0.044-0.135l-0.555-0.004-0.176-0.526c-0.023-0.068-0.119-0.068-0.142 0z"/></svg>