<svg xmlns="http://www.w3.org/2000/svg" width="32" height="32" version="1.1" viewBox="0 0 32 32"><title>sao-tome-and-prince</title><path fill="#73af00" d="M25 0h-18c-3.866 0-7 3.134-7 7v18c0 3.866 3.134 7 7 7h18c3.866 0 7-3.134 7-7v-18c0-3.866-3.134-7-7-7z"/><path fill="#ffe15a" d="M0 7.579h32v16.842h-32v-16.842z"/><path fill="#ff4b55" d="M8.776 15.564l-7.273-12.898c-0.941 1.192-1.503 2.698-1.503 4.334v18c0 1.637 0.562 3.142 1.503 4.334l7.273-12.898c0.125-0.223 0.125-0.65 0-0.873z"/><path fill="#464655" d="M14.416 12.708l0.627 1.88 1.982 0.015c0.257 0.002 0.363 0.329 0.157 0.482l-1.594 1.177 0.598 1.889c0.077 0.245-0.201 0.447-0.41 0.298l-1.612-1.152-1.612 1.152c-0.209 0.149-0.487-0.053-0.41-0.298l0.598-1.889-1.594-1.177c-0.206-0.152-0.1-0.48 0.157-0.482l1.982-0.015 0.627-1.88c0.081-0.243 0.425-0.243 0.506 0z"/><path fill="#464655" d="M23.564 12.708l0.627 1.88 1.982 0.015c0.257 0.002 0.363 0.329 0.157 0.482l-1.594 1.177 0.598 1.889c0.077 0.245-0.201 0.447-0.41 0.298l-1.612-1.152-1.612 1.152c-0.209 0.149-0.487-0.053-0.41-0.298l0.598-1.889-1.594-1.177c-0.206-0.152-0.1-0.48 0.157-0.482l1.982-0.015 0.627-1.88c0.081-0.243 0.425-0.243 0.506 0z"/></svg>