<!-- Generated by IcoMoon.io -->
<svg version="1.1" xmlns="http://www.w3.org/2000/svg" width="32" height="32" viewBox="0 0 32 32">
<title>scotland</title>
<path fill="#4173cd" d="M25 0h-18c-3.866 0-7 3.134-7 7v18c0 3.866 3.134 7 7 7h18c3.866 0 7-3.134 7-7v-18c0-3.866-3.134-7-7-7z"></path>
<path fill="#f5f5f5" d="M31.225 3.796c-0.668-1.294-1.727-2.353-3.021-3.021l-12.204 12.204-12.204-12.204c-1.294 0.667-2.353 1.727-3.021 3.021l12.204 12.204-12.204 12.204c0.667 1.294 1.726 2.353 3.021 3.021l12.204-12.204 12.204 12.204c1.294-0.668 2.353-1.727 3.021-3.021l-12.204-12.204 12.204-12.204z"></path>
</svg>
