<svg xmlns="http://www.w3.org/2000/svg" width="32" height="32" version="1.1" viewBox="0 0 32 32"><title>seychelles</title><path fill="#73af00" d="M32 25v-3.666l-28.744 9.581c1.083 0.687 2.367 1.085 3.744 1.085h18c3.866 0 7-3.134 7-7z"/><path fill="#41479b" d="M7 0c-3.803 0-6.898 3.033-6.997 6.812l-0.002 18.244c0.011 1.356 0.407 2.621 1.085 3.689l9.585-28.745h-3.67z"/><path fill="#ffe15a" d="M10.67 0l-9.585 28.745c0.172 0.271 0.362 0.53 0.569 0.774l19.682-29.519h-10.667z"/><path fill="#ff4b55" d="M32 7c0-3.866-3.134-7-7-7h-3.663l-19.682 29.519c0.252 0.298 0.529 0.575 0.827 0.827l29.518-19.677v-3.669h0z"/><path fill="#f5f5f5" d="M32 10.669l-29.519 19.677c0.244 0.207 0.503 0.397 0.774 0.569l28.744-9.581v-10.666h0z"/></svg>