<svg xmlns="http://www.w3.org/2000/svg" width="32" height="32" version="1.1" viewBox="0 0 32 32"><title>singapore</title><path fill="#ff4b55" d="M32 7c0-3.866-3.134-7-7-7h-18c-3.866 0-7 3.134-7 7v9.031h32v-9.031z"/><path fill="#f5f5f5" d="M32 25v-8.969h-32v8.969c0 3.866 3.134 7 7 7h18c3.866 0 7-3.134 7-7z"/><path fill="#f5f5f5" d="M5.39 7.589c0-2.717 1.993-4.969 4.596-5.385 0.141-0.023 0.148-0.217 0.008-0.249-0.644-0.148-1.329-0.19-2.040-0.094-2.808 0.382-4.978 2.812-5.017 5.645-0.045 3.235 2.563 5.869 5.782 5.869 0.438 0 0.864-0.051 1.273-0.145 0.139-0.032 0.132-0.227-0.009-0.249-2.602-0.416-4.595-2.664-4.595-5.391z"/><path fill="#f5f5f5" d="M10.029 9.043l-0.245 0.733-0.773 0.006c-0.1 0.001-0.142 0.129-0.061 0.188l0.622 0.459-0.233 0.737c-0.030 0.095 0.078 0.174 0.16 0.116l0.629-0.45 0.629 0.45c0.081 0.058 0.19-0.021 0.16-0.116l-0.233-0.737 0.622-0.459c0.081-0.059 0.039-0.187-0.061-0.188l-0.773-0.006-0.245-0.733c-0.031-0.095-0.166-0.095-0.197 0z"/><path fill="#f5f5f5" d="M13.85 9.043l-0.245 0.733-0.773 0.006c-0.1 0.001-0.142 0.129-0.061 0.188l0.622 0.459-0.233 0.737c-0.030 0.095 0.078 0.174 0.16 0.116l0.629-0.45 0.629 0.45c0.081 0.058 0.19-0.021 0.16-0.116l-0.233-0.737 0.622-0.459c0.081-0.059 0.039-0.187-0.061-0.188l-0.773-0.006-0.245-0.733c-0.032-0.095-0.166-0.095-0.197 0z"/><path fill="#f5f5f5" d="M11.957 3.146l-0.245 0.733-0.773 0.006c-0.1 0.001-0.142 0.128-0.061 0.188l0.622 0.459-0.233 0.737c-0.030 0.095 0.078 0.174 0.16 0.116l0.629-0.449 0.629 0.45c0.081 0.058 0.19-0.021 0.16-0.116l-0.233-0.737 0.622-0.459c0.081-0.059 0.039-0.187-0.061-0.188l-0.773-0.006-0.245-0.733c-0.031-0.095-0.166-0.095-0.197 0z"/><path fill="#f5f5f5" d="M8.911 5.405l-0.245 0.733-0.773 0.006c-0.1 0.001-0.142 0.128-0.061 0.188l0.622 0.459-0.233 0.737c-0.030 0.095 0.078 0.174 0.16 0.116l0.629-0.449 0.629 0.45c0.081 0.058 0.19-0.021 0.16-0.116l-0.233-0.737 0.622-0.459c0.081-0.059 0.039-0.187-0.061-0.188l-0.773-0.006-0.245-0.733c-0.032-0.095-0.166-0.095-0.198 0z"/><path fill="#f5f5f5" d="M14.978 5.405l-0.245 0.733-0.773 0.006c-0.1 0.001-0.142 0.128-0.061 0.188l0.622 0.459-0.233 0.737c-0.030 0.095 0.078 0.174 0.16 0.116l0.629-0.449 0.629 0.45c0.081 0.058 0.19-0.021 0.16-0.116l-0.233-0.737 0.622-0.459c0.081-0.059 0.039-0.187-0.061-0.188l-0.773-0.006-0.245-0.733c-0.032-0.095-0.166-0.095-0.197 0z"/></svg>