<!-- Generated by IcoMoon.io -->
<svg version="1.1" xmlns="http://www.w3.org/2000/svg" width="32" height="32" viewBox="0 0 32 32">
<title>sint-eustatius</title>
<path fill="#41479b" d="M25 0h-18c-3.866 0-7 3.134-7 7v18c0 3.866 3.134 7 7 7h18c3.866 0 7-3.134 7-7v-18c0-3.866-3.134-7-7-7z"></path>
<path fill="#ff4b55" d="M25 0h-18c-3.866 0-7 3.134-7 7v18c0 3.866 3.134 7 7 7h18c3.866 0 7-3.134 7-7v-18c0-3.866-3.134-7-7-7zM1.103 7.38c0-3.507 2.843-6.35 6.35-6.35h7.995v7.22l-8.323 6.908h-6.021v-7.778zM15.448 31h-7.995c-3.507 0-6.35-2.843-6.35-6.35v-8.495h6.022l8.323 6.97v7.875zM7.8 15.624l8.2-6.25 8.2 6.25-8.2 6.626-8.2-6.626zM30.897 24.65c0 3.507-2.843 6.35-6.35 6.35h-7.995v-7.875l8.323-6.97h6.022v8.495zM30.897 15.158h-6.022l-8.323-6.908v-7.22h7.995c3.507 0 6.35 2.843 6.35 6.35v7.778z"></path>
<path fill="#f5f5f5" d="M16 8.875l-8.2 6.75 8.2 6.688 8.2-6.688z"></path>
<path fill="#73af00" d="M22.59 16.938l-1.718-2.575h-0.603l-0.445 0.667-0.318-0.476h-0.635l-2.437 3.652h-3.059l-0.695-1.541h-0.882l-0.347 0.729h-0.39l-0.28 0.661 2.385 1.945h5.671z"></path>
<path fill="#ffe15a" d="M16.182 12.126l0.219 0.658 0.693 0.005c0.090 0.001 0.127 0.115 0.055 0.168l-0.558 0.412 0.209 0.661c0.027 0.086-0.070 0.156-0.143 0.104l-0.564-0.403-0.564 0.403c-0.073 0.052-0.17-0.019-0.143-0.104l0.209-0.661-0.558-0.412c-0.072-0.053-0.035-0.168 0.055-0.168l0.693-0.005 0.219-0.658c0.028-0.085 0.149-0.085 0.177 0z"></path>
</svg>
