<!-- Generated by IcoMoon.io -->
<svg version="1.1" xmlns="http://www.w3.org/2000/svg" width="32" height="32" viewBox="0 0 32 32">
<title>sint-maarten</title>
<path fill="#ff4b55" d="M25 0h-18c-3.866 0-7 3.134-7 7v9h32v-9c0-3.866-3.134-7-7-7z"></path>
<path fill="#41479b" d="M0 25c0 3.866 3.134 7 7 7h18c3.866 0 7-3.134 7-7v-9h-32v9z"></path>
<path fill="#f5f5f5" d="M2.050 2.050c-1.267 1.267-2.050 3.017-2.050 4.95v18c0 1.933 0.783 3.683 2.050 4.95l13.95-13.95-13.95-13.95z"></path>
<path fill="#ffe15a" d="M7.235 13.129c0.636 1.515-0.805 2.955-2.319 2.319-0.377-0.158-0.679-0.46-0.837-0.837-0.636-1.515 0.805-2.955 2.319-2.319 0.377 0.158 0.679 0.46 0.837 0.837z"></path>
<path fill="#8cd7ff" d="M7.774 15.475c0.007 0.21 0.030 0.427 0.052 0.637 0.087 0.823 0.161 1.533-0.629 1.809-0.187 0.065-0.441 0.102-0.687 0.137-0.353 0.051-0.669 0.096-0.853 0.224-0.184-0.128-0.5-0.173-0.853-0.224-0.246-0.035-0.5-0.072-0.687-0.137-0.79-0.276-0.715-0.986-0.629-1.809 0.022-0.21 0.045-0.427 0.052-0.637 0.025-0.745-0.132-1.475-0.243-1.887 0.184 0.075 0.439 0.143 0.751 0.138 0.135-0.003 0.286-0.022 0.446-0.042 0.365-0.047 0.779-0.099 1.11 0.032l0.053 0.024 0.053-0.024c0.331-0.131 0.745-0.079 1.11-0.032 0.16 0.020 0.311 0.040 0.446 0.042 0.312 0.005 0.567-0.063 0.751-0.138-0.11 0.412-0.267 1.142-0.243 1.887z"></path>
<path fill="#ff4b55" d="M8.063 15.466c-0.035-1.056 0.325-2.115 0.329-2.126l-0.227-0.159c-0.003 0.002-0.344 0.267-0.893 0.257-0.119-0.002-0.263-0.021-0.415-0.040-0.382-0.048-0.813-0.103-1.2 0.030-0.387-0.133-0.818-0.079-1.2-0.030-0.152 0.019-0.296 0.038-0.415 0.040-0.549 0.011-0.89-0.254-0.893-0.257l-0.227 0.159c0.004 0.011 0.364 1.070 0.329 2.126-0.007 0.2-0.029 0.411-0.050 0.616-0.087 0.825-0.185 1.761 0.821 2.112 0.213 0.074 0.483 0.107 0.741 0.15 0.777 0.129 0.894 0.327 0.894 0.327s0.117-0.198 0.894-0.327c0.259-0.043 0.528-0.076 0.741-0.15 1.006-0.351 0.908-1.287 0.821-2.112-0.022-0.205-0.044-0.416-0.050-0.616zM7.774 15.475c0.007 0.21 0.030 0.427 0.052 0.637 0.087 0.823 0.161 1.533-0.629 1.809-0.187 0.065-0.441 0.102-0.687 0.137-0.353 0.051-0.669 0.096-0.853 0.224-0.184-0.128-0.5-0.173-0.853-0.224-0.246-0.035-0.5-0.072-0.687-0.137-0.79-0.276-0.715-0.986-0.629-1.809 0.022-0.21 0.045-0.427 0.052-0.637 0.025-0.745-0.132-1.475-0.243-1.887 0.184 0.075 0.439 0.143 0.751 0.138 0.135-0.003 0.286-0.022 0.446-0.042 0.365-0.047 0.779-0.099 1.11 0.032l0.053 0.024 0.053-0.024c0.331-0.131 0.745-0.079 1.11-0.032 0.16 0.020 0.311 0.040 0.446 0.042 0.312 0.005 0.567-0.063 0.751-0.138-0.11 0.412-0.267 1.142-0.243 1.887z"></path>
<path fill="#f5f5f5" d="M7.146 17.25v-0.636h0.109v-0.188h-0.267v-0.654h0.267l-1.22-0.864v-0.325h0.17l-0.548-0.388-0.548 0.388h0.17v0.325l-1.22 0.864h0.267v0.654h-0.267v0.188h0.109v0.636h-0.159v0.275h3.297v-0.275z"></path>
<path fill="#41aa5a" d="M4.075 14.646c-0.039 0.092-0.032 0.19 0.009 0.262 0.080-0.020 0.155-0.084 0.194-0.176s0.032-0.19-0.009-0.262c-0.080 0.020-0.155 0.084-0.194 0.176z"></path>
<path fill="#41aa5a" d="M4.263 14.675c0.026 0.097 0.090 0.17 0.167 0.202 0.051-0.065 0.072-0.161 0.046-0.258s-0.090-0.17-0.167-0.202c-0.051 0.065-0.071 0.161-0.046 0.258z"></path>
<path fill="#41aa5a" d="M4.557 14.514c0.094 0.035 0.191 0.024 0.261-0.020-0.024-0.079-0.090-0.151-0.184-0.186s-0.191-0.024-0.261 0.020c0.024 0.079 0.090 0.151 0.184 0.186z"></path>
<path fill="#41aa5a" d="M4.645 14.349c0.092-0.040 0.154-0.116 0.173-0.196-0.072-0.040-0.17-0.046-0.262-0.005s-0.154 0.116-0.173 0.196c0.072 0.040 0.17 0.046 0.262 0.005z"></path>
<path fill="#41aa5a" d="M4.030 14.432c0.082-0.058 0.127-0.144 0.13-0.227-0.079-0.025-0.176-0.010-0.257 0.047s-0.127 0.144-0.13 0.227c0.079 0.025 0.176 0.010 0.257-0.047z"></path>
<path fill="#41aa5a" d="M3.962 14.311c0.126 0.072 0.26 0.091 0.36 0.063-0.026-0.101-0.111-0.207-0.236-0.279s-0.26-0.091-0.36-0.063c0.026 0.101 0.111 0.207 0.236 0.279z"></path>
<path fill="#ffe15a" d="M4.491 14.459c0-0.049-0.039-0.088-0.087-0.090-0.002-0.048-0.041-0.087-0.090-0.087s-0.088 0.039-0.090 0.087c-0.048 0.002-0.087 0.041-0.087 0.090s0.039 0.088 0.087 0.090c0.002 0.048 0.041 0.087 0.090 0.087s0.088-0.039 0.090-0.087c0.048-0.002 0.087-0.041 0.087-0.090z"></path>
<path fill="#f5f5f5" d="M4.361 14.433c0.024 0.049-0.024 0.096-0.073 0.073-0.009-0.004-0.017-0.012-0.021-0.021-0.024-0.049 0.024-0.096 0.073-0.073 0.009 0.004 0.017 0.012 0.021 0.021z"></path>
<path fill="#ffe15a" d="M4.209 14.369c0-0.040-0.032-0.072-0.072-0.074-0.002-0.040-0.034-0.072-0.074-0.072s-0.072 0.032-0.074 0.072c-0.040 0.002-0.072 0.034-0.072 0.074s0.032 0.072 0.072 0.074c0.002 0.040 0.034 0.072 0.074 0.072s0.072-0.032 0.074-0.072c0.040-0.002 0.072-0.034 0.072-0.074z"></path>
<path fill="#f5f5f5" d="M4.102 14.348c0.019 0.040-0.020 0.079-0.060 0.060-0.007-0.004-0.014-0.010-0.017-0.017-0.019-0.040 0.020-0.079 0.060-0.060 0.007 0.004 0.014 0.010 0.017 0.017z"></path>
<path fill="#ffe15a" d="M4.48 14.244c0-0.029-0.023-0.052-0.052-0.053-0.001-0.029-0.024-0.052-0.053-0.052s-0.052 0.023-0.053 0.052c-0.029 0.001-0.052 0.024-0.052 0.053s0.023 0.052 0.052 0.053c0.001 0.029 0.024 0.052 0.053 0.052s0.052-0.023 0.053-0.052c0.029-0.001 0.052-0.024 0.052-0.053z"></path>
<path fill="#f5f5f5" d="M4.403 14.23c0.012 0.028-0.015 0.054-0.042 0.042-0.006-0.003-0.012-0.008-0.015-0.015-0.012-0.028 0.015-0.054 0.042-0.042 0.006 0.003 0.012 0.008 0.015 0.015z"></path>
<path fill="#ffe15a" d="M4.281 14.154c0-0.029-0.023-0.052-0.052-0.053-0.001-0.029-0.024-0.052-0.053-0.052s-0.052 0.023-0.053 0.052c-0.029 0.001-0.052 0.024-0.052 0.053s0.023 0.052 0.052 0.053c0.001 0.029 0.024 0.052 0.053 0.052s0.052-0.023 0.053-0.052c0.029-0.001 0.052-0.024 0.052-0.053z"></path>
<path fill="#f5f5f5" d="M4.205 14.14c0.012 0.028-0.015 0.054-0.042 0.042-0.006-0.003-0.012-0.008-0.015-0.015-0.012-0.028 0.015-0.054 0.042-0.042 0.006 0.003 0.012 0.008 0.015 0.015z"></path>
<path fill="#f5f5f5" d="M6.588 14.947h1.001c-0.064-0.147-0.19-0.26-0.346-0.307 0.011-0.073 0.018-0.154 0.018-0.241 0-0.302-0.077-0.548-0.173-0.548s-0.173 0.245-0.173 0.548c0 0.087 0.007 0.168 0.018 0.241-0.156 0.046-0.282 0.16-0.346 0.307z"></path>
<path fill="#ffe15a" d="M5.657 19.862c-2.11 0-3.826-1.716-3.826-3.826h0.722c0 1.712 1.393 3.104 3.104 3.104s3.104-1.392 3.104-3.104h0.722c0 2.11-1.716 3.826-3.826 3.826z"></path>
<path fill="#c87878" d="M7.075 12.617h-0.624c0.063 0 0.113-0.051 0.113-0.113s-0.051-0.113-0.113-0.113h-0.794c-0.063 0-0.113 0.051-0.113 0.113s0.051 0.113 0.113 0.113h-1.418c-0.094 0-0.17 0.076-0.17 0.17s0.076 0.17 0.17 0.17h0.51c-0.063 0-0.113 0.051-0.113 0.113s0.051 0.113 0.113 0.113h1.021c0.063 0 0.113-0.051 0.113-0.113s-0.051-0.113-0.113-0.113h1.304c0.094 0 0.17-0.076 0.17-0.17s-0.076-0.17-0.17-0.17z"></path>
</svg>
