<!-- Generated by IcoMoon.io -->
<svg version="1.1" xmlns="http://www.w3.org/2000/svg" width="32" height="32" viewBox="0 0 32 32">
<title>slovakia</title>
<path fill="#f5f5f5" d="M25.494 0.018h-18.987c-3.636 0.253-6.506 3.282-6.506 6.982v3.672h32v-3.672c0-3.7-2.871-6.729-6.506-6.982z"></path>
<path fill="#ff4b55" d="M0 25c0 3.7 2.871 6.729 6.506 6.982h18.987c3.636-0.253 6.506-3.282 6.506-6.982v-3.672h-32v3.672z"></path>
<path fill="#41479b" d="M0 10.672h32v10.655h-32v-10.655z"></path>
<path fill="#ff4b55" d="M10.243 23.464c-0.229-0.131-5.606-3.259-5.606-8.066v-6.571h11.596v6.571c0 4.807-5.377 7.935-5.606 8.066l-0.192 0.109-0.192-0.109z"></path>
<path fill="#f5f5f5" d="M13.471 14.238l-1.822 0.24h-0.607v-1.087h0.364l1.458 0.24-0.197-0.848 0.197-0.847-1.458 0.24h-0.364v-0.367l0.24-1.822-0.847 0.247-0.847-0.247 0.24 1.822v0.367h-0.364l-1.458-0.24 0.197 0.847-0.197 0.848 1.458-0.24h0.364v1.087h-0.607l-1.822-0.24 0.247 0.847-0.247 0.847 1.822-0.24h0.607v2.797h1.215v-2.797h0.607l1.822 0.24-0.247-0.847z"></path>
<path fill="#41479b" d="M10.434 17.33c-0.798 0-1.483 0.484-1.778 1.175-0.052-0.004-0.102-0.016-0.155-0.016-1.029 0-1.862 0.807-1.921 1.821 1.565 1.927 3.526 3.075 3.662 3.154l0.192 0.109 0.192-0.109c0.136-0.078 2.097-1.227 3.662-3.154-0.059-1.014-0.892-1.821-1.921-1.821-0.053 0-0.103 0.011-0.155 0.016-0.295-0.691-0.979-1.175-1.778-1.175z"></path>
<path fill="#f5f5f5" d="M15.846 9.213c0 0 0 4.638 0 6.184 0 4.638-5.411 7.73-5.411 7.73s-5.411-3.092-5.411-7.73c0-1.546 0-6.184 0-6.184h10.823zM16.619 8.44h-12.369v6.957c0 5.029 5.564 8.266 5.801 8.402l0.384 0.219 0.384-0.219c0.237-0.135 5.801-3.373 5.801-8.402v-6.957z"></path>
</svg>
