<!-- Generated by IcoMoon.io -->
<svg version="1.1" xmlns="http://www.w3.org/2000/svg" width="32" height="32" viewBox="0 0 32 32">
<title>solomon-islands</title>
<path fill="#41479b" d="M25 0h-18c-3.866 0-7 3.134-7 7v18c0 3.866 3.134 7 7 7h18c3.866 0 7-3.134 7-7v-18c0-3.866-3.134-7-7-7z"></path>
<path fill="#73af00" d="M2.078 29.977c1.264 1.251 3.003 2.023 4.922 2.023h18c3.866 0 7-3.134 7-7v-18c0-1.73-0.628-3.313-1.668-4.534l-28.255 27.511z"></path>
<path fill="#ffe15a" d="M29.137 1.353l-27.784 27.784c0.423 0.577 0.933 1.087 1.51 1.51l27.784-27.784c-0.424-0.577-0.933-1.087-1.51-1.51z"></path>
<path fill="#f5f5f5" d="M3.936 2.609l-0.383 1.149-1.212 0.009c-0.116 0.001-0.164 0.149-0.071 0.218l0.975 0.72-0.365 1.155c-0.035 0.111 0.091 0.202 0.186 0.135l0.986-0.705 0.986 0.705c0.095 0.068 0.221-0.024 0.186-0.135l-0.365-1.155 0.975-0.72c0.093-0.069 0.045-0.217-0.071-0.218l-1.212-0.009-0.383-1.149c-0.037-0.11-0.193-0.11-0.229 0z"></path>
<path fill="#f5f5f5" d="M13.166 2.609l-0.383 1.149-1.212 0.009c-0.116 0.001-0.164 0.149-0.071 0.218l0.975 0.72-0.366 1.155c-0.035 0.111 0.091 0.202 0.186 0.135l0.986-0.705 0.986 0.705c0.095 0.068 0.221-0.024 0.186-0.135l-0.365-1.155 0.975-0.72c0.093-0.069 0.045-0.217-0.071-0.218l-1.212-0.009-0.383-1.149c-0.037-0.11-0.193-0.11-0.23 0z"></path>
<path fill="#f5f5f5" d="M8.551 6.721l-0.383 1.149-1.212 0.009c-0.116 0.001-0.164 0.149-0.071 0.218l0.975 0.72-0.365 1.155c-0.035 0.111 0.091 0.202 0.186 0.135l0.986-0.705 0.986 0.705c0.095 0.068 0.221-0.024 0.186-0.135l-0.366-1.155 0.975-0.72c0.093-0.069 0.045-0.217-0.071-0.218l-1.212-0.009-0.383-1.149c-0.037-0.11-0.193-0.11-0.23 0z"></path>
<path fill="#f5f5f5" d="M3.936 10.834l-0.383 1.149-1.212 0.009c-0.116 0.001-0.164 0.149-0.071 0.218l0.975 0.72-0.365 1.155c-0.035 0.111 0.091 0.202 0.186 0.135l0.986-0.705 0.986 0.705c0.095 0.068 0.221-0.024 0.186-0.135l-0.365-1.155 0.975-0.72c0.093-0.069 0.045-0.217-0.071-0.218l-1.212-0.009-0.383-1.149c-0.037-0.11-0.193-0.11-0.229 0z"></path>
<path fill="#f5f5f5" d="M13.166 10.834l-0.383 1.149-1.212 0.009c-0.116 0.001-0.164 0.149-0.071 0.218l0.975 0.72-0.366 1.155c-0.035 0.111 0.091 0.202 0.186 0.135l0.986-0.705 0.986 0.705c0.095 0.068 0.221-0.024 0.186-0.135l-0.365-1.155 0.975-0.72c0.093-0.069 0.045-0.217-0.071-0.218l-1.212-0.009-0.383-1.149c-0.037-0.11-0.193-0.11-0.23 0z"></path>
</svg>
