<!-- Generated by IcoMoon.io -->
<svg version="1.1" xmlns="http://www.w3.org/2000/svg" width="32" height="32" viewBox="0 0 32 32">
<title>somalia</title>
<path fill="#82afff" d="M25 0h-18c-3.866 0-7 3.134-7 7v18c0 3.866 3.134 7 7 7h18c3.866 0 7-3.134 7-7v-18c0-3.866-3.134-7-7-7z"></path>
<path fill="#f5f5f5" d="M15.758 10.032l-1.413 4.236-4.466 0.035c-0.245 0.002-0.346 0.314-0.149 0.46l3.592 2.653-1.347 4.258c-0.074 0.233 0.192 0.427 0.391 0.284l3.633-2.597 3.633 2.597c0.199 0.142 0.465-0.051 0.391-0.284l-1.347-4.258 3.592-2.653c0.197-0.145 0.095-0.458-0.149-0.46l-4.466-0.035-1.413-4.236c-0.078-0.232-0.406-0.232-0.483-0z"></path>
</svg>
