<svg xmlns="http://www.w3.org/2000/svg" width="32" height="32" version="1.1" viewBox="0 0 32 32"><title>south-africa</title><path fill="#464655" d="M0 9.041v13.919l8.791-6.96z"/><path fill="#ff4b55" d="M25 0h-18c-0.634 0-1.248 0.085-1.832 0.243l13.521 10.704h13.311v-3.947c0-3.866-3.134-7-7-7z"/><path fill="#41479b" d="M5.167 31.757c0.584 0.158 1.199 0.243 1.833 0.243h18c3.866 0 7-3.134 7-7v-3.947h-13.311l-13.522 10.704z"/><path fill="#73af00" d="M3.403 0.994c-2.010 1.206-3.364 3.393-3.402 5.9l11.503 9.106-11.503 9.107c0.037 2.506 1.391 4.693 3.401 5.899l14.7-11.637h13.897v-6.737h-13.897l-14.7-11.637z"/><path fill="#f5f5f5" d="M5.168 0.243c-0.627 0.17-1.22 0.424-1.765 0.751l14.7 11.637h13.897v-1.684h-13.311l-13.521-10.704z"/><path fill="#ffe15a" d="M0.001 6.894c-0.001 0.035-0.001 0.071-0.001 0.106v2.041l8.791 6.959-8.791 6.96v2.040c0 0.036 0.001 0.071 0.001 0.107l11.503-9.107-11.503-9.106z"/><path fill="#f5f5f5" d="M3.403 31.006c0.544 0.327 1.137 0.581 1.764 0.751l13.522-10.704h13.311v-1.684h-13.897l-14.7 11.637z"/></svg>