<!-- Generated by IcoMoon.io -->
<svg version="1.1" xmlns="http://www.w3.org/2000/svg" width="32" height="32" viewBox="0 0 32 32">
<title>spain</title>
<path fill="#c8414b" d="M25 0h-18c-3.866 0-7 3.134-7 7v18c0 3.866 3.134 7 7 7h18c3.866 0 7-3.134 7-7v-18c0-3.866-3.134-7-7-7z"></path>
<path fill="#ffd250" d="M0 6.664h32v18.671h-32v-18.671z"></path>
<path fill="#c8414b" d="M13.943 16.026l0.516-2.104c0.047-0.194-0.115-0.378-0.334-0.378h-0.363c-0.219 0-0.382 0.184-0.334 0.378l0.516 2.104z"></path>
<path fill="#f5f5f5" d="M13.334 14.922h1.217v4.688h-1.217v-4.688z"></path>
<path fill="#fab446" d="M13.031 14.371h1.826v0.551h-1.826v-0.551z"></path>
<path fill="#c8414b" d="M11.813 16.026h3.043v0.551h-3.043v-0.551z"></path>
<path fill="#c8414b" d="M14.856 18.232l-1.826-0.552v-0.551l1.826 0.551z"></path>
<path fill="#c8414b" d="M4.815 16.026l0.516-2.104c0.048-0.194-0.115-0.378-0.334-0.378h-0.363c-0.219 0-0.382 0.184-0.334 0.378l0.516 2.104z"></path>
<path fill="#f5f5f5" d="M6.945 14.371c-0.336 0-0.609 0.247-0.609 0.552v3.585c0 0.67 0.69 1.93 3.043 1.93s3.043-1.26 3.043-1.93v-3.585c0-0.305-0.272-0.552-0.608-0.552h-4.868z"></path>
<path fill="#c8414b" d="M9.379 17.129h-3.043v-2.178c0-0.32 0.259-0.579 0.579-0.579h2.463v2.757z"></path>
<path fill="#c8414b" d="M9.379 17.129h3.043v1.309c0 0.8-0.648 1.448-1.448 1.448h-0.146c-0.8 0-1.448-0.648-1.448-1.448v-1.309z"></path>
<path fill="#fab446" d="M6.337 17.129h3.043v1.309c0 0.8-0.648 1.448-1.448 1.448h-0.146c-0.8 0-1.448-0.648-1.448-1.448 0 0 0-1.309 0-1.309z"></path>
<path fill="#c8414b" d="M8.771 19.604v-2.475h-0.608v2.73c0.226-0.042 0.431-0.133 0.608-0.254z"></path>
<path fill="#c8414b" d="M7.554 19.858v-2.73h-0.609v2.475c0.178 0.122 0.382 0.212 0.609 0.254z"></path>
<path fill="#ffb441" d="M6.945 16.026h1.826v0.551h-1.826v-0.551z"></path>
<path fill="#fab446" d="M6.945 14.922h1.826v0.552h-1.826v-0.552z"></path>
<path fill="#fab446" d="M7.249 15.251h1.217v0.999h-1.217v-0.999z"></path>
<path fill="#f5f5f5" d="M4.207 14.922h1.217v4.688h-1.217v-4.688z"></path>
<path fill="#fab446" d="M3.902 19.334h1.826v0.551h-1.826v-0.551z"></path>
<path fill="#fab446" d="M3.902 14.371h1.826v0.551h-1.826v-0.551z"></path>
<path fill="#5064aa" d="M3.598 19.886h2.434v0.551h-2.434v-0.551z"></path>
<path fill="#fab446" d="M13.334 19.334h1.826v0.551h-1.826v-0.551z"></path>
<path fill="#5064aa" d="M12.726 19.886h2.434v0.551h-2.434v-0.551z"></path>
<path fill="#fab446" d="M7.554 13.82h3.651v0.551h-3.651v-0.551z"></path>
<path fill="#ffb441" d="M9.075 12.166h0.608v1.654h-0.608v-1.654z"></path>
<path fill="#f5f5f5" d="M8.771 12.993c-0.503 0-0.913-0.371-0.913-0.827s0.409-0.827 0.913-0.827c0.503 0 0.913 0.371 0.913 0.827s-0.409 0.827-0.913 0.827zM8.771 11.89c-0.168 0-0.304 0.124-0.304 0.276s0.136 0.276 0.304 0.276c0.168 0 0.304-0.124 0.304-0.276s-0.136-0.276-0.304-0.276z"></path>
<path fill="#f5f5f5" d="M9.988 12.993c-0.503 0-0.913-0.371-0.913-0.827s0.409-0.827 0.913-0.827c0.503 0 0.913 0.371 0.913 0.827s-0.409 0.827-0.913 0.827zM9.988 11.89c-0.168 0-0.304 0.124-0.304 0.276s0.136 0.276 0.304 0.276c0.168 0 0.304-0.124 0.304-0.276s-0.136-0.276-0.304-0.276z"></path>
<path fill="#f5f5f5" d="M11.205 13.544c-0.503 0-0.913-0.371-0.913-0.827s0.409-0.827 0.913-0.827c0.503 0 0.913 0.371 0.913 0.827s-0.409 0.827-0.913 0.827zM11.205 12.441c-0.168 0-0.304 0.124-0.304 0.276s0.136 0.276 0.304 0.276c0.168 0 0.304-0.124 0.304-0.276s-0.136-0.276-0.304-0.276z"></path>
<path fill="#f5f5f5" d="M7.554 13.544c-0.503 0-0.913-0.371-0.913-0.827s0.409-0.827 0.913-0.827 0.913 0.371 0.913 0.827-0.409 0.827-0.913 0.827zM7.554 12.441c-0.168 0-0.304 0.124-0.304 0.276s0.136 0.276 0.304 0.276 0.304-0.124 0.304-0.276c0-0.152-0.136-0.276-0.304-0.276z"></path>
<path fill="#fab446" d="M11.205 18.232v0.276c0 0.152-0.136 0.276-0.304 0.276s-0.304-0.124-0.304-0.276v-0.276h0.608zM11.813 17.68h-1.826v0.827c0 0.456 0.409 0.827 0.913 0.827s0.913-0.371 0.913-0.827v-0.827z"></path>
<path fill="#ffa0d2" d="M10.93 16.577h-0.058c-0.32 0-0.579-0.259-0.579-0.579v-0.496c0-0.32 0.259-0.579 0.579-0.579h0.058c0.32 0 0.579 0.259 0.579 0.579v0.496c0 0.32-0.259 0.579-0.579 0.579z"></path>
<path fill="#5064aa" d="M10.292 17.129c0 0.457-0.409 0.827-0.913 0.827s-0.913-0.37-0.913-0.827c0-0.457 0.409-0.827 0.913-0.827s0.913 0.37 0.913 0.827z"></path>
<path fill="#fab446" d="M9.075 11.063h0.608v1.654h-0.608v-1.654z"></path>
<path fill="#c8414b" d="M7.554 13.82l-0.609-0.552 0.356-0.323c0.551-0.499 1.298-0.78 2.078-0.78v0c0.779 0 1.527 0.281 2.078 0.78l0.356 0.323-0.608 0.552h-3.651z"></path>
<path fill="#ffd250" d="M9.684 13.268c0 0.152-0.136 0.276-0.304 0.276s-0.304-0.123-0.304-0.276c0-0.152 0.136-0.276 0.304-0.276s0.304 0.123 0.304 0.276z"></path>
<path fill="#ffd250" d="M8.467 13.268c0 0.152-0.136 0.276-0.304 0.276s-0.304-0.123-0.304-0.276c0-0.152 0.136-0.276 0.304-0.276s0.304 0.123 0.304 0.276z"></path>
<path fill="#ffd250" d="M10.9 13.268c0 0.152-0.136 0.276-0.304 0.276s-0.304-0.123-0.304-0.276c0-0.152 0.136-0.276 0.304-0.276s0.304 0.123 0.304 0.276z"></path>
<path fill="#c8414b" d="M3.902 16.026h3.043v0.551h-3.043v-0.551z"></path>
<path fill="#c8414b" d="M3.903 18.232l1.826-0.552v-0.551l-1.826 0.551z"></path>
</svg>
