<!-- Generated by IcoMoon.io -->
<svg version="1.1" xmlns="http://www.w3.org/2000/svg" width="32" height="32" viewBox="0 0 32 32">
<title>st-vincent-and-the-grenadines</title>
<path fill="#ffe15a" d="M7.173 0h17.655v32h-17.655v-32z"></path>
<path fill="#73af00" d="M32 25v-18c0-3.866-3.134-7-7-7h-0.172v32h0.172c3.866 0 7-3.134 7-7z"></path>
<path fill="#4173cd" d="M7 0c-3.866 0-6.999 3.133-7 6.999v18.003c0.001 3.865 3.134 6.999 7 6.999h0.172v-32h-0.172z"></path>
<path fill="#73af00" d="M11.512 15.459l2.004 4.009 2.004-4.009-2.004-4.009z"></path>
<path fill="#73af00" d="M16.479 15.459l2.004 4.009 2.004-4.009-2.004-4.009z"></path>
<path fill="#73af00" d="M13.996 20.279l2.004 4.009 2.004-4.009-2.004-4.009z"></path>
</svg>
