<!-- Generated by IcoMoon.io -->
<svg version="1.1" xmlns="http://www.w3.org/2000/svg" width="32" height="32" viewBox="0 0 32 32">
<title>suriname</title>
<path fill="#73af00" d="M25 0h-18c-3.866 0-7 3.134-7 7v18c0 3.866 3.134 7 7 7h18c3.866 0 7-3.134 7-7v-18c0-3.866-3.134-7-7-7z"></path>
<path fill="#f5f5f5" d="M0 25c0 0.376 0.030 0.745 0.087 1.105h31.826c0.057-0.36 0.087-0.729 0.087-1.105v-2.263h-32v2.263z"></path>
<path fill="#f5f5f5" d="M0.087 5.895c-0.057 0.36-0.087 0.729-0.087 1.105v2.263h32v-2.263c0-0.376-0.030-0.745-0.087-1.105h-31.826z"></path>
<path fill="#c8414b" d="M0 9.263h32v13.474h-32v-13.474z"></path>
<path fill="#ffe15a" d="M15.79 10.812l-1.226 3.677-3.876 0.030c-0.213 0.002-0.301 0.273-0.13 0.399l3.118 2.302-1.169 3.695c-0.064 0.203 0.167 0.37 0.339 0.247l3.153-2.254 3.153 2.254c0.173 0.124 0.404-0.044 0.339-0.247l-1.169-3.695 3.118-2.302c0.171-0.126 0.083-0.397-0.13-0.399l-3.876-0.030-1.226-3.677c-0.067-0.202-0.352-0.202-0.42-0z"></path>
</svg>
