<svg xmlns="http://www.w3.org/2000/svg" width="32" height="32" version="1.1" viewBox="0 0 32 32"><title>tajikistan</title><path fill="#73af00" d="M0 25c0 3.866 3.134 7 7 7h18c3.866 0 7-3.134 7-7v-3.667h-32v3.667z"/><path fill="#ff4b55" d="M25 0h-18c-3.866 0-7 3.134-7 7v3.667h32v-3.667c0-3.866-3.134-7-7-7z"/><path fill="#f5f5f5" d="M0 10.667h32v10.667h-32v-10.667z"/><path fill="#ffcd5a" d="M13.24 19.008c0.35-0.176 0.555-0.467 0.665-0.677 0.627 0.41 1.165 0.271 1.445 0.14 0.273-0.128 0.498-0.337 0.649-0.55 0.15 0.213 0.375 0.422 0.648 0.55 0.28 0.131 0.817 0.27 1.445-0.14 0.11 0.21 0.314 0.501 0.665 0.677 0.202 0.102 0.424 0.153 0.666 0.153 0.248 0 0.516-0.054 0.802-0.161l-0.139-0.371c-0.455 0.171-0.841 0.18-1.147 0.027-0.428-0.213-0.571-0.684-0.572-0.688l-0.084-0.292-0.233 0.194c-0.412 0.343-0.838 0.427-1.234 0.241-0.402-0.188-0.619-0.569-0.619-0.683v-1.708c0.086-0.188 0.275-0.32 0.495-0.32 0.076 0 0.15 0.016 0.222 0.049l0.245 0.111-0.037-0.266c-0.078-0.559-0.56-0.981-1.123-0.981s-1.045 0.422-1.123 0.981l-0.037 0.266 0.245-0.111c0.072-0.032 0.146-0.049 0.222-0.049 0.22 0 0.409 0.132 0.495 0.32v1.708c0 0.114-0.217 0.495-0.619 0.683-0.395 0.186-0.822 0.102-1.234-0.241l-0.232-0.192-0.085 0.289c-0.001 0.005-0.144 0.475-0.572 0.689-0.306 0.153-0.692 0.144-1.147-0.027l-0.139 0.371c0.286 0.107 0.554 0.161 0.802 0.161 0.241 0 0.464-0.051 0.666-0.153zM15.305 15.104c-0.024 0-0.047 0.001-0.071 0.003 0.133-0.295 0.429-0.498 0.763-0.498s0.631 0.203 0.763 0.498c-0.308-0.027-0.599 0.123-0.763 0.361-0.152-0.22-0.406-0.364-0.693-0.364z"/><path fill="#ffcd5a" d="M12.571 20.267l0.125 0.375c0.841-0.281 2.045-0.442 3.302-0.442s2.46 0.161 3.302 0.442l0.125-0.375c-0.88-0.294-2.13-0.462-3.427-0.462s-2.547 0.169-3.427 0.462z"/><path fill="#ffcd5a" d="M15.998 19.408c0.206 0.001 0.388-0.122 0.511-0.287-0.082-0.051-0.191-0.080-0.315-0.095 0-0.005 0.002-0.009 0.002-0.013 0-0.17-0.080-0.316-0.198-0.396-0.118 0.080-0.198 0.226-0.198 0.396 0 0.005 0.001 0.009 0.002 0.013-0.124 0.015-0.233 0.045-0.315 0.095 0.123 0.165 0.305 0.288 0.511 0.287z"/><path fill="#ffcd5a" d="M14.181 19.595c0.202-0.041 0.356-0.197 0.444-0.384-0.090-0.033-0.203-0.040-0.328-0.031-0.001-0.004-0-0.009-0.001-0.013-0.034-0.166-0.142-0.294-0.273-0.348-0.1 0.102-0.149 0.261-0.115 0.427 0.001 0.005 0.003 0.008 0.004 0.013-0.118 0.040-0.219 0.091-0.289 0.157 0.154 0.137 0.356 0.221 0.558 0.179z"/><path fill="#ffcd5a" d="M17.973 18.82c-0.131 0.054-0.239 0.182-0.273 0.348-0.001 0.005-0 0.009-0.001 0.013-0.124-0.010-0.237-0.003-0.328 0.031 0.088 0.186 0.241 0.343 0.444 0.384 0.202 0.042 0.405-0.042 0.558-0.179-0.070-0.066-0.171-0.117-0.289-0.157 0.001-0.004 0.003-0.008 0.004-0.013 0.034-0.166-0.015-0.326-0.115-0.427z"/><path fill="#ffcd5a" d="M15.945 11.531l-0.133 0.4-0.421 0.003c-0.055 0-0.077 0.070-0.033 0.102l0.339 0.25-0.127 0.402c-0.016 0.052 0.043 0.095 0.087 0.063l0.343-0.245 0.343 0.245c0.044 0.032 0.104-0.011 0.087-0.063l-0.127-0.402 0.339-0.25c0.044-0.032 0.021-0.102-0.033-0.102l-0.421-0.003-0.133-0.4c-0.017-0.052-0.090-0.052-0.108 0z"/><path fill="#ffcd5a" d="M13.533 12.19l-0.133 0.4-0.421 0.003c-0.055 0-0.077 0.070-0.033 0.102l0.339 0.25-0.127 0.402c-0.016 0.052 0.043 0.095 0.087 0.063l0.343-0.245 0.343 0.245c0.044 0.032 0.104-0.011 0.087-0.063l-0.127-0.402 0.339-0.25c0.044-0.032 0.021-0.102-0.033-0.102l-0.421-0.003-0.133-0.4c-0.017-0.052-0.090-0.052-0.108 0z"/><path fill="#ffcd5a" d="M11.76 13.972l-0.133 0.4-0.421 0.003c-0.055 0-0.077 0.070-0.033 0.102l0.339 0.25-0.127 0.402c-0.016 0.052 0.043 0.095 0.087 0.063l0.343-0.245 0.343 0.245c0.044 0.032 0.104-0.011 0.087-0.063l-0.127-0.402 0.339-0.25c0.044-0.032 0.021-0.102-0.033-0.102l-0.421-0.003-0.133-0.4c-0.017-0.052-0.090-0.052-0.108 0z"/><path fill="#ffcd5a" d="M11.108 16.38l-0.133 0.4-0.421 0.003c-0.055 0-0.077 0.070-0.033 0.102l0.339 0.25-0.127 0.402c-0.016 0.052 0.043 0.095 0.087 0.063l0.343-0.245 0.343 0.245c0.044 0.032 0.104-0.011 0.087-0.063l-0.127-0.402 0.339-0.25c0.044-0.032 0.021-0.102-0.033-0.102l-0.421-0.003-0.133-0.4c-0.017-0.052-0.090-0.052-0.108 0z"/><path fill="#ffcd5a" d="M18.467 12.19l0.133 0.4 0.421 0.003c0.055 0 0.077 0.070 0.033 0.102l-0.339 0.25 0.127 0.402c0.016 0.052-0.043 0.095-0.087 0.063l-0.343-0.245-0.343 0.245c-0.044 0.032-0.104-0.011-0.087-0.063l0.127-0.402-0.339-0.25c-0.044-0.032-0.021-0.102 0.033-0.102l0.421-0.003 0.133-0.4c0.017-0.052 0.090-0.052 0.108 0z"/><path fill="#ffcd5a" d="M20.24 13.972l0.133 0.4 0.421 0.003c0.055 0 0.077 0.070 0.033 0.102l-0.339 0.25 0.127 0.402c0.016 0.052-0.043 0.095-0.087 0.063l-0.343-0.245-0.343 0.245c-0.044 0.032-0.104-0.011-0.087-0.063l0.127-0.402-0.339-0.25c-0.044-0.032-0.021-0.102 0.033-0.102l0.421-0.003 0.133-0.4c0.017-0.052 0.090-0.052 0.108 0z"/><path fill="#ffcd5a" d="M20.892 16.38l0.133 0.4 0.421 0.003c0.055 0 0.077 0.070 0.033 0.102l-0.339 0.25 0.127 0.402c0.016 0.052-0.043 0.095-0.087 0.063l-0.343-0.245-0.343 0.245c-0.044 0.032-0.104-0.011-0.087-0.063l0.127-0.402-0.339-0.25c-0.044-0.032-0.021-0.102 0.033-0.102l0.421-0.003 0.133-0.4c0.017-0.052 0.090-0.052 0.108 0z"/></svg>