<!-- Generated by IcoMoon.io -->
<svg version="1.1" xmlns="http://www.w3.org/2000/svg" width="32" height="32" viewBox="0 0 32 32">
<title>tanzania</title>
<path fill="#73af00" d="M7 0c-3.866 0-7 3.134-7 7v17.421l24.276-24.421h-17.276z"></path>
<path fill="#4173cd" d="M25 32c3.866 0 7-3.134 7-7v-17.421l-24.276 24.421h17.276z"></path>
<path fill="#ffe15a" d="M25 0h-1.054l-23.946 23.946v1.054c0 3.866 3.134 7 7 7h1.054l23.946-23.946v-1.054c0-3.866-3.134-7-7-7z"></path>
<path fill="#464655" d="M26.746 0.22l-26.527 26.527c0.632 2.463 2.571 4.402 5.034 5.034l26.527-26.527c-0.632-2.463-2.571-4.402-5.034-5.034z"></path>
</svg>
