<svg xmlns="http://www.w3.org/2000/svg" width="32" height="32" version="1.1" viewBox="0 0 32 32"><title>thailand</title><path fill="#f5f5f5" d="M0.269 5.063c-0.175 0.612-0.269 1.263-0.269 1.938v3.113h32v-3.112c0-0.669-0.094-1.319-0.269-1.938h-31.462z"/><path fill="#f5f5f5" d="M0 25c0 0.669 0.094 1.319 0.269 1.938h31.456c0.175-0.613 0.269-1.262 0.269-1.938v-3.113h-31.994v3.113z"/><path fill="#ff4b55" d="M6.513 31.981h18.975c2.975-0.206 5.444-2.275 6.238-5.050h-31.456c0.8 2.781 3.263 4.844 6.244 5.050z"/><path fill="#ff4b55" d="M25.488 0.019h-18.975c-2.975 0.206-5.444 2.275-6.237 5.050h31.456c-0.8-2.781-3.262-4.844-6.244-5.050z"/><path fill="#41479b" d="M0 10.113h32v11.775h-32v-11.775z"/></svg>