<!-- Generated by IcoMoon.io -->
<svg version="1.1" xmlns="http://www.w3.org/2000/svg" width="32" height="32" viewBox="0 0 32 32">
<title>tibet</title>
<path fill="#ffe15a" d="M25 0h-18c-3.866 0-7 3.134-7 7v18c0 3.866 3.134 7 7 7h18c3.866 0 7-3.134 7-7v-18c0-3.866-3.134-7-7-7z"></path>
<path fill="#41479b" d="M6.104 7.059v17.881c0 1.808 1.466 3.273 3.273 3.273h21.842c0.498-0.962 0.78-2.055 0.78-3.214v-18c0-1.159-0.282-2.251-0.78-3.214h-21.842c-1.808 0-3.273 1.466-3.273 3.273z"></path>
<path fill="#ff4b55" d="M19.052 15.96v-12.173l6.474 0z"></path>
<path fill="#ff4b55" d="M19.052 16.040l12.948-6.087v-2.954c0-0.936-0.184-1.83-0.518-2.646l-12.43 11.686z"></path>
<path fill="#ff4b55" d="M19.052 16.040h12.948v6.087z"></path>
<path fill="#ff4b55" d="M19.052 16.040l-12.948-6.087v6.087z"></path>
<path fill="#ff4b55" d="M12.579 3.786l-3.202-0c-0.888 0-1.693 0.355-2.283 0.93l11.959 11.244-6.474-12.173z"></path>
<path fill="#ff4b55" d="M6.105 22.127v2.817c0.001 0.917 0.38 1.746 0.989 2.34l11.959-11.244-12.948 6.087z"></path>
<path fill="#ffe15a" d="M21.784 17.152c0.041-0.117 0.077-0.235 0.103-0.358l3.151 0.279-3.099-0.626c0.008-0.085 0.013-0.171 0.013-0.259 0-0.084-0.006-0.167-0.013-0.249l3.074-0.647-3.123 0.303c-0.027-0.131-0.066-0.258-0.111-0.382l2.79-1.459-2.927 1.138c-0.075-0.149-0.162-0.29-0.259-0.422l2.314-2.133-2.537 1.865c-0.269-0.285-0.594-0.517-0.959-0.675l0.922-2.999-1.249 2.881c-0.26-0.077-0.535-0.12-0.821-0.12-0.288 0-0.565 0.043-0.827 0.121l-1.25-2.883 0.922 3.002c-0.364 0.158-0.687 0.39-0.956 0.675l-2.542-1.868 2.318 2.137c-0.097 0.132-0.184 0.273-0.258 0.421l-2.933-1.14 2.796 1.462c-0.044 0.123-0.083 0.249-0.11 0.38l-3.13-0.303 3.081 0.649c-0.007 0.082-0.012 0.164-0.012 0.248 0 0.087 0.006 0.172 0.013 0.257l-3.106 0.628 3.157-0.28c0.026 0.122 0.062 0.24 0.102 0.356l-2.784 1.423 2.919-1.103c0.473 0.958 1.457 1.619 2.598 1.619s2.124-0.66 2.597-1.617l2.913 1.101-2.779-1.42z"></path>
<path fill="#f5f5f5" d="M18.756 16.3l-11.664 10.983c0.59 0.576 1.396 0.931 2.285 0.931h21.842c0.038-0.074 0.075-0.149 0.111-0.225 0.011-0.022 0.021-0.045 0.031-0.068 0.027-0.058 0.053-0.116 0.078-0.175 0.006-0.014 0.012-0.029 0.018-0.043l-12.11-11.404c-0.183-0.172-0.409-0.172-0.592 0z"></path>
<path fill="#ff4b55" d="M19.319 22.444c0 0.054-0.044 0.098-0.098 0.098s-0.098-0.044-0.098-0.098c0-0.054 0.044-0.098 0.098-0.098s0.098 0.044 0.098 0.098z"></path>
<path fill="#ff4b55" d="M19.072 19.162c0.294 0.363-0.182 0.545-0.123 0.892 0 0-0.096-0.144-0.059-0.347s-0.091-0.267-0.091-0.267 0.059 0.23-0.085 0.358-0.102 0.422-0.102 0.422-0.182-0.123-0.144-0.31c0 0-0.246 0.214-0.027 0.572 0 0-0.144-0.011-0.198-0.102 0 0-0.128 0.377 0.388 0.664s0.59-0.397 0.59-0.397l0.369 0.46c0 0 0.442-0.012 0.652-0.486l-0.253 0.046c0.016-0.134 0.355-0.169 0.221-0.57 0 0-0.011 0.085-0.107 0.144 0 0 0.004-0.276-0.196-0.458 0 0-0.007 0.148-0.071 0.201 0 0 0.021-0.191-0.096-0.34-0.112-0.143-0.123-0.274-0.123-0.274s-0.134 0.246-0.085 0.369c0 0-0.111-0.027-0.123-0.176-0.025-0.324-0.337-0.401-0.337-0.401z"></path>
<path fill="#ffe15a" d="M20.055 22.078c0 0.197-0.373 0.357-0.834 0.357s-0.834-0.16-0.834-0.357c0-0.197 0.373-0.357 0.834-0.357s0.834 0.16 0.834 0.357z"></path>
<path fill="#ff4b55" d="M19.942 22c0 0.178-0.323 0.323-0.721 0.323s-0.721-0.145-0.721-0.323c0-0.178 0.323-0.323 0.721-0.323s0.721 0.145 0.721 0.323z"></path>
<path fill="#ff82aa" d="M19.372 22.042h-0.302c-0.005 0.094 0.037 0.231 0.151 0.281v0c0-0 0-0 0-0s0 0 0 0v-0c0.114-0.050 0.156-0.186 0.151-0.281z"></path>
<path fill="#ff82aa" d="M19.613 21.984l-0.274 0.064c0.017 0.093 0.087 0.217 0.201 0.241l0 0 0-0c0 0 0 0 0 0v-0c0.092-0.073 0.099-0.215 0.073-0.305z"></path>
<path fill="#ff82aa" d="M19.755 21.885l-0.191 0.125c0.048 0.081 0.15 0.178 0.249 0.172l0 0 0-0c0 0 0 0 0 0l-0-0c0.045-0.088-0.003-0.221-0.058-0.297z"></path>
<path fill="#ff82aa" d="M19.749 21.692l-0.075 0.19c0.102 0.13 0.269 0.116 0.269 0.116 0.007-0.105-0.125-0.241-0.194-0.306z"></path>
<path fill="#ff82aa" d="M18.827 21.984l0.274 0.064c-0.017 0.093-0.087 0.217-0.201 0.241l-0 0-0-0-0 0 0-0c-0.092-0.073-0.099-0.215-0.073-0.305z"></path>
<path fill="#ff82aa" d="M18.685 21.885l0.191 0.125c-0.048 0.081-0.15 0.178-0.249 0.172l-0 0-0-0-0 0 0-0c-0.045-0.088 0.003-0.221 0.058-0.297z"></path>
<path fill="#ff82aa" d="M18.691 21.692l0.075 0.19c-0.102 0.13-0.269 0.116-0.269 0.116-0.007-0.105 0.125-0.241 0.194-0.306z"></path>
<path fill="#ffe15a" d="M19.807 21.804c0 0.145-0.262 0.262-0.585 0.262s-0.585-0.117-0.585-0.262c0-0.145 0.262-0.262 0.585-0.262s0.585 0.117 0.585 0.262z"></path>
<path fill="#ff4b55" d="M19.657 21.804c0 0.094-0.195 0.17-0.436 0.17s-0.436-0.076-0.436-0.17c0-0.094 0.195-0.17 0.436-0.17s0.436 0.076 0.436 0.17z"></path>
<path fill="#41479b" d="M19.265 24.751c-0.285 0.024-0.535-0.187-0.559-0.472-0.012-0.142 0.093-0.267 0.236-0.28s0.267 0.093 0.279 0.236c0.012 0.142 0.137 0.248 0.279 0.236s0.248-0.138 0.236-0.28c0.024 0.285-0.187 0.535-0.471 0.559z"></path>
<path fill="#ff9b55" d="M18.706 24.28c-0.012-0.142 0.093-0.267 0.236-0.28s0.267 0.093 0.279 0.236c0.012 0.142 0.137 0.248 0.279 0.236s0.248-0.138 0.236-0.28c-0.024-0.285-0.274-0.496-0.559-0.472s-0.496 0.275-0.471 0.559z"></path>
<path fill="#ffe15a" d="M19.221 23.389c-0.468 0-0.846 0.379-0.846 0.846s0.379 0.846 0.846 0.846 0.846-0.379 0.846-0.846c0-0.468-0.379-0.846-0.846-0.846zM19.221 24.906c-0.37 0-0.67-0.3-0.67-0.67s0.3-0.67 0.67-0.67 0.67 0.3 0.67 0.67c0 0.37-0.3 0.67-0.67 0.67z"></path>
<path fill="#ff4b55" d="M19.221 23.566c-0.37 0-0.67 0.3-0.67 0.67s0.3 0.67 0.67 0.67 0.67-0.3 0.67-0.67-0.3-0.67-0.67-0.67zM19.221 24.749c-0.284 0-0.513-0.23-0.513-0.513s0.23-0.513 0.513-0.513 0.513 0.23 0.513 0.513c-0 0.284-0.23 0.513-0.513 0.513z"></path>
<path fill="#ff9b55" d="M19.025 24.236c0 0.036-0.029 0.065-0.065 0.065s-0.065-0.029-0.065-0.065c0-0.036 0.029-0.065 0.065-0.065s0.065 0.029 0.065 0.065z"></path>
<path fill="#41479b" d="M19.543 24.236c0 0.036-0.029 0.065-0.065 0.065s-0.065-0.029-0.065-0.065c0-0.036 0.029-0.065 0.065-0.065s0.065 0.029 0.065 0.065z"></path>
<path fill="#ff4b55" d="M19.3 23.181c0 0.043-0.035 0.078-0.078 0.078s-0.078-0.035-0.078-0.078c0-0.043 0.035-0.078 0.078-0.078s0.078 0.035 0.078 0.078z"></path>
<path fill="#ff4b55" d="M19.378 23.318c0 0.043-0.035 0.078-0.078 0.078s-0.078-0.035-0.078-0.078c0-0.043 0.035-0.078 0.078-0.078s0.078 0.035 0.078 0.078z"></path>
<path fill="#ff4b55" d="M19.221 23.318c0 0.043-0.035 0.078-0.078 0.078s-0.078-0.035-0.078-0.078c0-0.043 0.035-0.078 0.078-0.078s0.078 0.035 0.078 0.078z"></path>
<path fill="#ff4b55" d="M19.3 25.293c0 0.043-0.035 0.078-0.078 0.078s-0.078-0.035-0.078-0.078c0-0.043 0.035-0.078 0.078-0.078s0.078 0.035 0.078 0.078z"></path>
<path fill="#ff4b55" d="M19.221 25.156c0 0.043-0.035 0.078-0.078 0.078s-0.078-0.035-0.078-0.078c0-0.043 0.035-0.078 0.078-0.078s0.078 0.035 0.078 0.078z"></path>
<path fill="#ff4b55" d="M19.378 25.156c0 0.043-0.035 0.078-0.078 0.078s-0.078-0.035-0.078-0.078c0-0.043 0.035-0.078 0.078-0.078s0.078 0.035 0.078 0.078z"></path>
<path fill="#ff9b55" d="M19.078 20.964c-0.054-0.3-0.198-0.526-0.321-0.503s-0.18 0.283-0.126 0.584c0.039 0.217 0.125 0.391 0.216 0.465-0.038 0.064-0.061 0.163-0.061 0.285 0.068 0.006 0.137 0.005 0.209-0.007s0.137-0.037 0.198-0.066c-0.043-0.114-0.098-0.198-0.156-0.246 0.060-0.101 0.080-0.294 0.041-0.511z"></path>
<path fill="#41479b" d="M19.363 20.964c0.054-0.3 0.198-0.526 0.321-0.503s0.18 0.283 0.126 0.584c-0.039 0.217-0.125 0.391-0.216 0.465 0.038 0.064 0.061 0.163 0.061 0.285-0.068 0.006-0.137 0.005-0.209-0.007s-0.137-0.037-0.198-0.066c0.043-0.114 0.098-0.198 0.156-0.246-0.060-0.101-0.080-0.294-0.041-0.511z"></path>
<path fill="#f5f5f5" d="M19.451 20.957c0-0.331-0.102-0.599-0.227-0.599s-0.227 0.268-0.227 0.599c0 0.239 0.054 0.441 0.131 0.537-0.048 0.062-0.088 0.162-0.11 0.292 0.066 0.019 0.134 0.032 0.207 0.032s0.141-0.013 0.207-0.032c-0.022-0.13-0.062-0.23-0.11-0.292 0.077-0.096 0.131-0.299 0.131-0.537z"></path>
<path fill="#ffe15a" d="M19.221 21.582c-0.148 0-0.284-0.014-0.372-0.038-0.030-0.008-0.048-0.039-0.040-0.070s0.040-0.050 0.070-0.040c0.156 0.042 0.528 0.042 0.684 0 0.030-0.011 0.061 0.009 0.070 0.040s-0.010 0.062-0.040 0.070c-0.088 0.024-0.224 0.038-0.372 0.038z"></path>
<path fill="#ffe15a" d="M18.735 22.48c0.061-0.008 0.139-0.027 0.144-0.12 0 0-0.139-0.013-0.139-0.003s-0.005 0.123-0.005 0.123z"></path>
<path fill="#ff4b55" d="M17.34 22.133c0.070 0.020 0.137 0.034 0.159 0.119 0 0 0.071-0.142-0.029-0.228-0.018-0.016-0.13 0.109-0.13 0.109z"></path>
<path fill="#ff4b55" d="M17.636 21.894c0.070 0.020 0.137 0.034 0.159 0.119 0 0 0.071-0.142-0.029-0.228-0.018-0.016-0.13 0.109-0.13 0.109z"></path>
<path fill="#ffe15a" d="M17.361 22.39c-0.043-0.011-0.118-0.107-0.021-0.256s-0.326 0.075-0.342 0.198c-0.016 0.123-0.032 0.342 0.064 0.283s0.299-0.224 0.299-0.224z"></path>
<path fill="#ff4b55" d="M17.819 22.405c0.014-0.078 0-0.132 0.1-0.203s0.114-0.11 0.114-0.157c0 0-0.054 0.058-0.151 0.082-0.059 0.015-0.11 0.057-0.11 0.057s-0.025-0.089 0.064-0.139c0 0-0.157 0-0.182 0.142s0.057 0.164-0.061 0.178c-0.118 0.014-0.392-0.043-0.488 0.175s0.196 0.061 0.274 0.032 0.328 0.032 0.367-0.021c0.039-0.053 0.071-0.146 0.071-0.146z"></path>
<path fill="#fff5e6" d="M16.792 22.796l0.422-0.695c0 0 0.419-0.162 0.423-0.183s0.139-0.196 0.139-0.221-0.014-0.146-0.068-0.167c-0.053-0.021-0.224 0.050-0.297 0.069s-0.191-0.119-0.191-0.119-0.68 0.128-0.73 0.21-0.285 0.67-0.296 0.73c-0.011 0.061 0 0.477 0.014 0.47s0.583-0.094 0.583-0.094z"></path>
<path fill="#ff4b55" d="M17.801 21.593c-0.064-0.093-0.182-0.093-0.232-0.018s-0.157 0.075-0.182 0.167c-0.020 0.073 0.1 0.207 0.171 0.182s0.203-0.107 0.203-0.107 0.103-0.132 0.039-0.224zM17.606 21.782c-0.029 0.037-0.103-0.009-0.103-0.051s0.061-0.044 0.091-0.022c0.020 0.014 0.036 0.042 0.012 0.073zM17.716 21.689c-0.043 0.021-0.088-0.053-0.070-0.091s0.074-0.012 0.092 0.020c0.012 0.021 0.013 0.054-0.021 0.071z"></path>
<path fill="#fff5e6" d="M17.936 24.288c0.071 0.007 0.165-0.003 0.185-0.163 0.022-0.184 0.078-0.248 0.17-0.206s0.069 0.116 0.069 0.116 0.102 0.267 0.048 0.374-0.176 0.235-0.267 0.256c-0.091 0.021-0.278-0.102-0.278-0.102l0.073-0.276z"></path>
<path fill="#ffe6d7" d="M17.424 23.667c0.061-0.029 0.809-0.549 0.898-0.745s0.039-0.338 0.157-0.346 0.317-0.014 0.299-0.16-0.214-0.053-0.267-0.082c-0.053-0.029-0.221-0.107-0.253 0.007s0 0.217-0.046 0.274c-0.046 0.057-0.253 0.157-0.289 0.15s-0.112-0.016-0.17 0.020c-0.058 0.037-0.090 0.087-0.090 0.087s-0.219 0.009-0.25 0.038c-0.031 0.029-0.149 0.186-0.149 0.186l0.16 0.57z"></path>
<path fill="#5aa587" d="M17.502 23.549c0 0 0.142-0.053 0.244-0.251s0.203-0.118 0.353-0.224 0.053-0.267 0.011-0.331c-0.043-0.064-0.013-0.23 0.134-0.224 0.097 0.003 0.406 0.305 0.267 0.604 0 0-0.021-0.053-0.075-0.118 0 0 0.080 0.198-0.107 0.417 0 0 0.005-0.112-0.053-0.187 0 0-0.005 0.278-0.219 0.454 0 0 0.027-0.182-0.005-0.256 0 0-0.032 0.241-0.347 0.46 0 0 0.048-0.085 0.037-0.224l-0.267 0.139 0.029-0.256z"></path>
<path fill="#f5dcd2" d="M15.47 24.463c0 0-0.096 0.294 0.166 0.379s0.406-0.027 0.502 0 0.075 0.198-0.059 0.342-0.267 0.16-0.417 0.053c-0.15-0.107-0.16-0.203-0.315-0.166s-0.369-0.112-0.369-0.112 0.139-0.604 0.155-0.599c0.016 0.005 0.337 0.102 0.337 0.102z"></path>
<path fill="#fff5e6" d="M14.111 23.728c0 0 0.185-0.177 0.901-0.397s1.1-0.312 1.1-0.312l0.561-0.177c0 0 0.264-0.001 0.437-0.050s0.173-0.049 0.173-0.049 0.461 0.653 0.114 1.313l0.121 0.114c0 0 0.127 0.039 0.223 0.073s0.025 0.218 0.025 0.218l-0.369 0.17-1.079-0.050c0 0-0.021-0.050-0.376 0.064s-0.511-0.142-1.192-0.163c-0.681-0.021-0.639-0.752-0.639-0.752z"></path>
<path fill="#5aa587" d="M17.178 21.18c0 0 0.109 0.109 0.050 0.224 0 0-0.121-0.125-0.221-0.153-0.154-0.044-0.185 0.040-0.525 0.056-0.214 0.010-0.3 0.215-0.509 0.165-0.224-0.053-0.408 0.049-0.408 0.049s0.128-0.016 0.232 0.083c0.104 0.099 0.289 0.077 0.289 0.077s-0.168 0.118-0.31 0.061-0.345 0.048-0.345 0.048c0.037-0.003 0.12 0.011 0.214 0.11s0.302 0.075 0.302 0.075c-0.037 0.045-0.142 0.096-0.24 0.077-0.223-0.043-0.461 0.057-0.461 0.057s0.142-0.050 0.334 0.092c0.192 0.142 0.412 0.057 0.412 0.057 0 0.092-0.192 0.448-0.533 0.436-0.424-0.015-0.532 0.232-0.532 0.232s0.17-0.057 0.39-0.021c0.426 0.069 0.717-0.177 0.717-0.177s-0.071 0.334-0.362 0.319c-0.291-0.014-0.66 0.284-0.66 0.284s0.328-0.059 0.751-0.064c0.139-0.002 0.252-0.057 0.349-0.122 0.255-0.172 0.49-0.172 0.49-0.172-0.278 0.064-0.422 0.369-0.422 0.369s0.214-0.187 0.524-0.187c0.31 0 0.406-0.363 0.406-0.363-0.289 0.005-0.331-0.23-0.331-0.23s-0.085 0.027-0.166 0.123c-0.051 0.061-0.136 0.081-0.195 0.090-0.021-0.187 0.12-0.358 0.12-0.358s-0.192-0.291 0.057-0.603 0.816-0.213 0.816-0.213c0.059-0.262-0.162-0.425-0.233-0.418z"></path>
<path fill="#5aa587" d="M16.601 22.213c0.093-0.014 0.524-0.157 0.517-0.349s-0.264-0.125-0.249-0.021c0.014 0.103 0.107 0.082 0.107 0.082s-0.009 0.047-0.2 0.085c-0.157 0.032-0.175 0.203-0.175 0.203z"></path>
<path fill="#5aa587" d="M17.741 24.24c0 0 0.267-0.043 0.256 0.15s-0.164 0.395-0.481 0.485c0 0 0.118-0.102 0.091-0.16s-0.16-0.075-0.23 0.027c-0.070 0.102-0.187 0.144-0.289 0.128 0 0 0.182-0.134 0.053-0.182-0.116-0.043-0.071 0.144-0.347 0.176 0 0 0.203-0.16 0.085-0.203s-0.182 0.235-0.39 0.214c0 0 0.175-0.175 0.080-0.203-0.149-0.045-0.187 0.214-0.454 0.102 0 0 0.134-0.059 0.027-0.203s0.043-0.326 0.118-0.401c0.075-0.075 0.128-0.123 0.107-0.198 0 0 0.191 0.119 0.094 0.33-0.090 0.197 0.275 0.088 0.559 0.064 0.292-0.025 0.465 0.143 0.652 0.085 0.174-0.053 0.068-0.21 0.068-0.21z"></path>
<path fill="#5aa587" d="M12.571 24.331c0 0 0.351 0.162 0.549-0.002s0.253 0.030 0.487-0.112 0.22-0.064 0.405-0.064c0.184 0 0.319-0.298 0.206-0.504 0 0 0.385-0.149 0.306-0.459-0.059-0.23-0.349-0.159-0.349-0.159s-0.306-0.192-0.518 0.057c-0.173 0.204-0.078 0.341-0.369 0.376s-0.334 0.334-0.646 0.298c0 0 0.213 0.277 0.539 0.099 0 0-0.008 0.267-0.61 0.468z"></path>
<path fill="#5aa587" d="M15.673 24.853c0 0 0.299 0.267-0.289 0.427 0 0 0.037-0.048 0.080-0.134 0 0-0.182 0.134-0.417 0.123 0 0 0.069-0.053 0.085-0.118 0 0-0.214 0.059-0.369-0.043 0 0 0.187-0.011 0.305-0.187 0 0 0.053 0.107 0.166 0.053s0.177 0.023 0.278 0.027c0.083 0.003 0.155-0.040 0.16-0.15z"></path>
<path fill="#5aa587" d="M15.525 23.204c0 0-0.214 0.1-0.114 0.289 0.066 0.126 0.275 0.156 0.356 0.039 0.069-0.1 0.014-0.197-0.059-0.21-0.077-0.014-0.123 0.018-0.159 0.082 0 0-0.132-0.050-0.025-0.2z"></path>
<path fill="#5aa587" d="M16.485 23.536c0 0 0.464 0.018 0.441 0.339-0.010 0.142-0.202 0.24-0.322 0.166-0.103-0.063-0.086-0.169-0.033-0.216 0.059-0.052 0.118-0.033 0.176 0.011-0 0 0.029-0.176-0.262-0.301z"></path>
<path fill="#5aa587" d="M17.412 22.91c0 0 0.251-0.168 0.348 0.032 0.043 0.088-0.037 0.213-0.135 0.211-0.083-0.002-0.11-0.071-0.094-0.117 0.017-0.051 0.059-0.060 0.109-0.054 0 0 0.015-0.13-0.228-0.071z"></path>
<path fill="#5aa587" d="M17.753 22.786c0 0 0.231-0.155 0.321 0.030 0.040 0.081-0.034 0.197-0.125 0.195-0.077-0.002-0.102-0.065-0.087-0.108 0.016-0.047 0.054-0.056 0.101-0.050 0 0 0.014-0.12-0.21-0.066z"></path>
<path fill="#5aa587" d="M16.887 23.811c0 0 0.399 0.015 0.379 0.292-0.009 0.122-0.174 0.207-0.277 0.143-0.089-0.055-0.093-0.154-0.055-0.202 0.067-0.083 0.147-0.045 0.147-0.045s0.057-0.079-0.194-0.187z"></path>
<path fill="#5aa587" d="M17.18 24.030c0 0 0.441-0.043 0.408 0.255-0.009 0.078-0.111 0.132-0.177 0.091-0.057-0.035-0.060-0.099-0.035-0.129 0.043-0.053 0.094-0.029 0.094-0.029s-0.028-0.132-0.289-0.188z"></path>
<path fill="#ffe6d7" d="M14.352 25.445c0 0 0.060 0.122 0.099 0.241 0.033 0.102 0.206 0.17 0.298 0.106s0.248-0.255 0.184-0.297-0.34-0.008-0.383-0.157c-0.043-0.149-0.028-0.248-0.028-0.248s0.37 0.11 0.546-0.168c0.176-0.278 0.151-0.549 0.22-0.684 0.054-0.105 0.149-0.156 0.149-0.156-0.109-0.43-1.434-0.738-1.28 0.378l-0.208 0.473 0.402 0.511z"></path>
<path fill="#5aa587" d="M13.883 25.427c0.091 0.059 0.424 0.228 0.631 0.1 0.169-0.105 0.171-0.224 0.064-0.251s-0.166 0.048-0.224 0c-0.059-0.048-0.39-0.321-0.267-0.406s0.189-0.155 0.187-0.305c-0.002-0.11-0.098-0.217-0.212-0.228-0.142-0.013-0.253 0.046-0.403 0.046l0.175 0.089c-0.112 0.053-0.121 0.205-0.255 0.232 0 0 0.091 0.103 0.205 0.071 0 0-0.039 0.107-0.146 0.121 0 0 0.1 0.114 0.192 0.146 0 0-0.061 0.043-0.155 0.025 0 0 0.148 0.217 0.369 0.273l-0.16 0.087z"></path>
<path fill="#5aa587" d="M14.526 25.020c0 0 0.059-0.010 0.064-0.083 0.003-0.042-0.039-0.096-0.109-0.092-0.083 0.005-0.139 0.115-0.099 0.188 0.102 0.187 0.48 0.112 0.527 0.044 0 0-0.303 0.014-0.382-0.058z"></path>
<path fill="#ffe15a" d="M14.704 25.908c0.017-0.023 0.030-0.086-0.002-0.125 0 0 0.017-0.090 0.085-0.057 0 0 0.029 0.072 0.006 0.122s-0.089 0.061-0.089 0.061z"></path>
<path fill="#ffe15a" d="M14.843 25.857c-0.001-0.065-0.016-0.1-0.068-0.105 0 0-0.013-0.093 0.064-0.093 0 0 0.057 0.051 0.058 0.106s-0.054 0.093-0.054 0.093z"></path>
<path fill="#ffe15a" d="M14.929 25.795c-0.013-0.063-0.025-0.107-0.083-0.112 0 0-0.031-0.077 0.055-0.087 0 0 0.055 0.044 0.065 0.098s-0.037 0.101-0.037 0.101z"></path>
<path fill="#ffe15a" d="M15.015 25.697c-0.026-0.059-0.053-0.083-0.11-0.074 0 0-0.049-0.069 0.019-0.107 0 0 0.083 0.024 0.105 0.074s-0.014 0.107-0.014 0.107z"></path>
<path fill="#ffe15a" d="M16.029 25.335c0.012-0.026 0.014-0.090-0.024-0.122 0 0 0.001-0.091 0.074-0.072 0 0 0.041 0.065 0.027 0.119s-0.077 0.075-0.077 0.075z"></path>
<path fill="#ffe15a" d="M16.157 25.261c-0.013-0.063-0.033-0.096-0.085-0.091 0 0-0.030-0.090 0.047-0.103 0 0 0.066 0.040 0.076 0.094s-0.037 0.101-0.037 0.101z"></path>
<path fill="#ffe15a" d="M16.23 25.184c-0.024-0.060-0.043-0.101-0.101-0.095 0 0-0.044-0.070 0.038-0.096 0 0 0.061 0.033 0.081 0.085s-0.018 0.106-0.018 0.106z"></path>
<path fill="#ffe15a" d="M16.297 25.072c-0.036-0.053-0.066-0.072-0.121-0.053 0 0-0.061-0.060-0.001-0.108 0 0 0.086 0.009 0.116 0.054s0.006 0.108 0.006 0.108z"></path>
<path fill="#ffe6d7" d="M17.805 21.782c0.012 0.058-0.018 0.121-0.157 0.182s-0.135 0.036-0.228 0.153c-0.093 0.118-0.103 0.121-0.217 0.142s-0.167 0.374-0.032 0.321c0.135-0.053 0.153-0.164 0.303-0.128s0.228 0.085 0.346-0.046c0 0 0.114 0.153-0.1 0.217s-0.33 0.069-0.436 0.118-0.48 0.169-0.505-0.181c-0.007-0.102 0.068-0.141 0.11-0.215s0.085-0.125 0.189-0.207c0.103-0.082 0.039-0.15 0.207-0.175s0.306-0.021 0.356-0.142 0.15-0.11 0.164-0.039z"></path>
<path fill="#5aa587" d="M14.999 23.48c0 0-0.032-0.128 0.117-0.182-0.035 0.011-0.067 0.020-0.104 0.031-0.031 0.010-0.056 0.019-0.085 0.028-0.011 0.015-0.027 0.024-0.034 0.045-0.045 0.127 0.067 0.291 0.2 0.273 0.114-0.015 0.146-0.116 0.109-0.175-0.039-0.063-0.125-0.077-0.202-0.021z"></path>
<path fill="#5aa587" d="M15.046 24.836c-0.162 0.036-0.234-0.026-0.234-0.026s0.059-0.010 0.064-0.083c0.003-0.042-0.039-0.096-0.109-0.092-0.083 0.005-0.139 0.115-0.099 0.188 0.088 0.161 0.336 0.123 0.446 0.009 0.006-0.012 0.012-0.023 0.017-0.035-0.024 0.015-0.055 0.032-0.084 0.039z"></path>
<path fill="#5aa587" d="M15.209 24.566c0.004-0.018 0.010-0.037 0.013-0.054-0.19 0.077-0.245-0.020-0.245-0.020s0.059-0.010 0.064-0.083c0.003-0.042-0.039-0.096-0.109-0.092-0.083 0.005-0.139 0.115-0.099 0.188 0.093 0.17 0.258 0.123 0.376 0.061z"></path>
<path fill="#5aa587" d="M15.636 24.656c-0.11 0.099-0.195 0.093-0.195 0.093s0.044-0.041 0.009-0.104c-0.020-0.037-0.085-0.059-0.142-0.017-0.067 0.049-0.054 0.172 0.019 0.212 0.18 0.097 0.297-0.053 0.36-0.174-0.017-0.002-0.034-0.006-0.051-0.010z"></path>
<path fill="#ffe15a" d="M18.48 24.56c-0.008-0.039-0.049-0.114-0.1-0.119 0 0-0.060-0.105 0.008-0.143 0 0 0.075 0.041 0.1 0.113s-0.008 0.15-0.008 0.15z"></path>
<path fill="#ffe15a" d="M18.527 24.37c-0.052-0.062-0.089-0.081-0.126-0.034 0 0-0.082-0.078-0.034-0.157 0 0 0.076-0.009 0.12 0.044s0.039 0.146 0.039 0.146z"></path>
<path fill="#ffe15a" d="M18.532 24.221c-0.058-0.049-0.1-0.080-0.14-0.025 0 0-0.080-0.043-0.035-0.141 0 0 0.069-0.013 0.118 0.029s0.057 0.136 0.057 0.136z"></path>
<path fill="#ffe15a" d="M18.508 24.038c-0.063-0.031-0.098-0.027-0.128 0.040 0 0-0.086-0.017-0.073-0.123 0 0 0.071-0.061 0.124-0.035s0.076 0.118 0.076 0.118z"></path>
<path fill="#f5f5f5" d="M17.225 21.944c0.030 0.083-0.047 0.161-0.13 0.13-0.026-0.009-0.046-0.030-0.056-0.056-0.030-0.083 0.047-0.161 0.13-0.13 0.026 0.009 0.046 0.030 0.056 0.056z"></path>
<path fill="#41479b" d="M17.165 21.967c0.013 0.031-0.017 0.061-0.048 0.048-0.008-0.003-0.015-0.010-0.018-0.018-0.013-0.031 0.017-0.061 0.048-0.048 0.008 0.003 0.015 0.010 0.018 0.018z"></path>
<path fill="#f5f5f5" d="M17.414 21.591c0.021 0.065-0.038 0.124-0.103 0.103-0.023-0.008-0.043-0.027-0.050-0.050-0.021-0.065 0.038-0.124 0.103-0.103 0.023 0.007 0.043 0.027 0.050 0.050z"></path>
<path fill="#41479b" d="M17.364 21.605c0.010 0.025-0.014 0.049-0.039 0.039-0.007-0.003-0.012-0.008-0.015-0.015-0.010-0.025 0.014-0.049 0.039-0.039 0.007 0.003 0.012 0.008 0.015 0.015z"></path>
<path fill="#fff5e6" d="M14.46 23.576c-0.092 0.071-0.412-0.085-0.636-0.011-0.29 0.097-0.288 0.283-0.288 0.283s0.181-0.224 0.482-0.114c0.167 0.061 0.263 0.064 0.263 0.064l0.178-0.223z"></path>
<path fill="#ffe15a" d="M19.702 22.48c-0.061-0.008-0.139-0.027-0.144-0.12 0 0 0.139-0.013 0.139-0.003s0.005 0.123 0.005 0.123z"></path>
<path fill="#ff4b55" d="M21.097 22.133c-0.069 0.020-0.137 0.034-0.159 0.119 0 0-0.071-0.142 0.029-0.228 0.018-0.016 0.13 0.109 0.13 0.109z"></path>
<path fill="#ff4b55" d="M20.801 21.894c-0.070 0.020-0.137 0.034-0.159 0.119 0 0-0.071-0.142 0.029-0.228 0.018-0.016 0.13 0.109 0.13 0.109z"></path>
<path fill="#ffe15a" d="M21.076 22.39c0.043-0.011 0.118-0.107 0.021-0.256s0.326 0.075 0.342 0.198c0.016 0.123 0.032 0.342-0.064 0.283s-0.299-0.224-0.299-0.224z"></path>
<path fill="#ff4b55" d="M20.618 22.405c-0.014-0.078 0-0.132-0.1-0.203s-0.114-0.11-0.114-0.157c0 0 0.054 0.058 0.151 0.082 0.059 0.015 0.11 0.057 0.11 0.057s0.025-0.089-0.064-0.139c0 0 0.157 0 0.182 0.142s-0.057 0.164 0.061 0.178 0.392-0.043 0.488 0.175-0.196 0.061-0.274 0.032-0.328 0.032-0.367-0.021c-0.039-0.053-0.071-0.146-0.071-0.146z"></path>
<path fill="#fff5e6" d="M21.645 22.796l-0.422-0.695c0 0-0.419-0.162-0.423-0.183s-0.139-0.196-0.139-0.221 0.014-0.146 0.068-0.167c0.053-0.021 0.224 0.050 0.297 0.069s0.191-0.119 0.191-0.119 0.68 0.128 0.73 0.21 0.285 0.67 0.296 0.73c0.011 0.061 0 0.477-0.014 0.47s-0.583-0.094-0.583-0.094z"></path>
<path fill="#ff4b55" d="M20.675 21.818c0 0 0.132 0.082 0.203 0.107s0.191-0.109 0.171-0.182c-0.025-0.093-0.132-0.093-0.182-0.167s-0.167-0.075-0.232 0.018c-0.064 0.093 0.039 0.224 0.039 0.224zM20.843 21.709c0.030-0.022 0.092-0.019 0.091 0.022s-0.074 0.088-0.103 0.051c-0.024-0.030-0.008-0.059 0.012-0.073zM20.7 21.619c0.018-0.033 0.074-0.058 0.092-0.020s-0.027 0.111-0.070 0.091c-0.035-0.017-0.033-0.049-0.021-0.071z"></path>
<path fill="#fff5e6" d="M20.501 24.288c-0.071 0.007-0.165-0.003-0.184-0.163-0.022-0.184-0.078-0.248-0.17-0.206s-0.069 0.116-0.069 0.116-0.102 0.267-0.048 0.374 0.176 0.235 0.267 0.256c0.091 0.021 0.278-0.102 0.278-0.102l-0.073-0.276z"></path>
<path fill="#ffe6d7" d="M21.013 23.667c-0.061-0.029-0.809-0.549-0.898-0.745s-0.039-0.338-0.157-0.346-0.317-0.014-0.299-0.16 0.214-0.053 0.267-0.082c0.053-0.029 0.221-0.107 0.253 0.007s0 0.217 0.046 0.274c0.046 0.057 0.253 0.157 0.289 0.15s0.112-0.016 0.17 0.020c0.058 0.037 0.090 0.087 0.090 0.087s0.219 0.009 0.25 0.038c0.031 0.029 0.149 0.186 0.149 0.186l-0.16 0.57z"></path>
<path fill="#5aa587" d="M20.935 23.549c0 0-0.142-0.053-0.244-0.251s-0.203-0.118-0.353-0.224-0.053-0.267-0.011-0.331c0.043-0.064 0.013-0.23-0.134-0.224-0.097 0.003-0.406 0.305-0.267 0.604 0 0 0.021-0.053 0.075-0.118 0 0-0.080 0.198 0.107 0.417 0 0-0.005-0.112 0.053-0.187 0 0 0.005 0.278 0.219 0.454 0 0-0.027-0.182 0.005-0.256 0 0 0.032 0.241 0.347 0.46 0 0-0.048-0.085-0.037-0.224l0.267 0.139-0.029-0.256z"></path>
<path fill="#f5dcd2" d="M22.968 24.463c0 0 0.096 0.294-0.166 0.379s-0.406-0.027-0.502 0-0.075 0.198 0.059 0.342 0.267 0.16 0.417 0.053 0.16-0.203 0.315-0.166c0.155 0.037 0.369-0.112 0.369-0.112s-0.139-0.604-0.155-0.599c-0.016 0.005-0.337 0.102-0.337 0.102z"></path>
<path fill="#fff5e6" d="M24.326 23.728c0 0-0.185-0.177-0.901-0.397s-1.1-0.312-1.1-0.312l-0.561-0.177c0 0-0.264-0.001-0.437-0.050s-0.173-0.049-0.173-0.049-0.461 0.653-0.114 1.313l-0.121 0.114c0 0-0.127 0.039-0.223 0.073s-0.025 0.218-0.025 0.218l0.369 0.17 1.079-0.050c0 0 0.021-0.050 0.376 0.064s0.511-0.142 1.192-0.163c0.681-0.021 0.639-0.752 0.639-0.752z"></path>
<path fill="#5aa587" d="M21.259 21.18c0 0-0.109 0.109-0.050 0.224 0 0 0.121-0.125 0.221-0.153 0.154-0.044 0.185 0.040 0.525 0.056 0.214 0.010 0.3 0.215 0.509 0.165 0.224-0.053 0.408 0.049 0.408 0.049s-0.128-0.016-0.232 0.083c-0.104 0.099-0.289 0.077-0.289 0.077s0.168 0.118 0.31 0.061c0.142-0.056 0.345 0.048 0.345 0.048-0.037-0.003-0.12 0.011-0.214 0.11s-0.302 0.075-0.302 0.075c0.037 0.045 0.142 0.096 0.24 0.077 0.223-0.043 0.461 0.057 0.461 0.057s-0.142-0.050-0.334 0.092c-0.192 0.142-0.412 0.057-0.412 0.057 0 0.092 0.192 0.448 0.533 0.436 0.424-0.015 0.532 0.232 0.532 0.232s-0.17-0.057-0.39-0.021c-0.426 0.069-0.717-0.177-0.717-0.177s0.071 0.334 0.362 0.319c0.291-0.014 0.66 0.284 0.66 0.284s-0.328-0.059-0.751-0.064c-0.139-0.002-0.253-0.057-0.349-0.122-0.255-0.172-0.49-0.172-0.49-0.172 0.278 0.064 0.422 0.369 0.422 0.369s-0.214-0.187-0.524-0.187c-0.31 0-0.406-0.363-0.406-0.363 0.289 0.005 0.331-0.23 0.331-0.23s0.085 0.027 0.166 0.123c0.051 0.061 0.136 0.081 0.195 0.090 0.021-0.187-0.12-0.358-0.12-0.358s0.192-0.291-0.057-0.603-0.816-0.213-0.816-0.213c-0.059-0.262 0.162-0.425 0.233-0.418z"></path>
<path fill="#5aa587" d="M21.836 22.213c-0.093-0.014-0.524-0.157-0.517-0.349s0.264-0.125 0.249-0.021c-0.014 0.103-0.107 0.082-0.107 0.082s0.009 0.047 0.2 0.085c0.157 0.032 0.175 0.203 0.175 0.203z"></path>
<path fill="#5aa587" d="M20.696 24.24c0 0-0.267-0.043-0.256 0.15s0.164 0.395 0.481 0.485c0 0-0.118-0.102-0.091-0.16s0.16-0.075 0.23 0.027c0.070 0.102 0.187 0.144 0.289 0.128 0 0-0.182-0.134-0.053-0.182 0.116-0.043 0.071 0.144 0.347 0.176 0 0-0.203-0.16-0.085-0.203s0.182 0.235 0.39 0.214c0 0-0.175-0.175-0.080-0.203 0.149-0.045 0.187 0.214 0.454 0.102 0 0-0.134-0.059-0.027-0.203s-0.043-0.326-0.118-0.401c-0.075-0.075-0.128-0.123-0.107-0.198 0 0-0.191 0.119-0.094 0.33 0.090 0.197-0.275 0.088-0.559 0.064-0.292-0.025-0.465 0.143-0.652 0.085-0.175-0.053-0.068-0.21-0.068-0.21z"></path>
<path fill="#5aa587" d="M25.866 24.331c0 0-0.351 0.162-0.549-0.002s-0.253 0.030-0.487-0.112-0.22-0.064-0.405-0.064c-0.184 0-0.319-0.298-0.206-0.504 0 0-0.385-0.149-0.306-0.459 0.059-0.23 0.349-0.159 0.349-0.159s0.306-0.192 0.518 0.057c0.173 0.204 0.078 0.341 0.369 0.376s0.334 0.334 0.646 0.298c0 0-0.213 0.277-0.539 0.099 0 0 0.008 0.267 0.61 0.468z"></path>
<path fill="#5aa587" d="M22.764 24.853c0 0-0.299 0.267 0.289 0.427 0 0-0.037-0.048-0.080-0.134 0 0 0.182 0.134 0.417 0.123 0 0-0.070-0.053-0.085-0.118 0 0 0.214 0.059 0.369-0.043 0 0-0.187-0.011-0.305-0.187 0 0-0.053 0.107-0.166 0.053s-0.177 0.023-0.278 0.027c-0.083 0.003-0.155-0.040-0.16-0.15z"></path>
<path fill="#5aa587" d="M22.912 23.204c0 0 0.214 0.1 0.114 0.289-0.067 0.126-0.275 0.156-0.356 0.039-0.070-0.1-0.014-0.197 0.059-0.21 0.077-0.014 0.123 0.018 0.159 0.082 0 0 0.132-0.050 0.025-0.2z"></path>
<path fill="#5aa587" d="M21.952 23.536c0 0-0.464 0.018-0.441 0.339 0.010 0.142 0.202 0.24 0.322 0.166 0.103-0.063 0.086-0.169 0.033-0.216-0.059-0.052-0.118-0.033-0.176 0.011 0 0-0.029-0.176 0.262-0.301z"></path>
<path fill="#5aa587" d="M21.025 22.91c0 0-0.251-0.168-0.348 0.032-0.043 0.088 0.037 0.213 0.135 0.211 0.083-0.002 0.11-0.071 0.094-0.117-0.017-0.051-0.059-0.060-0.109-0.054-0 0-0.015-0.13 0.228-0.071z"></path>
<path fill="#5aa587" d="M20.684 22.786c0 0-0.231-0.155-0.321 0.030-0.040 0.081 0.034 0.197 0.125 0.195 0.077-0.002 0.102-0.065 0.087-0.108-0.016-0.047-0.054-0.056-0.101-0.050 0 0-0.014-0.12 0.21-0.066z"></path>
<path fill="#5aa587" d="M21.55 23.811c0 0-0.399 0.015-0.379 0.292 0.009 0.122 0.174 0.207 0.277 0.143 0.089-0.055 0.093-0.154 0.055-0.202-0.067-0.083-0.147-0.045-0.147-0.045s-0.057-0.079 0.194-0.187z"></path>
<path fill="#5aa587" d="M21.257 24.030c0 0-0.441-0.043-0.408 0.255 0.009 0.078 0.111 0.132 0.177 0.091 0.057-0.035 0.060-0.099 0.035-0.129-0.043-0.053-0.094-0.029-0.094-0.029s0.028-0.132 0.289-0.188z"></path>
<path fill="#ffe6d7" d="M24.085 25.445c0 0-0.060 0.122-0.099 0.241-0.033 0.102-0.206 0.17-0.298 0.106s-0.248-0.255-0.184-0.297 0.34-0.008 0.383-0.157c0.043-0.149 0.028-0.248 0.028-0.248s-0.37 0.11-0.546-0.168c-0.176-0.278-0.151-0.549-0.22-0.684-0.054-0.105-0.149-0.156-0.149-0.156 0.109-0.43 1.434-0.738 1.28 0.378l0.208 0.473-0.402 0.511z"></path>
<path fill="#5aa587" d="M24.555 25.427c-0.091 0.059-0.424 0.228-0.631 0.1-0.169-0.105-0.171-0.224-0.064-0.251s0.166 0.048 0.224 0c0.059-0.048 0.39-0.321 0.267-0.406s-0.189-0.155-0.187-0.305c0.002-0.11 0.098-0.217 0.212-0.228 0.142-0.013 0.253 0.046 0.403 0.046l-0.175 0.089c0.112 0.053 0.121 0.205 0.255 0.232 0 0-0.091 0.103-0.205 0.071 0 0 0.039 0.107 0.146 0.121 0 0-0.1 0.114-0.192 0.146 0 0 0.061 0.043 0.155 0.025 0 0-0.148 0.217-0.369 0.273l0.16 0.087z"></path>
<path fill="#5aa587" d="M23.911 25.020c0 0-0.059-0.010-0.064-0.083-0.003-0.042 0.039-0.096 0.109-0.092 0.083 0.005 0.139 0.115 0.099 0.188-0.102 0.187-0.48 0.112-0.527 0.044-0 0 0.303 0.014 0.382-0.058z"></path>
<path fill="#ffe15a" d="M23.733 25.908c-0.017-0.023-0.030-0.086 0.002-0.125 0 0-0.017-0.090-0.085-0.057 0 0-0.029 0.072-0.006 0.122s0.089 0.061 0.089 0.061z"></path>
<path fill="#ffe15a" d="M23.595 25.857c0.001-0.065 0.016-0.1 0.068-0.105 0 0 0.013-0.093-0.064-0.093 0 0-0.057 0.051-0.058 0.106s0.054 0.093 0.054 0.093z"></path>
<path fill="#ffe15a" d="M23.509 25.795c0.013-0.063 0.025-0.107 0.083-0.112 0 0 0.031-0.077-0.055-0.087 0 0-0.055 0.044-0.065 0.098s0.037 0.101 0.037 0.101z"></path>
<path fill="#ffe15a" d="M23.423 25.697c0.026-0.059 0.052-0.083 0.11-0.074 0 0 0.049-0.069-0.019-0.107 0 0-0.083 0.024-0.105 0.074s0.014 0.107 0.014 0.107z"></path>
<path fill="#ffe15a" d="M22.408 25.335c-0.012-0.026-0.014-0.090 0.024-0.122 0 0-0.001-0.091-0.074-0.072 0 0-0.041 0.065-0.027 0.119s0.077 0.075 0.077 0.075z"></path>
<path fill="#ffe15a" d="M22.28 25.261c0.013-0.063 0.033-0.096 0.085-0.091 0 0 0.030-0.090-0.047-0.103 0 0-0.066 0.040-0.076 0.094s0.037 0.101 0.037 0.101z"></path>
<path fill="#ffe15a" d="M22.207 25.184c0.024-0.060 0.043-0.101 0.101-0.095 0 0 0.044-0.070-0.038-0.096 0 0-0.061 0.033-0.081 0.085s0.018 0.106 0.018 0.106z"></path>
<path fill="#ffe15a" d="M22.14 25.072c0.036-0.053 0.066-0.072 0.121-0.053 0 0 0.061-0.060 0.001-0.108 0 0-0.086 0.009-0.116 0.054s-0.006 0.108-0.006 0.108z"></path>
<path fill="#ffe6d7" d="M20.632 21.782c-0.012 0.058 0.018 0.121 0.157 0.182s0.135 0.036 0.228 0.153c0.093 0.118 0.103 0.121 0.217 0.142s0.167 0.374 0.032 0.321c-0.135-0.053-0.153-0.164-0.303-0.128s-0.228 0.085-0.346-0.046c0 0-0.114 0.153 0.1 0.217s0.33 0.069 0.436 0.118 0.48 0.169 0.505-0.181c0.007-0.102-0.068-0.141-0.11-0.215s-0.085-0.125-0.189-0.207c-0.103-0.082-0.039-0.15-0.207-0.175s-0.306-0.021-0.356-0.142-0.15-0.11-0.164-0.039z"></path>
<path fill="#5aa587" d="M23.438 23.48c0 0 0.032-0.128-0.117-0.182 0.035 0.011 0.067 0.020 0.104 0.031 0.031 0.010 0.056 0.019 0.085 0.028 0.011 0.015 0.027 0.024 0.035 0.045 0.045 0.127-0.067 0.291-0.2 0.273-0.114-0.015-0.146-0.116-0.109-0.175 0.039-0.063 0.125-0.077 0.202-0.021z"></path>
<path fill="#5aa587" d="M23.392 24.836c0.162 0.036 0.234-0.026 0.234-0.026s-0.059-0.010-0.064-0.083c-0.003-0.042 0.039-0.096 0.109-0.092 0.083 0.005 0.139 0.115 0.099 0.188-0.087 0.161-0.336 0.123-0.446 0.009-0.006-0.012-0.012-0.023-0.017-0.035 0.024 0.015 0.055 0.032 0.084 0.039z"></path>
<path fill="#5aa587" d="M23.228 24.566c-0.004-0.018-0.010-0.037-0.013-0.054 0.19 0.077 0.245-0.020 0.245-0.020s-0.059-0.010-0.064-0.083c-0.003-0.042 0.039-0.096 0.109-0.092 0.083 0.005 0.139 0.115 0.099 0.188-0.093 0.17-0.258 0.123-0.376 0.061z"></path>
<path fill="#5aa587" d="M22.801 24.656c0.11 0.099 0.195 0.093 0.195 0.093s-0.044-0.041-0.009-0.104c0.020-0.037 0.085-0.059 0.142-0.017 0.067 0.049 0.054 0.172-0.019 0.212-0.18 0.097-0.297-0.053-0.36-0.174 0.017-0.002 0.034-0.006 0.051-0.010z"></path>
<path fill="#ffe15a" d="M19.957 24.56c0.008-0.039 0.049-0.114 0.1-0.119 0 0 0.060-0.105-0.008-0.143 0 0-0.075 0.041-0.1 0.113s0.008 0.15 0.008 0.15z"></path>
<path fill="#ffe15a" d="M19.91 24.37c0.052-0.062 0.089-0.081 0.126-0.034 0 0 0.082-0.078 0.034-0.157 0 0-0.076-0.009-0.12 0.044s-0.039 0.146-0.039 0.146z"></path>
<path fill="#ffe15a" d="M19.905 24.221c0.058-0.049 0.1-0.080 0.14-0.025 0 0 0.080-0.043 0.035-0.141 0 0-0.069-0.013-0.118 0.029s-0.057 0.136-0.057 0.136z"></path>
<path fill="#ffe15a" d="M19.929 24.038c0.063-0.031 0.098-0.027 0.128 0.040 0 0 0.086-0.017 0.073-0.123 0 0-0.071-0.061-0.124-0.035s-0.076 0.118-0.076 0.118z"></path>
<path fill="#f5f5f5" d="M21.213 21.944c-0.030 0.083 0.047 0.161 0.13 0.13 0.026-0.009 0.046-0.030 0.056-0.056 0.030-0.083-0.047-0.161-0.13-0.13-0.026 0.009-0.047 0.030-0.056 0.056z"></path>
<path fill="#41479b" d="M21.272 21.967c-0.013 0.031 0.017 0.061 0.048 0.048 0.008-0.003 0.015-0.010 0.018-0.018 0.013-0.031-0.017-0.061-0.048-0.048-0.008 0.003-0.015 0.010-0.018 0.018z"></path>
<path fill="#f5f5f5" d="M21.023 21.591c-0.021 0.065 0.038 0.124 0.103 0.103 0.023-0.008 0.043-0.027 0.050-0.050 0.021-0.065-0.038-0.124-0.103-0.103-0.023 0.007-0.043 0.027-0.050 0.050z"></path>
<path fill="#41479b" d="M21.073 21.605c-0.010 0.025 0.014 0.049 0.039 0.039 0.007-0.003 0.012-0.008 0.015-0.015 0.010-0.025-0.014-0.049-0.039-0.039-0.007 0.003-0.012 0.008-0.015 0.015z"></path>
<path fill="#fff5e6" d="M23.978 23.576c0.092 0.071 0.412-0.085 0.636-0.011 0.29 0.097 0.288 0.283 0.288 0.283s-0.181-0.224-0.482-0.114c-0.167 0.061-0.263 0.064-0.263 0.064l-0.178-0.223z"></path>
</svg>
