<svg xmlns="http://www.w3.org/2000/svg" width="32" height="32" version="1.1" viewBox="0 0 32 32"><title>tonga</title><path fill="#ff4b55" d="M25.001 0h-18.002c-3.865 0.001-6.999 3.134-6.999 7v18c0 3.866 3.134 7 7 7h18c3.866 0 7-3.134 7-7v-18c0-3.866-3.133-6.999-6.999-7z"/><path fill="#f5f5f5" d="M16 14.439v-14.439h-9c-3.866 0-7 3.134-7 7v7.908h15.531c0.259 0 0.469-0.21 0.469-0.469z"/><path fill="#ff4b55" d="M13.625 5.502h-3.752v-3.752h-3.752v3.752h-3.752v3.752h3.752v3.752h3.752v-3.752h3.752z"/></svg>