<svg xmlns="http://www.w3.org/2000/svg" width="32" height="32" version="1.1" viewBox="0 0 32 32"><title>trinidad-and-tobago</title><path fill="#ff4b55" d="M25 0h-18c-3.866 0-7 3.134-7 7v18c0 3.866 3.134 7 7 7h18c3.866 0 7-3.134 7-7v-18c0-3.866-3.134-7-7-7z"/><path fill="#f5f5f5" d="M1.709 2.417l20.912 29.583h1.655l-21.577-30.523c-0.36 0.281-0.692 0.596-0.991 0.94z"/><path fill="#f5f5f5" d="M7.724 0l21.577 30.523c0.36-0.281 0.692-0.596 0.991-0.94l-20.912-29.583h-1.655z"/><path fill="#464655" d="M7 0c-1.622 0-3.114 0.552-4.301 1.477l21.577 30.523h0.724c1.622 0 3.114-0.552 4.301-1.477l-21.577-30.523h-0.724z"/></svg>