<!-- Generated by IcoMoon.io -->
<svg version="1.1" xmlns="http://www.w3.org/2000/svg" width="32" height="32" viewBox="0 0 32 32">
<title>turks-and-caicos</title>
<path fill="#41479b" d="M25 0h-18c-3.866 0-7 3.134-7 7v18c0 3.866 3.134 7 7 7h18c3.866 0 7-3.134 7-7v-18c0-3.866-3.134-7-7-7z"></path>
<path fill="#ffe15a" d="M19.589 17.494c-0.102 0-0.184 0.082-0.184 0.184v3.126c0 6.253 4.414 7.356 4.414 7.356s4.414-1.103 4.414-7.356v-3.126c0-0.102-0.082-0.184-0.184-0.184h-8.46z"></path>
<path fill="#f5f5f5" d="M27.773 17.954v2.851c0 5.318-3.287 6.66-3.954 6.877-0.67-0.219-3.954-1.561-3.954-6.877v-2.851h7.908zM28.049 17.494h-8.46c-0.102 0-0.184 0.082-0.184 0.184v3.126c0 6.253 4.414 7.356 4.414 7.356s4.414-1.103 4.414-7.356v-3.126c-0-0.102-0.082-0.184-0.184-0.184v0z"></path>
<path fill="#73af00" d="M24.313 23.319h-0.941c0 0-0.759 0.759-0.933 2.425-0.006 0.053 0.016 0.107 0.058 0.14 0.16 0.125 0.608 0.414 1.345 0.414s1.186-0.289 1.345-0.414c0.042-0.033 0.064-0.087 0.058-0.14-0.174-1.667-0.933-2.425-0.933-2.425z"></path>
<path fill="#ff4b55" d="M24.313 23.163h-0.941v-0.975c0-0.154 0.126-0.279 0.279-0.279h0.382c0.154 0 0.279 0.126 0.279 0.279v0.975z"></path>
<path fill="#ff4b55" d="M24.376 23.476h-1.068c-0.051 0-0.093-0.042-0.093-0.093v-0.127c0-0.051 0.042-0.093 0.093-0.093h1.068c0.051 0 0.093 0.042 0.093 0.093v0.127c0 0.051-0.042 0.093-0.093 0.093z"></path>
<path fill="#d35a10" d="M27.449 20.009c-0.028 0-0.437 0.002-0.862 0.075v-0.245c0.359-0.164 0.711-0.249 0.717-0.25 0.042-0.010 0.068-0.052 0.058-0.094s-0.052-0.068-0.094-0.058c-0.024 0.006-0.34 0.081-0.684 0.231-0.006-0.094-0.038-0.18-0.091-0.251 0.281-0.218 0.52-0.356 0.525-0.358 0.038-0.021 0.051-0.069 0.029-0.107s-0.069-0.051-0.107-0.029c-0.019 0.011-0.27 0.156-0.561 0.383-0.075-0.050-0.165-0.080-0.262-0.080-0.101 0-0.194 0.033-0.27 0.087 0.080-0.404 0.246-0.578 0.248-0.581 0.030-0.031 0.030-0.080-0-0.111s-0.080-0.031-0.111 0c-0.009 0.009-0.162 0.167-0.258 0.52-0.096-0.354-0.249-0.511-0.258-0.52-0.030-0.030-0.080-0.030-0.11-0s-0.031 0.080-0.001 0.111c0.002 0.002 0.167 0.177 0.248 0.581-0.077-0.054-0.17-0.087-0.27-0.087-0.097 0-0.187 0.030-0.262 0.080-0.291-0.228-0.543-0.373-0.561-0.383-0.038-0.021-0.086-0.008-0.107 0.029s-0.008 0.085 0.029 0.107c0.004 0.003 0.244 0.141 0.525 0.358-0.053 0.071-0.086 0.157-0.091 0.252-0.344-0.15-0.66-0.226-0.684-0.231-0.042-0.010-0.084 0.016-0.094 0.058s0.016 0.084 0.058 0.094c0.006 0.001 0.358 0.086 0.717 0.25v0.245c-0.426-0.073-0.835-0.075-0.862-0.075-0.043 0-0.078 0.035-0.078 0.078s0.035 0.078 0.078 0.078c0.007 0 0.435 0.002 0.862 0.078v0.254c-0.235-0.007-0.498 0.026-0.741 0.148-0.039 0.019-0.054 0.066-0.035 0.105 0.014 0.027 0.041 0.043 0.070 0.043 0.012 0 0.024-0.003 0.035-0.008 0.216-0.108 0.455-0.136 0.671-0.129v0.97c0 0.118-0.012 0.237-0.035 0.354l-0.12 0.601c-0.009 0.043 0.019 0.084 0.061 0.092 0.005 0.001 0.010 0.002 0.015 0.002 0.037 0 0.069-0.026 0.077-0.063l0.12-0.601c0.025-0.126 0.038-0.256 0.038-0.384v-0.958c0.118 0.013 0.223 0.034 0.308 0.056l0.060 0.777c0.007 0.097 0.056 0.18 0.127 0.237l-0.254 0.381c-0.136 0.204 0.010 0.478 0.256 0.478h0.419c0.246 0 0.392-0.274 0.256-0.478l-0.254-0.381c0.071-0.057 0.119-0.14 0.127-0.237l0.060-0.776c0.085-0.021 0.191-0.042 0.308-0.056v0.958c0 0.129 0.013 0.258 0.038 0.384l0.12 0.601c0.007 0.037 0.040 0.063 0.077 0.063 0.005 0 0.010-0 0.015-0.002 0.042-0.009 0.070-0.050 0.061-0.092l-0.12-0.601c-0.023-0.116-0.035-0.235-0.035-0.354v-0.97c0.216-0.007 0.454 0.021 0.671 0.129 0.011 0.006 0.023 0.008 0.035 0.008 0.029 0 0.056-0.016 0.070-0.043 0.019-0.039 0.004-0.086-0.035-0.105-0.243-0.122-0.505-0.154-0.741-0.147v-0.254c0.427-0.076 0.856-0.078 0.862-0.078 0.043 0 0.078-0.035 0.078-0.078s-0.035-0.078-0.079-0.078zM26.429 20.114c-0.094 0.020-0.186 0.044-0.273 0.073-0.002-0.031-0.006-0.061-0.014-0.090 0.087-0.067 0.185-0.128 0.287-0.182v0.199zM26.429 19.695v0.043c-0.124 0.062-0.247 0.133-0.356 0.214-0.023-0.031-0.049-0.059-0.079-0.083 0.117-0.13 0.248-0.25 0.376-0.357 0.037 0.051 0.059 0.114 0.059 0.182zM26.116 19.382c0.047 0 0.091 0.011 0.131 0.029-0.135 0.114-0.273 0.243-0.396 0.384-0.016-0.005-0.032-0.010-0.049-0.013v-0.008c0-0.036 0.001-0.070 0.003-0.103 0.013-0.161 0.147-0.289 0.311-0.289zM25.332 19.382c0.164 0 0.298 0.128 0.311 0.289 0.001 0.034 0.003 0.067 0.003 0.103v0.008c-0.017 0.003-0.033 0.008-0.049 0.013-0.123-0.14-0.26-0.27-0.396-0.384 0.040-0.018 0.084-0.029 0.131-0.029zM25.018 19.695c0-0.068 0.022-0.131 0.059-0.182 0.128 0.106 0.259 0.227 0.376 0.357-0.030 0.024-0.056 0.052-0.079 0.083-0.109-0.081-0.232-0.153-0.356-0.214l0-0.043zM25.018 19.916c0.102 0.054 0.2 0.115 0.287 0.182-0.008 0.029-0.012 0.059-0.014 0.090-0.087-0.029-0.179-0.053-0.273-0.073v-0.199zM25.018 20.508v-0.233c0.098 0.022 0.193 0.049 0.28 0.081l0.015 0.201c-0.085-0.020-0.186-0.038-0.296-0.049zM26.429 20.508c-0.11 0.011-0.21 0.030-0.296 0.049l0.015-0.201c0.087-0.032 0.182-0.059 0.28-0.081v0.233z"></path>
<path fill="#ffa033" d="M22.495 22.126h-0.352l-1.346-1.196c-0.147-0.131-0.209-0.332-0.162-0.523l0.375-1.501c0.033-0.133 0.199-0.179 0.295-0.082l0.609 0.609c0.033 0.033 0.078 0.052 0.125 0.052h0.455l0 2.642z"></path>
<path fill="#ff9480" d="M22.242 19.123l-0.216 0.973c-0.039 0.176-0.032 0.36 0.019 0.533l0.449 1.497h0.352l0.449-1.497c0.052-0.173 0.059-0.357 0.019-0.533l-0.216-0.973c-0.045-0.201-0.223-0.343-0.428-0.343h-0.001c-0.206 0-0.384 0.143-0.428 0.343z"></path>
<path fill="#ffa0e4" d="M22.742 19.132h-0.143c-0.058 0-0.105 0.047-0.105 0.105v2.889h0.352v-2.889c0-0.058-0.047-0.105-0.105-0.105z"></path>
<path fill="#f5f5f5" d="M9.263 16h0.842v-5.111l5.895 3.862v-1.248l-5.236-3.398h1.547l3.689 2.394v-0.768l-2.482-1.626h2.482v-0.842h-6.737z"></path>
<path fill="#f5f5f5" d="M5.895 16h0.842v-6.737h-6.737v0.842h2.482l-2.482 1.626v1.181l4.325-2.807h1.547l-5.872 3.811v0.835l5.895-3.862z"></path>
<path fill="#f5f5f5" d="M6.737 0.005c-0.285 0.011-0.566 0.038-0.842 0.082v5.023l-4.159-2.725c-0.25 0.285-0.478 0.591-0.679 0.915l3.996 2.594h-1.547l-2.852-1.851c-0.078 0.168-0.15 0.338-0.215 0.513l2.043 1.339h-2.395c-0.044 0.276-0.071 0.557-0.082 0.842h6.731v-6.731z"></path>
<path fill="#f5f5f5" d="M16 6.737v-0.842h-2.482l2.482-1.626v-1.196l-4.348 2.822h-1.547l5.895-3.826v-0.82l-5.895 3.862v-5.111h-0.842v6.737z"></path>
<path fill="#ff4b55" d="M6.737 16h2.526v-6.737h6.737v-2.526h-6.737v-6.737h-2.263c-0.088 0-0.176 0.002-0.263 0.005v6.731h-6.731c-0.003 0.087-0.005 0.175-0.005 0.263v2.263h6.737v6.737z"></path>
<path fill="#ff4b55" d="M4.325 10.105l-4.325 2.807v1.004l5.872-3.811z"></path>
<path fill="#ff4b55" d="M10.764 10.105l5.236 3.398v-1.004l-3.689-2.394z"></path>
<path fill="#ff4b55" d="M5.053 5.895l-3.996-2.594c-0.149 0.238-0.283 0.486-0.403 0.743l2.852 1.851h1.547z"></path>
<path fill="#ff4b55" d="M11.652 5.895l4.348-2.822v-1.004l-5.895 3.827z"></path>
</svg>
