<svg xmlns="http://www.w3.org/2000/svg" width="32" height="32" version="1.1" viewBox="0 0 32 32"><title>turkmenistan</title><path fill="#73af00" d="M25 0h-18c-3.866 0-7 3.134-7 7v18c0 3.866 3.134 7 7 7h18c3.866 0 7-3.134 7-7v-18c0-3.866-3.134-7-7-7z"/><path fill="#ff4b55" d="M7 0c-1.576 0-3.031 0.521-4.201 1.4v29.2c1.17 0.879 2.624 1.4 4.201 1.4h4.22v-32h-4.22z"/><path fill="#f5f5f5" d="M10.378 3.649l-1.684 1.403h-3.368l-1.684-1.404v-1.404l1.684-1.403h3.368l1.684 1.403z"/><path fill="#73af00" d="M10.378 15.439l-1.684 1.403h-3.368l-1.684-1.403v-1.404l1.684-1.403h3.368l1.684 1.403z"/><path fill="#73af00" d="M10.378 9.544l-1.684 1.403h-3.368l-1.684-1.403v-1.403l1.684-1.404h3.368l1.684 1.404z"/><path fill="#73af00" d="M10.378 21.333l-1.684 1.404h-3.368l-1.684-1.404v-1.404l1.684-1.404h3.368l1.684 1.404z"/><path fill="#ffb400" d="M2.799 4.21l1.684 1.684-1.684 1.684z"/><path fill="#ffb400" d="M11.22 7.579l-1.684-1.684 1.684-1.684z"/><path fill="#ffb400" d="M2.799 10.105l1.684 1.684-1.684 1.684z"/><path fill="#ffb400" d="M11.22 13.474l-1.684-1.684 1.684-1.684z"/><path fill="#ffb400" d="M2.799 16l1.684 1.684-1.684 1.684z"/><path fill="#ffb400" d="M11.22 19.368l-1.684-1.684 1.684-1.684z"/><path fill="#ffb400" d="M2.799 21.895l1.684 1.684-1.684 1.684z"/><path fill="#ffb400" d="M11.22 25.263l-1.684-1.684 1.684-1.684z"/><path fill="#ffb400" d="M11.22 1.684l-1.684-1.684h1.684z"/><path fill="#ffb400" d="M6.589 6.737h0.842v4.211h-0.842v-4.211z"/><path fill="#ff4b55" d="M5.326 8.421h3.368v0.842h-3.368v-0.842z"/><path fill="#ffb400" d="M9.536 7.439l-0.842-0.702v4.211l0.842-0.702z"/><path fill="#ffb400" d="M4.484 10.246l0.842 0.702v-4.21l-0.842 0.702z"/><path fill="#ffb400" d="M7.010 0.842h-1.684l-1.684 1.403v0.702h3.368z"/><path fill="#ffb400" d="M7.010 5.053h1.684l1.684-1.403v-0.702h-3.368z"/><path fill="#ff4b55" d="M7.010 4.21l-1.684-1.258 1.684-1.268 1.684 1.268z"/><path fill="#73af00" d="M7.010 4.21l1.684-1.258-0.007-0.005h-1.678z"/><path fill="#73af00" d="M7.010 2.947v-1.263l-1.678 1.263z"/><path fill="#ff4b55" d="M5.326 13.474h3.368v2.526h-3.368v-2.526z"/><path fill="#ffb400" d="M8.694 14.316h0.842v0.842h-0.842v-0.842z"/><path fill="#f5f5f5" d="M6.589 14.316h0.842v0.842h-0.842v-0.842z"/><path fill="#ff4b55" d="M6.589 19.368h0.842v0.842h-0.842v-0.842z"/><path fill="#ffb400" d="M7.852 20.211h0.842v0.842h-0.842v-0.842z"/><path fill="#ffb400" d="M5.326 20.211h0.842v0.842h-0.842v-0.842z"/><path fill="#ff4b55" d="M6.589 21.052h0.842v0.842h-0.842v-0.842z"/><path fill="#ffb400" d="M4.484 14.316h0.842v0.842h-0.842v-0.842z"/><path fill="#f5f5f5" d="M10.378 27.228l-1.684 1.404h-3.368l-1.684-1.404v-1.404l1.684-1.404h3.368l1.684 1.404z"/><path fill="#ffb400" d="M7.010 24.421h-1.684l-1.684 1.404v0.702h3.368z"/><path fill="#ffb400" d="M7.010 28.632h1.684l1.684-1.403v-0.702h-3.368z"/><path fill="#ff4b55" d="M8.694 26.947l-1.684 0.842-1.684-0.842v-0.842l1.684-0.842 1.684 0.842z"/><path fill="#f5f5f5" d="M22.774 4.585c-0.090-0.044-0.171 0.073-0.098 0.141 0.953 0.899 1.555 2.162 1.555 3.571 0 2.767-2.224 4.987-4.959 4.987-0.505 0-0.991-0.079-1.45-0.222-0.095-0.030-0.157 0.098-0.075 0.155 0.8 0.556 1.763 0.888 2.815 0.888 2.771 0 5.036-2.22 5.036-5.027 0-1.973-1.158-3.673-2.825-4.492z"/><path fill="#f5f5f5" d="M15.921 7.834l-0.206 0.583 0.485 0.384c0.063 0.050 0.026 0.151-0.054 0.149l-0.618-0.016-0.215 0.579c-0.028 0.075-0.135 0.071-0.158-0.005l-0.176-0.593-0.618-0.025c-0.080-0.003-0.11-0.107-0.044-0.152l0.509-0.35-0.167-0.595c-0.022-0.077 0.067-0.137 0.131-0.089l0.491 0.376 0.515-0.342c0.067-0.044 0.151 0.021 0.125 0.097z"/><path fill="#f5f5f5" d="M18.424 9.098l-0.206 0.583 0.485 0.384c0.063 0.050 0.026 0.151-0.054 0.149l-0.618-0.016-0.215 0.579c-0.028 0.075-0.135 0.071-0.158-0.005l-0.176-0.593-0.618-0.025c-0.080-0.003-0.11-0.106-0.044-0.152l0.509-0.35-0.167-0.595c-0.022-0.077 0.067-0.137 0.131-0.089l0.491 0.376 0.515-0.342c0.067-0.044 0.151 0.022 0.125 0.097z"/><path fill="#f5f5f5" d="M18.398 6.495l-0.206 0.583 0.485 0.384c0.063 0.050 0.026 0.151-0.054 0.149l-0.618-0.016-0.215 0.579c-0.028 0.075-0.135 0.071-0.158-0.005l-0.176-0.593-0.618-0.025c-0.080-0.003-0.11-0.106-0.044-0.152l0.509-0.35-0.167-0.595c-0.022-0.077 0.067-0.137 0.131-0.089l0.491 0.376 0.515-0.342c0.067-0.045 0.151 0.021 0.125 0.097z"/><path fill="#f5f5f5" d="M18.484 3.981l-0.206 0.583 0.485 0.384c0.063 0.050 0.026 0.151-0.054 0.149l-0.618-0.016-0.215 0.579c-0.028 0.075-0.135 0.071-0.158-0.005l-0.176-0.593-0.618-0.025c-0.080-0.003-0.11-0.106-0.044-0.152l0.509-0.35-0.167-0.595c-0.022-0.077 0.067-0.137 0.131-0.089l0.491 0.376 0.515-0.342c0.067-0.044 0.151 0.022 0.125 0.097z"/><path fill="#f5f5f5" d="M20.936 5.245l-0.206 0.583 0.485 0.384c0.063 0.050 0.026 0.151-0.054 0.149l-0.618-0.016-0.215 0.58c-0.028 0.075-0.135 0.071-0.158-0.005l-0.176-0.593-0.618-0.026c-0.080-0.003-0.11-0.106-0.044-0.152l0.509-0.35-0.167-0.595c-0.022-0.077 0.067-0.137 0.131-0.089l0.491 0.376 0.515-0.342c0.067-0.044 0.151 0.022 0.125 0.097z"/></svg>