<svg xmlns="http://www.w3.org/2000/svg" width="32" height="32" version="1.1" viewBox="0 0 32 32"><title>tuvalu-1</title><path fill="#82afff" d="M25 0h-18c-3.866 0-7 3.134-7 7v18c0 3.866 3.134 7 7 7h18c3.866 0 7-3.134 7-7v-18c0-3.866-3.134-7-7-7z"/><path fill="#41479b" d="M5.895 0.087c-1.649 0.262-3.106 1.099-4.159 2.299l4.159 2.725v-5.023z"/><path fill="#41479b" d="M0.439 4.556c-0.159 0.428-0.278 0.876-0.352 1.339h2.395l-2.043-1.339z"/><path fill="#41479b" d="M0 10.105v1.626l2.482-1.626z"/><path fill="#41479b" d="M16 1.249v-1.249h-5.895v5.111z"/><path fill="#41479b" d="M16 11.731v-1.626h-2.482z"/><path fill="#41479b" d="M10.105 16h5.895v-1.249l-5.895-3.862z"/><path fill="#41479b" d="M16 5.895v-1.626l-2.482 1.626z"/><path fill="#41479b" d="M5.895 10.889l-5.895 3.862v1.249h5.895z"/><path fill="#f5f5f5" d="M9.263 16h0.842v-5.111l5.895 3.862v-1.248l-5.236-3.398h1.547l3.689 2.394v-0.768l-2.482-1.626h2.482v-0.842h-6.737z"/><path fill="#f5f5f5" d="M5.895 16h0.842v-6.737h-6.737v0.842h2.482l-2.482 1.626v1.181l4.325-2.807h1.547l-5.872 3.811v0.835l5.895-3.862z"/><path fill="#f5f5f5" d="M6.737 0.005c-0.285 0.011-0.566 0.038-0.842 0.082v5.023l-4.159-2.725c-0.25 0.285-0.478 0.591-0.679 0.915l3.996 2.594h-1.547l-2.852-1.851c-0.078 0.168-0.15 0.338-0.215 0.513l2.043 1.339h-2.395c-0.044 0.276-0.071 0.557-0.082 0.842h6.731v-6.731z"/><path fill="#f5f5f5" d="M16 6.737v-0.842h-2.482l2.482-1.626v-1.196l-4.348 2.822h-1.547l5.895-3.826v-0.82l-5.895 3.862v-5.111h-0.842v6.737z"/><path fill="#ff4b55" d="M6.737 16h2.526v-6.737h6.737v-2.526h-6.737v-6.737h-2.263c-0.088 0-0.176 0.002-0.263 0.005v6.731h-6.731c-0.003 0.087-0.005 0.175-0.005 0.263v2.263h6.737v6.737z"/><path fill="#ff4b55" d="M4.325 10.105l-4.325 2.807v1.004l5.872-3.811z"/><path fill="#ff4b55" d="M10.764 10.105l5.236 3.398v-1.004l-3.689-2.394z"/><path fill="#ff4b55" d="M5.053 5.895l-3.996-2.594c-0.149 0.238-0.283 0.486-0.403 0.743l2.852 1.851h1.547z"/><path fill="#ff4b55" d="M11.652 5.895l4.348-2.822v-1.004l-5.895 3.826z"/><path fill="#ffe15a" d="M12.747 25.997l-0.295 0.886-0.934 0.007c-0.089 0.001-0.127 0.115-0.055 0.168l0.751 0.555-0.282 0.89c-0.027 0.085 0.070 0.156 0.143 0.104l0.759-0.543 0.759 0.543c0.073 0.052 0.17-0.019 0.143-0.104l-0.282-0.89 0.751-0.555c0.072-0.053 0.035-0.167-0.055-0.168l-0.934-0.007-0.295-0.886c-0.028-0.085-0.149-0.085-0.177 0z"/><path fill="#ffe15a" d="M27.127 19.101l-0.295 0.886-0.933 0.007c-0.090 0.001-0.127 0.115-0.055 0.168l0.751 0.555-0.282 0.89c-0.027 0.085 0.070 0.156 0.143 0.104l0.759-0.543 0.759 0.543c0.073 0.052 0.17-0.019 0.143-0.104l-0.282-0.89 0.751-0.555c0.072-0.053 0.035-0.167-0.055-0.168l-0.933-0.007-0.295-0.886c-0.028-0.085-0.149-0.085-0.177 0z"/><path fill="#ffe15a" d="M27.127 11.653l-0.295 0.886-0.933 0.007c-0.090 0.001-0.127 0.115-0.055 0.168l0.751 0.555-0.282 0.89c-0.027 0.085 0.070 0.156 0.143 0.104l0.759-0.543 0.759 0.543c0.073 0.052 0.17-0.019 0.143-0.104l-0.282-0.89 0.751-0.555c0.072-0.053 0.035-0.167-0.055-0.168l-0.933-0.007-0.295-0.886c-0.028-0.085-0.149-0.085-0.177 0z"/><path fill="#ffe15a" d="M16.444 21.338l0.292 0.887-0.745 0.563c-0.071 0.054-0.033 0.168 0.057 0.168l0.934-0.003 0.305 0.882c0.029 0.085 0.149 0.083 0.177-0.002l0.285-0.889 0.933-0.018c0.090-0.002 0.125-0.116 0.053-0.169l-0.757-0.546 0.272-0.893c0.026-0.086-0.072-0.155-0.144-0.102l-0.753 0.551-0.766-0.534c-0.073-0.051-0.17 0.020-0.142 0.105z"/><path fill="#ffe15a" d="M16.375 25.166l0.292 0.887-0.745 0.563c-0.071 0.054-0.033 0.168 0.056 0.168l0.934-0.003 0.305 0.882c0.029 0.085 0.149 0.083 0.177-0.002l0.285-0.889 0.933-0.018c0.090-0.002 0.125-0.116 0.053-0.169l-0.757-0.546 0.272-0.893c0.026-0.086-0.072-0.155-0.144-0.102l-0.753 0.551-0.766-0.534c-0.073-0.051-0.17 0.020-0.142 0.105z"/><path fill="#ffe15a" d="M20.41 24.2l0.292 0.887-0.745 0.563c-0.071 0.054-0.033 0.168 0.056 0.168l0.934-0.003 0.305 0.882c0.029 0.085 0.149 0.083 0.177-0.002l0.285-0.889 0.933-0.018c0.090-0.002 0.125-0.116 0.053-0.169l-0.757-0.546 0.272-0.893c0.026-0.086-0.072-0.155-0.144-0.102l-0.753 0.551-0.766-0.534c-0.073-0.051-0.17 0.020-0.142 0.105z"/><path fill="#ffe15a" d="M20.341 15.855l0.292 0.887-0.745 0.563c-0.071 0.054-0.033 0.168 0.056 0.168l0.934-0.003 0.305 0.882c0.029 0.085 0.149 0.083 0.177-0.002l0.285-0.889 0.933-0.018c0.090-0.002 0.125-0.116 0.053-0.169l-0.757-0.546 0.272-0.893c0.026-0.086-0.072-0.155-0.144-0.102l-0.753 0.551-0.766-0.534c-0.073-0.051-0.17 0.020-0.142 0.105z"/><path fill="#ffe15a" d="M23.754 14.718l0.292 0.887-0.745 0.563c-0.071 0.054-0.033 0.168 0.056 0.168l0.934-0.003 0.305 0.882c0.029 0.085 0.149 0.083 0.177-0.002l0.285-0.889 0.933-0.018c0.090-0.002 0.125-0.116 0.053-0.169l-0.757-0.546 0.272-0.893c0.026-0.086-0.072-0.155-0.144-0.102l-0.753 0.551-0.766-0.534c-0.073-0.051-0.17 0.020-0.142 0.105z"/></svg>