<svg xmlns="http://www.w3.org/2000/svg" width="32" height="32" version="1.1" viewBox="0 0 32 32"><title>united-states</title><path fill="#f5f5f5" d="M0 7.384h32v2.461h-32v-2.461z"/><path fill="#f5f5f5" d="M30.329 2.462h-28.658c-0.607 0.712-1.074 1.546-1.358 2.462h31.373c-0.284-0.915-0.751-1.75-1.358-2.462z"/><path fill="#f5f5f5" d="M0 12.307h32v2.461h-32v-2.461z"/><path fill="#f5f5f5" d="M0 17.231h32v2.461h-32v-2.461z"/><path fill="#f5f5f5" d="M0 22.154h32v2.461h-32v-2.461z"/><path fill="#f5f5f5" d="M31.687 27.077h-31.373c0.284 0.915 0.751 1.75 1.358 2.462h28.658c0.607-0.712 1.074-1.546 1.358-2.462z"/><path fill="#ff4b55" d="M25 0h-18c-2.134 0-4.045 0.955-5.329 2.462h28.658c-1.284-1.506-3.195-2.462-5.329-2.462z"/><path fill="#ff4b55" d="M0 9.846h32v2.461h-32v-2.461z"/><path fill="#ff4b55" d="M32 7c0-0.723-0.11-1.421-0.313-2.077h-31.373c-0.204 0.656-0.313 1.354-0.313 2.077v0.385h32v-0.385z"/><path fill="#ff4b55" d="M0 14.769h32v2.461h-32v-2.461z"/><path fill="#ff4b55" d="M32 25v-0.385h-32v0.385c0 0.723 0.11 1.421 0.313 2.077h31.373c0.204-0.656 0.313-1.354 0.313-2.077z"/><path fill="#ff4b55" d="M30.329 29.538h-28.658c1.284 1.506 3.195 2.462 5.329 2.462h18c2.134 0 4.045-0.955 5.329-2.462z"/><path fill="#ff4b55" d="M0 19.692h32v2.461h-32v-2.461z"/><path fill="#41479b" d="M17.231 0h-10.231c-3.866 0-7 3.134-7 7v10.231h17.231v-17.231z"/><path fill="#f5f5f5" d="M1.859 2.691c-0.016 0.052 0.043 0.095 0.087 0.063l0.341-0.244 0.341 0.244c0.044 0.032 0.103-0.011 0.087-0.063l-0.127-0.4 0.338-0.249c0.044-0.032 0.021-0.102-0.033-0.102l-0.42-0.003-0.072-0.215c-0.18 0.157-0.351 0.323-0.514 0.497l0.098 0.072-0.127 0.4z"/><path fill="#f5f5f5" d="M2.341 4.86l0.133 0.398 0.42 0.003c0.054 0 0.077 0.070 0.033 0.102l-0.338 0.249 0.127 0.4c0.016 0.052-0.043 0.095-0.087 0.063l-0.341-0.244-0.341 0.244c-0.044 0.032-0.103-0.011-0.087-0.063l0.127-0.4-0.338-0.249c-0.044-0.032-0.021-0.102 0.033-0.102l0.42-0.003 0.133-0.398c0.017-0.052 0.090-0.052 0.108 0z"/><path fill="#f5f5f5" d="M2.341 8.543l0.133 0.398 0.42 0.003c0.054 0 0.077 0.070 0.033 0.102l-0.338 0.249 0.127 0.4c0.016 0.052-0.043 0.095-0.087 0.063l-0.341-0.244-0.341 0.244c-0.044 0.032-0.103-0.011-0.087-0.063l0.127-0.4-0.338-0.249c-0.044-0.032-0.021-0.102 0.033-0.102l0.42-0.003 0.133-0.398c0.017-0.052 0.090-0.052 0.108 0z"/><path fill="#f5f5f5" d="M2.341 11.927l0.133 0.398 0.42 0.003c0.054 0 0.077 0.070 0.033 0.102l-0.338 0.249 0.127 0.4c0.016 0.052-0.043 0.095-0.087 0.063l-0.341-0.244-0.341 0.244c-0.044 0.032-0.103-0.011-0.087-0.063l0.127-0.4-0.338-0.249c-0.044-0.032-0.021-0.102 0.033-0.102l0.42-0.003 0.133-0.398c0.017-0.052 0.090-0.052 0.108 0z"/><path fill="#f5f5f5" d="M2.341 15.007l0.133 0.398 0.42 0.003c0.054 0 0.077 0.070 0.033 0.102l-0.338 0.249 0.127 0.4c0.016 0.052-0.043 0.095-0.087 0.063l-0.341-0.244-0.341 0.244c-0.044 0.032-0.103-0.011-0.087-0.063l0.127-0.4-0.338-0.249c-0.044-0.032-0.021-0.102 0.033-0.102l0.42-0.003 0.133-0.398c0.017-0.052 0.090-0.052 0.108 0z"/><path fill="#f5f5f5" d="M3.957 3.111l0.133 0.398 0.42 0.003c0.054 0 0.077 0.070 0.033 0.102l-0.338 0.249 0.127 0.4c0.016 0.052-0.043 0.095-0.087 0.063l-0.341-0.244-0.341 0.244c-0.044 0.032-0.103-0.011-0.087-0.063l0.127-0.4-0.338-0.249c-0.044-0.032-0.021-0.102 0.033-0.102l0.42-0.003 0.133-0.398c0.017-0.052 0.090-0.052 0.107 0z"/><path fill="#f5f5f5" d="M3.957 6.795l0.133 0.398 0.42 0.003c0.054 0 0.077 0.070 0.033 0.102l-0.338 0.249 0.127 0.4c0.016 0.052-0.043 0.095-0.087 0.063l-0.341-0.244-0.341 0.244c-0.044 0.032-0.103-0.011-0.087-0.063l0.127-0.4-0.338-0.249c-0.044-0.032-0.021-0.102 0.033-0.102l0.42-0.003 0.133-0.398c0.017-0.052 0.090-0.052 0.107 0z"/><path fill="#f5f5f5" d="M3.957 10.294l0.133 0.398 0.42 0.003c0.054 0 0.077 0.070 0.033 0.102l-0.338 0.249 0.127 0.4c0.016 0.052-0.043 0.095-0.087 0.063l-0.341-0.244-0.341 0.244c-0.044 0.032-0.103-0.011-0.087-0.063l0.127-0.4-0.338-0.249c-0.044-0.032-0.021-0.102 0.033-0.102l0.42-0.003 0.133-0.398c0.017-0.052 0.090-0.052 0.107 0z"/><path fill="#f5f5f5" d="M3.957 13.437l0.133 0.398 0.42 0.003c0.054 0 0.077 0.070 0.033 0.102l-0.338 0.249 0.127 0.4c0.016 0.052-0.043 0.095-0.087 0.063l-0.341-0.244-0.341 0.244c-0.044 0.032-0.103-0.011-0.087-0.063l0.127-0.4-0.338-0.249c-0.044-0.032-0.021-0.102 0.033-0.102l0.42-0.003 0.133-0.398c0.017-0.052 0.090-0.052 0.107 0z"/><path fill="#f5f5f5" d="M5.574 1.539l0.133 0.398 0.42 0.003c0.054 0 0.077 0.070 0.033 0.102l-0.338 0.249 0.127 0.4c0.016 0.052-0.043 0.095-0.087 0.063l-0.341-0.244-0.341 0.244c-0.044 0.032-0.103-0.011-0.087-0.063l0.127-0.4-0.338-0.249c-0.044-0.032-0.021-0.102 0.033-0.102l0.42-0.003 0.133-0.398c0.017-0.052 0.090-0.052 0.107 0z"/><path fill="#f5f5f5" d="M5.574 4.86l0.133 0.398 0.42 0.003c0.054 0 0.077 0.070 0.033 0.102l-0.338 0.249 0.127 0.4c0.016 0.052-0.043 0.095-0.087 0.063l-0.341-0.244-0.341 0.244c-0.044 0.032-0.103-0.011-0.087-0.063l0.127-0.4-0.338-0.249c-0.044-0.032-0.021-0.102 0.033-0.102l0.42-0.003 0.133-0.398c0.017-0.052 0.090-0.052 0.107 0z"/><path fill="#f5f5f5" d="M5.574 8.543l0.133 0.398 0.42 0.003c0.054 0 0.077 0.070 0.033 0.102l-0.338 0.249 0.127 0.4c0.016 0.052-0.043 0.095-0.087 0.063l-0.341-0.244-0.341 0.244c-0.044 0.032-0.103-0.011-0.087-0.063l0.127-0.4-0.338-0.249c-0.044-0.032-0.021-0.102 0.033-0.102l0.42-0.003 0.133-0.398c0.017-0.052 0.090-0.052 0.107 0z"/><path fill="#f5f5f5" d="M5.574 11.927l0.133 0.398 0.42 0.003c0.054 0 0.077 0.070 0.033 0.102l-0.338 0.249 0.127 0.4c0.016 0.052-0.043 0.095-0.087 0.063l-0.341-0.244-0.341 0.244c-0.044 0.032-0.103-0.011-0.087-0.063l0.127-0.4-0.338-0.249c-0.044-0.032-0.021-0.102 0.033-0.102l0.42-0.003 0.133-0.398c0.017-0.052 0.090-0.052 0.107 0z"/><path fill="#f5f5f5" d="M5.574 15.007l0.133 0.398 0.42 0.003c0.054 0 0.077 0.070 0.033 0.102l-0.338 0.249 0.127 0.4c0.016 0.052-0.043 0.095-0.087 0.063l-0.341-0.244-0.341 0.244c-0.044 0.032-0.103-0.011-0.087-0.063l0.127-0.4-0.338-0.249c-0.044-0.032-0.021-0.102 0.033-0.102l0.42-0.003 0.133-0.398c0.017-0.052 0.090-0.052 0.107 0z"/><path fill="#f5f5f5" d="M7.19 3.111l0.133 0.398 0.42 0.003c0.054 0 0.077 0.070 0.033 0.102l-0.338 0.249 0.127 0.4c0.016 0.052-0.043 0.095-0.087 0.063l-0.341-0.244-0.341 0.244c-0.044 0.032-0.103-0.011-0.087-0.063l0.127-0.4-0.338-0.249c-0.044-0.032-0.021-0.102 0.033-0.102l0.42-0.003 0.133-0.398c0.017-0.052 0.090-0.052 0.107 0z"/><path fill="#f5f5f5" d="M7.19 6.795l0.133 0.398 0.42 0.003c0.054 0 0.077 0.070 0.033 0.102l-0.338 0.249 0.127 0.4c0.016 0.052-0.043 0.095-0.087 0.063l-0.341-0.244-0.341 0.244c-0.044 0.032-0.103-0.011-0.087-0.063l0.127-0.4-0.338-0.249c-0.044-0.032-0.021-0.102 0.033-0.102l0.42-0.003 0.133-0.398c0.017-0.052 0.090-0.052 0.107 0z"/><path fill="#f5f5f5" d="M7.19 10.294l0.133 0.398 0.42 0.003c0.054 0 0.077 0.070 0.033 0.102l-0.338 0.249 0.127 0.4c0.016 0.052-0.043 0.095-0.087 0.063l-0.341-0.244-0.341 0.244c-0.044 0.032-0.103-0.011-0.087-0.063l0.127-0.4-0.338-0.249c-0.044-0.032-0.021-0.102 0.033-0.102l0.42-0.003 0.133-0.398c0.017-0.052 0.090-0.052 0.107 0z"/><path fill="#f5f5f5" d="M7.19 13.437l0.133 0.398 0.42 0.003c0.054 0 0.077 0.070 0.033 0.102l-0.338 0.249 0.127 0.4c0.016 0.052-0.043 0.095-0.087 0.063l-0.341-0.244-0.341 0.244c-0.044 0.032-0.103-0.011-0.087-0.063l0.127-0.4-0.338-0.249c-0.044-0.032-0.021-0.102 0.033-0.102l0.42-0.003 0.133-0.398c0.017-0.052 0.090-0.052 0.107 0z"/><path fill="#f5f5f5" d="M8.807 1.539l0.133 0.398 0.42 0.003c0.054 0 0.077 0.070 0.033 0.102l-0.338 0.249 0.127 0.4c0.016 0.052-0.043 0.095-0.087 0.063l-0.341-0.244-0.341 0.244c-0.044 0.032-0.103-0.011-0.087-0.063l0.127-0.4-0.338-0.249c-0.044-0.032-0.021-0.102 0.033-0.102l0.42-0.003 0.133-0.398c0.017-0.052 0.090-0.052 0.107 0z"/><path fill="#f5f5f5" d="M8.807 4.86l0.133 0.398 0.42 0.003c0.054 0 0.077 0.070 0.033 0.102l-0.338 0.249 0.127 0.4c0.016 0.052-0.043 0.095-0.087 0.063l-0.341-0.244-0.341 0.244c-0.044 0.032-0.103-0.011-0.087-0.063l0.127-0.4-0.338-0.249c-0.044-0.032-0.021-0.102 0.033-0.102l0.42-0.003 0.133-0.398c0.017-0.051 0.090-0.051 0.107 0z"/><path fill="#f5f5f5" d="M8.807 8.543l0.133 0.398 0.42 0.003c0.054 0 0.077 0.070 0.033 0.102l-0.338 0.249 0.127 0.4c0.016 0.052-0.043 0.095-0.087 0.063l-0.341-0.244-0.341 0.244c-0.044 0.032-0.103-0.011-0.087-0.063l0.127-0.4-0.338-0.249c-0.044-0.032-0.021-0.102 0.033-0.102l0.42-0.003 0.133-0.398c0.017-0.052 0.090-0.052 0.107 0z"/><path fill="#f5f5f5" d="M8.807 11.927l0.133 0.398 0.42 0.003c0.054 0 0.077 0.070 0.033 0.102l-0.338 0.249 0.127 0.4c0.016 0.052-0.043 0.095-0.087 0.063l-0.341-0.244-0.341 0.244c-0.044 0.032-0.103-0.011-0.087-0.063l0.127-0.4-0.338-0.249c-0.044-0.032-0.021-0.102 0.033-0.102l0.42-0.003 0.133-0.398c0.017-0.052 0.090-0.052 0.107 0z"/><path fill="#f5f5f5" d="M8.807 15.007l0.133 0.398 0.42 0.003c0.054 0 0.077 0.070 0.033 0.102l-0.338 0.249 0.127 0.4c0.016 0.052-0.043 0.095-0.087 0.063l-0.341-0.244-0.341 0.244c-0.044 0.032-0.103-0.011-0.087-0.063l0.127-0.4-0.338-0.249c-0.044-0.032-0.021-0.102 0.033-0.102l0.42-0.003 0.133-0.398c0.017-0.052 0.090-0.052 0.107 0z"/><path fill="#f5f5f5" d="M10.423 3.111l0.133 0.398 0.42 0.003c0.054 0 0.077 0.070 0.033 0.102l-0.338 0.249 0.127 0.4c0.016 0.052-0.043 0.095-0.087 0.063l-0.341-0.244-0.341 0.244c-0.044 0.032-0.103-0.011-0.087-0.063l0.127-0.4-0.338-0.249c-0.044-0.032-0.021-0.102 0.033-0.102l0.42-0.003 0.133-0.398c0.018-0.052 0.090-0.052 0.108 0z"/><path fill="#f5f5f5" d="M10.423 6.795l0.133 0.398 0.42 0.003c0.054 0 0.077 0.070 0.033 0.102l-0.338 0.249 0.127 0.4c0.016 0.052-0.043 0.095-0.087 0.063l-0.341-0.244-0.341 0.244c-0.044 0.032-0.103-0.011-0.087-0.063l0.127-0.4-0.338-0.249c-0.044-0.032-0.021-0.102 0.033-0.102l0.42-0.003 0.133-0.398c0.018-0.052 0.090-0.052 0.108 0z"/><path fill="#f5f5f5" d="M10.423 10.294l0.133 0.398 0.42 0.003c0.054 0 0.077 0.070 0.033 0.102l-0.338 0.249 0.127 0.4c0.016 0.052-0.043 0.095-0.087 0.063l-0.341-0.244-0.341 0.244c-0.044 0.032-0.103-0.011-0.087-0.063l0.127-0.4-0.338-0.249c-0.044-0.032-0.021-0.102 0.033-0.102l0.42-0.003 0.133-0.398c0.018-0.052 0.090-0.052 0.108 0z"/><path fill="#f5f5f5" d="M10.423 13.437l0.133 0.398 0.42 0.003c0.054 0 0.077 0.070 0.033 0.102l-0.338 0.249 0.127 0.4c0.016 0.052-0.043 0.095-0.087 0.063l-0.341-0.244-0.341 0.244c-0.044 0.032-0.103-0.011-0.087-0.063l0.127-0.4-0.338-0.249c-0.044-0.032-0.021-0.102 0.033-0.102l0.42-0.003 0.133-0.398c0.018-0.052 0.090-0.052 0.108 0z"/><path fill="#f5f5f5" d="M12.040 1.539l0.133 0.398 0.42 0.003c0.054 0 0.077 0.070 0.033 0.102l-0.338 0.249 0.127 0.4c0.016 0.052-0.043 0.095-0.087 0.063l-0.341-0.244-0.341 0.244c-0.044 0.032-0.103-0.011-0.087-0.063l0.127-0.4-0.338-0.249c-0.044-0.032-0.021-0.102 0.033-0.102l0.42-0.003 0.133-0.398c0.018-0.052 0.090-0.052 0.108 0z"/><path fill="#f5f5f5" d="M12.040 4.86l0.133 0.398 0.42 0.003c0.054 0 0.077 0.070 0.033 0.102l-0.338 0.249 0.127 0.4c0.016 0.052-0.043 0.095-0.087 0.063l-0.341-0.244-0.341 0.244c-0.044 0.032-0.103-0.011-0.087-0.063l0.127-0.4-0.338-0.249c-0.044-0.032-0.021-0.102 0.033-0.102l0.42-0.003 0.133-0.398c0.018-0.052 0.090-0.052 0.108 0z"/><path fill="#f5f5f5" d="M12.040 8.543l0.133 0.398 0.42 0.003c0.054 0 0.077 0.070 0.033 0.102l-0.338 0.249 0.127 0.4c0.016 0.052-0.043 0.095-0.087 0.063l-0.341-0.244-0.341 0.244c-0.044 0.032-0.103-0.011-0.087-0.063l0.127-0.4-0.338-0.249c-0.044-0.032-0.021-0.102 0.033-0.102l0.42-0.003 0.133-0.398c0.018-0.052 0.090-0.052 0.108 0z"/><path fill="#f5f5f5" d="M12.040 11.927l0.133 0.398 0.42 0.003c0.054 0 0.077 0.070 0.033 0.102l-0.338 0.249 0.127 0.4c0.016 0.052-0.043 0.095-0.087 0.063l-0.341-0.244-0.341 0.244c-0.044 0.032-0.103-0.011-0.087-0.063l0.127-0.4-0.338-0.249c-0.044-0.032-0.021-0.102 0.033-0.102l0.42-0.003 0.133-0.398c0.018-0.052 0.090-0.052 0.108 0z"/><path fill="#f5f5f5" d="M12.040 15.007l0.133 0.398 0.42 0.003c0.054 0 0.077 0.070 0.033 0.102l-0.338 0.249 0.127 0.4c0.016 0.052-0.043 0.095-0.087 0.063l-0.341-0.244-0.341 0.244c-0.044 0.032-0.103-0.011-0.087-0.063l0.127-0.4-0.338-0.249c-0.044-0.032-0.021-0.102 0.033-0.102l0.42-0.003 0.133-0.398c0.018-0.052 0.090-0.052 0.108 0z"/><path fill="#f5f5f5" d="M13.656 3.111l0.133 0.398 0.42 0.003c0.054 0 0.077 0.070 0.033 0.102l-0.338 0.249 0.127 0.4c0.016 0.052-0.043 0.095-0.087 0.063l-0.341-0.244-0.341 0.244c-0.044 0.032-0.103-0.011-0.087-0.063l0.127-0.4-0.338-0.249c-0.044-0.032-0.021-0.102 0.033-0.102l0.42-0.003 0.133-0.398c0.017-0.052 0.090-0.052 0.107 0z"/><path fill="#f5f5f5" d="M13.656 6.795l0.133 0.398 0.42 0.003c0.054 0 0.077 0.070 0.033 0.102l-0.338 0.249 0.127 0.4c0.016 0.052-0.043 0.095-0.087 0.063l-0.341-0.244-0.341 0.244c-0.044 0.032-0.103-0.011-0.087-0.063l0.127-0.4-0.338-0.249c-0.044-0.032-0.021-0.102 0.033-0.102l0.42-0.003 0.133-0.398c0.017-0.052 0.090-0.052 0.107 0z"/><path fill="#f5f5f5" d="M13.656 10.294l0.133 0.398 0.42 0.003c0.054 0 0.077 0.070 0.033 0.102l-0.338 0.249 0.127 0.4c0.016 0.052-0.043 0.095-0.087 0.063l-0.341-0.244-0.341 0.244c-0.044 0.032-0.103-0.011-0.087-0.063l0.127-0.4-0.338-0.249c-0.044-0.032-0.021-0.102 0.033-0.102l0.42-0.003 0.133-0.398c0.017-0.052 0.090-0.052 0.107 0z"/><path fill="#f5f5f5" d="M13.656 13.437l0.133 0.398 0.42 0.003c0.054 0 0.077 0.070 0.033 0.102l-0.338 0.249 0.127 0.4c0.016 0.052-0.043 0.095-0.087 0.063l-0.341-0.244-0.341 0.244c-0.044 0.032-0.103-0.011-0.087-0.063l0.127-0.4-0.338-0.249c-0.044-0.032-0.021-0.102 0.033-0.102l0.42-0.003 0.133-0.398c0.017-0.052 0.090-0.052 0.107 0z"/><path fill="#f5f5f5" d="M15.272 1.539l0.133 0.398 0.42 0.003c0.054 0 0.077 0.070 0.033 0.102l-0.338 0.249 0.127 0.4c0.016 0.052-0.043 0.095-0.087 0.063l-0.341-0.244-0.341 0.244c-0.044 0.032-0.103-0.011-0.087-0.063l0.127-0.4-0.338-0.249c-0.044-0.032-0.021-0.102 0.033-0.102l0.42-0.003 0.133-0.398c0.018-0.052 0.090-0.052 0.108 0z"/><path fill="#f5f5f5" d="M15.272 4.86l0.133 0.398 0.42 0.003c0.054 0 0.077 0.070 0.033 0.102l-0.338 0.249 0.127 0.4c0.016 0.052-0.043 0.095-0.087 0.063l-0.341-0.244-0.341 0.244c-0.044 0.032-0.103-0.011-0.087-0.063l0.127-0.4-0.338-0.249c-0.044-0.032-0.021-0.102 0.033-0.102l0.42-0.003 0.133-0.398c0.018-0.052 0.090-0.052 0.108 0z"/><path fill="#f5f5f5" d="M15.272 8.543l0.133 0.398 0.42 0.003c0.054 0 0.077 0.070 0.033 0.102l-0.338 0.249 0.127 0.4c0.016 0.052-0.043 0.095-0.087 0.063l-0.341-0.244-0.341 0.244c-0.044 0.032-0.103-0.011-0.087-0.063l0.127-0.4-0.338-0.249c-0.044-0.032-0.021-0.102 0.033-0.102l0.42-0.003 0.133-0.398c0.018-0.052 0.090-0.052 0.108 0z"/><path fill="#f5f5f5" d="M15.272 11.927l0.133 0.398 0.42 0.003c0.054 0 0.077 0.070 0.033 0.102l-0.338 0.249 0.127 0.4c0.016 0.052-0.043 0.095-0.087 0.063l-0.341-0.244-0.341 0.244c-0.044 0.032-0.103-0.011-0.087-0.063l0.127-0.4-0.338-0.249c-0.044-0.032-0.021-0.102 0.033-0.102l0.42-0.003 0.133-0.398c0.018-0.052 0.090-0.052 0.108 0z"/><path fill="#f5f5f5" d="M15.272 15.007l0.133 0.398 0.42 0.003c0.054 0 0.077 0.070 0.033 0.102l-0.338 0.249 0.127 0.4c0.016 0.052-0.043 0.095-0.087 0.063l-0.341-0.244-0.341 0.244c-0.044 0.032-0.103-0.011-0.087-0.063l0.127-0.4-0.338-0.249c-0.044-0.032-0.021-0.102 0.033-0.102l0.42-0.003 0.133-0.398c0.018-0.052 0.090-0.052 0.108 0z"/></svg>