<svg xmlns="http://www.w3.org/2000/svg" width="32" height="32" version="1.1" viewBox="0 0 32 32"><title>united-kingdom</title><path fill="#41479b" d="M25 32h-18c-3.866 0-7-3.134-7-7v-18c0-3.866 3.134-7 7-7h18c3.866 0 7 3.134 7 7v18c0 3.866-3.134 7-7 7z"/><path fill="#f5f5f5" d="M32 24.999v-1.537l-4.964-3.252h4.964v-1.684h-13.474v13.474h1.684v-10.221l10.683 6.999c0.378-0.589 0.671-1.239 0.859-1.931z"/><path fill="#f5f5f5" d="M0.471 27.528c0.171 0.44 0.384 0.859 0.635 1.25l10.683-6.999v10.221h1.684v-13.474h-13.474v1.684h4.964l-4.964 3.252v1.537c0 0.269 0.016 0.535 0.045 0.796z"/><path fill="#f5f5f5" d="M0 7.238v1.299l4.964 3.252h-4.964v1.684h13.474v-13.474h-1.684v10.221l-10.683-6.999c-0.415 0.646-0.727 1.366-0.912 2.134z"/><path fill="#f5f5f5" d="M31.52 4.448c-0.169-0.431-0.379-0.842-0.626-1.226l-10.683 6.999v-10.221h-1.684v13.474h13.474v-1.684h-4.964l4.964-3.252v-1.537c0-0.279-0.017-0.554-0.049-0.824z"/><path fill="#ff4b55" d="M18.526 0h-5.053v13.474h-13.474v5.053h13.474v13.474h5.053v-13.474h13.474v-5.053h-13.474z"/><path fill="#ff4b55" d="M8.65 20.211l-8.604 5.585c0.068 0.604 0.213 1.185 0.425 1.732l11.272-7.317-3.094 0z"/><path fill="#ff4b55" d="M21.529 20.211l10.224 6.637c0.161-0.589 0.247-1.208 0.247-1.847v-0.001l-7.377-4.789-3.093 0z"/><path fill="#ff4b55" d="M10.105 11.79l-9.911-6.433c-0.127 0.527-0.195 1.078-0.195 1.644v0.238l7.012 4.552h3.093z"/><path fill="#ff4b55" d="M23.304 11.79l8.648-5.613c-0.071-0.603-0.218-1.182-0.431-1.728l-11.31 7.341h3.093z"/></svg>