<svg xmlns="http://www.w3.org/2000/svg" width="32" height="32" version="1.1" viewBox="0 0 32 32"><title>uruguay</title><path fill="#ffe15a" d="M6.103 2.229l1.409 6.518 2.204-0.913z"/><path fill="#ffcd5a" d="M6.103 2.229l2.511 6.062-1.102 0.457z"/><path fill="#ffe15a" d="M11.581 15.455l-1.409-6.518-2.204 0.913z"/><path fill="#ffcd5a" d="M11.581 15.455l-2.511-6.062 1.102-0.457z"/><path fill="#ffe15a" d="M15.455 6.103l-6.518 1.409 0.913 2.204z"/><path fill="#ffcd5a" d="M15.455 6.103l-6.062 2.511-0.457-1.102z"/><path fill="#ffe15a" d="M2.229 11.581l6.518-1.409-0.913-2.204z"/><path fill="#ffcd5a" d="M2.229 11.581l6.062-2.511 0.457 1.102z"/><path fill="#ffe15a" d="M11.581 2.229l-3.613 5.605 2.204 0.913z"/><path fill="#ffcd5a" d="M11.581 2.229l-2.511 6.062-1.102-0.457z"/><path fill="#ffe15a" d="M6.103 15.455l3.613-5.605-2.204-0.913z"/><path fill="#ffcd5a" d="M6.103 15.455l2.511-6.062 1.102 0.457z"/><path fill="#ffe15a" d="M15.455 11.581l-5.605-3.613-0.913 2.204z"/><path fill="#ffcd5a" d="M15.455 11.581l-6.062-2.511 0.457-1.102z"/><path fill="#ffe15a" d="M2.229 6.103l5.605 3.613 0.913-2.204z"/><path fill="#ffcd5a" d="M2.229 6.103l6.062 2.511-0.457 1.102z"/><path fill="#f5f5f5" d="M31.095 3.556c0 0-0-0 0 0-0.074-0.131-0.153-0.259-0.235-0.385-0.002-0.003-0.005-0.007-0.007-0.010-0.123-0.186-0.254-0.367-0.393-0.54-0.003-0.004-0.007-0.008-0.010-0.012-0.139-0.172-0.286-0.337-0.44-0.495-0.005-0.005-0.009-0.010-0.014-0.014-0.103-0.105-0.209-0.207-0.319-0.305-0.003-0.003-0.006-0.005-0.009-0.008-0.051-0.046-0.102-0.090-0.154-0.134-0.006-0.005-0.013-0.011-0.019-0.016-0.111-0.093-0.225-0.183-0.342-0.269-0.007-0.005-0.014-0.010-0.021-0.015-0.052-0.038-0.104-0.075-0.157-0.112-0.008-0.006-0.017-0.012-0.025-0.017-0.118-0.081-0.239-0.158-0.362-0.232-0.011-0.006-0.021-0.013-0.032-0.019-0.053-0.031-0.106-0.062-0.159-0.091-0.010-0.006-0.020-0.011-0.030-0.017-0.124-0.068-0.251-0.133-0.379-0.194-0.014-0.007-0.029-0.013-0.043-0.020-0.054-0.025-0.108-0.049-0.162-0.073-0.011-0.005-0.023-0.010-0.034-0.015-0.066-0.028-0.132-0.055-0.198-0.081-0.008-0.003-0.015-0.006-0.023-0.009-0.058-0.022-0.116-0.044-0.174-0.065-0.017-0.006-0.034-0.012-0.051-0.018-0.055-0.019-0.111-0.038-0.167-0.056-0.012-0.004-0.024-0.008-0.036-0.012-0.067-0.021-0.135-0.041-0.204-0.061-0.013-0.004-0.027-0.007-0.041-0.011-0.055-0.015-0.111-0.030-0.166-0.043-0.019-0.005-0.039-0.010-0.058-0.014-0.058-0.014-0.117-0.027-0.176-0.040-0.011-0.002-0.022-0.005-0.033-0.007-0.069-0.014-0.139-0.027-0.209-0.040-0.017-0.003-0.035-0.006-0.052-0.009-0.054-0.009-0.109-0.018-0.163-0.025-0.021-0.003-0.041-0.006-0.062-0.009-0.064-0.009-0.127-0.016-0.192-0.023-0.008-0.001-0.015-0.002-0.023-0.003-0.071-0.007-0.143-0.013-0.215-0.018-0.020-0.001-0.040-0.003-0.060-0.004-0.054-0.003-0.109-0.006-0.164-0.008-0.021-0.001-0.042-0.002-0.064-0.002-0.073-0.002-0.146-0.004-0.219-0.004h-7.312v3.556h13.407z"/><path fill="#f5f5f5" d="M0.905 28.444c0.074 0.131 0.153 0.259 0.235 0.385 0.002 0.003 0.005 0.007 0.007 0.010 0.123 0.186 0.254 0.367 0.393 0.54 0.003 0.004 0.007 0.008 0.010 0.012 0.139 0.172 0.286 0.337 0.44 0.495 0.005 0.005 0.009 0.010 0.014 0.015 0.103 0.105 0.209 0.207 0.319 0.305 0.003 0.003 0.006 0.005 0.009 0.008 0.051 0.046 0.102 0.090 0.155 0.134 0.006 0.005 0.013 0.011 0.019 0.016 0.111 0.093 0.225 0.183 0.342 0.269 0.007 0.005 0.014 0.010 0.021 0.015 0.052 0.038 0.104 0.075 0.157 0.111 0.008 0.006 0.017 0.012 0.025 0.017 0.118 0.081 0.239 0.158 0.362 0.232 0.011 0.006 0.021 0.013 0.032 0.019 0.053 0.031 0.106 0.061 0.159 0.091 0.010 0.006 0.020 0.011 0.030 0.017 0.124 0.068 0.251 0.133 0.379 0.194 0.014 0.007 0.029 0.013 0.043 0.020 0.054 0.025 0.108 0.049 0.162 0.073 0.011 0.005 0.023 0.010 0.034 0.015 0.066 0.028 0.132 0.055 0.198 0.081 0.008 0.003 0.015 0.006 0.023 0.009 0.058 0.022 0.116 0.044 0.174 0.065 0.017 0.006 0.034 0.012 0.051 0.018 0.055 0.019 0.111 0.038 0.167 0.056 0.012 0.004 0.024 0.008 0.036 0.012 0.067 0.021 0.135 0.041 0.204 0.061 0.013 0.004 0.027 0.007 0.041 0.011 0.055 0.015 0.11 0.030 0.166 0.043 0.019 0.005 0.039 0.010 0.058 0.014 0.058 0.014 0.117 0.027 0.176 0.040 0.011 0.002 0.022 0.005 0.033 0.007 0.069 0.014 0.139 0.027 0.209 0.040 0.017 0.003 0.035 0.006 0.053 0.009 0.054 0.009 0.109 0.017 0.163 0.025 0.021 0.003 0.041 0.006 0.062 0.009 0.064 0.009 0.127 0.016 0.191 0.023 0.008 0.001 0.015 0.002 0.023 0.003 0.071 0.007 0.143 0.013 0.215 0.018 0.020 0.001 0.040 0.003 0.060 0.004 0.054 0.003 0.109 0.006 0.164 0.008 0.021 0.001 0.042 0.002 0.064 0.002 0.073 0.002 0.146 0.004 0.219 0.004h18c0.073 0 0.146-0.002 0.219-0.004 0.021-0.001 0.043-0.002 0.064-0.002 0.055-0.002 0.109-0.005 0.164-0.008 0.020-0.001 0.040-0.002 0.060-0.004 0.072-0.005 0.143-0.011 0.215-0.018 0.008-0.001 0.015-0.002 0.023-0.003 0.064-0.007 0.128-0.015 0.191-0.023 0.021-0.003 0.041-0.006 0.062-0.009 0.055-0.008 0.109-0.016 0.163-0.025 0.017-0.003 0.035-0.006 0.052-0.009 0.070-0.012 0.14-0.025 0.209-0.040 0.011-0.002 0.022-0.005 0.033-0.007 0.059-0.012 0.117-0.026 0.176-0.040 0.019-0.005 0.039-0.009 0.058-0.014 0.056-0.014 0.111-0.028 0.166-0.043 0.014-0.004 0.027-0.007 0.041-0.011 0.068-0.019 0.136-0.039 0.204-0.061 0.012-0.004 0.024-0.008 0.036-0.012 0.056-0.018 0.112-0.037 0.167-0.056 0.017-0.006 0.034-0.012 0.051-0.018 0.058-0.021 0.117-0.042 0.174-0.065 0.008-0.003 0.015-0.006 0.023-0.009 0.067-0.026 0.133-0.053 0.198-0.081 0.011-0.005 0.023-0.010 0.034-0.015 0.054-0.024 0.108-0.048 0.162-0.073 0.014-0.007 0.029-0.013 0.043-0.020 0.129-0.061 0.255-0.125 0.379-0.194 0.010-0.006 0.020-0.011 0.030-0.017 0.053-0.030 0.107-0.060 0.159-0.091 0.011-0.006 0.021-0.013 0.032-0.019 0.123-0.074 0.244-0.151 0.362-0.232 0.008-0.006 0.017-0.012 0.025-0.017 0.053-0.037 0.105-0.074 0.157-0.111 0.007-0.005 0.014-0.010 0.021-0.015 0.117-0.086 0.231-0.176 0.342-0.269 0.006-0.005 0.013-0.011 0.019-0.016 0.052-0.044 0.104-0.089 0.155-0.134 0.003-0.003 0.006-0.005 0.009-0.008 0.109-0.098 0.216-0.2 0.319-0.305 0.005-0.005 0.009-0.010 0.014-0.015 0.154-0.158 0.301-0.323 0.44-0.495 0.003-0.004 0.007-0.008 0.010-0.012 0.139-0.174 0.271-0.354 0.393-0.54 0.002-0.003 0.005-0.007 0.007-0.010 0.082-0.126 0.161-0.254 0.235-0.385 0 0 0 0 0-0l-30.189 0c-0-0 0 0 0 0z"/><path fill="#4173cd" d="M31.996 6.788c-0.001-0.021-0.002-0.042-0.002-0.063-0.002-0.051-0.004-0.102-0.008-0.152-0.001-0.022-0.003-0.044-0.004-0.066-0.004-0.058-0.009-0.115-0.014-0.172-0.001-0.012-0.002-0.025-0.003-0.037-0.007-0.070-0.015-0.14-0.024-0.209-0.002-0.015-0.004-0.029-0.006-0.043-0.008-0.055-0.016-0.111-0.025-0.166-0.003-0.019-0.006-0.038-0.009-0.056-0.009-0.055-0.019-0.111-0.030-0.166-0.003-0.013-0.005-0.027-0.008-0.040-0.028-0.139-0.060-0.276-0.096-0.412-0.003-0.013-0.007-0.026-0.010-0.038-0.016-0.058-0.032-0.115-0.049-0.172-0.003-0.011-0.006-0.021-0.009-0.032-0.042-0.137-0.087-0.272-0.137-0.406-0.002-0.004-0.003-0.009-0.005-0.013-0.023-0.062-0.048-0.124-0.073-0.185-0.003-0.007-0.006-0.015-0.009-0.022-0.082-0.199-0.173-0.394-0.272-0.583-0.002-0.004-0.004-0.008-0.007-0.013-0.033-0.062-0.067-0.124-0.101-0.186 0 0-0-0-0-0h-13.407v3.556h14.312v-0.111c0-0.071-0.001-0.142-0.003-0.212z"/><path fill="#f5f5f5" d="M17.687 7.111h14.312v3.556h-14.312v-3.556z"/><path fill="#4173cd" d="M17.687 10.667h14.312v3.556h-14.312v-3.556z"/><path fill="#f5f5f5" d="M17.687 17.75h-17.687v0.028h32v-3.555h-14.312z"/><path fill="#4173cd" d="M0 17.777h32v3.556h-32v-3.556z"/><path fill="#f5f5f5" d="M0 21.333h32v3.556h-32v-3.556z"/><path fill="#4173cd" d="M0 25c0 0.071 0.001 0.142 0.004 0.212 0.001 0.021 0.002 0.042 0.002 0.063 0.002 0.051 0.004 0.102 0.007 0.152 0.001 0.022 0.003 0.044 0.004 0.066 0.004 0.058 0.009 0.115 0.014 0.172 0.001 0.012 0.002 0.025 0.003 0.037 0.007 0.070 0.015 0.14 0.024 0.209 0.002 0.015 0.004 0.029 0.006 0.043 0.008 0.055 0.016 0.111 0.025 0.166 0.003 0.019 0.006 0.038 0.009 0.056 0.009 0.055 0.020 0.111 0.030 0.166 0.003 0.013 0.005 0.026 0.008 0.040 0.028 0.139 0.060 0.276 0.096 0.412 0.003 0.013 0.007 0.026 0.010 0.038 0.016 0.058 0.032 0.115 0.049 0.172 0.003 0.011 0.006 0.021 0.010 0.032 0.042 0.137 0.087 0.272 0.137 0.406 0.002 0.004 0.003 0.009 0.005 0.013 0.023 0.062 0.048 0.124 0.073 0.186 0.003 0.007 0.006 0.014 0.009 0.022 0.082 0.199 0.173 0.394 0.272 0.583 0.002 0.004 0.004 0.008 0.006 0.012 0.033 0.063 0.067 0.125 0.101 0.186l0 0 30.19 0c0 0 0-0 0-0 0.035-0.061 0.069-0.123 0.101-0.186 0.002-0.004 0.004-0.008 0.006-0.012 0.099-0.189 0.19-0.384 0.272-0.583 0.003-0.007 0.006-0.014 0.009-0.022 0.025-0.061 0.049-0.123 0.073-0.186 0.002-0.004 0.003-0.009 0.005-0.013 0.050-0.133 0.095-0.269 0.137-0.406 0.003-0.011 0.006-0.021 0.009-0.032 0.017-0.057 0.033-0.114 0.049-0.172 0.003-0.013 0.007-0.026 0.010-0.038 0.036-0.136 0.068-0.273 0.096-0.412 0.003-0.013 0.005-0.026 0.008-0.040 0.011-0.055 0.021-0.11 0.030-0.166 0.003-0.019 0.006-0.038 0.009-0.056 0.009-0.055 0.017-0.11 0.025-0.166 0.002-0.015 0.004-0.029 0.006-0.043 0.009-0.069 0.017-0.139 0.024-0.209 0.001-0.012 0.002-0.025 0.003-0.037 0.005-0.057 0.010-0.114 0.014-0.172 0.002-0.022 0.003-0.044 0.004-0.066 0.003-0.051 0.006-0.101 0.008-0.152 0.001-0.021 0.002-0.042 0.002-0.063 0.002-0.070 0.003-0.141 0.003-0.212v-0.111h-32v0.111z"/><path fill="#f5f5f5" d="M17.687 14.222v-14.222h-10.687c-3.866 0-7 3.134-7 7v10.75h17.687v-3.527z"/><path fill="#ffe15a" d="M8.842 1.684l-1.193 6.561h2.386z"/><path fill="#ffcd5a" d="M8.842 1.684v6.561h-1.193z"/><path fill="#ffe15a" d="M8.842 16l1.193-6.561h-2.386z"/><path fill="#ffcd5a" d="M8.842 16v-6.561h1.193z"/><path fill="#ffe15a" d="M16 8.842l-6.561-1.193v2.386z"/><path fill="#ffcd5a" d="M16 8.842h-6.561v-1.193z"/><path fill="#ffe15a" d="M1.684 8.842l6.561 1.193v-2.386z"/><path fill="#ffcd5a" d="M1.684 8.842h6.561v1.193z"/><path fill="#ffe15a" d="M13.903 3.781l-5.483 3.796 1.687 1.687z"/><path fill="#ffcd5a" d="M13.903 3.781l-4.64 4.64-0.844-0.844z"/><path fill="#ffe15a" d="M3.781 13.903l5.483-3.796-1.687-1.687z"/><path fill="#ffcd5a" d="M3.781 13.903l4.64-4.64 0.844 0.844z"/><path fill="#ffe15a" d="M13.903 13.903l-3.796-5.483-1.687 1.687z"/><path fill="#ffcd5a" d="M13.903 13.903l-4.64-4.64 0.844-0.844z"/><path fill="#ffe15a" d="M3.781 3.781l3.796 5.483 1.687-1.687z"/><path fill="#ffcd5a" d="M3.781 3.781l4.64 4.64-0.844 0.844z"/><path fill="#ffe15a" d="M11.227 8.842c0 1.318-1.068 2.386-2.386 2.386s-2.386-1.068-2.386-2.386c0-1.318 1.068-2.386 2.386-2.386s2.386 1.068 2.386 2.386z"/></svg>