<svg xmlns="http://www.w3.org/2000/svg" width="32" height="32" version="1.1" viewBox="0 0 32 32"><title>uzbekistn</title><path fill="#82afff" d="M25 0h-18c-3.866 0-7 3.134-7 7v3.667h32v-3.667c0-3.866-3.134-7-7-7z"/><path fill="#73af00" d="M0 25c0 3.866 3.134 7 7 7h18c3.866 0 7-3.134 7-7v-3.667h-32v3.667z"/><path fill="#f5f5f5" d="M0 10.667h32v10.667h-32v-10.667z"/><path fill="#ff4b55" d="M0 9.719h32v1.33h-32v-1.33z"/><path fill="#ff4b55" d="M0 20.951h32v1.33h-32v-1.33z"/><path fill="#f5f5f5" d="M7.574 7.994c-1.724 0-3.121-1.394-3.121-3.112 0-1.724 1.397-3.124 3.121-3.124 0.007 0 0.013 0 0.020 0 0.101 0.001 0.137-0.133 0.048-0.181-0.531-0.284-1.137-0.446-1.781-0.441-2.063 0.015-3.738 1.724-3.717 3.787 0.022 2.042 1.691 3.694 3.743 3.694 0.635 0 1.233-0.161 1.757-0.441 0.089-0.048 0.053-0.183-0.048-0.181-0.007 0-0.015 0-0.022 0z"/><path fill="#f5f5f5" d="M10.018 7.133l-0.139 0.418-0.441 0.003c-0.057 0-0.081 0.073-0.035 0.107l0.354 0.262-0.133 0.42c-0.017 0.054 0.045 0.099 0.091 0.066l0.358-0.256 0.358 0.256c0.046 0.033 0.108-0.012 0.091-0.066l-0.133-0.42 0.354-0.262c0.046-0.034 0.022-0.107-0.035-0.107l-0.441-0.003-0.139-0.418c-0.018-0.054-0.095-0.054-0.113 0z"/><path fill="#f5f5f5" d="M12.452 7.133l-0.139 0.418-0.441 0.003c-0.057 0-0.081 0.073-0.035 0.107l0.354 0.262-0.133 0.42c-0.017 0.054 0.045 0.099 0.091 0.066l0.358-0.256 0.358 0.256c0.046 0.033 0.108-0.012 0.091-0.066l-0.133-0.42 0.354-0.262c0.046-0.034 0.022-0.107-0.035-0.107l-0.441-0.003-0.139-0.418c-0.018-0.054-0.095-0.054-0.113 0z"/><path fill="#f5f5f5" d="M12.452 4.236l-0.139 0.418-0.441 0.003c-0.057 0-0.081 0.073-0.035 0.107l0.354 0.262-0.133 0.42c-0.017 0.054 0.045 0.099 0.091 0.066l0.358-0.256 0.358 0.256c0.046 0.033 0.108-0.012 0.091-0.066l-0.133-0.42 0.354-0.262c0.046-0.034 0.022-0.107-0.035-0.107l-0.441-0.003-0.139-0.418c-0.018-0.054-0.095-0.054-0.113-0z"/><path fill="#f5f5f5" d="M14.936 4.236l-0.139 0.418-0.441 0.003c-0.057 0-0.081 0.073-0.035 0.107l0.354 0.262-0.133 0.42c-0.017 0.054 0.045 0.099 0.091 0.066l0.358-0.256 0.358 0.256c0.046 0.033 0.108-0.012 0.091-0.066l-0.133-0.42 0.354-0.262c0.046-0.034 0.022-0.107-0.035-0.107l-0.441-0.003-0.139-0.418c-0.018-0.054-0.095-0.054-0.113-0z"/><path fill="#f5f5f5" d="M17.389 4.236l-0.139 0.418-0.441 0.003c-0.057 0-0.081 0.073-0.035 0.107l0.355 0.262-0.133 0.42c-0.017 0.054 0.045 0.099 0.091 0.066l0.358-0.256 0.358 0.256c0.046 0.033 0.108-0.012 0.091-0.066l-0.133-0.42 0.355-0.262c0.046-0.034 0.022-0.107-0.035-0.107l-0.441-0.003-0.139-0.418c-0.018-0.054-0.095-0.054-0.113-0z"/><path fill="#f5f5f5" d="M19.811 4.236l-0.139 0.418-0.441 0.003c-0.057 0-0.081 0.073-0.035 0.107l0.355 0.262-0.133 0.42c-0.017 0.054 0.045 0.099 0.091 0.066l0.358-0.256 0.358 0.256c0.046 0.033 0.108-0.012 0.091-0.066l-0.133-0.42 0.355-0.262c0.046-0.034 0.022-0.107-0.035-0.107l-0.441-0.003-0.139-0.418c-0.018-0.054-0.095-0.054-0.113-0z"/><path fill="#f5f5f5" d="M14.936 7.133l-0.139 0.418-0.441 0.003c-0.057 0-0.081 0.073-0.035 0.107l0.354 0.262-0.133 0.42c-0.017 0.054 0.045 0.099 0.091 0.066l0.358-0.256 0.358 0.256c0.046 0.033 0.108-0.012 0.091-0.066l-0.133-0.42 0.354-0.262c0.046-0.034 0.022-0.107-0.035-0.107l-0.441-0.003-0.139-0.418c-0.018-0.054-0.095-0.054-0.113 0z"/><path fill="#f5f5f5" d="M14.936 1.338l-0.139 0.418-0.441 0.003c-0.057 0-0.081 0.073-0.035 0.107l0.354 0.262-0.133 0.42c-0.017 0.054 0.045 0.099 0.091 0.066l0.358-0.256 0.358 0.256c0.046 0.033 0.108-0.012 0.091-0.066l-0.133-0.42 0.354-0.262c0.046-0.034 0.022-0.107-0.035-0.107l-0.441-0.003-0.139-0.418c-0.018-0.054-0.095-0.054-0.113 0z"/><path fill="#f5f5f5" d="M17.389 7.133l-0.139 0.418-0.441 0.003c-0.057 0-0.081 0.073-0.035 0.107l0.355 0.262-0.133 0.42c-0.017 0.054 0.045 0.099 0.091 0.066l0.358-0.256 0.358 0.256c0.046 0.033 0.108-0.012 0.091-0.066l-0.133-0.42 0.355-0.262c0.046-0.034 0.022-0.107-0.035-0.107l-0.441-0.003-0.139-0.418c-0.018-0.054-0.095-0.054-0.113 0z"/><path fill="#f5f5f5" d="M19.811 7.133l-0.139 0.418-0.441 0.003c-0.057 0-0.081 0.073-0.035 0.107l0.355 0.262-0.133 0.42c-0.017 0.054 0.045 0.099 0.091 0.066l0.358-0.256 0.358 0.256c0.046 0.033 0.108-0.012 0.091-0.066l-0.133-0.42 0.355-0.262c0.046-0.034 0.022-0.107-0.035-0.107l-0.441-0.003-0.139-0.418c-0.018-0.054-0.095-0.054-0.113 0z"/><path fill="#f5f5f5" d="M17.389 1.338l-0.139 0.418-0.441 0.003c-0.057 0-0.081 0.073-0.035 0.107l0.355 0.262-0.133 0.42c-0.017 0.054 0.045 0.099 0.091 0.066l0.358-0.256 0.358 0.256c0.046 0.033 0.108-0.012 0.091-0.066l-0.133-0.42 0.355-0.262c0.046-0.034 0.022-0.107-0.035-0.107l-0.441-0.003-0.139-0.418c-0.018-0.054-0.095-0.054-0.113 0z"/><path fill="#f5f5f5" d="M19.811 1.338l-0.139 0.418-0.441 0.003c-0.057 0-0.081 0.073-0.035 0.107l0.355 0.262-0.133 0.42c-0.017 0.054 0.045 0.099 0.091 0.066l0.358-0.256 0.358 0.256c0.046 0.033 0.108-0.012 0.091-0.066l-0.133-0.42 0.355-0.262c0.046-0.034 0.022-0.107-0.035-0.107l-0.441-0.003-0.139-0.418c-0.018-0.054-0.095-0.054-0.113 0z"/></svg>