<!-- Generated by IcoMoon.io -->
<svg version="1.1" xmlns="http://www.w3.org/2000/svg" width="32" height="32" viewBox="0 0 32 32">
<title>vanuatu</title>
<path fill="#464655" d="M31.998 25v-18c0-3.866-3.134-7-7-7h-18c-3.797 0-6.887 3.023-6.997 6.793v18.413c0.109 3.77 3.2 6.793 6.997 6.793h18c3.866 0 7-3.134 7-7z"></path>
<path fill="#ffe15a" d="M31.998 16.842v-1.684h-16.406l-14.375-12.105c-0.282 0.412-0.521 0.856-0.711 1.325l13.801 11.622-13.801 11.622c0.19 0.469 0.429 0.913 0.711 1.326l14.375-12.105 16.406 0z"></path>
<path fill="#73af00" d="M31.998 25v-6.474h-15.997l-13.773 11.596c1.25 1.165 2.927 1.878 4.77 1.878h18c3.866 0 7-3.134 7-7z"></path>
<path fill="#ff4b55" d="M31.998 13.474v-6.474c0-3.866-3.134-7-7-7h-18c-1.843 0-3.52 0.713-4.77 1.877l13.773 11.596h15.997z"></path>
<path fill="#ffe15a" d="M5.897 12.426c-1.838-0.578-3.226 0.758-3.543 1.445-0.269 0.583-0.768 3.221 1.72 3.642s2.459-1.926 2.459-1.926c-0.112 0.374-0.313 1.44-2.109 1.44-0.673 0-1.641-1.001-1.459-2.104 0.172-1.038 1.099-1.569 1.8-1.599 0.664-0.028 2.212 0.43 2.212 2.314 0 2.118-2.183 2.357-2.183 2.357v1.279c1.9-0.186 2.976-1.239 3.26-2.925 0.283-1.678-0.288-3.335-2.157-3.923z"></path>
<path fill="#ffe15a" d="M3.861 15.566c-0.043 0.055-0.067 0.124-0.068 0.194l-0.005 0.344-0.067 0.117c-0.024 0.042-0.010 0.096 0.032 0.12s0.097 0.010 0.122-0.033l0.069-0.12 0.275-0.099c0.083-0.030 0.15-0.093 0.186-0.173 0.072-0.16 0.226-0.454 0.476-0.761 0.25 0.307 0.404 0.601 0.476 0.761 0.036 0.081 0.103 0.143 0.186 0.173l0.275 0.099 0.069 0.12c0.024 0.043 0.079 0.057 0.122 0.033s0.056-0.078 0.032-0.12l-0.067-0.117-0.005-0.344c-0.001-0.070-0.024-0.139-0.068-0.194-0.23-0.292-0.475-0.522-0.716-0.725 0.193-0.181 0.411-0.354 0.685-0.488 0.064-0.031 0.097-0.102 0.080-0.171-0.022-0.094-0.125-0.143-0.212-0.102-0.184 0.086-0.5 0.255-0.856 0.514-0.356-0.259-0.672-0.428-0.856-0.514-0.087-0.041-0.19 0.008-0.212 0.102-0.016 0.069 0.017 0.14 0.080 0.171 0.275 0.134 0.492 0.306 0.685 0.488-0.241 0.203-0.486 0.433-0.716 0.725z"></path>
</svg>
