<svg xmlns="http://www.w3.org/2000/svg" width="32" height="32" version="1.1" viewBox="0 0 32 32"><title>zambia</title><path fill="#73af00" d="M25 0h-18c-3.866 0-7 3.134-7 7v18c0 3.866 3.134 7 7 7h18c3.866 0 7-3.134 7-7v-18c0-3.866-3.134-7-7-7z"/><path fill="#ff4b55" d="M20.414 10.947h3.862v21.053h-3.862v-21.052z"/><path fill="#464655" d="M24.276 10.947v21.053h0.724c1.128 0 2.194-0.267 3.138-0.741v-20.311h-3.862z"/><path fill="#ff9b55" d="M28.138 31.259c2.29-1.151 3.862-3.521 3.862-6.259v-14.053h-3.862v20.311z"/><path fill="#ff9b55" d="M31.039 5.531c0.012-0.024 0.006-0.053-0.014-0.071s-0.050-0.020-0.072-0.005c-0.111 0.074-0.223 0.141-0.335 0.202 0.358-0.296 0.408-0.553 0.411-0.572 0.004-0.024-0.006-0.047-0.026-0.060s-0.046-0.013-0.066 0.001c-0.387 0.262-0.774 0.45-1.108 0.581 0.448-0.283 0.626-0.572 0.637-0.59 0.014-0.023 0.010-0.053-0.009-0.073s-0.049-0.023-0.073-0.009c-0.358 0.216-0.782 0.386-1.187 0.517 0.054-0.083 0.092-0.176 0.058-0.229-0.032-0.049-0.090-0.049-0.174 0-0.169 0.099-1.446 0.425-1.942 0.546-0.505-0.091-0.923 0.038-1.053 0.086-0.035-0.041-0.051-0.081-0.057-0.113-0.011-0.051-0.003-0.103 0.021-0.138 0.039-0.058 0.12-0.064 0.192-0.069 0.031-0.002 0.059-0.004 0.083-0.010 0.016 0.005 0.035 0.014 0.034 0.021-0.001 0.027 0.016 0.052 0.042 0.060s0.054-0.002 0.068-0.025c0.004-0.006 0.088-0.144 0.023-0.261-0.047-0.085-0.156-0.13-0.324-0.133-0.069-0.048-0.328-0.204-0.648-0.083-0.324 0.122-0.468 0.455-0.515 0.595-0.252-0.035-1.409-0.212-2.039-0.581-0.031-0.014-0.135-0.055-0.193 0.001-0.036 0.034-0.040 0.087-0.013 0.157 0.015 0.037 0.037 0.074 0.067 0.109-0.337-0.155-0.791-0.371-1.134-0.563-0.054-0.025-0.151-0.059-0.201-0.006-0.032 0.033-0.031 0.081 0.002 0.143 0.007 0.013 0.014 0.028 0.021 0.044 0.033 0.072 0.079 0.17 0.19 0.283-0.083-0.045-0.158-0.092-0.218-0.139-0.301-0.234-0.342-0.257-0.396-0.221-0.046 0.031-0.032 0.084-0.016 0.14l0.004 0.015c0.013 0.047 0.034 0.122 0.093 0.212-0.047-0.032-0.087-0.038-0.118-0.016-0.019 0.013-0.047 0.045-0.025 0.117 0.052 0.171 0.414 0.62 1.103 0.753-0.069 0.010-0.142 0.018-0.212 0.019-0.027 0.001-0.050 0.019-0.056 0.045s0.005 0.053 0.028 0.066c0.013 0.007 0.256 0.143 0.702 0.132-0.067 0.017-0.142 0.030-0.226 0.035-0.026 0.002-0.048 0.020-0.054 0.045s0.005 0.052 0.027 0.065c0.013 0.008 0.272 0.16 0.673 0.138l-0.035 0.021c-0.020 0.012-0.031 0.035-0.028 0.059s0.020 0.043 0.043 0.049c0.012 0.004 0.238 0.066 0.52 0.037l-0.049 0.035c-0.020 0.014-0.029 0.039-0.023 0.063s0.025 0.042 0.050 0.045c0.005 0.001 0.042 0.005 0.1 0.005 0.038 0 0.086-0.002 0.141-0.009-0.001 0.014 0 0.028 0.005 0.042 0.028 0.085 0.153 0.105 0.195 0.106 0.003 0 0.005 0 0.008 0 0.050 0 0.103-0.007 0.158-0.018 0.087 0.081 0.245 0.074 0.399 0.038-0.009 0.014-0.016 0.028-0.020 0.041-0.009 0.028-0.002 0.057 0.018 0.077s0.067 0.066 0.497-0.055c-0.002 0.001-0.004 0.003-0.005 0.004-0.057 0.044-0.053 0.090-0.046 0.113 0.026 0.085 0.216 0.139 0.56 0.162 0.008 0.191-0.046 0.399-0.046 0.401-0.006 0.023 0.002 0.047 0.021 0.062s0.044 0.017 0.065 0.006c0.020-0.011 0.040-0.025 0.058-0.040l-0.002 0.063c-0.001 0.023 0.012 0.044 0.032 0.055 0.009 0.004 0.018 0.007 0.027 0.007 0.002 0 0.005-0.001 0.007-0.001-0.006 0.054-0.028 0.118-0.097 0.133-0.031 0.007-0.065 0.010-0.097 0.014-0.146 0.015-0.312 0.032-0.339 0.368-0.002 0.025 0.012 0.049 0.035 0.059s0.050 0.005 0.067-0.014l0.064-0.068c0.038 0.009 0.097 0.019 0.161 0.008-0.016 0.078-0.011 0.173 0.066 0.254 0.017 0.018 0.043 0.023 0.065 0.014s0.037-0.031 0.037-0.055v-0.043c0.037-0.009 0.086-0.027 0.132-0.063 0.027 0.059 0.079 0.127 0.178 0.185 0.009 0.005 0.020 0.008 0.030 0.008 0.014 0 0.027-0.005 0.038-0.014 0.019-0.016 0.026-0.043 0.018-0.066l-0.031-0.085c0.022-0.021 0.050-0.052 0.075-0.085 0.012 0.018 0.033 0.028 0.054 0.026s0.042-0.017 0.050-0.038l0.022-0.058c0.013-0.004 0.025-0.008 0.037-0.013 0.015 0.129 0.114 0.236 0.12 0.243 0.011 0.012 0.027 0.019 0.043 0.019 0.005 0 0.010-0.001 0.015-0.002 0.021-0.005 0.037-0.021 0.043-0.042l0.033-0.124c0.088-0.045 0.096-0.125 0.102-0.175 0.001-0.010 0.003-0.024 0.003-0.030 0.034 0.017 0.107 0.099 0.162 0.183 0.011 0.017 0.030 0.027 0.050 0.027 0.020-0.001 0.039-0.010 0.050-0.027 0 0 0.047-0.070 0.069-0.111 0.096-0.174-0.049-0.278-0.119-0.329-0.017-0.012-0.041-0.029-0.044-0.034-0.013-0.032-0.009-0.062 0-0.085 0.058 0.040 0.125 0.074 0.198 0.091 0.005 0.001 0.009 0.002 0.014 0.002 0.019 0 0.038-0.009 0.049-0.025 0.014-0.020 0.014-0.046 0.001-0.067-0.001-0.002-0.111-0.17-0.181-0.378 0.114 0.067 0.268 0.148 0.348 0.148 0.055 0 0.076-0.034 0.082-0.049 0.004-0.009 0.011-0.024 0.005-0.053 0.106 0.057 0.225 0.102 0.316 0.078 0.027-0.007 0.090-0.023 0.099-0.080 0.005-0.029-0.005-0.052-0.026-0.074 0.098 0.024 0.204 0.036 0.308 0.022 0.087-0.011 0.112-0.053 0.118-0.087 0.004-0.021 0.011-0.062-0.066-0.14 0.149-0.008 0.283-0.041 0.294-0.131 0.001-0.008-0-0.015-0.001-0.023 0.48-0.052 0.845-0.353 0.861-0.366 0.005-0.004 0.008-0.009 0.011-0.014 0.291-0.036 0.621-0.102 0.888-0.222 0.504-0.227 0.76-0.533 0.714-0.644-0.013-0.032-0.051-0.056-0.098-0.038-0.013 0.005-0.040 0.016-0.075 0.030 0.299-0.243 0.416-0.468 0.427-0.49z"/><path fill="#464655" d="M31.039 5.531c0.012-0.024 0.006-0.053-0.014-0.071s-0.050-0.020-0.072-0.005c-0.111 0.074-0.223 0.141-0.335 0.202 0.358-0.296 0.408-0.553 0.411-0.572 0.004-0.024-0.006-0.047-0.026-0.060s-0.046-0.013-0.066 0.001c-0.387 0.262-0.774 0.45-1.108 0.581 0.448-0.283 0.626-0.572 0.637-0.59 0.014-0.024 0.010-0.053-0.009-0.073s-0.049-0.023-0.073-0.009c-0.358 0.216-0.782 0.386-1.187 0.517 0.054-0.083 0.092-0.176 0.058-0.229-0.032-0.049-0.090-0.049-0.174 0-0.169 0.099-1.446 0.425-1.942 0.546-0.505-0.091-0.923 0.038-1.053 0.086-0.035-0.041-0.051-0.081-0.057-0.113-0.011-0.051-0.003-0.103 0.021-0.138 0.039-0.058 0.12-0.064 0.192-0.069 0.031-0.002 0.059-0.004 0.083-0.010 0.016 0.005 0.035 0.014 0.034 0.021-0.001 0.027 0.016 0.052 0.042 0.060s0.054-0.002 0.068-0.025c0.004-0.006 0.088-0.144 0.023-0.261-0.047-0.085-0.156-0.13-0.324-0.133-0.069-0.048-0.328-0.204-0.648-0.083-0.324 0.122-0.468 0.455-0.515 0.595-0.252-0.035-1.409-0.212-2.039-0.581-0.031-0.014-0.135-0.055-0.193 0.001-0.036 0.034-0.040 0.087-0.013 0.157 0.015 0.037 0.037 0.073 0.067 0.109-0.337-0.155-0.791-0.371-1.134-0.563-0.054-0.025-0.151-0.059-0.201-0.006-0.032 0.033-0.031 0.081 0.002 0.143 0.007 0.013 0.014 0.028 0.021 0.044 0.033 0.072 0.079 0.17 0.19 0.284-0.083-0.045-0.158-0.092-0.218-0.139-0.301-0.234-0.342-0.257-0.396-0.221-0.046 0.031-0.031 0.084-0.016 0.14l0.004 0.015c0.013 0.047 0.034 0.122 0.093 0.212-0.047-0.032-0.087-0.038-0.118-0.016-0.019 0.013-0.047 0.045-0.025 0.117 0.052 0.171 0.414 0.62 1.103 0.753-0.069 0.010-0.142 0.018-0.212 0.019-0.027 0.001-0.050 0.019-0.056 0.045s0.005 0.053 0.028 0.066c0.013 0.007 0.256 0.143 0.702 0.132-0.067 0.017-0.142 0.030-0.226 0.035-0.026 0.002-0.048 0.020-0.054 0.045s0.005 0.052 0.027 0.065c0.013 0.008 0.272 0.16 0.673 0.138l-0.035 0.021c-0.020 0.012-0.031 0.035-0.028 0.059s0.020 0.043 0.043 0.049c0.012 0.004 0.239 0.066 0.52 0.037l-0.049 0.035c-0.020 0.014-0.029 0.039-0.023 0.063s0.025 0.041 0.050 0.045c0.005 0.001 0.041 0.005 0.1 0.005 0.038 0 0.086-0.002 0.141-0.009-0.001 0.014 0 0.028 0.005 0.042 0.028 0.085 0.153 0.105 0.195 0.106 0.003 0 0.005 0 0.008 0 0.050 0 0.103-0.007 0.158-0.018 0.087 0.081 0.245 0.074 0.399 0.038-0.009 0.014-0.016 0.028-0.020 0.041-0.009 0.028-0.002 0.057 0.018 0.077s0.067 0.066 0.497-0.055c-0.002 0.001-0.004 0.003-0.005 0.004-0.057 0.044-0.053 0.090-0.046 0.113 0.026 0.085 0.216 0.139 0.56 0.162 0.008 0.191-0.046 0.399-0.046 0.401-0.006 0.023 0.002 0.047 0.021 0.062s0.044 0.017 0.065 0.006c0.020-0.011 0.040-0.025 0.058-0.040l-0.002 0.063c-0.001 0.023 0.012 0.044 0.032 0.055 0.009 0.004 0.018 0.007 0.027 0.007 0.002 0 0.005-0.001 0.007-0.001-0.006 0.054-0.028 0.118-0.097 0.133-0.031 0.007-0.065 0.010-0.097 0.014-0.146 0.015-0.312 0.032-0.339 0.368-0.002 0.025 0.012 0.049 0.035 0.059s0.050 0.005 0.067-0.014l0.064-0.068c0.038 0.009 0.097 0.019 0.161 0.008-0.016 0.078-0.011 0.173 0.066 0.254 0.017 0.018 0.043 0.023 0.065 0.014s0.037-0.031 0.037-0.055v-0.043c0.037-0.009 0.086-0.027 0.132-0.063 0.027 0.059 0.079 0.127 0.178 0.186 0.009 0.005 0.020 0.008 0.030 0.008 0.014 0 0.027-0.005 0.038-0.014 0.019-0.016 0.026-0.043 0.018-0.066l-0.031-0.085c0.022-0.021 0.050-0.052 0.075-0.085 0.012 0.018 0.033 0.028 0.054 0.026s0.042-0.017 0.050-0.038l0.022-0.058c0.013-0.004 0.025-0.008 0.037-0.013 0.015 0.129 0.114 0.236 0.12 0.243 0.011 0.012 0.027 0.019 0.043 0.019 0.005 0 0.010-0.001 0.015-0.002 0.021-0.005 0.037-0.021 0.043-0.042l0.033-0.124c0.088-0.044 0.096-0.125 0.102-0.175 0.001-0.010 0.003-0.024 0.003-0.030 0.034 0.017 0.107 0.099 0.162 0.183 0.011 0.017 0.030 0.027 0.050 0.027 0.020-0.002 0.039-0.010 0.050-0.027 0 0 0.047-0.070 0.069-0.111 0.096-0.174-0.049-0.278-0.119-0.329-0.017-0.012-0.041-0.029-0.044-0.034-0.013-0.032-0.009-0.062 0-0.085 0.058 0.040 0.125 0.074 0.198 0.091 0.005 0.001 0.009 0.002 0.014 0.002 0.019 0 0.038-0.009 0.049-0.025 0.014-0.020 0.014-0.046 0.001-0.067-0.001-0.002-0.111-0.17-0.181-0.378 0.114 0.067 0.268 0.148 0.348 0.148 0.055 0 0.076-0.034 0.082-0.049 0.004-0.009 0.011-0.024 0.005-0.053 0.106 0.057 0.225 0.101 0.316 0.078 0.027-0.007 0.090-0.023 0.099-0.080 0.005-0.029-0.005-0.052-0.026-0.074 0.098 0.024 0.204 0.036 0.308 0.022 0.087-0.011 0.112-0.053 0.118-0.087 0.004-0.021 0.011-0.062-0.066-0.14 0.149-0.008 0.283-0.041 0.294-0.131 0.001-0.008-0-0.015-0.001-0.023 0.48-0.052 0.845-0.353 0.861-0.366 0.005-0.004 0.008-0.009 0.011-0.014 0.291-0.036 0.621-0.102 0.888-0.222 0.504-0.227 0.76-0.533 0.714-0.644-0.013-0.032-0.051-0.056-0.098-0.038-0.013 0.005-0.040 0.016-0.075 0.030 0.299-0.243 0.416-0.468 0.427-0.49zM30.162 5.193c-0.219 0.215-0.632 0.523-1.313 0.702-0.006 0.002-0.011 0.005-0.016 0.008-0.143-0.011-0.324-0.037-0.483-0.097 0.503-0.114 1.211-0.311 1.812-0.613zM27.131 5.889c0.008 0.002 0.017 0.001 0.025-0.001 0.071-0.017 1.71-0.419 1.974-0.555-0.031 0.060-0.089 0.145-0.137 0.18-0.001 0.001-0.002 0.003-0.003 0.004-0.706 0.21-1.305 0.298-1.315 0.299-0.033 0.005-0.055 0.035-0.050 0.067s0.035 0.055 0.067 0.050c0.005-0.001 0.187-0.028 0.467-0.086 0.145 0.083 0.322 0.129 0.484 0.153-0.242 0.020-0.466 0.009-0.469 0.008-0.028-0.001-0.056 0.019-0.062 0.047s0.010 0.058 0.038 0.068l0.225 0.082c-0.317 0.067-0.622 0.004-0.625 0.003-0.024-0.005-0.049 0.005-0.063 0.026s-0.012 0.048 0.003 0.068c0.043 0.057 0.164 0.118 0.27 0.162-0.435 0.082-0.735-0.184-0.749-0.197-0.024-0.022-0.062-0.021-0.084 0.004s-0.021 0.061 0.003 0.084c0.344 0.322 0.985 0.459 1.272 0.506-0.043 0.025-0.094 0.049-0.148 0.059-0.221 0.039-0.73-0.203-1.089-0.399l-0.287-0.166c-0.028-0.016-0.064-0.007-0.081 0.021s-0.008 0.064 0.020 0.081c0.014 0.008 0.126 0.077 0.286 0.165l0.699 0.403c-0.214 0.027-0.441-0.021-0.443-0.022-0.002-0-0.003 0-0.005-0-0.164-0.115-0.428-0.309-0.824-0.637-0.064-0.228-0.183-0.328-0.333-0.423 0.169-0.052 0.526-0.133 0.935-0.056zM27.563 7.151c-0 0-0.001 0-0.001 0.001s-0.001-0-0.001-0.001c0.001 0 0.001 0 0.002 0zM23.686 6.881l0.136-0.097c0.024-0.017 0.032-0.050 0.018-0.076s-0.045-0.038-0.073-0.029c-0.225 0.080-0.453 0.072-0.595 0.054l0.158-0.097c0.025-0.015 0.035-0.047 0.024-0.074s-0.041-0.042-0.070-0.034c-0.287 0.075-0.526 0.044-0.682 0.001 0.249-0.058 0.393-0.168 0.401-0.174 0.022-0.017 0.029-0.046 0.018-0.072s-0.038-0.039-0.065-0.034c-0.328 0.062-0.581 0.041-0.751 0.006 0.176-0.029 0.315-0.071 0.324-0.074 0.001-0 0.002-0.001 0.003-0.001 0.004-0.001 0.007-0.004 0.011-0.006s0.006-0.003 0.009-0.006c0.003-0.003 0.005-0.006 0.007-0.009s0.005-0.006 0.006-0.009c0.002-0.003 0.002-0.007 0.003-0.010s0.002-0.008 0.003-0.012c0-0.001 0.001-0.002 0.001-0.003 0-0.003-0.001-0.006-0.002-0.009s0-0.006-0.001-0.009c-0-0.001-0.001-0.002-0.001-0.003-0.001-0.004-0.004-0.007-0.006-0.011s-0.003-0.006-0.006-0.009c-0.003-0.003-0.006-0.005-0.009-0.007s-0.006-0.005-0.009-0.006c-0.003-0.002-0.007-0.002-0.010-0.003s-0.008-0.002-0.012-0.003c-0.001-0-0.002-0.001-0.003-0.001-0.765-0.007-1.187-0.409-1.322-0.615 0.238 0.166 0.551 0.307 0.779 0.388l0 0c0.303 0.117 0.681 0.192 0.697 0.195 0.032 0.006 0.064-0.015 0.070-0.047s-0.015-0.064-0.047-0.070c-0.004-0.001-0.385-0.076-0.679-0.19-0.634-0.245-0.762-0.511-0.805-0.645 0.068 0.049 0.16 0.12 0.21 0.159 0.371 0.288 1.234 0.561 1.27 0.573 0.031 0.010 0.064-0.007 0.074-0.038s-0.007-0.064-0.037-0.075c-0.892-0.304-1.026-0.593-1.098-0.748-0.006-0.013-0.012-0.026-0.018-0.038 0.012 0.004 0.025 0.008 0.035 0.013 0.495 0.277 1.221 0.604 1.496 0.726-0.049 0.024-0.101 0.044-0.136 0.046-0.023 0.001-0.043 0.016-0.052 0.037s-0.004 0.046 0.011 0.063c0.004 0.004 0.062 0.066 0.175 0.091l-0.080 0.052c-0.019 0.012-0.029 0.034-0.027 0.057s0.018 0.041 0.039 0.049c0.006 0.002 0.097 0.034 0.219 0.047l-0.067 0.049c-0.017 0.012-0.026 0.033-0.024 0.054s0.015 0.039 0.034 0.048c0.008 0.004 0.099 0.045 0.246 0.038l-0.005 0.003c-0.019 0.014-0.029 0.037-0.024 0.061s0.023 0.041 0.046 0.046c0.009 0.002 0.122 0.025 0.283 0.007l-0.037 0.024c-0.020 0.013-0.030 0.036-0.026 0.059s0.021 0.042 0.044 0.048c0.017 0.004 0.278 0.069 0.62-0.039-0.072 0.047-0.139 0.081-0.194 0.094-0.025 0.006-0.044 0.027-0.046 0.053s0.012 0.050 0.036 0.060c0.002 0.001 0.007 0.003 0.015 0.006-0.183 0.121-0.37 0.163-0.501 0.176zM23.398 5.801c-0.012-0.027-0.040-0.041-0.069-0.034-0.069 0.017-0.125 0.015-0.168 0.006 0.071-0.031 0.131-0.069 0.142-0.076 0.004-0.003 0.008-0.006 0.011-0.010 0.106 0.043 0.226 0.083 0.361 0.123l-0.229 0.167c-0.077 0.008-0.152 0.001-0.213-0.010l0.142-0.092c0.024-0.016 0.034-0.047 0.022-0.074zM23.933 7.026c-0.023-0-0.064-0.012-0.080-0.023 0.004-0.006 0.014-0.019 0.036-0.036 0.141-0.036 0.302-0.104 0.457-0.231 0.162 0.012 0.418-0.027 0.677-0.288 0.010 0.017 0.020 0.035 0.031 0.053-0.028 0.021-0.7 0.528-1.121 0.525zM24.397 6.619c0.192-0.116 0.408-0.317 0.542-0.452 0.002 0.049 0.012 0.106 0.033 0.168-0.005 0.003-0.009 0.005-0.013 0.009-0.213 0.225-0.421 0.275-0.562 0.275zM25.515 7.39c-0.196-0.013-0.378-0.044-0.445-0.073 0.162-0.127 0.209-0.182 0.213-0.189 0.016-0.021 0.017-0.049 0.003-0.071s-0.042-0.031-0.067-0.023c-0.214 0.069-0.463 0.136-0.586 0.154 0.057-0.051 0.157-0.115 0.248-0.16 0.029-0.015 0.041-0.050 0.027-0.079s-0.049-0.042-0.079-0.028c-0.162 0.076-0.394 0.153-0.539 0.152 0.395-0.142 0.798-0.447 0.836-0.476 0.030 0.036 0.064 0.073 0.104 0.111 0.356 0.331 0.317 0.59 0.285 0.683zM25.613 7.753c-0.003 0.004-0.008 0.009-0.013 0.015 0.013-0.088 0.022-0.199 0.014-0.304 0.033-0.072 0.099-0.285-0.073-0.568 0.113 0.016 0.373 0.071 0.485 0.234 0.015 0.022 0.030 0.046 0.044 0.071l-0 0c-0.006 0.013-0.118 0.286-0.082 0.627-0.026-0.031-0.052-0.069-0.068-0.114-0.008-0.021-0.027-0.036-0.049-0.038s-0.044 0.008-0.056 0.026c-0.025 0.038-0.061 0.090-0.098 0.138l0.001-0.048c0.001-0.025-0.015-0.048-0.039-0.057s-0.051-0.002-0.067 0.018zM25.997 8.494c-0.012 0.036-0.075 0.104-0.117 0.141-0.002 0.001-0.003 0.003-0.004 0.004-0.031-0.051-0.030-0.092-0.030-0.094 0.002-0.028-0.015-0.053-0.042-0.061s-0.055 0.004-0.069 0.028c-0.054 0.097-0.15 0.107-0.168 0.108 0.003-0.072 0.044-0.137 0.047-0.141 0.016-0.025 0.012-0.058-0.011-0.078s-0.056-0.019-0.079 0.001c-0.087 0.079-0.226 0.028-0.227 0.027-0.006-0.002-0.012-0.004-0.018-0.004 0.038-0.084 0.106-0.091 0.199-0.1 0.035-0.004 0.072-0.007 0.11-0.016 0.183-0.040 0.205-0.243 0.191-0.344-0-0.003-0.002-0.005-0.003-0.008 0.029-0.035 0.057-0.074 0.081-0.107 0.012 0.018 0.024 0.034 0.037 0.049 0 0.043 0.003 0.177 0.018 0.248 0.012 0.056 0.053 0.094 0.092 0.118-0.006 0.013-0.012 0.026-0.015 0.040-0.014 0.058-0.002 0.121 0.016 0.175-0.003 0.004-0.006 0.008-0.007 0.013zM26.028 8.123c-0.006-0.027-0.009-0.068-0.012-0.11 0.017 0.011 0.028 0.018 0.030 0.019 0.021 0.011 0.046 0.010 0.065-0.005s0.027-0.039 0.021-0.062c-0.063-0.252-0.021-0.487 0.014-0.616 0.102 0.225 0.176 0.503 0.151 0.687-0.004 0.028 0.012 0.055 0.039 0.064 0.006 0.002 0.011 0.002 0.017 0.003-0.001 0.006-0.001 0.013-0.002 0.019-0.060-0.002-0.159 0.007-0.256 0.057-0.027-0.012-0.063-0.033-0.068-0.057zM26.812 8.43c-0.005 0.009-0.011 0.018-0.017 0.029-0.071-0.094-0.169-0.191-0.252-0.159-0.067 0.026-0.074 0.090-0.079 0.133-0.005 0.052-0.009 0.073-0.053 0.088-0.019 0.006-0.033 0.022-0.038 0.041l-0.007 0.025c-0.023-0.050-0.035-0.11-0.001-0.162 0.017-0.026 0.011-0.062-0.014-0.080s-0.061-0.015-0.081 0.010c-0.001 0.001-0.055 0.064-0.133 0.075-0.008 0.001-0.016 0.004-0.023 0.008-0.011-0.036-0.018-0.074-0.011-0.104 0.004-0.018 0.013-0.030 0.028-0.039 0.119-0.072 0.258-0.052 0.26-0.051 0.031 0.005 0.060-0.015 0.067-0.045 0.003-0.014 0.029-0.13 0.010-0.227l0.077-0.129c0.028 0.035 0.065 0.079 0.111 0.122-0.025 0.046-0.050 0.121-0.015 0.207 0.014 0.034 0.047 0.058 0.085 0.085 0.097 0.070 0.123 0.104 0.084 0.174zM26.593 7.702c-0.011-0.018-0.033-0.028-0.051-0.029-0.021 0-0.040 0.011-0.051 0.029l-0.077 0.13c-0.033-0.263-0.157-0.578-0.289-0.77-0.172-0.25-0.597-0.298-0.677-0.297-0.039-0.047-0.083-0.096-0.136-0.146-0.353-0.328-0.237-0.59-0.231-0.603 0-0.001 0-0.002 0.001-0.003 0.002-0.004 0.002-0.008 0.003-0.012s0.002-0.007 0.002-0.011c0-0.004-0.001-0.007-0.002-0.011s-0.001-0.008-0.003-0.011c-0.001-0.003-0.003-0.006-0.005-0.009s-0.004-0.007-0.007-0.010c-0.001-0.001-0.001-0.002-0.002-0.003-0.002-0.002-0.005-0.003-0.007-0.004s-0.004-0.004-0.007-0.005c-0.001-0.001-0.002-0-0.003-0.001-0.004-0.002-0.008-0.002-0.012-0.003s-0.007-0.002-0.011-0.002c-0.004-0-0.007 0.001-0.011 0.002s-0.008 0.001-0.011 0.003c-0.003 0.001-0.006 0.003-0.009 0.005s-0.007 0.004-0.010 0.007c-0.001 0.001-0.002 0.001-0.003 0.002l-0 0c-0.404 0.441-0.827 0.494-1.046 0.484l0.254-0.169c0.050-0.028 0.1-0.061 0.15-0.101 0.025-0.020 0.030-0.056 0.011-0.082s-0.055-0.032-0.081-0.015l-0.14 0.093c-0.172 0.095-0.338 0.121-0.454 0.125l0.132-0.093c0.102-0.049 0.213-0.123 0.33-0.232 0.023-0.021 0.025-0.057 0.006-0.081s-0.055-0.029-0.080-0.011l-0.316 0.221c-0.15 0.071-0.273 0.079-0.355 0.072l0.451-0.329c0.019-0.013 0.028-0.037 0.023-0.059s-0.021-0.041-0.043-0.047c-0.736-0.196-0.912-0.396-0.952-0.497-0.003-0.009-0.006-0.016-0.007-0.022 0.015 0.002 0.035 0.008 0.047 0.013 0.721 0.423 2.071 0.593 2.128 0.6 0.029 0.003 0.057-0.015 0.065-0.043 0.020-0.073 0.138-0.445 0.458-0.566 0.302-0.114 0.539 0.070 0.549 0.078s0.024 0.013 0.037 0.013c0.128 0 0.213 0.026 0.239 0.072 0.008 0.015 0.011 0.032 0.010 0.049-0.021-0.011-0.044-0.018-0.066-0.021-0.010-0.002-0.021-0-0.030 0.003-0.012 0.005-0.041 0.007-0.067 0.008-0.084 0.006-0.211 0.014-0.283 0.121-0.042 0.063-0.056 0.147-0.039 0.23 0.011 0.052 0.039 0.119 0.102 0.186 0.006 0.012 0.016 0.021 0.028 0.027 0.022 0.019 0.046 0.038 0.075 0.056 0.14 0.088 0.244 0.169 0.298 0.368 0 0.007 0.002 0.014 0.005 0.020 0.022 0.090 0.036 0.202 0.039 0.348 0.001 0.032 0.027 0.058 0.059 0.058 0 0 0.001 0 0.001 0 0.033-0.001 0.059-0.028 0.058-0.061-0.002-0.082-0.007-0.154-0.015-0.219 0.443 0.362 0.705 0.542 0.836 0.632 0.018 0.013 0.036 0.025 0.051 0.036-0.134 0.012-0.345-0.11-0.511-0.236-0.054-0.049-0.106-0.090-0.134-0.111-0.025-0.019-0.061-0.015-0.082 0.009s-0.018 0.061 0.006 0.082c0.015 0.014 0.063 0.057 0.131 0.109 0.078 0.071 0.138 0.138 0.157 0.176-0.093-0.019-0.347-0.171-0.553-0.318-0.026-0.018-0.061-0.014-0.081 0.011s-0.018 0.059 0.005 0.081c0.143 0.136 0.231 0.259 0.286 0.524v0c0.032 0.151 0.094 0.295 0.146 0.399-0.139-0.095-0.229-0.24-0.23-0.242zM27.951 7.537c-0.315 0.041-0.672-0.199-0.675-0.201-0.025-0.017-0.060-0.013-0.079 0.011s-0.018 0.058 0.004 0.080c0.103 0.103 0.208 0.173 0.285 0.224 0.011 0.007 0.023 0.015 0.035 0.023-0.114-0.006-0.314-0.135-0.423-0.225-0.024-0.020-0.059-0.018-0.081 0.005s-0.022 0.058-0.001 0.081c0.044 0.049 0.087 0.103 0.112 0.143-0.087-0.032-0.234-0.115-0.34-0.183-0.024-0.109-0.055-0.197-0.092-0.272 0.346 0.206 0.404 0.136 0.426 0.11 0.013-0.015 0.027-0.042 0.023-0.080 0-0 0-0 0-0 0.141 0.071 0.292 0.114 0.409 0.059 0.012-0.006 0.030-0.015 0.044-0.029 0.214 0.12 0.326 0.209 0.36 0.252-0.002 0-0.004 0-0.006 0.001zM27.87 7.311c-0.066-0.045-0.15-0.096-0.261-0.156-0.002-0.001-0.005-0.001-0.007-0.002 0.020 0.001 0.039 0.001 0.060 0.001 0.057 0 0.117-0.004 0.177-0.013 0.005 0.003 0.009 0.006 0.014 0.008 0.184 0.058 0.295 0.102 0.331 0.131-0.047 0.021-0.183 0.034-0.315 0.030zM28.221 7.163c0 0-0.001 0-0.001 0-0.048-0.028-0.116-0.055-0.203-0.085 0.003-0.006 0.006-0.013 0.006-0.020 0.001-0.015-0.003-0.029-0.011-0.041 0.101 0.024 0.192 0.034 0.262 0.021 0.089-0.016 0.169-0.060 0.227-0.099h0c0.060 0 0.229-0.002 0.447-0.020-0.157 0.097-0.425 0.23-0.728 0.243zM30.621 6.146c-0.081 0.102-0.265 0.269-0.599 0.419-0.456 0.205-1.13 0.246-1.411 0.254-0-0.004-0.001-0.009-0.002-0.013-0.007-0.022-0.027-0.037-0.050-0.040-0.005-0.001-0.307-0.036-0.642-0.137 0.201 0.019 0.391 0.028 0.568 0.028 0.501 0 0.911-0.070 1.244-0.175 0.002-0 0.003 0 0.005-0 0.183-0.048 0.621-0.227 0.855-0.323 0.011-0.004 0.022-0.009 0.032-0.013zM30.304 6.089c-0.387 0.24-1.063 0.496-2.131 0.439 0.021-0.010 0.034-0.031 0.034-0.054-0-0.025-0.017-0.047-0.040-0.055-0.048-0.016-0.105-0.038-0.16-0.061 0.164 0.005 0.376-0.010 0.579-0.088 0.023-0.009 0.038-0.031 0.038-0.056s-0.016-0.047-0.039-0.055l-0.078-0.028c0.197-0.008 0.439-0.034 0.608-0.105 0.027-0.011 0.041-0.040 0.035-0.068-0-0.002-0.001-0.003-0.002-0.004 0.357-0.089 1.013-0.295 1.691-0.72-0.146 0.242-0.57 0.694-1.77 0.977-0.031 0.007-0.051 0.038-0.045 0.069s0.036 0.052 0.067 0.048c0.009-0.001 0.825-0.13 1.667-0.612-0.1 0.111-0.247 0.246-0.454 0.375z"/></svg>