<svg xmlns="http://www.w3.org/2000/svg" width="32" height="32" version="1.1" viewBox="0 0 32 32"><title>albania</title><path fill="#ff4b55" d="M0 0h32v32h-32v-32z"/><path fill="#464655" d="M25.21 19.987c-0.46-0.29-0.737 0.171-0.737 0.171l-1.342 0.158 0.671-0.566c0.487 0.040 0.553-0.105 0.684-0.303s0.684-0.105 0.684-0.105c-0.079-0.605-0.842-0.263-0.842-0.263-0.618-0.066-0.724 0.434-0.724 0.434l-0.96 0.737-2.114-0.626c0.219-0.242 0.391-0.48 0.416-0.624 0.042-0.242-1.561-0.649-2.053-1.158s-0.667-1.316-0.439-1.526c0.228-0.21 0.421 0.386 0.667 0.877s0.702 0.877 1 0.632c0.298-0.246-0.316-0.614-0.596-1.14s0.21-0.719 0.439-0.667c0.228 0.053 0.368 1.14 0.912 1.702s1.035 0.456 1.088 0.105c0.053-0.351-0.898-0.783-1.091-1.081s-0.243-0.883 0.073-0.901c0.316-0.018 1.474 1.708 2.456 2.368 1.070 0.719 1.93-0.123 1.79-0.474s-0.79-0.21-1.544-0.404c-0.754-0.193-1.526-1.21-1.754-1.772s-0.040-0.561 0.092-0.509c0.132 0.053 0.632 0.79 1.592 1.355s1.632 0.026 1.71-0.105 0.382-0.722-0.605-0.583c-1.123 0.158-1.763-0.509-2.224-0.864s-0.645-0.842-0.434-1.040 0.904 0.693 1.956 0.974c0.967 0.258 1.36-0.158 1.333-0.54s-0.25-0.224-1.342-0.329-1.855-1.132-1.895-1.197c-0.040-0.066-0.026-0.434 0.526-0.079s1.54 0.566 2.118 0.54 0.697-0.803 0.421-0.934c-0.276-0.132-0.342 0.066-0.974 0.197s-1.816-0.513-2.105-0.816c-0.29-0.303 0.026-0.5 0.171-0.474s1.092 0.579 1.934 0.553 1.197-0.803 1.171-1.040c-0.026-0.237-0.263-0.434-0.618-0.197s-0.829 0.513-1.618 0.382c-0.789-0.132-1.158-0.658-1.053-0.855s0.868 0.145 2.079 0.013 1.263-1.197 1.145-1.408-0.408-0.145-0.816 0.237c-0.408 0.382-1.197 0.46-1.816 0.46s-0.632-0.303-0.54-0.513c0.092-0.21 0.75-0.158 1.671-0.447s1.447-1.026 1.592-1.487-0.21-0.816-0.355-0.816c-0.145 0-0.053-0.21-0.684 0.697s-2.29 1.263-2.29 1.263c-0.118-0.224-0.303-0.303-0.303-0.303-1.118 0.224-2.468 1.189-2.468 1.189s0.238 0.763-0.059 1.357c-0.383 0.765-1.694 0.287-1.337-0.921 0.297-1.006 1.446-1.615 2.417-1.724s1.020-0.476 1.020-0.476-1.020 0.332-1.038-0.124c0.21 0.043 0.521 0.061 1.048 0.015 0.783-0.069 1.219-0.624 0.872-0.743s-0.198 0.238-0.793 0.515c-0.424 0.198-0.869 0.109-1.092 0.041 0.206-0.449 1.072-0.22 1.072-0.22 0.010-0.783-1.029-0.503-1.029-0.503-0.456-0.982-3.123 0.158-3.123 0.158l0.632 0.509c-1.544 0.86-1.86 2.491-1.86 2.491s-0.316-1.632-1.86-2.491l0.632-0.509c0 0-2.667-1.14-3.123-0.158 0 0-1.039-0.28-1.029 0.503 0 0 0.866-0.23 1.072 0.22-0.223 0.068-0.668 0.157-1.092-0.041-0.595-0.277-0.446-0.634-0.793-0.515s0.089 0.674 0.872 0.743c0.527 0.047 0.837 0.028 1.048-0.015-0.018 0.456-1.038 0.124-1.038 0.124s0.050 0.367 1.020 0.476c0.971 0.109 2.12 0.717 2.417 1.724 0.357 1.209-0.955 1.687-1.338 0.921-0.297-0.595-0.059-1.357-0.059-1.357s-1.349-0.966-2.467-1.189c0 0-0.184 0.079-0.303 0.303 0 0-1.658-0.355-2.29-1.263s-0.54-0.697-0.684-0.697-0.5 0.355-0.355 0.816 0.671 1.197 1.592 1.487c0.921 0.29 1.579 0.237 1.671 0.447s0.079 0.513-0.54 0.513-1.408-0.079-1.816-0.46c-0.408-0.382-0.697-0.447-0.816-0.237s-0.066 1.276 1.145 1.408c1.21 0.132 1.974-0.21 2.079-0.013s-0.263 0.724-1.053 0.855c-0.789 0.132-1.263-0.145-1.618-0.382s-0.592-0.040-0.618 0.197c-0.026 0.237 0.329 1.013 1.171 1.040s1.79-0.526 1.934-0.553 0.46 0.171 0.171 0.474c-0.29 0.303-1.474 0.947-2.105 0.816s-0.697-0.329-0.974-0.197c-0.276 0.132-0.158 0.908 0.421 0.934s1.566-0.184 2.118-0.54c0.553-0.355 0.566 0.013 0.526 0.079s-0.803 1.092-1.895 1.197-1.316-0.053-1.342 0.329 0.366 0.797 1.333 0.54c1.053-0.281 1.746-1.171 1.956-0.974s0.026 0.684-0.434 1.039-1.101 1.022-2.224 0.864c-0.988-0.139-0.684 0.452-0.605 0.583s0.75 0.671 1.71 0.105c0.96-0.566 1.46-1.303 1.592-1.355s0.32-0.053 0.092 0.509-1 1.579-1.754 1.772c-0.754 0.193-1.404 0.053-1.544 0.404s0.719 1.193 1.79 0.474c0.982-0.66 2.14-2.386 2.456-2.368s0.266 0.603 0.073 0.901c-0.193 0.298-1.143 0.731-1.091 1.081s0.544 0.456 1.088-0.105 0.684-1.649 0.912-1.702c0.228-0.053 0.719 0.14 0.439 0.667s-0.895 0.895-0.596 1.14c0.298 0.246 0.754-0.14 1-0.632s0.439-1.088 0.667-0.877c0.228 0.21 0.053 1.018-0.439 1.526s-2.095 0.916-2.053 1.158c0.025 0.144 0.197 0.382 0.416 0.624l-2.114 0.626-0.96-0.737c0 0-0.105-0.5-0.724-0.434 0 0-0.763-0.342-0.842 0.263 0 0 0.553-0.092 0.684 0.105s0.197 0.342 0.684 0.303l0.671 0.566-1.342-0.158c0 0-0.276-0.46-0.737-0.171 0 0-0.579-0.184-0.724 0.368 0 0 0.5-0.092 0.632-0.026 0 0 0.197 0.447 0.829 0.184l1.329 0.066-0.75 0.368c0 0-0.947-0.303-0.908 0.487 0 0-0.276 0.316-0.026 0.632 0 0 0.053-0.342 0.303-0.487 0 0 0.487 0.197 0.803-0.382l0.96-0.579 0.947 0.46c0 0-0.026 0.513 0.671 0.303 0 0 0.237 0.158 0.303 0.368 0 0 0.303-0.329-0.184-0.71 0 0-0.118-0.447-0.697-0.276l-0.54-0.276 1.996-0.592c0.346 0.329 0.719 0.599 0.849 0.554 0.258-0.089 0.456-0.357 0.634-0.733s0.981-1.684 1.377-1.674c0.396 0.010 0.575 0.327 0.476 0.892s-0.871 1.646-1.371 1.87-0.579 0.329-1.040 0.29c-0.46-0.040-0.618 0.158-0.513 0.421s0.623 0.43 1.132 0.237c0.553-0.21 0.763-0.5 0.974-0.329s-0.224 0.79-0.816 0.974c-0.592 0.184-1.040 0.066-0.947 0.434s0.724 0.395 1.132 0.158c0.408-0.237 0.868-0.895 0.987-0.684s0.040 0.75-0.355 1.040-0.844 0.119-0.934 0.382c-0.132 0.382 0.329 0.632 0.684 0.487s0.763-0.592 0.947-0.987 0.526-0.053 0.421 0.316c-0.105 0.368-0.018 0.671-0.772 1.25l1.404 2.158 1.404-2.158c-0.754-0.579-0.667-0.882-0.772-1.25s0.237-0.71 0.421-0.316 0.592 0.842 0.947 0.987c0.355 0.145 0.816-0.105 0.684-0.487-0.090-0.262-0.539-0.092-0.934-0.382s-0.474-0.829-0.355-1.040c0.118-0.21 0.579 0.447 0.987 0.684s1.039 0.21 1.132-0.158c0.092-0.368-0.355-0.25-0.947-0.434s-1.026-0.803-0.816-0.974 0.421 0.118 0.974 0.329c0.508 0.194 1.026 0.026 1.132-0.237s-0.053-0.46-0.513-0.421c-0.46 0.040-0.54-0.066-1.040-0.29s-1.272-1.305-1.371-1.87c-0.099-0.565 0.079-0.882 0.476-0.892s1.199 1.298 1.377 1.674c0.178 0.377 0.376 0.644 0.634 0.733 0.131 0.045 0.504-0.225 0.849-0.554l1.996 0.592-0.539 0.276c-0.579-0.171-0.697 0.276-0.697 0.276-0.487 0.382-0.184 0.71-0.184 0.71 0.066-0.21 0.303-0.368 0.303-0.368 0.697 0.21 0.671-0.303 0.671-0.303l0.947-0.46 0.96 0.579c0.316 0.579 0.803 0.382 0.803 0.382 0.25 0.145 0.303 0.487 0.303 0.487 0.25-0.316-0.026-0.632-0.026-0.632 0.040-0.79-0.908-0.487-0.908-0.487l-0.75-0.368 1.329-0.066c0.632 0.263 0.829-0.184 0.829-0.184 0.132-0.066 0.632 0.026 0.632 0.026-0.145-0.553-0.724-0.368-0.724-0.368z"/></svg>