<!-- Generated by IcoMoon.io -->
<svg version="1.1" xmlns="http://www.w3.org/2000/svg" width="32" height="32" viewBox="0 0 32 32">
<title>antigua-and-barbuda</title>
<path fill="#464655" d="M0.003 0.002h31.997v31.997h-31.997v-31.997z"></path>
<path fill="#ffe15a" d="M16.002 3.906l0.846 4.419 2.473-3.759-0.91 4.406 3.723-2.527-2.527 3.723 4.406-0.91-3.759 2.473 4.419 0.846-4.419 0.846 3.759 2.473-4.406-0.91 2.527 3.723-3.723-2.527 0.91 4.406-2.473-3.759-0.846 4.419-0.846-4.419-2.473 3.759 0.91-4.406-3.723 2.527 2.527-3.723-4.406 0.91 3.759-2.473-4.419-0.846 4.419-0.846-3.759-2.473 4.406 0.91-2.527-3.723 3.723 2.527-0.91-4.406 2.473 3.759z"></path>
<path fill="#ff4b55" d="M0 31.998h16.002l-16.002-31.997z"></path>
<path fill="#ff4b55" d="M16.002 31.998h15.995l0.003-31.997z"></path>
<path fill="#4173cd" d="M9.686 19.368h12.63l3.368-6.736h-19.366z"></path>
<path fill="#f5f5f5" d="M9.686 19.368l6.315 12.63 6.315-12.63z"></path>
</svg>
