<svg xmlns="http://www.w3.org/2000/svg" width="32" height="32" version="1.1" viewBox="0 0 32 32"><title>aruba</title><path fill="#4173cd" d="M0 0h32v32h-32v-32z"/><path fill="#ffe15a" d="M0 21.895h32v1.684h-32v-1.684z"/><path fill="#ffe15a" d="M0 25.263h32v1.684h-32v-1.684z"/><path fill="#ff4b55" d="M6.223 8.363l-3.134-1.070 3.134-1.070 1.070-3.133 1.070 3.133 3.134 1.070-3.134 1.070-1.070 3.133z"/><path fill="#f5f5f5" d="M7.293 3.653l0.927 2.713 2.713 0.927-2.713 0.927-0.927 2.713-0.927-2.713-2.713-0.927 2.713-0.927 0.927-2.713zM7.293 2.526l-1.213 3.553-3.553 1.213 3.553 1.213 1.213 3.553 1.213-3.553 3.553-1.213-3.553-1.213-1.213-3.553z"/></svg>