<!-- Generated by IcoMoon.io -->
<svg version="1.1" xmlns="http://www.w3.org/2000/svg" width="32" height="32" viewBox="0 0 32 32">
<title>balearic-islands</title>
<path fill="#ffe15a" d="M0 0h32v3.556h-32v-3.556z"></path>
<path fill="#ff4b55" d="M0 3.556h32v3.556h-32v-3.556z"></path>
<path fill="#ffe15a" d="M0 7.111h32v3.556h-32v-3.556z"></path>
<path fill="#ff4b55" d="M0 10.667h32v3.556h-32v-3.556z"></path>
<path fill="#ffe15a" d="M0 14.223h32v3.556h-32v-3.556z"></path>
<path fill="#ffe15a" d="M0 28.444h32v3.556h-32v-3.556z"></path>
<path fill="#ff4b55" d="M0 17.777h32v3.556h-32v-3.556z"></path>
<path fill="#ffe15a" d="M0 21.333h32v3.556h-32v-3.556z"></path>
<path fill="#ff4b55" d="M0 24.889h32v3.556h-32v-3.556z"></path>
<path fill="#64466e" d="M21.46 16h-21.46v-16h22.109v15.352c0 0.358-0.29 0.648-0.648 0.648z"></path>
<path fill="#f5f5f5" d="M19.812 7.236h-1.686v-1.927h0.241v-0.482h-2.408v0.482h0.241v1.927h-0.963v-1.927h0.241v-0.482h-2.408v0.482h0.241v1.927h-1.445v-2.408h0.241v-0.482h-2.408v0.482h0.241v2.408h-1.445v-1.927h0.241v-0.482h-2.408v0.482h0.241v1.927h-0.963v-1.927h0.241v-0.482h-2.408v0.482h0.241v1.927h-1.927v0.482h0.241v4.335h3.372v-1.445c0-0.266 0.216-0.482 0.482-0.482s0.482 0.216 0.482 0.482v1.445h2.408v-1.445c0-0.266 0.216-0.482 0.482-0.482s0.482 0.216 0.482 0.482v1.445h0.482v-1.686c0-0.399 0.323-0.723 0.723-0.723s0.723 0.323 0.723 0.723v1.686h0.482v-1.445c0-0.266 0.216-0.482 0.482-0.482s0.482 0.216 0.482 0.482v1.445h2.408v-1.445c0-0.266 0.216-0.482 0.482-0.482s0.482 0.216 0.482 0.482v1.445h3.372v-4.335h0.241v-0.482l-0.24 0zM5.122 9.163h-0.963v-1.445c0-0.266 0.216-0.482 0.482-0.482s0.482 0.216 0.482 0.482l0 1.445zM8.011 9.163h-0.963v-1.445c0-0.266 0.216-0.482 0.482-0.482s0.482 0.216 0.482 0.482v1.445h0zM11.383 7.718h-0.963v-0.963c0-0.266 0.216-0.482 0.482-0.482s0.482 0.216 0.482 0.482v0.963h0zM14.755 9.163h-0.963v-1.445c0-0.266 0.216-0.482 0.482-0.482s0.482 0.216 0.482 0.482v1.445h0zM17.644 9.163h-0.963v-1.445c0-0.266 0.216-0.482 0.482-0.482s0.482 0.216 0.482 0.482v1.445h0z"></path>
</svg>
