<!-- Generated by IcoMoon.io -->
<svg version="1.1" xmlns="http://www.w3.org/2000/svg" width="32" height="32" viewBox="0 0 32 32">
<title>barbados</title>
<path fill="#41479b" d="M0 0h10.667v32h-10.667v-32z"></path>
<path fill="#ffe15a" d="M10.667 0h10.667v32h-10.667v-32z"></path>
<path fill="#41479b" d="M21.333 0h10.667v32h-10.667v-32z"></path>
<path fill="#464655" d="M20.414 12.954c0 0-1.535 0-2.687 1.151h0.768c0 0-0.744 1.343-1.127 3.646l-0.792-0.129v-3.528l0.768 0.251-1.343-3.31-1.343 3.31 0.768-0.256v3.533l-0.792 0.129c-0.384-2.303-1.127-3.646-1.127-3.646h0.768c-1.151-1.151-2.687-1.151-2.687-1.151 1.919 2.303 1.919 6.141 1.919 6.141l1.919-0.32v2.623h1.151v-2.623l1.919 0.32c-0-0-0-3.838 1.919-6.141z"></path>
</svg>
