<!-- Generated by IcoMoon.io -->
<svg version="1.1" xmlns="http://www.w3.org/2000/svg" width="32" height="32" viewBox="0 0 32 32">
<title>belarus</title>
<path fill="#73af00" d="M0 23.579h32v8.421h-32v-8.421z"></path>
<path fill="#ff4b55" d="M0 0h32v23.579h-32v-23.579z"></path>
<path fill="#f5f5f5" d="M0 0h6.737v32h-6.737v-32z"></path>
<path fill="#ff4b55" d="M0.843 30.601h0.298v-0.835h-0.298v0.835zM3.22 30.601h0.298v-0.835h-0.298v0.835zM5.598 30.601h0.296v-0.835h-0.296v0.835zM2.033 28.363h0.295v-0.696h-0.295v0.696zM4.411 28.363h0.296v-0.696h-0.296v0.696zM0.843 26.549h0.298v-0.835h-0.298v0.835zM3.22 26.549h0.298v-0.835h-0.298v0.835zM5.598 26.549h0.296v-0.835h-0.296v0.835zM1.44 27.668h0.295v-0.702h0.298v-0.696h0.295v0.696h0.3v0.702h0.295v0.696h-0.295v0.702h-0.3v0.702h-0.295v-0.702h-0.298v-0.702h-0.295v-0.695h0zM3.817 27.668h0.298v-0.702h0.296v-0.696h0.296v0.696h0.296v0.702h0.298v0.696h-0.298v0.702h-0.296v0.702h-0.296v-0.702h-0.296v-0.702h-0.298c0 0 0-0.695 0-0.695zM4.411 24.873v0.696h-0.299v0.702h-0.295v0.696h-0.3v0.702h-0.298v-0.702h-0.298v-0.696h-0.295v-0.702h-0.3v-0.696h-0.295v0.696h-0.298v0.702h-0.295v0.696h-0.299v0.702h-0.298v0.696h0.298v0.702h0.3v0.702h0.295v0.696h0.298v0.696h0.298v-0.696h0.296v-0.696h0.295v-0.702h0.298v-0.702h0.298v0.702h0.3v0.702h0.298v0.696h0.296v0.696h0.296v-0.696h0.296v-0.696h0.298v-0.702h0.298v-0.702h0.295v-0.696h-0.296v-0.702h-0.296v-0.696h-0.298v-0.702h-0.296v-0.696l-0.296 0zM5.148 24.178h0.148v-0.278h0.15v0.278h0.15v0.278h-0.15v0.284h-0.15v-0.284h-0.148v-0.278zM5.148 23.204v0.411h-0.147v0.423h-0.15v0.556h0.15v0.417h0.147v0.417h0.448v-0.417h0.148v-0.417h0.147v-0.556h-0.147v-0.423h-0.148v-0.411h-0.448zM1.14 24.172h0.15v-0.278h0.15v0.278h0.145v0.284h-0.145v0.278h-0.15v-0.278h-0.15c0 0 0-0.284 0-0.284zM1.14 23.198v0.417h-0.148v0.417h-0.15v0.563h0.15v0.417h0.148v0.417h0.445v-0.417h0.15v-0.417h0.145v-0.563h-0.145v-0.417h-0.15v-0.417h-0.445zM2.775 24.172h0.147v-0.278h0.151v0.278h0.147v0.284h-0.147v0.278h-0.151v-0.278h-0.147v-0.284zM3.518 24.172h0.15v-0.278h0.15v0.278h0.147v0.284h-0.147v0.278h-0.15v-0.278h-0.15v-0.284zM3.518 23.198v0.417h-0.298v-0.417h-0.445v0.417h-0.148v0.417h-0.15v0.563h0.15v0.417h0.148v0.417h0.445v-0.417h0.298v0.417h0.446v-0.417h0.151v-0.417h0.145v-0.563h-0.145v-0.417h-0.151v-0.417h-0.446zM0.843 22.913h0.298v-0.835h-0.298v0.835zM3.22 22.913h0.298v-0.835h-0.298v0.835zM5.598 22.913h0.296v-0.835h-0.296v0.835zM0.843 19.423h0.298v-0.556h-0.298v0.556zM5.598 19.423h0.296v-0.556h-0.296v0.556zM3.22 17.47h0.298v-0.696h-0.298v0.696zM0.843 15.583v0.841h0.298v-0.841h-0.298zM2.477 15.583v0.841h0.298v-0.841h-0.298zM3.964 15.583v0.841h0.296v-0.841h-0.296zM5.598 15.583v0.841h0.296v-0.841h-0.296zM3.667 15.093v0.278h-0.15v0.212h-0.298v-0.212h-0.147v-0.278h-0.298v0.417h0.147v0.212h0.151v0.556h-0.151v0.212h-0.147v0.417h0.298v-0.278h0.147v-0.206h0.298v0.206h0.15v0.278h0.296v-0.417h-0.147v-0.212h-0.15v-0.556h0.15v-0.212h0.147v-0.417h-0.296zM3.22 15.232h0.298v-0.696h-0.298v0.696zM0.843 13.139h0.298v-0.556h-0.298v0.556zM5.598 13.139h0.296v-0.556h-0.296v0.556zM0.843 9.927h0.298v-0.841h-0.298v0.841zM3.22 9.927h0.298v-0.841h-0.298v0.841zM5.598 9.927h0.296v-0.841h-0.296v0.841zM2.033 16.012v-0.29h0.295v-0.484h0.3v-0.563h0.446v-0.659h0.147v-0.321h0.298v0.315h0.15v0.665h0.448v0.563h0.296v0.484h0.296v0.556h-0.296v0.496h-0.296v0.556h-0.447v0.659h-0.15v0.314h-0.298v-0.314h-0.147v-0.659h-0.446v-0.556h-0.3v-0.496h-0.295l0-0.266zM4.411 8.246v0.702h-0.299v0.696h-0.295v0.702h-0.3v0.696h-0.298v-0.696h-0.298v-0.702h-0.295v-0.696h-0.3v-0.702h-0.295v0.702h-0.298v0.696h-0.298v0.702h-0.296v0.696h-0.298v0.702h0.298v0.702h0.296v0.696h0.298v0.696h0.298v-0.696h0.295v-0.696h0.3v-0.702h-0.3v-0.841h0.3v0.563h0.295v1.119h0.151v0.69l-0.446 0.006v0.556h-0.3v0.417h-0.295v0.702h-0.298v-0.702h-0.298v-0.417h-0.296v-0.417h-0.298v1.258h0.298v0.563h0.296v0.484h0.298v0.556h-0.298v0.496h-0.296v0.556h-0.298v1.258h0.298v-0.424h0.296v-0.417h0.298v-0.695h0.298v0.696h0.295v0.417h0.3v0.563l0.446 0.006v0.689h-0.151v1.119h-0.295v0.563h-0.3v-0.847h0.3v-0.696h-0.3v-0.696h-0.295v-0.702h-0.298v0.702h-0.298v0.696h-0.296v0.696h-0.298v0.702h0.298v0.696h0.299v0.702h0.295v0.702h0.298v0.696h0.295v-0.696h0.3v-0.702h0.295v-0.702h0.298v-0.696h0.298v0.696h0.3v0.702h0.298v0.702h0.296v0.696h0.296v-0.696h0.296v-0.702h0.298v-0.702h0.296v-0.696h0.296v-0.702h-0.296v-0.696h-0.296v-0.696h-0.298v-0.702h-0.296v0.702h-0.296v0.696h-0.299v0.696h0.299v0.847h-0.299v-0.563h-0.295v-1.119h-0.15v-0.696h0.447v-0.563h0.296v-0.417h0.296v-0.695h0.296v0.696h0.298v0.417h0.298v0.424h0.295v-1.258h-0.295v-0.556h-0.298v-0.496h-0.298v-0.557h0.298v-0.484h0.298v-0.563h0.295v-1.258h-0.295v0.417h-0.298v0.417h-0.298v0.702h-0.296v-0.702h-0.296v-0.417h-0.296v-0.556h-0.447v-0.696h0.15v-1.119h0.295v-0.563h0.299v0.841h-0.299v0.702h0.299v0.696h0.296v0.696h0.296v-0.696h0.298v-0.696h0.296v-0.702h0.296v-0.702h-0.296v-0.696h-0.296v-0.702h-0.298v-0.696h-0.296v-0.702l-0.296 0zM1.14 7.55h0.147v-0.278h0.153v0.278h0.145v0.278h-0.145v0.284h-0.153v-0.284h-0.147c0 0 0-0.278 0-0.278zM1.14 6.988h-0.148v0.423h-0.15v0.556h0.15v0.423h0.148v0.417h0.445v-0.417h0.15v-0.423h0.145v-0.556h-0.145v-0.423h-0.15v-0.411h-0.445c0 0 0 0.411 0 0.411zM2.775 7.55h0.147v-0.278h0.151v0.278h0.147v0.278h-0.147v0.284h-0.151v-0.284h-0.147v-0.278zM3.518 7.55h0.15v-0.278h0.15v0.278h0.147v0.278h-0.147v0.284h-0.15v-0.284h-0.15v-0.278zM2.775 6.988h-0.148v0.423h-0.15v0.556h0.15v0.423h0.148v0.417h0.445v-0.417h0.298v0.417h0.446v-0.417h0.151v-0.423h0.145v-0.556h-0.145v-0.423h-0.151v-0.411h-0.446v0.411h-0.298v-0.411h-0.445v0.411zM5.148 7.544h0.148v-0.272h0.15v0.272h0.15v0.284h-0.15v0.278h-0.15v-0.278h-0.148v-0.284zM5.148 6.57v0.417h-0.147v0.423h-0.15v0.556h0.15v0.417h0.147v0.417h0.448v-0.417h0.148v-0.417h0.147v-0.556h-0.147v-0.423h-0.148v-0.417h-0.448zM0.843 6.292h0.298v-0.835h-0.298v0.835zM3.22 6.292h0.298v-0.835h-0.298v0.835zM5.598 6.292h0.296v-0.835h-0.296v0.835zM2.033 4.338h0.295v-0.702h-0.295v0.702zM4.411 4.338h0.296v-0.702h-0.296v0.702zM0.843 2.239h0.298v-0.835h-0.298v0.835zM3.22 2.239h0.298v-0.835h-0.298v0.835zM5.598 2.239h0.296v-0.835h-0.296v0.835zM1.44 3.637h0.295v-0.696h0.298v-0.702h0.295v0.702h0.3v0.696h0.295v0.702h-0.295v0.696h-0.3v0.702h-0.295v-0.702h-0.298v-0.696h-0.295v-0.702h0zM3.817 3.637h0.298v-0.696h0.296v-0.702h0.296v0.702h0.296v0.696h0.298v0.702h-0.298v0.696h-0.296v0.702h-0.296v-0.702h-0.296v-0.696h-0.298c0 0 0-0.702 0-0.702zM4.411 0.842v0.702h-0.296v0.696h-0.298v0.702h-0.3v0.696h-0.298v-0.696h-0.298v-0.702h-0.295v-0.696h-0.296v-0.702h-0.298v0.702h-0.298v0.696h-0.295v0.702h-0.299v0.696h-0.298v0.702h0.298v0.696h0.3v0.702h0.295v0.702h0.298v0.696h0.295v-0.696h0.3v-0.702h0.295v-0.702h0.298v-0.696h0.298v0.696h0.3v0.702h0.295v0.702h0.299v0.696h0.296v-0.696h0.296v-0.702h0.298v-0.702h0.296v-0.696h0.296v-0.702h-0.295v-0.696h-0.298v-0.702h-0.298v-0.696h-0.296v-0.702h-0.296z"></path>
</svg>
