<svg xmlns="http://www.w3.org/2000/svg" width="32" height="32" version="1.1" viewBox="0 0 32 32"><title>bonaire</title><path fill="#41479b" d="M0 0h32v32h-32v-32z"/><path fill="#f5f5f5" d="M0 32l32-32h-32z"/><path fill="#ffe15a" d="M14.049 0h-14.049v14.049z"/><path fill="#464655" d="M12.28 13.952c-0.25-1.671-1.568-2.989-3.239-3.239l-0.575-1.151-0.575 1.151c-1.671 0.25-2.989 1.568-3.239 3.239l-1.151 0.575 1.151 0.575c0.25 1.671 1.568 2.989 3.239 3.239l0.575 1.151 0.575-1.151c1.671-0.25 2.989-1.568 3.239-3.239l1.151-0.575-1.151-0.575zM8.466 17.838c-1.828 0-3.31-1.482-3.31-3.31s1.482-3.31 3.31-3.31 3.31 1.482 3.31 3.31-1.482 3.31-3.31 3.31z"/><path fill="#ff4b55" d="M8.466 12.406l0.594 1.093 1.243-0.032-0.649 1.061 0.649 1.061-1.243-0.032-0.594 1.093-0.594-1.093-1.243 0.032 0.649-1.061-0.649-1.061 1.243 0.032z"/></svg>