<!-- Generated by IcoMoon.io -->
<svg version="1.1" xmlns="http://www.w3.org/2000/svg" width="32" height="32" viewBox="0 0 32 32">
<title>brazil</title>
<path fill="#73af00" d="M0 0h32v32h-32v-32z"></path>
<path fill="#ffe15a" d="M16 2.937l13.062 13.062-13.062 13.062-13.062-13.062 13.062-13.062z"></path>
<path fill="#41479b" d="M21.414 16c0 2.99-2.424 5.414-5.414 5.414s-5.414-2.424-5.414-5.414c0-2.99 2.424-5.414 5.414-5.414s5.414 2.424 5.414 5.414z"></path>
<path fill="#f5f5f5" d="M11.354 13.23c-0.255 0.428-0.453 0.892-0.583 1.386 3.001-0.226 7.441 0.614 10.267 3.356 0.184-0.471 0.306-0.972 0.352-1.497-2.918-2.456-6.952-3.329-10.035-3.245z"></path>
<path fill="#f5f5f5" d="M16.224 17.847l0.144 0.432 0.456 0.004c0.059 0 0.083 0.076 0.036 0.111l-0.366 0.271 0.137 0.434c0.018 0.056-0.046 0.103-0.094 0.068l-0.371-0.265-0.371 0.265c-0.048 0.034-0.112-0.012-0.094-0.068l0.137-0.434-0.367-0.271c-0.047-0.035-0.023-0.11 0.036-0.111l0.456-0.003 0.144-0.432c0.019-0.056 0.098-0.056 0.116-0z"></path>
<path fill="#f5f5f5" d="M17.995 18.965l0.062 0.186 0.196 0.002c0.025 0 0.036 0.033 0.015 0.048l-0.158 0.116 0.059 0.187c0.008 0.024-0.020 0.044-0.041 0.029l-0.16-0.114-0.16 0.114c-0.021 0.015-0.048-0.005-0.041-0.029l0.059-0.187-0.158-0.116c-0.020-0.015-0.010-0.047 0.015-0.048l0.196-0.002 0.062-0.186c0.008-0.024 0.042-0.024 0.050 0z"></path>
<path fill="#f5f5f5" d="M15.459 17.026l0.062 0.186 0.196 0.002c0.025 0 0.036 0.033 0.015 0.048l-0.158 0.116 0.059 0.187c0.008 0.024-0.020 0.044-0.041 0.029l-0.16-0.114-0.16 0.114c-0.021 0.015-0.048-0.005-0.041-0.029l0.059-0.187-0.158-0.116c-0.020-0.015-0.010-0.047 0.015-0.048l0.196-0.002 0.062-0.186c0.008-0.024 0.042-0.024 0.050 0z"></path>
<path fill="#f5f5f5" d="M12.024 16.801l0.062 0.186 0.196 0.002c0.025 0 0.036 0.033 0.015 0.048l-0.158 0.116 0.059 0.187c0.008 0.024-0.020 0.044-0.041 0.029l-0.16-0.114-0.16 0.114c-0.021 0.015-0.048-0.005-0.041-0.029l0.059-0.187-0.158-0.116c-0.020-0.015-0.010-0.047 0.015-0.048l0.196-0.002 0.062-0.186c0.008-0.024 0.042-0.024 0.050 0z"></path>
<path fill="#f5f5f5" d="M14.897 18.901l0.062 0.186 0.196 0.002c0.025 0 0.036 0.033 0.015 0.048l-0.158 0.116 0.059 0.187c0.008 0.024-0.020 0.044-0.041 0.029l-0.16-0.114-0.16 0.114c-0.021 0.015-0.048-0.005-0.041-0.029l0.059-0.187-0.158-0.116c-0.020-0.015-0.010-0.047 0.015-0.048l0.196-0.002 0.062-0.186c0.008-0.024 0.042-0.024 0.050 0z"></path>
<path fill="#f5f5f5" d="M13.316 16.671l0.051 0.152 0.16 0.001c0.021 0 0.029 0.027 0.013 0.039l-0.129 0.095 0.048 0.153c0.006 0.020-0.016 0.036-0.033 0.024l-0.13-0.093-0.13 0.093c-0.017 0.012-0.039-0.004-0.033-0.024l0.048-0.153-0.129-0.095c-0.017-0.012-0.008-0.039 0.013-0.039l0.16-0.001 0.051-0.152c0.006-0.020 0.034-0.020 0.041 0z"></path>
<path fill="#f5f5f5" d="M18.133 13.531l0.063 0.19 0.201 0.002c0.026 0 0.037 0.033 0.016 0.049l-0.161 0.119 0.061 0.191c0.008 0.025-0.020 0.045-0.041 0.030l-0.163-0.117-0.163 0.117c-0.021 0.015-0.049-0.005-0.041-0.030l0.061-0.191-0.161-0.119c-0.021-0.015-0.010-0.049 0.016-0.049l0.201-0.002 0.063-0.19c0.008-0.025 0.043-0.025 0.051 0z"></path>
<path fill="#f5f5f5" d="M12.245 15.741l0.051 0.152 0.16 0.001c0.021 0 0.029 0.027 0.013 0.039l-0.129 0.095 0.048 0.153c0.006 0.020-0.016 0.036-0.033 0.024l-0.13-0.093-0.13 0.093c-0.017 0.012-0.039-0.004-0.033-0.024l0.048-0.153-0.129-0.095c-0.017-0.012-0.008-0.039 0.013-0.039l0.16-0.001 0.051-0.152c0.006-0.020 0.034-0.020 0.041 0z"></path>
<path fill="#f5f5f5" d="M13.019 17.884l0.077 0.23 0.243 0.002c0.031 0 0.044 0.040 0.019 0.059l-0.195 0.144 0.073 0.232c0.009 0.030-0.025 0.055-0.050 0.037l-0.198-0.141-0.198 0.141c-0.026 0.018-0.060-0.006-0.050-0.037l0.073-0.232-0.195-0.144c-0.025-0.019-0.012-0.059 0.019-0.059l0.243-0.002 0.077-0.23c0.010-0.030 0.052-0.030 0.062 0z"></path>
<path fill="#f5f5f5" d="M18.982 19.014l0.048 0.145 0.153 0.001c0.020 0 0.028 0.025 0.012 0.037l-0.123 0.091 0.046 0.146c0.006 0.019-0.015 0.034-0.032 0.023l-0.124-0.089-0.124 0.089c-0.016 0.012-0.038-0.004-0.032-0.023l0.046-0.146-0.123-0.091c-0.016-0.012-0.008-0.037 0.012-0.037l0.153-0.001 0.048-0.145c0.006-0.019 0.033-0.019 0.039 0z"></path>
<path fill="#f5f5f5" d="M19.517 17.908l0.062 0.186 0.196 0.002c0.025 0 0.036 0.033 0.015 0.048l-0.158 0.116 0.059 0.187c0.008 0.024-0.020 0.044-0.041 0.029l-0.16-0.114-0.16 0.114c-0.021 0.015-0.048-0.005-0.041-0.029l0.059-0.187-0.158-0.116c-0.020-0.015-0.010-0.047 0.015-0.048l0.196-0.002 0.062-0.186c0.008-0.024 0.042-0.024 0.050 0z"></path>
</svg>
