<!-- Generated by IcoMoon.io -->
<svg version="1.1" xmlns="http://www.w3.org/2000/svg" width="32" height="32" viewBox="0 0 32 32">
<title>british-indian-ocean-territory</title>
<path fill="#f5f5f5" d="M31.5 32h-31c-0.276 0-0.5-0.224-0.5-0.5v-31c0-0.276 0.224-0.5 0.5-0.5h31c0.276 0 0.5 0.224 0.5 0.5v31c0 0.276-0.224 0.5-0.5 0.5z"></path>
<path fill="#41479b" d="M32 25.263c-1.602 0-1.602-0.842-3.204-0.842s-1.602 0.842-3.204 0.842c-1.601 0-1.601-0.842-3.201-0.842-1.599 0-1.599 0.842-3.199 0.842s-1.6-0.842-3.2-0.842c-1.6 0-1.6 0.842-3.199 0.842s-1.6-0.842-3.199-0.842c-1.6 0-1.6 0.842-3.199 0.842s-1.599-0.842-3.198-0.842c-1.598 0-1.598 0.842-3.196 0.842v-2.526c1.598 0 1.598-0.842 3.196-0.842s1.599 0.842 3.198 0.842c1.6 0 1.6-0.842 3.199-0.842s1.6 0.842 3.199 0.842 1.6-0.842 3.199-0.842c1.6 0 1.6 0.842 3.2 0.842s1.599-0.842 3.199-0.842c1.601 0 1.601 0.842 3.201 0.842 1.602 0 1.602-0.842 3.204-0.842s1.602 0.842 3.204 0.842v2.526z"></path>
<path fill="#41479b" d="M32 15.158c-1.602 0-1.602-0.842-3.204-0.842s-1.602 0.842-3.204 0.842c-1.601 0-1.601-0.842-3.201-0.842-1.599 0-1.599 0.842-3.199 0.842s-1.6-0.842-3.2-0.842c-1.6 0-1.6 0.842-3.199 0.842s-1.6-0.842-3.199-0.842c-1.6 0-1.6 0.842-3.199 0.842s-1.599-0.842-3.198-0.842c-1.598 0-1.598 0.842-3.196 0.842v-2.526c1.598 0 1.598-0.842 3.196-0.842s1.599 0.842 3.198 0.842c1.6 0 1.6-0.842 3.199-0.842s1.6 0.842 3.199 0.842 1.6-0.842 3.199-0.842c1.6 0 1.6 0.842 3.2 0.842s1.599-0.842 3.199-0.842c1.601 0 1.601 0.842 3.201 0.842 1.602 0 1.602-0.842 3.204-0.842s1.602 0.842 3.204 0.842v2.526z"></path>
<path fill="#41479b" d="M32 10.105c-1.602 0-1.602-0.842-3.204-0.842s-1.602 0.842-3.204 0.842c-1.601 0-1.601-0.842-3.201-0.842-1.599 0-1.599 0.842-3.199 0.842s-1.6-0.842-3.2-0.842c-1.6 0-1.6 0.842-3.199 0.842s-1.6-0.842-3.199-0.842c-1.6 0-1.6 0.842-3.199 0.842s-1.599-0.842-3.198-0.842c-1.598 0-1.598 0.842-3.196 0.842v-2.526c1.598 0 1.598-0.842 3.196-0.842s1.599 0.842 3.198 0.842c1.6 0 1.6-0.842 3.199-0.842s1.6 0.842 3.199 0.842 1.6-0.842 3.199-0.842c1.6 0 1.6 0.842 3.2 0.842s1.599-0.842 3.199-0.842c1.601 0 1.601 0.842 3.201 0.842 1.602 0 1.602-0.842 3.204-0.842s1.602 0.842 3.204 0.842v2.526z"></path>
<path fill="#41479b" d="M32 5.053c-1.602 0-1.602-0.842-3.204-0.842s-1.602 0.842-3.204 0.842c-1.601 0-1.601-0.842-3.201-0.842-1.599 0-1.599 0.842-3.199 0.842s-1.6-0.842-3.2-0.842c-1.6 0-1.6 0.842-3.199 0.842s-1.6-0.842-3.199-0.842c-1.6 0-1.6 0.842-3.199 0.842s-1.599-0.842-3.198-0.842c-1.598 0-1.598 0.842-3.196 0.842v-2.526c1.598 0 1.598-0.842 3.196-0.842s1.599 0.842 3.198 0.842c1.6 0 1.6-0.842 3.199-0.842s1.6 0.842 3.199 0.842 1.6-0.842 3.199-0.842c1.6 0 1.6 0.842 3.2 0.842s1.599-0.842 3.199-0.842c1.601 0 1.601 0.842 3.201 0.842 1.602 0 1.602-0.842 3.204-0.842s1.602 0.842 3.204 0.842v2.526h-0z"></path>
<path fill="#41479b" d="M32 20.21c-1.602 0-1.602-0.842-3.204-0.842s-1.602 0.842-3.204 0.842c-1.601 0-1.601-0.842-3.201-0.842-1.599 0-1.599 0.842-3.199 0.842s-1.6-0.842-3.2-0.842c-1.6 0-1.6 0.842-3.199 0.842s-1.6-0.842-3.199-0.842c-1.6 0-1.6 0.842-3.199 0.842s-1.599-0.842-3.198-0.842c-1.598 0-1.598 0.842-3.196 0.842v-2.526c1.598 0 1.598-0.842 3.196-0.842s1.599 0.842 3.198 0.842c1.6 0 1.6-0.842 3.199-0.842s1.6 0.842 3.199 0.842 1.6-0.842 3.199-0.842c1.6 0 1.6 0.842 3.2 0.842s1.599-0.842 3.199-0.842c1.601 0 1.601 0.842 3.201 0.842 1.602 0 1.602-0.842 3.204-0.842s1.602 0.842 3.204 0.842v2.526z"></path>
<path fill="#41479b" d="M32 30.316c-1.602 0-1.602-0.842-3.204-0.842s-1.602 0.842-3.204 0.842c-1.601 0-1.601-0.842-3.201-0.842-1.599 0-1.599 0.842-3.199 0.842s-1.6-0.842-3.2-0.842c-1.6 0-1.6 0.842-3.199 0.842s-1.6-0.842-3.199-0.842c-1.6 0-1.6 0.842-3.199 0.842s-1.599-0.842-3.198-0.842c-1.598 0-1.598 0.842-3.196 0.842v-2.526c1.598 0 1.598-0.842 3.196-0.842s1.599 0.842 3.198 0.842c1.6 0 1.6-0.842 3.199-0.842s1.6 0.842 3.199 0.842 1.6-0.842 3.199-0.842c1.6 0 1.6 0.842 3.2 0.842s1.599-0.842 3.199-0.842c1.601 0 1.601 0.842 3.201 0.842 1.602 0 1.602-0.842 3.204-0.842s1.602 0.842 3.204 0.842v2.526z"></path>
<path fill="#965032" d="M24.764 28.87h-0.206c-0.191 0-0.346-0.155-0.346-0.346v-14.472h0.898v14.472c0 0.191-0.155 0.346-0.346 0.346z"></path>
<path fill="#73af00" d="M30.948 15.849l-0.898-0.449-3.306-0.413 2.046-2.63 0.317-0.953-0.953 0.318-2.63 2.046-0.413-3.306-0.449-0.898-0.449 0.898-0.413 3.306-2.63-2.046-0.953-0.318 0.317 0.953 2.046 2.63-3.306 0.413-0.898 0.449 0.898 0.449 3.306 0.413-2.046 2.63-0.317 0.953 0.953-0.317 2.858-2.223 0.635-1.007 0.635 1.007 2.858 2.223 0.953 0.317-0.317-0.953-2.046-2.63 3.306-0.413z"></path>
<path fill="#ffe15a" d="M26.616 21.078c-0.404-0.403-1.268-0.255-1.73-0.138v-0.377c0-0.124-0.101-0.224-0.224-0.224s-0.224 0.101-0.224 0.224v0.377c-0.463-0.117-1.327-0.265-1.73 0.138-0.385 0.385-0.106 1.312 0.159 1.957v0.597c0 0.165 0.134 0.299 0.299 0.299h2.995c0.165 0 0.299-0.134 0.299-0.299v-0.597c0.265-0.645 0.544-1.572 0.159-1.957zM26.299 21.396c0.171 0.172-0.021 0.923-0.33 1.637h-1.083v-1.629c0.504-0.143 1.195-0.227 1.413-0.008zM23.024 21.396c0.218-0.219 0.909-0.134 1.413 0.008v1.629h-1.083c-0.309-0.714-0.501-1.466-0.33-1.637z"></path>
<path fill="#41479b" d="M5.895 0h-5.895v1.249l5.895 3.862z"></path>
<path fill="#41479b" d="M0 4.269v1.626h2.482z"></path>
<path fill="#41479b" d="M0 10.105v1.626l2.482-1.626z"></path>
<path fill="#41479b" d="M16 1.249v-1.249h-5.895v5.111z"></path>
<path fill="#41479b" d="M16 11.731v-1.626h-2.482z"></path>
<path fill="#41479b" d="M10.105 10.889v5.111h5.895v-1.249z"></path>
<path fill="#41479b" d="M16 5.895v-1.626l-2.482 1.626z"></path>
<path fill="#41479b" d="M0 14.751v1.249h5.895v-5.111z"></path>
<path fill="#f5f5f5" d="M16 14.751v-1.248l-5.235-3.398h1.547l3.689 2.394v-0.768l-2.482-1.626h2.482v-0.842h-6.737v6.737h0.842v-5.111z"></path>
<path fill="#f5f5f5" d="M0 9.263v0.842h2.482l-2.482 1.626v1.181l4.325-2.807h1.547l-5.872 3.811v0.835l5.895-3.862v5.111h0.842v-6.737z"></path>
<path fill="#f5f5f5" d="M6.737 0h-0.842v5.111l-5.895-3.862v1.366l5.053 3.28h-1.547l-3.506-2.276v0.65l2.482 1.626h-2.482v0.842h6.737z"></path>
<path fill="#f5f5f5" d="M16 6.737v-0.842h-2.482l2.482-1.626v-1.196l-4.348 2.822h-1.547l5.895-3.826v-0.82l-5.895 3.862v-5.111h-0.842v6.737z"></path>
<path fill="#ff4b55" d="M16 9.263v-2.526h-6.737v-6.737h-2.526v6.737h-6.737v2.526h6.737v6.737h2.526v-6.737z"></path>
<path fill="#ff4b55" d="M4.325 10.105l-4.325 2.807v1.004l5.872-3.811z"></path>
<path fill="#ff4b55" d="M10.765 10.105l5.235 3.398v-1.004l-3.689-2.394z"></path>
<path fill="#ff4b55" d="M5.053 5.895l-5.053-3.28v1.004l3.506 2.276z"></path>
<path fill="#ff4b55" d="M11.652 5.895l4.348-2.822v-1.004l-5.895 3.826z"></path>
</svg>
