<svg xmlns="http://www.w3.org/2000/svg" width="32" height="32" version="1.1" viewBox="0 0 32 32"><title>british-virgin-islands</title><path fill="#41479b" d="M0 0h32v32h-32v-32z"/><path fill="#73af00" d="M23.101 15.034h-4.829c0 0 0 6.249 0 8.805 0 1.988 4.829 3.977 4.829 3.977s4.829-1.988 4.829-3.977c0-2.556 0-8.805 0-8.805h-4.829z"/><path fill="#ff4b55" d="M20.273 21.752c0 0-0.027-0.093-0.003-0.178s-0.038-0.162-0.051-0.235c-0.036-0.199 0.133-0.25 0.142-0.428 0 0 0.121 0.124 0.075 0.241s0.066 0.136 0.051 0.247-0.139 0.229-0.127 0.329l-0.087 0.024z"/><path fill="#ffe15a" d="M22.172 21.563c-0.099-0.123-0.272 0.009-0.398 0.106-0.018 0.014-0.032 0.024-0.048 0.035l-0.467-0.69c0.013-0.020 0.023-0.042 0.023-0.067 0-0.069-0.056-0.124-0.124-0.124s-0.124 0.056-0.124 0.124c0 0.025 0.009 0.048 0.023 0.067l-0.482 0.712h-0.341c0 0-0.014 0.212 0.359 0.238 0.048 0.073 0.117 0.131 0.199 0.163-0.038 0.006-0.070 0.036-0.070 0.076v0.050c0 0.003 0.003 0.005 0.003 0.008h0.868c0-0.003 0.003-0.005 0.003-0.008v-0.050c0-0.041-0.032-0.071-0.071-0.077 0.145-0.058 0.247-0.194 0.265-0.356 0.014-0.010 0.026-0.019 0.041-0.030 0.092-0.070 0.23-0.177 0.274-0.121 0.011 0.014 0.010 0.021 0.009 0.024-0.005 0.033-0.075 0.079-0.131 0.117-0.088 0.059-0.179 0.12-0.186 0.207-0.002 0.025 0.016 0.046 0.041 0.049 0.001 0 0.003 0 0.004 0 0.023 0 0.043-0.018 0.045-0.041 0.004-0.044 0.083-0.097 0.147-0.14 0.081-0.055 0.158-0.106 0.169-0.178 0.005-0.032-0.004-0.064-0.028-0.094zM21.373 21.726c-0.026-0.098-0.086-0.192-0.162-0.226 0.040-0.021 0.068-0.061 0.068-0.11 0-0.069-0.056-0.124-0.124-0.124s-0.124 0.056-0.124 0.124c0 0.048 0.028 0.089 0.068 0.11-0.076 0.034-0.137 0.128-0.162 0.226h-0.256l0.447-0.66c0.009 0.002 0.018 0.006 0.028 0.006s0.019-0.003 0.028-0.006l0.447 0.66h-0.259z"/><path fill="#ffc8b9" d="M22.793 17.543c0 0-0.45-0.133-0.651 1.441 0 0-1.101 1.399-1.136 1.482s-0.003 0.678 0.115 0.63c0.118-0.047 0.331-0.323 0.32-0.524s0.079-0.313 0.169-0.414c0.169-0.189 1.118-1.047 1.154-1.237s0.030-1.379 0.030-1.379z"/><path fill="#f5f5f5" d="M23.491 17.244c0 0 0.695-0.092 0.899 0.618 0 0-0.571 0.314-0.5 0.722s-0.009 2.272-0.009 2.272c-1.092 0.355-1.669-0.089-1.669-0.089s0.284-1.056 0.24-1.917c0 0-0.257-0.195-0.195-0.417s0.222-0.47 0.275-0.657 0.195-0.497 0.541-0.524 0.417-0.009 0.417-0.009z"/><path fill="#f5f5f5" d="M22.414 20.561c0 0-0.544 2.059-0.355 4.864 0 0 1.698 0.225 2.621-0.112 0 0-0.479-3.355-0.941-4.669l-1.326-0.083z"/><path fill="#ffc8b9" d="M22.734 16.031v0.853c0 0.094 0.076 0.17 0.17 0.17h0.015c0.066 0 0.12 0.054 0.12 0.12v0.204c0 0 0.114 0.299 0.559-0.051v-1.29l-0.864-0.006z"/><path fill="#8c5a28" d="M22.633 15.856c-0.028 0.069 0.002 0.256 0.172 0.243 0.212-0.017 0.469-0.018 0.527 0.217 0.054 0.219 0.018 0.765 0.254 0.8s0.505-0.122 0.5-0.592c-0.004-0.414-0.275-0.91-0.654-0.834 0 0-0.336-0.235-0.533 0.030 0 0-0.207-0.012-0.266 0.136z"/><path fill="#ffc8b9" d="M24.39 17.862c0 0 0.242 1.596 0.231 1.728-0.012 0.136-0.858 1.444-0.811 1.586s0.095 0.331-0.166 0.402c-0.26 0.071-0.234-0.345-0.163-0.558s0.666-1.348 0.666-1.478-0.337-0.97-0.254-1.302c0.083-0.331 0.497-0.379 0.497-0.379z"/><path fill="#ff4b55" d="M19.208 16.716c0 0-0.027-0.093-0.003-0.178s-0.038-0.162-0.051-0.235c-0.036-0.199 0.133-0.25 0.142-0.428 0 0 0.121 0.124 0.075 0.241s0.066 0.136 0.051 0.247-0.139 0.229-0.127 0.329l-0.087 0.024z"/><path fill="#ffe15a" d="M21.107 16.527c-0.099-0.123-0.272 0.009-0.398 0.106-0.018 0.014-0.032 0.024-0.048 0.035l-0.467-0.69c0.013-0.020 0.023-0.042 0.023-0.067 0-0.069-0.056-0.124-0.124-0.124s-0.124 0.056-0.124 0.124c0 0.025 0.009 0.048 0.023 0.067l-0.482 0.712h-0.341c0 0-0.014 0.212 0.359 0.238 0.048 0.073 0.117 0.131 0.199 0.163-0.038 0.006-0.070 0.036-0.070 0.076v0.050c0 0.003 0.003 0.005 0.003 0.008h0.868c0-0.003 0.003-0.005 0.003-0.008v-0.050c0-0.041-0.032-0.071-0.071-0.077 0.145-0.058 0.247-0.194 0.265-0.356 0.014-0.010 0.026-0.019 0.041-0.030 0.092-0.070 0.23-0.177 0.274-0.121 0.011 0.014 0.010 0.021 0.009 0.024-0.005 0.033-0.075 0.079-0.131 0.117-0.088 0.059-0.179 0.12-0.186 0.207-0.002 0.025 0.016 0.046 0.041 0.049 0.001 0 0.003 0 0.004 0 0.023 0 0.043-0.018 0.045-0.041 0.004-0.044 0.083-0.097 0.147-0.14 0.081-0.055 0.158-0.106 0.169-0.178 0.005-0.032-0.004-0.064-0.028-0.094zM20.308 16.69c-0.026-0.098-0.086-0.192-0.162-0.226 0.040-0.021 0.068-0.061 0.068-0.11 0-0.069-0.056-0.124-0.124-0.124s-0.124 0.056-0.124 0.124c0 0.048 0.028 0.089 0.068 0.11-0.076 0.034-0.137 0.128-0.162 0.226h-0.256l0.447-0.66c0.009 0.002 0.018 0.006 0.028 0.006s0.019-0.003 0.028-0.006l0.447 0.66h-0.259z"/><path fill="#ff4b55" d="M19.208 18.395c0 0-0.027-0.093-0.003-0.178s-0.038-0.162-0.051-0.235c-0.036-0.199 0.133-0.25 0.142-0.428 0 0 0.121 0.124 0.075 0.241s0.066 0.136 0.051 0.247-0.139 0.229-0.127 0.329l-0.087 0.024z"/><path fill="#ffe15a" d="M21.107 18.206c-0.099-0.123-0.272 0.009-0.398 0.106-0.018 0.014-0.032 0.024-0.048 0.035l-0.467-0.69c0.013-0.020 0.023-0.042 0.023-0.067 0-0.069-0.056-0.124-0.124-0.124s-0.124 0.056-0.124 0.124c0 0.025 0.009 0.048 0.023 0.067l-0.482 0.712h-0.341c0 0-0.014 0.212 0.359 0.238 0.048 0.073 0.117 0.131 0.199 0.163-0.038 0.006-0.070 0.036-0.070 0.076v0.050c0 0.003 0.003 0.005 0.003 0.008h0.868c0-0.003 0.003-0.005 0.003-0.008v-0.050c0-0.041-0.032-0.071-0.071-0.077 0.145-0.058 0.247-0.194 0.265-0.356 0.014-0.010 0.026-0.019 0.041-0.030 0.092-0.070 0.23-0.177 0.274-0.121 0.011 0.014 0.010 0.021 0.009 0.024-0.005 0.033-0.075 0.079-0.131 0.117-0.088 0.059-0.179 0.12-0.186 0.207-0.002 0.025 0.016 0.046 0.041 0.049 0.001 0 0.003 0 0.004 0 0.023 0 0.043-0.018 0.045-0.041 0.004-0.044 0.083-0.097 0.147-0.14 0.081-0.055 0.158-0.106 0.169-0.178 0.005-0.032-0.004-0.064-0.028-0.094zM20.308 18.369c-0.026-0.098-0.086-0.192-0.162-0.226 0.040-0.021 0.068-0.061 0.068-0.11 0-0.069-0.056-0.124-0.124-0.124s-0.124 0.056-0.124 0.124c0 0.048 0.028 0.089 0.068 0.11-0.076 0.034-0.137 0.128-0.162 0.226h-0.256l0.447-0.66c0.009 0.002 0.018 0.006 0.028 0.006s0.019-0.003 0.028-0.006l0.447 0.66h-0.259z"/><path fill="#ff4b55" d="M19.208 20.074c0 0-0.027-0.093-0.003-0.178s-0.038-0.162-0.051-0.235c-0.036-0.199 0.133-0.25 0.142-0.428 0 0 0.121 0.124 0.075 0.241s0.066 0.136 0.051 0.247-0.139 0.229-0.127 0.329l-0.087 0.024z"/><path fill="#ffe15a" d="M21.107 19.885c-0.099-0.123-0.272 0.009-0.398 0.106-0.018 0.014-0.032 0.024-0.048 0.035l-0.467-0.69c0.013-0.020 0.023-0.042 0.023-0.067 0-0.069-0.056-0.124-0.124-0.124s-0.124 0.056-0.124 0.124c0 0.025 0.009 0.048 0.023 0.067l-0.482 0.712h-0.341c0 0-0.014 0.212 0.359 0.238 0.048 0.073 0.117 0.131 0.199 0.163-0.038 0.006-0.070 0.036-0.070 0.076v0.050c0 0.003 0.003 0.005 0.003 0.008h0.868c0-0.003 0.003-0.005 0.003-0.008v-0.050c0-0.041-0.032-0.071-0.071-0.077 0.145-0.058 0.247-0.194 0.265-0.356 0.014-0.010 0.026-0.019 0.041-0.030 0.092-0.070 0.23-0.177 0.274-0.121 0.011 0.014 0.010 0.021 0.009 0.024-0.005 0.033-0.075 0.079-0.131 0.117-0.088 0.059-0.179 0.12-0.186 0.207-0.002 0.025 0.016 0.046 0.041 0.049 0.001 0 0.003 0 0.004 0 0.023 0 0.043-0.018 0.045-0.041 0.004-0.044 0.083-0.097 0.147-0.14 0.081-0.055 0.158-0.106 0.169-0.178 0.005-0.032-0.004-0.064-0.028-0.094zM20.308 20.048c-0.026-0.098-0.086-0.192-0.162-0.226 0.040-0.021 0.068-0.061 0.068-0.11 0-0.069-0.056-0.124-0.124-0.124s-0.124 0.056-0.124 0.124c0 0.048 0.028 0.089 0.068 0.11-0.076 0.034-0.137 0.128-0.162 0.226h-0.256l0.447-0.66c0.009 0.002 0.018 0.006 0.028 0.006s0.019-0.003 0.028-0.006l0.447 0.66h-0.259z"/><path fill="#ff4b55" d="M19.208 23.431c0 0-0.027-0.093-0.003-0.178s-0.038-0.162-0.051-0.235c-0.036-0.199 0.133-0.25 0.142-0.428 0 0 0.121 0.124 0.075 0.241s0.066 0.136 0.051 0.247-0.139 0.229-0.127 0.329l-0.087 0.024z"/><path fill="#ffe15a" d="M21.107 23.242c-0.099-0.123-0.272 0.009-0.398 0.106-0.018 0.014-0.032 0.024-0.048 0.035l-0.467-0.69c0.013-0.020 0.023-0.042 0.023-0.067 0-0.069-0.056-0.124-0.124-0.124s-0.124 0.056-0.124 0.124c0 0.025 0.009 0.048 0.023 0.067l-0.482 0.712h-0.341c0 0-0.014 0.212 0.359 0.238 0.048 0.073 0.117 0.131 0.199 0.163-0.038 0.006-0.070 0.036-0.070 0.076v0.050c0 0.003 0.003 0.005 0.003 0.008h0.868c0-0.003 0.003-0.005 0.003-0.008v-0.050c0-0.041-0.032-0.071-0.071-0.077 0.145-0.058 0.247-0.194 0.265-0.356 0.014-0.010 0.026-0.019 0.041-0.030 0.092-0.070 0.23-0.177 0.274-0.121 0.011 0.014 0.010 0.021 0.009 0.024-0.005 0.033-0.075 0.079-0.131 0.117-0.088 0.059-0.179 0.12-0.186 0.207-0.002 0.025 0.016 0.046 0.041 0.049 0.001 0 0.003 0 0.004 0 0.023 0 0.043-0.018 0.045-0.041 0.004-0.044 0.083-0.097 0.147-0.14 0.081-0.055 0.158-0.106 0.169-0.178 0.005-0.032-0.004-0.064-0.028-0.094zM20.308 23.405c-0.026-0.098-0.086-0.192-0.162-0.226 0.040-0.021 0.068-0.061 0.068-0.11 0-0.069-0.056-0.124-0.124-0.124s-0.124 0.056-0.124 0.124c0 0.048 0.028 0.089 0.068 0.11-0.076 0.034-0.137 0.128-0.162 0.226h-0.256l0.447-0.66c0.009 0.002 0.018 0.006 0.028 0.006s0.019-0.003 0.028-0.006l0.447 0.66h-0.259z"/><path fill="#ff4b55" d="M19.208 25.11c0 0-0.027-0.093-0.003-0.178s-0.038-0.162-0.051-0.235c-0.036-0.199 0.133-0.25 0.142-0.428 0 0 0.121 0.124 0.075 0.241s0.066 0.136 0.051 0.247-0.139 0.229-0.127 0.329l-0.087 0.024z"/><path fill="#ffe15a" d="M21.107 24.921c-0.099-0.123-0.272 0.009-0.398 0.106-0.018 0.014-0.032 0.024-0.048 0.035l-0.467-0.69c0.013-0.020 0.023-0.042 0.023-0.067 0-0.069-0.056-0.124-0.124-0.124s-0.124 0.056-0.124 0.124c0 0.025 0.009 0.048 0.023 0.067l-0.482 0.712h-0.341c0 0-0.014 0.212 0.359 0.238 0.048 0.073 0.117 0.131 0.199 0.163-0.038 0.006-0.070 0.036-0.070 0.076v0.050c0 0.003 0.003 0.005 0.003 0.008h0.868c0-0.003 0.003-0.005 0.003-0.008v-0.050c0-0.041-0.032-0.071-0.071-0.077 0.145-0.058 0.247-0.194 0.265-0.356 0.014-0.010 0.026-0.019 0.041-0.030 0.092-0.070 0.23-0.177 0.274-0.121 0.011 0.014 0.010 0.021 0.009 0.024-0.005 0.033-0.075 0.079-0.131 0.117-0.088 0.059-0.179 0.12-0.186 0.207-0.002 0.025 0.016 0.046 0.041 0.049 0.001 0 0.003 0 0.004 0 0.023 0 0.043-0.018 0.045-0.041 0.004-0.044 0.083-0.097 0.147-0.14 0.081-0.055 0.158-0.106 0.169-0.178 0.005-0.032-0.004-0.064-0.028-0.094zM20.308 25.084c-0.026-0.098-0.086-0.192-0.162-0.226 0.040-0.021 0.068-0.061 0.068-0.11 0-0.069-0.056-0.124-0.124-0.124s-0.124 0.056-0.124 0.124c0 0.048 0.028 0.089 0.068 0.11-0.076 0.034-0.137 0.128-0.162 0.226h-0.256l0.447-0.66c0.009 0.002 0.018 0.006 0.028 0.006s0.019-0.003 0.028-0.006l0.447 0.66h-0.259z"/><path fill="#ff4b55" d="M25.049 16.716c0 0-0.027-0.093-0.003-0.178s-0.038-0.162-0.051-0.235c-0.036-0.199 0.133-0.25 0.142-0.428 0 0 0.121 0.124 0.075 0.241s0.066 0.136 0.051 0.247-0.139 0.229-0.127 0.329l-0.087 0.024z"/><path fill="#ffe15a" d="M26.947 16.527c-0.099-0.123-0.272 0.009-0.398 0.106-0.018 0.014-0.032 0.024-0.048 0.035l-0.467-0.69c0.013-0.020 0.023-0.042 0.023-0.067 0-0.069-0.056-0.124-0.124-0.124s-0.124 0.056-0.124 0.124c0 0.025 0.009 0.048 0.023 0.067l-0.482 0.712h-0.341c0 0-0.014 0.212 0.359 0.238 0.048 0.073 0.117 0.131 0.199 0.163-0.038 0.006-0.070 0.036-0.070 0.076v0.050c0 0.003 0.003 0.005 0.003 0.008h0.868c0-0.003 0.003-0.005 0.003-0.008v-0.050c0-0.041-0.032-0.071-0.071-0.077 0.145-0.058 0.247-0.194 0.265-0.356 0.014-0.010 0.026-0.019 0.041-0.030 0.092-0.070 0.23-0.177 0.274-0.121 0.011 0.014 0.010 0.021 0.009 0.024-0.005 0.033-0.075 0.079-0.131 0.117-0.088 0.059-0.179 0.12-0.186 0.207-0.002 0.025 0.016 0.046 0.041 0.049 0.001 0 0.003 0 0.004 0 0.023 0 0.043-0.018 0.045-0.041 0.004-0.044 0.083-0.097 0.147-0.14 0.081-0.055 0.158-0.106 0.169-0.178 0.005-0.032-0.004-0.064-0.028-0.094zM26.149 16.69c-0.026-0.098-0.086-0.192-0.162-0.226 0.040-0.021 0.068-0.061 0.068-0.11 0-0.069-0.056-0.124-0.124-0.124s-0.124 0.056-0.124 0.124c0 0.048 0.028 0.089 0.068 0.11-0.076 0.034-0.137 0.128-0.162 0.226h-0.256l0.447-0.66c0.009 0.002 0.018 0.006 0.028 0.006s0.019-0.003 0.028-0.006l0.447 0.66h-0.259z"/><path fill="#ff4b55" d="M25.049 18.395c0 0-0.027-0.093-0.003-0.178s-0.038-0.162-0.051-0.235c-0.036-0.199 0.133-0.25 0.142-0.428 0 0 0.121 0.124 0.075 0.241s0.066 0.136 0.051 0.247-0.139 0.229-0.127 0.329l-0.087 0.024z"/><path fill="#ffe15a" d="M26.947 18.206c-0.099-0.123-0.272 0.009-0.398 0.106-0.018 0.014-0.032 0.024-0.048 0.035l-0.467-0.69c0.013-0.020 0.023-0.042 0.023-0.067 0-0.069-0.056-0.124-0.124-0.124s-0.124 0.056-0.124 0.124c0 0.025 0.009 0.048 0.023 0.067l-0.482 0.712h-0.341c0 0-0.014 0.212 0.359 0.238 0.048 0.073 0.117 0.131 0.199 0.163-0.038 0.006-0.070 0.036-0.070 0.076v0.050c0 0.003 0.003 0.005 0.003 0.008h0.868c0-0.003 0.003-0.005 0.003-0.008v-0.050c0-0.041-0.032-0.071-0.071-0.077 0.145-0.058 0.247-0.194 0.265-0.356 0.014-0.010 0.026-0.019 0.041-0.030 0.092-0.070 0.23-0.177 0.274-0.121 0.011 0.014 0.010 0.021 0.009 0.024-0.005 0.033-0.075 0.079-0.131 0.117-0.088 0.059-0.179 0.12-0.186 0.207-0.002 0.025 0.016 0.046 0.041 0.049 0.001 0 0.003 0 0.004 0 0.023 0 0.043-0.018 0.045-0.041 0.004-0.044 0.083-0.097 0.147-0.14 0.081-0.055 0.158-0.106 0.169-0.178 0.005-0.032-0.004-0.064-0.028-0.094zM26.149 18.369c-0.026-0.098-0.086-0.192-0.162-0.226 0.040-0.021 0.068-0.061 0.068-0.11 0-0.069-0.056-0.124-0.124-0.124s-0.124 0.056-0.124 0.124c0 0.048 0.028 0.089 0.068 0.11-0.076 0.034-0.137 0.128-0.162 0.226h-0.256l0.447-0.66c0.009 0.002 0.018 0.006 0.028 0.006s0.019-0.003 0.028-0.006l0.447 0.66h-0.259z"/><path fill="#ff4b55" d="M25.049 20.074c0 0-0.027-0.093-0.003-0.178s-0.038-0.162-0.051-0.235c-0.036-0.199 0.133-0.25 0.142-0.428 0 0 0.121 0.124 0.075 0.241s0.066 0.136 0.051 0.247-0.139 0.229-0.127 0.329l-0.087 0.024z"/><path fill="#ffe15a" d="M26.947 19.885c-0.099-0.123-0.272 0.009-0.398 0.106-0.018 0.014-0.032 0.024-0.048 0.035l-0.467-0.69c0.013-0.020 0.023-0.042 0.023-0.067 0-0.069-0.056-0.124-0.124-0.124s-0.124 0.056-0.124 0.124c0 0.025 0.009 0.048 0.023 0.067l-0.482 0.712h-0.341c0 0-0.014 0.212 0.359 0.238 0.048 0.073 0.117 0.131 0.199 0.163-0.038 0.006-0.070 0.036-0.070 0.076v0.050c0 0.003 0.003 0.005 0.003 0.008h0.868c0-0.003 0.003-0.005 0.003-0.008v-0.050c0-0.041-0.032-0.071-0.071-0.077 0.145-0.058 0.247-0.194 0.265-0.356 0.014-0.010 0.026-0.019 0.041-0.030 0.092-0.070 0.23-0.177 0.274-0.121 0.011 0.014 0.010 0.021 0.009 0.024-0.005 0.033-0.075 0.079-0.131 0.117-0.088 0.059-0.179 0.12-0.186 0.207-0.002 0.025 0.016 0.046 0.041 0.049 0.001 0 0.003 0 0.004 0 0.023 0 0.043-0.018 0.045-0.041 0.004-0.044 0.083-0.097 0.147-0.14 0.081-0.055 0.158-0.106 0.169-0.178 0.005-0.032-0.004-0.064-0.028-0.094zM26.149 20.048c-0.026-0.098-0.086-0.192-0.162-0.226 0.040-0.021 0.068-0.061 0.068-0.11 0-0.069-0.056-0.124-0.124-0.124s-0.124 0.056-0.124 0.124c0 0.048 0.028 0.089 0.068 0.11-0.076 0.034-0.137 0.128-0.162 0.226h-0.256l0.447-0.66c0.009 0.002 0.018 0.006 0.028 0.006s0.019-0.003 0.028-0.006l0.447 0.66h-0.259z"/><path fill="#ff4b55" d="M25.049 21.752c0 0-0.027-0.093-0.003-0.178s-0.038-0.162-0.051-0.235c-0.036-0.199 0.133-0.25 0.142-0.428 0 0 0.121 0.124 0.075 0.241s0.066 0.136 0.051 0.247-0.139 0.229-0.127 0.329l-0.087 0.024z"/><path fill="#ffe15a" d="M26.947 21.563c-0.099-0.123-0.272 0.009-0.398 0.106-0.018 0.014-0.032 0.024-0.048 0.035l-0.467-0.69c0.013-0.020 0.023-0.042 0.023-0.067 0-0.069-0.056-0.124-0.124-0.124s-0.124 0.056-0.124 0.124c0 0.025 0.009 0.048 0.023 0.067l-0.482 0.712h-0.341c0 0-0.014 0.212 0.359 0.238 0.048 0.073 0.117 0.131 0.199 0.163-0.038 0.006-0.070 0.036-0.070 0.076v0.050c0 0.003 0.003 0.005 0.003 0.008h0.868c0-0.003 0.003-0.005 0.003-0.008v-0.050c0-0.041-0.032-0.071-0.071-0.077 0.145-0.058 0.247-0.194 0.265-0.356 0.014-0.010 0.026-0.019 0.041-0.030 0.092-0.070 0.23-0.177 0.274-0.121 0.011 0.014 0.010 0.021 0.009 0.024-0.005 0.033-0.075 0.079-0.131 0.117-0.088 0.059-0.179 0.12-0.186 0.207-0.002 0.025 0.016 0.046 0.041 0.049 0.001 0 0.003 0 0.004 0 0.023 0 0.043-0.018 0.045-0.041 0.004-0.044 0.083-0.097 0.147-0.14 0.081-0.055 0.158-0.106 0.169-0.178 0.005-0.032-0.004-0.064-0.028-0.094zM26.149 21.726c-0.026-0.098-0.086-0.192-0.162-0.226 0.040-0.021 0.068-0.061 0.068-0.11 0-0.069-0.056-0.124-0.124-0.124s-0.124 0.056-0.124 0.124c0 0.048 0.028 0.089 0.068 0.11-0.076 0.034-0.137 0.128-0.162 0.226h-0.256l0.447-0.66c0.009 0.002 0.018 0.006 0.028 0.006s0.019-0.003 0.028-0.006l0.447 0.66h-0.259z"/><path fill="#ff4b55" d="M25.049 23.431c0 0-0.027-0.093-0.003-0.178s-0.038-0.162-0.051-0.235c-0.036-0.199 0.133-0.25 0.142-0.428 0 0 0.121 0.124 0.075 0.241s0.066 0.136 0.051 0.247-0.139 0.229-0.127 0.329l-0.087 0.024z"/><path fill="#ffe15a" d="M26.947 23.242c-0.099-0.123-0.272 0.009-0.398 0.106-0.018 0.014-0.032 0.024-0.048 0.035l-0.467-0.69c0.013-0.020 0.023-0.042 0.023-0.067 0-0.069-0.056-0.124-0.124-0.124s-0.124 0.056-0.124 0.124c0 0.025 0.009 0.048 0.023 0.067l-0.482 0.712h-0.341c0 0-0.014 0.212 0.359 0.238 0.048 0.073 0.117 0.131 0.199 0.163-0.038 0.006-0.070 0.036-0.070 0.076v0.050c0 0.003 0.003 0.005 0.003 0.008h0.868c0-0.003 0.003-0.005 0.003-0.008v-0.050c0-0.041-0.032-0.071-0.071-0.077 0.145-0.058 0.247-0.194 0.265-0.356 0.014-0.010 0.026-0.019 0.041-0.030 0.092-0.070 0.23-0.177 0.274-0.121 0.011 0.014 0.010 0.021 0.009 0.024-0.005 0.033-0.075 0.079-0.131 0.117-0.088 0.059-0.179 0.12-0.186 0.207-0.002 0.025 0.016 0.046 0.041 0.049 0.001 0 0.003 0 0.004 0 0.023 0 0.043-0.018 0.045-0.041 0.004-0.044 0.083-0.097 0.147-0.14 0.081-0.055 0.158-0.106 0.169-0.178 0.005-0.032-0.004-0.064-0.028-0.094zM26.149 23.405c-0.026-0.098-0.086-0.192-0.162-0.226 0.040-0.021 0.068-0.061 0.068-0.11 0-0.069-0.056-0.124-0.124-0.124s-0.124 0.056-0.124 0.124c0 0.048 0.028 0.089 0.068 0.11-0.076 0.034-0.137 0.128-0.162 0.226h-0.256l0.447-0.66c0.009 0.002 0.018 0.006 0.028 0.006s0.019-0.003 0.028-0.006l0.447 0.66h-0.259z"/><path fill="#ff4b55" d="M25.049 25.11c0 0-0.027-0.093-0.003-0.178s-0.038-0.162-0.051-0.235c-0.036-0.199 0.133-0.25 0.142-0.428 0 0 0.121 0.124 0.075 0.241s0.066 0.136 0.051 0.247-0.139 0.229-0.127 0.329l-0.087 0.024z"/><path fill="#ffe15a" d="M26.947 24.921c-0.099-0.123-0.272 0.009-0.398 0.106-0.018 0.014-0.032 0.024-0.048 0.035l-0.467-0.69c0.013-0.020 0.023-0.042 0.023-0.067 0-0.069-0.056-0.124-0.124-0.124s-0.124 0.056-0.124 0.124c0 0.025 0.009 0.048 0.023 0.067l-0.482 0.712h-0.341c0 0-0.014 0.212 0.359 0.238 0.048 0.073 0.117 0.131 0.199 0.163-0.038 0.006-0.070 0.036-0.070 0.076v0.050c0 0.003 0.003 0.005 0.003 0.008h0.868c0-0.003 0.003-0.005 0.003-0.008v-0.050c0-0.041-0.032-0.071-0.071-0.077 0.145-0.058 0.247-0.194 0.265-0.356 0.014-0.010 0.026-0.019 0.041-0.030 0.092-0.070 0.23-0.177 0.274-0.121 0.011 0.014 0.010 0.021 0.009 0.024-0.005 0.033-0.075 0.079-0.131 0.117-0.088 0.059-0.179 0.12-0.186 0.207-0.002 0.025 0.016 0.046 0.041 0.049 0.001 0 0.003 0 0.004 0 0.023 0 0.043-0.018 0.045-0.041 0.004-0.044 0.083-0.097 0.147-0.14 0.081-0.055 0.158-0.106 0.169-0.178 0.005-0.032-0.004-0.064-0.028-0.094zM26.149 25.084c-0.026-0.098-0.086-0.192-0.162-0.226 0.040-0.021 0.068-0.061 0.068-0.11 0-0.069-0.056-0.124-0.124-0.124s-0.124 0.056-0.124 0.124c0 0.048 0.028 0.089 0.068 0.11-0.076 0.034-0.137 0.128-0.162 0.226h-0.256l0.447-0.66c0.009 0.002 0.018 0.006 0.028 0.006s0.019-0.003 0.028-0.006l0.447 0.66h-0.259z"/><path fill="#f5f5f5" d="M27.929 15.034c0 0 0 6.249 0 8.805 0 1.988-4.829 3.977-4.829 3.977s-4.829-1.988-4.829-3.977c0-2.556 0-8.805 0-8.805h9.657zM28.213 14.75h-10.225v9.089c0 0.93 0.858 1.931 2.549 2.976 1.213 0.749 2.405 1.243 2.455 1.264l0.108 0.045 0.108-0.045c0.050-0.021 1.242-0.514 2.455-1.264 1.691-1.045 2.549-2.046 2.549-2.976v-9.089z"/><path fill="#f5f5f5" d="M28.254 25.405l1.288 0.888c-1.496 1.918-3.826 3.156-6.441 3.156s-4.946-1.237-6.441-3.156l1.288-0.888c1.211 1.511 3.071 2.482 5.154 2.482s3.942-0.97 5.154-2.482zM28.198 25.021l-0.165 0.206c-1.21 1.509-3.008 2.375-4.932 2.375s-3.722-0.866-4.932-2.375l-0.165-0.206-1.753 1.209 0.185 0.238c1.618 2.075 4.047 3.265 6.665 3.265s5.048-1.19 6.665-3.265l0.185-0.238-1.753-1.209z"/><path fill="#ffe15a" d="M23.101 29.449c2.615 0 4.946-1.237 6.441-3.156l-1.288-0.888c-1.211 1.511-3.071 2.482-5.154 2.482s-3.942-0.97-5.154-2.482l-1.288 0.888c1.496 1.918 3.826 3.156 6.441 3.156z"/><path fill="#41479b" d="M5.895 0h-5.895v1.249l5.895 3.862z"/><path fill="#41479b" d="M0 4.269v1.626h2.482z"/><path fill="#41479b" d="M0 10.105v1.626l2.482-1.626z"/><path fill="#41479b" d="M16 1.249v-1.249h-5.895v5.111z"/><path fill="#41479b" d="M16 11.731v-1.626h-2.482z"/><path fill="#41479b" d="M10.105 10.889v5.111h5.895v-1.249z"/><path fill="#41479b" d="M16 5.895v-1.626l-2.482 1.626z"/><path fill="#41479b" d="M0 14.751v1.249h5.895v-5.111z"/><path fill="#f5f5f5" d="M16 14.751v-1.248l-5.236-3.398h1.547l3.689 2.394v-0.768l-2.482-1.626h2.482v-0.842h-6.737v6.737h0.842v-5.111z"/><path fill="#f5f5f5" d="M0 9.263v0.842h2.482l-2.482 1.626v1.181l4.325-2.807h1.547l-5.872 3.811v0.835l5.895-3.862v5.111h0.842v-6.737z"/><path fill="#f5f5f5" d="M6.737 0h-0.842v5.111l-5.895-3.862v1.366l5.053 3.28h-1.547l-3.506-2.276v0.65l2.482 1.626h-2.482v0.842h6.737z"/><path fill="#f5f5f5" d="M16 6.737v-0.842h-2.482l2.482-1.626v-1.196l-4.348 2.822h-1.547l5.895-3.826v-0.82l-5.895 3.862v-5.111h-0.842v6.737z"/><path fill="#ff4b55" d="M16 9.263v-2.526h-6.737v-6.737h-2.526v6.737h-6.737v2.526h6.737v6.737h2.526v-6.737z"/><path fill="#ff4b55" d="M4.325 10.105l-4.325 2.807v1.004l5.872-3.811z"/><path fill="#ff4b55" d="M10.764 10.105l5.236 3.398v-1.004l-3.689-2.394z"/><path fill="#ff4b55" d="M5.053 5.895l-5.053-3.28v1.004l3.506 2.276z"/><path fill="#ff4b55" d="M11.652 5.895l4.348-2.822v-1.004l-5.895 3.826z"/></svg>