<!-- Generated by IcoMoon.io -->
<svg version="1.1" xmlns="http://www.w3.org/2000/svg" width="32" height="32" viewBox="0 0 32 32">
<title>british-columbia</title>
<path fill="#41479b" d="M0.005 0.002h31.992v15.998h-31.992v-15.998z"></path>
<path fill="#f5f5f5" d="M0.005 16h31.992v15.498c0 0.276-0.224 0.5-0.5 0.5h-30.992c-0.276 0-0.5-0.224-0.5-0.5 0 0 0-15.498 0-15.498z"></path>
<path fill="#f5f5f5" d="M31.996 0.002h-3.86l-10.219 5.11v-5.11h-3.832v5.11l-10.219-5.11h-3.866l0.005 1.51 8.767 4.384h-8.767v4.21h8.767l-8.767 4.384v1.51h3.861l10.219-5.11v5.11h3.832v-5.11l10.219 5.11h3.861v-1.51l-8.767-4.384h8.767v-4.21h-8.767l8.767-4.384z"></path>
<path fill="#ff4b55" d="M0.005 6.738h31.992v2.526h-31.992v-2.526z"></path>
<path fill="#ff4b55" d="M15.174 0.002h1.655v15.998h-1.655v-15.998z"></path>
<path fill="#ffe15a" d="M20.319 6.534l-1.242 0.642-0.491-1.141c-0.051-0.118-0.254-0.139-0.343-0.036l-1.012 1.177-1.058-1.641c-0.071-0.11-0.273-0.11-0.344 0l-1.058 1.641-1.012-1.177c-0.089-0.103-0.292-0.082-0.343 0.036l-0.491 1.141-1.242-0.642c-0.164-0.085-0.367 0.054-0.279 0.191l1.213 1.882h-0.053c-0.141 0-0.255 0.089-0.255 0.198v0.558c0 0.109 0.114 0.198 0.255 0.198h6.87c0.141 0 0.255-0.089 0.255-0.198v-0.558c0-0.109-0.114-0.198-0.255-0.198h-0.052l1.213-1.882c0.088-0.137-0.115-0.276-0.279-0.191z"></path>
<path fill="#ff4b55" d="M11.187 10.106l-11.181 5.538v0.356h1.311l11.896-5.894z"></path>
<path fill="#ff4b55" d="M31.997 16v-0.767l-10.348-5.127h-2.026l11.894 5.894z"></path>
<path fill="#41479b" d="M31.994 20.631c-1.602 0-1.602-0.737-3.204-0.737-1.601 0-1.601 0.737-3.202 0.737-1.599 0-1.599-0.737-3.199-0.737s-1.599 0.737-3.198 0.737c-1.6 0-1.6-0.737-3.199-0.737s-1.6 0.737-3.199 0.737-1.6-0.737-3.199-0.737c-1.599 0-1.599 0.737-3.198 0.737s-1.598-0.737-3.196-0.737c-1.599 0-1.599 0.737-3.198 0.737v-2.21c1.599 0 1.599-0.737 3.198-0.737s1.598 0.737 3.196 0.737c1.599 0 1.599-0.737 3.198-0.737s1.6 0.737 3.199 0.737 1.6-0.737 3.199-0.737 1.6 0.737 3.199 0.737c1.599 0 1.599-0.737 3.198-0.737s1.599 0.737 3.199 0.737c1.601 0 1.601-0.737 3.202-0.737 1.602 0 1.602 0.737 3.204 0.737v2.21z"></path>
<path fill="#41479b" d="M31.994 25.051c-1.602 0-1.602-0.737-3.204-0.737-1.601 0-1.601 0.737-3.202 0.737-1.599 0-1.599-0.737-3.199-0.737s-1.599 0.737-3.198 0.737c-1.6 0-1.6-0.737-3.199-0.737s-1.6 0.737-3.199 0.737-1.6-0.737-3.199-0.737c-1.599 0-1.599 0.737-3.198 0.737s-1.598-0.737-3.196-0.737c-1.599 0-1.599 0.737-3.198 0.737v-2.21c1.599 0 1.599-0.737 3.198-0.737s1.598 0.737 3.196 0.737c1.599 0 1.599-0.737 3.198-0.737s1.6 0.737 3.199 0.737 1.6-0.737 3.199-0.737 1.6 0.737 3.199 0.737c1.599 0 1.599-0.737 3.198-0.737s1.599 0.737 3.199 0.737c1.601 0 1.601-0.737 3.202-0.737 1.602 0 1.602 0.737 3.204 0.737v2.21z"></path>
<path fill="#41479b" d="M31.994 29.472c-1.602 0-1.602-0.737-3.204-0.737-1.601 0-1.601 0.737-3.202 0.737-1.599 0-1.599-0.737-3.199-0.737s-1.599 0.737-3.198 0.737c-1.6 0-1.6-0.737-3.199-0.737s-1.6 0.737-3.199 0.737-1.6-0.737-3.199-0.737c-1.599 0-1.599 0.737-3.198 0.737s-1.598-0.737-3.196-0.737c-1.599 0-1.599 0.737-3.198 0.737v-2.21c1.599 0 1.599-0.737 3.198-0.737s1.598 0.737 3.196 0.737c1.599 0 1.599-0.737 3.198-0.737s1.6 0.737 3.199 0.737 1.6-0.737 3.199-0.737 1.6 0.737 3.199 0.737c1.599 0 1.599-0.737 3.198-0.737s1.599 0.737 3.199 0.737c1.601 0 1.601-0.737 3.202-0.737 1.602 0 1.602 0.737 3.204 0.737v2.21z"></path>
<path fill="#ff4b55" d="M12.14 5.896l-11.898-5.894h-0.242v0.882l10.114 5.012z"></path>
<path fill="#ff4b55" d="M20.785 5.896l11.21-5.543 0.002-0.351h-1.342l-11.896 5.894z"></path>
<path fill="#ffe15a" d="M26.783 31.118c1.372-0.707 1.866-1.767 2.046-2.161 0.272-0.597 1.536-1.078 1.536-1.078s-1.561 0.007-2.396 1.092c-0.77 1-2.157 1.086-3.494 1.851-0.128-0.16-0.259-0.317-0.395-0.47l4.167-5.044-5.044 4.167c-0.198-0.176-0.402-0.345-0.612-0.506 0.133-0.345 0.395-0.879 0.909-1.487 0.997-1.178 1.048-2.347 1.063-2.779 0.023-0.655 1.006-1.584 1.006-1.584s-1.439 0.604-1.796 1.926c-0.329 1.218-1.576 1.828-2.518 3.045-0.179-0.1-0.36-0.196-0.545-0.285l1.918-6.251-3.065 5.778c-0.249-0.087-0.502-0.166-0.76-0.234-0.009-0.37 0.029-0.962 0.271-1.719 0.471-1.47 0.070-2.569-0.081-2.975-0.229-0.614 0.324-1.848 0.324-1.848s-1.099 1.109-0.922 2.466c0.162 1.251-0.757 2.292-1.162 3.778-0.203-0.023-0.406-0.041-0.612-0.053l-0.62-6.512-0.62 6.512c-0.266 0.015-0.53 0.042-0.79 0.076-0.15-0.338-0.342-0.901-0.408-1.694-0.128-1.538-0.918-2.4-1.213-2.717-0.447-0.48-0.408-1.831-0.408-1.831s-0.591 1.445 0.092 2.632c0.629 1.094 0.178 2.407 0.373 3.934-0.198 0.056-0.393 0.118-0.586 0.185l-3.065-5.778 1.918 6.251c-0.239 0.116-0.472 0.242-0.701 0.375-0.268-0.255-0.661-0.701-1.025-1.409-0.707-1.372-1.767-1.866-2.161-2.046-0.597-0.272-1.078-1.536-1.078-1.536s0.007 1.561 1.092 2.396c1 0.77 1.086 2.157 1.851 3.494-0.16 0.128-0.317 0.259-0.47 0.395l-5.044-4.167 4.167 5.044c-0.176 0.197-0.345 0.402-0.506 0.612-0.345-0.133-0.879-0.395-1.487-0.909-1.178-0.997-2.347-1.048-2.779-1.063-0.655-0.023-1.583-1.006-1.583-1.006s0.604 1.439 1.926 1.796c1.092 0.295 1.699 1.327 2.691 2.217h19.337c0.267-0.255 0.668-0.575 1.259-0.88z"></path>
<path fill="#ffe15a" d="M29.978 31.998l2.022-1.072-3.494 1.072z"></path>
<path fill="#ffe15a" d="M0.004 30.925l2.022 1.072h1.473z"></path>
</svg>
