<!-- Generated by IcoMoon.io -->
<svg version="1.1" xmlns="http://www.w3.org/2000/svg" width="32" height="32" viewBox="0 0 32 32">
<title>burkina-faso</title>
<path fill="#ff4b55" d="M0 0h32v16h-32v-16z"></path>
<path fill="#73af00" d="M0 16h32v16h-32v-16z"></path>
<path fill="#ffe15a" d="M16.259 11.407l1.059 3.177 3.349 0.026c0.259 0.002 0.367 0.333 0.158 0.487l-2.694 1.989 1.010 3.193c0.078 0.247-0.203 0.452-0.414 0.301l-2.724-1.947-2.724 1.947c-0.211 0.151-0.493-0.054-0.414-0.301l1.010-3.193-2.694-1.989c-0.209-0.154-0.101-0.485 0.158-0.487l3.349-0.026 1.059-3.177c0.082-0.246 0.43-0.246 0.512 0z"></path>
</svg>
