<svg xmlns="http://www.w3.org/2000/svg" width="32" height="32" version="1.1" viewBox="0 0 32 32"><title>burundi</title><path fill="#73af00" d="M0 0.005h32v31.991h-32v-31.991z"/><path fill="#ff4b55" d="M0 0v3l15.828 10.6 16.172-10.601v-2.999z"/><path fill="#ff4b55" d="M32 32v-3.008l-15.997-10.471-16.003 10.485v2.994z"/><path fill="#f5f5f5" d="M23.245 18.224c0.217-0.705 0.334-1.453 0.334-2.229s-0.118-1.524-0.334-2.229l8.755-5.736v-5.032l-11.067 7.25c-1.326-1.138-3.046-1.831-4.93-1.831s-3.604 0.692-4.93 1.831l-11.073-7.273v5.052l8.761 5.738c-0.217 0.705-0.334 1.453-0.334 2.229s0.118 1.524 0.334 2.229l-8.761 5.739v5.042l11.073-7.264c1.326 1.138 3.046 1.831 4.93 1.831s3.605-0.692 4.93-1.831l11.067 7.251v-5.032l-8.755-5.736z"/><path fill="#ff4b55" d="M15.458 13.572l-1.142 0.030 0.596-0.974-0.596-0.974 1.142 0.030 0.545-1.004 0.546 1.004 1.142-0.030-0.596 0.974 0.596 0.974-1.142-0.030-0.546 1.004z"/><path fill="#73af00" d="M16.003 10.944l0.471 0.867 0.987-0.025-0.515 0.842 0.515 0.842-0.987-0.025-0.471 0.867-0.471-0.867-0.987 0.025 0.515-0.842-0.515-0.842 0.987 0.025 0.471-0.867zM16.003 10.415l-0.62 1.139-1.297-0.033 0.677 1.106-0.677 1.106 1.297-0.033 0.62 1.139 0.619-1.139 1.297 0.033-0.677-1.106 0.677-1.106-1.297 0.033-0.619-1.139z"/><path fill="#ff4b55" d="M12.323 19.152l-1.142 0.030 0.596-0.974-0.596-0.974 1.142 0.030 0.545-1.004 0.546 1.004 1.142-0.030-0.596 0.974 0.596 0.974-1.142-0.030-0.546 1.004z"/><path fill="#73af00" d="M12.868 16.524l0.471 0.867 0.987-0.025-0.515 0.842 0.515 0.842-0.987-0.025-0.471 0.867-0.471-0.867-0.987 0.025 0.515-0.842-0.515-0.842 0.987 0.025 0.471-0.867zM12.868 15.995l-0.62 1.139-1.297-0.033 0.677 1.106-0.677 1.106 1.297-0.033 0.62 1.139 0.62-1.139 1.297 0.033-0.677-1.106 0.677-1.106-1.297 0.033-0.62-1.139z"/><path fill="#ff4b55" d="M18.593 19.152l-1.142 0.030 0.596-0.974-0.596-0.974 1.142 0.030 0.545-1.004 0.546 1.004 1.142-0.030-0.596 0.974 0.596 0.974-1.142-0.030-0.546 1.004z"/><path fill="#73af00" d="M19.138 16.524l0.471 0.867 0.987-0.025-0.515 0.842 0.515 0.842-0.987-0.025-0.471 0.867-0.471-0.867-0.987 0.025 0.515-0.842-0.515-0.842 0.987 0.025 0.471-0.867zM19.138 15.995l-0.619 1.139-1.297-0.033 0.677 1.106-0.677 1.106 1.297-0.033 0.619 1.139 0.619-1.139 1.297 0.033-0.677-1.106 0.677-1.106-1.297 0.033-0.619-1.139z"/></svg>