<svg xmlns="http://www.w3.org/2000/svg" width="32" height="32" version="1.1" viewBox="0 0 32 32"><title>cambodia</title><path fill="#41479b" d="M0 0h32v32h-32v-32z"/><path fill="#ff4b55" d="M0 7.579h32v16.842h-32v-16.842z"/><path fill="#f5f5f5" d="M27.144 22.385v-1.194h-0.398v-0.796h-0.398v-0.796h-0.398v-0.796h-1.194v-2.388h-0l0.398-0.398v-1.194h-0.398v-0.796h-0.398v-1.194h-0.398v-0.796h-0.398v-0.796h-0.398v-0.398h-0.796v0.398h-0.398v0.796h-0.398v0.796h-0.398v1.194h-0.398v0.796h-2.388v-1.194h-0.398v-1.194h-0.398v-1.194h-0.398v-0.796h-0.398v-0.796h-0.398v-0.398h-0.199v-0.398h-0.398v0.398h-0.199v0.398h-0.398v0.796h-0.398v0.796h-0.398v1.194h-0.398v1.194h-0.398v1.194h-2.388v-0.796h-0.398v-1.194h-0.398v-0.796h-0.398v-0.796h-0.398v-0.398h-0.796v0.398h-0.398v0.796h-0.398v0.796h-0.398v1.194h-0.398v0.796h-0.398v1.194l0.398 0.398v2.388h-1.194v0.796h-0.398v0.796h-0.398v0.796h-0.398v1.194h-0.398v1.194h23.083v-1.194z"/></svg>