<!-- Generated by IcoMoon.io -->
<svg version="1.1" xmlns="http://www.w3.org/2000/svg" width="32" height="32" viewBox="0 0 32 32">
<title>cameroon</title>
<path fill="#73af00" d="M0 0h10.667v32h-10.667v-32z"></path>
<path fill="#ff4b55" d="M10.667 0h10.667v32h-10.667v-32z"></path>
<path fill="#ffe15a" d="M21.333 0h10.667v32h-10.667v-32z"></path>
<path fill="#ffe15a" d="M16.152 13.316l0.629 1.886 1.988 0.015c0.154 0.001 0.218 0.198 0.094 0.289l-1.599 1.181 0.6 1.896c0.046 0.147-0.121 0.268-0.246 0.179l-1.618-1.156-1.618 1.156c-0.125 0.090-0.293-0.032-0.246-0.179l0.6-1.896-1.599-1.181c-0.124-0.091-0.060-0.288 0.094-0.289l1.988-0.015 0.629-1.886c0.049-0.146 0.255-0.146 0.304 0z"></path>
</svg>
