<!-- Generated by IcoMoon.io -->
<svg version="1.1" xmlns="http://www.w3.org/2000/svg" width="32" height="32" viewBox="0 0 32 32">
<title>cape-verde</title>
<path fill="#41479b" d="M0 0h32v32h-32v-32z"></path>
<path fill="#f5f5f5" d="M0 18.526h32v2.246h-32v-2.246z"></path>
<path fill="#f5f5f5" d="M0 23.017h32v2.246h-32v-2.246z"></path>
<path fill="#ff4b55" d="M0 20.772h32v2.246h-32v-2.246z"></path>
<path fill="#ffe15a" d="M11.592 13.965l0.258 0.774 0.816 0.006c0.063 0.001 0.089 0.081 0.039 0.119l-0.657 0.485 0.246 0.778c0.019 0.060-0.050 0.11-0.101 0.073l-0.664-0.475-0.664 0.475c-0.051 0.037-0.12-0.013-0.101-0.073l0.246-0.778-0.657-0.485c-0.051-0.038-0.025-0.118 0.039-0.119l0.816-0.006 0.258-0.774c0.020-0.060 0.105-0.060 0.125 0z"></path>
<path fill="#ffe15a" d="M11.592 27.573l0.258 0.774 0.816 0.006c0.063 0 0.089 0.081 0.039 0.119l-0.657 0.485 0.246 0.778c0.019 0.060-0.050 0.11-0.101 0.073l-0.664-0.475-0.664 0.475c-0.051 0.037-0.12-0.013-0.101-0.073l0.246-0.778-0.657-0.485c-0.051-0.038-0.025-0.118 0.039-0.119l0.816-0.006 0.258-0.774c0.020-0.060 0.105-0.060 0.125 0z"></path>
<path fill="#ffe15a" d="M7.174 28.334l0.656-0.485 0.672 0.464c0.052 0.036 0.12-0.015 0.1-0.075l-0.259-0.774 0.649-0.495c0.050-0.038 0.023-0.119-0.040-0.118l-0.816 0.007-0.271-0.77c-0.021-0.060-0.106-0.058-0.125 0.002l-0.246 0.779-0.816 0.019c-0.063 0.002-0.088 0.083-0.037 0.119l0.664 0.474-0.234 0.782c-0.018 0.061 0.051 0.109 0.102 0.072z"></path>
<path fill="#ffe15a" d="M8.487 17.271l-0.667-0.471-0.662 0.478c-0.051 0.037-0.12-0.012-0.101-0.073l0.242-0.78-0.659-0.482c-0.051-0.037-0.025-0.118 0.038-0.119l0.816-0.010 0.254-0.776c0.020-0.060 0.105-0.060 0.125-0.001l0.262 0.773 0.816 0.002c0.063 0 0.090 0.081 0.039 0.119l-0.654 0.488 0.25 0.777c0.019 0.060-0.049 0.11-0.101 0.074z"></path>
<path fill="#ffe15a" d="M14.635 17.281l0.656-0.485 0.672 0.464c0.052 0.036 0.12-0.015 0.1-0.075l-0.259-0.774 0.649-0.495c0.050-0.038 0.023-0.119-0.041-0.118l-0.816 0.007-0.271-0.77c-0.021-0.060-0.106-0.058-0.125 0.002l-0.246 0.778-0.816 0.019c-0.063 0.002-0.088 0.083-0.037 0.119l0.664 0.474-0.234 0.782c-0.018 0.061 0.051 0.109 0.102 0.072z"></path>
<path fill="#ffe15a" d="M15.948 28.324l-0.667-0.471-0.662 0.478c-0.051 0.037-0.12-0.012-0.101-0.073l0.242-0.78-0.659-0.482c-0.051-0.037-0.025-0.118 0.038-0.119l0.816-0.010 0.254-0.776c0.020-0.060 0.105-0.061 0.125-0.001l0.262 0.773 0.816 0.002c0.063 0 0.090 0.081 0.039 0.119l-0.654 0.488 0.25 0.777c0.019 0.060-0.049 0.11-0.101 0.074z"></path>
<path fill="#ffe15a" d="M6.198 23.567l-0.816 0.005-0.269-0.771c-0.021-0.060-0.106-0.058-0.125 0.002l-0.247 0.778-0.816 0.018c-0.063 0.001-0.088 0.082-0.037 0.119l0.664 0.475-0.235 0.782c-0.018 0.061 0.051 0.109 0.102 0.072l0.657-0.484 0.671 0.465c0.052 0.036 0.12-0.015 0.1-0.075l-0.257-0.775 0.65-0.494c0.050-0.038 0.023-0.119-0.040-0.118z"></path>
<path fill="#ffe15a" d="M3.924 19.371l0.816-0.015 0.25-0.777c0.019-0.060 0.104-0.061 0.125-0.001l0.267 0.771 0.816-0.003c0.063-0 0.090 0.080 0.040 0.118l-0.651 0.492 0.255 0.776c0.020 0.060-0.048 0.111-0.1 0.075l-0.669-0.467-0.659 0.482c-0.051 0.037-0.12-0.012-0.102-0.072l0.238-0.781-0.662-0.478c-0.051-0.037-0.026-0.118 0.037-0.119z"></path>
<path fill="#ffe15a" d="M19.133 19.341l-0.816 0.005-0.269-0.771c-0.021-0.060-0.106-0.058-0.125 0.002l-0.247 0.778-0.816 0.018c-0.063 0.001-0.088 0.082-0.037 0.119l0.664 0.475-0.235 0.782c-0.018 0.061 0.051 0.109 0.102 0.072l0.657-0.484 0.671 0.465c0.052 0.036 0.12-0.015 0.1-0.075l-0.257-0.775 0.65-0.494c0.050-0.038 0.023-0.119-0.040-0.118z"></path>
<path fill="#ffe15a" d="M16.859 23.598l0.816-0.015 0.25-0.777c0.019-0.060 0.104-0.061 0.125-0.001l0.267 0.771 0.816-0.003c0.063-0 0.090 0.080 0.040 0.118l-0.651 0.492 0.255 0.776c0.020 0.060-0.048 0.111-0.1 0.075l-0.669-0.467-0.659 0.482c-0.051 0.037-0.12-0.012-0.102-0.072l0.238-0.781-0.662-0.478c-0.051-0.037-0.026-0.118 0.037-0.119z"></path>
</svg>
