<svg xmlns="http://www.w3.org/2000/svg" width="32" height="32" version="1.1" viewBox="0 0 32 32"><title>central-african-republic</title><path fill="#ffe15a" d="M0 24h32v8h-32v-8z"/><path fill="#73af00" d="M0 16h32v8h-32v-8z"/><path fill="#f5f5f5" d="M0 8h32v8h-32v-8z"/><path fill="#41479b" d="M0 0h32v8h-32v-8z"/><path fill="#ff4b55" d="M12 0h8v32h-8v-32z"/><path fill="#ffe15a" d="M5.691 1.078l0.703 2.107 2.221 0.017c0.172 0.001 0.243 0.221 0.105 0.323l-1.787 1.319 0.67 2.118c0.052 0.164-0.135 0.3-0.275 0.2l-1.807-1.292-1.807 1.292c-0.14 0.1-0.327-0.036-0.275-0.2l0.67-2.118-1.787-1.319c-0.138-0.102-0.067-0.322 0.105-0.323l2.221-0.017 0.703-2.107c0.054-0.163 0.285-0.163 0.34 0z"/></svg>