<svg xmlns="http://www.w3.org/2000/svg" width="32" height="32" version="1.1" viewBox="0 0 32 32"><title>ceuta</title><path fill="#f5f5f5" d="M0.003 0.002h31.997v31.997h-31.997v-31.997z"/><path fill="#464655" d="M16.002 16v-15.998h-15.447c-0.134 0-0.253 0.082-0.348 0.204l15.795 15.795z"/><path fill="#464655" d="M31.997 0.002l-15.995 15.998h15.998z"/><path fill="#464655" d="M0 31.998l16.002-15.998h-15.998z"/><path fill="#464655" d="M16.002 16v15.998h15.995z"/><path fill="#ff4b55" d="M18.022 14.821v2.694c0 1.114-0.907 2.021-2.021 2.021s-2.021-0.907-2.021-2.021v-2.694h4.042zM18.696 13.474h-5.389c-0.372 0-0.674 0.302-0.674 0.674v3.368c0 1.86 1.508 3.368 3.368 3.368s3.368-1.508 3.368-3.368v-3.368c-0-0.372-0.302-0.674-0.674-0.674v0z"/><path fill="#f5f5f5" d="M18.022 14.821v2.694c0 1.114-0.907 2.021-2.021 2.021s-2.021-0.907-2.021-2.021v-2.694h4.042z"/><path fill="#ffe15a" d="M13.571 13.932c0.222 0.342-0.143 0.706-0.484 0.484-0.021-0.014-0.040-0.032-0.053-0.053-0.222-0.342 0.143-0.706 0.484-0.484 0.021 0.014 0.040 0.032 0.053 0.053z"/><path fill="#ffe15a" d="M18.96 13.932c0.222 0.342-0.143 0.706-0.484 0.484-0.021-0.014-0.040-0.032-0.053-0.053-0.222-0.342 0.143-0.706 0.484-0.484 0.021 0.014 0.040 0.032 0.053 0.053z"/><path fill="#ffe15a" d="M13.571 16.627c0.222 0.342-0.143 0.706-0.484 0.484-0.021-0.014-0.040-0.032-0.053-0.053-0.222-0.342 0.143-0.706 0.484-0.484 0.021 0.014 0.040 0.032 0.053 0.053z"/><path fill="#ffe15a" d="M18.96 16.627c0.222 0.342-0.143 0.706-0.484 0.484-0.021-0.014-0.040-0.032-0.053-0.053-0.222-0.342 0.143-0.706 0.484-0.484 0.021 0.014 0.040 0.032 0.053 0.053z"/><path fill="#ffe15a" d="M16.265 13.932c0.222 0.342-0.143 0.706-0.484 0.484-0.021-0.014-0.040-0.032-0.053-0.053-0.222-0.342 0.143-0.706 0.484-0.484 0.021 0.014 0.040 0.032 0.053 0.053z"/><path fill="#ffe15a" d="M16.265 20.021c0.222 0.342-0.143 0.706-0.484 0.484-0.021-0.014-0.040-0.032-0.053-0.053-0.222-0.342 0.143-0.706 0.484-0.484 0.021 0.014 0.040 0.032 0.053 0.053z"/><path fill="#ffe15a" d="M18.287 19.111c0.222 0.342-0.143 0.706-0.484 0.484-0.021-0.014-0.040-0.032-0.053-0.053-0.222-0.342 0.143-0.706 0.484-0.484 0.021 0.014 0.040 0.032 0.053 0.053z"/><path fill="#ffe15a" d="M14.283 19.111c0.222 0.342-0.143 0.706-0.484 0.484-0.021-0.014-0.040-0.032-0.053-0.053-0.222-0.342 0.143-0.706 0.484-0.484 0.021 0.014 0.040 0.032 0.053 0.053z"/><path fill="#41479b" d="M16.437 16.671v0.58c0 0.24-0.195 0.435-0.435 0.435s-0.435-0.195-0.435-0.435v-0.58h0.87z"/><path fill="#41479b" d="M16.437 15.296v0.58c0 0.24-0.195 0.435-0.435 0.435s-0.435-0.195-0.435-0.435v-0.58h0.87z"/><path fill="#41479b" d="M16.437 18.061v0.58c0 0.24-0.195 0.435-0.435 0.435s-0.435-0.195-0.435-0.435v-0.58h0.87z"/><path fill="#41479b" d="M17.608 16.671v0.58c0 0.24-0.195 0.435-0.435 0.435s-0.435-0.195-0.435-0.435v-0.58h0.87z"/><path fill="#41479b" d="M15.265 16.671v0.58c0 0.24-0.195 0.435-0.435 0.435s-0.435-0.195-0.435-0.435v-0.58h0.87z"/><path fill="#ffe15a" d="M19.423 13.474h-6.81c-0.13 0-0.235-0.105-0.235-0.235v-0.57c0-0.13 0.105-0.235 0.235-0.235h6.81c0.13 0 0.235 0.105 0.235 0.235v0.57c-0 0.13-0.105 0.235-0.235 0.235z"/><path fill="#ff4b55" d="M16.018 12.694l-0.52 0.26 0.52 0.26 0.52-0.26z"/><path fill="#4173cd" d="M18.099 12.954c0 0.144-0.175 0.26-0.39 0.26s-0.39-0.116-0.39-0.26c0-0.144 0.175-0.26 0.39-0.26s0.39 0.116 0.39 0.26z"/><path fill="#4173cd" d="M14.718 12.954c0 0.144-0.175 0.26-0.39 0.26s-0.39-0.116-0.39-0.26c0-0.144 0.175-0.26 0.39-0.26s0.39 0.116 0.39 0.26z"/><path fill="#f5f5f5" d="M17.034 12.874c0.081 0.13-0.056 0.267-0.186 0.186-0.010-0.006-0.019-0.015-0.025-0.025-0.081-0.13 0.056-0.267 0.186-0.186 0.010 0.006 0.019 0.015 0.025 0.025z"/><path fill="#f5f5f5" d="M18.594 12.874c0.081 0.13-0.056 0.267-0.186 0.186-0.010-0.006-0.019-0.015-0.025-0.025-0.081-0.13 0.056-0.267 0.186-0.186 0.010 0.006 0.019 0.015 0.025 0.025z"/><path fill="#f5f5f5" d="M15.214 12.874c0.081 0.13-0.056 0.267-0.186 0.186-0.010-0.006-0.019-0.015-0.025-0.025-0.081-0.13 0.056-0.267 0.186-0.186 0.010 0.006 0.019 0.015 0.025 0.025z"/><path fill="#f5f5f5" d="M13.654 12.874c0.081 0.13-0.056 0.267-0.186 0.186-0.010-0.006-0.019-0.015-0.025-0.025-0.081-0.13 0.056-0.267 0.186-0.186 0.010 0.006 0.019 0.015 0.025 0.025z"/><path fill="#ff4b55" d="M12.378 12.824v0.26l0.26 0.13 0.52-0.26-0.52-0.26z"/><path fill="#ff4b55" d="M19.659 13.084v-0.26l-0.26-0.13-0.52 0.26 0.52 0.26z"/><path fill="#f5f5f5" d="M14.288 10.742c-0.083-0.041-0.182-0.016-0.265 0.049 0.043-0.063 0.067-0.147 0.062-0.239-0.009-0.186-0.133-0.331-0.277-0.324s-0.252 0.164-0.243 0.35c0.005 0.099 0.044 0.184 0.099 0.243-0.112-0.055-0.235-0.049-0.309 0.026-0.102 0.101-0.077 0.291 0.055 0.422s0.321 0.156 0.422 0.055c0.028-0.028 0.045-0.064 0.054-0.103 0.021 0.054 0.053 0.102 0.103 0.127 0.129 0.063 0.3-0.021 0.382-0.188s0.045-0.354-0.084-0.417zM13.905 10.93c-0.019 0.039-0.030 0.078-0.037 0.117-0.019-0.051-0.047-0.102-0.091-0.146-0.008-0.008-0.017-0.011-0.025-0.018 0.028 0.012 0.058 0.020 0.090 0.019 0.042-0.002 0.079-0.020 0.113-0.045-0.018 0.023-0.037 0.045-0.051 0.073z"/><path fill="#f5f5f5" d="M17.631 11.16c0.082 0.167 0.253 0.251 0.382 0.188 0.051-0.025 0.082-0.072 0.103-0.127 0.009 0.039 0.025 0.075 0.054 0.103 0.102 0.102 0.291 0.077 0.422-0.055s0.156-0.321 0.055-0.422c-0.075-0.075-0.197-0.080-0.309-0.026 0.055-0.059 0.094-0.144 0.099-0.243 0.009-0.186-0.099-0.343-0.243-0.35s-0.267 0.138-0.277 0.324c-0.005 0.092 0.020 0.176 0.062 0.239-0.083-0.064-0.182-0.089-0.265-0.049-0.129 0.063-0.166 0.25-0.084 0.417zM18.047 10.857c0.034 0.025 0.071 0.043 0.113 0.045 0.031 0.002 0.061-0.007 0.090-0.019-0.008 0.007-0.017 0.011-0.025 0.018-0.044 0.044-0.071 0.095-0.091 0.146-0.007-0.039-0.018-0.079-0.037-0.117-0.014-0.028-0.033-0.050-0.051-0.073z"/><path fill="#ffe15a" d="M20.747 9.978c-0.375-0.133-1.163-0.205-1.462 0.476-0.058 0.132 0.002 0.285 0.133 0.343 0.127 0.056 0.273 0.001 0.335-0.122l0.098 0.116c-0.082 0.23-0.115 0.437-0.124 0.508-0.134 0.555-0.649 0.615-0.865 0.615-0.349 0-0.546-0.374-0.548-0.378-0.036-0.069-0.101-0.119-0.176-0.135s-0.155 0.001-0.216 0.049c-0.142 0.112-0.586 0.414-0.92 0.468-0.161 0.026-0.293-0.001-0.382-0.077-0.072-0.061-0.098-0.139-0.098-0.186 0-0.117 0.143-0.26 0.26-0.26 0.088 0 0.122 0.057 0.122 0.057 0.062 0.131 0.217 0.186 0.346 0.124s0.185-0.217 0.124-0.346c-0.050-0.107-0.189-0.271-0.418-0.331 0.139-0.22 0.266-0.488 0.345-0.804l-0.78-0.26c0 0 0.26-0.78-0.52-0.78s-0.52 0.78-0.52 0.78l-0.78 0.26c0.079 0.316 0.207 0.584 0.345 0.804-0.228 0.060-0.367 0.224-0.418 0.331-0.061 0.13-0.006 0.285 0.124 0.346s0.285 0.006 0.346-0.124c0 0 0.034-0.057 0.123-0.057 0.117 0 0.26 0.143 0.26 0.26 0 0.047-0.025 0.125-0.098 0.186-0.089 0.076-0.22 0.103-0.382 0.077-0.334-0.053-0.778-0.356-0.92-0.468-0.061-0.048-0.14-0.065-0.216-0.049s-0.141 0.067-0.176 0.135c-0.002 0.004-0.199 0.378-0.548 0.378-0.216 0-0.731-0.060-0.865-0.615-0.009-0.071-0.042-0.277-0.124-0.508l0.098-0.116c0.062 0.123 0.208 0.178 0.335 0.122 0.131-0.058 0.191-0.211 0.133-0.343-0.3-0.681-1.088-0.609-1.463-0.476-0.107 0.038-0.177 0.141-0.173 0.255s0.082 0.211 0.192 0.241c0.319 0.086 0.462 0.695 0.486 0.901 0.001 0.009 0.003 0.018 0.005 0.027 0.145 0.636 0.672 1.031 1.375 1.031 0.403 0 0.681-0.228 0.843-0.417 0.228 0.15 0.594 0.359 0.937 0.414 0.066 0.010 0.13 0.016 0.193 0.016 0.235 0 0.446-0.072 0.608-0.211 0.175-0.15 0.28-0.367 0.28-0.582 0 0.215 0.105 0.432 0.28 0.582 0.162 0.138 0.373 0.211 0.608 0.211 0.063 0 0.127-0.005 0.193-0.016 0.342-0.054 0.709-0.264 0.936-0.414 0.162 0.189 0.44 0.417 0.843 0.417 0.703 0 1.23-0.395 1.375-1.031 0.002-0.009 0.004-0.018 0.005-0.027 0.025-0.207 0.168-0.815 0.486-0.901 0.11-0.030 0.188-0.127 0.192-0.241s-0.066-0.217-0.173-0.255z"/><path fill="#4173cd" d="M11.395 10.974c-0.083-0.199-0.042-0.405 0.091-0.46s0.307 0.062 0.39 0.261c0.083 0.199 0.042 0.405-0.091 0.46s-0.307-0.062-0.39-0.261z"/><path fill="#4173cd" d="M20.609 10.973c-0.083 0.199-0.257 0.316-0.39 0.261s-0.173-0.261-0.091-0.46c0.083-0.199 0.257-0.316 0.39-0.261s0.173 0.261 0.091 0.46z"/><path fill="#4173cd" d="M16.391 10.613c0 0.287-0.175 0.52-0.39 0.52s-0.39-0.233-0.39-0.52c0-0.287 0.175-0.52 0.39-0.52s0.39 0.233 0.39 0.52z"/></svg>