<!-- Generated by IcoMoon.io -->
<svg version="1.1" xmlns="http://www.w3.org/2000/svg" width="32" height="32" viewBox="0 0 32 32">
<title>chile</title>
<path fill="#f5f5f5" d="M0 0h32v16h-32v-16z"></path>
<path fill="#ff4b55" d="M1.103 16v-0.842h-1.103v16.842h32v-16z"></path>
<path fill="#41479b" d="M0 0h16v16h-16v-16z"></path>
<path fill="#f5f5f5" d="M8.324 4.408l0.803 2.407 2.537 0.020c0.329 0.003 0.465 0.422 0.2 0.617l-2.041 1.507 0.765 2.419c0.099 0.313-0.258 0.572-0.525 0.381l-2.064-1.476-2.064 1.476c-0.267 0.191-0.624-0.068-0.525-0.381l0.765-2.419-2.041-1.507c-0.264-0.195-0.128-0.614 0.2-0.617l2.537-0.020 0.803-2.407c0.104-0.312 0.545-0.312 0.649-0z"></path>
</svg>
