<svg xmlns="http://www.w3.org/2000/svg" width="32" height="32" version="1.1" viewBox="0 0 32 32"><title>comoros</title><path fill="#ffe15a" d="M0 0h32v8h-32v-8z"/><path fill="#f5f5f5" d="M0 8h32v8h-32v-8z"/><path fill="#ff4b55" d="M0 16h32v8h-32v-8z"/><path fill="#4173cd" d="M0 24h32v8h-32v-8z"/><path fill="#73af00" d="M0 32l15.83-15.564c0.226-0.223 0.226-0.65 0-0.873l-15.83-15.564v32z"/><path fill="#f5f5f5" d="M3.986 16c0-2.656 1.736-4.903 4.134-5.677 0.126-0.041 0.108-0.225-0.023-0.242-0.247-0.032-0.498-0.050-0.754-0.050-3.296 0-5.968 2.672-5.968 5.968s2.672 5.968 5.968 5.968c0.256 0 0.507-0.017 0.754-0.050 0.131-0.017 0.149-0.201 0.023-0.242-2.398-0.774-4.134-3.021-4.134-5.677z"/><path fill="#f5f5f5" d="M8.151 11.441l0.164 0.493 0.519 0.004c0.067 0.001 0.095 0.086 0.041 0.126l-0.418 0.309 0.157 0.495c0.020 0.064-0.053 0.117-0.107 0.078l-0.422-0.302-0.422 0.302c-0.055 0.039-0.128-0.014-0.107-0.078l0.157-0.495-0.418-0.309c-0.054-0.040-0.026-0.126 0.041-0.126l0.519-0.004 0.164-0.493c0.021-0.064 0.111-0.064 0.133 0z"/><path fill="#f5f5f5" d="M8.151 13.938l0.164 0.493 0.519 0.004c0.067 0.001 0.095 0.086 0.041 0.126l-0.418 0.309 0.157 0.495c0.020 0.064-0.053 0.117-0.107 0.078l-0.422-0.302-0.422 0.302c-0.055 0.039-0.128-0.014-0.107-0.078l0.157-0.495-0.418-0.309c-0.054-0.040-0.026-0.126 0.041-0.126l0.519-0.004 0.164-0.493c0.021-0.064 0.111-0.064 0.133 0z"/><path fill="#f5f5f5" d="M8.151 16.434l0.164 0.493 0.519 0.004c0.067 0 0.095 0.086 0.041 0.126l-0.418 0.308 0.157 0.495c0.020 0.064-0.053 0.117-0.107 0.078l-0.422-0.302-0.422 0.302c-0.055 0.039-0.128-0.014-0.107-0.078l0.157-0.495-0.418-0.308c-0.054-0.040-0.026-0.126 0.041-0.126l0.519-0.004 0.164-0.493c0.021-0.064 0.111-0.064 0.133 0z"/><path fill="#f5f5f5" d="M8.151 18.931l0.164 0.493 0.519 0.004c0.067 0 0.095 0.086 0.041 0.126l-0.418 0.308 0.157 0.495c0.020 0.064-0.053 0.117-0.107 0.078l-0.422-0.302-0.422 0.302c-0.055 0.039-0.128-0.014-0.107-0.078l0.157-0.495-0.418-0.308c-0.054-0.040-0.026-0.126 0.041-0.126l0.519-0.004 0.164-0.493c0.021-0.064 0.111-0.064 0.133 0z"/></svg>