<svg xmlns="http://www.w3.org/2000/svg" width="32" height="32" version="1.1" viewBox="0 0 32 32"><title>cook-islands</title><path fill="#41479b" d="M0 0h32v32h-32v-32z"/><path fill="#41479b" d="M5.895 0.003h-5.895v1.249l5.895 3.862z"/><path fill="#41479b" d="M0 4.272v1.626h2.482z"/><path fill="#41479b" d="M0 10.108v1.626l2.482-1.626z"/><path fill="#41479b" d="M16 1.251v-1.249h-5.895v5.111z"/><path fill="#41479b" d="M16 11.734v-1.626h-2.482z"/><path fill="#41479b" d="M10.105 10.892v5.111h5.895v-1.249z"/><path fill="#41479b" d="M16 5.898v-1.626l-2.482 1.626z"/><path fill="#41479b" d="M0 14.754v1.249h5.895v-5.111z"/><path fill="#f5f5f5" d="M16 14.754v-1.248l-5.236-3.398h1.547l3.689 2.394v-0.768l-2.482-1.626h2.482v-0.842h-6.737v6.737h0.842v-5.111z"/><path fill="#f5f5f5" d="M0 9.266v0.842h2.482l-2.482 1.626v1.181l4.325-2.807h1.547l-5.872 3.811v0.835l5.895-3.862v5.111h0.842v-6.737z"/><path fill="#f5f5f5" d="M6.737 0.003h-0.842v5.111l-5.895-3.862v1.366l5.053 3.28h-1.547l-3.506-2.276v0.65l2.482 1.626h-2.482v0.842h6.737z"/><path fill="#f5f5f5" d="M16 6.74v-0.842h-2.482l2.482-1.626v-1.196l-4.348 2.822h-1.547l5.895-3.826v-0.82l-5.895 3.862v-5.111h-0.842v6.737z"/><path fill="#ff4b55" d="M16 9.266v-2.526h-6.737v-6.737h-2.526v6.737h-6.737v2.526h6.737v6.737h2.526v-6.737z"/><path fill="#ff4b55" d="M4.325 10.108l-4.325 2.807v1.004l5.872-3.811z"/><path fill="#ff4b55" d="M10.764 10.108l5.236 3.398v-1.004l-3.689-2.394z"/><path fill="#ff4b55" d="M5.053 5.898l-5.053-3.28v1.004l3.506 2.276z"/><path fill="#ff4b55" d="M11.652 5.898l4.348-2.822v-1.004l-5.895 3.826z"/><path fill="#f5f5f5" d="M19.99 15.894l0.46 0.502 0.624-0.272c0.048-0.021 0.096 0.032 0.070 0.077l-0.336 0.592 0.452 0.51c0.035 0.040-0 0.101-0.052 0.090l-0.667-0.136-0.345 0.587c-0.027 0.046-0.096 0.031-0.102-0.022l-0.076-0.677-0.665-0.147c-0.052-0.011-0.059-0.082-0.011-0.104l0.62-0.282-0.066-0.678c-0.005-0.053 0.059-0.081 0.095-0.042z"/><path fill="#f5f5f5" d="M17.669 17.798l0.624 0.272 0.46-0.503c0.036-0.039 0.1-0.010 0.095 0.042l-0.066 0.678 0.62 0.282c0.048 0.022 0.041 0.092-0.011 0.104l-0.665 0.147-0.076 0.677c-0.006 0.052-0.075 0.067-0.102 0.022l-0.345-0.587-0.667 0.136c-0.052 0.011-0.087-0.051-0.052-0.090l0.452-0.51-0.336-0.592c-0.026-0.046 0.021-0.098 0.070-0.077z"/><path fill="#f5f5f5" d="M16.322 20.481l0.681-0.005 0.215-0.646c0.017-0.050 0.087-0.050 0.104 0l0.215 0.646 0.681 0.005c0.053 0 0.075 0.068 0.032 0.099l-0.548 0.404 0.205 0.649c0.016 0.050-0.041 0.092-0.084 0.061l-0.554-0.396-0.554 0.396c-0.043 0.031-0.1-0.011-0.084-0.061l0.205-0.649-0.548-0.404c-0.043-0.031-0.021-0.099 0.032-0.099z"/><path fill="#f5f5f5" d="M16.183 23.48l0.62-0.282-0.066-0.678c-0.005-0.052 0.060-0.081 0.095-0.042l0.46 0.503 0.624-0.272c0.048-0.021 0.096 0.032 0.070 0.077l-0.336 0.592 0.452 0.51c0.035 0.040-0 0.101-0.052 0.090l-0.667-0.136-0.345 0.587c-0.027 0.046-0.096 0.031-0.102-0.022l-0.076-0.677-0.665-0.147c-0.052-0.011-0.059-0.082-0.011-0.104z"/><path fill="#f5f5f5" d="M17.275 26.276l0.452-0.51-0.336-0.592c-0.026-0.046 0.021-0.099 0.070-0.077l0.624 0.272 0.46-0.503c0.036-0.039 0.1-0.010 0.095 0.042l-0.066 0.678 0.62 0.282c0.048 0.022 0.041 0.092-0.011 0.104l-0.665 0.147-0.076 0.677c-0.006 0.052-0.075 0.067-0.102 0.022l-0.345-0.587-0.667 0.136c-0.052 0.011-0.087-0.051-0.052-0.090z"/><path fill="#f5f5f5" d="M19.411 28.387l0.205-0.649-0.548-0.404c-0.042-0.031-0.021-0.099 0.032-0.099l0.681-0.005 0.215-0.646c0.017-0.050 0.087-0.050 0.104 0l0.215 0.646 0.681 0.005c0.053 0 0.075 0.068 0.032 0.099l-0.548 0.404 0.205 0.649c0.016 0.050-0.041 0.092-0.084 0.061l-0.554-0.396-0.554 0.396c-0.043 0.031-0.1-0.011-0.084-0.061z"/><path fill="#f5f5f5" d="M22.22 29.446l-0.076-0.677-0.665-0.147c-0.052-0.011-0.059-0.082-0.011-0.104l0.62-0.282-0.066-0.678c-0.005-0.052 0.060-0.081 0.095-0.042l0.46 0.503 0.624-0.272c0.048-0.021 0.096 0.032 0.070 0.077l-0.336 0.592 0.452 0.51c0.035 0.040-0 0.101-0.052 0.090l-0.667-0.136-0.345 0.587c-0.027 0.045-0.096 0.031-0.102-0.022z"/><path fill="#f5f5f5" d="M25.218 29.27l-0.345-0.587-0.667 0.136c-0.052 0.011-0.087-0.051-0.052-0.090l0.452-0.51-0.336-0.592c-0.026-0.046 0.021-0.099 0.070-0.077l0.624 0.272 0.46-0.503c0.036-0.039 0.1-0.010 0.095 0.042l-0.066 0.678 0.62 0.282c0.048 0.022 0.041 0.092-0.011 0.104l-0.665 0.147-0.076 0.677c-0.006 0.052-0.075 0.067-0.102 0.022z"/><path fill="#f5f5f5" d="M27.884 27.891l-0.554-0.396-0.554 0.396c-0.043 0.031-0.1-0.011-0.084-0.061l0.205-0.649-0.548-0.404c-0.042-0.031-0.021-0.099 0.032-0.099l0.681-0.005 0.215-0.646c0.017-0.050 0.087-0.050 0.104 0l0.215 0.646 0.681 0.005c0.053 0 0.075 0.068 0.032 0.099l-0.548 0.404 0.205 0.649c0.016 0.050-0.041 0.092-0.084 0.061z"/><path fill="#f5f5f5" d="M29.76 25.547l-0.667-0.136-0.345 0.587c-0.027 0.046-0.096 0.031-0.102-0.022l-0.076-0.677-0.665-0.147c-0.052-0.011-0.059-0.082-0.011-0.104l0.62-0.282-0.066-0.678c-0.005-0.052 0.060-0.081 0.095-0.042l0.46 0.503 0.624-0.272c0.048-0.021 0.096 0.032 0.070 0.077l-0.336 0.592 0.452 0.51c0.035 0.039-0 0.101-0.052 0.090z"/><path fill="#f5f5f5" d="M30.519 22.642l-0.665 0.147-0.076 0.677c-0.006 0.052-0.075 0.067-0.102 0.022l-0.345-0.587-0.667 0.136c-0.052 0.011-0.087-0.051-0.052-0.090l0.452-0.51-0.336-0.592c-0.026-0.046 0.021-0.099 0.070-0.077l0.624 0.272 0.46-0.503c0.036-0.039 0.1-0.010 0.095 0.042l-0.066 0.678 0.62 0.282c0.048 0.022 0.041 0.092-0.011 0.104z"/><path fill="#f5f5f5" d="M30.032 19.68l-0.548 0.404 0.205 0.649c0.016 0.050-0.041 0.092-0.084 0.061l-0.554-0.396-0.554 0.396c-0.043 0.031-0.1-0.011-0.084-0.061l0.205-0.649-0.548-0.404c-0.042-0.031-0.021-0.099 0.032-0.099l0.681-0.005 0.215-0.646c0.017-0.050 0.087-0.050 0.104 0l0.215 0.646 0.681 0.005c0.053 0 0.074 0.068 0.032 0.099z"/><path fill="#f5f5f5" d="M28.382 17.172l-0.336 0.592 0.452 0.51c0.035 0.040-0 0.101-0.052 0.090l-0.667-0.136-0.345 0.587c-0.027 0.046-0.096 0.031-0.102-0.022l-0.076-0.677-0.665-0.147c-0.052-0.011-0.059-0.082-0.011-0.104l0.62-0.282-0.066-0.678c-0.005-0.052 0.060-0.081 0.095-0.042l0.46 0.503 0.624-0.272c0.048-0.021 0.096 0.032 0.070 0.077z"/><path fill="#f5f5f5" d="M25.854 15.552l-0.066 0.678 0.62 0.282c0.048 0.022 0.041 0.092-0.011 0.104l-0.665 0.147-0.076 0.677c-0.006 0.052-0.075 0.067-0.102 0.022l-0.345-0.587-0.667 0.136c-0.052 0.011-0.087-0.051-0.052-0.090l0.452-0.51-0.336-0.592c-0.026-0.046 0.021-0.098 0.070-0.077l0.624 0.272 0.46-0.502c0.036-0.039 0.1-0.010 0.095 0.042z"/><path fill="#f5f5f5" d="M22.886 15.1l0.215 0.646 0.681 0.005c0.053 0 0.075 0.068 0.032 0.099l-0.548 0.405 0.205 0.649c0.016 0.050-0.041 0.092-0.084 0.061l-0.554-0.396-0.554 0.396c-0.043 0.031-0.1-0.011-0.084-0.061l0.205-0.649-0.548-0.405c-0.042-0.031-0.021-0.099 0.032-0.099l0.681-0.005 0.215-0.646c0.017-0.050 0.087-0.050 0.104 0z"/></svg>