<svg xmlns="http://www.w3.org/2000/svg" width="32" height="32" version="1.1" viewBox="0 0 32 32"><title>cuba</title><path fill="#41479b" d="M0 0h32v6.4h-32v-6.4z"/><path fill="#41479b" d="M0 25.6h32v6.4h-32v-6.4z"/><path fill="#f5f5f5" d="M0 6.4h32v6.4h-32v-6.4z"/><path fill="#41479b" d="M0 12.8h32v6.4h-32v-6.4z"/><path fill="#f5f5f5" d="M0 19.2h32v6.4h-32v-6.4z"/><path fill="#ff4b55" d="M0 32l15.869-15.631c0.174-0.172 0.174-0.567 0-0.739l-15.869-15.631v32z"/><path fill="#f5f5f5" d="M6.422 11.94l0.865 2.592 2.733 0.021c0.212 0.002 0.3 0.272 0.129 0.398l-2.198 1.623 0.824 2.605c0.064 0.202-0.166 0.369-0.338 0.246l-2.223-1.589-2.223 1.589c-0.172 0.123-0.402-0.044-0.338-0.246l0.824-2.605-2.198-1.623c-0.17-0.126-0.083-0.396 0.129-0.398l2.733-0.021 0.865-2.592c0.067-0.201 0.351-0.201 0.418 0z"/></svg>