<!-- Generated by IcoMoon.io -->
<svg version="1.1" xmlns="http://www.w3.org/2000/svg" width="32" height="32" viewBox="0 0 32 32">
<title>democratic-republic-of-congo</title>
<path fill="#82afff" d="M0 0h32v32h-32v-32z"></path>
<path fill="#ffe15a" d="M29.867 0l-29.867 23.579v1.684l32-25.263z"></path>
<path fill="#ffe15a" d="M2.133 32l29.867-23.579v-1.684l-32 25.263z"></path>
<path fill="#ff4b55" d="M32 0l-32 25.263v6.737l32-25.263z"></path>
<path fill="#ffe15a" d="M7.668 3.817l0.795 2.383 2.512 0.019c0.14 0.001 0.199 0.18 0.086 0.264l-2.021 1.492 0.758 2.396c0.042 0.134-0.11 0.245-0.224 0.163l-2.044-1.461-2.044 1.461c-0.114 0.082-0.267-0.029-0.224-0.163l0.758-2.396-2.021-1.492c-0.113-0.083-0.055-0.263 0.086-0.264l2.512-0.019 0.795-2.383c0.044-0.133 0.233-0.133 0.277 0z"></path>
</svg>
