<svg xmlns="http://www.w3.org/2000/svg" width="32" height="32" version="1.1" viewBox="0 0 32 32"><title>djibouti</title><path fill="#82afff" d="M0 0h32v16h-32v-16z"/><path fill="#73af00" d="M0 16h32v16h-32v-16z"/><path fill="#f5f5f5" d="M0 32l16-16-16-16z"/><path fill="#ff4b55" d="M3.76 19.492l0.758-2.587-2.202-1.554c-0.121-0.085-0.063-0.275 0.084-0.279l2.694-0.079 0.798-2.575c0.044-0.141 0.242-0.145 0.292-0.006l0.907 2.538 2.695-0.037c0.148-0.002 0.213 0.185 0.096 0.275l-2.134 1.647 0.868 2.552c0.048 0.14-0.11 0.26-0.232 0.177l-2.226-1.52-2.159 1.614c-0.118 0.088-0.281-0.025-0.24-0.166z"/></svg>