<!-- Generated by IcoMoon.io -->
<svg version="1.1" xmlns="http://www.w3.org/2000/svg" width="32" height="32" viewBox="0 0 32 32">
<title>dominican-republic</title>
<path fill="#f5f5f5" d="M0 0h32v32h-32v-32z"></path>
<path fill="#41479b" d="M0 0h12.631v12.631h-12.631v-12.631z"></path>
<path fill="#41479b" d="M19.368 19.368h12.631v12.631h-12.631v-12.631z"></path>
<path fill="#ff4b55" d="M19.368 0h12.631v12.631h-12.631v-12.631z"></path>
<path fill="#ff4b55" d="M0 19.368h12.631v12.631h-12.631v-12.631z"></path>
<path fill="#64b496" d="M15.517 18.401c0 0 0.503 0.184 0.438 0.816l0.203-0.004c0 0-0.128-0.73-0.234-0.817s-0.406 0.005-0.406 0.005z"></path>
<path fill="#64b496" d="M16.021 18.304c-0.213 0-0.586-0-0.979-0.106 0.087-0.091 0.208-0.274 0.208-0.594 0-0.501-0.345-0.181-0.345-0.181s-0.227 0.191-0.090 0.701c-0.134-0.051-0.266-0.117-0.393-0.201 0.079-0.099 0.236-0.329 0.327-0.694 0 0-0.575-0.114-0.732 0.319-0.096-0.122-0.179-0.26-0.248-0.412 0.148 0.002 0.354-0.096 0.354-0.658 0 0-0.375 0.001-0.476 0.326-0.039-0.136-0.070-0.282-0.092-0.436 0.15 0.044 0.537 0.075 0.537-0.766 0 0-0.465 0.001-0.573 0.413-0.006-0.105-0.008-0.214-0.007-0.327 0.226-0.118 0.538-0.378 0.505-0.912 0 0-0.215 0.049-0.411 0.214 0.039-0.202 0.023-0.499-0.288-0.746 0 0-0.285 0.505 0.131 0.914-0.036 0.051-0.068 0.109-0.094 0.173-0.094-0.143-0.244-0.275-0.485-0.356 0 0-0.111 0.676 0.52 0.959 0.015 0.395 0.077 0.743 0.183 1.047-0.181-0.159-0.327-0.378-0.327-0.378 0-0.751-0.616-0.77-0.616-0.77-0.115 0.857 0.519 0.892 0.519 0.892l0.347 0.379c-0.751-0.125-0.751 0.501-0.751 0.501 0.501 0.125 0.751-0.125 0.751-0.125l0.271 0.139c-0.48 0.014-0.646 0.487-0.646 0.487 0.604 0.101 1.045-0.041 1.195-0.101 0.608 0.425 1.357 0.426 1.703 0.426v-0.125z"></path>
<path fill="#64b496" d="M15.978 18.304c0.213 0 0.586-0 0.979-0.106-0.087-0.091-0.208-0.274-0.208-0.594 0-0.501 0.345-0.181 0.345-0.181s0.227 0.191 0.090 0.701c0.134-0.051 0.266-0.117 0.393-0.201-0.079-0.099-0.236-0.329-0.327-0.694 0 0 0.575-0.114 0.732 0.319 0.096-0.122 0.179-0.26 0.248-0.412-0.148 0.002-0.354-0.096-0.354-0.658 0 0 0.375 0.001 0.476 0.326 0.039-0.136 0.070-0.282 0.092-0.436-0.15 0.044-0.537 0.075-0.537-0.766 0 0 0.465 0.001 0.573 0.413 0.006-0.105 0.008-0.214 0.007-0.327-0.226-0.118-0.538-0.378-0.505-0.912 0 0 0.215 0.049 0.411 0.214-0.039-0.202-0.023-0.499 0.288-0.746 0 0 0.285 0.505-0.131 0.914 0.036 0.051 0.068 0.109 0.094 0.173 0.094-0.143 0.244-0.275 0.485-0.356 0 0 0.111 0.676-0.52 0.959-0.015 0.395-0.077 0.743-0.183 1.047 0.181-0.159 0.327-0.378 0.327-0.378 0-0.751 0.616-0.77 0.616-0.77 0.115 0.857-0.519 0.892-0.519 0.892l-0.347 0.379c0.751-0.125 0.751 0.501 0.751 0.501-0.501 0.125-0.751-0.125-0.751-0.125l-0.271 0.139c0.48 0.014 0.646 0.487 0.646 0.487-0.604 0.101-1.045-0.041-1.195-0.101-0.608 0.425-1.357 0.426-1.703 0.426v-0.125h-0z"></path>
<path fill="#41479b" d="M13.888 12.848c-0.44 0.282-0.828 0.641-1.141 1.065 0.134 0.099 0.269 0.198 0.403 0.297 0.276-0.374 0.618-0.691 1.006-0.94l-0.269-0.422z"></path>
<path fill="#ff6b71" d="M16.001 16.102h1.752v1.001c0 0.276-0.224 0.501-0.501 0.501h-0.751c-0.206 0-0.387 0.101-0.501 0.254v-1.756h0z"></path>
<path fill="#5f64b9" d="M16.377 14.975v-1.377h1.877l-0.501 0.501v1.377h-1.377z"></path>
<path fill="#f5f5f5" d="M17.128 15.476h0.626v0.626h-0.626v-0.626z"></path>
<path fill="#ff6b71" d="M16.001 16.102h-1.752v1.001c0 0.276 0.224 0.501 0.501 0.501h0.751c0.206 0 0.387 0.101 0.501 0.254v-1.756z"></path>
<path fill="#f5f5f5" d="M15.688 17.634c0.125 0.040 0.233 0.118 0.31 0.22h0.006c0.077-0.102 0.185-0.18 0.31-0.22v-1.031h-0.626v1.031z"></path>
<path fill="#5f64b9" d="M15.626 14.975v-1.377h-1.877l0.501 0.501v1.377h1.377z"></path>
<path fill="#f5f5f5" d="M14.249 15.476h0.626v0.626h-0.626v-0.626z"></path>
<path fill="#41479b" d="M14.875 14.224v0.376l0.376 0.25v-0.25z"></path>
<path fill="#f5f5f5" d="M15.251 14.6v0.375l0.501 0.25v-0.125z"></path>
<path fill="#41479b" d="M17.128 14.224v0.376l-0.375 0.25v-0.25z"></path>
<path fill="#f5f5f5" d="M16.752 14.6v0.375l-0.501 0.25v-0.125z"></path>
<path fill="#ff4b55" d="M16.757 16.978h-1.51c-0.343 0-0.621-0.28-0.621-0.626v-1.936l1.386 0.934 1.367-0.934v1.936c-0 0.346-0.278 0.626-0.622 0.626z"></path>
<path fill="#41479b" d="M15.125 14.725l-0.501-0.375v1.377l0.501 0.25z"></path>
<path fill="#41479b" d="M16.878 14.725l0.501-0.375v1.377l-0.501 0.25z"></path>
<path fill="#41479b" d="M15.251 15.976h1.502v0.626h-1.502v-0.626z"></path>
<path fill="#ff4b55" d="M15.251 14.85l0.751 0.375 0.751-0.375v1.126h-1.502z"></path>
<path fill="#f5f5f5" d="M16.565 14.968v1.258c0 0.104-0.084 0.188-0.188 0.188h-0.751c-0.104 0-0.188-0.084-0.188-0.188v-1.253l-0.375-0.251v1.505c0 0.311 0.253 0.563 0.563 0.563h0.751c0.311 0 0.563-0.253 0.563-0.563v-1.513l-0.375 0.255z"></path>
<path fill="#f5f5f5" d="M16.696 15.843c-0.211 0.019-0.448 0.040-0.694 0.126-0.246-0.086-0.483-0.107-0.694-0.126-0.353-0.032-0.562-0.063-0.682-0.275v0.361c0.184 0.12 0.417 0.142 0.659 0.163 0.218 0.020 0.443 0.040 0.672 0.127l0.044 0.017 0.044-0.017c0.23-0.087 0.455-0.107 0.672-0.127 0.243-0.022 0.476-0.043 0.66-0.163v-0.362c-0.12 0.213-0.329 0.244-0.682 0.276z"></path>
<path fill="#ffe15a" d="M16.252 14.662h-0.188v-0.188h-0.125v0.188h-0.188v0.125h0.188v0.563h0.125v-0.563h0.188z"></path>
<path fill="#464655" d="M14.768 14.163l0.069-0.069 1.1 1.1-0.069 0.069-1.1-1.1z"></path>
<path fill="#ffe15a" d="M14.596 13.922l0.137 0.275 0.137-0.137z"></path>
<path fill="#464655" d="M15.010 13.973l0.079-0.057 0.916 1.257-0.079 0.057-0.916-1.257z"></path>
<path fill="#ffe15a" d="M14.877 13.709l0.093 0.293 0.157-0.114z"></path>
<path fill="#464655" d="M14.562 14.404l0.056-0.080 1.275 0.89-0.056 0.080-1.275-0.89z"></path>
<path fill="#ffe15a" d="M14.351 14.198l0.184 0.247 0.111-0.159z"></path>
<path fill="#464655" d="M16.135 15.263l-0.069-0.069 1.1-1.1 0.069 0.069-1.1 1.1z"></path>
<path fill="#ffe15a" d="M17.407 13.922l-0.137 0.275-0.137-0.137z"></path>
<path fill="#464655" d="M16.077 15.23l-0.079-0.057 0.916-1.257 0.079 0.057-0.916 1.257z"></path>
<path fill="#ffe15a" d="M17.125 13.709l-0.093 0.293-0.157-0.114z"></path>
<path fill="#464655" d="M16.166 15.295l-0.056-0.080 1.275-0.89 0.056 0.080-1.275 0.89z"></path>
<path fill="#ffe15a" d="M17.652 14.198l-0.183 0.247-0.111-0.159z"></path>
<path fill="#f5f5f5" d="M15.938 17.568c0 0-0.484-0.52-0.39-0.997 0.075-0.384 0.305-0.807 0.484-0.91 0 0 0.253-0.016 0.19 0.205s-0.141 0.277-0.118 0.494c0.039 0.375 0.1 0.821-0.165 1.208z"></path>
<path fill="#41479b" d="M16.085 15.664c-0.030-0.004-0.053-0.003-0.053-0.003-0.179 0.103-0.408 0.526-0.484 0.91-0.043 0.217 0.034 0.442 0.131 0.624-0.061-0.787 0.169-1.066 0.406-1.531z"></path>
<path fill="#ff4b55" d="M16.103 16.36c-0.023-0.217 0.055-0.274 0.118-0.494 0.044-0.154-0.066-0.193-0.137-0.202 0 0-0.162 0.371-0.172 0.62-0.009 0.219 0.047 1.111 0.025 1.284 0.265-0.387 0.204-0.833 0.165-1.208z"></path>
<path fill="#f5f0f0" d="M15.775 15.85c0.101-0.098 0.243-0.142 0.381-0.118-0.066-0.212-0.132-0.424-0.197-0.636-0.139-0.024-0.281 0.020-0.381 0.118 0.066 0.212 0.132 0.424 0.197 0.636z"></path>
<path fill="#f5f5f5" d="M16.156 15.731c0.101-0.098 0.243-0.142 0.381-0.118-0.066-0.212-0.132-0.424-0.198-0.636-0.139-0.024-0.281 0.020-0.381 0.118 0.066 0.212 0.132 0.424 0.198 0.636z"></path>
<path fill="#5f64b9" d="M15.43 12.981c-0.679-0.016-1.35 0.151-1.943 0.484-0.082-0.146-0.163-0.291-0.245-0.437 0.671-0.376 1.431-0.565 2.2-0.548-0.004 0.167-0.008 0.334-0.012 0.501z"></path>
<path fill="#41479b" d="M18.115 12.848c0.44 0.282 0.828 0.641 1.141 1.065-0.134 0.099-0.269 0.198-0.403 0.297-0.276-0.374-0.618-0.691-1.006-0.94l0.269-0.422z"></path>
<path fill="#5f64b9" d="M16.573 12.981c0.679-0.016 1.35 0.151 1.943 0.484 0.082-0.146 0.163-0.291 0.245-0.437-0.671-0.376-1.431-0.565-2.2-0.548 0.004 0.167 0.008 0.334 0.012 0.501z"></path>
<path fill="#41479b" d="M17.003 12.848c-0.655-0.179-1.347-0.179-2.002 0-0.044-0.161-0.088-0.322-0.132-0.483 0.742-0.203 1.525-0.203 2.267 0-0.044 0.161-0.088 0.322-0.132 0.483z"></path>
<path fill="#ff6b71" d="M14.324 18.457c-0.54 0.141-1.068 0.331-1.577 0.571 0.071 0.151 0.142 0.302 0.213 0.453 0.491-0.231 1.001-0.414 1.523-0.548l-0.159-0.476z"></path>
<path fill="#ff6b71" d="M17.679 18.457c0.54 0.141 1.068 0.331 1.577 0.571-0.071 0.151-0.142 0.302-0.213 0.453-0.491-0.231-1.001-0.414-1.523-0.548l0.159-0.476z"></path>
<path fill="#ff4b55" d="M18.015 18.844c-1.316-0.316-2.689-0.316-4.005 0-0.039-0.162-0.078-0.325-0.117-0.487 1.393-0.334 2.846-0.334 4.239 0-0.039 0.162-0.078 0.325-0.117 0.487z"></path>
<path fill="#ff4b55" d="M16.001 18.98l-0.345 0.086c-0.079 0.020-0.155-0.040-0.155-0.121v-0.18c0-0.081 0.076-0.141 0.155-0.121l0.345 0.086v0.25z"></path>
<path fill="#ff4b55" d="M16.001 18.73l0.345-0.086c0.079-0.020 0.155 0.040 0.155 0.121v0.18c0 0.081-0.076 0.141-0.155 0.121l-0.345-0.086v-0.25z"></path>
<path fill="#ff6b71" d="M16.028 18.98h-0.054c-0.054 0-0.098-0.044-0.098-0.098v-0.054c0-0.054 0.044-0.098 0.098-0.098h0.054c0.054 0 0.098 0.044 0.098 0.098v0.054c0 0.054-0.044 0.098-0.098 0.098z"></path>
</svg>
