<!-- Generated by IcoMoon.io -->
<svg version="1.1" xmlns="http://www.w3.org/2000/svg" width="32" height="32" viewBox="0 0 32 32">
<title>east-timor</title>
<path fill="#ff4b55" d="M0 0h32v32h-32v-32z"></path>
<path fill="#ffe15a" d="M21.625 16.523c0.321-0.23 0.321-0.816 0-1.046l-21.625-15.477v32c0 0 21.64-15.478 21.625-15.477z"></path>
<path fill="#464655" d="M0 32l14.725-15.421c0.287-0.3 0.287-0.858 0-1.159l-14.725-15.421v32z"></path>
<path fill="#f5f5f5" d="M4.258 11.471l0.080 3.031-2.842 1.057c-0.272 0.101-0.259 0.491 0.020 0.574l2.907 0.86 0.127 3.029c0.012 0.291 0.387 0.398 0.552 0.159l1.717-2.499 2.92 0.815c0.28 0.078 0.498-0.245 0.321-0.476l-1.846-2.405 1.678-2.526c0.161-0.242-0.079-0.55-0.353-0.453l-2.858 1.013-1.883-2.376c-0.181-0.228-0.547-0.095-0.54 0.196z"></path>
</svg>
