<svg xmlns="http://www.w3.org/2000/svg" width="32" height="32" version="1.1" viewBox="0 0 32 32"><title>equatorial-guinea</title><path fill="#73af00" d="M0 0h32v10.667h-32v-10.667z"/><path fill="#ff4b55" d="M0 21.333h32v10.667h-32v-10.667z"/><path fill="#f5f5f5" d="M0 10.667h32v10.667h-32v-10.667z"/><path fill="#4173cd" d="M8.687 15.267l-8.687-15.267v32l8.687-15.267c0.244-0.43 0.244-1.036 0-1.466z"/><path fill="#b46446" d="M15.798 16.753c0 0.021-0.007 2-0.513 2.974h1.423c-0.506-0.974-0.513-2.954-0.513-2.974 0-0.682 0.707-1.224 0.714-1.229l-0.238-0.317c-0.019 0.014-0.254 0.194-0.476 0.488v-0.528h-0.397v0.528c-0.222-0.293-0.457-0.474-0.476-0.488l-0.238 0.317c0.007 0.005 0.714 0.547 0.714 1.229z"/><path fill="#73af00" d="M17.979 14.374c-0.012 0-0.023 0.003-0.035 0.004-0.081-0.232-0.3-0.4-0.56-0.4-0.094 0-0.181 0.024-0.26 0.062-0.084-0.154-0.246-0.261-0.434-0.261-0.054 0-0.105 0.011-0.154 0.027-0.105-0.249-0.352-0.423-0.639-0.423-0.353 0-0.641 0.265-0.685 0.606-0.035-0.006-0.071-0.011-0.108-0.011-0.383 0-0.694 0.311-0.694 0.694 0 0.045 0.005 0.089 0.013 0.131-0.176 0.058-0.314 0.194-0.374 0.368-0.012-0.001-0.023-0.004-0.035-0.004-0.219 0-0.397 0.178-0.397 0.397s0.178 0.397 0.397 0.397c0.101 0 0.193-0.039 0.263-0.101 0.095 0.064 0.209 0.101 0.332 0.101 0.109 0 0.21-0.031 0.297-0.082 0.088 0.051 0.188 0.082 0.297 0.082 0.329 0 0.595-0.266 0.595-0.595 0-0.025-0.004-0.049-0.007-0.073 0.092 0.046 0.195 0.073 0.305 0.073 0.138 0 0.266-0.041 0.374-0.111 0.101 0.183 0.294 0.309 0.519 0.309 0.048 0 0.095-0.007 0.139-0.018 0.109 0.131 0.271 0.216 0.455 0.216 0.178 0 0.335-0.079 0.444-0.203 0.306-0.025 0.547-0.278 0.547-0.59-0-0.329-0.266-0.595-0.595-0.595z"/><path fill="#5fa000" d="M17.384 14.87c0-0.021 0.004-0.040 0.006-0.060-0.106 0.098-0.247 0.159-0.403 0.159-0.207 0-0.389-0.106-0.496-0.267-0.107 0.161-0.288 0.267-0.496 0.267-0.159 0-0.303-0.063-0.41-0.165-0.062 0.32-0.343 0.562-0.681 0.562-0.034 0-0.067-0.005-0.1-0.010 0 0.003 0.001 0.007 0.001 0.010 0 0.259-0.167 0.477-0.398 0.559 0.063 0.022 0.13 0.036 0.2 0.036 0.109 0 0.21-0.031 0.297-0.082 0.088 0.051 0.188 0.082 0.297 0.082 0.329 0 0.595-0.266 0.595-0.595 0-0.025-0.004-0.049-0.007-0.073 0.092 0.046 0.195 0.073 0.305 0.073 0.138 0 0.266-0.041 0.374-0.111 0.101 0.183 0.294 0.309 0.519 0.309 0.048 0 0.095-0.007 0.139-0.018 0.109 0.131 0.271 0.216 0.455 0.216 0.178 0 0.335-0.079 0.444-0.203l0.001-0c-0.36-0.026-0.644-0.323-0.644-0.689z"/><path fill="#464655" d="M15.996 20.991c-0.032 0-0.060-0.020-0.070-0.050-0.008-0.022-0.194-0.544-0.921-0.544h-0.991c-0.588 0-1.066-0.478-1.066-1.066v-6.543c0-0.041 0.033-0.074 0.074-0.074h6.146c0.041 0 0.074 0.033 0.074 0.074v6.543c0 0.588-0.478 1.066-1.066 1.066h-1.19c-0.731 0-0.919 0.538-0.921 0.544-0.010 0.030-0.038 0.051-0.070 0.051h-0zM13.096 12.862v6.469c0 0.506 0.411 0.917 0.917 0.917h0.991c0.588 0 0.873 0.316 0.991 0.506 0.118-0.19 0.403-0.506 0.991-0.506h1.19c0.506 0 0.917-0.411 0.917-0.917v-6.469h-5.998z"/><path fill="#ffe15a" d="M15.235 11.020l0.188 0.302 0.355 0.012-0.167 0.314 0.167 0.314-0.355 0.012-0.188 0.302-0.188-0.302-0.355-0.012 0.167-0.314-0.167-0.314 0.355-0.012z"/><path fill="#ffe15a" d="M13.56 11.293l0.254 0.249 0.348-0.071-0.089 0.344 0.236 0.266-0.343 0.095-0.113 0.337-0.254-0.249-0.348 0.071 0.089-0.344-0.236-0.266 0.343-0.095z"/><path fill="#ffe15a" d="M11.953 11.769l0.301 0.189 0.325-0.145-0.013 0.355 0.288 0.209-0.314 0.167-0.037 0.354-0.301-0.189-0.325 0.145 0.013-0.355-0.288-0.209 0.314-0.167z"/><path fill="#ffe15a" d="M16.765 11.020l-0.188 0.302-0.355 0.012 0.167 0.314-0.167 0.314 0.355 0.012 0.188 0.302 0.188-0.302 0.355-0.012-0.167-0.314 0.167-0.314-0.355-0.012z"/><path fill="#ffe15a" d="M18.44 11.293l-0.254 0.249-0.348-0.071 0.089 0.344-0.236 0.266 0.343 0.095 0.113 0.337 0.254-0.249 0.348 0.071-0.089-0.344 0.236-0.266-0.343-0.095z"/><path fill="#ffe15a" d="M20.047 11.769l-0.301 0.189-0.325-0.145 0.013 0.355-0.288 0.209 0.314 0.167 0.037 0.354 0.301-0.189 0.325 0.145-0.013-0.355 0.288-0.209-0.314-0.167z"/></svg>