<!-- Generated by IcoMoon.io -->
<svg version="1.1" xmlns="http://www.w3.org/2000/svg" width="32" height="32" viewBox="0 0 32 32">
<title>eritrea</title>
<path fill="#73af00" d="M0 0h32v16h-32v-16z"></path>
<path fill="#4173cd" d="M0 16h32v16h-32v-16z"></path>
<path fill="#ff4b55" d="M0 0v32l32-16z"></path>
<path fill="#ffe15a" d="M13.055 19.715c0 0 1.858-0.677 2.382-2.71 0 0-0.809 1.049-1.377 1.355 0 0 1.246-1.661 0.983-3.278 0 0-0.153 0.656-0.459 0.918 0 0 0.546-2.338-0.153-3.322 0 0 0.022 0.831-0.284 1.661 0 0 0.117-2.63-1.078-3.3 0 0 0.466 0.831 0.27 1.53 0 0-0.328-1.486-1.85-2.076 0 0-0.095 0.109-0.073 0.437 0 0-0.415-0.503-1.442-0.481 0 0 0.022 0.372 0.284 0.721 0 0-0.415 0.219-0.678 0.153 0 0 0.415 0.459 1.88 0.415 0 0-0.197 0.175-0.59 0.219 0 0 0.598 0.275 1.188 0.328 0.809 0.073 1.129 0.546 1.282 1.136 0 0-0.634-0.372-0.874-0.743 0 0-0.044 0.634 1.158 1.858l-0.612-0.262c0 0 0.393 1.136 0.874 2.426l-0.503-0.546c0 0-0.109 0.918-0.197 2.623l-0.35-0.809c0 0-0.612 2.011-1.552 2.338-0.736 0.257-1.549 0.432-1.869 0.497-0.030-1.125 0.448-1.371 0.448-1.371 0.852 0.044 1.049-0.896 1.049-0.896-0.175 0.175-0.503 0.175-0.503 0.175 0.503-0.524 0.503-1.268 0.503-1.268-0.306 0.59-0.787 0.677-0.787 0.677l0.044-0.59c-0.889 0.646-0.825 1.404-0.811 1.515-0.020-0.142-0.178-1.249-0.26-1.515-0.087-0.284 0.109-0.852 0.415-0.765 0.99 0.283 1.224-0.437 1.224-0.437-0.524 0.24-0.831 0.066-0.831 0.066 0.678-0.656 0.393-1.268 0.393-1.268-0.219 0.634-0.831 0.743-0.831 0.743l-0.022-0.699c-0.284 0.153-0.546 0.831-0.546 0.831s-0.066-0.546 0.131-1.027 0.699-0.24 0.699-0.24c0.896 0.175 1.18-0.678 1.18-0.678l-0.59 0.087c0.656-0.481 0.459-1.071 0.459-1.071-0.153 0.372-0.699 0.437-0.699 0.437l0.262-0.699c-0.568 0-0.896 0.743-0.896 0.743l-0.044-0.721c0.262-0.94-0.35-1.355-0.35-1.355-0.131 0.175-0.066 0.546-0.066 0.546-0.546-0.481-0.962 0.087-0.962 0.087 0.415 0.437 0.809 0.393 0.809 0.393-0.131 0.087-0.612 0.131-0.612 0.131 0.546 0.459 0.852 0.372 0.852 0.372 0.262 1.115-0.437 1.617-0.437 1.617-0.131-0.831-0.634-1.224-0.634-1.224l0.022 0.546c-0.328-0.197-0.59-0.787-0.59-0.787-0.219 0.831 0.372 1.552 0.372 1.552l-0.546-0.044c0.481 1.115 1.246 0.765 1.246 0.765-0.066 0.787 0.197 2.076 0.197 2.076-0.109-0.131-1.268-1.224-1.268-1.224-0.044 0.437 0.372 1.005 0.372 1.005-0.219-0.044-0.852-0.524-0.852-0.524 0.066 0.699 0.984 1.158 0.984 1.158-0.35 0.044-1.027-0.35-1.027-0.35 0.393 1.683 1.836 0.94 1.836 0.94l0.111 2.276c-0.305-0.073-0.971-0.243-1.662-0.484-0.94-0.328-1.552-2.338-1.552-2.338l-0.35 0.809c-0.087-1.705-0.197-2.623-0.197-2.623l-0.503 0.546c0.481-1.289 0.874-2.426 0.874-2.426l-0.612 0.262c1.202-1.224 1.158-1.858 1.158-1.858-0.24 0.372-0.874 0.743-0.874 0.743 0.153-0.59 0.634-1.202 1.224-1.246s1.246-0.219 1.246-0.219c-0.393-0.044-0.59-0.219-0.59-0.219 1.705-0.153 1.88-0.612 1.88-0.612-0.262 0.066-1.071-0.022-1.071-0.022 0.677-0.372 1.792-0.721 1.792-0.721-1.377-0.24-2.557 0.546-2.557 0.546 0.197-0.372 0.546-0.787 0.546-0.787-1.683 0.743-2.47 2.426-2.47 2.426-0.197-0.699 0.27-1.53 0.27-1.53-1.195 0.67-1.078 3.3-1.078 3.3-0.306-0.831-0.284-1.661-0.284-1.661-0.699 0.983-0.153 3.322-0.153 3.322-0.306-0.262-0.459-0.918-0.459-0.918-0.262 1.617 0.984 3.278 0.984 3.278-0.568-0.306-1.377-1.355-1.377-1.355 0.524 2.033 2.382 2.71 2.382 2.71-1.027-0.393-1.464-0.066-1.464-0.066 0.721 0.153 1.421 0.59 1.989 1.005s1.333 0.503 2.011 0.59c0.28 0.036 0.512 0.083 0.691 0.126-0.37 0.181-0.626 0.561-0.626 1.001h2.229c0-0.423-0.236-0.792-0.584-0.98 0.224-0.048 0.522-0.105 0.846-0.146 0.678-0.087 1.385-0.267 2.011-0.59 0.678-0.35 1.268-0.852 1.989-1.005 0 0-0.437-0.328-1.464 0.066z"></path>
</svg>
