<!-- Generated by IcoMoon.io -->
<svg version="1.1" xmlns="http://www.w3.org/2000/svg" width="32" height="32" viewBox="0 0 32 32">
<title>ethiopia</title>
<path fill="#73af00" d="M0 0h32v10.667h-32v-10.667z"></path>
<path fill="#ff4b55" d="M0 21.333h32v10.667h-32v-10.667z"></path>
<path fill="#ffe15a" d="M0 10.667h32v10.667h-32v-10.667z"></path>
<path fill="#4173cd" d="M26.107 16.009c0 5.574-4.525 10.107-10.107 10.107s-10.107-4.533-10.107-10.107c0-5.59 4.525-10.115 10.107-10.115s10.107 4.525 10.107 10.115v0z"></path>
<path fill="#f2dd30" d="M8.313 13.469h5.872l1.329-4.089 0.353 1.097-1.93 5.945-0.575-0.419 0.601-1.847h-4.723l-0.928-0.686zM11.247 22.511l1.815-5.582-3.478-2.533h1.147l5.056 3.67-0.575 0.419-1.575-1.145-1.462 4.501-0.928 0.669zM20.753 22.511l-4.753-3.452-3.476 2.525 0.355-1.081 5.051-3.678 0.216 0.677-1.571 1.137 3.821 2.783 0.357 1.089zM23.687 13.469l-4.749 3.46 1.329 4.090-0.928-0.678-1.928-5.945h0.706l0.601 1.855 3.823-2.783 1.145 0zM16 7.887l1.815 5.582h4.301l-0.93 0.686h-6.247l0.22-0.686h1.948l-1.462-4.493 0.355-1.089z"></path>
<path fill="#f2dd30" d="M16.169 24.092h-0.337v-4.38h0.337v4.38zM23.636 18.655l-4.164-1.347 0.105-0.314 4.166 1.347-0.107 0.314zM8.362 18.655l-0.105-0.314 4.168-1.347 0.103 0.314-4.166 1.347zM18.317 13.106l-0.274-0.194 2.575-3.541 0.268 0.194-2.569 3.541zM13.689 13.106l-2.579-3.541 0.272-0.194 2.573 3.541-0.266 0.194z"></path>
</svg>
