<!-- Generated by IcoMoon.io -->
<svg version="1.1" xmlns="http://www.w3.org/2000/svg" width="32" height="32" viewBox="0 0 32 32">
<title>european-union</title>
<path fill="#41479b" d="M0 0h32v32h-32v-32z"></path>
<path fill="#ffe15a" d="M16.243 6.244l0.267 0.8 0.843 0.007c0.109 0.001 0.154 0.14 0.067 0.205l-0.679 0.501 0.254 0.804c0.033 0.104-0.086 0.19-0.174 0.127l-0.686-0.491-0.686 0.491c-0.089 0.063-0.207-0.023-0.174-0.127l0.254-0.804-0.679-0.501c-0.088-0.065-0.043-0.204 0.067-0.205l0.844-0.007 0.267-0.8c0.035-0.104 0.181-0.104 0.216 0z"></path>
<path fill="#ffe15a" d="M16.243 23.425l0.267 0.8 0.843 0.007c0.109 0.001 0.154 0.14 0.067 0.205l-0.679 0.501 0.254 0.804c0.033 0.104-0.086 0.19-0.174 0.127l-0.686-0.491-0.686 0.491c-0.089 0.064-0.207-0.023-0.174-0.127l0.254-0.804-0.679-0.501c-0.088-0.065-0.043-0.204 0.067-0.205l0.844-0.007 0.267-0.8c0.035-0.104 0.181-0.104 0.216 0z"></path>
<path fill="#ffe15a" d="M24.833 14.834l0.267 0.8 0.843 0.007c0.109 0.001 0.154 0.14 0.067 0.205l-0.679 0.501 0.254 0.804c0.033 0.104-0.086 0.19-0.174 0.127l-0.686-0.491-0.686 0.491c-0.089 0.064-0.207-0.023-0.174-0.127l0.254-0.804-0.679-0.501c-0.088-0.065-0.043-0.204 0.067-0.205l0.843-0.007 0.267-0.8c0.035-0.104 0.181-0.104 0.216 0z"></path>
<path fill="#ffe15a" d="M7.652 14.834l0.267 0.8 0.843 0.007c0.109 0.001 0.155 0.14 0.067 0.205l-0.679 0.501 0.254 0.804c0.033 0.104-0.086 0.19-0.174 0.127l-0.686-0.491-0.686 0.491c-0.089 0.064-0.207-0.023-0.174-0.127l0.254-0.804-0.679-0.501c-0.088-0.065-0.043-0.204 0.067-0.205l0.843-0.007 0.267-0.8c0.035-0.104 0.181-0.104 0.216 0z"></path>
<path fill="#ffe15a" d="M8.942 10.348l0.267 0.8 0.844 0.007c0.109 0.001 0.155 0.14 0.067 0.205l-0.679 0.501 0.254 0.804c0.033 0.104-0.086 0.19-0.174 0.127l-0.686-0.491-0.686 0.491c-0.089 0.063-0.207-0.023-0.174-0.127l0.254-0.804-0.679-0.501c-0.088-0.065-0.043-0.204 0.067-0.205l0.844-0.007 0.267-0.8c0.034-0.104 0.181-0.104 0.216 0z"></path>
<path fill="#ffe15a" d="M23.821 18.939l0.267 0.8 0.843 0.007c0.109 0.001 0.154 0.14 0.067 0.205l-0.679 0.501 0.254 0.804c0.033 0.104-0.086 0.19-0.174 0.127l-0.686-0.491-0.686 0.491c-0.089 0.064-0.207-0.023-0.174-0.127l0.254-0.804-0.679-0.501c-0.088-0.065-0.043-0.204 0.067-0.205l0.843-0.007 0.267-0.8c0.035-0.104 0.181-0.104 0.216 0z"></path>
<path fill="#ffe15a" d="M20.677 7.204l0.267 0.8 0.843 0.007c0.109 0.001 0.154 0.14 0.067 0.205l-0.679 0.501 0.254 0.804c0.033 0.104-0.086 0.19-0.174 0.127l-0.686-0.491-0.686 0.491c-0.089 0.063-0.207-0.023-0.174-0.127l0.254-0.804-0.679-0.501c-0.088-0.065-0.043-0.204 0.067-0.205l0.843-0.007 0.267-0.8c0.035-0.104 0.181-0.104 0.216 0z"></path>
<path fill="#ffe15a" d="M12.086 22.083l0.267 0.8 0.844 0.007c0.109 0.001 0.155 0.14 0.067 0.205l-0.679 0.501 0.254 0.804c0.033 0.104-0.086 0.19-0.174 0.127l-0.686-0.491-0.686 0.491c-0.089 0.064-0.207-0.023-0.174-0.127l0.254-0.804-0.679-0.501c-0.088-0.065-0.043-0.204 0.067-0.205l0.844-0.007 0.267-0.8c0.034-0.104 0.181-0.104 0.216 0z"></path>
<path fill="#ffe15a" d="M23.605 10.348l-0.267 0.8-0.843 0.007c-0.109 0.001-0.154 0.14-0.067 0.205l0.679 0.501-0.254 0.804c-0.033 0.104 0.086 0.19 0.174 0.127l0.686-0.491 0.686 0.491c0.089 0.063 0.207-0.023 0.174-0.127l-0.254-0.804 0.679-0.501c0.088-0.065 0.043-0.204-0.067-0.205l-0.843-0.007-0.267-0.8c-0.035-0.104-0.181-0.104-0.216 0z"></path>
<path fill="#ffe15a" d="M8.726 18.939l-0.267 0.8-0.843 0.007c-0.109 0.001-0.154 0.14-0.067 0.205l0.679 0.501-0.254 0.804c-0.033 0.104 0.086 0.19 0.174 0.127l0.686-0.491 0.686 0.491c0.089 0.064 0.207-0.023 0.174-0.127l-0.254-0.804 0.679-0.501c0.088-0.065 0.043-0.204-0.067-0.205l-0.844-0.007-0.267-0.8c-0.034-0.104-0.181-0.104-0.216 0z"></path>
<path fill="#ffe15a" d="M11.87 7.204l-0.267 0.8-0.844 0.007c-0.109 0.001-0.155 0.14-0.067 0.205l0.679 0.501-0.254 0.804c-0.033 0.104 0.086 0.19 0.174 0.127l0.686-0.491 0.686 0.491c0.089 0.063 0.207-0.023 0.174-0.127l-0.254-0.804 0.679-0.501c0.088-0.065 0.043-0.204-0.067-0.205l-0.844-0.007-0.267-0.8c-0.034-0.104-0.181-0.104-0.216 0z"></path>
<path fill="#ffe15a" d="M20.461 22.083l-0.267 0.8-0.843 0.007c-0.109 0.001-0.154 0.14-0.067 0.205l0.679 0.501-0.254 0.804c-0.033 0.104 0.086 0.19 0.174 0.127l0.686-0.491 0.686 0.491c0.089 0.064 0.207-0.023 0.174-0.127l-0.254-0.804 0.679-0.501c0.088-0.065 0.043-0.204-0.067-0.205l-0.843-0.007-0.267-0.8c-0.035-0.104-0.181-0.104-0.216 0z"></path>
</svg>
