<!-- Generated by IcoMoon.io -->
<svg version="1.1" xmlns="http://www.w3.org/2000/svg" width="32" height="32" viewBox="0 0 32 32">
<title>fiji</title>
<path fill="#82afff" d="M0 0h32v32h-32v-32z"></path>
<path fill="#f5f5f5" d="M18.313 14.9v8.329c0 3.378 4.745 5.114 5.323 5.313 0.578-0.199 5.323-1.938 5.323-5.313v-8.329h-10.646z"></path>
<path fill="#ff4b55" d="M29.147 18.72v-4.008h-11.022v4.008h4.759v3.758h-4.759v1.503h4.759v4.509l0.752 0.25 0.752-0.25v-4.509h4.759v-1.503h-4.759v-3.758z"></path>
<path fill="#f5f5f5" d="M19.879 16.782c0.373 0.619-0.272 1.264-0.892 0.892-0.058-0.035-0.108-0.084-0.143-0.143-0.373-0.619 0.272-1.264 0.892-0.892 0.058 0.035 0.108 0.084 0.143 0.143z"></path>
<path fill="#ffe15a" d="M20.566 16.309c-0.201-0.11-0.562-0.406-0.707-0.356s-0.178 0.153-0.382 0.169c-0.198 0.015-0.511 0.209-0.381 0.423 0.17 0.279 0.701 0.062 0.736-0.068 0 0 0.13 0.021 0.24-0.005 0 0 0.218 0.304 0.489 0.284s0.396-0.356 0.336-0.356-0.331-0.090-0.331-0.090z"></path>
<path fill="#ffe15a" d="M21.399 17.639c-0.045 0.083-0.389 0.377-0.963 0.512-0.128 0.030-0.105 0.181-0.233 0.105s-0.482-0.135-0.798-0.151-0.348-0.308-0.294-0.414c0.069-0.135 0.573-0.217 0.663-0.051s0.158 0.131 0.383 0.179c0.139 0.030 0.143 0.098 0.143 0.098s0.256-0.256 0.474-0.331 0.406-0.241 0.444-0.241 0.233 0.053 0.233 0.053l-0.053 0.241z"></path>
<path fill="#ffe15a" d="M22.234 16.75c0.331 0.12 1.309 0.083 2.356-0.256s1.347-0.399 1.859-0.211c0.512 0.188 0.733-0.406 0.397-0.507-0.528-0.158-2.161 0.791-3.343 0.258 0 0-0.035 0.143 0.003 0.211 0 0-0.858 0.030-0.655-0.858 0 0 0.058 0.324 0.464 0.287 0.767-0.070 0.877 0.47 2.501-0.031 0.902-0.278 1.602-0.142 1.609 0.297 0.008 0.528-0.721 0.651-0.721 0.651s0.283 0.579 0.855 0.324c0.572-0.256 0.602 0.186 0.652 0.336s0.145 0.296 0.271 0.311c0 0 0.090 0.271 0.055 0.306s-0.271 0.331-0.507 0.331-0.748 0-0.748 0-0.135-0.336 0.125-0.341c0.261-0.005 0.577-0.025 0.537-0.166s-0.246-0.206-0.241-0.361c0 0-0.607 0.442-0.983-0.080l-0.010 0.246c0 0-0.457-0.085-0.622-0.452 0 0 0.045 0.411-0.346 0.351 0 0 0.080 0.12 0.216 0.206s-0.005 0.271-0.266 0.426-1.064 0.607-1.43 0.145 0.080-0.727 0.191-0.697c0.11 0.030 0.426 0.517 0.642 0.452s0.321-0.286 0.14-0.421-0.316-0.264-0.202-0.4c0.157-0.188 0.734-0.132 0.714-0.257s-0.557-0.090-0.908 0.261c-0.351 0.351-1.876 1.159-2.483 0.647s-0.123-1.008-0.123-1.008z"></path>
<path fill="#ffd25a" d="M22.039 16.525c0 0 0.459 0.452 1.234 0.595 0 0-0.143 0.218-0.557 0.158 0 0 0.166 0.143 0.278 0.384 0 0-0.263 0.060-0.497-0.068 0 0 0.030 0.196 0.143 0.354 0 0-0.309 0-0.572-0.233l-0.105 0.301c0 0-0.181-0.12-0.294-0.354 0 0-0.211 0.166-0.421 0.166 0 0 0.075-0.226 0.075-0.354 0 0-0.301 0.181-0.549 0.113 0 0 0.008-0.316 0.090-0.406 0 0-0.196 0.023-0.324-0.045 0 0 0.075-0.173 0.113-0.286 0 0-0.211 0.008-0.339-0.113 0 0 0.406-0.158 0.497-0.309l1.227 0.098z"></path>
<path fill="#ffbe5a" d="M21.299 15.26c0.090 0.050 0.236 0.161 0.296 0.346 0 0 0.166-0.241 0.452-0.286 0 0 0.125 0.14 0.090 0.507 0 0 0.316-0.090 0.487 0.075 0 0-0.336 0.075-0.492 0.356 0 0-0.060 0.287 0.045 0.458 0 0-0.117 0.016-0.236-0.036 0 0-0.060 0.286 0 0.376 0 0-0.166-0.020-0.256-0.196 0 0-0.135 0.206-0.125 0.331 0 0-0.181-0.105-0.191-0.261 0 0-0.125 0.236-0.261 0.256 0 0-0.015-0.331-0.075-0.457 0 0-0.115 0.125-0.266 0.12 0 0 0-0.256 0.125-0.376 0 0-0.211 0.065-0.326-0.166 0 0 0.346 0.1 0.431-0.11s0.11-0.276 0.231-0.391c0.12-0.115 0.070-0.547 0.070-0.547z"></path>
<path fill="#ffe15a" d="M22.039 16.231c0 0-0.429 0.82-0.82 0.572-0.429-0.272 0.105-0.911 0.173-0.978 0-0 0.316 0.083 0.647 0.406z"></path>
<path fill="#5abea0" d="M20.491 20.433c0 0-0.045-0.589-0.364-0.759-0.3-0.16-0.478-0.24-0.512-0.445 0 0 0.261 0.12 0.537 0.195 0.249 0.068 0.492 0.489 0.419 0.964l-0.079 0.045z"></path>
<path fill="#b46446" d="M19.483 20.917l0.041 0.075 0.030 0.161-0.059 0.191c0 0 0.235 0.093 0.288 0.412 0.037 0.219 0.133 0.266 0.192 0.221s0.095-0.098 0.033-0.337c-0.079-0.305-0.292-0.596-0.292-0.596l-0.166-0.255-0.067 0.127z"></path>
<path fill="#5abea0" d="M19.716 21.044c-0.214-0.277-0.798-0.854-0.909-0.067 0 0-0.229-0.663 0.199-0.637 0.495 0.030 0.709 0.704 0.709 0.704z"></path>
<path fill="#5abea0" d="M19.524 20.992c-0.185-0.202-0.244-0.352-0.34-0.727s-0.126-0.487-0.236-0.479-0.177 0.127-0.177 0.367c0 0-0.325-0.292-0.103-0.524s0.716-0.105 0.746 0.307 0.022 0.689 0.17 1.034l-0.059 0.022z"></path>
<path fill="#5abea0" d="M19.576 20.812c0 0-0.391-0.861 0.709-1.326 0 0-0.975-0.262-0.857 1.124l0.148 0.202z"></path>
<path fill="#5abea0" d="M19.701 21.119c0 0-0.827-0.315-0.753 0.45 0 0 0.14-0.36 0.547-0.225l0.207-0.225z"></path>
<path fill="#b46446" d="M20.639 20.817c0 0.224 0.088 0.872-0.037 0.954-0.063 0.041-0.24 0.008-0.225-0.15s0.085-0.921 0.085-1.109c-0-0.187 0.177 0.305 0.177 0.305z"></path>
<path fill="#5abea0" d="M20.112 21.337c0.143-0.145 0.187-0.474 0.138-0.914 0 0 0.295 0.205 0.389 0.395 0 0 0.094-0.434-0.212-0.549s-0.468-0.050-0.522 0.090c-0.054 0.14 0.093 0.296 0.158 0.524 0.059 0.21 0.049 0.454 0.049 0.454z"></path>
<path fill="#5abea0" d="M20.619 20.702c0 0 0.049-0.23 0.212-0.325 0 0 0.335 0.235 0.31 0.549 0 0 0.089-0.43-0.094-0.599s-0.389-0.215-0.492-0.065c-0.103 0.15 0.064 0.439 0.064 0.439z"></path>
<path fill="#5abea0" d="M20.698 20.263c0 0 0.103-0.614 0.364-0.749s0.744-0.26 0.773-0.29c0 0-0.576 0.030-0.67 0.030s-0.611 0.375-0.611 0.929 0.049 0.175 0.064 0.17c0.015-0.005 0.079-0.090 0.079-0.090z"></path>
<path fill="#b46446" d="M20.938 21.887c0.059 0.124 0.199 0.154 0.229 0.090s0.163-0.551 0.163-0.551l-0.188-0.090-0.203 0.551z"></path>
<path fill="#5abea0" d="M22.043 19.843c0.231-0.135 0.384 0.265 0.384 0.265 0-0.47-0.148-0.619-0.517-0.439-0.111 0.054-0.193 0.168-0.253 0.299-0.187-0.537-0.599-0.529-0.599-0.529l-0.094 0.065c0.338 0.065 0.531 0.47 0.613 0.69-0.044 0.161-0.065 0.317-0.075 0.407-0.221 0.229-0.361 0.736-0.361 0.736s0.159 0.094 0.188 0.090c0 0 0.103-0.318 0.233-0.311s0.281 0.213 0.284 0.345c0 0 0.192-0.39-0.037-0.539-0.086-0.056-0.155-0.078-0.21-0.079l0.17-0.191c0.277 0.052 0.469 0.315 0.469 0.315 0.006-0.468-0.201-0.56-0.419-0.52 0.039-0.188 0.125-0.545 0.223-0.602z"></path>
<path fill="#b46446" d="M26.602 20.492c0 0.393 0 1.264 0 1.328s-0.281 0.314-0.281 0.314h0.748c0 0-0.24-0.278-0.24-0.314s0.055-1.228 0.055-1.228l-0.281-0.1z"></path>
<path fill="#5abea0" d="M26.65 20.627c-0.178-0.014-0.672 0.393-0.816 1.014 0 0-0.439-0.714 0.658-1.306 0 0-0.487-0.143-1.228 0.628-0.040 0.042-0.075-1.164 1.255-0.842 0 0-0.508-0.735-1.55-0.157 0 0 0.693-1.242 1.715-0.128 0 0 0.007-0.964 0.014-0.864s0.082 0.543 0.082 0.543l0.199-0.35-0.158 0.714c0 0 0.912-1.213 1.687 0.050 0 0-1.001-0.414-1.481 0.050 0 0 1.029-0.278 0.946 0.914 0 0-0.405-0.707-1.063-0.614 0 0 0.775 0.357 0.528 1.321-0 0-0.467-0.945-0.789-0.971z"></path>
<path fill="#5abea0" d="M20.1 24.917c-0.038-0.052-0.092-0.077-0.144-0.083 0.020-0.070 0.034-0.101 0.028-0.152 0.016 0.004 0.031 0.011 0.048 0.013l0.007-0.057c-0.061-0.007-0.127-0.035-0.195-0.076 0.042-0.036 0.073-0.091 0.073-0.159 0-0.074-0.034-0.135-0.082-0.17-0.048 0.035-0.082 0.097-0.082 0.17 0 0.055 0.023 0.1 0.052 0.135-0.025-0.018-0.051-0.038-0.077-0.060-0.007-0.045-0.024-0.091-0.064-0.128-0.055-0.050-0.123-0.066-0.181-0.054-0.006 0.059 0.016 0.126 0.071 0.175 0.042 0.038 0.091 0.051 0.139 0.052 0.011 0.009 0.022 0.018 0.034 0.028-0.033-0.004-0.068-0.001-0.103 0.012-0.069 0.025-0.116 0.078-0.132 0.135 0.049 0.033 0.119 0.044 0.188 0.019 0.060-0.022 0.099-0.066 0.12-0.115 0.041 0.026 0.085 0.047 0.131 0.065l-0.007 0.001c-0.002 0.042 0.001 0.059-0.019 0.136-0.047-0.030-0.108-0.044-0.173-0.025-0.071 0.021-0.12 0.071-0.14 0.127 0.047 0.036 0.116 0.051 0.187 0.030 0.053-0.016 0.089-0.050 0.115-0.089-0.010 0.029-0.022 0.060-0.036 0.090-0.042 0.019-0.081 0.049-0.104 0.098-0.032 0.066-0.029 0.137-0.001 0.189 0.059-0.011 0.116-0.051 0.148-0.117 0.025-0.051 0.023-0.102 0.011-0.148 0.006-0.013 0.011-0.026 0.017-0.041 0.005 0.032 0.019 0.065 0.041 0.095 0.044 0.059 0.108 0.089 0.167 0.089 0.018-0.057 0.009-0.126-0.035-0.186z"></path>
<path fill="#ffecde" d="M19.761 24.732c0.25 0 0.578-0.010 0.568 0.241s-0.289 1.098 0.356 1.358 0.722 0.221 0.722 0.221l0.289 0.664 0.703-0.25-0.674-0.539c0 0-0.058-0.366-0.221-0.616 0 0 0.414-0.212 0.558-0.395l-0.289-0.019c0 0 0.376-0.241 0.549-0.51l-0.202 0.019c0 0 0.231-0.231 0.289-0.501 0 0-0.376 0.376-0.761 0.424 0 0 0.164-0.424 0.202-0.587 0 0-0.289 0.183-0.491 0.26s-0.52 0.087-0.376 0.741c0 0-0.173-0.144-0.279-0.453s-0.144-0.424-0.289-0.424c-0.236 0-0.327 0.212-0.327 0.212l-0.327 0.154z"></path>
<path fill="#b46446" d="M26.868 24.856c0.087-0.116 0.26-0.476 0.411-0.383s0.354 0.325 0.476 0.217c0.123-0.108 0.13-0.245-0.058-0.31s-0.397-0.173-0.527-0.13-0.527 0.455-0.527 0.455l0.224 0.152z"></path>
<path fill="#ffe15a" d="M25.749 25.166c-0.007-0.166 0.105-0.887 0.556-0.794 0.245 0.050 0.366 0.311 0.686 0.433 0.339 0.13 0.556 0.209 0.491 0.433s-0.188 0.491-0.469 0.556-1.263-0.628-1.263-0.628z"></path>
<path fill="#5abea0" d="M25.453 25.761c-0.096 0.019-0.452 0.539-0.029 1.068 0 0 0.52 0.212 0.934-0.116s0.106-0.491 0.106-0.491l-1.011-0.462z"></path>
<path fill="#5abea0" d="M25.49 25.874c-0.043-0.065-0.036-0.113-0.036-0.113s-0.022-0.746 0.289-0.76c0.31-0.014 1.429 0.722 1.429 0.845s-0.361 0.476-0.664 0.549-1.018-0.52-1.018-0.52z"></path>
<path fill="#b46446" d="M24.724 27.678c0 0 0.986-0.443 0.801-0.803-0.134-0.26-0.434-0.093-0.482 0.105-0.059 0.248-0.252 0.593-0.319 0.698z"></path>
<path fill="#464655" d="M23.636 28.938l-0.057-0.018c-0.057-0.018-1.418-0.457-2.802-1.369-1.858-1.224-2.84-2.719-2.84-4.321v-8.705h11.398v8.705c0 1.603-0.982 3.097-2.84 4.321-1.384 0.912-2.745 1.35-2.802 1.369l-0.057 0.018zM18.313 14.9v8.329c0 3.378 4.745 5.114 5.323 5.313 0.578-0.199 5.323-1.938 5.323-5.313v-8.329h-10.646z"></path>
<path fill="#41479b" d="M5.895 0h-5.895v1.249l5.895 3.862z"></path>
<path fill="#41479b" d="M0 4.269v1.626h2.482z"></path>
<path fill="#41479b" d="M0 10.105v1.626l2.482-1.626z"></path>
<path fill="#41479b" d="M16 1.249v-1.249h-5.895v5.111z"></path>
<path fill="#41479b" d="M16 11.731v-1.626h-2.482z"></path>
<path fill="#41479b" d="M10.105 10.889v5.111h5.895v-1.249z"></path>
<path fill="#41479b" d="M16 5.895v-1.626l-2.482 1.626z"></path>
<path fill="#41479b" d="M0 14.751v1.249h5.895v-5.111z"></path>
<path fill="#f5f5f5" d="M16 14.751v-1.248l-5.236-3.398h1.547l3.689 2.394v-0.768l-2.482-1.626h2.482v-0.842h-6.737v6.737h0.842v-5.111z"></path>
<path fill="#f5f5f5" d="M0 9.263v0.842h2.482l-2.482 1.626v1.181l4.325-2.807h1.547l-5.872 3.811v0.835l5.895-3.862v5.111h0.842v-6.737z"></path>
<path fill="#f5f5f5" d="M6.737 0h-0.842v5.111l-5.895-3.862v1.366l5.053 3.28h-1.547l-3.506-2.276v0.65l2.482 1.626h-2.482v0.842h6.737z"></path>
<path fill="#f5f5f5" d="M16 6.737v-0.842h-2.482l2.482-1.626v-1.196l-4.348 2.822h-1.547l5.895-3.826v-0.82l-5.895 3.862v-5.111h-0.842v6.737z"></path>
<path fill="#ff4b55" d="M16 9.263v-2.526h-6.737v-6.737h-2.526v6.737h-6.737v2.526h6.737v6.737h2.526v-6.737z"></path>
<path fill="#ff4b55" d="M4.325 10.105l-4.325 2.807v1.004l5.872-3.811z"></path>
<path fill="#ff4b55" d="M10.764 10.105l5.236 3.398v-1.004l-3.689-2.394z"></path>
<path fill="#ff4b55" d="M5.053 5.895l-5.053-3.28v1.004l3.506 2.276z"></path>
<path fill="#ff4b55" d="M11.652 5.895l4.348-2.822v-1.004l-5.895 3.826z"></path>
</svg>
