<svg xmlns="http://www.w3.org/2000/svg" width="32" height="32" version="1.1" viewBox="0 0 32 32"><title>ghana</title><path fill="#ff4b55" d="M0 0h32v10.667h-32v-10.667z"/><path fill="#73af00" d="M0 21.333h32v10.667h-32v-10.667z"/><path fill="#ffe15a" d="M0 10.667h32v10.667h-32v-10.667z"/><path fill="#464655" d="M16.355 11.985l0.879 2.635 2.778 0.022c0.36 0.003 0.509 0.462 0.219 0.675l-2.235 1.65 0.838 2.648c0.108 0.343-0.282 0.627-0.575 0.417l-2.26-1.615-2.26 1.615c-0.293 0.209-0.683-0.075-0.575-0.417l0.838-2.648-2.235-1.65c-0.289-0.214-0.14-0.673 0.219-0.675l2.778-0.022 0.879-2.635c0.114-0.341 0.596-0.341 0.71 0z"/></svg>