<svg xmlns="http://www.w3.org/2000/svg" width="32" height="32" version="1.1" viewBox="0 0 32 32"><title>gibraltar</title><path fill="#f5f5f5" d="M0 0h32v32h-32v-32z"/><path fill="#ff4b55" d="M0 21.052h32v10.948h-32v-10.947z"/><path fill="#ff4b55" d="M24.281 12.406v-1.506h-1.506v-3.764h0.753v-1.506h-4.517v1.506h0.753v3.764h-2.258v-5.27h0.753v-1.506h-4.517v1.506h0.753v5.27h-2.258v-3.764h0.753v-1.506h-4.517v1.506h0.753v3.764h-1.506v1.506h0.753v6.023h-0.753v1.506h16.562v-1.506h-0.753v-6.023z"/><path fill="#464655" d="M17.506 19.181h-3.011v-3.517c0-0.552 0.448-1 1-1h1.011c0.552 0 1 0.448 1 1v3.517z"/><path fill="#464655" d="M16 8.642c-0.416 0-0.753 0.337-0.753 0.753v2.258h1.506v-2.258c0-0.416-0.337-0.753-0.753-0.753z"/><path fill="#464655" d="M21.27 9.395c-0.416 0-0.753 0.337-0.753 0.753v1.506h1.506v-1.506c0-0.416-0.337-0.753-0.753-0.753z"/><path fill="#464655" d="M10.73 9.395c-0.416 0-0.753 0.337-0.753 0.753v1.506h1.506v-1.506c0-0.416-0.337-0.753-0.753-0.753z"/><path fill="#464655" d="M22.023 19.181h-3.011v-2.764c0-0.552 0.448-1 1-1h1.011c0.552 0 1 0.448 1 1v2.764z"/><path fill="#464655" d="M12.989 19.181h-3.011v-2.764c0-0.552 0.448-1 1-1h1.011c0.552 0 1 0.448 1 1v2.764z"/><path fill="#ffe15a" d="M18.316 22.316c0-0.141-0.070-0.272-0.188-0.35l-1.707-1.138v-0.357l1.451-0.726c0.208-0.104 0.292-0.357 0.188-0.565s-0.357-0.292-0.565-0.188l-1.496 0.748-1.496-0.748c-0.207-0.104-0.461-0.020-0.565 0.188s-0.020 0.461 0.188 0.565l1.451 0.726v0.357l-1.707 1.138c-0.117 0.078-0.188 0.21-0.188 0.35s0.070 0.272 0.188 0.35l1.707 1.138v3.564h-1.684v0.645c0 0.233 0.188 0.421 0.421 0.421 0.161 0 0.301-0.090 0.372-0.224h0.891v0.842h-0.898c-0.073-0.126-0.209-0.21-0.365-0.21-0.233 0-0.421 0.188-0.421 0.421v0.632h1.684v0.421c0 0.233 0.188 0.421 0.421 0.421s0.421-0.188 0.421-0.421v-6.511l1.707-1.138c0.117-0.078 0.187-0.21 0.187-0.35zM16 23.073l-1.136-0.757 1.136-0.757 1.136 0.757-1.136 0.757z"/></svg>