<svg xmlns="http://www.w3.org/2000/svg" width="32" height="32" version="1.1" viewBox="0 0 32 32"><title>greece</title><path fill="#f5f5f5" d="M0 3.574h32v3.55h-32v-3.55z"/><path fill="#f5f5f5" d="M0 10.674h32v3.55h-32v-3.55z"/><path fill="#f5f5f5" d="M0 17.775h32v3.55h-32v-3.55z"/><path fill="#41479b" d="M0 21.325h32v3.55h-32v-3.55z"/><path fill="#f5f5f5" d="M0 24.876h32v3.55h-32v-3.55z"/><path fill="#41479b" d="M0 28.427h32v3.55h-32v-3.55z"/><path fill="#41479b" d="M32 3.573v-3.55h-32v17.752h32v-3.55h-15.182v-3.55h15.182v-3.55h-15.182v-3.55z"/><path fill="#f5f5f5" d="M16.818 7.124h-6.634v-7.101h-3.55v7.101h-6.634v3.551h6.634v7.101h3.55v-7.101h6.634z"/></svg>