<svg xmlns="http://www.w3.org/2000/svg" width="32" height="32" version="1.1" viewBox="0 0 32 32"><title>guam</title><path fill="#41479b" d="M0.003 0.002h31.997v31.997h-31.997v-31.997z"/><path fill="#3cc8ff" d="M16.002 7.58c-3.2 1.684-5.358 5.693-5.358 8.42s2.158 6.737 5.358 8.42c3.2-1.684 5.358-5.693 5.358-8.42s-2.158-6.737-5.358-8.42z"/><path fill="#73af00" d="M16.692 13.117c0.517-0.273 1.4-0.572 2.403-0.204 0 0-0.966-1.076-2.306-0.199 0.361-0.437 0.902-0.979 1.489-1.13 0 0-1.167-0.436-1.873 1.121 0.137-0.785 0.112-2.021-1.154-2.739 0 0 0.708 1.518 0.777 2.778-0.041-0.224-0.123-0.457-0.341-0.684-0.669-0.698-1.251-0.756-1.251-0.756s0.928 1.028 1.384 2.001c-0.263-0.314-0.725-0.717-1.471-0.692-1.745 0.058-2.124 1.105-2.124 1.105 0.724-0.305 1.872-0.456 2.762-0.381-1.149 0.203-1.558 1.634-1.558 1.634 0.923-1.151 1.93-1.338 2.332-1.365-0.735 0.608-0.69 1.727-0.69 1.727 0.171-0.63 0.832-1.348 1.154-1.67 0.868 0.939 0.971 1.994 0.971 1.994s0.19-0.318 0.102-0.964c-0.083-0.61-0.466-1.011-0.758-1.246 1.532 0.211 2.532 1.323 2.532 1.323-0.501-1.463-1.756-1.653-2.381-1.654z"/><path fill="#ff4b55" d="M30.316 1.686v28.629h-28.629v-28.629h28.629zM31.997 0.002h-31.997v31.997h31.997v-31.997z"/><path fill="#ff965a" d="M14.291 18.035l0.772-1.333 6.341-0.14-0.421 1.754z"/><path fill="#4173cd" d="M10.875 17.684c0.636 2.495 2.54 5.375 5.127 6.736 2.587-1.361 4.491-4.242 5.127-6.736h-10.254z"/><path fill="#ffe15a" d="M11.792 20.21c0 0 1.837-0.091 2.94 0.362 0.276 0.113 0.311 0.485 0.062 0.649-0.537 0.354-1.318 0.962-1.318 1.515l-1.684-2.526z"/><path fill="#ffe15a" d="M15.019 23.578c-0.070-0.702 0.551-1.212 1.403-1.544 1.105-0.43 0.5-1.114-0.053-1.561-0.659-0.533 0.193-0.684 3.772-0.754l-1.754 2.737-2.386 1.965-0.982-0.842z"/><path fill="#ff4b55" d="M16.002 24.896l-0.196-0.104c-3.34-1.756-5.583-5.965-5.583-8.793s2.244-7.036 5.583-8.793l0.196-0.104 0.196 0.104c3.34 1.756 5.583 5.965 5.583 8.793s-2.244 7.036-5.583 8.793l-0.196 0.104zM16.002 8.059c-2.962 1.672-4.937 5.414-4.937 7.941s1.975 6.268 4.937 7.941c2.962-1.672 4.937-5.414 4.937-7.941s-1.975-6.268-4.937-7.941z"/><path fill="#a54b37" d="M17.791 20.806c-0.039 0-0.077-0.010-0.112-0.032-1.144-0.719-1.8-1.909-1.8-3.266v-3.877c0-0.116 0.094-0.21 0.211-0.21s0.21 0.094 0.21 0.21v3.877c0 1.208 0.584 2.269 1.603 2.909 0.099 0.062 0.128 0.192 0.067 0.29-0.040 0.064-0.109 0.099-0.178 0.099z"/><path fill="#a54b37" d="M16.456 13.349c0.307 0.468-0.194 0.969-0.663 0.663-0.028-0.018-0.052-0.042-0.070-0.070-0.307-0.468 0.194-0.969 0.663-0.663 0.028 0.018 0.052 0.042 0.070 0.070z"/></svg>