<!-- Generated by IcoMoon.io -->
<svg version="1.1" xmlns="http://www.w3.org/2000/svg" width="32" height="32" viewBox="0 0 32 32">
<title>honduras</title>
<path fill="#4173cd" d="M0 0h32v10.667h-32v-10.667z"></path>
<path fill="#4173cd" d="M0 21.333h32v10.667h-32v-10.667z"></path>
<path fill="#f5f5f5" d="M0 10.667h32v10.667h-32v-10.667z"></path>
<path fill="#4173cd" d="M16.122 14.624l0.301 0.904 0.953 0.007c0.123 0.001 0.174 0.158 0.075 0.232l-0.766 0.566 0.287 0.908c0.037 0.118-0.097 0.215-0.197 0.143l-0.775-0.554-0.775 0.554c-0.1 0.072-0.234-0.026-0.197-0.143l0.287-0.908-0.766-0.566c-0.099-0.073-0.048-0.231 0.075-0.232l0.953-0.007 0.301-0.904c0.039-0.117 0.205-0.117 0.244 0z"></path>
<path fill="#4173cd" d="M7.52 17.049l0.301 0.904 0.953 0.007c0.123 0.001 0.174 0.158 0.075 0.232l-0.766 0.566 0.287 0.908c0.037 0.118-0.097 0.215-0.197 0.143l-0.775-0.554-0.775 0.554c-0.1 0.072-0.234-0.026-0.197-0.143l0.287-0.908-0.766-0.566c-0.099-0.073-0.048-0.231 0.075-0.232l0.953-0.007 0.301-0.904c0.039-0.117 0.205-0.117 0.244 0z"></path>
<path fill="#4173cd" d="M7.52 12.199l0.301 0.904 0.953 0.007c0.123 0.001 0.174 0.158 0.075 0.232l-0.766 0.566 0.287 0.908c0.037 0.118-0.097 0.215-0.197 0.143l-0.775-0.554-0.775 0.554c-0.1 0.072-0.234-0.026-0.197-0.143l0.287-0.908-0.766-0.566c-0.099-0.073-0.048-0.231 0.075-0.232l0.953-0.007 0.301-0.904c0.039-0.117 0.205-0.117 0.244 0z"></path>
<path fill="#4173cd" d="M24.724 17.049l0.301 0.904 0.953 0.007c0.123 0.001 0.174 0.158 0.075 0.232l-0.766 0.566 0.287 0.908c0.037 0.118-0.097 0.215-0.197 0.143l-0.775-0.554-0.775 0.554c-0.1 0.072-0.234-0.026-0.197-0.143l0.287-0.908-0.766-0.566c-0.099-0.073-0.048-0.231 0.075-0.232l0.953-0.007 0.301-0.904c0.039-0.117 0.205-0.117 0.244 0z"></path>
<path fill="#4173cd" d="M24.724 12.199l0.301 0.904 0.953 0.007c0.123 0.001 0.174 0.158 0.075 0.232l-0.766 0.566 0.287 0.908c0.037 0.118-0.097 0.215-0.197 0.143l-0.775-0.554-0.775 0.554c-0.1 0.072-0.234-0.026-0.197-0.143l0.287-0.908-0.766-0.566c-0.099-0.073-0.048-0.231 0.075-0.232l0.953-0.007 0.301-0.904c0.039-0.117 0.205-0.117 0.244 0z"></path>
</svg>
