<!-- Generated by IcoMoon.io -->
<svg version="1.1" xmlns="http://www.w3.org/2000/svg" width="32" height="32" viewBox="0 0 32 32">
<title>israel</title>
<path fill="#41479b" d="M0 0h32v32h-32v-32z"></path>
<path fill="#f5f5f5" d="M0 5.866h32v20.267h-32v-20.267z"></path>
<path fill="#41479b" d="M19.842 16l1.921-3.327h-3.842l-1.921-3.328-1.921 3.328h-3.842l1.921 3.327-1.921 3.327h3.842l1.921 3.328 1.921-3.328h3.842l-1.921-3.327zM19.878 13.761l-0.665 1.151-0.665-1.151h1.329zM18.586 16l-1.293 2.239h-2.586l-1.293-2.239 1.293-2.239h2.586l1.293 2.239zM16 11.521l0.665 1.151h-1.329l0.665-1.151zM12.122 13.761h1.329l-0.665 1.151-0.665-1.151zM12.122 18.239l0.665-1.151 0.665 1.151h-1.329zM16 20.479l-0.665-1.151h1.33l-0.665 1.151zM19.214 17.088l0.665 1.151h-1.329l0.665-1.151z"></path>
</svg>
