<!-- Generated by IcoMoon.io -->
<svg version="1.1" xmlns="http://www.w3.org/2000/svg" width="32" height="32" viewBox="0 0 32 32">
<title>kazakhstan</title>
<path fill="#82c3d2" d="M0 0h32v32h-32v-32z"></path>
<path fill="#ffe15a" d="M4.341 3.012c-0.081-0.343-0.101-0.469 0.053-0.623 0.075-0.075 0.075-0.197 0-0.272s-0.197-0.075-0.272 0c-0.312 0.312-0.237 0.635-0.157 0.977-0.246-0.080-0.5-0.021-0.637 0.151-0.068 0.086-0.199 0.327 0.047 0.712 0.057 0.089 0.175 0.116 0.265 0.059s0.116-0.176 0.059-0.265c-0.092-0.145-0.095-0.234-0.069-0.267 0.030-0.039 0.125-0.059 0.224-0.024 0.064 0.022 0.212 0.099 0.212 0.33 0 0.185-0.085 0.354-0.234 0.464s-0.342 0.141-0.528 0.084c-0.23-0.070-0.39-0.312-0.39-0.589 0-0.198 0.042-0.398 0.12-0.573 0.012-0.026 0.306-0.634 0.382-0.861 0.15-0.448-0.002-0.674-0.106-0.768-0.139-0.126-0.342-0.158-0.516-0.081-0.026 0.012-0.048 0.029-0.071 0.045-0.023-0.016-0.045-0.033-0.071-0.045-0.175-0.077-0.377-0.045-0.516 0.081-0.104 0.094-0.256 0.32-0.106 0.768 0.076 0.227 0.369 0.835 0.379 0.855 0.080 0.181 0.123 0.381 0.123 0.579 0 0.277-0.16 0.519-0.39 0.589-0.187 0.058-0.379 0.027-0.528-0.084s-0.234-0.279-0.234-0.464c0-0.231 0.148-0.308 0.212-0.33 0.099-0.035 0.193-0.015 0.224 0.024 0.026 0.033 0.023 0.122-0.069 0.267-0.057 0.089-0.031 0.208 0.059 0.265s0.209 0.030 0.265-0.059c0.245-0.385 0.114-0.626 0.047-0.712-0.137-0.172-0.391-0.232-0.637-0.151 0.081-0.342 0.155-0.666-0.157-0.977-0.075-0.075-0.197-0.075-0.272 0s-0.075 0.197 0 0.272c0.154 0.154 0.134 0.28 0.053 0.623-0.049 0.206-0.109 0.462-0.109 0.778 0 0.21 0.074 0.411 0.198 0.576h-0.006c-0.106 0-0.192 0.086-0.192 0.192s0.086 0.192 0.192 0.192h0.006c-0.124 0.165-0.198 0.366-0.198 0.576 0 0.316 0.060 0.572 0.109 0.778 0.081 0.343 0.101 0.469-0.053 0.623-0.075 0.075-0.075 0.197 0 0.272 0.038 0.037 0.087 0.056 0.136 0.056s0.098-0.019 0.136-0.056c0.312-0.312 0.237-0.635 0.157-0.977 0.246 0.080 0.5 0.021 0.637-0.152 0.068-0.086 0.199-0.327-0.047-0.712-0.057-0.089-0.176-0.116-0.265-0.059s-0.116 0.176-0.059 0.265c0.092 0.145 0.095 0.234 0.069 0.267-0.031 0.038-0.124 0.059-0.224 0.024-0.064-0.022-0.212-0.099-0.212-0.33 0-0.185 0.085-0.354 0.234-0.464s0.342-0.142 0.528-0.084c0.23 0.070 0.39 0.312 0.39 0.589 0 0.198-0.042 0.398-0.123 0.579l-1.258 2.831c-0.103 0.233-0.156 0.48-0.156 0.735 0 0.328 0.149 0.627 0.384 0.81-0.235 0.183-0.384 0.482-0.384 0.81 0 0.255 0.053 0.502 0.156 0.735l1.258 2.831c0.080 0.181 0.123 0.381 0.123 0.579 0 0.277-0.16 0.519-0.39 0.589-0.187 0.058-0.379 0.027-0.528-0.084s-0.234-0.279-0.234-0.464c0-0.231 0.148-0.308 0.212-0.33 0.099-0.034 0.193-0.015 0.224 0.024 0.026 0.033 0.023 0.122-0.069 0.267-0.057 0.089-0.031 0.208 0.059 0.265s0.209 0.031 0.265-0.059c0.245-0.385 0.114-0.626 0.047-0.711-0.137-0.172-0.391-0.231-0.637-0.152 0.081-0.342 0.155-0.666-0.157-0.977-0.075-0.075-0.197-0.075-0.272 0s-0.075 0.197 0 0.272c0.154 0.154 0.134 0.28 0.053 0.623-0.049 0.206-0.109 0.462-0.109 0.778 0 0.21 0.074 0.411 0.198 0.576h-0.006c-0.106 0-0.192 0.086-0.192 0.192s0.086 0.192 0.192 0.192h0.006c-0.124 0.165-0.198 0.366-0.198 0.576 0 0.316 0.060 0.572 0.109 0.778 0.081 0.343 0.101 0.469-0.053 0.623-0.075 0.075-0.075 0.197 0 0.272 0.038 0.038 0.087 0.056 0.136 0.056s0.098-0.019 0.136-0.056c0.312-0.312 0.237-0.635 0.157-0.977 0.246 0.080 0.5 0.021 0.637-0.151 0.068-0.086 0.199-0.327-0.047-0.712-0.057-0.089-0.176-0.116-0.265-0.059s-0.116 0.176-0.059 0.265c0.092 0.145 0.095 0.234 0.069 0.267-0.031 0.039-0.124 0.059-0.224 0.024-0.064-0.022-0.212-0.099-0.212-0.33 0-0.185 0.085-0.354 0.234-0.464s0.342-0.142 0.528-0.084c0.23 0.070 0.39 0.312 0.39 0.589 0 0.198-0.042 0.398-0.123 0.579l-1.258 2.831c-0.103 0.233-0.156 0.48-0.156 0.735 0 0.328 0.149 0.627 0.384 0.81-0.235 0.183-0.384 0.482-0.384 0.81 0 0.255 0.053 0.502 0.156 0.735l1.258 2.831c0.080 0.181 0.123 0.381 0.123 0.579 0 0.277-0.16 0.519-0.39 0.589-0.187 0.058-0.379 0.027-0.528-0.084s-0.234-0.279-0.234-0.464c0-0.231 0.148-0.308 0.212-0.33 0.099-0.035 0.193-0.015 0.224 0.024 0.026 0.033 0.023 0.122-0.069 0.267-0.057 0.089-0.031 0.208 0.059 0.265s0.209 0.031 0.265-0.059c0.245-0.385 0.114-0.626 0.047-0.712-0.137-0.173-0.391-0.232-0.637-0.151 0.081-0.342 0.155-0.666-0.157-0.977-0.075-0.075-0.197-0.075-0.272 0s-0.075 0.197 0 0.272c0.154 0.154 0.134 0.28 0.053 0.623-0.049 0.206-0.109 0.462-0.109 0.778 0 0.301 0.144 0.588 0.385 0.769-0.241 0.181-0.385 0.467-0.385 0.769 0 0.316 0.060 0.572 0.109 0.778 0.081 0.343 0.101 0.469-0.053 0.623-0.075 0.075-0.075 0.197 0 0.272 0.038 0.038 0.087 0.056 0.136 0.056s0.098-0.019 0.136-0.056c0.312-0.312 0.237-0.635 0.157-0.977 0.246 0.080 0.5 0.021 0.637-0.151 0.068-0.086 0.199-0.327-0.047-0.712-0.057-0.089-0.176-0.116-0.265-0.059s-0.116 0.176-0.059 0.265c0.092 0.145 0.095 0.234 0.069 0.267-0.031 0.039-0.124 0.059-0.224 0.024-0.064-0.022-0.212-0.099-0.212-0.33 0-0.185 0.085-0.354 0.234-0.464s0.342-0.142 0.528-0.084c0.23 0.070 0.39 0.312 0.39 0.589 0 0.198-0.042 0.398-0.12 0.573-0.012 0.026-0.306 0.634-0.382 0.861-0.15 0.448 0.002 0.674 0.106 0.768 0.089 0.081 0.203 0.123 0.32 0.123 0.066 0 0.133-0.014 0.197-0.042 0.026-0.012 0.048-0.029 0.071-0.045 0.023 0.016 0.045 0.033 0.071 0.045 0.063 0.028 0.13 0.042 0.197 0.042 0.116 0 0.231-0.042 0.32-0.123 0.104-0.094 0.256-0.32 0.106-0.768-0.076-0.227-0.369-0.835-0.379-0.855-0.080-0.181-0.123-0.381-0.123-0.579 0-0.277 0.16-0.519 0.39-0.589 0.187-0.058 0.379-0.027 0.528 0.084s0.234 0.279 0.234 0.464c0 0.231-0.148 0.308-0.212 0.33-0.099 0.035-0.193 0.015-0.224-0.024-0.026-0.033-0.023-0.122 0.069-0.267 0.057-0.089 0.031-0.208-0.059-0.265s-0.208-0.030-0.265 0.059c-0.245 0.385-0.114 0.626-0.047 0.712 0.137 0.172 0.391 0.231 0.637 0.151-0.081 0.342-0.155 0.666 0.157 0.977 0.037 0.038 0.087 0.056 0.136 0.056s0.098-0.019 0.136-0.056c0.075-0.075 0.075-0.197 0-0.272-0.154-0.154-0.134-0.28-0.053-0.623 0.049-0.206 0.109-0.462 0.109-0.778 0-0.301-0.144-0.588-0.386-0.769 0.241-0.181 0.386-0.467 0.386-0.769 0-0.316-0.060-0.572-0.109-0.778-0.081-0.343-0.101-0.469 0.053-0.623 0.075-0.075 0.075-0.197 0-0.272s-0.197-0.075-0.272 0c-0.312 0.312-0.237 0.635-0.157 0.977-0.246-0.080-0.5-0.021-0.637 0.151-0.068 0.086-0.199 0.327 0.047 0.712 0.057 0.089 0.175 0.116 0.265 0.059s0.116-0.176 0.059-0.265c-0.092-0.145-0.095-0.234-0.069-0.267 0.030-0.039 0.125-0.059 0.224-0.024 0.064 0.022 0.212 0.099 0.212 0.33 0 0.185-0.085 0.354-0.234 0.464s-0.342 0.142-0.528 0.084c-0.23-0.070-0.39-0.312-0.39-0.589 0-0.198 0.042-0.398 0.123-0.579l1.258-2.831c0.103-0.233 0.156-0.48 0.156-0.735 0-0.328-0.149-0.627-0.384-0.81 0.235-0.183 0.384-0.482 0.384-0.81 0-0.255-0.053-0.502-0.156-0.735l-1.258-2.831c-0.080-0.181-0.123-0.381-0.123-0.579 0-0.277 0.16-0.519 0.39-0.589 0.187-0.058 0.379-0.027 0.528 0.084s0.234 0.279 0.234 0.464c0 0.231-0.148 0.308-0.212 0.33-0.099 0.035-0.193 0.015-0.224-0.024-0.026-0.033-0.023-0.122 0.069-0.267 0.057-0.089 0.031-0.208-0.059-0.265s-0.208-0.030-0.265 0.059c-0.245 0.385-0.114 0.626-0.047 0.712 0.137 0.172 0.391 0.231 0.637 0.151-0.081 0.342-0.155 0.666 0.157 0.977 0.037 0.038 0.087 0.056 0.136 0.056s0.098-0.019 0.136-0.056c0.075-0.075 0.075-0.197 0-0.272-0.154-0.154-0.134-0.28-0.053-0.623 0.049-0.206 0.109-0.462 0.109-0.778 0-0.21-0.074-0.411-0.198-0.576h0.006c0.106 0 0.192-0.086 0.192-0.192s-0.086-0.192-0.192-0.192h-0.006c0.124-0.165 0.198-0.366 0.198-0.576 0-0.316-0.060-0.572-0.109-0.778-0.081-0.343-0.101-0.469 0.053-0.623 0.075-0.075 0.075-0.197 0-0.272s-0.197-0.075-0.272 0c-0.312 0.312-0.237 0.635-0.157 0.977-0.246-0.080-0.5-0.021-0.637 0.152-0.068 0.086-0.199 0.327 0.047 0.712 0.057 0.089 0.175 0.115 0.265 0.059s0.116-0.176 0.059-0.265c-0.092-0.145-0.095-0.234-0.069-0.267 0.030-0.039 0.125-0.059 0.224-0.024 0.064 0.022 0.212 0.099 0.212 0.33 0 0.185-0.085 0.354-0.234 0.464s-0.342 0.142-0.528 0.084c-0.23-0.070-0.39-0.312-0.39-0.589 0-0.198 0.042-0.398 0.123-0.579l1.258-2.831c0.103-0.233 0.156-0.48 0.156-0.735 0-0.328-0.149-0.627-0.384-0.81 0.235-0.183 0.384-0.482 0.384-0.81 0-0.255-0.053-0.502-0.156-0.735l-1.259-2.831c-0.080-0.181-0.123-0.381-0.123-0.579 0-0.277 0.16-0.519 0.39-0.589 0.187-0.058 0.379-0.027 0.528 0.084s0.234 0.279 0.234 0.464c0 0.231-0.148 0.308-0.212 0.33-0.099 0.035-0.193 0.014-0.224-0.024-0.026-0.033-0.023-0.122 0.069-0.267 0.057-0.089 0.031-0.208-0.059-0.265s-0.208-0.030-0.265 0.059c-0.245 0.385-0.114 0.626-0.047 0.712 0.137 0.172 0.391 0.231 0.637 0.152-0.081 0.342-0.155 0.666 0.157 0.977 0.037 0.037 0.087 0.056 0.136 0.056s0.098-0.019 0.136-0.056c0.075-0.075 0.075-0.197 0-0.272-0.154-0.154-0.134-0.28-0.053-0.623 0.049-0.206 0.109-0.462 0.109-0.778 0-0.21-0.074-0.411-0.198-0.576h0.006c0.106 0 0.192-0.086 0.192-0.192s-0.086-0.192-0.192-0.192h-0.006c0.124-0.165 0.198-0.366 0.198-0.576 0-0.316-0.060-0.572-0.109-0.778zM2.391 2.193c-0.068-0.205-0.045-0.322 0.001-0.363 0.029-0.028 0.074-0.027 0.102-0.014 0.035 0.015 0.035 0.040 0.035 0.052 0 0.106 0.086 0.192 0.192 0.192s0.192-0.086 0.192-0.192c0-0.012 0-0.036 0.035-0.052 0.028-0.013 0.072-0.014 0.102 0.014 0.045 0.041 0.069 0.158 0.001 0.362-0.050 0.149-0.229 0.535-0.33 0.745-0.098-0.205-0.28-0.596-0.33-0.745zM2.721 10.121c0.055 0.075 0.118 0.145 0.193 0.201-0.076 0.057-0.138 0.127-0.193 0.201-0.055-0.075-0.118-0.145-0.193-0.201 0.076-0.057 0.138-0.127 0.193-0.201zM2.721 21.649c0.055 0.075 0.118 0.145 0.193 0.201-0.076 0.057-0.138 0.127-0.193 0.201-0.055-0.075-0.118-0.145-0.193-0.201 0.076-0.057 0.138-0.127 0.193-0.201zM3.051 29.98c0.068 0.205 0.045 0.322-0.001 0.363-0.030 0.027-0.075 0.026-0.102 0.014-0.035-0.015-0.035-0.040-0.035-0.052 0-0.106-0.086-0.192-0.192-0.192s-0.192 0.086-0.192 0.192c0 0.012 0 0.036-0.035 0.052-0.028 0.012-0.073 0.014-0.102-0.014-0.045-0.041-0.069-0.158-0.001-0.363 0.050-0.149 0.229-0.535 0.33-0.745 0.098 0.205 0.28 0.596 0.33 0.745zM2.913 27.615c-0.073 0.057-0.137 0.124-0.192 0.201-0.054-0.077-0.119-0.144-0.192-0.201 0.073-0.057 0.137-0.124 0.192-0.201 0.054 0.077 0.119 0.144 0.192 0.201zM3.943 23.239l-1.222 2.75-1.222-2.75c-0.081-0.181-0.123-0.381-0.123-0.579 0-0.277 0.16-0.519 0.39-0.589 0.187-0.058 0.379-0.027 0.528 0.084s0.234 0.279 0.234 0.464c0 0.231-0.148 0.308-0.212 0.33-0.099 0.035-0.193 0.015-0.224-0.024-0.026-0.033-0.023-0.122 0.069-0.267 0.057-0.089 0.031-0.208-0.059-0.265s-0.208-0.030-0.265 0.059c-0.245 0.385-0.114 0.626-0.047 0.712 0.139 0.176 0.401 0.236 0.651 0.149 0.029-0.010 0.057-0.022 0.086-0.037v0.486c-0-0-0-0-0-0-0.006-0.101-0.090-0.181-0.192-0.181-0.106 0-0.192 0.086-0.192 0.192 0 0.125 0.088 0.343 0.384 0.41v0.358c0 0.106 0.086 0.192 0.192 0.192s0.192-0.086 0.192-0.192v-0.358c0.297-0.067 0.384-0.285 0.384-0.41 0-0.106-0.086-0.198-0.192-0.198s-0.192 0.080-0.192 0.186c-0 0-0.001 0.001-0.001 0.001v-0.485c0.029 0.015 0.057 0.027 0.086 0.037 0.25 0.087 0.512 0.027 0.651-0.149 0.068-0.086 0.199-0.327-0.047-0.712-0.057-0.089-0.176-0.116-0.265-0.059s-0.116 0.176-0.059 0.265c0.092 0.145 0.095 0.234 0.069 0.267-0.030 0.039-0.125 0.059-0.224 0.024-0.064-0.022-0.212-0.099-0.212-0.33 0-0.185 0.085-0.354 0.234-0.464s0.342-0.142 0.528-0.084c0.23 0.070 0.39 0.312 0.39 0.589 0 0.198-0.042 0.398-0.123 0.579zM3.943 20.462c0.080 0.181 0.123 0.381 0.123 0.579 0 0.277-0.16 0.519-0.39 0.589-0.187 0.058-0.379 0.027-0.528-0.084s-0.234-0.279-0.234-0.464c0-0.231 0.148-0.308 0.212-0.33 0.099-0.035 0.193-0.015 0.224 0.024 0.026 0.033 0.023 0.122-0.069 0.267-0.057 0.089-0.031 0.208 0.059 0.265s0.209 0.031 0.265-0.059c0.245-0.385 0.114-0.626 0.047-0.712-0.139-0.176-0.401-0.235-0.651-0.149-0.029 0.010-0.057 0.022-0.086 0.037v-0.486l0 0c0.006 0.101 0.090 0.181 0.192 0.181 0.106 0 0.192-0.086 0.192-0.192 0-0.125-0.088-0.343-0.384-0.41v-0.358c0-0.106-0.086-0.192-0.192-0.192s-0.192 0.086-0.192 0.192v0.358c-0.297 0.067-0.384 0.285-0.384 0.41 0 0.106 0.086 0.198 0.192 0.198s0.192-0.080 0.192-0.186c0-0 0.001-0.001 0.001-0.001l0 0.485c-0.029-0.015-0.057-0.027-0.086-0.037-0.25-0.087-0.512-0.027-0.651 0.149-0.068 0.086-0.199 0.327 0.047 0.712 0.057 0.089 0.176 0.115 0.265 0.059s0.116-0.176 0.059-0.265c-0.092-0.145-0.095-0.234-0.069-0.267 0.030-0.039 0.124-0.059 0.224-0.024 0.064 0.022 0.212 0.099 0.212 0.33 0 0.185-0.085 0.354-0.234 0.464s-0.342 0.142-0.528 0.084c-0.23-0.070-0.39-0.312-0.39-0.589 0-0.198 0.042-0.398 0.123-0.579l1.222-2.75 1.222 2.75zM2.913 16.087c-0.073 0.057-0.137 0.124-0.192 0.201-0.054-0.077-0.119-0.144-0.192-0.201 0.073-0.057 0.137-0.124 0.192-0.201 0.054 0.077 0.119 0.144 0.192 0.201zM3.943 11.711l-1.222 2.749-1.222-2.749c-0.081-0.181-0.123-0.381-0.123-0.579 0-0.277 0.16-0.519 0.39-0.589 0.187-0.058 0.379-0.027 0.528 0.084s0.234 0.279 0.234 0.464c0 0.231-0.148 0.308-0.212 0.33-0.099 0.035-0.193 0.015-0.224-0.024-0.026-0.033-0.023-0.122 0.069-0.267 0.057-0.089 0.031-0.208-0.059-0.265s-0.208-0.030-0.265 0.059c-0.245 0.385-0.114 0.626-0.047 0.711 0.139 0.176 0.401 0.236 0.651 0.149 0.029-0.010 0.057-0.022 0.086-0.037v0.486l-0-0.001c-0.006-0.101-0.090-0.181-0.192-0.181-0.106 0-0.192 0.086-0.192 0.192 0 0.125 0.088 0.343 0.384 0.41v0.358c0 0.106 0.086 0.192 0.192 0.192s0.192-0.086 0.192-0.192v-0.358c0.297-0.067 0.384-0.285 0.384-0.41 0-0.106-0.086-0.198-0.192-0.198s-0.192 0.080-0.192 0.186c-0 0-0.001 0.001-0.001 0.001l-0-0.485c0.029 0.014 0.057 0.027 0.086 0.037 0.25 0.087 0.512 0.027 0.651-0.149 0.068-0.086 0.199-0.327-0.047-0.712-0.057-0.090-0.176-0.116-0.265-0.059s-0.116 0.176-0.059 0.265c0.092 0.145 0.095 0.234 0.069 0.267-0.030 0.039-0.125 0.059-0.224 0.024-0.064-0.022-0.212-0.099-0.212-0.33 0-0.185 0.085-0.354 0.234-0.464s0.342-0.142 0.528-0.084c0.23 0.070 0.39 0.312 0.39 0.589 0 0.198-0.042 0.398-0.123 0.579zM3.943 8.934c0.080 0.181 0.123 0.381 0.123 0.579 0 0.277-0.16 0.519-0.39 0.589-0.187 0.058-0.379 0.027-0.528-0.084s-0.234-0.279-0.234-0.464c0-0.231 0.148-0.308 0.212-0.33 0.099-0.034 0.193-0.015 0.224 0.024 0.026 0.033 0.023 0.122-0.069 0.267-0.057 0.089-0.031 0.208 0.059 0.265s0.209 0.031 0.265-0.059c0.245-0.385 0.114-0.626 0.047-0.711-0.139-0.176-0.401-0.236-0.651-0.149-0.029 0.010-0.057 0.022-0.086 0.037v-0.486c0 0 0 0 0 0 0.006 0.101 0.090 0.181 0.192 0.181 0.106 0 0.192-0.086 0.192-0.192 0-0.125-0.088-0.343-0.384-0.41v-0.359c0-0.106-0.086-0.192-0.192-0.192s-0.192 0.086-0.192 0.192v0.359c-0.297 0.067-0.384 0.285-0.384 0.41 0 0.106 0.086 0.198 0.192 0.198s0.192-0.080 0.192-0.186c0-0 0.001-0.001 0.001-0.001v0.485c-0.029-0.014-0.057-0.027-0.086-0.037-0.25-0.087-0.512-0.027-0.651 0.149-0.068 0.086-0.199 0.327 0.047 0.712 0.057 0.089 0.176 0.115 0.265 0.059s0.116-0.176 0.059-0.265c-0.092-0.145-0.095-0.234-0.069-0.267 0.030-0.039 0.124-0.059 0.224-0.024 0.064 0.022 0.212 0.099 0.212 0.33 0 0.185-0.085 0.354-0.234 0.464s-0.342 0.142-0.528 0.084c-0.23-0.070-0.39-0.312-0.39-0.589 0-0.198 0.042-0.398 0.123-0.579l1.222-2.749 1.222 2.75zM2.53 4.559c0.073-0.057 0.137-0.124 0.192-0.201 0.054 0.077 0.119 0.144 0.192 0.201-0.073 0.057-0.137 0.124-0.192 0.201-0.054-0.077-0.119-0.144-0.192-0.201z"></path>
<path fill="#ffe15a" d="M20.541 14.241c0 2.014-1.633 3.648-3.648 3.648s-3.648-1.633-3.648-3.648c0-2.014 1.633-3.648 3.648-3.648s3.648 1.633 3.648 3.648z"></path>
<path fill="#ffe15a" d="M17.167 9.59c0 0.151-0.122 0.274-0.274 0.274s-0.274-0.123-0.274-0.274c0-0.151 0.274-0.821 0.274-0.821s0.274 0.67 0.274 0.821z"></path>
<path fill="#ffe15a" d="M16.62 18.892c0-0.151 0.122-0.274 0.274-0.274s0.274 0.122 0.274 0.274c0 0.151-0.274 0.821-0.274 0.821s-0.274-0.67-0.274-0.821z"></path>
<path fill="#ffe15a" d="M21.544 14.515c-0.151 0-0.274-0.123-0.274-0.274s0.122-0.274 0.274-0.274 0.821 0.274 0.821 0.274-0.67 0.274-0.821 0.274z"></path>
<path fill="#ffe15a" d="M12.243 13.967c0.151 0 0.274 0.123 0.274 0.274s-0.123 0.274-0.274 0.274-0.821-0.274-0.821-0.274 0.67-0.274 0.821-0.274z"></path>
<path fill="#ffe15a" d="M20.376 11.146c-0.107 0.107-0.28 0.107-0.387 0s-0.107-0.28 0-0.387 0.774-0.387 0.774-0.387-0.28 0.667-0.387 0.774z"></path>
<path fill="#ffe15a" d="M13.412 17.336c0.107-0.107 0.28-0.107 0.387 0s0.107 0.28 0 0.387-0.774 0.387-0.774 0.387 0.28-0.667 0.387-0.774z"></path>
<path fill="#ffe15a" d="M19.989 17.723c-0.107-0.107-0.107-0.28 0-0.387s0.28-0.107 0.387 0 0.387 0.774 0.387 0.774-0.667-0.28-0.774-0.387z"></path>
<path fill="#ffe15a" d="M13.798 10.759c0.107 0.107 0.107 0.28 0 0.387s-0.28 0.107-0.387 0-0.387-0.774-0.387-0.774 0.667 0.28 0.774 0.387z"></path>
<path fill="#ffe15a" d="M15.367 9.84c0.058 0.14-0.008 0.3-0.148 0.357s-0.3-0.008-0.357-0.148c-0.058-0.14-0.061-0.863-0.061-0.863s0.509 0.514 0.567 0.654z"></path>
<path fill="#ffe15a" d="M18.421 18.642c-0.058-0.14 0.008-0.3 0.148-0.357s0.3 0.008 0.357 0.148c0.058 0.14 0.061 0.863 0.061 0.863s-0.509-0.514-0.567-0.654z"></path>
<path fill="#ffe15a" d="M21.295 12.714c-0.14 0.058-0.3-0.008-0.357-0.148s0.008-0.3 0.148-0.357 0.863-0.061 0.863-0.061-0.514 0.509-0.654 0.567z"></path>
<path fill="#ffe15a" d="M12.492 15.768c0.14-0.058 0.3 0.008 0.357 0.148s-0.008 0.3-0.148 0.357c-0.14 0.058-0.863 0.061-0.863 0.061s0.514-0.509 0.654-0.567z"></path>
<path fill="#ffe15a" d="M18.926 10.049c-0.058 0.14-0.218 0.206-0.357 0.148s-0.206-0.218-0.148-0.357c0.058-0.14 0.567-0.654 0.567-0.654s-0.003 0.723-0.061 0.863z"></path>
<path fill="#ffe15a" d="M14.861 18.433c0.058-0.14 0.218-0.206 0.357-0.148s0.206 0.218 0.148 0.357-0.567 0.654-0.567 0.654 0.004-0.723 0.061-0.863z"></path>
<path fill="#ffe15a" d="M21.086 16.274c-0.14-0.058-0.206-0.218-0.148-0.357s0.218-0.206 0.357-0.148 0.654 0.567 0.654 0.567-0.723-0.003-0.863-0.061z"></path>
<path fill="#ffe15a" d="M12.701 12.209c0.14 0.058 0.206 0.218 0.148 0.357s-0.218 0.206-0.357 0.148c-0.14-0.058-0.654-0.567-0.654-0.567s0.723 0.004 0.863 0.061z"></path>
<path fill="#ffe15a" d="M16.255 9.626c0.029 0.148-0.067 0.292-0.215 0.322s-0.292-0.067-0.322-0.215 0.108-0.858 0.108-0.858 0.399 0.603 0.428 0.752z"></path>
<path fill="#ffe15a" d="M17.533 18.856c-0.029-0.148 0.067-0.292 0.215-0.322s0.292 0.067 0.322 0.215-0.108 0.858-0.108 0.858-0.399-0.603-0.428-0.752z"></path>
<path fill="#ffe15a" d="M21.508 13.602c-0.148 0.030-0.292-0.067-0.322-0.215s0.067-0.292 0.215-0.322 0.858 0.108 0.858 0.108-0.603 0.399-0.752 0.428z"></path>
<path fill="#ffe15a" d="M12.279 14.88c0.148-0.030 0.292 0.067 0.322 0.215s-0.067 0.292-0.215 0.322-0.858-0.108-0.858-0.108 0.603-0.399 0.752-0.428z"></path>
<path fill="#ffe15a" d="M19.705 10.526c-0.084 0.126-0.254 0.159-0.379 0.075s-0.159-0.254-0.076-0.379 0.683-0.53 0.683-0.53-0.145 0.709-0.229 0.834z"></path>
<path fill="#ffe15a" d="M14.082 17.956c0.084-0.126 0.254-0.159 0.379-0.076s0.159 0.254 0.075 0.379-0.683 0.53-0.683 0.53 0.145-0.709 0.229-0.834z"></path>
<path fill="#ffe15a" d="M20.609 17.052c-0.126-0.084-0.159-0.254-0.076-0.379s0.254-0.159 0.379-0.076 0.53 0.683 0.53 0.683-0.709-0.145-0.834-0.229z"></path>
<path fill="#ffe15a" d="M13.179 11.43c0.126 0.084 0.159 0.254 0.075 0.379s-0.254 0.159-0.379 0.075-0.53-0.683-0.53-0.683 0.709 0.145 0.834 0.229z"></path>
<path fill="#ffe15a" d="M14.537 10.222c0.084 0.126 0.050 0.296-0.075 0.379s-0.296 0.050-0.379-0.075-0.229-0.834-0.229-0.834 0.6 0.405 0.683 0.53z"></path>
<path fill="#ffe15a" d="M19.25 18.26c-0.084-0.126-0.050-0.296 0.076-0.379s0.296-0.050 0.379 0.076c0.084 0.126 0.229 0.834 0.229 0.834s-0.599-0.405-0.683-0.53z"></path>
<path fill="#ffe15a" d="M20.913 11.885c-0.126 0.084-0.296 0.050-0.379-0.075s-0.050-0.296 0.076-0.379 0.834-0.229 0.834-0.229-0.405 0.6-0.53 0.683z"></path>
<path fill="#ffe15a" d="M12.875 16.597c0.126-0.084 0.296-0.050 0.379 0.076s0.050 0.296-0.075 0.379-0.834 0.229-0.834 0.229 0.405-0.599 0.53-0.683z"></path>
<path fill="#ffe15a" d="M18.069 9.733c-0.029 0.148-0.174 0.244-0.322 0.215s-0.244-0.174-0.215-0.322c0.029-0.148 0.428-0.752 0.428-0.752s0.138 0.71 0.108 0.858z"></path>
<path fill="#ffe15a" d="M15.718 18.749c0.030-0.148 0.174-0.244 0.322-0.215s0.244 0.174 0.215 0.322c-0.029 0.148-0.428 0.752-0.428 0.752s-0.138-0.71-0.108-0.858z"></path>
<path fill="#ffe15a" d="M21.402 15.417c-0.148-0.030-0.244-0.174-0.215-0.322s0.174-0.244 0.322-0.215 0.752 0.428 0.752 0.428-0.71 0.138-0.858 0.108z"></path>
<path fill="#ffe15a" d="M12.386 13.065c0.148 0.030 0.244 0.174 0.215 0.322s-0.174 0.244-0.322 0.215-0.752-0.428-0.752-0.428 0.71-0.138 0.858-0.108z"></path>
<path fill="#ffe15a" d="M25.474 15.201c-0.107-0.045-0.229 0.007-0.274 0.113 0 0 0 0 0 0-0.001 0.002-0.005 0.012-0.012 0.029-0.158 0.369-0.485 0.909-0.816 1.417 0.308-0.99 0.589-2.048 0.609-2.123 0.029-0.111-0.036-0.225-0.147-0.255s-0.225 0.035-0.256 0.145c-0.144 0.514-0.437 1.191-0.708 1.765 0.050-0.639 0.059-1.231 0.060-1.274 0.002-0.113-0.087-0.207-0.2-0.212-0.106 0.003-0.209 0.081-0.218 0.194-0.268 3.684-3.813 5.333-4.158 5.484-0.181 0.018-1.022 0.113-1.785 0.378-0.087 0.030-0.16 0.060-0.234 0.090-0.027-0.010-0.057-0.016-0.087-0.014-2.344 0.17-4.212-0.792-5.555-2.851-1.015-1.556-1.333-3.19-1.336-3.206-0.021-0.114-0.13-0.187-0.244-0.167-0.114 0.022-0.188 0.131-0.167 0.244 0.008 0.045 0.148 0.758 0.533 1.696-0.515-0.812-0.873-1.796-0.999-2.308-0.002-0.010-0.009-0.018-0.013-0.027-0.006-0.014-0.011-0.029-0.020-0.042-0.006-0.009-0.014-0.015-0.022-0.023-0.011-0.012-0.022-0.024-0.036-0.033-0.008-0.005-0.017-0.008-0.026-0.012-0.015-0.007-0.031-0.014-0.048-0.018-0.012-0.002-0.024-0.001-0.036-0.001s-0.024-0.003-0.037-0.001c-0.003 0-0.005 0.002-0.008 0.003s-0.005-0-0.008 0c-0.011 0.003-0.020 0.010-0.030 0.014-0.013 0.006-0.026 0.010-0.038 0.018s-0.020 0.018-0.029 0.027c-0.009 0.010-0.019 0.018-0.027 0.029s-0.011 0.024-0.017 0.037c-0.005 0.012-0.011 0.024-0.014 0.037s-0.002 0.027-0.001 0.042c0 0.011-0.003 0.022-0.001 0.034 0.001 0.005 0.002 0.010 0.003 0.015v0.001c0 0.001 0.001 0.002 0.001 0.003 0.129 0.762 0.438 1.553 0.717 2.156-0.443-0.503-0.813-1.081-0.944-1.424-0.004-0.010-0.011-0.017-0.017-0.026-0.008-0.014-0.015-0.028-0.025-0.039-0.007-0.008-0.017-0.013-0.025-0.020-0.013-0.010-0.025-0.021-0.040-0.028-0.009-0.005-0.020-0.006-0.030-0.009-0.015-0.005-0.030-0.010-0.047-0.011-0.013-0.001-0.026 0.002-0.039 0.004s-0.024 0-0.036 0.004c-0.002 0.001-0.004 0.003-0.006 0.003s-0.005 0-0.007 0.001c-0.011 0.004-0.019 0.013-0.030 0.019-0.012 0.007-0.025 0.013-0.035 0.022s-0.018 0.021-0.026 0.032c-0.008 0.011-0.016 0.020-0.022 0.031s-0.008 0.026-0.012 0.039c-0.003 0.013-0.008 0.025-0.009 0.038s0.002 0.027 0.004 0.041c0.002 0.012-0 0.024 0.004 0.035 0.228 0.734 0.775 1.608 1.204 2.223-0.357-0.275-0.62-0.573-0.696-0.663-0.008-0.010-0.016-0.020-0.024-0.029-0.074-0.089-0.204-0.101-0.293-0.029s-0.103 0.203-0.031 0.293c0.004 0.005 0.020 0.024 0.046 0.055 0.314 0.373 0.656 0.722 0.965 1.016l-0.424-0.181c-0.097-0.042-0.21-0.004-0.263 0.088s-0.029 0.208 0.056 0.272c0.041 0.031 0.792 0.591 1.441 0.923-0.061 0.004-0.133-0.001-0.214-0.007-0.098-0.009-0.195 0.061-0.219 0.161s0.029 0.202 0.124 0.241c0.016 0.007 0.214 0.088 0.458 0.175-0.057 0.023-0.102 0.071-0.121 0.133-0.028 0.093 0.011 0.193 0.096 0.241 0.022 0.013 0.318 0.182 0.684 0.333-0.010 0.015-0.018 0.031-0.024 0.049-0.029 0.088 0.004 0.184 0.080 0.237 0.063 0.044 1.484 1.008 3.144 1.008 0.109 0 0.219-0.004 0.33-0.013 0.115-0.009 0.201-0.11 0.192-0.225s-0.109-0.202-0.225-0.192c-1.042 0.085-2.047-0.306-2.644-0.605 0.079-0.019 0.124-0.037 0.135-0.041 0.092-0.038 0.145-0.134 0.127-0.232s-0.102-0.169-0.202-0.171c-0.242-0.005-0.578-0.123-0.868-0.25 0.109-0.055 0.173-0.107 0.179-0.112 0.063-0.053 0.089-0.137 0.068-0.216s-0.087-0.138-0.168-0.151c-0.089-0.015-0.2-0.043-0.316-0.078 0.113-0.065 0.161-0.136 0.179-0.173 0.029-0.058 0.030-0.126 0.002-0.184s-0.081-0.101-0.145-0.114c-0.055-0.012-0.117-0.032-0.184-0.058 0.012-0.012 0.024-0.026 0.033-0.042 0.053-0.090 0.031-0.206-0.052-0.271-0.004-0.003-0.167-0.131-0.412-0.343 0.039-0.014 0.074-0.041 0.098-0.077 0.053-0.076 0.049-0.178-0.009-0.25-0.005-0.006-0.167-0.21-0.391-0.521 0.074 0.057 0.148 0.116 0.222 0.164 0.035 0.022 0.074 0.033 0.113 0.033 0.053 0 0.105-0.020 0.145-0.059 0.017-0.016 0.030-0.034 0.040-0.054 0.127 0.136 0.26 0.259 0.4 0.364 0.018 0.014 0.040 0.013 0.061 0.020 0.059 0.099 0.121 0.199 0.186 0.299 1.27 1.954 3.061 3.001 5.21 3.064-0.198 0.12-0.413 0.244-0.753 0.377-0.074 0.029-0.14 0.058-0.206 0.087-0.032 0.006-0.062 0.018-0.087 0.038-0.593 0.275-0.839 0.546-0.939 0.736-0.1 0.189-0.014 0.382 0.108 0.483 0.038 0.031 0.086 0.047 0.134 0.047 0.033 0 0.066-0.007 0.096-0.023 0.074-0.037 0.123-0.115 0.12-0.197 0.009-0.009 0.045-0.040 0.159-0.043 0.083-0.007 0.258 0.012 0.462 0.028 0.194 0.016 0.427 0.034 0.675 0.047-0.155 0.181-0.335 0.39-0.335 0.39-0.054 0.063-0.066 0.152-0.030 0.227s0.114 0.122 0.196 0.119c0.165-0.006 0.278-0.009 0.351-0.011 0.064 0.084 0.143 0.118 0.194 0.131 0.144 0.037 0.287-0.021 0.395-0.089 0.082 0.059 0.163 0.084 0.228 0.093 0.146 0.020 0.281-0.023 0.379-0.071 0.101 0.065 0.201 0.082 0.276 0.082 0.001 0 0.002 0 0.003 0 0.163-0.001 0.306-0.080 0.407-0.157 0.089 0.053 0.175 0.070 0.241 0.073 0.15 0.005 0.274-0.052 0.357-0.106 0.295 0.059 0.549-0.080 0.717-0.233 0.077 0.045 0.15 0.056 0.208 0.053 0.149-0.005 0.263-0.096 0.336-0.177 0.334 0.040 0.574-0.021 0.713-0.186 0.076-0.090 0.106-0.19 0.115-0.282 0.927-0.005 1.011-0.512 1.018-0.574 0.006-0.057-0.011-0.114-0.048-0.157s-0.090-0.071-0.147-0.074l-2.431-0.146c-0.102-0.007-0.192 0.061-0.216 0.16-0 0.002-0.042 0.156-0.172 0.279-0.174 0.167-0.455 0.255-0.761 0.301 0.001-0.028-0.003-0.056-0.014-0.084-0.042-0.108-0.163-0.16-0.27-0.12-0.502 0.195-1.314 0.17-1.95 0.126 0.098-0.080 0.215-0.159 0.309-0.21 0.079-0.044 0.122-0.133 0.105-0.222-0.012-0.065-0.059-0.11-0.115-0.139 0.177-0.089 0.322-0.175 0.459-0.259 0.239-0.146 0.464-0.284 0.875-0.427 0.793-0.275 1.71-0.359 1.719-0.36 0.021-0.002 0.041-0.007 0.061-0.015 0.033-0.014 2.62-1.097 3.839-3.598-0.016 0.076-0.033 0.145-0.052 0.205-0.032 0.103 0.020 0.213 0.119 0.255 0.077 0.032 0.164 0.015 0.223-0.039-0.077 0.203-0.147 0.363-0.203 0.457-0.058 0.096-0.030 0.221 0.063 0.283 0.022 0.014 0.045 0.024 0.069 0.030-0.094 0.138-0.19 0.269-0.285 0.389-0.064 0.080-0.060 0.193 0.007 0.268-0.164 0.172-0.309 0.313-0.419 0.403-0.072 0.058-0.096 0.156-0.063 0.239-0.106 0.061-0.194 0.104-0.255 0.122-0.102 0.031-0.164 0.133-0.145 0.238 0.010 0.055 0.041 0.102 0.084 0.132-0.128 0.034-0.268 0.067-0.42 0.098-0.086 0.017-0.152 0.085-0.166 0.172s0.027 0.172 0.103 0.215c0.007 0.004 0.078 0.044 0.187 0.091-0.405 0.163-1.127 0.376-2.313 0.493-0.115 0.011-0.199 0.114-0.188 0.229s0.11 0.195 0.229 0.188c2.251-0.223 2.946-0.786 2.974-0.81 0.065-0.054 0.091-0.143 0.065-0.224-0.017-0.053-0.055-0.097-0.103-0.122 0.719-0.226 1.028-0.477 1.044-0.49 0.079-0.065 0.099-0.179 0.047-0.267s-0.161-0.127-0.256-0.089c-0.027 0.010-0.069 0.021-0.123 0.031 0.483-0.331 0.995-0.724 1.22-0.9 0.040-0.029 0.076-0.058 0.107-0.084 0.087-0.074 0.1-0.203 0.028-0.292s-0.202-0.103-0.292-0.032c-0.033 0.026-0.067 0.052-0.102 0.080-0.104 0.077-0.237 0.165-0.382 0.255 0.548-0.622 1.099-1.296 1.257-1.49 0.014-0.018 0.028-0.035 0.043-0.053 0.072-0.090 0.058-0.221-0.032-0.294-0.090-0.074-0.222-0.058-0.294 0.031l-0 0-0 0c-0.004 0.005-0.022 0.027-0.052 0.063-0.165 0.201-0.339 0.396-0.51 0.578 0.558-1.011 0.98-2.006 1.042-2.154 0.002-0.005 0.004-0.011 0.007-0.016 0.044-0.106-0.006-0.229-0.113-0.273zM15.669 22.252l0.057 0.007c-0.070 0.066-0.127 0.139-0.172 0.215-0.099-0.008-0.189-0.015-0.26-0.018 0.097-0.064 0.223-0.133 0.375-0.204z"></path>
</svg>
