<svg xmlns="http://www.w3.org/2000/svg" width="32" height="32" version="1.1" viewBox="0 0 32 32"><title>liberia</title><path fill="#ff4b55" d="M0 0h32v2.909h-32v-2.909z"/><path fill="#f5f5f5" d="M0 2.909h32v2.909h-32v-2.909z"/><path fill="#ff4b55" d="M0 5.818h32v2.909h-32v-2.909z"/><path fill="#f5f5f5" d="M0 8.728h32v2.909h-32v-2.909z"/><path fill="#ff4b55" d="M32 14.546h-31.5c-0.276 0-0.5-0.224-0.5-0.5v-2.409h32v2.909z"/><path fill="#f5f5f5" d="M32 17.455h-32v-3.981h0.842l0 1.072h31.158z"/><path fill="#ff4b55" d="M0 17.454h32v2.909h-32v-2.909z"/><path fill="#f5f5f5" d="M0 20.364h32v2.909h-32v-2.909z"/><path fill="#ff4b55" d="M0 23.273h32v2.909h-32v-2.909z"/><path fill="#f5f5f5" d="M0 26.182h32v2.909h-32v-2.909z"/><path fill="#ff4b55" d="M0 29.091h32v2.909h-32v-2.909z"/><path fill="#41479b" d="M0 0h14.316v14.546h-14.316v-14.546z"/><path fill="#f5f5f5" d="M6.917 3.765l-0.804 2.411-2.541 0.020c-0.244 0.002-0.345 0.313-0.149 0.458l2.044 1.51-0.766 2.423c-0.074 0.232 0.191 0.425 0.389 0.283l2.067-1.478 2.067 1.478c0.198 0.142 0.463-0.050 0.389-0.283l-0.767-2.423 2.044-1.51c0.196-0.145 0.095-0.456-0.149-0.458l-2.541-0.020-0.804-2.411c-0.077-0.231-0.404-0.231-0.481 0z"/></svg>