<svg xmlns="http://www.w3.org/2000/svg" width="32" height="32" version="1.1" viewBox="0 0 32 32"><title>liechtenstein</title><path fill="#41479b" d="M0 0h32v16h-32v-16z"/><path fill="#ff4b55" d="M0 16h32v16h-32v-16z"/><path fill="#ffe15a" d="M15.388 9.353c-0.010-0.029-0.032-0.052-0.060-0.064-0.003-0.001-0.062-0.024-0.156-0.050 0.041-0.056 0.071-0.122 0.071-0.197 0-0.064-0.023-0.121-0.054-0.172 0.104-0.058 0.177-0.165 0.177-0.291 0-0.101-0.046-0.188-0.116-0.251 0.084-0.062 0.142-0.156 0.142-0.268 0-0.125-0.071-0.229-0.172-0.288 0.053-0.060 0.088-0.136 0.088-0.222 0-0.149-0.099-0.272-0.234-0.317 0.031-0.051 0.053-0.107 0.053-0.171 0-0.184-0.148-0.332-0.33-0.337 0.008-0.028 0.017-0.056 0.017-0.086 0-0.187-0.152-0.338-0.338-0.338-0.031 0-0.060 0.010-0.089 0.018 0.001-0.008 0.004-0.014 0.004-0.021 0-0.187-0.152-0.338-0.338-0.338-0.064 0-0.121 0.023-0.172 0.054-0.039-0.143-0.165-0.251-0.321-0.251-0.093 0-0.178 0.038-0.239 0.099-0.057-0.106-0.165-0.18-0.294-0.18-0.117 0-0.216 0.064-0.276 0.154-0.062-0.066-0.148-0.108-0.245-0.108-0.125 0-0.23 0.072-0.289 0.173-0.062-0.069-0.15-0.115-0.25-0.115-0.124 0-0.228 0.070-0.287 0.17-0.058-0.045-0.127-0.077-0.206-0.077-0.142 0-0.263 0.089-0.313 0.213-0.061-0.059-0.143-0.096-0.234-0.096-0.129 0-0.238 0.075-0.295 0.182-0.025-0.015-0.050-0.028-0.079-0.036 0.071-0.105 0.113-0.232 0.113-0.369 0-0.265-0.158-0.493-0.384-0.598l0.095-0.19c0.015-0.029 0.015-0.064 0-0.093l-0.114-0.228c0.008-0.008 0.016-0.015 0.024-0.024l0.229 0.114c0.015 0.007 0.031 0.011 0.047 0.011s0.032-0.004 0.047-0.011l0.556-0.278c0.035-0.018 0.058-0.054 0.058-0.093s-0.022-0.075-0.058-0.093l-0.556-0.278c-0.029-0.015-0.064-0.015-0.093 0l-0.228 0.114c-0.008-0.008-0.016-0.016-0.024-0.024l0.114-0.228c0.015-0.029 0.015-0.064 0-0.093l-0.278-0.556c-0.035-0.071-0.151-0.071-0.187 0l-0.278 0.556c-0.015 0.029-0.015 0.064 0 0.093l0.114 0.228c-0.008 0.008-0.016 0.015-0.024 0.024l-0.229-0.114c-0.029-0.015-0.064-0.014-0.093 0l-0.556 0.278c-0.035 0.018-0.058 0.054-0.058 0.093s0.022 0.075 0.058 0.093l0.556 0.278c0.015 0.007 0.031 0.011 0.047 0.011s0.032-0.004 0.047-0.011l0.228-0.114c0.008 0.008 0.016 0.016 0.024 0.024l-0.114 0.228c-0.015 0.029-0.015 0.064 0 0.093l0.095 0.19c-0.226 0.105-0.384 0.333-0.384 0.598 0 0.134 0.041 0.258 0.109 0.362-0.041 0.008-0.079 0.022-0.113 0.043-0.057-0.106-0.166-0.182-0.295-0.182-0.091 0-0.174 0.037-0.234 0.096-0.050-0.125-0.171-0.213-0.313-0.213-0.079 0-0.148 0.031-0.206 0.077-0.059-0.099-0.163-0.17-0.287-0.17-0.1 0-0.188 0.046-0.25 0.115-0.059-0.101-0.164-0.173-0.289-0.173-0.097 0-0.183 0.042-0.245 0.108-0.061-0.091-0.159-0.154-0.276-0.154-0.128 0-0.237 0.075-0.294 0.18-0.061-0.061-0.146-0.099-0.239-0.099-0.155 0-0.281 0.108-0.321 0.251-0.051-0.031-0.108-0.054-0.172-0.054-0.187 0-0.338 0.152-0.338 0.338 0 0.008 0.004 0.014 0.004 0.021-0.029-0.008-0.057-0.018-0.089-0.018-0.187 0-0.338 0.152-0.338 0.338 0 0.031 0.010 0.058 0.017 0.086-0.183 0.005-0.33 0.153-0.33 0.337 0 0.064 0.022 0.12 0.053 0.171-0.135 0.045-0.234 0.168-0.234 0.317 0 0.086 0.035 0.162 0.088 0.222-0.101 0.059-0.172 0.163-0.172 0.288 0 0.112 0.058 0.206 0.142 0.268-0.070 0.062-0.116 0.15-0.116 0.251 0 0.127 0.073 0.233 0.177 0.291-0.031 0.051-0.054 0.108-0.054 0.172 0 0.079 0.031 0.149 0.077 0.206-0.075 0.022-0.122 0.040-0.124 0.041-0.028 0.011-0.050 0.035-0.060 0.064s-0.006 0.061 0.009 0.087c0.008 0.014 0.828 1.39 1.099 2.747 0.007 0.034 0.031 0.055 0.060 0.069 0.208 0.282 2.015 0.502 4.213 0.502s4.005-0.22 4.213-0.502c0.029-0.014 0.053-0.035 0.060-0.069 0.271-1.356 1.091-2.734 1.1-2.747 0.015-0.026 0.019-0.058 0.009-0.087z"/><path fill="#464655" d="M15.388 9.353c-0.010-0.029-0.032-0.052-0.060-0.064-0.003-0.001-0.062-0.024-0.156-0.050 0.041-0.056 0.071-0.122 0.071-0.197 0-0.064-0.023-0.121-0.054-0.172 0.104-0.058 0.177-0.165 0.177-0.291 0-0.101-0.046-0.188-0.116-0.251 0.084-0.062 0.142-0.156 0.142-0.268 0-0.125-0.071-0.229-0.172-0.288 0.053-0.060 0.088-0.136 0.088-0.222 0-0.149-0.099-0.272-0.234-0.317 0.031-0.051 0.053-0.107 0.053-0.171 0-0.184-0.148-0.332-0.33-0.337 0.008-0.028 0.017-0.056 0.017-0.086 0-0.187-0.152-0.338-0.338-0.338-0.031 0-0.060 0.010-0.089 0.018 0.001-0.008 0.004-0.014 0.004-0.021 0-0.187-0.152-0.338-0.338-0.338-0.064 0-0.121 0.023-0.172 0.054-0.039-0.143-0.165-0.251-0.321-0.251-0.093 0-0.178 0.038-0.239 0.099-0.057-0.106-0.165-0.18-0.294-0.18-0.117 0-0.216 0.064-0.276 0.154-0.062-0.066-0.148-0.108-0.245-0.108-0.125 0-0.23 0.072-0.289 0.173-0.062-0.069-0.15-0.115-0.25-0.115-0.124 0-0.228 0.070-0.287 0.17-0.058-0.045-0.127-0.077-0.206-0.077-0.142 0-0.263 0.089-0.313 0.213-0.061-0.059-0.143-0.096-0.234-0.096-0.129 0-0.238 0.075-0.295 0.182-0.025-0.015-0.050-0.028-0.079-0.036 0.071-0.105 0.113-0.232 0.113-0.369 0-0.265-0.158-0.493-0.384-0.598l0.095-0.19c0.015-0.029 0.015-0.064 0-0.093l-0.114-0.228c0.008-0.008 0.016-0.015 0.024-0.024l0.229 0.114c0.015 0.007 0.031 0.011 0.047 0.011s0.032-0.004 0.047-0.011l0.556-0.278c0.035-0.018 0.058-0.054 0.058-0.093s-0.022-0.075-0.058-0.093l-0.556-0.278c-0.029-0.015-0.064-0.015-0.093 0l-0.228 0.114c-0.008-0.008-0.016-0.016-0.024-0.024l0.114-0.228c0.015-0.029 0.015-0.064 0-0.093l-0.278-0.556c-0.035-0.071-0.151-0.071-0.187 0l-0.278 0.556c-0.015 0.029-0.015 0.064 0 0.093l0.114 0.228c-0.008 0.008-0.016 0.015-0.024 0.024l-0.229-0.114c-0.029-0.015-0.064-0.014-0.093 0l-0.556 0.278c-0.035 0.018-0.058 0.054-0.058 0.093s0.022 0.075 0.058 0.093l0.556 0.278c0.015 0.007 0.031 0.011 0.047 0.011s0.032-0.004 0.047-0.011l0.228-0.114c0.008 0.008 0.016 0.016 0.024 0.024l-0.114 0.228c-0.015 0.029-0.015 0.064 0 0.093l0.095 0.19c-0.226 0.105-0.384 0.333-0.384 0.598 0 0.134 0.041 0.258 0.109 0.362-0.041 0.008-0.079 0.022-0.113 0.043-0.057-0.106-0.166-0.182-0.295-0.182-0.091 0-0.174 0.037-0.234 0.096-0.050-0.125-0.171-0.213-0.313-0.213-0.079 0-0.148 0.031-0.206 0.077-0.059-0.099-0.163-0.17-0.287-0.17-0.1 0-0.188 0.046-0.25 0.115-0.059-0.101-0.164-0.173-0.289-0.173-0.097 0-0.183 0.042-0.245 0.108-0.061-0.091-0.159-0.154-0.276-0.154-0.128 0-0.237 0.075-0.294 0.18-0.061-0.061-0.146-0.099-0.239-0.099-0.155 0-0.281 0.108-0.321 0.251-0.051-0.031-0.108-0.054-0.172-0.054-0.187 0-0.338 0.152-0.338 0.338 0 0.008 0.004 0.014 0.004 0.021-0.029-0.008-0.057-0.018-0.089-0.018-0.187 0-0.338 0.152-0.338 0.338 0 0.031 0.010 0.058 0.017 0.086-0.183 0.005-0.33 0.153-0.33 0.337 0 0.064 0.022 0.12 0.053 0.171-0.135 0.045-0.234 0.168-0.234 0.317 0 0.086 0.035 0.162 0.088 0.222-0.101 0.059-0.172 0.163-0.172 0.288 0 0.112 0.058 0.206 0.142 0.268-0.070 0.062-0.116 0.15-0.116 0.251 0 0.127 0.073 0.233 0.177 0.291-0.031 0.051-0.054 0.108-0.054 0.172 0 0.079 0.031 0.149 0.077 0.206-0.075 0.022-0.122 0.040-0.124 0.041-0.028 0.011-0.050 0.035-0.060 0.064s-0.006 0.061 0.009 0.087c0.008 0.014 0.828 1.39 1.099 2.747 0.007 0.034 0.031 0.055 0.060 0.069 0.208 0.282 2.015 0.502 4.213 0.502s4.005-0.22 4.213-0.502c0.029-0.014 0.053-0.035 0.060-0.069 0.271-1.356 1.091-2.734 1.1-2.747 0.015-0.026 0.019-0.058 0.009-0.087zM12.441 8.681v-1.632c0.132-0.011 0.261-0.015 0.385-0.011v1.695c-0.115-0.056-0.245-0.072-0.385-0.053zM11.241 6.459c0.003 0.003 0.007 0.004 0.010 0.007-0.004 0.001-0.009 0.002-0.013 0.003 0.001-0.003 0.002-0.006 0.003-0.010zM14.905 8.913c0.072 0 0.13 0.058 0.13 0.13s-0.058 0.13-0.13 0.13-0.13-0.058-0.13-0.13 0.058-0.13 0.13-0.13zM15.027 8.708c-0.072 0-0.13-0.058-0.13-0.13s0.058-0.13 0.13-0.13c0.072 0 0.13 0.058 0.13 0.13s-0.058 0.13-0.13 0.13zM14.923 8.060c0-0.072 0.058-0.13 0.13-0.13s0.13 0.058 0.13 0.13-0.058 0.13-0.13 0.13-0.13-0.058-0.13-0.13zM11.046 9.353c-0.124-0.473-0.286-1.186-0.354-1.899 0.072-0.025 0.195-0.066 0.354-0.114v2.013zM9.308 7.463c-0.073 0.758-0.252 1.518-0.379 1.985v-2.109c0.179 0.054 0.313 0.1 0.379 0.123zM10.136 6.606c0 0.072-0.058 0.13-0.13 0.13s-0.13-0.058-0.13-0.13 0.058-0.13 0.13-0.13 0.13 0.058 0.13 0.13zM8.734 6.459l-0.001-0c0 0 0.001-0 0.001-0s0 0 0 0.001zM4.922 7.931c0.072 0 0.13 0.058 0.13 0.13s-0.058 0.13-0.13 0.13c-0.072 0-0.13-0.058-0.13-0.13s0.058-0.13 0.13-0.13zM5.077 8.579c0 0.072-0.058 0.13-0.13 0.13s-0.13-0.058-0.13-0.13 0.058-0.13 0.13-0.13c0.072 0 0.13 0.058 0.13 0.13zM5.070 8.913c0.072 0 0.13 0.058 0.13 0.13s-0.058 0.13-0.13 0.13c-0.072 0-0.13-0.058-0.13-0.13s0.058-0.13 0.13-0.13zM5.605 7.156c0.204-0.33 0.603-0.724 1.342-0.724 0.722 0 1.741 0.221 2.394 0.383 0 0.142-0.006 0.287-0.016 0.433-0.445-0.155-2.216-0.722-2.97-0.206-0.852 0.585-0.583 1.7-0.424 2.162-0.136-0.037-0.273-0.053-0.404-0.056-0.308-0.618-0.277-1.417 0.077-1.991zM6.193 9.304c-0.073-0.171-0.542-1.349 0.155-1.987v2.080c-0.050-0.036-0.102-0.066-0.155-0.093zM6.556 7.17c0.11-0.057 0.24-0.094 0.385-0.114v1.856c-0.209 0.212-0.302 0.504-0.343 0.723-0.013-0.017-0.028-0.030-0.042-0.046l0-2.419zM7.149 7.039c0.124-0.004 0.252-0.001 0.385 0.011v1.63c-0.023-0.002-0.047-0.008-0.069-0.008-0.103 0-0.199 0.021-0.286 0.065-0.011 0.005-0.019 0.013-0.030 0.018v-1.717zM7.742 7.072c0.129 0.017 0.258 0.040 0.385 0.065v1.785c-0.132-0.091-0.261-0.157-0.385-0.198v-1.652zM8.336 7.181c0.137 0.031 0.266 0.064 0.385 0.098v2.207c-0.115-0.145-0.247-0.283-0.385-0.403v-1.902zM9.549 6.868c0.157 0.041 0.28 0.075 0.353 0.095v1.769c-0.283 0.029-0.499 0.173-0.663 0.35 0.147-0.611 0.305-1.446 0.31-2.214zM10.111 6.963c0.071-0.020 0.189-0.052 0.34-0.092 0.006 0.76 0.161 1.585 0.306 2.194-0.163-0.169-0.373-0.306-0.646-0.334v-1.769h0zM11.254 7.279c0.119-0.033 0.248-0.066 0.385-0.098v1.918c0 0.005 0.002 0.009 0.003 0.014-0.14 0.127-0.273 0.272-0.387 0.423v-2.258zM11.847 7.137c0.126-0.025 0.255-0.048 0.385-0.065v1.662c-0.124 0.045-0.253 0.117-0.385 0.213v-1.81zM13.034 7.056c0.145 0.020 0.275 0.057 0.385 0.114v2.442c0 0.005 0.002 0.010 0.003 0.015-0.002 0.003-0.004 0.005-0.007 0.007-0.043-0.232-0.146-0.543-0.381-0.757v-1.822zM13.627 7.317c0.747 0.684 0.152 1.994 0.145 2.008-0.001 0.001-0 0.003-0.001 0.004-0.050 0.028-0.098 0.061-0.144 0.098v-2.11zM13.619 7.041c-0.738-0.506-2.458 0.031-2.945 0.198-0.010-0.142-0.016-0.283-0.016-0.421 0.652-0.163 1.68-0.386 2.407-0.386 0.74 0 1.138 0.393 1.342 0.724 0.354 0.574 0.385 1.373 0.077 1.991-0.145 0.003-0.297 0.023-0.447 0.069 0.159-0.454 0.441-1.584-0.419-2.174zM14.969 7.68c-0.072 0-0.13-0.058-0.13-0.13s0.058-0.13 0.13-0.13c0.072 0 0.13 0.058 0.13 0.13s-0.058 0.13-0.13 0.13zM14.918 7.062c0 0.072-0.058 0.13-0.13 0.13s-0.13-0.058-0.13-0.13 0.058-0.13 0.13-0.13c0.072 0 0.13 0.058 0.13 0.13zM14.605 6.639c0 0.072-0.058 0.13-0.13 0.13s-0.13-0.058-0.13-0.13 0.058-0.13 0.13-0.13c0.072 0 0.13 0.058 0.13 0.13zM14.053 6.168c0.072 0 0.13 0.058 0.13 0.13s-0.058 0.13-0.13 0.13c-0.072 0-0.13-0.058-0.13-0.13s0.058-0.13 0.13-0.13zM13.56 5.971c0.072 0 0.13 0.058 0.13 0.13s-0.058 0.13-0.13 0.13-0.13-0.058-0.13-0.13 0.058-0.13 0.13-0.13zM13.027 5.89c0.072 0 0.13 0.058 0.13 0.13s-0.058 0.13-0.13 0.13c-0.072 0-0.13-0.058-0.13-0.13s0.058-0.13 0.13-0.13zM12.506 5.936c0.072 0 0.13 0.058 0.13 0.13s-0.058 0.13-0.13 0.13c-0.072 0-0.13-0.058-0.13-0.13s0.058-0.13 0.13-0.13zM11.967 5.994c0.072 0 0.13 0.058 0.13 0.13s-0.058 0.13-0.13 0.13c-0.072 0-0.13-0.058-0.13-0.13s0.058-0.13 0.13-0.13zM11.475 6.087c0.072 0 0.13 0.058 0.13 0.13s-0.058 0.13-0.13 0.13c-0.072 0-0.13-0.058-0.13-0.13s0.058-0.13 0.13-0.13zM10.927 6.204c0.072 0 0.13 0.058 0.13 0.13s-0.058 0.13-0.13 0.13c-0.072 0-0.13-0.058-0.13-0.13s0.058-0.13 0.13-0.13zM10.458 6.59c-0.072 0-0.13-0.058-0.13-0.13s0.058-0.13 0.13-0.13 0.13 0.058 0.13 0.13-0.058 0.13-0.13 0.13zM9.833 4.381c0-0.096 0.078-0.174 0.174-0.174s0.174 0.078 0.174 0.174-0.078 0.174-0.174 0.174c-0.096 0-0.174-0.078-0.174-0.174zM10.563 4.22l0.323 0.162-0.323 0.162-0.181-0.090c0.004-0.023 0.007-0.047 0.007-0.071s-0.003-0.048-0.007-0.071l0.181-0.090zM9.845 3.825l0.161-0.323 0.161 0.323-0.091 0.181c-0.023-0.004-0.047-0.007-0.071-0.007s-0.048 0.003-0.071 0.007l-0.091-0.181zM9.45 4.543l-0.323-0.162 0.323-0.162 0.181 0.090c-0.004 0.023-0.007 0.047-0.007 0.071s0.003 0.048 0.007 0.071l-0.181 0.090zM9.845 4.938l0.091-0.181c0.023 0.004 0.047 0.007 0.071 0.007s0.048-0.003 0.071-0.007l0.091 0.181-0.091 0.181c-0.024-0.003-0.047-0.007-0.071-0.007s-0.047 0.005-0.071 0.007l-0.091-0.181zM10.006 5.32c0.249 0 0.452 0.203 0.452 0.452s-0.203 0.452-0.452 0.452c-0.249 0-0.452-0.203-0.452-0.452s0.203-0.452 0.452-0.452zM9.516 6.33c0.072 0 0.13 0.058 0.13 0.13s-0.058 0.13-0.13 0.13c-0.072 0-0.13-0.058-0.13-0.13s0.058-0.13 0.13-0.13zM9.047 6.204c0.072 0 0.13 0.058 0.13 0.13s-0.058 0.13-0.13 0.13-0.13-0.058-0.13-0.13 0.058-0.13 0.13-0.13zM8.5 6.087c0.072 0 0.13 0.058 0.13 0.13s-0.058 0.13-0.13 0.13c-0.072 0-0.13-0.058-0.13-0.13s0.058-0.13 0.13-0.13zM8.007 5.994c0.072 0 0.13 0.058 0.13 0.13s-0.058 0.13-0.13 0.13c-0.072 0-0.13-0.058-0.13-0.13s0.058-0.13 0.13-0.13zM7.468 5.936c0.072 0 0.13 0.058 0.13 0.13s-0.058 0.13-0.13 0.13c-0.072 0-0.13-0.058-0.13-0.13s0.058-0.13 0.13-0.13zM6.947 5.89c0.072 0 0.13 0.058 0.13 0.13s-0.058 0.13-0.13 0.13c-0.072 0-0.13-0.058-0.13-0.13s0.058-0.13 0.13-0.13zM6.414 5.971c0.072 0 0.13 0.058 0.13 0.13s-0.058 0.13-0.13 0.13c-0.072 0-0.13-0.058-0.13-0.13s0.058-0.13 0.13-0.13zM5.922 6.168c0.072 0 0.13 0.058 0.13 0.13s-0.058 0.13-0.13 0.13c-0.072 0-0.13-0.058-0.13-0.13s0.058-0.13 0.13-0.13zM5.499 6.51c0.072 0 0.13 0.058 0.13 0.13s-0.058 0.13-0.13 0.13c-0.072 0-0.13-0.058-0.13-0.13s0.058-0.13 0.13-0.13zM5.186 6.932c0.072 0 0.13 0.058 0.13 0.13s-0.058 0.13-0.13 0.13c-0.072 0-0.13-0.058-0.13-0.13s0.058-0.13 0.13-0.13zM5.006 7.42c0.072 0 0.13 0.058 0.13 0.13s-0.058 0.13-0.13 0.13c-0.072 0-0.13-0.058-0.13-0.13s0.058-0.13 0.13-0.13zM14.094 12.059c-0.481-0.238-2.126-0.413-4.088-0.413s-3.607 0.175-4.088 0.413c-0.249-1.151-0.843-2.265-1.042-2.615 0.33-0.101 1.276-0.302 1.699 0.546 0.022 0.043 0.070 0.066 0.117 0.055s0.080-0.053 0.080-0.102c0-0.008 0.006-0.773 0.498-1.019 0.488-0.243 1.277 0.563 1.528 1.066 0 0 0 0 0 0 0.008 0.016 0.022 0.029 0.038 0.039 0.003 0.002 0.006 0.004 0.010 0.006 0.005 0.002 0.008 0.006 0.013 0.007 0.011 0.004 0.022 0.005 0.032 0.005 0.002 0 0.004-0.002 0.005-0.002s0.004 0.001 0.006 0.001c0.010-0.001 0.017-0.008 0.026-0.011s0.019-0.005 0.027-0.012c0.010-0.008 0.015-0.018 0.021-0.029 0.004-0.007 0.012-0.011 0.014-0.019 0.003-0.009 0.016-0.050 0.035-0.113 0.091-0.263 0.38-0.927 0.978-0.927 0.507 0 0.792 0.478 0.923 0.784 0.043 0.147 0.072 0.241 0.077 0.256 0.014 0.044 0.055 0.072 0.099 0.072 0.011 0 0.021-0.002 0.032-0.005 0.002-0.001 0.003-0.002 0.005-0.003 0.029-0.007 0.055-0.022 0.069-0.050 0.251-0.503 1.041-1.307 1.528-1.066 0.033 0.016 0.063 0.035 0.092 0.056 0.028 0.024 0.047 0.041 0.080 0.067 0.321 0.313 0.327 0.889 0.327 0.896 0 0.048 0.033 0.090 0.080 0.102s0.096-0.012 0.117-0.055c0.423-0.846 1.369-0.646 1.699-0.545-0.198 0.35-0.793 1.464-1.041 2.615z"/><path fill="#464655" d="M10.418 9.767c-0.014 0.011-0.027 0.023-0.040 0.035-0.101 0.095-0.267 0.020-0.267-0.118v-0.019c0-0.058-0.047-0.104-0.104-0.104s-0.104 0.047-0.104 0.104v0.019c0 0.139-0.166 0.214-0.267 0.118-0.013-0.012-0.026-0.024-0.040-0.035-0.044-0.036-0.11-0.031-0.147 0.014s-0.031 0.11 0.014 0.147c0.285 0.236 0.44 0.794 0.44 1.014v0.113c0 0.058 0.047 0.104 0.104 0.104s0.104-0.047 0.104-0.104v-0.113c0-0.22 0.155-0.778 0.44-1.014 0.044-0.037 0.050-0.103 0.014-0.147s-0.102-0.050-0.147-0.014z"/><path fill="#464655" d="M12.782 10.205c-0.012-0.001-0.024-0.001-0.037-0.001-0.098 0.007-0.193-0.132-0.146-0.239 0.002-0.005 0.004-0.009 0.006-0.014 0.018-0.042 0.004-0.11-0.030-0.154s-0.080-0.042-0.101 0.007c-0.002 0.005-0.005 0.010-0.007 0.016-0.049 0.112-0.191 0.078-0.213-0.086-0.003-0.021-0.006-0.043-0.009-0.064-0.011-0.069-0.051-0.118-0.094-0.098s-0.071 0.096-0.061 0.167c0.060 0.466-0.009 0.958-0.088 1.136-0.014 0.032-0.028 0.063-0.042 0.095-0.021 0.049 0.006 0.086 0.062 0.082s0.117-0.043 0.135-0.084c0.012-0.028 0.024-0.055 0.036-0.083 0.075-0.171 0.388-0.549 0.645-0.529 0.041-0 0.059-0.027 0.042-0.068s-0.060-0.080-0.1-0.084z"/><path fill="#464655" d="M14.329 10.529c-0.010 0-0.020 0.001-0.031 0.002-0.082 0.014-0.151-0.114-0.104-0.221 0.002-0.005 0.004-0.009 0.006-0.014 0.018-0.042 0.012-0.106-0.014-0.147s-0.063-0.035-0.085 0.014c-0.002 0.005-0.005 0.010-0.007 0.016-0.049 0.112-0.165 0.090-0.172-0.068-0.001-0.020-0.002-0.041-0.003-0.061-0.004-0.066-0.034-0.11-0.071-0.088s-0.066 0.099-0.063 0.166c0.016 0.447-0.077 0.928-0.156 1.106-0.014 0.032-0.028 0.063-0.042 0.095-0.021 0.049-0.001 0.083 0.046 0.075s0.101-0.050 0.119-0.091c0.012-0.028 0.024-0.055 0.036-0.083 0.075-0.171 0.364-0.559 0.577-0.559 0.034-0.003 0.051-0.031 0.040-0.068s-0.044-0.073-0.077-0.074z"/><path fill="#464655" d="M8.009 10.875c-0.079-0.179-0.148-0.67-0.088-1.136 0.010-0.071-0.018-0.148-0.061-0.167s-0.083 0.029-0.094 0.098c-0.003 0.021-0.006 0.043-0.009 0.064-0.022 0.164-0.164 0.198-0.213 0.086-0.002-0.005-0.005-0.011-0.007-0.016-0.021-0.049-0.066-0.051-0.101-0.007s-0.049 0.112-0.030 0.154c0.002 0.005 0.004 0.009 0.006 0.014 0.047 0.108-0.048 0.246-0.146 0.239-0.012-0-0.024 0-0.037 0.001-0.040 0.003-0.083 0.044-0.1 0.084s0.001 0.067 0.042 0.068c0.257-0.020 0.57 0.358 0.645 0.529 0.012 0.028 0.024 0.055 0.036 0.083 0.018 0.042 0.079 0.080 0.135 0.084s0.083-0.034 0.062-0.082c-0.014-0.032-0.028-0.063-0.042-0.095z"/><path fill="#464655" d="M6.381 11.235c-0.079-0.179-0.172-0.66-0.156-1.106 0.003-0.068-0.026-0.145-0.063-0.166s-0.067 0.022-0.071 0.088c-0.001 0.020-0.002 0.041-0.003 0.061-0.007 0.157-0.122 0.179-0.172 0.068-0.002-0.005-0.005-0.010-0.007-0.016-0.021-0.049-0.059-0.054-0.085-0.014s-0.032 0.105-0.014 0.147c0.002 0.005 0.004 0.009 0.006 0.014 0.047 0.108-0.022 0.235-0.104 0.221-0.010-0.001-0.020-0.002-0.031-0.002-0.033 0-0.066 0.036-0.077 0.074s0.006 0.065 0.040 0.068c0.213-0 0.502 0.389 0.577 0.559 0.012 0.028 0.024 0.055 0.036 0.083 0.018 0.042 0.072 0.083 0.119 0.091s0.067-0.026 0.046-0.075c-0.014-0.032-0.028-0.063-0.042-0.095z"/></svg>