<svg xmlns="http://www.w3.org/2000/svg" width="32" height="32" version="1.1" viewBox="0 0 32 32"><title>macao</title><path fill="#5aa587" d="M0 0h32v32h-32v-32z"/><path fill="#f5f5f5" d="M18.015 20.351c0.944 0.226 1.952 0.243 2.96-0.007 1.776-0.441 3.18-1.598 3.996-3.085-1.417-0.932-3.199-1.298-4.975-0.857-0.955 0.237-1.792 0.691-2.498 1.283 0.007-0.009 0.012-0.018 0.019-0.026 2.615-2.358 5.533-1.596 5.533-1.596l0.691-0.59c0 0-2.944-1.017-5.581 1.164 1.632-3.16-0.129-5.87-0.129-5.87l-0.406 0.812c0 0 1.465 2.686-0.249 5.819-0.002 0.002-0.004 0.005-0.006 0.007 0.418-0.839 0.661-1.779 0.661-2.78 0-1.829-0.785-3.471-2.031-4.622-1.246 1.15-2.031 2.792-2.031 4.622 0 1.001 0.243 1.941 0.661 2.78-0.002-0.002-0.004-0.005-0.006-0.007-1.713-3.134-0.249-5.819-0.249-5.819l-0.406-0.812c0 0-1.761 2.711-0.129 5.87-2.637-2.181-5.581-1.164-5.581-1.164l0.691 0.59c0 0 2.919-0.761 5.533 1.596 0.007 0.009 0.012 0.018 0.019 0.026-0.706-0.592-1.543-1.046-2.498-1.283-1.776-0.441-3.558-0.075-4.975 0.857 0.816 1.486 2.221 2.644 3.996 3.085 1.008 0.25 2.015 0.233 2.96 0.007-3.518 0.983-5.818-1.135-5.818-1.135l-0.886 0.198c0 0 3.555 3.812 8.72 0.073 5.165 3.74 8.72-0.073 8.72-0.073l-0.886-0.198c-0 0-2.301 2.119-5.819 1.135z"/><path fill="#f5f5f5" d="M10.867 24.739c0.367 0.228 0.751 0.431 1.148 0.609h7.969c0.397-0.178 0.781-0.381 1.148-0.609h-10.266z"/><path fill="#f5f5f5" d="M12.729 25.636c1.023 0.364 2.123 0.564 3.271 0.564s2.248-0.2 3.271-0.564h-6.541z"/><path fill="#f5f5f5" d="M8.706 22.917c0.123 0.139 0.249 0.275 0.379 0.406h13.828c0.131-0.131 0.256-0.267 0.379-0.406h-14.587z"/><path fill="#f5f5f5" d="M9.598 23.8c0.204 0.177 0.413 0.347 0.631 0.508h11.542c0.218-0.16 0.428-0.33 0.631-0.508h-12.805z"/><path fill="#f5f5f5" d="M20.062 21.834c-2.275 0-3.831-1.52-3.847-1.536l-0.216-0.214-0.215 0.215c-0.015 0.015-1.562 1.535-3.846 1.535h-4.066c0.139 0.209 0.286 0.412 0.44 0.609h3.625c2.044 0 3.527-1.069 4.062-1.52 0.535 0.451 2.018 1.52 4.062 1.52h3.625c0.154-0.197 0.302-0.4 0.44-0.609l-4.066-0z"/><path fill="#ffe15a" d="M15.893 5.877l-0.356 1.069-1.127 0.009c-0.108 0.001-0.153 0.139-0.066 0.203l0.906 0.669-0.34 1.074c-0.033 0.103 0.085 0.188 0.173 0.125l0.917-0.655 0.917 0.655c0.088 0.063 0.205-0.022 0.173-0.125l-0.34-1.074 0.906-0.669c0.087-0.064 0.042-0.202-0.066-0.203l-1.127-0.009-0.356-1.069c-0.034-0.103-0.179-0.103-0.213 0z"/><path fill="#ffe15a" d="M10.562 8.064l0.206 0.749-0.642 0.438c-0.062 0.042-0.034 0.138 0.040 0.142l0.776 0.035 0.218 0.746c0.021 0.072 0.121 0.075 0.147 0.006l0.274-0.727 0.777 0.023c0.075 0.002 0.109-0.092 0.051-0.138l-0.607-0.485 0.262-0.732c0.025-0.070-0.053-0.132-0.116-0.091l-0.649 0.428-0.615-0.475c-0.059-0.045-0.142 0.010-0.122 0.082z"/><path fill="#ffe15a" d="M7.454 11.838l0.562 0.537-0.326 0.706c-0.031 0.068 0.042 0.136 0.107 0.101l0.684-0.369 0.57 0.528c0.055 0.051 0.142 0.003 0.129-0.071l-0.139-0.765 0.678-0.379c0.065-0.036 0.046-0.135-0.027-0.145l-0.77-0.104-0.151-0.762c-0.014-0.073-0.114-0.086-0.146-0.019l-0.337 0.7-0.772-0.092c-0.074-0.009-0.117 0.082-0.063 0.133z"/><path fill="#ffe15a" d="M21.615 8.064l-0.206 0.749 0.642 0.438c0.062 0.042 0.034 0.138-0.040 0.142l-0.776 0.035-0.218 0.746c-0.021 0.072-0.121 0.075-0.147 0.006l-0.273-0.727-0.777 0.023c-0.075 0.002-0.109-0.092-0.051-0.138l0.607-0.485-0.262-0.732c-0.025-0.070 0.053-0.132 0.116-0.091l0.649 0.428 0.615-0.475c0.059-0.045 0.142 0.010 0.122 0.082z"/><path fill="#ffe15a" d="M24.723 11.838l-0.562 0.537 0.326 0.706c0.031 0.068-0.042 0.136-0.107 0.101l-0.684-0.369-0.57 0.528c-0.055 0.051-0.142 0.003-0.129-0.071l0.139-0.765-0.678-0.379c-0.065-0.036-0.046-0.135 0.027-0.145l0.77-0.104 0.151-0.762c0.015-0.073 0.114-0.086 0.146-0.019l0.337 0.7 0.772-0.092c0.074-0.009 0.117 0.082 0.063 0.133z"/></svg>