<!-- Generated by IcoMoon.io -->
<svg version="1.1" xmlns="http://www.w3.org/2000/svg" width="32" height="32" viewBox="0 0 32 32">
<title>malawi</title>
<path fill="#73af00" d="M0 21.333h32v10.667h-32v-10.667z"></path>
<path fill="#464655" d="M0 0h32v10.667h-32v-10.667z"></path>
<path fill="#ff4b55" d="M0 10.667h32v10.667h-32v-10.667z"></path>
<path fill="#ff4b55" d="M22.543 9.661c-1.314-2.25-3.749-3.766-6.543-3.766s-5.228 1.516-6.543 3.766h13.085z"></path>
<path fill="#ff4b55" d="M16.435 2.316c0 0.378-0.435 2.737-0.435 2.737s-0.435-2.359-0.435-2.737 0.195-0.684 0.435-0.684c0.24-0 0.435 0.306 0.435 0.684z"></path>
<path fill="#ff4b55" d="M24.179 5.884c-0.267 0.267-2.243 1.628-2.243 1.628s1.36-1.976 1.628-2.243c0.267-0.267 0.622-0.346 0.791-0.176s0.091 0.524-0.176 0.792z"></path>
<path fill="#ff4b55" d="M8.436 5.269c0.267 0.267 1.628 2.243 1.628 2.243s-1.976-1.36-2.243-1.628c-0.267-0.267-0.346-0.622-0.176-0.791s0.524-0.091 0.792 0.176z"></path>
<path fill="#ff4b55" d="M12.142 2.997c0.145 0.349 0.645 2.695 0.645 2.695s-1.305-2.013-1.449-2.362-0.082-0.707 0.14-0.799 0.519 0.116 0.664 0.466z"></path>
<path fill="#ff4b55" d="M20.662 3.33c-0.145 0.349-1.449 2.362-1.449 2.362s0.501-2.346 0.645-2.695 0.442-0.558 0.664-0.466c0.222 0.092 0.285 0.45 0.14 0.799z"></path>
<path fill="#ff4b55" d="M14.214 2.451c0.075 0.37 0.118 2.769 0.118 2.769s-0.895-2.225-0.97-2.596 0.055-0.709 0.29-0.757c0.236-0.048 0.487 0.214 0.562 0.584z"></path>
<path fill="#ff4b55" d="M22.512 4.409c-0.209 0.315-1.875 2.041-1.875 2.041s0.941-2.207 1.149-2.522 0.54-0.463 0.741-0.33 0.194 0.496-0.015 0.811z"></path>
<path fill="#ff4b55" d="M6.962 6.935c0.315 0.209 2.041 1.875 2.041 1.875s-2.207-0.941-2.522-1.149-0.463-0.54-0.33-0.741c0.133-0.2 0.496-0.194 0.811 0.015z"></path>
<path fill="#ff4b55" d="M10.142 3.972c0.211 0.313 1.168 2.513 1.168 2.513s-1.679-1.713-1.89-2.027c-0.211-0.313-0.221-0.676-0.021-0.811s0.532 0.011 0.743 0.324z"></path>
<path fill="#ff4b55" d="M25.475 7.589c-0.313 0.211-2.513 1.168-2.513 1.168s1.713-1.679 2.027-1.89c0.313-0.211 0.676-0.221 0.811-0.021s-0.011 0.532-0.324 0.743z"></path>
<path fill="#ff4b55" d="M18.558 2.605c-0.072 0.371-0.951 2.603-0.951 2.603s0.024-2.399 0.097-2.769 0.322-0.634 0.558-0.588c0.236 0.046 0.368 0.384 0.296 0.755z"></path>
<path fill="#ff4b55" d="M18.817 2.669c-0.11 0.362-0.379 2.745-0.379 2.745s1.102-2.131 1.211-2.493 0.012-0.711-0.218-0.781-0.505 0.167-0.615 0.528z"></path>
<path fill="#ff4b55" d="M10.371 3.834c0.178 0.333 1.673 2.209 1.673 2.209s-0.728-2.286-0.906-2.619-0.494-0.512-0.706-0.398c-0.212 0.113-0.239 0.475-0.061 0.808z"></path>
<path fill="#ff4b55" d="M25.613 7.818c-0.333 0.178-2.209 1.673-2.209 1.673s2.286-0.728 2.619-0.906c0.333-0.178 0.512-0.494 0.398-0.706s-0.475-0.239-0.808-0.061z"></path>
<path fill="#ff4b55" d="M22.727 4.568c-0.24 0.292-1.4 2.391-1.4 2.391s1.833-1.547 2.073-1.839 0.284-0.652 0.098-0.805c-0.186-0.153-0.531-0.039-0.77 0.253z"></path>
<path fill="#ff4b55" d="M7.12 6.72c0.292 0.24 2.391 1.4 2.391 1.4s-1.547-1.833-1.839-2.073c-0.292-0.24-0.652-0.284-0.805-0.098s-0.039 0.531 0.253 0.77z"></path>
<path fill="#ff4b55" d="M14.478 2.412c0.037 0.376 0.701 2.681 0.701 2.681s0.202-2.39 0.165-2.766-0.261-0.662-0.5-0.638c-0.239 0.024-0.403 0.347-0.366 0.724z"></path>
<path fill="#ff4b55" d="M16.674 2.328c-0.038 0.376 0.161 2.767 0.161 2.767s0.667-2.304 0.705-2.68-0.126-0.7-0.365-0.724c-0.239-0.024-0.463 0.262-0.501 0.638z"></path>
<path fill="#ff4b55" d="M8.613 5.108c0.239 0.292 2.070 1.843 2.070 1.843s-1.157-2.101-1.397-2.394-0.584-0.406-0.77-0.254-0.143 0.513 0.097 0.805z"></path>
<path fill="#ff4b55" d="M24.339 6.061c-0.292 0.239-1.843 2.070-1.843 2.070s2.101-1.157 2.394-1.397 0.406-0.584 0.254-0.77c-0.152-0.186-0.513-0.143-0.805 0.097z"></path>
<path fill="#ff4b55" d="M20.878 3.432c-0.179 0.333-0.91 2.617-0.91 2.617s1.498-1.873 1.677-2.206 0.152-0.695-0.060-0.809c-0.212-0.114-0.528 0.064-0.707 0.397z"></path>
<path fill="#ff4b55" d="M5.984 8.57c0.333 0.179 2.618 0.91 2.618 0.91s-1.873-1.498-2.206-1.677-0.695-0.152-0.809 0.060c-0.114 0.212 0.064 0.528 0.397 0.707z"></path>
<path fill="#ff4b55" d="M12.367 2.916c0.109 0.362 1.207 2.494 1.207 2.494s-0.265-2.384-0.374-2.746-0.384-0.599-0.614-0.529c-0.23 0.069-0.328 0.419-0.219 0.781z"></path>
</svg>
