<svg xmlns="http://www.w3.org/2000/svg" width="32" height="32" version="1.1" viewBox="0 0 32 32"><title>malasya</title><path fill="#ff4b55" d="M0 0h32v2.286h-32v-2.286z"/><path fill="#f5f5f5" d="M0 2.286h32v2.286h-32v-2.286z"/><path fill="#ff4b55" d="M0 4.571h32v2.286h-32v-2.286z"/><path fill="#f5f5f5" d="M0 6.857h32v2.286h-32v-2.286z"/><path fill="#ff4b55" d="M0 9.143h32v2.286h-32v-2.286z"/><path fill="#f5f5f5" d="M0 11.429h32v2.286h-32v-2.286z"/><path fill="#ff4b55" d="M0 13.714h32v2.286h-32v-2.286z"/><path fill="#f5f5f5" d="M0 16h32v2.286h-32v-2.286z"/><path fill="#ff4b55" d="M32 20.571h-32v-3.729h0.842l0 1.444h31.158z"/><path fill="#f5f5f5" d="M0 20.571h32v2.286h-32v-2.286z"/><path fill="#ff4b55" d="M0 22.857h32v2.286h-32v-2.286z"/><path fill="#f5f5f5" d="M0 25.143h32v2.286h-32v-2.286z"/><path fill="#ff4b55" d="M0 27.429h32v2.286h-32v-2.286z"/><path fill="#f5f5f5" d="M0 29.714h32v2.286h-32v-2.286z"/><path fill="#41479b" d="M0 0h18.286v18.286h-18.286v-18.286z"/><path fill="#ffe15a" d="M3.922 9.134c0-2.718 2.206-4.922 4.921-4.922 0.683 0 1.333 0.14 1.924 0.392 0.077 0.033 0.135-0.074 0.066-0.121-0.979-0.666-2.176-1.031-3.46-0.965-2.823 0.147-5.131 2.42-5.314 5.241-0.212 3.281 2.384 5.999 5.613 5.999 1.167 0 2.252-0.36 3.152-0.969 0.069-0.047 0.012-0.154-0.065-0.121-0.59 0.25-1.237 0.389-1.917 0.389-2.715 0-4.921-2.204-4.921-4.922z"/><path fill="#ffe15a" d="M15.171 9.134l2.080-0.805c0.103-0.040 0.068-0.193-0.042-0.185l-2.223 0.178 1.528-1.633c0.075-0.080-0.023-0.204-0.118-0.148l-1.931 1.126 0.666-2.131c0.033-0.105-0.109-0.173-0.171-0.082l-1.25 1.851-0.321-2.21c-0.016-0.109-0.173-0.109-0.189-0l-0.205 1.398-0.085 0.592-0.033 0.22-1.25-1.85c-0.062-0.091-0.204-0.023-0.171 0.082l0.669 2.129-1.93-1.126c-0.095-0.056-0.193 0.067-0.118 0.148l1.527 1.633-2.223-0.178c-0.11-0.009-0.145 0.145-0.042 0.185l2.082 0.805-2.082 0.805c-0.103 0.040-0.068 0.193 0.042 0.185l2.223-0.178-1.528 1.637c-0.075 0.081 0.023 0.204 0.118 0.148l1.93-1.13-0.669 2.129c-0.033 0.105 0.109 0.174 0.171 0.082l1.25-1.85 0.033 0.225 0.085 0.587 0.205 1.402c0.016 0.109 0.174 0.109 0.189-0l0.321-2.213 1.25 1.851c0.062 0.091 0.204 0.023 0.171-0.082l-0.666-2.131 1.93 1.13c0.095 0.056 0.194-0.067 0.118-0.148l-1.528-1.637 2.223 0.178c0.11 0.009 0.145-0.145 0.042-0.185l-2.080-0.805z"/></svg>