<!-- Generated by IcoMoon.io -->
<svg version="1.1" xmlns="http://www.w3.org/2000/svg" width="32" height="32" viewBox="0 0 32 32">
<title>marshall-island</title>
<path fill="#41479b" d="M0 0h32v32h-32v-32z"></path>
<path fill="#f5f5f5" d="M0 32l32-20.21v-5.895l-32 25.263z"></path>
<path fill="#ff9b55" d="M32 0l-32 30.316v0.842l32-25.263z"></path>
<path fill="#f5f5f5" d="M11.026 9.178l3.571-0.446-3.571-0.446 1.81-1.11-2.252 0.551 1.37-1.87-1.87 1.37 0.551-2.252-1.11 1.81-0.446-3.571-0.446 3.571-1.11-1.81 0.551 2.252-1.87-1.37 1.37 1.87-2.252-0.551 1.81 1.11-3.571 0.446 3.571 0.446-1.81 1.11 2.252-0.551-1.37 1.87 1.87-1.37-0.551 2.252 1.11-1.81 0.446 3.571 0.446-3.571 1.11 1.81-0.551-2.252 1.87 1.37-1.37-1.87 2.252 0.551z"></path>
</svg>
