<svg xmlns="http://www.w3.org/2000/svg" width="32" height="32" version="1.1" viewBox="0 0 32 32"><title>mauritania</title><path fill="#73af00" d="M0 0h32v32h-32v-32z"/><path fill="#ffe15a" d="M21.941 14.061c-0.015-0.094-0.151-0.090-0.162 0.005-0.329 2.9-2.789 5.153-5.778 5.153s-5.449-2.253-5.778-5.153c-0.011-0.095-0.147-0.1-0.162-0.005-0.046 0.292-0.071 0.59-0.071 0.895 0 3.317 2.692 6.009 6.011 6.009 3.32 0 6.011-2.693 6.011-6.009 0-0.305-0.025-0.603-0.071-0.895z"/><path fill="#ffe15a" d="M15.926 11.579l-0.435 1.303-1.374 0.011c-0.075 0.001-0.107 0.097-0.046 0.141l1.105 0.816-0.414 1.31c-0.023 0.072 0.059 0.131 0.12 0.087l1.118-0.799 1.118 0.799c0.061 0.044 0.143-0.016 0.12-0.087l-0.414-1.31 1.105-0.816c0.061-0.045 0.029-0.141-0.046-0.141l-1.374-0.011-0.435-1.303c-0.024-0.071-0.125-0.071-0.149 0z"/></svg>