<svg xmlns="http://www.w3.org/2000/svg" width="32" height="32" version="1.1" viewBox="0 0 32 32"><title>melilla</title><path fill="#4173cd" d="M0 0h32v32h-32v-32z"/><path fill="#73af00" d="M12.234 24.421c-0.071 1.258 0.762 1.413 1.213 1.42s1.135 0.205 1.771 0.335 0.841-0.396 0.841-0.396c0.376 0.492 0.743 0.342 0.743 0.342 0.301-0.301 1.103-0.451 1.417-0.472s0.239-0.451 0.239-0.451c0.329-0.183 0.552-0.393 0.712-0.605 0.007 0.003 0.013 0.008 0.020 0.011 0.54 0.232 0.957-0.26 1.046-0.444 0.055-0.114 0.156-0.165 0.227-0.189l0.025 0.285c0.232-0.335 0.738-0.212 0.738-0.212-0.52-0.8-1.046-0.431-1.046-0.431l0.204 0.194c-0.309 0.156-0.493 0.773-0.949 0.592-0.039-0.015-0.072-0.038-0.107-0.058 0.184-0.365 0.19-0.709 0.141-0.906-0.089-0.355-0.636-0.438-0.902-0.075-0.186 0.253-0.068 0.645 0.202 0.938-0.143 0.099-0.325 0.192-0.564 0.258-0.738 0.205-1.846-0.766-2.611-0.807s-1.436 0.602-1.818 1.012-0.896 0.047-0.889-0.219zM18.936 23.503c0.144-0.061 0.205 0.048 0.226 0.226 0.009 0.075-0.032 0.196-0.133 0.327-0.158-0.243-0.184-0.514-0.093-0.553z"/><path fill="#f5f5f5" d="M14.402 25.938l-0.408 0.21 0.114-0.282z"/><path fill="#f5f5f5" d="M14.021 25.841l-0.377 0.194 0.105-0.261z"/><path fill="#f5f5f5" d="M13.669 25.77l-0.279 0.157 0.072-0.2z"/><path fill="#f5f5f5" d="M16.801 26.121l-0.444 0.116 0.173-0.25z"/><path fill="#f5f5f5" d="M16.492 25.957l-0.414 0.094 0.167-0.226z"/><path fill="#f5f5f5" d="M16.204 25.805l-0.284 0.148 0.079-0.197z"/><path fill="#f5f5f5" d="M10.305 10.96c-0.080-0.114-0.074-0.256 0.013-0.317s0.222-0.019 0.302 0.095c0.080 0.114 0.074 0.256-0.013 0.317s-0.222 0.019-0.302-0.095z"/><path fill="#f5f5f5" d="M21.696 10.962c-0.080 0.114-0.215 0.156-0.302 0.095s-0.093-0.203-0.013-0.317c0.080-0.114 0.215-0.156 0.302-0.095s0.093 0.203 0.013 0.317z"/><path fill="#f5f5f5" d="M18.642 15.017v4.906c0 1.457-1.185 2.642-2.642 2.642s-2.642-1.185-2.642-2.642v-4.906h5.284zM20.151 13.13h-8.303c-0.208 0-0.377 0.169-0.377 0.377v6.416c0 2.501 2.028 4.529 4.529 4.529s4.529-2.028 4.529-4.529v-6.416c0-0.208-0.169-0.377-0.377-0.377v0z"/><path fill="#ff4b55" d="M13.358 15.017h-1.887v-1.387c0-0.276 0.224-0.5 0.5-0.5h1.387v1.887z"/><path fill="#ff4b55" d="M15.056 13.13h1.887v1.887h-1.887v-1.887z"/><path fill="#ff4b55" d="M11.471 16.904h1.887v1.887h-1.887v-1.887z"/><path fill="#ff4b55" d="M18.642 16.904h1.887v1.887h-1.887v-1.887z"/><path fill="#ff4b55" d="M20.529 15.017h-1.887v-1.887h1.387c0.276 0 0.5 0.224 0.5 0.5v1.387z"/><path fill="#ff4b55" d="M17.605 24.154l-0.726-1.742c-0.276 0.098-0.571 0.154-0.88 0.154s-0.604-0.056-0.88-0.154l-0.726 1.742c0.5 0.19 1.039 0.298 1.605 0.298s1.106-0.109 1.606-0.298z"/><path fill="#ff4b55" d="M12.659 22.974l1.476-1.181c-0.373-0.373-0.634-0.857-0.732-1.397l-1.819 0.52c0.175 0.782 0.553 1.486 1.076 2.058z"/><path fill="#ff4b55" d="M20.416 20.916l-1.819-0.52c-0.098 0.54-0.359 1.024-0.732 1.397l1.476 1.181c0.522-0.572 0.901-1.275 1.076-2.058z"/><path fill="#ffe15a" d="M12.037 13.508h0.755v1.133h-0.755v-1.133z"/><path fill="#ffe15a" d="M12.037 17.281h0.755v1.133h-0.755v-1.133z"/><path fill="#ffe15a" d="M12.414 21.056h0.755v1.133h-0.755v-1.133z"/><path fill="#ffe15a" d="M18.831 21.056h0.755v1.133h-0.755v-1.133z"/><path fill="#ffe15a" d="M19.208 13.508h0.755v1.133h-0.755v-1.133z"/><path fill="#ff4b55" d="M12.037 15.383h0.755v1.133h-0.755v-1.133z"/><path fill="#ff4b55" d="M19.208 15.383h0.755v1.133h-0.755v-1.133z"/><path fill="#ff4b55" d="M12.037 19.125h0.755v1.133h-0.755v-1.133z"/><path fill="#ff4b55" d="M13.664 22.463h0.755v1.133h-0.755v-1.133z"/><path fill="#ff4b55" d="M17.581 22.463h0.755v1.133h-0.755v-1.133z"/><path fill="#ff4b55" d="M19.208 19.125h0.755v1.133h-0.755v-1.133z"/><path fill="#ffe15a" d="M15.623 13.508h0.755v1.133h-0.755v-1.133z"/><path fill="#ff4b55" d="M13.83 13.508h0.755v1.133h-0.755v-1.133z"/><path fill="#ff4b55" d="M17.384 13.508h0.755v1.133h-0.755v-1.133z"/><path fill="#ffe15a" d="M19.208 17.281h0.755v1.133h-0.755v-1.133z"/><path fill="#ffe15a" d="M15.623 22.942h0.755v1.133h-0.755v-1.133z"/><path fill="#ffe15a" d="M16 15.736c0.728 0 1.321 0.593 1.321 1.321s-0.593 1.321-1.321 1.321-1.321-0.593-1.321-1.321c0-0.728 0.593-1.321 1.321-1.321zM16 15.548c-0.834 0-1.51 0.676-1.51 1.51s0.676 1.51 1.51 1.51 1.51-0.676 1.51-1.51-0.676-1.51-1.51-1.51v0z"/><path fill="#73af00" d="M15.772 16.951c-0.374 0-0.608 0.105-0.754 0.236 0.060-0.296 0.185-0.614 0.448-0.614 0.052 0 0.094-0.042 0.094-0.094s-0.042-0.094-0.094-0.094c-0.26 0-0.422 0.181-0.524 0.409-0.062-1.238-0.254-1.242-0.326-1.242-0.052 0-0.094 0.042-0.094 0.094 0 0.045 0.032 0.083 0.074 0.092 0.039 0.047 0.073 0.206 0.101 0.426-0.122-0.259-0.3-0.447-0.56-0.447-0.052 0-0.094 0.042-0.094 0.094s0.042 0.094 0.094 0.094c0.258 0 0.416 0.314 0.51 0.692-0.181-0.258-0.454-0.448-0.856-0.448-0.052 0-0.094 0.042-0.094 0.094s0.042 0.094 0.094 0.094c0.417 0 0.657 0.241 0.795 0.519-0.162-0.137-0.393-0.236-0.724-0.236-0.052 0-0.094 0.042-0.094 0.094s0.042 0.094 0.094 0.094c0.898 0 0.912 0.845 0.912 0.881 0 0.014 0.009 0.023 0.015 0.035 0.005 0.010 0.005 0.023 0.013 0.031l0 0c0.017 0.017 0.041 0.028 0.067 0.028h0c0.010-0 0.016-0.008 0.025-0.010 0.029-0.009 0.049-0.029 0.058-0.057 0.003-0.009 0.011-0.016 0.011-0.026 0-0.023 0.016-0.551 0.81-0.551 0.052 0 0.094-0.042 0.094-0.094s-0.042-0.095-0.094-0.095z"/><path fill="#73af00" d="M16.236 16.951c0.374 0 0.608 0.105 0.754 0.236-0.060-0.296-0.185-0.614-0.448-0.614-0.052 0-0.094-0.042-0.094-0.094s0.042-0.094 0.094-0.094c0.26 0 0.422 0.181 0.523 0.409 0.062-1.238 0.254-1.242 0.326-1.242 0.052 0 0.094 0.042 0.094 0.094 0 0.045-0.032 0.083-0.074 0.092-0.039 0.047-0.073 0.206-0.101 0.426 0.122-0.259 0.3-0.447 0.56-0.447 0.052 0 0.094 0.042 0.094 0.094s-0.042 0.094-0.094 0.094c-0.258 0-0.416 0.314-0.51 0.692 0.181-0.258 0.454-0.448 0.856-0.448 0.052 0 0.094 0.042 0.094 0.094s-0.042 0.094-0.094 0.094c-0.417 0-0.657 0.241-0.795 0.519 0.162-0.137 0.393-0.236 0.724-0.236 0.052 0 0.094 0.042 0.094 0.094s-0.042 0.094-0.094 0.094c-0.898 0-0.912 0.845-0.912 0.881-0 0.014-0.009 0.023-0.015 0.035-0.005 0.010-0.005 0.023-0.013 0.031l-0 0c-0.017 0.017-0.041 0.028-0.067 0.028h-0c-0.010-0-0.016-0.008-0.025-0.010-0.029-0.009-0.049-0.029-0.058-0.057-0.003-0.009-0.011-0.016-0.011-0.026-0-0.023-0.016-0.551-0.81-0.551-0.052 0-0.094-0.042-0.094-0.094s0.042-0.095 0.094-0.095z"/><path fill="#ff4b55" d="M14.544 17.435c0.168 0.65 0.754 1.132 1.456 1.132s1.288-0.482 1.456-1.132h-2.913z"/><path fill="#ffe15a" d="M16 18.567c0.703 0 1.288-0.482 1.456-1.132h-1.456v1.132z"/><path fill="#ffe15a" d="M16 19.157c0.728 0 1.321 0.593 1.321 1.321s-0.593 1.321-1.321 1.321-1.321-0.593-1.321-1.321c0-0.728 0.593-1.321 1.321-1.321zM16 18.968c-0.834 0-1.51 0.676-1.51 1.51s0.676 1.51 1.51 1.51 1.51-0.676 1.51-1.51-0.676-1.51-1.51-1.51v0z"/><path fill="#73af00" d="M15.772 20.372c-0.374 0-0.608 0.105-0.754 0.236 0.060-0.296 0.185-0.614 0.448-0.614 0.052 0 0.094-0.042 0.094-0.094s-0.042-0.094-0.094-0.094c-0.26 0-0.422 0.181-0.524 0.409-0.062-1.238-0.254-1.242-0.326-1.242-0.052 0-0.094 0.042-0.094 0.094 0 0.045 0.032 0.083 0.074 0.092 0.039 0.047 0.073 0.206 0.101 0.426-0.122-0.259-0.3-0.447-0.56-0.447-0.052 0-0.094 0.042-0.094 0.094s0.042 0.094 0.094 0.094c0.258 0 0.416 0.314 0.51 0.692-0.181-0.258-0.454-0.448-0.856-0.448-0.052 0-0.094 0.042-0.094 0.094s0.042 0.094 0.094 0.094c0.417 0 0.657 0.241 0.795 0.519-0.162-0.137-0.393-0.236-0.724-0.236-0.052 0-0.094 0.042-0.094 0.094s0.042 0.094 0.094 0.094c0.898 0 0.912 0.845 0.912 0.881 0 0.014 0.009 0.023 0.015 0.035 0.005 0.010 0.005 0.023 0.013 0.031l0 0c0.017 0.017 0.041 0.028 0.067 0.028h0c0.010-0 0.016-0.008 0.025-0.010 0.029-0.009 0.049-0.029 0.058-0.057 0.003-0.009 0.011-0.016 0.011-0.026 0-0.023 0.016-0.551 0.81-0.551 0.052 0 0.094-0.042 0.094-0.094s-0.042-0.095-0.094-0.095z"/><path fill="#73af00" d="M16.236 20.372c0.374 0 0.608 0.105 0.754 0.236-0.060-0.296-0.185-0.614-0.448-0.614-0.052 0-0.094-0.042-0.094-0.094s0.042-0.094 0.094-0.094c0.26 0 0.422 0.181 0.523 0.409 0.062-1.238 0.254-1.242 0.326-1.242 0.052 0 0.094 0.042 0.094 0.094 0 0.045-0.032 0.083-0.074 0.092-0.039 0.047-0.073 0.206-0.101 0.426 0.122-0.259 0.3-0.447 0.56-0.447 0.052 0 0.094 0.042 0.094 0.094s-0.042 0.094-0.094 0.094c-0.258 0-0.416 0.314-0.51 0.692 0.181-0.258 0.454-0.448 0.856-0.448 0.052 0 0.094 0.042 0.094 0.094s-0.042 0.094-0.094 0.094c-0.417 0-0.657 0.241-0.795 0.519 0.162-0.137 0.393-0.236 0.724-0.236 0.052 0 0.094 0.042 0.094 0.094s-0.042 0.094-0.094 0.094c-0.898 0-0.912 0.845-0.912 0.881-0 0.014-0.009 0.023-0.015 0.035-0.005 0.010-0.005 0.023-0.013 0.031l-0 0c-0.017 0.017-0.041 0.028-0.067 0.028h-0c-0.010-0-0.016-0.008-0.025-0.010-0.029-0.009-0.049-0.029-0.058-0.057-0.003-0.009-0.011-0.016-0.011-0.026-0-0.023-0.016-0.551-0.81-0.551-0.052 0-0.094-0.042-0.094-0.094s0.042-0.095 0.094-0.095z"/><path fill="#ff4b55" d="M14.544 20.855c0.168 0.65 0.754 1.132 1.456 1.132s1.288-0.482 1.456-1.132h-2.913z"/><path fill="#ffe15a" d="M16 21.987c0.703 0 1.288-0.482 1.456-1.132h-1.456v1.132z"/><path fill="#f5f5f5" d="M10.716 14.262v-0.755h-1.887v0.755h0.377v8.303h-0.377v0.755h1.887v-0.755h-0.377v-8.303z"/><path fill="#f5f5f5" d="M23.171 14.262v-0.755h-1.887v0.755h0.377v8.303h-0.377v0.755h1.887v-0.755h-0.377v-8.303z"/><path fill="#ffe15a" d="M20.458 13.13h-8.916c-0.248 0-0.448-0.201-0.448-0.448v-0.613c0-0.248 0.201-0.448 0.448-0.448h8.916c0.247 0 0.448 0.201 0.448 0.448v0.613c0 0.248-0.201 0.448-0.448 0.448z"/><path fill="#ff4b55" d="M16.398 12.658h-0.796c-0.093 0-0.168-0.075-0.168-0.168v-0.23c0-0.093 0.075-0.168 0.168-0.168h0.796c0.093 0 0.168 0.075 0.168 0.168v0.23c0 0.093-0.075 0.168-0.168 0.168z"/><path fill="#73af00" d="M19.229 12.658h-0.796c-0.093 0-0.168-0.075-0.168-0.168v-0.23c0-0.093 0.075-0.168 0.168-0.168h0.796c0.093 0 0.168 0.075 0.168 0.168v0.23c0 0.093-0.075 0.168-0.168 0.168z"/><path fill="#73af00" d="M13.567 12.658h-0.796c-0.093 0-0.168-0.075-0.168-0.168v-0.23c0-0.093 0.075-0.168 0.168-0.168h0.796c0.093 0 0.168 0.075 0.168 0.168v0.23c0 0.093-0.075 0.168-0.168 0.168z"/><path fill="#ffe15a" d="M21.3 10.056l-0.55 0.189 0.053 0.525c-0.608 0.691-0.913 0.735-1.038 0.691-0.155-0.054-0.227-0.275-0.256-0.445l0.227 0.227c1.132-1.132 0.484-2.795 0.484-2.795-0.318 0.059-0.46 0.354-0.46 0.354-0.295-0.024-0.602 0-0.602 0-0.024 0.259 0.071 0.625 0.071 0.625-0.647 0.133-0.914 0.484-0.914 0.484 0.111 0.311 0.465 0.577 0.465 0.577-0.106 0.259 0.024 0.566 0.024 0.566 0.162 0 0.302-0.049 0.401-0.097-0.423 0.527-0.622 0.54-0.689 0.514-0.204-0.076-0.256-0.679-0.227-1.083 0.003-0.041-0.022-0.080-0.060-0.095s-0.082-0.003-0.108 0.030l-0.325 0.415c-1.358-1.81-0.284-2.893-0.284-2.893v-0.755h-0.377v0.377h-0.323v-0.377h-0.323v0.377h-0.323v-0.377h-0.323v0.377h-0.323v-0.377h-0.323v0.377h-0.323v-0.377h-0.377v0.755c0 0 1.074 1.083-0.284 2.892l-0.325-0.415c-0.026-0.033-0.070-0.045-0.108-0.030s-0.063 0.053-0.060 0.095c0.029 0.404-0.023 1.007-0.227 1.083-0.068 0.025-0.267 0.012-0.691-0.516 0.099 0.049 0.241 0.099 0.405 0.099 0 0 0.13-0.307 0.024-0.566 0 0 0.354-0.266 0.466-0.577 0 0-0.266-0.351-0.914-0.484 0 0 0.094-0.366 0.071-0.625 0 0-0.307-0.024-0.601 0 0 0-0.142-0.295-0.46-0.354 0 0-0.649 1.663 0.484 2.795l0.225-0.225c-0.029 0.17-0.101 0.389-0.256 0.443-0.126 0.044-0.43-0.001-1.037-0.689l0.053-0.527-0.55-0.189c-0.283-0.857-0.959-0.755-0.959-0.755 0.448 0.385 0.543 1.368 0.543 1.368l1.164 1.132 0.063-0.181c-0.026-0.151-0.067-0.269-0.11-0.365 0.365 0.337 0.661 0.466 0.896 0.384 0.23-0.080 0.328-0.34 0.369-0.536 0.31 0.383 0.558 0.567 0.766 0.567 0.041 0 0.079-0.007 0.117-0.021 0.297-0.11 0.354-0.633 0.358-0.983l0.204 0.261v0.694h1.51c0-0.208 0.169-0.377 0.377-0.377s0.377 0.169 0.377 0.377h1.51v-0.694l0.204-0.261c0.004 0.35 0.062 0.873 0.358 0.983 0.037 0.014 0.076 0.021 0.117 0.021 0.208 0 0.456-0.184 0.766-0.567 0.041 0.196 0.139 0.457 0.369 0.536 0.236 0.082 0.533-0.048 0.899-0.387-0.044 0.096-0.085 0.215-0.111 0.368l0.063 0.181 1.164-1.132c0 0 0.094-0.983 0.543-1.368 0-0-0.676-0.102-0.959 0.755z"/><path fill="#f5f5f5" d="M14.7 12.658h-0.23c-0.093 0-0.168-0.075-0.168-0.168v-0.23c0-0.093 0.075-0.168 0.168-0.168h0.23c0.093 0 0.168 0.075 0.168 0.168v0.23c0 0.093-0.075 0.168-0.168 0.168z"/><path fill="#f5f5f5" d="M17.53 12.658h-0.23c-0.093 0-0.168-0.075-0.168-0.168v-0.23c0-0.093 0.075-0.168 0.168-0.168h0.23c0.093 0 0.168 0.075 0.168 0.168v0.23c0 0.093-0.075 0.168-0.168 0.168z"/><path fill="#ff4b55" d="M20.361 12.658h-0.23c-0.093 0-0.168-0.075-0.168-0.168v-0.23c0-0.093 0.075-0.168 0.168-0.168h0.23c0.093 0 0.168 0.075 0.168 0.168v0.23c0 0.093-0.075 0.168-0.168 0.168z"/><path fill="#ff4b55" d="M11.869 12.658h-0.23c-0.093 0-0.168-0.075-0.168-0.168v-0.23c0-0.093 0.075-0.168 0.168-0.168h0.23c0.093 0 0.168 0.075 0.168 0.168v0.23c0 0.093-0.075 0.168-0.168 0.168z"/><path fill="#f5f5f5" d="M16.301 9.114c0.249 0.383-0.16 0.792-0.543 0.543-0.024-0.015-0.044-0.036-0.060-0.060-0.249-0.383 0.16-0.792 0.543-0.543 0.024 0.015 0.044 0.036 0.060 0.060z"/><path fill="#f5f5f5" d="M11.975 10.036c-0.038-0.152 0.037-0.301 0.167-0.334s0.267 0.063 0.306 0.215c0.038 0.152-0.037 0.301-0.167 0.334s-0.267-0.063-0.306-0.215z"/><path fill="#f5f5f5" d="M20.027 10.036c-0.038 0.152-0.175 0.248-0.306 0.215s-0.205-0.183-0.167-0.334c0.038-0.152 0.175-0.248 0.306-0.215s0.205 0.183 0.167 0.334z"/><path fill="#f5f5f5" d="M11.471 16.781c-0.357-0.067-0.832-0.117-1.353-0.062-0.511 0.054-1.107 0.212-1.666 0.593v2.391c0.781-1.888 2.523-1.523 3.019-1.373v-1.548z"/><path fill="#f5f5f5" d="M20.529 16.781c0.357-0.067 0.831-0.117 1.353-0.062 0.511 0.054 1.107 0.212 1.666 0.593v2.391c-0.781-1.888-2.523-1.523-3.019-1.373v-1.548z"/><path fill="#ff4b55" d="M13.941 23.169c0 0-0.407 0.638-0.613 0.7 0 0-0.279 0.203-0.336 0.183l0.979-1.135-0.031 0.252z"/><path fill="#73af00" d="M13.905 23.537c-0.191-0.020-0.342 0.089-0.438 0.219s-0.354 0.173-0.38 0.004c-0.024-0.152 0.511-0.626 0.511-0.626s-0.089-0.16-0.333-0.098c-0.232 0.059-0.461 0.433-0.461 0.433s-0.232-0.091-0.419 0.065l-0.798 0.913c0 0 0.98 0.838 2.229-0.396l-0.212-0.068c0.068-0.26 0.301-0.444 0.301-0.444z"/><path fill="#f5f5f5" d="M12.804 23.717c0.056 0.092-0.040 0.188-0.132 0.132-0.008-0.005-0.015-0.012-0.020-0.020-0.056-0.092 0.040-0.188 0.132-0.132 0.008 0.005 0.015 0.012 0.020 0.020z"/><path fill="#f5f5f5" d="M8.829 7.623c1.159-0.004 2.31 0.199 3.397 0.6v-1.183c-1.091-0.376-2.241-0.555-3.397-0.527v1.109z"/><path fill="#f5f5f5" d="M18.264 6.336c-1.488-0.357-3.040-0.357-4.529 0 0-0.377 0-0.755 0-1.132 1.489-0.357 3.041-0.357 4.529 0 0 0.377 0 0.755 0 1.132z"/><path fill="#f5f5f5" d="M14.113 5.474c-0.923 0.086-1.833 0.302-2.7 0.648 0.054 0.373 0.108 0.747 0.163 1.12 0.816-0.326 1.67-0.534 2.537-0.629l-0-1.139z"/><path fill="#f5f5f5" d="M8.452 8.915c0.514-0.144 1.038-0.249 1.567-0.308v-1.139c-0.529 0.049-1.053 0.146-1.567 0.281v1.166z"/><path fill="#f5f5f5" d="M23.171 7.623c-1.159-0.004-2.31 0.199-3.397 0.6v-1.183c1.091-0.376 2.241-0.555 3.397-0.527v1.109z"/><path fill="#f5f5f5" d="M17.887 5.474c0.923 0.086 1.833 0.302 2.7 0.648-0.054 0.373-0.108 0.747-0.163 1.12-0.816-0.326-1.67-0.534-2.537-0.629v-1.139h0z"/><path fill="#f5f5f5" d="M23.548 8.915c-0.514-0.144-1.038-0.249-1.568-0.308v-1.139c0.529 0.049 1.053 0.146 1.568 0.281v1.166z"/></svg>