<!-- Generated by IcoMoon.io -->
<svg version="1.1" xmlns="http://www.w3.org/2000/svg" width="32" height="32" viewBox="0 0 32 32">
<title>mexico</title>
<path fill="#73af00" d="M0 0h10.667v32h-10.667v-32z"></path>
<path fill="#f5f5f5" d="M10.667 0h10.667v32h-10.667v-32z"></path>
<path fill="#ff4b55" d="M21.333 0h10.667v32h-10.667v-32z"></path>
<path fill="#ffd250" d="M16.952 16.494l-0.952 0.476v0.476h0.476z"></path>
<path fill="#00c3a0" d="M16 18.635c-0.132 0-0.238-0.106-0.238-0.238v-0.952c0-0.131 0.106-0.238 0.238-0.238s0.238 0.106 0.238 0.238v0.952c0 0.131-0.106 0.238-0.238 0.238z"></path>
<path fill="#00c3a0" d="M16 17.683c-0.934 0-1.837-0.361-2.541-1.015-0.096-0.089-0.102-0.24-0.012-0.336s0.24-0.101 0.336-0.012c0.616 0.573 1.403 0.888 2.217 0.888s1.601-0.315 2.217-0.888c0.096-0.089 0.246-0.084 0.336 0.012s0.084 0.247-0.012 0.336c-0.704 0.655-1.607 1.015-2.541 1.015z"></path>
<path fill="#00aadc" d="M16 18.635c-0.61 0-1.201-0.178-1.709-0.515l0.263-0.396c0.859 0.571 2.031 0.571 2.89 0l0.263 0.396c-0.508 0.337-1.099 0.515-1.709 0.515z"></path>
<path fill="#732d37" d="M15.623 15.423l-0.525 0.813-0.089 0.268 1.368-0.317z"></path>
<path fill="#aad264" d="M14.544 16.765c-0.629 0-1.384-0.529-1.584-1.709l0.469-0.079c0.166 0.981 0.77 1.313 1.132 1.312 0.111-0.003 0.227-0.041 0.236-0.12 0.011-0.094 0.013-0.116-0.236-0.2-0.135-0.046-0.289-0.098-0.396-0.221-0.435-0.497 0.154-1.023 0.437-1.276 0.050-0.045 0.071-0.082 0.065-0.097-0.016-0.041-0.109-0.102-0.214-0.102-0.302 0-0.532-0.171-0.598-0.445-0.069-0.284 0.062-0.584 0.311-0.713l0.218 0.423c-0.058 0.030-0.082 0.116-0.067 0.178 0.006 0.025 0.020 0.082 0.136 0.082 0.291 0 0.569 0.172 0.659 0.408 0.039 0.101 0.097 0.363-0.193 0.621-0.313 0.279-0.499 0.489-0.396 0.607 0.023 0.027 0.124 0.061 0.191 0.083 0.214 0.072 0.613 0.207 0.556 0.706-0.036 0.313-0.316 0.531-0.696 0.541-0.010 0-0.020 0-0.030 0z"></path>
<path fill="#874150" d="M16.476 14.115c0 0 0.476-0.952-0.476-1.427 0 0 3.331-0.476 2.855 3.806l-0-0c-0.312-0.25-0.776-0.706-0.941-1.070l-1.437-0.833v-0.476z"></path>
<path fill="#732d37" d="M16 15.066l2.379 1.427c0 0 0 0-0.952 0.476l-1.427-1.427v-0.476z"></path>
<path fill="#783c46" d="M15.048 13.639v0c0.263 0 0.476 0.213 0.476 0.476l-0.001 0.001c-0.284 0.284-0.354 0.717-0.175 1.076l0.107 0.215c0.045 0.090 0.104 0.171 0.175 0.242l1.32 1.32v-0.658c0-0.819-0.191-1.627-0.557-2.36v0c-0.242-0.484-0.736-0.789-1.277-0.789h-0.069v0.476z"></path>
<path fill="#ffd250" d="M15.048 13.163l-0.476 0.476v0.476c0 0 0.566-0.287 0.757-0.378 0.133-0.064 0.109-0.215 0.033-0.288-0.059-0.057-0.313-0.286-0.313-0.286z"></path>
<path fill="#aad264" d="M16 19.586c-2.23 0-4.044-1.814-4.044-4.044h0.476c0 1.968 1.601 3.568 3.568 3.568s3.569-1.601 3.569-3.569h0.476c-0 2.23-1.814 4.044-4.044 4.044z"></path>
<path fill="#ffe15a" d="M12.78 16.954c0 0.178-0.145 0.323-0.323 0.323s-0.323-0.145-0.323-0.323c0-0.178 0.145-0.323 0.323-0.323s0.323 0.145 0.323 0.323z"></path>
<path fill="#ffe15a" d="M13.494 18.094c0 0.178-0.145 0.323-0.323 0.323s-0.323-0.145-0.323-0.323c0-0.178 0.145-0.323 0.323-0.323s0.323 0.145 0.323 0.323z"></path>
<path fill="#ffe15a" d="M14.654 18.956c0 0.178-0.145 0.323-0.323 0.323s-0.323-0.145-0.323-0.323c0-0.178 0.145-0.323 0.323-0.323s0.323 0.145 0.323 0.323z"></path>
<path fill="#ffe15a" d="M19.9 16.954c0 0.178-0.145 0.323-0.323 0.323s-0.323-0.145-0.323-0.323c0-0.178 0.145-0.323 0.323-0.323s0.323 0.145 0.323 0.323z"></path>
<path fill="#ffe15a" d="M19.186 18.094c0 0.178-0.145 0.323-0.323 0.323s-0.323-0.145-0.323-0.323c0-0.178 0.145-0.323 0.323-0.323s0.323 0.145 0.323 0.323z"></path>
<path fill="#ffe15a" d="M18.026 18.956c0 0.178-0.145 0.323-0.323 0.323s-0.323-0.145-0.323-0.323c0-0.178 0.145-0.323 0.323-0.323s0.323 0.145 0.323 0.323z"></path>
<path fill="#ffb478" d="M16.238 18.872h-0.476c-0.263 0-0.476-0.213-0.476-0.476v0c0-0.263 0.213-0.476 0.476-0.476h0.476c0.263 0 0.476 0.213 0.476 0.476v0c0 0.263-0.213 0.476-0.476 0.476z"></path>
<path fill="#9b4b5a" d="M17.913 15.423c0.159 0.466 0.496 0.892 0.941 1.070l0 0c0.476-4.282-2.855-3.806-2.855-3.806 2.379 0 1.913 2.736 1.913 2.736z"></path>
</svg>
