<!-- Generated by IcoMoon.io -->
<svg version="1.1" xmlns="http://www.w3.org/2000/svg" width="32" height="32" viewBox="0 0 32 32">
<title>montenegro</title>
<path fill="#c8414b" d="M1.938 1.684h28.125v28.632h-28.125v-28.632z"></path>
<path fill="#e6b432" d="M32 0h-32v32h32v-32zM30 30.316h-28.063v-28.632h28.063v28.632z"></path>
<path fill="#41479b" d="M24.191 21.282c0 0.708-0.574 1.282-1.282 1.282s-1.282-0.574-1.282-1.282c0-0.708 0.574-1.282 1.282-1.282s1.282 0.574 1.282 1.282z"></path>
<path fill="#e6b432" d="M25.158 13.924c-0.943 0.793-1.577 0.826-1.577 0.826 1.678-0.684 1.502-1.986 1.502-1.986-0.793 1.043-1.602 1.335-1.602 1.335 1.686-1.143 1.419-2.679 1.419-2.679-0.551 1.219-1.248 1.694-1.248 1.694 1.402-1.865 0.714-3.067 0.714-3.067-0.551 1.728-1.014 2.228-1.014 2.228 1.077-2.879 0.154-3.71 0.154-3.71 0 1.544-0.576 2.429-0.576 2.429 0.601-2.036-0.342-3.205-0.342-3.205s-0.009 1.66-0.329 2.53c-0.077-0.117-0.122-0.101-0.122-0.101-0.163 1.066-0.736 1.817-0.983 2.1-0.055-0.266-0.22-0.347-0.22-0.347s-0.030 0.261-0.264 0.646c-0.153 0.252-0.878 0.84-0.995 1.357-0.094 0.415 0.317 0.759 0.451 0.843s0.275 0.234 0.217 0.476c-0.058 0.242-0.492 0.217-0.801 0.209s-0.351 0.501-0.693 0.484l-0.058 0.38-0.134 0.029c0 0-1.402 2.794-1.521 3.745l-1.032 0.136-1.032-0.136c-0.119-0.951-1.521-3.745-1.521-3.745l-0.134-0.029-0.058-0.38c-0.342 0.017-0.384-0.492-0.693-0.484s-0.743 0.033-0.801-0.209c-0.058-0.242 0.083-0.392 0.217-0.476s0.544-0.428 0.451-0.843c-0.117-0.517-0.841-1.105-0.995-1.357-0.234-0.385-0.264-0.646-0.264-0.646s-0.165 0.081-0.22 0.347c-0.247-0.283-0.821-1.033-0.983-2.1 0 0-0.045-0.015-0.122 0.101-0.32-0.87-0.329-2.53-0.329-2.53s-0.943 1.168-0.342 3.205c0 0-0.576-0.885-0.576-2.429 0 0-0.922 0.83 0.154 3.71 0 0-0.463-0.501-1.014-2.228 0 0-0.689 1.202 0.714 3.067 0 0-0.697-0.476-1.248-1.694 0 0-0.267 1.536 1.419 2.679 0 0-0.81-0.292-1.602-1.335 0 0-0.175 1.302 1.502 1.986 0 0-0.634-0.033-1.577-0.826 0 0-0.167 1.152 2.020 1.744 0 0-0.893-0.017-1.803-0.626 0 0-0.025 1.135 1.844 1.36 0 0-0.618 0.092-1.31-0.159 0 0 0.025 0.918 1.652 1.035 0 0-0.643 0.050-1.060-0.050 0 0 0.042 0.943 1.327 0.785 0 0-0.434 0.142-0.576 0.184 0 0 0.025 0.77 1.365 0.494 0 0-0.238 0.148-0.563 0.198 0 0 0.275 0.643 1.394 0.359l-0.229 0.25c0 0 0.864 0.501 1.527-0.188l-0.238 0.426c0 0 0.563 0.213 0.914-0.338 0 0-0.096 0.826-1.264 0.977 0 0 0.042 0.175 0.092 0.242 0 0-0.075 0.142-0.751 0.259 0 0 0.142 0.217 0.292 0.284 0 0-0.292 0.25-0.451 0.3 0 0 0.25 0.125 0.409 0.15 0 0-0.351 0.342-0.785 0.351s-1.21-0.042-1.21-0.042-0.008-0.417-0.209-0.776-0.267-0.386-0.267-0.386 0.044-0.288-0.081-0.407-0.194-0.175-0.194-0.175 0.067-0.576-0.117-0.935c-0.184-0.359-0.835-1.143-0.868-1.728s-0.008-0.801-0.008-0.801l-0.2 0.050-0.133-0.275 0.225-0.025-0.092-0.417-0.309 0.117-0.042-0.359-0.367 0.15 0.184 0.325-0.325 0.092 0.192 0.384 0.25-0.159 0.067 0.334c0 0-0.15 0.033-0.234 0.167 0 0 0.413 0.274 0.534 0.601 0.192 0.517 0.134 1.686 0.409 2.036s0.492 0.593 0.492 0.593-0.077 0.238 0.010 0.369c0.088 0.131 0.213 0.169 0.213 0.169s-0.075 0.532 0.119 0.883 0.307 0.438 0.307 0.438-0.707 0.432-0.207 0.933c0 0-0.067 0.455 0.409 0.563 0 0 0.025 0.359 0.434 0.317 0 0 0.2-0.058 0.25 0.042s0 0.676 0 0.676 0.184-0.017 0.3-0.1l0.367 0.184 0.008-0.409 0.459-0.184c0 0-0.2 0.033-0.609-0.351 0 0 0.067-0.042 0.117-0.367 0 0 0.325-0.259 0.392-0.467s0.526-0.668 1.060-0.818l0.073 0.326c0 0 0.764-0.676 1.083-0.714l0.263 0.346c0 0 0.985-1.461 1.419-1.719-0.033 0.117 0.209 0.134-0.33 0.734s-0.204 1.077-0.204 1.077c-0.334 0.275-0.267 0.526-0.309 0.81s-1.152 1.018-1.152 1.018c0.351 0.442 0.743 0.342 0.743 0.342-0.217 0.142-0.15 0.618-0.15 0.618 0.317 0.083 0.634-0.058 0.634-0.058-0.108 0.3 0.058 0.509 0.058 0.509 0.2-0.125 0.659-0.2 0.659-0.2-0.058 0.517 0.275 0.793 0.275 0.793l0.292-0.317c0.050 0.584 0.568 0.918 0.568 0.918s0.517-0.334 0.568-0.918l0.292 0.317c0 0 0.334-0.275 0.275-0.793 0 0 0.459 0.075 0.659 0.2 0 0 0.167-0.209 0.058-0.509 0 0 0.317 0.142 0.634 0.058 0 0 0.067-0.476-0.15-0.618 0 0 0.392 0.1 0.743-0.342 0 0-1.11-0.734-1.152-1.018s0.025-0.534-0.309-0.81c0 0 0.334-0.476-0.204-1.077s-0.296-0.618-0.33-0.734c0.434 0.259 1.419 1.719 1.419 1.719l0.263-0.346c0.319 0.038 1.083 0.714 1.083 0.714l0.073-0.326 0.014-0.015c0.398 0.214 1.056 0.504 1.322 0.708 0.284 0.217 0.517 0.234 1.202 0s1.958-0.593 1.769-1.018c-0.010-0.023-0.022-0.039-0.033-0.057 0.030-0.11 0.042-0.301-0.159-0.469 0 0 0.002 0.047 0.001 0.107l-0.652-0.243c-0.022-0.058-0.054-0.114-0.116-0.164 0 0 0.001 0.050-0.008 0.118l-0.167-0.062 0.334-0.94c-0.025-0.014-0.054-0.022-0.080-0.034 0.007-0.085 0.023-0.203 0.048-0.326 0.082 0.029 0.156 0.064 0.21 0.108l0.094-0.344c0 0-0.101-0.007-0.235-0.032 0.034-0.104 0.074-0.197 0.121-0.257l-0.442-0.134c0 0 0.011 0.134 0.004 0.301-0.084-0.034-0.165-0.078-0.23-0.134l-0.104 0.382c0.036 0.002 0.156 0.013 0.296 0.037-0.025 0.112-0.070 0.212-0.134 0.286-0.016-0.002-0.030-0.008-0.046-0.009l-0.324 0.912-0.88-0.328c-0.038 0.059-0.067 0.124-0.094 0.189 0.005-0.010 0.009-0.024 0.014-0.030 0 0-0.34 0.178-0.336 0.439-0.063 0.024-0.118 0.071-0.149 0.152-0.1 0.263 0.513 0.851 0.363 0.926-0.147 0.074-0.918-0.561-1.041-0.668 0.159-0.031 0.39-0.146 0.39-0.146-0.159-0.050-0.451-0.3-0.451-0.3 0.15-0.067 0.292-0.284 0.292-0.284-0.676-0.117-0.751-0.259-0.751-0.259 0.050-0.067 0.092-0.242 0.092-0.242-1.168-0.15-1.264-0.977-1.264-0.977 0.351 0.551 0.914 0.338 0.914 0.338l-0.238-0.426c0.663 0.689 1.527 0.188 1.527 0.188l-0.23-0.25c1.118 0.284 1.394-0.359 1.394-0.359-0.326-0.050-0.563-0.198-0.563-0.198 1.34 0.275 1.365-0.494 1.365-0.494-0.142-0.042-0.576-0.184-0.576-0.184 1.285 0.159 1.327-0.785 1.327-0.785-0.417 0.1-1.060 0.050-1.060 0.050 1.627-0.117 1.652-1.035 1.652-1.035-0.693 0.25-1.31 0.159-1.31 0.159 1.869-0.225 1.844-1.36 1.844-1.36-0.91 0.609-1.803 0.626-1.803 0.626 2.187-0.593 2.020-1.744 2.020-1.744zM23.262 22.181c-0.089-0.145 0.123-0.274 0.219-0.412l0.37 0.138c-0.126 0.15-0.497 0.424-0.589 0.274zM23.014 21.595c-0.12 0.186-0.203 0.394-0.573 0.404-0.463 0.012-0.538-0.401-0.638-0.626-0.029-0.066-0.080-0.115-0.137-0.149-0-0.040 0.002-0.085 0.006-0.13l1.343 0.501z"></path>
<path fill="#e6b432" d="M15.965 12.777c0 0-0.595-0.507-0.77-0.782 0 0 0.2-0.081 0.3-0.207 0 0-0.538-0.288-0.826-0.582 0 0 0.188-0.031 0.332-0.15 0 0-0.483-0.087-0.729-0.483 0.559-0.191 0.372-0.712 0.372-0.712-0.113 0.15-0.576 0.338-1.077 0.125s-1.052-0.063-1.052 0.213c0 0-1.127-0.325-0.845 0.764 0 0 0.181-0.407 0.582-0.257s0.807 0.664 0.807 0.664-0.25 0.138-0.714-0.012c0 0 0.188 0.72 1.033 0.357 0 0 0.334 0.179 0.351 0.705 0 0 0.142-0.075 0.234-0.242 0 0 0.134 0.509-0.042 0.926 0 0 0.234-0.042 0.309-0.117 0 0 0.067 0.442-0.225 0.801 0 0 1.283 0.611 2.097-0.058 0 0-0.307-0.351-0.407-0.676-0 0 0.169-0.069 0.269-0.275z"></path>
<path fill="#e6b432" d="M19.69 10.198c0-0.275-0.551-0.426-1.052-0.213s-0.964 0.025-1.077-0.125c0 0-0.187 0.521 0.372 0.712-0.245 0.396-0.729 0.483-0.729 0.483 0.144 0.119 0.332 0.15 0.332 0.15-0.288 0.294-0.826 0.582-0.826 0.582 0.1 0.125 0.3 0.207 0.3 0.207-0.175 0.275-0.77 0.782-0.77 0.782 0.1 0.207 0.269 0.275 0.269 0.275-0.1 0.325-0.407 0.676-0.407 0.676 0.814 0.67 2.097 0.058 2.097 0.058-0.292-0.359-0.225-0.801-0.225-0.801 0.075 0.075 0.309 0.117 0.309 0.117-0.175-0.417-0.042-0.926-0.042-0.926 0.092 0.167 0.234 0.242 0.234 0.242 0.017-0.526 0.351-0.705 0.351-0.705 0.845 0.363 1.033-0.357 1.033-0.357-0.463 0.15-0.714 0.012-0.714 0.012s0.407-0.513 0.808-0.664c0.401-0.15 0.582 0.257 0.582 0.257 0.282-1.089-0.845-0.764-0.845-0.764z"></path>
<path fill="#e6b432" d="M19.179 16.848c-0.11-0.64-0.205-1.192 0.071-1.825l0.051-0.118-1.093-1.255-0.129 0.043c-0.011 0.004-1.154 0.377-1.886 0.011l-0.091-0.046-0.091 0.046c-0.729 0.365-1.874-0.007-1.886-0.011l-0.129-0.043-1.093 1.255 0.051 0.118c0.276 0.633 0.181 1.186 0.071 1.825-0.104 0.604-0.221 1.289-0.014 2.124 0.224 0.906 0.979 1.229 1.646 1.513 0.513 0.219 0.998 0.426 1.273 0.861l0.173 0.274 0.173-0.274c0.274-0.434 0.759-0.641 1.273-0.861 0.666-0.285 1.421-0.607 1.646-1.513 0.206-0.835 0.089-1.52-0.014-2.124zM13.379 14.98l0.75-0.861c0.34 0.093 1.258 0.296 1.974-0.008 0.716 0.304 1.634 0.102 1.974 0.008l0.75 0.861c-0.263 0.694-0.16 1.298-0.050 1.937 0.082 0.478 0.163 0.971 0.095 1.538h-5.538c-0.068-0.567 0.013-1.060 0.095-1.538 0.11-0.638 0.213-1.243-0.050-1.937zM17.388 20.109c-0.464 0.198-0.942 0.402-1.285 0.789-0.343-0.387-0.821-0.591-1.285-0.789-0.651-0.278-1.213-0.521-1.399-1.204h5.367c-0.185 0.683-0.747 0.926-1.399 1.204z"></path>
<path fill="#41479b" d="M13.379 14.98l0.75-0.861c0.34 0.093 1.258 0.296 1.974-0.008 0.716 0.304 1.634 0.102 1.974 0.008l0.75 0.861c-0.263 0.694-0.16 1.298-0.050 1.937 0.082 0.478 0.163 0.971 0.095 1.538h-5.538c-0.068-0.567 0.013-1.060 0.095-1.538 0.11-0.638 0.213-1.243-0.050-1.937z"></path>
<path fill="#73af00" d="M13.39 18.786c0.006 0.029 0.011 0.057 0.018 0.087 0.175 0.709 0.747 0.953 1.41 1.236 0.464 0.198 0.942 0.402 1.285 0.789 0.343-0.387 0.821-0.591 1.285-0.789 0.662-0.283 1.234-0.527 1.41-1.236 0.007-0.030 0.011-0.058 0.018-0.087h-5.425z"></path>
<path fill="#e6b432" d="M18.553 16.419c0-0.369-0.351-0.428-0.67-0.421s-0.786-0.052-0.798-0.3c-0.007-0.155 0.252-0.169 0.421-0.115 0.098 0.031 0.708 0.14 0.9-0.268 0 0-0.223 0.007-0.459-0.046-0.181-0.041-0.926 0.052-1.060 0.339s0.298 0.574 0.796 0.574 0.566 0.1 0.562 0.221c-0.005 0.159-0.4 0.205-0.627 0.203-0.357-0.13-1.19-0.028-1.194-0.044-0.005-0.019-0.192-0.341-0.192-0.341s0.341-0.024 0.384-0.087c0.043-0.062-0.259-0.302-0.259-0.302s0.254-0.101 0.264-0.173c0.011-0.079-0.206-0.267-0.206-0.267s0.084-0.083 0.147-0.223c0.045-0.101-0.313-0.128-0.313-0.128 0.019-0.077 0.012-0.151-0.083-0.185-0.073-0.026-0.345 0.077-0.53 0.077s-0.255 0.134-0.255 0.134-0.325 0.038-0.37 0.077c-0.045 0.038 0.013 0.287 0.013 0.287-0.166-0.025-0.242-0.172-0.242-0.172-0.083 0.376 0.306 0.415 0.306 0.415l0.064 0.204c0 0 0 0 0.159 0.019s0.083 0.172-0.166 0.172c-0.249 0-0.354 0.297-0.354 0.297-0.173 0.005-0.269-0.134-0.307-0.312-0.042-0.196-0.017-0.496 0.014-0.687 0.038-0.231-0.077-0.298-0.077-0.298l-0.077 0.192c-0.005-0.197-0.178-0.216-0.178-0.216l-0.029 0.24c-0.086-0.159-0.235-0.086-0.235-0.086s0.144 0.519 0.139 0.548-0.053 0.053-0.12-0.019c-0.067-0.072-0.115-0.024-0.115-0.024 0.072 0.519 0.35 0.443 0.35 0.443s0.012 0.163 0.096 0.492c0.090 0.352 0.459 0.286 0.459 0.286 0 0.115 0.089 0.281 0.115 0.664s-0.325 0.651-0.325 0.651c-0.319-0.006-0.287 0.306-0.287 0.306h0.881c0-0.814 0.35-0.954 0.35-0.954 0.519 0.024 1.019-0.192 1.019-0.192-0.077 0.312 0.058 0.442 0.058 0.442 0.211-0.029 0.106 0.389 0.043 0.389s-0.192 0-0.269 0-0.298 0.24-0.298 0.24h0.913c0 0 0.139-0.202 0.187-0.303s-0.106-0.24-0.115-0.346 0.159-0.173 0.159-0.173c0.178 0.25 0.586 0.264 0.586 0.264l-0.010-0.187c0 0 0.211 0.072 0.259 0.134s0.038 0.351-0.216 0.384c-0.255 0.034-0.274 0.216-0.274 0.216s0.581 0 0.697 0 0.207-0.216 0.207-0.298c0-0.082 0-0.615 0-0.73s-0.096-0.101-0.322-0.125c-0.205-0.022-0.186-0.246-0.27-0.507 0.297-0.010 0.755-0.075 0.755-0.381z"></path>
<path fill="#e6b432" d="M18.499 7.688c-0.057-0.504-0.459-1.145-1.988-1.446-0.005-0.162-0.105-0.3-0.248-0.358v-0.281h0.25v-0.3h-0.25v-0.25h-0.3v0.25h-0.25v0.3h0.25v0.281c-0.143 0.058-0.243 0.196-0.248 0.358-1.53 0.301-1.931 0.942-1.988 1.446-0.071 0.628 0.379 1.224 0.784 1.452v0.319h3.205v-0.319c0.405-0.228 0.855-0.824 0.784-1.452zM16.821 8.658h-0.449v-1.848c0.37 0.167 0.599 0.423 0.665 0.775 0.083 0.438-0.092 0.885-0.216 1.073zM15.187 7.585c0.067-0.352 0.295-0.608 0.665-0.775v1.848h-0.449c-0.124-0.188-0.3-0.635-0.216-1.073zM14.816 7.078c-0.074 0.148-0.121 0.295-0.145 0.431-0.073 0.41 0.011 0.828 0.148 1.15h-0.105c-0.225-0.155-0.513-0.535-0.471-0.911 0.030-0.263 0.229-0.488 0.573-0.669zM17.511 8.658h-0.105c0.137-0.322 0.221-0.739 0.148-1.149-0.024-0.136-0.071-0.283-0.145-0.431 0.344 0.181 0.543 0.407 0.573 0.669 0.043 0.376-0.246 0.756-0.471 0.911z"></path>
</svg>
