<!-- Generated by IcoMoon.io -->
<svg version="1.1" xmlns="http://www.w3.org/2000/svg" width="32" height="32" viewBox="0 0 32 32">
<title>montserrat</title>
<path fill="#41479b" d="M0 0h32v32h-32v-32z"></path>
<path fill="#41479b" d="M5.895 0h-5.895v1.249l5.895 3.862z"></path>
<path fill="#41479b" d="M0 4.269v1.626h2.482z"></path>
<path fill="#41479b" d="M0 10.105v1.626l2.482-1.626z"></path>
<path fill="#41479b" d="M16 1.249v-1.249h-5.895v5.111z"></path>
<path fill="#41479b" d="M16 11.731v-1.626h-2.482z"></path>
<path fill="#41479b" d="M10.105 10.889v5.111h5.895v-1.249z"></path>
<path fill="#41479b" d="M16 5.895v-1.626l-2.482 1.626z"></path>
<path fill="#41479b" d="M0 14.751v1.249h5.895v-5.111z"></path>
<path fill="#f5f5f5" d="M16 14.751v-1.248l-5.236-3.398h1.547l3.689 2.394v-0.768l-2.482-1.626h2.482v-0.842h-6.737v6.737h0.842v-5.111z"></path>
<path fill="#f5f5f5" d="M0 9.263v0.842h2.482l-2.482 1.626v1.181l4.325-2.807h1.547l-5.872 3.811v0.835l5.895-3.862v5.111h0.842v-6.737z"></path>
<path fill="#f5f5f5" d="M6.737 0h-0.842v5.111l-5.895-3.862v1.366l5.053 3.28h-1.547l-3.506-2.276v0.65l2.482 1.626h-2.482v0.842h6.737z"></path>
<path fill="#f5f5f5" d="M16 6.737v-0.842h-2.482l2.482-1.626v-1.196l-4.348 2.822h-1.547l5.895-3.826v-0.82l-5.895 3.862v-5.111h-0.842v6.737z"></path>
<path fill="#ff4b55" d="M16 9.263v-2.526h-6.737v-6.737h-2.526v6.737h-6.737v2.526h6.737v6.737h2.526v-6.737z"></path>
<path fill="#ff4b55" d="M4.325 10.105l-4.325 2.807v1.004l5.872-3.811z"></path>
<path fill="#ff4b55" d="M10.764 10.105l5.236 3.398v-1.004l-3.689-2.394z"></path>
<path fill="#ff4b55" d="M5.053 5.895l-5.053-3.28v1.004l3.506 2.276z"></path>
<path fill="#ff4b55" d="M11.652 5.895l4.348-2.822v-1.004l-5.895 3.826z"></path>
<path fill="#82afff" d="M19.108 17.511h8.598v6.643h-8.598v-6.643z"></path>
<path fill="#c86464" d="M19.108 24.155c0 2.266 2.54 4.103 4.299 4.103v0c1.563 0 4.299-1.837 4.299-4.103h-8.597z"></path>
<path fill="#73af00" d="M24.554 19.938c0.138 0.024 0.375 0.057 0.399 0.391s-0.098 1.522-0.22 1.669c0 0 0.399 0.904 0.415 1.441s-0.057 2.145-0.008 2.402 0.232 0.782 0.232 0.782-0.562-0.33-0.782-0.122-1.026 0.488-1.343 0.159c0 0 0.379-1.075 0.379-2.296s0-4.238 0-4.238 0.159-0.126 0.366-0.13 0.562-0.057 0.562-0.057z"></path>
<path fill="#fff5e1" d="M24.636 26.394c0.024 0.155 0.090 0.269 0.057 0.326s-0.244 0.578-0.122 0.578 0.334-0.065 0.391-0.179 0.081-0.285 0.114-0.334-0.057-0.293-0.13-0.334-0.309-0.057-0.309-0.057z"></path>
<path fill="#fff5e1" d="M23.227 20.28l-0.448 0.057c0 0 0.057-0.293 0.065-0.497s0.024-0.578 0.024-0.578 0.317-0.195 0.326-0.228c0.004-0.016 0.042-0.118 0.012-0.171s-0.126-0.057-0.126-0.057-0.375 0.195-0.375 0.228 0 0.228-0.041 0.301-0.269 0.684-0.285 0.847c-0.016 0.163-0.041 0.505 0.024 0.521s0.741 0.090 0.814 0.057 0.008-0.48 0.008-0.48z"></path>
<path fill="#464655" d="M25.256 18.672h-1.63v-0.769h-0.562v0.769h-1.63v0.562h1.63v7.388h0.562v-7.388h1.63z"></path>
<path fill="#963c3c" d="M24.294 19.669c0 0 0.545 0.157 0.619-0.024 0.085-0.212-0.199-0.24-0.252-0.464-0.006-0.025-0.057-0.326-0.277-0.383s-0.423 0-0.431 0.147c-0.008 0.147 0.342 0.725 0.342 0.725z"></path>
<path fill="#fff5e1" d="M24.001 20.361c-0.016 0.003-0.041-0.163-0.008-0.366s0-0.269 0-0.269-0.228 0.024-0.228-0.065c0-0.090 0.049-0.505 0.187-0.716 0 0 0.098 0.122 0.277 0.122 0 0-0.008 0.147 0.090 0.244 0 0-0.122 0.106-0.065 0.179s0.163 0.163 0.163 0.163 0.008 0.171 0.138 0.285c-0 0-0.163 0.358-0.554 0.423z"></path>
<path fill="#464655" d="M21.77 23.894h0.049v0.969h-0.049v-0.969z"></path>
<path fill="#464655" d="M21.967 23.707h0.049v1.344h-0.049v-1.344z"></path>
<path fill="#464655" d="M22.163 23.536h0.049v1.687h-0.049v-1.687z"></path>
<path fill="#464655" d="M22.36 23.291h0.049v2.176h-0.049v-2.176z"></path>
<path fill="#464655" d="M22.556 22.97h0.049v2.817h-0.049v-2.817z"></path>
<path fill="#464655" d="M22.753 22.97h0.049v2.949h-0.049v-2.949z"></path>
<path fill="#ffe15a" d="M23.634 24.513c-0.216-1.123-0.814-1.775-1.026-1.807s-0.366 0.138-0.383 0.261-0.13 0.488-0.366 0.659c-0.236 0.171-0.676 0.269-0.773 0.586s0.163 0.456 0.317 0.423c0.012-0.002 0.023-0.007 0.035-0.011l1.664 2.047c0.060 0.074 0.178 0.062 0.22-0.024 0.171-0.35 0.496-1.177 0.312-2.135zM21.578 24.536c0.065-0.070 0.093-0.167 0.021-0.267-0.122-0.171-0.261 0.073-0.261 0.073s-0.041-0.212 0.277-0.317 0.676-0.285 0.839-0.668 0.155-0.309 0.155-0.309 0.651 0.366 0.741 1.514-0.228 1.612-0.228 1.612l-1.544-1.638z"></path>
<path fill="#fff5e1" d="M23.065 22.057c-0.075 0.048-0.142 0.089-0.189 0.114-0.153 0.079-0.336 0.159-0.354 0.232s-0.122 0.134-0.116 0.22c0.006 0.085 0 0.342 0 0.342 0.092-0.018 0.275-0.049 0.336-0.159s0.116-0.324 0.311-0.415c0.003-0.002 0.009-0.003 0.012-0.005v-0.328z"></path>
<path fill="#fff5e1" d="M24.683 20.497c-0.092 0.043-0.366 0.372-0.409 0.525s-0.177 0.513-0.177 0.513-0.277 0.036-0.47 0.144v0.533c0.107-0.031 0.201-0.061 0.256-0.091 0.159-0.085 0.385-0.244 0.501-0.275s0.214-0.226 0.256-0.342 0.177-0.458 0.195-0.69-0.061-0.36-0.153-0.317z"></path>
<path fill="#f5f5f5" d="M23.407 28.397l-0.021-0.003c-4.364-0.689-4.414-4.469-4.414-4.629v-6.389h8.871v6.389c0 0.16-0.050 3.94-4.414 4.629l-0.021 0.003zM19.245 17.648v6.116c0 0.151 0.047 3.694 4.162 4.355 4.115-0.662 4.162-4.205 4.162-4.355v-6.116h-8.324z"></path>
</svg>
