<svg xmlns="http://www.w3.org/2000/svg" width="32" height="32" version="1.1" viewBox="0 0 32 32"><title>namibia</title><path fill="#41479b" d="M0 24.421v-24.421h24.276z"/><path fill="#73af00" d="M32 7.579v24.421h-24.276z"/><path fill="#f5f5f5" d="M32 8.054v-8.054h-8.054l-23.946 23.946v8.054h8.054z"/><path fill="#ff4b55" d="M32 5.034v-5.034h-5.034l-26.966 26.966v5.034h5.034z"/><path fill="#ffe15a" d="M6.265 4.776c0.618 0 1.178 0.25 1.583 0.655l0.222-1.542-1.226 0.964-0.579-1.448-0.579 1.448-1.226-0.964 0.222 1.542c0.405-0.405 0.965-0.655 1.583-0.655z"/><path fill="#ffe15a" d="M4.681 8.598c-0.405-0.405-0.655-0.965-0.655-1.583s0.25-1.178 0.655-1.583l-1.542-0.222 0.964 1.226-1.448 0.579 1.448 0.579-0.965 1.226 1.542-0.222z"/><path fill="#ffe15a" d="M9.875 7.015l-1.448-0.579 0.964-1.226-1.542 0.222c0.405 0.405 0.655 0.965 0.655 1.583s-0.25 1.178-0.655 1.583l1.542 0.222-0.964-1.226 1.448-0.579z"/><path fill="#ffe15a" d="M6.265 9.254c-0.618 0-1.178-0.25-1.583-0.655l-0.222 1.542 1.226-0.964 0.579 1.448 0.579-1.448 1.226 0.964-0.222-1.542c-0.405 0.405-0.965 0.655-1.583 0.655z"/><path fill="#ffe15a" d="M8.093 7.015c0 1.010-0.818 1.828-1.828 1.828s-1.828-0.818-1.828-1.828c0-1.010 0.818-1.828 1.828-1.828s1.828 0.818 1.828 1.828z"/></svg>