<!-- Generated by IcoMoon.io -->
<svg version="1.1" xmlns="http://www.w3.org/2000/svg" width="32" height="32" viewBox="0 0 32 32">
<title>nauru</title>
<path fill="#41479b" d="M0 0h32v32h-32v-32z"></path>
<path fill="#ffe15a" d="M0 14.316h32v3.368h-32v-3.368z"></path>
<path fill="#f5f5f5" d="M8.085 20.938l0.49 1.959 1.404-1.452-0.555 1.942 1.942-0.555-1.452 1.404 1.959 0.49-1.959 0.49 1.452 1.404-1.942-0.555 0.555 1.942-1.404-1.452-0.49 1.959-0.49-1.959-1.404 1.452 0.555-1.942-1.942 0.555 1.452-1.404-1.959-0.49 1.959-0.49-1.452-1.404 1.942 0.555-0.555-1.942 1.404 1.452z"></path>
</svg>
