<svg xmlns="http://www.w3.org/2000/svg" width="32" height="32" version="1.1" viewBox="0 0 32 32"><title>nepal</title><path fill="#f5f5f5" d="M0 0h32v32h-32v-32z"/><path fill="#41479b" d="M1.095 2.156l17.447 12.749h-13.443l14.345 16h-18.348v-28.749zM0 0v32h21.895l-14.345-16h14.345l-21.895-16z"/><path fill="#ff4b55" d="M1.095 2.156l17.447 12.749h-13.443l14.345 16h-18.348v-28.749z"/><path fill="#f5f5f5" d="M6.424 19.854l0.674 1.391 1.279-0.868c0.056-0.038 0.132 0.005 0.127 0.073l-0.112 1.542 1.542-0.112c0.068-0.005 0.112 0.071 0.073 0.127l-0.868 1.279 1.391 0.674c0.061 0.030 0.061 0.117 0 0.147l-1.391 0.674 0.868 1.279c0.038 0.056-0.005 0.132-0.073 0.127l-1.542-0.112 0.112 1.542c0.005 0.068-0.071 0.112-0.127 0.073l-1.279-0.868-0.674 1.391c-0.030 0.061-0.117 0.061-0.147 0l-0.674-1.391-1.279 0.868c-0.056 0.038-0.132-0.005-0.127-0.073l0.112-1.542-1.542 0.112c-0.068 0.005-0.112-0.071-0.074-0.127l0.868-1.279-1.391-0.674c-0.061-0.030-0.061-0.117 0-0.147l1.391-0.674-0.868-1.279c-0.038-0.056 0.005-0.132 0.074-0.127l1.542 0.112-0.112-1.542c-0.005-0.068 0.071-0.112 0.127-0.073l1.279 0.868 0.674-1.391c0.030-0.061 0.117-0.061 0.147 0z"/><path fill="#f5f5f5" d="M8.175 11.808l-0.585-0.4 0.515-0.54-0.734-0.134 0.251-0.703-0.725 0.176-0.056-0.744-0.591 0.456-0.354-0.657-0.354 0.657-0.591-0.456-0.056 0.744-0.725-0.176 0.251 0.703-0.734 0.134 0.515 0.54-0.585 0.4c-0.738-0.345-1.388-0.848-1.899-1.472 0.343 2 2.081 3.523 4.179 3.523s3.835-1.523 4.179-3.523c-0.511 0.623-1.16 1.127-1.898 1.472z"/></svg>