<svg xmlns="http://www.w3.org/2000/svg" width="32" height="32" version="1.1" viewBox="0 0 32 32"><title>new-zealand</title><path fill="#41479b" d="M0 0h32v32h-32v-32z"/><path fill="#41479b" d="M5.895 0h-5.895v1.249l5.895 3.862z"/><path fill="#41479b" d="M0 4.269v1.626h2.482z"/><path fill="#41479b" d="M0 10.105v1.626l2.482-1.626z"/><path fill="#41479b" d="M16 1.249v-1.249h-5.895v5.111z"/><path fill="#41479b" d="M16 11.731v-1.626h-2.482z"/><path fill="#41479b" d="M10.105 10.889v5.111h5.895v-1.249z"/><path fill="#41479b" d="M16 5.895v-1.626l-2.482 1.626z"/><path fill="#41479b" d="M0 14.751v1.249h5.895v-5.111z"/><path fill="#f5f5f5" d="M16 14.751v-1.248l-5.236-3.398h1.547l3.689 2.394v-0.768l-2.482-1.626h2.482v-0.842h-6.737v6.737h0.842v-5.111z"/><path fill="#f5f5f5" d="M0 9.263v0.842h2.482l-2.482 1.626v1.181l4.325-2.807h1.547l-5.872 3.811v0.835l5.895-3.862v5.111h0.842v-6.737z"/><path fill="#f5f5f5" d="M6.737 0h-0.842v5.111l-5.895-3.862v1.366l5.053 3.28h-1.547l-3.506-2.276v0.65l2.482 1.626h-2.482v0.842h6.737z"/><path fill="#f5f5f5" d="M16 6.737v-0.842h-2.482l2.482-1.626v-1.196l-4.348 2.822h-1.547l5.895-3.826v-0.82l-5.895 3.862v-5.111h-0.842v6.737z"/><path fill="#ff4b55" d="M16 9.263v-2.526h-6.737v-6.737h-2.526v6.737h-6.737v2.526h6.737v6.737h2.526v-6.737z"/><path fill="#ff4b55" d="M4.325 10.105l-4.325 2.807v1.004l5.872-3.811z"/><path fill="#ff4b55" d="M10.764 10.105l5.236 3.398v-1.004l-3.689-2.394z"/><path fill="#ff4b55" d="M5.053 5.895l-5.053-3.28v1.004l3.506 2.276z"/><path fill="#ff4b55" d="M11.652 5.895l4.348-2.822v-1.004l-5.895 3.826z"/><path fill="#ff4b55" d="M24.724 27.577c-0.022 0-0.045-0.007-0.064-0.020l-0.653-0.467-0.653 0.467c-0.019 0.014-0.042 0.020-0.064 0.020s-0.046-0.007-0.065-0.021c-0.038-0.028-0.055-0.078-0.040-0.123l0.242-0.765-0.645-0.476c-0.038-0.029-0.054-0.078-0.040-0.123s0.057-0.076 0.104-0.076l0.803-0.006 0.254-0.761c0.015-0.045 0.057-0.075 0.105-0.075s0.090 0.031 0.105 0.075l0.254 0.761 0.803 0.006c0.048 0.001 0.089 0.031 0.104 0.076s-0.001 0.094-0.040 0.123l-0.645 0.476 0.242 0.765c0.014 0.045-0.002 0.095-0.040 0.123-0.019 0.014-0.042 0.021-0.065 0.021z"/><path fill="#f5f5f5" d="M24.007 25.26l0.279 0.836 0.881 0.007-0.709 0.524 0.266 0.84-0.717-0.512-0.717 0.512 0.266-0.84-0.709-0.524 0.881-0.007 0.279-0.836zM24.007 25.039c-0.095 0-0.179 0.061-0.209 0.151l-0.229 0.686-0.724 0.006c-0.095 0.001-0.179 0.062-0.208 0.152s0.002 0.189 0.079 0.246l0.582 0.43-0.218 0.69c-0.029 0.091 0.004 0.189 0.081 0.245 0.039 0.028 0.084 0.042 0.13 0.042s0.090-0.014 0.128-0.041l0.589-0.421 0.589 0.421c0.038 0.027 0.083 0.041 0.128 0.041s0.091-0.014 0.13-0.042c0.077-0.056 0.109-0.155 0.081-0.245l-0.218-0.69 0.582-0.43c0.076-0.056 0.108-0.155 0.079-0.246s-0.113-0.152-0.208-0.152l-0.724-0.006-0.229-0.686c-0.030-0.090-0.114-0.151-0.209-0.151v0z"/><path fill="#ff4b55" d="M24.724 16.725c-0.023 0-0.045-0.007-0.064-0.020l-0.653-0.467-0.653 0.467c-0.019 0.014-0.042 0.020-0.064 0.020s-0.046-0.007-0.065-0.021c-0.038-0.028-0.055-0.078-0.040-0.123l0.242-0.765-0.645-0.477c-0.038-0.029-0.054-0.078-0.040-0.123s0.057-0.076 0.104-0.076l0.803-0.006 0.254-0.761c0.015-0.045 0.057-0.075 0.105-0.075s0.090 0.031 0.105 0.075l0.254 0.761 0.803 0.006c0.047 0.001 0.089 0.031 0.104 0.076s-0.001 0.094-0.040 0.123l-0.645 0.477 0.242 0.765c0.014 0.045-0.002 0.095-0.040 0.123-0.019 0.014-0.042 0.021-0.065 0.021z"/><path fill="#f5f5f5" d="M24.007 14.408l0.279 0.836 0.881 0.007-0.709 0.524 0.266 0.84-0.717-0.512-0.717 0.512 0.266-0.84-0.709-0.524 0.881-0.007 0.279-0.836zM24.007 14.187c-0.095 0-0.179 0.061-0.209 0.151l-0.229 0.687-0.724 0.006c-0.095 0.001-0.179 0.062-0.208 0.152s0.002 0.189 0.079 0.246l0.582 0.43-0.218 0.69c-0.029 0.091 0.004 0.189 0.081 0.245 0.039 0.028 0.084 0.042 0.13 0.042s0.090-0.014 0.128-0.041l0.589-0.421 0.589 0.421c0.038 0.027 0.083 0.041 0.128 0.041s0.091-0.014 0.13-0.042c0.077-0.056 0.109-0.155 0.081-0.245l-0.218-0.69 0.582-0.43c0.076-0.056 0.108-0.155 0.079-0.246s-0.113-0.152-0.208-0.152l-0.724-0.006-0.229-0.687c-0.030-0.090-0.114-0.151-0.209-0.151v0z"/><path fill="#ff4b55" d="M28.586 20.797c-0.023 0-0.045-0.007-0.064-0.020l-0.653-0.467-0.653 0.467c-0.019 0.014-0.042 0.020-0.064 0.020s-0.046-0.007-0.065-0.021c-0.038-0.028-0.055-0.078-0.040-0.123l0.242-0.765-0.645-0.477c-0.038-0.029-0.054-0.078-0.040-0.123s0.057-0.076 0.104-0.076l0.803-0.006 0.254-0.761c0.015-0.045 0.057-0.075 0.105-0.075s0.090 0.031 0.105 0.075l0.254 0.761 0.803 0.006c0.047 0.001 0.089 0.031 0.104 0.076s-0.001 0.094-0.040 0.123l-0.645 0.477 0.242 0.765c0.014 0.045-0.002 0.095-0.040 0.123-0.019 0.014-0.042 0.021-0.065 0.021z"/><path fill="#f5f5f5" d="M27.869 18.479l0.279 0.836 0.881 0.007-0.709 0.524 0.266 0.84-0.717-0.512-0.717 0.512 0.266-0.84-0.709-0.524 0.881-0.007 0.279-0.836zM27.869 18.258c-0.095 0-0.179 0.061-0.209 0.151l-0.229 0.686-0.724 0.006c-0.095 0.001-0.179 0.062-0.208 0.152s0.002 0.189 0.079 0.246l0.582 0.43-0.218 0.69c-0.029 0.091 0.004 0.189 0.081 0.245 0.039 0.028 0.084 0.042 0.13 0.042s0.090-0.014 0.128-0.041l0.589-0.421 0.589 0.421c0.038 0.027 0.083 0.041 0.128 0.041s0.091-0.014 0.13-0.042c0.077-0.056 0.109-0.155 0.081-0.245l-0.218-0.69 0.582-0.43c0.076-0.056 0.108-0.155 0.079-0.246s-0.113-0.152-0.208-0.152l-0.724-0.006-0.229-0.686c-0.030-0.090-0.114-0.151-0.209-0.151v0z"/><path fill="#ff4b55" d="M20.862 21.9c-0.023 0-0.045-0.007-0.064-0.020l-0.653-0.467-0.653 0.467c-0.019 0.014-0.042 0.020-0.064 0.020s-0.046-0.007-0.065-0.021c-0.038-0.028-0.055-0.078-0.040-0.123l0.242-0.765-0.645-0.477c-0.038-0.029-0.054-0.078-0.040-0.123s0.057-0.076 0.104-0.076l0.803-0.006 0.254-0.761c0.015-0.045 0.057-0.075 0.105-0.075s0.090 0.031 0.105 0.075l0.254 0.761 0.803 0.006c0.047 0.001 0.089 0.031 0.104 0.076s-0.001 0.094-0.040 0.123l-0.645 0.477 0.242 0.765c0.014 0.045-0.002 0.095-0.040 0.123-0.019 0.014-0.042 0.021-0.065 0.021z"/><path fill="#f5f5f5" d="M20.145 19.582l0.279 0.836 0.881 0.007-0.709 0.524 0.266 0.84-0.717-0.512-0.717 0.512 0.266-0.84-0.709-0.524 0.881-0.007 0.279-0.836zM20.145 19.362c-0.095 0-0.179 0.061-0.209 0.151l-0.229 0.686-0.724 0.006c-0.095 0.001-0.179 0.062-0.208 0.152s0.002 0.189 0.079 0.246l0.582 0.43-0.218 0.69c-0.029 0.091 0.004 0.189 0.081 0.245 0.039 0.028 0.084 0.042 0.13 0.042s0.090-0.014 0.128-0.041l0.589-0.421 0.589 0.421c0.038 0.027 0.083 0.041 0.128 0.041s0.091-0.014 0.13-0.042c0.077-0.056 0.109-0.155 0.081-0.245l-0.218-0.69 0.582-0.43c0.076-0.056 0.108-0.155 0.079-0.246s-0.113-0.152-0.208-0.152l-0.724-0.006-0.229-0.686c-0.030-0.090-0.114-0.151-0.209-0.151v0z"/></svg>