<!-- Generated by IcoMoon.io -->
<svg version="1.1" xmlns="http://www.w3.org/2000/svg" width="32" height="32" viewBox="0 0 32 32">
<title>niue</title>
<path fill="#ffe15a" d="M0 0h32v32h-32v-32z"></path>
<path fill="#41479b" d="M5.895 0h-5.895v1.249l5.895 3.862z"></path>
<path fill="#41479b" d="M0 4.269v1.626h2.482z"></path>
<path fill="#41479b" d="M0 10.105v1.626l2.482-1.626z"></path>
<path fill="#41479b" d="M16 1.249v-1.249h-5.895v5.111z"></path>
<path fill="#41479b" d="M16 11.731v-1.626h-2.482z"></path>
<path fill="#41479b" d="M10.105 10.889v5.111h5.895v-1.249z"></path>
<path fill="#41479b" d="M16 5.895v-1.626l-2.482 1.626z"></path>
<path fill="#41479b" d="M0 14.751v1.249h5.895v-5.111z"></path>
<path fill="#f5f5f5" d="M16 14.751v-1.248l-5.236-3.398h1.547l3.689 2.394v-0.768l-2.482-1.626h2.482v-0.842h-6.737v6.737h0.842v-5.111z"></path>
<path fill="#f5f5f5" d="M0 9.263v0.842h2.482l-2.482 1.626v1.181l4.325-2.807h1.547l-5.872 3.811v0.835l5.895-3.862v5.111h0.842v-6.737z"></path>
<path fill="#f5f5f5" d="M6.737 0h-0.842v5.111l-5.895-3.862v1.366l5.053 3.28h-1.547l-3.506-2.276v0.65l2.482 1.626h-2.482v0.842h6.737z"></path>
<path fill="#f5f5f5" d="M16 6.737v-0.842h-2.482l2.482-1.626v-1.196l-4.348 2.822h-1.547l5.895-3.826v-0.82l-5.895 3.862v-5.111h-0.842v6.737z"></path>
<path fill="#ff4b55" d="M16 9.263v-2.526h-6.737v-6.737h-2.526v6.737h-6.737v2.526h6.737v6.737h2.526v-6.737z"></path>
<path fill="#ff4b55" d="M4.325 10.105l-4.325 2.807v1.004l5.872-3.811z"></path>
<path fill="#ff4b55" d="M10.764 10.105l5.236 3.398v-1.004l-3.689-2.394z"></path>
<path fill="#ff4b55" d="M5.053 5.895l-5.053-3.28v1.004l3.506 2.276z"></path>
<path fill="#ff4b55" d="M11.652 5.895l4.348-2.822v-1.004l-5.895 3.826z"></path>
<path fill="#41479b" d="M10.041 6.423c1.606 2.538-1.080 5.224-3.618 3.618-0.187-0.118-0.346-0.278-0.465-0.465-1.606-2.538 1.080-5.224 3.618-3.618 0.187 0.118 0.346 0.278 0.465 0.465z"></path>
<path fill="#ffe15a" d="M8.139 5.913l0.422 1.266 1.334 0.010c0.173 0.001 0.244 0.222 0.105 0.324l-1.073 0.792 0.402 1.272c0.052 0.165-0.135 0.301-0.276 0.2l-1.085-0.776-1.085 0.776c-0.141 0.1-0.328-0.036-0.276-0.2l0.402-1.272-1.073-0.792c-0.139-0.103-0.067-0.323 0.105-0.324l1.334-0.010 0.422-1.266c0.055-0.164 0.286-0.164 0.341 0z"></path>
<path fill="#ffe15a" d="M3.099 6.927l0.227 0.68 0.717 0.006c0.093 0.001 0.131 0.119 0.057 0.174l-0.577 0.426 0.216 0.684c0.028 0.089-0.073 0.162-0.148 0.108l-0.583-0.417-0.583 0.417c-0.076 0.054-0.176-0.019-0.148-0.108l0.216-0.684-0.577-0.426c-0.075-0.055-0.036-0.174 0.057-0.174l0.717-0.006 0.227-0.68c0.029-0.088 0.154-0.088 0.183 0z"></path>
<path fill="#ffe15a" d="M13.085 6.927l0.227 0.68 0.717 0.006c0.093 0.001 0.131 0.119 0.057 0.174l-0.577 0.426 0.216 0.684c0.028 0.089-0.073 0.162-0.148 0.108l-0.584-0.417-0.584 0.417c-0.076 0.054-0.176-0.019-0.148-0.108l0.216-0.684-0.577-0.426c-0.075-0.055-0.036-0.174 0.057-0.174l0.717-0.006 0.227-0.68c0.029-0.088 0.154-0.088 0.183 0z"></path>
<path fill="#ffe15a" d="M8.071 1.816l0.227 0.68 0.717 0.006c0.093 0.001 0.131 0.119 0.057 0.174l-0.577 0.426 0.216 0.684c0.028 0.089-0.073 0.162-0.148 0.108l-0.583-0.417-0.583 0.417c-0.076 0.054-0.176-0.019-0.148-0.108l0.216-0.684-0.577-0.426c-0.075-0.055-0.036-0.174 0.057-0.174l0.717-0.006 0.227-0.68c0.029-0.088 0.154-0.088 0.183 0z"></path>
<path fill="#ffe15a" d="M8.071 12.159l0.227 0.68 0.717 0.006c0.093 0.001 0.131 0.119 0.057 0.174l-0.577 0.426 0.216 0.684c0.028 0.089-0.073 0.162-0.148 0.108l-0.583-0.417-0.583 0.417c-0.076 0.054-0.176-0.019-0.148-0.108l0.216-0.684-0.577-0.426c-0.075-0.055-0.036-0.174 0.057-0.174l0.717-0.006 0.227-0.68c0.029-0.088 0.154-0.088 0.183 0z"></path>
</svg>
