<!-- Generated by IcoMoon.io -->
<svg version="1.1" xmlns="http://www.w3.org/2000/svg" width="32" height="32" viewBox="0 0 32 32">
<title>north-korea</title>
<path fill="#41479b" d="M0 0h32v32h-32v-32z"></path>
<path fill="#f5f5f5" d="M0 4.211h32v1.684h-32v-1.684z"></path>
<path fill="#f5f5f5" d="M0 26.105h32v1.684h-32v-1.684z"></path>
<path fill="#ff4b55" d="M0 5.895h32v20.211h-32v-20.211z"></path>
<path fill="#f5f5f5" d="M16.938 16c0 3.721-3.016 6.737-6.737 6.737s-6.737-3.016-6.737-6.737c0-3.721 3.016-6.737 6.737-6.737s6.737 3.016 6.737 6.737z"></path>
<path fill="#ff4b55" d="M10.38 9.867l1.351 4.052 4.272 0.033c0.182 0.001 0.257 0.233 0.111 0.341l-3.436 2.538 1.289 4.073c0.055 0.173-0.142 0.317-0.29 0.211l-3.475-2.484-3.475 2.484c-0.148 0.106-0.345-0.038-0.29-0.211l1.288-4.073-3.436-2.537c-0.146-0.108-0.071-0.34 0.111-0.341l4.271-0.033 1.351-4.052c0.057-0.172 0.301-0.172 0.359 0z"></path>
</svg>
