<svg xmlns="http://www.w3.org/2000/svg" width="32" height="32" version="1.1" viewBox="0 0 32 32"><title>pakistan</title><path fill="#73af00" d="M8.276 0h23.724v32h-23.724v-32z"/><path fill="#f5f5f5" d="M0 0h8.276v32h-8.276v-32z"/><path fill="#f5f5f5" d="M26.29 19.134c-2.759 2.458-6.983 2.206-9.437-0.559-2.448-2.759-2.201-6.996 0.559-9.454 0.004-0.004 0.008-0.007 0.012-0.011 0.065-0.057 0.002-0.161-0.079-0.13-2.721 1.060-4.651 3.707-4.651 6.806 0 4.037 3.265 7.306 7.292 7.306 2.786 0 5.2-1.568 6.427-3.869 0.041-0.077-0.055-0.151-0.12-0.093-0.001 0.001-0.002 0.002-0.003 0.003z"/><path fill="#f5f5f5" d="M22.74 10.333l0.959 1.076 1.328-0.559c0.172-0.072 0.337 0.116 0.243 0.277l-0.727 1.244 0.942 1.091c0.122 0.141-0.006 0.356-0.188 0.317l-1.408-0.307-0.746 1.233c-0.097 0.16-0.341 0.104-0.359-0.081l-0.143-1.434-1.403-0.329c-0.182-0.043-0.205-0.292-0.034-0.367l1.32-0.579-0.121-1.436c-0.016-0.186 0.214-0.285 0.338-0.146z"/></svg>