<svg xmlns="http://www.w3.org/2000/svg" width="32" height="32" version="1.1" viewBox="0 0 32 32"><title>puerto-rico</title><path fill="#ff4b55" d="M0 0h32v6.4h-32v-6.4z"/><path fill="#f5f5f5" d="M0 6.4h32v6.4h-32v-6.4z"/><path fill="#ff4b55" d="M0 12.8h32v6.4h-32v-6.4z"/><path fill="#ff4b55" d="M0 25.6h32v6.4h-32v-6.4z"/><path fill="#f5f5f5" d="M0 19.2h32v6.4h-32v-6.4z"/><path fill="#41479b" d="M16.672 16.525c0.267-0.248 0.267-0.802 0-1.050l-16.672-15.475v32l16.672-15.475z"/><path fill="#f5f5f5" d="M6.815 12.443l0.8 2.399 2.529 0.020c0.327 0.003 0.463 0.42 0.2 0.615l-2.034 1.502 0.763 2.411c0.099 0.312-0.257 0.57-0.523 0.38l-2.058-1.471-2.058 1.471c-0.266 0.19-0.622-0.068-0.523-0.38l0.763-2.411-2.034-1.502c-0.263-0.194-0.128-0.612 0.2-0.615l2.529-0.020 0.8-2.399c0.104-0.311 0.543-0.311 0.647 0z"/></svg>