<!-- Generated by IcoMoon.io -->
<svg version="1.1" xmlns="http://www.w3.org/2000/svg" width="32" height="32" viewBox="0 0 32 32">
<title>qatar</title>
<path fill="#f5f5f5" d="M0 0h14.957v32h-14.957v-32z"></path>
<path fill="#873250" d="M32 0h-23.813c0.022 0 0.044 0.003 0.066 0.010l5.093 1.556c0.212 0.065 0.212 0.365-0 0.43l-4.42 1.346c-0.212 0.065-0.212 0.365-0 0.43l4.421 1.351c0.212 0.065 0.212 0.365-0 0.43l-4.42 1.346c-0.212 0.065-0.212 0.365-0 0.43l4.421 1.351c0.212 0.065 0.212 0.365-0 0.43l-4.419 1.345c-0.212 0.065-0.212 0.365 0 0.43l4.419 1.345c0.212 0.065 0.212 0.365 0 0.43l-4.421 1.351c-0.212 0.065-0.212 0.365 0 0.43l4.42 1.346c0.212 0.065 0.212 0.365 0 0.43l-4.421 1.351c-0.212 0.065-0.212 0.365 0 0.43l4.42 1.346c0.212 0.065 0.212 0.365 0 0.43l-4.421 1.351c-0.212 0.065-0.212 0.365 0 0.43l4.42 1.346c0.212 0.065 0.212 0.365 0 0.43l-4.421 1.351c-0.212 0.065-0.212 0.365 0 0.43l4.419 1.346c0.212 0.065 0.212 0.365 0 0.43l-4.419 1.346c-0.212 0.065-0.212 0.365-0 0.43l4.421 1.351c0.212 0.065 0.212 0.365-0 0.43l-5.093 1.551c-0.021 0.006-0.043 0.010-0.065 0.010h23.813v-32z"></path>
</svg>
