<svg xmlns="http://www.w3.org/2000/svg" width="32" height="32" version="1.1" viewBox="0 0 32 32"><title>rapa-nui</title><path fill="#f5f5f5" d="M0 0h32v32h-32v-32z"/><path fill="#ff4b55" d="M30.161 8.839c-0.107-0.038-0.226 0.018-0.264 0.126-0.137 0.386-0.285 0.731-0.438 1.058-0.39 0.386-0.876 0.674-1.344 0.759-0.759 0.138-1.126 0.506-1.126 0.506-1.333-0.391-1.586 0.345-1.885 0.667-0.167 0.18-0.384 0.243-0.58 0.245-0.714-0.389-1.195-0.864-1.204-0.873-0.080-0.081-0.212-0.082-0.293-0.002s-0.082 0.211-0.002 0.293c0.061 0.061 1.224 1.214 2.715 1.454-0.433 0.127-0.752 0.217-0.752 0.217s-0.483 0-1.931 1.172-2.46 1.287-3.103 1.264c-0.644-0.023-1.126-0.253-1.816 0.276s-1.586 0.437-2.138 0.437-1.448 0.092-2.138-0.437c-0.69-0.529-1.172-0.299-1.816-0.276s-1.655-0.092-3.103-1.264-1.931-1.172-1.931-1.172-0.319-0.089-0.752-0.217c1.492-0.24 2.655-1.392 2.716-1.454 0.080-0.081 0.080-0.212-0.002-0.293s-0.212-0.080-0.293 0.002c-0.009 0.009-0.49 0.484-1.204 0.873-0.196-0.002-0.413-0.065-0.58-0.245-0.299-0.322-0.552-1.058-1.885-0.667 0 0-0.368-0.368-1.126-0.506-0.469-0.085-0.954-0.373-1.344-0.759-0.153-0.326-0.301-0.672-0.438-1.058-0.038-0.108-0.157-0.164-0.264-0.126s-0.164 0.156-0.126 0.264c0.004 0.012 0.009 0.022 0.013 0.033 0.020 0.106 0.44 2.223 1.975 3.691 1.081 1.034 2.13 2.611 2.575 3.494 1.448 2.874 4.207 6.736 9.724 6.736s8.276-3.862 9.724-6.736c0.445-0.883 1.494-2.46 2.575-3.494 1.535-1.468 1.955-3.585 1.975-3.691 0.004-0.012 0.009-0.022 0.013-0.033 0.038-0.108-0.018-0.226-0.126-0.264z"/></svg>