<!-- Generated by IcoMoon.io -->
<svg version="1.1" xmlns="http://www.w3.org/2000/svg" width="32" height="32" viewBox="0 0 32 32">
<title>republic-of-macedonia</title>
<path fill="#ff4b55" d="M0 0h32v32h-32v-32z"></path>
<path fill="#ffe15a" d="M13.112 12.949c-0.001 0.001-0.001 0.001-0.002 0.001l-12.268-12.95h-0.842v5.517l12.482 8.178c0.18-0.274 0.393-0.522 0.63-0.746z"></path>
<path fill="#ffe15a" d="M11.833 16.431c-0.015-0.144-0.043-0.284-0.043-0.431s0.029-0.287 0.043-0.431l-0 0-11.833-1.224v3.31l11.833-1.224z"></path>
<path fill="#ffe15a" d="M15.346 11.855v0h-0z"></path>
<path fill="#ffe15a" d="M16 11.79c0.224 0 0.44 0.032 0.654 0.066l1.872-11.855h-5.053l1.872 11.855c0.215-0.034 0.43-0.066 0.654-0.066z"></path>
<path fill="#ffe15a" d="M16.654 11.855h-0z"></path>
<path fill="#ffe15a" d="M18.888 12.949c0.237 0.225 0.45 0.472 0.63 0.746l12.482-8.178v-5.517h-0.842l-12.269 12.95c-0-0-0.001-0.001-0.002-0.001z"></path>
<path fill="#ffe15a" d="M19.518 18.305c-0.18 0.274-0.393 0.522-0.63 0.746 0-0 0.001-0.001 0.002-0.001l12.269 12.95h0.842v-5.517l-12.482-8.178z"></path>
<path fill="#ffe15a" d="M20.167 15.569c0.015 0.144 0.044 0.284 0.044 0.431s-0.029 0.288-0.044 0.431l0-0 11.833 1.224v-3.31l-11.833 1.224z"></path>
<path fill="#ffe15a" d="M15.345 20.145h0z"></path>
<path fill="#ffe15a" d="M16 20.21c-0.224 0-0.44-0.032-0.654-0.066l-1.872 11.855h5.053l-1.872-11.855c-0.215 0.034-0.43 0.066-0.654 0.066z"></path>
<path fill="#ffe15a" d="M16.654 20.145v0h0z"></path>
<path fill="#ffe15a" d="M13.112 19.051c-0.237-0.225-0.45-0.472-0.63-0.746l-12.482 8.178v5.517h0.842l12.269-12.95c0.001 0 0.001 0.001 0.002 0.001z"></path>
<path fill="#ffe15a" d="M18.207 16c0 1.219-0.988 2.207-2.207 2.207s-2.207-0.988-2.207-2.207c0-1.219 0.988-2.207 2.207-2.207s2.207 0.988 2.207 2.207z"></path>
</svg>
