<svg xmlns="http://www.w3.org/2000/svg" width="32" height="32" version="1.1" viewBox="0 0 32 32"><title>rwanda</title><path fill="#4173cd" d="M0.205 0.103h31.794v15.898h-31.794v-15.898z"/><path fill="#4173cd" d="M0.205 16h31.795v15.061c0 0.462-0.375 0.837-0.837 0.837h-30.958c-0.462 0 0-0.375 0-0.837v-15.061z"/><path fill="#ffe15a" d="M0.205 16h31.794v7.949h-31.794v-7.949z"/><path fill="#73af00" d="M0.205 23.949h31.794v7.949h-31.794v-7.949z"/><path fill="#ffe15a" d="M26.902 8.618l3.425-0.567-3.425-0.567 2.947-1.834-3.381 0.787 2.021-2.823-2.823 2.021 0.787-3.381-1.834 2.947-0.567-3.425-0.567 3.425-1.834-2.947 0.787 3.381-2.823-2.021 2.021 2.823-3.381-0.787 2.947 1.834-3.425 0.567 3.425 0.567-2.947 1.834 3.381-0.787-2.021 2.823 2.823-2.021-0.787 3.381 1.834-2.947 0.567 3.425 0.567-3.425 1.834 2.947-0.787-3.381 2.823 2.021-2.021-2.823 3.381 0.787-2.947-1.834zM24.051 10.143c-1.155 0-2.092-0.937-2.092-2.092s0.936-2.092 2.092-2.092 2.092 0.936 2.092 2.092-0.937 2.092-2.092 2.092z"/><path fill="#ffe15a" d="M25.62 8.051c0 0.866-0.702 1.569-1.569 1.569s-1.569-0.702-1.569-1.569c0-0.866 0.702-1.569 1.569-1.569s1.569 0.702 1.569 1.569z"/></svg>