<svg xmlns="http://www.w3.org/2000/svg" width="32" height="32" version="1.1" viewBox="0 0 32 32"><title>sahrawi-arab-democratic-republic</title><path fill="#464655" d="M0 0h32v10.667h-32v-10.667z"/><path fill="#73af00" d="M0 21.333h32v10.667h-32v-10.667z"/><path fill="#f5f5f5" d="M0 10.667h32v10.667h-32v-10.667z"/><path fill="#ff4b55" d="M0 32l15.27-15.564c0.218-0.223 0.218-0.65 0-0.873l-15.27-15.564v32z"/><path fill="#ff4b55" d="M19.838 15.943c0-1.921 1.255-3.548 2.989-4.108 0.1-0.032 0.087-0.178-0.018-0.188-0.333-0.033-0.677-0.028-1.028 0.022-2.037 0.286-3.609 2.009-3.707 4.063-0.119 2.481 1.858 4.529 4.312 4.529 0.142 0 0.282-0.007 0.421-0.021 0.105-0.010 0.118-0.157 0.018-0.189-1.734-0.561-2.988-2.188-2.988-4.108z"/><path fill="#ff4b55" d="M23.504 13.106l-0.567 1.701-1.793 0.014c-0.232 0.002-0.328 0.298-0.142 0.436l1.442 1.065-0.541 1.709c-0.070 0.221 0.182 0.404 0.371 0.269l1.459-1.043 1.459 1.043c0.189 0.135 0.441-0.048 0.371-0.269l-0.541-1.709 1.442-1.065c0.187-0.138 0.090-0.434-0.142-0.436l-1.793-0.014-0.567-1.701c-0.073-0.22-0.385-0.22-0.458 0z"/></svg>