<svg xmlns="http://www.w3.org/2000/svg" width="32" height="32" version="1.1" viewBox="0 0 32 32"><title>saint-kitts-and-nevis</title><path fill="#73af00" d="M0 0h32v32h-32v-32z"/><path fill="#ffe15a" d="M23.443 0l-23.443 23.443v2.517l25.96-25.96z"/><path fill="#ffe15a" d="M32 8.557v-2.517l-25.96 25.96h2.517z"/><path fill="#464655" d="M32 6.040v-6.040h-6.040l-25.96 25.96v6.040h6.040z"/><path fill="#f5f5f5" d="M10.077 18.674l1.312 0.626 1.017-1.039c0.132-0.134 0.359-0.024 0.334 0.163l-0.19 1.442 1.302 0.646c0.169 0.084 0.134 0.334-0.051 0.368l-1.43 0.265-0.212 1.438c-0.027 0.186-0.276 0.23-0.366 0.065l-0.694-1.278-1.434 0.243c-0.186 0.031-0.304-0.192-0.175-0.328l1.001-1.055-0.674-1.288c-0.087-0.167 0.088-0.349 0.258-0.268z"/><path fill="#f5f5f5" d="M19.202 9.424l1.312 0.626 1.017-1.039c0.132-0.134 0.359-0.024 0.334 0.163l-0.19 1.441 1.302 0.646c0.169 0.084 0.134 0.334-0.051 0.368l-1.43 0.265-0.212 1.438c-0.027 0.186-0.276 0.23-0.366 0.065l-0.694-1.278-1.433 0.243c-0.186 0.031-0.304-0.191-0.175-0.328l1.001-1.055-0.674-1.288c-0.087-0.167 0.088-0.349 0.258-0.268z"/><path fill="#ff4b55" d="M32 31.158v-22.601l-23.443 23.443h22.891c0.305 0 0.552-0.377 0.552-0.842z"/></svg>