<svg xmlns="http://www.w3.org/2000/svg" width="32" height="32" version="1.1" viewBox="0 0 32 32"><title>san-marino</title><path fill="#f5f5f5" d="M0 0h32v16h-32v-16z"/><path fill="#82afff" d="M0 16h32v16h-32v-16z"/><path fill="#b46446" d="M16.078 22.867c-0.143-0.006-3.51-0.178-5.199-2.494-0.985-1.349-1.181-3.143-0.584-5.333l0.241 0.066c-0.576 2.112-0.393 3.834 0.544 5.119 1.618 2.218 4.975 2.391 5.009 2.392l-0.011 0.25z"/><path fill="#41aa5a" d="M10.292 14.069c-0.166 0.432-0.128 0.885 0.064 1.229 0.373-0.127 0.704-0.438 0.87-0.87s0.128-0.885-0.064-1.229c-0.373 0.126-0.704 0.438-0.87 0.87z"/><path fill="#41aa5a" d="M12.401 20.047c-0.184 0.304-0.233 0.712-0.096 1.107 0.127 0.37 0.391 0.643 0.695 0.78-0.296-0.155-0.673-0.194-1.043-0.067-0.396 0.136-0.687 0.426-0.813 0.758 0.304 0.184 0.712 0.233 1.107 0.096s0.687-0.426 0.813-0.758l-0-0c0.183-0.304 0.231-0.71 0.095-1.104-0.136-0.396-0.426-0.687-0.758-0.813z"/><path fill="#41aa5a" d="M11.68 18.943c-0.284 0.213-0.481 0.574-0.502 0.992-0.020 0.391 0.123 0.742 0.354 0.983-0.217-0.255-0.552-0.431-0.943-0.451-0.418-0.021-0.796 0.139-1.037 0.401 0.213 0.284 0.574 0.481 0.992 0.502s0.796-0.139 1.037-0.401c-0-0-0-0-0-0 0.283-0.214 0.479-0.573 0.499-0.989 0.021-0.418-0.139-0.796-0.4-1.037z"/><path fill="#41aa5a" d="M11.368 17.699c-0.344 0.090-0.662 0.35-0.839 0.729-0.166 0.354-0.166 0.733-0.043 1.044-0.105-0.318-0.349-0.608-0.703-0.773-0.379-0.177-0.79-0.172-1.111-0.020 0.090 0.344 0.35 0.662 0.729 0.839s0.79 0.172 1.111 0.020c0 0-0-0-0-0 0.342-0.091 0.659-0.35 0.836-0.727 0.177-0.379 0.172-0.79 0.020-1.111z"/><path fill="#41aa5a" d="M11.545 16.465c-0.354-0.035-0.742 0.097-1.041 0.391-0.279 0.274-0.411 0.629-0.404 0.964 0.012-0.334-0.115-0.691-0.389-0.969-0.294-0.298-0.68-0.436-1.035-0.406-0.035 0.354 0.097 0.742 0.391 1.041s0.68 0.436 1.035 0.406c0 0 0-0 0-0 0.353 0.034 0.74-0.098 1.037-0.391 0.298-0.294 0.436-0.68 0.406-1.035z"/><path fill="#41aa5a" d="M11.795 15.29c-0.343-0.093-0.748-0.027-1.091 0.213-0.32 0.225-0.51 0.553-0.558 0.884 0.067-0.328 0.001-0.7-0.224-1.021-0.24-0.343-0.599-0.543-0.953-0.572-0.093 0.343-0.027 0.748 0.213 1.091s0.599 0.543 0.953 0.572c0-0 0-0 0-0 0.342 0.092 0.746 0.026 1.087-0.214 0.343-0.24 0.543-0.599 0.572-0.953z"/><path fill="#ffe15a" d="M12.104 21.607c0.169 0.263-0.111 0.543-0.374 0.374-0.017-0.011-0.033-0.026-0.044-0.044-0.169-0.263 0.111-0.543 0.374-0.374 0.017 0.011 0.033 0.026 0.044 0.044z"/><path fill="#ffe15a" d="M13.302 21.753c0.169 0.263-0.111 0.543-0.374 0.374-0.017-0.011-0.033-0.026-0.044-0.044-0.169-0.263 0.111-0.543 0.374-0.374 0.018 0.011 0.033 0.026 0.044 0.044z"/><path fill="#ffe15a" d="M11.416 19.638c0.169 0.263-0.111 0.543-0.374 0.374-0.017-0.011-0.033-0.026-0.044-0.044-0.169-0.263 0.111-0.543 0.374-0.374 0.017 0.011 0.033 0.026 0.044 0.044z"/><path fill="#ffe15a" d="M9.759 17.679c0.169 0.263-0.111 0.543-0.374 0.374-0.017-0.011-0.033-0.026-0.044-0.044-0.169-0.263 0.111-0.543 0.374-0.374 0.017 0.011 0.033 0.026 0.044 0.044z"/><path fill="#ffe15a" d="M10.916 16.352c0.169 0.263-0.111 0.543-0.374 0.374-0.017-0.011-0.033-0.026-0.044-0.044-0.169-0.263 0.111-0.543 0.374-0.374 0.017 0.011 0.033 0.026 0.044 0.044z"/><path fill="#ffe15a" d="M10.477 14.993c0.169 0.263-0.111 0.543-0.374 0.374-0.017-0.011-0.033-0.026-0.044-0.044-0.169-0.263 0.111-0.543 0.374-0.374 0.018 0.011 0.033 0.026 0.044 0.044z"/><path fill="#b46446" d="M16.089 22.867l-0.011-0.25c0.034-0.001 3.391-0.174 5.009-2.392 0.937-1.285 1.12-3.007 0.544-5.119l0.241-0.066c0.597 2.19 0.401 3.984-0.584 5.333-1.69 2.315-5.057 2.487-5.2 2.494z"/><path fill="#41aa5a" d="M21.875 14.069c0.166 0.432 0.128 0.885-0.064 1.229-0.373-0.127-0.704-0.438-0.87-0.87s-0.128-0.885 0.064-1.229c0.373 0.126 0.704 0.438 0.87 0.87z"/><path fill="#41aa5a" d="M19.766 20.047c0.184 0.304 0.233 0.712 0.096 1.107-0.128 0.37-0.391 0.643-0.695 0.78 0.296-0.155 0.673-0.194 1.043-0.067 0.396 0.136 0.687 0.426 0.813 0.758-0.304 0.184-0.712 0.233-1.107 0.096s-0.687-0.426-0.813-0.758c0-0 0-0 0-0-0.183-0.304-0.23-0.71-0.094-1.104 0.137-0.396 0.426-0.687 0.758-0.813z"/><path fill="#41aa5a" d="M20.487 18.943c0.284 0.213 0.481 0.574 0.502 0.992 0.020 0.391-0.123 0.742-0.354 0.983 0.217-0.255 0.552-0.431 0.943-0.451 0.418-0.021 0.796 0.139 1.037 0.401-0.213 0.284-0.574 0.481-0.992 0.502s-0.796-0.139-1.037-0.401c0-0 0-0 0-0-0.283-0.214-0.479-0.573-0.499-0.989-0.021-0.418 0.139-0.796 0.401-1.037z"/><path fill="#41aa5a" d="M20.799 17.699c0.344 0.090 0.662 0.35 0.839 0.729 0.166 0.354 0.166 0.733 0.043 1.044 0.105-0.318 0.349-0.608 0.703-0.773 0.379-0.177 0.79-0.172 1.111-0.020-0.090 0.344-0.35 0.662-0.729 0.839s-0.79 0.172-1.111 0.020c0 0 0-0 0-0-0.343-0.091-0.659-0.35-0.836-0.727-0.177-0.379-0.172-0.79-0.020-1.111z"/><path fill="#41aa5a" d="M20.622 16.465c0.354-0.035 0.742 0.097 1.041 0.391 0.279 0.274 0.411 0.629 0.404 0.964-0.012-0.334 0.115-0.691 0.389-0.969 0.294-0.298 0.68-0.436 1.035-0.406 0.035 0.354-0.097 0.742-0.391 1.041s-0.68 0.436-1.035 0.406c0 0 0-0 0-0-0.353 0.034-0.74-0.098-1.037-0.391-0.298-0.294-0.436-0.68-0.406-1.035z"/><path fill="#41aa5a" d="M20.372 15.29c0.343-0.093 0.748-0.027 1.091 0.213 0.32 0.225 0.51 0.553 0.558 0.884-0.067-0.328-0.001-0.7 0.224-1.021 0.24-0.343 0.599-0.543 0.953-0.572 0.093 0.343 0.027 0.748-0.213 1.091s-0.599 0.543-0.953 0.572c-0-0-0-0-0-0-0.342 0.092-0.746 0.026-1.087-0.214-0.343-0.24-0.543-0.599-0.572-0.953z"/><path fill="#ffe15a" d="M20.063 21.607c-0.169 0.263 0.111 0.543 0.374 0.374 0.017-0.011 0.033-0.026 0.044-0.044 0.169-0.263-0.111-0.543-0.374-0.374-0.017 0.011-0.033 0.026-0.044 0.044z"/><path fill="#ffe15a" d="M18.865 21.753c-0.169 0.263 0.111 0.543 0.374 0.374 0.017-0.011 0.033-0.026 0.044-0.044 0.169-0.263-0.111-0.543-0.374-0.374-0.017 0.011-0.033 0.026-0.044 0.044z"/><path fill="#ffe15a" d="M20.751 19.638c-0.169 0.263 0.111 0.543 0.374 0.374 0.017-0.011 0.033-0.026 0.044-0.044 0.169-0.263-0.111-0.543-0.374-0.374-0.017 0.011-0.033 0.026-0.044 0.044z"/><path fill="#ffe15a" d="M22.408 17.679c-0.169 0.263 0.111 0.543 0.374 0.374 0.017-0.011 0.033-0.026 0.044-0.044 0.169-0.263-0.111-0.543-0.374-0.374-0.017 0.011-0.033 0.026-0.044 0.044z"/><path fill="#ffe15a" d="M21.251 16.352c-0.169 0.263 0.111 0.543 0.374 0.374 0.017-0.011 0.033-0.026 0.044-0.044 0.169-0.263-0.111-0.543-0.374-0.374-0.017 0.011-0.033 0.026-0.044 0.044z"/><path fill="#ffe15a" d="M21.69 14.993c-0.169 0.263 0.111 0.543 0.374 0.374 0.017-0.011 0.033-0.026 0.044-0.044 0.169-0.263-0.111-0.543-0.374-0.374-0.017 0.011-0.033 0.026-0.044 0.044z"/><path fill="#8cd7ff" d="M17.55 14.115h-2.988c-0.93 0-1.684 0.754-1.684 1.684v2.632c0 0.93 0.754 1.684 1.684 1.684h2.988c0.93 0 1.684-0.754 1.684-1.684v-2.632c0-0.93-0.754-1.684-1.684-1.684z"/><path fill="#f5f5f5" d="M16.549 16.406v0.333h-0.333v-0.333h-0.257v0.333h-0.333v-0.333h-0.209v0.667l0.167 0.211v2.456h1v-2.456l0.167-0.211v-0.667z"/><path fill="#f5f5f5" d="M16.132 15.35c0.165-0.080 0.208 0.257 0.208 0.257 0.347-0.174 0.257-0.456 0.174-0.59-0.111-0.181-0.556-0.25-0.743 0.125s0.32 1.118 0.32 1.118c0.028-0.229-0.174-0.806 0.042-0.91z"/><path fill="#f5f5f5" d="M18.263 17.028v0.333h-0.333v-0.333h-0.257v0.333h-0.333v-0.333h-0.209v0.667l0.167 0.211v2.456h1v-2.456l0.167-0.211v-0.667z"/><path fill="#f5f5f5" d="M17.846 15.972c0.165-0.080 0.208 0.257 0.208 0.257 0.347-0.174 0.257-0.456 0.174-0.59-0.111-0.181-0.556-0.25-0.743 0.125s0.32 1.118 0.32 1.118c0.028-0.229-0.174-0.806 0.042-0.91z"/><path fill="#f5f5f5" d="M14.835 17.028v0.333h-0.333v-0.333h-0.257v0.333h-0.333v-0.333h-0.209v0.667l0.167 0.211v2.456h1v-2.456l0.167-0.211v-0.667z"/><path fill="#f5f5f5" d="M14.418 15.972c0.165-0.080 0.208 0.257 0.208 0.257 0.347-0.174 0.257-0.456 0.174-0.59-0.111-0.181-0.556-0.25-0.743 0.125s0.32 1.118 0.32 1.118c0.028-0.229-0.174-0.806 0.042-0.91z"/><path fill="#6ec86e" d="M18.819 19.918c-0.223-0.11-0.47-0.178-0.735-0.178-0.284 0-0.548 0.078-0.782 0.203-0.305-0.328-0.736-0.537-1.219-0.537s-0.914 0.209-1.219 0.537c-0.234-0.125-0.498-0.203-0.782-0.203-0.265 0-0.512 0.068-0.735 0.178 0.476 0.873 1.388 2.284 2.736 2.823 1.348-0.539 2.26-1.95 2.736-2.823z"/><path fill="#ffe15a" d="M16.069 8.745l0.015-0.008c0 0-0.005 0.001-0.015 0.008z"/><path fill="#ffe15a" d="M16.084 8.737l0.015 0.008c-0.010-0.006-0.015-0.008-0.015-0.008z"/><path fill="#ffe15a" d="M19.282 10.165c-0.094-0.542-0.792-0.636-1.594-0.688s-1.146-0.511-1.146-0.511h-0.917c0 0-0.344 0.458-1.146 0.511s-1.5 0.146-1.594 0.688 0.594 1.396 0.594 1.396l0.604-0.49c0 0-0.74-0.709-0.375-0.969 0.36-0.257 1.41-0.079 1.878-0.697-0.020 0.129-0.013 0.288 0.067 0.485 0.153 0.375 0.097 0.848 0.097 0.848h0.667c0 0-0.056-0.472 0.097-0.848 0.080-0.196 0.087-0.356 0.067-0.485 0.468 0.618 1.518 0.439 1.878 0.697 0.365 0.261-0.375 0.969-0.375 0.969l0.604 0.49c0 0 0.688-0.854 0.594-1.396z"/><path fill="#ffe15a" d="M16.424 7.091h-0.174v-0.188c0-0.092-0.075-0.167-0.167-0.167s-0.167 0.075-0.167 0.167v0.188h-0.181c-0.092 0-0.167 0.075-0.167 0.167s0.075 0.167 0.167 0.167h0.181v0.479c0 0.092 0.075 0.167 0.167 0.167s0.167-0.075 0.167-0.167v-0.479h0.174c0.092 0 0.167-0.075 0.167-0.167s-0.075-0.167-0.167-0.167z"/><path fill="#fff0e1" d="M16.35 7.857c0.22 0.338-0.141 0.699-0.479 0.479-0.021-0.014-0.039-0.032-0.053-0.053-0.22-0.338 0.141-0.699 0.479-0.479 0.021 0.014 0.039 0.032 0.053 0.053z"/><path fill="#ffc75a" d="M13.694 14.781c0.134 0.067 0.291 0.125 0.451 0.125 0.552 0 0.823-0.312 0.823-0.865s-0.333-0.969-0.886-0.969c0 0-0.062 0.001-0.162 0.016-0.021 0.004-0.043 0.007-0.064 0.011-0.531 0.101-1.844 0.591-2.108 2.973-0.37 3.33 2.334 6.335 4.335 7.002v-0.333c0-0-4.724-3.612-2.39-7.961z"/><path fill="#ffc75a" d="M14.083 13.405l2.001 0.667-2.001 0.667z"/><path fill="#ffe15a" d="M18.084 14.739l-2.001-0.667 2.001-0.667z"/><path fill="#ffe15a" d="M12.080 16.11c0.239-2.15 1.366-2.592 1.851-2.685 0.011-0.002 0.021-0.004 0.040-0.007 0.061-0.009 0.103-0.012 0.116-0.012 0.366 0.003 0.607 0.278 0.607 0.611 0 0.368-0.215 0.507-0.431 0.514 0 0 0.174-0.361-0.181-0.458-0.239-0.066-0.542 0.125-0.514 0.472 0.020 0.244 0.251 0.479 0.514 0.479 0.552 0 1-0.399 1-0.952s-0.448-1-1-1c0 0-0.062 0.001-0.162 0.016-0.021 0.004-0.043 0.007-0.064 0.011-0.531 0.101-1.844 0.591-2.108 2.973-0.37 3.33 2.334 6.335 4.335 7.002v-0.333c0 0-0.709-0.354-1.193-0.698-1.497-1.063-3.080-3.502-2.81-5.933z"/><path fill="#ffc75a" d="M18.473 14.781c-0.134 0.067-0.291 0.125-0.451 0.125-0.552 0-0.823-0.312-0.823-0.865s0.333-0.969 0.886-0.969c0 0 0.062 0.001 0.162 0.016 0.021 0.004 0.043 0.007 0.064 0.011 0.531 0.101 1.843 0.591 2.108 2.973 0.37 3.33-2.334 6.335-4.335 7.002v-0.333c0-0 4.724-3.612 2.39-7.961z"/><path fill="#ffc75a" d="M18.084 13.405l-2.001 0.667 2.001 0.667z"/><path fill="#ffe15a" d="M20.087 16.11c-0.239-2.15-1.366-2.592-1.851-2.685-0.011-0.002-0.021-0.004-0.040-0.007-0.061-0.009-0.103-0.012-0.116-0.012-0.366 0.003-0.607 0.278-0.607 0.611 0 0.368 0.215 0.507 0.431 0.514 0 0-0.174-0.361 0.181-0.458 0.239-0.066 0.542 0.125 0.514 0.472-0.020 0.244-0.251 0.479-0.514 0.479-0.552 0-1-0.399-1-0.952s0.448-1 1-1c0 0 0.062 0.001 0.162 0.016 0.021 0.004 0.043 0.007 0.064 0.011 0.531 0.101 1.843 0.591 2.108 2.973 0.37 3.33-2.334 6.335-4.335 7.002v-0.333c0 0 0.709-0.354 1.193-0.698 1.497-1.063 3.080-3.502 2.81-5.933z"/><path fill="#ffe15a" d="M16.35 13.859c0.22 0.338-0.141 0.699-0.479 0.479-0.021-0.014-0.039-0.032-0.053-0.053-0.22-0.338 0.141-0.699 0.479-0.479 0.021 0.014 0.039 0.032 0.053 0.053z"/><path fill="#ffc75a" d="M18.465 11.394c0.089-0.229-0.031-0.537-0.031-0.537-0.307-0.010-0.521 0.214-0.521 0.214 0.026-0.276-0.094-0.526-0.094-0.526-0.396 0.047-0.526 0.281-0.526 0.281-0.021-0.432-0.281-0.61-0.281-0.61-0.344 0.104-0.448 0.479-0.448 0.479-0.052-0.427-0.479-0.625-0.479-0.625s-0.427 0.198-0.479 0.625c0 0-0.104-0.375-0.448-0.479 0 0-0.261 0.177-0.281 0.61 0 0-0.13-0.234-0.526-0.281 0 0-0.12 0.25-0.094 0.526 0 0-0.214-0.224-0.521-0.214 0 0-0.12 0.307-0.031 0.537 0 0-0.349-0.109-0.636 0.057 0 0 0.525 0.203 0.7 0.453h4.632c0.175-0.25 0.7-0.453 0.7-0.453-0.287-0.167-0.636-0.057-0.636-0.057z"/><path fill="#ffe15a" d="M18.4 11.905c0 0.15-0.351 0.614-0.351 0.614s-1.137 0.158-1.966 0.158c-0.835 0-1.974-0.162-1.974-0.162s-0.343-0.461-0.343-0.61c0-0.426 1.037-0.772 2.316-0.772s2.316 0.346 2.316 0.772z"/><path fill="#ffc75a" d="M18.084 12.405c0 0.368-0.896 0.667-2.001 0.667s-2.001-0.299-2.001-0.667c0-0.368 0.896-0.667 2.001-0.667s2.001 0.299 2.001 0.667z"/><path fill="#ffc75a" d="M16.573 8.706c0-0.219-0.163-0.497-0.49-0.302-0.326-0.194-0.49 0.083-0.49 0.302s-0.25 0.25-0.281 0.229c0 0 0.208 0.271 0.448 0.094 0 0 0.129 0.188 0.323 0.188s0.323-0.188 0.323-0.188c0.24 0.177 0.448-0.094 0.448-0.094-0.031 0.021-0.281-0.010-0.281-0.229z"/><path fill="#b46446" d="M15.417 24.867c-0.019 0-0.038-0.004-0.056-0.013-0.062-0.031-0.087-0.106-0.056-0.168l0.667-1.334c0.031-0.061 0.106-0.087 0.168-0.056s0.087 0.106 0.056 0.168l-0.667 1.334c-0.022 0.044-0.066 0.069-0.112 0.069z"/><path fill="#b46446" d="M16.751 24.867c-0.046 0-0.090-0.025-0.112-0.069l-0.667-1.334c-0.031-0.062-0.006-0.137 0.056-0.168s0.137-0.006 0.168 0.056l0.667 1.334c0.031 0.062 0.006 0.137-0.056 0.168-0.018 0.009-0.037 0.013-0.056 0.013z"/><path fill="#f5f5f5" d="M19.084 23.7c-1.976 0.442-4.026 0.442-6.002 0 0-0.333 0-0.958 0-1.291 1.976 0.442 4.026 0.442 6.002 0 0 0.333 0 0.958 0 1.291z"/><path fill="#f5f5f5" d="M14.736 23.214c-1.276 0.246-2.584 0.314-3.885 0.192 0.022 0.172 1.051 0.683 1.051 0.683s-0.908 0.439-0.888 0.598c1.246 0.116 2.498 0.061 3.722-0.16l-0-1.313z"/><path fill="#f5f5f5" d="M17.436 23.214c1.276 0.246 2.584 0.314 3.885 0.192-0.022 0.172-1.051 0.683-1.051 0.683s0.908 0.439 0.888 0.598c-1.246 0.116-2.498 0.061-3.722-0.16v-1.313h0z"/></svg>