<!-- Generated by IcoMoon.io -->
<svg version="1.1" xmlns="http://www.w3.org/2000/svg" width="32" height="32" viewBox="0 0 32 32">
<title>sao-tome-and-prince</title>
<path fill="#73af00" d="M0 0h32v32h-32v-32z"></path>
<path fill="#ffe15a" d="M0 7.579h32v16.842h-32v-16.842z"></path>
<path fill="#ff4b55" d="M0 32l8.776-15.564c0.125-0.223 0.125-0.65 0-0.873l-8.776-15.564v32z"></path>
<path fill="#464655" d="M14.416 12.708l0.627 1.88 1.981 0.015c0.257 0.002 0.363 0.329 0.157 0.482l-1.594 1.177 0.598 1.889c0.077 0.245-0.201 0.447-0.41 0.298l-1.612-1.152-1.612 1.152c-0.209 0.149-0.487-0.053-0.41-0.298l0.598-1.889-1.594-1.177c-0.206-0.152-0.1-0.48 0.157-0.482l1.982-0.015 0.627-1.88c0.081-0.243 0.425-0.243 0.506 0z"></path>
<path fill="#464655" d="M23.564 12.708l0.627 1.88 1.982 0.015c0.257 0.002 0.363 0.329 0.157 0.482l-1.594 1.177 0.598 1.889c0.077 0.245-0.201 0.447-0.41 0.298l-1.612-1.152-1.612 1.152c-0.209 0.149-0.487-0.053-0.41-0.298l0.598-1.889-1.594-1.177c-0.206-0.152-0.1-0.48 0.157-0.482l1.982-0.015 0.627-1.88c0.081-0.243 0.425-0.243 0.506 0z"></path>
</svg>
