<svg xmlns="http://www.w3.org/2000/svg" width="32" height="32" version="1.1" viewBox="0 0 32 32"><title>saudi-arabia</title><path fill="#73af00" d="M0 0h32v32h-32v-32z"/><path fill="#f5f5f5" d="M4.803 11.983c0.065 0.416 0.316 0.547 0.535 0.53 0.258-0.020 0.484-0.256 0.484-0.505v-1.428c0-0.072 0.058-0.13 0.13-0.13s0.13 0.058 0.13 0.13v1.434c0 0.172 0.085 0.333 0.228 0.43 0.087 0.059 0.189 0.089 0.291 0.089 0.065 0 0.131-0.012 0.193-0.037l0.13-0.052c0.012 1.199-0.061 2.252-0.062 2.271-0.010 0.143 0.098 0.267 0.24 0.277 0.006 0.001 0.013 0.001 0.019 0.001 0.135 0 0.249-0.104 0.259-0.241 0.006-0.084 0.086-1.238 0.062-2.516l0.078-0.031c0.069-0.027 0.146-0.024 0.212 0.009 0.286 0.143 0.63 0.087 0.856-0.139l0.047-0.047c0.21-0.21 0.282-0.515 0.188-0.797l-0.221-0.663c0.12 0.036 0.251-0.017 0.309-0.132 0.064-0.128 0.012-0.284-0.116-0.348l-0.519-0.26c-0.094-0.047-0.207-0.033-0.286 0.036s-0.109 0.179-0.076 0.278l0.418 1.253c0.031 0.094 0.007 0.196-0.063 0.266l-0.047 0.047c-0.068 0.068-0.171 0.084-0.257 0.042-0.168-0.084-0.36-0.1-0.54-0.054-0.037-0.833-0.126-1.663-0.317-2.237-0.045-0.136-0.192-0.21-0.329-0.164s-0.21 0.192-0.164 0.328c0.187 0.561 0.269 1.416 0.297 2.266l-0.311 0.124v-1.434c0-0.358-0.291-0.649-0.649-0.649s-0.649 0.291-0.649 0.649v1.257l-0.265-1.308c-0.028-0.141-0.165-0.232-0.306-0.203s-0.231 0.166-0.203 0.306l0.274 1.352z"/><path fill="#f5f5f5" d="M5.303 9.801c0.143 0 0.26-0.116 0.26-0.26v-0.26c0-0.143-0.116-0.26-0.26-0.26s-0.26 0.116-0.26 0.26v0.26c0 0.143 0.116 0.26 0.26 0.26z"/><path fill="#f5f5f5" d="M7.9 9.542h0.26c0.143 0 0.26-0.116 0.26-0.26s-0.116-0.26-0.26-0.26h-0.26c-0.143 0-0.26 0.116-0.26 0.26s0.116 0.26 0.26 0.26z"/><path fill="#f5f5f5" d="M6.208 12.954l-1.298 0.779c-0.123 0.074-0.163 0.233-0.089 0.356 0.049 0.081 0.135 0.126 0.223 0.126 0.045 0 0.092-0.012 0.133-0.037l1.298-0.779c0.123-0.074 0.163-0.233 0.089-0.356s-0.233-0.163-0.356-0.089z"/><path fill="#f5f5f5" d="M9.709 13.413l0.006-0.004c0.022 0.088 0.059 0.173 0.12 0.244 0.105 0.124 0.264 0.187 0.442 0.172 0.254-0.018 0.426-0.134 0.54-0.284 0.017 0.012 0.036 0.023 0.055 0.032 0.14 0.071 0.303 0.065 0.457-0.015 0.392-0.202 0.477-0.67 0.465-0.914-0.007-0.143-0.128-0.243-0.27-0.246-0.143 0.006-0.254 0.127-0.248 0.27 0 0.003 0.006 0.311-0.182 0.426-0.031-0.043-0.067-0.139-0.081-0.219-0.022-0.134-0.145-0.227-0.277-0.216-0.135 0.011-0.239 0.124-0.239 0.259-0 0.038-0.008 0.371-0.266 0.399-0.030-0.041-0.030-0.213-0.001-0.34 0.025-0.104-0.017-0.213-0.105-0.274s-0.205-0.061-0.293-0.001l-0.145 0.099c-0.069-1.506-0.227-3.26-0.229-3.283-0.013-0.143-0.138-0.249-0.282-0.235s-0.248 0.139-0.235 0.282c0.002 0.024 0.186 2.054 0.242 3.604-0.013 0.013-0.027 0.026-0.040 0.039-0.103-0.259-0.306-0.422-0.568-0.447-0.37-0.033-0.771 0.219-0.914 0.579-0.124 0.309-0.046 0.613 0.199 0.774 0.176 0.116 0.441 0.152 0.774 0.036-0.081 0.286-0.23 0.576-0.422 0.8-0.173 0.201-0.461 0.433-0.83 0.423-0.215-0.008-0.38-0.079-0.504-0.215-0.301-0.328-0.275-0.923-0.274-0.929 0.008-0.143-0.102-0.265-0.245-0.273-0.144-0.015-0.266 0.102-0.274 0.245-0.002 0.033-0.039 0.814 0.408 1.305 0.22 0.242 0.513 0.372 0.869 0.386 0.017 0.001 0.035 0.001 0.052 0.001 0.434 0 0.856-0.213 1.191-0.604 0.316-0.368 0.53-0.867 0.595-1.331-0.001 0.888-0.536 1.89-1.246 2.331-0.301 0.187-0.771 0.356-1.3 0.095-0.652-0.322-0.575-1.068-0.571-1.098 0.018-0.142-0.083-0.272-0.225-0.29s-0.272 0.083-0.29 0.225c-0.006 0.046-0.131 1.141 0.857 1.628 0.254 0.125 0.519 0.187 0.786 0.187 0.343 0 0.69-0.103 1.018-0.307 0.864-0.537 1.491-1.704 1.491-2.774 0-0.167-0.003-0.35-0.008-0.543zM8.143 13.681c-0.046-0.031-0.010-0.129-0.002-0.148 0.055-0.137 0.226-0.255 0.362-0.255 0.007 0 0.014 0 0.021 0.001 0.033 0.003 0.121 0.011 0.159 0.207 0.004 0.021 0.008 0.042 0.010 0.064-0.289 0.17-0.483 0.175-0.55 0.131z"/><path fill="#f5f5f5" d="M5.434 16.069c-0.123-0.072-0.282-0.031-0.355 0.092-0.012 0.020-0.028 0.042-0.044 0.062-0.003-0.007-0.006-0.014-0.008-0.021-0.108-0.289-0.031-0.734 0.008-0.881 0.037-0.138-0.046-0.28-0.184-0.317-0.138-0.036-0.28 0.045-0.317 0.184-0.019 0.070-0.178 0.701 0.008 1.197 0.119 0.317 0.302 0.398 0.435 0.409 0.012 0.001 0.023 0.002 0.035 0.002 0.28 0 0.466-0.282 0.517-0.371 0.072-0.124 0.030-0.281-0.093-0.354z"/><path fill="#f5f5f5" d="M10.226 11.359c0.056 0 0.113-0.018 0.16-0.056l1.309-1.028c0.018-0.014 0.030-0.033 0.043-0.050 0.188-0.114 0.316-0.318 0.316-0.554 0-0.358-0.291-0.649-0.649-0.649s-0.649 0.291-0.649 0.649c0 0.2 0.093 0.377 0.236 0.497l-0.927 0.727c-0.113 0.088-0.132 0.252-0.044 0.364 0.051 0.065 0.127 0.099 0.204 0.099zM11.405 9.542c0.072 0 0.13 0.058 0.13 0.13s-0.058 0.13-0.13 0.13-0.13-0.058-0.13-0.13 0.058-0.13 0.13-0.13z"/><path fill="#f5f5f5" d="M11.098 11.113c-0.137-0.046-0.283 0.028-0.329 0.164-0.028 0.083-0.153 0.511 0.101 0.766 0.099 0.099 0.229 0.148 0.388 0.148 0.107 0 0.226-0.022 0.359-0.066 0.136-0.045 0.21-0.192 0.164-0.328s-0.192-0.21-0.329-0.164c-0.145 0.048-0.206 0.040-0.212 0.045-0.015-0.039-0.005-0.154 0.021-0.237 0.045-0.136-0.029-0.282-0.164-0.327z"/><path fill="#f5f5f5" d="M14.069 10.040c0.024 0.007 0.049 0.010 0.073 0.010 0.112 0 0.216-0.073 0.249-0.187l0.152-0.519c0.040-0.138-0.039-0.282-0.177-0.322s-0.282 0.039-0.322 0.177l-0.152 0.519c-0.040 0.138 0.039 0.282 0.177 0.322z"/><path fill="#f5f5f5" d="M12.556 10.009c0.041 0.024 0.086 0.036 0.131 0.036 0.089 0 0.176-0.046 0.224-0.129 0.072-0.124 0.031-0.283-0.093-0.355-0.052-0.030-0.045-0.116-0.043-0.133 0.008-0.068 0.048-0.151 0.119-0.173 0.137-0.043 0.213-0.188 0.171-0.325s-0.188-0.213-0.325-0.171c-0.259 0.081-0.447 0.32-0.481 0.61-0.031 0.27 0.083 0.515 0.297 0.641z"/><path fill="#f5f5f5" d="M10.496 14.215c-0.143 0-0.26 0.116-0.26 0.26 0 0.127 0.091 0.232 0.211 0.255 0.014 0.020 0.049 0.089 0.049 0.264 0 0.143 0.116 0.26 0.26 0.26s0.26-0.116 0.26-0.26c0-0.77-0.498-0.779-0.519-0.779z"/><path fill="#f5f5f5" d="M14.901 13.14c0.033 0.005 0.065 0.008 0.098 0.008 0.204 0 0.41-0.103 0.614-0.307 0.101-0.101 0.101-0.266 0-0.367s-0.266-0.101-0.367 0c-0.155 0.155-0.239 0.159-0.26 0.154-0.050-0.007-0.094-0.072-0.104-0.089-0.065-0.126-0.22-0.177-0.347-0.113-0.128 0.064-0.18 0.22-0.116 0.348 0.016 0.032 0.166 0.315 0.483 0.367z"/><path fill="#f5f5f5" d="M19.314 11.315c-0.002-0.004-0.003-0.008-0.004-0.011-0.046-0.135-0.193-0.208-0.328-0.162-0.136 0.045-0.21 0.192-0.164 0.328 0.020 0.061 0.136 0.366 0.422 0.405 0.019 0.003 0.038 0.004 0.057 0.004 0.18 0 0.349-0.116 0.502-0.347 0.079-0.119 0.047-0.28-0.072-0.36s-0.281-0.047-0.36 0.072c-0.020 0.031-0.038 0.054-0.053 0.072z"/><path fill="#f5f5f5" d="M18.805 16.033c0-1.107-0.049-2.146-0.116-3.056 0.369 0.639 0.7 1.286 0.912 1.849 0.039 0.104 0.138 0.168 0.243 0.168 0.030 0 0.061-0.005 0.091-0.017 0.134-0.050 0.202-0.2 0.152-0.334-0.329-0.876-0.919-1.92-1.502-2.846-0.142-1.399-0.301-2.286-0.304-2.302-0.026-0.141-0.16-0.237-0.302-0.209-0.141 0.026-0.235 0.161-0.209 0.302 0.002 0.011 0.084 0.469 0.182 1.238-0.199-0.296-0.385-0.563-0.54-0.783l0.013 0.004c0.137 0.046 0.283-0.028 0.328-0.164s-0.028-0.283-0.164-0.328l-0.779-0.26c-0.108-0.037-0.227 0.002-0.293 0.094-0.018 0.025-0.030 0.052-0.038 0.080-0.155-0.115-0.355-0.208-0.542-0.13-0.113 0.047-0.248 0.165-0.248 0.462 0 0.228 0.087 0.474 0.179 0.736 0.153 0.433 0.249 0.752 0.087 0.903-0.089 0.084-0.179 0.116-0.266 0.094-0.16-0.041-0.319-0.254-0.424-0.57-0.005-0.014-0.014-0.024-0.021-0.036 0.055-0.402 0.031-0.887-0.079-1.437-0.028-0.141-0.164-0.232-0.306-0.204s-0.232 0.165-0.204 0.306c0.169 0.848 0.119 1.54-0.136 1.85-0.098 0.12-0.222 0.176-0.388 0.176-0.053 0-0.088-0.017-0.124-0.058-0.205-0.236-0.204-0.998-0.138-1.463 0.011-0.074-0.012-0.15-0.061-0.207s-0.121-0.089-0.196-0.089c-0.447 0-0.616 0.508-0.766 0.956-0.066 0.197-0.188 0.563-0.273 0.601-0.157 0-0.259-0.461-0.26-0.779-0-0.143-0.117-0.259-0.26-0.259 0 0-0 0-0 0-0.143 0-0.259 0.116-0.259 0.259 0 0.599 0.204 1.298 0.779 1.298 0.428 0 0.602-0.467 0.747-0.9 0.025 0.345 0.103 0.702 0.294 0.923 0.134 0.155 0.313 0.237 0.517 0.237 0.321 0 0.594-0.127 0.79-0.366 0.036-0.043 0.066-0.093 0.096-0.143 0.151 0.214 0.336 0.356 0.544 0.408 0.061 0.015 0.123 0.023 0.183 0.023 0.2 0 0.396-0.083 0.565-0.242 0.035-0.033 0.060-0.069 0.087-0.105 0.064 0.018 0.128 0.029 0.192 0.029 0.21 0 0.413-0.085 0.538-0.165 0.12-0.077 0.155-0.236 0.079-0.357s-0.236-0.156-0.358-0.081c-0.002 0.001-0.176 0.101-0.294 0.077 0-0.285-0.103-0.587-0.197-0.853-0.053-0.152-0.108-0.307-0.134-0.434 0.021 0.018 0.042 0.037 0.061 0.055 0.101 0.101 0.266 0.101 0.367 0 0.017-0.017 0.026-0.037 0.038-0.057 0.269 0.371 0.823 1.15 1.392 2.048 0.109 1.104 0.204 2.512 0.204 4.057 0 0.143 0.116 0.26 0.26 0.26s0.26-0.116 0.26-0.26z"/><path fill="#f5f5f5" d="M19.064 10.32c0 0.143 0.116 0.26 0.26 0.26s0.26-0.116 0.26-0.26c0-0.306-0.239-0.799-0.287-0.895-0.064-0.128-0.22-0.18-0.348-0.116s-0.18 0.22-0.116 0.348c0.094 0.187 0.232 0.527 0.232 0.663z"/><path fill="#f5f5f5" d="M17.883 16.061c-0.127-0.065-0.284-0.013-0.349 0.114-0.028 0.055-0.071 0.115-0.108 0.154-0.012-0.103 0.016-0.309 0.068-0.48 0.035-0.114-0.012-0.237-0.115-0.299s-0.233-0.046-0.317 0.039l-0.519 0.519c-0.101 0.101-0.101 0.266 0 0.367s0.266 0.101 0.367 0l0.013-0.013c0.022 0.104 0.065 0.199 0.139 0.273 0.097 0.097 0.215 0.149 0.337 0.149 0.024 0 0.048-0.002 0.071-0.006 0.294-0.048 0.477-0.372 0.526-0.47 0.064-0.128 0.012-0.283-0.115-0.347z"/><path fill="#f5f5f5" d="M17.782 13.972h-1.83c0.016-0.065 0.033-0.126 0.050-0.185 0.73-0.152 1.163-0.387 1.291-0.702 0.044-0.109 0.090-0.329-0.098-0.583-0.169-0.228-0.408-0.331-0.656-0.28-0.369 0.075-0.698 0.472-0.934 1.109-0.733 0.126-1.202 0.389-1.499 0.648-0.105-1.064-0.518-1.696-0.538-1.726-0.080-0.119-0.241-0.152-0.36-0.072s-0.152 0.241-0.072 0.36c0.005 0.007 0.476 0.727 0.476 1.933 0 1.185-0.945 2.077-1.558 2.077-0.292 0-0.419-0.347-0.475-0.639 0.6-0.421 1.13-0.907 1.246-1.375 0.158-0.633-0.041-1.099-0.173-1.408-0.006-0.014-0.013-0.029-0.019-0.045 0.006 0.005 0.011 0.010 0.016 0.015 0.101 0.101 0.266 0.101 0.367 0s0.101-0.266 0-0.367c-0.152-0.152-0.447-0.39-0.714-0.278-0.113 0.047-0.248 0.165-0.248 0.462 0 0.134 0.056 0.265 0.121 0.417 0.117 0.274 0.262 0.614 0.146 1.078-0.069 0.274-0.405 0.607-0.85 0.937-0.048-0.057-0.117-0.095-0.196-0.095h-0c-0.143 0-0.259 0.116-0.259 0.259 0 0.047 0.002 0.097 0.005 0.148-0.556 0.36-1.184 0.693-1.67 0.914-0.13 0.059-0.188 0.213-0.129 0.344 0.043 0.096 0.138 0.152 0.236 0.152 0.036 0 0.072-0.007 0.107-0.023 0.146-0.066 0.839-0.389 1.551-0.83 0.131 0.445 0.409 0.854 0.938 0.854 0.623 0 1.329-0.509 1.737-1.27 0.049 0.087 0.106 0.17 0.173 0.248 0.654 0.754 1.93 0.762 1.984 0.762 0.14 0 0.254-0.111 0.26-0.25s-0.102-0.258-0.241-0.268c-0.002-0-0.209-0.023-0.324-0.157-0.069-0.081-0.097-0.193-0.085-0.341 0.027-0.32 1.059-0.559 1.968-0.573 0.108-0.002 0.204-0.070 0.241-0.173l0.26-0.73c0.028-0.079 0.016-0.168-0.033-0.237s-0.128-0.11-0.212-0.11zM16.642 12.732c0.005-0.001 0.012-0.003 0.020-0.003 0.025 0 0.064 0.012 0.116 0.083 0.010 0.013 0.041 0.058 0.034 0.078-0.030 0.073-0.209 0.195-0.583 0.305 0.164-0.321 0.325-0.446 0.413-0.463zM15.075 16.145c-0.264-0.086-0.533-0.222-0.719-0.437-0.204-0.237-0.28-0.536-0.23-0.914 0.008-0.020 0.024-0.059 0.054-0.11 0.366-0.034 1.342 0.111 1.41 0.39-0.301 0.154-0.523 0.37-0.549 0.677-0.013 0.154 0.003 0.285 0.034 0.393z"/><path fill="#f5f5f5" d="M20.609 10.238l-0.26-0.779c-0.042-0.125-0.172-0.2-0.301-0.172s-0.217 0.148-0.204 0.28c0.179 1.792 0.518 5.286 0.518 5.686 0 0.36-0.64 1.068-1.674 1.585-0.128 0.064-0.18 0.22-0.116 0.348 0.046 0.091 0.137 0.143 0.233 0.143 0.039 0 0.079-0.009 0.116-0.027 0.945-0.472 1.961-1.315 1.961-2.050 0-0.384-0.265-3.144-0.417-4.694 0.123-0.053 0.188-0.192 0.144-0.321z"/><path fill="#f5f5f5" d="M22.775 12.581c0.050 0.050 0.116 0.076 0.184 0.076 0.044 0 0.088-0.011 0.128-0.034 0.102-0.058 0.152-0.177 0.123-0.29-0.047-0.183-0.062-0.411-0.037-0.504 0.13 0.004 0.251-0.088 0.27-0.223 0.020-0.142-0.078-0.274-0.22-0.294-0.172-0.023-0.322 0.027-0.428 0.144-0.068 0.076-0.109 0.174-0.131 0.279l-0.301-0.301c-0.101-0.101-0.266-0.101-0.367 0s-0.101 0.266 0 0.367l0.779 0.779z"/><path fill="#f5f5f5" d="M23.359 12.852l-0.974 0.698c-0.116 0.083-0.143 0.246-0.060 0.362 0.051 0.071 0.13 0.108 0.211 0.108 0.052 0 0.105-0.016 0.151-0.049l0.974-0.698c0.116-0.083 0.143-0.246 0.060-0.362s-0.246-0.144-0.362-0.060z"/><path fill="#f5f5f5" d="M23.273 13.828c-0.082 0.105-0.070 0.253 0.023 0.344 0.011 0.019 0.062 0.118 0.053 0.374-0.005 0.143 0.107 0.264 0.25 0.269 0.003 0 0.006 0 0.009 0 0.139 0 0.254-0.11 0.259-0.25 0.019-0.53-0.155-0.724-0.23-0.782-0.113-0.088-0.276-0.068-0.364 0.045z"/><path fill="#f5f5f5" d="M25.539 15.741c0.143 0 0.26-0.116 0.26-0.26 0-0.383-0.020-0.811-0.052-1.256 0.257 0.422 0.471 0.811 0.608 1.131 0.042 0.099 0.138 0.157 0.239 0.157 0.034 0 0.069-0.007 0.102-0.021 0.132-0.057 0.193-0.209 0.136-0.341-0.238-0.555-0.682-1.29-1.188-2.048-0.102-0.953-0.235-1.887-0.338-2.557 0.055 0.006 0.112-0.008 0.162-0.040 0.082-0.053 0.12-0.144 0.115-0.235 0.007 0.025 0.014 0.051 0.029 0.075 0.002 0.003 0.169 0.278 0.095 0.636-0.029 0.14 0.061 0.278 0.202 0.307 0.018 0.004 0.035 0.005 0.053 0.005 0.121 0 0.229-0.084 0.254-0.207 0.117-0.567-0.154-1.001-0.165-1.020-0.077-0.121-0.238-0.156-0.358-0.080-0.082 0.053-0.121 0.144-0.116 0.235-0.007-0.026-0.014-0.052-0.029-0.075l-0.438-0.682c-0.067-0.104-0.198-0.146-0.313-0.101s-0.183 0.165-0.161 0.287c0.004 0.020 0.202 1.16 0.378 2.533-0.199-0.281-0.398-0.556-0.591-0.818-0.031-0.393-0.063-0.756-0.090-1.056 0.014-0.004 0.028-0.010 0.042-0.017 0.128-0.064 0.18-0.22 0.116-0.348l-0.26-0.519c-0.056-0.112-0.184-0.168-0.304-0.133s-0.199 0.151-0.186 0.275c0.031 0.31 0.063 0.653 0.095 1.013-0.164-0.216-0.316-0.415-0.446-0.582 0.025-0.022 0.047-0.049 0.063-0.081 0.064-0.128 0.012-0.284-0.116-0.348l-0.519-0.26c-0.109-0.054-0.241-0.026-0.318 0.069s-0.077 0.23-0.001 0.326c0.014 0.017 0.653 0.819 1.418 1.853 0.133 1.716 0.221 3.5 0.096 3.874-0.023 0.068-0.063 0.149-0.1 0.152-0.157 0.022-0.531-0.329-0.72-0.705-0.108-0.217-0.264-0.239-0.348-0.235-0.279 0.017-0.388 0.324-0.586 0.882-0.142 0.399-0.318 0.896-0.516 1.099-0.107-0.131-0.246-0.571-0.323-1.022 0.036 0.1 0.13 0.172 0.242 0.172 0.143 0 0.26-0.116 0.26-0.26 0-0.387-0.271-3.336-0.422-4.952 0.126-0.051 0.193-0.192 0.149-0.323l-0.26-0.779c-0.042-0.125-0.17-0.199-0.3-0.172s-0.217 0.147-0.205 0.279c0.176 1.852 0.507 5.43 0.518 5.924-0.001-0.004-0.002-0.009-0.002-0.013-0.020-0.142-0.153-0.239-0.294-0.22-0.142 0.021-0.241 0.152-0.22 0.294 0.076 0.531 0.27 1.443 0.716 1.592 0.035 0.012 0.083 0.023 0.138 0.023 0.102 0 0.232-0.036 0.365-0.169 0.283-0.283 0.474-0.822 0.643-1.297 0.038-0.107 0.083-0.235 0.126-0.344 0.238 0.348 0.654 0.781 1.075 0.747 0.148-0.011 0.417-0.090 0.556-0.506 0.138-0.414 0.084-1.859-0.010-3.242 0.219 0.307 0.438 0.62 0.647 0.931 0.081 0.777 0.139 1.556 0.139 2.196 0 0.143 0.116 0.259 0.26 0.259z"/><path fill="#f5f5f5" d="M27.509 14.375c-0.184-1.37-0.44-2.957-0.602-3.932 0.073 0.018 0.153 0.003 0.218-0.046 0.114-0.087 0.136-0.25 0.049-0.364l-0.471-0.617c-0.073-0.095-0.201-0.128-0.31-0.080s-0.172 0.165-0.152 0.282c0.005 0.027 0.468 2.692 0.754 4.825 0.109 0.815-0.050 1.544-0.427 1.948-0.242 0.26-0.564 0.378-0.952 0.355-0.143-0.008-0.267 0.1-0.276 0.243s0.1 0.266 0.243 0.275c0.044 0.003 0.087 0.004 0.13 0.004 0.49 0 0.915-0.18 1.235-0.523 0.489-0.525 0.694-1.389 0.563-2.371z"/><path fill="#f5f5f5" d="M24.653 16.086c-0.095 0.104-0.088 0.267 0.013 0.365 0.014 0.014 0.031 0.041 0.031 0.054 0 0.007-0.010 0.029-0.039 0.058-0.101 0.101-0.101 0.266 0 0.367 0.051 0.051 0.117 0.076 0.184 0.076s0.133-0.025 0.184-0.076c0.165-0.165 0.195-0.332 0.191-0.443-0.008-0.24-0.171-0.394-0.204-0.423-0.106-0.092-0.264-0.081-0.359 0.022z"/><path fill="#f5f5f5" d="M23.738 21.78h-1.817v-0.26c0-0.143-0.116-0.26-0.26-0.26s-0.26 0.116-0.26 0.26v0.26h-13.761c0.519 0.519 1.558 0.779 2.337 0.779 0.559 0 7.527 0 11.424 0v0.519c0 0.143 0.116 0.26 0.26 0.26h2.077c0.43 0 0.779-0.349 0.779-0.779s-0.349-0.779-0.779-0.779zM23.738 22.819h-1.817v-0.26c1.251 0 2.077 0 2.077 0l-0.047-0.14c0.027 0.041 0.047 0.087 0.047 0.14 0 0.143-0.116 0.26-0.26 0.26z"/></svg>