<!-- Generated by IcoMoon.io -->
<svg version="1.1" xmlns="http://www.w3.org/2000/svg" width="32" height="32" viewBox="0 0 32 32">
<title>serbia</title>
<path fill="#f5f5f5" d="M0 21.337h32v10.663h-32v-10.663z"></path>
<path fill="#ff4b55" d="M0 0h32v10.663h-32v-10.663z"></path>
<path fill="#41479b" d="M0 10.663h32v10.674h-32v-10.674z"></path>
<path fill="#ffe15a" d="M13.902 10.661h-6.067l-0.253-1.517h6.573z"></path>
<path fill="#ffd350" d="M7.772 10.282l0.063 0.379h6.067l0.063-0.379z"></path>
<path fill="#ffe15a" d="M10.742 5.605h0.253v1.011h-0.253v-1.011z"></path>
<path fill="#ffe15a" d="M10.489 5.857h0.758v0.253h-0.758v-0.253z"></path>
<path fill="#ffe15a" d="M13.922 9.65c-0.029 0-0.058-0.005-0.086-0.015-0.131-0.048-0.199-0.193-0.151-0.324l0.536-1.478c0.027-0.073 0.020-0.154-0.017-0.221-0.020-0.036-0.066-0.099-0.155-0.118-0.653-0.139-1.918-0.372-3.057-0.372h-0.244c-1.139 0-2.404 0.233-3.057 0.372-0.088 0.019-0.135 0.082-0.155 0.117-0.037 0.067-0.044 0.148-0.017 0.221l0.535 1.478c0.048 0.131-0.020 0.276-0.151 0.324s-0.276-0.021-0.324-0.152l-0.535-1.478c-0.076-0.211-0.058-0.444 0.050-0.639 0.105-0.189 0.284-0.323 0.492-0.367 0.673-0.143 1.978-0.383 3.163-0.383h0.244c1.185 0 2.49 0.24 3.162 0.383 0.208 0.044 0.387 0.178 0.492 0.367 0.108 0.195 0.127 0.428 0.050 0.639l-0.536 1.478c-0.037 0.103-0.134 0.167-0.238 0.167z"></path>
<path fill="#ffe15a" d="M10.87 9.428c-0.14 0-0.253-0.113-0.253-0.253v-2.054c0-0.14 0.113-0.253 0.253-0.253s0.253 0.113 0.253 0.253v2.054c0 0.14-0.113 0.253-0.253 0.253z"></path>
<path fill="#ffe15a" d="M12.617 9.65c-0.017 0-0.034-0.002-0.052-0.005-0.137-0.028-0.225-0.162-0.196-0.299l0.307-1.478c0.040-0.193-0.023-0.361-0.058-0.391-0.351-0.129-1.054-0.355-1.68-0.355h-0.14c-0.626 0-1.329 0.227-1.692 0.362-0.022 0.023-0.085 0.192-0.045 0.384l0.307 1.478c0.028 0.137-0.059 0.271-0.196 0.299-0.137 0.026-0.271-0.059-0.299-0.196l-0.307-1.478c-0.076-0.368 0.041-0.84 0.364-0.961 0.483-0.18 1.199-0.394 1.869-0.394h0.14c0.669 0 1.386 0.214 1.869 0.394 0.323 0.121 0.44 0.593 0.364 0.961l-0.307 1.478c-0.025 0.12-0.13 0.201-0.247 0.201z"></path>
<path fill="#ffd350" d="M7.645 9.523h6.446l0.063-0.379h-6.573z"></path>
<path fill="#ff4b55" d="M6.065 10.661c-0.14 0-0.253 0.113-0.253 0.253v8.829c0 2.803 2.264 5.075 5.056 5.075s5.056-2.272 5.056-5.075v-8.829c0-0.14-0.113-0.253-0.253-0.253h-9.607z"></path>
<path fill="#f5f5f5" d="M11.374 19.003l0.506-1.264-1.011 0.253-1.011-0.253 0.506 1.264-1.264 4.298c0 0 0.758 0.506 1.77 0.506s1.77-0.506 1.77-0.506l-1.264-4.298z"></path>
<path fill="#ffe15a" d="M9.038 20.022l-0.446 0.111 0.981-1.766-0.442-0.245-1.192 2.145h-1.115v0.506h0.543l-0.701 0.561 0.316 0.395 0.596-0.476-0.235 0.705 0.48 0.16 0.462-1.385 0.877-0.219z"></path>
<path fill="#f5f5f5" d="M9.099 13.189l-1.154-0.577c-0.212-0.106-0.322-0.345-0.264-0.575l0.065-0.261c0.045-0.181-0.092-0.357-0.279-0.357-0.087 0-0.17 0.040-0.224 0.108-0.599 0.748-0.925 1.678-0.925 2.637v5.345c0 0 1.056-0.211 2.009-1.598 0.175-0.255 0.463-0.405 0.771-0.421l-0.505 1.514 1.011 0.253 0.885-1.053-1.39-5.014z"></path>
<path fill="#ffe15a" d="M12.7 20.022l0.446 0.111-0.981-1.766 0.442-0.245 1.192 2.145h1.115v0.506h-0.543l0.701 0.561-0.316 0.395-0.596-0.476 0.235 0.705-0.48 0.16-0.462-1.385-0.877-0.219z"></path>
<path fill="#f5f5f5" d="M12.638 13.189l1.154-0.577c0.212-0.106 0.322-0.345 0.264-0.575l-0.065-0.261c-0.045-0.181 0.092-0.357 0.278-0.357 0.087 0 0.17 0.040 0.224 0.108 0.599 0.748 0.925 1.678 0.925 2.637v5.345c0 0-1.056-0.211-2.009-1.598-0.175-0.255-0.463-0.405-0.771-0.421l0.505 1.514-1.011 0.253-0.885-1.053 1.39-5.014z"></path>
<path fill="#ffe15a" d="M9.352 11.419h-1.264l0.379 0.506 0.885 0.253-0.506 0.253h0.758z"></path>
<path fill="#ffe15a" d="M12.385 11.419h1.264l-0.379 0.506-0.885 0.253 0.506 0.253h-0.758z"></path>
<path fill="#f5f5f5" d="M12.563 11.221l-1.189 0.198-0.506 1.011-0.506-1.011-1.189-0.198c-0.136-0.023-0.241 0.119-0.179 0.242l0.61 1.22-0.506 0.506h3.539l-0.506-0.506 0.61-1.22c0.062-0.124-0.043-0.265-0.179-0.242z"></path>
<path fill="#ffbe50" d="M11.248 9.254c0 0.209-0.17 0.379-0.379 0.379s-0.379-0.17-0.379-0.379c0-0.209 0.17-0.379 0.379-0.379s0.379 0.17 0.379 0.379z"></path>
<path fill="#41479b" d="M11.163 10.161c0 0.116-0.134 0.211-0.3 0.211s-0.3-0.094-0.3-0.211c0-0.116 0.134-0.211 0.3-0.211s0.3 0.094 0.3 0.211z"></path>
<path fill="#ff4b55" d="M9.667 10.161c0 0.116-0.134 0.211-0.3 0.211s-0.3-0.094-0.3-0.211c0-0.116 0.134-0.211 0.3-0.211s0.3 0.094 0.3 0.211z"></path>
<path fill="#41479b" d="M8.172 10.161c0 0.116-0.134 0.211-0.3 0.211s-0.3-0.094-0.3-0.211c0-0.116 0.134-0.211 0.3-0.211s0.3 0.094 0.3 0.211z"></path>
<path fill="#41479b" d="M14.155 10.161c0 0.116-0.134 0.211-0.3 0.211s-0.3-0.094-0.3-0.211c0-0.116 0.134-0.211 0.3-0.211s0.3 0.094 0.3 0.211z"></path>
<path fill="#ff4b55" d="M12.658 10.161c0 0.116-0.134 0.211-0.3 0.211s-0.3-0.094-0.3-0.211c0-0.116 0.134-0.211 0.3-0.211s0.3 0.094 0.3 0.211z"></path>
<path fill="#ffbe50" d="M13.004 9.254c0 0.209-0.17 0.379-0.379 0.379s-0.379-0.17-0.379-0.379c0-0.209 0.17-0.379 0.379-0.379s0.379 0.17 0.379 0.379z"></path>
<path fill="#ffbe50" d="M14.391 9.254c0 0.209-0.17 0.379-0.379 0.379s-0.379-0.17-0.379-0.379c0-0.209 0.17-0.379 0.379-0.379s0.379 0.17 0.379 0.379z"></path>
<path fill="#ffbe50" d="M9.492 9.254c0 0.209-0.17 0.379-0.379 0.379s-0.379-0.17-0.379-0.379c0-0.209 0.17-0.379 0.379-0.379s0.379 0.17 0.379 0.379z"></path>
<path fill="#ffbe50" d="M8.105 9.254c0 0.209-0.17 0.379-0.379 0.379s-0.379-0.17-0.379-0.379c0-0.209 0.17-0.379 0.379-0.379s0.379 0.17 0.379 0.379z"></path>
<path fill="#41479b" d="M11.304 7.122c0.043-0.075 0.070-0.16 0.070-0.253 0-0.279-0.226-0.506-0.506-0.506s-0.506 0.226-0.506 0.506c0 0.093 0.027 0.178 0.070 0.253 0 0 0.871 0 0.871 0z"></path>
<path fill="#ff4b55" d="M10.869 18.371c-1.046 0-1.896-0.851-1.896-1.896v-3.413h3.792v3.413c0 1.046-0.851 1.896-1.896 1.896z"></path>
<path fill="#a54b50" d="M12.638 13.189v3.286c0 0.977-0.792 1.77-1.77 1.77s-1.77-0.792-1.77-1.77v-3.286h3.539zM12.891 12.936h-4.045v3.539c0 1.115 0.907 2.022 2.022 2.022s2.022-0.907 2.022-2.022v-3.539z"></path>
<path fill="#f5f5f5" d="M10.489 18.203c0.122 0.027 0.249 0.042 0.379 0.042s0.257-0.015 0.379-0.042v-5.014h-0.758v5.014z"></path>
<path fill="#f5f5f5" d="M9.099 15.274h3.539v0.758h-3.539v-0.758z"></path>
</svg>
