<!-- Generated by IcoMoon.io -->
<svg version="1.1" xmlns="http://www.w3.org/2000/svg" width="32" height="32" viewBox="0 0 32 32">
<title>singapore</title>
<path fill="#ff4b55" d="M0 0.031h32v16h-32v-16z"></path>
<path fill="#f5f5f5" d="M0 16.031h32v15.938h-32v-15.938z"></path>
<path fill="#f5f5f5" d="M5.411 7.605c0-2.711 1.99-4.959 4.587-5.375 0.141-0.023 0.147-0.217 0.008-0.249-0.643-0.148-1.326-0.19-2.036-0.093-2.802 0.382-4.968 2.806-5.007 5.634-0.045 3.229 2.558 5.858 5.771 5.858 0.437 0 0.862-0.051 1.271-0.145 0.139-0.032 0.132-0.226-0.009-0.249-2.597-0.416-4.586-2.659-4.586-5.381z"></path>
<path fill="#f5f5f5" d="M10.041 9.056l-0.244 0.732-0.771 0.006c-0.1 0.001-0.141 0.128-0.061 0.188l0.621 0.458-0.233 0.736c-0.030 0.095 0.078 0.174 0.16 0.116l0.628-0.449 0.628 0.449c0.081 0.058 0.19-0.021 0.16-0.116l-0.233-0.736 0.621-0.458c0.080-0.059 0.039-0.187-0.061-0.188l-0.771-0.006-0.244-0.732c-0.032-0.095-0.166-0.095-0.197 0z"></path>
<path fill="#f5f5f5" d="M13.855 9.056l-0.244 0.732-0.771 0.006c-0.1 0.001-0.141 0.128-0.061 0.188l0.621 0.458-0.233 0.736c-0.030 0.095 0.078 0.174 0.16 0.116l0.628-0.449 0.628 0.449c0.081 0.058 0.19-0.021 0.16-0.116l-0.233-0.736 0.621-0.458c0.080-0.059 0.039-0.187-0.061-0.188l-0.771-0.006-0.244-0.732c-0.031-0.095-0.165-0.095-0.197 0z"></path>
<path fill="#f5f5f5" d="M11.965 3.171l-0.244 0.732-0.771 0.006c-0.1 0.001-0.141 0.128-0.061 0.188l0.621 0.458-0.233 0.736c-0.030 0.095 0.078 0.174 0.16 0.116l0.628-0.449 0.628 0.449c0.081 0.058 0.19-0.021 0.16-0.116l-0.233-0.736 0.621-0.458c0.080-0.059 0.039-0.187-0.061-0.188l-0.771-0.006-0.244-0.732c-0.031-0.095-0.166-0.095-0.197 0z"></path>
<path fill="#f5f5f5" d="M8.925 5.426l-0.244 0.732-0.771 0.006c-0.1 0.001-0.141 0.128-0.061 0.188l0.621 0.458-0.233 0.736c-0.030 0.095 0.078 0.174 0.16 0.116l0.628-0.449 0.628 0.449c0.081 0.058 0.19-0.021 0.16-0.116l-0.233-0.736 0.621-0.458c0.080-0.059 0.039-0.187-0.061-0.188l-0.771-0.006-0.244-0.732c-0.031-0.095-0.165-0.095-0.197 0z"></path>
<path fill="#f5f5f5" d="M14.98 5.426l-0.244 0.732-0.771 0.006c-0.1 0.001-0.141 0.128-0.061 0.188l0.621 0.458-0.233 0.736c-0.030 0.095 0.078 0.174 0.16 0.116l0.628-0.449 0.628 0.449c0.081 0.058 0.19-0.021 0.16-0.116l-0.233-0.736 0.621-0.458c0.080-0.059 0.039-0.187-0.061-0.188l-0.771-0.006-0.244-0.732c-0.032-0.095-0.166-0.095-0.197 0z"></path>
</svg>
