<svg xmlns="http://www.w3.org/2000/svg" width="32" height="32" version="1.1" viewBox="0 0 32 32"><title>slovenia</title><path fill="#f5f5f5" d="M0 0h32v10.667h-32v-10.667z"/><path fill="#ff4b55" d="M0 21.333h32v10.667h-32v-10.667z"/><path fill="#41479b" d="M0 10.667h32v10.667h-32v-10.667z"/><path fill="#41479b" d="M13.238 6.591c0 0-0.17 5.402-0.928 6.919-0.938 1.864-1.882 2.408-3.285 2.911-1.403-0.502-2.347-1.046-3.285-2.911-0.758-1.517-0.928-6.918-0.928-6.919 2.678-1.209 5.747-1.209 8.426 0z"/><path fill="#f5f5f5" d="M10.245 14.082c-0.103-0.066-0.177-0.113-0.345-0.113s-0.242 0.047-0.344 0.113c-0.117 0.075-0.263 0.168-0.533 0.168s-0.416-0.093-0.533-0.168c-0.102-0.065-0.176-0.112-0.344-0.112s-0.242 0.047-0.344 0.112c-0.111 0.071-0.25 0.155-0.493 0.165 0.511 0.624 1.048 0.92 1.717 1.177 0.669-0.257 1.205-0.553 1.717-1.176-0.245-0.009-0.385-0.094-0.496-0.165z"/><path fill="#f5f5f5" d="M6.925 13.085c0.102 0.065 0.176 0.112 0.343 0.112s0.242-0.047 0.344-0.112c0.117-0.075 0.263-0.168 0.533-0.168s0.416 0.093 0.533 0.168c0.102 0.066 0.176 0.113 0.344 0.113s0.242-0.047 0.344-0.112c0.117-0.075 0.263-0.168 0.533-0.168s0.417 0.093 0.534 0.168c0.103 0.066 0.176 0.113 0.345 0.113s0.242-0.047 0.345-0.113c0.098-0.062 0.22-0.134 0.415-0.158 0.051-0.133 0.1-0.284 0.147-0.467l-1.256-2.094-0.468 0.936-0.936-1.872-0.936 1.872-0.468-0.936-1.256 2.093c0.046 0.184 0.095 0.335 0.146 0.469 0.194 0.023 0.316 0.095 0.413 0.158z"/><path fill="#f5f5f5" d="M11.313 13.38c-0.117 0.075-0.263 0.168-0.534 0.168s-0.417-0.093-0.534-0.168c-0.103-0.066-0.177-0.113-0.345-0.113s-0.242 0.047-0.344 0.113c-0.117 0.075-0.263 0.168-0.533 0.168s-0.416-0.093-0.533-0.168c-0.102-0.065-0.176-0.112-0.344-0.112s-0.242 0.047-0.344 0.112c-0.117 0.075-0.263 0.168-0.533 0.168s-0.416-0.093-0.533-0.168c-0.001-0-0.001-0.001-0.002-0.001 0.092 0.166 0.184 0.319 0.275 0.458 0.068 0.037 0.14 0.062 0.259 0.062 0.168 0 0.242-0.047 0.344-0.112 0.117-0.075 0.263-0.168 0.533-0.168s0.416 0.093 0.533 0.168c0.102 0.066 0.176 0.113 0.344 0.113s0.242-0.047 0.344-0.112c0.117-0.075 0.263-0.168 0.533-0.168s0.417 0.093 0.534 0.168c0.103 0.066 0.176 0.113 0.345 0.113 0.121 0 0.193-0.025 0.263-0.063 0.091-0.139 0.183-0.291 0.275-0.458-0.001 0.001-0.002 0.001-0.003 0.002z"/><path fill="#ffe15a" d="M9.044 7.817l0.082 0.268 0.274-0.063c0.019-0.004 0.031 0.018 0.018 0.032l-0.191 0.205 0.191 0.205c0.013 0.014 0 0.036-0.018 0.032l-0.274-0.063-0.082 0.268c-0.006 0.018-0.031 0.018-0.037 0l-0.082-0.268-0.274 0.063c-0.019 0.004-0.031-0.018-0.018-0.032l0.191-0.205-0.191-0.205c-0.013-0.014-0-0.036 0.018-0.032l0.274 0.063 0.082-0.268c0.006-0.018 0.031-0.018 0.037 0z"/><path fill="#ffe15a" d="M7.698 6.527l0.082 0.268 0.274-0.063c0.019-0.004 0.031 0.018 0.018 0.032l-0.191 0.205 0.191 0.205c0.013 0.014 0 0.036-0.018 0.032l-0.274-0.063-0.082 0.268c-0.006 0.018-0.031 0.018-0.037 0l-0.082-0.268-0.274 0.063c-0.019 0.004-0.032-0.018-0.019-0.032l0.191-0.205-0.191-0.205c-0.013-0.014-0-0.036 0.019-0.032l0.274 0.063 0.082-0.268c0.006-0.018 0.031-0.018 0.037 0z"/><path fill="#ffe15a" d="M10.399 6.527l0.082 0.268 0.274-0.063c0.019-0.004 0.031 0.018 0.018 0.032l-0.191 0.205 0.191 0.205c0.013 0.014 0 0.036-0.018 0.032l-0.274-0.063-0.082 0.268c-0.006 0.018-0.031 0.018-0.037 0l-0.082-0.268-0.274 0.063c-0.019 0.004-0.031-0.018-0.018-0.032l0.191-0.205-0.191-0.205c-0.013-0.014-0-0.036 0.018-0.032l0.274 0.063 0.082-0.268c0.006-0.018 0.031-0.018 0.037 0z"/><path fill="#ff1722" d="M12.754 6.388c0.003 0.149 0.005 0.3 0.005 0.463-0.068 1.689-0.319 5.367-0.866 6.474-0.807 1.621-1.553 2.157-2.867 2.651-1.314-0.494-2.060-1.030-2.866-2.65-0.55-1.112-0.803-4.852-0.867-6.476 0-0.163 0.003-0.312 0.005-0.462-0.162 0.063-0.323 0.131-0.482 0.202 0.011 0.328 0.093 2.479 0.338 4.371 0.138 1.056 0.329 2.029 0.588 2.548 0.938 1.865 1.882 2.409 3.285 2.911 1.404-0.503 2.347-1.046 3.285-2.911 0.259-0.519 0.45-1.492 0.588-2.548 0.245-1.892 0.327-4.043 0.338-4.371-0.16-0.072-0.321-0.139-0.483-0.203z"/></svg>