<svg xmlns="http://www.w3.org/2000/svg" width="32" height="32" version="1.1" viewBox="0 0 32 32"><title>solomon-islands</title><path fill="#41479b" d="M0 0h32v32h-32v-32z"/><path fill="#73af00" d="M0 32h32v-31.158z"/><path fill="#ffe15a" d="M32 0h-1.51l-30.49 30.49v1.51h1.51l30.49-30.49z"/><path fill="#f5f5f5" d="M3.936 2.609l-0.383 1.149-1.212 0.009c-0.116 0.001-0.164 0.149-0.071 0.218l0.975 0.72-0.365 1.155c-0.035 0.111 0.091 0.202 0.186 0.135l0.986-0.705 0.986 0.705c0.095 0.068 0.221-0.024 0.186-0.135l-0.365-1.155 0.975-0.72c0.093-0.069 0.045-0.217-0.071-0.218l-1.212-0.009-0.383-1.149c-0.037-0.11-0.193-0.11-0.23 0z"/><path fill="#f5f5f5" d="M13.166 2.609l-0.383 1.149-1.212 0.009c-0.116 0.001-0.164 0.149-0.071 0.218l0.975 0.72-0.365 1.155c-0.035 0.111 0.091 0.202 0.186 0.135l0.986-0.705 0.986 0.705c0.095 0.068 0.221-0.024 0.186-0.135l-0.366-1.155 0.975-0.72c0.093-0.069 0.045-0.217-0.071-0.218l-1.212-0.009-0.383-1.149c-0.037-0.11-0.193-0.11-0.23 0z"/><path fill="#f5f5f5" d="M8.551 6.721l-0.383 1.149-1.212 0.009c-0.116 0.001-0.164 0.149-0.071 0.218l0.975 0.72-0.365 1.155c-0.035 0.111 0.091 0.202 0.186 0.135l0.986-0.705 0.986 0.705c0.095 0.068 0.221-0.024 0.186-0.135l-0.366-1.155 0.975-0.72c0.093-0.069 0.045-0.217-0.071-0.218l-1.212-0.009-0.383-1.149c-0.037-0.11-0.193-0.11-0.23 0z"/><path fill="#f5f5f5" d="M3.936 10.834l-0.383 1.149-1.212 0.009c-0.116 0.001-0.164 0.149-0.071 0.218l0.975 0.72-0.365 1.155c-0.035 0.111 0.091 0.202 0.186 0.135l0.986-0.705 0.986 0.705c0.095 0.068 0.221-0.024 0.186-0.135l-0.365-1.155 0.975-0.72c0.093-0.069 0.045-0.217-0.071-0.218l-1.212-0.009-0.383-1.149c-0.037-0.11-0.193-0.11-0.23 0z"/><path fill="#f5f5f5" d="M13.166 10.834l-0.383 1.149-1.212 0.009c-0.116 0.001-0.164 0.149-0.071 0.218l0.975 0.72-0.365 1.155c-0.035 0.111 0.091 0.202 0.186 0.135l0.986-0.705 0.986 0.705c0.095 0.068 0.221-0.024 0.186-0.135l-0.366-1.155 0.975-0.72c0.093-0.069 0.045-0.217-0.071-0.218l-1.212-0.009-0.383-1.149c-0.037-0.11-0.193-0.11-0.23 0z"/></svg>