<svg xmlns="http://www.w3.org/2000/svg" width="32" height="32" version="1.1" viewBox="0 0 32 32"><title>south-africa</title><path fill="#464655" d="M0 9.041v13.919l8.791-6.96z"/><path fill="#ff4b55" d="M32 10.947v-10.947h-27.139l13.828 10.947z"/><path fill="#41479b" d="M18.689 21.053l-13.828 10.947h27.14v-10.947z"/><path fill="#73af00" d="M32 19.368v-6.737h-13.897l-15.956-12.632h-2.147v6.893l11.504 9.107-11.504 9.108v6.892h2.147l15.956-12.632z"/><path fill="#f5f5f5" d="M32 12.632v-1.684h-13.311l-13.828-10.947h-2.713l15.956 12.632z"/><path fill="#ffe15a" d="M0 6.893v2.148l8.791 6.959-8.791 6.96v2.148l11.504-9.108z"/><path fill="#f5f5f5" d="M32 21.053v-1.684h-13.897l-15.956 12.632h2.713l13.828-10.947z"/></svg>