<svg xmlns="http://www.w3.org/2000/svg" width="32" height="32" version="1.1" viewBox="0 0 32 32"><title>south-sudan</title><path fill="#464655" d="M0 0h32v10.667h-32v-10.667z"/><path fill="#73af00" d="M0 21.333h32v10.667h-32v-10.667z"/><path fill="#ff4b55" d="M0 10.667h32v10.667h-32v-10.667z"/><path fill="#f5f5f5" d="M5.962 14.573l0.328 0.711 0.761-0.187c0.048-0.012 0.087 0.038 0.065 0.081l-0.352 0.7 0.62 0.478c0.039 0.030 0.025 0.091-0.023 0.101l-0.766 0.161 0.013 0.783c0.001 0.049-0.056 0.076-0.094 0.045l-0.604-0.499-0.604 0.499c-0.038 0.031-0.095 0.004-0.094-0.045l0.013-0.783-0.766-0.161c-0.048-0.010-0.062-0.072-0.023-0.101l0.62-0.478-0.352-0.7c-0.022-0.044 0.017-0.093 0.065-0.081l0.761 0.187 0.328-0.711c0.020-0.044 0.083-0.044 0.104 0z"/><path fill="#f5f5f5" d="M0 10.105h32v1.432h-32v-1.432z"/><path fill="#f5f5f5" d="M0 20.463h32v1.432h-32v-1.432z"/><path fill="#41479b" d="M0 32l15.27-15.564c0.218-0.223 0.218-0.65 0-0.873l-15.27-15.564v32z"/><path fill="#ffe15a" d="M5.070 13.428l1.239 1.269 1.601-0.762c0.207-0.099 0.421 0.123 0.314 0.327l-0.824 1.571 1.22 1.288c0.158 0.167 0.013 0.438-0.214 0.4l-1.748-0.298-0.848 1.558c-0.11 0.202-0.413 0.148-0.446-0.080l-0.257-1.755-1.744-0.325c-0.226-0.042-0.268-0.347-0.062-0.449l1.59-0.787-0.23-1.759c-0.030-0.228 0.247-0.362 0.408-0.198z"/></svg>