<svg xmlns="http://www.w3.org/2000/svg" width="32" height="32" version="1.1" viewBox="0 0 32 32"><title>spain</title><path fill="#c8414b" d="M0.124 0h31.752v32h-31.752v-32z"/><path fill="#ffd250" d="M0.124 6.737h31.752v18.526h-31.752v-18.526z"/><path fill="#c8414b" d="M13.959 16.026l0.512-2.088c0.047-0.192-0.114-0.375-0.332-0.375h-0.361c-0.217 0-0.379 0.182-0.332 0.375l0.512 2.088z"/><path fill="#f5f5f5" d="M13.355 14.931h1.208v4.651h-1.208v-4.651z"/><path fill="#fab446" d="M13.054 14.384h1.812v0.547h-1.812v-0.547z"/><path fill="#c8414b" d="M11.846 16.026h3.019v0.547h-3.019v-0.547z"/><path fill="#c8414b" d="M14.865 18.214l-1.811-0.547v-0.547l1.811 0.547z"/><path fill="#c8414b" d="M4.902 16.026l0.512-2.088c0.047-0.192-0.114-0.375-0.332-0.375h-0.361c-0.217 0-0.379 0.182-0.332 0.375l0.512 2.088z"/><path fill="#f5f5f5" d="M7.016 14.384c-0.333 0-0.604 0.245-0.604 0.547v3.557c0 0.665 0.685 1.915 3.019 1.915s3.019-1.25 3.019-1.915v-3.557c0-0.302-0.27-0.547-0.604-0.547h-4.83z"/><path fill="#c8414b" d="M9.431 17.12h-3.019v-2.161c0-0.317 0.257-0.575 0.575-0.575h2.444v2.736h0z"/><path fill="#c8414b" d="M9.431 17.12h3.019v1.299c0 0.794-0.643 1.437-1.437 1.437h-0.145c-0.794 0-1.437-0.643-1.437-1.437l-0-1.299z"/><path fill="#fab446" d="M6.412 17.12h3.019v1.299c0 0.794-0.643 1.437-1.437 1.437h-0.145c-0.794 0-1.437-0.643-1.437-1.437-0 0-0-1.299-0-1.299z"/><path fill="#c8414b" d="M8.827 19.576v-2.456h-0.604v2.708c0.225-0.041 0.428-0.131 0.604-0.252z"/><path fill="#c8414b" d="M7.619 19.828v-2.708h-0.604v2.456c0.176 0.121 0.379 0.211 0.604 0.252z"/><path fill="#ffb441" d="M7.015 16.026h1.811v0.547h-1.812v-0.547z"/><path fill="#fab446" d="M7.015 14.931h1.811v0.547h-1.812v-0.547z"/><path fill="#fab446" d="M7.318 15.256h1.208v0.991h-1.208v-0.991z"/><path fill="#f5f5f5" d="M4.298 14.931h1.208v4.651h-1.208v-4.651z"/><path fill="#fab446" d="M3.996 19.309h1.812v0.547h-1.812v-0.547z"/><path fill="#fab446" d="M3.996 14.384h1.812v0.547h-1.812v-0.547z"/><path fill="#5064aa" d="M3.694 19.856h2.415v0.547h-2.415v-0.547z"/><path fill="#fab446" d="M13.355 19.309h1.812v0.547h-1.812v-0.547z"/><path fill="#5064aa" d="M12.752 19.856h2.415v0.547h-2.415v-0.547z"/><path fill="#fab446" d="M7.619 13.837h3.623v0.547h-3.623v-0.547z"/><path fill="#ffb441" d="M9.129 12.196h0.604v1.642h-0.604v-1.642z"/><path fill="#f5f5f5" d="M8.827 13.016c-0.499 0-0.906-0.368-0.906-0.821s0.406-0.821 0.906-0.821 0.906 0.368 0.906 0.821c-0 0.453-0.406 0.821-0.906 0.821zM8.827 11.922c-0.167 0-0.302 0.123-0.302 0.274s0.135 0.274 0.302 0.274c0.167 0 0.302-0.123 0.302-0.274s-0.135-0.274-0.302-0.274z"/><path fill="#f5f5f5" d="M10.034 13.016c-0.499 0-0.906-0.368-0.906-0.821s0.406-0.821 0.906-0.821 0.906 0.368 0.906 0.821c-0 0.453-0.406 0.821-0.906 0.821zM10.034 11.922c-0.167 0-0.302 0.123-0.302 0.274s0.135 0.274 0.302 0.274c0.167 0 0.302-0.123 0.302-0.274s-0.135-0.274-0.302-0.274z"/><path fill="#f5f5f5" d="M11.242 13.563c-0.499 0-0.906-0.368-0.906-0.821s0.406-0.821 0.906-0.821 0.906 0.368 0.906 0.821-0.406 0.821-0.906 0.821zM11.242 12.469c-0.167 0-0.302 0.123-0.302 0.274s0.135 0.274 0.302 0.274c0.167 0 0.302-0.123 0.302-0.274s-0.135-0.274-0.302-0.274z"/><path fill="#f5f5f5" d="M7.619 13.563c-0.499 0-0.906-0.368-0.906-0.821s0.406-0.821 0.906-0.821 0.906 0.368 0.906 0.821c-0 0.453-0.406 0.821-0.906 0.821zM7.619 12.469c-0.167 0-0.302 0.123-0.302 0.274s0.135 0.274 0.302 0.274 0.302-0.123 0.302-0.274c0-0.151-0.135-0.274-0.302-0.274z"/><path fill="#fab446" d="M11.242 18.214v0.274c0 0.151-0.135 0.274-0.302 0.274s-0.302-0.123-0.302-0.274v-0.274h0.604zM11.846 17.667h-1.811v0.821c0 0.453 0.406 0.821 0.906 0.821s0.906-0.368 0.906-0.821l0-0.821z"/><path fill="#ffa0d2" d="M10.969 16.573h-0.058c-0.317 0-0.575-0.257-0.575-0.575v-0.492c0-0.317 0.257-0.575 0.575-0.575h0.058c0.317 0 0.575 0.257 0.575 0.575v0.492c0 0.318-0.257 0.575-0.575 0.575z"/><path fill="#5064aa" d="M10.336 17.12c0 0.453-0.405 0.821-0.906 0.821s-0.906-0.367-0.906-0.821c0-0.453 0.405-0.821 0.906-0.821s0.906 0.367 0.906 0.821z"/><path fill="#fab446" d="M9.129 11.101h0.604v1.642h-0.604v-1.642z"/><path fill="#c8414b" d="M7.619 13.837l-0.604-0.547 0.354-0.321c0.547-0.495 1.288-0.774 2.062-0.774v0c0.773 0 1.515 0.278 2.062 0.774l0.354 0.321-0.604 0.547h-3.623z"/><path fill="#ffd250" d="M9.733 13.289c0 0.151-0.135 0.274-0.302 0.274s-0.302-0.123-0.302-0.274c0-0.151 0.135-0.274 0.302-0.274s0.302 0.123 0.302 0.274z"/><path fill="#ffd250" d="M8.525 13.289c0 0.151-0.135 0.274-0.302 0.274s-0.302-0.123-0.302-0.274c0-0.151 0.135-0.274 0.302-0.274s0.302 0.123 0.302 0.274z"/><path fill="#ffd250" d="M10.94 13.289c0 0.151-0.135 0.274-0.302 0.274s-0.302-0.123-0.302-0.274c0-0.151 0.135-0.274 0.302-0.274s0.302 0.123 0.302 0.274z"/><path fill="#c8414b" d="M3.996 16.026h3.019v0.547h-3.019v-0.547z"/><path fill="#c8414b" d="M3.996 18.214l1.811-0.547v-0.547l-1.811 0.547z"/></svg>