<!-- Generated by IcoMoon.io -->
<svg version="1.1" xmlns="http://www.w3.org/2000/svg" width="32" height="32" viewBox="0 0 32 32">
<title>sri-lanka</title>
<path fill="#ffd250" d="M0 0h32v32h-32v-32z"></path>
<path fill="#963c3c" d="M11.586 3.368v25.263c0 0.465 0.247 0.842 0.552 0.842h17.655c0.305 0 0.552-0.377 0.552-0.842v-25.263c0-0.465-0.247-0.842-0.552-0.842h-17.655c-0.305 0-0.552 0.377-0.552 0.842z"></path>
<path fill="#5aa587" d="M5.793 2.526h-3.456c-0.376 0-0.682 0.305-0.682 0.682v25.584c0 0.376 0.305 0.682 0.682 0.682h3.456v-26.947z"></path>
<path fill="#ff7350" d="M9.249 2.526h-3.456v26.947h3.456c0.376 0 0.682-0.305 0.682-0.682v-25.584c0-0.376-0.305-0.682-0.682-0.682z"></path>
<path fill="#ffd250" d="M24.566 20.117c-0.018-0.118 0.086-0.271 0.247-0.49 0.058-0.079 0.142-0.194 0.165-0.249-0.015-0.001-0.036 0-0.051 0.001-0.089 0.004-0.223 0.010-0.341-0.12-0.046-0.051-0.068-0.115-0.064-0.185 0.009-0.142 0.125-0.281 0.197-0.355-0.185-0.13-0.362-0.265-0.526-0.429-0.312-0.312-0.668-0.462-1.061-0.454-0.036 0.391 0.165 0.648 0.38 0.918 0.063 0.080 0.127 0.159 0.184 0.242 0.283 0.409 0.224 1.2 0.188 1.284-0.041 0.095-0.264 0.305-0.571 0.264-0.141-0.019-0.303 0.029-0.406 0.118-0.044 0.038-0.096 0.102-0.096 0.188 0 0.004 0 0.026 0.007 0.030 0.041 0.025 0.195-0.024 0.305-0.083 0.030-0.017 0.068-0.012 0.094 0.012 0.217 0.203 0.434 0.028 0.459 0.007 0.030-0.025 0.074-0.026 0.104-0.002 0.222 0.179 0.453-0.017 0.463-0.025 0.027-0.023 0.067-0.026 0.097-0.007 0.096 0.063 0.184 0.081 0.263 0.054 0.069-0.024 0.105-0.075 0.109-0.088 0.002-0.033-0.042-0.202-0.071-0.314-0.031-0.117-0.062-0.239-0.075-0.319z"></path>
<path fill="#ffd250" d="M26.969 12.632c-0.067-0.005-0.115 0.009-0.148 0.042-0.061 0.060-0.056 0.168-0.056 0.169 0.001 0.024-0.008 0.048-0.026 0.064s-0.041 0.025-0.066 0.021c-0.12-0.016-0.298-0.143-0.628-0.384-0.524-0.384-1.316-0.964-2.071-1.060-0.878-0.112-1.66 0.169-1.858 0.665-0.221 0.553 0.249 1.056 0.253 1.061 0.024 0.025 0.029 0.063 0.013 0.094-0.124 0.233-0.030 0.406 0.055 0.5 0.026-0.078 0.066-0.131 0.121-0.164 0.132-0.079 0.304-0.014 0.542 0.077 0.141 0.053 0.3 0.113 0.486 0.159 0.477 0.117 1.058 0.013 1.571-0.079 0.181-0.033 0.356-0.064 0.519-0.084 0.409-0.052 0.819 0.129 0.932 0.413 0.055 0.138 0.084 0.414-0.334 0.718-0.751 0.547-4.178 0.294-4.38 0.279-0.005 0-0.009 0.001-0.018 0.002 0.075 0.084 0.163 0.166 0.201 0.176s0.064 0.048 0.059 0.088c-0.005 0.040-0.039 0.070-0.079 0.071l-0.351 0.005 0.032 0.338c0.002 0.025-0.007 0.050-0.025 0.067s-0.044 0.024-0.068 0.021c-0.014-0.002-0.317-0.051-0.526-0.167l-0.396 0.25c-0.013 0.008-0.028 0.012-0.043 0.012-0.009 0-0.018-0.001-0.026-0.004-0.023-0.008-0.042-0.026-0.050-0.049l-0.151-0.411-0.179 0.359c-0.013 0.026-0.039 0.043-0.069 0.045-0.029 0.003-0.057-0.013-0.073-0.038l-0.154-0.245c-0.070 0.088-0.183 0.216-0.298 0.296-0.021 0.015-0.048 0.018-0.072 0.010s-0.043-0.028-0.051-0.052l-0.081-0.254c-0.071 0.090-0.174 0.21-0.284 0.299-0.023 0.019-0.056 0.024-0.084 0.012s-0.047-0.039-0.049-0.069l-0.026-0.409c-0.092 0.047-0.218 0.108-0.288 0.13-0.032 0.010-0.067-0.001-0.087-0.027s-0.024-0.062-0.007-0.091c0.125-0.217 0.24-0.488 0.248-0.622-0.083 0.099-0.199 0.194-0.328 0.3-0.276 0.224-0.619 0.504-0.871 0.992-0.176 0.341-0.303 0.937-0.080 1.492 0.191 0.474 0.601 0.827 1.215 1.054-0.021-0.090-0.036-0.178-0.038-0.261-0.008-0.421 0.079-0.805 0.083-0.821 0.010-0.044 0.053-0.071 0.097-0.061s0.071 0.053 0.061 0.097c-0.001 0.004-0.086 0.381-0.079 0.781 0.004 0.196 0.088 0.437 0.169 0.671 0.108 0.311 0.22 0.631 0.171 0.902-0.066 0.367-0.523 0.46-0.948 0.39-0.121-0.020-0.23 0.009-0.309 0.083-0.080 0.075-0.121 0.189-0.11 0.306 0.005 0.055 0.026 0.066 0.033 0.070 0.051 0.028 0.171-0.010 0.236-0.044 0.033-0.017 0.073-0.010 0.098 0.018 0.17 0.191 0.399 0 0.409-0.008 0.033-0.028 0.082-0.025 0.111 0.006 0.064 0.068 0.132 0.102 0.208 0.104 0.138 0.008 0.269-0.115 0.271-0.116 0.024-0.023 0.060-0.029 0.090-0.016 0.267 0.122 0.407 0.051 0.413 0.048 0.232-0.198 0.098-0.666 0.096-0.671-0.006-0.021-0.003-0.044 0.008-0.064s0.030-0.033 0.052-0.038c0.325-0.074 0.506-0.283 0.594-0.421-0.16-0.002-0.288-0.058-0.363-0.175-0.121-0.189-0.063-0.475 0.148-0.727 0.361-0.431 0.581-1.304 0.548-1.659-0.004-0.044 0.029-0.084 0.073-0.088 0.043-0.004 0.084 0.029 0.088 0.073 0.029 0.311-0.111 0.957-0.368 1.444 0.325-0.090 0.621-0.221 0.93-0.362 0.307-0.14 0.625-0.285 1.007-0.405 0.645-0.202 1.214-0.062 1.692 0.416 0.231 0.231 0.484 0.401 0.777 0.597 0.129 0.086 0.262 0.176 0.401 0.276 0.376 0.271 0.369 0.497 0.362 0.736-0.002 0.073-0.004 0.148 0.004 0.23 0.039 0.389-0.27 0.45-0.419 0.48-0.020 0.004-0.039 0.008-0.056 0.012-0.021 0.005-0.046 0.010-0.074 0.016-0.151 0.031-0.379 0.077-0.435 0.27-0.010 0.035-0.006 0.047-0.006 0.047 0.024 0.011 0.147-0.017 0.246-0.062 0.021-0.010 0.045-0.010 0.066-0.001s0.037 0.026 0.045 0.048c0.029 0.084 0.073 0.098 0.088 0.103 0.102 0.032 0.269-0.062 0.319-0.098 0.031-0.022 0.073-0.020 0.102 0.006 0.084 0.076 0.161 0.11 0.23 0.101 0.093-0.013 0.149-0.101 0.15-0.101 0.013-0.022 0.036-0.036 0.062-0.038s0.050 0.008 0.067 0.026c0 0 0.071 0.075 0.216 0.121 0.095 0.030 0.119-0.005 0.127-0.016 0.040-0.059 0.026-0.208-0.053-0.306-0.103-0.128-0.15-0.324-0.122-0.497 0.027-0.16 0.113-0.29 0.249-0.377 0.25-0.159 0.307-0.331 0.291-0.363-0.005-0.002-0.032-0.006-0.053-0.009-0.112-0.015-0.298-0.039-0.49-0.394-0.17-0.313-0.006-0.808 0.184-1.382 0.096-0.291 0.196-0.591 0.257-0.886 0.17-0.816-0.364-1.464-0.37-1.47-0.028-0.033-0.025-0.082 0.007-0.111 0.375-0.352 0.536-0.678 0.479-0.969-0.060-0.304-0.354-0.516-0.588-0.606-0.291-0.112-0.823-0.048-1.337 0.013-0.43 0.051-0.836 0.099-1.098 0.045-0.135-0.028-0.234-0.092-0.294-0.19-0.049-0.081-0.062-0.169-0.061-0.238-0.13 0.049-0.218 0.17-0.219 0.171-0.015 0.021-0.039 0.033-0.064 0.034-0.032-0.001-0.050-0.011-0.066-0.031-0.066-0.086-0.093-0.18-0.079-0.281 0.018-0.13 0.102-0.242 0.171-0.315-0.301-0.106-0.532 0.147-0.543 0.159-0.026 0.029-0.070 0.035-0.103 0.015-0.145-0.089-0.236-0.265-0.23-0.447 0.006-0.172 0.094-0.316 0.243-0.395 0.102-0.054 0.2-0.064 0.291-0.030 0.086 0.033 0.147 0.1 0.185 0.157 0.11-0.126 0.12-0.343 0.12-0.345 0.001-0.022 0.010-0.042 0.026-0.057s0.038-0.024 0.059-0.022c0.192 0.008 0.341 0.077 0.442 0.206 0.139 0.176 0.152 0.42 0.144 0.572 0.306-0.156 0.267-0.517 0.265-0.534-0.003-0.028 0.008-0.055 0.030-0.073s0.051-0.023 0.078-0.013c0.325 0.115 0.443 0.405 0.471 0.62 0.092-0.088 0.093-0.201 0.093-0.202 0-0.037 0.025-0.069 0.061-0.078s0.073 0.007 0.091 0.040c0.125 0.229 0.317 0.372 0.457 0.452l-0.096-0.234c-0.013-0.032-0.005-0.068 0.021-0.091s0.063-0.027 0.093-0.011c0.16 0.086 0.287 0.184 0.422 0.288 0.162 0.125 0.33 0.254 0.566 0.365 0.231 0.108 0.386 0.088 0.476 0.052 0.093-0.037 0.146-0.104 0.163-0.149 0.033-0.085 0.042-0.208-0.010-0.29-0.033-0.052-0.090-0.081-0.169-0.086z"></path>
<path fill="#ffd250" d="M17.408 13.797c0 0 0 0 0 0s0.001 0 0.001 0c0.006 0.002 0.611 0.193 1.161 0.226 0.030 0.002 0.057 0.020 0.069 0.048s0.008 0.060-0.011 0.084l-0.019 0.024c0.109-0.016 0.246-0.031 0.381-0.032-0.055-0.066-0.124-0.149-0.194-0.236-0.147-0.003-0.685-0.026-1.123-0.237-0.106-0.052-0.29-0.141-0.378-0.096-0.015 0.008-0.040 0.044-0.036 0.089 0.005 0.057 0.058 0.103 0.148 0.13z"></path>
<path fill="#ffd250" d="M19.233 12.626c-0.008 0-0.016 0.001-0.023 0.003-0.035 0.011-0.053 0.050-0.058 0.082-0.006 0.040 0.004 0.093 0.050 0.124 0.060 0.040 0.125 0.013 0.162-0.024 0.012-0.011 0.067-0.071 0.026-0.136l-0-0c-0.063-0.029-0.119-0.049-0.157-0.049z"></path>
<path fill="#ffd250" d="M18.438 14.579c0.039 0.094 0.1 0.166 0.15 0.215 0.019-0.041 0.048-0.084 0.092-0.117s0.118-0.062 0.228-0.039c0.002 0 0.003 0 0.005 0.001 0.003 0.001 0.006 0 0.009 0.001s0.005 0.003 0.007 0.004c0.004 0.001 0.008 0.002 0.012 0.004 0.003 0.002 0.005 0.004 0.007 0.006 0.041 0.018 0.076 0.046 0.094 0.089 0.061 0.143-0.047 0.421-0.142 0.619 0.067-0.033 0.132-0.067 0.167-0.086 0.024-0.013 0.054-0.013 0.078 0.001s0.040 0.038 0.041 0.066l0.023 0.361c0.127-0.133 0.226-0.278 0.228-0.28 0.017-0.026 0.048-0.039 0.079-0.034s0.056 0.026 0.065 0.056l0.092 0.292c0.129-0.119 0.242-0.278 0.243-0.28 0.016-0.022 0.041-0.034 0.068-0.034 0.027 0.001 0.052 0.015 0.067 0.038l0.139 0.222 0.199-0.397c0.014-0.029 0.042-0.047 0.077-0.045 0.032 0.002 0.060 0.023 0.072 0.053l0.181 0.493 0.354-0.223c0.027-0.017 0.061-0.017 0.088 0.001 0.115 0.076 0.293 0.124 0.405 0.149l-0.030-0.317c-0.002-0.023 0.005-0.045 0.020-0.062s0.037-0.027 0.059-0.027l0.203-0.003c-0.049-0.049-0.089-0.097-0.109-0.121-0.013-0.016-0.018-0.036-0.018-0.055-0.149-0.006-0.357-0.033-0.565-0.123l-0.124 0.191c-0.012 0.018-0.030 0.031-0.052 0.035-0.005 0.001-0.011 0.002-0.016 0.002-0.016 0-0.032-0.005-0.045-0.014l-0.468-0.314-0.086 0.234c-0.010 0.027-0.033 0.046-0.061 0.052s-0.057-0.005-0.076-0.026c-0.080-0.092-0.207-0.233-0.282-0.311-0.068 0.065-0.186 0.17-0.313 0.241-0.021 0.011-0.045 0.013-0.067 0.005s-0.040-0.025-0.048-0.048l-0.128-0.344c-0.016-0.042 0.006-0.089 0.048-0.104s0.089 0.006 0.104 0.048l0.093 0.251c0.136-0.094 0.249-0.216 0.25-0.217 0.029-0.031 0.077-0.035 0.11-0.008 0.047 0.038 0.175 0.179 0.264 0.279l0.075-0.203c0.009-0.023 0.027-0.041 0.051-0.049s0.049-0.004 0.070 0.010l0.485 0.325 0.117-0.181c0.023-0.035 0.068-0.047 0.104-0.028 0.215 0.108 0.448 0.134 0.596 0.138-0.091-0.169-0.099-0.384-0.099-0.434-0.121-0.053-0.27-0.134-0.42-0.258l-0.058 0.144c-0.009 0.023-0.029 0.040-0.053 0.047s-0.050 0.002-0.070-0.012l-0.234-0.17-0.023 0.175c-0.004 0.027-0.021 0.051-0.045 0.063s-0.054 0.011-0.077-0.004c-0.008-0.005-0.201-0.123-0.315-0.252-0.030-0.033-0.027-0.085 0.007-0.114s0.084-0.027 0.114 0.007c0.049 0.055 0.116 0.109 0.173 0.15l0.023-0.181c0.004-0.028 0.022-0.053 0.048-0.064s0.057-0.008 0.080 0.009l0.26 0.189 0.062-0.154c0.010-0.025 0.032-0.043 0.058-0.049s0.053 0.002 0.073 0.020c0.202 0.19 0.42 0.293 0.556 0.343-0.046-0.216-0.064-0.487-0.065-0.502-0-0.002 0.001-0.004 0.001-0.006-0.126-0.070-0.305-0.19-0.459-0.378-0.001 0.1-0.009 0.201-0.033 0.266-0.008 0.022-0.026 0.039-0.048 0.047s-0.047 0.006-0.067-0.006c-0.010-0.006-0.186-0.107-0.317-0.255-0.023 0.081-0.050 0.167-0.073 0.206-0.022 0.036-0.068 0.050-0.106 0.031-0.008-0.004-0.132-0.067-0.242-0.163-0.011 0.108-0.027 0.23-0.051 0.289-0.009 0.021-0.026 0.038-0.048 0.046s-0.046 0.006-0.066-0.005c-0.007-0.004-0.148-0.081-0.279-0.179l-0.036 0.135c-0.006 0.023-0.022 0.042-0.044 0.053s-0.046 0.010-0.068 0.001c-0.010-0.004-0.241-0.111-0.373-0.272-0.028-0.035-0.023-0.086 0.011-0.114s0.086-0.023 0.114 0.011c0.063 0.077 0.16 0.141 0.229 0.182l0.042-0.158c0.007-0.027 0.028-0.049 0.055-0.057s0.056-0.001 0.077 0.018c0.077 0.070 0.182 0.139 0.257 0.184 0.016-0.1 0.028-0.245 0.033-0.338 0.002-0.036 0.028-0.067 0.063-0.074s0.072 0.009 0.089 0.040c0.044 0.082 0.151 0.162 0.232 0.212 0.022-0.069 0.049-0.171 0.070-0.26 0.008-0.034 0.036-0.059 0.071-0.062s0.067 0.015 0.082 0.047c0.051 0.112 0.173 0.215 0.261 0.277 0.009-0.118 0.001-0.286-0.010-0.391-0.004-0.039 0.020-0.075 0.058-0.086s0.078 0.007 0.095 0.042c0.163 0.33 0.451 0.513 0.601 0.59 0.082-0.894-0.18-1.236-0.183-1.239-0.015-0.018-0.021-0.043-0.016-0.066s0.018-0.043 0.039-0.055c0.145-0.084 0.234-0.238 0.288-0.387-0.329 0.319-0.851 0.442-1.105 0.484l0.124 0.151c0.019 0.023 0.024 0.055 0.012 0.082s-0.037 0.047-0.067 0.050c-0.311 0.031-0.539-0.010-0.692-0.062l0.053 0.098c0.014 0.026 0.013 0.057-0.003 0.082s-0.044 0.041-0.072 0.038c-0.254-0.011-0.476-0.115-0.658-0.208-0.009 0.060-0.038 0.118-0.087 0.165-0.060 0.058-0.136 0.089-0.212 0.089-0.053 0-0.107-0.015-0.153-0.046-0.091-0.061-0.138-0.17-0.121-0.283 0.016-0.104 0.081-0.186 0.172-0.213 0.121-0.036 0.259 0.034 0.433 0.123 0.138 0.071 0.303 0.155 0.483 0.192l-0.1-0.185c-0.019-0.034-0.010-0.077 0.021-0.102s0.074-0.024 0.104 0.002c0.002 0.002 0.203 0.167 0.661 0.159l-0.115-0.141c-0.019-0.023-0.024-0.055-0.012-0.083s0.037-0.047 0.067-0.049c0.009-0.001 0.673-0.068 1.082-0.398-0.133 0.039-0.236 0.033-0.244 0.033-0.022-0.002-0.043-0.013-0.057-0.030-0.187-0.235-0.379-0.308-0.476-0.331-0.054 0.171-0.186 0.309-0.192 0.316-0.017 0.018-0.042 0.027-0.067 0.024s-0.047-0.017-0.060-0.038c-0.144-0.233-0.353-0.294-0.474-0.309 0.015 0.172-0.105 0.313-0.186 0.372-0.031 0.023-0.074 0.021-0.102-0.005-0.348-0.311-0.616-0.219-0.724-0.157 0.034 0.085 0.018 0.155-0.005 0.202-0.166 0.336-1.193 0.404-1.397 0.414-0.025 0.002-0.051-0.010-0.067-0.030s-0.022-0.047-0.015-0.072c0.015-0.056 0.005-0.116-0.028-0.17-0.034-0.055-0.088-0.095-0.145-0.107-0.053-0.011-0.155-0.004-0.216 0.063-0.070 0.077-0.074 0.218-0.014 0.409 0.109 0.343 0.444 0.682 0.652 0.867-0.002-0.043-0.001-0.074-0-0.082 0.002-0.035 0.025-0.064 0.059-0.074s0.069 0.003 0.089 0.031c0.069 0.099 0.151 0.166 0.213 0.207l0.041-0.259c0.006-0.036 0.035-0.064 0.071-0.068 0.036-0.003 0.071 0.016 0.084 0.050 0.073 0.178 0.538 0.736 0.711 0.936 0.022 0.025 0.026 0.062 0.010 0.092s-0.049 0.045-0.083 0.041c-0.296-0.042-0.731 0.056-0.735 0.057-0.034 0.008-0.068-0.007-0.087-0.036s-0.016-0.067 0.006-0.094l0.060-0.075c-0.411-0.043-0.811-0.151-0.973-0.198l-0.136 0.369 0.366-0.037c0.028-0.004 0.056 0.009 0.073 0.032s0.021 0.053 0.010 0.079l-0.069 0.169 0.302-0.080c0.040-0.011 0.081 0.010 0.096 0.049 0.040 0.101 0.089 0.168 0.128 0.209l0.085-0.188c0.013-0.029 0.043-0.050 0.075-0.048 0.031 0.001 0.060 0.021 0.073 0.050z"></path>
<path fill="#ffd250" d="M17.389 18.72c0.319 0.213 0.578-0.030 0.715-0.217-0.294-0.215-0.509-0.479-0.635-0.793-0.041-0.103-0.068-0.207-0.089-0.31-0.030-0.024-0.474-0.376-0.847-0.787-0.019 0.050-0.044 0.089-0.064 0.116 0.026 0.106 0.001 0.193-0.032 0.249 0.023 0.076 0.004 0.151-0.022 0.206 0.056 0.085 0.067 0.168 0.030 0.248-0.008 0.018-0.019 0.035-0.031 0.052 0.046 0.056 0.119 0.184 0.119 0.441 0 0.173 0.064 0.277 0.112 0.33 0.028-0.024 0.058-0.038 0.092-0.041 0.102-0.011 0.186 0.076 0.301 0.197 0.090 0.094 0.201 0.212 0.35 0.311z"></path>
<path fill="#ffd250" d="M15.801 16.524c-0.006 0-0.012-0-0.018-0-0.117-0.001-0.223-0.013-0.321-0.032-0.009 0.027 0.011 0.106 0.032 0.122s0.034 0.042 0.034 0.068c-0.001 0.026-0.012 0.051-0.033 0.066-0.014 0.010-0.055 0.046-0.055 0.082s0.041 0.071 0.065 0.090c0.018 0.014 0.030 0.034 0.032 0.056s-0.005 0.045-0.020 0.062c-0.010 0.012-0.040 0.057-0.035 0.095 0.001 0.008 0.004 0.032 0.047 0.061 0.018 0.012 0.031 0.032 0.034 0.054s-0.002 0.044-0.015 0.062c0 0-0.023 0.033-0.014 0.066 0.010 0.037 0.055 0.065 0.092 0.082 0.068 0.032 0.166 0.053 0.268 0.057 0.003-0 0.006-0 0.009-0 0.086 0.003 0.175-0.006 0.25-0.034 0.074-0.027 0.123-0.067 0.146-0.118 0.007-0.016 0.022-0.049-0.042-0.123-0.025-0.029-0.026-0.072-0.003-0.102 0-0 0.054-0.074 0.021-0.134-0.018-0.032-0.012-0.071 0.013-0.097 0.005-0.005 0.055-0.064 0.015-0.171-0.012-0.031-0.003-0.065 0.020-0.087 0.003-0.003 0.076-0.079 0.075-0.195-0.010-0.012-0.020-0.024-0.030-0.036-0.157 0.066-0.349 0.106-0.568 0.106z"></path>
<path fill="#ffd250" d="M16.541 10.879c-0.328 0.176-1.026 0.728-1.046 2.24l0.018 2.547c0.002 0.004 0.005 0.007 0.007 0.011 0.042 0.080 0.022 0.183-0.002 0.255 0.202 0.072 0.455 0.043 0.563 0.016-0.022-0.063-0.039-0.165 0.035-0.281-0.011-3.038 0.278-4.33 0.425-4.788z"></path>
<path fill="#ffd250" d="M16.575 15.984c0-0.13-0.098-0.23-0.194-0.263-0.020-0.007-0.088-0.026-0.119 0.015-0.058 0.077-0.038 0.131-0.018 0.183 0.011 0.029 0.023 0.059 0.014 0.094-0.011 0.044-0.051 0.062-0.064 0.068-0.11 0.050-0.528 0.115-0.816-0.034-0.039-0.020-0.055-0.068-0.036-0.108 0.030-0.062 0.053-0.154 0.036-0.186-0.001-0.003-0.005-0.010-0.028-0.013-0.021-0.003-0.043-0.004-0.064-0.004-0.099 0-0.19 0.031-0.239 0.084-0.040 0.043-0.052 0.097-0.038 0.166 0.048 0.232 0.338 0.372 0.776 0.376 0.31-0.001 0.577-0.074 0.71-0.206 0.054-0.054 0.081-0.111 0.081-0.172z"></path>
<path fill="#ffd250" d="M15.878 17.906c0.019-0.025 0.050-0.037 0.080-0.030 0.056 0.012 0.196 0.041 0.277-0.021 0.028-0.021 0.034-0.080 0.013-0.119-0.007-0.013-0.030-0.053-0.114-0.021-0.080 0.031-0.194 0.064-0.266-0.001-0.014-0.013-0.024-0.028-0.030-0.044-0.022-0.002-0.043-0.003-0.064-0.006-0.007 0.018-0.016 0.035-0.033 0.050-0.072 0.065-0.186 0.031-0.266 0.001-0.084-0.032-0.107 0.008-0.114 0.021-0.021 0.038-0.015 0.097 0.013 0.118 0.080 0.062 0.22 0.033 0.266 0.023 0.030-0.006 0.066 0.004 0.085 0.029s0.027 0.057 0.013 0.085c-0.018 0.037-0.098 0.192-0.175 0.288 0.101 0.148 0.189 0.412-0.016 0.647-0.017 0.019-0.043 0.029-0.067 0.027-0.025-0.002-0.048-0.016-0.062-0.037-0.012-0.018-0.053-0.067-0.098-0.076-0.014-0.003-0.035-0.004-0.067 0.018-0.021 0.015-0.033 0.063-0.015 0.116 0.032 0.095 0.131 0.148 0.271 0.141 0.032-0.003 0.066 0.019 0.079 0.051s0.004 0.069-0.023 0.091l-0.132 0.113 0.216 0.052c0.029 0.007 0.051 0.029 0.059 0.057 0 0.001 0.033 0.116 0.097 0.213 0.064-0.097 0.097-0.212 0.097-0.213 0.008-0.028 0.030-0.050 0.059-0.057l0.215-0.052-0.132-0.113c-0.026-0.022-0.035-0.059-0.023-0.091s0.045-0.054 0.079-0.051c0.138 0.006 0.239-0.046 0.271-0.141 0.018-0.053 0.006-0.101-0.015-0.116-0.032-0.022-0.054-0.021-0.067-0.018-0.047 0.009-0.089 0.062-0.098 0.076-0.014 0.021-0.037 0.035-0.062 0.037s-0.050-0.008-0.067-0.027c-0.205-0.235-0.118-0.499-0.016-0.647-0.078-0.097-0.157-0.252-0.175-0.288-0.014-0.028-0.010-0.061 0.008-0.085z"></path>
<path fill="#464655" d="M27.274 12.631c-0.043-0.067-0.13-0.15-0.295-0.161-0.115-0.008-0.207 0.023-0.274 0.090-0.054 0.054-0.080 0.12-0.092 0.176-0.11-0.058-0.287-0.188-0.472-0.323-0.537-0.394-1.35-0.989-2.147-1.090-0.647-0.082-1.382 0.047-1.786 0.422 0.006-0.050 0.008-0.083 0.008-0.088 0-0.001-0.001-0.002-0.001-0.003 0-0.015-0.004-0.029-0.012-0.042-0.002-0.003-0.003-0.005-0.005-0.007-0.009-0.012-0.020-0.022-0.035-0.027-0-0-0-0-0.001-0.001h-0c-0.015-0.005-0.031-0.005-0.045-0.001-0.003 0.001-0.005 0.001-0.008 0.002-0.014 0.005-0.027 0.013-0.036 0.025-0.001 0.001-0.002 0.001-0.002 0.002-0.168 0.226-0.398 0.255-0.483 0.258-0.303-0.36-0.624-0.371-0.637-0.372-0.046 0.003-0.076 0.029-0.082 0.069-0.013 0.085-0.062 0.17-0.105 0.229-0.267-0.332-0.643-0.299-0.66-0.298-0.026 0.002-0.049 0.018-0.062 0.040s-0.014 0.050-0.003 0.074c0.048 0.106-0.010 0.198-0.057 0.25-0.526-0.422-0.931-0.078-0.935-0.074-0.031 0.027-0.037 0.073-0.013 0.107 0.039 0.057 0.032 0.088 0.022 0.109-0.085 0.172-0.703 0.285-1.165 0.318-0.002-0.065-0.022-0.13-0.058-0.189-0.057-0.094-0.148-0.16-0.249-0.181-0.112-0.024-0.27 0.001-0.37 0.112-0.112 0.123-0.128 0.314-0.048 0.567 0.125 0.395 0.501 0.767 0.72 0.959-0.053-0.020-0.106-0.041-0.158-0.066-0.129-0.063-0.345-0.168-0.505-0.085-0.081 0.042-0.132 0.146-0.123 0.248 0.005 0.051 0.033 0.166 0.183 0.239l-0.18 0.488c-0.010 0.026-0.005 0.055 0.012 0.078s0.044 0.034 0.072 0.031l0.361-0.036-0.080 0.195c-0.012 0.028-0.006 0.061 0.014 0.084s0.051 0.033 0.082 0.025l0.392-0.104c0.101 0.208 0.236 0.281 0.243 0.284 0.020 0.011 0.043 0.012 0.064 0.005s0.038-0.023 0.047-0.043l0.062-0.138c0.065 0.091 0.135 0.151 0.178 0.184-0.026 0.022-0.052 0.043-0.081 0.066-0.272 0.221-0.645 0.525-0.913 1.043-0.134 0.26-0.239 0.658-0.208 1.080-0.195-0.164-0.563-0.489-0.834-0.822 0.033-0.022 0.067-0.043 0.093-0.069 0.085-0.084 0.129-0.183 0.129-0.287 0-0.215-0.158-0.367-0.304-0.416-0.055-0.018-0.107-0.021-0.155-0.013-0.005-3.53 0.397-4.61 0.479-4.792 0.013-0.029 0.008-0.063-0.013-0.086s-0.054-0.033-0.084-0.024c-0.053 0.016-1.299 0.405-1.327 2.467l0.017 2.46c-0.169-0.018-0.33 0.030-0.423 0.13-0.053 0.057-0.11 0.157-0.078 0.309 0.042 0.203 0.205 0.352 0.456 0.434-0.007 0.027-0.009 0.057-0.006 0.090 0.004 0.040 0.016 0.088 0.039 0.131-0.031 0.037-0.061 0.089-0.062 0.153-0.002 0.062 0.023 0.12 0.073 0.173-0.020 0.040-0.037 0.094-0.030 0.154 0.005 0.036 0.020 0.083 0.062 0.129-0.012 0.035-0.019 0.081-0.007 0.132 0.013 0.052 0.046 0.098 0.094 0.136-0.124-0.023-0.211 0.033-0.252 0.106-0.061 0.109-0.037 0.256 0.055 0.326 0.075 0.057 0.164 0.076 0.245 0.072-0.041 0.070-0.085 0.134-0.112 0.156-0.018 0.014-0.029 0.034-0.031 0.057s0.005 0.045 0.021 0.061c0.008 0.009 0.185 0.208 0.080 0.415-0.033-0.027-0.075-0.052-0.125-0.062-0.065-0.013-0.131 0.002-0.191 0.043-0.085 0.059-0.117 0.183-0.077 0.301 0.031 0.091 0.107 0.184 0.238 0.227l-0.114 0.097c-0.023 0.020-0.033 0.051-0.026 0.080s0.030 0.053 0.060 0.060l0.325 0.079c0.025 0.071 0.082 0.209 0.177 0.304 0.015 0.015 0.044 0.024 0.066 0.024s0.042-0.009 0.057-0.024c0.095-0.095 0.152-0.233 0.177-0.304l0.325-0.079c0.029-0.007 0.052-0.030 0.060-0.060s-0.003-0.061-0.026-0.080l-0.114-0.097c0.131-0.043 0.207-0.136 0.238-0.227 0.040-0.119 0.008-0.243-0.077-0.301-0.060-0.041-0.126-0.056-0.191-0.043-0.050 0.010-0.092 0.035-0.125 0.062-0.103-0.206 0.072-0.406 0.080-0.415 0.015-0.017 0.022-0.039 0.020-0.061s-0.013-0.043-0.031-0.057c-0.027-0.021-0.071-0.086-0.112-0.155 0.081 0.001 0.169-0.014 0.244-0.072 0.016-0.013 0.028-0.030 0.040-0.047 0.006 0.355 0.231 0.496 0.241 0.502 0.038 0.023 0.088 0.011 0.111-0.027 0.019-0.031 0.030-0.037 0.030-0.037 0.029 0.002 0.108 0.086 0.167 0.147 0.095 0.1 0.214 0.225 0.377 0.334 0.12 0.080 0.233 0.111 0.337 0.111 0.292 0 0.51-0.246 0.603-0.372 0.182 0.114 0.387 0.213 0.622 0.293 0.008 0.003 0.016 0.004 0.024 0.004 0.028 0.091 0.059 0.182 0.090 0.273 0.101 0.291 0.206 0.591 0.165 0.82-0.053 0.296-0.521 0.299-0.762 0.258-0.171-0.028-0.33 0.016-0.446 0.125s-0.177 0.273-0.16 0.44c0.011 0.116 0.070 0.171 0.117 0.197 0.108 0.058 0.254 0.015 0.334-0.018 0.182 0.159 0.401 0.092 0.532 0.008 0.081 0.068 0.172 0.103 0.27 0.106 0.003 0 0.006 0 0.010 0 0.148 0 0.273-0.078 0.335-0.126 0.314 0.127 0.493 0.032 0.524 0.013 0.255-0.215 0.213-0.601 0.18-0.769 0.523-0.159 0.692-0.613 0.699-0.634 0.010-0.028 0.004-0.060-0.017-0.082s-0.052-0.031-0.081-0.023c-0.161 0.043-0.289 0.014-0.349-0.081-0.082-0.129-0.029-0.339 0.136-0.535 0.035-0.041 0.067-0.087 0.099-0.135 0.404-0.090 0.75-0.248 1.116-0.415 0.303-0.138 0.616-0.281 0.988-0.397 0.104-0.033 0.206-0.052 0.306-0.065-0.030 0.439 0.195 0.728 0.416 1.006 0.061 0.077 0.122 0.153 0.177 0.233 0.237 0.343 0.192 1.063 0.172 1.128-0.017 0.037-0.176 0.199-0.401 0.168-0.187-0.025-0.396 0.037-0.534 0.157-0.098 0.086-0.152 0.196-0.152 0.31 0 0.097 0.047 0.146 0.086 0.169 0.117 0.070 0.311-0.005 0.415-0.055 0.097 0.075 0.197 0.103 0.289 0.103 0.115 0 0.218-0.043 0.29-0.090 0.217 0.137 0.445 0.057 0.571-0.030 0.159 0.086 0.287 0.069 0.369 0.037 0.027-0.011 0.051-0.024 0.073-0.039 0.003 0.003 0.006 0.008 0.010 0.011 0.086 0.074 0.246 0.035 0.348-0.002 0.046 0.077 0.108 0.111 0.156 0.127 0.15 0.048 0.322-0.034 0.409-0.086 0.105 0.081 0.21 0.115 0.314 0.101 0.092-0.013 0.161-0.062 0.206-0.106 0.048 0.034 0.12 0.077 0.218 0.107 0.043 0.014 0.081 0.019 0.114 0.019 0.113 0 0.172-0.064 0.195-0.098 0.094-0.137 0.045-0.368-0.060-0.499-0.062-0.077-0.113-0.221-0.088-0.37 0.013-0.079 0.054-0.19 0.176-0.267 0.22-0.14 0.364-0.329 0.368-0.483 0.002-0.063-0.023-0.115-0.068-0.147-0.040-0.028-0.085-0.034-0.128-0.040-0.096-0.013-0.216-0.029-0.369-0.311-0.136-0.251 0.025-0.738 0.196-1.254 0.098-0.295 0.199-0.6 0.262-0.904 0.157-0.752-0.221-1.358-0.358-1.547 0.38-0.374 0.54-0.733 0.474-1.068-0.072-0.369-0.416-0.621-0.688-0.726-0.329-0.126-0.881-0.060-1.414 0.003-0.416 0.050-0.809 0.097-1.046 0.047-0.089-0.019-0.153-0.057-0.189-0.115-0.062-0.101-0.029-0.233-0.029-0.235 0.007-0.025 0.001-0.051-0.015-0.071s-0.043-0.033-0.066-0.030c-0.155 0.006-0.279 0.093-0.355 0.164-0.004-0.022-0.005-0.044-0.002-0.067 0.021-0.156 0.2-0.292 0.202-0.293 0.021-0.016 0.034-0.042 0.032-0.069s-0.016-0.051-0.039-0.065c-0.33-0.201-0.638-0.052-0.796 0.088-0.067-0.065-0.107-0.165-0.104-0.265 0.002-0.066 0.025-0.187 0.157-0.257 0.060-0.032 0.111-0.039 0.157-0.022 0.078 0.029 0.13 0.125 0.143 0.159 0.009 0.022 0.026 0.039 0.049 0.047s0.047 0.006 0.068-0.006c0.18-0.105 0.238-0.327 0.257-0.449 0.106 0.017 0.187 0.062 0.246 0.137 0.165 0.208 0.098 0.575 0.097 0.579-0.005 0.027 0.004 0.056 0.024 0.075s0.049 0.026 0.076 0.019c0.366-0.098 0.484-0.396 0.502-0.616 0.28 0.175 0.261 0.535 0.26 0.552-0.002 0.028 0.011 0.055 0.033 0.071s0.052 0.020 0.078 0.009c0.134-0.054 0.208-0.143 0.25-0.225 0.255 0.335 0.61 0.451 0.627 0.456 0.030 0.009 0.063 0.001 0.084-0.022s0.027-0.057 0.015-0.086l-0.079-0.192c0.064 0.045 0.127 0.093 0.19 0.142 0.169 0.13 0.344 0.265 0.596 0.383 0.284 0.133 0.486 0.103 0.606 0.055s0.215-0.139 0.254-0.242c0.046-0.12 0.063-0.297-0.026-0.434zM27.148 13.009c-0.017 0.045-0.070 0.111-0.163 0.149-0.090 0.036-0.245 0.057-0.476-0.052-0.236-0.111-0.404-0.24-0.566-0.365-0.134-0.104-0.262-0.201-0.422-0.288-0.030-0.016-0.067-0.012-0.093 0.011s-0.034 0.059-0.021 0.091l0.096 0.234c-0.14-0.080-0.331-0.223-0.457-0.452-0.018-0.033-0.055-0.049-0.091-0.040s-0.061 0.041-0.061 0.078c0 0.002-0.001 0.114-0.093 0.202-0.028-0.216-0.146-0.506-0.471-0.62-0.027-0.010-0.056-0.004-0.078 0.013s-0.033 0.045-0.030 0.073c0.002 0.017 0.041 0.378-0.265 0.534 0.008-0.151-0.005-0.396-0.144-0.572-0.102-0.129-0.251-0.198-0.442-0.206-0.021-0.002-0.043 0.007-0.059 0.022s-0.025 0.035-0.026 0.057c0 0.002-0.009 0.22-0.12 0.345-0.038-0.057-0.099-0.124-0.185-0.157-0.091-0.034-0.189-0.024-0.291 0.030-0.149 0.079-0.238 0.223-0.243 0.395-0.006 0.182 0.084 0.358 0.23 0.447 0.033 0.020 0.077 0.014 0.103-0.015 0.011-0.012 0.242-0.265 0.543-0.159-0.069 0.072-0.153 0.184-0.171 0.315-0.014 0.101 0.013 0.195 0.079 0.281 0.015 0.020 0.034 0.030 0.066 0.031 0.026-0 0.049-0.013 0.064-0.034 0.001-0.002 0.089-0.122 0.219-0.171-0 0.069 0.012 0.157 0.061 0.238 0.060 0.098 0.159 0.162 0.294 0.19 0.262 0.055 0.668 0.006 1.098-0.045 0.514-0.061 1.046-0.125 1.337-0.013 0.234 0.089 0.528 0.302 0.588 0.606 0.057 0.291-0.104 0.617-0.479 0.969-0.031 0.029-0.034 0.078-0.007 0.111 0.005 0.006 0.54 0.654 0.37 1.47-0.061 0.295-0.161 0.596-0.257 0.886-0.19 0.574-0.354 1.069-0.184 1.382 0.192 0.355 0.379 0.379 0.49 0.394 0.022 0.003 0.049 0.006 0.053 0.009 0.016 0.033-0.041 0.204-0.291 0.363-0.136 0.087-0.223 0.217-0.249 0.377-0.029 0.174 0.019 0.369 0.122 0.497 0.078 0.098 0.093 0.247 0.053 0.306-0.008 0.011-0.032 0.046-0.127 0.016-0.145-0.046-0.216-0.121-0.216-0.121-0.017-0.019-0.042-0.028-0.067-0.026s-0.048 0.016-0.062 0.038c-0.001 0.001-0.057 0.088-0.15 0.101-0.070 0.009-0.147-0.024-0.23-0.101-0.028-0.026-0.070-0.028-0.102-0.006-0.050 0.036-0.217 0.13-0.319 0.098-0.015-0.005-0.059-0.019-0.088-0.103-0.008-0.022-0.024-0.039-0.045-0.048s-0.045-0.009-0.066 0.001c-0.098 0.045-0.222 0.073-0.246 0.062 0 0-0.004-0.012 0.006-0.047 0.056-0.193 0.284-0.239 0.435-0.27 0.028-0.006 0.053-0.011 0.074-0.016 0.017-0.004 0.036-0.008 0.056-0.012 0.149-0.029 0.458-0.091 0.419-0.48-0.008-0.082-0.006-0.157-0.004-0.23 0.007-0.239 0.014-0.465-0.362-0.736-0.139-0.1-0.273-0.19-0.401-0.276-0.293-0.196-0.545-0.366-0.777-0.597-0.478-0.478-1.047-0.618-1.692-0.416-0.382 0.12-0.699 0.264-1.007 0.405-0.309 0.141-0.605 0.272-0.93 0.362 0.256-0.487 0.396-1.132 0.368-1.444-0.004-0.044-0.045-0.078-0.088-0.073-0.044 0.004-0.077 0.044-0.073 0.088 0.033 0.355-0.188 1.228-0.548 1.659-0.211 0.252-0.269 0.537-0.148 0.727 0.075 0.117 0.203 0.174 0.363 0.175-0.088 0.138-0.269 0.346-0.594 0.421-0.022 0.005-0.041 0.019-0.052 0.038s-0.014 0.042-0.008 0.064c0.001 0.005 0.135 0.474-0.096 0.671-0.006 0.003-0.146 0.074-0.413-0.048-0.030-0.014-0.066-0.008-0.090 0.016-0.001 0.001-0.133 0.124-0.271 0.116-0.076-0.002-0.143-0.036-0.208-0.104-0.029-0.032-0.079-0.034-0.111-0.006-0.010 0.008-0.239 0.199-0.409 0.008-0.025-0.028-0.065-0.035-0.098-0.018-0.065 0.034-0.185 0.072-0.236 0.044-0.007-0.004-0.027-0.015-0.033-0.070-0.011-0.117 0.030-0.231 0.11-0.306 0.079-0.074 0.189-0.103 0.309-0.083 0.424 0.071 0.882-0.022 0.948-0.39 0.049-0.27-0.063-0.591-0.171-0.902-0.081-0.234-0.166-0.475-0.169-0.671-0.008-0.4 0.078-0.777 0.079-0.781 0.010-0.044-0.017-0.087-0.061-0.097s-0.087 0.017-0.097 0.061c-0.004 0.016-0.091 0.4-0.083 0.821 0.002 0.083 0.017 0.171 0.038 0.261-0.614-0.227-1.025-0.581-1.215-1.054-0.223-0.555-0.097-1.151 0.080-1.492 0.252-0.489 0.595-0.768 0.871-0.992 0.13-0.105 0.246-0.2 0.328-0.3-0.009 0.135-0.123 0.405-0.248 0.622-0.017 0.029-0.014 0.065 0.007 0.091s0.056 0.037 0.087 0.027c0.070-0.022 0.195-0.083 0.288-0.13l0.026 0.409c0.002 0.030 0.021 0.057 0.049 0.069s0.060 0.008 0.084-0.012c0.109-0.089 0.212-0.209 0.284-0.299l0.081 0.254c0.008 0.024 0.027 0.044 0.051 0.052s0.051 0.005 0.072-0.010c0.115-0.080 0.228-0.208 0.298-0.296l0.154 0.245c0.016 0.025 0.043 0.041 0.073 0.038 0.029-0.001 0.055-0.018 0.069-0.045l0.179-0.359 0.151 0.411c0.008 0.023 0.027 0.041 0.050 0.049 0.008 0.003 0.017 0.004 0.026 0.004 0.015 0 0.030-0.004 0.043-0.012l0.396-0.25c0.209 0.116 0.513 0.165 0.526 0.167 0.024 0.003 0.050-0.004 0.068-0.021s0.027-0.042 0.025-0.067l-0.032-0.338 0.351-0.005c0.040-0.001 0.074-0.031 0.079-0.071s-0.020-0.078-0.059-0.088c-0.038-0.010-0.126-0.092-0.201-0.176 0.009-0.001 0.014-0.001 0.018-0.002 0.202 0.015 3.629 0.268 4.38-0.279 0.418-0.304 0.389-0.58 0.334-0.718-0.113-0.284-0.523-0.465-0.932-0.413-0.163 0.021-0.337 0.052-0.519 0.084-0.513 0.092-1.094 0.196-1.571 0.079-0.186-0.046-0.345-0.106-0.486-0.159-0.238-0.090-0.41-0.155-0.542-0.077-0.055 0.033-0.094 0.086-0.121 0.164-0.085-0.094-0.178-0.267-0.055-0.5 0.016-0.031 0.011-0.068-0.013-0.094-0.005-0.005-0.475-0.509-0.253-1.061 0.199-0.496 0.98-0.777 1.858-0.665 0.756 0.096 1.547 0.676 2.071 1.060 0.33 0.242 0.508 0.368 0.628 0.384 0.024 0.004 0.048-0.005 0.066-0.021s0.027-0.040 0.026-0.064c-0-0.001-0.005-0.109 0.056-0.169 0.033-0.033 0.081-0.047 0.148-0.042 0.079 0.005 0.135 0.034 0.169 0.087 0.052 0.081 0.043 0.204 0.010 0.289zM24.603 20.839c-0.079 0.027-0.167 0.009-0.263-0.054-0.030-0.020-0.070-0.017-0.097 0.007-0.010 0.008-0.241 0.204-0.463 0.025-0.030-0.024-0.074-0.023-0.104 0.002-0.024 0.021-0.242 0.196-0.459-0.007-0.026-0.024-0.064-0.029-0.094-0.012-0.11 0.060-0.264 0.108-0.305 0.083-0.007-0.004-0.007-0.026-0.007-0.030 0-0.086 0.052-0.15 0.096-0.188 0.102-0.089 0.265-0.137 0.406-0.118 0.307 0.041 0.53-0.169 0.571-0.264 0.036-0.084 0.095-0.874-0.188-1.284-0.057-0.083-0.12-0.163-0.184-0.242-0.215-0.27-0.416-0.528-0.38-0.918 0.393-0.008 0.749 0.142 1.061 0.454 0.163 0.163 0.34 0.299 0.526 0.429-0.072 0.074-0.188 0.213-0.197 0.355-0.004 0.070 0.018 0.134 0.064 0.185 0.117 0.13 0.252 0.124 0.341 0.12 0.015-0.001 0.036-0.002 0.051-0.001-0.023 0.055-0.107 0.17-0.165 0.249-0.161 0.219-0.265 0.372-0.247 0.49 0.012 0.081 0.044 0.202 0.074 0.32 0.029 0.112 0.073 0.281 0.071 0.314-0.004 0.012-0.041 0.064-0.109 0.088zM24.944 19.723c0.156-0.212 0.235-0.327 0.189-0.419-0.047-0.094-0.143-0.090-0.213-0.086-0.075 0.004-0.147 0.007-0.213-0.067-0.017-0.019-0.024-0.040-0.023-0.066 0.006-0.093 0.11-0.213 0.17-0.271 0.047 0.032 0.093 0.063 0.14 0.095 0.127 0.085 0.259 0.174 0.397 0.273 0.306 0.221 0.302 0.372 0.295 0.6-0.002 0.074-0.005 0.159 0.005 0.251 0.022 0.225-0.106 0.268-0.289 0.305-0.023 0.005-0.045 0.009-0.064 0.014s-0.042 0.009-0.067 0.014c-0.117 0.024-0.304 0.064-0.434 0.185-0.011-0.044-0.024-0.095-0.039-0.154-0.029-0.113-0.060-0.231-0.071-0.303-0.009-0.061 0.138-0.262 0.217-0.37zM16.739 18.212c-0.034 0.004-0.064 0.017-0.092 0.041-0.048-0.053-0.112-0.157-0.112-0.33 0-0.258-0.073-0.385-0.119-0.441 0.012-0.017 0.023-0.033 0.031-0.052 0.036-0.080 0.026-0.163-0.030-0.248 0.026-0.055 0.044-0.13 0.022-0.206 0.033-0.056 0.058-0.143 0.032-0.249 0.020-0.027 0.045-0.066 0.064-0.116 0.372 0.411 0.817 0.763 0.847 0.787 0.021 0.104 0.048 0.208 0.089 0.31 0.126 0.314 0.341 0.579 0.635 0.793-0.138 0.187-0.396 0.431-0.715 0.217-0.148-0.099-0.26-0.216-0.35-0.311-0.115-0.12-0.199-0.208-0.301-0.196zM16.061 18.926c0.017 0.019 0.041 0.029 0.067 0.027s0.048-0.016 0.062-0.037c0.009-0.014 0.051-0.066 0.098-0.076 0.014-0.003 0.035-0.004 0.067 0.018 0.021 0.015 0.033 0.063 0.015 0.116-0.032 0.095-0.133 0.147-0.271 0.141-0.034-0.003-0.066 0.019-0.079 0.051s-0.004 0.069 0.023 0.091l0.132 0.113-0.216 0.052c-0.029 0.007-0.051 0.029-0.059 0.057-0 0.001-0.033 0.116-0.097 0.213-0.064-0.097-0.097-0.212-0.097-0.213-0.008-0.028-0.030-0.050-0.059-0.057l-0.216-0.052 0.132-0.113c0.026-0.023 0.035-0.059 0.023-0.091s-0.047-0.054-0.079-0.051c-0.14 0.007-0.239-0.046-0.271-0.141-0.018-0.053-0.006-0.102 0.015-0.116 0.031-0.021 0.053-0.020 0.067-0.018 0.045 0.009 0.087 0.058 0.098 0.076 0.014 0.021 0.037 0.035 0.062 0.037 0.024 0.001 0.050-0.008 0.067-0.027 0.205-0.235 0.118-0.499 0.016-0.647 0.078-0.097 0.157-0.252 0.175-0.288 0.014-0.028 0.006-0.060-0.013-0.085s-0.056-0.035-0.085-0.029c-0.046 0.010-0.186 0.039-0.266-0.023-0.028-0.021-0.034-0.080-0.013-0.118 0.007-0.013 0.030-0.053 0.114-0.021 0.080 0.031 0.195 0.064 0.266-0.001 0.016-0.015 0.026-0.032 0.033-0.050 0.021 0.003 0.043 0.004 0.064 0.006 0.007 0.016 0.016 0.031 0.030 0.044 0.072 0.065 0.187 0.031 0.266 0.001 0.084-0.032 0.107 0.008 0.114 0.021 0.021 0.038 0.015 0.097-0.013 0.119-0.080 0.062-0.22 0.033-0.277 0.021-0.030-0.006-0.061 0.006-0.080 0.030s-0.022 0.058-0.008 0.085c0.018 0.037 0.098 0.192 0.175 0.288-0.101 0.148-0.189 0.412 0.016 0.647zM16.324 16.65c-0.024 0.022-0.032 0.057-0.020 0.087 0.040 0.106-0.010 0.165-0.015 0.171-0.026 0.026-0.031 0.065-0.013 0.097 0.033 0.059-0.021 0.134-0.021 0.134-0.023 0.030-0.022 0.073 0.003 0.102 0.064 0.074 0.049 0.107 0.042 0.123-0.023 0.051-0.072 0.090-0.146 0.118-0.076 0.028-0.164 0.036-0.25 0.034-0.003 0-0.006-0-0.009 0-0.102-0.004-0.2-0.025-0.268-0.057-0.036-0.017-0.082-0.045-0.092-0.082-0.009-0.033 0.014-0.066 0.014-0.066 0.013-0.018 0.019-0.040 0.015-0.062s-0.016-0.041-0.034-0.054c-0.042-0.029-0.046-0.053-0.047-0.061-0.005-0.038 0.025-0.083 0.035-0.095 0.015-0.017 0.022-0.039 0.020-0.062s-0.014-0.043-0.032-0.056c-0.025-0.019-0.066-0.055-0.065-0.090s0.042-0.073 0.055-0.082c0.021-0.015 0.033-0.040 0.033-0.066s-0.013-0.052-0.034-0.068c-0.021-0.016-0.041-0.095-0.032-0.122 0.098 0.019 0.204 0.030 0.321 0.032 0.006 0 0.012 0 0.018 0 0.22 0 0.412-0.040 0.568-0.106 0.010 0.012 0.020 0.024 0.030 0.036 0.002 0.116-0.072 0.192-0.075 0.195zM15.784 16.362c-0.438-0.004-0.728-0.145-0.776-0.376-0.014-0.069-0.002-0.123 0.038-0.166 0.049-0.053 0.141-0.084 0.239-0.084 0.021 0 0.043 0.002 0.064 0.004 0.023 0.003 0.027 0.010 0.028 0.013 0.017 0.032-0.005 0.123-0.036 0.186-0.019 0.040-0.004 0.088 0.036 0.108 0.289 0.149 0.706 0.084 0.816 0.034 0.013-0.006 0.053-0.024 0.064-0.068 0.009-0.034-0.003-0.064-0.014-0.094-0.020-0.052-0.041-0.107 0.018-0.183 0.031-0.041 0.099-0.022 0.119-0.015 0.097 0.033 0.194 0.133 0.194 0.263 0 0.060-0.027 0.118-0.081 0.172-0.133 0.132-0.4 0.205-0.71 0.206zM16.082 15.948c-0.108 0.027-0.36 0.057-0.563-0.016 0.024-0.072 0.044-0.175 0.002-0.255-0.002-0.003-0.005-0.007-0.007-0.011l-0.018-2.547c0.020-1.512 0.719-2.064 1.046-2.24-0.147 0.458-0.436 1.75-0.425 4.788-0.073 0.116-0.056 0.217-0.035 0.281zM18.29 14.576l-0.085 0.188c-0.039-0.041-0.088-0.108-0.128-0.209-0.015-0.038-0.056-0.060-0.096-0.049l-0.302 0.080 0.069-0.169c0.011-0.026 0.007-0.056-0.010-0.079s-0.045-0.036-0.073-0.032l-0.366 0.037 0.136-0.369c0.162 0.047 0.562 0.155 0.973 0.198l-0.060 0.075c-0.022 0.027-0.024 0.065-0.006 0.094s0.053 0.044 0.087 0.036c0.004-0.001 0.439-0.099 0.735-0.057 0.034 0.004 0.066-0.012 0.083-0.041s0.012-0.066-0.010-0.092c-0.173-0.2-0.637-0.758-0.711-0.936-0.014-0.034-0.049-0.053-0.084-0.050-0.036 0.004-0.065 0.032-0.071 0.068l-0.041 0.259c-0.062-0.041-0.144-0.108-0.213-0.207-0.020-0.028-0.055-0.041-0.089-0.031s-0.057 0.039-0.059 0.074c-0 0.008-0.002 0.039 0 0.082-0.208-0.185-0.543-0.524-0.652-0.867-0.061-0.191-0.056-0.333 0.014-0.409 0.061-0.067 0.163-0.074 0.216-0.063 0.057 0.012 0.111 0.052 0.145 0.107 0.033 0.054 0.043 0.114 0.028 0.17-0.007 0.025-0.001 0.052 0.015 0.072s0.042 0.032 0.067 0.030c0.204-0.010 1.231-0.078 1.397-0.414 0.023-0.047 0.039-0.117 0.005-0.202 0.109-0.062 0.377-0.154 0.724 0.157 0.028 0.025 0.071 0.027 0.102 0.005 0.080-0.059 0.2-0.2 0.186-0.372 0.121 0.015 0.329 0.076 0.474 0.309 0.013 0.021 0.036 0.035 0.060 0.038s0.049-0.006 0.067-0.024c0.006-0.007 0.138-0.145 0.192-0.316 0.097 0.023 0.288 0.095 0.476 0.331 0.014 0.018 0.035 0.029 0.057 0.030 0.008 0 0.111 0.006 0.244-0.033-0.409 0.329-1.073 0.397-1.082 0.398-0.030 0.003-0.056 0.022-0.067 0.049s-0.007 0.059 0.012 0.083l0.115 0.141c-0.457 0.009-0.659-0.157-0.661-0.159-0.030-0.026-0.073-0.026-0.104-0.002s-0.039 0.067-0.021 0.102l0.1 0.185c-0.18-0.038-0.345-0.122-0.483-0.192-0.174-0.089-0.312-0.159-0.433-0.123-0.090 0.027-0.156 0.108-0.172 0.213-0.017 0.114 0.029 0.222 0.121 0.283 0.047 0.031 0.1 0.046 0.153 0.046 0.076 0 0.152-0.030 0.212-0.089 0.049-0.048 0.078-0.106 0.087-0.165 0.182 0.092 0.404 0.197 0.658 0.208 0.029 0.004 0.057-0.013 0.072-0.038s0.016-0.056 0.003-0.082l-0.053-0.098c0.153 0.052 0.38 0.093 0.692 0.062 0.030-0.003 0.055-0.022 0.067-0.050s0.007-0.059-0.012-0.082l-0.124-0.151c0.254-0.042 0.776-0.165 1.105-0.484-0.054 0.149-0.142 0.303-0.288 0.387-0.020 0.012-0.034 0.032-0.039 0.055s0.002 0.047 0.016 0.066c0.003 0.004 0.265 0.345 0.183 1.239-0.15-0.077-0.438-0.26-0.601-0.59-0.017-0.035-0.057-0.052-0.095-0.042s-0.062 0.047-0.058 0.086c0.011 0.105 0.020 0.273 0.010 0.391-0.087-0.063-0.21-0.165-0.261-0.277-0.014-0.032-0.047-0.052-0.082-0.047s-0.063 0.028-0.071 0.062c-0.020 0.088-0.048 0.19-0.070 0.26-0.081-0.050-0.188-0.13-0.232-0.212-0.017-0.032-0.053-0.048-0.089-0.040s-0.061 0.038-0.063 0.074c-0.005 0.094-0.018 0.238-0.033 0.338-0.074-0.046-0.179-0.114-0.257-0.184-0.021-0.019-0.050-0.026-0.077-0.018s-0.048 0.030-0.055 0.057l-0.042 0.158c-0.070-0.040-0.166-0.105-0.229-0.182-0.028-0.035-0.079-0.040-0.114-0.011s-0.040 0.079-0.011 0.114c0.132 0.161 0.363 0.268 0.373 0.272 0.022 0.010 0.047 0.009 0.068-0.001s0.038-0.030 0.044-0.053l0.036-0.135c0.131 0.098 0.272 0.175 0.279 0.179 0.020 0.011 0.044 0.013 0.066 0.005s0.039-0.025 0.048-0.046c0.024-0.059 0.040-0.181 0.051-0.289 0.111 0.096 0.235 0.159 0.242 0.163 0.038 0.019 0.084 0.005 0.106-0.031 0.023-0.038 0.050-0.124 0.073-0.206 0.131 0.148 0.307 0.249 0.317 0.255 0.020 0.011 0.045 0.014 0.067 0.006s0.040-0.025 0.048-0.047c0.024-0.064 0.033-0.166 0.033-0.266 0.154 0.188 0.333 0.308 0.459 0.378 0 0.002-0.001 0.004-0.001 0.006 0.001 0.014 0.019 0.285 0.065 0.502-0.136-0.050-0.354-0.153-0.556-0.343-0.019-0.018-0.047-0.026-0.073-0.020s-0.048 0.024-0.058 0.049l-0.062 0.154-0.26-0.189c-0.023-0.017-0.053-0.020-0.080-0.009s-0.045 0.036-0.048 0.064l-0.023 0.181c-0.057-0.041-0.125-0.095-0.173-0.15-0.030-0.034-0.081-0.037-0.114-0.007s-0.037 0.081-0.007 0.114c0.115 0.129 0.307 0.247 0.315 0.252 0.023 0.014 0.052 0.016 0.077 0.004s0.042-0.035 0.045-0.063l0.023-0.175 0.234 0.17c0.020 0.015 0.046 0.019 0.070 0.012s0.043-0.024 0.053-0.047l0.058-0.144c0.15 0.123 0.299 0.204 0.42 0.258 0.001 0.050 0.009 0.265 0.099 0.434-0.148-0.004-0.381-0.030-0.596-0.138-0.036-0.019-0.081-0.006-0.104 0.028l-0.117 0.181-0.485-0.325c-0.021-0.014-0.047-0.018-0.070-0.010s-0.043 0.026-0.051 0.049l-0.075 0.203c-0.089-0.1-0.217-0.241-0.264-0.279-0.033-0.027-0.081-0.023-0.11 0.008-0.001 0.002-0.115 0.123-0.25 0.217l-0.093-0.251c-0.016-0.042-0.062-0.063-0.104-0.048s-0.063 0.062-0.048 0.104l0.128 0.344c0.008 0.022 0.026 0.040 0.048 0.048s0.047 0.006 0.067-0.005c0.127-0.070 0.245-0.176 0.313-0.241 0.075 0.078 0.201 0.219 0.282 0.311 0.019 0.021 0.048 0.032 0.076 0.026s0.051-0.025 0.061-0.052l0.086-0.234 0.468 0.314c0.014 0.009 0.029 0.014 0.045 0.014 0.005 0 0.011-0.001 0.016-0.002 0.021-0.004 0.040-0.017 0.052-0.035l0.124-0.191c0.208 0.090 0.416 0.116 0.565 0.123-0.001 0.019 0.004 0.039 0.018 0.055 0.020 0.024 0.060 0.072 0.109 0.121l-0.203 0.003c-0.023 0-0.044 0.010-0.059 0.027s-0.022 0.039-0.020 0.062l0.030 0.317c-0.112-0.025-0.289-0.074-0.405-0.149-0.027-0.018-0.061-0.018-0.088-0.001l-0.354 0.223-0.181-0.493c-0.011-0.030-0.039-0.051-0.072-0.053-0.035-0.002-0.063 0.016-0.077 0.045l-0.199 0.397-0.139-0.222c-0.014-0.023-0.039-0.037-0.067-0.038-0.027 0-0.053 0.012-0.068 0.034-0.001 0.002-0.114 0.161-0.243 0.28l-0.092-0.292c-0.009-0.030-0.035-0.051-0.065-0.056s-0.061 0.009-0.079 0.034c-0.001 0.002-0.101 0.147-0.228 0.28l-0.023-0.361c-0.002-0.027-0.017-0.052-0.041-0.066s-0.053-0.014-0.078-0.001c-0.035 0.019-0.099 0.052-0.167 0.086 0.095-0.198 0.203-0.476 0.142-0.619-0.018-0.043-0.053-0.071-0.094-0.089-0.003-0.002-0.004-0.004-0.007-0.006s-0.008-0.002-0.012-0.004c-0.003-0.001-0.005-0.003-0.007-0.004s-0.006-0.001-0.009-0.001c-0.002-0-0.003-0.001-0.005-0.001-0.11-0.023-0.185 0.008-0.228 0.039s-0.073 0.075-0.092 0.117c-0.050-0.049-0.111-0.121-0.15-0.215-0.012-0.030-0.041-0.049-0.073-0.050-0.032-0.003-0.061 0.018-0.074 0.047zM17.674 13.673c0.438 0.211 0.976 0.234 1.123 0.237 0.070 0.087 0.139 0.171 0.194 0.236-0.135 0.001-0.272 0.016-0.381 0.032l0.019-0.024c0.019-0.024 0.023-0.056 0.011-0.084s-0.039-0.046-0.069-0.048c-0.55-0.033-1.155-0.224-1.161-0.226-0-0-0 0-0.001-0s-0-0-0-0c-0.090-0.027-0.143-0.074-0.148-0.13-0.004-0.045 0.021-0.081 0.036-0.089 0.087-0.045 0.271 0.044 0.378 0.096zM18.439 13.718c0.017-0.013 0.030-0.031 0.034-0.052l0.024-0.152c0.049 0.071 0.107 0.149 0.168 0.228-0.063-0.004-0.14-0.012-0.226-0.024zM18.296 13.695c-0.040-0.007-0.080-0.016-0.121-0.025 0.004-0.017 0.002-0.036-0.007-0.053-0.002-0.005-0.004-0.009-0.007-0.015 0.051 0.042 0.099 0.072 0.135 0.092zM19.364 12.811c-0.037 0.036-0.101 0.064-0.162 0.024-0.046-0.031-0.056-0.084-0.050-0.124 0.005-0.031 0.023-0.071 0.058-0.082 0.007-0.002 0.014-0.003 0.023-0.003 0.039 0 0.094 0.020 0.158 0.049l0 0c0.041 0.065-0.015 0.124-0.026 0.136zM22.443 14.024c0.023 0.015 0.052 0.017 0.078 0.005s0.042-0.035 0.046-0.063c0.014-0.102 0.038-0.164 0.074-0.186 0.065-0.039 0.221 0.021 0.402 0.089 0.138 0.052 0.309 0.117 0.505 0.165 0.51 0.125 1.109 0.018 1.638-0.077 0.179-0.032 0.351-0.063 0.511-0.083 0.334-0.043 0.675 0.097 0.761 0.312 0.064 0.162-0.035 0.349-0.279 0.527-0.677 0.492-3.919 0.274-4.249 0.25-0.088-0.084-0.122-0.255-0.133-0.368 0.053 0.017 0.089 0.026 0.094 0.027s0.011 0.002 0.017 0.002c0.023 0 0.046-0.010 0.061-0.028 0.019-0.022 0.025-0.053 0.015-0.081-0.050-0.138-0.078-0.392-0.090-0.523 0.021 0.006 0.044 0.004 0.063-0.008 0.021-0.013 0.035-0.035 0.038-0.059 0.096-0.814-0.071-1.238-0.159-1.397 0.021-0.016 0.041-0.034 0.060-0.052 0.006 0.385 0.229 0.694 0.32 0.804-0.163 0.369 0.073 0.646 0.228 0.744z"></path>
<path fill="#ffd250" d="M14.321 9.854c-0.031-0.652-0.186-1.707-0.681-1.732-0.279-0.013-0.416 0.159-0.422 0.166-0.016 0.021-0.043 0.033-0.069 0.032l-0.189-0.011 0.034 0.125c0.008 0.030-0.002 0.063-0.026 0.083-0.011 0.010-0.279 0.242-0.116 0.538 0.124 0.225 0.525 0.332 0.817 0.41 0.131 0.035 0.244 0.065 0.317 0.101 0.131 0.064 0.245 0.172 0.336 0.288z"></path>
<path fill="#464655" d="M13.647 7.96c-0.285-0.014-0.462 0.128-0.528 0.196l-0.262-0.016c-0.025-0.002-0.051 0.010-0.068 0.030s-0.022 0.047-0.015 0.072l0.050 0.187c-0.129 0.131-0.28 0.404-0.115 0.704 0.157 0.286 0.597 0.403 0.918 0.489 0.123 0.033 0.228 0.061 0.287 0.090 0.19 0.093 0.342 0.304 0.421 0.47 0.014 0.029 0.042 0.046 0.073 0.046 0.006 0 0.012-0.001 0.018-0.002 0.037-0.008 0.063-0.041 0.063-0.078 0.001-0.088 0.011-2.146-0.842-2.187zM13.668 9.465c-0.293-0.078-0.693-0.184-0.817-0.41-0.163-0.296 0.105-0.528 0.116-0.538 0.024-0.020 0.034-0.053 0.026-0.083l-0.034-0.125 0.189 0.011c0.026 0.001 0.053-0.011 0.069-0.032 0.006-0.007 0.143-0.179 0.422-0.166 0.495 0.024 0.65 1.079 0.681 1.732-0.091-0.116-0.205-0.224-0.336-0.288-0.073-0.036-0.186-0.066-0.317-0.101z"></path>
<path fill="#ffd250" d="M27.857 9.854c0.031-0.652 0.186-1.707 0.681-1.732 0.279-0.013 0.416 0.159 0.422 0.166 0.016 0.021 0.043 0.033 0.069 0.032l0.189-0.011-0.034 0.125c-0.008 0.030 0.002 0.063 0.026 0.083 0.012 0.010 0.279 0.242 0.116 0.538-0.124 0.225-0.525 0.332-0.817 0.41-0.131 0.035-0.244 0.065-0.317 0.101-0.131 0.064-0.245 0.172-0.336 0.288z"></path>
<path fill="#464655" d="M27.689 10.148c0 0.038 0.027 0.070 0.064 0.078 0.006 0.001 0.012 0.002 0.017 0.002 0.031 0 0.059-0.018 0.073-0.046 0.079-0.167 0.232-0.378 0.421-0.47 0.059-0.029 0.165-0.057 0.287-0.090 0.321-0.085 0.76-0.202 0.918-0.489 0.165-0.3 0.014-0.572-0.115-0.704l0.050-0.187c0.007-0.025 0.001-0.052-0.015-0.072s-0.043-0.032-0.068-0.030l-0.262 0.016c-0.067-0.068-0.244-0.21-0.529-0.196-0.853 0.041-0.843 2.1-0.842 2.187zM28.193 9.566c-0.131 0.064-0.245 0.172-0.336 0.288 0.031-0.652 0.186-1.707 0.681-1.732 0.279-0.013 0.416 0.159 0.422 0.166 0.016 0.021 0.043 0.033 0.069 0.032l0.189-0.011-0.034 0.125c-0.008 0.030 0.002 0.063 0.026 0.083 0.012 0.010 0.279 0.242 0.116 0.538-0.124 0.225-0.525 0.332-0.817 0.41-0.131 0.035-0.244 0.065-0.317 0.101z"></path>
<path fill="#ffd250" d="M27.857 21.914c0.031 0.652 0.186 1.707 0.681 1.732 0.279 0.013 0.416-0.159 0.422-0.166 0.016-0.021 0.043-0.033 0.069-0.032l0.189 0.011-0.034-0.125c-0.008-0.030 0.002-0.063 0.026-0.083 0.012-0.010 0.279-0.242 0.116-0.538-0.124-0.225-0.525-0.332-0.817-0.41-0.131-0.035-0.244-0.065-0.317-0.101-0.131-0.064-0.245-0.172-0.336-0.288z"></path>
<path fill="#464655" d="M28.531 23.808c0.285 0.014 0.462-0.128 0.529-0.196l0.262 0.016c0.025 0.002 0.051-0.010 0.068-0.030s0.022-0.047 0.015-0.072l-0.050-0.187c0.129-0.131 0.28-0.404 0.115-0.704-0.157-0.286-0.597-0.403-0.918-0.488-0.122-0.033-0.228-0.061-0.287-0.090-0.19-0.093-0.342-0.304-0.421-0.47-0.014-0.029-0.042-0.046-0.073-0.046-0.006 0-0.012 0.001-0.017 0.002-0.037 0.008-0.063 0.041-0.064 0.078-0.001 0.088-0.011 2.146 0.842 2.187zM28.51 22.303c0.293 0.078 0.693 0.184 0.817 0.41 0.163 0.296-0.105 0.528-0.116 0.538-0.024 0.020-0.034 0.053-0.026 0.083l0.034 0.125-0.189-0.011c-0.026-0.001-0.053 0.011-0.069 0.032-0.006 0.007-0.143 0.179-0.422 0.166-0.495-0.024-0.65-1.079-0.681-1.732 0.091 0.116 0.205 0.224 0.336 0.288 0.073 0.036 0.186 0.066 0.317 0.101z"></path>
<path fill="#ffd250" d="M14.321 21.914c-0.031 0.652-0.186 1.707-0.681 1.732-0.279 0.013-0.416-0.159-0.422-0.166-0.016-0.021-0.043-0.033-0.069-0.032l-0.189 0.011 0.034-0.125c0.008-0.030-0.002-0.063-0.026-0.083-0.011-0.010-0.279-0.242-0.116-0.538 0.124-0.225 0.525-0.332 0.817-0.41 0.131-0.035 0.244-0.065 0.317-0.101 0.131-0.064 0.245-0.172 0.336-0.288z"></path>
<path fill="#464655" d="M14.489 21.62c-0-0.038-0.027-0.070-0.063-0.078-0.006-0.001-0.012-0.002-0.018-0.002-0.031 0-0.059 0.017-0.073 0.046-0.079 0.167-0.232 0.378-0.421 0.47-0.059 0.029-0.165 0.057-0.287 0.090-0.321 0.085-0.76 0.202-0.918 0.488-0.165 0.3-0.014 0.572 0.115 0.704l-0.050 0.187c-0.007 0.025-0.001 0.052 0.015 0.072s0.043 0.032 0.068 0.030l0.262-0.016c0.067 0.068 0.244 0.21 0.528 0.196 0.853-0.042 0.843-2.1 0.842-2.187zM13.985 22.202c0.131-0.064 0.245-0.172 0.336-0.288-0.031 0.652-0.186 1.707-0.681 1.732-0.279 0.013-0.416-0.159-0.422-0.166-0.016-0.021-0.043-0.033-0.069-0.032l-0.189 0.011 0.034-0.125c0.008-0.030-0.002-0.063-0.026-0.083-0.011-0.010-0.279-0.242-0.116-0.538 0.124-0.225 0.525-0.332 0.817-0.41 0.131-0.035 0.244-0.065 0.317-0.101z"></path>
</svg>
