<svg xmlns="http://www.w3.org/2000/svg" width="32" height="32" version="1.1" viewBox="0 0 32 32"><title>suriname</title><path fill="#73af00" d="M0 0h32v32h-32v-32z"/><path fill="#f5f5f5" d="M0 5.895h32v3.368h-32v-3.368z"/><path fill="#f5f5f5" d="M0 22.737h32v3.368h-32v-3.368z"/><path fill="#c8414b" d="M0 9.263h32v13.474h-32v-13.474z"/><path fill="#ffe15a" d="M15.79 10.812l-1.226 3.677-3.876 0.030c-0.213 0.002-0.301 0.273-0.13 0.399l3.118 2.302-1.169 3.695c-0.064 0.203 0.167 0.37 0.339 0.247l3.153-2.254 3.153 2.254c0.173 0.124 0.404-0.044 0.339-0.247l-1.169-3.695 3.118-2.302c0.171-0.126 0.083-0.397-0.13-0.399l-3.876-0.030-1.226-3.677c-0.067-0.202-0.352-0.202-0.42 0z"/></svg>