<!-- Generated by IcoMoon.io -->
<svg version="1.1" xmlns="http://www.w3.org/2000/svg" width="32" height="32" viewBox="0 0 32 32">
<title>switzerland</title>
<path fill="#ff4b55" d="M0 0h32v32h-32v-32z"></path>
<path fill="#f5f5f5" d="M22.772 13.537h-4.31v-4.31c0-0.34-0.276-0.616-0.616-0.616h-3.694c-0.34 0-0.616 0.276-0.616 0.616v4.31h-4.31c-0.34 0-0.616 0.276-0.616 0.616v3.694c0 0.34 0.276 0.616 0.616 0.616h4.31v4.31c0 0.34 0.276 0.616 0.616 0.616h3.694c0.34 0 0.616-0.276 0.616-0.616v-4.31h4.31c0.34 0 0.616-0.276 0.616-0.616v-3.694c0-0.34-0.276-0.616-0.616-0.616z"></path>
</svg>
