<svg xmlns="http://www.w3.org/2000/svg" width="32" height="32" version="1.1" viewBox="0 0 32 32"><title>syria</title><path fill="#ff4b55" d="M0 0h32v10.631h-32v-10.631z"/><path fill="#464655" d="M0 21.369h32v10.631h-32v-10.631z"/><path fill="#f5f5f5" d="M0 10.631h32v10.739h-32v-10.739z"/><path fill="#73af00" d="M9.377 13.957l0.46 1.379 1.454 0.011c0.188 0.001 0.266 0.242 0.115 0.354l-1.17 0.864 0.439 1.386c0.057 0.18-0.148 0.328-0.301 0.218l-1.183-0.845-1.183 0.845c-0.153 0.109-0.357-0.039-0.301-0.218l0.439-1.386-1.17-0.864c-0.151-0.112-0.073-0.352 0.115-0.354l1.454-0.011 0.46-1.379c0.060-0.179 0.312-0.179 0.372 0z"/><path fill="#73af00" d="M22.995 13.957l0.46 1.379 1.454 0.011c0.188 0.001 0.266 0.242 0.115 0.354l-1.17 0.864 0.439 1.386c0.057 0.18-0.148 0.328-0.301 0.218l-1.183-0.845-1.183 0.845c-0.153 0.109-0.358-0.039-0.301-0.218l0.439-1.386-1.17-0.864c-0.151-0.112-0.073-0.352 0.115-0.354l1.454-0.011 0.46-1.379c0.060-0.179 0.312-0.179 0.372 0z"/></svg>