<!-- Generated by IcoMoon.io -->
<svg version="1.1" xmlns="http://www.w3.org/2000/svg" width="32" height="32" viewBox="0 0 32 32">
<title>taiwan</title>
<path fill="#ff4b55" d="M0 0h32v32h-32v-32z"></path>
<path fill="#41479b" d="M0.234 0h15.531c0.129 0 0.234 0.105 0.234 0.234v15.195c0 0.315-0.255 0.57-0.57 0.57h-15.195c-0.129 0-0.234-0.105-0.234-0.234v-15.531c0-0.129 0.105-0.234 0.234-0.234z"></path>
<path fill="#f5f5f5" d="M5.518 8c0-0.685 0.278-1.305 0.726-1.755l-2.080-0.595c-0.121-0.035-0.207 0.115-0.117 0.203l1.556 1.505-2.1 0.525c-0.122 0.030-0.122 0.204 0 0.234l2.1 0.525-1.556 1.505c-0.090 0.087-0.004 0.237 0.117 0.203l2.080-0.595c-0.449-0.449-0.726-1.069-0.726-1.754z"></path>
<path fill="#f5f5f5" d="M6.245 6.244c0.449-0.449 1.069-0.726 1.755-0.726s1.305 0.278 1.755 0.726l0.595-2.080c0.035-0.121-0.115-0.207-0.203-0.117l-1.505 1.556-0.525-2.1c-0.030-0.122-0.204-0.122-0.234 0l-0.525 2.1-1.505-1.556c-0.087-0.090-0.237-0.004-0.203 0.117l0.595 2.080z"></path>
<path fill="#f5f5f5" d="M9.755 9.756c-0.449 0.449-1.069 0.726-1.755 0.726s-1.305-0.278-1.755-0.726l-0.595 2.080c-0.035 0.121 0.115 0.207 0.203 0.117l1.505-1.556 0.525 2.1c0.030 0.122 0.204 0.122 0.234 0l0.525-2.1 1.505 1.556c0.087 0.090 0.237 0.004 0.203-0.117l-0.595-2.080z"></path>
<path fill="#f5f5f5" d="M12.496 7.883l-2.1-0.525 1.556-1.505c0.090-0.087 0.004-0.237-0.117-0.203l-2.080 0.595c0.449 0.449 0.726 1.069 0.726 1.754s-0.278 1.305-0.726 1.755l2.080 0.595c0.121 0.034 0.207-0.115 0.117-0.203l-1.556-1.505 2.1-0.525c0.122-0.031 0.122-0.204 0-0.234z"></path>
<path fill="#f5f5f5" d="M9.976 8c0 1.091-0.885 1.976-1.976 1.976s-1.976-0.885-1.976-1.976c0-1.091 0.885-1.976 1.976-1.976s1.976 0.885 1.976 1.976z"></path>
</svg>
