<!-- Generated by IcoMoon.io -->
<svg version="1.1" xmlns="http://www.w3.org/2000/svg" width="32" height="32" viewBox="0 0 32 32">
<title>tibet</title>
<path fill="#ffe15a" d="M0 0h32v32h-32v-32z"></path>
<path fill="#41479b" d="M1.655 1.75h30.345v28.625h-30.345v-28.625z"></path>
<path fill="#ff4b55" d="M1.655 1.75l15.172 14.265-7.586-14.265z"></path>
<path fill="#ff4b55" d="M16.827 16.015v-14.265l7.586 0z"></path>
<path fill="#ff4b55" d="M32 1.845l-15.172 14.265 15.172-7.132z"></path>
<path fill="#ff4b55" d="M16.827 16.11h15.172v7.133z"></path>
<path fill="#ff4b55" d="M16.827 16.11l-15.172-7.132v7.133z"></path>
<path fill="#ff4b55" d="M1.655 23.242l15.172-7.133-15.172 14.265z"></path>
<path fill="#ffe15a" d="M20.029 17.413c0.048-0.137 0.090-0.276 0.121-0.42l3.692 0.327-3.632-0.734c0.009-0.1 0.015-0.201 0.015-0.303 0-0.099-0.006-0.195-0.015-0.292l3.602-0.759-3.659 0.354c-0.032-0.154-0.078-0.302-0.13-0.448l3.27-1.709-3.43 1.333c-0.087-0.174-0.189-0.339-0.304-0.495l2.711-2.5-2.973 2.186c-0.315-0.334-0.696-0.606-1.124-0.79l1.080-3.514-1.464 3.376c-0.305-0.090-0.627-0.14-0.962-0.14-0.337 0-0.662 0.051-0.969 0.142l-1.465-3.378 1.081 3.518c-0.426 0.185-0.806 0.457-1.12 0.791l-2.978-2.189 2.716 2.504c-0.114 0.155-0.215 0.319-0.302 0.493l-3.437-1.336 3.277 1.713c-0.052 0.145-0.097 0.292-0.129 0.445l-3.667-0.355 3.61 0.76c-0.008 0.096-0.015 0.192-0.015 0.29 0 0.102 0.006 0.202 0.015 0.301l-3.64 0.736 3.7-0.328c0.030 0.143 0.072 0.281 0.12 0.417l-3.263 1.667 3.421-1.293c0.554 1.123 1.708 1.897 3.045 1.897s2.488-0.773 3.043-1.894l3.414 1.29-3.256-1.664z"></path>
<path fill="#f5f5f5" d="M32 30.375l-14.825-13.961c-0.214-0.202-0.479-0.202-0.694 0l-14.826 13.961h30.345z"></path>
<path fill="#ff4b55" d="M17.14 23.614c0 0.063-0.051 0.115-0.115 0.115s-0.115-0.051-0.115-0.115c0-0.063 0.051-0.115 0.115-0.115s0.115 0.051 0.115 0.115z"></path>
<path fill="#ff4b55" d="M16.85 19.767c0.344 0.426-0.213 0.639-0.144 1.046 0 0-0.113-0.169-0.069-0.407s-0.106-0.313-0.106-0.313 0.069 0.269-0.1 0.42-0.119 0.495-0.119 0.495-0.213-0.144-0.169-0.363c0 0-0.288 0.25-0.031 0.67 0 0-0.169-0.012-0.232-0.119 0 0-0.15 0.441 0.454 0.778s0.692-0.465 0.692-0.465l0.432 0.539c0 0 0.518-0.015 0.764-0.57l-0.296 0.054c0.019-0.157 0.415-0.198 0.259-0.668 0 0-0.012 0.1-0.125 0.169 0 0 0.004-0.324-0.23-0.536 0 0-0.008 0.173-0.084 0.236 0 0 0.025-0.223-0.113-0.399-0.132-0.168-0.144-0.321-0.144-0.321s-0.157 0.288-0.1 0.432c0 0-0.131-0.032-0.144-0.207-0.029-0.38-0.395-0.47-0.395-0.47z"></path>
<path fill="#ffe15a" d="M18.003 23.184c0 0.231-0.438 0.419-0.977 0.419s-0.977-0.188-0.977-0.419c0-0.231 0.438-0.419 0.977-0.419s0.977 0.188 0.977 0.419z"></path>
<path fill="#ff4b55" d="M17.871 23.093c0 0.209-0.378 0.379-0.845 0.379s-0.845-0.17-0.845-0.379c0-0.209 0.378-0.379 0.845-0.379s0.845 0.17 0.845 0.379z"></path>
<path fill="#ff82aa" d="M17.202 23.143h-0.354c-0.006 0.11 0.044 0.271 0.177 0.329v0c0-0 0-0 0-0s0 0 0 0v-0c0.133-0.058 0.183-0.218 0.177-0.329z"></path>
<path fill="#ff82aa" d="M17.484 23.075l-0.321 0.075c0.020 0.109 0.102 0.254 0.236 0.283l0 0 0-0c0 0 0 0 0 0v-0c0.108-0.085 0.116-0.252 0.085-0.358z"></path>
<path fill="#ff82aa" d="M17.65 22.959l-0.224 0.147c0.057 0.095 0.176 0.208 0.292 0.202l0 0 0-0c0 0 0 0 0 0l-0-0c0.052-0.104-0.004-0.259-0.069-0.348z"></path>
<path fill="#ff82aa" d="M17.644 22.733l-0.088 0.222c0.119 0.152 0.315 0.136 0.315 0.136 0.008-0.124-0.146-0.283-0.227-0.359z"></path>
<path fill="#ff82aa" d="M16.563 23.075l0.321 0.075c-0.020 0.109-0.102 0.254-0.236 0.283l-0 0-0-0-0 0 0-0c-0.108-0.085-0.116-0.252-0.085-0.358z"></path>
<path fill="#ff82aa" d="M16.397 22.959l0.224 0.147c-0.057 0.095-0.176 0.208-0.292 0.202l-0 0-0-0-0 0 0-0c-0.052-0.104 0.004-0.259 0.069-0.348z"></path>
<path fill="#ff82aa" d="M16.404 22.733l0.088 0.222c-0.119 0.152-0.315 0.136-0.315 0.136-0.008-0.124 0.146-0.283 0.227-0.359z"></path>
<path fill="#ffe15a" d="M17.711 22.864c0 0.17-0.307 0.307-0.686 0.307s-0.686-0.138-0.686-0.307c0-0.17 0.307-0.307 0.686-0.307s0.686 0.138 0.686 0.307z"></path>
<path fill="#ff4b55" d="M17.536 22.864c0 0.11-0.228 0.2-0.51 0.2s-0.51-0.089-0.51-0.2c0-0.11 0.228-0.2 0.51-0.2s0.51 0.089 0.51 0.2z"></path>
<path fill="#41479b" d="M17.077 26.317c-0.334 0.028-0.627-0.22-0.655-0.553-0.015-0.166 0.11-0.314 0.276-0.328s0.313 0.11 0.327 0.276 0.161 0.29 0.328 0.276 0.291-0.161 0.276-0.328c0.028 0.334-0.219 0.627-0.552 0.655z"></path>
<path fill="#ff9b55" d="M16.422 25.765c-0.015-0.166 0.11-0.314 0.276-0.328s0.313 0.11 0.327 0.276 0.161 0.29 0.328 0.276 0.291-0.161 0.276-0.328c-0.028-0.334-0.321-0.581-0.655-0.553s-0.581 0.322-0.552 0.655z"></path>
<path fill="#ffe15a" d="M17.025 24.721c-0.548 0-0.992 0.444-0.992 0.992s0.444 0.992 0.992 0.992 0.992-0.444 0.992-0.992c0-0.548-0.444-0.992-0.992-0.992zM17.025 26.498c-0.434 0-0.785-0.352-0.785-0.785s0.352-0.785 0.785-0.785 0.785 0.352 0.785 0.785-0.352 0.785-0.785 0.785z"></path>
<path fill="#ff4b55" d="M17.025 24.928c-0.434 0-0.785 0.352-0.785 0.785s0.352 0.785 0.785 0.785 0.785-0.352 0.785-0.785-0.352-0.785-0.785-0.785zM17.025 26.315c-0.332 0-0.602-0.269-0.602-0.602s0.269-0.602 0.602-0.602 0.602 0.269 0.602 0.602-0.269 0.602-0.602 0.602z"></path>
<path fill="#ff9b55" d="M16.796 25.713c0 0.042-0.034 0.076-0.076 0.076s-0.076-0.034-0.076-0.076c0-0.042 0.034-0.076 0.076-0.076s0.076 0.034 0.076 0.076z"></path>
<path fill="#41479b" d="M17.403 25.713c0 0.042-0.034 0.076-0.076 0.076s-0.076-0.034-0.076-0.076c0-0.042 0.034-0.076 0.076-0.076s0.076 0.034 0.076 0.076z"></path>
<path fill="#ff4b55" d="M17.117 24.477c0 0.051-0.041 0.092-0.092 0.092s-0.092-0.041-0.092-0.092c0-0.051 0.041-0.092 0.092-0.092s0.092 0.041 0.092 0.092z"></path>
<path fill="#ff4b55" d="M17.209 24.637c0 0.051-0.041 0.092-0.092 0.092s-0.092-0.041-0.092-0.092c0-0.051 0.041-0.092 0.092-0.092s0.092 0.041 0.092 0.092z"></path>
<path fill="#ff4b55" d="M17.025 24.637c0 0.051-0.041 0.092-0.092 0.092s-0.092-0.041-0.092-0.092c0-0.051 0.041-0.092 0.092-0.092s0.092 0.041 0.092 0.092z"></path>
<path fill="#ff4b55" d="M17.117 26.951c0 0.051-0.041 0.092-0.092 0.092s-0.092-0.041-0.092-0.092c0-0.051 0.041-0.092 0.092-0.092s0.092 0.041 0.092 0.092z"></path>
<path fill="#ff4b55" d="M17.025 26.791c0 0.051-0.041 0.092-0.092 0.092s-0.092-0.041-0.092-0.092c0-0.051 0.041-0.092 0.092-0.092s0.092 0.041 0.092 0.092z"></path>
<path fill="#ff4b55" d="M17.209 26.791c0 0.051-0.041 0.092-0.092 0.092s-0.092-0.041-0.092-0.092c0-0.051 0.041-0.092 0.092-0.092s0.092 0.041 0.092 0.092z"></path>
<path fill="#ff9b55" d="M16.858 21.879c-0.063-0.352-0.231-0.616-0.376-0.59s-0.211 0.332-0.148 0.684c0.046 0.254 0.146 0.458 0.253 0.544-0.044 0.076-0.071 0.191-0.072 0.334 0.079 0.007 0.161 0.006 0.245-0.009s0.161-0.043 0.233-0.077c-0.050-0.134-0.115-0.232-0.183-0.288 0.070-0.118 0.094-0.345 0.048-0.598z"></path>
<path fill="#41479b" d="M17.191 21.879c0.063-0.352 0.231-0.616 0.376-0.59s0.211 0.332 0.148 0.684c-0.046 0.254-0.146 0.458-0.253 0.544 0.044 0.076 0.071 0.191 0.072 0.334-0.079 0.007-0.161 0.006-0.245-0.009s-0.161-0.043-0.233-0.077c0.050-0.134 0.115-0.232 0.183-0.288-0.070-0.118-0.094-0.345-0.048-0.598z"></path>
<path fill="#f5f5f5" d="M17.294 21.871c0-0.387-0.119-0.702-0.266-0.702s-0.266 0.314-0.266 0.702c0 0.28 0.063 0.517 0.153 0.629-0.057 0.072-0.103 0.19-0.129 0.342 0.077 0.022 0.157 0.038 0.242 0.038s0.166-0.015 0.242-0.038c-0.026-0.152-0.073-0.27-0.129-0.342 0.090-0.113 0.153-0.35 0.153-0.629z"></path>
<path fill="#ffe15a" d="M17.025 22.604c-0.173 0-0.332-0.016-0.436-0.045-0.036-0.009-0.056-0.046-0.047-0.082s0.047-0.059 0.082-0.046c0.183 0.049 0.619 0.049 0.802 0 0.036-0.013 0.072 0.011 0.082 0.046s-0.011 0.072-0.047 0.082c-0.103 0.029-0.262 0.045-0.436 0.045z"></path>
<path fill="#ffe15a" d="M16.456 23.656c0.072-0.009 0.163-0.031 0.169-0.141 0 0-0.163-0.016-0.163-0.003s-0.006 0.144-0.006 0.144z"></path>
<path fill="#ff4b55" d="M14.821 23.249c0.081 0.023 0.161 0.040 0.186 0.14 0 0 0.084-0.167-0.033-0.267-0.021-0.018-0.152 0.127-0.152 0.127z"></path>
<path fill="#ff4b55" d="M15.168 22.969c0.081 0.023 0.161 0.040 0.186 0.14 0 0 0.084-0.167-0.033-0.267-0.021-0.018-0.152 0.127-0.152 0.127z"></path>
<path fill="#ffe15a" d="M14.846 23.55c-0.050-0.012-0.138-0.125-0.025-0.301s-0.382 0.088-0.401 0.232c-0.019 0.144-0.038 0.401 0.075 0.332s0.351-0.263 0.351-0.263z"></path>
<path fill="#ff4b55" d="M15.383 23.569c0.017-0.092 0-0.154 0.117-0.238s0.134-0.129 0.134-0.184c0 0-0.064 0.068-0.176 0.096-0.069 0.017-0.128 0.067-0.128 0.067s-0.029-0.104 0.075-0.163c0 0-0.184 0-0.213 0.167s0.067 0.192-0.071 0.209c-0.138 0.017-0.459-0.050-0.572 0.205s0.23 0.071 0.321 0.038c0.092-0.033 0.384 0.038 0.43-0.025s0.084-0.171 0.084-0.171z"></path>
<path fill="#fff5e6" d="M14.179 24.026l0.495-0.814c0 0 0.492-0.19 0.496-0.215s0.163-0.23 0.163-0.259c0-0.029-0.017-0.171-0.079-0.196s-0.262 0.059-0.349 0.081c-0.087 0.022-0.223-0.14-0.223-0.14s-0.797 0.15-0.856 0.246-0.334 0.785-0.347 0.856c-0.012 0.071 0 0.559 0.017 0.551s0.684-0.111 0.684-0.111z"></path>
<path fill="#ff4b55" d="M15.362 22.617c-0.075-0.109-0.213-0.109-0.271-0.021s-0.184 0.088-0.213 0.196c-0.023 0.086 0.117 0.242 0.2 0.213s0.238-0.125 0.238-0.125 0.121-0.154 0.046-0.263zM15.133 22.838c-0.034 0.044-0.12-0.011-0.121-0.059s0.071-0.051 0.107-0.026c0.023 0.016 0.042 0.050 0.014 0.085zM15.262 22.73c-0.050 0.024-0.103-0.063-0.082-0.107s0.087-0.015 0.107 0.024c0.014 0.025 0.016 0.063-0.025 0.083z"></path>
<path fill="#fff5e6" d="M15.52 25.775c0.083 0.008 0.193-0.003 0.216-0.191 0.026-0.216 0.091-0.291 0.2-0.241s0.081 0.136 0.081 0.136 0.119 0.313 0.056 0.438c-0.063 0.125-0.207 0.276-0.313 0.301s-0.326-0.119-0.326-0.119l0.085-0.324z"></path>
<path fill="#ffe6d7" d="M14.919 25.046c0.071-0.033 0.948-0.643 1.052-0.872s0.046-0.397 0.184-0.405c0.138-0.008 0.372-0.017 0.351-0.188s-0.25-0.063-0.313-0.096-0.259-0.125-0.296 0.008 0 0.255-0.054 0.321c-0.054 0.067-0.296 0.184-0.338 0.175s-0.131-0.019-0.199 0.024c-0.068 0.043-0.106 0.101-0.106 0.101s-0.257 0.010-0.293 0.045-0.174 0.218-0.174 0.218l0.188 0.668z"></path>
<path fill="#5aa587" d="M15.011 24.909c0 0 0.167-0.063 0.286-0.294s0.238-0.138 0.413-0.263c0.175-0.125 0.063-0.313 0.012-0.388s-0.016-0.269 0.157-0.263c0.113 0.004 0.476 0.357 0.313 0.708 0 0-0.025-0.063-0.088-0.138 0 0 0.094 0.232-0.125 0.488 0 0 0.006-0.131-0.063-0.219 0 0-0.006 0.326-0.257 0.532 0 0 0.031-0.213-0.006-0.301 0 0-0.038 0.282-0.407 0.539 0 0 0.056-0.1 0.044-0.263l-0.313 0.163 0.033-0.301z"></path>
<path fill="#f5dcd2" d="M12.629 25.979c0 0-0.113 0.344 0.194 0.445s0.476-0.031 0.589 0 0.088 0.232-0.069 0.401-0.313 0.188-0.488 0.063c-0.175-0.125-0.188-0.238-0.369-0.194s-0.432-0.131-0.432-0.131 0.163-0.708 0.182-0.701c0.019 0.006 0.394 0.119 0.394 0.119z"></path>
<path fill="#fff5e6" d="M11.037 25.118c0 0 0.216-0.208 1.056-0.466s1.289-0.366 1.289-0.366l0.657-0.208c0 0 0.309-0.001 0.512-0.059s0.203-0.058 0.203-0.058 0.541 0.765 0.133 1.539l0.141 0.133c0 0 0.149 0.045 0.261 0.085s0.030 0.256 0.030 0.256l-0.432 0.2-1.264-0.058c0 0-0.025-0.058-0.441 0.075s-0.599-0.166-1.397-0.191-0.748-0.882-0.748-0.882z"></path>
<path fill="#5aa587" d="M14.631 22.132c0 0 0.127 0.127 0.058 0.263 0 0-0.142-0.146-0.259-0.18-0.18-0.051-0.217 0.047-0.615 0.066-0.25 0.012-0.351 0.252-0.596 0.193-0.262-0.063-0.478 0.057-0.478 0.057s0.15-0.019 0.272 0.097c0.122 0.116 0.338 0.091 0.338 0.091s-0.197 0.138-0.363 0.072c-0.166-0.066-0.404 0.056-0.404 0.056 0.044-0.003 0.141 0.012 0.251 0.128s0.354 0.088 0.354 0.088c-0.044 0.053-0.166 0.113-0.281 0.091-0.261-0.050-0.541 0.067-0.541 0.067s0.166-0.058 0.391 0.108 0.482 0.067 0.482 0.067c0 0.108-0.225 0.525-0.624 0.51-0.497-0.018-0.623 0.271-0.623 0.271s0.2-0.067 0.457-0.025c0.499 0.081 0.84-0.208 0.84-0.208s-0.083 0.391-0.424 0.374-0.774 0.333-0.774 0.333 0.384-0.069 0.88-0.075c0.163-0.002 0.296-0.066 0.409-0.143 0.298-0.201 0.574-0.201 0.574-0.201-0.326 0.075-0.495 0.432-0.495 0.432s0.251-0.219 0.614-0.219 0.476-0.426 0.476-0.426c-0.338 0.006-0.388-0.269-0.388-0.269s-0.1 0.031-0.194 0.144c-0.059 0.071-0.16 0.096-0.229 0.105-0.025-0.22 0.141-0.42 0.141-0.42s-0.225-0.341 0.067-0.707 0.956-0.25 0.956-0.25c0.069-0.307-0.19-0.499-0.273-0.49z"></path>
<path fill="#5aa587" d="M13.955 23.343c0.109-0.017 0.614-0.184 0.605-0.409s-0.309-0.146-0.292-0.025 0.125 0.096 0.125 0.096-0.011 0.055-0.234 0.1c-0.184 0.038-0.205 0.238-0.205 0.238z"></path>
<path fill="#5aa587" d="M15.291 25.719c0 0 0.313-0.050 0.301 0.175s-0.192 0.463-0.564 0.568c0 0 0.138-0.119 0.106-0.188s-0.188-0.088-0.269 0.031c-0.081 0.119-0.219 0.169-0.338 0.15 0 0 0.213-0.157 0.063-0.213-0.135-0.051-0.084 0.169-0.407 0.207 0 0 0.238-0.188 0.1-0.238s-0.213 0.276-0.457 0.25c0 0 0.205-0.205 0.094-0.238-0.174-0.053-0.219 0.25-0.532 0.119 0 0 0.157-0.069 0.031-0.238s0.050-0.382 0.138-0.47c0.088-0.088 0.15-0.144 0.125-0.232 0 0 0.223 0.14 0.111 0.386-0.106 0.231 0.323 0.104 0.655 0.075 0.342-0.029 0.545 0.167 0.764 0.1 0.205-0.063 0.079-0.246 0.079-0.246z"></path>
<path fill="#5aa587" d="M9.232 25.825c0 0 0.411 0.189 0.644-0.002s0.296 0.035 0.571-0.131c0.274-0.166 0.258-0.075 0.474-0.075s0.374-0.349 0.241-0.59c0 0 0.452-0.175 0.359-0.537-0.069-0.269-0.409-0.186-0.409-0.186s-0.359-0.226-0.607 0.067c-0.203 0.239-0.091 0.399-0.432 0.441s-0.391 0.391-0.757 0.349c0 0 0.249 0.324 0.632 0.116-0-0-0.009 0.313-0.715 0.549z"></path>
<path fill="#5aa587" d="M12.867 26.437c0 0 0.351 0.313-0.338 0.501 0 0 0.044-0.056 0.094-0.157 0 0-0.213 0.157-0.488 0.144 0 0 0.081-0.063 0.1-0.138 0 0-0.251 0.069-0.432-0.050 0 0 0.219-0.012 0.357-0.219 0 0 0.063 0.125 0.194 0.063s0.207 0.027 0.326 0.031c0.097 0.003 0.182-0.047 0.188-0.175z"></path>
<path fill="#5aa587" d="M12.694 24.504c0 0-0.251 0.117-0.134 0.338 0.078 0.148 0.322 0.183 0.418 0.046 0.081-0.117 0.017-0.23-0.069-0.246-0.090-0.017-0.144 0.021-0.186 0.096-0 0-0.155-0.058-0.029-0.234z"></path>
<path fill="#5aa587" d="M13.819 24.893c0 0 0.544 0.021 0.517 0.398-0.012 0.166-0.236 0.282-0.378 0.195-0.121-0.074-0.101-0.198-0.038-0.253 0.069-0.060 0.138-0.039 0.206 0.013 0 0 0.035-0.206-0.307-0.353z"></path>
<path fill="#5aa587" d="M14.906 24.16c0 0 0.294-0.197 0.408 0.038 0.050 0.103-0.043 0.25-0.158 0.247-0.098-0.002-0.129-0.083-0.11-0.138 0.021-0.060 0.069-0.071 0.128-0.063 0 0 0.018-0.152-0.267-0.084z"></path>
<path fill="#5aa587" d="M15.305 24.014c0 0 0.271-0.182 0.376 0.035 0.046 0.095-0.040 0.231-0.146 0.228-0.090-0.002-0.119-0.077-0.102-0.127 0.019-0.055 0.064-0.065 0.118-0.058 0 0 0.016-0.141-0.246-0.077z"></path>
<path fill="#5aa587" d="M14.29 25.215c0 0 0.468 0.018 0.445 0.342-0.010 0.143-0.203 0.242-0.325 0.168-0.104-0.064-0.11-0.181-0.064-0.237 0.078-0.097 0.172-0.053 0.172-0.053s0.067-0.093-0.227-0.22z"></path>
<path fill="#5aa587" d="M14.633 25.472c0 0 0.517-0.050 0.478 0.299-0.010 0.091-0.13 0.155-0.208 0.107-0.066-0.041-0.070-0.116-0.041-0.152 0.050-0.062 0.11-0.034 0.11-0.034s-0.032-0.154-0.339-0.22z"></path>
<path fill="#ffe6d7" d="M11.32 27.131c0 0 0.071 0.143 0.116 0.283 0.039 0.119 0.241 0.2 0.349 0.125s0.291-0.299 0.216-0.348c-0.075-0.050-0.399-0.009-0.449-0.184s-0.033-0.291-0.033-0.291 0.433 0.129 0.64-0.197c0.207-0.326 0.177-0.644 0.258-0.801 0.063-0.123 0.175-0.183 0.175-0.183-0.127-0.504-1.68-0.865-1.5 0.444l-0.244 0.554 0.471 0.599z"></path>
<path fill="#5aa587" d="M10.77 27.109c0.106 0.069 0.497 0.267 0.739 0.117 0.198-0.123 0.2-0.263 0.075-0.294s-0.194 0.056-0.263 0-0.457-0.376-0.313-0.476 0.222-0.181 0.219-0.357c-0.002-0.129-0.115-0.255-0.248-0.267-0.167-0.016-0.296 0.054-0.472 0.054l0.205 0.104c-0.132 0.063-0.142 0.24-0.299 0.271 0 0 0.106 0.121 0.24 0.084 0 0-0.046 0.125-0.171 0.142 0 0 0.117 0.134 0.225 0.171 0 0-0.071 0.050-0.182 0.029 0 0 0.173 0.255 0.432 0.319l-0.188 0.102z"></path>
<path fill="#5aa587" d="M11.524 26.632c0 0 0.070-0.012 0.076-0.097 0.003-0.049-0.045-0.112-0.128-0.107-0.097 0.006-0.163 0.135-0.117 0.22 0.119 0.219 0.563 0.131 0.617 0.052-0 0-0.355 0.017-0.448-0.068z"></path>
<path fill="#ffe15a" d="M11.732 27.672c0.019-0.027 0.035-0.101-0.003-0.146 0 0 0.020-0.105 0.1-0.067 0 0 0.034 0.084 0.007 0.142s-0.104 0.071-0.104 0.071z"></path>
<path fill="#ffe15a" d="M11.895 27.614c-0.001-0.076-0.018-0.117-0.079-0.123 0 0-0.016-0.11 0.075-0.11 0 0 0.067 0.059 0.068 0.124s-0.064 0.109-0.064 0.109z"></path>
<path fill="#ffe15a" d="M11.995 27.54c-0.015-0.074-0.029-0.126-0.097-0.131 0 0-0.036-0.090 0.064-0.102 0 0 0.064 0.051 0.076 0.114s-0.043 0.119-0.043 0.119z"></path>
<path fill="#ffe15a" d="M12.096 27.425c-0.031-0.069-0.062-0.097-0.129-0.087 0 0-0.058-0.081 0.022-0.125 0 0 0.097 0.028 0.123 0.087s-0.016 0.125-0.016 0.125z"></path>
<path fill="#ffe15a" d="M13.285 27.002c0.014-0.030 0.017-0.105-0.028-0.143 0 0 0.001-0.107 0.087-0.084 0 0 0.048 0.077 0.032 0.139s-0.090 0.088-0.090 0.088z"></path>
<path fill="#ffe15a" d="M13.435 26.915c-0.015-0.074-0.039-0.112-0.1-0.107 0 0-0.035-0.105 0.055-0.121 0 0 0.077 0.047 0.089 0.11s-0.043 0.119-0.043 0.119z"></path>
<path fill="#ffe15a" d="M13.521 26.825c-0.028-0.070-0.051-0.119-0.119-0.112 0 0-0.052-0.082 0.045-0.112 0 0 0.072 0.039 0.095 0.099s-0.021 0.124-0.021 0.124z"></path>
<path fill="#ffe15a" d="M13.599 26.694c-0.043-0.063-0.078-0.084-0.142-0.063 0 0-0.071-0.070-0.001-0.127 0 0 0.101 0.010 0.136 0.064s0.007 0.126 0.007 0.126z"></path>
<path fill="#ffe6d7" d="M15.366 22.838c0.014 0.068-0.021 0.142-0.184 0.213s-0.159 0.042-0.267 0.18-0.121 0.142-0.255 0.167c-0.134 0.025-0.196 0.438-0.038 0.376s0.18-0.192 0.355-0.15 0.267 0.1 0.405-0.054c0 0 0.134 0.18-0.117 0.255s-0.387 0.081-0.511 0.139c-0.124 0.058-0.563 0.198-0.591-0.212-0.008-0.119 0.079-0.165 0.129-0.253s0.1-0.146 0.221-0.242c0.121-0.096 0.046-0.175 0.242-0.205s0.359-0.025 0.418-0.167 0.175-0.129 0.192-0.046z"></path>
<path fill="#5aa587" d="M12.078 24.828c0 0-0.038-0.15 0.137-0.213-0.041 0.012-0.079 0.024-0.122 0.037-0.037 0.011-0.066 0.022-0.1 0.033-0.013 0.018-0.031 0.028-0.040 0.053-0.053 0.149 0.078 0.341 0.235 0.32 0.133-0.018 0.171-0.136 0.128-0.205-0.046-0.073-0.146-0.090-0.237-0.025z"></path>
<path fill="#5aa587" d="M12.132 26.416c-0.189 0.042-0.274-0.031-0.274-0.031s0.070-0.012 0.076-0.097c0.003-0.049-0.045-0.112-0.128-0.107-0.097 0.006-0.163 0.135-0.117 0.22 0.103 0.188 0.394 0.144 0.522 0.010 0.007-0.014 0.014-0.027 0.020-0.041-0.028 0.018-0.064 0.038-0.098 0.045z"></path>
<path fill="#5aa587" d="M12.324 26.1c0.005-0.021 0.012-0.043 0.016-0.064-0.223 0.090-0.287-0.023-0.287-0.023s0.070-0.012 0.076-0.097c0.003-0.049-0.045-0.112-0.128-0.107-0.097 0.006-0.163 0.135-0.117 0.22 0.109 0.2 0.303 0.144 0.441 0.071z"></path>
<path fill="#5aa587" d="M12.824 26.206c-0.129 0.116-0.228 0.11-0.228 0.11s0.052-0.048 0.010-0.122c-0.024-0.043-0.099-0.069-0.166-0.020-0.078 0.058-0.063 0.202 0.023 0.248 0.211 0.114 0.348-0.062 0.421-0.204-0.020-0.003-0.040-0.007-0.060-0.012z"></path>
<path fill="#ffe15a" d="M16.157 26.094c-0.009-0.046-0.058-0.134-0.117-0.14 0 0-0.070-0.123 0.010-0.168 0 0 0.088 0.047 0.117 0.132s-0.009 0.176-0.009 0.176z"></path>
<path fill="#ffe15a" d="M16.213 25.87c-0.061-0.072-0.104-0.096-0.147-0.039 0 0-0.096-0.091-0.040-0.184 0 0 0.089-0.011 0.14 0.052s0.046 0.171 0.046 0.171z"></path>
<path fill="#ffe15a" d="M16.218 25.696c-0.068-0.057-0.118-0.093-0.164-0.029 0 0-0.094-0.051-0.041-0.165 0 0 0.081-0.015 0.138 0.034s0.067 0.16 0.067 0.16z"></path>
<path fill="#ffe15a" d="M16.19 25.481c-0.074-0.036-0.115-0.032-0.149 0.047 0 0-0.101-0.020-0.085-0.145 0 0 0.083-0.072 0.146-0.041s0.089 0.139 0.089 0.139z"></path>
<path fill="#f5f5f5" d="M14.676 23.007c0.062 0.112-0.052 0.226-0.164 0.164-0.014-0.008-0.027-0.020-0.035-0.035-0.062-0.112 0.052-0.226 0.164-0.164 0.014 0.008 0.027 0.020 0.035 0.035z"></path>
<path fill="#41479b" d="M14.614 23.051c0.019 0.039-0.019 0.077-0.058 0.058-0.007-0.003-0.013-0.010-0.017-0.017-0.019-0.039 0.019-0.077 0.058-0.058 0.007 0.003 0.013 0.010 0.017 0.017z"></path>
<path fill="#f5f5f5" d="M14.899 22.594c0.049 0.090-0.042 0.181-0.133 0.133-0.013-0.007-0.023-0.018-0.030-0.030-0.049-0.090 0.042-0.181 0.133-0.133 0.013 0.007 0.023 0.018 0.030 0.030z"></path>
<path fill="#41479b" d="M14.849 22.63c0.013 0.030-0.016 0.059-0.046 0.046-0.007-0.003-0.013-0.009-0.016-0.016-0.013-0.030 0.016-0.059 0.046-0.046 0.007 0.003 0.013 0.009 0.016 0.016z"></path>
<path fill="#fff5e6" d="M11.446 24.94c-0.108 0.083-0.482-0.1-0.745-0.012-0.34 0.113-0.337 0.332-0.337 0.332s0.212-0.263 0.565-0.134c0.195 0.072 0.309 0.075 0.309 0.075l0.209-0.261z"></path>
<path fill="#ffe15a" d="M17.589 23.656c-0.072-0.009-0.163-0.031-0.169-0.141 0 0 0.163-0.016 0.163-0.003s0.006 0.144 0.006 0.144z"></path>
<path fill="#ff4b55" d="M19.224 23.249c-0.081 0.023-0.161 0.040-0.186 0.14 0 0-0.084-0.167 0.033-0.267 0.021-0.018 0.152 0.127 0.152 0.127z"></path>
<path fill="#ff4b55" d="M18.877 22.969c-0.081 0.023-0.161 0.040-0.186 0.14 0 0-0.084-0.167 0.033-0.267 0.021-0.018 0.152 0.127 0.152 0.127z"></path>
<path fill="#ffe15a" d="M19.199 23.55c0.050-0.012 0.138-0.125 0.025-0.301s0.382 0.088 0.401 0.232c0.019 0.144 0.038 0.401-0.075 0.332s-0.351-0.263-0.351-0.263z"></path>
<path fill="#ff4b55" d="M18.662 23.569c-0.017-0.092 0-0.154-0.117-0.238s-0.134-0.129-0.134-0.184c0 0 0.064 0.068 0.176 0.096 0.069 0.017 0.128 0.067 0.128 0.067s0.029-0.104-0.075-0.163c0 0 0.184 0 0.213 0.167s-0.067 0.192 0.071 0.209c0.138 0.017 0.459-0.050 0.572 0.205s-0.23 0.071-0.321 0.038c-0.092-0.033-0.384 0.038-0.43-0.025s-0.084-0.171-0.084-0.171z"></path>
<path fill="#fff5e6" d="M19.866 24.026l-0.495-0.814c0 0-0.492-0.19-0.496-0.215s-0.163-0.23-0.163-0.259c0-0.029 0.017-0.171 0.079-0.196s0.262 0.059 0.349 0.081 0.223-0.14 0.223-0.14 0.797 0.15 0.856 0.246 0.334 0.785 0.346 0.856c0.012 0.071 0 0.559-0.017 0.551s-0.684-0.111-0.684-0.111z"></path>
<path fill="#ff4b55" d="M18.729 22.88c0 0 0.154 0.096 0.238 0.125s0.224-0.127 0.2-0.213c-0.029-0.109-0.154-0.109-0.213-0.196s-0.196-0.088-0.271 0.021c-0.075 0.108 0.046 0.263 0.046 0.263zM18.926 22.752c0.036-0.025 0.108-0.023 0.107 0.026s-0.087 0.103-0.121 0.059c-0.028-0.036-0.009-0.069 0.014-0.085zM18.758 22.647c0.021-0.038 0.087-0.068 0.108-0.024s-0.032 0.131-0.082 0.107c-0.041-0.020-0.039-0.058-0.025-0.083z"></path>
<path fill="#fff5e6" d="M18.525 25.775c-0.083 0.008-0.193-0.003-0.216-0.191-0.026-0.216-0.091-0.291-0.2-0.241s-0.081 0.136-0.081 0.136-0.119 0.313-0.056 0.438 0.207 0.276 0.313 0.301 0.326-0.119 0.326-0.119l-0.085-0.324z"></path>
<path fill="#ffe6d7" d="M19.126 25.046c-0.071-0.033-0.948-0.643-1.052-0.872s-0.046-0.397-0.184-0.405c-0.138-0.008-0.372-0.017-0.351-0.188s0.25-0.063 0.313-0.096 0.259-0.125 0.296 0.008 0 0.255 0.054 0.321c0.054 0.067 0.296 0.184 0.338 0.175s0.131-0.019 0.199 0.024c0.068 0.043 0.106 0.101 0.106 0.101s0.257 0.010 0.293 0.045c0.037 0.034 0.174 0.218 0.174 0.218l-0.188 0.668z"></path>
<path fill="#5aa587" d="M19.034 24.909c0 0-0.167-0.063-0.286-0.294s-0.238-0.138-0.413-0.263c-0.175-0.125-0.063-0.313-0.012-0.388s0.016-0.269-0.157-0.263c-0.113 0.004-0.476 0.357-0.313 0.708 0 0 0.025-0.063 0.088-0.138 0 0-0.094 0.232 0.125 0.488 0 0-0.006-0.131 0.063-0.219 0 0 0.006 0.326 0.257 0.532 0 0-0.031-0.213 0.006-0.301 0 0 0.038 0.282 0.407 0.539 0 0-0.056-0.1-0.044-0.263l0.313 0.163-0.033-0.301z"></path>
<path fill="#f5dcd2" d="M21.415 25.979c0 0 0.113 0.344-0.194 0.445s-0.476-0.031-0.589 0-0.088 0.232 0.069 0.401 0.313 0.188 0.488 0.063 0.188-0.238 0.369-0.194c0.182 0.044 0.432-0.131 0.432-0.131s-0.163-0.708-0.182-0.701c-0.019 0.006-0.394 0.119-0.394 0.119z"></path>
<path fill="#fff5e6" d="M23.008 25.118c0 0-0.216-0.208-1.056-0.466s-1.289-0.366-1.289-0.366l-0.657-0.208c0 0-0.309-0.001-0.512-0.059s-0.203-0.058-0.203-0.058-0.541 0.765-0.133 1.539l-0.141 0.133c0 0-0.149 0.045-0.261 0.085s-0.030 0.256-0.030 0.256l0.433 0.2 1.264-0.058c0 0 0.025-0.058 0.441 0.075s0.599-0.166 1.397-0.191 0.748-0.882 0.748-0.882z"></path>
<path fill="#5aa587" d="M19.414 22.132c0 0-0.127 0.127-0.058 0.263 0 0 0.142-0.146 0.259-0.18 0.18-0.051 0.217 0.047 0.615 0.066 0.25 0.012 0.351 0.252 0.596 0.193 0.262-0.063 0.478 0.057 0.478 0.057s-0.15-0.019-0.272 0.097c-0.122 0.116-0.338 0.091-0.338 0.091s0.197 0.138 0.363 0.072c0.166-0.066 0.404 0.056 0.404 0.056-0.044-0.003-0.141 0.012-0.25 0.128s-0.354 0.088-0.354 0.088c0.044 0.053 0.166 0.113 0.281 0.091 0.262-0.050 0.541 0.067 0.541 0.067s-0.166-0.058-0.391 0.108-0.482 0.067-0.482 0.067c0 0.108 0.225 0.525 0.624 0.51 0.497-0.018 0.623 0.271 0.623 0.271s-0.2-0.067-0.457-0.025c-0.499 0.081-0.84-0.208-0.84-0.208s0.083 0.391 0.424 0.374 0.773 0.333 0.773 0.333-0.384-0.069-0.88-0.075c-0.163-0.002-0.296-0.066-0.409-0.143-0.298-0.201-0.574-0.201-0.574-0.201 0.326 0.075 0.495 0.432 0.495 0.432s-0.25-0.219-0.614-0.219-0.476-0.426-0.476-0.426c0.338 0.006 0.388-0.269 0.388-0.269s0.1 0.031 0.194 0.144c0.059 0.071 0.16 0.096 0.229 0.105 0.025-0.22-0.141-0.42-0.141-0.42s0.225-0.341-0.067-0.707c-0.291-0.366-0.956-0.25-0.956-0.25-0.069-0.307 0.19-0.499 0.273-0.49z"></path>
<path fill="#5aa587" d="M20.090 23.343c-0.109-0.017-0.614-0.184-0.605-0.409s0.309-0.146 0.292-0.025-0.125 0.096-0.125 0.096 0.011 0.055 0.234 0.1c0.184 0.038 0.204 0.238 0.204 0.238z"></path>
<path fill="#5aa587" d="M18.754 25.719c0 0-0.313-0.050-0.301 0.175s0.192 0.463 0.564 0.568c0 0-0.138-0.119-0.106-0.188s0.188-0.088 0.269 0.031c0.081 0.119 0.219 0.169 0.338 0.15 0 0-0.213-0.157-0.063-0.213 0.135-0.051 0.084 0.169 0.407 0.207 0 0-0.238-0.188-0.1-0.238s0.213 0.276 0.457 0.25c0 0-0.205-0.205-0.094-0.238 0.174-0.053 0.219 0.25 0.532 0.119 0 0-0.157-0.069-0.031-0.238s-0.050-0.382-0.138-0.47c-0.088-0.088-0.15-0.144-0.125-0.232 0 0-0.223 0.14-0.111 0.386 0.106 0.231-0.323 0.104-0.655 0.075-0.342-0.029-0.545 0.167-0.764 0.1-0.205-0.063-0.079-0.246-0.079-0.246z"></path>
<path fill="#5aa587" d="M24.812 25.825c0 0-0.411 0.189-0.644-0.002s-0.296 0.035-0.571-0.131c-0.274-0.166-0.258-0.075-0.474-0.075s-0.374-0.349-0.241-0.59c0 0-0.452-0.175-0.359-0.537 0.069-0.269 0.409-0.186 0.409-0.186s0.359-0.226 0.607 0.067c0.203 0.239 0.091 0.399 0.433 0.441s0.391 0.391 0.757 0.349c0 0-0.25 0.324-0.632 0.116 0-0 0.009 0.313 0.715 0.549z"></path>
<path fill="#5aa587" d="M21.177 26.437c0 0-0.351 0.313 0.338 0.501 0 0-0.044-0.056-0.094-0.157 0 0 0.213 0.157 0.488 0.144 0 0-0.081-0.063-0.1-0.138 0 0 0.25 0.069 0.432-0.050 0 0-0.219-0.012-0.357-0.219 0 0-0.063 0.125-0.194 0.063s-0.207 0.027-0.326 0.031c-0.097 0.003-0.182-0.047-0.188-0.175z"></path>
<path fill="#5aa587" d="M21.351 24.504c0 0 0.25 0.117 0.134 0.338-0.078 0.148-0.322 0.183-0.418 0.046-0.081-0.117-0.017-0.23 0.069-0.246 0.090-0.017 0.144 0.021 0.186 0.096 0 0 0.155-0.058 0.029-0.234z"></path>
<path fill="#5aa587" d="M20.226 24.893c0 0-0.544 0.021-0.517 0.398 0.012 0.166 0.236 0.282 0.378 0.195 0.121-0.074 0.101-0.198 0.038-0.253-0.069-0.060-0.138-0.039-0.206 0.013 0 0-0.035-0.206 0.307-0.353z"></path>
<path fill="#5aa587" d="M19.139 24.16c0 0-0.294-0.197-0.408 0.038-0.050 0.103 0.044 0.25 0.158 0.247 0.098-0.002 0.129-0.083 0.11-0.138-0.020-0.060-0.069-0.071-0.128-0.063 0 0-0.018-0.152 0.267-0.084z"></path>
<path fill="#5aa587" d="M18.74 24.014c0 0-0.271-0.182-0.376 0.035-0.046 0.095 0.040 0.231 0.146 0.228 0.090-0.002 0.119-0.077 0.102-0.127-0.019-0.055-0.064-0.065-0.118-0.058 0 0-0.016-0.141 0.246-0.077z"></path>
<path fill="#5aa587" d="M19.755 25.215c0 0-0.468 0.018-0.445 0.342 0.010 0.143 0.203 0.242 0.325 0.168 0.104-0.064 0.11-0.181 0.064-0.237-0.078-0.097-0.172-0.053-0.172-0.053s-0.067-0.093 0.227-0.22z"></path>
<path fill="#5aa587" d="M19.412 25.472c0 0-0.517-0.050-0.478 0.299 0.010 0.091 0.13 0.155 0.208 0.107 0.067-0.041 0.070-0.116 0.041-0.152-0.050-0.062-0.11-0.034-0.11-0.034s0.032-0.154 0.339-0.22z"></path>
<path fill="#ffe6d7" d="M22.725 27.131c0 0-0.071 0.143-0.116 0.283-0.039 0.119-0.241 0.2-0.349 0.125s-0.291-0.299-0.216-0.348 0.399-0.009 0.449-0.184c0.050-0.175 0.033-0.291 0.033-0.291s-0.433 0.129-0.64-0.197c-0.207-0.326-0.177-0.644-0.258-0.801-0.063-0.123-0.175-0.183-0.175-0.183 0.127-0.504 1.68-0.865 1.5 0.444l0.244 0.554-0.471 0.599z"></path>
<path fill="#5aa587" d="M23.275 27.109c-0.106 0.069-0.497 0.267-0.739 0.117-0.198-0.123-0.2-0.263-0.075-0.294s0.194 0.056 0.263 0c0.069-0.056 0.457-0.376 0.313-0.476s-0.222-0.181-0.219-0.357c0.002-0.129 0.115-0.255 0.248-0.267 0.167-0.016 0.296 0.054 0.472 0.054l-0.205 0.104c0.131 0.063 0.142 0.24 0.299 0.271 0 0-0.106 0.121-0.24 0.084 0 0 0.046 0.125 0.171 0.142 0 0-0.117 0.134-0.225 0.171 0 0 0.071 0.050 0.182 0.029 0 0-0.173 0.255-0.432 0.319l0.188 0.102z"></path>
<path fill="#5aa587" d="M22.521 26.632c0 0-0.070-0.012-0.076-0.097-0.003-0.049 0.045-0.112 0.128-0.107 0.097 0.006 0.163 0.135 0.116 0.22-0.119 0.219-0.563 0.131-0.617 0.052 0 0 0.355 0.017 0.448-0.068z"></path>
<path fill="#ffe15a" d="M22.313 27.672c-0.019-0.027-0.035-0.101 0.003-0.146 0 0-0.020-0.105-0.1-0.067 0 0-0.034 0.084-0.007 0.142s0.104 0.071 0.104 0.071z"></path>
<path fill="#ffe15a" d="M22.15 27.614c0.001-0.076 0.018-0.117 0.079-0.123 0 0 0.016-0.11-0.075-0.11 0 0-0.067 0.059-0.068 0.124s0.064 0.109 0.064 0.109z"></path>
<path fill="#ffe15a" d="M22.049 27.54c0.015-0.074 0.029-0.126 0.097-0.131 0 0 0.036-0.090-0.064-0.102 0 0-0.064 0.051-0.076 0.114s0.043 0.119 0.043 0.119z"></path>
<path fill="#ffe15a" d="M21.949 27.425c0.031-0.069 0.061-0.097 0.129-0.087 0 0 0.058-0.081-0.022-0.125 0 0-0.097 0.028-0.123 0.087s0.016 0.125 0.016 0.125z"></path>
<path fill="#ffe15a" d="M20.76 27.002c-0.014-0.030-0.017-0.105 0.029-0.143 0 0-0.001-0.107-0.087-0.084 0 0-0.048 0.077-0.032 0.139s0.090 0.088 0.090 0.088z"></path>
<path fill="#ffe15a" d="M20.61 26.915c0.015-0.074 0.039-0.112 0.1-0.107 0 0 0.035-0.105-0.055-0.121 0 0-0.077 0.047-0.089 0.11s0.043 0.119 0.043 0.119z"></path>
<path fill="#ffe15a" d="M20.524 26.825c0.028-0.070 0.051-0.119 0.119-0.112 0 0 0.052-0.082-0.045-0.112 0 0-0.072 0.039-0.095 0.099s0.021 0.124 0.021 0.124z"></path>
<path fill="#ffe15a" d="M20.445 26.694c0.043-0.063 0.078-0.084 0.142-0.063 0 0 0.071-0.070 0.001-0.127 0 0-0.101 0.010-0.136 0.064s-0.006 0.126-0.006 0.126z"></path>
<path fill="#ffe6d7" d="M18.679 22.838c-0.014 0.068 0.021 0.142 0.184 0.213s0.159 0.042 0.267 0.18 0.121 0.142 0.255 0.167 0.196 0.438 0.038 0.376-0.18-0.192-0.355-0.15-0.267 0.1-0.405-0.054c0 0-0.134 0.18 0.117 0.255s0.387 0.081 0.511 0.139c0.124 0.058 0.563 0.198 0.591-0.212 0.008-0.119-0.079-0.165-0.129-0.253s-0.1-0.146-0.221-0.242c-0.121-0.096-0.046-0.175-0.242-0.205s-0.359-0.025-0.418-0.167-0.175-0.129-0.192-0.046z"></path>
<path fill="#5aa587" d="M21.966 24.828c0 0 0.038-0.15-0.137-0.213 0.041 0.012 0.079 0.024 0.122 0.037 0.037 0.011 0.066 0.022 0.1 0.033 0.013 0.018 0.031 0.028 0.040 0.053 0.053 0.149-0.078 0.341-0.235 0.32-0.134-0.018-0.171-0.136-0.128-0.205 0.046-0.073 0.146-0.090 0.237-0.025z"></path>
<path fill="#5aa587" d="M21.912 26.416c0.189 0.042 0.274-0.031 0.274-0.031s-0.070-0.012-0.076-0.097c-0.003-0.049 0.045-0.112 0.128-0.107 0.097 0.006 0.163 0.135 0.116 0.22-0.103 0.188-0.394 0.144-0.522 0.010-0.007-0.014-0.014-0.027-0.020-0.041 0.028 0.018 0.064 0.038 0.098 0.045z"></path>
<path fill="#5aa587" d="M21.721 26.1c-0.005-0.021-0.012-0.043-0.016-0.064 0.223 0.090 0.287-0.023 0.287-0.023s-0.070-0.012-0.076-0.097c-0.003-0.049 0.045-0.112 0.128-0.107 0.097 0.006 0.163 0.135 0.116 0.22-0.109 0.2-0.302 0.144-0.441 0.071z"></path>
<path fill="#5aa587" d="M21.221 26.206c0.129 0.116 0.228 0.11 0.228 0.11s-0.052-0.048-0.010-0.122c0.024-0.043 0.099-0.069 0.166-0.020 0.078 0.058 0.063 0.202-0.023 0.248-0.211 0.114-0.348-0.062-0.421-0.204 0.020-0.003 0.040-0.007 0.060-0.012z"></path>
<path fill="#ffe15a" d="M17.888 26.094c0.009-0.046 0.058-0.134 0.117-0.14 0 0 0.070-0.123-0.010-0.168 0 0-0.088 0.047-0.117 0.132s0.009 0.176 0.009 0.176z"></path>
<path fill="#ffe15a" d="M17.832 25.87c0.061-0.072 0.104-0.096 0.147-0.039 0 0 0.096-0.091 0.040-0.184 0 0-0.089-0.011-0.14 0.052s-0.046 0.171-0.046 0.171z"></path>
<path fill="#ffe15a" d="M17.827 25.696c0.068-0.057 0.118-0.093 0.164-0.029 0 0 0.094-0.051 0.041-0.165 0 0-0.081-0.015-0.138 0.034s-0.067 0.16-0.067 0.16z"></path>
<path fill="#ffe15a" d="M17.855 25.481c0.074-0.036 0.115-0.032 0.149 0.047 0 0 0.101-0.020 0.085-0.145 0 0-0.083-0.072-0.146-0.041s-0.089 0.139-0.089 0.139z"></path>
<path fill="#f5f5f5" d="M19.369 23.007c-0.062 0.112 0.052 0.226 0.164 0.164 0.014-0.008 0.027-0.020 0.035-0.035 0.062-0.112-0.052-0.226-0.164-0.164-0.014 0.008-0.027 0.020-0.035 0.035z"></path>
<path fill="#41479b" d="M19.43 23.051c-0.019 0.039 0.019 0.077 0.058 0.058 0.007-0.003 0.013-0.010 0.017-0.017 0.019-0.039-0.019-0.077-0.058-0.058-0.007 0.003-0.013 0.010-0.017 0.017z"></path>
<path fill="#f5f5f5" d="M19.145 22.594c-0.049 0.090 0.042 0.181 0.133 0.133 0.013-0.007 0.023-0.018 0.030-0.030 0.049-0.090-0.042-0.181-0.133-0.133-0.013 0.007-0.023 0.018-0.030 0.030z"></path>
<path fill="#41479b" d="M19.196 22.63c-0.013 0.030 0.016 0.059 0.046 0.046 0.007-0.003 0.013-0.009 0.016-0.016 0.013-0.030-0.016-0.059-0.046-0.046-0.007 0.003-0.013 0.009-0.016 0.016z"></path>
<path fill="#fff5e6" d="M22.599 24.94c0.108 0.083 0.482-0.1 0.745-0.012 0.34 0.113 0.337 0.332 0.337 0.332s-0.212-0.263-0.565-0.134c-0.195 0.072-0.309 0.075-0.309 0.075l-0.209-0.261z"></path>
</svg>
