<svg xmlns="http://www.w3.org/2000/svg" width="32" height="32" version="1.1" viewBox="0 0 32 32"><title>togo</title><path fill="#73af00" d="M0 0h32v6.4h-32v-6.4z"/><path fill="#73af00" d="M0 12.8h32v6.4h-32v-6.4z"/><path fill="#ffe15a" d="M0 6.4h32v6.4h-32v-6.4z"/><path fill="#73af00" d="M0 25.6h32v6.4h-32v-6.4z"/><path fill="#ffe15a" d="M0 19.2h32v6.4h-32v-6.4z"/><path fill="#ff4b55" d="M18.868 19.2h-18.868v-19.2h19.368v18.7c0 0.276-0.224 0.5-0.5 0.5z"/><path fill="#f5f5f5" d="M9.476 4.518l-1.217 3.649-3.847 0.030c-0.211 0.002-0.298 0.271-0.129 0.396l3.094 2.285-1.16 3.668c-0.064 0.201 0.165 0.367 0.337 0.245l3.129-2.237 3.129 2.237c0.172 0.123 0.4-0.044 0.337-0.245l-1.16-3.668 3.094-2.285c0.17-0.125 0.082-0.394-0.129-0.396l-3.847-0.030-1.217-3.649c-0.067-0.2-0.35-0.2-0.416 0z"/></svg>