<!-- Generated by IcoMoon.io -->
<svg version="1.1" xmlns="http://www.w3.org/2000/svg" width="32" height="32" viewBox="0 0 32 32">
<title>tunisia</title>
<path fill="#ff4b55" d="M0 0h32v32h-32v-32z"></path>
<path fill="#f5f5f5" d="M16.096 7.579c4.647 0 8.414 3.777 8.414 8.421 0 4.657-3.767 8.421-8.414 8.421-4.657 0-8.428-3.764-8.428-8.421 0-4.644 3.77-8.421 8.428-8.421z"></path>
<path fill="#ff4b55" d="M17.626 20.719c-2.607 0-4.721-2.114-4.721-4.718 0-2.598 2.114-4.712 4.721-4.712 0.887 0 1.715 0.248 2.424 0.677 0.106 0.064 0.218-0.075 0.129-0.162-1.063-1.047-2.517-1.695-4.125-1.695-3.263 0-5.904 2.642-5.904 5.892 0 3.256 2.642 5.898 5.904 5.898 1.606 0 3.061-0.648 4.123-1.695 0.088-0.087-0.023-0.226-0.129-0.162-0.708 0.429-1.536 0.677-2.422 0.677z"></path>
<path fill="#ff4b55" d="M17.194 12.698l1.302 1.767 2.093-0.659c0.271-0.085 0.495 0.223 0.329 0.454l-1.279 1.784 1.274 1.787c0.165 0.231-0.060 0.54-0.33 0.453l-2.092-0.665-1.306 1.764c-0.169 0.228-0.532 0.11-0.533-0.174l-0.014-2.195-2.081-0.697c-0.269-0.090-0.269-0.472 0.001-0.561l2.083-0.692 0.020-2.195c0.003-0.284 0.365-0.401 0.534-0.173z"></path>
</svg>
