<svg xmlns="http://www.w3.org/2000/svg" width="32" height="32" version="1.1" viewBox="0 0 32 32"><title>turkey</title><path fill="#ff4b55" d="M0 0h32v32h-32v-32z"/><path fill="#f5f5f5" d="M17.375 13.23l0.979 1.281 1.529-0.512c0.085-0.029 0.158 0.068 0.107 0.142l-0.915 1.327 0.959 1.296c0.054 0.072-0.016 0.171-0.102 0.146l-1.545-0.461-0.936 1.312c-0.052 0.073-0.168 0.038-0.17-0.052l-0.039-1.611-1.537-0.485c-0.086-0.027-0.088-0.148-0.003-0.178l1.52-0.535-0.014-1.612c-0.001-0.090 0.114-0.129 0.168-0.058z"/><path fill="#f5f5f5" d="M11.961 20.369c-2.759 0-4.997-2.238-4.997-4.999 0-2.756 2.238-4.999 4.997-4.999 1.026 0 1.973 0.316 2.762 0.85 0.121 0.082 0.259-0.077 0.158-0.182-1.179-1.226-2.847-1.973-4.697-1.91-3.178 0.108-5.809 2.657-6.013 5.83-0.233 3.635 2.646 6.656 6.229 6.656 1.765 0 3.352-0.738 4.485-1.918 0.1-0.104-0.038-0.261-0.158-0.18-0.79 0.535-1.738 0.851-2.766 0.851z"/></svg>