<!-- Generated by IcoMoon.io -->
<svg version="1.1" xmlns="http://www.w3.org/2000/svg" width="32" height="32" viewBox="0 0 32 32">
<title>tuvalu</title>
<path fill="#3cc8ff" d="M0 0h32v32h-32v-32z"></path>
<path fill="#ffe15a" d="M18.035 25.686l0.269 0.805 0.849 0.007c0.11 0.001 0.155 0.141 0.067 0.206l-0.683 0.504 0.256 0.809c0.033 0.105-0.086 0.191-0.176 0.128l-0.691-0.494-0.691 0.494c-0.089 0.064-0.209-0.023-0.176-0.128l0.256-0.809-0.683-0.504c-0.088-0.065-0.043-0.206 0.067-0.206l0.849-0.007 0.269-0.805c0.035-0.104 0.182-0.104 0.217 0z"></path>
<path fill="#ffe15a" d="M25.847 19.61l0.269 0.805 0.849 0.007c0.11 0.001 0.155 0.141 0.067 0.206l-0.683 0.504 0.256 0.809c0.033 0.105-0.086 0.191-0.176 0.128l-0.691-0.494-0.691 0.494c-0.089 0.064-0.209-0.023-0.176-0.128l0.256-0.809-0.683-0.504c-0.088-0.065-0.043-0.206 0.067-0.206l0.849-0.007 0.269-0.805c0.035-0.104 0.182-0.104 0.217 0z"></path>
<path fill="#ffe15a" d="M29.531 17.353l0.269 0.805 0.849 0.007c0.11 0.001 0.155 0.141 0.067 0.206l-0.683 0.504 0.256 0.809c0.033 0.105-0.086 0.191-0.176 0.128l-0.691-0.494-0.691 0.494c-0.089 0.064-0.209-0.023-0.176-0.128l0.256-0.809-0.683-0.504c-0.088-0.065-0.043-0.206 0.067-0.206l0.849-0.007 0.269-0.805c0.035-0.104 0.182-0.104 0.217 0z"></path>
<path fill="#ffe15a" d="M28.652 9.606l0.269 0.805 0.849 0.007c0.11 0.001 0.155 0.141 0.067 0.206l-0.683 0.504 0.256 0.809c0.033 0.105-0.086 0.191-0.176 0.128l-0.691-0.494-0.691 0.494c-0.089 0.064-0.209-0.023-0.176-0.128l0.256-0.809-0.683-0.504c-0.088-0.065-0.043-0.206 0.067-0.206l0.849-0.007 0.269-0.805c0.035-0.104 0.182-0.104 0.217 0z"></path>
<path fill="#ffe15a" d="M21.301 27.698l-0.269-0.805-0.849-0.007c-0.11-0.001-0.155-0.141-0.067-0.206l0.683-0.504-0.256-0.809c-0.033-0.105 0.086-0.191 0.176-0.128l0.691 0.494 0.691-0.494c0.089-0.064 0.209 0.023 0.176 0.128l-0.256 0.809 0.683 0.504c0.088 0.065 0.043 0.206-0.067 0.206l-0.849 0.007-0.269 0.805c-0.035 0.104-0.182 0.104-0.217 0z"></path>
<path fill="#ffe15a" d="M23.84 25.42l-0.269-0.805-0.849-0.007c-0.11-0.001-0.155-0.141-0.067-0.206l0.683-0.504-0.256-0.809c-0.033-0.105 0.086-0.191 0.176-0.128l0.691 0.494 0.691-0.494c0.089-0.064 0.209 0.023 0.176 0.128l-0.256 0.809 0.683 0.504c0.088 0.065 0.043 0.206-0.067 0.206l-0.849 0.007-0.269 0.805c-0.035 0.104-0.182 0.104-0.217 0z"></path>
<path fill="#ffe15a" d="M26.124 15.482l-0.269-0.805-0.849-0.007c-0.11-0.001-0.155-0.141-0.067-0.206l0.683-0.504-0.256-0.809c-0.033-0.105 0.086-0.191 0.176-0.128l0.691 0.494 0.691-0.494c0.089-0.064 0.209 0.023 0.176 0.128l-0.256 0.809 0.683 0.504c0.088 0.065 0.043 0.206-0.067 0.206l-0.849 0.007-0.269 0.805c-0.035 0.104-0.182 0.104-0.217 0z"></path>
<path fill="#ffe15a" d="M23.488 16.329l-0.269-0.805-0.849-0.007c-0.11-0.001-0.155-0.141-0.067-0.206l0.683-0.504-0.256-0.809c-0.033-0.105 0.086-0.191 0.176-0.128l0.691 0.494 0.691-0.494c0.089-0.064 0.209 0.023 0.176 0.128l-0.256 0.809 0.683 0.504c0.088 0.065 0.043 0.206-0.067 0.206l-0.849 0.007-0.269 0.805c-0.035 0.104-0.182 0.104-0.217 0z"></path>
<path fill="#ffe15a" d="M21.8 22.903l-0.269-0.805-0.849-0.007c-0.11-0.001-0.155-0.141-0.067-0.206l0.683-0.504-0.256-0.809c-0.033-0.105 0.086-0.191 0.176-0.128l0.691 0.494 0.691-0.494c0.089-0.064 0.209 0.023 0.176 0.128l-0.256 0.809 0.683 0.504c0.088 0.065 0.043 0.206-0.067 0.206l-0.849 0.007-0.269 0.805c-0.035 0.104-0.182 0.104-0.217 0z"></path>
<path fill="#41479b" d="M5.895 0h-5.895v1.249l5.895 3.862z"></path>
<path fill="#41479b" d="M0 4.269v1.626h2.482z"></path>
<path fill="#41479b" d="M0 10.105v1.626l2.482-1.626z"></path>
<path fill="#41479b" d="M16 1.249v-1.249h-5.895v5.111z"></path>
<path fill="#41479b" d="M16 11.731v-1.626h-2.482z"></path>
<path fill="#41479b" d="M10.105 10.889v5.111h5.895v-1.249z"></path>
<path fill="#41479b" d="M16 5.895v-1.626l-2.482 1.626z"></path>
<path fill="#41479b" d="M0 14.751v1.249h5.895v-5.111z"></path>
<path fill="#f5f5f5" d="M16 14.751v-1.248l-5.236-3.398h1.547l3.689 2.394v-0.768l-2.482-1.626h2.482v-0.842h-6.737v6.737h0.842v-5.111z"></path>
<path fill="#f5f5f5" d="M0 9.263v0.842h2.482l-2.482 1.626v1.181l4.325-2.807h1.547l-5.872 3.811v0.835l5.895-3.862v5.111h0.842v-6.737z"></path>
<path fill="#f5f5f5" d="M6.737 0h-0.842v5.111l-5.895-3.862v1.366l5.053 3.28h-1.547l-3.506-2.276v0.65l2.482 1.626h-2.482v0.842h6.737z"></path>
<path fill="#f5f5f5" d="M16 6.737v-0.842h-2.482l2.482-1.626v-1.196l-4.348 2.822h-1.547l5.895-3.826v-0.82l-5.895 3.862v-5.111h-0.842v6.737z"></path>
<path fill="#ff4b55" d="M16 9.263v-2.526h-6.737v-6.737h-2.526v6.737h-6.737v2.526h6.737v6.737h2.526v-6.737z"></path>
<path fill="#ff4b55" d="M4.325 10.105l-4.325 2.807v1.004l5.872-3.811z"></path>
<path fill="#ff4b55" d="M10.764 10.105l5.236 3.398v-1.004l-3.689-2.394z"></path>
<path fill="#ff4b55" d="M5.053 5.895l-5.053-3.28v1.004l3.506 2.276z"></path>
<path fill="#ff4b55" d="M11.652 5.895l4.348-2.822v-1.004l-5.895 3.826z"></path>
</svg>
