<svg xmlns="http://www.w3.org/2000/svg" width="32" height="32" version="1.1" viewBox="0 0 32 32"><title>united-kingdom</title><path fill="#41479b" d="M11.79 0h-11.79v2.497l11.79 7.724z"/><path fill="#41479b" d="M0 8.537v3.252h4.964z"/><path fill="#41479b" d="M0 20.211v3.252l4.964-3.252z"/><path fill="#41479b" d="M32 2.497v-2.497h-11.79v10.221z"/><path fill="#41479b" d="M32 23.463v-3.252h-4.964z"/><path fill="#41479b" d="M20.21 21.779v10.221h11.79v-2.497z"/><path fill="#41479b" d="M32 11.79v-3.252l-4.964 3.252z"/><path fill="#41479b" d="M0 29.503v2.497h11.79v-10.221z"/><path fill="#f5f5f5" d="M32 29.503v-2.495l-10.471-6.797h3.093l7.377 4.789v-1.537l-4.964-3.252h4.964v-1.684h-13.474v13.474h1.684v-10.221z"/><path fill="#f5f5f5" d="M0 18.526v1.684h4.964l-4.964 3.252v2.363l8.65-5.615h3.094l-11.743 7.623v1.67l11.79-7.724v10.221h1.684v-13.474z"/><path fill="#f5f5f5" d="M13.474 0h-1.684v10.221l-11.79-7.724v2.733l10.105 6.56h-3.094l-7.012-4.552v1.299l4.964 3.252h-4.964v1.684h13.474z"/><path fill="#f5f5f5" d="M32 13.474v-1.684h-4.964l4.964-3.252v-2.393l-8.696 5.645h-3.093l11.789-7.653v-1.639l-11.79 7.724v-10.221h-1.684v13.474z"/><path fill="#ff4b55" d="M32 18.526v-5.053h-13.474v-13.474h-5.053v13.474h-13.474v5.053h13.474v13.474h5.053v-13.474z"/><path fill="#ff4b55" d="M8.65 20.211l-8.65 5.615v2.008l11.743-7.623z"/><path fill="#ff4b55" d="M21.529 20.211l10.471 6.797v-2.008l-7.377-4.789z"/><path fill="#ff4b55" d="M10.105 11.79l-10.105-6.56v2.008l7.012 4.552z"/><path fill="#ff4b55" d="M23.304 11.79l8.696-5.645v-2.008l-11.79 7.653z"/></svg>