<!-- Generated by IcoMoon.io -->
<svg version="1.1" xmlns="http://www.w3.org/2000/svg" width="32" height="32" viewBox="0 0 32 32">
<title>united-states</title>
<path fill="#f5f5f5" d="M0 0.015h31.971v31.971h-31.971v-31.971z"></path>
<path fill="#ff4b55" d="M0 0.015h32v2.459h-32v-2.459z"></path>
<path fill="#ff4b55" d="M0 9.852h32v2.459h-32v-2.459z"></path>
<path fill="#ff4b55" d="M0 4.933h32v2.459h-32v-2.459z"></path>
<path fill="#ff4b55" d="M0 14.77h32v2.459h-32v-2.459z"></path>
<path fill="#ff4b55" d="M0 24.607h32v2.459h-32v-2.459z"></path>
<path fill="#ff4b55" d="M0 29.526h32v2.459h-32v-2.459z"></path>
<path fill="#ff4b55" d="M0 19.689h32v2.459h-32v-2.459z"></path>
<path fill="#41479b" d="M0 0.015h17.215v17.215h-17.215v-17.215z"></path>
<path fill="#f5f5f5" d="M2.201 1.301l0.133 0.398 0.419 0.003c0.054 0 0.077 0.070 0.033 0.102l-0.337 0.249 0.126 0.4c0.016 0.052-0.042 0.095-0.087 0.063l-0.341-0.244-0.341 0.244c-0.044 0.032-0.103-0.011-0.087-0.063l0.126-0.4-0.337-0.249c-0.044-0.032-0.021-0.101 0.033-0.102l0.419-0.003 0.133-0.398c0.017-0.052 0.090-0.052 0.107 0z"></path>
<path fill="#f5f5f5" d="M2.201 4.619l0.133 0.398 0.419 0.003c0.054 0 0.077 0.070 0.033 0.102l-0.337 0.249 0.126 0.4c0.016 0.052-0.042 0.095-0.087 0.063l-0.341-0.244-0.341 0.244c-0.044 0.032-0.103-0.011-0.087-0.063l0.126-0.4-0.337-0.249c-0.044-0.032-0.021-0.101 0.033-0.102l0.419-0.003 0.133-0.398c0.017-0.052 0.090-0.052 0.107 0z"></path>
<path fill="#f5f5f5" d="M2.201 8.299l0.133 0.398 0.419 0.003c0.054 0 0.077 0.070 0.033 0.102l-0.337 0.249 0.126 0.4c0.016 0.052-0.042 0.095-0.087 0.063l-0.341-0.244-0.341 0.244c-0.044 0.032-0.103-0.011-0.087-0.063l0.126-0.4-0.337-0.249c-0.044-0.032-0.021-0.102 0.033-0.102l0.419-0.003 0.133-0.398c0.017-0.052 0.090-0.052 0.107 0z"></path>
<path fill="#f5f5f5" d="M2.201 11.68l0.133 0.398 0.419 0.003c0.054 0 0.077 0.070 0.033 0.102l-0.337 0.249 0.126 0.4c0.016 0.052-0.042 0.095-0.087 0.063l-0.341-0.244-0.341 0.244c-0.044 0.032-0.103-0.011-0.087-0.063l0.126-0.4-0.337-0.249c-0.044-0.032-0.021-0.101 0.033-0.102l0.419-0.003 0.133-0.398c0.017-0.052 0.090-0.052 0.107 0z"></path>
<path fill="#f5f5f5" d="M2.201 14.756l0.133 0.398 0.419 0.003c0.054 0 0.077 0.070 0.033 0.102l-0.337 0.249 0.126 0.4c0.016 0.052-0.042 0.095-0.087 0.063l-0.341-0.244-0.341 0.244c-0.044 0.032-0.103-0.011-0.087-0.063l0.126-0.4-0.337-0.249c-0.044-0.032-0.021-0.102 0.033-0.102l0.419-0.003 0.133-0.398c0.017-0.052 0.090-0.052 0.107 0z"></path>
<path fill="#f5f5f5" d="M3.816 2.872l0.133 0.398 0.419 0.003c0.054 0 0.077 0.070 0.033 0.102l-0.337 0.249 0.126 0.4c0.016 0.052-0.043 0.095-0.087 0.063l-0.341-0.244-0.341 0.244c-0.044 0.032-0.103-0.011-0.087-0.063l0.126-0.4-0.337-0.249c-0.044-0.032-0.021-0.102 0.033-0.102l0.419-0.003 0.133-0.398c0.017-0.051 0.090-0.051 0.107 0z"></path>
<path fill="#f5f5f5" d="M3.816 6.552l0.133 0.398 0.419 0.003c0.054 0 0.077 0.070 0.033 0.102l-0.337 0.249 0.126 0.4c0.016 0.052-0.043 0.095-0.087 0.063l-0.341-0.244-0.341 0.244c-0.044 0.032-0.103-0.011-0.087-0.063l0.126-0.4-0.337-0.249c-0.044-0.032-0.021-0.101 0.033-0.102l0.419-0.003 0.133-0.398c0.017-0.051 0.090-0.051 0.107 0z"></path>
<path fill="#f5f5f5" d="M3.816 10.048l0.133 0.398 0.419 0.003c0.054 0 0.077 0.070 0.033 0.102l-0.337 0.249 0.126 0.4c0.016 0.052-0.043 0.095-0.087 0.063l-0.341-0.244-0.341 0.244c-0.044 0.032-0.103-0.011-0.087-0.063l0.126-0.4-0.337-0.249c-0.044-0.032-0.021-0.101 0.033-0.102l0.419-0.003 0.133-0.398c0.017-0.051 0.090-0.051 0.107 0z"></path>
<path fill="#f5f5f5" d="M3.816 13.188l0.133 0.398 0.419 0.003c0.054 0 0.077 0.070 0.033 0.102l-0.337 0.249 0.126 0.4c0.016 0.052-0.043 0.095-0.087 0.063l-0.341-0.244-0.341 0.244c-0.044 0.032-0.103-0.011-0.087-0.063l0.126-0.4-0.337-0.249c-0.044-0.032-0.021-0.101 0.033-0.102l0.419-0.003 0.133-0.398c0.017-0.052 0.090-0.052 0.107 0z"></path>
<path fill="#f5f5f5" d="M5.431 1.301l0.133 0.398 0.419 0.003c0.054 0 0.077 0.070 0.033 0.102l-0.337 0.249 0.126 0.4c0.016 0.052-0.043 0.095-0.087 0.063l-0.341-0.244-0.341 0.244c-0.044 0.032-0.103-0.011-0.087-0.063l0.126-0.4-0.337-0.249c-0.044-0.032-0.021-0.101 0.033-0.102l0.419-0.003 0.133-0.398c0.017-0.052 0.090-0.052 0.107 0z"></path>
<path fill="#f5f5f5" d="M5.431 4.619l0.133 0.398 0.419 0.003c0.054 0 0.077 0.070 0.033 0.102l-0.337 0.249 0.126 0.4c0.016 0.052-0.043 0.095-0.087 0.063l-0.341-0.244-0.341 0.244c-0.044 0.032-0.103-0.011-0.087-0.063l0.126-0.4-0.337-0.249c-0.044-0.032-0.021-0.101 0.033-0.102l0.419-0.003 0.133-0.398c0.017-0.052 0.090-0.052 0.107 0z"></path>
<path fill="#f5f5f5" d="M5.431 8.299l0.133 0.398 0.419 0.003c0.054 0 0.077 0.070 0.033 0.102l-0.337 0.249 0.126 0.4c0.016 0.052-0.043 0.095-0.087 0.063l-0.341-0.244-0.341 0.244c-0.044 0.032-0.103-0.011-0.087-0.063l0.126-0.4-0.337-0.249c-0.044-0.032-0.021-0.102 0.033-0.102l0.419-0.003 0.133-0.398c0.017-0.052 0.090-0.052 0.107 0z"></path>
<path fill="#f5f5f5" d="M5.431 11.68l0.133 0.398 0.419 0.003c0.054 0 0.077 0.070 0.033 0.102l-0.337 0.249 0.126 0.4c0.016 0.052-0.043 0.095-0.087 0.063l-0.341-0.244-0.341 0.244c-0.044 0.032-0.103-0.011-0.087-0.063l0.126-0.4-0.337-0.249c-0.044-0.032-0.021-0.101 0.033-0.102l0.419-0.003 0.133-0.398c0.017-0.051 0.090-0.051 0.107 0z"></path>
<path fill="#f5f5f5" d="M5.431 14.756l0.133 0.398 0.419 0.003c0.054 0 0.077 0.070 0.033 0.102l-0.337 0.249 0.126 0.4c0.016 0.052-0.043 0.095-0.087 0.063l-0.341-0.244-0.341 0.244c-0.044 0.032-0.103-0.011-0.087-0.063l0.126-0.4-0.337-0.249c-0.044-0.032-0.021-0.102 0.033-0.102l0.419-0.003 0.133-0.398c0.017-0.052 0.090-0.052 0.107 0z"></path>
<path fill="#f5f5f5" d="M7.046 2.872l0.133 0.398 0.419 0.003c0.054 0 0.077 0.070 0.033 0.102l-0.337 0.249 0.126 0.4c0.016 0.052-0.043 0.095-0.087 0.063l-0.341-0.244-0.341 0.244c-0.044 0.032-0.103-0.011-0.087-0.063l0.126-0.4-0.337-0.249c-0.044-0.032-0.021-0.102 0.033-0.102l0.419-0.003 0.133-0.398c0.017-0.051 0.090-0.051 0.107 0z"></path>
<path fill="#f5f5f5" d="M7.046 6.552l0.133 0.398 0.419 0.003c0.054 0 0.077 0.070 0.033 0.102l-0.337 0.249 0.126 0.4c0.016 0.052-0.043 0.095-0.087 0.063l-0.341-0.244-0.341 0.244c-0.044 0.032-0.103-0.011-0.087-0.063l0.126-0.4-0.337-0.249c-0.044-0.032-0.021-0.101 0.033-0.102l0.419-0.003 0.133-0.398c0.017-0.051 0.090-0.051 0.107 0z"></path>
<path fill="#f5f5f5" d="M7.046 10.048l0.133 0.398 0.419 0.003c0.054 0 0.077 0.070 0.033 0.102l-0.337 0.249 0.126 0.4c0.016 0.052-0.043 0.095-0.087 0.063l-0.341-0.244-0.341 0.244c-0.044 0.032-0.103-0.011-0.087-0.063l0.126-0.4-0.337-0.249c-0.044-0.032-0.021-0.101 0.033-0.102l0.419-0.003 0.133-0.398c0.017-0.051 0.090-0.051 0.107 0z"></path>
<path fill="#f5f5f5" d="M7.046 13.188l0.133 0.398 0.419 0.003c0.054 0 0.077 0.070 0.033 0.102l-0.337 0.249 0.126 0.4c0.016 0.052-0.043 0.095-0.087 0.063l-0.341-0.244-0.341 0.244c-0.044 0.032-0.103-0.011-0.087-0.063l0.126-0.4-0.337-0.249c-0.044-0.032-0.021-0.101 0.033-0.102l0.419-0.003 0.133-0.398c0.017-0.052 0.090-0.052 0.107 0z"></path>
<path fill="#f5f5f5" d="M8.661 1.301l0.133 0.398 0.419 0.003c0.054 0 0.077 0.070 0.033 0.102l-0.337 0.249 0.126 0.4c0.016 0.052-0.043 0.095-0.087 0.063l-0.341-0.244-0.341 0.244c-0.044 0.032-0.103-0.011-0.087-0.063l0.126-0.4-0.337-0.249c-0.044-0.032-0.021-0.101 0.033-0.102l0.419-0.003 0.133-0.398c0.017-0.052 0.090-0.052 0.107 0z"></path>
<path fill="#f5f5f5" d="M8.661 4.619l0.133 0.398 0.419 0.003c0.054 0 0.077 0.070 0.033 0.102l-0.337 0.249 0.126 0.4c0.016 0.052-0.043 0.095-0.087 0.063l-0.341-0.244-0.341 0.244c-0.044 0.032-0.103-0.011-0.087-0.063l0.126-0.4-0.337-0.249c-0.044-0.032-0.021-0.101 0.033-0.102l0.419-0.003 0.133-0.398c0.017-0.052 0.090-0.052 0.107 0z"></path>
<path fill="#f5f5f5" d="M8.661 8.299l0.133 0.398 0.419 0.003c0.054 0 0.077 0.070 0.033 0.102l-0.337 0.249 0.126 0.4c0.016 0.052-0.043 0.095-0.087 0.063l-0.341-0.244-0.341 0.244c-0.044 0.032-0.103-0.011-0.087-0.063l0.126-0.4-0.337-0.249c-0.044-0.032-0.021-0.102 0.033-0.102l0.419-0.003 0.133-0.398c0.017-0.052 0.090-0.052 0.107 0z"></path>
<path fill="#f5f5f5" d="M8.661 11.68l0.133 0.398 0.419 0.003c0.054 0 0.077 0.070 0.033 0.102l-0.337 0.249 0.126 0.4c0.016 0.052-0.043 0.095-0.087 0.063l-0.341-0.244-0.341 0.244c-0.044 0.032-0.103-0.011-0.087-0.063l0.126-0.4-0.337-0.249c-0.044-0.032-0.021-0.101 0.033-0.102l0.419-0.003 0.133-0.398c0.017-0.052 0.090-0.052 0.107 0z"></path>
<path fill="#f5f5f5" d="M8.661 14.756l0.133 0.398 0.419 0.003c0.054 0 0.077 0.070 0.033 0.102l-0.337 0.249 0.126 0.4c0.016 0.052-0.043 0.095-0.087 0.063l-0.341-0.244-0.341 0.244c-0.044 0.032-0.103-0.011-0.087-0.063l0.126-0.4-0.337-0.249c-0.044-0.032-0.021-0.102 0.033-0.102l0.419-0.003 0.133-0.398c0.017-0.052 0.090-0.052 0.107 0z"></path>
<path fill="#f5f5f5" d="M10.276 2.872l0.133 0.398 0.419 0.003c0.054 0 0.077 0.070 0.033 0.102l-0.337 0.249 0.126 0.4c0.016 0.052-0.043 0.095-0.087 0.063l-0.341-0.244-0.341 0.244c-0.044 0.032-0.103-0.011-0.087-0.063l0.126-0.4-0.337-0.249c-0.044-0.032-0.021-0.102 0.033-0.102l0.419-0.003 0.133-0.398c0.017-0.051 0.090-0.051 0.107 0z"></path>
<path fill="#f5f5f5" d="M10.276 6.552l0.133 0.398 0.419 0.003c0.054 0 0.077 0.070 0.033 0.102l-0.337 0.249 0.126 0.4c0.016 0.052-0.043 0.095-0.087 0.063l-0.341-0.244-0.341 0.244c-0.044 0.032-0.103-0.011-0.087-0.063l0.126-0.4-0.337-0.249c-0.044-0.032-0.021-0.101 0.033-0.102l0.419-0.003 0.133-0.398c0.017-0.051 0.090-0.051 0.107 0z"></path>
<path fill="#f5f5f5" d="M10.276 10.048l0.133 0.398 0.419 0.003c0.054 0 0.077 0.070 0.033 0.102l-0.337 0.249 0.126 0.4c0.016 0.052-0.043 0.095-0.087 0.063l-0.341-0.244-0.341 0.244c-0.044 0.032-0.103-0.011-0.087-0.063l0.126-0.4-0.337-0.249c-0.044-0.032-0.021-0.101 0.033-0.102l0.419-0.003 0.133-0.398c0.017-0.051 0.090-0.051 0.107 0z"></path>
<path fill="#f5f5f5" d="M10.276 13.188l0.133 0.398 0.419 0.003c0.054 0 0.077 0.070 0.033 0.102l-0.337 0.249 0.126 0.4c0.016 0.052-0.043 0.095-0.087 0.063l-0.341-0.244-0.341 0.244c-0.044 0.032-0.103-0.011-0.087-0.063l0.126-0.4-0.337-0.249c-0.044-0.032-0.021-0.101 0.033-0.102l0.419-0.003 0.133-0.398c0.017-0.052 0.090-0.052 0.107 0z"></path>
<path fill="#f5f5f5" d="M11.891 1.301l0.133 0.398 0.419 0.003c0.054 0 0.077 0.070 0.033 0.102l-0.337 0.249 0.126 0.4c0.016 0.052-0.043 0.095-0.087 0.063l-0.341-0.244-0.341 0.244c-0.044 0.032-0.103-0.011-0.087-0.063l0.126-0.4-0.337-0.249c-0.044-0.032-0.021-0.101 0.033-0.102l0.419-0.003 0.133-0.398c0.017-0.052 0.090-0.052 0.107 0z"></path>
<path fill="#f5f5f5" d="M11.891 4.619l0.133 0.398 0.419 0.003c0.054 0 0.077 0.070 0.033 0.102l-0.337 0.249 0.126 0.4c0.016 0.052-0.043 0.095-0.087 0.063l-0.341-0.244-0.341 0.244c-0.044 0.032-0.103-0.011-0.087-0.063l0.126-0.4-0.337-0.249c-0.044-0.032-0.021-0.101 0.033-0.102l0.419-0.003 0.133-0.398c0.017-0.052 0.090-0.052 0.107 0z"></path>
<path fill="#f5f5f5" d="M11.891 8.299l0.133 0.398 0.419 0.003c0.054 0 0.077 0.070 0.033 0.102l-0.337 0.249 0.126 0.4c0.016 0.052-0.043 0.095-0.087 0.063l-0.341-0.244-0.341 0.244c-0.044 0.032-0.103-0.011-0.087-0.063l0.126-0.4-0.337-0.249c-0.044-0.032-0.021-0.102 0.033-0.102l0.419-0.003 0.133-0.398c0.017-0.052 0.090-0.052 0.107 0z"></path>
<path fill="#f5f5f5" d="M11.891 11.68l0.133 0.398 0.419 0.003c0.054 0 0.077 0.070 0.033 0.102l-0.337 0.249 0.126 0.4c0.016 0.052-0.043 0.095-0.087 0.063l-0.341-0.244-0.341 0.244c-0.044 0.032-0.103-0.011-0.087-0.063l0.126-0.4-0.337-0.249c-0.044-0.032-0.021-0.101 0.033-0.102l0.419-0.003 0.133-0.398c0.017-0.052 0.090-0.052 0.107 0z"></path>
<path fill="#f5f5f5" d="M11.891 14.756l0.133 0.398 0.419 0.003c0.054 0 0.077 0.070 0.033 0.102l-0.337 0.249 0.126 0.4c0.016 0.052-0.043 0.095-0.087 0.063l-0.341-0.244-0.341 0.244c-0.044 0.032-0.103-0.011-0.087-0.063l0.126-0.4-0.337-0.249c-0.044-0.032-0.021-0.102 0.033-0.102l0.419-0.003 0.133-0.398c0.017-0.052 0.090-0.052 0.107 0z"></path>
<path fill="#f5f5f5" d="M13.506 2.872l0.133 0.398 0.419 0.003c0.054 0 0.077 0.070 0.033 0.102l-0.337 0.249 0.126 0.4c0.016 0.052-0.043 0.095-0.087 0.063l-0.341-0.244-0.341 0.244c-0.044 0.032-0.103-0.011-0.087-0.063l0.126-0.4-0.337-0.249c-0.044-0.032-0.021-0.102 0.033-0.102l0.419-0.003 0.133-0.398c0.017-0.051 0.090-0.051 0.107 0z"></path>
<path fill="#f5f5f5" d="M13.506 6.552l0.133 0.398 0.419 0.003c0.054 0 0.077 0.070 0.033 0.102l-0.337 0.249 0.126 0.4c0.016 0.052-0.043 0.095-0.087 0.063l-0.341-0.244-0.341 0.244c-0.044 0.032-0.103-0.011-0.087-0.063l0.126-0.4-0.337-0.249c-0.044-0.032-0.021-0.101 0.033-0.102l0.419-0.003 0.133-0.398c0.017-0.051 0.090-0.051 0.107 0z"></path>
<path fill="#f5f5f5" d="M13.506 10.048l0.133 0.398 0.419 0.003c0.054 0 0.077 0.070 0.033 0.102l-0.337 0.249 0.126 0.4c0.016 0.052-0.043 0.095-0.087 0.063l-0.341-0.244-0.341 0.244c-0.044 0.032-0.103-0.011-0.087-0.063l0.126-0.4-0.337-0.249c-0.044-0.032-0.021-0.101 0.033-0.102l0.419-0.003 0.133-0.398c0.017-0.051 0.090-0.051 0.107 0z"></path>
<path fill="#f5f5f5" d="M13.506 13.188l0.133 0.398 0.419 0.003c0.054 0 0.077 0.070 0.033 0.102l-0.337 0.249 0.126 0.4c0.016 0.052-0.043 0.095-0.087 0.063l-0.341-0.244-0.341 0.244c-0.044 0.032-0.103-0.011-0.087-0.063l0.126-0.4-0.337-0.249c-0.044-0.032-0.021-0.101 0.033-0.102l0.419-0.003 0.133-0.398c0.017-0.052 0.090-0.052 0.107 0z"></path>
<path fill="#f5f5f5" d="M15.121 1.301l0.133 0.398 0.419 0.003c0.054 0 0.077 0.070 0.033 0.102l-0.337 0.249 0.126 0.4c0.016 0.052-0.043 0.095-0.087 0.063l-0.341-0.244-0.341 0.244c-0.044 0.032-0.103-0.011-0.087-0.063l0.126-0.4-0.337-0.249c-0.044-0.032-0.021-0.101 0.033-0.102l0.419-0.003 0.133-0.398c0.017-0.052 0.090-0.052 0.107 0z"></path>
<path fill="#f5f5f5" d="M15.121 4.619l0.133 0.398 0.419 0.003c0.054 0 0.077 0.070 0.033 0.102l-0.337 0.249 0.126 0.4c0.016 0.052-0.043 0.095-0.087 0.063l-0.341-0.244-0.341 0.244c-0.044 0.032-0.103-0.011-0.087-0.063l0.126-0.4-0.337-0.249c-0.044-0.032-0.021-0.101 0.033-0.102l0.419-0.003 0.133-0.398c0.017-0.052 0.090-0.052 0.107 0z"></path>
<path fill="#f5f5f5" d="M15.121 8.299l0.133 0.398 0.419 0.003c0.054 0 0.077 0.070 0.033 0.102l-0.337 0.249 0.126 0.4c0.016 0.052-0.043 0.095-0.087 0.063l-0.341-0.244-0.341 0.244c-0.044 0.032-0.103-0.011-0.087-0.063l0.126-0.4-0.337-0.249c-0.044-0.032-0.021-0.102 0.033-0.102l0.419-0.003 0.133-0.398c0.017-0.052 0.090-0.052 0.107 0z"></path>
<path fill="#f5f5f5" d="M15.121 11.68l0.133 0.398 0.419 0.003c0.054 0 0.077 0.070 0.033 0.102l-0.337 0.249 0.126 0.4c0.016 0.052-0.043 0.095-0.087 0.063l-0.341-0.244-0.341 0.244c-0.044 0.032-0.103-0.011-0.087-0.063l0.126-0.4-0.337-0.249c-0.044-0.032-0.021-0.101 0.033-0.102l0.419-0.003 0.133-0.398c0.017-0.052 0.090-0.052 0.107 0z"></path>
<path fill="#f5f5f5" d="M15.121 14.756l0.133 0.398 0.419 0.003c0.054 0 0.077 0.070 0.033 0.102l-0.337 0.249 0.126 0.4c0.016 0.052-0.043 0.095-0.087 0.063l-0.341-0.244-0.341 0.244c-0.044 0.032-0.103-0.011-0.087-0.063l0.126-0.4-0.337-0.249c-0.044-0.032-0.021-0.102 0.033-0.102l0.419-0.003 0.133-0.398c0.017-0.052 0.090-0.052 0.107 0z"></path>
</svg>
