<!-- Generated by IcoMoon.io -->
<svg version="1.1" xmlns="http://www.w3.org/2000/svg" width="32" height="32" viewBox="0 0 32 32">
<title>united-nations</title>
<path fill="#82afff" d="M0 0h32v32h-32v-32z"></path>
<path fill="#f5f5f5" d="M15.953 21.245c3.643 0 6.607-2.964 6.607-6.607s-2.964-6.607-6.607-6.607-6.607 2.964-6.607 6.607 2.964 6.607 6.607 6.607zM16.707 8.722l0.568-0.209c0.801 0.173 1.546 0.498 2.202 0.945-0.056-0.006-0.205-0.021-0.231-0.030-0.032-0.011-0.081 0.202-0.081 0.202l0.261 0.104 0.071-0.262c0.271 0.186 0.523 0.396 0.761 0.621l-0.383 0.383h-0.068l-0.055-0.216-0.21-0.377-0.74-0.267-0.512 0.248 0.291 0.629c-0.716-0.456-1.556-0.729-2.458-0.76v-0.877l0.522 0.165-0.217-0.382-0.305 0.13v-0.391c0.226 0.006 0.449 0.025 0.669 0.054l-0.256 0.085 0.171 0.204zM20.135 13.558l0.125-0.053 0.031-0.307c0.134 0.402 0.211 0.828 0.227 1.27h-1.149l0.042-0.184 0.325-0.028 0.269-0.458-0.008-0.086-0.275 0.353-0.168 0.041-0.107-0.126 0.126-0.214-0.274-0.202-0.246 0.216c-0.066-0.239-0.157-0.469-0.274-0.683l0.134-0.049 0.107-0.064-0.001-0.126 0.069-0.085-0.040-0.024c-0.029 0.014-0.183 0.059-0.183 0.059l-0.053 0.173-0.076 0.046c-0.112-0.194-0.245-0.373-0.393-0.539l0.634-0.634 0.006 0.009 0.154-0.093-0.024-0.052 0.188-0.188c0.424 0.457 0.756 0.999 0.967 1.6l-0.158-0.234-0.081 0.030 0.108 0.632zM19.3 17.745l-0.343-0.343-0.129-0.343-0.067 0.147-0.133-0.133 0.136-0.417-0.088-0.302-0.006 0.001c0.093-0.147 0.177-0.3 0.246-0.461l0.002-0c0.021 0 0.099-0.099 0.099-0.099l0.191 0.021 0.493-0.195-0.189-0.179-0.111-0.1-0.086-0.176-0.154-0.269c0.002-0.030 0.003-0.061 0.005-0.091h1.355c-0.042 1.133-0.496 2.16-1.218 2.938zM12.724 17.528l0.17-0.296-0.365-1.276-0.288-0.711 0.261-0.113 0.071-0.212 0.176-0.005c0.062 0.717 0.36 1.366 0.816 1.872l-0.748 0.748-0.092-0.007zM13.131 14.399l-0.004 0.069h-0.046c0.002-0.026 0.002-0.052 0.004-0.078l0.046 0.009zM17.481 17.075l-0.058-0.032-0.739 0.286-0.383-0.147-0.178 0.049v-0.244l0.184-0.056 0.112 0.027 0.235 0.092-0.142-0.259 0.304 0.255 0.146 0.033-0.044-0.195 0.099-0.321 0.345-0.21 0.030 0.194-0.42 0.229 0.081 0.161 0.437-0.088 0.007 0.218c-0.005 0.003-0.010 0.006-0.015 0.009zM15.739 15.802l-0.013-0.028-0.079 0.005c-0.102-0.028-0.198-0.068-0.287-0.12l0.295-0.036 0.13-0.348v0.532c-0.015-0.002-0.030-0.002-0.045-0.005zM14.501 15.076l-0.288-0.044 0.147-0.225h0.086c0.010 0.093 0.029 0.182 0.055 0.269zM16.122 13.904l0.079 0.024 0.1 0.121-0.179 0.179v-0.325zM16.657 16.058l-0.137 0.161-0.229 0.114-0.077-0.135-0.046 0.268-0.044 0.017v-0.338c0.032-0.004 0.065-0.004 0.096-0.010l0.11 0.137 0.091-0.113-0.007-0.076c0.051-0.016 0.102-0.029 0.15-0.051l0.094 0.024zM16.554 14.277l-0.004 0.183-0.007 0.008h-0.181l0.192-0.192zM16.663 14.908l0.219-0.007 0.12 0.1-0.040 0.072-0.167-0.096-0.092 0.072 0.046 0.137-0.002 0.006-0.385-0.385h0.256l0.044 0.101zM16.517 15.441l-0.209-0.023-0.148 0.384c-0.012 0.002-0.025 0.002-0.037 0.004v-0.76l0.395 0.395zM15.43 14.468l-0.015-0.062-0.147 0.062h-0.065l0.021-0.089 0.095-0.092-0.075-0.017-0.078 0.111-0.081 0.037 0.010 0.050h-0.085l0.052-0.2 0.151-0.134 0.334 0.334h-0.114zM14.801 14.807l0.035 0.041 0.024-0.041h0.121l-0.158 0.171c-0.017-0.056-0.030-0.112-0.039-0.171h0.017zM14.989 15.323l0.219-0.378-0.057-0.051 0.097-0.050 0.012-0.037h0.154l-0.035 0.019-0.015 0.051 0.119-0.008-0.089 0.089-0.090 0.019-0.019 0.090-0.278 0.278c-0.006-0.008-0.012-0.014-0.018-0.022zM15.784 13.504l-0.063-0.010 0.049 0.203 0.014 0.011v0.52l-0.285-0.285 0.2-0.108-0.181-0.299c0.084-0.033 0.173-0.055 0.265-0.068l0 0.035zM13.11 14.807l-0.003 0.065-0.014 0.086c-0.005-0.050-0.007-0.1-0.010-0.15h0.028zM13.275 15.209l0.211 0.212 0.173-0.12 0.407 0.342 0.438 0.077 0.123-0.345c0.041 0.074 0.088 0.143 0.14 0.209l-0.376 0.376 0.060-0.154-0.224-0.036 0.072 0.263 0.011 0.009-0.506 0.506c-0.33-0.371-0.568-0.825-0.671-1.329l0.143-0.010zM15.007 15.824c0.219 0.175 0.484 0.289 0.777 0.322v0.392l-0.004 0.009 0.004-0.001v0.293l-0.099 0.020-0.057 0.368 0.156-0.018v0.117l-0.247 0.068-0.082 0.079c-0.536-0.094-1.021-0.337-1.412-0.684l0.964-0.964zM17.864 17.221l0.249 0.053 0.244 0.008 0.134 0.134-0.411-0.015-0.265-0.144c0.016-0.012 0.032-0.024 0.048-0.036zM18.103 16.548l-0.074-0.074 0.151-0.012c-0.024 0.030-0.051 0.057-0.077 0.086zM18.491 13.279c-0.115 0.002-0.227 0.003-0.237 0.003-0.021 0-0.187 0.142-0.187 0.142l-0.127 0.164-0.038-0.2 0.090-0.205-0.069-0.063-0.311 0.198-0.066-0.033 0.243-0.243 0.053 0.018 0.155-0.036-0.079-0.111 0.185-0.185c0.149 0.168 0.281 0.352 0.389 0.552zM17.583 12.769l-0.015-0.047-0.101 0.016-0.063 0.121-0.276 0.027c0.020 0.040 0.106 0.208 0.114 0.224l-0.343 0.343c-0.073-0.058-0.151-0.109-0.234-0.153l0.042-0.023-0.050-0.17-0.034-0.063-0.153 0.167c-0.111-0.040-0.227-0.066-0.348-0.079v-1.364c0.666 0.039 1.271 0.304 1.741 0.722l-0.28 0.28zM15.784 13.13c-0.109 0.012-0.215 0.035-0.316 0.069l0.051-0.118-0.264 0.208 0.001 0.001c-0.088 0.046-0.171 0.1-0.248 0.161l-0.964-0.964c0.469-0.417 1.074-0.683 1.741-0.722v1.364zM14.713 13.637l-0.456 0.080 0.016-0.173-0.378-0.13-0.604 0.126c0.124-0.3 0.299-0.573 0.512-0.812l0.909 0.909zM13.251 13.652l0.19 0.040-0.227 0.063c0.011-0.035 0.025-0.068 0.038-0.103zM12.743 14.468h-0.029l0.031-0.028c-0.001 0.009-0.001 0.019-0.002 0.028zM13.104 17.726l0.699-0.699c0.382 0.344 0.845 0.597 1.358 0.727l-0.241 0.232 0.518 0.685 0.345 0.019v0.513c-0.905-0.033-1.743-0.328-2.441-0.814l0.112-0.073-0.351-0.59zM16.122 18.709l0.437 0.024 0.011 0.1 0.266 0.291c-0.232 0.046-0.471 0.070-0.714 0.079v-0.494zM18.898 17.822l0.163 0.163c-0.078 0.072-0.156 0.144-0.239 0.211l0.076-0.373zM19.060 11.291l-0.099 0.099-0.118-0.257-0.214-0.114c0 0-0.199-0.176-0.303-0.284 0.263 0.161 0.509 0.347 0.734 0.556zM18.281 10.707l0.15 0.524 0.35 0.304 0.014 0.022-0.691 0.691c-0.531-0.478-1.22-0.781-1.98-0.821v-1.355c0.786 0.029 1.521 0.256 2.158 0.635zM15.784 11.428c-0.76 0.040-1.449 0.343-1.98 0.821l-0.958-0.958c0.778-0.723 1.805-1.177 2.938-1.219v1.355zM13.564 12.488c-0.363 0.403-0.626 0.896-0.749 1.444l-0.298 0.536h-1.129c0.042-1.133 0.496-2.16 1.219-2.938l0.958 0.958zM12.354 14.807l-0.322 0.692-0.455-0.169-0.085 0.303c-0.059-0.267-0.093-0.543-0.104-0.825h0.966zM12.014 18.238l0.053 0.047-0.658 0.658c-0.454-0.479-0.832-1.030-1.118-1.634l0.175 0.102 1.167 1.039 0.381-0.212zM12.321 18.509l0.159 0.141 0.517-0.098c0.781 0.591 1.742 0.954 2.787 0.99v1.355c-1.6-0.043-3.050-0.686-4.135-1.715l0.673-0.672zM16.122 19.542c0.287-0.010 0.569-0.040 0.842-0.097l0.032 0.209 0.807 0.595 0.909-0.504 0.261-0.55-0.017-0.34 0.172-0.403-0.042-0.033c0.074-0.062 0.143-0.129 0.214-0.194l0.156 0.156 0.047 0.295 0.177-0.070 0.577 0.577c-1.085 1.029-2.535 1.672-4.135 1.715l0-1.355zM19.762 18.207l-0.032-0.386-0.043 0.002c0.699-0.818 1.132-1.867 1.171-3.016h1.355c-0.043 1.6-0.686 3.050-1.715 4.135l-0.735-0.735zM20.857 14.468c-0.029-0.855-0.277-1.653-0.691-2.344l0.576 0.539 0.462-0.397-0.709-1.069-0.468-0.36 0.001-0.034 0.469-0.469c1.029 1.085 1.672 2.535 1.715 4.135l-1.355 0zM15.784 9.734c-1.226 0.042-2.338 0.534-3.177 1.318l-0.958-0.958c1.085-1.029 2.535-1.672 4.135-1.715v1.355zM12.367 11.291c-0.784 0.839-1.276 1.951-1.318 3.177h-1.355c0.043-1.6 0.686-3.050 1.715-4.135l0.958 0.958zM11.049 14.807c0.017 0.504 0.11 0.988 0.268 1.442l-0.051 0.181-1.324-0.029c-0.149-0.508-0.234-1.042-0.248-1.594h1.355z"></path>
<path fill="#f5f5f5" d="M11.389 22.487l1.223-0.198c0.109-0.018 0.155-0.15 0.079-0.231-0.294-0.314-0.879-0.965-1.217-1.52-0.466-0.762-1.286-1.391-1.286-1.391s0.157 2.097 1.738 2.817c0 0-1.567-0.395-2.569-0.663s-1.277-0.563-1.277-0.563 0.783 2.003 3.309 1.749z"></path>
<path fill="#f5f5f5" d="M10.175 20.143c-0.042-0.522-0.424-1.858-1.144-2.962 0 0 0.001 2.683 0.954 3.592 0 0-1.348-1.294-2.153-1.886-0.753-0.555-1.087-1.186-1.087-1.186s0.202 1.695 1.299 2.541c0.741 0.572 2.386 0.974 2.386 0.974s-0.212-0.55-0.254-1.073z"></path>
<path fill="#f5f5f5" d="M7.591 18.139l0.824 0.712c0.086 0.074 0.22 0.016 0.222-0.098 0.005-0.287 0.022-0.721 0.084-0.996 0.099-0.438 0.221-1.859-0.278-2.892 0 0-0.603 1.851-0.132 3.393 0 0-0.74-1.177-1.496-2.068-0.395-0.466-0.552-1.015-0.552-1.015s-0.013 1.848 1.328 2.963z"></path>
<path fill="#f5f5f5" d="M7.365 16.315c0.065 0.087 0.199 0.069 0.235-0.033 0.108-0.299 0.319-0.836 0.598-1.348 0.508-0.932 0.274-2.028 0.274-2.028s-0.816 1.399-1.052 2.953c-0.015-0.069-0.032-0.143-0.052-0.228-0.224-0.941-1.095-3.289-1.095-3.289s-0.306 1.29 0.077 2.311c0.197 0.524 0.746 1.299 1.016 1.663z"></path>
<path fill="#f5f5f5" d="M7.197 14.254c0.025 0.094 0.156 0.096 0.184 0.003 0.078-0.259 0.24-0.616 0.577-0.96 0.635-0.649 1.117-1.551 1.363-2.357 0 0-1.355 1.088-1.783 1.821 0 0 0.042-1.008-0.103-1.737-0.124-0.621 0.139-1.22 0.139-1.22s-0.859 0.824-0.732 2.335c0.080 0.95 0.244 1.694 0.354 2.115z"></path>
<path fill="#f5f5f5" d="M8.056 11.665c0.257-0.236 0.707-0.637 1.142-0.881 0.576-0.323 1.032-1.367 1.133-1.599 0 0-1.606 1.314-2.043 1.736 0 0 0.265-1.175 0.434-1.684s0.148-0.678 0.296-0.889c0 0-0.773 0.678-0.985 1.218-0.174 0.444-0.141 1.453-0.164 2.009-0.004 0.101 0.113 0.157 0.188 0.089z"></path>
<path fill="#f5f5f5" d="M9.681 9.301c0.452-0.367 1.172-1.44 1.172-1.44-0.178 0.102-0.903 0.353-1.511 0.974s-0.734 1.468-0.734 1.468 0.621-0.635 1.073-1.002z"></path>
<path fill="#f5f5f5" d="M19.939 22.797c-1.327-0.261-2.463-0.452-3.796-0.105-0.066 0.017-0.127 0.037-0.19 0.055-0.063-0.018-0.124-0.038-0.19-0.055-1.332-0.346-2.469-0.156-3.796 0.105-1.196 0.235-2.341 0.032-2.341 0.032s0.831 0.844 2.723 0.844c0.825 0 1.862-0.695 2.517-0.732 0.161-0.009 0.32 0.001 0.478 0.018-1.405 0.573-2.054 1.442-2.067 1.459-0.056 0.074-0.042 0.181 0.033 0.237 0.031 0.023 0.066 0.035 0.102 0.035 0.051 0 0.102-0.023 0.135-0.067 0.052-0.068 1.090-1.142 2.406-1.539 1.317 0.397 2.355 1.471 2.406 1.539 0.033 0.044 0.084 0.067 0.135 0.067 0.036 0 0.072-0.011 0.102-0.035 0.074-0.056 0.089-0.162 0.033-0.237-0.013-0.017-0.661-0.886-2.067-1.459 0.158-0.018 0.317-0.027 0.478-0.018 0.654 0.037 1.692 0.732 2.517 0.732 1.892 0 2.723-0.844 2.723-0.844s-1.145 0.204-2.341-0.032z"></path>
<path fill="#f5f5f5" d="M19.981 21.965c1.581-0.72 1.738-2.817 1.738-2.817s-0.82 0.628-1.286 1.391c-0.339 0.554-0.923 1.205-1.218 1.52-0.076 0.081-0.030 0.213 0.079 0.231l1.223 0.198c2.527 0.254 3.31-1.749 3.31-1.749s-0.274 0.295-1.277 0.563c-1.002 0.268-2.569 0.663-2.569 0.663z"></path>
<path fill="#f5f5f5" d="M24.075 18.887c-0.805 0.593-2.153 1.886-2.153 1.886 0.953-0.909 0.954-3.592 0.954-3.592-0.72 1.104-1.101 2.439-1.144 2.962s-0.254 1.073-0.254 1.073 1.645-0.402 2.386-0.974c1.096-0.846 1.299-2.541 1.299-2.541s-0.334 0.631-1.087 1.186z"></path>
<path fill="#f5f5f5" d="M23.595 18.259c0.471-1.542-0.132-3.393-0.132-3.393-0.499 1.033-0.377 2.454-0.278 2.892 0.062 0.274 0.079 0.709 0.084 0.996 0.002 0.114 0.136 0.172 0.222 0.098l0.824-0.712c1.341-1.115 1.328-2.963 1.328-2.963s-0.157 0.549-0.552 1.015c-0.756 0.891-1.496 2.068-1.496 2.068z"></path>
<path fill="#f5f5f5" d="M24.486 15.858c-0.236-1.554-1.052-2.953-1.052-2.953s-0.234 1.097 0.274 2.028c0.279 0.512 0.489 1.049 0.598 1.348 0.037 0.102 0.171 0.12 0.235 0.033 0.27-0.364 0.82-1.139 1.016-1.663 0.383-1.021 0.077-2.311 0.077-2.311s-0.871 2.348-1.095 3.289c-0.020 0.085-0.037 0.159-0.052 0.228z"></path>
<path fill="#f5f5f5" d="M24.47 11.024c-0.145 0.729-0.103 1.737-0.103 1.737-0.427-0.733-1.783-1.821-1.783-1.821 0.246 0.806 0.728 1.707 1.363 2.357 0.337 0.345 0.5 0.702 0.577 0.96 0.028 0.093 0.159 0.090 0.184-0.003 0.11-0.421 0.274-1.164 0.354-2.115 0.127-1.511-0.732-2.335-0.732-2.335s0.262 0.598 0.139 1.22z"></path>
<path fill="#f5f5f5" d="M23.62 10.921c-0.437-0.422-2.043-1.736-2.043-1.736 0.101 0.232 0.556 1.275 1.133 1.599 0.434 0.243 0.884 0.645 1.142 0.881 0.074 0.068 0.192 0.012 0.188-0.089-0.024-0.557 0.010-1.566-0.164-2.009-0.212-0.54-0.985-1.218-0.985-1.218 0.148 0.212 0.127 0.381 0.296 0.889s0.434 1.684 0.434 1.684z"></path>
<path fill="#f5f5f5" d="M22.226 9.301c0.452 0.367 1.073 1.002 1.073 1.002s-0.127-0.847-0.734-1.468c-0.607-0.621-1.332-0.872-1.511-0.974 0 0 0.72 1.073 1.172 1.44z"></path>
<path fill="#f5f5f5" d="M19.458 12.793l-0.288 0.19 0.307 0.048 0.336 0.371 0.188-0.121-0.226-0.461z"></path>
<path fill="#f5f5f5" d="M19.912 14.375l0.107 0.041 0.27-0.725-0.074-0.101-0.116 0.058-0.185 0.656z"></path>
<path fill="#f5f5f5" d="M17.202 13.145l-0.085-0.090-0.191 0.244 0.047 0.074z"></path>
<path fill="#f5f5f5" d="M19.153 12.578l0.051-0.166-0.17 0.035-0.048 0.014-0.051 0.068 0.184 0.214 0.075-0.063z"></path>
<path fill="#f5f5f5" d="M15.731 16.459l0.003-0.103-0.13 0.188 0.037 0.064z"></path>
</svg>
