<svg xmlns="http://www.w3.org/2000/svg" width="32" height="32" version="1.1" viewBox="0 0 32 32"><title>uruguay</title><path fill="#f5f5f5" d="M0 0h32v32h-32v-32z"/><path fill="#4173cd" d="M12.14 3.556h19.86v3.556h-19.86v-3.556z"/><path fill="#f5f5f5" d="M0 7.111h32v3.556h-32v-3.556z"/><path fill="#4173cd" d="M12.14 10.667h19.86v3.556h-19.86v-3.556z"/><path fill="#f5f5f5" d="M0 14.223h32v3.556h-32v-3.556z"/><path fill="#4173cd" d="M0 17.777h32v3.556h-32v-3.556z"/><path fill="#f5f5f5" d="M0 21.333h32v3.556h-32v-3.556z"/><path fill="#4173cd" d="M0 24.889h32v3.556h-32v-3.556z"/><path fill="#ffe15a" d="M6.103 2.229l1.409 6.519 2.204-0.913z"/><path fill="#ffcd5a" d="M6.103 2.229l2.511 6.062-1.102 0.457z"/><path fill="#ffe15a" d="M11.581 15.455l-1.409-6.518-2.204 0.913z"/><path fill="#ffcd5a" d="M11.581 15.455l-2.511-6.062 1.102-0.457z"/><path fill="#ffe15a" d="M15.455 6.103l-6.518 1.409 0.913 2.204z"/><path fill="#ffcd5a" d="M15.455 6.103l-6.062 2.511-0.457-1.102z"/><path fill="#ffe15a" d="M2.229 11.581l6.519-1.409-0.913-2.204z"/><path fill="#ffcd5a" d="M2.229 11.581l6.062-2.511 0.457 1.102z"/><path fill="#ffe15a" d="M11.581 2.229l-3.613 5.605 2.204 0.913z"/><path fill="#ffcd5a" d="M11.581 2.229l-2.511 6.062-1.102-0.457z"/><path fill="#ffe15a" d="M6.103 15.455l3.613-5.605-2.204-0.913z"/><path fill="#ffcd5a" d="M6.103 15.455l2.511-6.062 1.102 0.457z"/><path fill="#ffe15a" d="M15.455 11.581l-5.605-3.613-0.913 2.204z"/><path fill="#ffcd5a" d="M15.455 11.581l-6.062-2.511 0.457-1.102z"/><path fill="#ffe15a" d="M2.229 6.103l5.605 3.613 0.913-2.204z"/><path fill="#ffcd5a" d="M2.229 6.103l6.062 2.511-0.457 1.102z"/><path fill="#f5f5f5" d="M0 0h17.688v17.75h-17.688v-17.75z"/><path fill="#ffe15a" d="M8.842 1.684l-1.193 6.561h2.386z"/><path fill="#ffcd5a" d="M8.842 1.684v6.561h-1.193z"/><path fill="#ffe15a" d="M8.842 16l1.193-6.561h-2.386z"/><path fill="#ffcd5a" d="M8.842 16v-6.561h1.193z"/><path fill="#ffe15a" d="M16 8.842l-6.561-1.193v2.386z"/><path fill="#ffcd5a" d="M16 8.842h-6.561v-1.193z"/><path fill="#ffe15a" d="M1.684 8.842l6.561 1.193v-2.386z"/><path fill="#ffcd5a" d="M1.684 8.842h6.561v1.193z"/><path fill="#ffe15a" d="M13.903 3.781l-5.483 3.796 1.687 1.687z"/><path fill="#ffcd5a" d="M13.903 3.781l-4.64 4.64-0.844-0.844z"/><path fill="#ffe15a" d="M3.781 13.903l5.483-3.796-1.687-1.687z"/><path fill="#ffcd5a" d="M3.781 13.903l4.64-4.64 0.844 0.844z"/><path fill="#ffe15a" d="M13.903 13.903l-3.796-5.483-1.687 1.687z"/><path fill="#ffcd5a" d="M13.903 13.903l-4.64-4.64 0.844-0.844z"/><path fill="#ffe15a" d="M3.781 3.781l3.796 5.483 1.687-1.687z"/><path fill="#ffcd5a" d="M3.781 3.781l4.64 4.64-0.844 0.844z"/><path fill="#ffe15a" d="M11.227 8.842c0 1.318-1.068 2.386-2.386 2.386s-2.386-1.068-2.386-2.386c0-1.318 1.068-2.386 2.386-2.386s2.386 1.068 2.386 2.386z"/></svg>