<!-- Generated by IcoMoon.io -->
<svg version="1.1" xmlns="http://www.w3.org/2000/svg" width="32" height="32" viewBox="0 0 32 32">
<title>venezuela</title>
<path fill="#ffe15a" d="M0 0h32v10.689h-32v-10.689z"></path>
<path fill="#ff4b55" d="M0 21.311h32v10.689h-32v-10.689z"></path>
<path fill="#41479b" d="M0 10.656h32v10.688h-32v-10.688z"></path>
<path fill="#f5f5f5" d="M9.616 17.792l0.181 0.544 0.573 0.004c0.074 0.001 0.105 0.095 0.045 0.139l-0.461 0.341 0.173 0.547c0.022 0.071-0.058 0.129-0.119 0.086l-0.466-0.333-0.466 0.333c-0.060 0.043-0.141-0.015-0.119-0.086l0.173-0.547-0.461-0.341c-0.060-0.044-0.029-0.139 0.045-0.139l0.573-0.004 0.181-0.544c0.023-0.070 0.123-0.070 0.146 0z"></path>
<path fill="#f5f5f5" d="M10.73 16.060l-0.097 0.565 0.503 0.275c0.065 0.036 0.047 0.134-0.026 0.144l-0.567 0.082-0.106 0.563c-0.014 0.073-0.112 0.086-0.145 0.020l-0.253-0.514-0.569 0.073c-0.074 0.009-0.117-0.080-0.064-0.132l0.411-0.4-0.245-0.518c-0.032-0.067 0.040-0.136 0.106-0.101l0.507 0.267 0.417-0.394c0.054-0.051 0.142-0.004 0.129 0.069z"></path>
<path fill="#f5f5f5" d="M12.139 14.545l-0.269 0.506 0.392 0.418c0.051 0.054 0.003 0.142-0.070 0.129l-0.565-0.099-0.277 0.502c-0.036 0.065-0.134 0.047-0.144-0.027l-0.080-0.568-0.563-0.108c-0.073-0.014-0.086-0.113-0.019-0.145l0.515-0.251-0.071-0.569c-0.009-0.074 0.081-0.117 0.132-0.063l0.398 0.412 0.519-0.243c0.067-0.031 0.136 0.041 0.101 0.106z"></path>
<path fill="#f5f5f5" d="M13.835 13.605l-0.396 0.415 0.265 0.509c0.034 0.066-0.035 0.137-0.102 0.105l-0.517-0.248-0.402 0.409c-0.052 0.053-0.142 0.009-0.132-0.064l0.076-0.568-0.513-0.256c-0.066-0.033-0.052-0.132 0.021-0.145l0.564-0.103 0.085-0.567c0.011-0.073 0.109-0.091 0.144-0.025l0.272 0.504 0.565-0.095c0.073-0.012 0.12 0.076 0.069 0.13z"></path>
<path fill="#f5f5f5" d="M15.785 13.169l-0.492 0.294 0.119 0.561c0.015 0.073-0.071 0.123-0.126 0.074l-0.432-0.377-0.497 0.286c-0.064 0.037-0.139-0.029-0.11-0.097l0.226-0.527-0.426-0.384c-0.055-0.050-0.015-0.141 0.059-0.134l0.571 0.052 0.234-0.524c0.030-0.068 0.129-0.058 0.146 0.014l0.127 0.559 0.57 0.060c0.074 0.008 0.095 0.105 0.031 0.143z"></path>
<path fill="#f5f5f5" d="M22.384 17.792l-0.181 0.544-0.573 0.004c-0.074 0.001-0.105 0.095-0.045 0.139l0.461 0.341-0.173 0.547c-0.022 0.071 0.058 0.129 0.119 0.086l0.466-0.333 0.466 0.333c0.060 0.043 0.141-0.015 0.119-0.086l-0.173-0.547 0.461-0.341c0.060-0.044 0.029-0.139-0.045-0.139l-0.573-0.004-0.181-0.544c-0.023-0.070-0.123-0.070-0.146 0z"></path>
<path fill="#f5f5f5" d="M21.27 16.060l0.097 0.565-0.503 0.275c-0.065 0.036-0.047 0.134 0.026 0.144l0.567 0.082 0.106 0.563c0.014 0.073 0.112 0.086 0.145 0.020l0.253-0.514 0.569 0.073c0.074 0.009 0.117-0.080 0.064-0.132l-0.411-0.4 0.245-0.518c0.032-0.067-0.040-0.136-0.106-0.101l-0.507 0.267-0.417-0.394c-0.054-0.051-0.142-0.004-0.129 0.069z"></path>
<path fill="#f5f5f5" d="M19.861 14.545l0.269 0.506-0.392 0.418c-0.051 0.054-0.003 0.142 0.070 0.129l0.565-0.099 0.277 0.502c0.036 0.065 0.134 0.047 0.144-0.027l0.080-0.568 0.563-0.108c0.073-0.014 0.086-0.113 0.019-0.145l-0.515-0.251 0.071-0.569c0.009-0.074-0.081-0.117-0.132-0.063l-0.398 0.412-0.519-0.243c-0.067-0.031-0.136 0.041-0.101 0.106z"></path>
<path fill="#f5f5f5" d="M18.165 13.605l0.396 0.415-0.265 0.509c-0.034 0.066 0.035 0.137 0.102 0.105l0.517-0.248 0.402 0.409c0.052 0.053 0.142 0.009 0.132-0.064l-0.076-0.568 0.513-0.256c0.066-0.033 0.052-0.132-0.021-0.145l-0.564-0.103-0.085-0.567c-0.011-0.073-0.109-0.091-0.144-0.025l-0.272 0.504-0.565-0.095c-0.073-0.012-0.12 0.076-0.069 0.13z"></path>
<path fill="#f5f5f5" d="M16.215 13.169l0.492 0.294-0.119 0.561c-0.015 0.073 0.071 0.123 0.126 0.074l0.432-0.377 0.497 0.286c0.064 0.037 0.139-0.029 0.11-0.097l-0.226-0.527 0.426-0.384c0.055-0.050 0.015-0.141-0.059-0.134l-0.571 0.052-0.234-0.524c-0.030-0.068-0.129-0.058-0.146 0.014l-0.127 0.559-0.57 0.060c-0.074 0.008-0.095 0.105-0.031 0.143z"></path>
</svg>
