<!-- Generated by IcoMoon.io -->
<svg version="1.1" xmlns="http://www.w3.org/2000/svg" width="32" height="32" viewBox="0 0 32 32">
<title>vietnam</title>
<path fill="#ff4b55" d="M0 0h32v32h-32v-32z"></path>
<path fill="#ffe15a" d="M16.285 9.164l1.635 4.903 5.168 0.040c0.289 0.002 0.409 0.371 0.176 0.543l-4.158 3.070 1.559 4.928c0.087 0.276-0.227 0.503-0.462 0.335l-4.205-3.005-4.205 3.006c-0.235 0.168-0.549-0.060-0.462-0.335l1.559-4.928-4.158-3.070c-0.232-0.172-0.113-0.54 0.176-0.543l5.168-0.040 1.635-4.903c0.091-0.274 0.479-0.274 0.571-0z"></path>
</svg>
