<!-- Generated by IcoMoon.io -->
<svg version="1.1" xmlns="http://www.w3.org/2000/svg" width="32" height="32" viewBox="0 0 32 32">
<title>virgin-islands</title>
<path fill="#f5f5f5" d="M0 0h32v32h-32v-32z"></path>
<path fill="#4173cd" d="M24.941 18.125l0.201 0.706 0.7-2.080-1.941 1.023 0.73 0.086-2.33 2.737-0.020-0.058 1.861-3.853 0.373 0.633 0.152-2.189-1.62 1.48 0.728-0.101-1.861 3.853-0.058 0.020 0.696-3.526 0.521 0.518-0.405-2.156-1.194 1.841 0.678-0.282-0.75 3.803-0.245 0.507-0.264 0.177-0.108 0.55-0.923 1.084 0.72-0.058-0.131 0.663 0.255-0.171 0.025 0.306 0.438-0.514 0.402 0.6 0.275-1.397 0.363-0.427-0.026-0.317 0.245-0.507z"></path>
<path fill="#73af00" d="M8.182 16.058c0.079-0.356 0.030-0.689-0.105-0.894-0.21 0.129-0.395 0.41-0.475 0.765-0.037 0.165-0.043 0.323-0.029 0.468l-0.436-0.649c0.177-0.145 0.33-0.392 0.399-0.704 0.079-0.356 0.030-0.689-0.105-0.894-0.21 0.129-0.395 0.41-0.475 0.765-0.042 0.19-0.046 0.371-0.021 0.532l-0.295-0.439c0.015-0.223-0.054-0.494-0.218-0.753-0.196-0.307-0.466-0.508-0.707-0.558-0.058 0.239 0.010 0.569 0.206 0.877 0.166 0.261 0.386 0.439 0.596 0.519l0.27 0.448c-0.135-0.090-0.301-0.164-0.491-0.206-0.356-0.079-0.689-0.030-0.894 0.105 0.128 0.21 0.41 0.395 0.765 0.475 0.312 0.069 0.601 0.036 0.807-0.063l0.404 0.67c-0.125-0.074-0.271-0.135-0.436-0.172-0.356-0.079-0.689-0.030-0.894 0.105 0.128 0.21 0.41 0.395 0.765 0.475 0.298 0.066 0.576 0.039 0.78-0.051l0.372 0.617c-0.115-0.062-0.243-0.115-0.388-0.147-0.356-0.079-0.689-0.030-0.894 0.105 0.128 0.21 0.41 0.395 0.765 0.475 0.285 0.063 0.552 0.042 0.754-0.038l0.358 0.595c-0.103-0.050-0.214-0.095-0.338-0.122-0.356-0.079-0.689-0.030-0.894 0.105 0.128 0.21 0.41 0.395 0.765 0.475 0.272 0.060 0.529 0.045 0.728-0.025l0.326 0.542c-0.090-0.040-0.185-0.074-0.29-0.098-0.356-0.079-0.689-0.030-0.894 0.105 0.129 0.21 0.41 0.395 0.765 0.475 0.259 0.058 0.505 0.046 0.7-0.017l1.037 1.721 0.44-0.28-1.119-1.668c0.139-0.15 0.254-0.367 0.312-0.627 0.079-0.356 0.030-0.689-0.105-0.894-0.21 0.128-0.395 0.41-0.475 0.765-0.023 0.105-0.032 0.206-0.035 0.304l-0.352-0.525c0.148-0.15 0.271-0.377 0.332-0.648 0.079-0.356 0.030-0.689-0.105-0.894-0.21 0.128-0.395 0.41-0.475 0.765-0.028 0.125-0.035 0.244-0.033 0.358l-0.387-0.577c0.158-0.149 0.291-0.382 0.354-0.667 0.079-0.356 0.030-0.689-0.105-0.894-0.21 0.128-0.395 0.41-0.475 0.765-0.032 0.145-0.038 0.283-0.031 0.413l-0.401-0.598c0.167-0.147 0.31-0.387 0.377-0.685z"></path>
<path fill="#ffe15a" d="M12.69 16l-0.552-3.31h-0.085c-0.501 0-0.854-0.491-0.696-0.966l0.002-0.005c0.127-0.38-0.075-0.791-0.452-0.924l-7.575-2.674c-0.429-0.152-0.834 0.28-0.654 0.699l0.821 1.917c0.236 0.551 0.646 1.011 1.167 1.309l2.101 1.201c0.628 0.359 1.338 0.547 2.061 0.547h0l0.188 0.377c0.561 1.121 1.707 1.83 2.961 1.83h0.713z"></path>
<path fill="#ffe15a" d="M19.31 16l0.552-3.31h0.085c0.501 0 0.855-0.491 0.696-0.966l-0.002-0.005c-0.127-0.38 0.075-0.791 0.452-0.924l7.572-2.673c0.431-0.152 0.836 0.281 0.656 0.701l-0.82 1.914c-0.236 0.551-0.646 1.011-1.167 1.309l-2.101 1.201c-0.628 0.359-1.338 0.547-2.061 0.547h-0l-0.189 0.377c-0.561 1.121-1.707 1.83-2.961 1.83h-0.713z"></path>
<path fill="#ffe15a" d="M18.207 12.138l-1.369-3.193c-0.174-0.406-0.573-0.669-1.014-0.669h-0.376l-0.552 0.552h-0.552l-0.552 0.552h0.77c0.195 0 0.327 0.2 0.25 0.379l-1.020 2.38 4.414-0z"></path>
<path fill="#ffe15a" d="M14.345 17.655l-1.103-1.655-1.011 1.011c-0.424 0.424-0.743 0.941-0.933 1.51l-0.263 0.79-0.552 0.552h-0.717c-0.237 0-0.453 0.134-0.559 0.346l-0.156 0.311c-0.103 0.205 0.047 0.447 0.276 0.447h1.156l0.368-0.736 1.759-0.88c0.053-0.026 0.101-0.061 0.143-0.103l1.592-1.592z"></path>
<path fill="#ffe15a" d="M17.655 17.655l1.103-1.655 1.011 1.011c0.424 0.424 0.743 0.941 0.933 1.51l0.263 0.79 0.552 0.552h0.717c0.237 0 0.453 0.134 0.559 0.346l0.156 0.311c0.103 0.205-0.047 0.447-0.276 0.447h-1.156l-0.368-0.736-1.759-0.88c-0.053-0.026-0.101-0.061-0.143-0.103l-1.592-1.592z"></path>
<path fill="#ffe15a" d="M14.345 18.207l-1.341 2.235c-0.181 0.302-0.115 0.69 0.155 0.915l2.036 1.697c0.466 0.389 1.143 0.389 1.61 0l2.036-1.697c0.27-0.225 0.336-0.613 0.155-0.915l-1.341-2.235h-3.31z"></path>
<path fill="#f5f5f5" d="M16 11.586c0 0-1.655 0.552-3.862 0 0 0 0 1.103 0 2.207s0.552 4.414 3.862 5.517c3.31-1.103 3.862-4.414 3.862-5.517s0-2.207 0-2.207c-2.207 0.552-3.862 0-3.862 0z"></path>
<path fill="#41479b" d="M16 11.586c0 0-1.655 0.552-3.862 0 0 0 0 1.103 0 2.207h7.724c0-1.103 0-2.207 0-2.207-2.207 0.552-3.862 0-3.862 0z"></path>
<path fill="#ff4b55" d="M13.291 17.323v-3.53h-0.602v2.456c0.156 0.359 0.353 0.723 0.602 1.074z"></path>
<path fill="#ff4b55" d="M14.495 13.793h-0.602v4.235c0.182 0.181 0.382 0.352 0.602 0.512v-4.747z"></path>
<path fill="#ff4b55" d="M18.709 17.323c0.249-0.351 0.446-0.715 0.602-1.074v-2.456h-0.602v3.53z"></path>
<path fill="#ff4b55" d="M15.699 13.793h-0.602v5.121c0.188 0.102 0.389 0.194 0.602 0.278v-5.399z"></path>
<path fill="#ff4b55" d="M18.107 13.793h-0.602v4.747c0.22-0.16 0.42-0.332 0.602-0.512v-4.235z"></path>
<path fill="#ff4b55" d="M16.903 18.914v-5.121h-0.602v5.399c0.212-0.084 0.413-0.176 0.602-0.278z"></path>
<path fill="#73af00" d="M10.199 20.311l-0.392 0.241 0.658 1.093 0.44-0.28z"></path>
<path fill="#4173cd" d="M22.415 21.106l-0.346-0.692h-0.634l-0.033 0.167-0.245 0.507-0.264 0.177-0.108 0.55-0.923 1.084 0.72-0.058-0.131 0.663 0.255-0.171 0.025 0.306 0.438-0.514 0.402 0.6 0.275-1.397 0.363-0.427-0.026-0.317z"></path>
<path fill="#4173cd" d="M5.281 13.793h-1.419l0.127 0.382-0.837 2.928-0.837-2.928 0.127-0.382h-1.419l0.382 0.509 1.164 4.074-0.127 0.382h1.419l-0.127-0.382 1.164-4.074z"></path>
<path fill="#4173cd" d="M29.32 14.148l0.236-0.355h-1.419l0.236 0.355v4.256l-0.236 0.355h1.419l-0.236-0.355z"></path>
</svg>
