<!-- Generated by IcoMoon.io -->
<svg version="1.1" xmlns="http://www.w3.org/2000/svg" width="32" height="32" viewBox="0 0 32 32">
<title>algeria</title>
<path fill="#f5f5f5" d="M30.153 22.895l-0-2.651-0-1.698-0.001-5.093-0-1.698-0-2.655c-0-0.194-0.026-0.384-0.075-0.567-0.026-0.098-0.059-0.194-0.099-0.287-0.16-0.381-0.426-0.714-0.773-0.955-0.051-0.035-0.103-0.069-0.157-0.101l-11.947-6.895c-0.682-0.394-1.523-0.394-2.205 0l-11.945 6.899c-0.053 0.030-0.103 0.063-0.152 0.098-0.212 0.147-0.393 0.328-0.54 0.534-0.098 0.138-0.18 0.287-0.244 0.443-0.107 0.261-0.166 0.544-0.166 0.836l0 2.651 0 1.698 0.001 5.092v0.001l0 1.697 0 2.655v0c0 0.725 0.357 1.399 0.946 1.809 0.051 0.035 0.103 0.069 0.157 0.101l11.948 6.895c0.682 0.394 1.523 0.394 2.205-0l11.945-6.899c0.053-0.030 0.103-0.063 0.152-0.098 0.591-0.41 0.95-1.085 0.95-1.813v0 0z"></path>
<path fill="#73af00" d="M14.895 0.296l-11.945 6.899c-0.053 0.030-0.103 0.063-0.152 0.098-0.212 0.147-0.393 0.328-0.54 0.534-0.098 0.138-0.18 0.287-0.244 0.443-0.107 0.261-0.166 0.544-0.166 0.836l0 2.651 0 1.698 0.001 5.092v0.001l0 1.697 0 2.655v0c0 0.725 0.357 1.399 0.946 1.809 0.051 0.035 0.103 0.069 0.157 0.101l11.948 6.895c0.34 0.196 0.72 0.295 1.1 0.295v-32c-0.382-0-0.764 0.098-1.105 0.296z"></path>
<path fill="#ff4b55" d="M19.016 13.728l-1.083 1.417-1.692-0.566c-0.095-0.032-0.175 0.075-0.118 0.157l1.013 1.468-1.061 1.434c-0.059 0.080 0.017 0.19 0.113 0.161l1.709-0.51 1.036 1.452c0.058 0.081 0.186 0.042 0.188-0.058l0.043-1.783 1.701-0.536c0.095-0.030 0.097-0.164 0.003-0.197l-1.683-0.592 0.016-1.784c0.001-0.1-0.126-0.143-0.186-0.064z"></path>
<path fill="#ff4b55" d="M17.123 20.291c-2.368 0-4.289-1.921-4.289-4.292 0-2.366 1.921-4.291 4.289-4.291 0.881 0 1.694 0.271 2.371 0.73 0.104 0.070 0.222-0.066 0.135-0.156-1.012-1.052-2.444-1.694-4.032-1.64-2.729 0.093-4.987 2.281-5.162 5.005-0.2 3.121 2.271 5.714 5.348 5.714 1.515 0 2.877-0.634 3.85-1.646 0.086-0.090-0.033-0.224-0.135-0.154-0.678 0.46-1.492 0.731-2.374 0.731z"></path>
</svg>
