<!-- Generated by IcoMoon.io -->
<svg version="1.1" xmlns="http://www.w3.org/2000/svg" width="32" height="32" viewBox="0 0 32 32">
<title>andorra</title>
<path fill="#ffe15a" d="M30.153 22.895l-0-2.651-0-1.698-0.001-5.093-0-1.698-0-2.655c0-0.194-0.026-0.384-0.075-0.567-0.026-0.098-0.059-0.194-0.099-0.287-0.16-0.381-0.426-0.714-0.773-0.955-0.051-0.035-0.103-0.069-0.157-0.101l-11.947-6.895c-0.682-0.394-1.523-0.394-2.205 0l-11.945 6.899c-0.053 0.030-0.103 0.063-0.152 0.098-0.212 0.147-0.393 0.328-0.54 0.534-0.098 0.138-0.18 0.287-0.244 0.443-0.107 0.261-0.166 0.544-0.166 0.836l0 2.651 0 1.698 0.001 5.092v0.001l0 1.697 0 2.655v0c0 0.725 0.357 1.399 0.946 1.809 0.051 0.035 0.103 0.069 0.157 0.101l11.948 6.895c0.682 0.394 1.523 0.394 2.205-0l11.945-6.899c0.053-0.030 0.103-0.063 0.152-0.098 0.591-0.41 0.95-1.085 0.95-1.813v0 0z"></path>
<path fill="#41479b" d="M5.067 5.972l-2.118 1.223c-0.053 0.030-0.103 0.063-0.152 0.098-0.212 0.147-0.393 0.328-0.54 0.534-0.098 0.138-0.18 0.287-0.244 0.443-0.107 0.261-0.166 0.544-0.166 0.836l0 2.651 0 1.698 0.001 5.092v0.001l0 1.697 0 2.655v0c0 0.725 0.357 1.399 0.946 1.809 0.051 0.035 0.103 0.069 0.157 0.101l6.487 3.744v-25.107l-4.372 2.525z"></path>
<path fill="#ff4b55" d="M24.389 27.497l4.661-2.692c0.053-0.030 0.103-0.063 0.152-0.098 0.592-0.41 0.95-1.085 0.95-1.813l-0-2.651-0-1.698-0.001-5.093-0-1.698-0-2.655c0-0.194-0.026-0.384-0.075-0.567-0.026-0.098-0.059-0.194-0.099-0.287-0.16-0.381-0.426-0.714-0.773-0.955-0.051-0.035-0.103-0.069-0.157-0.101l-6.487-3.744v25.107l1.829-1.056z"></path>
<path fill="#dcbe82" d="M20.249 18.027c0-0.181-0.147-0.328-0.328-0.328-0.039 0-0.077 0.008-0.112 0.021-0.163-0.145-0.457-0.503-0.162-1.010 0.040 0.031 0.090 0.050 0.144 0.050 0.13 0 0.236-0.106 0.236-0.236 0-0.103-0.066-0.19-0.158-0.222 0.243-0.124 0.589-0.387 0.571-0.879-0.025-0.697-0.597-1.082-0.947-0.928 0.001-0.010 0.003-0.019 0.003-0.029 0-0.129-0.104-0.233-0.233-0.233-0.079 0-0.148 0.040-0.191 0.1-0.014-0.070-0.013-0.199 0.149-0.339 0.301-0.26 0.643-0.883 0.021-1.32-0.345-0.242-1.004-0.359-1.225-0.027-0.096 0.144-0.019 0.35 0.090 0.396-0.176 0.098-0.51 0.246-0.774 0.13-0.376-0.164-0.159-0.49-0.075-0.636 0.147-0.257 0.055-0.677-0.438-0.677-0.328 0-0.493 0.328-0.821 0.328s-0.493-0.328-0.821-0.328c-0.493 0-0.585 0.421-0.438 0.677 0.084 0.146 0.301 0.472-0.075 0.636-0.264 0.115-0.598-0.032-0.774-0.13 0.109-0.046 0.186-0.253 0.090-0.396-0.221-0.331-0.88-0.215-1.225 0.027-0.623 0.438-0.28 1.060 0.021 1.32 0.162 0.14 0.164 0.269 0.149 0.339-0.042-0.060-0.112-0.1-0.191-0.1-0.129 0-0.233 0.104-0.233 0.233 0 0.010 0.002 0.020 0.003 0.029-0.35-0.154-0.922 0.231-0.947 0.928-0.018 0.492 0.329 0.755 0.571 0.879-0.092 0.032-0.158 0.119-0.158 0.222 0 0.13 0.106 0.236 0.236 0.236 0.055 0 0.104-0.019 0.144-0.050 0.296 0.506 0.001 0.865-0.162 1.010-0.035-0.013-0.072-0.021-0.112-0.021-0.181 0-0.328 0.147-0.328 0.328 0 0.17 0.13 0.309 0.296 0.325-0.226 0.233-0.429 0.745 0.012 1.327 0.482 0.636 1.632 0.585 2.186 0.605 0.351 0.013 0.616 0.195 0.762 0.327-0.094 0.058-0.157 0.161-0.157 0.279 0 0.166 0.123 0.302 0.283 0.324 0.058 0.093 0.16 0.155 0.278 0.155 0.131 0 0.244-0.078 0.296-0.189 0.173 0.143 0.292 0.203 0.292 0.203s0.119-0.060 0.292-0.203c0.052 0.111 0.165 0.189 0.296 0.189 0.118 0 0.22-0.062 0.278-0.155 0.16-0.022 0.283-0.158 0.283-0.324 0-0.118-0.063-0.221-0.157-0.279 0.147-0.132 0.411-0.314 0.762-0.327 0.554-0.021 1.703 0.031 2.186-0.605 0.441-0.582 0.238-1.095 0.012-1.327 0.166-0.017 0.296-0.155 0.296-0.325z"></path>
<path fill="#d2aa73" d="M13.045 13.809v4.762c0 0.544 0.441 0.985 0.985 0.985h1.314c0.493 0 0.657 0.328 0.657 0.328s0.164-0.328 0.657-0.328h1.314c0.544 0 0.985-0.441 0.985-0.985v-4.762c0-0.091-0.073-0.164-0.164-0.164h-5.583c-0.091 0-0.164 0.073-0.164 0.164z"></path>
<path fill="#ff4b55" d="M13.373 13.974h2.463v2.463h-2.463v-2.463z"></path>
<path fill="#ff4b55" d="M15.836 19.228v0c-1.36 0-2.463-1.103-2.463-2.463v0h2.463v2.463z"></path>
<path fill="#ffe15a" d="M16.164 19.228v0-2.463h2.463c0 1.36-1.103 2.463-2.463 2.463z"></path>
<path fill="#ffe15a" d="M16.164 13.974h0.352v2.463h-0.352v-2.463z"></path>
<path fill="#ff4b55" d="M16.516 13.974h0.352v2.463h-0.352v-2.463z"></path>
<path fill="#ffe15a" d="M16.868 13.974h0.352v2.463h-0.352v-2.463z"></path>
<path fill="#ff4b55" d="M17.219 13.974h0.352v2.463h-0.352v-2.463z"></path>
<path fill="#ffe15a" d="M17.572 13.974h0.352v2.463h-0.352v-2.463z"></path>
<path fill="#ffe15a" d="M18.276 13.974h0.352v2.463h-0.352v-2.463z"></path>
<path fill="#ff4b55" d="M17.923 13.974h0.352v2.463h-0.352v-2.463z"></path>
<path fill="#ff4b55" d="M14.194 16.765h0.274v2.463h-0.274v-2.463z"></path>
<path fill="#ffe15a" d="M14.468 16.765h0.274v2.463h-0.274v-2.463z"></path>
<path fill="#ffe15a" d="M15.015 16.765h0.274v2.463h-0.274v-2.463z"></path>
<path fill="#ff4b55" d="M14.741 16.765h0.274v2.463h-0.274v-2.463z"></path>
<path fill="#ffe15a" d="M15.562 16.765h0.274v2.463h-0.274v-2.463z"></path>
<path fill="#ff4b55" d="M15.289 16.765h0.274v2.463h-0.274v-2.463z"></path>
<path fill="#ffe15a" d="M13.647 19.102v-2.338h-0.274v1.806c0 0.219 0.109 0.412 0.274 0.532z"></path>
<path fill="#ff4b55" d="M13.92 19.217v-2.452h-0.274v2.338c0.080 0.058 0.173 0.097 0.274 0.114z"></path>
<path fill="#ffe15a" d="M13.92 16.765v2.452c0.036 0.006 0.072 0.011 0.109 0.011h0.164v-2.463h-0.274z"></path>
<path fill="#f5f5f5" d="M13.74 16.297c-0.012 0-0.025-0.003-0.036-0.011-0.161-0.107-0.171-0.218-0.162-0.275 0.012-0.077 0.069-0.14 0.145-0.162 0.073-0.020 0.145 0.001 0.194 0.058 0.102 0.118 0.207 0.165 0.296 0.132 0.070-0.026 0.112-0.095 0.112-0.147 0-0.036 0.029-0.065 0.065-0.065s0.065 0.029 0.065 0.065c0 0.113-0.083 0.226-0.196 0.268-0.083 0.031-0.25 0.050-0.439-0.169-0.020-0.023-0.044-0.023-0.061-0.018-0.023 0.007-0.048 0.027-0.053 0.058-0.007 0.045 0.032 0.098 0.106 0.147 0.030 0.020 0.038 0.060 0.018 0.090-0.012 0.019-0.033 0.029-0.054 0.029z"></path>
<path fill="#f5f5f5" d="M15.477 16.297c-0.021 0-0.042-0.010-0.054-0.029-0.020-0.030-0.012-0.070 0.018-0.090 0.074-0.049 0.113-0.103 0.106-0.147-0.005-0.031-0.030-0.051-0.053-0.057-0.017-0.005-0.041-0.005-0.061 0.018-0.188 0.219-0.356 0.2-0.439 0.169-0.114-0.042-0.196-0.155-0.196-0.268 0-0.036 0.029-0.065 0.065-0.065s0.065 0.029 0.065 0.065c0 0.052 0.042 0.121 0.112 0.147 0.089 0.033 0.194-0.014 0.296-0.132 0.049-0.057 0.122-0.079 0.194-0.058 0.076 0.022 0.134 0.085 0.145 0.162 0.009 0.057-0.001 0.168-0.162 0.275-0.011 0.007-0.023 0.011-0.036 0.011z"></path>
<path fill="#ffe15a" d="M13.704 16.373c-0.014 0-0.027-0.004-0.039-0.013-0.028-0.022-0.034-0.062-0.012-0.091l1.406-1.849c0.013-0.024 0.018-0.058 0.024-0.097 0.011-0.073 0.024-0.163 0.135-0.23 0.072-0.043 0.158-0.042 0.23 0.004 0.079 0.051 0.126 0.145 0.116 0.234-0.006 0.054-0.038 0.154-0.185 0.208-0.034 0.012-0.071-0.005-0.083-0.038s0.005-0.071 0.038-0.083c0.043-0.016 0.095-0.046 0.101-0.101 0.004-0.041-0.019-0.087-0.057-0.111-0.021-0.014-0.055-0.025-0.093-0.002-0.059 0.035-0.065 0.074-0.074 0.138-0.007 0.045-0.014 0.097-0.045 0.149l-1.411 1.855c-0.013 0.017-0.032 0.025-0.051 0.025z"></path>
<path fill="#ffe15a" d="M14.613 14.34l-0.647 0.776 0.259 0.776h0.776l0.259-0.776z"></path>
<path fill="#f5f5f5" d="M14.613 14.239l-0.72 0.863 0.285 0.855h0.869l0.285-0.855-0.72-0.863zM14.039 15.13l0.509-0.611v1.309h-0.277l-0.233-0.698zM14.955 15.828h-0.277v-1.309l0.509 0.611-0.233 0.698z"></path>
<path fill="#ff4b55" d="M18.022 17.542l0.010-0.143c0 0 0.127-0.091 0.065-0.176s-0.134-0.101-0.284-0.082c-0.15 0.020-0.385 0.016-0.486 0.023s-0.153 0.062-0.313 0.016l0.042-0.098c0 0-0.075 0.006-0.121 0.029-0.025 0.012-0.085-0.069-0.143-0.055s-0.117 0.134-0.209 0.196l0.049 0.098c0 0 0.055-0.026 0.098 0.003s0.055 0.049 0.127 0.049l0.046 0.020c0 0-0.016 0.104 0.052 0.153 0 0-0.078 0.101-0.069 0.117s0.075 0.14 0.101 0.212l0.059-0.111c0 0-0.088-0.078-0.072-0.088s0.075-0.023 0.065-0.049c-0.010-0.026 0.046 0.003 0.108 0.013 0 0 0.003 0.098 0.016 0.111s0.033 0.065 0.029 0.121c-0.003 0.055-0.052 0.072-0.052 0.072l0.088 0.026c0 0 0.023-0.033 0.039-0.029 0 0-0.006-0.271 0.029-0.313 0 0 0.212 0.042 0.31-0.010 0 0 0.012 0.016 0.037 0.031-0.010 0.023-0.018 0.045-0.014 0.052 0.008 0.015 0.034 0.013 0.041-0.003 0.003-0.006 0.006-0.019 0.010-0.032 0.012 0.004 0.025 0.007 0.040 0.008-0.001 0.021-0.002 0.040 0.003 0.044 0.012 0.011 0.037 0.002 0.038-0.016 0-0.006 0-0.017-0-0.028 0.017-0.001 0.035-0.004 0.055-0.010l-0.111 0.183-0.055 0.023 0.072 0.036 0.065-0.026c0 0 0.062-0.157 0.163-0.202 0 0 0.069 0.163-0.016 0.251l0.075 0.042 0.036-0.075c0 0-0.013-0.147 0.036-0.241l-0.059-0.14z"></path>
<path fill="#4173cd" d="M16.793 17.076c0 0-0.033-0.031-0.041-0.072s-0.018-0.059-0.054-0.070c0 0 0.023 0.026 0.020 0.067s0 0.097 0.023 0.115l0.052-0.039z"></path>
<path fill="#4173cd" d="M17.078 17.192c0 0-0.044 0.151-0.175 0.23l-0.046-0.020c0 0 0.14-0.119 0.157-0.222l0.064 0.011z"></path>
<path fill="#4173cd" d="M16.856 17.112c-0.005-0.005 0.057-0.023 0.043-0.072s-0.015-0.085 0.015-0.108c0 0 0.003 0.041 0.026 0.067s0.036 0.092-0.002 0.129c0 0-0.038 0.029-0.082-0.016z"></path>
<path fill="#4173cd" d="M16.863 17.559v0c-0.008-0.004-0.011-0.013-0.007-0.021l0.020-0.040c0.012-0.024 0.004-0.053-0.019-0.066-0.025-0.014-0.056-0.004-0.069 0.021l-0.021 0.042c-0.004 0.008-0.013 0.011-0.021 0.007l-0.012 0.025c0 0 0.018 0.009 0.040 0.020l-0 0.001c-0.005 0.010-0.001 0.022 0.009 0.027s0.022 0.001 0.027-0.009l0-0.001c0.022 0.011 0.040 0.020 0.040 0.020l0.012-0.025z"></path>
<path fill="#4173cd" d="M17.021 17.834l0.049 0.010-0.041 0.126-0.041-0.066z"></path>
<path fill="#4173cd" d="M17.141 17.973l-0.030 0.053h0.118l0-0.027z"></path>
<path fill="#4173cd" d="M17.722 17.934v0.031h-0.134l0.065-0.065z"></path>
<path fill="#4173cd" d="M17.934 17.957l-0.066 0.066h0.139l0.002-0.024z"></path>
<path fill="#ff4b55" d="M18.022 18.564l0.010-0.143c0 0 0.127-0.091 0.065-0.176s-0.134-0.101-0.284-0.082c-0.15 0.020-0.385 0.016-0.486 0.023s-0.153 0.062-0.313 0.016l0.042-0.098c0 0-0.075 0.006-0.121 0.029-0.025 0.012-0.085-0.069-0.143-0.055s-0.117 0.134-0.209 0.196l0.049 0.098c0 0 0.055-0.026 0.098 0.003s0.055 0.049 0.127 0.049l0.046 0.020c0 0-0.016 0.104 0.052 0.153 0 0-0.078 0.101-0.069 0.117s0.075 0.14 0.101 0.212l0.059-0.111c0 0-0.088-0.078-0.072-0.088s0.075-0.023 0.065-0.049c-0.010-0.026 0.046 0.003 0.108 0.013 0 0 0.003 0.098 0.016 0.111s0.033 0.065 0.029 0.121c-0.003 0.055-0.052 0.072-0.052 0.072l0.088 0.026c0 0 0.023-0.033 0.039-0.029 0 0-0.006-0.271 0.029-0.313 0 0 0.212 0.042 0.31-0.010 0 0 0.012 0.016 0.037 0.031-0.010 0.023-0.018 0.045-0.014 0.052 0.008 0.015 0.034 0.013 0.041-0.003 0.003-0.006 0.006-0.019 0.010-0.032 0.012 0.004 0.025 0.007 0.040 0.008-0.001 0.021-0.002 0.040 0.003 0.044 0.012 0.011 0.037 0.002 0.038-0.016 0-0.006 0-0.017-0-0.028 0.017-0.001 0.035-0.004 0.055-0.010l-0.111 0.183-0.055 0.023 0.072 0.036 0.065-0.026c0 0 0.062-0.157 0.163-0.202 0 0 0.069 0.163-0.016 0.251l0.075 0.042 0.036-0.075c0 0-0.013-0.147 0.036-0.241l-0.059-0.141z"></path>
<path fill="#4173cd" d="M16.793 18.098c0 0-0.033-0.031-0.041-0.072s-0.018-0.059-0.054-0.070c0 0 0.023 0.026 0.020 0.067s0 0.097 0.023 0.115l0.052-0.039z"></path>
<path fill="#4173cd" d="M17.078 18.214c0 0-0.044 0.151-0.175 0.23l-0.046-0.020c0 0 0.14-0.119 0.157-0.222l0.064 0.011z"></path>
<path fill="#4173cd" d="M16.856 18.134c-0.005-0.005 0.057-0.023 0.043-0.072s-0.015-0.085 0.015-0.108c0 0 0.003 0.041 0.026 0.067s0.036 0.092-0.002 0.129c0 0-0.038 0.029-0.082-0.016z"></path>
<path fill="#4173cd" d="M16.863 18.581v0c-0.008-0.004-0.011-0.013-0.007-0.021l0.020-0.040c0.012-0.024 0.004-0.053-0.019-0.066-0.025-0.014-0.056-0.004-0.069 0.021l-0.021 0.042c-0.004 0.008-0.013 0.011-0.021 0.007l-0.012 0.025c0 0 0.018 0.009 0.040 0.020l-0 0.001c-0.005 0.010-0.001 0.022 0.009 0.027s0.022 0.001 0.027-0.009l0-0.001c0.022 0.011 0.040 0.020 0.040 0.020l0.012-0.025z"></path>
<path fill="#4173cd" d="M17.021 18.856l0.049 0.010-0.041 0.126-0.041-0.066z"></path>
<path fill="#4173cd" d="M17.141 18.995l-0.030 0.053h0.118l0-0.027z"></path>
<path fill="#4173cd" d="M17.722 18.956v0.032h-0.134l0.065-0.065z"></path>
<path fill="#4173cd" d="M17.934 18.979l-0.066 0.066h0.139l0.002-0.024z"></path>
</svg>
