<svg xmlns="http://www.w3.org/2000/svg" width="32" height="32" version="1.1" viewBox="0 0 32 32"><title>anguilla</title><path fill="#f5f5f5" d="M1.849 22.9l-0.002-13.795c-0-0.788 0.42-1.516 1.102-1.91l11.945-6.899c0.682-0.394 1.523-0.394 2.205-0l11.948 6.895c0.682 0.394 1.103 1.122 1.103 1.91l0.002 13.795c0 0.788-0.42 1.516-1.102 1.91l-11.945 6.899c-0.682 0.394-1.523 0.394-2.205 0l-11.947-6.895c-0.682-0.394-1.103-1.122-1.103-1.91z"/><path fill="#ff4b55" d="M2.585 7.459v8.552l1.231 0.457 1.382-0.457v-10.115l-2.249 1.299c-0.132 0.076-0.253 0.165-0.364 0.264z"/><path fill="#ff4b55" d="M6.048 5.405h9.952l0.234-2.058-0.234-2.125h-2.71z"/><path fill="#ff4b55" d="M6.751 6.799l8.754 9.095c0.002-0.001 0.004-0.003 0.005-0.004 0.004-0.003 0.008-0.007 0.011-0.010 0.028-0.021 0.478-0.424 0.478-0.427 0.010-0.229-0.005-0.639-0.003-0.699 0-0.004 0.001-0.007 0.001-0.011l-7.647-7.944-1.6-0z"/><path fill="#41479b" d="M30.151 9.1c-0-0.788-0.421-1.516-1.103-1.91l-11.948-6.895c-0.34-0.196-0.72-0.295-1.1-0.295v6.655h-6.636l6.636 6.959v1.060c0 0.023-0.001 0.046-0.002 0.069v0c-0 0.004-0.001 0.007-0.001 0.011-0.002 0.060-0.007 0.119-0.014 0.177-0.001 0.009-0.003 0.017-0.004 0.026-0.032 0.234-0.101 0.445-0.198 0.616-0.001 0.002-0.003 0.005-0.004 0.007-0.050 0.086-0.107 0.162-0.169 0.225-0.002 0.002-0.004 0.004-0.006 0.006-0.026 0.025-0.053 0.048-0.081 0.069-0.004 0.003-0.008 0.006-0.011 0.010-0.002 0.001-0.004 0.003-0.005 0.004v0c-0.104 0.075-0.219 0.117-0.34 0.117h-1.45l-7.735-8.111v8.111h-4.131l0.001 6.889c0 0.788 0.421 1.516 1.103 1.91l11.948 6.895c0.682 0.394 1.523 0.394 2.205-0l11.945-6.899c0.682-0.394 1.102-1.122 1.102-1.91l-0.002-13.794z"/><path fill="#f5f5f5" d="M20.243 11.65c-0.084 1.117-0.43 8.214 4.073 9.818 4.504-1.605 4.156-8.702 4.072-9.818-0.546 0.214-2.52 0.862-4.072-0.243-1.552 1.104-3.527 0.457-4.072 0.243z"/><path fill="#ffa028" d="M26.528 13.082c-0.247-0.192-0.704 0.165-1.216 0.128-0.475-0.034-1.060-0.515-1.821-0.307-0.21-0.194-0.108-0.643-0.108-0.643-0.528 0.341-0.566 0.809-0.533 1.062-0.377 0.498-0.351 1.257-0.281 1.489 0.091 0.302 0.265 0.338 0.293 0.677s0.155 0.219 0.155 0.219c0.264-0.148 0.303-0.428 0.414-0.886 0.43 0.055 0.71-0.33 0.71-0.33-0.282 0.088-0.46-0.067-0.557-0.204 0.015-0.045 0.027-0.087 0.045-0.134 0.32-0.878 1.851-0.636 1.993-0.393 0.256 0.439 0.594 0.603 0.594 0.603 0-0.457-0.338-0.859-0.338-0.859 0.512-0.091 0.649-0.421 0.649-0.421zM22.843 14.966c-0.051 0-0.091-0.041-0.091-0.091s0.041-0.091 0.091-0.091c0.050 0 0.091 0.041 0.091 0.091s-0.041 0.091-0.091 0.091z"/><path fill="#ffa028" d="M25.020 18.699c0.298-0.094 0.264-0.673 0.584-1.074 0.297-0.372 1.025-0.581 1.286-1.325 0.279-0.063 0.591 0.276 0.591 0.276 0.018-0.629-0.345-0.925-0.572-1.041-0.196-0.592-0.836-1.002-1.067-1.076-0.3-0.096-0.429 0.026-0.723-0.143s-0.269 0.004-0.269 0.004c-0.028 0.302 0.181 0.492 0.495 0.844-0.289 0.323-0.131 0.772-0.131 0.772 0.087-0.282 0.316-0.341 0.484-0.343 0.029 0.038 0.056 0.072 0.085 0.113 0.541 0.761-0.526 1.886-0.807 1.864-0.507-0.038-0.834 0.147-0.834 0.147 0.377 0.26 0.9 0.209 0.9 0.209-0.215 0.473-0.022 0.773-0.022 0.773zM25.56 14.596c0.029-0.042 0.086-0.052 0.127-0.023s0.052 0.086 0.023 0.127c-0.029 0.042-0.086 0.052-0.127 0.023s-0.052-0.085-0.023-0.127z"/><path fill="#ffa028" d="M20.989 14.635c-0.040 0.31 0.5 0.523 0.728 0.982 0.212 0.426 0.095 1.175 0.661 1.724-0.060 0.279-0.499 0.42-0.499 0.42 0.562 0.281 0.984 0.076 1.186-0.081 0.62 0.071 1.261-0.336 1.425-0.515 0.213-0.232 0.157-0.4 0.434-0.596s0.11-0.245 0.11-0.245c-0.262-0.152-0.523-0.043-0.974 0.094-0.171-0.398-0.645-0.444-0.645-0.444 0.22 0.198 0.176 0.43 0.107 0.583-0.047 0.010-0.089 0.021-0.139 0.030-0.919 0.171-1.489-1.271-1.352-1.517 0.248-0.444 0.218-0.819 0.218-0.819-0.394 0.232-0.568 0.728-0.568 0.728-0.339-0.395-0.692-0.345-0.692-0.345zM24.484 16.851c0.026 0.044 0.011 0.1-0.032 0.125s-0.099 0.011-0.125-0.032-0.011-0.099 0.032-0.125 0.099-0.011 0.125 0.032z"/><path fill="#cdce0c" d="M24.315 21.701l-0.036-0.012c-5.070-1.764-4.251-10.124-4.242-10.209l0.016-0.151 0.139 0.063c0.024 0.011 2.376 1.054 4.058-0.207l0.066-0.049 0.066 0.049c1.684 1.263 4.034 0.218 4.058 0.207l0.139-0.063 0.016 0.151c0.009 0.084 0.828 8.445-4.242 10.209l-0.036 0.012zM20.243 11.65c-0.084 1.117-0.43 8.214 4.073 9.818 4.504-1.605 4.156-8.702 4.072-9.818-0.546 0.214-2.52 0.862-4.072-0.243-1.552 1.104-3.527 0.457-4.072 0.243z"/><path fill="#82afff" d="M21.491 18.952c0.615 1.115 1.513 2.050 2.824 2.517 1.311-0.467 2.21-1.401 2.825-2.517h-5.649z"/></svg>