<!-- Generated by IcoMoon.io -->
<svg version="1.1" xmlns="http://www.w3.org/2000/svg" width="32" height="32" viewBox="0 0 32 32">
<title>argentina</title>
<path fill="#82afff" d="M30.151 9.1c-0-0.788-0.421-1.516-1.103-1.91l-11.948-6.895c-0.683-0.394-1.523-0.394-2.205 0l-11.945 6.899c-0.682 0.394-1.103 1.122-1.102 1.91l0 1.519h28.304l-0-1.523z"></path>
<path fill="#82afff" d="M1.849 22.9c0 0.788 0.421 1.516 1.103 1.91l11.948 6.895c0.682 0.394 1.523 0.394 2.205-0l11.945-6.899c0.682-0.394 1.102-1.122 1.102-1.91l-0-1.519h-28.304l0 1.524z"></path>
<path fill="#f5f5f5" d="M30.153 21.376l-0.002-10.752h-28.304l0.002 10.752z"></path>
<path fill="#f09146" d="M19.124 15.844h-2.25c0.042-0.032 0.075-0.063 0.105-0.093 0.055-0.054 0.099-0.096 0.215-0.144 0.117-0.049 0.177-0.049 0.255-0.051 0.093-0.001 0.198-0.002 0.37-0.073s0.247-0.145 0.313-0.209c0.055-0.054 0.099-0.096 0.215-0.145s0.176-0.049 0.253-0.049c0.093-0.001 0.198-0.002 0.37-0.074l-0.12-0.288c-0.116 0.048-0.176 0.049-0.253 0.049-0.093 0.001-0.198 0.002-0.37 0.073s-0.247 0.145-0.313 0.209c-0.055 0.054-0.099 0.096-0.215 0.144-0.117 0.049-0.177 0.049-0.255 0.051-0.093 0.001-0.198 0.002-0.37 0.074s-0.247 0.145-0.313 0.209c-0.054 0.053-0.099 0.095-0.21 0.142l1.768-1.768-0.221-0.221-1.591 1.591c0.007-0.052 0.009-0.098 0.009-0.14 0.001-0.078 0.002-0.138 0.050-0.254s0.091-0.16 0.145-0.215c0.065-0.067 0.139-0.142 0.21-0.314s0.072-0.277 0.073-0.37c0.001-0.077 0.002-0.138 0.049-0.254s0.091-0.159 0.144-0.214c0.065-0.067 0.139-0.142 0.21-0.313l-0.289-0.12c-0.048 0.116-0.091 0.159-0.144 0.214-0.065 0.067-0.139 0.142-0.21 0.313s-0.072 0.277-0.073 0.37c-0.001 0.077-0.002 0.138-0.049 0.254s-0.091 0.16-0.145 0.215c-0.065 0.067-0.139 0.142-0.21 0.314s-0.072 0.278-0.073 0.37c-0.001 0.075-0.003 0.136-0.048 0.248v-2.5h-0.312v2.25c-0.032-0.042-0.063-0.075-0.092-0.105-0.054-0.055-0.096-0.099-0.145-0.215s-0.049-0.178-0.050-0.255c-0.001-0.093-0.002-0.198-0.073-0.37s-0.145-0.246-0.21-0.313c-0.054-0.055-0.096-0.098-0.144-0.214s-0.049-0.177-0.049-0.254c-0.001-0.093-0.002-0.198-0.073-0.369l-0.289 0.12c0.048 0.116 0.049 0.176 0.049 0.253 0.001 0.093 0.002 0.198 0.073 0.37s0.145 0.246 0.21 0.313c0.054 0.055 0.096 0.098 0.144 0.214s0.049 0.178 0.050 0.255c0.001 0.093 0.002 0.198 0.073 0.37s0.145 0.247 0.21 0.314c0.053 0.054 0.095 0.099 0.142 0.21l-1.768-1.768-0.221 0.221 1.766 1.765c-0.097-0.044-0.144-0.084-0.194-0.134-0.067-0.065-0.142-0.139-0.315-0.21s-0.277-0.073-0.37-0.074c-0.078-0.001-0.139-0.002-0.256-0.051s-0.161-0.091-0.217-0.145c-0.067-0.065-0.142-0.139-0.315-0.21s-0.278-0.073-0.372-0.074c-0.078-0.001-0.139-0.002-0.257-0.051l-0.12 0.289c0.173 0.071 0.278 0.073 0.372 0.074 0.078 0.001 0.139 0.002 0.257 0.051s0.162 0.091 0.217 0.145c0.067 0.065 0.142 0.139 0.315 0.21s0.278 0.073 0.371 0.074c0.078 0.001 0.139 0.002 0.255 0.051s0.161 0.091 0.216 0.145c0.028 0.028 0.060 0.057 0.098 0.087h-2.256v0.312h2.495c-0.099 0.038-0.16 0.042-0.231 0.043-0.093 0.001-0.198 0.002-0.371 0.073s-0.248 0.145-0.315 0.21c-0.056 0.054-0.099 0.097-0.216 0.145s-0.179 0.050-0.257 0.051c-0.093 0.001-0.199 0.002-0.372 0.074s-0.249 0.145-0.315 0.21c-0.056 0.054-0.1 0.097-0.217 0.145l0.12 0.289c0.173-0.072 0.248-0.145 0.315-0.21 0.056-0.054 0.1-0.097 0.217-0.145s0.179-0.050 0.257-0.051c0.093-0.001 0.199-0.002 0.372-0.074s0.247-0.145 0.314-0.21c0.055-0.054 0.099-0.096 0.216-0.145s0.178-0.049 0.255-0.051c0.040-0 0.084-0.003 0.132-0.009l-1.596 1.596 0.221 0.221 1.765-1.764c-0.043 0.096-0.084 0.143-0.133 0.194-0.065 0.067-0.139 0.142-0.21 0.314s-0.073 0.278-0.074 0.371c-0.001 0.078-0.002 0.139-0.050 0.256s-0.092 0.162-0.146 0.217c-0.065 0.067-0.139 0.143-0.21 0.315s-0.073 0.278-0.074 0.372c-0.001 0.078-0.002 0.139-0.051 0.256l0.289 0.12c0.072-0.173 0.073-0.278 0.074-0.372 0.001-0.078 0.002-0.139 0.051-0.256s0.092-0.162 0.146-0.217c0.065-0.067 0.139-0.143 0.21-0.315s0.073-0.278 0.074-0.371c0.001-0.078 0.002-0.139 0.050-0.256s0.091-0.16 0.145-0.216c0.028-0.028 0.057-0.060 0.087-0.099v2.256h0.312v-2.495c0.037 0.098 0.042 0.16 0.043 0.231 0.001 0.093 0.002 0.198 0.074 0.37s0.145 0.248 0.21 0.315c0.054 0.056 0.097 0.099 0.145 0.217s0.049 0.179 0.051 0.256c0.001 0.093 0.002 0.199 0.074 0.372s0.145 0.249 0.21 0.315c0.054 0.055 0.097 0.099 0.145 0.217l0.289-0.12c-0.072-0.173-0.145-0.249-0.21-0.315-0.054-0.055-0.097-0.099-0.145-0.217s-0.049-0.179-0.051-0.256c-0.001-0.093-0.002-0.199-0.074-0.372s-0.145-0.248-0.21-0.315c-0.054-0.055-0.097-0.099-0.145-0.217s-0.049-0.178-0.050-0.255c-0-0.039-0.003-0.084-0.009-0.132l1.596 1.596 0.221-0.221-1.591-1.591c0.052 0.007 0.098 0.009 0.14 0.009 0.077 0.001 0.138 0.001 0.254 0.049s0.16 0.091 0.215 0.145c0.067 0.065 0.142 0.139 0.314 0.21s0.277 0.072 0.37 0.073c0.077 0.001 0.138 0.002 0.253 0.050s0.159 0.090 0.214 0.144c0.067 0.065 0.142 0.139 0.313 0.21l0.12-0.289c-0.116-0.048-0.159-0.090-0.214-0.144-0.067-0.065-0.142-0.139-0.313-0.21s-0.277-0.072-0.37-0.073c-0.077-0.001-0.138-0.002-0.253-0.050s-0.16-0.090-0.215-0.145c-0.067-0.065-0.142-0.139-0.314-0.209-0.172-0.072-0.277-0.073-0.37-0.074-0.076-0.001-0.137-0.003-0.249-0.048h2.502v-0.312l-0-0z"></path>
<path fill="#ffe15a" d="M17.562 16c0 0.863-0.699 1.562-1.562 1.562s-1.562-0.699-1.562-1.562c0-0.863 0.699-1.562 1.562-1.562s1.562 0.699 1.562 1.562z"></path>
</svg>
