<svg xmlns="http://www.w3.org/2000/svg" width="32" height="32" version="1.1" viewBox="0 0 32 32"><title>azores-islands</title><path fill="#f5f5f5" d="M30.153 22.895l-0-2.651-0-1.698-0.001-5.093-0-1.698-0-2.655c-0-0.194-0.026-0.384-0.075-0.567-0.026-0.098-0.059-0.194-0.099-0.287-0.16-0.381-0.426-0.714-0.773-0.955-0.051-0.035-0.103-0.069-0.157-0.101l-11.947-6.895c-0.682-0.394-1.523-0.394-2.205 0l-11.945 6.899c-0.053 0.030-0.103 0.063-0.152 0.098-0.212 0.147-0.393 0.328-0.54 0.534-0.098 0.138-0.18 0.287-0.244 0.443-0.107 0.261-0.166 0.544-0.166 0.836l0 2.651 0 1.698 0.001 5.092v0.001l0 1.697 0 2.655v0c0 0.725 0.357 1.399 0.946 1.809 0.051 0.035 0.103 0.069 0.157 0.101l11.948 6.895c0.682 0.394 1.523 0.394 2.205-0l11.945-6.899c0.053-0.030 0.103-0.063 0.152-0.098 0.591-0.41 0.95-1.085 0.95-1.813v0 0z"/><path fill="#41479b" d="M11.21 2.424v0l-8.26 4.771c-0.053 0.030-0.103 0.063-0.152 0.098-0.212 0.147-0.393 0.328-0.54 0.534-0.098 0.138-0.18 0.287-0.244 0.443-0.107 0.261-0.166 0.544-0.166 0.836l0 2.651 0 1.698 0.001 5.092v0.001l0 1.697 0 2.655v0c0 0.725 0.357 1.399 0.946 1.809 0.051 0.035 0.103 0.069 0.157 0.101l10.018 5.782v-29.184l-1.761 1.017z"/><path fill="#ffe15a" d="M16.489 15.883c-0.223 0-0.439 0.076-0.613 0.215l-1.055 0.844c-0.174 0.139-0.39 0.215-0.613 0.215h-0.293v-0.168c0-0.259 0.21-0.468 0.468-0.468h0.487v-0.227c0-0.226-0.184-0.41-0.41-0.41h-0.227c0-0.176-0.143-0.318-0.318-0.318v0c-0.879 0-1.592 0.713-1.592 1.592h-0.611c-0.223 0-0.439-0.076-0.613-0.215l-1.055-0.844c-0.174-0.139-0.39-0.215-0.613-0.215h-4.646c-0.157 0-0.235 0.189-0.124 0.3l1.608 1.608c0.206 0.206 0.485 0.321 0.776 0.321h1.138l0.934 0.701c0.22 0.165 0.489 0.255 0.764 0.255h1.168c0.2 0 0.389-0.094 0.51-0.255l0.127-0.17v0.743l-0.786 1.572c-0.078 0.156 0.035 0.339 0.21 0.339h2.571c0.129 0 0.234-0.105 0.234-0.234v-2.844l0.446 0.594c0.12 0.16 0.309 0.255 0.51 0.255h1.168c0.276 0 0.544-0.089 0.764-0.255l0.934-0.701h1.138c0.291 0 0.57-0.116 0.776-0.321l1.608-1.608c0.111-0.111 0.032-0.3-0.124-0.3h-4.646z"/><path fill="#ffe15a" d="M13.021 10.724l0.152 0.457 0.481 0.004c0.062 0 0.088 0.080 0.038 0.117l-0.387 0.286 0.145 0.459c0.019 0.059-0.049 0.109-0.1 0.072l-0.392-0.28-0.392 0.28c-0.051 0.036-0.118-0.013-0.1-0.072l0.145-0.459-0.387-0.286c-0.050-0.037-0.024-0.117 0.038-0.117l0.481-0.004 0.152-0.457c0.020-0.059 0.103-0.059 0.123 0z"/><path fill="#ffe15a" d="M5.952 13.601l0.431 0.215 0.343-0.338c0.044-0.044 0.119-0.006 0.11 0.056l-0.072 0.476 0.427 0.222c0.055 0.029 0.042 0.111-0.019 0.121l-0.475 0.079-0.079 0.475c-0.010 0.061-0.093 0.075-0.122 0.019l-0.222-0.427-0.476 0.072c-0.062 0.009-0.1-0.065-0.056-0.11l0.338-0.343-0.215-0.431c-0.028-0.056 0.031-0.115 0.087-0.087z"/><path fill="#ffe15a" d="M20.054 13.688l-0.215 0.431 0.338 0.343c0.044 0.044 0.006 0.119-0.056 0.11l-0.476-0.072-0.222 0.427c-0.029 0.055-0.111 0.042-0.122-0.019l-0.079-0.475-0.475-0.079c-0.061-0.010-0.075-0.093-0.019-0.121l0.427-0.222-0.072-0.476c-0.009-0.062 0.065-0.1 0.11-0.056l0.343 0.338 0.43-0.215c0.056-0.028 0.115 0.031 0.087 0.087z"/><path fill="#ffe15a" d="M9.201 11.459l0.315 0.364 0.446-0.181c0.058-0.023 0.112 0.040 0.080 0.094l-0.248 0.412 0.31 0.368c0.040 0.048-0.004 0.119-0.064 0.105l-0.469-0.109-0.255 0.408c-0.033 0.053-0.114 0.033-0.12-0.029l-0.041-0.479-0.467-0.116c-0.060-0.015-0.067-0.098-0.010-0.123l0.443-0.188-0.034-0.48c-0.004-0.062 0.073-0.094 0.114-0.047z"/><path fill="#ffe15a" d="M16.833 11.506l-0.034 0.48 0.443 0.188c0.057 0.024 0.051 0.108-0.010 0.123l-0.467 0.116-0.041 0.479c-0.005 0.062-0.087 0.082-0.12 0.029l-0.255-0.408-0.469 0.109c-0.061 0.014-0.104-0.057-0.064-0.105l0.31-0.368-0.248-0.412c-0.032-0.053 0.022-0.117 0.080-0.094l0.446 0.181 0.315-0.364c0.041-0.047 0.118-0.015 0.114 0.047z"/><path fill="#ffe15a" d="M11.075 10.903l0.238 0.418 0.473-0.090c0.061-0.012 0.102 0.061 0.060 0.107l-0.324 0.356 0.232 0.422c0.030 0.055-0.027 0.116-0.084 0.090l-0.439-0.198-0.329 0.351c-0.043 0.045-0.119 0.010-0.112-0.052l0.053-0.478-0.435-0.205c-0.056-0.027-0.047-0.11 0.014-0.122l0.471-0.098 0.060-0.477c0.008-0.062 0.090-0.078 0.121-0.024z"/><path fill="#ffe15a" d="M18.551 12.438l-0.127 0.464 0.398 0.271c0.052 0.035 0.029 0.116-0.033 0.118l-0.481 0.023-0.134 0.462c-0.017 0.060-0.101 0.063-0.123 0.005l-0.17-0.45-0.481 0.015c-0.062 0.002-0.091-0.076-0.043-0.115l0.376-0.301-0.163-0.453c-0.021-0.059 0.044-0.11 0.097-0.076l0.402 0.264 0.38-0.295c0.049-0.038 0.119 0.008 0.102 0.068z"/><path fill="#ffe15a" d="M7.471 12.37l0.38 0.295 0.402-0.264c0.052-0.034 0.118 0.018 0.097 0.076l-0.163 0.453 0.376 0.301c0.049 0.039 0.020 0.117-0.043 0.115l-0.481-0.015-0.17 0.45c-0.022 0.058-0.106 0.055-0.123-0.005l-0.134-0.462-0.481-0.023c-0.062-0.003-0.085-0.083-0.033-0.118l0.398-0.271-0.127-0.464c-0.016-0.060 0.053-0.107 0.102-0.068z"/><path fill="#ffe15a" d="M14.966 10.927l0.060 0.477 0.471 0.098c0.061 0.013 0.071 0.096 0.014 0.122l-0.435 0.205 0.053 0.478c0.007 0.062-0.069 0.097-0.112 0.052l-0.329-0.351-0.439 0.198c-0.057 0.026-0.114-0.036-0.084-0.090l0.232-0.422-0.324-0.356c-0.042-0.046-0.001-0.119 0.060-0.107l0.473 0.090 0.238-0.418c0.031-0.054 0.113-0.038 0.121 0.024z"/><path fill="#ff4b55" d="M5.947 8.803v1.314c0 0.544-0.442 0.986-0.986 0.986s-0.986-0.442-0.986-0.986v-1.314h1.972zM6.276 8.146h-2.629c-0.182 0-0.329 0.147-0.329 0.329v1.643c0 0.907 0.736 1.643 1.643 1.643s1.643-0.736 1.643-1.643v-1.643c-0-0.181-0.147-0.329-0.329-0.329v0z"/><path fill="#f5f5f5" d="M5.947 8.803v1.314c0 0.544-0.442 0.986-0.986 0.986s-0.986-0.442-0.986-0.986v-1.314h1.972z"/><path fill="#ffe15a" d="M3.808 8.474c0 0.091-0.074 0.164-0.164 0.164s-0.164-0.074-0.164-0.164c0-0.091 0.074-0.164 0.164-0.164s0.164 0.074 0.164 0.164z"/><path fill="#ffe15a" d="M6.437 8.474c0 0.091-0.074 0.164-0.164 0.164s-0.164-0.074-0.164-0.164c0-0.091 0.074-0.164 0.164-0.164s0.164 0.074 0.164 0.164z"/><path fill="#ffe15a" d="M3.808 9.789c0 0.091-0.074 0.164-0.164 0.164s-0.164-0.074-0.164-0.164c0-0.091 0.074-0.164 0.164-0.164s0.164 0.074 0.164 0.164z"/><path fill="#ffe15a" d="M6.437 9.789c0 0.091-0.074 0.164-0.164 0.164s-0.164-0.074-0.164-0.164c0-0.091 0.074-0.164 0.164-0.164s0.164 0.074 0.164 0.164z"/><path fill="#ffe15a" d="M5.123 8.474c0 0.091-0.074 0.164-0.164 0.164s-0.164-0.074-0.164-0.164c0-0.091 0.074-0.164 0.164-0.164s0.164 0.074 0.164 0.164z"/><path fill="#ffe15a" d="M6.109 11.001c0 0.091-0.074 0.164-0.164 0.164s-0.164-0.074-0.164-0.164c0-0.091 0.074-0.164 0.164-0.164s0.164 0.074 0.164 0.164z"/><path fill="#ffe15a" d="M4.155 11.001c0 0.091-0.074 0.164-0.164 0.164s-0.164-0.074-0.164-0.164c0-0.091 0.074-0.164 0.164-0.164s0.164 0.074 0.164 0.164z"/><path fill="#41479b" d="M5.173 9.706v0.283c0 0.117-0.095 0.212-0.212 0.212s-0.212-0.095-0.212-0.212v-0.283h0.424z"/><path fill="#41479b" d="M5.173 9.035v0.283c0 0.117-0.095 0.212-0.212 0.212s-0.212-0.095-0.212-0.212v-0.283h0.424z"/><path fill="#41479b" d="M5.173 10.383v0.283c0 0.117-0.095 0.212-0.212 0.212s-0.212-0.095-0.212-0.212v-0.283h0.424z"/><path fill="#41479b" d="M5.745 9.706v0.283c0 0.117-0.095 0.212-0.212 0.212s-0.212-0.095-0.212-0.212v-0.283h0.424z"/><path fill="#41479b" d="M4.602 9.706v0.283c0 0.117-0.095 0.212-0.212 0.212s-0.212-0.095-0.212-0.212v-0.283h0.424z"/></svg>