<!-- Generated by IcoMoon.io -->
<svg version="1.1" xmlns="http://www.w3.org/2000/svg" width="32" height="32" viewBox="0 0 32 32">
<title>balearic-islands</title>
<path fill="#ffe15a" d="M30.153 21.389l-0-1.145-0-1.698-0-0.75-0.001-3.593-0-0.75-0-1.698-0-1.145-0-1.511c-0-0.194-0.026-0.384-0.075-0.567-0.026-0.098-0.059-0.194-0.099-0.287-0.16-0.381-0.426-0.714-0.773-0.955-0.051-0.035-0.103-0.069-0.157-0.101l-11.947-6.895c-0.34-0.196-0.72-0.295-1.1-0.295-0.382-0-0.763 0.098-1.105 0.296l-11.945 6.899c-0.053 0.030-0.103 0.063-0.152 0.098-0.212 0.147-0.393 0.328-0.54 0.534-0.098 0.138-0.18 0.287-0.244 0.443-0.107 0.261-0.166 0.544-0.166 0.836l0 1.506 0 1.145 0 1.698 0 0.75 0.001 3.593 0 0.749v0.001l0 1.697 0 1.145 0 1.51v0c0 0.725 0.357 1.399 0.946 1.809 0.051 0.035 0.103 0.069 0.157 0.101l11.948 6.895c0.682 0.394 1.523 0.394 2.205-0l11.945-6.899c0.053-0.030 0.103-0.063 0.152-0.098 0.592-0.41 0.95-1.085 0.95-1.813l-0-1.506z"></path>
<path fill="#ff4b55" d="M16 7.018h12.749l-6.225-3.593h-6.524z"></path>
<path fill="#ff4b55" d="M16 14.204h14.152l-0-0.75-0-1.698-0-1.145h-14.151z"></path>
<path fill="#ff4b55" d="M1.848 18.546v0.001l0 1.697 0 1.145h28.304l-0-1.145-0-1.698-0-0.75h-28.304z"></path>
<path fill="#ff4b55" d="M4.413 25.653l5.063 2.922h13.048l6.221-3.593h-25.493z"></path>
<path fill="#64466e" d="M14.895 0.296l-11.945 6.899c-0.053 0.030-0.103 0.063-0.152 0.098-0.212 0.147-0.393 0.328-0.54 0.534-0.098 0.138-0.18 0.287-0.244 0.443-0.107 0.261-0.166 0.544-0.166 0.836l0 1.506 0 1.145 0 1.698 0 0.75 0 1.796h13.527c0.345 0 0.625-0.28 0.625-0.625v-15.375c-0.382-0-0.764 0.098-1.105 0.296z"></path>
<path fill="#f5f5f5" d="M14.825 10.393h-1.115v-1.274h0.159v-0.319h-1.593v0.319h0.159v1.274h-0.637v-1.274h0.159v-0.319h-1.593v0.319h0.159v1.274h-0.956v-1.593h0.159v-0.319h-1.593v0.319h0.159v1.593h-0.956v-1.274h0.159v-0.319h-1.593v0.319h0.159v1.274h-0.637v-1.274h0.159v-0.319h-1.593v0.319h0.159v1.274h-1.274v0.319h0.159v2.867h2.23v-0.956c0-0.176 0.143-0.319 0.319-0.319s0.319 0.143 0.319 0.319v0.956h1.593v-0.956c0-0.176 0.143-0.319 0.319-0.319s0.319 0.143 0.319 0.319v0.956h0.319v-1.115c0-0.264 0.214-0.478 0.478-0.478s0.478 0.214 0.478 0.478v1.115h0.319v-0.956c0-0.176 0.143-0.319 0.319-0.319s0.319 0.143 0.319 0.319v0.956h1.593v-0.956c0-0.176 0.143-0.319 0.319-0.319s0.319 0.143 0.319 0.319v0.956h2.23v-2.867h0.159v-0.319l-0.159 0zM5.108 11.667h-0.637v-0.956c0-0.176 0.143-0.319 0.319-0.319s0.319 0.143 0.319 0.319l0 0.956zM7.020 11.667h-0.637v-0.956c0-0.176 0.143-0.319 0.319-0.319s0.319 0.143 0.319 0.319c0 0 0 0.956 0 0.956zM9.25 10.711h-0.637v-0.637c0-0.176 0.143-0.319 0.319-0.319s0.319 0.143 0.319 0.319c0 0 0 0.637 0 0.637zM11.48 11.667h-0.637v-0.956c0-0.176 0.143-0.319 0.319-0.319s0.319 0.143 0.319 0.319l0 0.956zM13.392 11.667h-0.637v-0.956c0-0.176 0.143-0.319 0.319-0.319s0.319 0.143 0.319 0.319l0 0.956z"></path>
</svg>
