<svg xmlns="http://www.w3.org/2000/svg" width="32" height="32" version="1.1" viewBox="0 0 32 32"><title>belarus</title><path fill="#f5f5f5" d="M8.58 16.469l-2.091-11.318-3.54 2.044c-0.015 0.008-0.028 0.018-0.042 0.027-0.001 0.001-0.002 0.001-0.003 0.002-0.036 0.022-0.072 0.045-0.107 0.069-0.023 0.016-0.045 0.034-0.068 0.052-0.108 0.081-0.207 0.171-0.296 0.269-0.003 0.004-0.007 0.007-0.010 0.011-0.029 0.032-0.057 0.065-0.084 0.098s-0.055 0.068-0.081 0.104c-0.098 0.138-0.18 0.287-0.244 0.443-0.107 0.261-0.166 0.544-0.166 0.836l0 2.651 0 1.698 0.001 5.092v0.001l0 1.697 0 2.655v0c0 0.057 0.003 0.114 0.007 0.171 0.001 0.015 0.003 0.030 0.004 0.045 0.005 0.047 0.011 0.094 0.018 0.141 0.002 0.009 0.003 0.019 0.004 0.029 0.010 0.056 0.022 0.112 0.037 0.167 0.002 0.008 0.005 0.016 0.007 0.025 0.013 0.049 0.028 0.098 0.045 0.146 0.003 0.008 0.006 0.017 0.009 0.025 0.040 0.111 0.089 0.219 0.146 0.322 0.002 0.004 0.005 0.009 0.007 0.013 0.060 0.105 0.128 0.206 0.204 0.3 0 0 0 0 0 0 0.028 0.035 0.057 0.069 0.088 0.102 0 0 0.001 0.001 0.001 0.001 0.030 0.033 0.061 0.065 0.094 0.096 0 0 0 0 0 0 0.065 0.063 0.134 0.122 0.207 0.177 0.022 0.017 0.044 0.034 0.066 0.049 0.034 0.024 0.069 0.045 0.105 0.067 0.013 0.008 0.025 0.017 0.038 0.024 0.005 0.003 0.009 0.006 0.014 0.009l3.537 2.041 2.091-10.382z"/><path fill="#73af00" d="M30.153 21.38l-14.231-2.021-9.433 2.021v5.471l8.411 4.854c0.682 0.394 1.523 0.394 2.205-0l11.945-6.899c0.053-0.030 0.103-0.063 0.152-0.098 0.592-0.41 0.95-1.085 0.95-1.813l-0-1.515z"/><path fill="#ff4b55" d="M6.489 21.38h23.664l0 1.515-0-2.651-0-1.698-0.001-5.093-0-1.698-0-2.655c-0-0.194-0.026-0.384-0.075-0.567-0.026-0.098-0.059-0.194-0.099-0.287-0.16-0.381-0.426-0.714-0.773-0.955-0.051-0.035-0.103-0.069-0.157-0.101l-11.947-6.895c-0.682-0.394-1.523-0.394-2.205 0l-8.406 4.855v16.23z"/><path fill="#ff4b55" d="M5.257 21.406v0.301h-0.106v0.395h0.106v0.296h0.104v0.296h0.318v-0.296h0.105v-0.296h0.104v-0.395h-0.104v-0.301h-0.105v-0.026h-0.318v0.026h-0.104zM5.466 21.607h0.106v0.198h0.106v0.197h-0.106v0.202h-0.106v-0.202h-0.105v-0.197h0.105l-0-0.198z"/><path fill="#ff4b55" d="M2.305 22.895h0.211v0.593h-0.211v-0.593z"/><path fill="#ff4b55" d="M5.47 25.772v-0.498h0.211v-0.498h0.209v-0.494h-0.21v-0.498h-0.21v-0.494h-0.211v-0.498h-0.21v-0.494h-0.21v0.494h-0.212v0.498h-0.209v0.494h-0.213v0.498h-0.212v-0.498h-0.211v-0.494h-0.209v-0.498h-0.213v-0.494h-0.209v0.494h-0.212v0.498h-0.209v0.494h-0.213v0.498h-0.178c0.113 0.14 0.244 0.267 0.39 0.377v-0.377h0.209v-0.498h0.212v-0.494h0.209v0.494h0.213v0.498h0.209v0.494h-0.209v0.391l0.209 0.121v-0.014h0.212v-0.498h0.212v0.498h0.213v0.38l0.204 0.118h0.008v0.004l0.631 0.364v-0.369h0.211zM5.049 25.772h-0.21v-0.498h-0.21v-0.498h-0.211v-0.494h0.211v-0.498h0.21v-0.494h0.21v0.494h0.21v0.498h0.211v0.494h-0.211v0.498h-0.21v0.498z"/><path fill="#ff4b55" d="M3.15 21.38h0.209v0.125h-0.209v-0.125z"/><path fill="#ff4b55" d="M4.838 21.38h0.21v0.125h-0.21v-0.125z"/><path fill="#ff4b55" d="M4.204 21.406h-0.212v-0.026h-0.316v0.026h-0.105v0.296h-0.106v0.399h0.106v0.296h0.105v0.296h0.316v-0.296h0.212v0.296h0.317v-0.296h0.107v-0.296h0.103v-0.399h-0.103v-0.296h-0.107v-0.026h-0.317v0.026h-0zM3.992 22.002h-0.104v0.198h-0.107v-0.198h-0.104v-0.202h0.104v-0.197h0.107v0.197h0.104v0.202zM4.416 21.603v0.197h0.104v0.202h-0.104v0.198h-0.106v-0.198h-0.106v-0.202h0.106v-0.197h0.106z"/><path fill="#ff4b55" d="M5.681 22.895h0.21v0.593h-0.21v-0.593z"/><path fill="#ff4b55" d="M5.681 25.772h0.21v0.593h-0.21v-0.593z"/><path fill="#ff4b55" d="M3.993 22.895h0.212v0.593h-0.212v-0.593z"/><path fill="#ff4b55" d="M2.9 24.776c0.013 0.008 0.025 0.017 0.038 0.024v-0.024h-0.038z"/><path fill="#ff4b55" d="M3.15 24.283h0.209v0.494h-0.209v-0.494z"/><path fill="#ff4b55" d="M4.838 24.283h0.21v0.494h-0.21v-0.494z"/><path fill="#ff4b55" d="M2.411 21.406v0.296h-0.106v0.399h0.106v0.296h0.105v0.296h0.316v-0.296h0.106v-0.296h0.103v-0.399h-0.103v-0.296h-0.106v-0.026h-0.316v0.026h-0.105zM2.623 21.603h0.106v0.197h0.103v0.202h-0.103v0.198h-0.106v-0.198h-0.106v-0.202h0.106v-0.197z"/><path fill="#ff4b55" d="M5.361 21.114h0.318v0.266h-0.318v-0.266z"/><path fill="#ff4b55" d="M2.516 21.109h0.316v0.271h-0.316v-0.271z"/><path fill="#ff4b55" d="M2.516 8.216h0.213v0.498h0.209v0.498h0.212v0.494h0.209v-0.494h0.213v-0.498h0.209v-0.498h0.212v-0.494h0.212v0.494h0.213v0.498h0.209v0.498h0.212v0.494h0.21v-0.494h0.21v-0.498h0.211v-0.498h0.21v-0.494h0.21v-0.498h-0.209v-0.494h-0.211v-0.498h-0.212v-0.371l-0.631 0.365v0.007h-0.012l-0.2 0.115v0.383h-0.213v0.494h-0.212v-0.494h-0.212v-0.016l-0.209 0.121v0.389h0.209v0.498h-0.209v0.494h-0.213v0.498h-0.209v-0.498h-0.212v-0.494h-0.209v-0.378c-0.147 0.11-0.278 0.237-0.391 0.378h0.178v0.494h0zM4.416 7.224h0.211v-0.494h0.21v-0.498h0.21v0.498h0.21v0.494h0.211v0.498h-0.211v0.494h-0.21v0.498h-0.21v-0.498h-0.21v-0.494h-0.211c0 0 0-0.498 0-0.498z"/><path fill="#ff4b55" d="M3.15 7.224h0.209v0.498h-0.209v-0.498z"/><path fill="#ff4b55" d="M2.938 7.202c-0.012 0.007-0.023 0.015-0.034 0.022h0.034v-0.022z"/><path fill="#ff4b55" d="M4.838 7.224h0.21v0.498h-0.21v-0.498z"/><path fill="#ff4b55" d="M3.677 21.109h0.316v0.271h-0.316v-0.271z"/><path fill="#ff4b55" d="M5.681 20.315h0.21v0.592h-0.21v-0.592z"/><path fill="#ff4b55" d="M4.628 9.603h-0.107v-0.292h-0.317v0.292h-0.212v-0.292h-0.316v0.292h-0.105v0.3h-0.106v0.395h0.106v0.301h0.105v0.296h0.316v-0.296h0.212v0.296h0.317v-0.296h0.107v-0.301h0.103v-0.395h-0.103c0 0 0-0.3 0-0.3zM3.992 10.2h-0.104v0.202h-0.107v-0.202h-0.104v-0.197h0.104v-0.197h0.107v0.197h0.104v0.197zM4.521 10.2h-0.104v0.202h-0.106v-0.202h-0.106v-0.197h0.106v-0.197h0.106v0.197h0.104v0.197z"/><path fill="#ff4b55" d="M3.993 11.092h0.212v0.597h-0.212v-0.597z"/><path fill="#ff4b55" d="M5.681 18.035h0.21v0.395h-0.21v-0.395z"/><path fill="#ff4b55" d="M4.204 21.109h0.317v0.271h-0.317v-0.271z"/><path fill="#ff4b55" d="M2.305 11.092h0.211v0.597h-0.211v-0.597z"/><path fill="#ff4b55" d="M3.993 8.516h0.212v0.593h-0.212v-0.593z"/><path fill="#ff4b55" d="M5.681 16v0.301h0.21v-0.597h-0.21z"/><path fill="#ff4b55" d="M5.681 13.574h0.21v0.395h-0.21v-0.395z"/><path fill="#ff4b55" d="M5.681 8.516h0.21v0.593h-0.21v-0.593z"/><path fill="#ff4b55" d="M5.681 5.64h0.21v0.593h-0.21v-0.593z"/><path fill="#ff4b55" d="M5.784 10.298h0.104v-0.395h-0.104v-0.3h-0.105v-0.296h-0.318v0.296h-0.104v0.3h-0.106v0.395h0.106v0.296h0.104v0.296h0.318v-0.296h0.105l-0-0.296zM5.679 10.2h-0.106v0.197h-0.106v-0.197h-0.105v-0.202h0.105v-0.193h0.106v0.193h0.106l-0 0.202z"/><path fill="#ff4b55" d="M5.681 11.092h0.21v0.597h-0.21v-0.597z"/><path fill="#ff4b55" d="M2.938 9.603h-0.106v-0.292h-0.316v0.292h-0.105v0.3h-0.106v0.395h0.106v0.301h0.105v0.296h0.316v-0.296h0.106v-0.301h0.103v-0.395h-0.103v-0.3zM2.832 10.2h-0.103v0.202h-0.108v-0.202h-0.104v-0.197h0.104v-0.197h0.108v0.197h0.103v0.197z"/><path fill="#ff4b55" d="M3.993 14.961h0.212v0.494h-0.212v-0.494z"/><path fill="#ff4b55" d="M4.521 16v0.301h0.21v-0.597h-0.21z"/><path fill="#ff4b55" d="M3.677 16.004v-0.3h-0.211v0.597h0.211z"/><path fill="#ff4b55" d="M3.993 20.315h0.212v0.592h-0.212v-0.592z"/><path fill="#ff4b55" d="M3.993 16.549h0.212v0.494h-0.212v-0.494z"/><path fill="#ff4b55" d="M3.888 16.447h0.104v-0.146h0.211v0.146h0.106v0.198h0.21v-0.296h-0.104v-0.15h-0.106v-0.395h0.106v-0.15h0.104v-0.296h-0.21v0.198h-0.106v0.15h-0.211v-0.15h-0.104v-0.198h-0.212v0.296h0.104v0.15h0.107v0.395h-0.107v0.15h-0.104v0.296h0.212z"/><path fill="#ff4b55" d="M2.305 16v0.301h0.211v-0.597h-0.211z"/><path fill="#ff4b55" d="M2.305 13.574h0.211v0.395h-0.211v-0.395z"/><path fill="#ff4b55" d="M2.305 8.516h0.211v0.593h-0.211v-0.593z"/><path fill="#ff4b55" d="M2.305 18.035h0.211v0.395h-0.211v-0.395z"/><path fill="#ff4b55" d="M3.359 21.011h0.213v-0.498h0.209v-0.498h0.212v-0.494h0.212v0.494h0.213v0.498h0.211v0.498h0.21v0.369h0.21v-0.369h0.21v-0.498h0.211v-0.498h0.21v-0.494h0.21v-0.498h-0.21v-0.494h-0.21v-0.494h-0.211v-0.498h-0.21v0.498h-0.21v0.494h-0.212v0.494h0.212v0.601h-0.212v-0.399h-0.209v-0.794h-0.106v-0.494h0.318v-0.399h0.21v-0.296h0.21v-0.494h0.21v0.494h0.211v0.296h0.211v0.301h0.209v-0.893h-0.209v-0.395h-0.211v-0.352h-0.211v-0.395h0.211v-0.344h0.211v-0.399h0.209v-0.893h-0.209v0.296h-0.211v0.296h-0.211v0.498h-0.21v-0.498h-0.21v-0.296h-0.21v-0.395h-0.318v-0.494h0.106v-0.794h0.209v-0.399h0.212v0.597h-0.212v0.498h0.212v0.494h0.21v0.494h0.21v-0.494h0.211v-0.494h0.21v-0.498h0.21v-0.498h-0.21v-0.494h-0.21v-0.498h-0.211v-0.494h-0.21v-0.498h-0.21v0.498h-0.212v0.494h-0.209v0.498h-0.213v0.494h-0.212v-0.494h-0.211v-0.498h-0.209v-0.494h-0.213v-0.498h-0.209v0.498h-0.212v0.494h-0.212v0.498h-0.21v0.494h-0.211v0.498h0.211v0.498h0.21v0.494h0.212v0.494h0.212v-0.494h0.209v-0.494h0.213v-0.498h-0.213v-0.597h0.213v0.399h0.209v0.794h0.107v0.489l-0.317 0.004v0.395h-0.213v0.296h-0.209v0.498h-0.212v-0.498h-0.211v-0.296h-0.21v-0.296h-0.211v0.893h0.211v0.399h0.21v0.344h0.212v0.395h-0.212v0.352h-0.21v0.395h-0.211v0.893h0.211v-0.301h0.21v-0.296h0.212v-0.494h0.212v0.494h0.209v0.296h0.213v0.399l0.317 0.004v0.489h-0.107v0.794h-0.209v0.399h-0.213v-0.601h0.213v-0.494h-0.213v-0.494h-0.209v-0.498h-0.212v0.498h-0.212v0.494h-0.21v0.494h-0.211v0.498h0.211v0.494h0.213v0.498h0.209v0.498h0.212v0.369h0.209v-0.369h0v-0zM3.572 16.945v-0.395h-0.213v-0.352h-0.209v-0.395h0.209v-0.344h0.213v-0.399h0.317v-0.468h0.104v-0.228h0.211v0.223h0.106v0.472h0.318v0.399h0.21v0.344h0.21v0.395h-0.21v0.352h-0.21v0.395h-0.318v0.468h-0.106v0.223h-0.212v-0.223h-0.104v-0.468h-0.317c0 0 0 0 0 0z"/><path fill="#ff4b55" d="M2.305 20.315h0.211v0.592h-0.211v-0.592z"/></svg>