<svg xmlns="http://www.w3.org/2000/svg" width="32" height="32" version="1.1" viewBox="0 0 32 32"><title>belize</title><path fill="#41479b" d="M30.153 22.895l-0-2.651-0-1.698-0.001-5.093-0-1.698-0-2.655c0-0.194-0.026-0.384-0.075-0.567-0.026-0.098-0.059-0.194-0.099-0.287-0.16-0.381-0.426-0.714-0.773-0.955-0.051-0.035-0.103-0.069-0.157-0.101l-11.947-6.895c-0.682-0.394-1.523-0.394-2.205 0l-11.945 6.899c-0.053 0.030-0.103 0.063-0.152 0.098-0.212 0.147-0.393 0.328-0.54 0.534-0.098 0.138-0.18 0.287-0.244 0.443-0.107 0.261-0.166 0.544-0.166 0.836l0 2.651 0 1.698 0.001 5.092v0.001l0 1.697 0 2.655v0c0 0.725 0.357 1.399 0.946 1.809 0.051 0.035 0.103 0.069 0.157 0.101l11.948 6.895c0.682 0.394 1.523 0.394 2.205-0l11.945-6.899c0.053-0.030 0.103-0.063 0.152-0.098 0.591-0.41 0.95-1.085 0.95-1.813v0 0z"/><path fill="#ff4b55" d="M26.178 5.535l-9.078-5.239c-0.683-0.394-1.523-0.394-2.205 0l-9.973 5.76h22.159l-0.903-0.521z"/><path fill="#ff4b55" d="M4.919 25.944l9.981 5.76c0.682 0.394 1.523 0.394 2.205-0l9.973-5.76h-22.159z"/><path fill="#f5f5f5" d="M24.123 16c0 4.486-3.637 8.122-8.122 8.122s-8.122-3.637-8.122-8.122c0-4.486 3.637-8.122 8.122-8.122s8.122 3.637 8.122 8.122z"/><path fill="#82afff" d="M14.441 20.271l-1.253 0.209c-0.158 0.026-0.302-0.096-0.302-0.256v-0.471h1.555v0.518z"/><path fill="#82afff" d="M17.551 20.271l1.253 0.209c0.158 0.026 0.302-0.096 0.302-0.256v-0.471h-1.555v0.518z"/><path fill="#965032" d="M15.737 11.841h-0.108c-0.13 0-0.247-0.072-0.305-0.189l-0.192-0.383 0.174-0.087 0.192 0.383c0.025 0.050 0.075 0.081 0.131 0.081h0.108v0.194z"/><path fill="#965032" d="M13.73 11.441l0.321 0.643-0.174 0.087-0.321-0.643 0.174-0.087z"/><path fill="#965032" d="M16.353 14.829l-0.531-0.531c-0.115-0.115-0.182-0.275-0.182-0.438v-0.179c0-0.066-0.016-0.131-0.045-0.19l-0.132-0.265c-0.028-0.055-0.083-0.090-0.145-0.090h-0.457c-0.136 0-0.258-0.075-0.319-0.197l-0.188-0.375 0.174-0.087 0.188 0.375c0.028 0.055 0.083 0.090 0.145 0.090h0.457c0.136 0 0.258 0.075 0.319 0.197l0.132 0.265c0.043 0.086 0.065 0.181 0.065 0.277v0.179c0 0.112 0.045 0.222 0.125 0.301l0.199 0.199v-0.905c0-0.245-0.084-0.486-0.238-0.678-0.181-0.226-0.28-0.51-0.28-0.799v-0.751h0.194v0.751c0 0.245 0.085 0.486 0.238 0.678 0.181 0.226 0.28 0.51 0.28 0.799v1.375h-0v-0z"/><path fill="#965032" d="M15.89 14.327h-0.288c-0.178 0-0.339-0.112-0.401-0.279l-0.073-0.197 0.182-0.068 0.073 0.197c0.034 0.091 0.122 0.152 0.219 0.152h0.289l0 0.194z"/><path fill="#965032" d="M16.685 10.928l0.178 0.078-1.094 2.48-0.178-0.078 1.094-2.48z"/><path fill="#965032" d="M17.13 13.137h-0.939v-0.194h0.745v-0.939h0.194z"/><path fill="#73af00" d="M15.348 14.076h-0.777c-0.215 0-0.389-0.174-0.389-0.389v0c0-0.215 0.174-0.389 0.389-0.389h0.777c0.215 0 0.389 0.174 0.389 0.389v0c0 0.215-0.174 0.389-0.389 0.389z"/><path fill="#73af00" d="M17.162 14.076h-0.777c-0.215 0-0.389-0.174-0.389-0.389v0c0-0.215 0.174-0.389 0.389-0.389h0.777c0.215 0 0.389 0.174 0.389 0.389v0c0 0.215-0.174 0.389-0.389 0.389z"/><path fill="#73af00" d="M17.94 13.299h-1.037c-0.215 0-0.389-0.174-0.389-0.389v0c0-0.215 0.174-0.389 0.389-0.389h1.037c0.215 0 0.389 0.174 0.389 0.389v0c-0 0.215-0.174 0.389-0.389 0.389z"/><path fill="#73af00" d="M18.199 12.262h-1.814c-0.215 0-0.389-0.174-0.389-0.389v0c0-0.215 0.174-0.389 0.389-0.389h1.814c0.215 0 0.389 0.174 0.389 0.389v0c-0 0.215-0.174 0.389-0.389 0.389z"/><path fill="#73af00" d="M17.162 11.226h-0.518c-0.215 0-0.389-0.174-0.389-0.389v0c0-0.215 0.174-0.389 0.389-0.389h0.518c0.215 0 0.389 0.174 0.389 0.389v0c0 0.215-0.174 0.389-0.389 0.389z"/><path fill="#73af00" d="M13.794 11.744h-0.259c-0.215 0-0.389-0.174-0.389-0.389v0c0-0.215 0.174-0.389 0.389-0.389h0.259c0.215 0 0.389 0.174 0.389 0.389v0c0 0.215-0.174 0.389-0.389 0.389z"/><path fill="#73af00" d="M15.608 11.485h-0.777c-0.215 0-0.389-0.174-0.389-0.389v0c0-0.215 0.174-0.389 0.389-0.389h0.777c0.215 0 0.389 0.174 0.389 0.389v0c-0 0.215-0.174 0.389-0.389 0.389z"/><path fill="#73af00" d="M15.348 12.781h-1.555c-0.215 0-0.389-0.174-0.389-0.389v0c0-0.215 0.174-0.389 0.389-0.389h1.555c0.215 0 0.389 0.174 0.389 0.389v0c0 0.215-0.174 0.389-0.389 0.389z"/><path fill="#73af00" d="M19.883 18.198h-7.774c-0.286 0-0.518 0.232-0.518 0.518s0.232 0.518 0.518 0.518h2.073c0 0.286 0.232 0.518 0.518 0.518h2.591c0.286 0 0.518-0.232 0.518-0.518h2.073c0.286 0 0.518-0.232 0.518-0.518s-0.232-0.518-0.518-0.518z"/><path fill="#be7855" d="M21.163 13.598c-0.019-0.039-0.12 0.007-0.184-0.016-0.783-0.291-1.834-0.821-2.521-1.183l-0.138-0.218-1.302-0.633c-0.083-0.040-0.183-0.009-0.228 0.071l-0.064 0.113c-0.049 0.086-0.017 0.196 0.071 0.241l1.24 0.645 0.35-0.026 1.362 0.7c0 0 0.925 0.473 0.974 0.508s0.077 0.229 0.169 0.213c0.066-0.012 0.354-0.247 0.27-0.416z"/><path fill="#ffbe3c" d="M12.573 18.587c0 0 0.086 0.383 0.005 0.427s-0.513 0.043-0.502-0.049c0.011-0.092 0.070-0.416 0.070-0.416l0.427 0.038z"/><path fill="#ffbe3c" d="M13.291 18.382c0 0-0.070 0.286 0.070 0.297s0.934 0.005 0.956-0.016c0.022-0.022 0.049-0.076 0.049-0.076l-0.734-0.205-0.34 0z"/><path fill="#eaf3f5" d="M12.486 14.813c0 0-0.193 0.459-0.263 2.049-0.019 0.423 0.032 0.324-0.178 1.684l0.25 0.13c0.073 0.038 0.16 0.035 0.23-0.007l0.243-0.147c0 0-0.119-1.522 0.27-2.397 0 0 0.205 0.378 0.205 0.659s-0.011 1.63-0.011 1.63 0.454 0.076 0.659 0.054c0 0-0.13-2.929-0.259-3.618l-1.146-0.037z"/><path fill="#965032" d="M12.522 14.619c0 0-0.077 0.057-0.037 0.194 0 0 0.591 0.255 1.146 0.037 0 0 0.061-0.089-0.016-0.198l-1.093-0.032z"/><path fill="#965032" d="M11.731 13.215c-0.336 0.125-0.848 0.437-0.815 0.686s0.208 0.188 0.263 0.127 0.213-0.257 0.262-0.291 0.845-0.443 0.845-0.443l2.107-1.083c0 0 0.016-0.105-0.109-0.19-0 0-1.289 0.726-2.552 1.196z"/><path fill="#ffbe3c" d="M12.725 11.995l-0.012 0.089c0 0-0.032 0.571 0.154 0.725 0 0 0.041 0.117-0.024 0.174s-0.704 0.381-0.704 0.381-0.166 0.344-0.162 0.538c0 0-0.158-0.061-0.142-0.138s0.109-0.279 0.081-0.377-0.134-0.069-0.134-0.069-0.053 0.057 0.032 0.093l-0.028 0.121-0.344 0.202 0.077 0.093c0 0 0.004 0.713 0.425 0.806 0 0 0.223 0.016 0.486-0.486 0 0 0.142 0.251 0.093 0.47 0 0 0.462 0.251 1.093 0.032l0.008-0.437c0 0 0.097 0.672 0.429 0.607 0 0 0.92-0.354 0.767-0.489-0.356-0.313-0.787-0.049-0.787-0.049-0.021-0.455-0.059-1.043-0.118-1.107-0.097-0.105-0.397-0.049-0.456-0.184s-0.043-0.373 0.022-0.648c0.065-0.275-0.265-0.47-0.265-0.47l-0.491 0.119z"/><path fill="#464655" d="M12.712 12.084c0 0 0.331 0.084 0.59-0.019l0.113 0.281h0.065c0 0 0.156-0.52-0.051-0.513 0 0-0.001-0.169-0.363-0.162-0.311 0.006-0.419 0.208-0.354 0.413z"/><path fill="#965032" d="M19.462 18.587c0 0-0.086 0.383-0.005 0.427s0.513 0.043 0.502-0.049c-0.011-0.092-0.070-0.416-0.070-0.416l-0.427 0.038z"/><path fill="#965032" d="M18.744 18.382c0 0 0.070 0.286-0.070 0.297s-0.934 0.005-0.956-0.016c-0.022-0.022-0.049-0.076-0.049-0.076l0.734-0.205 0.34 0z"/><path fill="#eaf3f5" d="M19.549 14.813c0 0 0.193 0.459 0.263 2.049 0.019 0.423-0.032 0.324 0.178 1.684l-0.25 0.13c-0.073 0.038-0.16 0.035-0.23-0.007l-0.243-0.147c0 0 0.119-1.522-0.27-2.397 0 0-0.205 0.378-0.205 0.659s0.011 1.63 0.011 1.63-0.454 0.076-0.659 0.054c0 0 0.13-2.929 0.259-3.618l1.146-0.037z"/><path fill="#be7855" d="M19.513 14.619c0 0 0.077 0.057 0.037 0.194 0 0-0.591 0.255-1.146 0.037 0 0-0.061-0.089 0.016-0.198l1.093-0.032z"/><path fill="#965032" d="M19.311 11.995l0.012 0.089c0 0 0.032 0.571-0.154 0.725 0 0-0.040 0.117 0.024 0.174s0.705 0.381 0.705 0.381 0.166 0.344 0.162 0.538c0 0 0.158-0.061 0.142-0.138s-0.109-0.279-0.081-0.377 0.134-0.069 0.134-0.069 0.053 0.057-0.032 0.093l0.028 0.121 0.344 0.202-0.077 0.093c0 0-0.004 0.713-0.425 0.806 0 0-0.223 0.016-0.486-0.486 0 0-0.142 0.251-0.093 0.47 0 0-0.462 0.251-1.093 0.032l-0.008-0.437c0 0-0.097 0.672-0.429 0.607 0 0-0.92-0.354-0.767-0.489 0.356-0.313 0.787-0.049 0.787-0.049 0.021-0.455 0.059-1.043 0.118-1.107 0.097-0.105 0.397-0.049 0.456-0.184s0.043-0.373-0.022-0.648c-0.065-0.275 0.265-0.47 0.265-0.47l0.491 0.119z"/><path fill="#464655" d="M19.323 12.084c0 0-0.331 0.084-0.59-0.019l-0.113 0.281h-0.065c0 0-0.156-0.52 0.051-0.513 0 0 0.001-0.169 0.363-0.162 0.311 0.006 0.419 0.208 0.354 0.413z"/><path fill="#eaf3f5" d="M13.768 12.3c-0.027-0.066 0.018-0.084 0.018-0.084s0.328-0.18 0.366-0.177c0.063 0.005 0.14 0.116 0.14 0.21s0.123 0.34 0.376 0.401c0 0-0.316 0.429-0.754 0.37 0-0 0.030-0.294-0.146-0.721z"/><path fill="#82afff" d="M14.227 14.311c-0.097 0-0.176 0.084-0.176 0.188v2.145c0 0.518 0.243 2.332 1.943 2.851 1.701-0.518 1.943-2.332 1.943-2.851v-2.145c0-0.104-0.079-0.188-0.176-0.188h-3.535z"/><path fill="#ffe15a" d="M17.938 16.643v-2.145c0-0.104-0.079-0.188-0.176-0.188h-1.768v1.814l1.708 1.708c0.189-0.499 0.235-0.966 0.235-1.19z"/><path fill="#eaf3f5" d="M14.051 16.643v-2.145c0-0.104 0.079-0.188 0.176-0.188h1.768v1.814l-1.708 1.708c-0.189-0.499-0.235-0.966-0.235-1.19z"/><path fill="#8c5a28" d="M14.849 17.778l0.45 0.476h1.253l0.266-0.34-0.305 0.122h-1.012z"/><path fill="#f5f5f5" d="M15.333 17.164l-0.069 0.692-0.312-0.119c0 0 0.144-0.334 0.381-0.573z"/><path fill="#8c5a28" d="M15.949 16.89h0.046v1.179h-0.046v-1.179z"/><path fill="#8c5a28" d="M16.377 16.99h0.046v1.079h-0.046v-1.079z"/><path fill="#8c5a28" d="M15.524 16.99h0.046v1.079h-0.046v-1.079z"/><path fill="#f5f5f5" d="M16.128 17.957h-0.312c-0.021 0-0.038-0.017-0.038-0.038v-0.172c0-0.021 0.017-0.038 0.038-0.038h0.312c0.021 0 0.038 0.017 0.038 0.038v0.172c-0 0.021-0.017 0.038-0.038 0.038z"/><path fill="#f5f5f5" d="M16.128 17.625h-0.312c-0.021 0-0.038-0.017-0.038-0.038v-0.172c0-0.021 0.017-0.038 0.038-0.038h0.312c0.021 0 0.038 0.017 0.038 0.038v0.172c-0 0.021-0.017 0.038-0.038 0.038z"/><path fill="#f5f5f5" d="M16.128 17.32h-0.312c-0.021 0-0.038-0.017-0.038-0.038v-0.172c0-0.021 0.017-0.038 0.038-0.038h0.312c0.021 0 0.038 0.017 0.038 0.038v0.172c-0 0.021-0.017 0.038-0.038 0.038z"/><path fill="#f5f5f5" d="M16.529 17.957h-0.259c-0.021 0-0.038-0.017-0.038-0.038v-0.172c0-0.021 0.017-0.038 0.038-0.038h0.259c0.021 0 0.038 0.017 0.038 0.038v0.172c0 0.021-0.017 0.038-0.038 0.038z"/><path fill="#f5f5f5" d="M16.529 17.651h-0.259c-0.021 0-0.038-0.017-0.038-0.038v-0.133c0-0.021 0.017-0.038 0.038-0.038h0.259c0.021 0 0.038 0.017 0.038 0.038v0.133c0 0.021-0.017 0.038-0.038 0.038z"/><path fill="#f5f5f5" d="M16.529 17.349h-0.259c-0.021 0-0.038-0.017-0.038-0.038v-0.099c0-0.021 0.017-0.038 0.038-0.038h0.259c0.021 0 0.038 0.017 0.038 0.038v0.099c0 0.021-0.017 0.038-0.038 0.038z"/><path fill="#f5f5f5" d="M15.676 17.957h-0.259c-0.021 0-0.038-0.017-0.038-0.038v-0.172c0-0.021 0.017-0.038 0.038-0.038h0.259c0.021 0 0.038 0.017 0.038 0.038v0.172c0 0.021-0.017 0.038-0.038 0.038z"/><path fill="#f5f5f5" d="M15.676 17.651h-0.259c-0.021 0-0.038-0.017-0.038-0.038v-0.133c0-0.021 0.017-0.038 0.038-0.038h0.259c0.021 0 0.038 0.017 0.038 0.038v0.133c0 0.021-0.017 0.038-0.038 0.038z"/><path fill="#f5f5f5" d="M15.676 17.349h-0.259c-0.021 0-0.038-0.017-0.038-0.038v-0.099c0-0.021 0.017-0.038 0.038-0.038h0.259c0.021 0 0.038 0.017 0.038 0.038v0.099c0 0.021-0.017 0.038-0.038 0.038z"/><path fill="#ff4b55" d="M16.376 16.99v0.139l-0.205-0.071z"/><path fill="#ff4b55" d="M15.524 16.99v0.139l-0.205-0.071z"/><path fill="#ff4b55" d="M15.951 16.889v0.139l-0.205-0.071z"/><path fill="#4173cd" d="M17.537 18.198h-3.085c0.046 0.087 0.096 0.174 0.153 0.259h2.779c0.057-0.085 0.107-0.172 0.153-0.259z"/><path fill="#73af00" d="M17.384 18.457h-2.779c0.123 0.185 0.273 0.36 0.454 0.518h1.872c0.18-0.158 0.331-0.334 0.454-0.518v0z"/><path fill="#ffe15a" d="M15.059 18.975c0.249 0.218 0.554 0.402 0.936 0.518 0.382-0.116 0.687-0.3 0.936-0.518h-1.872z"/><path fill="#be7855" d="M15.662 16.277c0 0-0.019 0.007-0.039 0.004-0.016-0.007-0.048-0.008-0.029-0.068 0.009-0.030 0.029-0.072 0.015-0.082-0.012-0.014-0.024-0.028-0.038-0.044-0.027-0.031-0.057-0.066-0.090-0.105-0.068-0.075-0.149-0.161-0.243-0.246-0.047-0.043-0.095-0.087-0.145-0.131-0.051-0.043-0.098-0.091-0.154-0.131-0.031-0.017-0.071-0.025-0.106-0.038s-0.056-0.040-0.081-0.062c-0.049-0.045-0.097-0.090-0.144-0.133-0.095-0.085-0.178-0.169-0.249-0.241-0.069-0.069-0.125-0.129-0.164-0.172-0.037-0.042-0.035-0.105 0.005-0.144l0.115-0.111c0.040-0.039 0.104-0.039 0.144-0 0.042 0.041 0.1 0.099 0.166 0.17 0.070 0.074 0.151 0.16 0.232 0.257 0.041 0.048 0.084 0.098 0.127 0.148 0.021 0.026 0.046 0.048 0.059 0.083s0.019 0.076 0.034 0.108c0.038 0.057 0.085 0.106 0.126 0.159 0.043 0.051 0.085 0.101 0.126 0.149 0.082 0.097 0.165 0.181 0.238 0.252 0.037 0.034 0.071 0.066 0.101 0.094 0.015 0.014 0.029 0.027 0.042 0.039 0.010 0.015 0.053-0.004 0.083-0.012 0.060-0.017 0.060 0.015 0.067 0.031 0.002 0.020-0.006 0.039-0.006 0.039l-0.193 0.187z"/><path fill="#965032" d="M14.393 16.481c-0.020 0-0.040-0.006-0.058-0.019-0.043-0.032-0.052-0.093-0.020-0.136l0.923-1.252c0.032-0.043 0.092-0.053 0.136-0.020s0.052 0.093 0.020 0.136l-0.923 1.252c-0.019 0.026-0.048 0.039-0.078 0.039z"/><path fill="#f5f5f5" d="M15.132 14.991l0.48 0.319 0.205-0.286-0.448-0.362z"/><path fill="#965032" d="M16.409 14.868l1.231 1.518c0 0 0.173 0.008 0.149-0.13l-1.274-1.495-0.106 0.106z"/><path fill="#eaf3f5" d="M16.134 15.077c0 0 0.346-0.063 0.492-0.279l0.197 0.232c0 0-0.323 0.228-0.354 0.476 0 0-0.264-0.071-0.334-0.429z"/><path fill="#965032" d="M17.463 14.927c-0.023 0-0.044-0.012-0.056-0.034-0.035-0.066-0.041-0.126-0.018-0.178 0.032-0.073 0.108-0.094 0.117-0.097 0.034-0.008 0.068 0.012 0.077 0.045s-0.011 0.068-0.045 0.076c-0.007 0.002-0.028 0.011-0.034 0.026s-0.001 0.039 0.015 0.069c0.016 0.031 0.004 0.069-0.026 0.085-0.009 0.005-0.019 0.007-0.029 0.007z"/><path fill="#965032" d="M16.452 15.864c0-0.023-0.012-0.044-0.034-0.056-0.066-0.035-0.126-0.041-0.178-0.018-0.073 0.032-0.094 0.108-0.097 0.117-0.008 0.034 0.012 0.068 0.045 0.077s0.068-0.011 0.076-0.045c0.002-0.007 0.011-0.028 0.026-0.034s0.039-0.001 0.069 0.014c0.031 0.016 0.069 0.004 0.085-0.026 0.005-0.009 0.007-0.019 0.007-0.029z"/><path fill="#eaf3f5" d="M17.505 14.785l-1.159 1.138 0.273 0.304 1.133-1.143z"/><path fill="#ffbe3c" d="M11.618 13.145c0.078-0.018 0.146 0.086 0.076 0.162s-0.273 0.212-0.335 0.2c-0.108-0.022-0.184-0.259 0.259-0.362z"/><path fill="#965032" d="M20.413 13.254c-0.072-0.018-0.135 0.086-0.070 0.162s0.253 0.212 0.31 0.2c0.1-0.022 0.17-0.259-0.24-0.362z"/><path fill="#464655" d="M17.762 14.311c0.097 0 0.176 0.084 0.176 0.188v2.145c0 0.518-0.243 2.332-1.944 2.851-1.701-0.518-1.943-2.332-1.943-2.851v-2.145c0-0.104 0.079-0.188 0.176-0.188h3.535zM17.762 14.181h-3.535c-0.168 0-0.305 0.142-0.305 0.317v2.145c0 0.124 0.017 0.777 0.346 1.48 0.35 0.747 0.934 1.264 1.689 1.494l0.038 0.012 0.038-0.012c0.755-0.23 1.339-0.747 1.689-1.494 0.33-0.703 0.346-1.356 0.346-1.48v-2.145c-0-0.175-0.137-0.317-0.306-0.317v0z"/><path fill="#eaf3f5" d="M19.106 19.524c-0.551-0.185-1.141-0.099-1.698 0.272-0.712 0.475-1.184 0.475-1.411 0.475s-0.699 0-1.411-0.475c-0.557-0.371-1.148-0.457-1.698-0.272v0.555c0.347-0.166 0.836-0.235 1.411 0.148 0.843 0.562 1.443 0.562 1.699 0.562s0.856 0 1.698-0.562c0.575-0.384 1.064-0.314 1.411-0.148v-0.555h-0z"/><path fill="#965032" d="M15.996 22.474c-3.644 0-6.608-2.964-6.608-6.608s2.964-6.608 6.608-6.608 6.608 2.964 6.608 6.608c0 3.643-2.964 6.608-6.608 6.608zM15.996 9.517c-3.501 0-6.349 2.848-6.349 6.349s2.848 6.349 6.349 6.349 6.349-2.848 6.349-6.349c-0-3.501-2.848-6.349-6.349-6.349z"/><path fill="#73af00" d="M8.767 16.416c0 0-0.027-0.81 0.75-0.81 0 0 0.016 0.319-0.265 0.459-0.227 0.113-0.486 0.351-0.486 0.351z"/><path fill="#73af00" d="M10.268 16.416c0 0 0.027-0.81-0.75-0.81 0 0-0.016 0.319 0.265 0.459 0.227 0.113 0.486 0.351 0.486 0.351z"/><path fill="#73af00" d="M23.22 15.607c0 0 0.027 0.81-0.75 0.81 0 0-0.016-0.319 0.265-0.459 0.227-0.114 0.486-0.351 0.486-0.351z"/><path fill="#73af00" d="M21.719 15.607c0 0-0.027 0.81 0.75 0.81 0 0 0.016-0.319-0.265-0.459-0.227-0.114-0.486-0.351-0.486-0.351z"/><path fill="#73af00" d="M16.398 23.238c0 0-0.81 0.027-0.81-0.75 0 0 0.319-0.016 0.459 0.265 0.113 0.227 0.351 0.486 0.351 0.486z"/><path fill="#73af00" d="M16.398 21.737c0 0-0.81-0.027-0.81 0.75 0 0 0.319 0.016 0.459-0.265 0.113-0.227 0.351-0.486 0.351-0.486z"/><path fill="#73af00" d="M15.589 8.786c0 0 0.81-0.027 0.81 0.75 0 0-0.319 0.016-0.459-0.265-0.113-0.227-0.351-0.486-0.351-0.486z"/><path fill="#73af00" d="M15.589 10.287c0 0 0.81 0.027 0.81-0.75 0 0-0.319-0.016-0.459 0.265-0.113 0.227-0.351 0.486-0.351 0.486z"/><path fill="#73af00" d="M11.17 21.407c0 0-0.592-0.553-0.042-1.103 0 0 0.237 0.214 0.137 0.512-0.080 0.241-0.095 0.592-0.095 0.592z"/><path fill="#73af00" d="M12.232 20.346c0 0-0.553-0.592-1.103-0.042 0 0 0.214 0.237 0.511 0.137 0.241-0.080 0.592-0.095 0.592-0.095z"/><path fill="#73af00" d="M20.817 10.616c0 0 0.592 0.553 0.042 1.103 0 0-0.237-0.214-0.137-0.511 0.080-0.241 0.095-0.592 0.095-0.592z"/><path fill="#73af00" d="M19.756 11.677c0 0 0.553 0.592 1.103 0.042 0 0-0.214-0.237-0.512-0.137-0.241 0.080-0.592 0.095-0.592 0.095z"/><path fill="#73af00" d="M21.389 20.835c0 0-0.553 0.592-1.103 0.042 0 0 0.214-0.237 0.512-0.137 0.241 0.080 0.592 0.095 0.592 0.095z"/><path fill="#73af00" d="M20.328 19.773c0 0-0.592 0.553-0.042 1.103 0 0 0.237-0.214 0.137-0.512-0.080-0.241-0.095-0.592-0.095-0.592z"/><path fill="#73af00" d="M10.598 11.188c0 0 0.553-0.592 1.103-0.042 0 0-0.214 0.237-0.511 0.137-0.241-0.080-0.592-0.095-0.592-0.095z"/><path fill="#73af00" d="M11.659 12.25c0 0 0.592-0.553 0.042-1.103 0 0-0.237 0.214-0.137 0.511 0.080 0.241 0.095 0.592 0.095 0.592z"/><path fill="#73af00" d="M9.472 19.151c0 0-0.335-0.738 0.383-1.035 0 0 0.137 0.288-0.069 0.525-0.166 0.192-0.315 0.51-0.315 0.51z"/><path fill="#73af00" d="M10.859 18.577c0 0-0.285-0.758-1.003-0.461 0 0 0.107 0.3 0.42 0.323 0.253 0.018 0.583 0.138 0.583 0.138z"/><path fill="#73af00" d="M22.515 12.872c0 0 0.335 0.738-0.383 1.035 0 0-0.137-0.288 0.069-0.525 0.166-0.192 0.315-0.51 0.315-0.51z"/><path fill="#73af00" d="M21.128 13.447c0 0 0.285 0.758 1.003 0.461 0 0-0.107-0.3-0.42-0.323-0.253-0.018-0.583-0.138-0.583-0.138z"/><path fill="#73af00" d="M19.133 22.533c0 0-0.738 0.335-1.035-0.383 0 0 0.288-0.137 0.525 0.069 0.192 0.166 0.51 0.315 0.51 0.315z"/><path fill="#73af00" d="M18.558 21.146c0 0-0.758 0.285-0.461 1.003 0 0 0.3-0.107 0.323-0.42 0.018-0.253 0.138-0.583 0.138-0.583z"/><path fill="#73af00" d="M12.854 9.49c0 0 0.738-0.335 1.035 0.383 0 0-0.288 0.137-0.525-0.069-0.192-0.166-0.51-0.315-0.51-0.315z"/><path fill="#73af00" d="M13.428 10.877c0 0 0.758-0.285 0.461-1.003 0 0-0.3 0.107-0.323 0.42-0.018 0.253-0.138 0.583-0.138 0.583z"/><path fill="#73af00" d="M13.602 22.843c0 0-0.758-0.285-0.461-1.003 0 0 0.3 0.107 0.323 0.42 0.018 0.253 0.138 0.583 0.138 0.583z"/><path fill="#73af00" d="M14.177 21.456c0 0-0.738-0.335-1.035 0.383 0 0 0.288 0.137 0.525-0.069 0.192-0.166 0.51-0.315 0.51-0.315z"/><path fill="#73af00" d="M18.385 9.181c0 0 0.758 0.285 0.461 1.003 0 0-0.3-0.107-0.323-0.42-0.018-0.253-0.138-0.583-0.138-0.583z"/><path fill="#73af00" d="M17.81 10.567c0 0 0.738 0.335 1.035-0.383 0 0-0.288-0.137-0.525 0.069-0.192 0.166-0.51 0.315-0.51 0.315z"/><path fill="#73af00" d="M22.824 18.403c0 0-0.285 0.758-1.003 0.461 0 0 0.107-0.3 0.42-0.323 0.253-0.018 0.583-0.138 0.583-0.138z"/><path fill="#73af00" d="M21.438 17.828c0 0-0.335 0.738 0.383 1.035 0 0 0.137-0.288-0.069-0.525-0.166-0.192-0.315-0.51-0.315-0.51z"/><path fill="#73af00" d="M9.163 13.62c0 0 0.285-0.758 1.003-0.461 0 0-0.107 0.3-0.42 0.323-0.253 0.018-0.583 0.138-0.583 0.138z"/><path fill="#73af00" d="M10.549 14.195c0 0 0.335-0.738-0.383-1.035 0 0-0.137 0.288 0.069 0.525 0.166 0.192 0.315 0.51 0.315 0.51z"/><path fill="#73af00" d="M8.985 17.818c0 0-0.184-0.789 0.578-0.941 0 0 0.078 0.309-0.17 0.502-0.2 0.156-0.408 0.439-0.408 0.439z"/><path fill="#73af00" d="M10.457 17.526c0 0-0.132-0.799-0.894-0.648 0 0 0.046 0.316 0.349 0.398 0.245 0.067 0.545 0.249 0.545 0.249z"/><path fill="#73af00" d="M23.002 14.205c0 0 0.184 0.789-0.578 0.941 0 0-0.078-0.309 0.17-0.502 0.201-0.156 0.408-0.439 0.408-0.439z"/><path fill="#73af00" d="M21.53 14.498c0 0 0.131 0.8 0.894 0.648 0 0-0.046-0.316-0.349-0.399-0.245-0.067-0.545-0.249-0.545-0.249z"/><path fill="#73af00" d="M17.8 23.020c0 0-0.789 0.184-0.941-0.578 0 0 0.309-0.078 0.502 0.17 0.156 0.201 0.439 0.408 0.439 0.408z"/><path fill="#73af00" d="M17.508 21.548c0 0-0.8 0.131-0.648 0.894 0 0 0.316-0.046 0.398-0.349 0.067-0.245 0.249-0.545 0.249-0.545z"/><path fill="#73af00" d="M14.187 9.003c0 0 0.789-0.184 0.941 0.578 0 0-0.309 0.078-0.502-0.17-0.156-0.2-0.439-0.408-0.439-0.408z"/><path fill="#73af00" d="M14.479 10.476c0 0 0.799-0.132 0.648-0.894 0 0-0.316 0.046-0.399 0.349-0.067 0.245-0.249 0.545-0.249 0.545z"/><path fill="#73af00" d="M12.316 22.245c0 0-0.688-0.427-0.256-1.074 0 0 0.274 0.163 0.235 0.475-0.032 0.252 0.022 0.599 0.022 0.599z"/><path fill="#73af00" d="M13.149 20.997c0 0-0.658-0.472-1.090 0.174 0 0 0.256 0.19 0.528 0.035 0.221-0.126 0.562-0.209 0.562-0.209z"/><path fill="#73af00" d="M19.671 9.778c0 0 0.688 0.427 0.256 1.074 0 0-0.274-0.164-0.235-0.475 0.032-0.252-0.022-0.599-0.022-0.599z"/><path fill="#73af00" d="M18.837 11.026c0 0 0.658 0.472 1.090-0.174 0 0-0.256-0.19-0.529-0.035-0.221 0.126-0.562 0.209-0.562 0.209z"/><path fill="#73af00" d="M22.227 19.69c0 0-0.427 0.688-1.074 0.256 0 0 0.163-0.274 0.475-0.235 0.252 0.032 0.599-0.022 0.599-0.022z"/><path fill="#73af00" d="M20.979 18.856c0 0-0.472 0.658 0.174 1.090 0 0 0.19-0.256 0.035-0.529-0.126-0.221-0.209-0.562-0.209-0.562z"/><path fill="#73af00" d="M9.76 12.334c0 0 0.427-0.688 1.074-0.256 0 0-0.164 0.274-0.475 0.235-0.252-0.032-0.599 0.022-0.599 0.022z"/><path fill="#73af00" d="M11.008 13.168c0 0 0.472-0.658-0.174-1.090 0 0-0.19 0.256-0.035 0.528 0.126 0.22 0.209 0.562 0.209 0.562z"/><path fill="#73af00" d="M10.21 20.363c0 0-0.472-0.658 0.174-1.090 0 0 0.19 0.256 0.035 0.529-0.126 0.221-0.209 0.562-0.209 0.562z"/><path fill="#73af00" d="M11.458 19.529c0 0-0.427-0.688-1.074-0.256 0 0 0.164 0.274 0.475 0.235 0.252-0.032 0.599 0.022 0.599 0.022z"/><path fill="#73af00" d="M21.777 11.66c0 0 0.472 0.658-0.174 1.090 0 0-0.19-0.256-0.035-0.528 0.126-0.22 0.209-0.562 0.209-0.562z"/><path fill="#73af00" d="M20.529 12.494c0 0 0.427 0.688 1.074 0.256 0 0-0.163-0.274-0.475-0.235-0.252 0.032-0.599-0.022-0.599-0.022z"/><path fill="#73af00" d="M20.345 21.795c0 0-0.658 0.472-1.090-0.174 0 0 0.256-0.19 0.529-0.035 0.221 0.126 0.562 0.209 0.562 0.209z"/><path fill="#73af00" d="M19.511 20.547c0 0-0.688 0.427-0.256 1.074 0 0 0.274-0.163 0.235-0.475-0.032-0.252 0.022-0.599 0.022-0.599z"/><path fill="#73af00" d="M11.642 10.228c0 0 0.658-0.472 1.090 0.174 0 0-0.256 0.19-0.528 0.035-0.22-0.126-0.562-0.209-0.562-0.209z"/><path fill="#73af00" d="M12.476 11.476c0 0 0.688-0.427 0.256-1.074 0 0-0.274 0.164-0.235 0.475 0.032 0.252-0.022 0.599-0.022 0.599z"/><path fill="#73af00" d="M14.981 23.178c0 0-0.8-0.131-0.648-0.894 0 0 0.316 0.046 0.399 0.349 0.067 0.245 0.249 0.545 0.249 0.545z"/><path fill="#73af00" d="M15.274 21.706c0 0-0.789-0.184-0.941 0.578 0 0 0.309 0.078 0.502-0.17 0.156-0.201 0.439-0.408 0.439-0.408z"/><path fill="#73af00" d="M17.006 8.845c0 0 0.799 0.132 0.648 0.894 0 0-0.316-0.046-0.398-0.349-0.067-0.245-0.249-0.545-0.249-0.545z"/><path fill="#73af00" d="M16.713 10.318c0 0 0.789 0.184 0.941-0.578 0 0-0.309-0.078-0.502 0.17-0.156 0.2-0.439 0.408-0.439 0.408z"/><path fill="#73af00" d="M23.16 17.024c0 0-0.131 0.799-0.894 0.648 0 0 0.046-0.316 0.349-0.398 0.245-0.067 0.545-0.249 0.545-0.249z"/><path fill="#73af00" d="M21.688 16.731c0 0-0.184 0.789 0.578 0.941 0 0 0.078-0.309-0.17-0.502-0.201-0.156-0.408-0.439-0.408-0.439z"/><path fill="#73af00" d="M8.827 14.999c0 0 0.132-0.8 0.894-0.648 0 0-0.046 0.316-0.349 0.399-0.245 0.067-0.545 0.249-0.545 0.249z"/><path fill="#73af00" d="M10.299 15.292c0 0 0.184-0.789-0.578-0.941 0 0-0.078 0.309 0.17 0.502 0.201 0.156 0.408 0.439 0.408 0.439z"/></svg>