<svg xmlns="http://www.w3.org/2000/svg" width="32" height="32" version="1.1" viewBox="0 0 32 32"><title>bolivia</title><path fill="#ffe15a" d="M30.153 22.895l-0-2.651-0-1.698-0.001-5.093-0-1.698-0-2.655c0-0.194-0.026-0.384-0.075-0.567-0.026-0.098-0.059-0.194-0.099-0.287-0.16-0.381-0.426-0.714-0.773-0.955-0.051-0.035-0.103-0.069-0.157-0.101l-11.947-6.895c-0.682-0.394-1.523-0.394-2.205 0l-11.945 6.899c-0.053 0.030-0.103 0.063-0.152 0.098-0.212 0.147-0.393 0.328-0.54 0.534-0.098 0.138-0.18 0.287-0.244 0.443-0.107 0.261-0.166 0.544-0.166 0.836l0 2.651 0 1.698 0.001 5.092v0.001l0 1.697 0 2.655v0c0 0.725 0.357 1.399 0.946 1.809 0.051 0.035 0.103 0.069 0.157 0.101l11.948 6.895c0.682 0.394 1.523 0.394 2.205-0l11.945-6.899c0.053-0.030 0.103-0.063 0.152-0.098 0.591-0.41 0.95-1.085 0.95-1.813v0 0z"/><path fill="#73af00" d="M30.152 20.418h-28.303l0 2.481v0c0 0.725 0.357 1.399 0.946 1.809 0.051 0.035 0.103 0.069 0.157 0.101l11.948 6.895c0.682 0.394 1.523 0.394 2.205-0l11.945-6.899c0.053-0.030 0.103-0.063 0.152-0.098 0.592-0.41 0.95-1.085 0.95-1.813l-0-2.477z"/><path fill="#ff4b55" d="M30.151 9.1c0-0.194-0.026-0.384-0.075-0.567-0.026-0.098-0.059-0.194-0.099-0.287-0.16-0.381-0.426-0.714-0.773-0.955-0.051-0.035-0.103-0.069-0.157-0.101l-11.947-6.895c-0.682-0.394-1.523-0.394-2.205 0l-11.945 6.899c-0.053 0.030-0.103 0.063-0.152 0.098-0.212 0.147-0.393 0.328-0.54 0.534-0.098 0.138-0.18 0.287-0.244 0.443-0.107 0.261-0.166 0.544-0.166 0.836l0 2.477h28.304l-0-2.482z"/><path fill="#73af00" d="M15.099 12.046c0 0-0.018 0.022-0.052 0.065-0.028 0.039-0.070 0.099-0.116 0.178-0.091 0.158-0.185 0.403-0.188 0.695-0.001 0.142 0.028 0.315 0.077 0.453 0.053 0.152 0.14 0.297 0.25 0.426 0.111 0.131 0.258 0.232 0.416 0.306 0.078 0.040 0.164 0.063 0.25 0.084 0.042 0.013 0.087 0.014 0.131 0.022 0.022 0.004 0.044 0.002 0.066 0.004l0.033 0.002 0.025 0.001 0.004 0 0.002 0c-0.007 0 0.018-0-0.014 0.001 0.054-0.003 0.12-0.004 0.164-0.009 0.039-0.009 0.072-0.008 0.116-0.021 0.085-0.021 0.171-0.044 0.25-0.084 0.158-0.074 0.306-0.175 0.416-0.306 0.11-0.13 0.198-0.275 0.25-0.426 0.050-0.154 0.077-0.302 0.077-0.453-0.002-0.291-0.098-0.536-0.188-0.694-0.046-0.079-0.088-0.139-0.118-0.18-0.031-0.040-0.048-0.061-0.048-0.061l-0.004-0.005c-0.030-0.038-0.023-0.094 0.015-0.124 0.030-0.024 0.071-0.024 0.102-0.005 0 0 0.026 0.017 0.074 0.047 0.046 0.034 0.116 0.083 0.193 0.161 0.153 0.152 0.352 0.421 0.423 0.814 0.035 0.188 0.039 0.415-0.010 0.638-0.047 0.226-0.144 0.459-0.299 0.663-0.152 0.205-0.357 0.386-0.601 0.509-0.12 0.064-0.251 0.111-0.385 0.143-0.064 0.019-0.146 0.027-0.219 0.038-0.068 0.008-0.117 0.008-0.176 0.012l-0.023 0-0.019-0.001-0.026-0.001-0.052-0.003c-0.034-0.003-0.069-0.002-0.103-0.008-0.068-0.012-0.138-0.018-0.204-0.037-0.134-0.032-0.265-0.079-0.385-0.143-0.244-0.122-0.449-0.304-0.601-0.509-0.155-0.204-0.251-0.437-0.299-0.663-0.051-0.24-0.044-0.442-0.009-0.639 0.072-0.391 0.27-0.662 0.423-0.813 0.076-0.078 0.147-0.127 0.195-0.163 0.046-0.029 0.070-0.044 0.070-0.044 0.042-0.026 0.096-0.014 0.123 0.028 0.021 0.033 0.017 0.074-0.006 0.103z"/><path fill="#ff4b55" d="M15.825 18.992v1.104c0 0.11-0.133 0.165-0.211 0.087l-0.061-0.061c-0.050-0.050-0.079-0.119-0.079-0.19v-0.94l0.351 0z"/><path fill="#ffe15a" d="M15.299 18.817v0.801c0 0.048 0.019 0.094 0.053 0.128l0.122 0.122v-1.052h-0.175z"/><path fill="#73af00" d="M15.123 18.817v0.43c0 0.061 0.024 0.12 0.068 0.164l0.108 0.108v-0.701h-0.175z"/><path fill="#ff4b55" d="M16.175 18.992v1.104c0 0.11 0.133 0.165 0.211 0.087l0.061-0.061c0.050-0.050 0.079-0.119 0.079-0.19v-0.94l-0.351 0z"/><path fill="#ffe15a" d="M16.701 18.817v0.801c0 0.048-0.019 0.094-0.053 0.128l-0.122 0.122v-1.052h0.175z"/><path fill="#73af00" d="M16.877 18.817v0.43c0 0.061-0.024 0.12-0.068 0.164l-0.108 0.108v-0.701h0.175z"/><path fill="#ff4b55" d="M16.877 15.662l1.928-1.402v2.884c0 0.828-0.671 1.498-1.498 1.498v0c-0.281 0-0.556-0.079-0.794-0.228l-1.038-0.649v-2.128l1.402 0.024z"/><path fill="#ffe15a" d="M18.104 14.769v2.023c0 0.828-0.671 1.499-1.498 1.499-0.124 0-0.247-0.018-0.367-0.048l-0.764-0.478v-2.128l1.402 0.024 1.227-0.893z"/><path fill="#73af00" d="M17.578 15.152v1.306c0 0.828-0.671 1.499-1.498 1.499-0.124 0-0.247-0.018-0.367-0.048l-0.238-0.149v-2.122l1.402 0.024 0.701-0.51z"/><path fill="#f5f5f5" d="M18.91 13.944l0.771-0.386-0.561 0.701h-0.316z"/><path fill="#ff4b55" d="M17.928 16.538l1.928-1.402v2.884c0 0.828-0.671 1.499-1.498 1.499v0c-0.281 0-0.556-0.079-0.794-0.228l-1.038-0.649v-2.128l1.402 0.024z"/><path fill="#73af00" d="M18.63 16.028v1.306c0 0.828-0.671 1.498-1.499 1.498-0.124 0-0.247-0.018-0.367-0.048l-0.238-0.149v-2.122l1.402 0.024 0.701-0.51z"/><path fill="#f5f5f5" d="M19.962 14.82l0.771-0.386-0.561 0.701h-0.316z"/><path fill="#ff4b55" d="M17.402 16.187l1.928-1.402v2.884c0 0.828-0.671 1.498-1.498 1.498v0c-0.281 0-0.556-0.079-0.794-0.228l-1.038-0.649v-2.128l1.402 0.024z"/><path fill="#ffe15a" d="M18.63 15.295v2.023c0 0.828-0.671 1.499-1.499 1.499-0.124 0-0.247-0.018-0.367-0.048l-0.764-0.478v-2.128l1.402 0.024 1.227-0.893z"/><path fill="#73af00" d="M18.104 15.677v1.306c0 0.828-0.671 1.499-1.498 1.499-0.124 0-0.247-0.018-0.367-0.048l-0.238-0.149v-2.122l1.402 0.024 0.701-0.51z"/><path fill="#f5f5f5" d="M19.436 14.469l0.771-0.386-0.561 0.701h-0.316z"/><path fill="#ff4b55" d="M15.123 15.662l-1.928-1.402v2.884c0 0.828 0.671 1.498 1.499 1.498v0c0.281 0 0.556-0.079 0.794-0.228l1.038-0.649v-2.128l-1.402 0.024z"/><path fill="#ffe15a" d="M13.896 14.769v2.023c0 0.828 0.671 1.499 1.499 1.499 0.124 0 0.247-0.018 0.367-0.048l0.764-0.478v-2.128l-1.402 0.024-1.227-0.893z"/><path fill="#73af00" d="M14.422 15.152v1.306c0 0.828 0.671 1.499 1.498 1.499 0.124 0 0.247-0.018 0.367-0.048l0.238-0.149v-2.122l-1.402 0.024-0.701-0.51z"/><path fill="#f5f5f5" d="M13.090 13.944l-0.771-0.386 0.561 0.701h0.316z"/><path fill="#ff4b55" d="M14.072 16.538l-1.928-1.402v2.884c0 0.828 0.671 1.499 1.499 1.499v0c0.281 0 0.556-0.079 0.794-0.228l1.038-0.649v-2.128l-1.402 0.024z"/><path fill="#73af00" d="M13.37 16.028v1.306c0 0.828 0.671 1.498 1.498 1.498 0.124 0 0.247-0.018 0.367-0.048l0.238-0.149v-2.122l-1.402 0.024-0.701-0.51z"/><path fill="#f5f5f5" d="M12.038 14.82l-0.771-0.386 0.561 0.701h0.316z"/><path fill="#ff4b55" d="M14.598 16.187l-1.928-1.402v2.884c0 0.828 0.671 1.498 1.499 1.498v0c0.281 0 0.556-0.079 0.794-0.228l1.038-0.649v-2.128l-1.402 0.024z"/><path fill="#ffe15a" d="M13.37 15.295v2.023c0 0.828 0.671 1.499 1.498 1.499 0.124 0 0.247-0.018 0.367-0.048l0.764-0.478v-2.128l-1.402 0.024-1.227-0.893z"/><path fill="#73af00" d="M13.896 15.677v1.306c0 0.828 0.671 1.499 1.499 1.499 0.124 0 0.247-0.018 0.367-0.048l0.238-0.149v-2.122l-1.402 0.024-0.701-0.51z"/><path fill="#ffbe5a" d="M13.704 18.794l-0.231-0.231c-0.14-0.14-0.136-0.369 0.008-0.504l3.826-3.595 0.496 0.496-3.595 3.826c-0.135 0.145-0.364 0.149-0.504 0.009z"/><path fill="#ffbe5a" d="M13.764 18.679c0 0.097-0.078 0.175-0.175 0.175s-0.175-0.078-0.175-0.175c0-0.097 0.078-0.175 0.175-0.175s0.175 0.078 0.175 0.175z"/><path fill="#f5f5f5" d="M17.307 14.463c0.068-0.068 0.235-0.013 0.372 0.124s0.192 0.303 0.124 0.372c-0.068 0.068-0.235 0.013-0.372-0.124s-0.192-0.303-0.124-0.372z"/><path fill="#ffbe5a" d="M18.296 18.794l0.231-0.231c0.14-0.14 0.136-0.369-0.008-0.504l-3.826-3.595-0.496 0.496 3.595 3.826c0.135 0.145 0.364 0.149 0.504 0.009z"/><path fill="#ffbe5a" d="M18.586 18.679c0 0.097-0.078 0.175-0.175 0.175s-0.175-0.078-0.175-0.175c0-0.097 0.078-0.175 0.175-0.175s0.175 0.078 0.175 0.175z"/><path fill="#f5f5f5" d="M14.693 14.463c0.068 0.068 0.013 0.235-0.124 0.372s-0.303 0.192-0.372 0.124c-0.068-0.068-0.013-0.235 0.124-0.372s0.303-0.192 0.372-0.124z"/><path fill="#ffbe5a" d="M17.551 16.801c0 1.017-0.694 1.841-1.55 1.841s-1.55-0.824-1.55-1.841c0-1.017 0.694-1.841 1.55-1.841s1.55 0.824 1.55 1.841z"/><path fill="#ff4b55" d="M16 15.136l0.082 0.357 0.189-0.314-0.032 0.365 0.276-0.241-0.143 0.337 0.337-0.143-0.241 0.276 0.365-0.032-0.314 0.188 0.357 0.082-0.357 0.082 0.314 0.189-0.365-0.032 0.241 0.276-0.337-0.143 0.143 0.337-0.276-0.241 0.032 0.365-0.189-0.314-0.082 0.357-0.082-0.357-0.189 0.314 0.032-0.365-0.277 0.241 0.143-0.337-0.337 0.143 0.241-0.276-0.365 0.032 0.314-0.189-0.357-0.082 0.357-0.082-0.314-0.188 0.365 0.032-0.241-0.276 0.337 0.143-0.143-0.337 0.277 0.241-0.032-0.365 0.189 0.314z"/><path fill="#73af00" d="M17.939 16.768c0 0-0.581 0.153-0.959-0.164-0.42-0.353-0.735-0.52-0.87-0.582-0.046-0.021-0.098-0.021-0.144-0-0.097 0.045-0.275 0.137-0.432 0.276-0.23 0.203-0.937 0.603-1.079 0.603v0.872l1.112 0.964 1.315-0.038 1.057-1.928z"/><path fill="#3cc8ff" d="M16 19.080c-1.112 0-2.016-1.022-2.016-2.279s0.904-2.279 2.016-2.279c1.112 0 2.016 1.022 2.016 2.279s-0.904 2.279-2.016 2.279zM16 15.048c-0.822 0-1.49 0.786-1.49 1.753s0.668 1.753 1.49 1.753 1.49-0.786 1.49-1.753c0-0.966-0.669-1.753-1.49-1.753z"/><path fill="#ffbe5a" d="M15.698 18.603l0.039 0.116 0.122 0.001c0.016 0 0.022 0.020 0.010 0.030l-0.098 0.073 0.037 0.116c0.005 0.015-0.012 0.027-0.025 0.018l-0.099-0.071-0.099 0.071c-0.013 0.009-0.030-0.003-0.025-0.018l0.037-0.116-0.098-0.073c-0.013-0.009-0.006-0.030 0.010-0.030l0.122-0.001 0.039-0.116c0.005-0.015 0.026-0.015 0.031 0z"/><path fill="#ffbe5a" d="M15.15 18.368l0.039 0.116 0.122 0.001c0.016 0 0.022 0.020 0.010 0.030l-0.098 0.073 0.037 0.116c0.005 0.015-0.012 0.028-0.025 0.018l-0.099-0.071-0.099 0.071c-0.013 0.009-0.030-0.003-0.025-0.018l0.037-0.116-0.098-0.073c-0.013-0.009-0.006-0.029 0.010-0.030l0.122-0.001 0.039-0.116c0.005-0.015 0.026-0.015 0.031 0z"/><path fill="#ffbe5a" d="M14.71 17.968l0.039 0.116 0.122 0.001c0.016 0 0.022 0.020 0.010 0.030l-0.098 0.073 0.037 0.116c0.005 0.015-0.012 0.027-0.025 0.018l-0.099-0.071-0.099 0.071c-0.013 0.009-0.030-0.003-0.025-0.018l0.037-0.116-0.098-0.073c-0.013-0.009-0.006-0.030 0.010-0.030l0.122-0.001 0.039-0.116c0.005-0.015 0.026-0.015 0.031 0z"/><path fill="#ffbe5a" d="M14.41 17.436l0.039 0.116 0.122 0.001c0.016 0 0.022 0.020 0.010 0.030l-0.098 0.073 0.037 0.116c0.005 0.015-0.012 0.027-0.025 0.018l-0.099-0.071-0.099 0.071c-0.013 0.009-0.030-0.003-0.025-0.018l0.037-0.116-0.098-0.073c-0.013-0.009-0.006-0.029 0.010-0.030l0.122-0.001 0.039-0.116c0.005-0.015 0.026-0.015 0.031 0z"/><path fill="#ffbe5a" d="M14.277 16.817l0.039 0.116 0.122 0.001c0.016 0 0.022 0.020 0.010 0.030l-0.098 0.073 0.037 0.116c0.005 0.015-0.012 0.028-0.025 0.018l-0.099-0.071-0.099 0.071c-0.013 0.009-0.030-0.003-0.025-0.018l0.037-0.116-0.098-0.073c-0.013-0.009-0.006-0.030 0.010-0.030l0.122-0.001 0.039-0.116c0.005-0.015 0.026-0.015 0.031 0z"/><path fill="#ffbe5a" d="M16.301 18.603l-0.039 0.116-0.122 0.001c-0.016 0-0.022 0.020-0.010 0.030l0.098 0.073-0.037 0.116c-0.005 0.015 0.012 0.027 0.025 0.018l0.099-0.071 0.099 0.071c0.013 0.009 0.030-0.003 0.025-0.018l-0.037-0.116 0.098-0.073c0.013-0.009 0.006-0.030-0.010-0.030l-0.122-0.001-0.039-0.116c-0.005-0.015-0.026-0.015-0.031 0z"/><path fill="#ffbe5a" d="M16.849 18.368l-0.039 0.116-0.122 0.001c-0.016 0-0.022 0.020-0.010 0.030l0.098 0.073-0.037 0.116c-0.005 0.015 0.012 0.028 0.025 0.018l0.099-0.071 0.099 0.071c0.013 0.009 0.030-0.003 0.025-0.018l-0.037-0.116 0.098-0.073c0.013-0.009 0.006-0.029-0.010-0.030l-0.122-0.001-0.039-0.116c-0.005-0.015-0.026-0.015-0.031 0z"/><path fill="#ffbe5a" d="M17.289 17.968l-0.039 0.116-0.122 0.001c-0.016 0-0.022 0.020-0.010 0.030l0.098 0.073-0.037 0.116c-0.005 0.015 0.012 0.027 0.025 0.018l0.099-0.071 0.099 0.071c0.013 0.009 0.030-0.003 0.025-0.018l-0.037-0.116 0.098-0.073c0.013-0.009 0.006-0.030-0.010-0.030l-0.122-0.001-0.039-0.116c-0.005-0.015-0.026-0.015-0.031 0z"/><path fill="#ffbe5a" d="M17.589 17.436l-0.039 0.116-0.122 0.001c-0.016 0-0.022 0.020-0.010 0.030l0.098 0.073-0.037 0.116c-0.005 0.015 0.012 0.027 0.025 0.018l0.099-0.071 0.099 0.071c0.013 0.009 0.030-0.003 0.025-0.018l-0.037-0.116 0.098-0.073c0.013-0.009 0.006-0.029-0.010-0.030l-0.122-0.001-0.039-0.116c-0.005-0.015-0.026-0.015-0.031 0z"/><path fill="#ffbe5a" d="M17.722 16.817l-0.039 0.116-0.122 0.001c-0.016 0-0.022 0.020-0.010 0.030l0.098 0.073-0.037 0.116c-0.005 0.015 0.012 0.028 0.025 0.018l0.099-0.071 0.099 0.071c0.013 0.009 0.030-0.003 0.025-0.018l-0.037-0.116 0.098-0.073c0.013-0.009 0.006-0.030-0.010-0.030l-0.122-0.001-0.039-0.116c-0.005-0.015-0.026-0.015-0.031 0z"/><path fill="#f5f5f5" d="M15.238 17.925l0.058 0.279h0.025v-0.19c0 0 0.041 0.133 0.1 0.19h0.047c-0.023-0.029-0.063-0.090-0.063-0.152 0-0.086 0.069-0.098 0.069-0.19h0.059v0.342h0.034l0.064-0.305c0 0 0.053 0.191 0.151 0.305h0.044c-0.032-0.047-0.098-0.167-0.085-0.348 0 0 0.094-0.047 0.094-0.174v-0.181c0-0.034 0.027-0.061 0.061-0.061h0.042c0 0-0.063-0.122-0.13-0.14v-0.076l-0.051 0.077c-0.048 0.010-0.077 0.055-0.077 0.103v0.11c0 0.034-0.027 0.061-0.061 0.061h-0.22c-0.065 0-0.169 0.065-0.169 0.148s0.063 0.138 0.063 0.138l-0.055 0.065z"/><path fill="#ffbe5a" d="M16.223 17.647h-0.020c-0.159 0.009-0.248 0.113-0.248 0.113l0.162 0.162v0.304h0.193v-0.304l0.162-0.162c-0 0-0.089-0.105-0.248-0.113z"/><path fill="#f5f5f5" d="M16.562 17.149h0.058v1.077h-0.058v-1.077z"/><path fill="#f5f5f5" d="M16.593 17.142l-0.315 0.381c0 0-0.041-0.184 0.142-0.364l-0.405 0.074c0 0 0.123-0.23 0.446-0.205l-0.331-0.277c0 0 0.285-0.016 0.43 0.197 0 0 0.082-0.247 0.312-0.258l-0.19 0.288c0 0 0.19-0.097 0.453-0.012l-0.392 0.104c0 0 0.219 0.022 0.309 0.342l-0.34-0.233c0 0 0.104 0.123 0.066 0.364l-0.186-0.403z"/><path fill="#f5f5f5" d="M12.564 14.469l-0.771-0.386 0.561 0.701h0.316z"/><path fill="#825546" d="M16.548 14.023l2.081-0.64-1.105-0.414c-0.197-0.074-0.405-0.112-0.616-0.112h-0.208c-0.097 0-0.175 0.079-0.175 0.175v0.175h-1.052v-0.175c0-0.097-0.079-0.175-0.175-0.175h-0.208c-0.21 0-0.419 0.038-0.616 0.112l-1.105 0.414 2.081 0.64c0.104 0.032 0.154 0.149 0.105 0.246l-0.258 0.516h1.402l-0.258-0.516c-0.049-0.097 0.002-0.214 0.105-0.246z"/><path fill="#f5f5f5" d="M16.351 13.383c0 0.194-0.157 0.351-0.351 0.351s-0.351-0.157-0.351-0.351c0-0.194 0.157-0.351 0.351-0.351s0.351 0.157 0.351 0.351z"/><path fill="#ffbe5a" d="M16.175 13.383v0c0 0.097-0.078 0.175-0.175 0.175h-0.701l0.299-0.299c0.033-0.033 0.078-0.051 0.124-0.051h0.278c0.097 0 0.175 0.079 0.175 0.175z"/></svg>