<svg xmlns="http://www.w3.org/2000/svg" width="32" height="32" version="1.1" viewBox="0 0 32 32"><title>bonaire</title><path fill="#f5f5f5" d="M30.153 22.895l-0-2.651-0-1.698-0.001-5.093-0-1.698-0-2.655c-0-0.194-0.026-0.384-0.075-0.567-0.026-0.098-0.059-0.194-0.099-0.287-0.16-0.381-0.426-0.714-0.773-0.955-0.051-0.035-0.103-0.069-0.157-0.101l-11.947-6.895c-0.682-0.394-1.523-0.394-2.205 0l-11.945 6.899c-0.053 0.030-0.103 0.063-0.152 0.098-0.212 0.147-0.393 0.328-0.54 0.534-0.098 0.138-0.18 0.287-0.244 0.443-0.107 0.261-0.166 0.544-0.166 0.836l0 2.651 0 1.698 0.001 5.092v0.001l0 1.697 0 2.655v0c0 0.725 0.357 1.399 0.946 1.809 0.051 0.035 0.103 0.069 0.157 0.101l11.948 6.895c0.682 0.394 1.523 0.394 2.205-0l11.945-6.899c0.053-0.030 0.103-0.063 0.152-0.098 0.591-0.41 0.95-1.085 0.95-1.813v0 0z"/><path fill="#41479b" d="M30.152 20.244l-0-1.698-0.001-5.093-0-1.698-0-2.655c-0-0.194-0.026-0.384-0.075-0.567-0.026-0.098-0.059-0.194-0.099-0.287-0.154-0.365-0.405-0.686-0.732-0.924l-26.491 17.356c0.014 0.010 0.027 0.021 0.041 0.031 0.051 0.035 0.103 0.069 0.157 0.101l11.948 6.895c0.682 0.394 1.523 0.394 2.205-0l11.945-6.899c0.053-0.030 0.103-0.063 0.152-0.098 0.592-0.41 0.95-1.085 0.95-1.813l-0-2.651z"/><path fill="#ffe15a" d="M19.124 1.464l-2.024-1.168c-0.682-0.394-1.523-0.394-2.205 0l-11.945 6.899c-0.053 0.030-0.103 0.063-0.152 0.098-0.212 0.147-0.393 0.328-0.54 0.534-0.098 0.138-0.18 0.287-0.244 0.443-0.107 0.261-0.166 0.544-0.166 0.836l0 2.651 0 1.253 17.483-11.426-0.207-0.119z"/><path fill="#464655" d="M12.258 14.285c-0.245-1.638-1.537-2.929-3.175-3.175l-0.564-1.128-0.564 1.128c-1.638 0.245-2.929 1.537-3.175 3.175l-1.128 0.564 1.128 0.564c0.245 1.638 1.537 2.929 3.175 3.175l0.564 1.128 0.564-1.128c1.638-0.245 2.929-1.537 3.175-3.175l1.128-0.564-1.128-0.564zM8.519 18.094c-1.792 0-3.245-1.453-3.245-3.245s1.453-3.245 3.245-3.245 3.245 1.453 3.245 3.245-1.453 3.245-3.245 3.245z"/><path fill="#ff4b55" d="M8.519 12.769l0.582 1.071 1.219-0.031-0.636 1.040 0.636 1.040-1.219-0.031-0.582 1.071-0.582-1.071-1.219 0.031 0.636-1.040-0.636-1.040 1.219 0.031z"/></svg>