<svg xmlns="http://www.w3.org/2000/svg" width="32" height="32" version="1.1" viewBox="0 0 32 32"><title>bosnia-and-herzegovina</title><path fill="#ffe15a" d="M30.152 20.244l-0-1.698-0.001-5.093-0-1.698-0-2.655c0-0.194-0.026-0.384-0.075-0.567-0.026-0.098-0.059-0.194-0.099-0.287-0.16-0.381-0.426-0.714-0.773-0.955-0.051-0.035-0.103-0.069-0.157-0.101l-11.947-6.895c-0.043-0.025-0.086-0.048-0.13-0.069-0.175-0.086-0.359-0.148-0.547-0.185-0.141-0.028-0.284-0.042-0.426-0.042-0.095 0-0.19 0.006-0.285 0.018-0.284 0.037-0.562 0.129-0.818 0.277l-11.945 6.899c-0.053 0.030-0.103 0.063-0.152 0.098-0.123 0.085-0.234 0.183-0.335 0.288-0.021 0.022-0.042 0.044-0.062 0.067-0.014 0.016-0.029 0.033-0.043 0.050-0.035 0.042-0.068 0.084-0.1 0.128-0.098 0.138-0.18 0.287-0.244 0.443-0.107 0.261-0.166 0.544-0.166 0.836l0 2.651 0 1.698 0.001 5.092v0.001l0 1.697 0 2.655v0c0 0.725 0.357 1.399 0.946 1.809 0.051 0.035 0.103 0.069 0.157 0.101l11.948 6.895c0.682 0.394 1.523 0.394 2.205-0l11.945-6.899c0.053-0.030 0.103-0.063 0.152-0.098 0.592-0.41 0.95-1.085 0.95-1.813l-0.001-2.651z"/><path fill="#41479b" d="M3.68 6.773l-0.731 0.422c-0.053 0.030-0.103 0.063-0.152 0.098-0.123 0.085-0.234 0.183-0.335 0.288-0.021 0.022-0.042 0.044-0.062 0.067-0.014 0.016-0.029 0.033-0.043 0.050-0.035 0.042-0.068 0.084-0.1 0.128-0.098 0.138-0.18 0.287-0.244 0.443-0.107 0.261-0.166 0.544-0.166 0.836l0 2.651 0 1.698 0.001 5.092v0.001l0 1.697 0 2.655v0c0 0.725 0.357 1.399 0.946 1.809 0.051 0.035 0.103 0.069 0.157 0.101l11.948 6.895c0.682 0.394 1.523 0.394 2.205-0l8.303-4.796-20.719-20.719-1.009 0.583z"/><path fill="#41479b" d="M30.152 20.244l-0-1.698-0.001-5.093-0-1.698-0-2.655c0-0.194-0.026-0.384-0.075-0.567-0.026-0.098-0.059-0.194-0.099-0.287-0.16-0.381-0.426-0.714-0.773-0.955-0.051-0.035-0.103-0.069-0.157-0.101l-1.739-1.004v19.625l1.742-1.006c0.053-0.030 0.103-0.063 0.152-0.098 0.592-0.41 0.95-1.085 0.95-1.813l-0-2.65z"/><path fill="#f5f5f5" d="M11.030 16.393l-0.359-1.133 0.956-0.706c0.074-0.055 0.036-0.172-0.056-0.173l-1.189-0.009-0.376-1.128c-0.029-0.087-0.153-0.087-0.182 0l-0.376 1.128-1.189 0.009c-0.092 0.001-0.13 0.118-0.056 0.173l0.956 0.706-0.359 1.133c-0.028 0.088 0.072 0.16 0.147 0.107l0.967-0.691 0.967 0.691c0.075 0.054 0.175-0.019 0.147-0.107z"/><path fill="#f5f5f5" d="M8.311 13.674l-0.359-1.133 0.956-0.706c0.074-0.055 0.036-0.172-0.056-0.173l-1.189-0.009-0.376-1.128c-0.029-0.087-0.153-0.087-0.182 0l-0.376 1.128-1.189 0.009c-0.092 0.001-0.13 0.118-0.056 0.173l0.956 0.706-0.359 1.133c-0.028 0.088 0.072 0.16 0.147 0.107l0.967-0.691 0.967 0.691c0.075 0.053 0.175-0.019 0.147-0.107z"/><path fill="#f5f5f5" d="M5.592 10.954l-0.359-1.133 0.956-0.706c0.074-0.055 0.036-0.172-0.056-0.173l-1.189-0.009-0.376-1.128c-0.029-0.087-0.153-0.087-0.182 0l-0.376 1.128-1.189 0.009c-0.092 0.001-0.13 0.118-0.056 0.173l0.956 0.706-0.359 1.133c-0.028 0.088 0.072 0.16 0.147 0.107l0.967-0.691 0.967 0.691c0.075 0.053 0.175-0.019 0.147-0.107z"/><path fill="#f5f5f5" d="M2.257 7.826c-0.029 0.040-0.055 0.081-0.081 0.123l0.55 0.393c0.075 0.054 0.175-0.019 0.147-0.107l-0.254-0.803c-0.137 0.117-0.258 0.249-0.361 0.394z"/><path fill="#f5f5f5" d="M21.907 27.27l-0.359-1.133 0.956-0.706c0.074-0.055 0.036-0.172-0.056-0.173l-1.189-0.009-0.376-1.128c-0.029-0.087-0.153-0.087-0.182 0l-0.376 1.128-1.189 0.009c-0.092 0.001-0.13 0.118-0.056 0.173l0.956 0.706-0.359 1.133c-0.028 0.088 0.072 0.16 0.147 0.107l0.967-0.691 0.967 0.691c0.075 0.053 0.175-0.019 0.147-0.107z"/><path fill="#f5f5f5" d="M19.188 24.551l-0.359-1.133 0.956-0.706c0.074-0.055 0.036-0.172-0.056-0.173l-1.189-0.009-0.376-1.128c-0.029-0.087-0.153-0.087-0.182 0l-0.376 1.128-1.189 0.009c-0.092 0.001-0.13 0.118-0.056 0.173l0.956 0.706-0.359 1.133c-0.028 0.088 0.072 0.16 0.147 0.107l0.967-0.691 0.967 0.691c0.075 0.053 0.174-0.019 0.147-0.107z"/><path fill="#f5f5f5" d="M16.469 21.831l-0.359-1.133 0.956-0.706c0.074-0.055 0.036-0.172-0.056-0.173l-1.189-0.009-0.376-1.128c-0.029-0.087-0.153-0.087-0.182 0l-0.376 1.128-1.189 0.009c-0.092 0.001-0.13 0.118-0.056 0.173l0.956 0.706-0.359 1.133c-0.028 0.088 0.072 0.16 0.147 0.107l0.967-0.691 0.967 0.691c0.075 0.054 0.175-0.019 0.147-0.107z"/><path fill="#f5f5f5" d="M13.749 19.112l-0.359-1.133 0.956-0.706c0.074-0.055 0.036-0.172-0.056-0.173l-1.189-0.009-0.376-1.128c-0.029-0.087-0.153-0.087-0.182 0l-0.376 1.128-1.189 0.009c-0.092 0.001-0.13 0.118-0.056 0.173l0.956 0.706-0.359 1.133c-0.028 0.088 0.072 0.16 0.147 0.107l0.967-0.691 0.967 0.691c0.075 0.053 0.175-0.019 0.147-0.107z"/><path fill="#f5f5f5" d="M23.421 26.84l-0.376 1.128-1.189 0.009c-0.092 0.001-0.13 0.118-0.056 0.173l0.641 0.473 1.473-0.851-0.311-0.932c-0.029-0.087-0.153-0.087-0.182 0z"/></svg>