<svg xmlns="http://www.w3.org/2000/svg" width="32" height="32" version="1.1" viewBox="0 0 32 32"><title>brazil</title><path fill="#73af00" d="M1.849 22.9l-0.002-13.795c-0-0.788 0.42-1.516 1.102-1.91l11.945-6.899c0.682-0.394 1.523-0.394 2.205-0l11.948 6.895c0.683 0.394 1.103 1.122 1.103 1.91l0.002 13.795c0 0.788-0.42 1.516-1.102 1.91l-11.945 6.899c-0.682 0.394-1.523 0.394-2.205 0l-11.947-6.895c-0.683-0.394-1.103-1.122-1.103-1.91z"/><path fill="#ffe15a" d="M15.702 8.146l-12.098 7.364c-0.367 0.224-0.367 0.757 0 0.981l12.098 7.364c0.183 0.112 0.414 0.112 0.597 0l12.098-7.364c0.367-0.224 0.367-0.757 0-0.981l-12.098-7.364c-0.183-0.111-0.414-0.111-0.597 0z"/><path fill="#41479b" d="M20.592 16.001c0 2.536-2.056 4.592-4.592 4.592s-4.592-2.056-4.592-4.592c0-2.536 2.056-4.592 4.592-4.592s4.592 2.056 4.592 4.592z"/><path fill="#f5f5f5" d="M12.060 13.651c-0.217 0.363-0.384 0.757-0.495 1.175 2.546-0.192 6.311 0.521 8.708 2.846 0.156-0.399 0.26-0.825 0.298-1.269-2.475-2.083-5.896-2.823-8.512-2.752z"/><path fill="#f5f5f5" d="M16.19 17.567l0.122 0.367 0.386 0.003c0.050 0 0.071 0.064 0.031 0.094l-0.311 0.23 0.117 0.369c0.015 0.048-0.039 0.087-0.080 0.058l-0.314-0.225-0.314 0.225c-0.041 0.029-0.095-0.010-0.080-0.058l0.117-0.369-0.311-0.23c-0.040-0.030-0.020-0.094 0.031-0.094l0.386-0.003 0.122-0.367c0.015-0.047 0.083-0.047 0.098 0z"/><path fill="#f5f5f5" d="M17.692 18.515l0.053 0.158 0.166 0.001c0.022 0 0.030 0.028 0.013 0.040l-0.134 0.099 0.050 0.159c0.006 0.021-0.017 0.038-0.034 0.025l-0.135-0.097-0.135 0.097c-0.017 0.012-0.041-0.004-0.034-0.025l0.050-0.159-0.134-0.099c-0.017-0.013-0.008-0.040 0.013-0.040l0.166-0.001 0.053-0.158c0.007-0.020 0.036-0.020 0.043 0z"/><path fill="#f5f5f5" d="M15.541 16.871l0.053 0.158 0.166 0.001c0.022 0 0.030 0.028 0.013 0.040l-0.134 0.099 0.050 0.159c0.007 0.021-0.017 0.038-0.034 0.025l-0.135-0.097-0.135 0.097c-0.018 0.012-0.041-0.004-0.034-0.025l0.050-0.159-0.134-0.099c-0.017-0.013-0.008-0.040 0.013-0.040l0.166-0.001 0.053-0.158c0.007-0.020 0.036-0.020 0.043 0z"/><path fill="#f5f5f5" d="M12.627 16.679l0.053 0.158 0.166 0.001c0.022 0 0.030 0.028 0.013 0.040l-0.134 0.099 0.050 0.159c0.007 0.021-0.017 0.038-0.034 0.025l-0.135-0.097-0.135 0.097c-0.018 0.012-0.041-0.004-0.034-0.025l0.050-0.159-0.134-0.099c-0.017-0.013-0.008-0.040 0.013-0.040l0.166-0.001 0.053-0.158c0.007-0.020 0.036-0.020 0.043 0z"/><path fill="#f5f5f5" d="M15.065 18.461l0.053 0.158 0.166 0.001c0.022 0 0.030 0.028 0.013 0.040l-0.134 0.099 0.050 0.159c0.007 0.021-0.017 0.038-0.034 0.025l-0.135-0.097-0.135 0.097c-0.018 0.012-0.041-0.004-0.034-0.025l0.050-0.159-0.134-0.099c-0.017-0.013-0.008-0.040 0.013-0.040l0.166-0.001 0.053-0.158c0.007-0.020 0.036-0.020 0.043 0z"/><path fill="#f5f5f5" d="M13.724 16.569l0.043 0.129 0.136 0.001c0.018 0 0.025 0.023 0.011 0.033l-0.109 0.081 0.041 0.13c0.005 0.017-0.014 0.031-0.028 0.020l-0.111-0.079-0.111 0.079c-0.014 0.010-0.033-0.004-0.028-0.020l0.041-0.13-0.109-0.081c-0.014-0.010-0.007-0.033 0.011-0.033l0.136-0.001 0.043-0.129c0.005-0.017 0.029-0.017 0.035 0z"/><path fill="#f5f5f5" d="M17.809 13.906l0.054 0.161 0.17 0.001c0.022 0 0.031 0.028 0.013 0.041l-0.137 0.101 0.051 0.162c0.007 0.021-0.017 0.038-0.035 0.026l-0.138-0.099-0.138 0.099c-0.018 0.013-0.042-0.005-0.035-0.026l0.051-0.162-0.137-0.101c-0.018-0.013-0.009-0.041 0.013-0.041l0.17-0.001 0.054-0.161c0.007-0.021 0.037-0.021 0.044 0z"/><path fill="#f5f5f5" d="M12.815 15.78l0.043 0.129 0.136 0.001c0.018 0 0.025 0.023 0.011 0.033l-0.109 0.081 0.041 0.13c0.005 0.017-0.014 0.031-0.028 0.020l-0.111-0.079-0.111 0.079c-0.014 0.010-0.033-0.004-0.028-0.020l0.041-0.13-0.109-0.081c-0.014-0.010-0.007-0.033 0.011-0.033l0.136-0.001 0.043-0.129c0.005-0.017 0.029-0.017 0.035 0z"/><path fill="#f5f5f5" d="M13.471 17.598l0.065 0.195 0.206 0.002c0.027 0 0.038 0.034 0.016 0.050l-0.166 0.122 0.062 0.196c0.008 0.025-0.021 0.047-0.043 0.031l-0.168-0.12-0.168 0.12c-0.022 0.016-0.051-0.006-0.043-0.031l0.062-0.196-0.166-0.122c-0.021-0.016-0.010-0.050 0.016-0.050l0.206-0.002 0.065-0.195c0.009-0.025 0.044-0.025 0.053 0z"/><path fill="#f5f5f5" d="M18.53 18.556l0.041 0.123 0.13 0.001c0.017 0 0.024 0.022 0.010 0.032l-0.104 0.077 0.039 0.124c0.005 0.016-0.013 0.029-0.027 0.019l-0.105-0.075-0.105 0.075c-0.014 0.010-0.032-0.003-0.027-0.019l0.039-0.124-0.104-0.077c-0.014-0.010-0.007-0.031 0.010-0.032l0.13-0.001 0.041-0.123c0.005-0.016 0.028-0.016 0.033 0z"/><path fill="#f5f5f5" d="M18.983 17.618l0.053 0.158 0.166 0.001c0.022 0 0.030 0.028 0.013 0.040l-0.134 0.099 0.050 0.159c0.006 0.021-0.017 0.038-0.034 0.025l-0.135-0.097-0.135 0.097c-0.017 0.012-0.041-0.004-0.034-0.025l0.050-0.159-0.134-0.099c-0.017-0.013-0.008-0.040 0.013-0.040l0.166-0.001 0.053-0.158c0.007-0.020 0.036-0.020 0.043 0z"/></svg>