<!-- Generated by IcoMoon.io -->
<svg version="1.1" xmlns="http://www.w3.org/2000/svg" width="32" height="32" viewBox="0 0 32 32">
<title>british-columbia</title>
<path fill="#f5f5f5" d="M30.153 22.895l-0-2.651-0-1.698-0.001-5.093-0-1.698-0-2.655c0-0.194-0.026-0.384-0.075-0.567-0.026-0.098-0.059-0.194-0.099-0.287-0.16-0.381-0.426-0.714-0.773-0.955-0.051-0.035-0.103-0.069-0.157-0.101l-11.947-6.895c-0.682-0.394-1.523-0.394-2.205 0l-11.945 6.899c-0.053 0.030-0.103 0.063-0.152 0.098-0.212 0.147-0.393 0.328-0.54 0.534-0.098 0.138-0.18 0.287-0.244 0.443-0.107 0.261-0.166 0.544-0.166 0.836l0 2.651 0 1.698 0.001 5.092v0.001l0 1.697 0 2.655v0c0 0.725 0.357 1.399 0.946 1.809 0.051 0.035 0.103 0.069 0.157 0.101l11.948 6.895c0.682 0.394 1.523 0.394 2.205-0l11.945-6.899c0.053-0.030 0.103-0.063 0.152-0.098 0.591-0.41 0.95-1.085 0.95-1.813v0 0z"></path>
<path fill="#41479b" d="M13.834 0.909l-7.746 4.474 7.746 2.538z"></path>
<path fill="#41479b" d="M7.815 8.502l-4.549-1.49-0.317 0.183c-0.053 0.030-0.103 0.063-0.152 0.098-0.212 0.147-0.393 0.328-0.54 0.534-0.098 0.138-0.18 0.287-0.244 0.443-0.050 0.122-0.089 0.248-0.117 0.378 0.011-0.049 0.023-0.098 0.036-0.146-0 0 5.883 0 5.883 0z"></path>
<path fill="#41479b" d="M30.151 11.626h-5.958l5.959 1.952z"></path>
<path fill="#41479b" d="M25.917 5.384l-7.742-4.468v7.005z"></path>
<path fill="#41479b" d="M30.066 8.502c-0.025-0.087-0.054-0.173-0.089-0.256-0.16-0.381-0.426-0.714-0.773-0.955-0.051-0.035-0.103-0.069-0.157-0.101l-0.308-0.178-4.547 1.489 5.873 0z"></path>
<path fill="#41479b" d="M2.258 16h11.576v-3.792z"></path>
<path fill="#41479b" d="M18.175 16h11.575l-11.575-3.792z"></path>
<path fill="#41479b" d="M22.922 22.176c0.233-0.285 0.415-0.591 0.513-0.953 0.068-0.253 0.178-0.478 0.31-0.677-0.152-0.010-0.319-0.017-0.505-0.017-0.894 0-1.347 0.133-1.794 0.268l-0.55 1.792c0.645-0.147 1.026-0.374 2.025-0.413z"></path>
<path fill="#41479b" d="M23.956 22.204c0.963 0.101 1.28 0.398 2.284 0.487l1.473-1.217-1.025 1.24c0.057 0.001 0.116 0.002 0.177 0.002 1.693 0 1.806-0.476 3.289-0.54l-0-1.64c-1.483 0.063-1.596 0.54-3.288 0.54-1.391 0-1.715-0.322-2.609-0.472-0.037 0.1-0.061 0.198-0.064 0.291-0.009 0.242-0.029 0.725-0.235 1.309z"></path>
<path fill="#41479b" d="M22.965 23.815c-0.356 0.471-0.553 0.88-0.66 1.16 0.201 0.154 0.396 0.315 0.584 0.483 0.001 0 0.001-0 0.002-0l1.793-1.481c-0.356-0.093-0.777-0.167-1.442-0.167-0.097 0-0.189 0.002-0.276 0.005z"></path>
<path fill="#41479b" d="M16.534 22.189c0.341 0.025 0.606 0.074 0.839 0.132 0.199-0.527 0.442-1 0.631-1.459-0.459-0.133-0.855-0.285-1.627-0.323l0.157 1.65z"></path>
<path fill="#41479b" d="M10.832 24.221c0.023-0.013 0.046-0.025 0.068-0.038-0.051-0.014-0.101-0.028-0.149-0.042 0.028 0.028 0.055 0.055 0.081 0.080z"></path>
<path fill="#41479b" d="M25.461 24.2l-1.109 1.343c0.607 0.115 0.957 0.307 1.636 0.401 0.58-0.231 1.092-0.49 1.459-0.966 0.799-1.037 2.291-1.044 2.291-1.044s-1.208 0.46-1.469 1.031c-0.045 0.099-0.112 0.243-0.209 0.413l0.99-0.572c0.053-0.030 0.103-0.063 0.152-0.098 0.324-0.224 0.576-0.529 0.739-0.878-1.287 0.097-1.469 0.527-3.078 0.527-0.641 0-1.055-0.069-1.403-0.157z"></path>
<path fill="#41479b" d="M7.785 20.918c0.303 0.139 1.021 0.472 1.642 1.284 0.751 0.074 1.112 0.266 1.686 0.393l-0.549-1.79c-0.455-0.137-0.908-0.275-1.818-0.275-0.574 0-0.965 0.055-1.291 0.13 0.104 0.113 0.215 0.205 0.33 0.258z"></path>
<path fill="#41479b" d="M5.767 22.689c1.056-0.097 1.348-0.425 2.469-0.502-0.123-0.165-0.266-0.315-0.436-0.447-0.354-0.273-0.588-0.626-0.742-0.974-0.497 0.148-0.946 0.31-1.933 0.31-1.687 0-1.803-0.474-3.274-0.539l0 1.64c1.472 0.065 1.588 0.539 3.274 0.539 0.068 0 0.133-0.001 0.197-0.003l-1.024-1.24 1.471 1.215z"></path>
<path fill="#41479b" d="M19.070 21.057c-0.032 0.157-0.073 0.319-0.127 0.486-0.138 0.432-0.207 0.807-0.238 1.115 0.25 0.036 0.543 0.059 0.913 0.059 0.055 0 0.109-0.001 0.161-0.002l0.914-1.724c-0.283 0.051-0.623 0.085-1.075 0.085-0.204 0-0.385-0.007-0.548-0.020z"></path>
<path fill="#41479b" d="M3.717 24.996c0.397 0.014 1.443 0.060 2.523 0.907 0.535-0.102 0.872-0.264 1.413-0.365l-1.11-1.344c-0.352 0.091-0.768 0.162-1.42 0.162-1.603 0-1.787-0.428-3.065-0.526 0.067 0.143 0.148 0.278 0.244 0.404-0.066-0.122-0.099-0.2-0.099-0.2s0.887 0.94 1.514 0.962z"></path>
<path fill="#41479b" d="M7.321 23.973l1.799 1.486c0.146-0.13 0.296-0.256 0.45-0.378-0.243-0.425-0.414-0.855-0.57-1.267-0.081-0.003-0.164-0.004-0.253-0.004-0.655 0-1.073 0.072-1.425 0.163z"></path>
<path fill="#41479b" d="M18.294 19.299c-0-0.003-0.001-0.006-0.001-0.009-0.078-0.6 0.105-1.149 0.324-1.566-0.889-0.146-1.215-0.462-2.553-0.473l0.156 1.643c1.044 0.029 1.436 0.254 2.074 0.406z"></path>
<path fill="#41479b" d="M14.265 21.304c0.035 0.421 0.107 0.773 0.189 1.059 0.278-0.078 0.588-0.145 1.021-0.176l0.157-1.649c-0.665 0.031-1.053 0.145-1.437 0.261 0.031 0.159 0.056 0.327 0.071 0.505z"></path>
<path fill="#41479b" d="M18.865 18.698c0.055 0.148 0.145 0.394 0.211 0.719 0.162 0.012 0.34 0.019 0.542 0.019 1.087 0 1.522-0.197 2.088-0.355l0.635-1.197-0.345 1.124c0.317-0.070 0.698-0.12 1.245-0.12 1.812 0 1.812 0.547 3.624 0.547 1.693 0 1.806-0.476 3.288-0.54l-0-0.35-0-1.29c-1.482 0.064-1.595 0.54-3.288 0.54-1.812 0-1.812-0.547-3.624-0.547s-1.811 0.547-3.623 0.547c-0.28 0-0.517-0.013-0.724-0.035-0.079 0.329-0.122 0.687-0.029 0.937z"></path>
<path fill="#41479b" d="M10.306 19.089c0.554 0.156 0.992 0.348 2.064 0.348 0.148 0 0.282-0.004 0.408-0.011-0.3-0.553-0.322-1.158-0.265-1.631-0.047 0.001-0.094 0.001-0.143 0.001-1.812 0-1.812-0.547-3.624-0.547s-1.811 0.547-3.622 0.547c-1.687 0-1.803-0.474-3.275-0.539l0 1.289v0.001l0 0.35c1.472 0.065 1.588 0.539 3.275 0.539 1.811 0 1.811-0.547 3.622-0.547 0.56 0 0.947 0.052 1.268 0.125l-0.347-1.129 0.639 1.204z"></path>
<path fill="#41479b" d="M11.317 20.995l0.912 1.72c0.046 0.001 0.092 0.001 0.14 0.001 0.29 0 0.532-0.014 0.744-0.038-0.023-0.583 0.024-1.131 0.023-1.643-0.217 0.025-0.467 0.040-0.767 0.040-0.441 0-0.774-0.032-1.053-0.081z"></path>
<path fill="#41479b" d="M13.595 19.321c0.703-0.151 1.080-0.401 2.194-0.429l0.156-1.642c-1.621 0.009-1.767 0.464-3.178 0.536 0.050 0.347 0.149 0.716 0.339 0.92 0.112 0.12 0.298 0.324 0.49 0.615z"></path>
<path fill="#41479b" d="M1.864 11.755l0 1.698v0.128l5.968-1.955h-5.968z"></path>
<path fill="#ffe15a" d="M29.738 23.933c0 0-1.492 0.007-2.291 1.044-0.366 0.476-0.879 0.735-1.459 0.966-0.586 0.233-1.24 0.437-1.882 0.804-0.122-0.153-0.247-0.303-0.378-0.45l3.984-4.823-4.823 3.984c-0-0-0.001-0-0.001-0.001-0.189-0.168-0.384-0.329-0.584-0.483 0.108-0.28 0.304-0.688 0.66-1.16 0.064-0.085 0.134-0.172 0.209-0.262 0.396-0.468 0.636-0.934 0.782-1.349 0.206-0.584 0.226-1.067 0.235-1.309 0.003-0.093 0.027-0.191 0.064-0.291 0.215-0.579 0.898-1.223 0.898-1.223s-0.88 0.37-1.407 1.165c-0.132 0.199-0.242 0.424-0.31 0.677-0.098 0.362-0.281 0.668-0.513 0.953-0.515 0.631-1.274 1.157-1.895 1.959-0.171-0.095-0.344-0.187-0.521-0.273l1.834-5.977-2.93 5.525c-0.238-0.083-0.48-0.158-0.726-0.224-0.003-0.143 0.001-0.32 0.022-0.529 0.031-0.308 0.1-0.683 0.238-1.115 0.053-0.167 0.095-0.329 0.127-0.486 0.133-0.657 0.091-1.216 0.006-1.64-0.065-0.325-0.155-0.571-0.211-0.719-0.093-0.251-0.051-0.609 0.029-0.937 0.107-0.442 0.281-0.83 0.281-0.83s-0.304 0.307-0.558 0.792c-0.219 0.417-0.401 0.966-0.324 1.566 0 0.003 0.001 0.006 0.001 0.009 0.068 0.543-0.076 1.044-0.29 1.563-0.189 0.459-0.432 0.932-0.631 1.459-0.070 0.187-0.136 0.38-0.191 0.582-0.194-0.022-0.389-0.039-0.585-0.051l-0.593-6.228-0.059 0.625-0.534 5.602c-0.255 0.014-0.506 0.040-0.756 0.072-0.064-0.144-0.136-0.331-0.202-0.561-0.082-0.286-0.154-0.639-0.189-1.059-0.015-0.178-0.039-0.346-0.070-0.505-0.125-0.636-0.366-1.123-0.6-1.478-0.192-0.292-0.378-0.495-0.49-0.615-0.19-0.204-0.288-0.573-0.339-0.92-0.063-0.433-0.052-0.831-0.052-0.831s-0.143 0.349-0.202 0.84c-0.057 0.473-0.036 1.078 0.265 1.631 0.008 0.015 0.016 0.030 0.024 0.045 0.275 0.478 0.334 1 0.335 1.565 0.001 0.512-0.046 1.060-0.023 1.643 0.007 0.181 0.021 0.366 0.044 0.554-0.189 0.054-0.376 0.113-0.56 0.177l-2.93-5.525 1.834 5.977c-0.205 0.099-0.405 0.208-0.602 0.32-0.023 0.013-0.046 0.025-0.068 0.038-0.026-0.025-0.053-0.052-0.081-0.080-0.251-0.253-0.586-0.659-0.899-1.267-0.131-0.255-0.275-0.477-0.425-0.673-0.621-0.811-1.338-1.145-1.642-1.284-0.116-0.053-0.227-0.145-0.33-0.258-0.408-0.443-0.7-1.211-0.7-1.211s0.003 0.648 0.302 1.318c0.155 0.347 0.388 0.701 0.742 0.974 0.17 0.131 0.313 0.282 0.436 0.447 0.339 0.453 0.534 1.021 0.764 1.627 0.156 0.412 0.327 0.842 0.57 1.267-0.153 0.122-0.303 0.247-0.45 0.378l-4.824-3.984 3.984 4.823c-0.168 0.189-0.33 0.384-0.484 0.585-0.33-0.127-0.841-0.378-1.421-0.869-0.045-0.038-0.090-0.074-0.135-0.109-1.080-0.848-2.126-0.893-2.523-0.907-0.627-0.022-1.514-0.962-1.514-0.962s0.033 0.078 0.099 0.2c0.006 0.008 0.012 0.016 0.018 0.024 0.019 0.024 0.038 0.047 0.058 0.070 0.015 0.018 0.030 0.037 0.046 0.054 0.023 0.025 0.047 0.049 0.071 0.073 0.015 0.015 0.029 0.030 0.044 0.044 0.027 0.026 0.056 0.051 0.085 0.075 0.013 0.011 0.026 0.023 0.039 0.034 0.043 0.035 0.087 0.068 0.133 0.1 0.051 0.035 4.143 2.401 4.143 2.401l7.961 4.595c0.682 0.394 1.523 0.394 2.205-0l10.955-6.327c0.097-0.17 0.163-0.314 0.209-0.413 0.26-0.571 1.468-1.031 1.468-1.031z"></path>
<path fill="#ff4b55" d="M17.196 9.127h-0.255v0.297z"></path>
<path fill="#ff4b55" d="M18.915 9.127h-0.769l0.14 0.325z"></path>
<path fill="#ff4b55" d="M13.266 10.661c0-0.081 0.085-0.147 0.189-0.147h0.039l-0.894-1.387h-10.753l0 1.874h11.419v-0.341z"></path>
<path fill="#ff4b55" d="M18.514 10.514h0.039c0.105 0 0.189 0.066 0.189 0.147v0.341h11.409l-0-1.874h-10.742l-0.894 1.387z"></path>
<path fill="#ff4b55" d="M15.067 9.127h-0.255l0.255 0.297z"></path>
<path fill="#ff4b55" d="M13.862 9.127h-0.769l0.629 0.325z"></path>
<path fill="#ff4b55" d="M15.067 0.207v8.92h0.234l0.575-0.892c0.053-0.082 0.203-0.082 0.255 0l0.575 0.892h0.234v-8.914c-0.593-0.281-1.28-0.283-1.874-0.006z"></path>
<path fill="#ff4b55" d="M15.067 11.221h1.874v4.778h-1.874v-4.778z"></path>
<path fill="#ff4b55" d="M15.091 9.452l0.21-0.325h-0.234v0.297z"></path>
<path fill="#ff4b55" d="M16.917 9.452l0.025-0.029v-0.297h-0.234z"></path>
<path fill="#ff4b55" d="M10.55 11.626l-8.702 2.823 0 0.746 10.997-3.569z"></path>
<path fill="#ff4b55" d="M20.107 11.626l10.045 3.261-0-0.746-7.75-2.515z"></path>
<path fill="#ff4b55" d="M11.63 8.502l-7.008-2.273-0.824 0.476 5.537 1.797z"></path>
<path fill="#ff4b55" d="M26.932 5.969l-7.803 2.533h2.295l6.335-2.055-0.193-0.112z"></path>
<path fill="#ffe15a" d="M19.208 8.976l-0.922 0.477-0.364-0.847c-0.038-0.087-0.188-0.103-0.254-0.026l-0.751 0.873-0.785-1.217c-0.053-0.082-0.203-0.082-0.255 0l-0.785 1.217-0.024-0.029-0.726-0.845c-0.066-0.077-0.217-0.061-0.254 0.026l-0.364 0.847-0.922-0.477c-0.122-0.063-0.272 0.040-0.207 0.142l0.9 1.397h-0.039c-0.104 0-0.189 0.066-0.189 0.147v0.414c0 0.081 0.085 0.147 0.189 0.147h5.098c0.105 0 0.189-0.066 0.189-0.147v-0.414c0-0.081-0.085-0.147-0.189-0.147h-0.039l0.9-1.397c0.065-0.101-0.085-0.204-0.207-0.142z"></path>
<path fill="#ffe15a" d="M27.446 24.977c-0.366 0.476-0.879 0.735-1.459 0.966-0.586 0.233-1.24 0.437-1.882 0.804-0.122-0.153-0.247-0.303-0.378-0.45l3.984-4.823-4.823 3.984c-0-0-0.001-0-0.001-0.001-0.189-0.168-0.384-0.329-0.584-0.483 0.108-0.28 0.304-0.688 0.66-1.16 0.064-0.085 0.134-0.172 0.209-0.262 0.396-0.468 0.636-0.934 0.782-1.349 0.206-0.584 0.226-1.067 0.235-1.309 0.003-0.093 0.027-0.191 0.064-0.291 0.215-0.579 0.898-1.223 0.898-1.223s-0.88 0.37-1.407 1.165c-0.132 0.199-0.242 0.424-0.31 0.677-0.098 0.362-0.281 0.668-0.513 0.953-0.515 0.631-1.274 1.157-1.895 1.959-0.171-0.095-0.344-0.187-0.521-0.273l1.834-5.977-2.93 5.525c-0.238-0.083-0.48-0.158-0.726-0.224-0.003-0.143 0.001-0.32 0.022-0.529 0.031-0.308 0.1-0.683 0.238-1.115 0.053-0.167 0.095-0.329 0.127-0.486 0.133-0.657 0.091-1.216 0.006-1.64-0.065-0.325-0.155-0.571-0.211-0.719-0.093-0.251-0.051-0.609 0.029-0.937 0.107-0.442 0.281-0.83 0.281-0.83s-0.304 0.307-0.558 0.792c-0.219 0.417-0.401 0.966-0.324 1.566 0 0.003 0.001 0.006 0.001 0.009 0.068 0.543-0.076 1.044-0.29 1.563-0.189 0.459-0.432 0.932-0.631 1.459-0.070 0.187-0.136 0.38-0.191 0.582-0.194-0.022-0.389-0.039-0.585-0.051l-0.593-6.228-0.059 0.625-0.534 5.602c-0.255 0.014-0.506 0.040-0.756 0.072-0.064-0.144-0.136-0.331-0.202-0.561-0.082-0.286-0.154-0.639-0.189-1.059-0.015-0.178-0.039-0.346-0.070-0.505-0.125-0.636-0.366-1.123-0.6-1.478-0.192-0.292-0.378-0.495-0.49-0.615-0.19-0.204-0.288-0.573-0.339-0.92-0.063-0.433-0.052-0.831-0.052-0.831s-0.143 0.349-0.202 0.84c-0.057 0.473-0.036 1.078 0.265 1.631 0.008 0.015 0.016 0.030 0.024 0.045 0.275 0.478 0.334 1 0.335 1.565 0.001 0.512-0.046 1.060-0.023 1.643 0.007 0.181 0.021 0.366 0.044 0.554-0.189 0.054-0.376 0.113-0.56 0.177l-2.93-5.525 1.834 5.977c-0.205 0.099-0.405 0.208-0.602 0.32-0.023 0.013-0.046 0.025-0.068 0.038-0.026-0.025-0.053-0.052-0.081-0.080-0.251-0.253-0.586-0.659-0.899-1.267-0.131-0.255-0.275-0.477-0.425-0.673-0.621-0.811-1.338-1.145-1.642-1.284-0.116-0.053-0.227-0.145-0.33-0.258-0.408-0.443-0.7-1.211-0.7-1.211s0.003 0.648 0.302 1.318c0.155 0.347 0.388 0.701 0.742 0.974 0.17 0.131 0.313 0.282 0.436 0.447 0.339 0.453 0.534 1.021 0.764 1.627 0.156 0.412 0.327 0.842 0.57 1.267-0.153 0.122-0.303 0.247-0.45 0.378l-4.824-3.984 3.984 4.823c-0.168 0.189-0.33 0.384-0.484 0.585-0.33-0.127-0.841-0.378-1.421-0.869-0.045-0.038-0.090-0.074-0.135-0.109-1.080-0.848-2.126-0.893-2.523-0.907-0.627-0.022-1.514-0.962-1.514-0.962s0.034 0.081 0.103 0.207c0.137 0.178 0.301 0.336 0.489 0.467 0.051 0.035 0.103 0.069 0.157 0.101l11.948 6.895c0.682 0.394 1.523 0.394 2.205-0l10.955-6.327c0.097-0.17 0.163-0.314 0.209-0.413 0.261-0.57 1.469-1.031 1.469-1.031s-1.493 0.007-2.292 1.044z"></path>
</svg>
