<!-- Generated by IcoMoon.io -->
<svg version="1.1" xmlns="http://www.w3.org/2000/svg" width="32" height="32" viewBox="0 0 32 32">
<title>british-indian-ocean-territory</title>
<path fill="#f5f5f5" d="M30.152 20.244v-0.181l-0-1.517-0-1.041-0-1.506-0-0.805-0-1.741-0-1.517v-0.181l-0-1.182-0-1.473c0-0 0-0 0-0 0-0.051-0.002-0.102-0.006-0.152-0.001-0.015-0.003-0.031-0.004-0.046-0.003-0.036-0.007-0.072-0.012-0.107-0.002-0.017-0.005-0.033-0.008-0.049-0.006-0.036-0.013-0.072-0.020-0.107-0.003-0.014-0.006-0.027-0.009-0.041-0.011-0.046-0.023-0.092-0.037-0.137-0.001-0.002-0.001-0.004-0.002-0.006-0.016-0.051-0.033-0.101-0.053-0.151-0-0.001-0.001-0.002-0.001-0.003-0.018-0.046-0.038-0.092-0.059-0.137-0.003-0.007-0.007-0.014-0.010-0.021-0.020-0.040-0.040-0.080-0.063-0.12-0.003-0.006-0.007-0.012-0.010-0.019-0.025-0.044-0.052-0.087-0.080-0.129 0 0-0-0-0-0l-0-0c-0.018-0.027-0.039-0.053-0.058-0.079s-0.038-0.053-0.058-0.079c-0.004-0.005-0.008-0.009-0.012-0.014-0.040-0.049-0.083-0.097-0.127-0.143-0.001-0.001-0.001-0.001-0.002-0.002-0.044-0.044-0.090-0.087-0.137-0.127-0.010-0.008-0.020-0.017-0.030-0.025-0.024-0.020-0.049-0.038-0.074-0.057s-0.048-0.039-0.074-0.057c-0 0-0-0-0-0-0.051-0.035-0.103-0.069-0.157-0.101l-11.948-6.895c-0.682-0.394-1.523-0.394-2.205 0l-11.945 6.899c-0.053 0.030-0.103 0.063-0.152 0.098-0.051 0.036-0.1 0.074-0.148 0.113-0.005 0.004-0.010 0.008-0.015 0.013s-0.010 0.008-0.015 0.013c-0.047 0.041-0.093 0.083-0.137 0.127-0 0.001-0.001 0.001-0.002 0.002-0.022 0.023-0.042 0.047-0.064 0.071s-0.043 0.047-0.064 0.071c-0.004 0.005-0.009 0.010-0.013 0.015-0.019 0.024-0.036 0.049-0.054 0.073s-0.037 0.048-0.054 0.073c-0.003 0.004-0.006 0.007-0.008 0.011-0.028 0.042-0.055 0.085-0.080 0.129-0.004 0.007-0.007 0.013-0.011 0.020-0.022 0.039-0.043 0.078-0.062 0.118-0.004 0.007-0.007 0.015-0.011 0.022-0.009 0.018-0.016 0.037-0.024 0.056-0.012 0.026-0.024 0.052-0.034 0.079-0.001 0.002-0.002 0.004-0.003 0.007-0.019 0.050-0.037 0.1-0.053 0.151-0 0.001-0.001 0.003-0.001 0.004-0.014 0.046-0.026 0.093-0.038 0.14-0.003 0.014-0.006 0.027-0.009 0.041-0.008 0.036-0.015 0.072-0.021 0.108-0.003 0.016-0.005 0.033-0.008 0.049-0.005 0.036-0.009 0.072-0.012 0.108-0.001 0.015-0.003 0.031-0.004 0.046-0.004 0.051-0.006 0.102-0.006 0.153l0 1.47 0 1.181v0.181l0 1.517 0.001 5.093 0 1.272 0 0.426 0 1.885 0 0.771c0 0.051 0.002 0.102 0.006 0.153 0.001 0.015 0.003 0.031 0.004 0.046 0.003 0.036 0.007 0.072 0.012 0.108 0.002 0.016 0.005 0.033 0.008 0.049 0.006 0.036 0.013 0.072 0.021 0.108 0.003 0.013 0.006 0.027 0.009 0.040 0.011 0.047 0.023 0.093 0.037 0.138 0.001 0.002 0.001 0.004 0.002 0.005 0.016 0.051 0.033 0.102 0.053 0.151 0 0.001 0.001 0.002 0.001 0.003 0.018 0.047 0.038 0.093 0.060 0.138 0.003 0.007 0.007 0.014 0.010 0.020 0.020 0.041 0.041 0.081 0.063 0.12 0.003 0.006 0.007 0.012 0.010 0.018 0.025 0.044 0.052 0.087 0.080 0.129v0c0.117 0.175 0.26 0.332 0.424 0.469 0.047 0.040 0.097 0.078 0.148 0.114s0.103 0.069 0.157 0.101l11.948 6.895c0.043 0.025 0.086 0.048 0.13 0.069 0.038 0.019 0.077 0.037 0.116 0.053 0.078 0.033 0.158 0.061 0.239 0.085 0.121 0.035 0.244 0.060 0.369 0.074 0.083 0.009 0.166 0.014 0.249 0.014s0.167-0.005 0.249-0.014c0.124-0.014 0.248-0.039 0.369-0.074 0.081-0.024 0.16-0.052 0.239-0.085 0.039-0.017 0.078-0.034 0.116-0.053 0.015-0.007 0.029-0.016 0.043-0.023 0.029-0.015 0.058-0.030 0.086-0.046l11.945-6.899c0.053-0.030 0.103-0.063 0.152-0.098 0.051-0.036 0.101-0.074 0.148-0.113s0.092-0.080 0.135-0.122l0-0c0.108-0.106 0.206-0.221 0.29-0.346v0l0-0c0.028-0.042 0.055-0.085 0.080-0.129 0.004-0.007 0.008-0.013 0.011-0.020 0.022-0.039 0.042-0.078 0.062-0.118 0.004-0.008 0.008-0.015 0.011-0.023 0.021-0.044 0.040-0.088 0.058-0.134 0.001-0.002 0.002-0.005 0.003-0.007 0.019-0.050 0.037-0.1 0.053-0.151 0.001-0.002 0.001-0.003 0.001-0.005 0.014-0.046 0.026-0.092 0.037-0.139 0.003-0.014 0.006-0.027 0.009-0.041 0.008-0.036 0.015-0.072 0.020-0.108 0.003-0.017 0.005-0.033 0.008-0.049 0.005-0.036 0.009-0.071 0.012-0.107 0.001-0.015 0.003-0.031 0.004-0.047 0.003-0.051 0.006-0.101 0.006-0.153 0 0 0-0 0-0.001l-0.001-2.651z"></path>
<path fill="#41479b" d="M1.848 18.547l0 1.272c0.218 0.021 0.462 0.033 0.741 0.033 2.233 0 2.233-0.77 4.467-0.77s2.233 0.77 4.467 0.77c2.233 0 2.233-0.77 4.467-0.77s2.234 0.77 4.468 0.77c2.233 0 2.233-0.77 4.466-0.77 2.235 0 2.235 0.77 4.469 0.77 0.287 0 0.537-0.013 0.76-0.035l-0-1.27-0-1.041c-0.223 0.022-0.472 0.035-0.759 0.035-2.235 0-2.235-0.77-4.469-0.77-2.233 0-2.233 0.77-4.466 0.77-2.234 0-2.234-0.77-4.468-0.77s-2.233 0.77-4.467 0.77-2.233-0.77-4.467-0.77c-2.233 0-2.233 0.77-4.467 0.77-0.279 0-0.523-0.012-0.741-0.033z"></path>
<path fill="#41479b" d="M1.926 15.197c0.218 0.021 0.461 0.033 0.74 0.033 2.227 0 2.227-0.77 4.454-0.77s2.227 0.77 4.454 0.77 2.227-0.77 4.455-0.77c2.228 0 2.228 0.77 4.456 0.77 2.227 0 2.227-0.77 4.453-0.77 2.229 0 2.229 0.77 4.457 0.77 0.286 0 0.535-0.013 0.757-0.035l-0-1.741-0-0.569c-0.222 0.022-0.471 0.035-0.756 0.035-2.229 0-2.229-0.77-4.457-0.77-2.227 0-2.227 0.77-4.453 0.77-2.228 0-2.228-0.77-4.456-0.77s-2.227 0.77-4.455 0.77c-2.227 0-2.227-0.77-4.454-0.77s-2.227 0.77-4.454 0.77c-0.279 0-0.522-0.012-0.74-0.033l0 0.568 0 1.765z"></path>
<path fill="#41479b" d="M7.197 9.838c2.22 0 2.22 0.77 4.44 0.77s2.22-0.77 4.44-0.77c2.22 0 2.22 0.77 4.441 0.77 2.219 0 2.219-0.77 4.438-0.77 2.221 0 2.221 0.77 4.442 0.77 0.285 0 0.532-0.013 0.754-0.035l-0-1.473c0-0 0-0 0-0 0-0.051-0.002-0.102-0.006-0.152-0.001-0.015-0.003-0.031-0.004-0.046-0.003-0.036-0.007-0.072-0.012-0.107-0.002-0.017-0.005-0.033-0.008-0.049-0.006-0.036-0.013-0.072-0.020-0.107-0.003-0.014-0.006-0.027-0.009-0.041-0.011-0.046-0.023-0.092-0.037-0.137-0.001-0.002-0.001-0.004-0.002-0.006-0.016-0.051-0.033-0.101-0.052-0.151-0-0.001-0.001-0.002-0.001-0.003-0.018-0.046-0.038-0.092-0.059-0.137 0.018 0.038 0.034 0.076 0.049 0.115-0.179 0.013-0.375 0.021-0.593 0.021-2.221 0-2.221-0.77-4.442-0.77-2.219 0-2.219 0.77-4.438 0.77-2.22 0-2.22-0.77-4.441-0.77s-2.22 0.77-4.44 0.77c-2.22 0-2.22-0.77-4.44-0.77s-2.22 0.77-4.44 0.77c-0.211 0-0.402-0.007-0.577-0.020 0.008-0.020 0.017-0.039 0.025-0.058-0.011 0.026-0.023 0.052-0.034 0.079-0.001 0.002-0.002 0.004-0.003 0.007-0.019 0.050-0.037 0.1-0.053 0.151-0 0.001-0.001 0.003-0.001 0.004-0.014 0.046-0.026 0.093-0.037 0.14-0.003 0.014-0.006 0.027-0.009 0.041-0.008 0.036-0.014 0.072-0.020 0.108-0.003 0.016-0.005 0.033-0.008 0.049-0.005 0.036-0.009 0.072-0.012 0.108-0.001 0.015-0.003 0.031-0.004 0.046-0.003 0.051-0.006 0.102-0.006 0.153l0 1.47c0.217 0.021 0.46 0.033 0.738 0.033 2.219 0 2.219-0.77 4.439-0.77z"></path>
<path fill="#41479b" d="M11.523 5.987c2.233 0 2.233-0.77 4.467-0.77s2.234 0.77 4.468 0.77c2.233 0 2.233-0.77 4.466-0.77 0.29 0 0.541 0.013 0.765 0.036l-3.25-1.876c-0.485 0.16-1.031 0.3-1.981 0.3-2.234 0-2.234-0.77-4.468-0.77s-2.233 0.77-4.467 0.77c-0.942 0-1.486-0.137-1.969-0.296l-3.236 1.869c0.217-0.021 0.46-0.033 0.738-0.033 2.233 0 2.233 0.77 4.467 0.77z"></path>
<path fill="#41479b" d="M20.458 26.784c-2.234 0-2.234-0.77-4.468-0.77s-2.233 0.77-4.467 0.77-2.233-0.77-4.467-0.77c-0.752 0-1.25 0.087-1.666 0.203l4.761 2.747c0.358 0.078 0.789 0.131 1.372 0.131 2.233 0 2.233-0.77 4.467-0.77s2.234 0.77 4.468 0.77c0.601 0 1.040-0.056 1.405-0.138l4.739-2.737c-0.419-0.117-0.919-0.206-1.678-0.206-2.233 0-2.233 0.77-4.466 0.77z"></path>
<path fill="#41479b" d="M30.153 22.127c-0.223 0.022-0.473 0.035-0.76 0.035-2.235 0-2.235-0.77-4.469-0.77-2.233 0-2.233 0.77-4.466 0.77-2.234 0-2.234-0.77-4.468-0.77s-2.233 0.77-4.467 0.77-2.233-0.77-4.467-0.77c-2.233 0-2.233 0.77-4.467 0.77-0.279 0-0.523-0.012-0.741-0.033l0 0.771c0 0.051 0.002 0.102 0.006 0.153 0.001 0.015 0.003 0.031 0.004 0.046 0.003 0.036 0.007 0.072 0.012 0.108 0.002 0.016 0.005 0.033 0.008 0.049 0.006 0.036 0.013 0.072 0.021 0.108 0.003 0.013 0.006 0.027 0.009 0.040 0.011 0.047 0.023 0.093 0.037 0.138 0.001 0.002 0.001 0.004 0.002 0.005 0.016 0.051 0.033 0.102 0.053 0.151 0 0.001 0.001 0.002 0.001 0.003 0.018 0.047 0.038 0.093 0.060 0.138 0.003 0.007 0.007 0.014 0.010 0.020 0.020 0.041 0.041 0.081 0.063 0.12 0.003 0.006 0.007 0.012 0.010 0.018 0.025 0.044 0.052 0.087 0.080 0.129v0c0.117 0.175 0.26 0.332 0.424 0.469-0.047-0.039-0.092-0.080-0.135-0.123 0.026 0 0.051 0.001 0.077 0.001 2.233 0 2.233-0.77 4.467-0.77s2.233 0.77 4.467 0.77c2.233 0 2.233-0.77 4.467-0.77s2.234 0.77 4.468 0.77c2.233 0 2.233-0.77 4.466-0.77 2.235 0 2.235 0.77 4.469 0.77 0.032 0 0.062-0.001 0.093-0.001 0.108-0.106 0.206-0.221 0.29-0.346v0l0-0c0.028-0.042 0.055-0.085 0.080-0.129 0.004-0.007 0.008-0.013 0.011-0.020 0.022-0.039 0.042-0.078 0.062-0.118 0.004-0.008 0.008-0.015 0.011-0.023 0.021-0.044 0.040-0.088 0.058-0.134 0.001-0.002 0.002-0.005 0.003-0.007 0.019-0.050 0.037-0.1 0.053-0.151 0.001-0.002 0.001-0.003 0.001-0.005 0.014-0.046 0.026-0.092 0.037-0.139 0.003-0.014 0.006-0.027 0.009-0.041 0.008-0.036 0.015-0.072 0.020-0.108 0.003-0.017 0.005-0.033 0.008-0.049 0.005-0.036 0.009-0.071 0.012-0.107 0.001-0.015 0.003-0.031 0.004-0.047 0.003-0.051 0.006-0.101 0.006-0.153 0 0 0-0 0-0.001l-0-0.768z"></path>
<path fill="#41479b" d="M6 16h7.719l-7.719-8.126z"></path>
<path fill="#41479b" d="M16 13.599v-6.971h-6.622z"></path>
<path fill="#f5f5f5" d="M5.167 5.914v10.086h0.833v-8.126l7.719 8.126h1.447c0.46 0 0.833-0.6 0.833-1.339v-1.062l-6.622-6.971h6.622v-1.339h-9.751l-1.082 0.625zM15.987 14.766c-0.025 0.491-0.207 0.906-0.473 1.103l-8.861-9.242h1.53l7.803 8.139z"></path>
<path fill="#f5f5f5" d="M2.667 7.39c-0.514 0.415-0.821 1.043-0.821 1.715l0 2.651 0 1.698 0 2.547h0.82v-8.61z"></path>
<path fill="#f5f5f5" d="M14.894 0.296l-1.691 0.977h2.796v-1.272c-0.382-0-0.763 0.098-1.105 0.296z"></path>
<path fill="#ff4b55" d="M12.876 1.462l-6.626 3.827h9.751v-4.017h-2.796z"></path>
<path fill="#ff4b55" d="M5.067 5.972l-2.118 1.223c-0.053 0.030-0.103 0.063-0.152 0.098-0.045 0.031-0.087 0.064-0.129 0.098v8.61h2.5v-10.086l-0.1 0.058z"></path>
<path fill="#ff4b55" d="M15.514 15.87c0.265-0.198 0.448-0.613 0.473-1.103l-7.803-8.139h-1.53l8.861 9.242z"></path>
<path fill="#965032" d="M23.696 24.53v0c-0.199 0-0.36-0.161-0.36-0.36v-11.521h0.72v11.521c0 0.199-0.161 0.36-0.36 0.36z"></path>
<path fill="#73af00" d="M28.736 14.089l-0.72-0.36-2.651-0.331 1.64-2.109 0.255-0.764-0.764 0.255-2.109 1.64-0.331-2.651-0.36-0.72-0.36 0.72-0.331 2.651-2.109-1.64-0.764-0.255 0.255 0.764 1.64 2.109-2.651 0.331-0.72 0.36 0.72 0.36 2.651 0.331-1.64 2.109-0.255 0.764 0.764-0.255 2.291-1.782 0.509-0.807 0.509 0.807 2.291 1.782 0.764 0.255-0.255-0.764-1.64-2.109 2.651-0.331z"></path>
<path fill="#ffe15a" d="M25.263 18.282c-0.323-0.323-1.016-0.204-1.387-0.111v-0.302c0-0.099-0.081-0.18-0.18-0.18s-0.18 0.081-0.18 0.18v0.302c-0.371-0.094-1.064-0.213-1.387 0.111-0.309 0.308-0.085 1.052 0.127 1.569v0.479c0 0.132 0.107 0.24 0.24 0.24h2.401c0.132 0 0.24-0.107 0.24-0.24v-0.479c0.212-0.517 0.436-1.261 0.127-1.569zM25.008 18.536c0.137 0.138-0.017 0.74-0.265 1.313h-0.868v-1.306c0.404-0.114 0.958-0.182 1.133-0.007zM22.383 18.536c0.175-0.175 0.729-0.108 1.133 0.007v1.306h-0.868c-0.248-0.572-0.402-1.175-0.265-1.313z"></path>
</svg>
