<svg xmlns="http://www.w3.org/2000/svg" width="32" height="32" version="1.1" viewBox="0 0 32 32"><title>burkina-faso</title><path fill="#ff4b55" d="M30.153 22.895l-0-2.651-0-1.698-0.001-5.093-0-1.698-0-2.655c0-0.194-0.026-0.384-0.075-0.567-0.026-0.098-0.059-0.194-0.099-0.287-0.16-0.381-0.426-0.714-0.773-0.955-0.051-0.035-0.103-0.069-0.157-0.101l-11.947-6.895c-0.682-0.394-1.523-0.394-2.205 0l-11.945 6.899c-0.053 0.030-0.103 0.063-0.152 0.098-0.212 0.147-0.393 0.328-0.54 0.534-0.098 0.138-0.18 0.287-0.244 0.443-0.107 0.261-0.166 0.544-0.166 0.836l0 2.651 0 1.698 0.001 5.092v0.001l0 1.697 0 2.655v0c0 0.725 0.357 1.399 0.946 1.809 0.051 0.035 0.103 0.069 0.157 0.101l11.948 6.895c0.682 0.394 1.523 0.394 2.205-0l11.945-6.899c0.053-0.030 0.103-0.063 0.152-0.098 0.591-0.41 0.95-1.085 0.95-1.813v0 0z"/><path fill="#73af00" d="M1.849 18.547v0l0 1.697 0 2.655v0c0 0.725 0.357 1.399 0.946 1.809 0.051 0.035 0.103 0.069 0.157 0.101l11.948 6.895c0.682 0.394 1.523 0.394 2.205-0l11.945-6.899c0.053-0.030 0.103-0.063 0.152-0.098 0.592-0.41 0.95-1.085 0.95-1.813l-0-2.651-0-1.698-0-2.547h-28.304l0 2.546 0 0.001z"/><path fill="#ffe15a" d="M16.203 12.417l0.823 2.466 2.6 0.020c0.201 0.002 0.285 0.259 0.123 0.378l-2.091 1.544 0.784 2.479c0.061 0.192-0.158 0.351-0.322 0.234l-2.115-1.512-2.115 1.512c-0.164 0.117-0.383-0.042-0.322-0.234l0.784-2.479-2.091-1.544c-0.162-0.12-0.079-0.377 0.123-0.378l2.599-0.020 0.822-2.466c0.063-0.191 0.334-0.191 0.397 0z"/></svg>