<!-- Generated by IcoMoon.io -->
<svg version="1.1" xmlns="http://www.w3.org/2000/svg" width="32" height="32" viewBox="0 0 32 32">
<title>burundi</title>
<path fill="#f5f5f5" d="M29.669 24.271c0.013-0.016 0.026-0.033 0.038-0.050 0.010-0.014 0.020-0.027 0.030-0.041 0.014-0.019 0.027-0.038 0.040-0.057 0.006-0.010 0.012-0.019 0.019-0.029 0.049-0.076 0.094-0.154 0.133-0.236 0.002-0.005 0.005-0.010 0.007-0.015 0.014-0.028 0.026-0.057 0.039-0.086 0.001-0.002 0.002-0.005 0.003-0.007 0.067-0.16 0.116-0.328 0.144-0.501 0.001-0.003 0.001-0.007 0.002-0.010 0.005-0.034 0.010-0.068 0.014-0.103 0.002-0.013 0.002-0.026 0.003-0.039 0.002-0.026 0.005-0.053 0.007-0.079 0.002-0.041 0.004-0.083 0.004-0.124v0 0l-0-2.651-0-1.698-0.001-5.093-0-1.698-0-2.655c0 0 0 0 0-0 0-0.043-0.002-0.087-0.004-0.13-0.001-0.021-0.003-0.042-0.005-0.064-0.002-0.020-0.004-0.040-0.006-0.059-0.003-0.028-0.007-0.056-0.012-0.084-0.002-0.010-0.003-0.020-0.005-0.031-0.006-0.033-0.012-0.066-0.019-0.099v0c-0.003-0.012-0.006-0.024-0.008-0.036-0.005-0.022-0.009-0.043-0.015-0.065-0.026-0.098-0.059-0.194-0.099-0.287-0.16-0.381-0.426-0.714-0.773-0.955-0.051-0.035-0.103-0.069-0.157-0.101l-11.947-6.895c-0.682-0.394-1.523-0.394-2.205 0l-11.945 6.899c-0.053 0.030-0.103 0.063-0.152 0.098-0.212 0.147-0.393 0.328-0.54 0.534-0.098 0.138-0.18 0.287-0.244 0.443-0.023 0.056-0.044 0.114-0.062 0.172-0.001 0.002-0.001 0.004-0.002 0.006-0.030 0.096-0.054 0.194-0.071 0.295-0 0.001-0 0.003-0.001 0.004-0.006 0.036-0.011 0.072-0.015 0.108-0.001 0.004-0.001 0.009-0.002 0.013-0.004 0.033-0.006 0.066-0.008 0.1-0 0.007-0.001 0.014-0.002 0.020-0.002 0.039-0.003 0.078-0.003 0.117v0 0l0 2.651 0 1.698 0.001 5.092v0.001l0 1.697 0 2.655v0c0 0.042 0.001 0.083 0.004 0.124 0.002 0.026 0.004 0.053 0.007 0.079 0.001 0.013 0.002 0.026 0.004 0.039 0.004 0.034 0.009 0.068 0.014 0.102 0.001 0.003 0.001 0.007 0.002 0.010 0.028 0.173 0.077 0.34 0.144 0.5 0.001 0.002 0.002 0.005 0.003 0.007 0.012 0.029 0.025 0.058 0.039 0.086 0.002 0.005 0.005 0.010 0.007 0.015 0.039 0.081 0.084 0.16 0.133 0.235 0.006 0.010 0.012 0.019 0.019 0.029 0.013 0.019 0.026 0.038 0.040 0.057 0.010 0.014 0.020 0.028 0.030 0.041 0.013 0.017 0.025 0.033 0.038 0.049s0.028 0.034 0.042 0.050c0.011 0.013 0.022 0.026 0.033 0.039 0.025 0.028 0.051 0.055 0.077 0.082 0.010 0.010 0.019 0.019 0.029 0.028 0.019 0.019 0.039 0.038 0.059 0.056 0.011 0.010 0.022 0.019 0.033 0.029 0.021 0.018 0.042 0.036 0.064 0.054 0.010 0.008 0.020 0.016 0.030 0.024 0.032 0.025 0.064 0.049 0.098 0.073 0.051 0.035 0.103 0.069 0.157 0.101l11.948 6.895c0.682 0.394 1.523 0.394 2.205-0l11.945-6.899c0.053-0.030 0.103-0.063 0.152-0.098 0.034-0.023 0.066-0.048 0.098-0.073 0.010-0.008 0.020-0.016 0.030-0.024 0.022-0.018 0.043-0.036 0.064-0.054 0.011-0.010 0.022-0.019 0.033-0.029 0.020-0.018 0.040-0.037 0.060-0.056 0.010-0.009 0.020-0.019 0.029-0.028 0.026-0.027 0.052-0.054 0.077-0.082 0.011-0.013 0.022-0.026 0.033-0.039 0.014-0.017 0.028-0.033 0.041-0.050z"></path>
<path fill="#ff4b55" d="M16.004 10.358c1.402 0 2.683 0.515 3.669 1.362l8.066-5.285-10.639-6.14c-0.682-0.394-1.523-0.394-2.205 0l-10.628 6.138 8.068 5.286c0.986-0.847 2.267-1.362 3.669-1.362z"></path>
<path fill="#ff4b55" d="M19.673 20.273c-0.002 0.001-0.003 0.003-0.005 0.004-0.986 0.845-2.264 1.358-3.664 1.358s-2.678-0.514-3.664-1.358c-0.002-0.001-0.003-0.003-0.005-0.004l-8.076 5.291 10.641 6.141c0.682 0.394 1.523 0.394 2.205-0l10.638-6.144-8.070-5.287z"></path>
<path fill="#73af00" d="M30.153 20.244l-0-1.698-0.001-5.093-0-1.698-0-2.655c0 0 0 0 0-0 0-0.043-0.002-0.087-0.004-0.13-0.001-0.021-0.003-0.042-0.005-0.064-0.002-0.020-0.004-0.040-0.006-0.059-0.003-0.028-0.007-0.056-0.012-0.084-0.002-0.010-0.003-0.020-0.005-0.031-0.006-0.033-0.012-0.066-0.019-0.099v0l-8.705 5.703c0.161 0.525 0.249 1.082 0.249 1.659s-0.088 1.134-0.249 1.659l8.708 5.705c0.008-0.037 0.015-0.074 0.021-0.111 0.001-0.003 0.001-0.007 0.002-0.010 0.005-0.034 0.010-0.068 0.014-0.103 0.002-0.013 0.002-0.026 0.003-0.039 0.002-0.026 0.005-0.053 0.007-0.079 0.002-0.041 0.004-0.083 0.004-0.124l-0-2.651z"></path>
<path fill="#73af00" d="M10.365 15.996c0-0.577 0.088-1.134 0.249-1.659l-8.713-5.709c-0.008 0.038-0.017 0.076-0.023 0.114-0 0.001-0 0.003-0.001 0.004-0.006 0.036-0.011 0.072-0.015 0.108-0.001 0.004-0.001 0.009-0.002 0.013-0.004 0.033-0.006 0.066-0.008 0.1-0 0.007-0.001 0.014-0.002 0.020-0.002 0.039-0.003 0.078-0.003 0.117l0 2.651 0 1.698 0.001 5.092v0.001l0 1.697 0 2.655v0c0 0.042 0.001 0.083 0.004 0.124 0.002 0.026 0.004 0.053 0.007 0.079 0.001 0.013 0.002 0.026 0.004 0.039 0.004 0.034 0.009 0.068 0.014 0.102 0.001 0.003 0.001 0.007 0.002 0.010 0.006 0.037 0.014 0.074 0.022 0.111l8.714-5.709c-0.161-0.525-0.249-1.081-0.249-1.659z"></path>
<path fill="#ff4b55" d="M15.598 14.193l-0.85 0.022 0.444-0.725-0.444-0.725 0.85 0.022 0.406-0.747 0.406 0.747 0.849-0.022-0.444 0.725 0.444 0.725-0.849-0.022-0.406 0.747z"></path>
<path fill="#73af00" d="M16.004 12.237l0.351 0.645 0.734-0.019-0.384 0.627 0.384 0.627-0.734-0.019-0.351 0.645-0.351-0.645-0.734 0.019 0.383-0.627-0.383-0.627 0.734 0.019 0.351-0.645zM16.004 11.844l-0.461 0.848-0.965-0.025 0.504 0.823-0.504 0.823 0.965-0.025 0.461 0.848 0.461-0.848 0.965 0.025-0.504-0.823 0.504-0.823-0.965 0.025-0.461-0.848z"></path>
<path fill="#ff4b55" d="M13.265 18.346l-0.85 0.022 0.444-0.725-0.444-0.725 0.85 0.022 0.406-0.747 0.406 0.747 0.85-0.022-0.444 0.725 0.444 0.725-0.85-0.022-0.406 0.747z"></path>
<path fill="#73af00" d="M13.671 16.39l0.351 0.645 0.734-0.019-0.383 0.627 0.383 0.627-0.734-0.019-0.351 0.645-0.351-0.645-0.734 0.019 0.383-0.627-0.383-0.627 0.734 0.019 0.351-0.645zM13.671 15.996l-0.461 0.848-0.965-0.025 0.504 0.823-0.504 0.823 0.965-0.025 0.461 0.848 0.461-0.848 0.965 0.025-0.504-0.823 0.504-0.823-0.965 0.025-0.461-0.848z"></path>
<path fill="#ff4b55" d="M17.931 18.346l-0.849 0.022 0.444-0.725-0.444-0.725 0.849 0.022 0.406-0.747 0.406 0.747 0.849-0.022-0.444 0.725 0.444 0.725-0.849-0.022-0.406 0.747z"></path>
<path fill="#73af00" d="M18.337 16.39l0.351 0.645 0.734-0.019-0.384 0.627 0.384 0.627-0.734-0.019-0.351 0.645-0.351-0.645-0.734 0.019 0.384-0.627-0.384-0.627 0.734 0.019 0.351-0.645zM18.337 15.996l-0.461 0.848-0.965-0.025 0.504 0.823-0.504 0.823 0.965-0.025 0.461 0.848 0.461-0.848 0.965 0.025-0.504-0.823 0.504-0.823-0.965 0.025-0.461-0.848z"></path>
</svg>
