<svg xmlns="http://www.w3.org/2000/svg" width="32" height="32" version="1.1" viewBox="0 0 32 32"><title>cambodia</title><path fill="#ff4b55" d="M30.153 22.895l-0-2.651-0-1.698-0.001-5.093-0-1.698-0-2.655c0-0.194-0.026-0.384-0.075-0.567-0.026-0.098-0.059-0.194-0.099-0.287-0.16-0.381-0.426-0.714-0.773-0.955-0.051-0.035-0.103-0.069-0.157-0.101l-11.947-6.895c-0.682-0.394-1.523-0.394-2.205 0l-11.945 6.899c-0.053 0.030-0.103 0.063-0.152 0.098-0.212 0.147-0.393 0.328-0.54 0.534-0.098 0.138-0.18 0.287-0.244 0.443-0.107 0.261-0.166 0.544-0.166 0.836l0 2.651 0 1.698 0.001 5.092v0.001l0 1.697 0 2.655v0c0 0.725 0.357 1.399 0.946 1.809 0.051 0.035 0.103 0.069 0.157 0.101l11.948 6.895c0.682 0.394 1.523 0.394 2.205-0l11.945-6.899c0.053-0.030 0.103-0.063 0.152-0.098 0.591-0.41 0.95-1.085 0.95-1.813v0 0z"/><path fill="#41479b" d="M1.861 23.112c0.062 0.643 0.404 1.228 0.935 1.597 0.051 0.035 0.103 0.069 0.157 0.101l11.948 6.895c0.682 0.394 1.523 0.394 2.205-0l11.945-6.899c0.053-0.030 0.103-0.063 0.152-0.098 0.532-0.369 0.875-0.953 0.938-1.596l-28.281 0z"/><path fill="#41479b" d="M30.076 8.534c-0.026-0.098-0.059-0.194-0.099-0.287-0.16-0.381-0.426-0.714-0.773-0.955-0.051-0.035-0.103-0.069-0.157-0.101l-11.948-6.895c-0.682-0.394-1.523-0.394-2.205 0l-11.945 6.899c-0.053 0.030-0.103 0.063-0.152 0.098-0.212 0.147-0.393 0.328-0.54 0.534-0.098 0.138-0.18 0.287-0.244 0.443-0.080 0.196-0.133 0.404-0.155 0.619h28.281c-0.012-0.121-0.033-0.24-0.063-0.355z"/><path fill="#f5f5f5" d="M24.268 21.675v-0.886h-0.295v-0.591h-0.295v-0.591h-0.295v-0.591h-0.886v-1.772h-0l0.295-0.295v-0.886h-0.295v-0.591h-0.295v-0.886h-0.295v-0.591h-0.295v-0.591h-0.295v-0.295h-0.591v0.295h-0.295v0.591h-0.295v0.591h-0.295v0.886h-0.295v0.591h-1.772v-0.886h-0.295v-0.886h-0.295v-0.886h-0.295v-0.591h-0.295v-0.591h-0.295v-0.295h-0.148v-0.295h-0.295v0.295h-0.148v0.295h-0.295v0.591h-0.295v0.591h-0.295v0.886h-0.295v0.886h-0.295v0.886h-1.772v-0.591h-0.295v-0.886h-0.295v-0.591h-0.295v-0.591h-0.295v-0.295h-0.591v0.295h-0.295v0.591h-0.295v0.591h-0.295v0.886h-0.295v0.591h-0.295v0.886l0.295 0.295v1.772h-0.886v0.591h-0.295v0.591h-0.295v0.591h-0.295v0.886h-0.295v0.886h17.127v-0.886z"/></svg>