<!-- Generated by IcoMoon.io -->
<svg version="1.1" xmlns="http://www.w3.org/2000/svg" width="32" height="32" viewBox="0 0 32 32">
<title>cameroon</title>
<path fill="#ff4b55" d="M20.79 2.425l-3.69-2.13c-0.682-0.394-1.523-0.394-2.205 0l-4.935 2.85-1.77 12.854 1.77 12.854 4.94 2.851c0.682 0.394 1.523 0.394 2.205-0l4.935-2.85 1.927-12.698-1.927-13.009-1.25-0.721z"></path>
<path fill="#73af00" d="M9.96 3.146l-7.011 4.049c-0.053 0.030-0.103 0.063-0.152 0.098-0.212 0.147-0.393 0.328-0.54 0.534-0.098 0.138-0.18 0.287-0.244 0.443-0.107 0.261-0.166 0.544-0.166 0.836l0 2.651 0 1.698 0.001 5.092v0.001l0 1.697 0 2.655v0c0 0.725 0.357 1.399 0.946 1.809 0.051 0.035 0.103 0.069 0.157 0.101l7.008 4.044v-25.708h-0z"></path>
<path fill="#ffe15a" d="M30.153 20.244l-0-1.698-0.001-5.093-0-1.698-0-2.655c-0-0.194-0.026-0.384-0.075-0.567-0.026-0.098-0.059-0.194-0.099-0.287-0.16-0.381-0.426-0.714-0.773-0.955-0.051-0.035-0.103-0.069-0.157-0.101l-7.007-4.044v25.708l7.011-4.049c0.053-0.030 0.103-0.063 0.152-0.098 0.592-0.41 0.95-1.085 0.95-1.813l-0-2.651z"></path>
<path fill="#ffe15a" d="M16.13 13.71l0.537 1.61 1.697 0.013c0.131 0.001 0.186 0.169 0.080 0.247l-1.365 1.008 0.512 1.618c0.040 0.125-0.103 0.229-0.21 0.153l-1.38-0.987-1.38 0.987c-0.107 0.076-0.25-0.027-0.21-0.153l0.512-1.618-1.365-1.008c-0.106-0.078-0.051-0.246 0.080-0.247l1.697-0.013 0.537-1.61c0.042-0.125 0.218-0.125 0.26 0z"></path>
</svg>
