<!-- Generated by IcoMoon.io -->
<svg version="1.1" xmlns="http://www.w3.org/2000/svg" width="32" height="32" viewBox="0 0 32 32">
<title>cape-verde</title>
<path fill="#41479b" d="M30.152 17.854l-0.001-4.401-0-1.698-0-2.655c0-0.194-0.026-0.384-0.075-0.567-0.026-0.098-0.059-0.194-0.099-0.287-0.16-0.381-0.426-0.714-0.773-0.955-0.051-0.035-0.103-0.069-0.157-0.101l-11.947-6.895c-0.682-0.394-1.523-0.394-2.205 0l-11.945 6.899c-0.053 0.030-0.103 0.063-0.152 0.098-0.212 0.147-0.393 0.328-0.54 0.534-0.098 0.138-0.18 0.287-0.244 0.443-0.107 0.261-0.166 0.544-0.166 0.836l0 2.651 0 1.698 0.001 4.401 14.464 0.801 13.84-0.801z"></path>
<path fill="#41479b" d="M30.153 22.798l-14.153-0.707-14.151 0.707v0.101c0 0.725 0.357 1.399 0.946 1.809 0.051 0.035 0.103 0.069 0.157 0.101l11.948 6.895c0.682 0.394 1.523 0.394 2.205-0l11.945-6.899c0.053-0.030 0.103-0.063 0.152-0.098 0.592-0.41 0.95-1.085 0.95-1.813l-0-0.097z"></path>
<path fill="#f5f5f5" d="M30.153 21.15l-0-0.906-0-0.742-0-0.956-0-0.693h-28.304l0 0.692v0.001l0 0.955 0 0.742 0 0.906 0 1.648h28.304z"></path>
<path fill="#ff4b55" d="M1.849 20.244l0 0.906h28.304l-0-0.906-0-0.742h-28.304z"></path>
<path fill="#ffe15a" d="M9.954 14.506l0.19 0.568 0.599 0.005c0.046 0 0.066 0.060 0.028 0.087l-0.482 0.356 0.181 0.571c0.014 0.044-0.036 0.081-0.074 0.054l-0.487-0.348-0.487 0.348c-0.038 0.027-0.088-0.010-0.074-0.054l0.181-0.571-0.482-0.356c-0.037-0.028-0.018-0.087 0.028-0.087l0.599-0.005 0.19-0.568c0.015-0.044 0.077-0.044 0.091 0z"></path>
<path fill="#ffe15a" d="M9.954 24.494l0.19 0.568 0.599 0.005c0.046 0 0.066 0.060 0.028 0.087l-0.482 0.356 0.181 0.571c0.014 0.044-0.036 0.081-0.074 0.054l-0.487-0.348-0.487 0.348c-0.038 0.027-0.088-0.010-0.074-0.054l0.181-0.571-0.482-0.356c-0.037-0.028-0.018-0.087 0.028-0.087l0.599-0.005 0.19-0.568c0.015-0.044 0.077-0.044 0.091 0z"></path>
<path fill="#ffe15a" d="M6.712 25.052l0.482-0.356 0.493 0.34c0.038 0.026 0.088-0.011 0.073-0.055l-0.19-0.568 0.476-0.364c0.037-0.028 0.017-0.087-0.030-0.087l-0.599 0.005-0.199-0.565c-0.015-0.044-0.078-0.043-0.092 0.002l-0.18 0.571-0.599 0.014c-0.046 0.001-0.065 0.061-0.027 0.088l0.488 0.348-0.171 0.574c-0.013 0.044 0.038 0.080 0.075 0.052z"></path>
<path fill="#ffe15a" d="M7.676 16.933l-0.489-0.346-0.486 0.351c-0.038 0.027-0.088-0.009-0.074-0.053l0.178-0.572-0.484-0.354c-0.037-0.027-0.019-0.087 0.028-0.087l0.599-0.008 0.187-0.569c0.014-0.044 0.077-0.044 0.092-0l0.192 0.567 0.599 0.002c0.046 0 0.066 0.059 0.029 0.087l-0.48 0.358 0.184 0.57c0.014 0.044-0.036 0.081-0.074 0.054z"></path>
<path fill="#ffe15a" d="M12.188 16.94l0.482-0.356 0.493 0.34c0.038 0.026 0.088-0.011 0.073-0.055l-0.19-0.568 0.476-0.364c0.037-0.028 0.017-0.087-0.030-0.087l-0.599 0.005-0.199-0.565c-0.015-0.044-0.078-0.043-0.092 0.002l-0.18 0.571-0.599 0.014c-0.046 0.001-0.065 0.061-0.027 0.088l0.488 0.348-0.171 0.574c-0.013 0.044 0.038 0.080 0.075 0.053z"></path>
<path fill="#ffe15a" d="M13.152 25.045l-0.489-0.346-0.486 0.351c-0.038 0.027-0.088-0.009-0.074-0.053l0.178-0.572-0.484-0.354c-0.037-0.027-0.018-0.087 0.028-0.087l0.599-0.008 0.187-0.569c0.014-0.044 0.077-0.044 0.092-0l0.192 0.567 0.599 0.002c0.046 0 0.066 0.059 0.029 0.087l-0.48 0.358 0.184 0.57c0.014 0.044-0.036 0.081-0.074 0.054z"></path>
<path fill="#ffe15a" d="M5.996 21.554l-0.599 0.004-0.198-0.566c-0.015-0.044-0.078-0.043-0.092 0.001l-0.181 0.571-0.599 0.013c-0.046 0.001-0.065 0.061-0.027 0.088l0.487 0.349-0.172 0.574c-0.013 0.044 0.038 0.080 0.075 0.053l0.482-0.355 0.492 0.341c0.038 0.026 0.088-0.011 0.073-0.055l-0.189-0.569 0.477-0.363c0.037-0.028 0.017-0.087-0.029-0.087z"></path>
<path fill="#ffe15a" d="M4.327 18.474l0.599-0.011 0.183-0.57c0.014-0.044 0.076-0.045 0.092-0.001l0.196 0.566 0.599-0.002c0.046-0 0.066 0.059 0.029 0.087l-0.478 0.361 0.187 0.569c0.014 0.044-0.035 0.081-0.074 0.055l-0.491-0.343-0.484 0.354c-0.037 0.027-0.088-0.009-0.075-0.053l0.174-0.573-0.486-0.351c-0.038-0.027-0.019-0.087 0.027-0.088z"></path>
<path fill="#ffe15a" d="M15.489 18.452l-0.599 0.004-0.198-0.566c-0.015-0.044-0.078-0.043-0.092 0.001l-0.181 0.571-0.599 0.013c-0.046 0.001-0.065 0.061-0.027 0.088l0.487 0.349-0.172 0.574c-0.013 0.044 0.038 0.080 0.075 0.053l0.482-0.355 0.492 0.341c0.038 0.026 0.088-0.011 0.073-0.055l-0.189-0.569 0.477-0.363c0.037-0.028 0.017-0.087-0.030-0.087z"></path>
<path fill="#ffe15a" d="M13.82 21.576l0.599-0.011 0.183-0.57c0.014-0.044 0.076-0.045 0.092-0.001l0.196 0.566 0.599-0.002c0.046-0 0.066 0.059 0.029 0.087l-0.478 0.361 0.187 0.569c0.014 0.044-0.035 0.081-0.074 0.055l-0.491-0.343-0.484 0.354c-0.037 0.027-0.088-0.009-0.075-0.053l0.174-0.573-0.486-0.351c-0.038-0.027-0.019-0.087 0.027-0.088z"></path>
</svg>
