<!-- Generated by IcoMoon.io -->
<svg version="1.1" xmlns="http://www.w3.org/2000/svg" width="32" height="32" viewBox="0 0 32 32">
<title>chile</title>
<path fill="#f5f5f5" d="M30.152 16l-0.001-6.9c-0-0.788-0.421-1.516-1.103-1.91l-11.947-6.895c-0.683-0.394-1.523-0.394-2.205 0l-11.945 6.899c-0.682 0.394-1.103 1.122-1.102 1.91l0.001 6.895 0.001 6.9c0 0.788 0.421 1.516 1.103 1.91l11.948 6.895c0.682 0.394 1.523 0.394 2.205-0l11.945-6.899c0.682-0.394 1.102-1.122 1.102-1.91l-0.001-6.895z"></path>
<path fill="#41479b" d="M15.958 15.943v-15.941c-0.368 0.007-0.734 0.104-1.064 0.294l-12.229 7.063c-0.507 0.293-0.819 0.833-0.819 1.419l0.001 7.223 7.123 1.015 6.93-1.015c0.032 0 0.057-0.026 0.057-0.057z"></path>
<path fill="#ff4b55" d="M2.952 24.809l11.948 6.895c0.682 0.394 1.523 0.394 2.205-0l11.945-6.899c0.682-0.394 1.102-1.122 1.102-1.91l-0.001-6.895h-28.304l0.001 6.9c0 0.788 0.421 1.516 1.103 1.91z"></path>
<path fill="#f5f5f5" d="M9.11 7.692l0.53 1.59 1.676 0.013c0.217 0.002 0.307 0.278 0.132 0.407l-1.348 0.995 0.505 1.598c0.065 0.207-0.17 0.378-0.347 0.252l-1.363-0.974-1.363 0.974c-0.176 0.126-0.412-0.045-0.347-0.252l0.505-1.598-1.348-0.995c-0.175-0.129-0.085-0.406 0.132-0.407l1.676-0.013 0.53-1.59c0.069-0.206 0.36-0.206 0.428 0z"></path>
</svg>
