<svg xmlns="http://www.w3.org/2000/svg" width="32" height="32" version="1.1" viewBox="0 0 32 32"><title>colombia</title><path fill="#ffe15a" d="M30.152 16l-0.001-6.9c-0-0.788-0.421-1.516-1.103-1.91l-11.948-6.895c-0.682-0.394-1.523-0.394-2.205 0l-11.945 6.899c-0.682 0.394-1.103 1.122-1.102 1.91l0.001 6.895 0.001 6.9c0 0.427 0.125 0.836 0.346 1.184 0.187 0.294 0.444 0.545 0.757 0.726l11.948 6.895c0.682 0.394 1.523 0.394 2.205-0l11.945-6.899c0.311-0.18 0.567-0.429 0.754-0.721 0.224-0.349 0.349-0.76 0.349-1.189l-0.001-6.895z"/><path fill="#ff4b55" d="M2.952 24.809l11.948 6.895c0.682 0.394 1.523 0.394 2.205-0l11.945-6.899c0.311-0.18 0.567-0.429 0.754-0.721l-13.961-1.445-13.648 1.445c0.188 0.294 0.444 0.545 0.757 0.726z"/><path fill="#41479b" d="M2.196 24.084h27.609c0.224-0.349 0.349-0.76 0.349-1.189l-0.001-6.895h-28.304l0.001 6.9c0 0.427 0.125 0.836 0.346 1.184z"/></svg>