<svg xmlns="http://www.w3.org/2000/svg" width="32" height="32" version="1.1" viewBox="0 0 32 32"><title>cook-islands</title><path fill="#f5f5f5" d="M1.849 22.9l-0.002-13.795c-0-0.788 0.42-1.516 1.102-1.91l11.945-6.899c0.682-0.394 1.523-0.394 2.205-0l11.948 6.895c0.682 0.394 1.103 1.122 1.103 1.91l0.002 13.795c0 0.788-0.42 1.516-1.102 1.91l-11.945 6.899c-0.682 0.394-1.523 0.394-2.205 0l-11.947-6.895c-0.682-0.394-1.103-1.122-1.103-1.91z"/><path fill="#ff4b55" d="M2.585 7.459v8.552l1.231 0.457 1.382-0.457v-10.115l-2.249 1.299c-0.132 0.076-0.253 0.165-0.364 0.264z"/><path fill="#ff4b55" d="M6.048 5.405h9.952l0.234-2.058-0.234-2.125h-2.71z"/><path fill="#ff4b55" d="M6.751 6.799l8.754 9.095c0.002-0.001 0.004-0.003 0.005-0.004 0.004-0.003 0.008-0.007 0.011-0.010 0.028-0.021 0.478-0.424 0.478-0.427 0.010-0.229-0.005-0.639-0.003-0.699 0-0.004 0.001-0.007 0.001-0.011l-7.647-7.944-1.6-0z"/><path fill="#41479b" d="M30.151 9.1c-0-0.788-0.421-1.516-1.103-1.91l-11.948-6.895c-0.34-0.196-0.72-0.295-1.1-0.295v6.655h-6.636l6.636 6.959v1.060c0 0.023-0.001 0.046-0.002 0.069v0c-0 0.004-0.001 0.007-0.001 0.011-0.002 0.060-0.007 0.119-0.014 0.177-0.001 0.009-0.003 0.017-0.004 0.026-0.032 0.234-0.101 0.445-0.198 0.616-0.001 0.002-0.003 0.005-0.004 0.007-0.050 0.086-0.107 0.162-0.169 0.225-0.002 0.002-0.004 0.004-0.006 0.006-0.026 0.025-0.053 0.048-0.081 0.069-0.004 0.003-0.008 0.006-0.011 0.010-0.002 0.001-0.004 0.003-0.005 0.004v0c-0.104 0.075-0.219 0.117-0.34 0.117h-1.45l-7.735-8.111v8.111h-4.131l0.001 6.889c0 0.788 0.421 1.516 1.103 1.91l11.948 6.895c0.682 0.394 1.523 0.394 2.205-0l11.945-6.899c0.682-0.394 1.102-1.122 1.102-1.91l-0.002-13.794z"/><path fill="#f5f5f5" d="M20.997 12.013l0.364 0.398 0.495-0.216c0.038-0.017 0.076 0.025 0.055 0.061l-0.266 0.47 0.358 0.404c0.028 0.031-0 0.080-0.041 0.072l-0.529-0.108-0.273 0.465c-0.021 0.036-0.076 0.024-0.081-0.017l-0.061-0.536-0.527-0.116c-0.041-0.009-0.047-0.065-0.009-0.082l0.491-0.223-0.052-0.537c-0.004-0.042 0.047-0.065 0.076-0.034z"/><path fill="#f5f5f5" d="M19.156 13.522l0.495 0.216 0.364-0.398c0.028-0.031 0.079-0.008 0.075 0.034l-0.052 0.537 0.491 0.223c0.038 0.017 0.032 0.073-0.009 0.082l-0.527 0.116-0.061 0.536c-0.005 0.042-0.060 0.053-0.081 0.017l-0.273-0.465-0.529 0.108c-0.041 0.008-0.069-0.040-0.041-0.072l0.358-0.404-0.266-0.47c-0.021-0.036 0.017-0.078 0.055-0.061z"/><path fill="#f5f5f5" d="M18.088 15.649l0.54-0.004 0.171-0.512c0.013-0.040 0.069-0.040 0.083 0l0.171 0.512 0.54 0.004c0.042 0 0.059 0.054 0.026 0.079l-0.434 0.321 0.163 0.515c0.013 0.040-0.033 0.073-0.067 0.049l-0.439-0.314-0.439 0.314c-0.034 0.024-0.079-0.009-0.067-0.049l0.163-0.515-0.434-0.321c-0.034-0.025-0.016-0.078 0.025-0.079z"/><path fill="#f5f5f5" d="M17.978 18.026l0.491-0.223-0.052-0.537c-0.004-0.042 0.047-0.064 0.075-0.034l0.364 0.398 0.495-0.216c0.038-0.017 0.076 0.025 0.055 0.061l-0.266 0.47 0.358 0.404c0.028 0.031-0 0.080-0.041 0.072l-0.529-0.108-0.273 0.465c-0.021 0.036-0.076 0.024-0.081-0.017l-0.061-0.536-0.527-0.116c-0.041-0.009-0.047-0.065-0.009-0.082z"/><path fill="#f5f5f5" d="M18.844 20.243l0.358-0.404-0.266-0.47c-0.021-0.036 0.017-0.078 0.055-0.061l0.495 0.216 0.364-0.398c0.028-0.031 0.079-0.008 0.075 0.034l-0.052 0.537 0.491 0.223c0.038 0.017 0.032 0.073-0.009 0.082l-0.527 0.116-0.061 0.536c-0.005 0.042-0.060 0.053-0.081 0.017l-0.273-0.465-0.529 0.108c-0.041 0.008-0.069-0.040-0.041-0.072z"/><path fill="#f5f5f5" d="M20.538 21.916l0.163-0.515-0.434-0.321c-0.034-0.025-0.016-0.078 0.026-0.079l0.54-0.004 0.171-0.512c0.013-0.040 0.069-0.040 0.083 0l0.171 0.512 0.54 0.004c0.042 0 0.059 0.054 0.026 0.079l-0.434 0.321 0.163 0.515c0.013 0.040-0.033 0.073-0.067 0.049l-0.439-0.314-0.439 0.314c-0.034 0.024-0.079-0.009-0.067-0.049z"/><path fill="#f5f5f5" d="M22.765 22.756l-0.061-0.536-0.527-0.116c-0.041-0.009-0.047-0.065-0.009-0.082l0.491-0.223-0.052-0.537c-0.004-0.042 0.047-0.064 0.075-0.034l0.364 0.398 0.495-0.216c0.038-0.017 0.076 0.025 0.055 0.061l-0.266 0.47 0.358 0.404c0.028 0.031-0 0.080-0.041 0.072l-0.529-0.108-0.273 0.465c-0.021 0.036-0.076 0.024-0.081-0.017z"/><path fill="#f5f5f5" d="M25.141 22.617l-0.273-0.465-0.529 0.108c-0.041 0.008-0.069-0.040-0.041-0.072l0.358-0.404-0.266-0.47c-0.021-0.036 0.017-0.078 0.055-0.061l0.495 0.216 0.364-0.398c0.028-0.031 0.079-0.008 0.075 0.034l-0.052 0.537 0.491 0.223c0.038 0.017 0.032 0.073-0.009 0.082l-0.527 0.116-0.061 0.536c-0.005 0.041-0.060 0.053-0.081 0.017z"/><path fill="#f5f5f5" d="M27.255 21.524l-0.439-0.314-0.439 0.314c-0.034 0.024-0.079-0.009-0.067-0.049l0.163-0.515-0.434-0.321c-0.034-0.025-0.016-0.078 0.026-0.079l0.54-0.004 0.171-0.512c0.013-0.040 0.069-0.040 0.083 0l0.171 0.512 0.54 0.004c0.042 0 0.059 0.054 0.026 0.079l-0.434 0.321 0.163 0.515c0.012 0.040-0.033 0.073-0.067 0.049z"/><path fill="#f5f5f5" d="M28.742 19.665l-0.529-0.108-0.273 0.465c-0.021 0.036-0.076 0.024-0.081-0.017l-0.061-0.536-0.527-0.116c-0.041-0.009-0.047-0.065-0.009-0.082l0.491-0.223-0.052-0.537c-0.004-0.042 0.047-0.064 0.075-0.034l0.364 0.398 0.495-0.216c0.038-0.017 0.076 0.025 0.055 0.061l-0.266 0.47 0.358 0.404c0.028 0.031-0.001 0.080-0.041 0.072z"/><path fill="#f5f5f5" d="M29.344 17.362l-0.527 0.116-0.061 0.536c-0.005 0.042-0.060 0.053-0.081 0.017l-0.273-0.465-0.529 0.108c-0.041 0.008-0.069-0.040-0.041-0.072l0.358-0.404-0.266-0.47c-0.021-0.036 0.017-0.078 0.055-0.061l0.495 0.216 0.364-0.398c0.028-0.031 0.079-0.008 0.075 0.034l-0.052 0.537 0.491 0.223c0.038 0.017 0.032 0.073-0.009 0.082z"/><path fill="#f5f5f5" d="M28.958 15.014l-0.434 0.321 0.163 0.515c0.013 0.040-0.033 0.073-0.067 0.049l-0.439-0.314-0.439 0.314c-0.034 0.024-0.079-0.009-0.067-0.049l0.163-0.515-0.434-0.321c-0.034-0.025-0.016-0.078 0.026-0.079l0.54-0.004 0.171-0.512c0.013-0.040 0.069-0.040 0.083 0l0.171 0.512 0.54 0.004c0.042 0 0.059 0.054 0.025 0.079z"/><path fill="#f5f5f5" d="M27.649 13.025l-0.266 0.47 0.358 0.404c0.028 0.031-0 0.080-0.041 0.072l-0.529-0.108-0.273 0.465c-0.021 0.036-0.076 0.024-0.081-0.017l-0.061-0.536-0.527-0.116c-0.041-0.009-0.047-0.065-0.009-0.082l0.491-0.223-0.052-0.537c-0.004-0.042 0.047-0.064 0.075-0.034l0.364 0.398 0.495-0.216c0.038-0.017 0.076 0.025 0.055 0.061z"/><path fill="#f5f5f5" d="M25.645 11.741l-0.052 0.537 0.491 0.223c0.038 0.017 0.032 0.073-0.009 0.082l-0.527 0.116-0.061 0.536c-0.005 0.042-0.060 0.053-0.081 0.017l-0.273-0.465-0.529 0.108c-0.041 0.008-0.069-0.040-0.041-0.072l0.358-0.404-0.266-0.47c-0.021-0.036 0.017-0.078 0.055-0.061l0.495 0.216 0.364-0.398c0.028-0.031 0.079-0.008 0.075 0.034z"/><path fill="#f5f5f5" d="M23.292 11.383l0.171 0.512 0.54 0.004c0.042 0 0.059 0.054 0.026 0.079l-0.434 0.321 0.163 0.515c0.013 0.040-0.033 0.073-0.067 0.049l-0.439-0.314-0.439 0.314c-0.034 0.024-0.079-0.009-0.067-0.049l0.163-0.515-0.434-0.321c-0.034-0.025-0.016-0.078 0.026-0.079l0.54-0.004 0.171-0.512c0.013-0.040 0.069-0.040 0.082 0z"/></svg>