<!-- Generated by IcoMoon.io -->
<svg version="1.1" xmlns="http://www.w3.org/2000/svg" width="32" height="32" viewBox="0 0 32 32">
<title>corsica</title>
<path fill="#f5f5f5" d="M30.153 22.895l-0-2.651-0-1.698-0.001-5.093-0-1.698-0-2.655c0-0.194-0.026-0.384-0.075-0.567-0.026-0.098-0.059-0.194-0.099-0.287-0.16-0.381-0.426-0.714-0.773-0.955-0.051-0.035-0.103-0.069-0.157-0.101l-11.947-6.895c-0.682-0.394-1.523-0.394-2.205 0l-11.945 6.899c-0.053 0.030-0.103 0.063-0.152 0.098-0.212 0.147-0.393 0.328-0.54 0.534-0.098 0.138-0.18 0.287-0.244 0.443-0.107 0.261-0.166 0.544-0.166 0.836l0 2.651 0 1.698 0.001 5.092v0.001l0 1.697 0 2.655v0c0 0.725 0.357 1.399 0.946 1.809 0.051 0.035 0.103 0.069 0.157 0.101l11.948 6.895c0.682 0.394 1.523 0.394 2.205-0l11.945-6.899c0.053-0.030 0.103-0.063 0.152-0.098 0.591-0.41 0.95-1.085 0.95-1.813v0 0z"></path>
<path fill="#464655" d="M9.214 17.052c0 0 0.015 0.284-0.224 0.538s-0.12 0.583 0.194 0.733c0 0-0.217 0.516 0.105 0.732 0.203 0.137 0.478 0.12 0.478 0.12s0.149 0.613 0.030 1.002c-0.12 0.389 0.045 1.51 2.78 0.867 0 0 0.025 0.718 1.121 1.276s0.882 1.88 0.882 1.88 1.509 0.873 3.176-1.191 1.787-2.343 2.978-2.819c0 0-1.866-1.906-1.191-3.574 0.089-0.22 0.189-0.45 0.294-0.688 0.193 0.628 0.575 1.544 1.257 2.077 0.212 0.165 0.474 0.217 0.727 0.268 0.272 0.055 0.506 0.102 0.617 0.269 0.097 0.149 0.106 0.412 0.031 0.777-0.811 0.884-1.595 1.12-1.605 1.123l-0.189 0.051 0.396 1.308-1.183 1.089 0.021 0.105c0.146 0.73 0.597 0.826 0.783 0.835 0.011 0 0.022 0.001 0.034 0.001 0.431 0 0.869-0.362 1.008-0.84 0.241-0.825 1.026-0.919 1.035-0.919l0.119-0.014 0.040-0.113c0.017-0.050 0.426-1.226 0.627-2.425 0.081-0.485 0.096-0.871 0.080-1.208 0.006-0.012 0.013-0.018 0.020-0.030l-0.020-0.011c-0.076-1.278-0.769-1.618-1.454-1.934-0.584-0.271-0.813-0.534-0.926-0.743 0.024 0.001 0.044 0.007 0.067 0.007 0.186 0 0.382-0.021 0.581-0.077 0.553-0.154 1.001-0.532 1.331-1.124 0.201-0.362 1.696-4.464 1.866-4.931l0.118-0.324-1.93 0.412 0.147-1.174-2.501 0.882 0.060 0.179c0.009 0.024 0.805 2.416 0.728 3.876-0.021 0.383-0.141 0.661-0.361 0.825-0.276 0.204-0.65 0.193-0.846 0.172 0.435-1.157 0.716-2.372 0.301-3.46-0.688-1.803-3.732-3.454-6.035-3.216s-4.212 0.795-4.847 3.098c-0.635 2.303-0.458 2.911-0.379 3.308s-1.416 2.15-1.146 2.691c0.179 0.359 0.807 0.314 0.807 0.314zM20.253 14.969c0.040-0.094 0.080-0.188 0.119-0.284 0.071 0.013 0.175 0.027 0.329 0.027 0.261 0 0.602-0.050 0.886-0.262 0.314-0.235 0.486-0.608 0.512-1.111 0.071-1.31-0.5-3.242-0.689-3.839l1.568-0.552-0.381 3.042 0.377 0.047 0.261-2.082 1.387-0.296c-0.661 1.812-1.591 4.314-1.723 4.553-0.279 0.5-0.65 0.818-1.102 0.943-0.678 0.192-1.324-0.079-1.545-0.188zM21.194 22.205l0.194 0.639c-0.005 0.016-0.014 0.024-0.019 0.040-0.091 0.31-0.382 0.565-0.642 0.565-0.006 0-0.012 0-0.017 0-0.236-0.010-0.349-0.239-0.402-0.427l0.886-0.816zM23.243 18.909c-0.015 0.171-0.032 0.345-0.066 0.548-0.161 0.964-0.471 1.942-0.576 2.256-0.213 0.050-0.654 0.201-0.968 0.628l-0.485-1.595c0.386-0.154 1.291-0.661 2.094-1.836zM20.084 15.367c0.007-0.017 0.014-0.032 0.022-0.048 0.143 0.068 0.385 0.168 0.708 0.231 0.090 0.267 0.3 0.713 1.205 1.132 0.628 0.29 1.156 0.536 1.24 1.506-0.119 0.218-0.248 0.369-0.375 0.548-0.018-0.154-0.054-0.293-0.127-0.403-0.199-0.302-0.55-0.372-0.861-0.434-0.22-0.045-0.427-0.086-0.567-0.195-0.802-0.626-1.145-1.897-1.245-2.337zM10.171 12.552c0 0 0.060-1.345 0.658-2.481l9.148 4.245-0.777 1.674-9.029-3.438z"></path>
</svg>
