<!-- Generated by IcoMoon.io -->
<svg version="1.1" xmlns="http://www.w3.org/2000/svg" width="32" height="32" viewBox="0 0 32 32">
<title>croatia</title>
<path fill="#f5f5f5" d="M30.153 22.895l-0-2.651-0-1.698-0.001-5.093-0-1.698-0-2.655c0-0.194-0.026-0.384-0.075-0.567-0.026-0.098-0.059-0.194-0.099-0.287-0.16-0.381-0.426-0.714-0.773-0.955-0.051-0.035-0.103-0.069-0.157-0.101l-11.947-6.895c-0.682-0.394-1.523-0.394-2.205 0l-11.945 6.899c-0.053 0.030-0.103 0.063-0.152 0.098-0.212 0.147-0.393 0.328-0.54 0.534-0.098 0.138-0.18 0.287-0.244 0.443-0.107 0.261-0.166 0.544-0.166 0.836l0 2.651 0 1.698 0.001 5.092v0.001l0 1.697 0 2.655v0c0 0.725 0.357 1.399 0.946 1.809 0.051 0.035 0.103 0.069 0.157 0.101l11.948 6.895c0.682 0.394 1.523 0.394 2.205-0l11.945-6.899c0.053-0.030 0.103-0.063 0.152-0.098 0.591-0.41 0.95-1.085 0.95-1.813v0 0z"></path>
<path fill="#41479b" d="M1.849 22.899v0c0 0.725 0.357 1.399 0.946 1.809 0.051 0.035 0.103 0.069 0.157 0.101l11.948 6.895c0.682 0.394 1.523 0.394 2.205-0l11.945-6.899c0.053-0.030 0.103-0.063 0.152-0.098 0.592-0.41 0.95-1.085 0.95-1.813l-0-1.522h-28.304l0 1.526z"></path>
<path fill="#ff4b55" d="M30.151 9.1c0-0.194-0.026-0.384-0.075-0.567-0.026-0.098-0.059-0.194-0.099-0.287-0.16-0.381-0.426-0.714-0.773-0.955-0.051-0.035-0.103-0.069-0.157-0.101l-11.947-6.895c-0.682-0.394-1.523-0.394-2.205 0l-11.945 6.899c-0.053 0.030-0.103 0.063-0.152 0.098-0.212 0.147-0.393 0.328-0.54 0.534-0.098 0.138-0.18 0.287-0.244 0.443-0.107 0.261-0.166 0.544-0.166 0.836l0 1.522h28.304l-0-1.527z"></path>
<path fill="#ff4b55" d="M10.916 10.499h2.034v2.324h-2.034v-2.324z"></path>
<path fill="#ff4b55" d="M14.984 10.499h2.034v2.324h-2.034v-2.324z"></path>
<path fill="#ff4b55" d="M12.949 12.823h2.034v2.324h-2.034v-2.324z"></path>
<path fill="#ff4b55" d="M19.050 10.499h2.034v2.324h-2.034v-2.324z"></path>
<path fill="#ff4b55" d="M17.016 12.823h2.034v2.324h-2.034v-2.324z"></path>
<path fill="#f5f5f5" d="M12.949 10.499h2.034v2.324h-2.034v-2.324z"></path>
<path fill="#f5f5f5" d="M17.016 10.499h2.034v2.324h-2.034v-2.324z"></path>
<path fill="#f5f5f5" d="M10.916 12.823h2.034v2.324h-2.034v-2.324z"></path>
<path fill="#f5f5f5" d="M14.984 12.823h2.034v2.324h-2.034v-2.324z"></path>
<path fill="#f5f5f5" d="M19.050 12.823h2.034v2.324h-2.034v-2.324z"></path>
<path fill="#ff4b55" d="M14.984 15.148h2.034v2.324h-2.034v-2.324z"></path>
<path fill="#ff4b55" d="M12.949 17.471h2.034v2.324h-2.034v-2.324z"></path>
<path fill="#ff4b55" d="M17.016 17.471h2.034v2.324h-2.034v-2.324z"></path>
<path fill="#f5f5f5" d="M12.949 15.148h2.034v2.324h-2.034v-2.324z"></path>
<path fill="#f5f5f5" d="M17.016 15.148h2.034v2.324h-2.034v-2.324z"></path>
<path fill="#f5f5f5" d="M14.984 17.471h2.034v2.324h-2.034v-2.324z"></path>
<path fill="#ff4b55" d="M21.084 10.499v6.537c0 2.808-2.276 5.084-5.084 5.084s-5.084-2.276-5.084-5.084v-6.537h10.168zM21.447 10.136h-10.894v6.9c0 3.004 2.444 5.447 5.447 5.447s5.447-2.444 5.447-5.447v-6.9h0z"></path>
<path fill="#ff4b55" d="M12.949 17.471v-2.324h-2.034v1.888c0 0.147 0.010 0.292 0.022 0.436h2.012z"></path>
<path fill="#f5f5f5" d="M21.062 17.471h-2.012v2.324h1.215c0.441-0.68 0.724-1.472 0.796-2.324z"></path>
<path fill="#f5f5f5" d="M11.734 19.795h1.216v-2.324h-2.012c0.072 0.852 0.355 1.644 0.796 2.324z"></path>
<path fill="#ff4b55" d="M19.050 17.471h2.012c0.012-0.144 0.022-0.289 0.022-0.436v-1.888h-2.034v2.324z"></path>
<path fill="#ff4b55" d="M12.949 21.096v-1.3h-1.216c0.326 0.503 0.738 0.941 1.216 1.3z"></path>
<path fill="#ff4b55" d="M20.266 19.795h-1.215v1.3c0.477-0.359 0.89-0.798 1.215-1.3z"></path>
<path fill="#f5f5f5" d="M12.949 21.096c0.592 0.445 1.281 0.769 2.034 0.922v-2.222h-2.034v1.3z"></path>
<path fill="#f5f5f5" d="M17.017 22.017c0.753-0.153 1.442-0.476 2.034-0.922v-1.3h-2.034v2.222z"></path>
<path fill="#ff4b55" d="M17.017 19.795h-2.034v2.222c0.329 0.067 0.669 0.102 1.017 0.102s0.688-0.035 1.017-0.102v-2.222z"></path>
<path fill="#4173cd" d="M12.32 6.653c-0.442-0.068-0.895-0.118-1.357-0.146-0.357 0.294-0.697 0.6-1.020 0.917 0.324 0.783 0.649 1.566 0.973 2.349 0.651-0.27 1.318-0.485 1.995-0.647-0.197-0.824-0.394-1.648-0.591-2.472z"></path>
<path fill="#4173cd" d="M17.234 6.267c-0.398-0.201-0.809-0.387-1.234-0.557-0.425 0.17-0.837 0.355-1.234 0.557 0.066 0.845 0.132 1.689 0.198 2.534 0.69-0.054 1.383-0.054 2.072 0 0.066-0.845 0.132-1.689 0.198-2.534z"></path>
<path fill="#4173cd" d="M22.057 7.424c-0.323-0.317-0.663-0.623-1.020-0.917-0.461 0.029-0.914 0.078-1.357 0.146-0.197 0.824-0.394 1.648-0.591 2.472 0.677 0.162 1.344 0.378 1.995 0.647 0.324-0.783 0.648-1.566 0.973-2.349z"></path>
<path fill="#41479b" d="M14.765 6.267c-0.424-0.137-0.86-0.257-1.308-0.358-0.395 0.234-0.774 0.482-1.138 0.743 0.197 0.824 0.394 1.648 0.591 2.472 0.677-0.162 1.363-0.27 2.053-0.324-0.066-0.845-0.132-1.689-0.198-2.534z"></path>
<path fill="#41479b" d="M19.68 6.653c-0.364-0.261-0.743-0.51-1.138-0.743-0.447 0.101-0.884 0.221-1.308 0.358-0.066 0.845-0.132 1.689-0.198 2.534 0.69 0.054 1.376 0.162 2.053 0.324 0.197-0.824 0.394-1.648 0.591-2.472z"></path>
<path fill="#ff4b55" d="M14.845 7.281c-0.769 0.060-1.534 0.18-2.289 0.361-0.039-0.165-0.079-0.33-0.118-0.495 0.78-0.186 1.572-0.311 2.367-0.373 0.013 0.169 0.027 0.338 0.040 0.507z"></path>
<path fill="#ff4b55" d="M14.924 8.295c-0.716 0.056-1.429 0.168-2.131 0.336-0.039-0.165-0.079-0.33-0.118-0.495 0.729-0.174 1.468-0.29 2.21-0.348 0.013 0.169 0.026 0.338 0.040 0.507z"></path>
<path fill="#ffe15a" d="M18.413 8.465c-0.177-0.032-0.355-0.059-0.533-0.084-0.293-0.040-0.511-0.289-0.486-0.569v0c0.025-0.279 0.306-0.482 0.624-0.438 0.191 0.026 0.382 0.056 0.573 0.090 0.317 0.056 0.523 0.336 0.461 0.609v0c-0.062 0.274-0.347 0.443-0.639 0.392z"></path>
<path fill="#ff4b55" d="M21.278 9.303c-0.676-0.28-1.369-0.504-2.071-0.672 0.039-0.165 0.079-0.33 0.118-0.495 0.729 0.174 1.447 0.406 2.148 0.697-0.065 0.157-0.13 0.313-0.195 0.47z"></path>
<path fill="#ffe15a" d="M21.097 7.777c-0.072 0.198-0.314 0.292-0.543 0.218s-0.369-0.292-0.311-0.495 0.303-0.31 0.546-0.231c0.243 0.079 0.38 0.31 0.308 0.508z"></path>
<path fill="#ffe15a" d="M11.757 7.501c0.058 0.203-0.082 0.42-0.311 0.495s-0.471-0.020-0.543-0.218c-0.072-0.198 0.065-0.429 0.308-0.508s0.488 0.029 0.546 0.231z"></path>
<path fill="#ffe15a" d="M15.884 7.168c0 0.168-0.151 0.306-0.338 0.311s-0.347-0.122-0.357-0.29c-0.010-0.168 0.141-0.313 0.338-0.319s0.357 0.129 0.357 0.298z"></path>
<path fill="#ffe15a" d="M16.812 7.189c-0.010 0.168-0.17 0.296-0.357 0.29s-0.339-0.143-0.338-0.311c0.001-0.168 0.161-0.304 0.358-0.298s0.348 0.151 0.338 0.319z"></path>
<path fill="#ffe15a" d="M16.33 7.952c-0.005 0.168-0.152 0.301-0.33 0.301s-0.325-0.132-0.33-0.301c-0.005-0.168 0.143-0.309 0.33-0.309s0.334 0.141 0.33 0.309z"></path>
</svg>
