<!-- Generated by IcoMoon.io -->
<svg version="1.1" xmlns="http://www.w3.org/2000/svg" width="32" height="32" viewBox="0 0 32 32">
<title>cuba</title>
<path fill="#f5f5f5" d="M30.153 22.895l-0-2.651-0-1.698-0.001-5.093-0-1.698-0-2.655c0-0.194-0.026-0.384-0.075-0.567-0.026-0.098-0.059-0.194-0.099-0.287-0.16-0.381-0.426-0.714-0.773-0.955-0.051-0.035-0.103-0.069-0.157-0.101l-11.947-6.895c-0.682-0.394-1.523-0.394-2.205 0l-11.945 6.899c-0.053 0.030-0.103 0.063-0.152 0.098-0.212 0.147-0.393 0.328-0.54 0.534-0.098 0.138-0.18 0.287-0.244 0.443-0.107 0.261-0.166 0.544-0.166 0.836l0 2.651 0 1.698 0.001 5.092v0.001l0 1.697 0 2.655v0c0 0.725 0.357 1.399 0.946 1.809 0.051 0.035 0.103 0.069 0.157 0.101l11.948 6.895c0.682 0.394 1.523 0.394 2.205-0l11.945-6.899c0.053-0.030 0.103-0.063 0.152-0.098 0.591-0.41 0.95-1.085 0.95-1.813v0 0z"></path>
<path fill="#41479b" d="M29.204 7.291c-0.051-0.035-0.103-0.069-0.157-0.101l-11.947-6.895c-0.682-0.394-1.523-0.394-2.205 0l-10.267 5.93 0.438 1.652 1.628-0.106h23.009c-0.138-0.183-0.305-0.346-0.498-0.48z"></path>
<path fill="#41479b" d="M6.693 24.228l-1.55 0.129-0.517 1.418 10.274 5.929c0.682 0.394 1.523 0.394 2.205-0l11.945-6.899c0.053-0.030 0.103-0.063 0.152-0.098 0.193-0.134 0.361-0.296 0.5-0.479l-23.010-0z"></path>
<path fill="#41479b" d="M14.022 18.743h16.13l-0-0.196-0.001-5.093-0-0.196h-16.129z"></path>
<path fill="#ff4b55" d="M17.264 15.683l-12.636-9.458-1.678 0.969c-0.053 0.030-0.103 0.063-0.152 0.098-0.193 0.133-0.359 0.297-0.497 0.479-0.014 0.018-0.029 0.036-0.042 0.054-0.098 0.138-0.18 0.287-0.244 0.443-0.107 0.261-0.166 0.544-0.166 0.836l0 2.651 0 1.502v0.196l0.001 5.092v0.197l0 1.502 0 2.655v0c0 0.488 0.162 0.952 0.447 1.329 0.139 0.183 0.306 0.346 0.499 0.48 0.051 0.035 0.103 0.069 0.157 0.101l1.674 0.966 12.638-9.459c0.197-0.147 0.197-0.486 0-0.633z"></path>
<path fill="#f5f5f5" d="M7.467 12.988l0.642 1.924 2.028 0.016c0.157 0.001 0.222 0.202 0.096 0.295l-1.631 1.204 0.612 1.933c0.047 0.15-0.123 0.274-0.251 0.182l-1.65-1.179-1.65 1.179c-0.128 0.091-0.298-0.033-0.251-0.182l0.612-1.933-1.631-1.204c-0.126-0.093-0.061-0.294 0.096-0.295l2.028-0.016 0.642-1.924c0.050-0.149 0.26-0.149 0.31 0z"></path>
</svg>
