<!-- Generated by IcoMoon.io -->
<svg version="1.1" xmlns="http://www.w3.org/2000/svg" width="32" height="32" viewBox="0 0 32 32">
<title>curacao</title>
<path fill="#41479b" d="M1.898 23.357c0.116 0.545 0.434 1.030 0.897 1.352 0.051 0.035 0.103 0.069 0.157 0.101l11.948 6.895c0.682 0.394 1.523 0.394 2.205-0l11.945-6.899c0.053-0.030 0.103-0.063 0.152-0.098 0.423-0.293 0.726-0.723 0.865-1.209l-14.068-1.172-14.067 1.172c-0.013-0.047-0.025-0.094-0.035-0.141z"></path>
<path fill="#41479b" d="M30.153 20.374v-0.13l-0-1.698-0.001-5.093-0-1.698-0-2.655c-0-0.725-0.357-1.399-0.946-1.809-0.051-0.035-0.103-0.069-0.157-0.101l-11.948-6.895c-0.682-0.394-1.523-0.394-2.205 0l-11.945 6.899c-0.053 0.030-0.103 0.063-0.152 0.098-0.592 0.41-0.95 1.085-0.95 1.813l0 2.651 0 1.698 0.001 5.093 0 1.698v0.13l14.073 1.171 14.231-1.171z"></path>
<path fill="#ffe15a" d="M30.103 23.356c0.001-0.003 0.001-0.006 0.002-0.009 0.009-0.044 0.017-0.087 0.023-0.132 0.001-0.007 0.002-0.014 0.003-0.021 0.006-0.040 0.010-0.081 0.013-0.122 0.001-0.010 0.002-0.019 0.003-0.029 0.003-0.049 0.005-0.099 0.005-0.148l-0-2.521h-28.304l0 2.526c0 0.049 0.002 0.099 0.005 0.147 0.001 0.009 0.002 0.019 0.003 0.028 0.003 0.041 0.007 0.082 0.013 0.122 0.001 0.007 0.002 0.013 0.003 0.020 0.007 0.044 0.014 0.088 0.023 0.132 0.001 0.003 0.001 0.005 0.002 0.008 0.010 0.048 0.022 0.095 0.035 0.141h28.135c0 0 0 0 0-0 0.013-0.047 0.025-0.094 0.035-0.142z"></path>
<path fill="#f5f5f5" d="M10.069 11.939l-0.615 1.843-1.942 0.015c-0.186 0.002-0.263 0.239-0.114 0.35l1.563 1.154-0.586 1.852c-0.056 0.178 0.146 0.325 0.298 0.216l1.58-1.13 1.58 1.13c0.152 0.108 0.354-0.039 0.298-0.216l-0.586-1.852 1.563-1.154c0.15-0.111 0.073-0.348-0.114-0.35l-1.942-0.015-0.615-1.843c-0.059-0.177-0.309-0.177-0.368 0z"></path>
<path fill="#f5f5f5" d="M5.642 8.538l-0.356 1.067-1.124 0.009c-0.108 0.001-0.153 0.138-0.066 0.202l0.904 0.668-0.339 1.072c-0.032 0.103 0.085 0.188 0.172 0.125l0.915-0.654 0.915 0.654c0.088 0.063 0.205-0.022 0.172-0.125l-0.339-1.072 0.904-0.668c0.087-0.064 0.042-0.202-0.066-0.202l-1.124-0.009-0.356-1.067c-0.034-0.102-0.179-0.102-0.213 0z"></path>
</svg>
