<!-- Generated by IcoMoon.io -->
<svg version="1.1" xmlns="http://www.w3.org/2000/svg" width="32" height="32" viewBox="0 0 32 32">
<title>czech-republic</title>
<path fill="#f5f5f5" d="M30.152 16.039l-0.001-6.939c-0-0.788-0.421-1.516-1.103-1.91l-11.948-6.895c-0.682-0.394-1.523-0.394-2.205 0l-11.945 6.899c-0.682 0.394-1.103 1.122-1.102 1.91l0.002 13.795c0 0.788 0.421 1.516 1.103 1.91l11.948 6.895c0.682 0.394 1.523 0.394 2.205-0l11.945-6.899c0.682-0.394 1.102-1.122 1.102-1.91l-0.001-6.856z"></path>
<path fill="#ff4b55" d="M30.152 16.039h-14.152l-5.545 4.647-4.047 6.118 8.492 4.901c0.682 0.394 1.523 0.394 2.205-0l11.945-6.899c0.682-0.394 1.102-1.122 1.102-1.91l-0.001-6.856z"></path>
<path fill="#41479b" d="M6.363 5.223l-3.413 1.971c-0.682 0.394-1.103 1.122-1.102 1.91l0.002 13.795c0 0.788 0.421 1.516 1.103 1.91l3.456 1.994 9.592-10.765-9.637-10.816z"></path>
</svg>
