<!-- Generated by IcoMoon.io -->
<svg version="1.1" xmlns="http://www.w3.org/2000/svg" width="32" height="32" viewBox="0 0 32 32">
<title>democratic-republic-of-congo</title>
<path fill="#ffe15a" d="M30.152 18.547l-0.001-5.093-0-1.698-0-2.655c-0-0.725-0.357-1.399-0.946-1.809-0.051-0.035-0.103-0.069-0.157-0.101l-11.948-6.895c-0.682-0.394-1.523-0.394-2.205 0l-11.945 6.899c-0.053 0.030-0.103 0.063-0.152 0.098-0.592 0.41-0.95 1.085-0.95 1.813l0 2.651 0 1.698 0.001 5.093 0 1.698 0 2.655c0 0.725 0.357 1.399 0.946 1.809 0.051 0.035 0.103 0.069 0.157 0.101l11.948 6.895c0.682 0.394 1.523 0.394 2.205-0l11.945-6.899c0.053-0.030 0.103-0.063 0.152-0.098 0.592-0.41 0.95-1.085 0.95-1.813l-0-2.651-0-1.698z"></path>
<path fill="#82afff" d="M30.152 20.244l-0-1.698-0.001-5.093-0-1.024-25.656 13.27 10.405 6.005c0.682 0.394 1.523 0.394 2.205-0l11.945-6.899c0.053-0.030 0.103-0.063 0.152-0.098 0.592-0.41 0.95-1.085 0.95-1.813l-0.001-2.651z"></path>
<path fill="#82afff" d="M27.505 6.3l-10.405-6.005c-0.682-0.394-1.523-0.394-2.205 0l-11.945 6.899c-0.053 0.030-0.103 0.063-0.152 0.098-0.592 0.41-0.95 1.085-0.95 1.813l0 2.651 0 1.698 0.001 5.093 0 1.024 25.656-13.27z"></path>
<path fill="#ff4b55" d="M30.151 11.18l-0-2.079c-0-0.725-0.357-1.399-0.946-1.809-0.051-0.035-0.103-0.069-0.157-0.101l-0.401-0.231-26.798 13.861 0 2.079c0 0.725 0.357 1.399 0.946 1.809 0.051 0.035 0.103 0.069 0.157 0.101l0.401 0.231 26.798-13.861z"></path>
<path fill="#ffe15a" d="M7.834 6.577l0.84 2.518 2.654 0.021c0.148 0.001 0.21 0.191 0.091 0.279l-2.135 1.577 0.801 2.531c0.045 0.142-0.116 0.258-0.237 0.172l-2.159-1.543-2.159 1.543c-0.121 0.086-0.282-0.031-0.237-0.172l0.801-2.531-2.135-1.577c-0.119-0.088-0.058-0.278 0.091-0.279l2.654-0.021 0.84-2.518c0.047-0.141 0.246-0.141 0.293-0z"></path>
</svg>
