<svg xmlns="http://www.w3.org/2000/svg" width="32" height="32" version="1.1" viewBox="0 0 32 32"><title>denmark</title><path fill="#f5f5f5" d="M1.849 22.9l-0.002-13.795c-0-0.788 0.42-1.516 1.102-1.91l11.945-6.899c0.682-0.394 1.523-0.394 2.205-0l11.948 6.895c0.682 0.394 1.103 1.122 1.103 1.91l0.002 13.795c0 0.788-0.42 1.516-1.102 1.91l-11.945 6.899c-0.682 0.394-1.523 0.394-2.205 0l-11.947-6.895c-0.683-0.394-1.103-1.122-1.103-1.91z"/><path fill="#ff4b55" d="M30.152 14.126l-0.001-5.025c-0-0.788-0.421-1.516-1.103-1.91l-11.948-6.895c-0.682-0.394-1.523-0.394-2.205 0l-1.352 0.781v13.049l16.609-0z"/><path fill="#ff4b55" d="M10.593 2.78l-7.644 4.415c-0.682 0.394-1.103 1.122-1.102 1.91l0.001 5.020h8.746v-11.345z"/><path fill="#ff4b55" d="M30.152 17.874h-16.61v13.047l1.357 0.783c0.682 0.394 1.523 0.394 2.205-0l11.945-6.899c0.682-0.394 1.102-1.122 1.102-1.91l-0.001-5.020z"/><path fill="#ff4b55" d="M1.848 17.874l0.001 5.025c0 0.788 0.421 1.516 1.103 1.91l7.641 4.41v-11.345h-8.745z"/></svg>