<svg xmlns="http://www.w3.org/2000/svg" width="32" height="32" version="1.1" viewBox="0 0 32 32"><title>djibouti</title><path fill="#f5f5f5" d="M30.152 18.546l-0.001-5.093-0-1.698-0-2.655c-0-0.725-0.357-1.399-0.946-1.809-0.051-0.035-0.103-0.069-0.157-0.101l-11.947-6.895c-0.682-0.394-1.523-0.394-2.205 0l-11.945 6.899c-0.053 0.030-0.103 0.063-0.152 0.098-0.592 0.41-0.95 1.085-0.95 1.813l0 2.651 0 1.698 0.001 5.093 0 1.698 0 2.655c0 0.725 0.357 1.399 0.946 1.809 0.051 0.035 0.103 0.069 0.157 0.101l11.948 6.895c0.682 0.394 1.523 0.394 2.205-0l11.945-6.899c0.053-0.030 0.103-0.063 0.152-0.098 0.592-0.41 0.95-1.085 0.95-1.813l-0-2.651-0-1.698z"/><path fill="#73af00" d="M6.939 27.11l7.961 4.595c0.682 0.394 1.523 0.394 2.205-0l11.945-6.899c0.053-0.030 0.103-0.063 0.152-0.098 0.592-0.41 0.95-1.085 0.95-1.813l-0-2.651-0-1.698-0-2.547-5.717-0.938-5.545 0.938-11.951 11.11z"/><path fill="#82afff" d="M30.152 16l-0-2.547-0-1.698-0-2.655c-0-0.725-0.357-1.399-0.946-1.809-0.051-0.035-0.103-0.069-0.157-0.101l-11.948-6.895c-0.682-0.394-1.523-0.394-2.205 0l-7.955 4.595 11.95 11.109h11.262z"/><path fill="#ff4b55" d="M7.812 13.178l-0.633 1.897-2 0.016c-0.11 0.001-0.155 0.141-0.067 0.206l1.609 1.188-0.603 1.907c-0.033 0.105 0.086 0.191 0.175 0.127l1.627-1.163 1.627 1.163c0.089 0.064 0.208-0.023 0.175-0.127l-0.603-1.907 1.609-1.188c0.088-0.065 0.043-0.205-0.067-0.206l-2-0.016-0.633-1.897c-0.035-0.104-0.182-0.104-0.216 0z"/></svg>