<!-- Generated by IcoMoon.io -->
<svg version="1.1" xmlns="http://www.w3.org/2000/svg" width="32" height="32" viewBox="0 0 32 32">
<title>dominica</title>
<path fill="#f5f5f5" d="M30.153 22.895l-0-2.651-0-1.698-0.001-5.093-0-1.698-0-2.655c0-0.194-0.026-0.384-0.075-0.567-0.026-0.098-0.059-0.194-0.099-0.287-0.16-0.381-0.426-0.714-0.773-0.955-0.051-0.035-0.103-0.069-0.157-0.101l-11.947-6.895c-0.682-0.394-1.523-0.394-2.205 0l-11.945 6.899c-0.053 0.030-0.103 0.063-0.152 0.098-0.212 0.147-0.393 0.328-0.54 0.534-0.098 0.138-0.18 0.287-0.244 0.443-0.107 0.261-0.166 0.544-0.166 0.836l0 2.651 0 1.698 0.001 5.092v0.001l0 1.697 0 2.655v0c0 0.725 0.357 1.399 0.946 1.809 0.051 0.035 0.103 0.069 0.157 0.101l11.948 6.895c0.682 0.394 1.523 0.394 2.205-0l11.945-6.899c0.053-0.030 0.103-0.063 0.152-0.098 0.591-0.41 0.95-1.085 0.95-1.813v0 0z"></path>
<path fill="#73af00" d="M18.499 13.501h11.652v-0.047l-0-1.698-0-2.655c0-0.194-0.026-0.384-0.075-0.567-0.026-0.098-0.059-0.194-0.099-0.287-0.16-0.381-0.426-0.714-0.773-0.955-0.051-0.035-0.103-0.069-0.157-0.101l-10.548-6.088 0 12.398z"></path>
<path fill="#73af00" d="M1.848 13.501h11.653v-12.4l-10.551 6.094c-0.053 0.030-0.103 0.063-0.152 0.098-0.212 0.147-0.393 0.328-0.54 0.534-0.098 0.138-0.18 0.287-0.244 0.443-0.107 0.261-0.166 0.544-0.166 0.836l0 2.651 0 1.698v0.047z"></path>
<path fill="#73af00" d="M30.153 20.244l-0-1.698v-0.047h-11.653v12.4l10.551-6.094c0.053-0.030 0.103-0.063 0.152-0.098 0.592-0.41 0.95-1.085 0.95-1.813l-0-2.65z"></path>
<path fill="#73af00" d="M13.501 18.499h-11.652v0.048l0 1.697 0 2.655v0c0 0.725 0.357 1.399 0.946 1.809 0.051 0.035 0.103 0.069 0.157 0.101l10.548 6.088v-12.398h-0z"></path>
<path fill="#ffe15a" d="M18.499 13.501h11.652v1.666h-11.652v-1.666z"></path>
<path fill="#f5f5f5" d="M1.849 16.833h11.652v1.666h-11.652v-1.666z"></path>
<path fill="#ffe15a" d="M14.895 0.296l-1.394 0.805v12.4h-11.653l0 1.666h13.319v-15.004c-0.093 0.038-0.184 0.082-0.272 0.133z"></path>
<path fill="#ffe15a" d="M13.501 16.833v14.064l1.399 0.808c0.087 0.050 0.176 0.093 0.267 0.131v-15.002h-1.666z"></path>
<path fill="#f5f5f5" d="M17.875 0.742l-0.774-0.447c-0.087-0.050-0.176-0.093-0.267-0.131v15.002h1.666v-14.064l-0.625-0.361z"></path>
<path fill="#464655" d="M30.152 15.167h-13.319v-15.002c-0.534-0.218-1.132-0.219-1.666-0.002v15.004h-13.319l0 1.666h13.319v15.002c0.534 0.218 1.132 0.219 1.666 0.002v-15.004h13.319l-0-1.666z"></path>
<path fill="#f5f5f5" d="M30.152 16.833h-13.319v15.004c0.093-0.038 0.184-0.082 0.272-0.133l1.394-0.805v-12.4h11.653l-0-1.666z"></path>
<path fill="#ff4b55" d="M22.248 16c0 3.451-2.797 6.248-6.248 6.248s-6.248-2.797-6.248-6.248c0-3.451 2.797-6.248 6.248-6.248s6.248 2.797 6.248 6.248z"></path>
<path fill="#73af00" d="M15.464 17.075c0 0-0.073 0.511 0.423 1.27h0.963l-0.219-0.919-1.168-0.35z"></path>
<path fill="#a561cd" d="M15.396 13.655c0 0-1.576 2.578 0.739 4.115l0.243-1.459 0.156-1.887-0.243-0.807-0.895 0.039z"></path>
<path fill="#73af00" d="M15.396 13.655c0 0-0.18 0.3-0.329 0.751 0.203 0.212 0.757 0.475 1.439 0.36l0.028-0.342-0.243-0.807-0.895 0.039z"></path>
<path fill="#a561cd" d="M15.094 13.285c0 0 0.019-0.516 0.525-0.516 0.632 0 1.148 0.146 1.965 1.839 0 0-0.727 0.713-1.187-0.272-0.136-0.292-0.185-0.642-0.185-0.642s-0.564 0.195-0.953-0.029l-0.165-0.38z"></path>
<path fill="#ffe15a" d="M15.347 13.528l-0.117-0.311c0 0-0.652-0.107-0.379 0.681 0 0 0.019-0.156 0.185-0.136s0.341-0.107 0.311-0.234z"></path>
<path fill="#73af00" d="M16.436 16.486c0 0-0.686 0.537-0.302 1.8 0.204 0.671 1.021 1.408 1.021 1.408s0.606-1.583 0.409-2.196c-0.116-0.361-1.129-1.012-1.129-1.012z"></path>
<path fill="#73af00" d="M17.74 18.52c0 0-1.771-1.688-1.887-3.016s0.649-1.117 0.788-1.031c0.331 0.204 1.167 1.060 1.099 4.047z"></path>
<path fill="#b34900" d="M17.52 18.906h-2.932c-0.061 0-0.11-0.049-0.11-0.11v-0.217c0-0.061 0.049-0.11 0.11-0.11h2.932c0.061 0 0.11 0.049 0.11 0.11v0.217c0 0.061-0.049 0.11-0.11 0.11z"></path>
<path fill="#ffe15a" d="M16.806 18.49c-0.102 0.043-0.306 0.095-0.255 0.277 0.039 0.14 0.306 0.124 0.255 0.285-0.035 0.108-0.578 0.119-0.788 0.088-0.129-0.019-0.409-0.095-0.37-0.416s0.156-0.37 0.302-0.428c0.145-0.057 0.778-0.044 0.871 0.034 0.047 0.040 0.063 0.128-0.015 0.16z"></path>
<path fill="#73af00" d="M16.058 10.418l0.142 0.426 0.45 0.004c0.058 0 0.082 0.075 0.036 0.109l-0.362 0.267 0.136 0.429c0.018 0.055-0.046 0.101-0.093 0.068l-0.366-0.261-0.366 0.261c-0.047 0.034-0.111-0.012-0.093-0.068l0.136-0.429-0.362-0.267c-0.047-0.035-0.023-0.109 0.036-0.109l0.45-0.004 0.142-0.426c0.018-0.055 0.096-0.055 0.115 0z"></path>
<path fill="#73af00" d="M16.058 20.388l0.142 0.426 0.45 0.003c0.058 0 0.082 0.075 0.036 0.109l-0.362 0.267 0.136 0.429c0.018 0.055-0.046 0.101-0.093 0.068l-0.366-0.261-0.366 0.261c-0.047 0.034-0.111-0.012-0.093-0.068l0.136-0.429-0.362-0.267c-0.047-0.035-0.023-0.109 0.036-0.109l0.45-0.003 0.142-0.426c0.018-0.055 0.096-0.055 0.115 0z"></path>
<path fill="#73af00" d="M12.584 11.441l0.125 0.432-0.368 0.258c-0.048 0.033-0.025 0.108 0.033 0.11l0.449 0.015 0.131 0.43c0.017 0.056 0.095 0.058 0.115 0.003l0.153-0.423 0.45 0.008c0.058 0.001 0.084-0.073 0.038-0.108l-0.355-0.276 0.146-0.425c0.019-0.055-0.043-0.103-0.091-0.070l-0.372 0.252-0.359-0.271c-0.046-0.035-0.111 0.009-0.095 0.065z"></path>
<path fill="#73af00" d="M18.236 19.654l0.125 0.432-0.368 0.258c-0.048 0.033-0.025 0.108 0.033 0.11l0.449 0.015 0.131 0.43c0.017 0.056 0.095 0.058 0.115 0.003l0.153-0.423 0.45 0.008c0.058 0.001 0.084-0.073 0.038-0.108l-0.355-0.276 0.146-0.425c0.019-0.055-0.043-0.103-0.091-0.070l-0.372 0.252-0.359-0.271c-0.047-0.035-0.111 0.009-0.095 0.065z"></path>
<path fill="#73af00" d="M10.471 14.303l0.359 0.271-0.14 0.427c-0.018 0.055 0.045 0.102 0.092 0.069l0.368-0.258 0.363 0.265c0.047 0.034 0.111-0.011 0.094-0.067l-0.131-0.43 0.364-0.263c0.047-0.034 0.024-0.109-0.034-0.11l-0.45-0.008-0.138-0.428c-0.018-0.055-0.096-0.056-0.115-0.001l-0.146 0.425-0.45-0.001c-0.058 0-0.083 0.074-0.037 0.109z"></path>
<path fill="#73af00" d="M19.921 17.479l0.359 0.271-0.14 0.427c-0.018 0.055 0.045 0.102 0.092 0.069l0.368-0.258 0.363 0.265c0.047 0.034 0.111-0.011 0.094-0.067l-0.131-0.43 0.364-0.263c0.047-0.034 0.024-0.109-0.034-0.11l-0.449-0.008-0.138-0.428c-0.018-0.055-0.096-0.056-0.115-0.001l-0.146 0.425-0.45-0.001c-0.058 0-0.083 0.074-0.037 0.109z"></path>
<path fill="#73af00" d="M19.179 11.441l-0.125 0.432 0.368 0.258c0.048 0.033 0.025 0.108-0.033 0.11l-0.449 0.015-0.131 0.43c-0.017 0.056-0.095 0.058-0.115 0.003l-0.153-0.423-0.45 0.008c-0.058 0.001-0.084-0.073-0.038-0.108l0.355-0.276-0.146-0.425c-0.019-0.055 0.043-0.103 0.091-0.070l0.372 0.252 0.359-0.271c0.046-0.035 0.111 0.009 0.095 0.065z"></path>
<path fill="#73af00" d="M13.527 19.654l-0.125 0.432 0.368 0.258c0.048 0.033 0.025 0.108-0.033 0.11l-0.449 0.015-0.131 0.43c-0.017 0.056-0.095 0.058-0.115 0.003l-0.153-0.423-0.45 0.008c-0.058 0.001-0.084-0.073-0.038-0.108l0.355-0.276-0.146-0.425c-0.019-0.055 0.043-0.103 0.091-0.070l0.372 0.252 0.359-0.271c0.046-0.035 0.111 0.009 0.095 0.065z"></path>
<path fill="#73af00" d="M21.292 14.303l-0.359 0.271 0.14 0.427c0.018 0.055-0.045 0.102-0.092 0.069l-0.368-0.258-0.363 0.265c-0.047 0.034-0.111-0.011-0.094-0.067l0.131-0.43-0.364-0.263c-0.047-0.034-0.024-0.109 0.034-0.11l0.45-0.008 0.138-0.428c0.018-0.055 0.096-0.056 0.115-0.001l0.146 0.425 0.45-0.001c0.058 0 0.083 0.074 0.037 0.109z"></path>
<path fill="#73af00" d="M11.841 17.479l-0.359 0.271 0.14 0.427c0.018 0.055-0.045 0.102-0.092 0.069l-0.368-0.258-0.363 0.265c-0.047 0.034-0.111-0.011-0.094-0.067l0.131-0.43-0.364-0.263c-0.047-0.034-0.024-0.109 0.034-0.11l0.45-0.008 0.138-0.428c0.018-0.055 0.096-0.056 0.115-0.001l0.146 0.425 0.45-0.001c0.058 0 0.083 0.074 0.037 0.109z"></path>
</svg>
