<!-- Generated by IcoMoon.io -->
<svg version="1.1" xmlns="http://www.w3.org/2000/svg" width="32" height="32" viewBox="0 0 32 32">
<title>dominican-republic</title>
<path fill="#f5f5f5" d="M1.849 22.9l-0.002-13.795c-0-0.788 0.42-1.516 1.102-1.91l11.945-6.899c0.682-0.394 1.523-0.394 2.205-0l11.948 6.895c0.683 0.394 1.103 1.122 1.103 1.91l0.002 13.795c0 0.788-0.42 1.516-1.102 1.91l-11.945 6.899c-0.682 0.394-1.523 0.394-2.205 0l-11.947-6.895c-0.683-0.394-1.103-1.122-1.103-1.91z"></path>
<path fill="#41479b" d="M13.501 12.004v-10.904l-10.551 6.094c-0.682 0.394-1.103 1.122-1.102 1.91l0.001 3.524h11.028c0.345-0 0.625-0.28 0.625-0.625z"></path>
<path fill="#41479b" d="M18.499 19.996v10.904l10.551-6.094c0.682-0.394 1.102-1.122 1.102-1.91l-0.001-3.524h-11.028c-0.345 0-0.625 0.28-0.625 0.625z"></path>
<path fill="#ff4b55" d="M19.124 12.629h11.027l-0.001-3.529c-0-0.788-0.421-1.516-1.103-1.91l-10.548-6.088v10.902c0 0.345 0.28 0.625 0.625 0.625z"></path>
<path fill="#ff4b55" d="M12.876 19.371h-11.027l0.001 3.529c0 0.788 0.421 1.516 1.103 1.91l10.548 6.088v-10.902c0-0.345-0.28-0.625-0.625-0.625z"></path>
<path fill="#64b496" d="M15.597 18.018c0 0 0.42 0.154 0.365 0.681l0.17-0.003c0 0-0.107-0.609-0.196-0.682s-0.339 0.004-0.339 0.004z"></path>
<path fill="#64b496" d="M16.018 17.936c-0.178 0-0.489-0-0.817-0.089 0.073-0.076 0.174-0.229 0.174-0.496 0-0.418-0.288-0.151-0.288-0.151s-0.189 0.159-0.075 0.585c-0.112-0.043-0.222-0.098-0.328-0.168 0.066-0.082 0.197-0.275 0.273-0.579 0 0-0.48-0.095-0.611 0.266-0.080-0.102-0.149-0.217-0.207-0.344 0.123 0.002 0.295-0.080 0.295-0.549 0 0-0.313 0-0.397 0.272-0.033-0.114-0.058-0.235-0.076-0.364 0.125 0.036 0.448 0.062 0.448-0.639 0 0-0.388 0.001-0.478 0.345-0.005-0.088-0.007-0.179-0.006-0.273 0.188-0.098 0.449-0.316 0.421-0.761 0 0-0.179 0.041-0.343 0.178 0.032-0.169 0.019-0.416-0.24-0.622 0 0-0.238 0.421 0.11 0.763-0.030 0.043-0.057 0.091-0.078 0.145-0.078-0.119-0.203-0.229-0.405-0.297 0 0-0.093 0.564 0.434 0.8 0.012 0.329 0.064 0.62 0.153 0.873-0.151-0.133-0.273-0.316-0.273-0.316 0-0.627-0.514-0.642-0.514-0.642-0.096 0.715 0.433 0.744 0.433 0.744l0.29 0.316c-0.627-0.104-0.627 0.418-0.627 0.418 0.418 0.104 0.627-0.104 0.627-0.104l0.226 0.116c-0.401 0.012-0.539 0.406-0.539 0.406 0.504 0.084 0.872-0.034 0.997-0.084 0.507 0.355 1.132 0.355 1.421 0.355v-0.104l0 0z"></path>
<path fill="#64b496" d="M15.982 17.936c0.178 0 0.489-0 0.817-0.089-0.073-0.076-0.174-0.229-0.174-0.496 0-0.418 0.288-0.151 0.288-0.151s0.189 0.159 0.075 0.585c0.112-0.043 0.222-0.098 0.328-0.168-0.066-0.082-0.197-0.275-0.273-0.579 0 0 0.48-0.095 0.611 0.266 0.080-0.102 0.149-0.217 0.207-0.344-0.123 0.002-0.295-0.080-0.295-0.549 0 0 0.313 0 0.397 0.272 0.033-0.114 0.058-0.235 0.076-0.364-0.125 0.036-0.448 0.062-0.448-0.639 0 0 0.388 0.001 0.478 0.345 0.005-0.088 0.007-0.179 0.006-0.273-0.188-0.098-0.449-0.316-0.422-0.761 0 0 0.179 0.041 0.343 0.178-0.032-0.169-0.019-0.416 0.24-0.622 0 0 0.238 0.421-0.11 0.763 0.030 0.043 0.057 0.091 0.078 0.145 0.078-0.119 0.203-0.229 0.405-0.297 0 0 0.093 0.564-0.434 0.8-0.012 0.329-0.064 0.62-0.153 0.873 0.151-0.133 0.273-0.316 0.273-0.316 0-0.627 0.514-0.642 0.514-0.642 0.096 0.715-0.433 0.744-0.433 0.744l-0.29 0.316c0.627-0.104 0.627 0.418 0.627 0.418-0.418 0.104-0.627-0.104-0.627-0.104l-0.226 0.116c0.401 0.012 0.539 0.406 0.539 0.406-0.504 0.084-0.872-0.034-0.997-0.084-0.507 0.355-1.132 0.355-1.421 0.355v-0.104l0 0z"></path>
<path fill="#41479b" d="M14.238 13.384c-0.367 0.235-0.691 0.535-0.952 0.889 0.112 0.083 0.224 0.165 0.336 0.248 0.23-0.312 0.516-0.577 0.84-0.785l-0.224-0.352z"></path>
<path fill="#ff6b71" d="M16.001 16.099h1.462v0.835c0 0.231-0.187 0.418-0.418 0.418h-0.627c-0.172 0-0.323 0.084-0.418 0.212v-1.465z"></path>
<path fill="#5f64b9" d="M16.315 15.159v-1.149h1.566l-0.418 0.418v1.149h-1.149z"></path>
<path fill="#f5f5f5" d="M16.941 15.577h0.522v0.522h-0.522v-0.522z"></path>
<path fill="#ff6b71" d="M16.001 16.099h-1.462v0.835c0 0.231 0.187 0.418 0.418 0.418h0.627c0.172 0 0.323 0.084 0.418 0.212v-1.465z"></path>
<path fill="#f5f5f5" d="M15.74 17.377c0.104 0.033 0.194 0.098 0.259 0.184h0.005c0.065-0.085 0.155-0.15 0.259-0.184v-0.861h-0.522v0.861z"></path>
<path fill="#5f64b9" d="M15.688 15.159v-1.149h-1.566l0.418 0.418v1.149h1.149z"></path>
<path fill="#f5f5f5" d="M14.539 15.577h0.522v0.522h-0.522v-0.522z"></path>
<path fill="#41479b" d="M15.061 14.533v0.313l0.313 0.209v-0.209z"></path>
<path fill="#f5f5f5" d="M15.375 14.846v0.313l0.418 0.209v-0.104z"></path>
<path fill="#41479b" d="M16.941 14.533v0.313l-0.313 0.209v-0.209z"></path>
<path fill="#f5f5f5" d="M16.628 14.846v0.313l-0.418 0.209v-0.104z"></path>
<path fill="#ff4b55" d="M16.631 16.83h-1.26c-0.286 0-0.518-0.234-0.518-0.522v-1.615l1.156 0.78 1.141-0.78v1.615c-0 0.288-0.232 0.522-0.519 0.522z"></path>
<path fill="#41479b" d="M15.27 14.95l-0.418-0.313v1.149l0.418 0.209z"></path>
<path fill="#41479b" d="M16.732 14.95l0.418-0.313v1.149l-0.418 0.209z"></path>
<path fill="#41479b" d="M15.375 15.995h1.253v0.522h-1.253v-0.522z"></path>
<path fill="#ff4b55" d="M15.375 15.055l0.627 0.313 0.627-0.313v0.94h-1.253z"></path>
<path fill="#f5f5f5" d="M16.471 15.153v1.050c0 0.086-0.070 0.157-0.157 0.157h-0.627c-0.086 0-0.157-0.070-0.157-0.157v-1.046l-0.313-0.21v1.256c0 0.259 0.211 0.47 0.47 0.47h0.627c0.259 0 0.47-0.211 0.47-0.47v-1.263l-0.313 0.213z"></path>
<path fill="#f5f5f5" d="M16.581 15.883c-0.176 0.016-0.374 0.034-0.579 0.105-0.205-0.071-0.403-0.089-0.579-0.105-0.294-0.027-0.469-0.052-0.569-0.23v0.301c0.153 0.1 0.348 0.118 0.55 0.136 0.182 0.016 0.369 0.033 0.561 0.106l0.037 0.014 0.037-0.014c0.192-0.073 0.379-0.089 0.561-0.106 0.202-0.018 0.397-0.036 0.551-0.136v-0.302c-0.1 0.178-0.274 0.204-0.569 0.23z"></path>
<path fill="#ffe15a" d="M16.21 14.898h-0.157v-0.157h-0.104v0.157h-0.157v0.104h0.157v0.47h0.104v-0.47h0.157z"></path>
<path fill="#464655" d="M14.971 14.481l0.057-0.057 0.918 0.918-0.057 0.057-0.918-0.918z"></path>
<path fill="#ffe15a" d="M14.828 14.281l0.115 0.229 0.115-0.115z"></path>
<path fill="#464655" d="M15.174 14.324l0.066-0.048 0.764 1.049-0.066 0.048-0.764-1.049z"></path>
<path fill="#ffe15a" d="M15.063 14.103l0.078 0.244 0.131-0.096z"></path>
<path fill="#464655" d="M14.802 14.683l0.046-0.066 1.064 0.743-0.046 0.066-1.064-0.743z"></path>
<path fill="#ffe15a" d="M14.624 14.51l0.153 0.206 0.093-0.133z"></path>
<path fill="#464655" d="M16.113 15.4l-0.057-0.057 0.918-0.918 0.057 0.057-0.918 0.918z"></path>
<path fill="#ffe15a" d="M17.174 14.281l-0.115 0.229-0.115-0.115z"></path>
<path fill="#464655" d="M16.064 15.371l-0.066-0.048 0.764-1.049 0.066 0.048-0.764 1.049z"></path>
<path fill="#ffe15a" d="M16.939 14.103l-0.078 0.244-0.131-0.096z"></path>
<path fill="#464655" d="M16.138 15.424l-0.046-0.066 1.064-0.743 0.046 0.066-1.064 0.743z"></path>
<path fill="#ffe15a" d="M17.378 14.51l-0.153 0.206-0.093-0.133z"></path>
<path fill="#f5f5f5" d="M15.948 17.322c0 0-0.404-0.434-0.326-0.832 0.063-0.32 0.254-0.673 0.404-0.759 0 0 0.212-0.013 0.159 0.171s-0.118 0.231-0.099 0.412c0.033 0.313 0.083 0.685-0.138 1.008z"></path>
<path fill="#41479b" d="M16.071 15.734c-0.025-0.003-0.044-0.002-0.044-0.002-0.15 0.086-0.341 0.439-0.404 0.759-0.036 0.181 0.029 0.369 0.109 0.521-0.051-0.657 0.141-0.889 0.339-1.278z"></path>
<path fill="#ff4b55" d="M16.086 16.314c-0.019-0.181 0.046-0.228 0.099-0.412 0.037-0.129-0.055-0.161-0.114-0.168 0 0-0.135 0.31-0.144 0.518-0.008 0.183 0.039 0.927 0.021 1.071 0.221-0.323 0.171-0.695 0.138-1.008z"></path>
<path fill="#f5f0f0" d="M15.812 15.889c0.084-0.082 0.202-0.119 0.318-0.099-0.055-0.177-0.11-0.354-0.165-0.53-0.116-0.020-0.234 0.017-0.318 0.099 0.055 0.177 0.11 0.354 0.165 0.53z"></path>
<path fill="#f5f5f5" d="M16.13 15.79c0.084-0.082 0.202-0.119 0.318-0.099-0.055-0.177-0.11-0.354-0.165-0.53-0.116-0.020-0.234 0.017-0.318 0.099 0.055 0.177 0.11 0.354 0.165 0.53z"></path>
<path fill="#5f64b9" d="M15.524 13.495c-0.567-0.013-1.127 0.126-1.621 0.404-0.068-0.121-0.136-0.243-0.204-0.364 0.56-0.314 1.194-0.472 1.835-0.457-0.003 0.139-0.006 0.278-0.010 0.418z"></path>
<path fill="#41479b" d="M17.765 13.384c0.367 0.235 0.691 0.535 0.952 0.889-0.112 0.083-0.224 0.165-0.336 0.248-0.23-0.312-0.516-0.577-0.84-0.785l0.224-0.352z"></path>
<path fill="#5f64b9" d="M16.478 13.495c0.567-0.013 1.127 0.126 1.621 0.404 0.068-0.121 0.136-0.243 0.204-0.364-0.56-0.314-1.194-0.472-1.835-0.457 0.003 0.139 0.006 0.278 0.010 0.418z"></path>
<path fill="#41479b" d="M16.837 13.384c-0.547-0.15-1.124-0.15-1.671 0-0.037-0.134-0.073-0.269-0.11-0.403 0.619-0.169 1.272-0.169 1.891 0-0.037 0.134-0.073 0.269-0.11 0.403z"></path>
<path fill="#ff6b71" d="M14.602 18.064c-0.451 0.118-0.891 0.276-1.316 0.476 0.059 0.126 0.119 0.252 0.178 0.378 0.409-0.193 0.835-0.345 1.27-0.457l-0.133-0.397z"></path>
<path fill="#ff6b71" d="M17.401 18.064c0.451 0.118 0.891 0.276 1.316 0.476-0.059 0.126-0.119 0.252-0.178 0.378-0.409-0.193-0.835-0.345-1.27-0.457l0.133-0.397z"></path>
<path fill="#ff4b55" d="M17.681 18.387c-1.098-0.264-2.243-0.264-3.342 0-0.033-0.135-0.065-0.271-0.098-0.406 1.162-0.279 2.374-0.279 3.537 0-0.032 0.135-0.065 0.271-0.098 0.406z"></path>
<path fill="#ff4b55" d="M16.001 18.501l-0.288 0.072c-0.066 0.017-0.13-0.033-0.13-0.101v-0.15c0-0.068 0.064-0.118 0.13-0.101l0.288 0.072v0.209z"></path>
<path fill="#ff4b55" d="M16.001 18.292l0.288-0.072c0.066-0.017 0.13 0.033 0.13 0.101v0.15c0 0.068-0.064 0.118-0.13 0.101l-0.288-0.072v-0.209z"></path>
<path fill="#ff6b71" d="M16.033 18.501h-0.063c-0.040 0-0.073-0.033-0.073-0.073v-0.063c0-0.040 0.033-0.073 0.073-0.073h0.063c0.040 0 0.073 0.033 0.073 0.073v0.063c0 0.040-0.033 0.073-0.073 0.073z"></path>
</svg>
