<svg xmlns="http://www.w3.org/2000/svg" width="32" height="32" version="1.1" viewBox="0 0 32 32"><title>east-timor</title><path fill="#ff4b55" d="M30.152 18.547l-0.001-5.093-0-1.698-0-2.655c-0-0.725-0.357-1.399-0.946-1.809-0.051-0.035-0.103-0.069-0.157-0.101l-11.948-6.895c-0.682-0.394-1.523-0.394-2.205 0l-11.945 6.899c-0.053 0.030-0.103 0.063-0.152 0.098-0.592 0.41-0.95 1.085-0.95 1.813l0 2.651 0 1.698 0.001 5.093 0 1.698 0 2.655c0 0.725 0.357 1.399 0.946 1.809 0.051 0.035 0.103 0.069 0.157 0.101l11.948 6.895c0.682 0.394 1.523 0.394 2.205-0l11.945-6.899c0.053-0.030 0.103-0.063 0.152-0.098 0.592-0.41 0.95-1.085 0.95-1.813l-0-2.651-0-1.698z"/><path fill="#ffe15a" d="M18.169 15.55l-12.992-9.642-2.228 1.287c-0.053 0.030-0.103 0.063-0.152 0.098-0.592 0.41-0.95 1.085-0.95 1.813l0 2.651 0 1.698 0.001 5.093 0 1.698 0 2.655c0 0.725 0.357 1.399 0.946 1.809 0.051 0.035 0.103 0.069 0.157 0.101l2.224 1.283 12.993-9.643c0.267-0.198 0.267-0.702 0-0.9z"/><path fill="#464655" d="M2.949 7.195c-0.053 0.030-0.103 0.063-0.152 0.098-0.592 0.41-0.95 1.085-0.95 1.813l0 2.651 0 1.698 0.001 5.093 0 1.698 0 2.655c0 0.725 0.357 1.399 0.946 1.809 0.051 0.035 0.103 0.069 0.157 0.101l1.192 0.688 8.298-8.999c0.238-0.258 0.238-0.739 0-0.997l-8.297-8.998-1.197 0.691z"/><path fill="#f5f5f5" d="M4.89 13.403l0.052 1.98-1.857 0.691c-0.178 0.066-0.169 0.321 0.013 0.375l1.9 0.562 0.083 1.979c0.008 0.19 0.253 0.26 0.361 0.104l1.122-1.633 1.908 0.533c0.183 0.051 0.326-0.16 0.21-0.311l-1.206-1.571 1.096-1.65c0.105-0.158-0.052-0.359-0.231-0.296l-1.867 0.662-1.231-1.552c-0.118-0.149-0.358-0.062-0.353 0.128z"/></svg>