<svg xmlns="http://www.w3.org/2000/svg" width="32" height="32" version="1.1" viewBox="0 0 32 32"><title>ecuador</title><path fill="#ffe15a" d="M30.152 16l-0.001-6.9c-0-0.788-0.421-1.516-1.103-1.91l-11.948-6.895c-0.682-0.394-1.523-0.394-2.205 0l-11.945 6.899c-0.682 0.394-1.103 1.122-1.102 1.91l0.001 6.895 0.001 6.9c0 0.427 0.125 0.836 0.346 1.184 0.187 0.294 0.444 0.545 0.757 0.726l11.948 6.895c0.682 0.394 1.523 0.394 2.205-0l11.945-6.899c0.311-0.18 0.567-0.429 0.754-0.721 0.224-0.349 0.349-0.76 0.349-1.189l-0.001-6.895z"/><path fill="#ff4b55" d="M2.952 24.809l11.948 6.895c0.682 0.394 1.523 0.394 2.205-0l11.945-6.899c0.311-0.18 0.567-0.429 0.754-0.721l-13.726-1.133-13.882 1.133c0.187 0.294 0.444 0.545 0.757 0.726z"/><path fill="#41479b" d="M2.196 24.084h27.609c0.224-0.349 0.349-0.76 0.349-1.189l-0.001-6.895h-28.304l0.001 6.9c0 0.427 0.125 0.836 0.346 1.184z"/><path fill="#ffe15a" d="M15.348 16.351l4.564-3.912v5.662c0 0.954-0.774 1.728-1.728 1.728v0c-0.427 0-0.838-0.158-1.156-0.444l-1.681-1.512-0-1.521z"/><path fill="#ff4b55" d="M17.755 18.577l-1.321-1.189v-1.969l2.391-2.049v4.73c0 0.353-0.288 0.641-0.641 0.641-0.159 0-0.311-0.058-0.429-0.165z"/><path fill="#41479b" d="M17.087 14.86v2.238l1.087 0.981v-4.15l0.652-0.559v4.73c0 0.353-0.288 0.641-0.641 0.641-0.159 0-0.311-0.058-0.429-0.165l-1.321-1.189v-1.969l0.652-0.559z"/><path fill="#ffe15a" d="M16.652 16.351l-4.564-3.912v5.662c0 0.954 0.774 1.728 1.728 1.728v0c0.427 0 0.838-0.158 1.156-0.444l1.681-1.512v-1.521h0z"/><path fill="#ff4b55" d="M14.245 18.577l1.321-1.189v-1.969l-2.391-2.049v4.73c0 0.353 0.288 0.641 0.641 0.641 0.159 0 0.311-0.058 0.429-0.165z"/><path fill="#41479b" d="M14.913 14.86v2.238l-1.087 0.981v-4.15l-0.652-0.559v4.73c0 0.353 0.288 0.641 0.641 0.641 0.159 0 0.311-0.058 0.429-0.165l1.321-1.189v-1.969l-0.652-0.559z"/><path fill="#41479b" d="M19.754 12.457h0.312v1.872h-0.312v-1.872z"/><path fill="#41479b" d="M11.931 12.457h0.312v1.872h-0.312v-1.872z"/><path fill="#5a4646" d="M15.348 11.569c0 0 0.435-2.065-1.087-1.793s-1.521 0.706-3.26 1.576c0 0 1.956 0.435 2.825 0.217 0 0 0.652 0.869 1.304 1.087h0.652l-0.435-1.087z"/><path fill="#5a4646" d="M16.652 11.569c0 0-0.435-2.065 1.087-1.793s1.521 0.706 3.26 1.576c0 0-1.956 0.435-2.825 0.217 0 0-0.652 0.869-1.304 1.087h-0.652l0.435-1.087z"/><path fill="#5a4646" d="M16.652 12.656h-1.304v-1.095c0-0.356 0.288-0.644 0.644-0.644h0.016c0.356 0 0.644 0.288 0.644 0.644v1.095h0v0z"/><path fill="#e6e1cd" d="M16.435 11.569c0 0.24-0.195 0.435-0.435 0.435s-0.435-0.195-0.435-0.435c0-0.24 0.195-0.435 0.435-0.435s0.435 0.195 0.435 0.435z"/><path fill="#ffd0af" d="M15.067 11.289l0.817 0.436c0.069 0.037 0.153 0.024 0.208-0.031v0c0.069-0.069 0.069-0.181 0-0.25l-0.527-0.527h-0.127c-0.205 0-0.371 0.166-0.371 0.371v0z"/><path fill="#ffaf94" d="M15.351 11.352h-0.655l0.287-0.335c0.054-0.063 0.132-0.099 0.215-0.099h0.367v0.22c0 0.118-0.096 0.215-0.215 0.215z"/><path fill="#8cb400" d="M17.853 12.656c-0.147-0.174-0.178-0.405-0.106-0.604 0.209-0.037 0.431 0.033 0.578 0.207 0.125 0.149 0.162 0.338 0.126 0.515 0.043 0.074 0.097 0.169 0.155 0.281 0.003-0.016 0.002-0.032 0.007-0.048 0.051-0.18 0.194-0.308 0.363-0.351 0.121 0.126 0.176 0.309 0.125 0.49-0.044 0.155-0.158 0.267-0.296 0.324 0.055 0.125 0.109 0.26 0.159 0.403 0.003-0.008 0.003-0.017 0.006-0.025 0.071-0.173 0.227-0.284 0.4-0.309 0.107 0.138 0.141 0.327 0.070 0.5-0.062 0.152-0.19 0.252-0.337 0.292 0.076 0.298 0.126 0.615 0.126 0.933h-0.217c0-0.278-0.043-0.556-0.107-0.822-0.134 0.043-0.284 0.034-0.414-0.045-0.158-0.097-0.242-0.267-0.238-0.441 0.152-0.082 0.342-0.085 0.5 0.012 0.006 0.004 0.009 0.009 0.015 0.012-0.047-0.134-0.096-0.261-0.147-0.38-0.13 0.062-0.284 0.071-0.425 0.005-0.168-0.079-0.27-0.239-0.285-0.412 0.142-0.098 0.33-0.122 0.497-0.044-0.060-0.115-0.114-0.211-0.156-0.283-0.15-0.017-0.294-0.086-0.399-0.211z"/><path fill="#8cb400" d="M14.147 12.656c0.147-0.174 0.178-0.405 0.106-0.604-0.209-0.037-0.431 0.033-0.578 0.207-0.125 0.149-0.162 0.338-0.126 0.515-0.043 0.074-0.097 0.169-0.155 0.281-0.003-0.016-0.002-0.032-0.007-0.048-0.051-0.18-0.194-0.308-0.364-0.351-0.121 0.126-0.176 0.309-0.124 0.49 0.044 0.155 0.158 0.267 0.296 0.324-0.055 0.125-0.109 0.26-0.159 0.403-0.003-0.008-0.003-0.017-0.007-0.025-0.071-0.173-0.227-0.284-0.4-0.309-0.107 0.138-0.141 0.327-0.070 0.5 0.062 0.152 0.19 0.252 0.337 0.292-0.075 0.298-0.126 0.615-0.126 0.933h0.217c0-0.278 0.043-0.556 0.107-0.822 0.134 0.043 0.284 0.034 0.414-0.045 0.158-0.097 0.242-0.267 0.238-0.441-0.152-0.082-0.342-0.085-0.501 0.012-0.006 0.004-0.009 0.009-0.015 0.012 0.047-0.134 0.096-0.261 0.147-0.38 0.13 0.062 0.284 0.071 0.425 0.005 0.168-0.079 0.27-0.239 0.285-0.412-0.142-0.098-0.33-0.122-0.497-0.044 0.060-0.115 0.114-0.211 0.156-0.283 0.15-0.017 0.294-0.086 0.399-0.211z"/><path fill="#ffe15a" d="M16 17.437l-4.564-3.912v5.662c0 0.954 0.774 1.728 1.728 1.728v0c0.427 0 0.838-0.158 1.156-0.444l1.681-1.512 0-1.521z"/><path fill="#ff4b55" d="M13.593 19.663l1.321-1.189v-1.969l-2.391-2.049v4.73c0 0.353 0.288 0.641 0.641 0.641 0.159 0 0.311-0.058 0.429-0.165z"/><path fill="#41479b" d="M14.261 15.947v2.238l-1.087 0.981v-4.15l-0.652-0.559v4.73c0 0.353 0.288 0.641 0.641 0.641 0.159 0 0.311-0.058 0.429-0.165l1.321-1.189v-1.969l-0.652-0.559z"/><path fill="#ffe15a" d="M16 17.437l4.564-3.912v5.662c0 0.954-0.774 1.728-1.728 1.728v0c-0.427 0-0.838-0.158-1.156-0.444l-1.681-1.512v-1.521z"/><path fill="#ff4b55" d="M18.407 19.663l-1.321-1.189v-1.969l2.391-2.049v4.73c0 0.353-0.288 0.641-0.641 0.641-0.159 0-0.311-0.058-0.429-0.165z"/><path fill="#41479b" d="M17.739 15.947v2.238l1.087 0.981v-4.15l0.652-0.559v4.73c0 0.353-0.288 0.641-0.641 0.641-0.159 0-0.311-0.058-0.429-0.165l-1.321-1.189v-1.969l0.652-0.559z"/><path fill="#69c3ff" d="M18.173 15.916c0 1.8-0.973 3.26-2.173 3.26s-2.173-1.46-2.173-3.26c0-1.8 0.973-3.26 2.173-3.26s2.173 1.46 2.173 3.26z"/><path fill="#009b64" d="M14.044 16.785h3.912l0.217-0.869-0.99 0.165c-0.199 0.033-0.402-0.023-0.555-0.155l-1.124-0.964c-0.1-0.086-0.228-0.133-0.361-0.133v0c-0.147 0-0.288 0.058-0.392 0.162l-0.707 0.707v1.087z"/><path fill="#f5f5f5" d="M15.794 15.77l0.373-0.239-0.663-0.569c-0.1-0.086-0.228-0.133-0.361-0.133v0c-0.147 0-0.288 0.058-0.392 0.162l-0.707 0.707v0.217l1.087-0.217 0.192 0.096c0.151 0.075 0.329 0.066 0.471-0.025z"/><path fill="#5aa0e6" d="M14.044 16.785l0.217 1.304 1.087 1.087h0.652l0.869-0.217 0.869-0.869 0.217-1.304z"/><path fill="#ffc88c" d="M16 19.393c-1.318 0-2.391-1.56-2.391-3.477s1.072-3.477 2.391-3.477 2.391 1.56 2.391 3.477-1.072 3.477-2.391 3.477zM16 12.873c-1.078 0-1.956 1.365-1.956 3.043s0.877 3.043 1.956 3.043 1.956-1.365 1.956-3.043-0.877-3.043-1.956-3.043z"/><path fill="#e1e1e1" d="M14.467 19.156c-0.182-0.252-0.453-0.415-0.761-0.415s-0.578 0.164-0.761 0.415c0.311 0.086 0.565 0.338 0.685 0.671 0.049 0.134 0.075 0.281 0.075 0.435-0-0.538 0.325-0.986 0.761-1.106z"/><path fill="#e1e1e1" d="M13.879 19.842c0 0-0.017 0.29-0.166 0.426l-0.006-0.005c-0.149-0.136-0.166-0.426-0.166-0.426l0.337 0.005z"/><path fill="#966446" d="M18.718 19.937h-5.436c-0.059 0-0.107-0.048-0.107-0.107v-0.003c0-0.059 0.048-0.107 0.107-0.107h5.436c0.059 0 0.107 0.048 0.107 0.107v0.003c0 0.059-0.048 0.107-0.107 0.107z"/><path fill="#be915a" d="M17.092 20.263h-2.184c-0.237 0-0.429-0.192-0.429-0.429v-0.011c0-0.237 0.192-0.429 0.429-0.429h2.184c0.237 0 0.429 0.192 0.429 0.429v0.011c0 0.237-0.192 0.429-0.429 0.429z"/><path fill="#b9b9b9" d="M14.044 19.719h-0.761c-0.060 0-0.109 0.049-0.109 0.109s0.049 0.109 0.109 0.109h0.761v-0.217z"/><path fill="#ff4b55" d="M16 20.263v1.986l-0.869-0.247 0.435-1.739z"/><path fill="#41479b" d="M15.783 20.263l-0.435 1.521-0.869-0.217 0.652-1.304z"/><path fill="#ffe15a" d="M14.913 20.263l-0.652 0.869 0.652 0.217 0.435-1.087z"/><path fill="#ff4b55" d="M16 20.263v1.986l0.869-0.247-0.435-1.739z"/><path fill="#41479b" d="M16.217 20.263l0.435 1.521 0.869-0.217-0.652-1.304z"/><path fill="#ffe15a" d="M17.087 20.263l0.652 0.869-0.652 0.217-0.435-1.087z"/><path fill="#41479b" d="M11.592 15.397l-0.312-0.315v-1.557h0.312z"/><path fill="#41479b" d="M20.717 15.082l-0.312 0.315v-1.872h0.312z"/></svg>