<!-- Generated by IcoMoon.io -->
<svg version="1.1" xmlns="http://www.w3.org/2000/svg" width="32" height="32" viewBox="0 0 32 32">
<title>egypt</title>
<path fill="#f5f5f5" d="M30.153 21.311l-0.002-10.778-0-1.432c-0-0.788-0.421-1.516-1.103-1.91l-11.948-6.895c-0.682-0.394-1.523-0.394-2.205 0l-11.945 6.899c-0.682 0.394-1.103 1.122-1.102 1.91l0 1.428 0.002 10.778 0 1.589c0 0.788 0.421 1.516 1.103 1.91l11.948 6.895c0.682 0.394 1.523 0.394 2.205-0l11.945-6.899c0.682-0.394 1.102-1.122 1.102-1.91l-0-1.584z"></path>
<path fill="#ff4b55" d="M30.151 9.1c-0-0.788-0.421-1.516-1.103-1.91l-11.948-6.895c-0.682-0.394-1.523-0.394-2.205 0l-11.945 6.899c-0.682 0.394-1.103 1.122-1.102 1.91l0 1.428h28.304l-0-1.432z"></path>
<path fill="#464655" d="M1.849 22.9c0 0.788 0.421 1.516 1.103 1.91l11.948 6.895c0.682 0.394 1.523 0.394 2.205-0l11.945-6.899c0.682-0.394 1.102-1.122 1.102-1.91l-0-1.584h-28.304l0 1.589z"></path>
<path fill="#f0c727" d="M17.995 14.766c0-0.31-0.304-0.529-0.598-0.431l-0.552 0.184-0.134-0.81c-0.080-0.483-0.494-0.834-0.984-0.834h-0.517l-0.54 0.665h0.716l-0.2 0.989-0.583-0.194c-0.294-0.098-0.598 0.121-0.598 0.431v3.36l0.804-0.804-0.379 1.137h-0.425v0.665h3.99v-0.665h-0.425l-0.379-1.137 0.804 0.804v-3.36h-0zM15.667 18.459h-0.536l0.369-0.985 0.167 0.214v0.771h0zM16.333 18.459v-0.771l0.167-0.214 0.369 0.985h-0.536zM16 17.254c0 0-1.029-0.696-0.987-1.995 0 0 0.634-0.104 0.987-0.665 0.353 0.561 0.987 0.665 0.987 0.665 0.042 1.299-0.987 1.995-0.987 1.995z"></path>
</svg>
