<!-- Generated by IcoMoon.io -->
<svg version="1.1" xmlns="http://www.w3.org/2000/svg" width="32" height="32" viewBox="0 0 32 32">
<title>england</title>
<path fill="#f5f5f5" d="M30.152 18.619l-0.001-5.081-0.001-4.437c-0-0.788-0.421-1.516-1.103-1.91l-11.948-6.895c-0.682-0.394-1.523-0.394-2.205 0l-11.945 6.899c-0.682 0.394-1.103 1.122-1.102 1.91l0.001 4.433 0.001 5.081 0.001 4.281c0 0.788 0.421 1.516 1.103 1.91l11.948 6.895c0.682 0.394 1.523 0.394 2.205-0l11.945-6.899c0.682-0.394 1.102-1.122 1.102-1.91l-0.001-4.276z"></path>
<path fill="#ff4b55" d="M14.895 0.296l-0.769 0.444v12.798h-12.278l0.001 5.081h12.277v12.639l0.774 0.447c0.682 0.394 1.523 0.394 2.205-0l0.769-0.444v-12.642h12.278l-0.001-5.081h-12.277v-12.795l-0.774-0.447c-0.682-0.394-1.523-0.394-2.205 0z"></path>
</svg>
