<svg xmlns="http://www.w3.org/2000/svg" width="32" height="32" version="1.1" viewBox="0 0 32 32"><title>estonia</title><path fill="#f5f5f5" d="M30.153 22.895v-0.001l-0-1.504-0.002-10.78-0-1.51c-0-0.689-0.322-1.333-0.86-1.747-0.077-0.059-0.158-0.114-0.243-0.163l-11.948-6.895c-0.043-0.025-0.086-0.048-0.13-0.069-0.088-0.043-0.177-0.080-0.269-0.111-0.046-0.015-0.092-0.029-0.138-0.041-0.185-0.049-0.376-0.074-0.566-0.074s-0.381 0.025-0.566 0.074-0.366 0.123-0.537 0.222l-11.945 6.899c-0.341 0.197-0.617 0.478-0.807 0.807-0.024 0.041-0.046 0.083-0.067 0.126-0.148 0.299-0.228 0.632-0.228 0.977v0 0 0.002l0 1.503 0.002 10.78 0 1.508v0.002c0 0.295 0.059 0.582 0.169 0.847 0.073 0.176 0.169 0.342 0.285 0.494 0.174 0.227 0.393 0.422 0.649 0.57l11.948 6.895c0.213 0.123 0.442 0.208 0.676 0.254 0.094 0.018 0.189 0.031 0.284 0.037 0.428 0.028 0.862-0.069 1.245-0.291l11.945-6.899c0.085-0.049 0.166-0.104 0.243-0.163 0.23-0.177 0.421-0.397 0.564-0.644 0.19-0.33 0.295-0.709 0.295-1.103v0 0z"/><path fill="#464655" d="M1.847 10.61l0.002 10.78h28.304l-0.002-10.78-14.151-0.781z"/><path fill="#4173cd" d="M2.075 8.129c-0.020 0.040-0.038 0.081-0.056 0.122-0.006 0.013-0.011 0.027-0.016 0.041-0.011 0.028-0.022 0.057-0.032 0.085-0.006 0.016-0.011 0.033-0.016 0.049-0.009 0.027-0.017 0.053-0.024 0.080-0.005 0.018-0.010 0.035-0.014 0.053-0.007 0.027-0.013 0.053-0.019 0.080-0.004 0.018-0.008 0.036-0.011 0.054-0.005 0.028-0.010 0.056-0.014 0.084-0.003 0.017-0.005 0.035-0.008 0.052-0.004 0.031-0.007 0.062-0.009 0.092-0.001 0.015-0.003 0.030-0.004 0.045-0.003 0.046-0.005 0.092-0.005 0.139v0.002l0 1.503h28.304l-0-1.51c0-0.046-0.002-0.093-0.005-0.139-0.001-0.015-0.003-0.030-0.004-0.045-0.003-0.031-0.005-0.062-0.009-0.092-0.002-0.018-0.005-0.035-0.008-0.052-0.004-0.028-0.009-0.056-0.014-0.083-0.003-0.018-0.007-0.036-0.011-0.054-0.006-0.027-0.012-0.054-0.019-0.080-0.005-0.018-0.009-0.035-0.014-0.053-0.008-0.027-0.016-0.054-0.024-0.080-0.005-0.017-0.011-0.033-0.016-0.050-0.010-0.029-0.021-0.057-0.032-0.085-0.005-0.014-0.010-0.027-0.016-0.041-0.035-0.083-0.075-0.163-0.119-0.241-0.007-0.013-0.015-0.025-0.023-0.037-0.016-0.026-0.031-0.052-0.048-0.077-0.009-0.014-0.019-0.028-0.029-0.043-0.016-0.023-0.032-0.046-0.049-0.068-0.011-0.014-0.022-0.029-0.033-0.043-0.017-0.021-0.034-0.043-0.052-0.063-0.012-0.014-0.024-0.028-0.036-0.041-0.019-0.021-0.038-0.041-0.057-0.061-0.012-0.013-0.024-0.025-0.036-0.037-0.022-0.022-0.044-0.043-0.067-0.063-0.011-0.010-0.021-0.020-0.032-0.029-0.034-0.030-0.069-0.059-0.106-0.087-0.026-0.020-0.052-0.038-0.079-0.057-0.053-0.037-0.108-0.073-0.164-0.106l-11.948-6.896c-0.043-0.025-0.086-0.048-0.13-0.069-0.022-0.011-0.044-0.020-0.066-0.030-0.066-0.030-0.134-0.058-0.202-0.081-0.026-0.009-0.053-0.016-0.079-0.024-0.020-0.006-0.039-0.012-0.059-0.018-0.046-0.012-0.093-0.023-0.14-0.032s-0.094-0.017-0.141-0.023c-0.095-0.012-0.19-0.018-0.285-0.018-0.048 0-0.095 0.002-0.143 0.005-0.143 0.009-0.284 0.032-0.424 0.069-0.185 0.049-0.366 0.123-0.537 0.222l-11.945 6.899c-0.256 0.148-0.475 0.343-0.649 0.57-0.058 0.076-0.111 0.155-0.158 0.238-0.018 0.031-0.034 0.063-0.051 0.094-0.005 0.011-0.012 0.021-0.017 0.031-0 0-0 0-0 0.001z"/></svg>