<svg xmlns="http://www.w3.org/2000/svg" width="32" height="32" version="1.1" viewBox="0 0 32 32"><title>ethiopia</title><path fill="#ffe15a" d="M1.849 22.9l-0.002-13.795c-0-0.788 0.42-1.516 1.102-1.91l11.945-6.899c0.682-0.394 1.523-0.394 2.205-0l11.948 6.895c0.682 0.394 1.103 1.122 1.103 1.91l0.002 13.795c0 0.788-0.42 1.516-1.102 1.91l-11.945 6.899c-0.682 0.394-1.523 0.394-2.205 0l-11.947-6.895c-0.682-0.394-1.103-1.122-1.103-1.91z"/><path fill="#73af00" d="M30.151 9.1c-0-0.788-0.421-1.516-1.103-1.91l-11.947-6.895c-0.682-0.394-1.523-0.394-2.205 0l-11.945 6.899c-0.682 0.394-1.103 1.122-1.102 1.91l0 1.48h28.304l-0-1.484z"/><path fill="#ff4b55" d="M1.849 22.9c0 0.788 0.421 1.516 1.103 1.91l11.948 6.895c0.682 0.394 1.523 0.394 2.205-0l11.945-6.899c0.682-0.394 1.102-1.122 1.102-1.91l-0-1.48h-28.304l0 1.484z"/><path fill="#4173cd" d="M23.45 16.008c0 4.108-3.336 7.45-7.45 7.45s-7.45-3.341-7.45-7.45c0-4.12 3.336-7.456 7.45-7.456s7.45 3.336 7.45 7.456v0z"/><path fill="#f2dd30" d="M10.334 14.135h4.329l0.979-3.014 0.26 0.809-1.422 4.382-0.424-0.309 0.443-1.361h-3.481l-0.684-0.505zM12.496 20.801l1.338-4.114-2.564-1.867h0.846l3.727 2.705-0.424 0.309-1.161-0.844-1.078 3.318-0.684 0.493zM19.503 20.801l-3.503-2.545-2.563 1.861 0.262-0.797 3.724-2.711 0.159 0.499-1.158 0.838 2.817 2.051 0.263 0.803zM21.666 14.135l-3.5 2.551 0.98 3.015-0.684-0.5-1.421-4.382h0.52l0.443 1.368 2.818-2.051h0.844zM16 10.021l1.338 4.114h3.171l-0.685 0.505h-4.605l0.162-0.505h1.436l-1.078-3.312 0.262-0.803z"/><path fill="#f2dd30" d="M16.125 21.966h-0.248v-3.229h0.248v3.229zM21.629 17.958l-3.069-0.993 0.077-0.232 3.071 0.993-0.079 0.232zM10.369 17.958l-0.077-0.232 3.072-0.993 0.076 0.232-3.071 0.993zM17.708 13.868l-0.202-0.143 1.898-2.61 0.198 0.143-1.894 2.61zM14.297 13.868l-1.901-2.61 0.201-0.143 1.897 2.61-0.196 0.143z"/></svg>