<!-- Generated by IcoMoon.io -->
<svg version="1.1" xmlns="http://www.w3.org/2000/svg" width="32" height="32" viewBox="0 0 32 32">
<title>european-union</title>
<path fill="#41479b" d="M1.849 22.9l-0.002-13.795c-0-0.788 0.42-1.516 1.102-1.91l11.945-6.899c0.682-0.394 1.523-0.394 2.205-0l11.948 6.895c0.683 0.394 1.103 1.122 1.103 1.91l0.002 13.795c0 0.788-0.42 1.516-1.102 1.91l-11.945 6.899c-0.682 0.394-1.523 0.394-2.205 0l-11.947-6.895c-0.683-0.394-1.103-1.122-1.103-1.91z"></path>
<path fill="#ffe15a" d="M16.251 7.155l0.242 0.726 0.765 0.006c0.099 0.001 0.14 0.127 0.060 0.186l-0.616 0.455 0.231 0.73c0.030 0.094-0.078 0.173-0.158 0.115l-0.623-0.445-0.623 0.445c-0.081 0.058-0.188-0.021-0.158-0.115l0.231-0.73-0.616-0.455c-0.080-0.059-0.039-0.185 0.060-0.186l0.765-0.006 0.242-0.726c0.031-0.094 0.164-0.094 0.196 0z"></path>
<path fill="#ffe15a" d="M16.251 22.742l0.242 0.726 0.765 0.006c0.099 0.001 0.14 0.127 0.060 0.186l-0.616 0.455 0.231 0.73c0.030 0.095-0.078 0.173-0.158 0.115l-0.623-0.445-0.623 0.445c-0.081 0.058-0.188-0.021-0.158-0.115l0.231-0.73-0.616-0.455c-0.080-0.059-0.039-0.185 0.060-0.186l0.765-0.006 0.242-0.726c0.031-0.094 0.164-0.094 0.196 0z"></path>
<path fill="#ffe15a" d="M24.044 14.949l0.242 0.726 0.765 0.006c0.099 0.001 0.14 0.127 0.060 0.186l-0.616 0.455 0.231 0.73c0.030 0.095-0.078 0.173-0.158 0.115l-0.623-0.445-0.623 0.445c-0.081 0.058-0.188-0.021-0.158-0.115l0.231-0.73-0.616-0.455c-0.080-0.059-0.039-0.185 0.060-0.186l0.765-0.006 0.242-0.726c0.031-0.094 0.164-0.094 0.196 0z"></path>
<path fill="#ffe15a" d="M8.457 14.949l0.242 0.726 0.765 0.006c0.099 0.001 0.14 0.127 0.060 0.186l-0.616 0.455 0.231 0.73c0.030 0.095-0.078 0.173-0.158 0.115l-0.623-0.445-0.623 0.445c-0.081 0.058-0.188-0.021-0.158-0.115l0.231-0.73-0.616-0.455c-0.080-0.059-0.039-0.185 0.060-0.186l0.765-0.006 0.242-0.726c0.031-0.094 0.164-0.094 0.196 0z"></path>
<path fill="#ffe15a" d="M9.627 10.879l0.242 0.726 0.765 0.006c0.099 0.001 0.14 0.127 0.060 0.186l-0.616 0.455 0.231 0.73c0.030 0.094-0.078 0.173-0.158 0.115l-0.623-0.445-0.623 0.445c-0.081 0.058-0.188-0.021-0.158-0.115l0.231-0.73-0.616-0.455c-0.080-0.059-0.039-0.185 0.060-0.186l0.765-0.006 0.242-0.726c0.031-0.094 0.164-0.094 0.196 0z"></path>
<path fill="#ffe15a" d="M23.126 18.672l0.242 0.726 0.765 0.006c0.099 0.001 0.14 0.127 0.060 0.186l-0.616 0.455 0.231 0.73c0.030 0.095-0.078 0.173-0.158 0.115l-0.623-0.445-0.623 0.445c-0.081 0.058-0.188-0.021-0.158-0.115l0.231-0.73-0.616-0.455c-0.080-0.059-0.039-0.185 0.060-0.186l0.765-0.006 0.242-0.726c0.031-0.094 0.164-0.094 0.196 0z"></path>
<path fill="#ffe15a" d="M20.273 8.026l0.242 0.726 0.765 0.006c0.099 0.001 0.14 0.127 0.060 0.186l-0.616 0.455 0.231 0.73c0.030 0.095-0.078 0.173-0.158 0.115l-0.623-0.445-0.623 0.445c-0.081 0.058-0.188-0.021-0.158-0.115l0.231-0.73-0.616-0.455c-0.080-0.059-0.039-0.185 0.060-0.186l0.765-0.006 0.242-0.726c0.031-0.094 0.164-0.094 0.196 0z"></path>
<path fill="#ffe15a" d="M12.48 21.525l0.242 0.726 0.765 0.006c0.099 0.001 0.14 0.127 0.060 0.186l-0.616 0.455 0.231 0.73c0.030 0.095-0.078 0.173-0.158 0.115l-0.623-0.445-0.623 0.445c-0.081 0.058-0.188-0.021-0.158-0.115l0.231-0.73-0.616-0.455c-0.080-0.059-0.039-0.185 0.060-0.186l0.765-0.006 0.242-0.726c0.031-0.094 0.164-0.094 0.196 0z"></path>
<path fill="#ffe15a" d="M22.93 10.879l-0.242 0.726-0.765 0.006c-0.099 0.001-0.14 0.127-0.060 0.186l0.616 0.455-0.231 0.73c-0.030 0.094 0.078 0.173 0.158 0.115l0.623-0.445 0.623 0.445c0.081 0.058 0.188-0.021 0.158-0.115l-0.231-0.73 0.616-0.455c0.080-0.059 0.039-0.185-0.060-0.186l-0.765-0.006-0.242-0.726c-0.031-0.094-0.164-0.094-0.196 0z"></path>
<path fill="#ffe15a" d="M9.431 18.672l-0.242 0.726-0.765 0.006c-0.099 0.001-0.14 0.127-0.060 0.186l0.616 0.455-0.231 0.73c-0.030 0.095 0.078 0.173 0.158 0.115l0.623-0.445 0.623 0.445c0.081 0.058 0.188-0.021 0.158-0.115l-0.231-0.73 0.616-0.455c0.080-0.059 0.039-0.185-0.060-0.186l-0.765-0.006-0.242-0.726c-0.031-0.094-0.164-0.094-0.196 0z"></path>
<path fill="#ffe15a" d="M12.284 8.026l-0.242 0.726-0.765 0.006c-0.099 0.001-0.14 0.127-0.060 0.186l0.616 0.455-0.231 0.73c-0.030 0.095 0.078 0.173 0.158 0.115l0.623-0.445 0.623 0.445c0.081 0.058 0.188-0.021 0.158-0.115l-0.231-0.73 0.616-0.455c0.080-0.059 0.039-0.185-0.060-0.186l-0.765-0.006-0.242-0.726c-0.031-0.094-0.164-0.094-0.196 0z"></path>
<path fill="#ffe15a" d="M20.078 21.525l-0.242 0.726-0.765 0.006c-0.099 0.001-0.14 0.127-0.060 0.186l0.616 0.455-0.231 0.73c-0.030 0.095 0.078 0.173 0.158 0.115l0.623-0.445 0.623 0.445c0.081 0.058 0.188-0.021 0.158-0.115l-0.231-0.73 0.616-0.455c0.080-0.059 0.039-0.185-0.060-0.186l-0.765-0.006-0.242-0.726c-0.031-0.094-0.164-0.094-0.196 0z"></path>
</svg>
