<svg xmlns="http://www.w3.org/2000/svg" width="32" height="32" version="1.1" viewBox="0 0 32 32"><title>falkland-islands</title><path fill="#f5f5f5" d="M1.849 22.9l-0.002-13.795c-0-0.788 0.42-1.516 1.102-1.91l11.945-6.899c0.682-0.394 1.523-0.394 2.205-0l11.948 6.895c0.682 0.394 1.103 1.122 1.103 1.91l0.002 13.795c0 0.788-0.42 1.516-1.102 1.91l-11.945 6.899c-0.682 0.394-1.523 0.394-2.205 0l-11.947-6.895c-0.683-0.394-1.103-1.122-1.103-1.91z"/><path fill="#ff4b55" d="M2.585 7.459v8.552l1.231 0.457 1.382-0.457v-10.115l-2.249 1.299c-0.132 0.076-0.253 0.165-0.364 0.264z"/><path fill="#ff4b55" d="M6.048 5.405h9.952l0.234-2.058-0.234-2.125h-2.71z"/><path fill="#ff4b55" d="M6.751 6.799l8.754 9.095c0.002-0.001 0.004-0.003 0.005-0.004 0.004-0.003 0.008-0.007 0.011-0.010 0.028-0.021 0.478-0.424 0.478-0.427 0.010-0.229-0.005-0.639-0.003-0.699 0-0.004 0.001-0.007 0.001-0.011l-7.647-7.944-1.6-0z"/><path fill="#41479b" d="M30.151 9.1c-0-0.788-0.421-1.516-1.103-1.91l-11.948-6.895c-0.34-0.196-0.72-0.295-1.1-0.295v6.655h-6.636l6.636 6.959v1.060c0 0.023-0.001 0.046-0.002 0.069v0c-0 0.004-0.001 0.007-0.001 0.011-0.002 0.060-0.007 0.119-0.014 0.177-0.001 0.009-0.003 0.017-0.004 0.026-0.032 0.234-0.101 0.446-0.198 0.616-0.001 0.002-0.003 0.005-0.004 0.007-0.050 0.086-0.107 0.162-0.169 0.225-0.002 0.002-0.004 0.004-0.006 0.006-0.026 0.025-0.053 0.048-0.081 0.069-0.004 0.003-0.008 0.006-0.011 0.010-0.002 0.001-0.004 0.003-0.005 0.004v0c-0.104 0.075-0.219 0.117-0.34 0.117h-1.45l-7.735-8.111v8.111h-4.131l0.001 6.889c0 0.788 0.421 1.516 1.103 1.91l11.948 6.895c0.682 0.394 1.523 0.394 2.205-0l11.945-6.899c0.682-0.394 1.102-1.122 1.102-1.91l-0.002-13.795z"/><path fill="#e67346" d="M20.227 23.448l-0.131-0.307-0.133-0.306c0.055-0.024 1.356-0.618 1.356-2.363h0.667c-0 2.196-1.687 2.945-1.759 2.976z"/><path fill="#eb7d4b" d="M20.487 21.955l-0.472-0.472c0.902-0.902 1.371-1.149 1.421-1.175l0.149 0.298 0.152 0.297c-0.004 0.002-0.427 0.227-1.25 1.051z"/><path fill="#e67346" d="M27.082 23.448l0.131-0.307 0.133-0.306c-0.055-0.024-1.356-0.618-1.356-2.363h-0.667c-0 2.196 1.687 2.945 1.759 2.976z"/><path fill="#eb7d4b" d="M26.822 21.955l0.472-0.472c-0.902-0.902-1.371-1.149-1.421-1.175l-0.149 0.298-0.152 0.297c0.004 0.002 0.427 0.227 1.25 1.051z"/><path fill="#4173cd" d="M23.654 11.798h-3.558c0 0 0 4.226 0 5.338s0.222 4.003 3.558 5.115c3.336-1.112 3.558-4.003 3.558-5.115s0-5.338 0-5.338h-3.558z"/><path fill="#c8c8c8" d="M25.21 13.133h-1.912c-0.202 0-0.398-0.069-0.556-0.195l-0.747-0.597c-0.079-0.063-0.177-0.098-0.278-0.098h-0.066c-0.246 0-0.445 0.199-0.445 0.445h-0.334c-0.184 0-0.334 0.149-0.334 0.334s0.149 0.334 0.334 0.334h0.334c0.123 0 0.222 0.1 0.222 0.222v1.112c0 0.414 0.284 0.759 0.667 0.858v0.699h0.445l0.167-0.667h2.057l0.222 0.222v0.445h0.222v-0.667h0.222v0.667h0.222v-0.729c0.132-0.077 0.222-0.219 0.222-0.383v-1.334c-0-0.368-0.299-0.667-0.667-0.667z"/><path fill="#73af00" d="M21.207 16.024l0.445 1.334h4.003l0.445-1.334z"/><path fill="#f5f5f5" d="M26.023 16.914c-0.593 0-0.593 0.445-1.186 0.445s-0.593-0.445-1.186-0.445-0.593 0.445-1.185 0.445c-0.593 0-0.593-0.445-1.186-0.445-0.592 0-0.593 0.443-1.182 0.445 0.007 0.248 0.028 0.551 0.083 0.886 0.507-0.041 0.537-0.441 1.099-0.441 0.593 0 0.593 0.445 1.186 0.445s0.593-0.445 1.185-0.445c0.593 0 0.593 0.445 1.186 0.445s0.593-0.445 1.186-0.445c0.564 0 0.593 0.4 1.103 0.441 0.055-0.335 0.076-0.638 0.083-0.886-0.592-0.001-0.593-0.445-1.186-0.445z"/><path fill="#4173cd" d="M26.023 17.803c-0.593 0-0.593 0.445-1.186 0.445s-0.593-0.445-1.186-0.445-0.593 0.445-1.185 0.445c-0.593 0-0.593-0.445-1.186-0.445-0.562 0-0.592 0.399-1.099 0.441 0.044 0.267 0.109 0.553 0.205 0.848 0.324-0.113 0.419-0.399 0.895-0.399 0.593 0 0.593 0.445 1.186 0.445s0.593-0.445 1.185-0.445c0.593 0 0.593 0.445 1.186 0.445s0.593-0.445 1.186-0.445c0.477 0 0.572 0.287 0.898 0.4 0.096-0.295 0.161-0.582 0.205-0.849-0.509-0.041-0.539-0.441-1.103-0.441z"/><path fill="#f5f5f5" d="M26.023 18.693c-0.593 0-0.593 0.445-1.186 0.445s-0.593-0.445-1.186-0.445-0.593 0.445-1.185 0.445c-0.593 0-0.593-0.445-1.186-0.445-0.475 0-0.57 0.286-0.895 0.399 0.077 0.236 0.174 0.477 0.295 0.718 0.15-0.113 0.299-0.227 0.599-0.227 0.593 0 0.593 0.445 1.186 0.445s0.593-0.445 1.185-0.445c0.593 0 0.593 0.445 1.186 0.445s0.593-0.445 1.186-0.445c0.302 0 0.451 0.115 0.602 0.229 0.122-0.241 0.219-0.482 0.296-0.719-0.326-0.113-0.421-0.4-0.898-0.4z"/><path fill="#4173cd" d="M26.023 19.582c-0.593 0-0.593 0.445-1.186 0.445s-0.593-0.445-1.186-0.445-0.593 0.445-1.185 0.445c-0.593 0-0.593-0.445-1.186-0.445-0.301 0-0.449 0.114-0.599 0.227 0.116 0.229 0.254 0.457 0.419 0.679 0.054-0.010 0.113-0.017 0.18-0.017 0.593 0 0.593 0.445 1.186 0.445s0.593-0.445 1.185-0.445c0.593 0 0.593 0.445 1.186 0.445s0.593-0.445 1.186-0.445c0.069 0 0.128 0.006 0.183 0.017 0.165-0.222 0.303-0.449 0.419-0.678-0.151-0.113-0.3-0.229-0.602-0.229z"/><path fill="#f5f5f5" d="M26.206 20.489c-0.055-0.010-0.114-0.017-0.183-0.017-0.593 0-0.593 0.445-1.186 0.445s-0.593-0.445-1.186-0.445-0.593 0.445-1.185 0.445c-0.593 0-0.593-0.445-1.186-0.445-0.067 0-0.126 0.006-0.18 0.017 0.36 0.484 0.849 0.938 1.511 1.307 0.451-0.067 0.501-0.434 1.040-0.434 0.54 0 0.59 0.369 1.043 0.434 0.662-0.369 1.151-0.823 1.512-1.307z"/><path fill="#ff965a" d="M23.543 16.913h0.222v3.781h-0.222v-3.781z"/><path fill="#ff965a" d="M22.987 17.469h1.335v0.222h-1.335v-0.222z"/><path fill="#ff965a" d="M22.987 18.804h1.335v0.222h-1.335v-0.222z"/><path fill="#ffe15a" d="M22.987 17.691h1.335v0.88h-1.335v-0.88z"/><path fill="#ff4b55" d="M23.542 16.914v0.445l-0.667-0.222z"/><path fill="#ff965a" d="M25.025 16.913h0.222v2.613h-0.222v-2.613z"/><path fill="#ff965a" d="M24.469 17.469h1.335v0.222h-1.335v-0.222z"/><path fill="#ff965a" d="M24.469 18.804h1.335v0.222h-1.335v-0.222z"/><path fill="#ffe15a" d="M24.469 17.691h1.335v0.88h-1.335v-0.88z"/><path fill="#ff4b55" d="M25.025 16.914v0.445l-0.667-0.222z"/><path fill="#ff965a" d="M22.050 16.913h0.222v2.595h-0.222v-2.595z"/><path fill="#ff965a" d="M21.494 17.469h1.335v0.222h-1.335v-0.222z"/><path fill="#ff965a" d="M21.494 18.804h1.335v0.222h-1.335v-0.222z"/><path fill="#ffe15a" d="M21.494 17.691h1.335v0.88h-1.335v-0.88z"/><path fill="#ff4b55" d="M22.050 16.914v0.445l-0.667-0.222z"/><path fill="#ff965a" d="M24.766 19.36c0 0.613-0.499 1.112-1.112 1.112s-1.112-0.499-1.112-1.112h-0.443l-1.506-0.34-0.049 0.217 0.664 0.15v0.196l0.489 0.196c0.193 0.904 0.997 1.583 1.957 1.583 0.951 0 1.747-0.667 1.95-1.557h0.719v-0.667l-1.557 0.222z"/><path fill="#f5f5f5" d="M27.212 11.798c0 0 0 4.226 0 5.338s-0.222 4.003-3.558 5.115c-3.336-1.112-3.558-4.003-3.558-5.115s0-5.338 0-5.338h7.117zM27.434 11.576h-7.562v5.56c0 2.637 1.318 4.529 3.71 5.326l0.070 0.023 0.070-0.023c2.393-0.798 3.71-2.689 3.71-5.326v-5.56h-0z"/><path fill="#ff965a" d="M23.654 23.363c-1.637 0-3.155-0.548-4.061-1.467l0.633-0.625c0.742 0.753 2.024 1.202 3.427 1.202s2.685-0.449 3.428-1.202l0.633 0.625c-0.906 0.919-2.424 1.467-4.061 1.467z"/></svg>