<svg xmlns="http://www.w3.org/2000/svg" width="32" height="32" version="1.1" viewBox="0 0 32 32"><title>georgia</title><path fill="#f5f5f5" d="M1.849 22.9l-0.002-13.795c-0-0.788 0.42-1.516 1.102-1.91l11.945-6.899c0.682-0.394 1.523-0.394 2.205-0l11.948 6.895c0.682 0.394 1.103 1.122 1.103 1.91l0.002 13.795c0 0.788-0.42 1.516-1.102 1.91l-11.945 6.899c-0.682 0.394-1.523 0.394-2.205 0l-11.947-6.895c-0.683-0.394-1.103-1.122-1.103-1.91z"/><path fill="#ff4b55" d="M17.875 14.126v-13.383l-0.774-0.447c-0.682-0.394-1.523-0.394-2.205 0l-0.769 0.444v13.386h-12.278l0.001 3.749h12.277v13.383l0.774 0.447c0.682 0.394 1.523 0.394 2.205-0l0.769-0.444v-13.386h12.278l-0.001-3.749h-12.277z"/><path fill="#ff4b55" d="M9.502 9.303c-0.536 0.054-1.062 0.108-1.588 0.162 0.054-0.526 0.108-1.052 0.162-1.588-0.492 0.064-0.988 0.064-1.48 0 0.054 0.536 0.108 1.062 0.162 1.588-0.526-0.054-1.052-0.108-1.588-0.162 0.064 0.492 0.064 0.988 0 1.48 0.536-0.054 1.062-0.108 1.588-0.162-0.054 0.526-0.108 1.052-0.162 1.588 0.492-0.064 0.988-0.064 1.48 0-0.054-0.536-0.108-1.062-0.162-1.588 0.526 0.054 1.052 0.108 1.588 0.162-0.064-0.492-0.064-0.988 0-1.48z"/><path fill="#ff4b55" d="M26.83 9.303c-0.536 0.054-1.062 0.108-1.588 0.162 0.054-0.526 0.108-1.052 0.162-1.588-0.492 0.064-0.988 0.064-1.48 0 0.054 0.536 0.108 1.062 0.162 1.588-0.526-0.054-1.052-0.108-1.588-0.162 0.064 0.492 0.064 0.988 0 1.48 0.536-0.054 1.062-0.108 1.588-0.162-0.054 0.526-0.108 1.052-0.162 1.588 0.492-0.064 0.988-0.064 1.48 0-0.054-0.536-0.108-1.062-0.162-1.588 0.526 0.054 1.052 0.108 1.588 0.162-0.064-0.492-0.064-0.988 0-1.48z"/><path fill="#ff4b55" d="M9.502 21.217c-0.536 0.054-1.062 0.108-1.588 0.162 0.054-0.526 0.108-1.052 0.162-1.588-0.492 0.064-0.988 0.064-1.48 0 0.054 0.536 0.108 1.062 0.162 1.588-0.526-0.054-1.052-0.108-1.588-0.162 0.064 0.492 0.064 0.988 0 1.48 0.536-0.054 1.062-0.108 1.588-0.162-0.054 0.526-0.108 1.052-0.162 1.588 0.492-0.064 0.988-0.064 1.48 0-0.054-0.536-0.108-1.062-0.162-1.588 0.526 0.054 1.052 0.108 1.588 0.162-0.064-0.492-0.064-0.988 0-1.48z"/><path fill="#ff4b55" d="M26.83 21.217c-0.536 0.054-1.062 0.108-1.588 0.162 0.054-0.526 0.108-1.052 0.162-1.588-0.492 0.064-0.988 0.064-1.48 0 0.054 0.536 0.108 1.062 0.162 1.588-0.526-0.054-1.052-0.108-1.588-0.162 0.064 0.492 0.064 0.988 0 1.48 0.536-0.054 1.062-0.108 1.588-0.162-0.054 0.526-0.108 1.052-0.162 1.588 0.492-0.064 0.988-0.064 1.48 0-0.054-0.536-0.108-1.062-0.162-1.588 0.526 0.054 1.052 0.108 1.588 0.162-0.064-0.492-0.064-0.988 0-1.48z"/></svg>