<!-- Generated by IcoMoon.io -->
<svg version="1.1" xmlns="http://www.w3.org/2000/svg" width="32" height="32" viewBox="0 0 32 32">
<title>germany</title>
<path fill="#ffe15a" d="M30.153 21.35l-0.002-10.7-0-1.55c-0-0.788-0.421-1.516-1.103-1.91l-11.948-6.895c-0.682-0.394-1.523-0.394-2.205 0l-11.945 6.899c-0.682 0.394-1.103 1.122-1.102 1.91l0 1.545 0.002 10.7 0 1.55c0 0.788 0.421 1.516 1.103 1.91l11.948 6.895c0.682 0.394 1.523 0.394 2.205-0l11.945-6.899c0.682-0.394 1.102-1.122 1.102-1.91l-0-1.545z"></path>
<path fill="#ff4b55" d="M30.151 10.65l-14.229-2.148-14.075 2.148 0.002 10.7h28.304z"></path>
<path fill="#464655" d="M30.151 9.1c-0-0.788-0.421-1.516-1.103-1.91l-11.948-6.895c-0.682-0.394-1.523-0.394-2.205 0l-11.945 6.899c-0.682 0.394-1.103 1.122-1.102 1.91l0 1.545h28.304l-0-1.55z"></path>
</svg>
