<svg xmlns="http://www.w3.org/2000/svg" width="32" height="32" version="1.1" viewBox="0 0 32 32"><title>ghana</title><path fill="#ffe15a" d="M30.153 21.458l-0.002-10.917-0-1.441c-0-0.788-0.421-1.516-1.103-1.91l-11.948-6.895c-0.682-0.394-1.523-0.394-2.205 0l-11.945 6.899c-0.682 0.394-1.103 1.122-1.102 1.91l0 1.437 0.002 10.917 0 1.441c0 0.788 0.421 1.516 1.103 1.91l11.948 6.895c0.682 0.394 1.523 0.394 2.205-0l11.945-6.899c0.682-0.394 1.102-1.122 1.102-1.91l-0-1.437z"/><path fill="#ff4b55" d="M30.151 9.1c-0-0.788-0.421-1.516-1.103-1.91l-11.948-6.895c-0.682-0.394-1.523-0.394-2.205 0l-11.945 6.899c-0.682 0.394-1.103 1.122-1.102 1.91l0 1.437h28.304l-0-1.441z"/><path fill="#73af00" d="M1.849 22.9c0 0.788 0.421 1.516 1.103 1.91l11.948 6.895c0.682 0.394 1.523 0.394 2.205-0l11.945-6.899c0.682-0.394 1.102-1.122 1.102-1.91l-0-1.437h-28.304l0 1.441z"/><path fill="#464655" d="M11.67 15.301l2.287 1.689-0.857 2.71c-0.111 0.351 0.288 0.641 0.588 0.427l2.313-1.653 2.313 1.653c0.299 0.214 0.699-0.076 0.588-0.427l-0.858-2.71 2.287-1.689c0.296-0.219 0.143-0.688-0.225-0.691l-2.843-0.022-0.899-2.697c-0.116-0.349-0.61-0.349-0.727 0l-0.899 2.697-2.843 0.022c-0.368 0.003-0.521 0.473-0.225 0.691z"/></svg>