<svg xmlns="http://www.w3.org/2000/svg" width="32" height="32" version="1.1" viewBox="0 0 32 32"><title>greece</title><path fill="#f5f5f5" d="M30.151 9.1c-0-0.788-0.421-1.516-1.103-1.91l-11.948-6.895c-0.682-0.394-1.523-0.394-2.205 0l-11.945 6.899c-0.682 0.394-1.103 1.122-1.102 1.91l0.002 13.795c0 0.788 0.421 1.516 1.103 1.91l11.948 6.895c0.682 0.394 1.523 0.394 2.205-0l11.945-6.899c0.682-0.394 1.102-1.122 1.102-1.91l-0-1.519-0.002-12.276z"/><path fill="#41479b" d="M2.952 24.809l0.261 0.151h25.568l0.269-0.155c0.682-0.394 1.102-1.122 1.102-1.91l-0-1.519h-28.304l0 1.523c0 0.788 0.421 1.516 1.103 1.91z"/><path fill="#41479b" d="M14.9 31.705c0.682 0.394 1.523 0.394 2.205-0l5.471-3.16h-13.153l5.476 3.16z"/><path fill="#41479b" d="M1.847 10.652v-0.029l0.001 3.584 0.001 3.584h3.835v-7.139z"/><path fill="#41479b" d="M15.984 7.046v3.448l-6.71 0.039v7.259h20.878l-0.001-3.584v-0h-14.152v-3.584h14.151l-0-1.524c-0-0.788-0.421-1.516-1.103-1.91l-0.261-0.151h-12.786v-3.584h6.576l-5.476-3.16c-0.552-0.319-1.209-0.379-1.801-0.182-0.002 0.001-0.004 0.001-0.005 0.002-0.040 0.013-0.080 0.029-0.119 0.044-0.006 0.002-0.011 0.004-0.017 0.006-0.036 0.015-0.071 0.031-0.106 0.048-0.009 0.004-0.018 0.008-0.027 0.012-0.044 0.022-0.087 0.045-0.13 0.069l-5.621 3.246v3.504h6.71z"/><path fill="#41479b" d="M5.683 7.046v-1.43l-2.476 1.43z"/></svg>