<!-- Generated by IcoMoon.io -->
<svg version="1.1" xmlns="http://www.w3.org/2000/svg" width="32" height="32" viewBox="0 0 32 32">
<title>grenada</title>
<path fill="#ff4b55" d="M30.153 22.895l-0-2.651-0-1.698-0.001-5.093-0-1.698-0-2.655c-0-0.194-0.026-0.384-0.075-0.567-0.026-0.098-0.059-0.194-0.099-0.287-0.16-0.381-0.426-0.714-0.773-0.955-0.051-0.035-0.103-0.069-0.157-0.101l-11.947-6.895c-0.682-0.394-1.523-0.394-2.205 0l-11.945 6.899c-0.053 0.030-0.103 0.063-0.152 0.098-0.212 0.147-0.393 0.328-0.54 0.534-0.098 0.138-0.18 0.287-0.244 0.443-0.107 0.261-0.166 0.544-0.166 0.836l0 2.651 0 1.698 0.001 5.092v0.001l0 1.697 0 2.655v0c0 0.725 0.357 1.399 0.946 1.809 0.051 0.035 0.103 0.069 0.157 0.101l11.948 6.895c0.682 0.394 1.523 0.394 2.205-0l11.945-6.899c0.053-0.030 0.103-0.063 0.152-0.098 0.591-0.41 0.95-1.085 0.95-1.813v0 0z"></path>
<path fill="#ffe15a" d="M8.035 23.866l7.125 4.112c0.521 0.3 1.162 0.3 1.682-0l7.121-4.113-7.964-7.865-7.965 7.866z"></path>
<path fill="#ffe15a" d="M22.911 7.526l-6.072-3.504c-0.52-0.3-1.162-0.3-1.682 0l-7.121 4.113 7.964 7.865 7.965-7.866-1.053-0.608z"></path>
<path fill="#73af00" d="M8.036 8.135l-1.99 1.149c-0.040 0.023-0.079 0.048-0.116 0.074-0.162 0.112-0.3 0.25-0.412 0.407-0.075 0.105-0.137 0.219-0.186 0.338-0.082 0.199-0.126 0.415-0.126 0.637l0 2.022 0 1.295 0.001 3.884v0.001l0 1.295 0 2.025v0c0 0.553 0.272 1.067 0.722 1.38 0.039 0.027 0.078 0.053 0.12 0.077l1.987 1.147 7.965-7.866-7.964-7.865z"></path>
<path fill="#73af00" d="M23.964 23.865l1.99-1.149c0.040-0.023 0.079-0.048 0.116-0.074 0.451-0.313 0.725-0.828 0.725-1.382l-0-2.022-0-1.295-0.001-3.885-0-1.295-0-2.025c0-0.148-0.020-0.293-0.057-0.432-0.020-0.075-0.045-0.148-0.075-0.219-0.122-0.29-0.325-0.544-0.589-0.728-0.039-0.027-0.078-0.053-0.12-0.077l-1.987-1.147-7.965 7.866 7.964 7.865z"></path>
<path fill="#ff4b55" d="M18.734 16c0 1.51-1.224 2.734-2.734 2.734s-2.734-1.224-2.734-2.734c0-1.51 1.224-2.734 2.734-2.734s2.734 1.224 2.734 2.734z"></path>
<path fill="#ffe15a" d="M16.173 13.997l0.428 1.282 1.351 0.010c0.175 0.001 0.247 0.225 0.107 0.329l-1.087 0.803 0.408 1.288c0.053 0.167-0.137 0.305-0.279 0.203l-1.099-0.786-1.099 0.786c-0.142 0.102-0.332-0.036-0.279-0.203l0.408-1.288-1.087-0.803c-0.141-0.104-0.068-0.327 0.107-0.329l1.351-0.010 0.428-1.282c0.055-0.166 0.29-0.166 0.345 0z"></path>
<path fill="#ffe15a" d="M16.082 1.246l0.202 0.606 0.639 0.005c0.083 0.001 0.117 0.106 0.050 0.155l-0.514 0.379 0.193 0.609c0.025 0.079-0.065 0.144-0.132 0.096l-0.52-0.371-0.52 0.371c-0.067 0.048-0.157-0.017-0.132-0.096l0.193-0.609-0.514-0.379c-0.067-0.049-0.032-0.155 0.050-0.155l0.639-0.005 0.202-0.606c0.026-0.079 0.137-0.079 0.163 0z"></path>
<path fill="#ffe15a" d="M23.275 4.995l0.202 0.606 0.639 0.005c0.083 0.001 0.117 0.106 0.050 0.155l-0.514 0.379 0.193 0.609c0.025 0.079-0.065 0.144-0.132 0.096l-0.52-0.371-0.52 0.371c-0.067 0.048-0.157-0.017-0.132-0.096l0.193-0.609-0.514-0.379c-0.067-0.049-0.032-0.155 0.050-0.155l0.639-0.005 0.202-0.606c0.026-0.079 0.137-0.079 0.163 0z"></path>
<path fill="#ffe15a" d="M8.889 4.995l0.202 0.606 0.639 0.005c0.083 0.001 0.117 0.106 0.050 0.155l-0.514 0.379 0.193 0.609c0.025 0.079-0.065 0.144-0.132 0.096l-0.52-0.371-0.52 0.371c-0.067 0.048-0.157-0.017-0.132-0.096l0.193-0.609-0.514-0.379c-0.067-0.049-0.032-0.155 0.050-0.155l0.639-0.005 0.202-0.606c0.026-0.079 0.137-0.079 0.163 0z"></path>
<path fill="#ffe15a" d="M16.082 28.946l0.202 0.606 0.639 0.005c0.083 0.001 0.117 0.106 0.050 0.155l-0.514 0.379 0.193 0.609c0.025 0.079-0.065 0.144-0.132 0.096l-0.52-0.371-0.52 0.371c-0.067 0.048-0.157-0.017-0.132-0.096l0.193-0.609-0.514-0.379c-0.067-0.049-0.032-0.155 0.050-0.155l0.639-0.005 0.202-0.606c0.026-0.078 0.137-0.078 0.163 0z"></path>
<path fill="#ffe15a" d="M23.275 25.197l0.202 0.606 0.639 0.005c0.083 0.001 0.117 0.106 0.050 0.155l-0.514 0.379 0.193 0.609c0.025 0.079-0.065 0.144-0.132 0.096l-0.52-0.371-0.52 0.371c-0.067 0.048-0.157-0.017-0.132-0.096l0.193-0.609-0.514-0.379c-0.067-0.049-0.032-0.155 0.050-0.155l0.639-0.005 0.202-0.606c0.026-0.078 0.137-0.078 0.163 0z"></path>
<path fill="#ffe15a" d="M8.889 25.119l0.202 0.606 0.639 0.005c0.083 0.001 0.117 0.106 0.050 0.155l-0.514 0.379 0.193 0.609c0.025 0.079-0.065 0.144-0.132 0.096l-0.52-0.371-0.52 0.371c-0.067 0.048-0.157-0.017-0.132-0.096l0.193-0.609-0.514-0.379c-0.067-0.049-0.032-0.155 0.050-0.155l0.639-0.005 0.202-0.606c0.026-0.078 0.137-0.078 0.163 0z"></path>
<path fill="#ffe15a" d="M8.541 14.633h-1.367v1.367c0 0.755 0.612 1.367 1.367 1.367s1.367-0.612 1.367-1.367c0-0.755-0.612-1.367-1.367-1.367z"></path>
<path fill="#ff4b55" d="M9.908 17.367l-0.751-0.146-0.616-1.221 1.221 0.616z"></path>
</svg>
