<!-- Generated by IcoMoon.io -->
<svg version="1.1" xmlns="http://www.w3.org/2000/svg" width="32" height="32" viewBox="0 0 32 32">
<title>guam</title>
<path fill="#ff4b55" d="M30.153 22.895l-0-2.651-0-1.698-0.001-5.093-0-1.698-0-2.655c-0-0.194-0.026-0.384-0.075-0.567-0.026-0.098-0.059-0.194-0.099-0.287-0.16-0.381-0.426-0.714-0.773-0.955-0.051-0.035-0.103-0.069-0.157-0.101l-11.947-6.895c-0.682-0.394-1.523-0.394-2.205 0l-11.945 6.899c-0.053 0.030-0.103 0.063-0.152 0.098-0.212 0.147-0.393 0.328-0.54 0.534-0.098 0.138-0.18 0.287-0.244 0.443-0.107 0.261-0.166 0.544-0.166 0.836l0 2.651 0 1.698 0.001 5.092v0.001l0 1.697 0 2.655v0c0 0.725 0.357 1.399 0.946 1.809 0.051 0.035 0.103 0.069 0.157 0.101l11.948 6.895c0.682 0.394 1.523 0.394 2.205-0l11.945-6.899c0.053-0.030 0.103-0.063 0.152-0.098 0.591-0.41 0.95-1.085 0.95-1.813v0 0z"></path>
<path fill="#41479b" d="M28.747 22.21l-0-2.387-0-1.529-0.001-4.587-0-1.529-0-2.392c0-0.175-0.024-0.346-0.068-0.511-0.024-0.088-0.053-0.175-0.089-0.259-0.145-0.343-0.384-0.643-0.696-0.86-0.046-0.032-0.093-0.063-0.141-0.091l-10.761-6.21c-0.615-0.355-1.372-0.355-1.986 0l-10.759 6.214c-0.047 0.027-0.093 0.057-0.137 0.088-0.191 0.132-0.354 0.296-0.486 0.481-0.088 0.124-0.162 0.258-0.22 0.399-0.097 0.235-0.149 0.49-0.149 0.753l0 2.387 0 1.529 0.001 4.587v0.001l0 1.529 0 2.391v0c0 0.653 0.322 1.26 0.852 1.629 0.046 0.032 0.093 0.063 0.141 0.091l10.761 6.21c0.615 0.355 1.372 0.355 1.986-0l10.759-6.214c0.047-0.027 0.093-0.057 0.137-0.088 0.533-0.369 0.856-0.978 0.856-1.633v0 0z"></path>
<path fill="#3cc8ff" d="M16.004 9.752c-2.375 1.249-3.976 4.225-3.976 6.248s1.601 4.999 3.976 6.248c2.375-1.249 3.976-4.225 3.976-6.248s-1.602-4.999-3.976-6.248z"></path>
<path fill="#73af00" d="M16.517 13.86c0.384-0.202 1.039-0.425 1.783-0.152 0 0-0.717-0.798-1.712-0.148 0.268-0.325 0.669-0.726 1.105-0.838 0 0-0.866-0.323-1.39 0.832 0.102-0.583 0.083-1.5-0.856-2.032 0 0 0.525 1.127 0.577 2.062-0.031-0.166-0.092-0.339-0.253-0.507-0.496-0.518-0.928-0.561-0.928-0.561s0.688 0.763 1.027 1.485c-0.195-0.233-0.538-0.532-1.091-0.513-1.295 0.043-1.576 0.82-1.576 0.82 0.537-0.226 1.389-0.339 2.050-0.283-0.853 0.15-1.156 1.213-1.156 1.213 0.685-0.854 1.432-0.993 1.731-1.013-0.545 0.451-0.512 1.281-0.512 1.281 0.127-0.467 0.617-1 0.857-1.239 0.644 0.697 0.72 1.48 0.72 1.48s0.141-0.236 0.076-0.715c-0.061-0.453-0.346-0.75-0.562-0.925 1.137 0.157 1.879 0.981 1.879 0.981-0.372-1.085-1.303-1.227-1.767-1.227z"></path>
<path fill="#ff965a" d="M14.735 17.51l0.573-0.989 4.706-0.104-0.312 1.302z"></path>
<path fill="#4173cd" d="M12.2 17.25c0.472 1.851 1.885 3.989 3.804 4.999 1.92-1.010 3.333-3.148 3.805-4.999h-7.609z"></path>
<path fill="#ffe15a" d="M12.88 19.124c0 0 1.363-0.067 2.182 0.269 0.204 0.084 0.231 0.36 0.046 0.482-0.399 0.262-0.978 0.714-0.978 1.124l-1.25-1.875z"></path>
<path fill="#ffe15a" d="M15.275 21.623c-0.052-0.521 0.409-0.899 1.041-1.146 0.82-0.319 0.371-0.827-0.039-1.159-0.489-0.396 0.143-0.508 2.799-0.56l-1.302 2.031-1.77 1.458-0.729-0.625z"></path>
<path fill="#ff4b55" d="M16.004 22.602l-0.146-0.077c-2.478-1.303-4.143-4.426-4.143-6.525s1.665-5.221 4.143-6.525l0.145-0.077 0.145 0.077c2.478 1.303 4.143 4.426 4.143 6.525s-1.665 5.221-4.143 6.525l-0.145 0.077zM16.004 10.107c-2.198 1.241-3.664 4.017-3.664 5.892s1.466 4.651 3.664 5.892c2.198-1.241 3.664-4.017 3.664-5.892s-1.466-4.651-3.664-5.892z"></path>
<path fill="#a54b37" d="M17.332 19.567c-0.029 0-0.057-0.008-0.083-0.024-0.849-0.534-1.336-1.417-1.336-2.423v-2.877c0-0.086 0.070-0.156 0.156-0.156s0.156 0.070 0.156 0.156v2.877c0 0.897 0.434 1.683 1.189 2.159 0.073 0.046 0.095 0.142 0.049 0.215-0.030 0.047-0.080 0.073-0.132 0.073z"></path>
<path fill="#a54b37" d="M16.411 14.252c0 0.189-0.153 0.342-0.342 0.342s-0.342-0.153-0.342-0.342c0-0.189 0.153-0.342 0.342-0.342s0.342 0.153 0.342 0.342z"></path>
</svg>
