<!-- Generated by IcoMoon.io -->
<svg version="1.1" xmlns="http://www.w3.org/2000/svg" width="32" height="32" viewBox="0 0 32 32">
<title>guatemala</title>
<path fill="#f5f5f5" d="M1.849 22.9l-0.002-13.795c-0-0.788 0.42-1.516 1.102-1.91l11.945-6.899c0.682-0.394 1.523-0.394 2.205-0l11.948 6.895c0.683 0.394 1.103 1.122 1.103 1.91l0.002 13.795c0 0.788-0.42 1.516-1.102 1.91l-11.945 6.899c-0.682 0.394-1.523 0.394-2.205 0l-11.947-6.895c-0.683-0.394-1.103-1.122-1.103-1.91z"></path>
<path fill="#82afff" d="M2.949 7.195c-0.682 0.394-1.103 1.122-1.102 1.91l0.002 13.795c0 0.788 0.421 1.516 1.103 1.91l7.008 4.044v-25.708l-7.011 4.049z"></path>
<path fill="#82afff" d="M29.051 24.805c0.682-0.394 1.102-1.122 1.102-1.91l-0.002-13.795c-0-0.788-0.421-1.516-1.103-1.91l-7.008-4.044v25.708l7.011-4.049z"></path>
<path fill="#ffc855" d="M15.842 12.893l-0.358 0.179 0.33 0.136z"></path>
<path fill="#73af00" d="M16 19.514c-1.991 0-3.611-1.62-3.611-3.611 0-1.237 0.623-2.375 1.666-3.043l0.093 0.145c-0.993 0.637-1.586 1.72-1.586 2.898 0 1.897 1.543 3.44 3.439 3.44l0 0.172z"></path>
<path fill="#73af00" d="M13.933 19.74c0.138 0.028 0.35-0.008 0.568-0.11s0.382-0.241 0.449-0.364c-0.138-0.028-0.35 0.008-0.568 0.11s-0.382 0.241-0.449 0.364z"></path>
<path fill="#73af00" d="M14.95 19.266c0.028-0.138-0.008-0.35-0.11-0.568s-0.241-0.382-0.364-0.449c-0.028 0.138 0.008 0.35 0.11 0.568s0.241 0.382 0.364 0.449z"></path>
<path fill="#73af00" d="M13.214 19.298c0.132 0.048 0.347 0.043 0.578-0.025s0.414-0.182 0.498-0.294c-0.132-0.048-0.347-0.043-0.578 0.025s-0.413 0.182-0.498 0.294z"></path>
<path fill="#73af00" d="M14.29 18.979c0.048-0.132 0.043-0.347-0.025-0.578s-0.182-0.414-0.294-0.498c-0.048 0.132-0.043 0.347 0.025 0.578s0.182 0.414 0.294 0.498z"></path>
<path fill="#73af00" d="M12.548 18.696c0.121 0.071 0.334 0.105 0.573 0.079s0.44-0.105 0.543-0.2c-0.121-0.071-0.334-0.105-0.573-0.079s-0.439 0.105-0.543 0.2z"></path>
<path fill="#73af00" d="M13.664 18.575c0.071-0.121 0.105-0.334 0.079-0.573s-0.105-0.44-0.2-0.543c-0.071 0.121-0.105 0.334-0.079 0.573s0.105 0.439 0.2 0.543z"></path>
<path fill="#73af00" d="M11.998 17.864c0.107 0.091 0.31 0.162 0.55 0.179s0.451-0.025 0.57-0.101c-0.107-0.091-0.31-0.162-0.55-0.179s-0.451 0.025-0.57 0.101z"></path>
<path fill="#73af00" d="M13.118 17.943c0.091-0.107 0.162-0.31 0.179-0.55s-0.025-0.451-0.101-0.57c-0.091 0.107-0.162 0.31-0.179 0.55s0.025 0.451 0.101 0.57z"></path>
<path fill="#73af00" d="M11.676 16.948c0.085 0.112 0.269 0.224 0.5 0.291s0.446 0.070 0.578 0.021c-0.085-0.112-0.269-0.224-0.5-0.291s-0.446-0.070-0.578-0.021z"></path>
<path fill="#73af00" d="M12.754 17.26c0.112-0.085 0.224-0.269 0.291-0.5s0.070-0.446 0.021-0.578c-0.112 0.085-0.224 0.269-0.291 0.5s-0.070 0.446-0.021 0.578z"></path>
<path fill="#73af00" d="M11.54 15.879c0.054 0.13 0.202 0.286 0.408 0.41s0.413 0.183 0.553 0.169c-0.054-0.13-0.202-0.286-0.408-0.41s-0.413-0.183-0.553-0.169z"></path>
<path fill="#73af00" d="M12.501 16.458c0.13-0.054 0.286-0.202 0.41-0.408s0.183-0.413 0.169-0.553c-0.13 0.054-0.286 0.202-0.41 0.408s-0.182 0.413-0.169 0.553z"></path>
<path fill="#73af00" d="M11.669 14.869c0.025 0.138 0.138 0.322 0.313 0.486s0.366 0.265 0.505 0.281c-0.025-0.138-0.138-0.322-0.313-0.486s-0.366-0.265-0.505-0.281z"></path>
<path fill="#73af00" d="M12.488 15.637c0.138-0.025 0.322-0.138 0.486-0.313s0.265-0.366 0.281-0.505c-0.138 0.025-0.322 0.138-0.486 0.313s-0.265 0.366-0.281 0.505z"></path>
<path fill="#73af00" d="M12.176 13.776c-0.029 0.137 0.006 0.35 0.106 0.569s0.238 0.384 0.361 0.452c0.029-0.137-0.006-0.35-0.106-0.569s-0.238-0.384-0.361-0.452z"></path>
<path fill="#73af00" d="M12.644 14.797c0.137 0.029 0.35-0.006 0.569-0.106s0.384-0.238 0.452-0.361c-0.137-0.029-0.35 0.006-0.569 0.106s-0.384 0.238-0.452 0.361z"></path>
<path fill="#73af00" d="M12.783 12.967c-0.065 0.125-0.088 0.339-0.051 0.576s0.126 0.434 0.227 0.532c0.065-0.125 0.088-0.339 0.051-0.576s-0.126-0.434-0.227-0.532z"></path>
<path fill="#73af00" d="M12.959 14.075c0.125 0.065 0.339 0.088 0.576 0.051s0.434-0.126 0.532-0.227c-0.125-0.065-0.339-0.088-0.576-0.051s-0.434 0.126-0.532 0.227z"></path>
<path fill="#73af00" d="M13.378 12.404c-0.082 0.114-0.137 0.322-0.135 0.563s0.061 0.448 0.146 0.56c0.082-0.114 0.137-0.322 0.135-0.563s-0.061-0.448-0.146-0.56z"></path>
<path fill="#73af00" d="M13.389 13.526c0.114 0.082 0.322 0.137 0.563 0.135s0.448-0.061 0.56-0.146c-0.114-0.082-0.322-0.137-0.563-0.135s-0.448 0.061-0.56 0.146z"></path>
<path fill="#73af00" d="M13.677 13.231c0.14 0.011 0.346-0.050 0.551-0.177s0.351-0.285 0.403-0.415c-0.14-0.011-0.346 0.050-0.551 0.177s-0.351 0.285-0.403 0.415z"></path>
<path fill="#73af00" d="M16 19.514v-0.172c1.896 0 3.439-1.543 3.439-3.439 0-1.178-0.593-2.262-1.586-2.898l0.093-0.145c1.043 0.668 1.666 1.806 1.666 3.043 0 1.992-1.62 3.612-3.611 3.612z"></path>
<path fill="#73af00" d="M18.067 19.74c-0.138 0.028-0.35-0.008-0.568-0.11s-0.382-0.241-0.449-0.364c0.138-0.028 0.35 0.008 0.568 0.11s0.382 0.241 0.449 0.364z"></path>
<path fill="#73af00" d="M17.050 19.266c-0.028-0.138 0.008-0.35 0.11-0.568s0.241-0.382 0.364-0.449c0.028 0.138-0.008 0.35-0.11 0.568s-0.241 0.382-0.364 0.449z"></path>
<path fill="#73af00" d="M18.786 19.298c-0.132 0.048-0.347 0.043-0.578-0.025s-0.414-0.182-0.498-0.294c0.132-0.048 0.347-0.043 0.578 0.025s0.414 0.182 0.498 0.294z"></path>
<path fill="#73af00" d="M17.71 18.979c-0.048-0.132-0.043-0.347 0.025-0.578s0.182-0.414 0.294-0.498c0.048 0.132 0.043 0.347-0.025 0.578s-0.182 0.414-0.294 0.498z"></path>
<path fill="#73af00" d="M19.452 18.696c-0.121 0.071-0.334 0.105-0.573 0.079s-0.44-0.105-0.543-0.2c0.121-0.071 0.334-0.105 0.573-0.079s0.44 0.105 0.543 0.2z"></path>
<path fill="#73af00" d="M18.336 18.575c-0.071-0.121-0.105-0.334-0.079-0.573s0.105-0.44 0.2-0.543c0.071 0.121 0.105 0.334 0.079 0.573s-0.105 0.439-0.2 0.543z"></path>
<path fill="#73af00" d="M20.002 17.864c-0.107 0.091-0.31 0.162-0.55 0.179s-0.451-0.025-0.57-0.101c0.107-0.091 0.31-0.162 0.55-0.179s0.451 0.025 0.57 0.101z"></path>
<path fill="#73af00" d="M18.883 17.943c-0.091-0.107-0.162-0.31-0.179-0.55s0.025-0.451 0.101-0.57c0.091 0.107 0.162 0.31 0.179 0.55s-0.025 0.451-0.101 0.57z"></path>
<path fill="#73af00" d="M20.324 16.948c-0.085 0.112-0.269 0.224-0.5 0.291s-0.446 0.070-0.578 0.021c0.085-0.112 0.269-0.224 0.5-0.291s0.446-0.070 0.578-0.021z"></path>
<path fill="#73af00" d="M19.246 17.26c-0.112-0.085-0.224-0.269-0.291-0.5s-0.070-0.446-0.021-0.578c0.112 0.085 0.224 0.269 0.291 0.5s0.070 0.446 0.021 0.578z"></path>
<path fill="#73af00" d="M20.461 15.879c-0.054 0.13-0.202 0.286-0.408 0.41s-0.413 0.183-0.553 0.169c0.054-0.13 0.202-0.286 0.408-0.41s0.413-0.183 0.553-0.169z"></path>
<path fill="#73af00" d="M19.499 16.458c-0.13-0.054-0.286-0.202-0.41-0.408s-0.183-0.413-0.169-0.553c0.13 0.054 0.286 0.202 0.41 0.408s0.183 0.413 0.169 0.553z"></path>
<path fill="#73af00" d="M20.331 14.869c-0.025 0.138-0.138 0.322-0.313 0.486s-0.366 0.265-0.505 0.281c0.025-0.138 0.138-0.322 0.313-0.486s0.366-0.265 0.505-0.281z"></path>
<path fill="#73af00" d="M19.513 15.637c-0.138-0.025-0.322-0.138-0.486-0.313s-0.265-0.366-0.282-0.505c0.138 0.025 0.322 0.138 0.486 0.313s0.265 0.366 0.282 0.505z"></path>
<path fill="#73af00" d="M19.824 13.776c0.029 0.137-0.006 0.35-0.106 0.569s-0.238 0.384-0.361 0.452c-0.029-0.137 0.006-0.35 0.106-0.569s0.238-0.384 0.361-0.452z"></path>
<path fill="#73af00" d="M19.357 14.797c-0.137 0.029-0.35-0.006-0.569-0.106s-0.384-0.238-0.452-0.361c0.137-0.029 0.35 0.006 0.569 0.106s0.384 0.238 0.452 0.361z"></path>
<path fill="#73af00" d="M19.217 12.967c0.065 0.125 0.088 0.339 0.051 0.576s-0.126 0.434-0.227 0.532c-0.065-0.125-0.088-0.339-0.051-0.576s0.126-0.434 0.227-0.532z"></path>
<path fill="#73af00" d="M19.041 14.075c-0.125 0.065-0.339 0.088-0.576 0.051s-0.434-0.126-0.532-0.227c0.125-0.065 0.339-0.088 0.576-0.051s0.434 0.126 0.532 0.227z"></path>
<path fill="#73af00" d="M18.622 12.404c0.082 0.114 0.137 0.322 0.135 0.563s-0.061 0.448-0.146 0.56c-0.082-0.114-0.137-0.322-0.135-0.563s0.061-0.448 0.146-0.56z"></path>
<path fill="#73af00" d="M18.612 13.526c-0.114 0.082-0.322 0.137-0.563 0.135s-0.448-0.061-0.56-0.146c0.114-0.082 0.322-0.137 0.563-0.135s0.448 0.061 0.56 0.146z"></path>
<path fill="#73af00" d="M18.323 13.231c-0.14 0.011-0.346-0.050-0.551-0.177s-0.351-0.285-0.403-0.415c0.14-0.011 0.346 0.050 0.551 0.177s0.351 0.285 0.403 0.415z"></path>
<path fill="#966446" d="M14.028 18.715l-0.626 0.626-0.309-0.617 0.926-0.926 0.309 0.309-0.089 0.267c-0.043 0.129-0.115 0.245-0.211 0.341z"></path>
<path fill="#b9b9b9" d="M17.415 14.093l-3.396 3.396c-0.085 0.085-0.085 0.223 0 0.309l0.154 0.154 0.617-0.617 2.47-2.778 0.309-0.309-0.154-0.154z"></path>
<path fill="#966446" d="M14.855 16.962c-0.041 0.041-0.064 0.096-0.064 0.154v0.218l2.47-2.778-2.406 2.406z"></path>
<path fill="#a0a0a0" d="M17.57 14.247l-0.154-0.154-0.154 0.154 0.309 0.309 1.698-2.007z"></path>
<path fill="#966446" d="M18.144 18.715l0.626 0.626 0.309-0.617-0.926-0.926-0.309 0.309 0.089 0.267c0.043 0.129 0.115 0.245 0.211 0.341z"></path>
<path fill="#b9b9b9" d="M14.757 14.093l3.396 3.396c0.085 0.085 0.085 0.223 0 0.309l-0.154 0.154-0.617-0.617-2.47-2.778-0.309-0.309 0.154-0.154z"></path>
<path fill="#966446" d="M17.317 16.962c0.041 0.041 0.064 0.096 0.064 0.154v0.218l-2.47-2.778 2.406 2.406z"></path>
<path fill="#a0a0a0" d="M14.602 14.247l0.154-0.154 0.154 0.154-0.309 0.309-1.698-2.007z"></path>
<path fill="#b9b9b9" d="M14.819 18.586l0.153 0.14c0.56-0.613 1.539-1.687 3.091-3.081 0 0-1.286 0.794-3.245 2.941z"></path>
<path fill="#ffe15a" d="M14.385 19.216v0c-0.055-0.050-0.059-0.136-0.009-0.191l0.329-0.36c0.050-0.055 0.136-0.059 0.191-0.009v0c0.055 0.050 0.059 0.136 0.009 0.191l-0.329 0.36c-0.050 0.055-0.136 0.059-0.191 0.009z"></path>
<path fill="#ffc855" d="M14.695 18.473l-0.089 0.040c-0.079 0.039-0.288 0.157-0.323 0.325-0.017 0.080 0.007 0.157 0.069 0.23 0.006-0.015 0.014-0.030 0.026-0.043l0.041-0.045c-0.028-0.041-0.043-0.081-0.034-0.121 0.023-0.105 0.163-0.199 0.251-0.245l0.394 0.359 0.098-0.107-0.431-0.393z"></path>
<path fill="#b9b9b9" d="M17.351 18.756l-0.153 0.14c-0.56-0.613-1.539-1.687-3.091-3.081 0 0 1.286 0.794 3.245 2.941z"></path>
<path fill="#ffe15a" d="M17.785 19.386v0c0.055-0.050 0.059-0.136 0.009-0.191l-0.329-0.36c-0.050-0.055-0.136-0.059-0.191-0.009v0c-0.055 0.050-0.059 0.136-0.009 0.191l0.329 0.36c0.050 0.055 0.136 0.059 0.191 0.009z"></path>
<path fill="#ffc855" d="M17.476 18.642l0.089 0.040c0.079 0.039 0.288 0.157 0.323 0.325 0.017 0.080-0.007 0.157-0.069 0.23-0.006-0.015-0.014-0.030-0.026-0.043l-0.041-0.045c0.028-0.041 0.043-0.081 0.034-0.121-0.023-0.105-0.163-0.199-0.251-0.245l-0.394 0.359-0.098-0.107 0.431-0.393z"></path>
<path fill="#69b469" d="M16.153 13.076c0.012-0.030 0.019-0.062 0.019-0.096 0-0.142-0.116-0.258-0.258-0.258s-0.258 0.116-0.258 0.258c0 0.085 0.042 0.16 0.105 0.207-0.093 0.749 0.645 0.806 0.927 0.911 0.427 0.159 0.963 0.48 0.929 1.379-0.033 0.874-0.585 1.716-0.585 1.716l0.459-0.623c-0.168 0.709-0.559 1.613-1.49 2.687 0 0 0.637-0.623 1.168-1.426-0.391 0.92-0.824 1.77-0.824 1.77s0.767-0.996 1.387-2.719c0.752-2.089-0.829-3.345-1.577-3.805z"></path>
<path fill="#f4e08f" d="M14.796 16.161h0.688v0.344h-0.688v-0.344z"></path>
<path fill="#ecd077" d="M15.14 16.505c0 0.19-0.154 0.344-0.344 0.344s-0.344-0.154-0.344-0.344c0-0.19 0.154-0.344 0.344-0.344s0.344 0.154 0.344 0.344z"></path>
<path fill="#ecd077" d="M15.14 14.269c0 0.19-0.154 0.344-0.344 0.344s-0.344-0.154-0.344-0.344c0-0.19 0.154-0.344 0.344-0.344s0.344 0.154 0.344 0.344z"></path>
<path fill="#fcf0a8" d="M16.86 14.613c0.19 0 0.344-0.154 0.344-0.344s-0.154-0.344-0.344-0.344h-2.064c0.19 0 0.344 0.154 0.344 0.344s-0.154 0.344-0.344 0.344c-0.19 0-0.344-0.154-0.344-0.344 0 0.577 0.483 1.275 0.639 1.892 0 0 0.049 0.154 0.049 0.344s-0.154 0.344-0.344 0.344h2.064c0.19 0 0.344-0.154 0.344-0.344 0-0.577-0.483-1.275-0.639-1.892h0.295z"></path>
<path fill="#f4e08f" d="M15.14 14.269c0 0.19-0.154 0.344-0.344 0.344h2.064c0.19 0 0.344-0.154 0.344-0.344h-2.064z"></path>
<path fill="#f4e08f" d="M15.14 16.505c0 0.19-0.154 0.344-0.344 0.344h2.064c0.19 0 0.344-0.154 0.344-0.344h-2.064z"></path>
</svg>
