<svg xmlns="http://www.w3.org/2000/svg" width="32" height="32" version="1.1" viewBox="0 0 32 32"><title>guinea-bissau</title><path fill="#ff4b55" d="M16.547 16l-3.764-14.485-9.834 5.68c-0.053 0.030-0.103 0.063-0.152 0.098-0.592 0.41-0.95 1.085-0.95 1.813l0 2.651 0 1.698 0.001 5.093 0 1.698 0 2.655c0 0.725 0.357 1.399 0.946 1.809 0.051 0.035 0.103 0.069 0.157 0.101l9.831 5.674 3.764-14.483z"/><path fill="#ffe15a" d="M30.151 11.756l-0-2.655c-0-0.725-0.357-1.399-0.946-1.809-0.051-0.035-0.103-0.069-0.157-0.101l-11.948-6.895c-0.682-0.394-1.523-0.394-2.205 0l-2.112 1.22v14.485l8.919 2.733 8.45-2.733-0-2.547-0-1.698z"/><path fill="#73af00" d="M14.125 31.258l0.774 0.447c0.682 0.394 1.523 0.394 2.205-0l11.945-6.899c0.053-0.030 0.103-0.063 0.152-0.098 0.592-0.41 0.95-1.085 0.95-1.813l-0-2.651-0-1.698-0-2.547h-17.369v14.483l1.343 0.775z"/><path fill="#464655" d="M7.039 12.883l-0.689 2.065-2.177 0.017c-0.119 0.001-0.169 0.153-0.073 0.224l1.751 1.293-0.657 2.076c-0.036 0.114 0.094 0.208 0.191 0.139l1.771-1.266 1.771 1.266c0.097 0.069 0.227-0.025 0.191-0.139l-0.657-2.076 1.751-1.293c0.096-0.071 0.047-0.223-0.073-0.224l-2.177-0.017-0.689-2.065c-0.038-0.113-0.198-0.113-0.236 0z"/></svg>