<svg xmlns="http://www.w3.org/2000/svg" width="32" height="32" version="1.1" viewBox="0 0 32 32"><title>hawaii</title><path fill="#f5f5f5" d="M29.204 7.291c-0.051-0.035-0.103-0.069-0.157-0.101l-5.848-3.375h-14.4l-5.851 3.379c-0.053 0.030-0.103 0.063-0.152 0.098-0.228 0.158-0.421 0.356-0.573 0.581h27.553c-0.151-0.225-0.344-0.424-0.572-0.583z"/><path fill="#f5f5f5" d="M30.152 15.986l-0-2.533-0-1.517h-28.304l0 1.517 0 2.533h1.499z"/><path fill="#f5f5f5" d="M2.795 24.709c0.051 0.035 0.103 0.069 0.157 0.101l5.856 3.38h14.383l5.859-3.384c0.053-0.030 0.103-0.063 0.152-0.098 0.228-0.158 0.421-0.356 0.573-0.581h-27.553c0.151 0.225 0.344 0.424 0.572 0.583z"/><path fill="#f5f5f5" d="M19.124 1.463l-2.024-1.168c-0.682-0.394-1.523-0.394-2.205 0l-6.095 3.52h14.4l-4.076-2.352z"/><path fill="#f5f5f5" d="M1.849 20.049h-0z"/><path fill="#41479b" d="M6.001 16l3.595 0.547 4.124-0.547-7.719-8.125z"/><path fill="#41479b" d="M30.151 11.937v-0.181l-0-2.655c-0-0.445-0.135-0.87-0.374-1.227h-13.776v-1.246h-6.622l6.622 6.971v-1.662h14.151z"/><path fill="#41479b" d="M30.152 20.244v-0.181l-14.153-0.627-14.151 0.627v0.181l0 2.655c0 0.445 0.135 0.87 0.374 1.227h27.553c0.241-0.358 0.377-0.785 0.377-1.231l-0-2.651z"/><path fill="#ff4b55" d="M12.876 30.537l2.024 1.168c0.682 0.394 1.523 0.394 2.205-0l6.086-3.515h-14.383l4.067 2.347z"/><path fill="#ff4b55" d="M12.876 1.462l-6.626 3.827h9.751v-4.017h-2.796z"/><path fill="#ff4b55" d="M30.152 18.547l-0-2.56h-24.984v-10.073l-2.218 1.281c-0.053 0.030-0.103 0.063-0.152 0.098-0.045 0.031-0.087 0.064-0.129 0.098v8.596h-0.82l0 2.56 0 1.503h28.304l-0-1.503z"/><path fill="#ff4b55" d="M15.514 15.87c0.265-0.198 0.448-0.613 0.473-1.103l-7.803-8.138h-1.53l8.861 9.242z"/></svg>