<!-- Generated by IcoMoon.io -->
<svg version="1.1" xmlns="http://www.w3.org/2000/svg" width="32" height="32" viewBox="0 0 32 32">
<title>honduras</title>
<path fill="#f5f5f5" d="M1.849 22.9l-0.002-13.795c-0-0.788 0.42-1.516 1.102-1.91l11.945-6.899c0.682-0.394 1.523-0.394 2.205-0l11.948 6.895c0.682 0.394 1.103 1.122 1.103 1.91l0.002 13.795c0 0.788-0.42 1.516-1.102 1.91l-11.945 6.899c-0.682 0.394-1.523 0.394-2.205 0l-11.947-6.895c-0.683-0.394-1.103-1.122-1.103-1.91z"></path>
<path fill="#4173cd" d="M30.151 9.1c-0-0.788-0.421-1.516-1.103-1.91l-11.948-6.895c-0.682-0.394-1.523-0.394-2.205 0l-11.945 6.899c-0.682 0.394-1.103 1.122-1.102 1.91l0 1.505h28.304l-0-1.51z"></path>
<path fill="#4173cd" d="M1.849 22.9c0 0.788 0.421 1.516 1.103 1.91l11.948 6.895c0.682 0.394 1.523 0.394 2.205-0l11.945-6.899c0.682-0.394 1.102-1.122 1.102-1.91l-0-1.505h-28.304l0 1.51z"></path>
<path fill="#4173cd" d="M15.364 16.307l-0.267 0.844c-0.035 0.109 0.090 0.2 0.183 0.133l0.72-0.515 0.721 0.515c0.093 0.067 0.218-0.024 0.183-0.133l-0.267-0.844 0.712-0.526c0.092-0.068 0.045-0.214-0.070-0.215l-0.886-0.007-0.28-0.84c-0.036-0.109-0.19-0.109-0.226 0l-0.28 0.84-0.886 0.007c-0.115 0.001-0.162 0.147-0.070 0.215l0.713 0.526z"></path>
<path fill="#4173cd" d="M9.282 17.821l-0.886-0.007-0.28-0.84c-0.036-0.109-0.19-0.109-0.226 0l-0.28 0.84-0.886 0.007c-0.115 0.001-0.162 0.147-0.070 0.215l0.712 0.526-0.267 0.844c-0.035 0.109 0.090 0.2 0.183 0.133l0.72-0.515 0.72 0.515c0.093 0.067 0.218-0.024 0.183-0.133l-0.267-0.844 0.712-0.526c0.092-0.068 0.045-0.214-0.070-0.215z"></path>
<path fill="#4173cd" d="M7.366 14.052l-0.267 0.844c-0.035 0.109 0.090 0.2 0.183 0.133l0.72-0.515 0.72 0.515c0.093 0.067 0.218-0.024 0.183-0.133l-0.267-0.844 0.712-0.526c0.092-0.068 0.045-0.214-0.070-0.215l-0.886-0.007-0.28-0.84c-0.036-0.109-0.19-0.109-0.226 0l-0.28 0.84-0.886 0.007c-0.115 0.001-0.162 0.147-0.070 0.215l0.713 0.526z"></path>
<path fill="#4173cd" d="M23.361 18.562l-0.267 0.844c-0.035 0.109 0.090 0.2 0.183 0.133l0.721-0.515 0.721 0.515c0.093 0.067 0.218-0.024 0.183-0.133l-0.267-0.844 0.712-0.526c0.092-0.068 0.045-0.214-0.070-0.215l-0.886-0.007-0.28-0.84c-0.036-0.109-0.19-0.109-0.226 0l-0.28 0.84-0.886 0.007c-0.115 0.001-0.162 0.147-0.070 0.215l0.713 0.526z"></path>
<path fill="#4173cd" d="M23.361 14.052l-0.267 0.844c-0.035 0.109 0.090 0.2 0.183 0.133l0.721-0.515 0.721 0.515c0.093 0.067 0.218-0.024 0.183-0.133l-0.267-0.844 0.712-0.526c0.092-0.068 0.045-0.214-0.070-0.215l-0.886-0.007-0.28-0.84c-0.036-0.109-0.19-0.109-0.226 0l-0.28 0.84-0.886 0.007c-0.115 0.001-0.162 0.147-0.070 0.215l0.713 0.526z"></path>
</svg>
