<svg xmlns="http://www.w3.org/2000/svg" width="32" height="32" version="1.1" viewBox="0 0 32 32"><title>hong-kong</title><path fill="#ff4b55" d="M1.849 22.9l-0.002-13.795c-0-0.788 0.42-1.516 1.102-1.91l11.945-6.899c0.682-0.394 1.523-0.394 2.205-0l11.948 6.895c0.682 0.394 1.103 1.122 1.103 1.91l0.002 13.795c0 0.788-0.42 1.516-1.102 1.91l-11.945 6.899c-0.682 0.394-1.523 0.394-2.205 0l-11.947-6.895c-0.683-0.394-1.103-1.122-1.103-1.91z"/><path fill="#f5f5f5" d="M13.908 16.857c-0.738 0.008-1.567-0.229-2.294-1.030-0.050-0.055-0.043-0.142 0.014-0.19l0-0c0.055-0.047 0.137-0.040 0.186 0.014 1.107 1.216 2.48 1.003 3.3 0.709-0.303 0.014-0.684-0.009-0.928-0.17-1.023-0.672-0.56-1.388-1.239-2.252-0.675-0.859-1.282-0.838-2.239-0.693-0.947 0.143-1.248-0.551-1.342-0.936-0.017-0.069-0.113-0.073-0.138-0.007-1.18 3.188 2.368 7.133 6.011 4.297-0.359 0.132-0.822 0.254-1.331 0.259zM11.25 15.775c-0.021 0.057-0.102 0.055-0.12-0.003l-0.136-0.448-0.468-0.016c-0.060-0.002-0.084-0.080-0.034-0.115l0.384-0.268-0.129-0.45c-0.017-0.058 0.050-0.104 0.099-0.068l0.373 0.282 0.388-0.262c0.050-0.034 0.115 0.016 0.095 0.073l-0.153 0.442 0.369 0.288c0.048 0.037 0.021 0.114-0.040 0.113l-0.468-0.009-0.16 0.44z"/><path fill="#f5f5f5" d="M16.522 14.739c0.586-0.449 1.392-0.757 2.453-0.552 0.073 0.014 0.12 0.088 0.103 0.161l-0 0c-0.016 0.071-0.086 0.114-0.157 0.1-1.615-0.309-2.586 0.684-3.066 1.411 0.234-0.192 0.553-0.403 0.845-0.421 1.222-0.075 1.28 0.775 2.342 1.059 1.055 0.283 1.529-0.098 2.207-0.788 0.672-0.683 1.329-0.308 1.636-0.056 0.055 0.045 0.134-0.009 0.114-0.077-0.968-3.259-6.173-4.288-7.387 0.167 0.208-0.321 0.506-0.696 0.91-1.005zM19.298 14.011c-0.018-0.058 0.049-0.105 0.098-0.069l0.377 0.277 0.384-0.267c0.050-0.035 0.115 0.014 0.096 0.072l-0.147 0.444 0.373 0.283c0.048 0.037 0.022 0.114-0.038 0.113l-0.468-0.002-0.154 0.442c-0.020 0.057-0.101 0.056-0.12-0.002l-0.143-0.446-0.468-0.009c-0.061-0.001-0.085-0.079-0.036-0.114l0.38-0.273-0.136-0.448z"/><path fill="#f5f5f5" d="M14.567 15.046c-0.288-0.68-0.385-1.537 0.079-2.513 0.032-0.067 0.115-0.094 0.181-0.060l0 0c0.064 0.033 0.089 0.112 0.058 0.177-0.703 1.487 0.016 2.675 0.6 3.322-0.128-0.275-0.252-0.636-0.196-0.923 0.232-1.202 1.070-1.045 1.611-2.003 0.538-0.951 0.287-1.505-0.211-2.334-0.493-0.821 0.035-1.364 0.355-1.598 0.057-0.042 0.025-0.133-0.046-0.13-3.398 0.122-5.696 4.905-1.686 7.194-0.259-0.282-0.547-0.664-0.746-1.132zM14.556 12.176c-0.060 0.002-0.089-0.073-0.043-0.112l0.362-0.296-0.163-0.439c-0.021-0.057 0.042-0.108 0.093-0.075l0.394 0.253 0.367-0.29c0.047-0.038 0.116 0.007 0.1 0.066l-0.119 0.453 0.39 0.259c0.050 0.034 0.029 0.112-0.031 0.115l-0.467 0.027-0.126 0.451c-0.016 0.058-0.098 0.062-0.12 0.006l-0.17-0.436-0.468 0.019z"/><path fill="#f5f5f5" d="M17.214 16.589c0.61 0.416 1.156 1.083 1.294 2.156 0.009 0.074-0.046 0.141-0.12 0.148h-0c-0.072 0.007-0.135-0.046-0.144-0.118-0.214-1.631-1.462-2.24-2.303-2.468 0.256 0.162 0.556 0.398 0.665 0.67 0.455 1.136-0.334 1.458-0.27 2.556 0.063 1.091 0.574 1.421 1.441 1.848 0.859 0.423 0.71 1.166 0.567 1.535-0.026 0.066 0.051 0.125 0.109 0.084 2.79-1.942 2.132-7.208-2.478-6.961 0.371 0.097 0.82 0.262 1.24 0.548zM18.778 18.996c0.049-0.035 0.115 0.013 0.096 0.071l-0.144 0.445 0.375 0.281c0.049 0.036 0.023 0.113-0.038 0.113l-0.468 0-0.151 0.443c-0.020 0.057-0.101 0.057-0.12-0.001l-0.145-0.445-0.468-0.007c-0.061-0.001-0.085-0.078-0.036-0.114l0.378-0.275-0.138-0.447c-0.018-0.058 0.048-0.105 0.097-0.070l0.379 0.275 0.383-0.27z"/><path fill="#f5f5f5" d="M15.688 17.912c-0.21 0.708-0.68 1.43-1.66 1.889-0.068 0.032-0.149-0.001-0.178-0.069l-0-0c-0.028-0.067 0.003-0.142 0.068-0.173 1.488-0.7 1.689-2.074 1.65-2.945-0.076 0.294-0.21 0.651-0.436 0.837-0.944 0.779-1.491 0.126-2.517 0.521-1.020 0.392-1.179 0.979-1.322 1.935-0.142 0.947-0.894 1.031-1.29 1.007-0.071-0.004-0.103 0.086-0.047 0.13 2.699 2.067 7.515-0.162 5.877-4.479 0.021 0.382 0 0.86-0.145 1.348zM13.871 20.134c0.048 0.037 0.022 0.114-0.038 0.113l-0.468-0.002-0.153 0.442c-0.020 0.057-0.101 0.056-0.12-0.002l-0.143-0.446-0.468-0.009c-0.060-0.001-0.085-0.079-0.036-0.114l0.38-0.273-0.136-0.448c-0.018-0.058 0.049-0.105 0.098-0.069l0.377 0.277 0.384-0.267c0.050-0.035 0.115 0.014 0.096 0.071l-0.146 0.444 0.373 0.283z"/></svg>