<svg xmlns="http://www.w3.org/2000/svg" width="32" height="32" version="1.1" viewBox="0 0 32 32"><title>iceland</title><path fill="#f5f5f5" d="M30.151 9.1c-0-0.788-0.421-1.516-1.103-1.91l-11.948-6.895c-0.682-0.394-1.523-0.394-2.205 0l-11.945 6.899c-0.682 0.394-1.103 1.122-1.102 1.91l0.002 13.795c0 0.788 0.421 1.516 1.103 1.91l11.948 6.895c0.682 0.394 1.523 0.394 2.205-0l11.945-6.899c0.682-0.394 1.102-1.122 1.102-1.91l-0.002-13.795z"/><path fill="#41479b" d="M1.849 19.124l0.001 3.776c0 0.788 0.421 1.516 1.103 1.91l6.64 3.832v-9.518l-7.744-0z"/><path fill="#41479b" d="M9.593 3.358l-6.644 3.837c-0.682 0.394-1.103 1.122-1.102 1.91l0.001 3.771h7.745v-9.518h0z"/><path fill="#41479b" d="M30.151 12.876l-0.001-3.775c-0-0.788-0.421-1.516-1.103-1.91l-11.948-6.895c-0.682-0.394-1.523-0.394-2.205 0l-0.373 0.216v12.365l15.63-0z"/><path fill="#41479b" d="M14.521 31.486l0.379 0.218c0.682 0.394 1.523 0.394 2.205-0l11.945-6.899c0.682-0.394 1.102-1.122 1.102-1.91l-0.001-3.771h-15.631v12.362z"/><path fill="#ff4b55" d="M13.536 1.081l-2.957 1.708v11.337h-8.731l0.001 3.749h8.73v11.336l2.957 1.707v-13.043h16.616l-0.001-3.749h-16.616z"/></svg>