<svg xmlns="http://www.w3.org/2000/svg" width="32" height="32" version="1.1" viewBox="0 0 32 32"><title>india</title><path fill="#f5f5f5" d="M30.153 21.376l-0.002-10.752-0-1.524c-0-0.788-0.421-1.516-1.103-1.91l-11.948-6.895c-0.682-0.394-1.523-0.394-2.205 0l-11.945 6.899c-0.682 0.394-1.103 1.122-1.102 1.91l0 1.519 0.002 10.752 0 1.523c0 0.788 0.421 1.516 1.103 1.91l11.948 6.895c0.682 0.394 1.523 0.394 2.205-0l11.945-6.899c0.682-0.394 1.102-1.122 1.102-1.91l-0-1.519z"/><path fill="#fab446" d="M30.151 9.1c-0-0.788-0.421-1.516-1.103-1.91l-11.948-6.895c-0.682-0.394-1.523-0.394-2.205 0l-11.945 6.899c-0.682 0.394-1.103 1.122-1.102 1.91l0 1.519h28.304l-0-1.524z"/><path fill="#73af00" d="M1.849 22.9c0 0.788 0.421 1.516 1.103 1.91l11.948 6.895c0.682 0.394 1.523 0.394 2.205-0l11.945-6.899c0.682-0.394 1.102-1.122 1.102-1.91l-0-1.519h-28.304l0 1.524z"/><path fill="#41479b" d="M16 12.642c-1.852 0-3.358 1.507-3.358 3.358s1.507 3.358 3.358 3.358 3.358-1.507 3.358-3.358-1.507-3.358-3.358-3.358zM16.33 15.506l0.183-0.34 0.599-1.662c0.285 0.128 0.544 0.302 0.768 0.515l-1.305 1.188-0.244 0.299zM16.227 15.047l-0.111 0.37 0.039-0.384-0.083-1.764c0.319 0.008 0.624 0.071 0.907 0.18l-0.752 1.598zM15.884 15.417l-0.111-0.37-0.752-1.598c0.283-0.109 0.588-0.172 0.907-0.18l-0.083 1.764 0.039 0.385zM15.487 15.165l0.183 0.34-0.244-0.299-1.305-1.188c0.224-0.212 0.483-0.387 0.768-0.515l0.599 1.662zM15.032 16.155l0.384-0.039-0.37 0.111-1.598 0.752c-0.109-0.283-0.172-0.588-0.18-0.907l1.764 0.083zM13.268 15.928c0.008-0.319 0.071-0.624 0.18-0.907l1.598 0.752 0.37 0.111-0.384-0.039-1.764 0.083zM15.67 16.494l-0.183 0.34-0.599 1.662c-0.285-0.128-0.544-0.302-0.768-0.515l1.305-1.188 0.244-0.299zM15.773 16.953l0.111-0.37-0.039 0.384 0.083 1.764c-0.319-0.008-0.624-0.071-0.907-0.18l0.752-1.598zM16.116 16.583l0.111 0.37 0.752 1.599c-0.283 0.109-0.588 0.172-0.907 0.18l0.083-1.764-0.039-0.385zM16.513 16.835l-0.183-0.34 0.244 0.299 1.305 1.188c-0.224 0.212-0.483 0.387-0.768 0.515l-0.599-1.662zM16.968 15.845l-0.384 0.039 0.37-0.111 1.599-0.752c0.109 0.283 0.172 0.588 0.18 0.907l-1.764-0.083zM18.732 16.072c-0.008 0.319-0.071 0.624-0.18 0.907l-1.599-0.752-0.37-0.111 0.384 0.039 1.764-0.083zM18.496 14.888l-1.662 0.599-0.34 0.183 0.299-0.244 1.188-1.305c0.212 0.224 0.387 0.483 0.515 0.768zM14.018 14.12l1.188 1.305 0.299 0.244-0.34-0.183-1.662-0.599c0.127-0.285 0.302-0.545 0.515-0.768zM13.504 17.112l1.662-0.599 0.34-0.183-0.299 0.244-1.188 1.305c-0.212-0.224-0.387-0.483-0.515-0.768zM17.982 17.88l-1.188-1.305-0.299-0.244 0.34 0.183 1.662 0.599c-0.127 0.285-0.302 0.544-0.515 0.768z"/></svg>