<svg xmlns="http://www.w3.org/2000/svg" width="32" height="32" version="1.1" viewBox="0 0 32 32"><title>iraq</title><path fill="#f5f5f5" d="M1.849 22.9l-0.002-13.795c-0-0.788 0.42-1.516 1.102-1.91l11.945-6.899c0.682-0.394 1.523-0.394 2.205-0l11.948 6.895c0.682 0.394 1.103 1.122 1.103 1.91l0.002 13.795c0 0.788-0.42 1.516-1.102 1.91l-11.945 6.899c-0.682 0.394-1.523 0.394-2.205 0l-11.947-6.895c-0.683-0.394-1.103-1.122-1.103-1.91z"/><path fill="#ff4b55" d="M30.151 9.1c-0-0.788-0.421-1.516-1.103-1.91l-11.948-6.895c-0.682-0.394-1.523-0.394-2.205 0l-11.945 6.899c-0.682 0.394-1.103 1.122-1.102 1.91l0 1.505h28.304l-0-1.51z"/><path fill="#464655" d="M1.849 22.9c0 0.788 0.421 1.516 1.103 1.91l11.948 6.895c0.682 0.394 1.523 0.394 2.205-0l11.945-6.899c0.682-0.394 1.102-1.122 1.102-1.91l-0-1.505h-28.304l0 1.51z"/><path fill="#73af00" d="M19.685 14.409c-0.066-0.034-0.143-0.156-0.119-0.21 0.026-0.056-0.014-0.051 0.12-0.011 0.243 0.063 0.4 0.034 0.554-0.097l0.137-0.108 0.16 0.080c0.088 0.040 0.18 0.068 0.206 0.063 0.074-0.017 0.217-0.2 0.214-0.263-0.003-0.085 0.060-0.063 0.091 0.029 0.066 0.171-0.055 0.467-0.221 0.507-0.080 0.023-0.154 0.017-0.28-0.023-0.148-0.057-0.171-0.057-0.251 0-0.166 0.131-0.403 0.143-0.611 0.034z"/><path fill="#73af00" d="M20.311 13.748c-0.080-0.112-0.176-0.505-0.148-0.602 0.028-0.088 0.056-0.104 0.132-0.080 0.136 0.048 0.169 0.136 0.152 0.457-0.024 0.241-0.056 0.321-0.136 0.225z"/><path fill="#73af00" d="M14.939 15.485c-0.329 0.187-0.819 0.22-0.819 0.739-0.717 0.027-1.563 0.059-2.325 0.043 0.207-0.267 1.515-1.476 2.059-1.955 0.090-0.079 0.121-0.233 0.068-0.341l-0.014-0.029c-0.078-0.162-0.292-0.2-0.422-0.076-0.542 0.518-1.079 1.002-1.167 1.085-0.702 0.709-0.908 0.916-1.018 1.027-0.079 0.079-0.122 0.186-0.122 0.297l0 0.007c0.001 0.231 0.189 0.418 0.421 0.418h3.071c0.174 0-0.040-0.605 0.185-0.605 0.156 0 0.171 0.217 0.164 0.447-0.005 0.175-0.149 0.313-0.324 0.313-1.328 0.002-2.709 0.015-4.010 0.016-0.107 0-0.194-0.087-0.194-0.195v-0.234c0-0.198-0.22-0.314-0.386-0.205-0.006 0.004-0.012 0.008-0.018 0.012-0.087 0.054-0.131 0.16-0.097 0.256 0.022 0.063 0.031 0.139 0.034 0.218 0.003 0.105-0.083 0.192-0.188 0.195-0.43 0.013-0.897 0.017-1.030-0.237-0.075-0.143-0.234-0.21-0.379-0.138l-0.019 0.010c-0.152 0.076-0.213 0.264-0.13 0.412 0.158 0.282 0.303 0.608 0.228 1.066-0.061 0.144-0.176 0.234-0.301 0.316-0.139 0.090-0.052 0.302 0.111 0.272 0.395-0.073 0.666-0.385 0.75-0.753h6.117c0.224 0 0.406-0.182 0.406-0.406v-1.328c-0.056-0.396-0.482-0.38-0.65-0.648z"/><path fill="#73af00" d="M22.697 13.731c0.090 0.058 0.181 0.116 0.281 0.164 0.11 0.053 0.152 0.187 0.088 0.291-0.017 0.027-0.031 0.058-0.039 0.095v2.633c0.18 0.037 0.283 0.002 0.365-0.055 0.093-0.064 0.218-0.017 0.247 0.091 0.062 0.231 0.164 0.456 0.218 0.662 0.034 0.128-0.063 0.254-0.195 0.254h-1.031c-0.091 0-0.165-0.074-0.165-0.165v-3.843c0-0.119 0.132-0.191 0.232-0.127z"/><path fill="#73af00" d="M21.448 14.372c0.001 0.727 0.009 1.51 0.010 2.289 0 0.101-0.082 0.183-0.183 0.183h-0.012c-0.101 0-0.183-0.082-0.183-0.183v-1.847c0-0.101-0.118-0.154-0.194-0.088l-0.242 0.209c-0.049 0.043-0.078 0.104-0.078 0.17-0.001 0.3-0.003 1.175-0.005 1.557-0 0.101-0.082 0.182-0.183 0.182h-0.017c-0.1 0-0.182-0.081-0.183-0.181-0.002-0.254-0.005-0.725-0.006-1.079-0-0.102-0.121-0.155-0.197-0.088-0.251 0.22-0.309 0.269-0.44 0.405 0.011 0.070 0.064 0 0.096 0.053v0.353c-0.914-0.172-0.982 0.558-0.948 1.341 0.005 0.118 0.102 0.211 0.22 0.211h2.869c0.106 0 0.193-0.086 0.193-0.193v-3.566c0-0.119-0.141-0.18-0.229-0.1-0.070 0.064-0.145 0.128-0.209 0.186-0.052 0.047-0.081 0.113-0.080 0.183zM19.337 16.818c-0.056-0.161 0.26-0.22 0.297-0.075 0.013 0.177-0.227 0.182-0.297 0.075z"/><path fill="#73af00" d="M9.863 18.15c0.11 0 0.198 0.091 0.198 0.198 0 0.112-0.088 0.198-0.198 0.198-0.112 0-0.203-0.086-0.203-0.198-0-0.107 0.091-0.198 0.203-0.198z"/><path fill="#73af00" d="M16.385 13.812c0.054 0.032 0.109 0.063 0.167 0.091 0.106 0.050 0.148 0.182 0.083 0.279-0.019 0.029-0.036 0.063-0.046 0.105v2.628c0.191 0.042 0.295 0.001 0.378-0.061s0.202-0.019 0.229 0.081c0.048 0.178 0.119 0.355 0.175 0.522 0.068 0.205-0.084 0.416-0.3 0.416h-0.805c-0.13 0-0.236-0.106-0.236-0.236v-3.621c0-0.182 0.199-0.297 0.355-0.204z"/></svg>