<svg xmlns="http://www.w3.org/2000/svg" width="32" height="32" version="1.1" viewBox="0 0 32 32"><title>italy</title><path fill="#f5f5f5" d="M29.056 7.191l-11.948-6.895c-0.683-0.394-1.523-0.394-2.205 0l-11.945 6.899c-0.682 0.394-1.103 1.122-1.102 1.91l0.002 13.795c0 0.788 0.421 1.516 1.103 1.91l11.948 6.895c0.682 0.394 1.523 0.394 2.205-0l11.945-6.899c0.606-0.35 1.005-0.964 1.086-1.649v-14.294c-0.075-0.694-0.476-1.318-1.089-1.672z"/><path fill="#73af00" d="M2.958 7.195c-0.682 0.394-1.103 1.122-1.102 1.91l0.002 13.795c0 0.788 0.421 1.516 1.103 1.91l8.231 4.75v-27.121l-8.234 4.756z"/><path fill="#ff4b55" d="M29.056 7.191l-8.388-4.841v27.301l8.39-4.846c0.606-0.35 1.005-0.964 1.086-1.649v-14.294c-0.075-0.694-0.476-1.318-1.089-1.672z"/></svg>