<!-- Generated by IcoMoon.io -->
<svg version="1.1" xmlns="http://www.w3.org/2000/svg" width="32" height="32" viewBox="0 0 32 32">
<title>jamaica</title>
<path fill="#ffe15a" d="M1.849 22.9l-0.002-13.795c-0-0.788 0.42-1.516 1.102-1.91l11.945-6.899c0.682-0.394 1.523-0.394 2.205-0l11.948 6.895c0.682 0.394 1.103 1.122 1.103 1.91l0.002 13.795c0 0.788-0.42 1.516-1.102 1.91l-11.945 6.899c-0.682 0.394-1.523 0.394-2.205 0l-11.947-6.895c-0.683-0.394-1.103-1.122-1.103-1.91z"></path>
<path fill="#73af00" d="M23.834 4.182l-6.734-3.886c-0.682-0.394-1.523-0.394-2.205 0l-6.729 3.886 7.834 8.766 7.834-8.766z"></path>
<path fill="#73af00" d="M8.166 27.818l6.734 3.887c0.682 0.394 1.523 0.394 2.205-0l6.729-3.886-7.834-8.766-7.834 8.766z"></path>
<path fill="#464655" d="M27.432 25.74l1.618-0.935c0.682-0.394 1.102-1.122 1.102-1.91l-0.002-13.795c-0-0.788-0.421-1.516-1.103-1.91l-1.614-0.932-8.706 9.741 8.705 9.74z"></path>
<path fill="#464655" d="M4.568 6.26l-1.618 0.935c-0.682 0.394-1.103 1.122-1.102 1.91l0.002 13.795c0 0.788 0.421 1.516 1.103 1.91l1.614 0.932 8.706-9.741-8.705-9.74z"></path>
</svg>
