<svg xmlns="http://www.w3.org/2000/svg" width="32" height="32" version="1.1" viewBox="0 0 32 32"><title>japan</title><path fill="#f5f5f5" d="M1.849 22.9l-0.002-13.795c-0-0.788 0.42-1.516 1.102-1.91l11.945-6.899c0.682-0.394 1.523-0.394 2.205-0l11.948 6.895c0.682 0.394 1.103 1.122 1.103 1.91l0.002 13.795c0 0.788-0.42 1.516-1.102 1.91l-11.945 6.899c-0.682 0.394-1.523 0.394-2.205 0l-11.947-6.895c-0.683-0.394-1.103-1.122-1.103-1.91z"/><path fill="#ff4b55" d="M19.309 11.036c-2.74-1.827-6.442-1.080-8.268 1.656-0.030 0.045-0.059 0.091-0.086 0.136-1.714 2.726-0.955 6.335 1.738 8.132 2.74 1.827 6.441 1.089 8.265-1.656 0.030-0.044 0.058-0.090 0.085-0.135 1.715-2.726 0.959-6.336-1.735-8.134z"/></svg>