<svg xmlns="http://www.w3.org/2000/svg" width="32" height="32" version="1.1" viewBox="0 0 32 32"><title>jersey</title><path fill="#f5f5f5" d="M30.152 18.547l-0.001-5.093-0-1.698-0-2.655c-0-0.725-0.357-1.399-0.946-1.809-0.051-0.035-0.103-0.069-0.157-0.101l-11.948-6.895c-0.682-0.394-1.523-0.394-2.205 0l-11.945 6.899c-0.053 0.030-0.103 0.063-0.152 0.098-0.592 0.41-0.95 1.085-0.95 1.813l0 2.651 0 1.698 0.001 5.093 0 1.698 0 2.655c0 0.725 0.357 1.399 0.946 1.809 0.051 0.035 0.103 0.069 0.157 0.101l11.948 6.895c0.682 0.394 1.523 0.394 2.205-0l11.945-6.899c0.053-0.030 0.103-0.063 0.152-0.098 0.592-0.41 0.95-1.085 0.95-1.813l-0-2.651-0-1.698z"/><path fill="#ff4b55" d="M29.204 7.291c-0.051-0.035-0.103-0.069-0.157-0.101l-1.001-0.577-12.047 7.893-12.045-7.892-1.005 0.581c-0.053 0.030-0.103 0.063-0.152 0.098-0.369 0.255-0.647 0.614-0.804 1.024l11.727 7.683-11.726 7.683c0.156 0.411 0.434 0.77 0.802 1.026 0.051 0.035 0.103 0.069 0.157 0.101l1.001 0.578 12.047-7.893 12.045 7.892 1.005-0.581c0.053-0.030 0.103-0.063 0.152-0.098 0.369-0.255 0.647-0.614 0.804-1.024l-11.727-7.683 11.726-7.683c-0.156-0.411-0.434-0.77-0.802-1.026z"/><path fill="#ffe15a" d="M17.88 6.859c0 0-0.198-0.297-0.495-0.099 0 0 0.343 0.247 0.111 0.507-0.245 0.275-0.583 0.006-0.604-0.191 0.090-0.007 0.161-0.081 0.161-0.173 0-0.096-0.078-0.174-0.174-0.174s-0.174 0.078-0.174 0.174c0 0.075 0.048 0.139 0.114 0.163-0.043 0.169-0.485 0.298-0.612 0.018-0.144-0.314 0.084-0.581 0.39-0.544 0 0-0.059-0.389-0.473-0.226 0 0 0.173-0.445-0.124-0.742-0.297 0.297-0.124 0.742-0.124 0.742-0.414-0.164-0.473 0.226-0.473 0.226 0.306-0.037 0.533 0.23 0.39 0.544-0.127 0.279-0.57 0.15-0.612-0.018 0.067-0.024 0.114-0.088 0.114-0.163 0-0.096-0.078-0.174-0.174-0.174s-0.174 0.078-0.174 0.174c0 0.092 0.071 0.166 0.161 0.173-0.021 0.197-0.358 0.466-0.604 0.191-0.232-0.26 0.111-0.507 0.111-0.507-0.297-0.198-0.495 0.099-0.495 0.099-0.099-0.396-0.495-0.297-0.495-0.297 0.396 0.495 0.687 1.515 0.687 1.515h3.375c0 0 0.291-1.020 0.687-1.515-0 0-0.396-0.099-0.495 0.297z"/><path fill="#ff4b55" d="M17.688 8.077c-0.546-0.192-1.117-0.289-1.688-0.289s-1.142 0.096-1.688 0.289c-0.885 3.879 1.688 4.915 1.688 4.915s2.573-1.037 1.688-4.915z"/><path fill="#82afff" d="M14.766 9.457c0 0-0.081-0.015-0.152 0.041 0 0-0.025-0.098 0.102-0.121s0.049 0.080 0.049 0.080z"/><path fill="#82afff" d="M14.668 9.334c0 0-0.064-0.052-0.153-0.035 0 0 0.024-0.098 0.147-0.058s0.006 0.094 0.006 0.094z"/><path fill="#82afff" d="M14.721 9.384c0 0-0.089-0.015-0.166 0.041 0 0-0.027-0.098 0.112-0.121s0.054 0.080 0.054 0.080z"/><path fill="#82afff" d="M16.256 9.644c0 0-0.082 0.004-0.138 0.075 0 0-0.047-0.089 0.071-0.141s0.067 0.066 0.067 0.066z"/><path fill="#82afff" d="M16.135 9.537c0 0-0.075-0.036-0.157 0.001 0 0 0.001-0.101 0.13-0.091s0.027 0.090 0.027 0.090z"/><path fill="#82afff" d="M16.196 9.583c0 0-0.090 0.006-0.152 0.078 0 0-0.049-0.089 0.081-0.144s0.071 0.065 0.071 0.065z"/><path fill="#82afff" d="M17.198 9.695c0 0-0.031 0-0.086 0.052 0 0-0.040-0.088 0.077-0.132s0.009 0.080 0.009 0.080z"/><path fill="#82afff" d="M17.139 9.573c0 0-0.070-0.039-0.151-0.008 0 0 0.007-0.097 0.13-0.080s0.021 0.088 0.021 0.088z"/><path fill="#82afff" d="M17.195 9.62c0 0-0.087 0-0.15 0.067 0 0-0.042-0.088 0.086-0.133s0.064 0.067 0.064 0.067z"/><path fill="#82afff" d="M14.63 8.845c0 0-0.075-0.050-0.169-0.023 0 0 0.017-0.108 0.154-0.077s0.015 0.101 0.015 0.101z"/><path fill="#82afff" d="M14.624 8.66c0 0-0.048-0.076-0.151-0.082 0 0 0.066-0.102 0.183-0.024s-0.032 0.106-0.032 0.106z"/><path fill="#82afff" d="M14.624 8.758c0 0-0.079-0.058-0.182-0.037 0 0 0.023-0.114 0.171-0.072s0.012 0.108 0.012 0.108z"/><path fill="#ffe15a" d="M16.96 9.098c0.131 0.004 0.286-0.048 0.31-0.183 0.028-0.155-0.105-0.234-0.283-0.227-0.13 0.005-0.46 0.080-0.697 0.072-0.234-0.008-0.24-0.24 0.114-0.215 0.526 0.036 0.609-0.032 0.609-0.032-0.282 0.053-0.395-0.046-0.695-0.046s-0.357 0.208-0.236 0.321c0.136 0.127 0.628 0.042 0.758 0.018s0.296-0.026 0.309 0.066c0.012 0.082-0.207 0.078-0.362 0.072-0.247-0.009-0.605 0.057-0.924 0.074-0.266 0.014-0.303-0.061-0.363-0.138 0.014-0.026 0.022-0.054 0.022-0.084 0-0.015-0.002-0.030-0.006-0.044 0.020-0.022 0.041-0.057 0.051-0.114 0 0-0.068-0.012-0.119 0.014-0.041-0.033-0.096-0.053-0.156-0.053s-0.115 0.020-0.156 0.053c-0.051-0.026-0.119-0.014-0.119-0.014 0.010 0.057 0.031 0.092 0.051 0.114-0.004 0.014-0.006 0.029-0.006 0.044 0 0.055 0.027 0.105 0.070 0.141 0.021 0.017 0.036 0.040 0.041 0.067l0.007 0.038c0.003 0.017 0.014 0.029 0.028 0.037-0.219-0.023-0.323-0.16-0.376-0.237-0.060-0.086-0.098-0.277-0.189-0.299l-0.054 0.288c0 0 0.116 0.268 0.332 0.377 0.243 0.123 0.289 0.127 0.369 0.162 0.009 0.042-0.15 0.068-0.313 0.035-0.113-0.023-0.266-0.187-0.353-0.176l0.101 0.225c0.275 0.174 0.515 0.178 0.722 0.141 0.146-0.026 0.201-0.145 0.211-0.195 0.059-0.011 0.124-0.023 0.325-0.073 0.084-0.021 0.181-0.032 0.277-0.036 0.027 0.062 0.089 0.141 0.303 0.149 0 0 0.052 0.082-0.125 0.066s-0.222-0.071-0.325-0.060l0.092 0.22c0 0 0.226-0.078 0.503-0.049 0 0 0.052 0.014 0.082-0.031s0.017-0.070-0.012-0.111c-0.016-0.023-0.025-0.095-0.030-0.155 0.102 0.026 0.413-0.038 0.526-0.028s0.129 0.141 0.104 0.186c-0.026 0.045-0.262 0.007-0.262 0.007l0.079 0.217c0 0 0.024-0.011 0.084-0.068 0.049-0.046 0.249-0.031 0.249-0.066v-0.402c0-0.019-0.017-0.034-0.036-0.032-0.442 0.038-0.532-0.035-0.532-0.035z"/><path fill="#ff4b55" d="M15.199 8.955c0.007 0.013 0.012 0.027 0.014 0.042l0.007 0.038c0.002 0.013 0.013 0.023 0.025 0.023h0.102c0.012 0 0.022-0.009 0.025-0.023l0.007-0.038c0.003-0.015 0.008-0.029 0.014-0.042h-0.194z"/><path fill="#82afff" d="M15.295 9.029c-0.024 0-0.042 0.003-0.040 0.036l0.009 0.14c0.002 0.021 0.015 0.038 0.030 0.038s0.028-0.016 0.030-0.038l0.009-0.14c0.003-0.033-0.016-0.036-0.039-0.036z"/><path fill="#82afff" d="M14.99 10.845c0 0-0.066-0.012-0.124 0.034 0 0-0.020-0.080 0.083-0.099s0.040 0.065 0.040 0.065z"/><path fill="#82afff" d="M14.911 10.744c0 0-0.052-0.042-0.125-0.029 0 0 0.020-0.080 0.12-0.048s0.005 0.076 0.005 0.076z"/><path fill="#82afff" d="M14.954 10.786c0 0-0.072-0.012-0.135 0.034 0 0-0.022-0.080 0.091-0.099s0.044 0.065 0.044 0.065z"/><path fill="#82afff" d="M16.206 10.997c0 0-0.067 0.003-0.113 0.061 0 0-0.038-0.073 0.058-0.115s0.054 0.054 0.054 0.054z"/><path fill="#82afff" d="M16.108 10.91c0 0-0.061-0.029-0.128 0.001 0 0 0.001-0.082 0.106-0.074s0.022 0.073 0.022 0.073z"/><path fill="#82afff" d="M16.157 10.947c0 0-0.073 0.005-0.124 0.064 0 0-0.040-0.072 0.066-0.117s0.058 0.053 0.058 0.053z"/><path fill="#82afff" d="M16.975 11.039c0 0-0.025 0-0.070 0.042 0 0-0.032-0.072 0.063-0.108s0.008 0.065 0.008 0.065z"/><path fill="#82afff" d="M16.926 10.939c0 0-0.057-0.031-0.123-0.007 0 0 0.006-0.079 0.106-0.065s0.017 0.072 0.017 0.072z"/><path fill="#82afff" d="M16.972 10.978c0 0-0.071 0-0.123 0.054 0 0-0.034-0.072 0.070-0.109s0.053 0.055 0.053 0.055z"/><path fill="#82afff" d="M14.88 10.346c0 0-0.061-0.040-0.138-0.019 0 0 0.014-0.088 0.125-0.063s0.012 0.082 0.012 0.082z"/><path fill="#82afff" d="M14.875 10.194c0 0-0.039-0.062-0.123-0.067 0 0 0.054-0.083 0.149-0.019s-0.026 0.087-0.026 0.087z"/><path fill="#82afff" d="M14.875 10.275c0 0-0.064-0.047-0.149-0.030 0 0 0.019-0.093 0.139-0.058s0.010 0.088 0.010 0.088z"/><path fill="#ffe15a" d="M16.781 10.552c0.106 0.003 0.233-0.039 0.253-0.15 0.023-0.127-0.085-0.191-0.231-0.185-0.106 0.004-0.376 0.065-0.569 0.059-0.191-0.007-0.196-0.196 0.093-0.175 0.429 0.030 0.497-0.026 0.497-0.026-0.23 0.043-0.322-0.037-0.567-0.037s-0.291 0.169-0.193 0.262c0.111 0.104 0.512 0.034 0.619 0.014s0.241-0.021 0.252 0.054c0.010 0.067-0.169 0.063-0.295 0.059-0.201-0.008-0.494 0.047-0.754 0.060-0.217 0.011-0.247-0.050-0.296-0.113 0.012-0.021 0.018-0.044 0.018-0.069 0-0.012-0.002-0.024-0.005-0.036 0.016-0.018 0.034-0.047 0.041-0.093 0 0-0.056-0.010-0.097 0.011-0.034-0.027-0.078-0.043-0.127-0.043s-0.094 0.017-0.127 0.043c-0.042-0.021-0.097-0.011-0.097-0.011 0.008 0.047 0.025 0.075 0.041 0.093-0.003 0.012-0.005 0.024-0.005 0.036 0 0.045 0.022 0.086 0.057 0.115 0.017 0.014 0.029 0.033 0.034 0.054l0.006 0.031c0.003 0.013 0.011 0.024 0.023 0.030-0.179-0.018-0.263-0.131-0.307-0.193-0.049-0.070-0.080-0.226-0.154-0.243l-0.044 0.235c0 0 0.095 0.219 0.27 0.308 0.198 0.101 0.236 0.104 0.301 0.132 0.008 0.034-0.123 0.056-0.255 0.029-0.092-0.019-0.217-0.153-0.288-0.143l0.083 0.184c0.224 0.142 0.421 0.145 0.589 0.115 0.119-0.021 0.164-0.118 0.172-0.159 0.049-0.009 0.101-0.019 0.265-0.059 0.069-0.017 0.148-0.026 0.226-0.029 0.022 0.051 0.073 0.115 0.247 0.121 0 0 0.042 0.067-0.102 0.054s-0.181-0.058-0.265-0.049l0.075 0.179c0 0 0.184-0.063 0.41-0.040 0 0 0.042 0.011 0.067-0.025s0.013-0.058-0.010-0.090c-0.013-0.018-0.020-0.078-0.024-0.127 0.083 0.021 0.337-0.031 0.429-0.023s0.105 0.115 0.084 0.152c-0.021 0.036-0.214 0.005-0.214 0.005l0.065 0.177c0 0 0.019-0.009 0.069-0.056 0.040-0.038 0.203-0.025 0.203-0.054v-0.328c0-0.016-0.014-0.028-0.029-0.026-0.36 0.032-0.434-0.028-0.434-0.028z"/><path fill="#ff4b55" d="M15.344 10.435c0.005 0.011 0.009 0.022 0.012 0.034l0.005 0.031c0.002 0.011 0.010 0.018 0.020 0.018h0.084c0.010 0 0.018-0.008 0.020-0.018l0.005-0.031c0.002-0.012 0.006-0.024 0.012-0.034h-0.158z"/><path fill="#82afff" d="M15.422 10.496c-0.019 0-0.034 0.002-0.032 0.029l0.008 0.115c0.001 0.018 0.012 0.031 0.024 0.031s0.023-0.013 0.024-0.031l0.008-0.115c0.002-0.027-0.013-0.029-0.032-0.029z"/><path fill="#82afff" d="M15.24 11.948c0 0-0.050-0.009-0.093 0.025 0 0-0.015-0.060 0.063-0.074s0.030 0.049 0.030 0.049z"/><path fill="#82afff" d="M15.181 11.873c0 0-0.039-0.032-0.094-0.022 0 0 0.015-0.060 0.090-0.036s0.004 0.057 0.004 0.057z"/><path fill="#82afff" d="M15.213 11.903c0 0-0.054-0.009-0.101 0.025 0 0-0.017-0.060 0.068-0.074s0.033 0.049 0.033 0.049z"/><path fill="#82afff" d="M16.151 12.062c0 0-0.050 0.002-0.084 0.046 0 0-0.028-0.055 0.044-0.086s0.041 0.040 0.041 0.040z"/><path fill="#82afff" d="M16.077 11.997c0 0-0.046-0.022-0.096 0.001 0 0 0.001-0.061 0.079-0.056s0.017 0.055 0.017 0.055z"/><path fill="#82afff" d="M16.114 12.025c0 0-0.055 0.003-0.093 0.048 0 0-0.030-0.054 0.049-0.088s0.043 0.040 0.043 0.040z"/><path fill="#82afff" d="M16.726 12.093c0 0-0.019 0-0.053 0.032 0 0-0.024-0.054 0.047-0.081s0.006 0.049 0.006 0.049z"/><path fill="#82afff" d="M16.69 12.018c0 0-0.043-0.024-0.092-0.005 0 0 0.004-0.059 0.079-0.049s0.013 0.054 0.013 0.054z"/><path fill="#82afff" d="M16.724 12.047c0 0-0.053 0-0.092 0.041 0 0-0.026-0.054 0.052-0.082s0.039 0.041 0.039 0.041z"/><path fill="#82afff" d="M15.157 11.574c0 0-0.046-0.030-0.103-0.014 0 0 0.010-0.066 0.094-0.047s0.009 0.061 0.009 0.061z"/><path fill="#82afff" d="M15.154 11.461c0 0-0.029-0.046-0.092-0.050 0 0 0.041-0.062 0.112-0.014s-0.020 0.065-0.020 0.065z"/><path fill="#82afff" d="M15.154 11.521c0 0-0.048-0.035-0.111-0.022 0 0 0.014-0.069 0.104-0.044s0.007 0.066 0.007 0.066z"/><path fill="#ffe15a" d="M16.581 11.728c0.080 0.002 0.174-0.029 0.19-0.112 0.017-0.095-0.064-0.143-0.173-0.139-0.080 0.003-0.281 0.049-0.426 0.044-0.143-0.005-0.147-0.146 0.070-0.131 0.321 0.022 0.372-0.019 0.372-0.019-0.172 0.032-0.241-0.028-0.424-0.028s-0.218 0.127-0.144 0.196c0.083 0.078 0.383 0.026 0.463 0.011s0.181-0.016 0.189 0.040c0.007 0.050-0.126 0.048-0.221 0.044-0.151-0.006-0.37 0.035-0.565 0.045-0.162 0.008-0.185-0.037-0.222-0.084 0.009-0.016 0.014-0.033 0.014-0.051 0-0.009-0.002-0.018-0.004-0.027 0.012-0.014 0.025-0.035 0.031-0.070 0 0-0.042-0.007-0.073 0.008-0.025-0.020-0.059-0.032-0.095-0.032s-0.070 0.012-0.095 0.032c-0.031-0.016-0.073-0.008-0.073-0.008 0.006 0.035 0.019 0.056 0.031 0.070-0.002 0.009-0.004 0.018-0.004 0.027 0 0.034 0.016 0.064 0.043 0.086 0.013 0.011 0.022 0.024 0.025 0.041l0.005 0.023c0.002 0.010 0.008 0.018 0.017 0.023-0.134-0.014-0.197-0.098-0.23-0.145-0.037-0.053-0.060-0.169-0.116-0.182l-0.033 0.176c0 0 0.071 0.164 0.202 0.23 0.149 0.075 0.177 0.078 0.225 0.099 0.006 0.026-0.092 0.042-0.191 0.022-0.069-0.014-0.162-0.114-0.216-0.107l0.062 0.137c0.168 0.106 0.315 0.108 0.441 0.086 0.089-0.016 0.123-0.088 0.129-0.119 0.036-0.007 0.076-0.014 0.199-0.044 0.051-0.013 0.11-0.019 0.169-0.022 0.017 0.038 0.055 0.086 0.185 0.091 0 0 0.032 0.050-0.076 0.040s-0.135-0.044-0.199-0.036l0.056 0.134c0 0 0.138-0.047 0.307-0.030 0 0 0.032 0.009 0.050-0.019s0.010-0.043-0.007-0.068c-0.010-0.014-0.015-0.058-0.018-0.095 0.062 0.016 0.253-0.023 0.321-0.017s0.079 0.086 0.063 0.113-0.16 0.004-0.16 0.004l0.048 0.132c0 0 0.015-0.007 0.051-0.042 0.030-0.028 0.152-0.019 0.152-0.040v-0.245c0-0.012-0.010-0.021-0.022-0.020-0.27 0.023-0.325-0.022-0.325-0.022z"/><path fill="#ff4b55" d="M15.505 11.641c0.004 0.008 0.007 0.017 0.009 0.026l0.004 0.023c0.001 0.008 0.008 0.014 0.015 0.014h0.063c0.007 0 0.014-0.006 0.015-0.014l0.004-0.023c0.002-0.009 0.005-0.018 0.009-0.026h-0.118z"/><path fill="#82afff" d="M15.564 11.686c-0.014 0-0.026 0.002-0.024 0.022l0.006 0.086c0.001 0.013 0.009 0.023 0.018 0.023s0.017-0.010 0.018-0.023l0.006-0.086c0.001-0.020-0.010-0.022-0.024-0.022z"/></svg>