<!-- Generated by IcoMoon.io -->
<svg version="1.1" xmlns="http://www.w3.org/2000/svg" width="32" height="32" viewBox="0 0 32 32">
<title>jordan</title>
<path fill="#f5f5f5" d="M30.153 21.363l-0.002-10.727-0-1.537c0-0.044-0.002-0.088-0.004-0.132-0.001-0.013-0.002-0.026-0.003-0.039-0.003-0.032-0.006-0.065-0.010-0.097-0.002-0.013-0.003-0.026-0.005-0.038-0.006-0.043-0.013-0.086-0.022-0.129-0.009-0.047-0.021-0.094-0.033-0.14 0-0 0-0-0-0-0.014-0.053-0.031-0.105-0.049-0.156-0.006-0.016-0.012-0.032-0.018-0.048-0.013-0.036-0.028-0.071-0.043-0.106-0.008-0.018-0.016-0.035-0.024-0.052-0.016-0.034-0.033-0.068-0.051-0.101-0.008-0.015-0.016-0.030-0.024-0.045-0.027-0.047-0.055-0.093-0.084-0.138-0-0-0-0-0-0.001-0.026-0.040-0.054-0.078-0.083-0.116-0-0-0-0-0-0-0.031-0.040-0.064-0.080-0.097-0.118v0c-0.023-0.026-0.047-0.052-0.071-0.077s-0.049-0.049-0.074-0.072c-0.046-0.043-0.093-0.085-0.143-0.124l-0-0h-0c-0.040-0.032-0.082-0.062-0.124-0.091-0.001-0.001-0.003-0.002-0.004-0.003-0.044-0.030-0.088-0.058-0.135-0.085l-11.948-6.896c-0.021-0.012-0.043-0.023-0.065-0.035s-0.043-0.024-0.065-0.035c-0.131-0.065-0.268-0.115-0.407-0.152-0.046-0.012-0.093-0.023-0.14-0.032-0.054-0.011-0.108-0.018-0.162-0.025-0.017-0.002-0.034-0.003-0.051-0.005-0.038-0.004-0.076-0.007-0.114-0.008-0.019-0.001-0.038-0.002-0.057-0.002-0.038-0.001-0.076-0-0.114 0.001-0.017 0.001-0.034 0.001-0.051 0.002-0.054 0.003-0.108 0.008-0.162 0.014-0 0-0 0-0.001 0-0.043 0.006-0.085 0.013-0.127 0.021-0.012 0.002-0.025 0.005-0.037 0.008-0.031 0.007-0.063 0.014-0.094 0.022-0.012 0.003-0.025 0.006-0.037 0.009-0.083 0.023-0.166 0.050-0.247 0.083-0.012 0.005-0.024 0.010-0.035 0.015-0.030 0.013-0.060 0.026-0.089 0.040-0.012 0.006-0.023 0.011-0.035 0.017-0.039 0.020-0.079 0.040-0.117 0.063l-11.945 6.9c-0.256 0.148-0.475 0.343-0.649 0.57-0.29 0.379-0.454 0.848-0.454 1.34l0.002 13.795c0 0.591 0.237 1.148 0.643 1.556 0.135 0.136 0.29 0.255 0.46 0.354l11.948 6.896c0.043 0.025 0.086 0.048 0.13 0.069 0.131 0.065 0.268 0.115 0.407 0.152 0.023 0.006 0.047 0.011 0.070 0.016s0.047 0.012 0.070 0.016c0 0 0 0 0.001 0 0.042 0.008 0.084 0.015 0.127 0.021 0.013 0.002 0.025 0.003 0.038 0.005 0.032 0.004 0.063 0.007 0.095 0.009 0.013 0.001 0.025 0.002 0.038 0.003 0.043 0.003 0.086 0.004 0.128 0.004 0.048 0 0.095-0.002 0.143-0.005 0.023-0.002 0.045-0.004 0.067-0.007 0.025-0.002 0.050-0.004 0.075-0.007 0.043-0.006 0.085-0.013 0.127-0.021 0.012-0.002 0.025-0.005 0.037-0.008 0.031-0.006 0.063-0.014 0.093-0.022 0.012-0.003 0.025-0.006 0.037-0.009 0.083-0.023 0.166-0.050 0.246-0.083 0.012-0.005 0.024-0.010 0.036-0.015 0.030-0.013 0.059-0.026 0.089-0.040 0.012-0.006 0.023-0.011 0.035-0.017 0.039-0.020 0.078-0.040 0.117-0.062l11.946-6.899c0.073-0.042 0.143-0.089 0.21-0.139 0.089-0.066 0.173-0.137 0.25-0.215 0.068-0.068 0.131-0.14 0.189-0.216 0.033-0.043 0.064-0.088 0.094-0.134 0.009-0.014 0.018-0.029 0.027-0.043 0.020-0.032 0.039-0.065 0.058-0.098 0.009-0.017 0.018-0.034 0.027-0.050 0.017-0.034 0.034-0.068 0.050-0.103 0.007-0.016 0.014-0.031 0.021-0.047 0.021-0.050 0.041-0.101 0.059-0.152 0-0 0-0 0-0.001 0.018-0.052 0.033-0.104 0.047-0.157 0.004-0.017 0.008-0.034 0.012-0.050 0.009-0.037 0.017-0.075 0.024-0.113 0.003-0.019 0.007-0.038 0.010-0.057 0.006-0.038 0.011-0.077 0.014-0.115 0.002-0.017 0.004-0.035 0.005-0.052 0.004-0.055 0.007-0.111 0.007-0.167 0-0 0-0 0-0.001l-0-1.532z"></path>
<path fill="#464655" d="M16.211 0.010c-0.038-0.004-0.076-0.007-0.114-0.008-0.019-0.001-0.038-0.002-0.057-0.002-0.038-0.001-0.076-0-0.114 0.001-0.017 0.001-0.034 0.001-0.051 0.002-0.054 0.003-0.108 0.007-0.162 0.014-0 0-0 0-0.001 0-0.043 0.006-0.085 0.013-0.127 0.021-0.012 0.002-0.025 0.005-0.037 0.008-0.031 0.007-0.063 0.014-0.094 0.022-0.012 0.003-0.025 0.006-0.037 0.009-0.083 0.023-0.166 0.050-0.247 0.083-0.012 0.005-0.024 0.010-0.035 0.015-0.030 0.013-0.060 0.026-0.089 0.040-0.012 0.006-0.023 0.011-0.035 0.017-0.039 0.020-0.079 0.040-0.117 0.063l-7.951 4.593 2.418 3.692 3.81 2.057h16.98l-0-1.537c0-0.044-0.002-0.088-0.004-0.132-0.001-0.013-0.002-0.026-0.003-0.039-0.003-0.032-0.006-0.065-0.010-0.097-0.002-0.013-0.003-0.026-0.005-0.038-0.006-0.043-0.013-0.086-0.022-0.129-0.009-0.047-0.021-0.094-0.033-0.14 0-0 0-0-0-0-0.014-0.053-0.031-0.105-0.049-0.156-0.006-0.016-0.012-0.032-0.018-0.048-0.013-0.036-0.028-0.071-0.043-0.106-0.008-0.018-0.016-0.035-0.024-0.052-0.016-0.034-0.033-0.068-0.051-0.101-0.008-0.015-0.016-0.030-0.024-0.045-0.027-0.047-0.055-0.093-0.084-0.138-0-0-0-0-0-0.001-0.026-0.040-0.054-0.078-0.083-0.116-0-0-0-0-0-0-0.031-0.040-0.064-0.080-0.097-0.118v0c-0.023-0.026-0.047-0.052-0.071-0.077s-0.049-0.049-0.074-0.072c-0.046-0.043-0.093-0.085-0.143-0.124l-0-0h-0c-0.040-0.032-0.082-0.062-0.124-0.091-0.001-0.001-0.003-0.002-0.004-0.003-0.044-0.030-0.088-0.058-0.135-0.085l-11.948-6.896c-0.021-0.012-0.043-0.023-0.065-0.035s-0.043-0.024-0.065-0.035c-0.131-0.065-0.268-0.115-0.407-0.152-0.046-0.012-0.093-0.023-0.14-0.032-0.054-0.011-0.108-0.018-0.162-0.025-0.017-0.002-0.034-0.003-0.051-0.005z"></path>
<path fill="#73af00" d="M29.794 24.101c0.009-0.014 0.018-0.029 0.027-0.043 0.020-0.032 0.039-0.065 0.058-0.098 0.009-0.017 0.018-0.034 0.027-0.050 0.017-0.034 0.034-0.068 0.050-0.103 0.007-0.016 0.014-0.031 0.021-0.047 0.021-0.050 0.041-0.101 0.059-0.152 0-0 0-0 0-0.001 0.018-0.052 0.033-0.104 0.047-0.157 0.004-0.017 0.008-0.034 0.012-0.050 0.009-0.037 0.017-0.075 0.024-0.113 0.003-0.019 0.007-0.038 0.010-0.057 0.006-0.038 0.011-0.077 0.014-0.115 0.002-0.017 0.004-0.035 0.005-0.052 0.004-0.055 0.007-0.111 0.007-0.167 0-0 0-0 0-0.001l-0-1.532h-16.982l-3.81 2.213-2.418 3.537 7.957 4.592c0.043 0.025 0.086 0.048 0.13 0.069 0.131 0.065 0.268 0.115 0.407 0.152 0.023 0.006 0.047 0.011 0.070 0.016s0.047 0.012 0.070 0.016c0 0 0 0 0.001 0 0.042 0.008 0.084 0.015 0.127 0.021 0.013 0.002 0.025 0.003 0.038 0.005 0.032 0.004 0.063 0.007 0.095 0.009 0.013 0.001 0.025 0.002 0.038 0.003 0.043 0.003 0.086 0.004 0.128 0.004 0.048 0 0.095-0.002 0.143-0.005 0.023-0.002 0.045-0.004 0.067-0.007 0.025-0.002 0.050-0.004 0.075-0.007 0.043-0.006 0.085-0.013 0.127-0.021 0.012-0.002 0.025-0.005 0.037-0.008 0.031-0.006 0.063-0.014 0.093-0.022 0.012-0.003 0.025-0.006 0.037-0.009 0.083-0.023 0.166-0.050 0.246-0.083 0.012-0.005 0.024-0.010 0.036-0.015 0.030-0.013 0.059-0.026 0.089-0.040 0.012-0.006 0.023-0.011 0.035-0.017 0.039-0.020 0.078-0.040 0.117-0.062l11.945-6.9c0.073-0.042 0.143-0.089 0.21-0.139 0.089-0.066 0.173-0.137 0.25-0.215 0.068-0.068 0.131-0.14 0.189-0.216 0.033-0.044 0.064-0.088 0.094-0.134z"></path>
<path fill="#ff4b55" d="M13.171 21.363l5.439-5.020c0.16-0.147 0.16-0.538 0-0.686l-11.667-10.77-3.994 2.307c-0.256 0.148-0.475 0.343-0.649 0.57-0.29 0.379-0.454 0.848-0.454 1.34l0.002 13.795c0 0.591 0.237 1.148 0.643 1.556 0.135 0.136 0.29 0.255 0.46 0.354l3.991 2.303 6.229-5.75z"></path>
<path fill="#f5f5f5" d="M8.004 14.011l0.457 0.991 1.060-0.261c0.066-0.016 0.121 0.053 0.090 0.113l-0.49 0.975 0.865 0.666c0.054 0.042 0.034 0.127-0.032 0.141l-1.068 0.225 0.018 1.091c0.001 0.068-0.078 0.106-0.131 0.063l-0.842-0.695-0.842 0.695c-0.053 0.043-0.132 0.005-0.131-0.063l0.018-1.091-1.068-0.225c-0.067-0.014-0.086-0.1-0.032-0.141l0.865-0.666-0.49-0.975c-0.031-0.061 0.024-0.13 0.090-0.113l1.060 0.261 0.457-0.991c0.029-0.062 0.117-0.062 0.145 0z"></path>
</svg>
