<svg xmlns="http://www.w3.org/2000/svg" width="32" height="32" version="1.1" viewBox="0 0 32 32"><title>kazakhstan</title><path fill="#82c3d2" d="M1.849 22.9l-0.002-13.795c-0-0.788 0.42-1.516 1.102-1.91l11.945-6.899c0.682-0.394 1.523-0.394 2.205-0l11.948 6.895c0.683 0.394 1.103 1.122 1.103 1.91l0.002 13.795c0 0.788-0.42 1.516-1.102 1.91l-11.945 6.899c-0.682 0.394-1.523 0.394-2.205 0l-11.947-6.895c-0.683-0.394-1.103-1.122-1.103-1.91z"/><path fill="#ffe15a" d="M5.804 25.995c0.037-0.156 0.083-0.35 0.083-0.589 0-0.228-0.109-0.445-0.292-0.582 0.183-0.137 0.292-0.354 0.292-0.582 0-0.239-0.046-0.433-0.083-0.589-0.061-0.26-0.077-0.355 0.040-0.472 0.057-0.057 0.057-0.149 0-0.206s-0.149-0.057-0.206 0c-0.236 0.236-0.18 0.481-0.119 0.74-0.186-0.061-0.379-0.016-0.482 0.115-0.051 0.065-0.15 0.247 0.035 0.539 0.043 0.068 0.133 0.087 0.201 0.045s0.088-0.133 0.044-0.201c-0.070-0.11-0.072-0.177-0.052-0.202 0.023-0.029 0.094-0.044 0.169-0.018 0.048 0.017 0.16 0.075 0.16 0.25 0 0.14-0.065 0.268-0.177 0.351s-0.259 0.107-0.4 0.063c-0.174-0.053-0.295-0.236-0.295-0.446 0-0.15 0.032-0.301 0.093-0.438l0.952-2.143c0.078-0.176 0.118-0.363 0.118-0.556 0-0.248-0.113-0.475-0.29-0.613 0.178-0.138 0.29-0.365 0.29-0.613 0-0.193-0.040-0.38-0.118-0.556l-0.952-2.143c-0.061-0.137-0.093-0.288-0.093-0.438 0-0.209 0.121-0.393 0.295-0.446 0.141-0.044 0.287-0.020 0.4 0.063s0.177 0.211 0.177 0.351c0 0.175-0.112 0.233-0.16 0.25-0.075 0.026-0.146 0.011-0.169-0.018-0.019-0.025-0.018-0.092 0.052-0.202 0.043-0.068 0.023-0.158-0.044-0.201s-0.158-0.023-0.201 0.045c-0.186 0.291-0.087 0.474-0.035 0.538 0.103 0.13 0.296 0.175 0.482 0.115-0.061 0.259-0.117 0.504 0.119 0.74 0.028 0.028 0.066 0.043 0.103 0.043s0.074-0.014 0.103-0.043c0.057-0.057 0.057-0.149 0-0.206-0.116-0.116-0.101-0.212-0.040-0.472 0.037-0.156 0.083-0.35 0.083-0.589 0-0.159-0.056-0.311-0.15-0.436h0.005c0.080 0 0.145-0.065 0.145-0.145s-0.065-0.145-0.145-0.145h-0.005c0.094-0.125 0.15-0.277 0.15-0.436 0-0.239-0.046-0.433-0.083-0.589-0.061-0.26-0.077-0.355 0.040-0.472 0.057-0.057 0.057-0.149 0-0.206s-0.149-0.057-0.206 0c-0.236 0.236-0.18 0.481-0.119 0.74-0.186-0.060-0.379-0.016-0.482 0.115-0.051 0.065-0.15 0.247 0.035 0.539 0.043 0.068 0.133 0.087 0.201 0.045s0.088-0.133 0.044-0.201c-0.070-0.11-0.072-0.177-0.052-0.202 0.023-0.029 0.094-0.044 0.169-0.018 0.048 0.017 0.16 0.075 0.16 0.25 0 0.14-0.065 0.268-0.177 0.351s-0.259 0.107-0.4 0.063c-0.174-0.053-0.295-0.236-0.295-0.446 0-0.15 0.032-0.301 0.093-0.438l0.952-2.143c0.078-0.176 0.118-0.363 0.118-0.556 0-0.248-0.113-0.475-0.29-0.613 0.178-0.138 0.29-0.365 0.29-0.613 0-0.193-0.040-0.38-0.118-0.556l-0.952-2.143c-0.061-0.137-0.093-0.288-0.093-0.438 0-0.209 0.121-0.393 0.295-0.446 0.141-0.044 0.287-0.020 0.4 0.063s0.177 0.211 0.177 0.351c0 0.175-0.112 0.233-0.16 0.25-0.075 0.026-0.146 0.011-0.169-0.018-0.019-0.025-0.018-0.092 0.052-0.202 0.043-0.068 0.023-0.158-0.044-0.201s-0.158-0.023-0.201 0.045c-0.186 0.291-0.087 0.474-0.035 0.539 0.103 0.13 0.296 0.175 0.482 0.115-0.061 0.259-0.117 0.504 0.119 0.74 0.028 0.028 0.066 0.043 0.103 0.043s0.074-0.014 0.103-0.043c0.057-0.057 0.057-0.149 0-0.206-0.116-0.116-0.101-0.212-0.040-0.472 0.037-0.156 0.083-0.35 0.083-0.589 0-0.159-0.056-0.311-0.15-0.436h0.005c0.080 0 0.145-0.065 0.145-0.145s-0.065-0.145-0.145-0.145h-0.005c0.094-0.125 0.15-0.277 0.15-0.436 0-0.239-0.046-0.433-0.083-0.589-0.061-0.26-0.077-0.355 0.040-0.472 0.057-0.057 0.057-0.149 0-0.206-0-0-0.001-0-0.001-0.001l-0.337 0.195c-0.072 0.176-0.030 0.357 0.014 0.546-0.186-0.061-0.379-0.016-0.482 0.115-0.051 0.065-0.15 0.247 0.035 0.539 0.043 0.068 0.133 0.088 0.201 0.045s0.088-0.133 0.044-0.201c-0.070-0.11-0.072-0.177-0.052-0.202 0.023-0.029 0.094-0.045 0.169-0.018 0.048 0.017 0.16 0.075 0.16 0.25 0 0.14-0.065 0.268-0.177 0.351s-0.259 0.107-0.4 0.063c-0.174-0.053-0.295-0.236-0.295-0.446 0-0.15 0.032-0.301 0.091-0.434 0.005-0.010 0.067-0.139 0.134-0.285l-0.587 0.339c0.046 0.121 0.071 0.251 0.071 0.38 0 0.209-0.121 0.393-0.295 0.446-0.141 0.044-0.287 0.020-0.4-0.063-0.099-0.073-0.161-0.181-0.174-0.301l-0.263 0.152c0.026 0.084 0.066 0.164 0.119 0.234h-0.005c-0.080 0-0.145 0.065-0.145 0.145s0.065 0.145 0.145 0.145h0.005c-0.094 0.125-0.15 0.277-0.15 0.436 0 0.239 0.046 0.433 0.083 0.589 0.061 0.26 0.077 0.355-0.040 0.472-0.057 0.057-0.057 0.149 0 0.206 0.028 0.028 0.066 0.043 0.103 0.043s0.074-0.014 0.103-0.043c0.236-0.236 0.18-0.481 0.119-0.74 0.186 0.060 0.379 0.016 0.482-0.115 0.051-0.065 0.15-0.247-0.035-0.539-0.043-0.068-0.133-0.088-0.201-0.045s-0.087 0.133-0.044 0.201c0.070 0.11 0.072 0.177 0.052 0.202-0.023 0.029-0.094 0.044-0.169 0.018-0.048-0.017-0.16-0.075-0.16-0.25 0-0.14 0.065-0.268 0.177-0.351s0.259-0.107 0.4-0.063c0.174 0.053 0.295 0.236 0.295 0.446 0 0.15-0.032 0.301-0.093 0.438l-0.952 2.143c-0.078 0.176-0.118 0.363-0.118 0.556 0 0.248 0.113 0.475 0.29 0.613-0.177 0.138-0.29 0.365-0.29 0.613 0 0.193 0.040 0.38 0.118 0.556l0.952 2.143c0.061 0.137 0.093 0.288 0.093 0.438 0 0.209-0.121 0.393-0.295 0.446-0.141 0.044-0.287 0.020-0.4-0.063s-0.177-0.211-0.177-0.351c0-0.175 0.112-0.233 0.16-0.25 0.075-0.026 0.146-0.011 0.169 0.018 0.019 0.025 0.018 0.092-0.052 0.202-0.043 0.068-0.023 0.158 0.044 0.201s0.158 0.023 0.201-0.045c0.186-0.291 0.087-0.474 0.035-0.539-0.103-0.13-0.296-0.175-0.482-0.115 0.061-0.259 0.117-0.504-0.119-0.74-0.057-0.057-0.149-0.057-0.206 0s-0.057 0.149 0 0.206c0.116 0.116 0.101 0.212 0.040 0.472-0.037 0.156-0.083 0.35-0.083 0.589 0 0.159 0.056 0.311 0.15 0.436h-0.005c-0.080 0-0.145 0.065-0.145 0.145s0.065 0.145 0.145 0.145h0.005c-0.094 0.125-0.15 0.277-0.15 0.436 0 0.239 0.046 0.433 0.083 0.589 0.061 0.26 0.077 0.355-0.040 0.472-0.057 0.057-0.057 0.149 0 0.206 0.028 0.028 0.066 0.043 0.103 0.043s0.074-0.014 0.103-0.043c0.236-0.236 0.18-0.481 0.119-0.74 0.186 0.061 0.379 0.016 0.482-0.115 0.051-0.065 0.15-0.247-0.035-0.538-0.043-0.068-0.133-0.088-0.201-0.045s-0.087 0.133-0.044 0.201c0.070 0.11 0.072 0.177 0.052 0.202-0.023 0.029-0.094 0.045-0.169 0.018-0.048-0.017-0.16-0.075-0.16-0.25 0-0.14 0.065-0.268 0.177-0.351s0.259-0.107 0.4-0.063c0.174 0.053 0.295 0.236 0.295 0.446 0 0.15-0.032 0.301-0.093 0.438l-0.952 2.143c-0.078 0.176-0.118 0.363-0.118 0.556 0 0.248 0.113 0.475 0.29 0.613-0.177 0.138-0.29 0.365-0.29 0.613 0 0.193 0.040 0.38 0.118 0.556l0.952 2.143c0.061 0.137 0.093 0.288 0.093 0.438 0 0.209-0.121 0.393-0.295 0.446-0.141 0.044-0.287 0.020-0.4-0.063s-0.177-0.211-0.177-0.351c0-0.175 0.112-0.233 0.16-0.25 0.075-0.026 0.146-0.011 0.169 0.018 0.019 0.025 0.018 0.092-0.052 0.202-0.043 0.068-0.023 0.158 0.044 0.201s0.158 0.023 0.201-0.045c0.186-0.291 0.087-0.474 0.035-0.539-0.103-0.131-0.296-0.175-0.482-0.115 0.061-0.259 0.117-0.504-0.119-0.74-0.057-0.057-0.149-0.057-0.206 0s-0.057 0.149 0 0.206c0.116 0.116 0.101 0.212 0.040 0.472-0.037 0.156-0.083 0.35-0.083 0.589 0 0.228 0.109 0.445 0.292 0.582-0.081 0.061-0.146 0.137-0.195 0.223l0.251 0.145c0.030-0.053 0.070-0.1 0.121-0.137 0.113-0.084 0.259-0.107 0.4-0.063 0.174 0.053 0.295 0.236 0.295 0.446 0 0.072-0.008 0.143-0.022 0.214l0.412 0.238c-0.003-0.007-0.006-0.012-0.006-0.014-0.061-0.137-0.093-0.288-0.093-0.438 0-0.209 0.121-0.393 0.295-0.446 0.141-0.044 0.287-0.020 0.4 0.063s0.177 0.211 0.177 0.351c0 0.175-0.112 0.233-0.16 0.25-0.075 0.026-0.146 0.011-0.169-0.018-0.019-0.025-0.018-0.092 0.052-0.202 0.043-0.068 0.023-0.158-0.044-0.201s-0.158-0.023-0.201 0.045c-0.186 0.291-0.087 0.474-0.035 0.539 0.103 0.13 0.296 0.175 0.482 0.115-0.026 0.112-0.052 0.221-0.053 0.328l0.395 0.228c-0.005-0.008-0.011-0.015-0.018-0.022-0.117-0.116-0.102-0.212-0.040-0.472zM4.578 7.22c0.041 0.058 0.090 0.109 0.145 0.152-0.055 0.043-0.104 0.094-0.145 0.152-0.041-0.058-0.090-0.109-0.145-0.152 0.055-0.043 0.104-0.094 0.145-0.152zM3.653 10.684l0.925-2.081 0.925 2.081c0.061 0.137 0.093 0.288 0.093 0.438 0 0.209-0.121 0.393-0.295 0.446-0.141 0.044-0.287 0.020-0.4-0.063s-0.177-0.211-0.177-0.351c0-0.175 0.112-0.233 0.16-0.25 0.075-0.026 0.146-0.011 0.169 0.018 0.019 0.025 0.018 0.092-0.052 0.202-0.043 0.068-0.023 0.158 0.044 0.201s0.158 0.023 0.201-0.045c0.186-0.291 0.087-0.474 0.035-0.538-0.105-0.133-0.303-0.178-0.493-0.112-0.022 0.008-0.043 0.017-0.065 0.028v-0.368c0 0 0 0 0 0 0.004 0.077 0.068 0.137 0.145 0.137 0.080 0 0.145-0.065 0.145-0.145 0-0.095-0.066-0.259-0.291-0.31v-0.271c0-0.080-0.065-0.145-0.145-0.145s-0.145 0.065-0.145 0.145v0.271c-0.225 0.051-0.291 0.216-0.291 0.31 0 0.080 0.065 0.15 0.145 0.15s0.145-0.060 0.145-0.141c0-0 0-0.001 0.001-0.001v0.367c-0.022-0.011-0.043-0.020-0.065-0.028-0.189-0.066-0.388-0.020-0.493 0.112-0.051 0.065-0.15 0.247 0.035 0.538 0.043 0.068 0.133 0.087 0.201 0.045s0.088-0.133 0.044-0.201c-0.070-0.11-0.072-0.177-0.052-0.202 0.023-0.029 0.094-0.044 0.169-0.018 0.048 0.017 0.16 0.075 0.16 0.25 0 0.14-0.065 0.268-0.177 0.351s-0.259 0.107-0.4 0.063c-0.174-0.053-0.295-0.236-0.295-0.446-0-0.15 0.032-0.301 0.093-0.438zM4.724 11.735c-0.057 0.043-0.105 0.096-0.146 0.153-0.042-0.057-0.089-0.11-0.146-0.153 0.057-0.043 0.105-0.096 0.146-0.153 0.042 0.057 0.089 0.11 0.146 0.153zM3.653 12.786c-0.061-0.137-0.093-0.288-0.093-0.438 0-0.209 0.121-0.393 0.295-0.446 0.141-0.044 0.287-0.020 0.4 0.063s0.177 0.211 0.177 0.351c0 0.175-0.112 0.233-0.16 0.25-0.075 0.026-0.146 0.011-0.169-0.018-0.019-0.025-0.018-0.092 0.052-0.202 0.043-0.068 0.023-0.158-0.044-0.201s-0.158-0.023-0.201 0.045c-0.186 0.291-0.087 0.474-0.035 0.539 0.105 0.133 0.303 0.178 0.493 0.112 0.022-0.008 0.043-0.017 0.065-0.028v0.368l-0-0c-0.004-0.076-0.068-0.137-0.145-0.137-0.080 0-0.145 0.065-0.145 0.145 0 0.095 0.066 0.259 0.291 0.31v0.271c0 0.080 0.065 0.145 0.145 0.145s0.145-0.065 0.145-0.145v-0.271c0.225-0.051 0.291-0.216 0.291-0.31 0-0.080-0.065-0.15-0.145-0.15s-0.145 0.060-0.145 0.141c-0 0-0 0.001-0 0.001l-0-0.367c0.022 0.011 0.043 0.020 0.065 0.028 0.189 0.066 0.388 0.020 0.493-0.112 0.051-0.065 0.15-0.247-0.035-0.539-0.043-0.068-0.133-0.088-0.201-0.045s-0.088 0.133-0.044 0.201c0.070 0.11 0.072 0.177 0.052 0.202-0.023 0.029-0.094 0.045-0.169 0.018-0.048-0.017-0.16-0.075-0.16-0.25 0-0.14 0.065-0.268 0.177-0.351s0.259-0.107 0.4-0.063c0.174 0.053 0.295 0.236 0.295 0.446 0 0.15-0.032 0.301-0.093 0.438l-0.925 2.081-0.925-2.081zM4.723 16.098c-0.055 0.043-0.104 0.094-0.145 0.152-0.041-0.058-0.090-0.109-0.145-0.152 0.055-0.043 0.104-0.094 0.145-0.152 0.041 0.058 0.090 0.109 0.145 0.152zM3.653 19.41l0.925-2.081 0.925 2.081c0.061 0.137 0.093 0.288 0.093 0.438 0 0.209-0.121 0.393-0.295 0.446-0.141 0.044-0.287 0.020-0.4-0.063s-0.177-0.211-0.177-0.351c0-0.175 0.112-0.233 0.16-0.25 0.075-0.026 0.146-0.011 0.169 0.018 0.019 0.025 0.018 0.092-0.052 0.202-0.043 0.068-0.023 0.158 0.044 0.201s0.158 0.023 0.201-0.045c0.186-0.291 0.087-0.474 0.035-0.539-0.105-0.133-0.303-0.178-0.493-0.112-0.022 0.008-0.043 0.017-0.065 0.028v-0.368l0 0c0.004 0.076 0.068 0.137 0.145 0.137 0.080 0 0.145-0.065 0.145-0.145 0-0.095-0.066-0.259-0.291-0.31v-0.271c0-0.080-0.065-0.145-0.145-0.145s-0.145 0.065-0.145 0.145v0.271c-0.225 0.051-0.291 0.216-0.291 0.31 0 0.080 0.065 0.15 0.145 0.15s0.145-0.060 0.145-0.141c0-0 0-0.001 0-0.001l0 0.367c-0.022-0.011-0.043-0.020-0.065-0.028-0.189-0.066-0.388-0.020-0.493 0.113-0.051 0.065-0.15 0.247 0.035 0.539 0.043 0.068 0.133 0.087 0.201 0.045s0.088-0.133 0.044-0.201c-0.070-0.11-0.072-0.177-0.052-0.202 0.023-0.029 0.094-0.044 0.169-0.018 0.048 0.017 0.16 0.075 0.16 0.25 0 0.14-0.065 0.268-0.177 0.351s-0.259 0.107-0.4 0.063c-0.174-0.053-0.295-0.236-0.295-0.446-0-0.15 0.032-0.301 0.093-0.438zM4.724 20.461c-0.057 0.043-0.105 0.096-0.146 0.153-0.042-0.057-0.089-0.11-0.146-0.153 0.057-0.043 0.105-0.096 0.146-0.153 0.042 0.057 0.089 0.11 0.146 0.153zM4.578 24.977c-0.041-0.058-0.090-0.109-0.145-0.152 0.055-0.043 0.104-0.094 0.145-0.152 0.041 0.058 0.090 0.109 0.145 0.152-0.055 0.043-0.104 0.094-0.145 0.152zM4.578 23.594l-0.925-2.081c-0.061-0.137-0.093-0.288-0.093-0.438 0-0.209 0.121-0.393 0.295-0.446 0.141-0.044 0.287-0.020 0.4 0.063s0.177 0.211 0.177 0.351c0 0.175-0.112 0.233-0.16 0.25-0.075 0.026-0.146 0.011-0.169-0.018-0.019-0.025-0.018-0.092 0.052-0.202 0.043-0.068 0.023-0.158-0.044-0.201s-0.158-0.023-0.201 0.045c-0.186 0.291-0.087 0.474-0.035 0.539 0.105 0.133 0.303 0.179 0.493 0.112 0.022-0.008 0.043-0.017 0.065-0.028v0.368c0-0-0-0-0-0-0.004-0.077-0.068-0.137-0.145-0.137-0.080 0-0.145 0.065-0.145 0.145 0 0.095 0.066 0.259 0.291 0.31v0.271c0 0.080 0.065 0.145 0.145 0.145s0.145-0.065 0.145-0.145v-0.271c0.225-0.051 0.291-0.216 0.291-0.31 0-0.080-0.065-0.15-0.145-0.15s-0.145 0.060-0.145 0.141c-0 0-0 0.001-0.001 0.001v-0.367c0.022 0.011 0.043 0.020 0.065 0.028 0.189 0.066 0.388 0.020 0.493-0.113 0.051-0.065 0.15-0.247-0.035-0.539-0.043-0.068-0.133-0.087-0.201-0.045s-0.088 0.133-0.044 0.201c0.070 0.11 0.072 0.177 0.052 0.202-0.023 0.029-0.094 0.044-0.169 0.018-0.048-0.017-0.16-0.075-0.16-0.25 0-0.14 0.065-0.268 0.177-0.351s0.259-0.107 0.4-0.063c0.174 0.053 0.295 0.236 0.295 0.446 0 0.15-0.032 0.301-0.093 0.438l-0.925 2.081z"/><path fill="#ffe15a" d="M20.85 14.516c0 1.783-1.445 3.228-3.228 3.228s-3.228-1.445-3.228-3.228c0-1.783 1.445-3.228 3.228-3.228s3.228 1.445 3.228 3.228z"/><path fill="#ffe15a" d="M17.864 10.4c0 0.134-0.108 0.242-0.242 0.242s-0.242-0.108-0.242-0.242c0-0.134 0.242-0.726 0.242-0.726s0.242 0.593 0.242 0.726z"/><path fill="#ffe15a" d="M17.38 18.632c0-0.134 0.108-0.242 0.242-0.242s0.242 0.108 0.242 0.242-0.242 0.726-0.242 0.726-0.242-0.593-0.242-0.726z"/><path fill="#ffe15a" d="M21.738 14.758c-0.134 0-0.242-0.108-0.242-0.242s0.108-0.242 0.242-0.242 0.726 0.242 0.726 0.242-0.593 0.242-0.726 0.242z"/><path fill="#ffe15a" d="M13.506 14.274c0.134 0 0.242 0.108 0.242 0.242s-0.108 0.242-0.242 0.242-0.726-0.242-0.726-0.242 0.593-0.242 0.726-0.242z"/><path fill="#ffe15a" d="M20.704 11.777c-0.095 0.095-0.248 0.095-0.342 0s-0.095-0.248 0-0.342 0.685-0.342 0.685-0.342-0.248 0.59-0.342 0.685z"/><path fill="#ffe15a" d="M14.54 17.255c0.095-0.095 0.248-0.095 0.342 0s0.095 0.248 0 0.342c-0.095 0.095-0.685 0.342-0.685 0.342s0.248-0.59 0.342-0.685z"/><path fill="#ffe15a" d="M20.361 17.598c-0.095-0.095-0.095-0.248 0-0.342s0.248-0.095 0.342 0 0.342 0.685 0.342 0.685-0.59-0.248-0.685-0.342z"/><path fill="#ffe15a" d="M14.883 11.434c0.095 0.095 0.095 0.248 0 0.342s-0.248 0.095-0.342 0c-0.095-0.095-0.342-0.685-0.342-0.685s0.59 0.248 0.685 0.342z"/><path fill="#ffe15a" d="M16.271 10.621c0.051 0.124-0.008 0.265-0.131 0.316s-0.265-0.008-0.316-0.131-0.054-0.764-0.054-0.764 0.451 0.455 0.502 0.578z"/><path fill="#ffe15a" d="M18.973 18.411c-0.051-0.124 0.008-0.265 0.131-0.316s0.265 0.008 0.316 0.131c0.051 0.124 0.054 0.764 0.054 0.764s-0.451-0.455-0.502-0.578z"/><path fill="#ffe15a" d="M21.517 13.165c-0.124 0.051-0.265-0.008-0.316-0.131s0.008-0.265 0.131-0.316 0.764-0.054 0.764-0.054-0.455 0.451-0.578 0.502z"/><path fill="#ffe15a" d="M13.727 15.868c0.124-0.051 0.265 0.008 0.316 0.131s-0.008 0.265-0.131 0.316c-0.124 0.051-0.764 0.054-0.764 0.054s0.455-0.45 0.578-0.502z"/><path fill="#ffe15a" d="M19.421 10.806c-0.051 0.124-0.193 0.182-0.316 0.131s-0.182-0.193-0.131-0.316c0.051-0.124 0.502-0.578 0.502-0.578s-0.003 0.64-0.054 0.764z"/><path fill="#ffe15a" d="M15.823 18.226c0.051-0.124 0.193-0.182 0.316-0.131s0.182 0.193 0.131 0.316c-0.051 0.124-0.502 0.578-0.502 0.578s0.003-0.64 0.054-0.764z"/><path fill="#ffe15a" d="M21.332 16.315c-0.124-0.051-0.182-0.193-0.131-0.316s0.193-0.182 0.316-0.131c0.124 0.051 0.578 0.502 0.578 0.502s-0.64-0.003-0.764-0.054z"/><path fill="#ffe15a" d="M13.912 12.717c0.124 0.051 0.182 0.193 0.131 0.316s-0.193 0.182-0.316 0.131c-0.124-0.051-0.578-0.502-0.578-0.502s0.64 0.003 0.764 0.054z"/><path fill="#ffe15a" d="M17.057 10.432c0.026 0.131-0.059 0.259-0.19 0.285s-0.259-0.059-0.285-0.19 0.096-0.76 0.096-0.76 0.353 0.534 0.379 0.665z"/><path fill="#ffe15a" d="M18.188 18.6c-0.026-0.131 0.059-0.259 0.19-0.285s0.259 0.059 0.285 0.19-0.096 0.76-0.096 0.76-0.353-0.534-0.379-0.665z"/><path fill="#ffe15a" d="M21.706 13.95c-0.131 0.026-0.259-0.059-0.285-0.19s0.059-0.259 0.19-0.285c0.131-0.026 0.76 0.096 0.76 0.096s-0.534 0.353-0.665 0.379z"/><path fill="#ffe15a" d="M13.538 15.082c0.131-0.026 0.259 0.059 0.285 0.19s-0.059 0.259-0.19 0.285-0.76-0.096-0.76-0.096 0.534-0.353 0.665-0.379z"/><path fill="#ffe15a" d="M20.11 11.228c-0.074 0.111-0.225 0.141-0.336 0.067s-0.141-0.225-0.067-0.336c0.074-0.111 0.605-0.469 0.605-0.469s-0.128 0.627-0.202 0.739z"/><path fill="#ffe15a" d="M15.134 17.804c0.074-0.111 0.225-0.141 0.336-0.067s0.141 0.225 0.067 0.336c-0.074 0.111-0.605 0.469-0.605 0.469s0.128-0.627 0.202-0.738z"/><path fill="#ffe15a" d="M20.91 17.004c-0.111-0.074-0.141-0.225-0.067-0.336s0.225-0.141 0.336-0.067c0.111 0.074 0.469 0.605 0.469 0.605s-0.627-0.128-0.738-0.202z"/><path fill="#ffe15a" d="M14.334 12.028c0.111 0.074 0.141 0.225 0.067 0.336s-0.225 0.141-0.336 0.067c-0.111-0.074-0.469-0.605-0.469-0.605s0.627 0.128 0.739 0.202z"/><path fill="#ffe15a" d="M15.537 10.959c0.074 0.111 0.044 0.262-0.067 0.336s-0.262 0.044-0.336-0.067c-0.074-0.111-0.202-0.739-0.202-0.739s0.531 0.358 0.605 0.469z"/><path fill="#ffe15a" d="M19.708 18.073c-0.074-0.111-0.044-0.262 0.067-0.336s0.262-0.044 0.336 0.067c0.074 0.111 0.202 0.738 0.202 0.738s-0.531-0.358-0.605-0.469z"/><path fill="#ffe15a" d="M21.179 12.431c-0.111 0.074-0.262 0.044-0.336-0.067s-0.044-0.262 0.067-0.336 0.738-0.202 0.738-0.202-0.358 0.531-0.469 0.605z"/><path fill="#ffe15a" d="M14.065 16.601c0.111-0.074 0.262-0.044 0.336 0.067s0.044 0.262-0.067 0.336c-0.111 0.074-0.739 0.202-0.739 0.202s0.358-0.53 0.469-0.605z"/><path fill="#ffe15a" d="M18.662 10.526c-0.026 0.131-0.154 0.216-0.285 0.19s-0.216-0.154-0.19-0.285 0.379-0.665 0.379-0.665 0.122 0.628 0.096 0.76z"/><path fill="#ffe15a" d="M16.582 18.506c0.026-0.131 0.154-0.216 0.285-0.19s0.216 0.154 0.19 0.285c-0.026 0.131-0.379 0.665-0.379 0.665s-0.122-0.628-0.096-0.76z"/><path fill="#ffe15a" d="M21.612 15.557c-0.131-0.026-0.216-0.154-0.19-0.285s0.154-0.216 0.285-0.19c0.131 0.026 0.665 0.379 0.665 0.379s-0.628 0.122-0.76 0.096z"/><path fill="#ffe15a" d="M13.632 13.476c0.131 0.026 0.216 0.154 0.19 0.285s-0.154 0.216-0.285 0.19c-0.131-0.026-0.665-0.379-0.665-0.379s0.629-0.122 0.76-0.096z"/><path fill="#ffe15a" d="M25.215 15.365c-0.095-0.040-0.203 0.006-0.242 0.1 0 0 0 0 0 0-0.001 0.002-0.004 0.010-0.011 0.025-0.14 0.327-0.429 0.805-0.722 1.254 0.272-0.877 0.521-1.813 0.539-1.879 0.026-0.098-0.032-0.199-0.13-0.226s-0.199 0.031-0.227 0.129c-0.127 0.455-0.387 1.054-0.627 1.562 0.044-0.566 0.052-1.089 0.053-1.127 0.001-0.1-0.077-0.183-0.177-0.188-0.094 0.003-0.185 0.072-0.192 0.172-0.237 3.261-3.375 4.719-3.68 4.854-0.16 0.016-0.904 0.1-1.58 0.334-0.077 0.027-0.142 0.053-0.207 0.080-0.024-0.009-0.050-0.014-0.077-0.012-2.074 0.15-3.728-0.701-4.916-2.523-0.898-1.377-1.18-2.823-1.182-2.837-0.019-0.101-0.115-0.165-0.216-0.148-0.101 0.019-0.166 0.116-0.148 0.216 0.008 0.040 0.131 0.671 0.471 1.501-0.455-0.719-0.773-1.59-0.884-2.043-0.002-0.009-0.008-0.016-0.011-0.024-0.005-0.013-0.010-0.026-0.017-0.037-0.005-0.008-0.013-0.014-0.019-0.020-0.010-0.011-0.020-0.021-0.032-0.029-0.007-0.005-0.015-0.007-0.023-0.010-0.014-0.006-0.027-0.013-0.042-0.015-0.011-0.002-0.021-0.001-0.032-0.001s-0.022-0.003-0.033-0.001c-0.002 0-0.004 0.002-0.007 0.003s-0.005-0-0.007 0c-0.010 0.002-0.018 0.009-0.027 0.012-0.012 0.005-0.023 0.009-0.034 0.016s-0.017 0.016-0.026 0.024c-0.008 0.008-0.017 0.016-0.023 0.026s-0.010 0.021-0.015 0.032c-0.004 0.011-0.010 0.021-0.012 0.033s-0.001 0.024-0.001 0.037c0 0.010-0.003 0.020-0.001 0.030 0.001 0.004 0.002 0.009 0.003 0.013v0.001c0 0.001 0.001 0.002 0.001 0.003 0.114 0.675 0.387 1.374 0.634 1.908-0.392-0.445-0.719-0.957-0.835-1.261-0.003-0.009-0.010-0.015-0.015-0.023-0.007-0.012-0.013-0.025-0.022-0.035-0.007-0.007-0.015-0.012-0.022-0.018-0.011-0.009-0.022-0.018-0.035-0.024-0.008-0.004-0.017-0.005-0.026-0.008-0.014-0.004-0.027-0.009-0.041-0.009-0.011-0.001-0.023 0.002-0.034 0.004s-0.021 0-0.032 0.003c-0.002 0.001-0.003 0.002-0.005 0.003s-0.004 0-0.006 0.001c-0.010 0.004-0.017 0.011-0.026 0.017-0.011 0.006-0.022 0.011-0.031 0.019s-0.016 0.018-0.023 0.028c-0.007 0.009-0.014 0.018-0.020 0.028s-0.007 0.023-0.010 0.034c-0.003 0.011-0.007 0.022-0.008 0.034s0.002 0.024 0.004 0.036c0.001 0.010-0 0.021 0.003 0.031 0.201 0.65 0.686 1.423 1.065 1.967-0.316-0.244-0.549-0.507-0.616-0.587-0.007-0.009-0.014-0.017-0.022-0.026-0.065-0.078-0.181-0.090-0.26-0.026s-0.091 0.18-0.027 0.259c0.003 0.004 0.017 0.022 0.040 0.049 0.278 0.331 0.58 0.639 0.854 0.899l-0.375-0.16c-0.085-0.037-0.186-0.004-0.233 0.078s-0.026 0.184 0.049 0.241c0.037 0.027 0.701 0.523 1.276 0.816-0.054 0.003-0.118-0.001-0.189-0.006-0.087-0.008-0.172 0.054-0.194 0.142s0.025 0.179 0.11 0.214c0.014 0.006 0.189 0.078 0.406 0.155-0.050 0.021-0.091 0.063-0.107 0.118-0.025 0.082 0.010 0.171 0.085 0.214 0.019 0.011 0.281 0.161 0.605 0.294-0.009 0.013-0.016 0.028-0.021 0.044-0.025 0.078 0.004 0.163 0.071 0.21 0.056 0.039 1.314 0.892 2.782 0.892 0.096 0 0.194-0.004 0.292-0.012 0.102-0.008 0.178-0.097 0.17-0.199s-0.097-0.179-0.199-0.17c-0.923 0.075-1.811-0.271-2.34-0.536 0.070-0.017 0.11-0.033 0.12-0.037 0.082-0.033 0.129-0.119 0.113-0.205s-0.090-0.15-0.178-0.151c-0.215-0.004-0.512-0.109-0.768-0.221 0.097-0.048 0.153-0.095 0.158-0.099 0.056-0.047 0.079-0.121 0.060-0.191s-0.077-0.122-0.149-0.134c-0.079-0.013-0.177-0.038-0.279-0.069 0.1-0.058 0.142-0.121 0.159-0.153 0.026-0.051 0.026-0.111 0.002-0.163s-0.072-0.089-0.128-0.101c-0.048-0.010-0.103-0.028-0.163-0.051 0.011-0.011 0.021-0.023 0.029-0.037 0.047-0.080 0.028-0.183-0.046-0.24-0.004-0.003-0.148-0.116-0.365-0.303 0.034-0.013 0.065-0.036 0.087-0.068 0.047-0.067 0.043-0.157-0.008-0.221-0.004-0.005-0.148-0.186-0.346-0.461 0.065 0.051 0.131 0.103 0.196 0.145 0.031 0.020 0.066 0.029 0.1 0.029 0.047 0 0.093-0.018 0.129-0.052 0.015-0.014 0.026-0.030 0.035-0.048 0.112 0.12 0.23 0.229 0.354 0.322 0.016 0.012 0.036 0.012 0.054 0.018 0.053 0.088 0.107 0.176 0.165 0.264 1.124 1.73 2.709 2.656 4.611 2.712-0.175 0.106-0.365 0.216-0.666 0.333-0.066 0.026-0.124 0.051-0.182 0.077-0.028 0.006-0.055 0.016-0.077 0.033-0.525 0.243-0.743 0.483-0.831 0.651s-0.012 0.338 0.095 0.427c0.033 0.027 0.076 0.042 0.119 0.042 0.029 0 0.059-0.006 0.085-0.020 0.065-0.033 0.109-0.102 0.106-0.174 0.008-0.008 0.040-0.035 0.141-0.038 0.074-0.006 0.228 0.010 0.409 0.025 0.172 0.014 0.378 0.030 0.597 0.041-0.137 0.16-0.296 0.345-0.296 0.345-0.048 0.056-0.058 0.134-0.027 0.201s0.101 0.108 0.173 0.105c0.146-0.005 0.246-0.008 0.311-0.009 0.057 0.075 0.127 0.104 0.172 0.116 0.127 0.033 0.254-0.018 0.35-0.079 0.072 0.052 0.145 0.074 0.202 0.082 0.129 0.018 0.249-0.020 0.336-0.063 0.090 0.058 0.177 0.073 0.244 0.073 0.001 0 0.002 0 0.003 0 0.145-0.001 0.271-0.070 0.36-0.139 0.079 0.047 0.155 0.062 0.213 0.065 0.133 0.005 0.242-0.046 0.315-0.094 0.261 0.052 0.486-0.070 0.634-0.206 0.068 0.039 0.132 0.049 0.184 0.047 0.132-0.005 0.233-0.085 0.297-0.157 0.296 0.036 0.508-0.019 0.631-0.165 0.067-0.079 0.094-0.169 0.101-0.25 0.821-0.005 0.895-0.453 0.901-0.508 0.005-0.050-0.010-0.101-0.043-0.139s-0.080-0.063-0.13-0.065l-2.151-0.129c-0.090-0.006-0.17 0.054-0.191 0.142-0 0.002-0.037 0.138-0.152 0.247-0.154 0.147-0.403 0.225-0.674 0.267 0.001-0.025-0.003-0.050-0.012-0.075-0.037-0.095-0.144-0.142-0.239-0.106-0.444 0.172-1.163 0.151-1.726 0.112 0.086-0.070 0.19-0.14 0.273-0.186 0.070-0.039 0.108-0.118 0.093-0.197-0.011-0.057-0.052-0.097-0.102-0.123 0.156-0.079 0.285-0.155 0.406-0.229 0.211-0.129 0.411-0.251 0.774-0.378 0.701-0.244 1.513-0.318 1.521-0.319 0.018-0.001 0.037-0.006 0.054-0.013 0.029-0.012 2.319-0.971 3.397-3.184-0.014 0.067-0.029 0.128-0.046 0.181-0.028 0.091 0.017 0.188 0.105 0.225 0.068 0.029 0.145 0.014 0.197-0.035-0.068 0.18-0.13 0.321-0.18 0.405-0.051 0.085-0.027 0.195 0.056 0.25 0.019 0.013 0.040 0.021 0.061 0.026-0.084 0.122-0.168 0.238-0.253 0.344-0.056 0.070-0.053 0.171 0.006 0.238-0.145 0.152-0.273 0.277-0.371 0.357-0.064 0.052-0.085 0.138-0.055 0.212-0.094 0.054-0.172 0.092-0.225 0.108-0.090 0.027-0.145 0.118-0.128 0.21 0.009 0.049 0.036 0.090 0.074 0.117-0.113 0.030-0.237 0.060-0.372 0.086-0.076 0.015-0.134 0.076-0.147 0.152s0.024 0.152 0.091 0.191c0.006 0.003 0.069 0.039 0.166 0.080-0.358 0.144-0.998 0.333-2.047 0.436-0.102 0.010-0.176 0.101-0.166 0.203s0.098 0.172 0.202 0.166c1.992-0.197 2.607-0.696 2.632-0.717 0.058-0.048 0.080-0.127 0.058-0.198-0.015-0.047-0.048-0.086-0.091-0.108 0.636-0.2 0.91-0.422 0.924-0.434 0.070-0.058 0.087-0.158 0.041-0.236s-0.143-0.113-0.227-0.078c-0.024 0.009-0.061 0.018-0.109 0.028 0.427-0.293 0.88-0.641 1.080-0.796 0.035-0.026 0.067-0.051 0.095-0.075 0.077-0.065 0.088-0.18 0.024-0.259s-0.179-0.091-0.258-0.029c-0.029 0.023-0.059 0.046-0.090 0.070-0.092 0.068-0.21 0.146-0.338 0.225 0.485-0.55 0.973-1.147 1.112-1.318 0.013-0.016 0.025-0.031 0.038-0.047 0.064-0.080 0.052-0.196-0.028-0.26s-0.196-0.052-0.26 0.027l-0 0-0 0c-0.003 0.004-0.019 0.023-0.046 0.056-0.146 0.178-0.3 0.351-0.451 0.512 0.494-0.895 0.868-1.776 0.922-1.906 0.002-0.005 0.004-0.009 0.006-0.014 0.039-0.094-0.005-0.202-0.1-0.241zM16.538 21.606l0.051 0.007c-0.062 0.058-0.112 0.123-0.153 0.19-0.088-0.007-0.168-0.013-0.23-0.016 0.086-0.056 0.197-0.117 0.332-0.18z"/></svg>