<!-- Generated by IcoMoon.io -->
<svg version="1.1" xmlns="http://www.w3.org/2000/svg" width="32" height="32" viewBox="0 0 32 32">
<title>kenya</title>
<path fill="#f5f5f5" d="M1.849 22.9l-0.002-13.795c-0-0.788 0.42-1.516 1.102-1.91l11.945-6.899c0.682-0.394 1.523-0.394 2.205-0l11.948 6.895c0.682 0.394 1.103 1.122 1.103 1.91l0.002 13.795c0 0.788-0.42 1.516-1.102 1.91l-11.945 6.899c-0.682 0.394-1.523 0.394-2.205 0l-11.947-6.895c-0.683-0.394-1.103-1.122-1.103-1.91z"></path>
<path fill="#73af00" d="M1.849 22.9c0 0.788 0.421 1.516 1.103 1.91l11.948 6.895c0.682 0.394 1.523 0.394 2.205-0l11.945-6.899c0.682-0.394 1.102-1.122 1.102-1.91l-0-0.956h-28.304l0 0.961z"></path>
<path fill="#464655" d="M30.151 9.1c-0-0.788-0.421-1.516-1.103-1.91l-11.948-6.895c-0.682-0.394-1.523-0.394-2.205 0l-11.945 6.899c-0.682 0.394-1.103 1.122-1.102 1.91l0 0.956h28.304l-0-0.961z"></path>
<path fill="#c8414b" d="M1.849 20.242h28.304l-0.001-8.484h-28.304z"></path>
<path fill="#f5f5f5" d="M19.346 10.735c0.503-1.037 1.028-3.441 1.028-3.441s-1.562 1.9-2.066 2.938c-0.105 0.217-0.061 0.467 0.092 0.637l-5.731 11.816 0.389 0.189 5.731-11.816c0.227 0.015 0.451-0.105 0.557-0.322z"></path>
<path fill="#f5f5f5" d="M12.654 10.735c-0.503-1.037-1.028-3.441-1.028-3.441s1.562 1.9 2.065 2.938c0.105 0.217 0.061 0.467-0.092 0.637l5.731 11.816-0.389 0.189-5.731-11.816c-0.227 0.015-0.451-0.105-0.557-0.322z"></path>
<path fill="#c8414b" d="M19.124 16c0 3.451-2.549 6.248-3.124 6.248s-3.124-2.797-3.124-6.248 2.549-6.248 3.124-6.248c0.575-0 3.124 2.797 3.124 6.248z"></path>
<path fill="#464655" d="M18.499 19.015c0.368-0.894 0.625-1.921 0.625-3.015s-0.257-2.12-0.625-3.015c-0.368 0.894-0.625 1.921-0.625 3.015s0.257 2.121 0.625 3.015z"></path>
<path fill="#464655" d="M13.501 12.985c-0.368 0.894-0.625 1.921-0.625 3.015s0.257 2.12 0.625 3.015c0.368-0.894 0.625-1.921 0.625-3.015s-0.257-2.121-0.625-3.015z"></path>
<path fill="#f5f5f5" d="M16.625 16c0 0.518-0.28 0.937-0.625 0.937s-0.625-0.42-0.625-0.937c0-0.518 0.28-0.937 0.625-0.937s0.625 0.42 0.625 0.937z"></path>
<path fill="#f5f5f5" d="M16.094 9.752v5.311c0.17-0.355 0.473-1.402 0.473-2.655s-0.302-2.301-0.473-2.656z"></path>
<path fill="#f5f5f5" d="M15.906 9.752c-0.17 0.355-0.473 1.402-0.473 2.655s0.302 2.301 0.473 2.655v-5.311z"></path>
<path fill="#f5f5f5" d="M16.094 16.937v5.311c0.17-0.355 0.473-1.402 0.473-2.655s-0.302-2.301-0.473-2.656z"></path>
<path fill="#f5f5f5" d="M15.906 16.937c-0.17 0.355-0.473 1.402-0.473 2.655s0.302 2.301 0.473 2.655v-5.311z"></path>
</svg>
