<!-- Generated by IcoMoon.io -->
<svg version="1.1" xmlns="http://www.w3.org/2000/svg" width="32" height="32" viewBox="0 0 32 32">
<title>kwait</title>
<path fill="#f5f5f5" d="M5.456 21.39h24.697l0 1.505-0-2.651-0-1.698-0.001-5.093-0-1.698-0-1.146h-24.695z"></path>
<path fill="#73af00" d="M29.204 7.291c-0.051-0.035-0.103-0.069-0.157-0.101l-11.948-6.895c-0.682-0.394-1.523-0.394-2.205 0l-8.598 4.966 1.502 3.318 3.197 2.015v0.015h19.155l-0-1.51c-0-0.725-0.357-1.399-0.946-1.809z"></path>
<path fill="#ff4b55" d="M10.996 21.405l-3.119 1.546-1.581 3.788 8.604 4.965c0.682 0.394 1.523 0.394 2.205-0l11.945-6.899c0.053-0.030 0.103-0.063 0.152-0.098 0.592-0.41 0.95-1.085 0.95-1.813l-0-1.505-19.157 0.015z"></path>
<path fill="#464655" d="M10.996 10.61v-0.015l-4.699-5.334-3.347 1.933c-0.053 0.030-0.103 0.063-0.152 0.098-0.592 0.41-0.95 1.085-0.95 1.813l0 1.505 0 1.146 0 1.698 0.001 5.093 0 1.698 0 1.146 0 1.51c0 0.725 0.357 1.399 0.946 1.809 0.051 0.035 0.103 0.069 0.157 0.101l3.344 1.93 4.7-5.335v-0.015l-0-10.78z"></path>
</svg>
