<!-- Generated by IcoMoon.io -->
<svg version="1.1" xmlns="http://www.w3.org/2000/svg" width="32" height="32" viewBox="0 0 32 32">
<title>kyrgyzstan</title>
<path fill="#ff4b55" d="M30.152 18.547l-0.001-5.093-0-1.698-0-2.655c-0-0.725-0.357-1.399-0.946-1.809-0.051-0.035-0.103-0.069-0.157-0.101l-11.948-6.895c-0.682-0.394-1.523-0.394-2.205 0l-11.945 6.899c-0.053 0.030-0.103 0.063-0.152 0.098-0.592 0.41-0.95 1.085-0.95 1.813l0 2.651 0 1.698 0.001 5.093 0 1.698 0 2.655c0 0.725 0.357 1.399 0.946 1.809 0.051 0.035 0.103 0.069 0.157 0.101l11.948 6.895c0.682 0.394 1.523 0.394 2.205-0l11.945-6.899c0.053-0.030 0.103-0.063 0.152-0.098 0.592-0.41 0.95-1.085 0.95-1.813l-0-2.651-0-1.698z"></path>
<path fill="#ffe15a" d="M22.609 17.863c0 0-1.245-0.207-2.167-0.972-0.272-0.226-0.667-0.398-1.051-0.525 0.309-0.014 0.637-0.005 0.947 0.058 1.283 0.259 2.528-0.363 2.528-0.363s-1.256 0.127-2.346-0.369c-0.295-0.134-0.677-0.197-1.051-0.224 0.268-0.077 0.553-0.138 0.835-0.153 1.307-0.072 2.354-0.989 2.354-0.989s-1.183 0.439-2.363 0.234c-0.344-0.060-0.766-0.015-1.158 0.064 0.258-0.162 0.543-0.314 0.838-0.412 1.243-0.411 2.015-1.569 2.015-1.569s-1.027 0.733-2.22 0.843c-0.354 0.033-0.758 0.192-1.122 0.375 0.21-0.23 0.45-0.458 0.715-0.634 1.091-0.724 1.53-2.044 1.53-2.044s-0.798 0.977-1.92 1.398c-0.306 0.115-0.623 0.344-0.907 0.592 0.136-0.247 0.296-0.495 0.486-0.707 0.873-0.976 0.964-2.365 0.964-2.365s-0.525 1.147-1.504 1.838c-0.285 0.201-0.552 0.532-0.774 0.866 0.068-0.298 0.161-0.607 0.301-0.885 0.587-1.17 0.313-2.535 0.313-2.535s-0.207 1.245-0.972 2.167c-0.226 0.272-0.398 0.667-0.525 1.051-0.014-0.309-0.005-0.637 0.058-0.947 0.259-1.283-0.363-2.528-0.363-2.528s0.127 1.256-0.369 2.346c-0.134 0.295-0.197 0.678-0.224 1.051-0.077-0.268-0.138-0.553-0.153-0.835-0.072-1.307-0.989-2.354-0.989-2.354s0.439 1.183 0.234 2.363c-0.060 0.344-0.015 0.766 0.064 1.158-0.162-0.258-0.314-0.543-0.411-0.838-0.411-1.243-1.569-2.015-1.569-2.015s0.733 1.027 0.843 2.22c0.033 0.354 0.192 0.758 0.375 1.122-0.23-0.21-0.458-0.45-0.634-0.715-0.724-1.091-2.044-1.53-2.044-1.53s0.977 0.798 1.398 1.92c0.115 0.306 0.344 0.623 0.592 0.907-0.247-0.136-0.495-0.296-0.707-0.486-0.976-0.873-2.365-0.964-2.365-0.964s1.147 0.525 1.838 1.504c0.201 0.285 0.532 0.552 0.865 0.774-0.298-0.068-0.606-0.161-0.884-0.301-1.17-0.587-2.535-0.313-2.535-0.313s1.245 0.207 2.167 0.972c0.272 0.226 0.667 0.398 1.051 0.525-0.309 0.014-0.637 0.005-0.947-0.058-1.283-0.259-2.528 0.364-2.528 0.364s1.256-0.127 2.346 0.369c0.295 0.134 0.678 0.197 1.051 0.224-0.268 0.077-0.553 0.138-0.835 0.153-1.307 0.073-2.354 0.989-2.354 0.989s1.183-0.439 2.363-0.234c0.344 0.060 0.766 0.015 1.158-0.064-0.258 0.162-0.543 0.314-0.838 0.411-1.243 0.411-2.015 1.57-2.015 1.57s1.027-0.733 2.22-0.843c0.354-0.033 0.758-0.192 1.122-0.375-0.21 0.23-0.45 0.458-0.715 0.634-1.091 0.724-1.53 2.044-1.53 2.044s0.798-0.977 1.92-1.398c0.306-0.115 0.623-0.344 0.907-0.592-0.136 0.247-0.296 0.495-0.486 0.707-0.873 0.976-0.964 2.365-0.964 2.365s0.525-1.147 1.504-1.838c0.285-0.201 0.552-0.532 0.774-0.866-0.068 0.298-0.161 0.606-0.301 0.885-0.587 1.17-0.313 2.535-0.313 2.535s0.207-1.245 0.972-2.167c0.226-0.272 0.398-0.667 0.525-1.051 0.014 0.309 0.005 0.637-0.058 0.947-0.259 1.283 0.364 2.528 0.364 2.528s-0.127-1.256 0.369-2.346c0.134-0.295 0.197-0.678 0.224-1.051 0.077 0.268 0.138 0.553 0.153 0.835 0.073 1.307 0.989 2.354 0.989 2.354s-0.439-1.183-0.234-2.363c0.060-0.344 0.015-0.766-0.064-1.158 0.162 0.258 0.314 0.543 0.411 0.838 0.411 1.243 1.57 2.015 1.57 2.015s-0.733-1.027-0.843-2.22c-0.033-0.354-0.192-0.758-0.375-1.122 0.23 0.21 0.458 0.45 0.634 0.715 0.724 1.091 2.044 1.53 2.044 1.53s-0.977-0.798-1.398-1.92c-0.115-0.306-0.344-0.623-0.592-0.907 0.247 0.136 0.495 0.296 0.707 0.486 0.976 0.873 2.365 0.964 2.365 0.964s-1.147-0.525-1.838-1.504c-0.201-0.285-0.532-0.552-0.866-0.774 0.298 0.068 0.606 0.161 0.885 0.301 1.17 0.587 2.535 0.313 2.535 0.313zM15.998 19.173c-1.752 0-3.172-1.42-3.172-3.172s1.42-3.172 3.172-3.172 3.172 1.42 3.172 3.172-1.42 3.172-3.172 3.172z"></path>
<path fill="#ffe15a" d="M14.993 14.716c0.068-0.053 0.135-0.106 0.203-0.153-0.45-0.204-0.854-0.303-1.138-0.347-0.045 0.049-0.086 0.102-0.127 0.154 0.279 0.054 0.653 0.157 1.062 0.345z"></path>
<path fill="#ffe15a" d="M14.195 14.077c0.305 0.034 0.746 0.125 1.236 0.336 0.082-0.049 0.164-0.092 0.246-0.134-0.529-0.217-1.006-0.298-1.335-0.323-0.049 0.040-0.101 0.078-0.147 0.121z"></path>
<path fill="#ffe15a" d="M15.783 15.547c-0.063-0.060-0.127-0.116-0.192-0.17-0.594 0.565-1.114 1.39-1.348 2.586 0.085 0.076 0.17 0.154 0.265 0.218 0.172-1.217 0.677-2.056 1.275-2.634z"></path>
<path fill="#ffe15a" d="M15.552 15.022c0.067-0.054 0.135-0.108 0.203-0.157-0.083-0.053-0.166-0.1-0.248-0.145-0.071 0.048-0.142 0.095-0.211 0.15 0.086 0.047 0.171 0.097 0.257 0.152z"></path>
<path fill="#ffe15a" d="M17.194 14.869c0.509 0.447 0.975 1.077 1.306 1.95 0.085-0.259 0.142-0.531 0.142-0.819 0-0.546-0.166-1.053-0.45-1.475-0.263 0.052-0.615 0.154-0.998 0.343z"></path>
<path fill="#ffe15a" d="M15.802 15.192c0.066 0.049 0.131 0.105 0.197 0.16 0.065-0.055 0.13-0.11 0.196-0.16-0.065-0.054-0.13-0.108-0.197-0.157-0.066 0.049-0.131 0.102-0.197 0.157z"></path>
<path fill="#ffe15a" d="M15.998 14.426c-0.083 0.042-0.166 0.090-0.25 0.139 0.083 0.044 0.166 0.091 0.25 0.142 0.084-0.051 0.167-0.098 0.25-0.142-0.084-0.049-0.167-0.097-0.25-0.139z"></path>
<path fill="#ffe15a" d="M13.955 17.658c0.28-1.142 0.807-1.925 1.397-2.463-0.082-0.058-0.165-0.112-0.247-0.161-0.568 0.499-1.082 1.221-1.398 2.26 0.073 0.129 0.155 0.25 0.248 0.364z"></path>
<path fill="#ffe15a" d="M14.803 14.869c-0.383-0.189-0.736-0.291-0.999-0.343-0.284 0.421-0.45 0.929-0.45 1.475 0 0.288 0.057 0.559 0.142 0.819 0.331-0.873 0.797-1.503 1.306-1.95z"></path>
<path fill="#ffe15a" d="M15.998 14.13c0.562-0.232 1.081-0.315 1.45-0.337-0.417-0.274-0.914-0.436-1.45-0.436s-1.034 0.162-1.45 0.436c0.369 0.022 0.888 0.104 1.45 0.337z"></path>
<path fill="#ffe15a" d="M15.998 15.771c-0.527 0.584-0.962 1.423-1.104 2.625 0.337 0.156 0.708 0.248 1.104 0.248s0.767-0.093 1.104-0.248c-0.141-1.201-0.576-2.040-1.104-2.625z"></path>
<path fill="#ffe15a" d="M16.892 15.034c-0.082 0.050-0.165 0.103-0.247 0.161 0.59 0.538 1.117 1.321 1.397 2.463 0.093-0.114 0.175-0.235 0.248-0.364-0.316-1.039-0.83-1.761-1.398-2.26z"></path>
<path fill="#ffe15a" d="M17.754 17.963c-0.235-1.196-0.754-2.020-1.348-2.586-0.065 0.053-0.129 0.11-0.192 0.17 0.598 0.578 1.103 1.418 1.275 2.634 0.095-0.065 0.179-0.142 0.265-0.218z"></path>
<path fill="#ffe15a" d="M16.32 14.279c0.082 0.042 0.164 0.085 0.246 0.134 0.49-0.211 0.931-0.302 1.236-0.336-0.046-0.043-0.098-0.081-0.147-0.121-0.329 0.025-0.806 0.106-1.335 0.323z"></path>
<path fill="#ffe15a" d="M16.444 15.022c0.086-0.055 0.172-0.105 0.257-0.152-0.070-0.054-0.141-0.101-0.211-0.15-0.083 0.045-0.165 0.092-0.248 0.145 0.068 0.048 0.135 0.103 0.203 0.157z"></path>
<path fill="#ffe15a" d="M17.004 14.716c0.409-0.188 0.783-0.291 1.062-0.345-0.041-0.052-0.082-0.105-0.127-0.154-0.284 0.044-0.688 0.142-1.138 0.347 0.068 0.047 0.136 0.1 0.203 0.153z"></path>
</svg>
