<!-- Generated by IcoMoon.io -->
<svg version="1.1" xmlns="http://www.w3.org/2000/svg" width="32" height="32" viewBox="0 0 32 32">
<title>laos</title>
<path fill="#41479b" d="M30.151 9.1c-0-0.788-0.421-1.516-1.103-1.91l-11.948-6.895c-0.683-0.394-1.523-0.394-2.205 0l-11.945 6.899c-0.682 0.394-1.103 1.122-1.102 1.91l0.002 13.795c0 0.788 0.421 1.516 1.103 1.91l11.948 6.895c0.682 0.394 1.523 0.394 2.205-0l11.945-6.899c0.682-0.394 1.102-1.122 1.102-1.91l-0.002-13.794z"></path>
<path fill="#ff4b55" d="M17.1 0.295c-0.683-0.394-1.523-0.394-2.205 0l-11.063 6.389h24.34l-11.072-6.39z"></path>
<path fill="#ff4b55" d="M14.9 31.705c0.682 0.394 1.523 0.394 2.205-0l11.063-6.389h-24.34l11.072 6.39z"></path>
<path fill="#f5f5f5" d="M21.623 16c0 3.106-2.518 5.623-5.623 5.623s-5.623-2.518-5.623-5.623c0-3.106 2.518-5.623 5.623-5.623s5.623 2.518 5.623 5.623z"></path>
</svg>
