<!-- Generated by IcoMoon.io -->
<svg version="1.1" xmlns="http://www.w3.org/2000/svg" width="32" height="32" viewBox="0 0 32 32">
<title>lebanon</title>
<path fill="#f5f5f5" d="M30.151 9.1c-0-0.788-0.421-1.516-1.103-1.91l-0.906-0.523h-24.28l-0.912 0.527c-0.682 0.394-1.103 1.122-1.102 1.91l0.002 13.795c0 0.788 0.421 1.516 1.103 1.91l0.906 0.523h24.28l0.912-0.527c0.682-0.394 1.102-1.122 1.102-1.91l-0.002-13.794z"></path>
<path fill="#73af00" d="M7.236 20.645l7.066 1.413v0.882c0 0.481-0.191 0.943-0.532 1.284l-1.102 1.102 3.254 1.296 3.281-1.296-1.102-1.102c-0.34-0.34-0.532-0.802-0.532-1.284v-0.882l7.066-1.413c0.51-0.102 0.738-0.702 0.424-1.117-0.11-0.146-0.273-0.243-0.453-0.271l-7.528-1.174c-0.208-0.032-0.355-0.228-0.32-0.444 0.034-0.209 0.246-0.342 0.456-0.315l5.219 0.687c0.424 0.056 0.684-0.451 0.392-0.763l-0.419-0.447c-0.157-0.167-0.363-0.281-0.588-0.324l-4.36-0.844 3.718 0.268c0.285 0.021 0.45-0.316 0.259-0.529l-0.191-0.212c-0.115-0.128-0.268-0.217-0.437-0.252l-3.691-0.771 2.623-0.076c0.232-0.007 0.35-0.282 0.195-0.454l-0.118-0.131c-0.092-0.103-0.211-0.177-0.344-0.215l-2.339-0.672h1.838c0.182 0 0.304-0.186 0.232-0.353l-0.062-0.143c-0.074-0.172-0.218-0.304-0.395-0.364l-1.7-0.578 0.836-0.003c0.248-0.001 0.415-0.256 0.316-0.484-0.080-0.184-0.22-0.334-0.398-0.426l-1.865-0.967-1.865 0.967c-0.178 0.092-0.318 0.243-0.398 0.426v0c-0.099 0.228 0.068 0.483 0.316 0.484l0.836 0.003-1.7 0.578c-0.177 0.060-0.321 0.193-0.395 0.364l-0.062 0.143c-0.072 0.167 0.050 0.353 0.232 0.353h1.838l-2.339 0.672c-0.133 0.038-0.252 0.113-0.344 0.215l-0.118 0.131c-0.155 0.173-0.037 0.448 0.195 0.454l2.623 0.076-3.691 0.771c-0.169 0.035-0.322 0.124-0.437 0.252l-0.191 0.212c-0.191 0.213-0.026 0.55 0.259 0.529l3.718-0.268-4.36 0.844c-0.225 0.044-0.431 0.157-0.588 0.324l-0.419 0.447c-0.293 0.312-0.032 0.819 0.392 0.763l5.219-0.687c0.21-0.028 0.422 0.106 0.456 0.315 0.035 0.216-0.112 0.411-0.32 0.444l-7.528 1.174c-0.18 0.028-0.343 0.125-0.453 0.271v0c-0.314 0.415-0.087 1.015 0.423 1.117z"></path>
<path fill="#ff4b55" d="M14.895 0.296l-11.033 6.372h24.28l-11.042-6.373c-0.682-0.394-1.523-0.394-2.205 0z"></path>
<path fill="#ff4b55" d="M14.9 31.705c0.682 0.394 1.523 0.394 2.205-0l11.033-6.372h-24.28l11.042 6.373z"></path>
</svg>
