<svg xmlns="http://www.w3.org/2000/svg" width="32" height="32" version="1.1" viewBox="0 0 32 32"><title>lesotho</title><path fill="#f5f5f5" d="M30.152 18.547l-0.001-5.093-0-1.698-0-2.655c-0-0.725-0.357-1.399-0.946-1.809-0.051-0.035-0.103-0.069-0.157-0.101l-11.948-6.895c-0.682-0.394-1.523-0.394-2.205 0l-11.945 6.899c-0.053 0.030-0.103 0.063-0.152 0.098-0.592 0.41-0.95 1.085-0.95 1.813l0 2.651 0 1.698 0.001 5.093 0 1.698 0 2.655c0 0.725 0.357 1.399 0.946 1.809 0.051 0.035 0.103 0.069 0.157 0.101l11.948 6.895c0.682 0.394 1.523 0.394 2.205-0l11.945-6.899c0.053-0.030 0.103-0.063 0.152-0.098 0.592-0.41 0.95-1.085 0.95-1.813l-0-2.651-0-1.698z"/><path fill="#73af00" d="M30.153 20.92h-28.304l0 1.979c0 0.725 0.357 1.399 0.946 1.809 0.051 0.035 0.103 0.069 0.157 0.101l11.948 6.895c0.682 0.394 1.523 0.394 2.205-0l11.945-6.899c0.053-0.030 0.103-0.063 0.152-0.098 0.592-0.41 0.95-1.085 0.95-1.813l-0-1.974z"/><path fill="#41479b" d="M30.151 9.1c-0-0.725-0.357-1.399-0.946-1.809-0.051-0.035-0.103-0.069-0.157-0.101l-11.947-6.895c-0.682-0.394-1.523-0.394-2.205 0l-11.945 6.899c-0.053 0.030-0.103 0.063-0.152 0.098-0.592 0.41-0.95 1.085-0.95 1.813l0 1.974h28.304l-0-1.979z"/><path fill="#464655" d="M18.682 17.753l-0.181 0.092c-0.025 0.012-0.051 0.023-0.076 0.035l-1.595-2.015c0.328-0.713 0.522-1.686 0.522-2.128 0-0.727-0.477-1.332-1.104-1.46-0.042-0.095-0.137-0.161-0.247-0.161s-0.205 0.066-0.247 0.161c-0.627 0.128-1.104 0.734-1.104 1.46 0 0.442 0.194 1.415 0.522 2.128l-1.595 2.015c-0.025-0.012-0.051-0.023-0.076-0.035l-0.181-0.092-0.674 1.325 0.181 0.092c0.92 0.468 2.017 0.715 3.174 0.715s2.255-0.247 3.174-0.715l0.181-0.092-0.674-1.325zM17.082 13.737c0 0.329-0.122 1.020-0.348 1.653-0.030 0.083-0.060 0.163-0.092 0.238l-0.236-0.298v-1.053h0.405l-0.541-0.54v-1.176c0.465 0.136 0.811 0.611 0.811 1.176zM15.269 15.39c-0.226-0.633-0.348-1.324-0.348-1.653 0-0.565 0.345-1.040 0.811-1.176v1.176l-0.54 0.54h0.405v1.053l-0.236 0.298c-0.031-0.075-0.062-0.154-0.092-0.238zM13.451 18.39l0.055 0.227-0.198 0.054 0.143-0.281zM13.216 18.906l0.339-0.093 0.062 0.256c-0.137-0.050-0.271-0.104-0.401-0.164zM13.729 18.39c0.154 0.061 0.315 0.115 0.479 0.163l0.049 0.149-0.427 0.105-0.101-0.418zM13.92 19.173l-0.041-0.169 0.442-0.109 0.137 0.42c-0.184-0.040-0.363-0.088-0.538-0.142zM14.52 18.634c0.17 0.040 0.342 0.074 0.519 0.099l0.073 0.131-0.469 0.146-0.123-0.377zM14.761 19.374l-0.056-0.17 0.507-0.158 0.23 0.411c-0.231-0.017-0.459-0.045-0.681-0.083zM15.37 18.773c0.208 0.020 0.419 0.031 0.631 0.031 0.045 0 0.090-0.003 0.135-0.003l0.056 0.087-0.623 0.242-0.199-0.356zM16.001 19.479c-0.080 0-0.16-0.003-0.239-0.006l-0.093-0.166 0.637-0.247 0.258 0.396c-0.186 0.014-0.373 0.023-0.563 0.023zM16.45 18.787c0.214-0.014 0.426-0.039 0.634-0.073l0.061 0.078-0.494 0.303-0.201-0.308zM16.868 19.427l-0.106-0.163 0.508-0.312 0.283 0.361c-0.223 0.049-0.452 0.087-0.685 0.114zM17.382 18.657c0.177-0.038 0.35-0.083 0.517-0.135l0.063 0.081-0.359 0.337-0.221-0.283zM17.842 19.244l-0.113-0.144 0.358-0.336 0.25 0.323c-0.161 0.058-0.326 0.112-0.495 0.157zM18.17 18.429c0.114-0.042 0.226-0.087 0.333-0.136l0.053 0.104-0.173 0.308-0.213-0.276zM18.6 18.986l-0.082-0.106 0.149-0.265 0.143 0.282c-0.069 0.032-0.14 0.060-0.21 0.090z"/></svg>