<svg xmlns="http://www.w3.org/2000/svg" width="32" height="32" version="1.1" viewBox="0 0 32 32"><title>liberia</title><path fill="#f5f5f5" d="M30.152 18.547l-0.001-5.093-0-1.698-0-2.655c-0-0.725-0.357-1.399-0.946-1.809-0.051-0.035-0.103-0.069-0.157-0.101l-11.948-6.895c-0.682-0.394-1.523-0.394-2.205 0l-11.945 6.899c-0.053 0.030-0.103 0.063-0.152 0.098-0.592 0.41-0.95 1.085-0.95 1.813l0 2.651 0 1.698 0.001 5.093 0 1.698 0 2.655c0 0.725 0.357 1.399 0.946 1.809 0.051 0.035 0.103 0.069 0.157 0.101l11.948 6.895c0.682 0.394 1.523 0.394 2.205-0l11.945-6.899c0.053-0.030 0.103-0.063 0.152-0.098 0.592-0.41 0.95-1.085 0.95-1.813l-0-2.651-0-1.698z"/><path fill="#ff4b55" d="M21.392 2.772l-4.292-2.477c-0.34-0.196-0.72-0.295-1.1-0.295l-0.625 1.473 0.625 1.299 5.392-0z"/><path fill="#ff4b55" d="M16 8.651h14.103c-0.114-0.548-0.434-1.036-0.899-1.36-0.051-0.035-0.103-0.069-0.157-0.101l-2.563-1.479h-10.485l-0.625 1.463 0.625 1.477z"/><path fill="#ff4b55" d="M14.438 13.11l0.937 1.42h14.776l-0-1.077-0-1.698v-0.165h-14.151z"/><path fill="#ff4b55" d="M1.849 18.547l0 1.698 0 0.165h28.304v-0.165l-0-1.698-0-1.077h-28.304z"/><path fill="#ff4b55" d="M2.795 24.709c0.051 0.035 0.103 0.069 0.157 0.101l2.563 1.479h20.968l2.568-1.483c0.053-0.030 0.103-0.063 0.152-0.098 0.466-0.323 0.786-0.811 0.902-1.359h-28.208c0.114 0.548 0.434 1.037 0.899 1.36z"/><path fill="#ff4b55" d="M12.876 30.536l2.024 1.168c0.682 0.394 1.523 0.394 2.205-0l4.288-2.476h-10.785l2.268 1.309z"/><path fill="#41479b" d="M14.895 0.296l-11.945 6.899c-0.053 0.030-0.103 0.063-0.152 0.098-0.466 0.323-0.786 0.811-0.902 1.359-0.031 0.148-0.048 0.3-0.048 0.454l0 2.486v0.165l0 1.698 0 1.077h14.132c0.011 0 0.020-0.009 0.020-0.020v-14.51c-0.382-0-0.763 0.098-1.105 0.296z"/><path fill="#f5f5f5" d="M8.746 6.455l-0.648 1.943-2.048 0.016c-0.196 0.002-0.278 0.252-0.12 0.369l1.648 1.217-0.618 1.953c-0.059 0.187 0.154 0.342 0.314 0.228l1.666-1.191 1.666 1.191c0.16 0.114 0.373-0.041 0.314-0.228l-0.618-1.953 1.648-1.217c0.158-0.117 0.077-0.367-0.12-0.369l-2.048-0.016-0.648-1.943c-0.062-0.186-0.326-0.186-0.388 0z"/></svg>