<svg xmlns="http://www.w3.org/2000/svg" width="32" height="32" version="1.1" viewBox="0 0 32 32"><title>libya</title><path fill="#464655" d="M30.152 20.244l-0-1.698-0.001-5.093-0-1.698-0-2.294-13.995-1.428-14.309 1.428 0 2.294 0 1.698 0.001 5.093 0 1.698 0 2.294 14.151 1.272 14.153-1.272z"/><path fill="#73af00" d="M30.153 22.538h-28.304l0 0.361c0 0.181 0.022 0.36 0.065 0.531 0.032 0.129 0.075 0.254 0.13 0.374 0.018 0.040 0.037 0.079 0.058 0.118 0.041 0.078 0.086 0.153 0.136 0.225 0.149 0.217 0.337 0.408 0.558 0.561 0.051 0.035 0.103 0.069 0.157 0.101l11.948 6.895c0.043 0.025 0.086 0.048 0.13 0.069 0.088 0.043 0.177 0.080 0.269 0.111 0.365 0.123 0.755 0.148 1.131 0.074 0.141-0.028 0.279-0.069 0.414-0.125 0.045-0.018 0.089-0.038 0.133-0.060s0.087-0.045 0.13-0.069l11.945-6.899c0.053-0.030 0.103-0.063 0.152-0.098 0.111-0.077 0.214-0.163 0.307-0.257 0.063-0.063 0.121-0.129 0.175-0.198 0.081-0.104 0.153-0.215 0.214-0.332 0.082-0.155 0.145-0.321 0.188-0.493s0.065-0.351 0.065-0.532l-0-0.357z"/><path fill="#ff4b55" d="M30.151 9.1c0-0.181-0.022-0.36-0.065-0.531-0.032-0.129-0.076-0.254-0.13-0.374-0.162-0.36-0.42-0.674-0.752-0.904-0.051-0.035-0.103-0.069-0.157-0.101l-11.948-6.895c-0.043-0.025-0.086-0.048-0.13-0.069-0.175-0.086-0.359-0.148-0.547-0.185-0.141-0.028-0.283-0.041-0.426-0.041-0.095 0-0.19 0.006-0.285 0.018-0.284 0.037-0.562 0.129-0.818 0.277l-11.945 6.899c-0.053 0.030-0.103 0.063-0.152 0.098-0.111 0.077-0.214 0.163-0.307 0.257-0.063 0.063-0.121 0.129-0.175 0.198-0.135 0.173-0.244 0.366-0.323 0.572-0.031 0.082-0.058 0.167-0.079 0.253s-0.038 0.174-0.049 0.262c-0.005 0.044-0.010 0.089-0.012 0.134s-0.004 0.090-0.004 0.136l0 0.357h28.304l-0-0.362z"/><path fill="#f5f5f5" d="M17.935 16.096c-0.082 0.029-0.080 0.145 0.003 0.171l1.477 0.465 0.038 1.548c0.002 0.087 0.113 0.121 0.163 0.050l0.899-1.261 1.484 0.442c0.083 0.025 0.15-0.070 0.098-0.14l-0.921-1.245 0.879-1.274c0.049-0.071-0.021-0.164-0.103-0.137l-1.468 0.491-0.94-1.23c-0.053-0.069-0.162-0.031-0.162 0.056l0.014 1.548-1.461 0.514z"/><path fill="#f5f5f5" d="M16.043 19.793c1.072 0 2.036-0.448 2.724-1.165 0.061-0.063-0.023-0.158-0.096-0.109-0.48 0.325-1.055 0.517-1.68 0.517-1.676 0-3.035-1.359-3.035-3.036 0-1.674 1.359-3.036 3.035-3.036 0.623 0 1.198 0.192 1.677 0.516 0.073 0.050 0.157-0.047 0.096-0.111-0.716-0.745-1.729-1.199-2.853-1.16-1.931 0.066-3.529 1.614-3.652 3.541-0.141 2.208 1.607 4.043 3.784 4.043z"/></svg>