<svg xmlns="http://www.w3.org/2000/svg" width="32" height="32" version="1.1" viewBox="0 0 32 32"><title>lithuania</title><path fill="#ffe15a" d="M1.849 22.9l-0.002-13.795c-0-0.788 0.42-1.516 1.102-1.91l11.945-6.899c0.682-0.394 1.523-0.394 2.205-0l11.948 6.895c0.682 0.394 1.103 1.122 1.103 1.91l0.002 13.795c0 0.788-0.42 1.516-1.102 1.91l-11.945 6.899c-0.682 0.394-1.523 0.394-2.205 0l-11.947-6.895c-0.683-0.394-1.103-1.122-1.103-1.91z"/><path fill="#ff4b55" d="M30.153 21.407l-14.153-1.19-14.151 1.19 0 1.487v0.006c0 0.591 0.237 1.148 0.643 1.556 0.135 0.136 0.29 0.255 0.46 0.354l11.948 6.895c0.682 0.394 1.523 0.394 2.205-0l11.945-6.899c0.171-0.099 0.325-0.218 0.46-0.354 0.068-0.068 0.131-0.14 0.189-0.216 0.29-0.379 0.454-0.848 0.454-1.34l-0-1.488z"/><path fill="#73af00" d="M30.153 21.407l-0.002-10.814h-28.304l0.002 10.814z"/></svg>