<!-- Generated by IcoMoon.io -->
<svg version="1.1" xmlns="http://www.w3.org/2000/svg" width="32" height="32" viewBox="0 0 32 32">
<title>madeira</title>
<path fill="#ffe15a" d="M30.152 18.547l-0.001-5.093-0-1.698-0-2.655c-0-0.725-0.357-1.399-0.946-1.809-0.051-0.035-0.103-0.069-0.157-0.101l-11.948-6.895c-0.682-0.394-1.523-0.394-2.205 0l-11.945 6.899c-0.053 0.030-0.103 0.063-0.152 0.098-0.592 0.41-0.95 1.085-0.95 1.813l0 2.651 0 1.698 0.001 5.093 0 1.698 0 2.655c0 0.725 0.357 1.399 0.946 1.809 0.051 0.035 0.103 0.069 0.157 0.101l11.948 6.895c0.682 0.394 1.523 0.394 2.205-0l11.945-6.899c0.053-0.030 0.103-0.063 0.152-0.098 0.592-0.41 0.95-1.085 0.95-1.813l-0-2.651-0-1.698z"></path>
<path fill="#41479b" d="M25.061 27.109l3.99-2.304c0.053-0.030 0.103-0.063 0.152-0.098 0.592-0.41 0.95-1.085 0.95-1.813l-0-2.651-0-1.698-0.001-5.093-0-1.698-0-2.655c-0-0.725-0.357-1.399-0.946-1.809-0.051-0.035-0.103-0.069-0.157-0.101l-6.513-3.759v25.137l2.526-1.459z"></path>
<path fill="#41479b" d="M5.067 5.971l-2.118 1.223c-0.053 0.030-0.103 0.063-0.152 0.098-0.592 0.41-0.95 1.085-0.95 1.813l0 2.651 0 1.698 0.001 5.093 0 1.698 0 2.655c0 0.725 0.357 1.399 0.946 1.809 0.051 0.035 0.103 0.069 0.157 0.101l6.513 3.759v-25.137l-4.398 2.54z"></path>
<path fill="#ff4b55" d="M19.347 14.326h-1.674v-1.674l1.004-1.339h-5.356l1.004 1.339v1.674h-1.674l-1.339-1.004v5.356l1.339-1.004h1.674v1.674l-1.004 1.339h5.356l-1.004-1.339v-1.674h1.674l1.339 1.004v-5.356z"></path>
<path fill="#f5f5f5" d="M19.347 15.33h-2.678v-2.678h-1.339v2.678h-2.678v1.339h2.678v2.678h1.339v-2.678h2.678z"></path>
</svg>
