<!-- Generated by IcoMoon.io -->
<svg version="1.1" xmlns="http://www.w3.org/2000/svg" width="32" height="32" viewBox="0 0 32 32">
<title>malasya</title>
<path fill="#f5f5f5" d="M30.11 20.654l-0-2.303-0-2.303-0.001-4.605-0-2.274c0-0.010-0.001-0.019-0.001-0.029-0.010-0.774-0.427-1.487-1.099-1.875l-11.912-6.875c-0.68-0.393-1.518-0.393-2.199 0l-11.909 6.878c-0.67 0.387-1.086 1.098-1.098 1.871-0 0.011-0.001 0.023-0.001 0.034l0 2.269 0.001 4.605 0 2.303 0 2.303 0 2.273c0 0.010 0.001 0.019 0.001 0.029 0.010 0.774 0.427 1.487 1.099 1.875l11.912 6.874c0.68 0.393 1.518 0.393 2.199-0l11.91-6.878c0.67-0.387 1.086-1.098 1.098-1.871 0-0.011 0.001-0.023 0.001-0.034l-0-2.269z"></path>
<path fill="#ff4b55" d="M20.361 6.837h7.906l-3.99-2.303h-3.917l-0.545 1.312z"></path>
<path fill="#ff4b55" d="M20.361 11.443h9.748l-0-2.274c0-0.010-0.001-0.019-0.001-0.029h-9.747l-0.623 1.145 0.623 1.157z"></path>
<path fill="#ff4b55" d="M20.361 16.048h9.749l-0-2.303h-9.748l-0.545 1.29z"></path>
<path fill="#ff4b55" d="M1.891 18.351l0 2.303h28.219l-0-2.303h-9.749l-9.578-0.59z"></path>
<path fill="#ff4b55" d="M2.992 24.831l0.741 0.428h24.53l0.748-0.432c0.67-0.387 1.086-1.098 1.098-1.871h-28.217c0.010 0.774 0.427 1.487 1.099 1.875z"></path>
<path fill="#ff4b55" d="M11.713 29.864h8.577l3.987-2.303h-16.554z"></path>
<path fill="#41479b" d="M20.287 2.232l-3.502-2.021c-0.488-0.281-1.088-0.281-1.576 0l-12.221 7.058c-0.67 0.387-1.086 1.098-1.098 1.871-0 0.011-0.001 0.023-0.001 0.034l0 2.269 0.001 4.605 0 2.303h18.47v-16.076l-0.073-0.042z"></path>
<path fill="#ffe15a" d="M7.001 10.969c0-2.19 1.777-3.966 3.965-3.966 0.55 0 1.074 0.113 1.55 0.316 0.062 0.026 0.108-0.060 0.053-0.098-0.789-0.537-1.753-0.831-2.788-0.777-2.274 0.118-4.134 1.95-4.281 4.223-0.171 2.644 1.921 4.834 4.523 4.834 0.94 0 1.814-0.29 2.54-0.781 0.056-0.038 0.010-0.124-0.053-0.098-0.475 0.201-0.996 0.313-1.544 0.313-2.188 0-3.965-1.776-3.965-3.966z"></path>
<path fill="#ffe15a" d="M16.065 10.969l1.676-0.649c0.083-0.032 0.055-0.156-0.034-0.149l-1.791 0.143 1.231-1.316c0.061-0.065-0.018-0.164-0.095-0.119l-1.556 0.908 0.537-1.717c0.026-0.085-0.088-0.14-0.137-0.066l-1.007 1.492-0.258-1.781c-0.013-0.088-0.14-0.088-0.153-0l-0.165 1.127-0.068 0.477-0.026 0.177-1.007-1.491c-0.050-0.074-0.164-0.019-0.137 0.066l0.539 1.715-1.555-0.908c-0.077-0.045-0.156 0.054-0.095 0.119l1.231 1.316-1.791-0.143c-0.089-0.007-0.117 0.117-0.034 0.149l1.678 0.649-1.678 0.649c-0.083 0.032-0.055 0.156 0.034 0.149l1.792-0.143-1.231 1.319c-0.061 0.065 0.019 0.164 0.095 0.119l1.555-0.911-0.539 1.715c-0.027 0.085 0.088 0.14 0.137 0.066l1.007-1.49 0.026 0.181 0.068 0.473 0.165 1.13c0.013 0.088 0.14 0.088 0.153-0l0.258-1.784 1.007 1.492c0.050 0.074 0.164 0.019 0.137-0.066l-0.537-1.717 1.555 0.911c0.077 0.045 0.156-0.054 0.095-0.119l-1.231-1.319 1.791 0.143c0.089 0.007 0.117-0.117 0.034-0.149l-1.676-0.649z"></path>
</svg>
