<svg xmlns="http://www.w3.org/2000/svg" width="32" height="32" version="1.1" viewBox="0 0 32 32"><title>maldives</title><path fill="#ff4b55" d="M30.152 18.547l-0.001-5.093-0-1.698-0-2.655c-0-0.725-0.357-1.399-0.946-1.809-0.051-0.035-0.103-0.069-0.157-0.101l-11.948-6.895c-0.682-0.394-1.523-0.394-2.205 0l-11.945 6.899c-0.053 0.030-0.103 0.063-0.152 0.098-0.592 0.41-0.95 1.085-0.95 1.813l0 2.651 0 1.698 0.001 5.093 0 1.698 0 2.655c0 0.725 0.357 1.399 0.946 1.809 0.051 0.035 0.103 0.069 0.157 0.101l11.948 6.895c0.682 0.394 1.523 0.394 2.205-0l11.945-6.899c0.053-0.030 0.103-0.063 0.152-0.098 0.592-0.41 0.95-1.085 0.95-1.813l-0-2.651-0-1.698z"/><path fill="#73af00" d="M28.653 9.372v13.255h-25.306v-13.255h25.306z"/><path fill="#f5f5f5" d="M14.797 16.002c0-2.281 1.554-4.192 3.658-4.745 0.070-0.018 0.065-0.12-0.007-0.129-0.191-0.024-0.385-0.039-0.582-0.039-2.716 0-4.914 2.198-4.914 4.913 0 2.703 2.198 4.907 4.914 4.907 0.198 0 0.392-0.014 0.583-0.039 0.072-0.009 0.077-0.11 0.007-0.129-2.104-0.554-3.658-2.468-3.658-4.739z"/></svg>