<svg xmlns="http://www.w3.org/2000/svg" width="32" height="32" version="1.1" viewBox="0 0 32 32"><title>mali</title><path fill="#ffe15a" d="M30.152 18.547l-0.001-5.093-0-1.698-0-2.655c-0-0.725-0.357-1.399-0.946-1.809-0.051-0.035-0.103-0.069-0.157-0.101l-11.948-6.895c-0.682-0.394-1.523-0.394-2.205 0l-11.945 6.899c-0.053 0.030-0.103 0.063-0.152 0.098-0.592 0.41-0.95 1.085-0.95 1.813l0 2.651 0 1.698 0.001 5.093 0 1.698 0 2.655c0 0.725 0.357 1.399 0.946 1.809 0.051 0.035 0.103 0.069 0.157 0.101l11.948 6.895c0.682 0.394 1.523 0.394 2.205-0l11.945-6.899c0.053-0.030 0.103-0.063 0.152-0.098 0.592-0.41 0.95-1.085 0.95-1.813l-0-2.651-0-1.698z"/><path fill="#ff4b55" d="M25.061 27.109l3.99-2.304c0.053-0.030 0.103-0.063 0.152-0.098 0.592-0.41 0.95-1.085 0.95-1.813l-0-2.651-0-1.698-0.001-5.093-0-1.698-0-2.655c-0-0.725-0.357-1.399-0.946-1.809-0.051-0.035-0.103-0.069-0.157-0.101l-8.296-4.788v27.196l4.31-2.489z"/><path fill="#73af00" d="M6.939 4.89l-3.99 2.304c-0.053 0.030-0.103 0.063-0.152 0.098-0.592 0.41-0.95 1.085-0.95 1.813l0 2.651 0 1.698 0.001 5.093 0 1.698 0 2.655c0 0.725 0.357 1.399 0.946 1.809 0.051 0.035 0.103 0.069 0.157 0.101l8.296 4.788v-27.196l-4.31 2.489z"/></svg>