<svg xmlns="http://www.w3.org/2000/svg" width="32" height="32" version="1.1" viewBox="0 0 32 32"><title>malta</title><path fill="#f5f5f5" d="M30.152 18.547l-0.001-5.093-0-1.698-0-2.655c-0-0.725-0.357-1.399-0.946-1.809-0.051-0.035-0.103-0.069-0.157-0.101l-11.948-6.895c-0.682-0.394-1.523-0.394-2.205 0l-11.945 6.899c-0.053 0.030-0.103 0.063-0.152 0.098-0.592 0.41-0.95 1.085-0.95 1.813l0 2.651 0 1.698 0.001 5.093 0 1.698 0 2.655c0 0.725 0.357 1.399 0.946 1.809 0.051 0.035 0.103 0.069 0.157 0.101l11.948 6.895c0.682 0.394 1.523 0.394 2.205-0l11.945-6.899c0.053-0.030 0.103-0.063 0.152-0.098 0.592-0.41 0.95-1.085 0.95-1.813l-0-2.651-0-1.698z"/><path fill="#ff4b55" d="M17.105 31.704l11.945-6.899c0.053-0.030 0.103-0.063 0.152-0.098 0.592-0.41 0.95-1.085 0.95-1.813l-0-2.651-0-1.698-0.001-5.093-0-1.698-0-2.655c-0-0.725-0.357-1.399-0.946-1.809-0.051-0.035-0.103-0.069-0.157-0.101l-11.948-6.895c-0.34-0.196-0.72-0.295-1.1-0.295v32c0.382 0 0.764-0.098 1.105-0.296z"/><path fill="#ff4b55" d="M8.741 7.226v1.672c0.092 0.004 0.195 0.045 0.28 0.131s0.127 0.188 0.131 0.28h1.672v1.666h-1.672c-0.004 0.092-0.045 0.195-0.131 0.28s-0.188 0.127-0.28 0.131v1.672h-1.666v-1.672c-0.092-0.004-0.195-0.045-0.28-0.131s-0.127-0.188-0.131-0.28h-1.672v-1.666h1.672c0.004-0.092 0.045-0.195 0.131-0.28s0.188-0.127 0.28-0.131v-1.672h1.666zM8.95 7.018h-2.083v1.716c-0.080 0.033-0.154 0.082-0.219 0.147s-0.115 0.14-0.148 0.219h-1.716v2.083h1.716c0.033 0.080 0.082 0.154 0.148 0.219s0.14 0.115 0.219 0.147v1.716h2.083v-1.716c0.079-0.033 0.154-0.082 0.219-0.148s0.115-0.14 0.147-0.219h1.716v-2.083h-1.716c-0.033-0.079-0.082-0.154-0.148-0.219s-0.14-0.115-0.219-0.147v-1.716c0 0 0 0 0 0z"/><path fill="#cdcdcd" d="M10.824 9.309h-2.083v-2.083h-1.666v2.083h-2.083v1.666h2.083v2.083h1.666v-2.083h2.083z"/><path fill="#b4a08c" d="M8.741 10.142c0 0.46-0.373 0.833-0.833 0.833s-0.833-0.373-0.833-0.833c0-0.46 0.373-0.833 0.833-0.833s0.833 0.373 0.833 0.833z"/><path fill="#b4a08c" d="M6.717 10.81c0.101-0.101 0.301-0.066 0.445 0.079s0.18 0.344 0.079 0.445c-0.101 0.101-0.301 0.066-0.445-0.079s-0.18-0.344-0.079-0.445z"/><path fill="#b4a08c" d="M9.1 10.81c0.101 0.101 0.066 0.301-0.079 0.445s-0.344 0.18-0.445 0.079c-0.101-0.101-0.066-0.301 0.079-0.445s0.344-0.18 0.445-0.079z"/><path fill="#b4a08c" d="M9.1 9.475c-0.101 0.101-0.301 0.066-0.445-0.079s-0.18-0.344-0.079-0.445c0.101-0.101 0.301-0.066 0.445 0.079s0.18 0.344 0.079 0.445z"/><path fill="#b4a08c" d="M6.716 9.474c-0.101-0.101-0.066-0.301 0.079-0.445s0.344-0.18 0.445-0.079c0.101 0.101 0.066 0.301-0.079 0.445s-0.344 0.18-0.445 0.079z"/><path fill="#b4a08c" d="M7.908 11.283c-0.629 0-1.141-0.511-1.141-1.14s0.511-1.14 1.141-1.14c0.629 0 1.141 0.511 1.141 1.14s-0.512 1.14-1.141 1.14zM7.908 9.106c-0.571 0-1.036 0.465-1.036 1.036s0.465 1.036 1.036 1.036 1.036-0.465 1.036-1.036-0.465-1.036-1.036-1.036z"/></svg>