<svg xmlns="http://www.w3.org/2000/svg" width="32" height="32" version="1.1" viewBox="0 0 32 32"><title>martinique</title><path fill="#f5f5f5" d="M30.152 20.244l-0-1.698-0-1.297-0-1.25-0-2.547-0-1.698-0-2.655c0-0.194-0.026-0.384-0.075-0.567-0.026-0.098-0.059-0.194-0.099-0.287-0.16-0.381-0.426-0.714-0.773-0.955-0.051-0.035-0.103-0.069-0.157-0.101l-11.947-6.895c-0.682-0.394-1.523-0.394-2.205 0l-11.945 6.899c-0.053 0.030-0.103 0.063-0.152 0.098-0.212 0.147-0.393 0.328-0.54 0.534-0.098 0.138-0.18 0.287-0.244 0.443-0.107 0.261-0.166 0.544-0.166 0.836l0 2.651 0 1.698 0 1.297 0 1.307 0 2.488v0.001l0 1.697 0 2.655v0c0 0.725 0.357 1.399 0.946 1.809 0.051 0.035 0.103 0.069 0.157 0.101l11.948 6.895c0.682 0.394 1.523 0.394 2.205-0l11.945-6.899c0.053-0.030 0.103-0.063 0.152-0.098 0.592-0.41 0.95-1.085 0.95-1.813l-0.001-2.651z"/><path fill="#41479b" d="M14.75 0.379l-11.801 6.816c-0.053 0.030-0.103 0.063-0.152 0.098-0.212 0.147-0.393 0.328-0.54 0.534-0.098 0.138-0.18 0.287-0.244 0.443-0.107 0.261-0.166 0.544-0.166 0.836l0 2.651 0 1.698 0 1.297h12.902v-14.371h-0z"/><path fill="#41479b" d="M1.848 17.25l0 1.296v0.001l0 1.697 0 2.655v0c0 0.725 0.357 1.399 0.946 1.809 0.051 0.035 0.103 0.069 0.157 0.101l11.798 6.809v-14.369h-12.902z"/><path fill="#41479b" d="M30.152 14.75l-0-1.297-0-1.698-0-2.655c0-0.194-0.026-0.384-0.075-0.567-0.026-0.098-0.059-0.194-0.099-0.287-0.16-0.381-0.426-0.714-0.773-0.955-0.051-0.035-0.103-0.069-0.157-0.101l-11.798-6.809v14.369l12.902-0z"/><path fill="#41479b" d="M30.152 20.244l-0-1.698-0-1.297h-12.902v14.371l11.801-6.816c0.053-0.030 0.103-0.063 0.152-0.098 0.592-0.41 0.95-1.085 0.95-1.813l-0-2.65z"/><path fill="#f5f5f5" d="M11.011 12.531c-0.015-0.090-0.049-0.196-0.092-0.264-0.085-0.118-0.184-0.201-0.28-0.252-0.754-0.347-1.386-0.279-1.989-0.281-0.595 0.015-1.152 0.118-1.604 0.217-0.123 0.025-0.229 0.043-0.343 0.065 0.056-0.116 0.262-0.261 0.54-0.35 0.677-0.231 1.449-0.324 2.208-0.472 0.192-0.038 0.386-0.082 0.585-0.138 0.107-0.037 0.197-0.065 0.323-0.124 0.081-0.046 0.161-0.103 0.229-0.165 0.073-0.065 0.067-0.084 0.104-0.128 0.172-0.328 0.009-0.562-0.128-0.684-0.132-0.108-0.243-0.15-0.349-0.194-0.205-0.072-0.395-0.117-0.579-0.155-0.354-0.071-0.701-0.14-1.041-0.208-0.162-0.037-0.318-0.079-0.455-0.129-0.121-0.032-0.292-0.152-0.267-0.119-0.313-0.027 0.428-0.376 0.963-0.571 0.142-0.063 0.283-0.126 0.428-0.215 0.142-0.094 0.288-0.173 0.446-0.436 0.031-0.054 0.030-0.068 0.046-0.103l0.018-0.045c0.039-0.14 0.018-0.102 0.027-0.163 0.018-0.146-0.039-0.303-0.13-0.434-0.186-0.201-0.37-0.258-0.508-0.297-0.567-0.134-0.975-0.098-1.33-0.096-0.673 0.032-1.057 0.050-1.057 0.050l-0.026 0.001c-0.001 0-0.002 0-0.002 0-0.215 0.013-0.379 0.197-0.366 0.412 0.001 0.021 0.011 0.039 0.015 0.059-0.304 0.084-0.786 0.17-1.263 0.057-0.073-0.017-0.14 0.027-0.156 0.096s0.027 0.14 0.096 0.156c0.187 0.044 0.373 0.061 0.55 0.061 0.376 0 0.698-0.077 0.917-0.144 0.071 0.053 0.157 0.086 0.252 0.080 0 0 0.388-0.023 1.068-0.063 0.318-0.011 0.746-0.028 1.099 0.055 0.029 0.005 0.045 0.014 0.064 0.022 0.003-0.031-0.057 0.057-0.15 0.102-0.091 0.058-0.208 0.114-0.331 0.17-0.251 0.114-0.538 0.211-0.856 0.382-0.154 0.091-0.343 0.183-0.501 0.452-0.074 0.125-0.109 0.326-0.070 0.469l0.011 0.058 0.006 0.029 0.003 0.014c-0.024-0.051 0.037 0.086 0.032 0.073l0.032 0.053c0.028 0.040 0.024 0.057 0.092 0.127 0.054 0.059 0.116 0.115 0.179 0.164 0.056 0.038 0.097 0.056 0.147 0.085 0.098 0.058 0.188 0.085 0.281 0.121 0.184 0.065 0.363 0.109 0.542 0.148 0.345 0.065 0.698 0.131 1.056 0.199 0.15 0.029 0.291 0.066 0.421 0.106-0.167 0.060-0.4 0.121-0.601 0.159-0.732 0.154-1.507 0.248-2.296 0.525-0.197 0.075-0.4 0.165-0.598 0.317-0.187 0.142-0.383 0.424-0.358 0.734-0.067 0.009-0.144 0.023-0.206 0.030-0.669 0.089-0.95-0.029-0.932-0.033-0.087-0.052-0.2-0.023-0.252 0.065s-0.023 0.2 0.065 0.252c0 0 0.115 0.078 0.319 0.123 0.204 0.046 0.49 0.067 0.84 0.040 0.096-0.007 0.209-0.021 0.315-0.032 0.073 0.105 0.158 0.222 0.238 0.278 0.184 0.155 0.38 0.254 0.574 0.34 0.783 0.303 1.566 0.367 2.33 0.337 0.383-0.029 0.76-0.073 1.148-0.246 0.181-0.084 0.428-0.217 0.505-0.601-0.001-0.049 0.008-0.071 0-0.141zM10.447 12.652c-0.010-0.057-0.041 0.072-0.187 0.107-0.252 0.111-0.595 0.161-0.933 0.179-0.681 0.022-1.425-0.057-2.063-0.316-0.1-0.046-0.182-0.105-0.268-0.16 0.047-0.007 0.088-0.012 0.137-0.020 0.474-0.075 0.968-0.164 1.535-0.174 0.54-0.010 1.229-0.002 1.685 0.225 0.053 0.029 0.076 0.058 0.094 0.076 0 0-0.015-0.018 0.002-0.030 0.008 0.011-0.002 0.076-0.002 0.112z"/><path fill="#f5f5f5" d="M27.345 12.531c-0.015-0.090-0.049-0.196-0.092-0.264-0.085-0.118-0.184-0.201-0.28-0.252-0.754-0.347-1.386-0.279-1.989-0.281-0.595 0.015-1.152 0.118-1.604 0.217-0.123 0.025-0.229 0.043-0.343 0.065 0.056-0.116 0.262-0.261 0.54-0.35 0.677-0.231 1.449-0.324 2.208-0.472 0.192-0.038 0.386-0.082 0.585-0.138 0.107-0.037 0.197-0.065 0.323-0.124 0.081-0.046 0.161-0.103 0.229-0.165 0.073-0.065 0.067-0.084 0.104-0.128 0.172-0.328 0.009-0.562-0.128-0.684-0.132-0.108-0.243-0.15-0.349-0.194-0.205-0.072-0.395-0.117-0.579-0.155-0.354-0.071-0.701-0.14-1.041-0.208-0.162-0.037-0.318-0.079-0.455-0.129-0.121-0.032-0.292-0.152-0.267-0.119-0.313-0.027 0.428-0.376 0.963-0.571 0.142-0.063 0.283-0.126 0.428-0.215 0.142-0.094 0.288-0.173 0.446-0.436 0.031-0.054 0.030-0.068 0.046-0.103l0.018-0.045c0.039-0.14 0.018-0.102 0.027-0.163 0.018-0.146-0.039-0.303-0.13-0.434-0.186-0.201-0.37-0.258-0.508-0.297-0.567-0.134-0.975-0.098-1.33-0.096-0.672 0.032-1.057 0.050-1.057 0.050l-0.026 0.001c-0.001 0-0.002 0-0.002 0-0.215 0.013-0.379 0.197-0.366 0.412 0.001 0.021 0.011 0.039 0.015 0.059-0.305 0.084-0.786 0.17-1.263 0.057-0.073-0.017-0.14 0.027-0.156 0.096s0.027 0.14 0.096 0.156c0.187 0.044 0.373 0.061 0.55 0.061 0.376 0 0.698-0.077 0.917-0.144 0.071 0.053 0.157 0.086 0.252 0.080 0 0 0.388-0.023 1.068-0.063 0.318-0.011 0.746-0.028 1.099 0.055 0.029 0.005 0.045 0.014 0.064 0.022 0.003-0.031-0.057 0.057-0.15 0.102-0.090 0.058-0.208 0.114-0.331 0.17-0.251 0.114-0.538 0.211-0.856 0.382-0.154 0.091-0.343 0.183-0.501 0.452-0.074 0.125-0.109 0.326-0.070 0.469l0.012 0.058 0.007 0.029 0.003 0.014c-0.024-0.051 0.037 0.086 0.032 0.073l0.032 0.053c0.028 0.040 0.024 0.057 0.092 0.127 0.054 0.059 0.116 0.115 0.179 0.164 0.055 0.038 0.097 0.056 0.147 0.085 0.098 0.058 0.188 0.085 0.281 0.121 0.184 0.065 0.363 0.109 0.542 0.148 0.345 0.065 0.698 0.131 1.056 0.199 0.15 0.029 0.291 0.066 0.421 0.106-0.167 0.060-0.4 0.121-0.601 0.159-0.732 0.154-1.507 0.248-2.296 0.525-0.198 0.075-0.4 0.165-0.598 0.317-0.187 0.142-0.383 0.424-0.358 0.734-0.067 0.009-0.144 0.023-0.206 0.030-0.669 0.089-0.95-0.029-0.932-0.033-0.087-0.052-0.2-0.023-0.252 0.065s-0.023 0.2 0.065 0.252c0 0 0.115 0.078 0.32 0.123 0.204 0.046 0.491 0.067 0.84 0.040 0.096-0.007 0.209-0.021 0.314-0.032 0.073 0.105 0.158 0.222 0.238 0.278 0.184 0.155 0.38 0.254 0.574 0.34 0.783 0.303 1.566 0.367 2.329 0.337 0.383-0.029 0.76-0.073 1.148-0.246 0.18-0.084 0.428-0.217 0.505-0.601-0-0.048 0.008-0.071 0.001-0.141zM26.782 12.652c-0.010-0.057-0.041 0.072-0.187 0.107-0.252 0.111-0.595 0.161-0.933 0.179-0.681 0.022-1.425-0.057-2.063-0.316-0.1-0.046-0.182-0.105-0.268-0.16 0.047-0.007 0.088-0.012 0.137-0.020 0.474-0.075 0.968-0.164 1.535-0.174 0.54-0.010 1.229-0.002 1.685 0.225 0.053 0.029 0.076 0.058 0.094 0.076 0 0-0.015-0.018 0.002-0.030 0.008 0.011-0.002 0.076-0.002 0.112z"/><path fill="#f5f5f5" d="M11.011 24.221c-0.015-0.090-0.049-0.196-0.092-0.264-0.085-0.118-0.184-0.201-0.28-0.252-0.754-0.347-1.386-0.279-1.989-0.281-0.595 0.015-1.152 0.118-1.604 0.217-0.123 0.025-0.229 0.043-0.343 0.064 0.056-0.116 0.262-0.262 0.54-0.35 0.677-0.231 1.449-0.324 2.208-0.472 0.192-0.038 0.386-0.082 0.585-0.138 0.107-0.037 0.197-0.065 0.323-0.124 0.081-0.046 0.161-0.103 0.229-0.165 0.073-0.065 0.067-0.084 0.104-0.128 0.172-0.328 0.009-0.562-0.128-0.684-0.132-0.108-0.243-0.151-0.349-0.194-0.205-0.072-0.395-0.117-0.579-0.155-0.354-0.071-0.701-0.14-1.041-0.208-0.162-0.037-0.318-0.079-0.455-0.129-0.121-0.032-0.292-0.152-0.267-0.119-0.313-0.027 0.428-0.376 0.963-0.571 0.142-0.063 0.283-0.126 0.428-0.215 0.142-0.094 0.288-0.173 0.446-0.436 0.031-0.054 0.030-0.068 0.046-0.103l0.018-0.045c0.039-0.14 0.018-0.102 0.027-0.163 0.018-0.146-0.039-0.303-0.13-0.433-0.186-0.201-0.37-0.258-0.508-0.297-0.567-0.134-0.975-0.098-1.33-0.096-0.673 0.032-1.057 0.050-1.057 0.050l-0.026 0.001c-0.001 0-0.002 0-0.002 0-0.215 0.013-0.379 0.197-0.366 0.412 0.001 0.021 0.011 0.039 0.015 0.058-0.304 0.084-0.786 0.17-1.263 0.057-0.073-0.017-0.14 0.027-0.156 0.096s0.027 0.14 0.096 0.156c0.187 0.044 0.373 0.061 0.55 0.061 0.376 0 0.698-0.077 0.917-0.144 0.071 0.053 0.157 0.086 0.252 0.080 0 0 0.388-0.023 1.068-0.063 0.318-0.012 0.746-0.028 1.099 0.055 0.029 0.005 0.045 0.014 0.064 0.022 0.003-0.031-0.057 0.057-0.15 0.102-0.091 0.058-0.208 0.114-0.331 0.17-0.251 0.114-0.538 0.211-0.856 0.382-0.154 0.091-0.343 0.183-0.501 0.452-0.074 0.125-0.109 0.326-0.070 0.469l0.011 0.058 0.007 0.029 0.003 0.014c-0.024-0.051 0.037 0.086 0.032 0.073l0.032 0.053c0.028 0.040 0.024 0.057 0.092 0.127 0.054 0.059 0.116 0.115 0.179 0.164 0.056 0.038 0.097 0.056 0.147 0.084 0.098 0.058 0.188 0.085 0.281 0.121 0.184 0.065 0.363 0.109 0.542 0.148 0.345 0.065 0.698 0.131 1.056 0.199 0.15 0.029 0.291 0.066 0.421 0.106-0.167 0.060-0.4 0.121-0.601 0.159-0.732 0.154-1.507 0.248-2.296 0.525-0.197 0.075-0.4 0.165-0.598 0.317-0.187 0.142-0.383 0.424-0.358 0.734-0.067 0.009-0.144 0.023-0.206 0.030-0.669 0.089-0.95-0.029-0.932-0.033-0.087-0.052-0.2-0.023-0.252 0.065s-0.023 0.2 0.065 0.252c0 0 0.115 0.078 0.319 0.123 0.204 0.046 0.49 0.067 0.84 0.040 0.096-0.007 0.209-0.021 0.315-0.032 0.073 0.105 0.158 0.222 0.238 0.278 0.184 0.155 0.38 0.254 0.574 0.34 0.783 0.303 1.566 0.367 2.33 0.337 0.383-0.029 0.76-0.073 1.148-0.246 0.181-0.084 0.428-0.217 0.505-0.601-0.001-0.048 0.008-0.071 0-0.141zM10.447 24.342c-0.010-0.057-0.041 0.072-0.187 0.107-0.252 0.111-0.595 0.161-0.933 0.179-0.681 0.022-1.425-0.057-2.063-0.316-0.1-0.046-0.182-0.105-0.268-0.16 0.047-0.007 0.088-0.012 0.137-0.020 0.474-0.075 0.968-0.164 1.535-0.174 0.54-0.010 1.229-0.002 1.685 0.225 0.053 0.029 0.076 0.058 0.094 0.076 0 0-0.015-0.018 0.002-0.030 0.008 0.011-0.002 0.076-0.002 0.112z"/><path fill="#f5f5f5" d="M27.345 24.221c-0.015-0.090-0.049-0.196-0.092-0.264-0.085-0.118-0.184-0.201-0.28-0.252-0.754-0.347-1.386-0.279-1.989-0.281-0.595 0.015-1.152 0.118-1.604 0.217-0.123 0.025-0.229 0.043-0.343 0.064 0.056-0.116 0.262-0.262 0.54-0.35 0.677-0.231 1.449-0.324 2.208-0.472 0.192-0.038 0.386-0.082 0.585-0.138 0.107-0.037 0.197-0.065 0.323-0.124 0.081-0.046 0.161-0.103 0.229-0.165 0.073-0.065 0.067-0.084 0.104-0.128 0.172-0.328 0.009-0.562-0.128-0.684-0.132-0.108-0.243-0.151-0.349-0.194-0.205-0.072-0.395-0.117-0.579-0.155-0.354-0.071-0.701-0.14-1.041-0.208-0.162-0.037-0.318-0.079-0.455-0.129-0.121-0.032-0.292-0.152-0.267-0.119-0.313-0.027 0.428-0.376 0.963-0.571 0.142-0.063 0.283-0.126 0.428-0.215 0.142-0.094 0.288-0.173 0.446-0.436 0.031-0.054 0.030-0.068 0.046-0.103l0.018-0.045c0.039-0.14 0.018-0.102 0.027-0.163 0.018-0.146-0.039-0.303-0.13-0.433-0.186-0.201-0.37-0.258-0.508-0.297-0.567-0.134-0.975-0.098-1.33-0.096-0.672 0.032-1.057 0.050-1.057 0.050l-0.026 0.001c-0.001 0-0.002 0-0.002 0-0.215 0.013-0.379 0.197-0.366 0.412 0.001 0.021 0.011 0.039 0.015 0.058-0.305 0.084-0.786 0.17-1.263 0.057-0.073-0.017-0.14 0.027-0.156 0.096s0.027 0.14 0.096 0.156c0.187 0.044 0.373 0.061 0.55 0.061 0.376 0 0.698-0.077 0.917-0.144 0.071 0.053 0.157 0.086 0.252 0.080 0 0 0.388-0.023 1.068-0.063 0.318-0.012 0.746-0.028 1.099 0.055 0.029 0.005 0.045 0.014 0.064 0.022 0.003-0.031-0.057 0.057-0.15 0.102-0.090 0.058-0.208 0.114-0.331 0.17-0.251 0.114-0.538 0.211-0.856 0.382-0.154 0.091-0.343 0.183-0.501 0.452-0.074 0.125-0.109 0.326-0.070 0.469l0.012 0.058 0.007 0.029 0.003 0.014c-0.024-0.051 0.037 0.086 0.032 0.073l0.032 0.053c0.028 0.040 0.024 0.057 0.092 0.127 0.054 0.059 0.116 0.115 0.179 0.164 0.055 0.038 0.097 0.056 0.147 0.084 0.098 0.058 0.188 0.085 0.281 0.121 0.184 0.065 0.363 0.109 0.542 0.148 0.345 0.065 0.698 0.131 1.056 0.199 0.15 0.029 0.291 0.066 0.421 0.106-0.167 0.060-0.4 0.121-0.601 0.159-0.732 0.154-1.507 0.248-2.296 0.525-0.198 0.075-0.4 0.165-0.598 0.317-0.187 0.142-0.383 0.424-0.358 0.734-0.067 0.009-0.144 0.023-0.206 0.030-0.669 0.089-0.95-0.029-0.932-0.033-0.087-0.052-0.2-0.023-0.252 0.065s-0.023 0.2 0.065 0.252c0 0 0.115 0.078 0.32 0.123 0.204 0.046 0.491 0.067 0.84 0.040 0.096-0.007 0.209-0.021 0.314-0.032 0.073 0.105 0.158 0.222 0.238 0.278 0.184 0.155 0.38 0.254 0.574 0.34 0.783 0.303 1.566 0.367 2.329 0.337 0.383-0.029 0.76-0.073 1.148-0.246 0.18-0.084 0.428-0.217 0.505-0.601-0-0.048 0.008-0.071 0.001-0.141zM26.782 24.342c-0.010-0.057-0.041 0.072-0.187 0.107-0.252 0.111-0.595 0.161-0.933 0.179-0.681 0.022-1.425-0.057-2.063-0.316-0.1-0.046-0.182-0.105-0.268-0.16 0.047-0.007 0.088-0.012 0.137-0.020 0.474-0.075 0.968-0.164 1.535-0.174 0.54-0.010 1.229-0.002 1.685 0.225 0.053 0.029 0.076 0.058 0.094 0.076 0 0-0.015-0.018 0.002-0.030 0.008 0.011-0.002 0.076-0.002 0.112z"/></svg>