<!-- Generated by IcoMoon.io -->
<svg version="1.1" xmlns="http://www.w3.org/2000/svg" width="32" height="32" viewBox="0 0 32 32">
<title>mauritius</title>
<path fill="#ffe15a" d="M1.849 22.899l-0.002-13.794c-0-0.788 0.42-1.516 1.102-1.91l11.945-6.899c0.682-0.394 1.523-0.394 2.205-0l11.947 6.895c0.682 0.394 1.103 1.122 1.103 1.91l0.002 13.794c0 0.788-0.42 1.516-1.102 1.91l-11.945 6.899c-0.682 0.394-1.523 0.394-2.205 0l-11.947-6.895c-0.683-0.394-1.103-1.122-1.103-1.91z"></path>
<path fill="#ff4b55" d="M29.048 7.191l-11.948-6.895c-0.682-0.394-1.523-0.394-2.205 0l-11.945 6.899c-0.319 0.184-0.58 0.443-0.769 0.746l14.132 1.42 13.507-1.42c-0.189-0.305-0.451-0.565-0.772-0.75z"></path>
<path fill="#41479b" d="M1.848 16h28.304l-0.001-6.9v-0c0-0.051-0.002-0.102-0.005-0.152-0.001-0.012-0.003-0.025-0.004-0.037-0.003-0.038-0.007-0.076-0.012-0.114-0.002-0.012-0.004-0.024-0.006-0.036-0.006-0.038-0.012-0.077-0.020-0.114-0.002-0.010-0.005-0.019-0.007-0.029-0.009-0.040-0.019-0.080-0.030-0.12-0.002-0.007-0.004-0.013-0.006-0.020-0.012-0.042-0.026-0.084-0.041-0.126-0.002-0.004-0.003-0.008-0.005-0.012-0.016-0.044-0.034-0.087-0.053-0.13-0.001-0.002-0.002-0.004-0.003-0.006-0.020-0.045-0.041-0.089-0.064-0.132-0-0-0.001-0.001-0.001-0.001-0.023-0.044-0.048-0.088-0.075-0.13l-0-0h-27.639c0 0 0 0 0 0-0.027 0.043-0.052 0.086-0.075 0.13-0 0.001-0.001 0.001-0.001 0.002-0.023 0.043-0.044 0.087-0.064 0.131-0.001 0.002-0.002 0.005-0.003 0.007-0.019 0.042-0.036 0.085-0.052 0.129-0.002 0.005-0.004 0.009-0.005 0.014-0.015 0.041-0.028 0.082-0.041 0.124-0.002 0.008-0.005 0.015-0.007 0.022-0.011 0.039-0.021 0.079-0.030 0.118-0.002 0.010-0.005 0.020-0.007 0.031-0.008 0.037-0.014 0.075-0.020 0.113-0.002 0.013-0.004 0.025-0.006 0.038-0.005 0.037-0.009 0.075-0.012 0.113-0.001 0.013-0.003 0.026-0.004 0.039-0.003 0.050-0.005 0.1-0.005 0.15 0 0.001-0 0.002-0 0.002l0.001 6.895z"></path>
<path fill="#73af00" d="M29.661 24.282c0.002-0.003 0.004-0.005 0.006-0.008 0.027-0.034 0.053-0.068 0.078-0.103 0.001-0.001 0.001-0.002 0.002-0.003 0.025-0.036 0.050-0.073 0.073-0.11 0 0 0-0 0-0h-27.639c0.023 0.038 0.048 0.075 0.074 0.112 0 0 0.001 0.001 0.001 0.001 0.025 0.036 0.052 0.071 0.079 0.105 0.002 0.002 0.003 0.004 0.005 0.006 0.026 0.033 0.053 0.064 0.081 0.096 0.004 0.004 0.008 0.008 0.012 0.012 0.026 0.029 0.053 0.057 0.081 0.084 0.007 0.007 0.015 0.014 0.022 0.021 0.025 0.024 0.051 0.048 0.077 0.071 0.012 0.010 0.025 0.020 0.037 0.031 0.023 0.019 0.046 0.038 0.069 0.056 0.020 0.015 0.040 0.029 0.061 0.044 0.018 0.012 0.035 0.026 0.053 0.038 0.039 0.026 0.079 0.051 0.121 0.075l11.948 6.895c0.128 0.074 0.261 0.134 0.399 0.18 0.091 0.031 0.184 0.055 0.278 0.074 0.095 0.019 0.192 0.031 0.288 0.037 0.141 0.009 0.283 0.004 0.423-0.014 0.284-0.037 0.562-0.129 0.818-0.277l11.945-6.899c0.041-0.024 0.081-0.049 0.12-0.075 0.018-0.012 0.035-0.025 0.052-0.037 0.020-0.015 0.041-0.029 0.061-0.044 0.023-0.018 0.045-0.036 0.067-0.055 0.013-0.011 0.026-0.021 0.039-0.032 0.026-0.022 0.050-0.045 0.075-0.069 0.008-0.008 0.016-0.015 0.024-0.023 0.027-0.026 0.053-0.054 0.079-0.081 0.005-0.005 0.009-0.010 0.014-0.015 0.027-0.031 0.054-0.062 0.079-0.093z"></path>
</svg>
