<svg xmlns="http://www.w3.org/2000/svg" width="32" height="32" version="1.1" viewBox="0 0 32 32"><title>melilla</title><path fill="#4173cd" d="M30.153 22.895l-0-2.651-0-1.698-0.001-5.093-0-1.698-0-2.655c-0-0.194-0.026-0.384-0.075-0.567-0.026-0.098-0.059-0.194-0.099-0.287-0.16-0.381-0.426-0.714-0.773-0.955-0.051-0.035-0.103-0.069-0.157-0.101l-11.947-6.895c-0.682-0.394-1.523-0.394-2.205 0l-11.945 6.899c-0.053 0.030-0.103 0.063-0.152 0.098-0.212 0.147-0.393 0.328-0.54 0.534-0.098 0.138-0.18 0.287-0.244 0.443-0.107 0.261-0.166 0.544-0.166 0.836l0 2.651 0 1.698 0.001 5.092v0.001l0 1.697 0 2.655v0c0 0.725 0.357 1.399 0.946 1.809 0.051 0.035 0.103 0.069 0.157 0.101l11.948 6.895c0.682 0.394 1.523 0.394 2.205-0l11.945-6.899c0.053-0.030 0.103-0.063 0.152-0.098 0.591-0.41 0.95-1.085 0.95-1.813v0 0z"/><path fill="#73af00" d="M13.205 22.248c-0.053 0.933 0.565 1.048 0.9 1.054s0.842 0.152 1.314 0.248c0.472 0.096 0.624-0.294 0.624-0.294 0.279 0.365 0.551 0.254 0.551 0.254 0.223-0.223 0.818-0.335 1.052-0.35s0.177-0.335 0.177-0.335c0.244-0.136 0.41-0.292 0.528-0.449 0.005 0.002 0.009 0.006 0.015 0.008 0.401 0.172 0.71-0.193 0.776-0.33 0.041-0.085 0.115-0.122 0.169-0.14l0.019 0.211c0.172-0.248 0.548-0.157 0.548-0.157-0.386-0.593-0.776-0.32-0.776-0.32l0.151 0.144c-0.23 0.116-0.366 0.574-0.704 0.44-0.029-0.012-0.053-0.028-0.079-0.043 0.137-0.271 0.141-0.526 0.105-0.672-0.066-0.264-0.472-0.325-0.669-0.056-0.138 0.188-0.051 0.478 0.15 0.696-0.106 0.074-0.241 0.142-0.419 0.192-0.548 0.152-1.369-0.568-1.938-0.599s-1.065 0.446-1.349 0.751c-0.284 0.304-0.665 0.035-0.659-0.162zM18.179 21.567c0.107-0.046 0.152 0.036 0.167 0.167 0.006 0.055-0.024 0.146-0.098 0.243-0.117-0.18-0.137-0.381-0.069-0.41z"/><path fill="#f5f5f5" d="M14.814 23.374l-0.303 0.156 0.085-0.209z"/><path fill="#f5f5f5" d="M14.532 23.302l-0.28 0.144 0.078-0.194z"/><path fill="#f5f5f5" d="M14.271 23.249l-0.207 0.117 0.053-0.148z"/><path fill="#f5f5f5" d="M16.594 23.51l-0.33 0.086 0.128-0.186z"/><path fill="#f5f5f5" d="M16.365 23.388l-0.307 0.070 0.124-0.168z"/><path fill="#f5f5f5" d="M16.151 23.275l-0.211 0.11 0.058-0.146z"/><path fill="#f5f5f5" d="M11.774 12.261c-0.059-0.084-0.055-0.19 0.009-0.235s0.165-0.014 0.224 0.070c0.059 0.084 0.055 0.19-0.009 0.235s-0.165 0.014-0.224-0.070z"/><path fill="#f5f5f5" d="M20.226 12.261c-0.059 0.084-0.16 0.116-0.224 0.070s-0.069-0.151-0.009-0.235c0.059-0.084 0.16-0.116 0.224-0.070s0.069 0.151 0.009 0.235z"/><path fill="#f5f5f5" d="M17.96 15.271v3.64c0 1.081-0.879 1.96-1.96 1.96s-1.96-0.879-1.96-1.96v-3.64h3.921zM19.080 13.87h-6.161c-0.155 0-0.28 0.125-0.28 0.28v4.761c0 1.856 1.505 3.36 3.36 3.36s3.361-1.505 3.361-3.36v-4.761c0-0.155-0.125-0.28-0.28-0.28v0z"/><path fill="#ff4b55" d="M14.040 15.271h-1.4v-0.775c0-0.345 0.28-0.625 0.625-0.625h0.775v1.4h0z"/><path fill="#ff4b55" d="M15.3 13.871h1.4v1.4h-1.4v-1.4z"/><path fill="#ff4b55" d="M12.639 16.671h1.4v1.4h-1.4v-1.4z"/><path fill="#ff4b55" d="M17.96 16.671h1.4v1.4h-1.4v-1.4z"/><path fill="#ff4b55" d="M19.36 15.271h-1.4v-1.4h0.775c0.345 0 0.625 0.28 0.625 0.625l0 0.775z"/><path fill="#ff4b55" d="M17.191 22.050l-0.539-1.293c-0.204 0.073-0.424 0.114-0.653 0.114s-0.448-0.042-0.653-0.114l-0.539 1.293c0.371 0.141 0.771 0.221 1.191 0.221s0.82-0.081 1.191-0.221z"/><path fill="#ff4b55" d="M13.521 21.174l1.095-0.876c-0.277-0.276-0.471-0.636-0.543-1.036l-1.35 0.386c0.13 0.58 0.411 1.103 0.798 1.527z"/><path fill="#ff4b55" d="M19.277 19.647l-1.35-0.386c-0.073 0.401-0.266 0.76-0.543 1.036l1.095 0.876c0.387-0.424 0.668-0.946 0.798-1.527z"/><path fill="#ffe15a" d="M13.060 14.151h0.56v0.84h-0.56v-0.84z"/><path fill="#ffe15a" d="M13.060 16.951h0.56v0.84h-0.56v-0.84z"/><path fill="#ffe15a" d="M13.339 19.751h0.56v0.84h-0.56v-0.84z"/><path fill="#ffe15a" d="M18.101 19.751h0.56v0.84h-0.56v-0.84z"/><path fill="#ffe15a" d="M18.38 14.151h0.56v0.84h-0.56v-0.84z"/><path fill="#ff4b55" d="M13.060 15.542h0.56v0.84h-0.56v-0.84z"/><path fill="#ff4b55" d="M18.38 15.542h0.56v0.84h-0.56v-0.84z"/><path fill="#ff4b55" d="M13.060 18.319h0.56v0.84h-0.56v-0.84z"/><path fill="#ff4b55" d="M14.268 20.795h0.56v0.84h-0.56v-0.84z"/><path fill="#ff4b55" d="M17.172 20.795h0.56v0.84h-0.56v-0.84z"/><path fill="#ff4b55" d="M18.38 18.319h0.56v0.84h-0.56v-0.84z"/><path fill="#ffe15a" d="M15.72 14.151h0.56v0.84h-0.56v-0.84z"/><path fill="#ff4b55" d="M14.39 14.151h0.56v0.84h-0.56v-0.84z"/><path fill="#ff4b55" d="M17.027 14.151h0.56v0.84h-0.56v-0.84z"/><path fill="#ffe15a" d="M18.38 16.951h0.56v0.84h-0.56v-0.84z"/><path fill="#ffe15a" d="M15.72 21.151h0.56v0.84h-0.56v-0.84z"/><path fill="#ffe15a" d="M16 15.804c0.54 0 0.98 0.44 0.98 0.98s-0.44 0.98-0.98 0.98c-0.54 0-0.98-0.44-0.98-0.98s0.44-0.98 0.98-0.98zM16 15.664c-0.619 0-1.12 0.501-1.12 1.12s0.502 1.12 1.12 1.12c0.619 0 1.12-0.502 1.12-1.12s-0.502-1.12-1.12-1.12v0z"/><path fill="#73af00" d="M15.831 16.706c-0.278 0-0.451 0.078-0.56 0.175 0.045-0.22 0.137-0.455 0.332-0.455 0.039 0 0.070-0.032 0.070-0.070s-0.031-0.070-0.070-0.070c-0.193 0-0.313 0.134-0.388 0.303-0.046-0.918-0.189-0.922-0.242-0.922-0.039 0-0.070 0.031-0.070 0.070 0 0.034 0.024 0.062 0.055 0.068 0.029 0.035 0.054 0.153 0.075 0.316-0.091-0.192-0.222-0.332-0.416-0.332-0.039 0-0.070 0.031-0.070 0.070s0.031 0.070 0.070 0.070c0.191 0 0.309 0.233 0.379 0.513-0.134-0.192-0.337-0.332-0.635-0.332-0.039 0-0.070 0.032-0.070 0.070s0.031 0.070 0.070 0.070c0.31 0 0.487 0.179 0.59 0.385-0.12-0.102-0.291-0.175-0.537-0.175-0.039 0-0.070 0.032-0.070 0.070s0.031 0.070 0.070 0.070c0.666 0 0.677 0.627 0.677 0.654 0 0.010 0.007 0.017 0.011 0.026 0.004 0.008 0.004 0.017 0.009 0.023l0 0c0.013 0.013 0.030 0.021 0.049 0.021h0c0.007-0 0.012-0.006 0.018-0.008 0.021-0.007 0.036-0.021 0.043-0.042 0.002-0.007 0.008-0.012 0.008-0.019 0-0.017 0.012-0.409 0.601-0.409 0.039 0 0.070-0.032 0.070-0.070s-0.031-0.070-0.070-0.070z"/><path fill="#73af00" d="M16.175 16.706c0.278 0 0.451 0.078 0.56 0.175-0.045-0.22-0.137-0.455-0.332-0.455-0.039 0-0.070-0.032-0.070-0.070s0.031-0.070 0.070-0.070c0.193 0 0.313 0.134 0.388 0.303 0.046-0.918 0.189-0.922 0.242-0.922 0.039 0 0.070 0.031 0.070 0.070 0 0.034-0.023 0.062-0.055 0.068-0.029 0.035-0.054 0.153-0.075 0.316 0.091-0.192 0.222-0.332 0.416-0.332 0.039 0 0.070 0.031 0.070 0.070s-0.031 0.070-0.070 0.070c-0.191 0-0.309 0.233-0.379 0.513 0.134-0.192 0.337-0.332 0.635-0.332 0.039 0 0.070 0.032 0.070 0.070s-0.031 0.070-0.070 0.070c-0.31 0-0.487 0.179-0.59 0.385 0.12-0.102 0.291-0.175 0.538-0.175 0.039 0 0.070 0.032 0.070 0.070s-0.031 0.070-0.070 0.070c-0.666 0-0.677 0.627-0.677 0.654-0 0.010-0.007 0.017-0.011 0.026-0.003 0.008-0.004 0.017-0.009 0.023l-0 0c-0.013 0.013-0.030 0.021-0.049 0.021h-0c-0.007-0-0.012-0.006-0.018-0.008-0.021-0.007-0.036-0.021-0.043-0.042-0.002-0.007-0.008-0.012-0.008-0.019-0-0.017-0.012-0.409-0.601-0.409-0.039 0-0.070-0.032-0.070-0.070s0.031-0.070 0.070-0.070z"/><path fill="#ff4b55" d="M14.919 17.065c0.125 0.482 0.559 0.84 1.081 0.84s0.956-0.358 1.081-0.84h-2.161z"/><path fill="#ffe15a" d="M16 17.905c0.521 0 0.956-0.358 1.081-0.84h-1.081v0.84z"/><path fill="#ffe15a" d="M16 18.342c0.54 0 0.98 0.44 0.98 0.98s-0.44 0.98-0.98 0.98c-0.54 0-0.98-0.44-0.98-0.98s0.44-0.98 0.98-0.98zM16 18.202c-0.619 0-1.12 0.502-1.12 1.12s0.502 1.12 1.12 1.12c0.619 0 1.12-0.502 1.12-1.12s-0.502-1.12-1.12-1.12v0z"/><path fill="#73af00" d="M15.831 19.244c-0.278 0-0.451 0.078-0.56 0.175 0.045-0.22 0.137-0.455 0.332-0.455 0.039 0 0.070-0.032 0.070-0.070s-0.031-0.070-0.070-0.070c-0.193 0-0.313 0.134-0.388 0.303-0.046-0.918-0.189-0.922-0.242-0.922-0.039 0-0.070 0.032-0.070 0.070 0 0.034 0.024 0.062 0.055 0.068 0.029 0.035 0.054 0.153 0.075 0.316-0.091-0.192-0.222-0.332-0.416-0.332-0.039 0-0.070 0.032-0.070 0.070s0.031 0.070 0.070 0.070c0.191 0 0.309 0.233 0.379 0.513-0.134-0.192-0.337-0.332-0.635-0.332-0.039 0-0.070 0.032-0.070 0.070s0.031 0.070 0.070 0.070c0.31 0 0.487 0.179 0.59 0.385-0.12-0.102-0.291-0.175-0.537-0.175-0.039 0-0.070 0.032-0.070 0.070s0.031 0.070 0.070 0.070c0.666 0 0.677 0.627 0.677 0.654 0 0.010 0.007 0.017 0.011 0.026 0.004 0.008 0.004 0.017 0.009 0.023l0 0c0.013 0.013 0.030 0.021 0.049 0.021h0c0.007-0 0.012-0.006 0.018-0.008 0.021-0.007 0.036-0.021 0.043-0.042 0.002-0.007 0.008-0.012 0.008-0.019 0-0.017 0.012-0.409 0.601-0.409 0.039 0 0.070-0.032 0.070-0.070s-0.031-0.070-0.070-0.070z"/><path fill="#73af00" d="M16.175 19.244c0.278 0 0.451 0.078 0.56 0.175-0.045-0.22-0.137-0.455-0.332-0.455-0.039 0-0.070-0.032-0.070-0.070s0.031-0.070 0.070-0.070c0.193 0 0.313 0.134 0.388 0.303 0.046-0.918 0.189-0.922 0.242-0.922 0.039 0 0.070 0.032 0.070 0.070 0 0.034-0.023 0.062-0.055 0.068-0.029 0.035-0.054 0.153-0.075 0.316 0.091-0.192 0.222-0.332 0.416-0.332 0.039 0 0.070 0.032 0.070 0.070s-0.031 0.070-0.070 0.070c-0.191 0-0.309 0.233-0.379 0.513 0.134-0.192 0.337-0.332 0.635-0.332 0.039 0 0.070 0.032 0.070 0.070s-0.031 0.070-0.070 0.070c-0.31 0-0.487 0.179-0.59 0.385 0.12-0.102 0.291-0.175 0.538-0.175 0.039 0 0.070 0.032 0.070 0.070s-0.031 0.070-0.070 0.070c-0.666 0-0.677 0.627-0.677 0.654-0 0.010-0.007 0.017-0.011 0.026-0.003 0.008-0.004 0.017-0.009 0.023l-0 0c-0.013 0.013-0.030 0.021-0.049 0.021h-0c-0.007-0-0.012-0.006-0.018-0.008-0.021-0.007-0.036-0.021-0.043-0.042-0.002-0.007-0.008-0.012-0.008-0.019-0-0.017-0.012-0.409-0.601-0.409-0.039 0-0.070-0.032-0.070-0.070s0.031-0.070 0.070-0.070z"/><path fill="#ff4b55" d="M14.919 19.602c0.125 0.482 0.559 0.84 1.081 0.84s0.956-0.358 1.081-0.84h-2.161z"/><path fill="#ffe15a" d="M16 20.442c0.521 0 0.956-0.358 1.081-0.84h-1.081v0.84z"/><path fill="#f5f5f5" d="M12.079 14.71v-0.56h-1.4v0.56h0.28v6.161h-0.28v0.56h1.4v-0.56h-0.28v-6.161z"/><path fill="#f5f5f5" d="M21.321 14.71v-0.56h-1.4v0.56h0.28v6.161h-0.28v0.56h1.4v-0.56h-0.28v-6.161z"/><path fill="#ffe15a" d="M19.080 13.87h-6.161c-0.309 0-0.56-0.251-0.56-0.56v0c0-0.309 0.251-0.56 0.56-0.56h6.161c0.309 0 0.56 0.251 0.56 0.56v0c0 0.309-0.251 0.56-0.56 0.56z"/><path fill="#ff4b55" d="M16.21 13.52h-0.42c-0.116 0-0.21-0.094-0.21-0.21v0c0-0.116 0.094-0.21 0.21-0.21h0.42c0.116 0 0.21 0.094 0.21 0.21v0c0 0.116-0.094 0.21-0.21 0.21z"/><path fill="#73af00" d="M18.31 13.52h-0.42c-0.116 0-0.21-0.094-0.21-0.21v0c0-0.116 0.094-0.21 0.21-0.21h0.42c0.116 0 0.21 0.094 0.21 0.21v0c0 0.116-0.094 0.21-0.21 0.21z"/><path fill="#73af00" d="M14.11 13.52h-0.42c-0.116 0-0.21-0.094-0.21-0.21v0c0-0.116 0.094-0.21 0.21-0.21h0.42c0.116 0 0.21 0.094 0.21 0.21v0c0 0.116-0.094 0.21-0.21 0.21z"/><path fill="#ffe15a" d="M19.932 11.589l-0.408 0.14 0.039 0.39c-0.451 0.512-0.677 0.546-0.771 0.513-0.115-0.040-0.169-0.204-0.19-0.33l0.169 0.169c0.84-0.84 0.359-2.074 0.359-2.074-0.236 0.044-0.341 0.262-0.341 0.262-0.219-0.018-0.446 0-0.446 0-0.017 0.193 0.052 0.464 0.052 0.464-0.48 0.099-0.678 0.359-0.678 0.359 0.082 0.231 0.345 0.428 0.345 0.428-0.079 0.193 0.017 0.42 0.017 0.42 0.12 0 0.224-0.036 0.298-0.072-0.314 0.391-0.461 0.4-0.511 0.382-0.151-0.056-0.19-0.504-0.169-0.804 0.002-0.031-0.016-0.059-0.045-0.070s-0.061-0.002-0.080 0.022l-0.241 0.308c-1.008-1.343-0.211-2.146-0.211-2.146v-0.56h-0.28v0.28h-0.24v-0.28h-0.24v0.28h-0.24v-0.28h-0.24v0.28h-0.24v-0.28h-0.24v0.28h-0.24v-0.28h-0.28v0.56c0 0 0.797 0.803-0.211 2.146l-0.242-0.308c-0.019-0.024-0.052-0.033-0.080-0.022s-0.047 0.040-0.045 0.070c0.021 0.3-0.017 0.747-0.169 0.804-0.050 0.018-0.198 0.009-0.512-0.383 0.074 0.036 0.179 0.073 0.3 0.073 0 0 0.096-0.227 0.018-0.42 0 0 0.263-0.198 0.345-0.428 0 0-0.198-0.26-0.678-0.359 0 0 0.070-0.271 0.053-0.464 0 0-0.227-0.018-0.446 0 0 0-0.105-0.219-0.341-0.262 0 0-0.481 1.234 0.359 2.074l0.167-0.167c-0.022 0.126-0.075 0.289-0.19 0.328-0.094 0.033-0.319-0.001-0.769-0.511l0.040-0.391-0.408-0.14c-0.21-0.636-0.712-0.56-0.712-0.56 0.333 0.286 0.403 1.015 0.403 1.015l0.863 0.84 0.047-0.134c-0.019-0.112-0.049-0.2-0.082-0.271 0.271 0.25 0.491 0.346 0.665 0.285 0.171-0.059 0.243-0.252 0.274-0.398 0.23 0.284 0.414 0.42 0.568 0.42 0.030 0 0.059-0.005 0.087-0.016 0.22-0.081 0.263-0.47 0.266-0.729l0.152 0.193v0.515h1.12c0-0.155 0.125-0.28 0.28-0.28s0.28 0.125 0.28 0.28h1.12v-0.515l0.152-0.193c0.003 0.26 0.046 0.648 0.266 0.729 0.028 0.010 0.057 0.016 0.087 0.016 0.154 0 0.339-0.137 0.568-0.42 0.031 0.146 0.103 0.339 0.274 0.398 0.175 0.061 0.395-0.035 0.667-0.287-0.033 0.071-0.063 0.16-0.083 0.273l0.047 0.134 0.863-0.84c0 0 0.070-0.729 0.403-1.015-0-0-0.502-0.076-0.712 0.56z"/><path fill="#f5f5f5" d="M14.95 13.52v0c-0.116 0-0.21-0.094-0.21-0.21v0c0-0.116 0.094-0.21 0.21-0.21v0c0.116 0 0.21 0.094 0.21 0.21v0c0 0.116-0.094 0.21-0.21 0.21z"/><path fill="#f5f5f5" d="M17.050 13.52v0c-0.116 0-0.21-0.094-0.21-0.21v0c0-0.116 0.094-0.21 0.21-0.21v0c0.116 0 0.21 0.094 0.21 0.21v0c0 0.116-0.094 0.21-0.21 0.21z"/><path fill="#ff4b55" d="M19.15 13.52v0c-0.116 0-0.21-0.094-0.21-0.21v0c0-0.116 0.094-0.21 0.21-0.21v0c0.116 0 0.21 0.094 0.21 0.21v0c0 0.116-0.094 0.21-0.21 0.21z"/><path fill="#ff4b55" d="M12.85 13.52v0c-0.116 0-0.21-0.094-0.21-0.21v0c0-0.116 0.094-0.21 0.21-0.21v0c0.116 0 0.21 0.094 0.21 0.21v0c0 0.116-0.094 0.21-0.21 0.21z"/><path fill="#f5f5f5" d="M16.279 11.071c0 0.155-0.125 0.28-0.28 0.28s-0.28-0.125-0.28-0.28c0-0.155 0.125-0.28 0.28-0.28s0.28 0.125 0.28 0.28z"/><path fill="#f5f5f5" d="M13.014 11.575c-0.028-0.112 0.027-0.223 0.124-0.248s0.198 0.047 0.227 0.159c0.028 0.112-0.027 0.223-0.124 0.248s-0.198-0.047-0.227-0.159z"/><path fill="#f5f5f5" d="M18.988 11.575c-0.028 0.112-0.13 0.184-0.227 0.159s-0.152-0.135-0.124-0.248c0.028-0.112 0.13-0.184 0.227-0.159s0.152 0.135 0.124 0.248z"/><path fill="#f5f5f5" d="M12.639 16.579c-0.265-0.050-0.617-0.087-1.004-0.046-0.379 0.040-0.821 0.158-1.237 0.44v1.774c0.58-1.401 1.872-1.13 2.24-1.019v-1.149h0z"/><path fill="#f5f5f5" d="M19.36 16.579c0.265-0.050 0.617-0.087 1.004-0.046 0.379 0.040 0.821 0.158 1.237 0.44v1.774c-0.58-1.401-1.872-1.13-2.24-1.019v-1.149h-0z"/><path fill="#ff4b55" d="M14.472 21.319c0 0-0.302 0.474-0.454 0.519 0 0-0.207 0.151-0.249 0.136l0.726-0.842-0.023 0.187z"/><path fill="#73af00" d="M14.445 21.592c-0.142-0.015-0.254 0.066-0.325 0.162s-0.262 0.128-0.282 0.003c-0.018-0.113 0.379-0.465 0.379-0.465s-0.066-0.119-0.247-0.073c-0.172 0.044-0.342 0.321-0.342 0.321s-0.172-0.067-0.311 0.048l-0.592 0.677c0 0 0.727 0.622 1.654-0.294l-0.157-0.051c0.051-0.193 0.223-0.33 0.223-0.33z"/><path fill="#f5f5f5" d="M13.641 21.767c0 0.038-0.031 0.069-0.069 0.069s-0.069-0.031-0.069-0.069c0-0.038 0.031-0.069 0.069-0.069s0.069 0.031 0.069 0.069z"/><path fill="#f5f5f5" d="M10.679 9.784c0.86-0.003 1.714 0.147 2.52 0.446v-0.877c-0.809-0.279-1.662-0.412-2.52-0.391v0.823z"/><path fill="#f5f5f5" d="M17.68 8.83c-1.104-0.265-2.256-0.265-3.36 0 0-0.28 0-0.56 0-0.84 1.104-0.265 2.256-0.265 3.36 0 0 0.28 0 0.56 0 0.84z"/><path fill="#f5f5f5" d="M14.6 8.19c-0.685 0.064-1.36 0.224-2.003 0.481 0.040 0.277 0.081 0.554 0.121 0.831 0.605-0.242 1.239-0.396 1.882-0.467v-0.845z"/><path fill="#f5f5f5" d="M10.399 10.743c0.382-0.107 0.77-0.185 1.163-0.228v-0.845c-0.393 0.037-0.781 0.109-1.163 0.209v0.865z"/><path fill="#f5f5f5" d="M21.321 9.784c-0.86-0.003-1.714 0.147-2.52 0.446v-0.877c0.809-0.279 1.662-0.412 2.52-0.391v0.823z"/><path fill="#f5f5f5" d="M17.4 8.19c0.685 0.064 1.36 0.224 2.003 0.481-0.040 0.277-0.081 0.554-0.121 0.831-0.605-0.242-1.239-0.396-1.882-0.467v-0.845z"/><path fill="#f5f5f5" d="M21.601 10.743c-0.382-0.107-0.77-0.185-1.163-0.228v-0.845c0.393 0.037 0.781 0.109 1.163 0.209v0.865z"/></svg>