<svg xmlns="http://www.w3.org/2000/svg" width="32" height="32" version="1.1" viewBox="0 0 32 32"><title>micronesia</title><path fill="#82afff" d="M30.152 18.546l-0.001-5.093-0-1.698-0-2.655c-0-0.725-0.357-1.399-0.946-1.809-0.051-0.035-0.103-0.069-0.157-0.101l-11.948-6.895c-0.682-0.394-1.523-0.394-2.205 0l-11.945 6.899c-0.053 0.030-0.103 0.063-0.152 0.098-0.592 0.41-0.95 1.085-0.95 1.813l0 2.651 0 1.698 0.001 5.093 0 1.698 0 2.655c0 0.725 0.357 1.399 0.946 1.809 0.051 0.035 0.103 0.069 0.157 0.101l11.948 6.895c0.682 0.394 1.523 0.394 2.205-0l11.945-6.899c0.053-0.030 0.103-0.063 0.152-0.098 0.592-0.41 0.95-1.085 0.95-1.813l-0-2.651-0-1.698z"/><path fill="#f5f5f5" d="M15.919 7.702l-0.473 1.417-1.494 0.012c-0.082 0.001-0.116 0.105-0.050 0.154l1.202 0.887-0.45 1.424c-0.025 0.078 0.064 0.143 0.131 0.095l1.215-0.868 1.215 0.869c0.067 0.048 0.155-0.017 0.131-0.095l-0.451-1.424 1.201-0.887c0.066-0.049 0.032-0.153-0.050-0.154l-1.494-0.012-0.473-1.417c-0.026-0.078-0.136-0.078-0.162 0z"/><path fill="#f5f5f5" d="M15.919 20.352l-0.473 1.417-1.494 0.012c-0.082 0.001-0.116 0.105-0.050 0.154l1.202 0.887-0.45 1.424c-0.025 0.078 0.064 0.143 0.131 0.095l1.215-0.869 1.215 0.869c0.067 0.048 0.155-0.017 0.131-0.095l-0.451-1.424 1.201-0.887c0.066-0.049 0.032-0.153-0.050-0.154l-1.494-0.012-0.473-1.417c-0.026-0.078-0.136-0.078-0.162-0z"/><path fill="#f5f5f5" d="M24.298 15.919l-1.417-0.473-0.012-1.494c-0.001-0.082-0.105-0.116-0.154-0.050l-0.887 1.201-1.424-0.45c-0.078-0.025-0.143 0.064-0.095 0.131l0.869 1.215-0.869 1.215c-0.048 0.067 0.017 0.155 0.095 0.131l1.424-0.451 0.887 1.201c0.049 0.066 0.153 0.032 0.154-0.050l0.012-1.494 1.417-0.473c0.078-0.026 0.078-0.136-0-0.162z"/><path fill="#f5f5f5" d="M7.702 15.919l1.417-0.473 0.012-1.494c0.001-0.082 0.105-0.116 0.154-0.050l0.887 1.201 1.424-0.45c0.078-0.025 0.143 0.064 0.095 0.131l-0.869 1.215 0.868 1.215c0.048 0.067-0.017 0.155-0.095 0.131l-1.424-0.451-0.887 1.201c-0.049 0.066-0.153 0.032-0.154-0.050l-0.012-1.494-1.417-0.473c-0.078-0.026-0.078-0.136 0-0.162z"/></svg>