<!-- Generated by IcoMoon.io -->
<svg version="1.1" xmlns="http://www.w3.org/2000/svg" width="32" height="32" viewBox="0 0 32 32">
<title>moldova</title>
<path fill="#ffe15a" d="M30.152 18.547l-0.001-5.093-0-1.698-0-2.655c-0-0.725-0.357-1.399-0.946-1.809-0.051-0.035-0.103-0.069-0.157-0.101l-11.948-6.895c-0.682-0.394-1.523-0.394-2.205 0l-11.945 6.899c-0.053 0.030-0.103 0.063-0.152 0.098-0.592 0.41-0.95 1.085-0.95 1.813l0 2.651 0 1.698 0.001 5.093 0 1.698 0 2.655c0 0.725 0.357 1.399 0.946 1.809 0.051 0.035 0.103 0.069 0.157 0.101l11.948 6.895c0.682 0.394 1.523 0.394 2.205-0l11.945-6.899c0.053-0.030 0.103-0.063 0.152-0.098 0.592-0.41 0.95-1.085 0.95-1.813l-0-2.651-0-1.698z"></path>
<path fill="#ff4b55" d="M25.061 27.109l3.99-2.304c0.053-0.030 0.103-0.063 0.152-0.098 0.592-0.41 0.95-1.085 0.95-1.813l-0-2.651-0-1.698-0.001-5.093-0-1.698-0-2.655c-0-0.725-0.357-1.399-0.946-1.809-0.051-0.035-0.103-0.069-0.157-0.101l-6.539-3.774v25.167l2.552-1.474z"></path>
<path fill="#41479b" d="M5.067 5.971l-2.118 1.223c-0.053 0.030-0.103 0.063-0.152 0.098-0.592 0.41-0.95 1.085-0.95 1.813l0 2.651 0 1.698 0.001 5.093 0 1.698 0 2.655c0 0.725 0.357 1.399 0.946 1.809 0.051 0.035 0.103 0.069 0.157 0.101l6.539 3.774v-25.167l-4.424 2.555z"></path>
<path fill="#ffcd5a" d="M18.721 20.342l-0.335 0.273-1.526-1.872 0.335-0.273 1.526 1.872z"></path>
<path fill="#ffbe5a" d="M18.033 19.157l-0.67 0.546-0.671-0.824 0.67-0.546 0.671 0.824z"></path>
<path fill="#ffcd5a" d="M14.993 18.469l0.335 0.273-1.526 1.872-0.335-0.273 1.526-1.872z"></path>
<path fill="#ffbe5a" d="M14.825 18.334l0.67 0.546-0.671 0.824-0.67-0.546 0.671-0.824z"></path>
<path fill="#ffe15a" d="M15.553 19.172l-1.080 2.161 1.512 1.080v-3.025z"></path>
<path fill="#ffcd5a" d="M16.417 19.172l1.080 2.161-1.512 1.080v-3.025z"></path>
<path fill="#ffbe5a" d="M12.96 19.172v-5.617h0.648c0 0 0 3.673 0 4.321s-0.648 1.296-0.648 1.296z"></path>
<path fill="#ffcd5a" d="M12.528 20.252v-6.698h0.648c0 0 0 4.753 0 5.401s-0.648 1.296-0.648 1.296z"></path>
<path fill="#ffe15a" d="M12.096 21.116v-7.562h0.648c0 0 0 5.617 0 6.266s-0.648 1.296-0.648 1.296z"></path>
<path fill="#ff4b55" d="M13.608 13.77c0 0 0 3.079 0 4.105 0 1.080 1.566 0.936 2.377 1.728 0.81-0.792 2.377-0.648 2.377-1.728 0-1.026 0-4.105 0-4.105h-4.753z"></path>
<path fill="#41479b" d="M13.608 16.147c0 0.684 0 1.348 0 1.728 0 1.080 1.566 0.936 2.377 1.728 0.81-0.792 2.377-0.648 2.377-1.728 0-0.381 0-1.044 0-1.728h-4.753z"></path>
<path fill="#ffe15a" d="M15.985 18.956l-0.648-0.432v-0.216l0.216-0.216v-1.296l-0.648-0.432 0.648-0.864h0.216l0.216 0.216 0.216-0.216h0.216l0.648 0.864-0.648 0.432v1.296l0.216 0.216v0.216z"></path>
<path fill="#ffe15a" d="M15.121 13.986c0 0-0.864 0.216-0.864 1.080s0.864 1.296 0.864 1.296l0.432-0.648c-1.296-0.432-0.432-1.728-0.432-1.728z"></path>
<path fill="#ffe15a" d="M16.849 13.986c0 0 0.864 0.216 0.864 1.080s-0.864 1.296-0.864 1.296l-0.432-0.648c1.296-0.432 0.432-1.728 0.432-1.728z"></path>
<path fill="#ffe15a" d="M13.825 16.147l0.432 0.216 0.432-0.216-0.432-0.216z"></path>
<path fill="#ffe15a" d="M17.281 16.147l0.432 0.216 0.432-0.216-0.432-0.216z"></path>
<path fill="#ffe15a" d="M15.985 14.094l0.157 0.161 0.225-0.003-0.003 0.225 0.161 0.157-0.161 0.157 0.003 0.225-0.225-0.003-0.157 0.161-0.157-0.161-0.225 0.003 0.003-0.225-0.161-0.157 0.161-0.157-0.003-0.225 0.225 0.003z"></path>
<path fill="#ffe15a" d="M14.518 17.090l0.156 0.173 0.217-0.086c0.112-0.044 0.217 0.078 0.157 0.182l-0.117 0.202 0.149 0.18c0.077 0.093-0.007 0.231-0.125 0.206l-0.228-0.049-0.125 0.197c-0.065 0.102-0.222 0.065-0.234-0.055l-0.024-0.232-0.226-0.058c-0.117-0.030-0.13-0.191-0.020-0.24l0.213-0.095-0.015-0.233c-0.008-0.12 0.141-0.183 0.222-0.093z"></path>
<path fill="#ffe15a" d="M17.395 17.583c0.048-0.246 0.25-0.42 0.487-0.446-0.048-0.026-0.1-0.048-0.157-0.059-0.303-0.059-0.596 0.139-0.654 0.442s0.139 0.596 0.442 0.654c0.057 0.011 0.113 0.010 0.167 0.004-0.209-0.113-0.332-0.35-0.285-0.596z"></path>
<path fill="#ffe15a" d="M15.121 13.77l0.432-2.161-0.864-0.648 0.216-0.216h0.432c0 0 0.216-0.216 0.648-0.216s0.864 0.216 0.864 0.864 0.216 2.377 0.216 2.377l-1.945 0z"></path>
<path fill="#ffaa5a" d="M13.608 12.906c-0.477 0-0.864 0.387-0.864 0.864h1.728c-0-0.477-0.387-0.864-0.864-0.864z"></path>
<path fill="#ffbe5a" d="M13.392 13.77h-1.296v-1.475c0-0.26 0.21-0.47 0.47-0.47h0.356c0.26 0 0.47 0.21 0.47 0.47v1.475h0z"></path>
<path fill="#ffbe5a" d="M19.010 19.172v-5.617h-0.648c0 0 0 3.673 0 4.321s0.648 1.296 0.648 1.296z"></path>
<path fill="#ffcd5a" d="M19.442 20.252v-6.698h-0.648c0 0 0 4.753 0 5.401s0.648 1.296 0.648 1.296z"></path>
<path fill="#ffe15a" d="M19.874 21.116v-7.562h-0.648c0 0 0 5.617 0 6.266s0.648 1.296 0.648 1.296z"></path>
<path fill="#ffaa5a" d="M18.362 12.906c0.477 0 0.864 0.387 0.864 0.864h-1.728c0-0.477 0.387-0.864 0.864-0.864z"></path>
<path fill="#ffbe5a" d="M18.578 13.77h1.296v-1.475c0-0.26-0.21-0.47-0.47-0.47h-0.356c-0.26 0-0.47 0.21-0.47 0.47l-0 1.475z"></path>
<path fill="#ffaa5a" d="M20.802 16.063l0.277 0.169-3.025 4.968-0.277-0.169 3.025-4.968z"></path>
<path fill="#ffe15a" d="M18.98 20.237l-0.539 0.675-0.528-0.422 0.539-0.675 0.528 0.422z"></path>
<path fill="#ffcd5a" d="M20.708 16.006l0.461 0.281-0.648 1.065-0.461-0.281 0.648-1.065z"></path>
<path fill="#73af00" d="M11.291 16.309l3.050 4.718-0.181 0.117-3.050-4.718 0.181-0.117z"></path>
<path fill="#73af00" d="M13.209 18.546c-0.078 0.088-0.129 0.221-0.142 0.375-0.107-0.108-0.229-0.176-0.343-0.194-0.030 0.111-0.018 0.251 0.037 0.392-0.145-0.051-0.288-0.059-0.4-0.024 0.031 0.159 0.161 0.332 0.36 0.451s0.413 0.151 0.568 0.103l0.044-0.029c0.107-0.122 0.166-0.33 0.139-0.56s-0.131-0.419-0.263-0.513z"></path>
<path fill="#ff4b55" d="M13.527 19.634c0 0.119-0.097 0.216-0.216 0.216s-0.216-0.097-0.216-0.216c0-0.119 0.097-0.216 0.216-0.216s0.216 0.097 0.216 0.216z"></path>
<path fill="#73af00" d="M12.388 17.276c-0.078 0.088-0.129 0.221-0.142 0.375-0.107-0.108-0.229-0.176-0.343-0.194-0.030 0.111-0.018 0.251 0.037 0.392-0.145-0.051-0.288-0.059-0.4-0.024 0.031 0.159 0.161 0.332 0.36 0.451s0.413 0.151 0.568 0.103l0.044-0.029c0.107-0.122 0.166-0.33 0.139-0.56s-0.131-0.419-0.263-0.513z"></path>
<path fill="#ff4b55" d="M12.706 18.364c0 0.119-0.097 0.216-0.216 0.216s-0.216-0.097-0.216-0.216c0-0.119 0.097-0.216 0.216-0.216s0.216 0.097 0.216 0.216z"></path>
<path fill="#73af00" d="M11.567 16.006c-0.078 0.088-0.129 0.221-0.142 0.375-0.107-0.108-0.229-0.176-0.343-0.194-0.030 0.111-0.018 0.251 0.037 0.392-0.145-0.051-0.288-0.059-0.4-0.024 0.031 0.159 0.161 0.332 0.36 0.451s0.413 0.151 0.568 0.103l0.044-0.029c0.107-0.122 0.166-0.33 0.139-0.56s-0.131-0.419-0.263-0.513z"></path>
<path fill="#ff4b55" d="M11.885 17.094c0 0.119-0.097 0.216-0.216 0.216s-0.216-0.097-0.216-0.216c0-0.119 0.097-0.216 0.216-0.216s0.216 0.097 0.216 0.216z"></path>
<path fill="#ffe15a" d="M13.733 19.818l0.539 0.675-0.528 0.422-0.539-0.675 0.528-0.422z"></path>
<path fill="#ffe15a" d="M14.689 10.097h0.216v1.512h-0.216v-1.512z"></path>
<path fill="#ffe15a" d="M14.473 10.313h0.648v0.216h-0.648v-0.216z"></path>
<path fill="#ff875a" d="M14.689 10.962l0.648 0.486v-0.702h-0.432z"></path>
<path fill="#ffaa5a" d="M14.905 10.097v0.216h0.216v0.216h-0.216v0.216h0.432c0 0 0.216-0.216 0.648-0.216s0.864 0.216 0.864 0.864 0.216 2.377 0.216 2.377h0.432c0-0.477 0.387-0.864 0.864-0.864 0.075 0 0.147 0.013 0.216 0.031v-0.463c0-0.358 0.29-0.648 0.648-0.648s0.648 0.29 0.648 0.648v5.112l0.279-0.458-0.092-0.056 0.648-1.065 0.092 0.056v-0l0.369 0.225-0.648 1.065-0.092-0.056-0.556 0.913v2.907c0 0-0.516-0.517-0.626-1.090-0.079-0.101-0.17-0.231-0.25-0.378l-0.247 0.406 0.23 0.184-0.54 0.675-0.143-0.114-0.244 0.401-0.277-0.169 0.266-0.437-0.129-0.103 0.184-0.23-0.567-0.695-0.168 0.136-0.504-0.619c-0.134 0.054-0.267 0.113-0.394 0.181l1.033 2.067-1.512 1.080-1.512-1.080 1.033-2.067c-0.076-0.040-0.154-0.079-0.233-0.114l-0.449 0.552-0.168-0.136-0.567 0.695 0.184 0.23-0.184 0.147 0.251 0.388-0.181 0.117-0.239-0.37-0.174 0.139-0.54-0.675 0.242-0.194-0.129-0.199c-0.003 0-0.006 0-0.009 0-0.071 0-0.14-0.032-0.181-0.095-0.018-0.027-0.027-0.057-0.031-0.087-0.041-0.002-0.082-0.008-0.125-0.018-0.080 0.148-0.172 0.278-0.251 0.38-0.11 0.572-0.626 1.090-0.626 1.090v-2.756c-0.065-0.021-0.131-0.047-0.196-0.085-0.199-0.119-0.329-0.291-0.36-0.451 0.045-0.014 0.096-0.021 0.15-0.021 0.079 0 0.164 0.015 0.25 0.046-0.028-0.073-0.044-0.146-0.050-0.214l-0.213-0.329c-0.003 0-0.006 0-0.009 0-0.071 0-0.14-0.032-0.181-0.095-0.018-0.027-0.027-0.057-0.031-0.087-0.12-0.007-0.251-0.044-0.377-0.119-0.199-0.119-0.329-0.291-0.36-0.451 0.045-0.014 0.096-0.021 0.15-0.021 0.079 0 0.164 0.015 0.25 0.046-0.054-0.141-0.067-0.281-0.037-0.392 0.114 0.018 0.236 0.087 0.343 0.194 0.013-0.154 0.064-0.287 0.142-0.375 0.132 0.094 0.237 0.283 0.263 0.513 0.017 0.146-0.004 0.281-0.046 0.393 0.026 0.016 0.049 0.037 0.066 0.064 0.043 0.066 0.041 0.146 0.009 0.212l0.213 0.329c0.008 0.005 0.016 0.010 0.024 0.015v-5.058c0-0.358 0.29-0.648 0.648-0.648s0.648 0.29 0.648 0.648v0.463c0.069-0.018 0.141-0.031 0.216-0.031 0.477 0 0.864 0.387 0.864 0.864h0.648l0.432-2.161-0.648-0.486v0.486h-0.216v-1.080h-0.216v-0.216h0.216v-0.216h0.216zM18.373 19.917l0.080-0.1 0.043 0.034 0.348-0.572c-0.030-0.106-0.050-0.214-0.050-0.323 0-0.011 0-0.025 0-0.038-0.189-0.248-0.432-0.645-0.432-1.042 0 0.455-0.279 0.692-0.662 0.874l0.332 0.408-0.167 0.136 0.508 0.623zM13.618 19.909l0.115-0.092 0.080 0.1 0.508-0.623-0.167-0.136 0.275-0.337c-0.461-0.193-0.82-0.429-0.82-0.945 0 0.289-0.129 0.578-0.272 0.81 0.068 0.1 0.119 0.227 0.136 0.375 0.017 0.146-0.004 0.281-0.046 0.393 0.026 0.016 0.049 0.037 0.066 0.064 0.043 0.066 0.041 0.146 0.009 0.212l0.117 0.181zM14.905 9.935h-0.216c-0.089 0-0.162 0.073-0.162 0.162v0.054h-0.054c-0.089 0-0.162 0.073-0.162 0.162v0.216c0 0.089 0.073 0.162 0.162 0.162h0.054v0.918c0 0.089 0.073 0.162 0.162 0.162h0.216c0.089 0 0.162-0.073 0.162-0.162v-0.162l0.307 0.23-0.386 1.93h-0.366c-0.078-0.489-0.503-0.864-1.014-0.864-0.018 0-0.036 0.001-0.054 0.002v-0.272c0-0.447-0.364-0.81-0.81-0.81s-0.81 0.364-0.81 0.81v3.781c-0.059-0.161-0.154-0.296-0.273-0.381-0.028-0.020-0.061-0.030-0.094-0.030-0.045 0-0.090 0.019-0.122 0.055-0.050 0.057-0.091 0.126-0.121 0.203-0.071-0.038-0.144-0.064-0.216-0.076-0.009-0.001-0.017-0.002-0.026-0.002-0.072 0-0.137 0.048-0.156 0.12-0.019 0.070-0.025 0.148-0.019 0.228-0.013-0.001-0.025-0.001-0.038-0.001-0.070 0-0.136 0.009-0.197 0.028-0.079 0.024-0.127 0.105-0.111 0.186 0.042 0.212 0.205 0.421 0.436 0.558 0.107 0.064 0.222 0.107 0.34 0.128 0.005 0.009 0.010 0.018 0.015 0.026 0.053 0.082 0.137 0.139 0.232 0.16l0.118 0.183c-0.004-0-0.008-0-0.012-0-0.070 0-0.136 0.009-0.197 0.028-0.079 0.024-0.127 0.105-0.111 0.186 0.042 0.212 0.205 0.421 0.436 0.558 0.037 0.022 0.075 0.042 0.117 0.059v2.643c0 0.066 0.040 0.125 0.1 0.15 0.020 0.008 0.041 0.012 0.062 0.012 0.042 0 0.084-0.017 0.115-0.048 0.022-0.022 0.53-0.537 0.663-1.135 0.054-0.072 0.105-0.144 0.151-0.216 0.052 0.060 0.123 0.102 0.202 0.119l0.007 0.011-0.128 0.102c-0.034 0.027-0.055 0.066-0.060 0.109s0.008 0.086 0.034 0.119l0.54 0.675c0.027 0.034 0.066 0.055 0.109 0.060 0.006 0.001 0.012 0.001 0.018 0.001 0.037 0 0.072-0.012 0.101-0.035l0.034-0.028 0.142 0.219c0.023 0.036 0.060 0.061 0.102 0.070 0.011 0.002 0.023 0.004 0.034 0.004 0.031 0 0.062-0.009 0.088-0.026l0.105-0.068-0.024 0.047c-0.036 0.071-0.014 0.158 0.051 0.204l1.512 1.080c0.028 0.020 0.061 0.030 0.094 0.030s0.066-0.010 0.094-0.030l1.512-1.080c0.065-0.046 0.086-0.133 0.051-0.204l-0.961-1.922c0.041-0.019 0.083-0.038 0.128-0.057l0.428 0.525c0.032 0.039 0.079 0.060 0.126 0.060 0.036 0 0.072-0.012 0.102-0.036l0.042-0.034 0.382 0.468-0.102 0.128c-0.027 0.034-0.039 0.076-0.034 0.119s0.026 0.082 0.060 0.109l0.018 0.014-0.192 0.315c-0.047 0.076-0.022 0.176 0.054 0.223l0.277 0.169c0.026 0.016 0.055 0.024 0.084 0.024 0.013 0 0.026-0.002 0.038-0.005 0.042-0.010 0.078-0.037 0.1-0.073l0.148-0.244c0.030 0.024 0.065 0.035 0.101 0.035 0.048 0 0.095-0.021 0.127-0.061l0.54-0.675c0.020-0.025 0.031-0.054 0.035-0.083 0.176 0.526 0.598 0.954 0.618 0.974 0.031 0.031 0.073 0.048 0.115 0.048 0.021 0 0.042-0.004 0.062-0.012 0.061-0.025 0.1-0.084 0.1-0.15v-2.862l0.453-0.744c0.011 0.002 0.022 0.003 0.033 0.003 0.055 0 0.108-0.028 0.139-0.078l0.648-1.065c0.022-0.037 0.029-0.081 0.019-0.123s-0.037-0.078-0.073-0.1l-0.461-0.281c-0.026-0.016-0.055-0.024-0.084-0.024-0.055 0-0.108 0.028-0.139 0.078l-0.534 0.878v-4.326c0-0.447-0.363-0.81-0.81-0.81s-0.81 0.364-0.81 0.81v0.272c-0.018-0.001-0.036-0.002-0.054-0.002-0.511 0-0.936 0.375-1.014 0.864h-0.139c-0.051-0.425-0.198-1.691-0.198-2.215 0-0.757-0.53-1.026-1.026-1.026-0.367 0-0.604 0.14-0.706 0.216h-0.005c0.006-0.017 0.009-0.035 0.009-0.054v-0.216c0-0.089-0.073-0.162-0.162-0.162h-0.054v-0.054c0-0.089-0.072-0.162-0.162-0.162v0zM13.525 18.685c0.041-0.073 0.078-0.145 0.109-0.216 0.135 0.181 0.329 0.31 0.536 0.412l-0.142 0.174c-0.027 0.033-0.040 0.076-0.036 0.119s0.026 0.082 0.059 0.109l0.042 0.034-0.289 0.354c-0.017-0.008-0.034-0.013-0.053-0.015-0.006-0.001-0.012-0.001-0.018-0.001-0.016 0-0.032 0.002-0.047 0.007 0.007-0.081-0.012-0.163-0.057-0.233-0.005-0.009-0.011-0.017-0.018-0.025 0.029-0.116 0.037-0.239 0.022-0.363-0.015-0.127-0.052-0.248-0.109-0.356v0zM17.951 18.801c0.143-0.083 0.281-0.189 0.386-0.33 0.083 0.189 0.192 0.361 0.294 0.501 0.001 0.090 0.014 0.183 0.037 0.282l-0.246 0.404c-0.014 0.003-0.028 0.007-0.041 0.014l-0.289-0.354 0.042-0.034c0.033-0.027 0.055-0.066 0.059-0.109s-0.008-0.085-0.036-0.119l-0.207-0.254zM14.823 19.866c0.047 0 0.094-0.020 0.126-0.060l0.273-0.335-0.74 1.479c-0.002-0.004-0.004-0.007-0.007-0.011l-0.171-0.265 0.069-0.055c0.034-0.027 0.055-0.066 0.060-0.109s-0.008-0.085-0.034-0.119l-0.102-0.128 0.382-0.468 0.042 0.034c0.030 0.024 0.066 0.036 0.102 0.036v0zM18.963 20.017l0.035-0.058c0.031 0.046 0.064 0.091 0.098 0.136 0.003 0.014 0.006 0.027 0.010 0.041-0.007-0.009-0.015-0.017-0.025-0.024l-0.118-0.095z"></path>
</svg>
