<!-- Generated by IcoMoon.io -->
<svg version="1.1" xmlns="http://www.w3.org/2000/svg" width="32" height="32" viewBox="0 0 32 32">
<title>mongolia</title>
<path fill="#ff4b55" d="M30.152 18.547l-0.001-5.093-0-1.698-0-2.655c-0-0.725-0.357-1.399-0.946-1.809-0.051-0.035-0.103-0.069-0.157-0.101l-11.947-6.895c-0.682-0.394-1.523-0.394-2.205 0l-11.945 6.899c-0.053 0.030-0.103 0.063-0.152 0.098-0.592 0.41-0.95 1.085-0.95 1.813l0 2.651 0 1.698 0.001 5.093 0 1.698 0 2.655c0 0.725 0.357 1.399 0.946 1.809 0.051 0.035 0.103 0.069 0.157 0.101l11.948 6.895c0.682 0.394 1.523 0.394 2.205-0l11.945-6.899c0.053-0.030 0.103-0.063 0.152-0.098 0.592-0.41 0.95-1.085 0.95-1.813l-0-2.651-0-1.698z"></path>
<path fill="#41479b" d="M20.789 2.424l-3.689-2.129c-0.682-0.394-1.523-0.394-2.205 0l-3.684 2.128v27.152l3.689 2.129c0.682 0.394 1.523 0.394 2.205-0l3.684-2.128v-27.152z"></path>
<path fill="#f9cf02" d="M6.617 14.365c-0.717 0-1.332-0.432-1.603-1.050-0 0.009-0.003 0.018-0.003 0.028 0 0.887 0.719 1.606 1.606 1.606s1.606-0.719 1.606-1.606c0-0.009-0.003-0.018-0.003-0.027-0.271 0.617-0.886 1.050-1.603 1.050z"></path>
<path fill="#f9cf02" d="M7.786 12.904c0 0.645-0.523 1.168-1.168 1.168s-1.168-0.523-1.168-1.168c0-0.645 0.523-1.168 1.168-1.168s1.168 0.523 1.168 1.168z"></path>
<path fill="#f9cf02" d="M5.887 10.714c0 0.403 0.327 0.73 0.73 0.73s0.73-0.327 0.73-0.73c0-0.292-0.183-0.329-0.183-0.438s0.109-0.256-0.109-0.438c0.109 0.182-0.073 0.219-0.073 0.402s0.073 0.182 0.073 0.329c0 0.081-0.065 0.146-0.146 0.146s-0.146-0.065-0.146-0.146c0-0.146 0.146-0.292 0.146-0.511s-0.037-0.292-0.146-0.475-0.292-0.329-0.146-0.475c-0.219 0.073-0.109 0.365-0.109 0.548s-0.146 0.292-0.146 0.511c0 0.219 0.109 0.256 0.109 0.402 0 0.081-0.065 0.146-0.146 0.146s-0.146-0.065-0.146-0.146c0-0.146 0.073-0.146 0.073-0.329s-0.183-0.219-0.073-0.402c-0.219 0.182-0.109 0.329-0.109 0.438s-0.183 0.146-0.183 0.438z"></path>
<path fill="#f9cf02" d="M3.405 15.361v6.768c0 0.067 0.054 0.121 0.12 0.121h1.219c0.067 0 0.121-0.054 0.121-0.121v-6.768c0-0.067-0.054-0.121-0.121-0.121h-1.219c-0.067-0-0.12 0.054-0.12 0.121z"></path>
<path fill="#f9cf02" d="M8.369 15.361v6.768c0 0.067 0.054 0.121 0.121 0.121h1.219c0.067 0 0.121-0.054 0.121-0.121v-6.768c0-0.067-0.054-0.121-0.121-0.121h-1.219c-0.066-0-0.121 0.054-0.121 0.121z"></path>
<path fill="#f9cf02" d="M5.157 16.53v0.343c0 0.067 0.054 0.121 0.121 0.121h2.679c0.067 0 0.121-0.054 0.121-0.121v-0.343c0-0.067-0.054-0.121-0.121-0.121h-2.679c-0.067 0-0.12 0.054-0.12 0.121z"></path>
<path fill="#f9cf02" d="M5.157 20.618v0.343c0 0.067 0.054 0.121 0.121 0.121h2.679c0.067 0 0.121-0.054 0.121-0.121v-0.343c0-0.067-0.054-0.12-0.121-0.12h-2.679c-0.067-0-0.12 0.054-0.12 0.12z"></path>
<path fill="#f9cf02" d="M5.375 15.241h2.485c0.061 0 0.083 0.081 0.031 0.112l-1.181 0.708c-0.057 0.034-0.129 0.034-0.186 0l-1.181-0.708c-0.052-0.031-0.030-0.112 0.031-0.112z"></path>
<path fill="#f9cf02" d="M5.375 21.374h2.485c0.061 0 0.083 0.081 0.031 0.112l-1.181 0.708c-0.057 0.034-0.129 0.034-0.186 0l-1.181-0.708c-0.052-0.032-0.030-0.112 0.031-0.112z"></path>
<path fill="#f9cf02" d="M6.76 17.296c-0.046-0.004-0.091-0.014-0.138-0.014-0.803 0-1.456 0.653-1.456 1.456 0 0.477 0.233 0.896 0.588 1.161 0.041 0.030 0.095-0.014 0.075-0.061-0.043-0.101-0.067-0.212-0.067-0.328 0-0.475 0.387-0.861 0.862-0.859 0.25 0.001 0.489-0.123 0.6-0.346 0.229-0.463-0.050-0.923-0.465-1.008zM6.622 18.258c-0.161 0-0.291-0.13-0.291-0.291s0.13-0.291 0.291-0.291 0.291 0.13 0.291 0.291c0 0.161-0.13 0.291-0.291 0.291z"></path>
<path fill="#f9cf02" d="M7.49 17.578c-0.041-0.030-0.095 0.014-0.075 0.061 0.043 0.101 0.067 0.212 0.067 0.328 0 0.475-0.387 0.861-0.862 0.859-0.25-0.001-0.489 0.123-0.6 0.347-0.229 0.463 0.050 0.924 0.465 1.009 0.046 0.004 0.091 0.014 0.138 0.014 0.803 0 1.456-0.653 1.456-1.456 0-0.477-0.233-0.896-0.588-1.161zM6.622 19.802c-0.161 0-0.291-0.13-0.291-0.291s0.13-0.291 0.291-0.291c0.161 0 0.291 0.13 0.291 0.291s-0.13 0.291-0.291 0.291z"></path>
</svg>
