<svg xmlns="http://www.w3.org/2000/svg" width="32" height="32" version="1.1" viewBox="0 0 32 32"><title>montserrat</title><path fill="#f5f5f5" d="M1.849 22.9l-0.002-13.795c-0-0.788 0.42-1.516 1.102-1.91l11.945-6.899c0.682-0.394 1.523-0.394 2.205-0l11.948 6.895c0.682 0.394 1.103 1.122 1.103 1.91l0.002 13.795c0 0.788-0.42 1.516-1.102 1.91l-11.945 6.899c-0.682 0.394-1.523 0.394-2.205 0l-11.947-6.895c-0.682-0.394-1.103-1.122-1.103-1.91z"/><path fill="#ff4b55" d="M2.585 7.459v8.552l1.231 0.457 1.382-0.457v-10.115l-2.249 1.299c-0.132 0.076-0.253 0.165-0.364 0.264z"/><path fill="#ff4b55" d="M6.048 5.405h9.952l0.234-2.058-0.234-2.125h-2.71z"/><path fill="#ff4b55" d="M6.751 6.799l8.754 9.095c0.002-0.001 0.004-0.003 0.005-0.004 0.004-0.003 0.008-0.007 0.011-0.010 0.028-0.021 0.478-0.424 0.478-0.427 0.010-0.229-0.005-0.639-0.003-0.699 0-0.004 0.001-0.007 0.001-0.011l-7.647-7.944-1.6-0z"/><path fill="#41479b" d="M30.151 9.1c-0-0.788-0.421-1.516-1.103-1.91l-11.948-6.895c-0.34-0.196-0.72-0.295-1.1-0.295v6.655h-6.636l6.636 6.959v1.060c0 0.023-0.001 0.046-0.002 0.069v0c-0 0.004-0.001 0.007-0.001 0.011-0.002 0.060-0.007 0.119-0.014 0.177-0.001 0.009-0.003 0.017-0.004 0.026-0.032 0.234-0.101 0.445-0.198 0.616-0.001 0.002-0.003 0.005-0.004 0.007-0.050 0.086-0.107 0.162-0.169 0.225-0.002 0.002-0.004 0.004-0.006 0.006-0.026 0.025-0.053 0.048-0.081 0.069-0.004 0.003-0.008 0.006-0.011 0.010-0.002 0.001-0.004 0.003-0.005 0.004v0c-0.104 0.075-0.219 0.117-0.34 0.117h-1.45l-7.735-8.111v8.111h-4.131l0.001 6.889c0 0.788 0.421 1.516 1.103 1.91l11.948 6.895c0.682 0.394 1.523 0.394 2.205-0l11.945-6.899c0.682-0.394 1.102-1.122 1.102-1.91l-0.002-13.794z"/><path fill="#82afff" d="M19.642 12.597h8.301v6.414h-8.301v-6.414z"/><path fill="#c86464" d="M19.642 19.011c0 2.188 2.453 3.962 4.151 3.962v0c1.509 0 4.151-1.774 4.151-3.962h-8.301z"/><path fill="#73af00" d="M24.901 14.94c0.134 0.024 0.362 0.055 0.385 0.377s-0.094 1.47-0.212 1.611c0 0 0.385 0.873 0.401 1.391s-0.055 2.071-0.008 2.319c0.047 0.248 0.224 0.755 0.224 0.755s-0.542-0.318-0.755-0.118c-0.212 0.2-0.99 0.472-1.297 0.153 0 0 0.366-1.038 0.366-2.217s0-4.091 0-4.091 0.153-0.122 0.354-0.126c0.201-0.004 0.542-0.055 0.542-0.055z"/><path fill="#fff5e1" d="M24.98 21.173c0.024 0.149 0.086 0.259 0.055 0.314s-0.236 0.558-0.118 0.558 0.322-0.063 0.377-0.173c0.055-0.11 0.079-0.275 0.11-0.322s-0.055-0.283-0.126-0.322c-0.071-0.039-0.299-0.055-0.299-0.055z"/><path fill="#fff5e1" d="M23.62 15.27l-0.432 0.055c0 0 0.055-0.283 0.063-0.48s0.024-0.558 0.024-0.558 0.307-0.189 0.314-0.22c0.004-0.016 0.040-0.114 0.012-0.165s-0.122-0.055-0.122-0.055-0.362 0.189-0.362 0.22 0 0.22-0.039 0.291-0.259 0.66-0.275 0.818c-0.016 0.157-0.039 0.487 0.024 0.503s0.715 0.086 0.786 0.055c0.071-0.031 0.008-0.464 0.008-0.464z"/><path fill="#464655" d="M25.578 13.717h-1.573v-0.743h-0.542v0.743h-1.573v0.542h1.573v7.134h0.542v-7.134h1.573z"/><path fill="#963c3c" d="M24.649 14.68c0 0 0.527 0.152 0.597-0.024 0.083-0.204-0.193-0.232-0.244-0.448-0.006-0.024-0.055-0.314-0.267-0.369s-0.409 0-0.417 0.142c-0.008 0.142 0.33 0.7 0.33 0.7z"/><path fill="#fff5e1" d="M24.366 15.348c-0.015 0.003-0.039-0.157-0.008-0.354s0-0.259 0-0.259-0.22 0.024-0.22-0.063 0.047-0.487 0.181-0.692c0 0 0.094 0.118 0.267 0.118 0 0-0.008 0.142 0.086 0.236 0 0-0.118 0.102-0.063 0.173s0.157 0.157 0.157 0.157 0.008 0.165 0.134 0.275c0-0-0.157 0.346-0.535 0.409z"/><path fill="#464655" d="M22.212 18.759h0.047v0.935h-0.047v-0.935z"/><path fill="#464655" d="M22.402 18.579h0.047v1.298h-0.047v-1.298z"/><path fill="#464655" d="M22.592 18.414h0.047v1.628h-0.047v-1.628z"/><path fill="#464655" d="M22.782 18.177h0.047v2.101h-0.047v-2.101z"/><path fill="#464655" d="M22.972 17.867h0.047v2.72h-0.047v-2.72z"/><path fill="#464655" d="M23.161 17.867h0.047v2.847h-0.047v-2.847z"/><path fill="#ffe15a" d="M24.013 19.357c-0.208-1.084-0.786-1.714-0.99-1.745s-0.354 0.134-0.369 0.252-0.126 0.472-0.354 0.637c-0.228 0.165-0.652 0.259-0.747 0.566s0.157 0.44 0.307 0.409c0.011-0.002 0.022-0.007 0.033-0.010l1.607 1.977c0.058 0.072 0.172 0.060 0.213-0.023 0.165-0.337 0.479-1.137 0.301-2.061zM22.027 19.379c0.063-0.068 0.090-0.161 0.020-0.258-0.118-0.165-0.252 0.071-0.252 0.071s-0.039-0.204 0.267-0.307 0.652-0.275 0.81-0.645c0.157-0.369 0.149-0.299 0.149-0.299s0.629 0.354 0.715 1.462-0.22 1.556-0.22 1.556l-1.49-1.582z"/><path fill="#fff5e1" d="M23.462 16.986c-0.072 0.046-0.137 0.086-0.183 0.11-0.147 0.077-0.324 0.153-0.342 0.224s-0.118 0.13-0.112 0.212c0.006 0.083 0 0.33 0 0.33 0.088-0.018 0.265-0.047 0.324-0.153s0.112-0.313 0.301-0.401c0.003-0.002 0.008-0.003 0.012-0.005v-0.317h-0z"/><path fill="#fff5e1" d="M25.025 15.48c-0.088 0.041-0.354 0.36-0.395 0.507s-0.171 0.495-0.171 0.495-0.268 0.035-0.454 0.139v0.515c0.103-0.030 0.194-0.059 0.248-0.088 0.153-0.083 0.371-0.236 0.483-0.265s0.206-0.218 0.248-0.33c0.041-0.112 0.171-0.442 0.189-0.666s-0.059-0.348-0.147-0.307z"/><path fill="#f5f5f5" d="M23.793 23.107l-0.021-0.003c-4.213-0.665-4.262-4.315-4.262-4.47v-6.169h8.565v6.169c0 0.155-0.048 3.804-4.262 4.47l-0.021 0.003zM19.774 12.729v5.905c0 0.146 0.046 3.566 4.018 4.205 3.973-0.639 4.018-4.060 4.018-4.205v-5.905h-8.037z"/></svg>