<!-- Generated by IcoMoon.io -->
<svg version="1.1" xmlns="http://www.w3.org/2000/svg" width="32" height="32" viewBox="0 0 32 32">
<title>montenegro</title>
<path fill="#e6b432" d="M30.152 18.546l-0.001-5.093-0-1.698-0-2.655c-0-0.725-0.357-1.399-0.946-1.809-0.051-0.035-0.103-0.069-0.157-0.101l-11.948-6.895c-0.682-0.394-1.523-0.394-2.205 0l-11.945 6.899c-0.053 0.030-0.103 0.063-0.152 0.098-0.592 0.41-0.95 1.085-0.95 1.813l0 2.651 0 1.698 0.001 5.093 0 1.698 0 2.655c0 0.725 0.357 1.399 0.946 1.809 0.051 0.035 0.103 0.069 0.157 0.101l11.948 6.895c0.682 0.394 1.523 0.394 2.205-0l11.945-6.899c0.053-0.030 0.103-0.063 0.152-0.098 0.592-0.41 0.95-1.085 0.95-1.813l-0-2.651-0-1.698z"></path>
<path fill="#c8414b" d="M29.449 18.42l-0.001-4.84-0-1.613-0-2.523c-0-0.689-0.339-1.33-0.899-1.719-0.048-0.034-0.098-0.066-0.149-0.096l-11.354-6.553c-0.648-0.374-1.447-0.374-2.096 0l-11.352 6.556c-0.050 0.029-0.098 0.060-0.145 0.093-0.562 0.389-0.903 1.031-0.903 1.723l0 2.519 0 1.613 0.001 4.84 0 1.614 0 2.523c0 0.689 0.339 1.33 0.899 1.719 0.048 0.034 0.098 0.066 0.149 0.096l11.354 6.553c0.649 0.374 1.448 0.374 2.096-0l11.352-6.556c0.050-0.029 0.098-0.060 0.145-0.093 0.562-0.389 0.903-1.031 0.903-1.722l-0-2.519-0-1.614z"></path>
<path fill="#e6b432" d="M15.998 1.328c0.154 0 0.305 0.041 0.439 0.117l11.947 6.895c0.015 0.009 0.036 0.023 0.063 0.041 0.236 0.164 0.377 0.433 0.377 0.719l0 2.655 0 1.698 0.001 5.093 0 1.698 0 2.651c0 0.287-0.141 0.557-0.378 0.721-0.026 0.018-0.046 0.031-0.061 0.039l-11.945 6.899c-0.133 0.077-0.285 0.118-0.439 0.118s-0.305-0.041-0.439-0.117l-11.947-6.895c-0.015-0.009-0.036-0.023-0.063-0.041-0.236-0.164-0.377-0.433-0.377-0.719l-0-2.655-0-1.698-0.001-5.093-0-1.698-0-2.651c-0-0.287 0.141-0.557 0.378-0.721 0.026-0.018 0.046-0.031 0.061-0.039l11.945-6.899c0.133-0.077 0.285-0.118 0.439-0.118zM15.998 0c-0.381 0-0.762 0.099-1.103 0.296l-11.945 6.899c-0.053 0.030-0.103 0.063-0.152 0.098-0.592 0.41-0.95 1.085-0.95 1.813l0 2.651 0 1.698 0.001 5.093 0 1.698 0 2.655c0 0.725 0.357 1.399 0.946 1.809 0.051 0.035 0.103 0.069 0.157 0.101l11.948 6.895c0.341 0.197 0.722 0.295 1.102 0.295s0.762-0.099 1.103-0.296l11.945-6.899c0.053-0.030 0.103-0.063 0.152-0.098 0.592-0.41 0.95-1.085 0.95-1.813l-0-2.651-0-1.698-0.001-5.093-0-1.698-0-2.655c-0-0.725-0.357-1.399-0.946-1.809-0.051-0.035-0.103-0.069-0.157-0.101l-11.948-6.895c-0.341-0.197-0.722-0.295-1.102-0.295v0z"></path>
<path fill="#41479b" d="M22.077 19.919c0 0.525-0.426 0.951-0.951 0.951s-0.951-0.426-0.951-0.951c0-0.525 0.426-0.951 0.951-0.951s0.951 0.426 0.951 0.951z"></path>
<path fill="#e6b432" d="M22.795 14.46c-0.7 0.588-1.17 0.613-1.17 0.613 1.245-0.508 1.115-1.474 1.115-1.474-0.588 0.774-1.189 0.991-1.189 0.991 1.251-0.848 1.053-1.988 1.053-1.988-0.409 0.904-0.926 1.257-0.926 1.257 1.040-1.384 0.529-2.276 0.529-2.276-0.409 1.282-0.752 1.653-0.752 1.653 0.799-2.136 0.115-2.753 0.115-2.753 0 1.146-0.427 1.802-0.427 1.802 0.446-1.511-0.254-2.378-0.254-2.378s-0.007 1.232-0.244 1.877c-0.057-0.086-0.091-0.075-0.091-0.075-0.121 0.791-0.546 1.348-0.729 1.558-0.041-0.197-0.163-0.258-0.163-0.258s-0.022 0.194-0.196 0.479c-0.114 0.187-0.651 0.623-0.738 1.007-0.070 0.308 0.235 0.563 0.334 0.625s0.204 0.173 0.161 0.353-0.365 0.161-0.594 0.155c-0.229-0.006-0.26 0.372-0.514 0.359l-0.043 0.282-0.099 0.022c0 0-1.040 2.073-1.129 2.779l-0.766 0.101-0.766-0.101c-0.089-0.705-1.129-2.779-1.129-2.779l-0.099-0.022-0.043-0.282c-0.254 0.012-0.285-0.365-0.514-0.359s-0.551 0.025-0.595-0.155c-0.043-0.18 0.062-0.291 0.161-0.353s0.404-0.318 0.334-0.625c-0.087-0.384-0.624-0.82-0.738-1.007-0.174-0.286-0.196-0.479-0.196-0.479s-0.123 0.060-0.163 0.258c-0.184-0.21-0.609-0.767-0.729-1.558 0 0-0.034-0.011-0.091 0.075-0.237-0.645-0.244-1.877-0.244-1.877s-0.7 0.867-0.254 2.378c0 0-0.427-0.656-0.427-1.802 0 0-0.684 0.616 0.115 2.753 0 0-0.344-0.372-0.752-1.653 0 0-0.511 0.892 0.529 2.276 0 0-0.517-0.353-0.926-1.257 0 0-0.198 1.139 1.053 1.988 0 0-0.601-0.217-1.189-0.991 0 0-0.13 0.966 1.115 1.474 0 0-0.471-0.025-1.17-0.613 0 0-0.124 0.855 1.499 1.294 0 0-0.663-0.012-1.338-0.464 0 0-0.019 0.842 1.369 1.009 0 0-0.458 0.068-0.972-0.118 0 0 0.019 0.681 1.226 0.768 0 0-0.477 0.037-0.786-0.037 0 0 0.031 0.7 0.985 0.582 0 0-0.322 0.105-0.427 0.136 0 0 0.019 0.571 1.012 0.367 0 0-0.177 0.11-0.418 0.147 0 0 0.204 0.477 1.034 0.266l-0.17 0.186c0 0 0.641 0.372 1.133-0.139l-0.177 0.316c0 0 0.418 0.158 0.678-0.251 0 0-0.071 0.613-0.938 0.725 0 0 0.031 0.13 0.068 0.18 0 0-0.056 0.105-0.557 0.192 0 0 0.105 0.161 0.217 0.211 0 0-0.217 0.186-0.334 0.223 0 0 0.186 0.093 0.303 0.111 0 0-0.26 0.254-0.582 0.26s-0.898-0.031-0.898-0.031-0.006-0.31-0.155-0.576c-0.149-0.266-0.198-0.286-0.198-0.286s0.033-0.214-0.060-0.302c-0.093-0.088-0.144-0.13-0.144-0.13s0.050-0.427-0.087-0.694-0.619-0.848-0.644-1.282c-0.025-0.433-0.006-0.594-0.006-0.594l-0.149 0.037-0.099-0.204 0.167-0.019-0.068-0.31-0.229 0.087-0.031-0.266-0.272 0.111 0.136 0.242-0.242 0.068 0.142 0.285 0.186-0.118 0.050 0.248c0 0-0.111 0.025-0.173 0.124 0 0 0.306 0.203 0.396 0.446 0.142 0.384 0.099 1.251 0.303 1.511s0.365 0.44 0.365 0.44-0.057 0.177 0.008 0.274c0.065 0.098 0.158 0.125 0.158 0.125s-0.056 0.395 0.088 0.655c0.144 0.26 0.228 0.325 0.228 0.325s-0.525 0.32-0.153 0.692c0 0-0.050 0.337 0.303 0.418 0 0 0.019 0.266 0.322 0.235 0 0 0.149-0.043 0.186 0.031s0 0.502 0 0.502 0.136-0.012 0.223-0.074l0.273 0.136 0.006-0.303 0.341-0.136c0 0-0.149 0.025-0.452-0.26 0 0 0.050-0.031 0.087-0.273 0 0 0.242-0.192 0.291-0.347s0.39-0.495 0.786-0.607l0.054 0.241c0 0 0.567-0.502 0.803-0.529l0.195 0.257c0 0 0.731-1.084 1.053-1.276-0.025 0.087 0.155 0.099-0.245 0.545s-0.152 0.799-0.152 0.799c-0.248 0.204-0.198 0.39-0.229 0.601s-0.855 0.756-0.855 0.756c0.26 0.328 0.551 0.254 0.551 0.254-0.161 0.105-0.111 0.458-0.111 0.458 0.235 0.062 0.471-0.043 0.471-0.043-0.081 0.223 0.043 0.378 0.043 0.378 0.149-0.093 0.489-0.149 0.489-0.149-0.043 0.384 0.204 0.588 0.204 0.588l0.217-0.235c0.037 0.433 0.421 0.681 0.421 0.681s0.384-0.248 0.421-0.681l0.217 0.235c0 0 0.248-0.204 0.204-0.588 0 0 0.341 0.056 0.489 0.149 0 0 0.124-0.155 0.043-0.378 0 0 0.235 0.105 0.471 0.043 0 0 0.049-0.353-0.111-0.458 0 0 0.291 0.074 0.551-0.254 0 0-0.824-0.545-0.855-0.756s0.019-0.396-0.229-0.601c0 0 0.248-0.353-0.152-0.799s-0.22-0.458-0.245-0.545c0.322 0.192 1.053 1.276 1.053 1.276l0.195-0.257c0.237 0.028 0.803 0.529 0.803 0.529l0.054-0.241 0.010-0.011c0.295 0.159 0.783 0.374 0.981 0.525 0.211 0.161 0.384 0.173 0.892 0s1.453-0.44 1.313-0.756c-0.008-0.017-0.016-0.029-0.025-0.042 0.022-0.081 0.031-0.224-0.118-0.348 0 0 0.002 0.035 0.001 0.079l-0.484-0.18c-0.016-0.043-0.040-0.085-0.086-0.122 0 0 0.001 0.037-0.006 0.087l-0.124-0.046 0.248-0.697c-0.019-0.010-0.040-0.016-0.059-0.026 0.005-0.063 0.017-0.15 0.035-0.242 0.061 0.021 0.116 0.047 0.156 0.080l0.070-0.255c0 0-0.075-0.005-0.174-0.023 0.025-0.077 0.055-0.146 0.090-0.191l-0.328-0.099c0 0 0.009 0.099 0.003 0.224-0.063-0.025-0.122-0.058-0.171-0.099l-0.077 0.283c0.026 0.002 0.116 0.009 0.22 0.028-0.019 0.083-0.052 0.157-0.099 0.212-0.012-0.002-0.023-0.006-0.034-0.007l-0.241 0.677-0.653-0.243c-0.028 0.044-0.049 0.092-0.070 0.141 0.003-0.007 0.007-0.018 0.010-0.023 0 0-0.253 0.132-0.249 0.326-0.047 0.018-0.087 0.053-0.11 0.113-0.074 0.195 0.381 0.632 0.269 0.687-0.109 0.055-0.681-0.416-0.773-0.495 0.118-0.023 0.29-0.108 0.29-0.108-0.118-0.037-0.334-0.223-0.334-0.223 0.111-0.049 0.217-0.211 0.217-0.211-0.502-0.087-0.557-0.192-0.557-0.192 0.037-0.049 0.068-0.18 0.068-0.18-0.867-0.111-0.938-0.725-0.938-0.725 0.26 0.409 0.678 0.251 0.678 0.251l-0.177-0.316c0.492 0.511 1.133 0.139 1.133 0.139l-0.17-0.186c0.83 0.211 1.034-0.266 1.034-0.266-0.241-0.037-0.418-0.147-0.418-0.147 0.994 0.204 1.012-0.367 1.012-0.367-0.105-0.031-0.427-0.136-0.427-0.136 0.954 0.118 0.985-0.582 0.985-0.582-0.31 0.074-0.786 0.037-0.786 0.037 1.208-0.087 1.226-0.768 1.226-0.768-0.514 0.186-0.972 0.118-0.972 0.118 1.387-0.167 1.369-1.009 1.369-1.009-0.675 0.452-1.338 0.464-1.338 0.464 1.623-0.44 1.499-1.295 1.499-1.295zM21.388 20.586c-0.066-0.108 0.092-0.203 0.163-0.306l0.274 0.102c-0.093 0.111-0.369 0.314-0.437 0.204zM21.204 20.151c-0.089 0.138-0.151 0.293-0.425 0.3-0.344 0.009-0.399-0.297-0.474-0.465-0.022-0.049-0.059-0.086-0.102-0.111-0-0.030 0.001-0.063 0.004-0.096l0.997 0.372z"></path>
<path fill="#e6b432" d="M15.974 13.608c0 0-0.441-0.376-0.571-0.581 0 0 0.149-0.060 0.223-0.153 0 0-0.399-0.214-0.613-0.432 0 0 0.139-0.023 0.246-0.111 0 0-0.359-0.065-0.541-0.359 0.415-0.142 0.276-0.528 0.276-0.528-0.084 0.111-0.427 0.251-0.799 0.093s-0.78-0.046-0.78 0.158c0 0-0.836-0.242-0.627 0.567 0 0 0.135-0.302 0.432-0.19s0.599 0.492 0.599 0.492-0.186 0.102-0.529-0.009c0 0 0.139 0.534 0.766 0.265 0 0 0.248 0.133 0.26 0.523 0 0 0.105-0.056 0.173-0.18 0 0 0.099 0.378-0.031 0.687 0 0 0.173-0.031 0.229-0.087 0 0 0.050 0.328-0.167 0.595 0 0 0.952 0.454 1.556-0.043 0 0-0.228-0.26-0.302-0.502 0-0 0.125-0.051 0.2-0.204z"></path>
<path fill="#e6b432" d="M18.737 11.695c0-0.204-0.409-0.316-0.78-0.158s-0.715 0.019-0.799-0.093c0 0-0.139 0.387 0.276 0.528-0.182 0.294-0.541 0.359-0.541 0.359 0.107 0.088 0.246 0.111 0.246 0.111-0.214 0.218-0.613 0.432-0.613 0.432 0.074 0.093 0.223 0.153 0.223 0.153-0.13 0.204-0.571 0.581-0.571 0.581 0.074 0.153 0.2 0.204 0.2 0.204-0.074 0.242-0.302 0.502-0.302 0.502 0.604 0.497 1.556 0.043 1.556 0.043-0.217-0.266-0.167-0.595-0.167-0.595 0.056 0.056 0.229 0.087 0.229 0.087-0.13-0.31-0.031-0.687-0.031-0.687 0.068 0.124 0.173 0.18 0.173 0.18 0.012-0.39 0.26-0.523 0.26-0.523 0.627 0.269 0.766-0.265 0.766-0.265-0.344 0.111-0.529 0.009-0.529 0.009s0.302-0.381 0.599-0.492c0.297-0.111 0.432 0.19 0.432 0.19 0.209-0.808-0.627-0.566-0.627-0.566z"></path>
<path fill="#e6b432" d="M18.359 16.629c-0.082-0.475-0.152-0.885 0.053-1.354l0.038-0.088-0.811-0.931-0.096 0.032c-0.008 0.003-0.856 0.28-1.399 0.008l-0.068-0.034-0.068 0.034c-0.541 0.271-1.391-0.005-1.399-0.008l-0.096-0.032-0.811 0.931 0.038 0.088c0.205 0.47 0.134 0.88 0.053 1.354-0.077 0.448-0.164 0.956-0.011 1.576 0.166 0.673 0.727 0.912 1.221 1.123 0.381 0.163 0.741 0.316 0.944 0.639l0.128 0.203 0.128-0.203c0.203-0.322 0.563-0.476 0.944-0.639 0.494-0.211 1.055-0.45 1.221-1.123 0.154-0.62 0.067-1.128-0.010-1.576zM14.055 15.243l0.557-0.639c0.252 0.069 0.934 0.219 1.465-0.006 0.531 0.226 1.212 0.075 1.465 0.006l0.557 0.639c-0.195 0.515-0.119 0.963-0.037 1.437 0.061 0.355 0.121 0.72 0.070 1.141h-4.109c-0.051-0.421 0.010-0.786 0.070-1.141 0.081-0.474 0.158-0.922-0.037-1.437zM17.030 19.049c-0.344 0.147-0.699 0.298-0.953 0.585-0.255-0.287-0.609-0.438-0.953-0.585-0.483-0.206-0.9-0.387-1.038-0.893h3.982c-0.137 0.506-0.554 0.687-1.038 0.893z"></path>
<path fill="#41479b" d="M14.055 15.243l0.557-0.639c0.252 0.069 0.934 0.219 1.465-0.006 0.531 0.226 1.212 0.075 1.465 0.006l0.557 0.639c-0.195 0.515-0.119 0.963-0.037 1.437 0.061 0.355 0.121 0.72 0.070 1.141h-4.109c-0.051-0.421 0.010-0.786 0.070-1.141 0.081-0.474 0.158-0.922-0.037-1.437z"></path>
<path fill="#73af00" d="M14.064 18.067c0.005 0.022 0.008 0.043 0.013 0.065 0.13 0.526 0.555 0.707 1.046 0.917 0.344 0.147 0.699 0.298 0.953 0.585 0.255-0.287 0.609-0.438 0.953-0.585 0.491-0.21 0.916-0.391 1.046-0.917 0.005-0.022 0.009-0.043 0.013-0.065h-4.025z"></path>
<path fill="#e6b432" d="M17.894 16.311c0-0.274-0.26-0.317-0.497-0.313s-0.583-0.039-0.592-0.223c-0.005-0.115 0.187-0.125 0.313-0.085 0.073 0.023 0.526 0.104 0.668-0.199 0 0-0.166 0.005-0.34-0.034-0.135-0.030-0.687 0.039-0.787 0.252s0.221 0.426 0.59 0.426 0.42 0.074 0.417 0.164c-0.004 0.118-0.297 0.152-0.465 0.15-0.265-0.096-0.883-0.021-0.886-0.033-0.004-0.014-0.143-0.253-0.143-0.253s0.253-0.018 0.285-0.064c0.032-0.046-0.192-0.224-0.192-0.224s0.188-0.075 0.196-0.129c0.008-0.059-0.153-0.198-0.153-0.198s0.062-0.061 0.109-0.166c0.033-0.075-0.232-0.095-0.232-0.095 0.014-0.057 0.009-0.112-0.062-0.137-0.054-0.020-0.256 0.057-0.393 0.057s-0.189 0.099-0.189 0.099-0.241 0.028-0.275 0.057c-0.033 0.028 0.009 0.213 0.009 0.213-0.123-0.019-0.18-0.128-0.18-0.128-0.062 0.279 0.227 0.308 0.227 0.308l0.047 0.152c0 0 0 0 0.118 0.014s0.062 0.128-0.123 0.128-0.263 0.22-0.263 0.22c-0.128 0.004-0.2-0.1-0.228-0.232-0.031-0.145-0.013-0.368 0.011-0.51 0.028-0.171-0.057-0.221-0.057-0.221l-0.057 0.143c-0.004-0.146-0.132-0.16-0.132-0.16l-0.021 0.178c-0.064-0.118-0.175-0.064-0.175-0.064s0.107 0.385 0.103 0.406c-0.004 0.021-0.039 0.039-0.089-0.014s-0.085-0.018-0.085-0.018c0.053 0.385 0.26 0.328 0.26 0.328s0.009 0.121 0.072 0.365c0.067 0.261 0.34 0.212 0.34 0.212 0 0.085 0.066 0.208 0.085 0.492s-0.241 0.483-0.241 0.483c-0.237-0.005-0.213 0.227-0.213 0.227h0.653c0-0.604 0.26-0.708 0.26-0.708 0.385 0.018 0.756-0.143 0.756-0.143-0.057 0.232 0.043 0.328 0.043 0.328 0.157-0.021 0.078 0.289 0.032 0.289s-0.143 0-0.2 0-0.221 0.178-0.221 0.178h0.677c0 0 0.103-0.15 0.139-0.225s-0.078-0.178-0.085-0.257c-0.007-0.078 0.118-0.128 0.118-0.128 0.132 0.185 0.435 0.196 0.435 0.196l-0.007-0.139c0 0 0.157 0.053 0.192 0.1s0.029 0.26-0.16 0.285-0.203 0.16-0.203 0.16 0.431 0 0.517 0 0.153-0.16 0.153-0.221 0-0.456 0-0.542c0-0.085-0.071-0.075-0.239-0.093-0.152-0.016-0.138-0.183-0.2-0.376 0.22-0.007 0.56-0.055 0.56-0.282z"></path>
<path fill="#e6b432" d="M17.854 9.833c-0.042-0.374-0.34-0.85-1.475-1.073-0.004-0.121-0.078-0.223-0.184-0.266v-0.208h0.186v-0.223h-0.186v-0.186h-0.223v0.186h-0.186v0.223h0.186v0.208c-0.106 0.043-0.18 0.145-0.184 0.266-1.135 0.223-1.433 0.699-1.475 1.073-0.053 0.466 0.281 0.908 0.582 1.077v0.236h2.378v-0.236c0.301-0.169 0.635-0.611 0.582-1.077zM16.609 10.552h-0.333v-1.371c0.274 0.124 0.444 0.314 0.493 0.575 0.061 0.325-0.069 0.656-0.161 0.796zM15.397 9.756c0.049-0.261 0.219-0.451 0.493-0.575v1.371h-0.333c-0.092-0.139-0.222-0.471-0.161-0.796zM15.121 9.38c-0.055 0.11-0.089 0.219-0.107 0.32-0.054 0.304 0.008 0.614 0.11 0.853h-0.078c-0.167-0.115-0.381-0.397-0.349-0.676 0.022-0.195 0.17-0.362 0.425-0.497zM17.121 10.552h-0.078c0.102-0.239 0.164-0.548 0.11-0.853-0.018-0.101-0.053-0.21-0.107-0.32 0.255 0.134 0.403 0.302 0.425 0.497 0.032 0.279-0.183 0.561-0.349 0.676z"></path>
</svg>
