<!-- Generated by IcoMoon.io -->
<svg version="1.1" xmlns="http://www.w3.org/2000/svg" width="32" height="32" viewBox="0 0 32 32">
<title>morocco</title>
<path fill="#ff4b55" d="M1.849 22.9l-0.002-13.795c-0-0.788 0.42-1.516 1.102-1.91l11.945-6.899c0.682-0.394 1.523-0.394 2.205-0l11.948 6.895c0.682 0.394 1.103 1.122 1.103 1.91l0.002 13.795c0 0.788-0.42 1.516-1.102 1.91l-11.945 6.899c-0.682 0.394-1.523 0.394-2.205 0l-11.947-6.895c-0.683-0.394-1.103-1.122-1.103-1.91z"></path>
<path fill="#5a8250" d="M18.64 17.358l4.243-3.114h-5.255l-1.628-5.011-1.628 5.011h-5.255l4.243 3.114-1.616 4.973 4.251-3.039 0.004 0.003 0.004-0.003 4.251 3.039-1.616-4.973zM19.491 15.355l-1.213 0.89-0.289-0.89h1.502zM14.665 16.937l0.514-1.582h1.642l0.514 1.582-1.335 0.98-1.335-0.98zM16 12.828l0.46 1.416h-0.92l0.46-1.416zM12.509 15.355h1.502l-0.289 0.89-1.213-0.89zM13.844 19.464l0.46-1.414 0.749 0.55-1.209 0.864zM17.697 18.050l0.459 1.414-1.209-0.864 0.749-0.55z"></path>
</svg>
