<svg xmlns="http://www.w3.org/2000/svg" width="32" height="32" version="1.1" viewBox="0 0 32 32"><title>mozambique</title><path fill="#f5f5f5" d="M30.153 22.346l-0-0.564-0-0.509v-0.271l-0-0.758-0-1.698-0.001-5.093-0-1.698-0-1.076v-0.266l-0-1.314c-0-0.725-0.357-1.399-0.946-1.809-0.051-0.035-0.103-0.069-0.157-0.101l-11.948-6.895c-0.682-0.394-1.523-0.394-2.205 0l-11.945 6.899c-0.053 0.030-0.103 0.063-0.152 0.098-0.592 0.41-0.95 1.085-0.95 1.813l0 0.548 0 0.957v0.175l0 0.97 0 1.698 0.001 5.093 0 1.698 0 1.076v0.266l0 1.314c0 0.725 0.357 1.399 0.946 1.809 0.051 0.035 0.103 0.069 0.157 0.101l11.948 6.895c0.682 0.394 1.523 0.394 2.205-0l11.945-6.899c0.053-0.030 0.103-0.063 0.152-0.098 0.592-0.41 0.95-1.085 0.95-1.813l-0-0.549z"/><path fill="#5aa587" d="M8.885 9.653h21.265l-0-0.553c-0-0.725-0.357-1.399-0.946-1.809-0.051-0.035-0.103-0.069-0.157-0.101l-11.948-6.895c-0.682-0.394-1.523-0.394-2.205 0l-9.037 5.22 1.082 2.518 1.945 1.62z"/><path fill="#ffe15a" d="M30.153 22.346h-21.267l-1.945 1.542-1.083 2.597 9.043 5.219c0.682 0.394 1.523 0.394 2.205-0l11.945-6.899c0.053-0.030 0.103-0.063 0.152-0.098 0.592-0.41 0.95-1.085 0.95-1.813l-0-0.548z"/><path fill="#464655" d="M9.869 10.997v10.005h20.284l-0-0.758-0-1.698-0.001-5.093-0-1.698-0-0.758z"/><path fill="#ff4b55" d="M8.885 22.346l4.321-5.906c0.165-0.225 0.165-0.657 0-0.882l-7.349-10.044-2.908 1.68c-0.053 0.030-0.103 0.063-0.152 0.098-0.592 0.41-0.95 1.085-0.95 1.813l0 0.548 0 0.957 0 0.387 0 0.758 0 1.698 0.001 5.093 0 1.698 0 0.758v0.615l0 0.729 0 0.553c0 0.725 0.357 1.399 0.946 1.809 0.051 0.035 0.103 0.069 0.157 0.101l2.905 1.676 3.028-4.139z"/><path fill="#ffe15a" d="M6.588 12.658l0.741 2.221 2.341 0.018c0.131 0.001 0.185 0.168 0.080 0.246l-1.883 1.39 0.706 2.232c0.040 0.125-0.103 0.228-0.209 0.152l-1.904-1.361-1.904 1.361c-0.106 0.076-0.249-0.027-0.209-0.152l0.706-2.232-1.883-1.39c-0.105-0.078-0.051-0.245 0.080-0.246l2.341-0.018 0.741-2.221c0.041-0.124 0.217-0.124 0.258 0z"/><path fill="#f5f5f5" d="M6.323 16.782l-0.183 0.184h-1.531l0.418-1.533 0.171-0.085-0.274 1.367c-0.002 0.017 0.001 0.034 0.012 0.047 0.010 0.014 0.026 0.020 0.043 0.020l1.344-0z"/><path fill="#f5f5f5" d="M6.69 17.037c-0.066 0.049-0.147 0.078-0.231 0.078s-0.165-0.028-0.231-0.078l0.231-0.231 0.231 0.231z"/><path fill="#f5f5f5" d="M8.309 16.967h-1.531l-0.183-0.184h1.345c0.017 0 0.033-0.007 0.043-0.020 0.011-0.014 0.015-0.030 0.012-0.047l-0.274-1.367 0.171 0.085 0.418 1.533z"/><path fill="#f5f5f5" d="M7.871 16.67h-1.356v-1.398c0.227-0.192 0.826-0.061 1.079 0.018l0.276 1.38z"/><path fill="#f5f5f5" d="M6.403 15.272v1.398h-1.356l0.276-1.38c0.254-0.079 0.853-0.21 1.079-0.018z"/><path fill="#464655" d="M8.437 17.008l-0.444-1.629c-0.005-0.015-0.015-0.028-0.029-0.035l-0.297-0.148c-0.001-0.001-0.002-0.001-0.005-0.001-0.001 0-0.001-0.001-0.002-0.002-0.036-0.012-0.857-0.28-1.202-0.018-0.345-0.262-1.166 0.006-1.202 0.018-0.001 0.001-0.001 0.001-0.002 0.002-0.002 0-0.003 0-0.005 0.001l-0.297 0.148c-0.015 0.007-0.025 0.020-0.029 0.035l-0.444 1.629c-0.004 0.017-0.001 0.035 0.009 0.048 0.011 0.014 0.028 0.023 0.045 0.023h1.572c0.093 0.093 0.219 0.148 0.352 0.148s0.258-0.055 0.352-0.148h1.572c0.017 0 0.034-0.009 0.045-0.023s0.014-0.031 0.009-0.048zM6.515 15.272c0.227-0.192 0.826-0.061 1.079 0.018l0.276 1.38h-1.356v-1.398h0zM5.323 15.29c0.254-0.079 0.853-0.21 1.079-0.018v1.398h-1.356l0.276-1.38zM4.609 16.967l0.418-1.533 0.171-0.085-0.274 1.367c-0.002 0.017 0.001 0.034 0.012 0.047 0.010 0.014 0.026 0.020 0.043 0.020h1.345l-0.183 0.184-1.531-0zM6.459 17.115c-0.084 0-0.165-0.028-0.231-0.078l0.231-0.231 0.231 0.231c-0.066 0.049-0.147 0.078-0.231 0.078zM6.778 16.967l-0.183-0.184h1.345c0.017 0 0.033-0.007 0.043-0.020 0.011-0.014 0.015-0.030 0.012-0.047l-0.274-1.367 0.171 0.085 0.418 1.533-1.531 0z"/><path fill="#464655" d="M7.863 13.805c-0.057 0.040-0.135 0.033-0.184-0.016l-0.075-0.075v0.183l-0.457 0.457h-0.183l-0.731 0.731h-0.183l-1.407 1.407c-0.035 0.035-0.047 0.086-0.031 0.132l0.066 0.198-0.274 0.274h-0.183l-0.559 0.559c-0.045 0.045-0.045 0.117 0 0.162l0.369 0.369c0.053 0.053 0.141 0.050 0.19-0.007l0.823-0.991 0.091-0.274 0.183-0.183 0.366 0.549 0.274-0.274-0.293-0.439 0.073-0.073c0.071-0.071 0.071-0.186 0-0.257l-0.055-0.055 0.051-0.051c0.39 0.334 0.859 0.421 1.305 0.23l-0.153-0.357c-0.369 0.158-0.67 0.026-0.879-0.146l0.773-0.773-0.030-0.152 0.213-0.213h0.183l1.371-1.371-0.655 0.457z"/><path fill="#464655" d="M5.136 13.622l-0.183 0.183c-0.051 0.050-0.051 0.132 0 0.183l0.030 0.030-0.305 0.061-0.823 0.823 0.457 0.457 0.823-0.823 0.061-0.305 0.122 0.122 0.091-0.091 3.041 3.041 0.183-0.183-3.041-3.041 0.091-0.091-0.366-0.366c-0.051-0.050-0.132-0.050-0.183 0z"/></svg>