<!-- Generated by IcoMoon.io -->
<svg version="1.1" xmlns="http://www.w3.org/2000/svg" width="32" height="32" viewBox="0 0 32 32">
<title>myanmar</title>
<path fill="#ffe15a" d="M1.849 22.9l-0.002-13.795c-0-0.788 0.42-1.516 1.102-1.91l11.945-6.899c0.682-0.394 1.523-0.394 2.205-0l11.948 6.895c0.682 0.394 1.103 1.122 1.103 1.91l0.002 13.795c0 0.788-0.42 1.516-1.102 1.91l-11.945 6.899c-0.682 0.394-1.523 0.394-2.205 0l-11.947-6.895c-0.683-0.394-1.103-1.122-1.103-1.91z"></path>
<path fill="#ff4b55" d="M30.153 21.407l-14.153-1.19-14.151 1.19 0 1.487v0.006c0 0.591 0.237 1.148 0.643 1.556 0.135 0.136 0.29 0.255 0.46 0.354l11.948 6.895c0.682 0.394 1.523 0.394 2.205-0l11.945-6.899c0.171-0.099 0.325-0.218 0.46-0.354 0.068-0.068 0.131-0.14 0.189-0.216 0.29-0.379 0.454-0.848 0.454-1.34l-0-1.488z"></path>
<path fill="#73af00" d="M30.153 21.407l-0.002-10.814h-28.304l0.002 10.814z"></path>
<path fill="#f5f5f5" d="M16.414 6.855l2.177 6.528 6.881 0.053c0.42 0.003 0.594 0.539 0.256 0.788l-5.536 4.088 2.076 6.561c0.127 0.4-0.329 0.731-0.671 0.487l-5.599-4.002-5.599 4.002c-0.342 0.244-0.797-0.087-0.671-0.487l2.076-6.561-5.536-4.088c-0.338-0.249-0.164-0.785 0.256-0.788l6.881-0.053 2.177-6.528c0.133-0.398 0.696-0.398 0.829 0z"></path>
</svg>
