<!-- Generated by IcoMoon.io -->
<svg version="1.1" xmlns="http://www.w3.org/2000/svg" width="32" height="32" viewBox="0 0 32 32">
<title>namibia</title>
<path fill="#f5f5f5" d="M30.152 18.547l-0.001-5.093-0-1.698-0-2.655c-0-0.725-0.357-1.399-0.946-1.809-0.051-0.035-0.103-0.069-0.157-0.101l-11.947-6.895c-0.682-0.394-1.523-0.394-2.205 0l-11.945 6.899c-0.053 0.030-0.103 0.063-0.152 0.098-0.592 0.41-0.95 1.085-0.95 1.813l0 2.651 0 1.698 0.001 5.093 0 1.698 0 2.655c0 0.725 0.357 1.399 0.946 1.809 0.051 0.035 0.103 0.069 0.157 0.101l11.948 6.895c0.682 0.394 1.523 0.394 2.205-0l11.945-6.899c0.053-0.030 0.103-0.063 0.152-0.098 0.592-0.41 0.95-1.085 0.95-1.813l-0-2.651-0-1.698z"></path>
<path fill="#41479b" d="M19.124 1.464l-2.024-1.168c-0.682-0.394-1.523-0.394-2.205 0l-11.945 6.899c-0.053 0.030-0.103 0.063-0.152 0.098-0.592 0.41-0.95 1.085-0.95 1.813l0 2.651 0 1.698 0.001 3.68 20.807-13.632-3.531-2.038z"></path>
<path fill="#73af00" d="M12.876 30.536l2.024 1.168c0.682 0.394 1.523 0.394 2.205-0l11.945-6.899c0.053-0.030 0.103-0.063 0.152-0.098 0.592-0.41 0.95-1.085 0.95-1.813l-0-2.651-0-1.698-0.001-3.68-20.807 13.632 3.531 2.038z"></path>
<path fill="#ff4b55" d="M1.849 20.244l0 2.655c0 0.725 0.357 1.399 0.946 1.809 0.051 0.035 0.103 0.069 0.157 0.101l3.916 2.26 23.283-15.254v-0.060l-0-2.655c-0-0.725-0.357-1.399-0.946-1.809-0.051-0.035-0.103-0.069-0.157-0.101l-3.916-2.26-23.283 15.254v0.060z"></path>
<path fill="#ffe15a" d="M6.627 7.803c0.495 0 0.943 0.2 1.267 0.525l0.178-1.235-0.981 0.772-0.464-1.159-0.464 1.159-0.981-0.772 0.178 1.235c0.324-0.324 0.772-0.525 1.267-0.525z"></path>
<path fill="#ffe15a" d="M5.359 10.863c-0.324-0.324-0.525-0.772-0.525-1.267s0.2-0.943 0.525-1.267l-1.235-0.178 0.772 0.981-1.159 0.464 1.159 0.464-0.772 0.981 1.235-0.178z"></path>
<path fill="#ffe15a" d="M9.517 9.595l-1.159-0.464 0.772-0.981-1.235 0.178c0.324 0.324 0.525 0.772 0.525 1.267s-0.2 0.943-0.525 1.267l1.235 0.178-0.772-0.981 1.159-0.464z"></path>
<path fill="#ffe15a" d="M6.627 11.388c-0.495 0-0.943-0.2-1.267-0.525l-0.178 1.235 0.981-0.772 0.464 1.159 0.464-1.159 0.981 0.772-0.178-1.235c-0.324 0.324-0.772 0.525-1.267 0.525z"></path>
<path fill="#ffe15a" d="M8.092 9.596c0 0.808-0.655 1.464-1.464 1.464s-1.464-0.655-1.464-1.464c0-0.808 0.655-1.464 1.464-1.464s1.464 0.655 1.464 1.464z"></path>
</svg>
