<!-- Generated by IcoMoon.io -->
<svg version="1.1" xmlns="http://www.w3.org/2000/svg" width="32" height="32" viewBox="0 0 32 32">
<title>nato</title>
<path fill="#41479b" d="M30.152 18.547l-0.001-5.093-0-1.698-0-2.655c-0-0.725-0.357-1.399-0.946-1.809-0.051-0.035-0.103-0.069-0.157-0.101l-11.948-6.895c-0.682-0.394-1.523-0.394-2.205 0l-11.945 6.899c-0.053 0.030-0.103 0.063-0.152 0.098-0.592 0.41-0.95 1.085-0.95 1.813l0 2.651 0 1.698 0.001 5.093 0 1.698 0 2.655c0 0.725 0.357 1.399 0.946 1.809 0.051 0.035 0.103 0.069 0.157 0.101l11.948 6.895c0.682 0.394 1.523 0.394 2.205-0l11.945-6.899c0.053-0.030 0.103-0.063 0.152-0.098 0.592-0.41 0.95-1.085 0.95-1.813l-0-2.651-0-1.698z"></path>
<path fill="#f5f5f5" d="M22.666 15.852l-1.74-0.387c-0.25-2.331-2.101-4.181-4.432-4.431l-0.387-1.741c-0.031-0.139-0.265-0.139-0.296 0l-0.386 1.737c-2.332 0.249-4.183 2.103-4.433 4.435l-1.74 0.387c-0.069 0.015-0.119 0.077-0.119 0.148s0.049 0.133 0.119 0.148l1.74 0.387c0.25 2.331 2.101 4.183 4.432 4.433l0.386 1.739c0.015 0.069 0.077 0.119 0.148 0.119s0.133-0.049 0.148-0.119l0.387-1.742c2.331-0.25 4.182-2.099 4.432-4.43l1.74-0.387c0.069-0.015 0.119-0.077 0.119-0.148s-0.049-0.133-0.119-0.148zM20.619 15.397l-3.319-0.738-0.737-3.317c2.11 0.272 3.784 1.944 4.056 4.055zM15.356 11.341l-0.737 3.318-3.318 0.737c0.272-2.11 1.945-3.783 4.055-4.055zM14.697 14.953l1.047 1.047h-5.76l4.713-1.047zM11.301 16.603l3.318 0.737 0.737 3.319c-2.11-0.272-3.783-1.946-4.055-4.056zM15.959 21.975l-1.047-4.713 1.047-1.047v5.76zM15.959 15.785v-5.76l1.047 4.713-1.047 1.047zM16.563 20.655l0.737-3.315 3.319-0.738c-0.272 2.11-1.946 3.78-4.056 4.052zM17.221 17.047l-1.047-1.047h5.76l-4.713 1.047z"></path>
<path fill="#f5f5f5" d="M29.218 16.151h-5.426c-0.054 0-0.097-0.068-0.097-0.152s0.043-0.152 0.097-0.152h5.426c0.054 0 0.097 0.068 0.097 0.152s-0.043 0.152-0.097 0.152z"></path>
<path fill="#f5f5f5" d="M8.208 16.151h-5.426c-0.054 0-0.097-0.068-0.097-0.152s0.043-0.152 0.097-0.152h5.426c0.054 0 0.097 0.068 0.097 0.152s-0.043 0.152-0.097 0.152z"></path>
<path fill="#f5f5f5" d="M15.959 8.264c-0.084 0-0.152-0.068-0.152-0.152v-2.427c0-0.084 0.068-0.152 0.152-0.152s0.152 0.068 0.152 0.152v2.427c0 0.084-0.068 0.152-0.152 0.152z"></path>
<path fill="#f5f5f5" d="M15.959 26.466c-0.084 0-0.152-0.068-0.152-0.152v-2.427c0-0.084 0.068-0.152 0.152-0.152s0.152 0.068 0.152 0.152v2.427c0 0.084-0.068 0.152-0.152 0.152z"></path>
</svg>
