<!-- Generated by IcoMoon.io -->
<svg version="1.1" xmlns="http://www.w3.org/2000/svg" width="32" height="32" viewBox="0 0 32 32">
<title>nepal</title>
<path fill="#f5f5f5" d="M1.849 22.9l-0.002-13.795c-0-0.788 0.42-1.516 1.102-1.91l11.945-6.899c0.682-0.394 1.523-0.394 2.205-0l11.948 6.895c0.682 0.394 1.103 1.122 1.103 1.91l0.002 13.795c0 0.788-0.42 1.516-1.102 1.91l-11.945 6.899c-0.682 0.394-1.523 0.394-2.205 0l-11.947-6.895c-0.682-0.394-1.103-1.122-1.103-1.91z"></path>
<path fill="#41479b" d="M9.41 16h14.635l-16.043-11.723-5.053 2.918c-0.043 0.025-0.085 0.051-0.125 0.078-0.608 0.408-0.977 1.094-0.977 1.832l0.002 13.795c0 0.737 0.368 1.422 0.975 1.83 0.042 0.028 0.084 0.055 0.128 0.080l11.948 6.895c0.341 0.197 0.722 0.295 1.102 0.295s0.762-0.099 1.103-0.296l4.206-2.429-11.902-13.275z"></path>
<path fill="#ff4b55" d="M8.578 16.746l-1.67-1.862h13.715l-12.644-9.24-4.444 2.566c-0.319 0.184-0.517 0.527-0.517 0.895l0.002 13.795c0 0.368 0.198 0.711 0.517 0.895l11.948 6.895c0.157 0.091 0.336 0.138 0.517 0.138s0.36-0.048 0.517-0.139l3.005-1.735-10.946-12.209z"></path>
<path fill="#f5f5f5" d="M8.164 19.322l0.45 0.929 0.854-0.579c0.038-0.026 0.088 0.004 0.085 0.049l-0.075 1.029 1.030-0.075c0.045-0.003 0.075 0.047 0.049 0.085l-0.579 0.854 0.929 0.45c0.041 0.020 0.041 0.078 0 0.098l-0.929 0.45 0.579 0.854c0.026 0.038-0.004 0.088-0.049 0.085l-1.030-0.075 0.075 1.029c0.003 0.045-0.047 0.075-0.085 0.049l-0.854-0.579-0.45 0.929c-0.020 0.041-0.078 0.041-0.098 0l-0.45-0.929-0.854 0.579c-0.038 0.026-0.088-0.004-0.085-0.049l0.075-1.029-1.030 0.075c-0.045 0.003-0.075-0.047-0.049-0.085l0.579-0.854-0.929-0.45c-0.041-0.020-0.041-0.078 0-0.098l0.929-0.45-0.579-0.854c-0.026-0.038 0.004-0.088 0.049-0.085l1.030 0.075-0.075-1.029c-0.003-0.045 0.047-0.075 0.085-0.049l0.854 0.579 0.45-0.929c0.020-0.041 0.078-0.041 0.098 0z"></path>
<path fill="#f5f5f5" d="M9.332 11.272l-0.391-0.267 0.344-0.361-0.49-0.089 0.168-0.469-0.484 0.118-0.038-0.497-0.395 0.304-0.237-0.439-0.237 0.439-0.394-0.304-0.038 0.497-0.484-0.118 0.168 0.469-0.49 0.089 0.344 0.361-0.391 0.267c-0.493-0.23-0.927-0.567-1.268-0.983 0.229 1.335 1.389 2.352 2.79 2.352s2.561-1.017 2.79-2.352c-0.341 0.416-0.775 0.752-1.268 0.983z"></path>
</svg>
