<svg xmlns="http://www.w3.org/2000/svg" width="32" height="32" version="1.1" viewBox="0 0 32 32"><title>netherlands</title><path fill="#f5f5f5" d="M30.153 21.363l-0.002-10.726-0-1.537c-0-0.788-0.421-1.516-1.103-1.91l-11.948-6.895c-0.682-0.394-1.523-0.394-2.205 0l-11.945 6.899c-0.682 0.394-1.103 1.122-1.102 1.91l0 1.532 0.002 10.726 0 1.537c0 0.788 0.421 1.516 1.103 1.91l11.948 6.895c0.682 0.394 1.523 0.394 2.205-0l11.945-6.899c0.682-0.394 1.102-1.122 1.102-1.91l-0-1.532z"/><path fill="#41479b" d="M1.849 22.9c0 0.788 0.421 1.516 1.103 1.91l11.948 6.895c0.682 0.394 1.523 0.394 2.205-0l11.945-6.899c0.682-0.394 1.102-1.122 1.102-1.91l-0-1.532h-28.304l0 1.537z"/><path fill="#ff4b55" d="M30.151 9.1c-0-0.788-0.421-1.516-1.103-1.91l-11.948-6.895c-0.682-0.394-1.523-0.394-2.205 0l-11.945 6.899c-0.682 0.394-1.103 1.122-1.102 1.91l0 1.532h28.304l-0-1.537z"/></svg>