<!-- Generated by IcoMoon.io -->
<svg version="1.1" xmlns="http://www.w3.org/2000/svg" width="32" height="32" viewBox="0 0 32 32">
<title>new-zealand</title>
<path fill="#f5f5f5" d="M1.849 22.9l-0.002-13.795c-0-0.788 0.42-1.516 1.102-1.91l11.945-6.899c0.682-0.394 1.523-0.394 2.205-0l11.948 6.895c0.683 0.394 1.103 1.122 1.103 1.91l0.002 13.795c0 0.788-0.42 1.516-1.102 1.91l-11.945 6.899c-0.682 0.394-1.523 0.394-2.205 0l-11.947-6.895c-0.683-0.394-1.103-1.122-1.103-1.91z"></path>
<path fill="#ff4b55" d="M2.585 7.459v8.552l1.231 0.457 1.382-0.457v-10.115l-2.249 1.299c-0.132 0.076-0.253 0.165-0.364 0.264z"></path>
<path fill="#ff4b55" d="M6.048 5.405h9.952l0.234-2.058-0.234-2.125h-2.71z"></path>
<path fill="#ff4b55" d="M6.751 6.799l8.754 9.095c0.002-0.001 0.004-0.003 0.005-0.004 0.004-0.003 0.008-0.007 0.011-0.010 0.028-0.021 0.478-0.424 0.478-0.427 0.010-0.229-0.005-0.639-0.003-0.699 0-0.004 0.001-0.007 0.001-0.011l-7.647-7.944-1.6-0z"></path>
<path fill="#41479b" d="M30.151 9.1c-0-0.788-0.421-1.516-1.103-1.91l-11.948-6.895c-0.34-0.196-0.72-0.295-1.1-0.295v6.655h-6.636l6.636 6.959v1.060c0 0.023-0.001 0.046-0.002 0.069v0c-0 0.004-0.001 0.007-0.001 0.011-0.002 0.060-0.007 0.119-0.014 0.177-0.001 0.009-0.003 0.017-0.004 0.026-0.032 0.234-0.101 0.446-0.198 0.616-0.001 0.002-0.003 0.005-0.004 0.007-0.050 0.086-0.107 0.162-0.169 0.225-0.002 0.002-0.004 0.004-0.006 0.006-0.026 0.025-0.053 0.048-0.081 0.069-0.004 0.003-0.008 0.006-0.011 0.010-0.002 0.001-0.004 0.003-0.005 0.004v0c-0.104 0.075-0.219 0.117-0.34 0.117h-1.451l-7.735-8.111v8.111h-4.131l0.001 6.889c0 0.788 0.421 1.516 1.103 1.91l11.948 6.895c0.682 0.394 1.523 0.394 2.205-0l11.945-6.899c0.682-0.394 1.102-1.122 1.102-1.91l-0.002-13.795z"></path>
<path fill="#ff4b55" d="M23.602 25.182c-0.023 0-0.046-0.007-0.065-0.021l-0.662-0.473-0.662 0.473c-0.019 0.014-0.042 0.021-0.065 0.021s-0.046-0.007-0.066-0.021c-0.039-0.028-0.055-0.079-0.041-0.125l0.245-0.775-0.654-0.483c-0.039-0.029-0.055-0.079-0.040-0.125s0.057-0.077 0.106-0.078l0.813-0.007 0.257-0.771c0.015-0.045 0.058-0.076 0.106-0.076s0.091 0.031 0.106 0.076l0.257 0.771 0.813 0.007c0.048 0.001 0.091 0.032 0.106 0.078s-0.001 0.096-0.040 0.125l-0.654 0.483 0.245 0.775c0.014 0.046-0.002 0.096-0.041 0.125-0.020 0.014-0.043 0.021-0.066 0.021z"></path>
<path fill="#f5f5f5" d="M22.875 22.834l0.283 0.847 0.893 0.007-0.718 0.531 0.269 0.852-0.727-0.519-0.727 0.519 0.269-0.852-0.718-0.531 0.893-0.007 0.283-0.847zM22.875 22.61c-0.096 0-0.182 0.062-0.212 0.153l-0.232 0.696-0.733 0.006c-0.096 0.001-0.181 0.063-0.211 0.154s0.002 0.192 0.080 0.249l0.59 0.436-0.221 0.699c-0.029 0.092 0.004 0.192 0.082 0.248 0.039 0.028 0.085 0.043 0.131 0.043s0.091-0.014 0.13-0.042l0.597-0.426 0.597 0.426c0.039 0.028 0.084 0.042 0.13 0.042s0.092-0.014 0.131-0.043c0.078-0.057 0.111-0.157 0.082-0.248l-0.221-0.699 0.59-0.436c0.077-0.057 0.11-0.157 0.080-0.249s-0.115-0.154-0.211-0.154l-0.733-0.006-0.232-0.696c-0.031-0.091-0.116-0.153-0.212-0.153v0z"></path>
<path fill="#ff4b55" d="M23.602 16.169c-0.023 0-0.046-0.007-0.065-0.021l-0.662-0.473-0.662 0.473c-0.019 0.014-0.042 0.021-0.065 0.021s-0.046-0.007-0.066-0.021c-0.039-0.028-0.055-0.079-0.041-0.125l0.245-0.775-0.654-0.483c-0.039-0.029-0.055-0.079-0.040-0.124s0.058-0.077 0.106-0.078l0.813-0.006 0.257-0.771c0.015-0.045 0.058-0.076 0.106-0.076s0.091 0.031 0.106 0.076l0.257 0.771 0.813 0.006c0.048 0.001 0.091 0.032 0.106 0.078s-0.001 0.095-0.040 0.124l-0.654 0.483 0.245 0.775c0.014 0.046-0.002 0.096-0.041 0.125-0.020 0.014-0.043 0.021-0.066 0.021z"></path>
<path fill="#f5f5f5" d="M22.875 13.82l0.283 0.847 0.893 0.007-0.718 0.531 0.269 0.852-0.727-0.519-0.727 0.519 0.269-0.852-0.718-0.531 0.893-0.007 0.283-0.847zM22.875 13.597c-0.096 0-0.182 0.062-0.212 0.153l-0.232 0.696-0.733 0.006c-0.096 0.001-0.181 0.063-0.211 0.155s0.002 0.192 0.080 0.249l0.59 0.436-0.221 0.699c-0.029 0.092 0.004 0.192 0.082 0.248 0.039 0.028 0.085 0.043 0.131 0.043s0.091-0.014 0.13-0.042l0.597-0.426 0.597 0.426c0.039 0.028 0.084 0.042 0.13 0.042s0.092-0.014 0.131-0.043c0.078-0.057 0.111-0.157 0.082-0.248l-0.221-0.699 0.59-0.436c0.077-0.057 0.11-0.157 0.080-0.249s-0.115-0.154-0.211-0.155l-0.733-0.006-0.232-0.696c-0.031-0.091-0.116-0.153-0.212-0.153v0z"></path>
<path fill="#ff4b55" d="M27.515 18.964c-0.023 0-0.046-0.007-0.065-0.021l-0.662-0.473-0.662 0.473c-0.019 0.014-0.042 0.021-0.065 0.021s-0.046-0.007-0.066-0.021c-0.039-0.028-0.055-0.079-0.041-0.125l0.245-0.775-0.654-0.483c-0.039-0.029-0.055-0.079-0.040-0.125s0.058-0.077 0.106-0.078l0.813-0.006 0.257-0.771c0.015-0.045 0.058-0.076 0.106-0.076s0.091 0.031 0.106 0.076l0.257 0.771 0.813 0.006c0.048 0.001 0.091 0.032 0.106 0.078s-0.001 0.096-0.040 0.125l-0.654 0.483 0.245 0.775c0.014 0.046-0.002 0.096-0.041 0.125-0.020 0.014-0.043 0.021-0.066 0.021z"></path>
<path fill="#f5f5f5" d="M26.788 16.616l0.283 0.847 0.893 0.007-0.718 0.531 0.269 0.852-0.727-0.519-0.727 0.519 0.269-0.852-0.718-0.531 0.893-0.007 0.283-0.847zM26.788 16.392c-0.096 0-0.182 0.062-0.212 0.153l-0.232 0.696-0.733 0.006c-0.096 0.001-0.181 0.063-0.211 0.154s0.002 0.192 0.080 0.249l0.59 0.436-0.221 0.699c-0.029 0.092 0.004 0.192 0.082 0.248 0.039 0.028 0.085 0.043 0.131 0.043s0.091-0.014 0.13-0.042l0.597-0.426 0.597 0.426c0.039 0.028 0.084 0.042 0.13 0.042s0.092-0.014 0.131-0.043c0.078-0.057 0.111-0.157 0.082-0.248l-0.221-0.699 0.59-0.436c0.077-0.057 0.11-0.157 0.080-0.249s-0.115-0.154-0.211-0.154l-0.733-0.006-0.232-0.696c-0.031-0.091-0.116-0.153-0.212-0.153v0z"></path>
<path fill="#ff4b55" d="M19.688 20.082c-0.023 0-0.046-0.007-0.065-0.021l-0.662-0.473-0.662 0.473c-0.019 0.014-0.042 0.021-0.065 0.021s-0.046-0.007-0.066-0.021c-0.039-0.028-0.055-0.079-0.041-0.125l0.245-0.775-0.654-0.483c-0.039-0.029-0.055-0.079-0.040-0.125s0.058-0.077 0.106-0.078l0.813-0.006 0.257-0.771c0.015-0.045 0.058-0.076 0.106-0.076s0.091 0.031 0.106 0.076l0.257 0.771 0.813 0.006c0.048 0.001 0.091 0.032 0.106 0.078s-0.001 0.096-0.040 0.125l-0.654 0.483 0.245 0.775c0.014 0.046-0.002 0.096-0.041 0.125-0.020 0.014-0.043 0.021-0.066 0.021z"></path>
<path fill="#f5f5f5" d="M18.961 17.734l0.283 0.847 0.893 0.007-0.718 0.531 0.269 0.852-0.727-0.519-0.727 0.519 0.269-0.852-0.718-0.531 0.893-0.007 0.283-0.847zM18.961 17.51c-0.096 0-0.182 0.062-0.212 0.153l-0.232 0.696-0.733 0.006c-0.096 0.001-0.181 0.063-0.211 0.154s0.002 0.192 0.080 0.249l0.59 0.436-0.221 0.699c-0.029 0.092 0.004 0.192 0.082 0.248 0.039 0.028 0.085 0.043 0.131 0.043s0.091-0.014 0.13-0.042l0.597-0.426 0.597 0.426c0.039 0.028 0.084 0.042 0.13 0.042s0.092-0.014 0.131-0.043c0.078-0.057 0.111-0.157 0.082-0.248l-0.221-0.699 0.59-0.436c0.077-0.057 0.11-0.157 0.080-0.249s-0.115-0.154-0.211-0.154l-0.733-0.006-0.232-0.696c-0.031-0.091-0.116-0.153-0.212-0.153v0z"></path>
</svg>
