<!-- Generated by IcoMoon.io -->
<svg version="1.1" xmlns="http://www.w3.org/2000/svg" width="32" height="32" viewBox="0 0 32 32">
<title>nicaragua</title>
<path fill="#f5f5f5" d="M1.849 22.9l-0.002-13.795c-0-0.788 0.42-1.516 1.102-1.91l11.945-6.899c0.682-0.394 1.523-0.394 2.205-0l11.948 6.895c0.682 0.394 1.103 1.122 1.103 1.91l0.002 13.795c0 0.788-0.42 1.516-1.102 1.91l-11.945 6.899c-0.682 0.394-1.523 0.394-2.205 0l-11.947-6.895c-0.682-0.394-1.103-1.122-1.103-1.91z"></path>
<path fill="#41479b" d="M30.151 9.1c-0-0.788-0.421-1.516-1.103-1.91l-11.948-6.895c-0.682-0.394-1.523-0.394-2.205 0l-11.945 6.899c-0.682 0.394-1.103 1.122-1.102 1.91l0 1.437h28.304l-0-1.441z"></path>
<path fill="#41479b" d="M1.849 22.9c0 0.788 0.421 1.516 1.103 1.91l11.948 6.895c0.682 0.394 1.523 0.394 2.205-0l11.945-6.899c0.682-0.394 1.102-1.122 1.102-1.91l-0-1.437h-28.304l0 1.441z"></path>
<path fill="#afebff" d="M16 12.844l-2.629 3.866h5.258z"></path>
<path fill="#557de6" d="M13.371 16.71l-1.701 2.474h8.66l-1.701-2.474z"></path>
<path fill="#73af00" d="M16.673 16.494c0.010-0.022 0.021-0.043 0.031-0.065-0.009 0.022-0.020 0.043-0.031 0.065z"></path>
<path fill="#73af00" d="M16.745 16.316c0.006-0.019 0.014-0.038 0.020-0.058-0.005 0.020-0.013 0.039-0.020 0.058z"></path>
<path fill="#73af00" d="M16.583 16.656c0.013-0.021 0.026-0.042 0.039-0.064-0.012 0.022-0.026 0.043-0.039 0.064z"></path>
<path fill="#73af00" d="M16.985 15.936c-0.023 0-0.046 0.004-0.067 0.011 0.021-0.007 0.043-0.011 0.067-0.011v0z"></path>
<path fill="#73af00" d="M16.862 15.977c-0.033 0.025-0.055 0.061-0.060 0.102v0c0.005-0.041 0.027-0.076 0.060-0.102z"></path>
<path fill="#73af00" d="M16.782 17.131c0.037 0.035 0.073 0.068 0.11 0.1 0.196-0.17 0.401-0.386 0.545-0.638-0.010 0.018-0.021 0.036-0.032 0.053-0.134-0.247-0.205-0.46-0.239-0.587-0.020-0.072-0.094-0.123-0.18-0.123 0.033 0.288 0.104 0.818-0.203 1.194z"></path>
<path fill="#73af00" d="M17.56 16.316c0.006-0.019 0.014-0.038 0.020-0.058-0.005 0.020-0.013 0.039-0.020 0.058z"></path>
<path fill="#73af00" d="M17.677 15.977c-0.033 0.025-0.055 0.061-0.060 0.102v0c0.005-0.041 0.027-0.076 0.060-0.102z"></path>
<path fill="#73af00" d="M17.488 16.494c0.010-0.022 0.021-0.043 0.031-0.065-0.009 0.022-0.020 0.043-0.031 0.065z"></path>
<path fill="#73af00" d="M19.157 17.329c-0.298 0-0.58-0.143-0.752-0.386-0.259-0.367-0.377-0.708-0.425-0.884-0.020-0.072-0.095-0.123-0.18-0.123l0 0c0.039 0.344 0.133 1.033-0.427 1.393h-0.364c-0.015-0.012-0.029-0.023-0.045-0.036 0 0 0.001 0.001 0.001 0.001-0.102 0.133-0.306 0.17-0.464 0.089-0.662-0.341-0.559-1.085-0.518-1.447-0.085 0-0.16 0.050-0.18 0.123-0.034 0.127-0.105 0.34-0.239 0.587-0.011-0.018-0.022-0.035-0.032-0.053 0.162 0.284 0.402 0.524 0.618 0.701-0.102 0.133-0.306 0.17-0.464 0.089-0.662-0.341-0.559-1.085-0.518-1.447-0.085 0-0.16 0.050-0.18 0.123-0.034 0.127-0.105 0.34-0.239 0.587-0.011-0.018-0.022-0.035-0.032-0.053 0.162 0.284 0.402 0.524 0.618 0.701-0.102 0.133-0.306 0.17-0.464 0.089-0.662-0.341-0.559-1.085-0.518-1.447l0-0c-0.085 0-0.161 0.050-0.18 0.123-0.048 0.175-0.165 0.517-0.425 0.884-0.172 0.243-0.454 0.386-0.752 0.386h-0.245v0.309h6.495v-0.309l-0.090 0z"></path>
<path fill="#73af00" d="M16.266 16.429c0.009 0.022 0.020 0.043 0.031 0.065-0.011-0.021-0.021-0.043-0.031-0.065z"></path>
<path fill="#73af00" d="M16.205 16.258c0.006 0.020 0.013 0.039 0.020 0.058-0.006-0.019-0.014-0.038-0.020-0.058z"></path>
<path fill="#73af00" d="M16.168 16.079l-0-0c-0.005-0.041-0.027-0.076-0.060-0.102 0.033 0.025 0.055 0.061 0.060 0.102l0 0z"></path>
<path fill="#73af00" d="M16.347 16.593c0.012 0.022 0.026 0.043 0.039 0.064-0.013-0.021-0.026-0.042-0.039-0.064z"></path>
<path fill="#73af00" d="M16.49 16.807c-0.002-0.002-0.003-0.004-0.005-0.006 0.013-0.018 0.026-0.035 0.039-0.054-0.013 0.018-0.026 0.036-0.039 0.053-0.013-0.018-0.026-0.035-0.039-0.053 0.014 0.020 0.029 0.040 0.044 0.060z"></path>
<path fill="#73af00" d="M16.558 16.893c0.015 0.018 0.030 0.036 0.045 0.054-0.015-0.017-0.030-0.036-0.045-0.054z"></path>
<path fill="#73af00" d="M16.723 17.074c-0.014-0.014-0.029-0.030-0.043-0.044 0.014 0.015 0.028 0.030 0.043 0.044z"></path>
<path fill="#ffe15a" d="M17.8 15.936l-0-0c-0.047 0-0.090 0.015-0.123 0.041s-0.055 0.061-0.060 0.102l-0 0c-0.008 0.061-0.021 0.12-0.037 0.179-0.006 0.020-0.013 0.039-0.020 0.058-0.013 0.038-0.026 0.076-0.041 0.113-0.009 0.022-0.020 0.043-0.031 0.065-0.016 0.033-0.032 0.066-0.051 0.098-0.144 0.253-0.349 0.468-0.545 0.638-0.037-0.032-0.073-0.065-0.11-0.1 0.307-0.376 0.236-0.906 0.203-1.195l-0-0c-0.023 0-0.046 0.004-0.067 0.011s-0.040 0.017-0.056 0.030c-0.033 0.025-0.055 0.061-0.060 0.102l-0 0c-0.008 0.061-0.021 0.12-0.037 0.179-0.006 0.020-0.013 0.039-0.020 0.058-0.013 0.038-0.026 0.076-0.041 0.113-0.009 0.022-0.020 0.043-0.031 0.065-0.016 0.033-0.032 0.066-0.051 0.098-0.012 0.022-0.026 0.043-0.039 0.064-0.019 0.031-0.039 0.061-0.059 0.090-0.013 0.018-0.025 0.036-0.039 0.054-0.013-0.018-0.026-0.035-0.039-0.054-0.021-0.029-0.040-0.060-0.059-0.090-0.013-0.021-0.026-0.042-0.039-0.064-0.018-0.032-0.035-0.065-0.051-0.098-0.010-0.022-0.021-0.043-0.031-0.065-0.016-0.037-0.029-0.075-0.041-0.113-0.006-0.019-0.014-0.038-0.020-0.058-0.016-0.058-0.029-0.118-0.037-0.179l-0-0c-0.005-0.041-0.027-0.076-0.060-0.102s-0.076-0.041-0.123-0.041l-0 0c-0.041 0.362-0.144 1.106 0.518 1.447 0.112 0.058 0.245 0.055 0.351 0.002 0.067-0.034 0.139-0.056 0.214-0.056h0.307c0.559-0.36 0.466-1.049 0.427-1.393z"></path>
<path fill="#73af00" d="M15.39 16.258c0.006 0.020 0.013 0.039 0.020 0.058-0.006-0.019-0.014-0.038-0.020-0.058z"></path>
<path fill="#73af00" d="M15.353 16.079l-0-0c-0.005-0.041-0.027-0.076-0.060-0.102 0.033 0.025 0.055 0.061 0.060 0.102l0 0z"></path>
<path fill="#73af00" d="M15.451 16.429c0.009 0.022 0.020 0.043 0.031 0.065-0.010-0.021-0.021-0.043-0.031-0.065z"></path>
<path fill="#73af00" d="M15.169 15.936v0c0.024 0 0.046 0.004 0.067 0.011-0.021-0.007-0.043-0.011-0.067-0.011z"></path>
<path fill="#ffe15a" d="M15.687 17.383c0.158 0.081 0.362 0.044 0.464-0.089-0.217-0.178-0.457-0.417-0.618-0.701-0.018-0.032-0.035-0.065-0.051-0.098-0.010-0.022-0.021-0.043-0.031-0.065-0.016-0.037-0.029-0.075-0.041-0.113-0.006-0.019-0.014-0.038-0.020-0.058-0.016-0.058-0.029-0.118-0.037-0.179l-0-0c-0.005-0.041-0.027-0.076-0.060-0.102-0.016-0.013-0.035-0.023-0.056-0.030s-0.043-0.011-0.067-0.011v0l-0 0c-0.041 0.362-0.144 1.106 0.518 1.447z"></path>
<path fill="#73af00" d="M14.575 16.258c0.006 0.020 0.013 0.039 0.020 0.058-0.006-0.019-0.014-0.038-0.020-0.058z"></path>
<path fill="#73af00" d="M14.636 16.429c0.009 0.022 0.020 0.043 0.031 0.065-0.010-0.021-0.021-0.043-0.031-0.065z"></path>
<path fill="#73af00" d="M14.538 16.079l-0-0c-0.005-0.041-0.027-0.076-0.060-0.102 0.033 0.025 0.055 0.061 0.060 0.102l0 0z"></path>
<path fill="#ffe15a" d="M14.872 17.383c0.158 0.081 0.362 0.044 0.464-0.089-0.217-0.178-0.457-0.417-0.618-0.701-0.018-0.032-0.035-0.065-0.051-0.098-0.010-0.022-0.021-0.043-0.031-0.065-0.016-0.037-0.029-0.075-0.041-0.113-0.006-0.019-0.014-0.038-0.020-0.058-0.016-0.058-0.029-0.118-0.037-0.179l-0-0c-0.005-0.041-0.027-0.076-0.060-0.102s-0.076-0.041-0.123-0.041l-0 0c-0.041 0.362-0.144 1.106 0.518 1.447z"></path>
<path fill="#41479b" d="M14.697 14.707c-0.013 0.049-0.026 0.099-0.039 0.148 0.422-0.127 0.888-0.203 1.394-0.203s0.971 0.076 1.394 0.203c-0.013-0.049-0.026-0.099-0.039-0.148-0.42-0.108-0.872-0.171-1.355-0.17s-0.935 0.062-1.355 0.17z"></path>
<path fill="#5aa0e6" d="M14.714 14.642c-0.013 0.049-0.026 0.099-0.039 0.148 0.418-0.127 0.878-0.203 1.377-0.203s0.959 0.076 1.377 0.203c-0.013-0.049-0.026-0.099-0.039-0.148-0.415-0.109-0.861-0.171-1.338-0.171s-0.923 0.062-1.338 0.171z"></path>
<path fill="#9bc800" d="M14.729 14.583c-0.013 0.049-0.026 0.099-0.039 0.148 0.413-0.127 0.868-0.204 1.361-0.204s0.948 0.077 1.361 0.204c-0.013-0.049-0.026-0.099-0.039-0.148-0.411-0.109-0.852-0.172-1.323-0.172s-0.912 0.063-1.323 0.172z"></path>
<path fill="#ffe14e" d="M14.747 14.515c-0.013 0.049-0.026 0.099-0.039 0.148 0.409-0.128 0.857-0.205 1.344-0.205s0.935 0.077 1.344 0.205c-0.013-0.049-0.026-0.099-0.039-0.148-0.406-0.11-0.84-0.172-1.305-0.172s-0.899 0.063-1.305 0.172z"></path>
<path fill="#ffb14e" d="M14.764 14.448c-0.013 0.049-0.026 0.099-0.039 0.148 0.404-0.128 0.846-0.205 1.326-0.205s0.922 0.077 1.326 0.205c-0.013-0.049-0.026-0.099-0.039-0.148-0.401-0.11-0.83-0.173-1.288-0.173s-0.887 0.063-1.288 0.173z"></path>
<path fill="#ff4b55" d="M14.772 14.42c-0.009 0.034-0.018 0.069-0.027 0.104 0.399-0.128 0.835-0.206 1.307-0.206s0.909 0.078 1.307 0.206c-0.009-0.034-0.018-0.069-0.027-0.104-0.399-0.11-0.825-0.173-1.28-0.173s-0.881 0.063-1.28 0.173z"></path>
<path fill="#ffe15a" d="M20.33 19.335h-8.66c-0.057 0-0.11-0.031-0.136-0.082s-0.024-0.111 0.008-0.159l4.33-6.495c0.057-0.086 0.2-0.086 0.257 0l4.33 6.495c0.032 0.047 0.035 0.108 0.008 0.159s-0.079 0.082-0.137 0.082zM11.959 19.025h8.082l-4.041-6.062-4.041 6.062z"></path>
<path fill="#ff4b55" d="M16.296 15.31c0-0.136-0.138-0.343-0.359-0.343-0.129 0-0.233 0.079-0.233 0.176 0 0.049 0.026 0.092 0.068 0.124-0 0.002-0 0.004-0 0.005-0.053 0.032-0.087 0.081-0.087 0.136 0 0.093 0.095 0.168 0.216 0.175l0.099 0.199 0.090-0.18c0.118-0.030 0.206-0.149 0.206-0.293z"></path>
</svg>
