<svg xmlns="http://www.w3.org/2000/svg" width="32" height="32" version="1.1" viewBox="0 0 32 32"><title>nigeria</title><path fill="#f5f5f5" d="M1.849 22.9l-0.002-13.795c-0-0.788 0.42-1.516 1.102-1.91l11.945-6.899c0.682-0.394 1.523-0.394 2.205-0l11.948 6.895c0.683 0.394 1.103 1.122 1.103 1.91l0.002 13.795c0 0.788-0.42 1.516-1.102 1.91l-11.945 6.899c-0.682 0.394-1.523 0.394-2.205 0l-11.947-6.895c-0.682-0.394-1.103-1.122-1.103-1.91z"/><path fill="#73af00" d="M2.949 7.195c-0.682 0.394-1.103 1.122-1.102 1.91l0.002 13.795c0 0.788 0.421 1.516 1.103 1.91l8.244 4.758v-27.136l-8.247 4.763z"/><path fill="#73af00" d="M29.051 24.805c0.682-0.394 1.102-1.122 1.102-1.91l-0.002-13.795c-0-0.788-0.421-1.516-1.103-1.91l-8.244-4.758v27.136l8.247-4.763z"/></svg>