<svg xmlns="http://www.w3.org/2000/svg" width="32" height="32" version="1.1" viewBox="0 0 32 32"><title>niue</title><path fill="#ffe15a" d="M30.152 20.244v-0.181l-0-1.517-0.001-5.093-0-1.517v-0.181l-0-2.655c0-0 0-0.001 0-0.001 0-0.051-0.002-0.102-0.006-0.152-0.001-0.015-0.003-0.031-0.004-0.046-0.003-0.036-0.007-0.072-0.012-0.107-0.002-0.017-0.005-0.033-0.008-0.049-0.006-0.036-0.013-0.072-0.020-0.107-0.003-0.014-0.006-0.027-0.009-0.041-0.011-0.046-0.023-0.092-0.037-0.137-0.001-0.002-0.001-0.004-0.002-0.006-0.016-0.051-0.033-0.101-0.053-0.151-0-0.001-0.001-0.002-0.001-0.003-0.018-0.046-0.038-0.092-0.059-0.137-0.003-0.007-0.007-0.014-0.010-0.021-0.020-0.040-0.040-0.080-0.063-0.12-0.003-0.006-0.007-0.012-0.010-0.019-0.025-0.044-0.052-0.087-0.080-0.129 0 0-0-0-0-0l-0-0c-0.037-0.054-0.076-0.107-0.117-0.158-0.004-0.005-0.008-0.009-0.012-0.014-0.040-0.049-0.083-0.097-0.127-0.143-0.001-0.001-0.001-0.001-0.002-0.002-0.044-0.044-0.090-0.087-0.137-0.127-0.010-0.008-0.020-0.017-0.030-0.025-0.048-0.040-0.096-0.078-0.148-0.114-0 0-0-0-0-0-0.051-0.035-0.103-0.069-0.157-0.101l-11.948-6.895c-0.683-0.394-1.523-0.394-2.205 0l-11.945 6.899c-0.053 0.030-0.103 0.063-0.152 0.098-0.051 0.036-0.1 0.074-0.148 0.113-0.010 0.008-0.020 0.017-0.030 0.025-0.047 0.041-0.093 0.083-0.137 0.127-0 0.001-0.001 0.001-0.002 0.002-0.045 0.046-0.087 0.093-0.127 0.142-0.004 0.005-0.009 0.010-0.013 0.015-0.038 0.047-0.074 0.096-0.108 0.146-0.003 0.004-0.006 0.007-0.008 0.011-0.028 0.042-0.055 0.085-0.080 0.129-0.004 0.007-0.007 0.013-0.011 0.020-0.022 0.039-0.043 0.078-0.062 0.118-0.004 0.007-0.007 0.015-0.011 0.022-0.021 0.044-0.040 0.089-0.058 0.134-0.001 0.002-0.002 0.004-0.003 0.007-0.019 0.050-0.037 0.1-0.053 0.151-0 0.001-0.001 0.003-0.001 0.004-0.014 0.046-0.026 0.093-0.038 0.14-0.003 0.014-0.006 0.027-0.009 0.041-0.008 0.036-0.015 0.072-0.021 0.108-0.003 0.016-0.005 0.033-0.008 0.049-0.005 0.036-0.009 0.072-0.012 0.108-0.001 0.015-0.003 0.031-0.004 0.046-0.004 0.051-0.006 0.102-0.006 0.153l0 2.651v0.181l0 1.517 0.001 5.093 0 1.698 0 2.655c0 0.051 0.002 0.102 0.006 0.153 0.001 0.015 0.003 0.031 0.004 0.046 0.003 0.036 0.007 0.072 0.012 0.108 0.002 0.016 0.005 0.032 0.008 0.049 0.006 0.036 0.013 0.072 0.021 0.108 0.003 0.013 0.006 0.027 0.009 0.040 0.011 0.047 0.023 0.093 0.037 0.138 0.001 0.002 0.001 0.004 0.002 0.005 0.016 0.051 0.033 0.102 0.053 0.151 0 0.001 0.001 0.002 0.001 0.003 0.018 0.047 0.038 0.093 0.060 0.138 0.003 0.007 0.007 0.014 0.010 0.020 0.020 0.041 0.041 0.081 0.063 0.12 0.003 0.006 0.007 0.012 0.010 0.018 0.025 0.044 0.052 0.087 0.080 0.129v0c0.151 0.225 0.344 0.424 0.572 0.583 0.051 0.035 0.103 0.069 0.157 0.101l11.948 6.895c0.043 0.025 0.086 0.048 0.13 0.069 0.307 0.151 0.64 0.226 0.973 0.226s0.666-0.076 0.973-0.226c0.044-0.022 0.087-0.045 0.13-0.069l11.945-6.899c0.053-0.030 0.103-0.063 0.152-0.098 0.228-0.158 0.422-0.356 0.573-0.581v0l0-0c0.028-0.042 0.055-0.085 0.080-0.129 0.004-0.007 0.008-0.013 0.011-0.020 0.022-0.039 0.042-0.078 0.062-0.118 0.004-0.008 0.008-0.015 0.011-0.023 0.021-0.044 0.040-0.088 0.058-0.134 0.001-0.002 0.002-0.005 0.003-0.007 0.019-0.050 0.037-0.1 0.053-0.151 0.001-0.002 0.001-0.003 0.001-0.005 0.014-0.046 0.026-0.092 0.037-0.139 0.003-0.014 0.006-0.027 0.009-0.041 0.008-0.036 0.015-0.072 0.020-0.108 0.003-0.017 0.005-0.033 0.008-0.049 0.005-0.036 0.009-0.071 0.012-0.107 0.001-0.015 0.003-0.031 0.004-0.047 0.003-0.051 0.006-0.101 0.006-0.153 0 0 0-0 0-0.001l-0.001-2.651z"/><path fill="#41479b" d="M5.971 15.922h7.643l-7.924-7.107z"/><path fill="#41479b" d="M14.895 0.296l-5.388 3.112-0.192 0.157 3.404 0.33 3.153-0.33v-3.56c-0.339 0.019-0.674 0.116-0.978 0.292z"/><path fill="#41479b" d="M15.872 14.075v-5.362l-7.214-0.289z"/><path fill="#f5f5f5" d="M9.315 3.564l0.192-0.157-2.573 1.486c0.259 0.48 0.332 2.423 0.196 2.79-0.34 0.921-1.067 1.654-1.984 2.003-0.376 0.143-2.084 0.135-2.475-0.023-0.298-0.12-0.575-0.28-0.824-0.475v-0.084l0 2.651v0.181l0 1.516 0 2.468h4.123v-6.25l7.643 6.25h1.433c0.456 0 0.825-0.461 0.825-1.030v-0.817l-6.557-5.362h6.557v-5.149h-6.557z"/><path fill="#ff4b55" d="M2.671 9.663v6.258h2.475v-6.236c-0.376 0.143-2.084 0.135-2.475-0.023z"/><path fill="#ff4b55" d="M6.939 4.891l-0.006 0.003c0.259 0.48 0.332 2.423 0.196 2.79h8.743v-3.089h-8.42l-0.514 0.297z"/><path fill="#ff4b55" d="M6.617 8.713l8.774 7.108c0.263-0.152 0.443-0.471 0.468-0.849l-7.727-6.26c0 0-1.516 0-1.516 0z"/><path fill="#41479b" d="M6.933 4.894l-0.983 0.568 0.581 0.005c0.233 0.002 0.329 0.299 0.142 0.437l-1.445 1.067 0.542 1.713c0.070 0.222-0.182 0.405-0.372 0.27l-1.461-1.045-1.462 1.045c-0.189 0.135-0.442-0.048-0.372-0.27l0.344-1.088c-0.027 0.029-0.054 0.058-0.079 0.088-0.005 0.006-0.011 0.012-0.016 0.018-0.004 0.005-0.009 0.010-0.013 0.015-0.038 0.047-0.074 0.096-0.108 0.146-0.003 0.004-0.006 0.007-0.008 0.011-0.028 0.042-0.055 0.085-0.080 0.129-0.004 0.007-0.007 0.013-0.011 0.020-0.022 0.039-0.043 0.078-0.062 0.118-0.004 0.007-0.007 0.015-0.011 0.022-0.021 0.044-0.040 0.089-0.058 0.134-0.001 0.002-0.002 0.004-0.003 0.007-0.019 0.050-0.037 0.1-0.053 0.151-0 0.001-0.001 0.003-0.001 0.004-0.014 0.046-0.026 0.093-0.038 0.14-0.003 0.014-0.006 0.027-0.009 0.041-0.008 0.036-0.015 0.072-0.021 0.108-0.003 0.016-0.005 0.033-0.008 0.049-0.005 0.036-0.009 0.072-0.012 0.108-0.001 0.015-0.003 0.031-0.004 0.046-0.004 0.051-0.006 0.102-0.006 0.153v0.084c0.249 0.194 0.526 0.355 0.824 0.475 0.391 0.158 0.819 0.244 1.267 0.244 0.426 0 0.833-0.079 1.209-0.222 0.917-0.349 1.644-1.082 1.984-2.003 0.135-0.367 0.21-0.763 0.21-1.177-0-0.583-0.147-1.132-0.406-1.612z"/><path fill="#ffe15a" d="M4.012 12.157l0.213 0.638 0.672 0.005c0.087 0.001 0.123 0.112 0.053 0.163l-0.541 0.399 0.203 0.641c0.026 0.083-0.068 0.152-0.139 0.101l-0.547-0.391-0.547 0.391c-0.071 0.051-0.165-0.018-0.139-0.101l0.203-0.641-0.541-0.399c-0.070-0.052-0.034-0.163 0.053-0.163l0.672-0.005 0.213-0.638c0.027-0.083 0.144-0.083 0.172 0z"/><path fill="#ffe15a" d="M12.057 5.127l0.213 0.638 0.672 0.005c0.087 0.001 0.123 0.112 0.053 0.163l-0.541 0.399 0.203 0.641c0.026 0.083-0.068 0.152-0.139 0.101l-0.547-0.391-0.547 0.391c-0.071 0.051-0.165-0.018-0.139-0.101l0.203-0.641-0.541-0.399c-0.070-0.052-0.034-0.163 0.053-0.163l0.672-0.005 0.213-0.638c0.027-0.083 0.144-0.083 0.172 0z"/></svg>