<svg xmlns="http://www.w3.org/2000/svg" width="32" height="32" version="1.1" viewBox="0 0 32 32"><title>northern-cyprus</title><path fill="#f5f5f5" d="M30.152 18.546l-0.001-5.093-0-1.698-0-2.655c-0-0.725-0.357-1.399-0.946-1.809-0.051-0.035-0.103-0.069-0.157-0.101l-11.948-6.895c-0.682-0.394-1.523-0.394-2.205 0l-11.945 6.899c-0.053 0.030-0.103 0.063-0.152 0.098-0.592 0.41-0.95 1.085-0.95 1.813l0 2.651 0 1.698 0.001 5.093 0 1.698 0 2.655c0 0.725 0.357 1.399 0.946 1.809 0.051 0.035 0.103 0.069 0.157 0.101l11.948 6.895c0.682 0.394 1.523 0.394 2.205-0l11.945-6.899c0.053-0.030 0.103-0.063 0.152-0.098 0.592-0.41 0.95-1.085 0.95-1.813l-0-2.651-0-1.698z"/><path fill="#ff4b55" d="M29.628 7.678h-27.255c-0.334 0.393-0.526 0.896-0.526 1.427l0 0.792h28.304l-0-0.797c-0-0.529-0.191-1.030-0.523-1.422z"/><path fill="#ff4b55" d="M1.849 22.899c0 0.529 0.191 1.031 0.522 1.422h27.255c0.334-0.393 0.526-0.896 0.526-1.427l-0-0.792h-28.304l0 0.797z"/><path fill="#ff4b55" d="M14.195 16.194l1.227 0.387 0.031 1.286c0.002 0.072 0.094 0.1 0.136 0.042l0.747-1.047 1.232 0.367c0.069 0.021 0.124-0.058 0.082-0.116l-0.765-1.034 0.73-1.058c0.041-0.059-0.017-0.136-0.085-0.114l-1.22 0.408-0.781-1.022c-0.044-0.057-0.135-0.026-0.134 0.046l0.011 1.286-1.213 0.427c-0.068 0.024-0.066 0.12 0.002 0.142z"/><path fill="#ff4b55" d="M10.257 20.993c1.412 0 2.68-0.59 3.586-1.534 0.080-0.083-0.030-0.208-0.126-0.143-0.631 0.428-1.389 0.681-2.211 0.681-2.206 0-3.995-1.789-3.995-3.997 0-2.204 1.789-3.997 3.995-3.997 0.821 0 1.577 0.252 2.208 0.68 0.097 0.065 0.207-0.062 0.126-0.146-0.943-0.98-2.277-1.578-3.756-1.527-2.541 0.087-4.645 2.124-4.807 4.662-0.186 2.906 2.115 5.322 4.981 5.322z"/></svg>