<svg xmlns="http://www.w3.org/2000/svg" width="32" height="32" version="1.1" viewBox="0 0 32 32"><title>north-korea</title><path fill="#f5f5f5" d="M29.719 24.207c0.007-0.009 0.014-0.019 0.021-0.029 0.027-0.038 0.053-0.076 0.077-0.115 0.006-0.010 0.012-0.019 0.018-0.029 0.028-0.047 0.055-0.095 0.080-0.143 0-0.001 0.001-0.002 0.002-0.003 0.027-0.054 0.052-0.108 0.075-0.164v-0c0.013-0.033 0.026-0.066 0.038-0.099 0.007-0.021 0.014-0.042 0.021-0.063 0.006-0.019 0.012-0.039 0.018-0.058s0.011-0.040 0.017-0.061c0.006-0.025 0.012-0.050 0.018-0.075 0.003-0.016 0.007-0.031 0.010-0.047 0.008-0.040 0.014-0.079 0.020-0.119 0.002-0.014 0.004-0.029 0.005-0.043 0.004-0.031 0.007-0.061 0.009-0.092 0.001-0.014 0.002-0.027 0.003-0.041 0.003-0.044 0.004-0.087 0.004-0.131l-0.002-13.795c0-0.044-0.002-0.087-0.004-0.131-0.001-0.014-0.002-0.027-0.003-0.041-0.002-0.030-0.005-0.061-0.009-0.091-0.002-0.015-0.003-0.029-0.005-0.044-0.006-0.039-0.012-0.078-0.020-0.117-0.004-0.018-0.008-0.036-0.012-0.054-0.005-0.022-0.010-0.044-0.016-0.066s-0.012-0.044-0.018-0.066c-0.005-0.017-0.010-0.033-0.015-0.050-0.017-0.056-0.037-0.111-0.058-0.165l-0-0c-0.044-0.109-0.097-0.214-0.157-0.314-0.005-0.008-0.010-0.016-0.015-0.024-0.026-0.041-0.052-0.081-0.081-0.121-0.006-0.009-0.012-0.017-0.019-0.026-0.033-0.045-0.067-0.088-0.103-0.13-0.001-0.001-0.002-0.002-0.002-0.003-0.038-0.044-0.077-0.086-0.119-0.126-0.008-0.008-0.017-0.016-0.025-0.023-0.032-0.031-0.065-0.060-0.099-0.089-0.013-0.011-0.027-0.022-0.041-0.033-0.032-0.026-0.064-0.050-0.097-0.074-0.014-0.010-0.027-0.020-0.041-0.029-0.047-0.032-0.094-0.063-0.144-0.091l-11.948-6.895c-0.683-0.394-1.523-0.394-2.205 0l-11.945 6.899c-0 0-0 0-0.001 0-0.049 0.028-0.096 0.059-0.143 0.091-0.014 0.010-0.028 0.020-0.041 0.030-0.033 0.024-0.065 0.048-0.096 0.073-0.014 0.011-0.028 0.023-0.042 0.034-0.033 0.028-0.065 0.057-0.096 0.087-0.009 0.009-0.019 0.017-0.028 0.026-0.041 0.040-0.080 0.082-0.117 0.125-0.001 0.001-0.001 0.002-0.002 0.002-0.036 0.042-0.070 0.085-0.103 0.13-0.007 0.009-0.014 0.019-0.021 0.029-0.027 0.038-0.053 0.076-0.077 0.115-0.006 0.010-0.012 0.019-0.018 0.029-0.028 0.047-0.055 0.095-0.080 0.143-0 0.001-0.001 0.002-0.001 0.003-0.027 0.054-0.052 0.108-0.075 0.164v0c-0.013 0.033-0.026 0.066-0.038 0.099-0.007 0.021-0.014 0.042-0.021 0.063-0.006 0.019-0.012 0.039-0.018 0.058s-0.011 0.041-0.017 0.061c-0.006 0.025-0.012 0.049-0.018 0.074-0.003 0.016-0.007 0.031-0.010 0.047-0.008 0.039-0.014 0.079-0.020 0.119-0.002 0.014-0.004 0.029-0.005 0.043-0.004 0.030-0.007 0.061-0.009 0.092-0.001 0.014-0.002 0.027-0.003 0.041-0.003 0.043-0.004 0.087-0.004 0.131l0.002 13.795c0 0.044 0.002 0.087 0.004 0.131 0.001 0.014 0.002 0.027 0.003 0.041 0.002 0.030 0.005 0.061 0.009 0.091 0.002 0.015 0.003 0.029 0.005 0.044 0.006 0.039 0.012 0.078 0.020 0.117 0.004 0.018 0.008 0.036 0.012 0.054 0.005 0.022 0.010 0.044 0.016 0.066s0.012 0.044 0.018 0.066c0.005 0.017 0.010 0.033 0.015 0.050 0.017 0.055 0.037 0.11 0.058 0.164 0 0 0 0.001 0 0.001v0c0.044 0.109 0.097 0.214 0.157 0.314 0.005 0.008 0.010 0.016 0.015 0.024 0.025 0.041 0.052 0.081 0.080 0.121 0.006 0.009 0.012 0.018 0.019 0.026 0.033 0.045 0.067 0.088 0.103 0.13 0.001 0.001 0.001 0.002 0.002 0.003 0.038 0.044 0.077 0.086 0.119 0.126 0.008 0.008 0.017 0.015 0.025 0.023 0.032 0.031 0.065 0.061 0.099 0.089 0.013 0.011 0.027 0.022 0.040 0.033 0.032 0.026 0.064 0.050 0.098 0.074 0.014 0.010 0.027 0.020 0.041 0.029 0.047 0.032 0.094 0.063 0.144 0.091l11.948 6.895c0.682 0.394 1.523 0.394 2.205-0l11.945-6.899c0-0 0.001-0 0.001-0.001 0.049-0.028 0.096-0.059 0.142-0.090 0.014-0.010 0.028-0.020 0.041-0.030 0.033-0.024 0.065-0.048 0.096-0.073 0.014-0.011 0.028-0.023 0.041-0.034 0.033-0.028 0.065-0.057 0.096-0.087 0.009-0.009 0.019-0.017 0.028-0.026 0.041-0.040 0.080-0.082 0.117-0.125 0.001-0.001 0.001-0.001 0.002-0.002 0.036-0.042 0.070-0.085 0.103-0.13z"/><path fill="#41479b" d="M28.697 6.989l-11.597-6.693c-0.683-0.394-1.523-0.394-2.205 0l-11.588 6.693h25.391z"/><path fill="#41479b" d="M14.9 31.705c0.682 0.394 1.523 0.394 2.205-0l11.588-6.693h-25.391l11.597 6.693z"/><path fill="#ff4b55" d="M30.151 9.1c0-0.044-0.002-0.087-0.004-0.131-0.001-0.014-0.002-0.027-0.003-0.041-0.002-0.030-0.005-0.061-0.009-0.091-0.002-0.015-0.003-0.029-0.005-0.044-0.006-0.039-0.012-0.078-0.020-0.117-0.004-0.018-0.008-0.036-0.012-0.054-0.005-0.022-0.010-0.044-0.016-0.066s-0.012-0.044-0.018-0.066c-0.005-0.017-0.010-0.033-0.015-0.050-0.017-0.056-0.037-0.111-0.058-0.165l-0-0h-27.981c-0.013 0.033-0.026 0.066-0.038 0.099-0.007 0.021-0.014 0.042-0.021 0.063-0.006 0.019-0.012 0.039-0.018 0.058s-0.011 0.041-0.017 0.061c-0.006 0.025-0.012 0.049-0.018 0.074-0.003 0.016-0.007 0.031-0.010 0.047-0.008 0.039-0.014 0.079-0.020 0.119-0.002 0.014-0.004 0.029-0.005 0.043-0.004 0.030-0.007 0.061-0.009 0.092-0.001 0.014-0.002 0.027-0.003 0.041-0.003 0.043-0.004 0.087-0.004 0.131l0.002 13.795c0 0.044 0.002 0.087 0.004 0.131 0.001 0.014 0.002 0.027 0.003 0.041 0.002 0.030 0.005 0.061 0.009 0.091 0.002 0.015 0.003 0.029 0.005 0.044 0.006 0.039 0.012 0.078 0.020 0.117 0.004 0.018 0.008 0.036 0.012 0.054 0.005 0.022 0.010 0.044 0.016 0.066s0.012 0.044 0.018 0.066c0.005 0.017 0.010 0.033 0.015 0.050 0.017 0.055 0.037 0.11 0.058 0.164 0 0 0 0.001 0 0.001h27.981c0.013-0.033 0.026-0.066 0.038-0.099 0.007-0.021 0.014-0.042 0.021-0.063 0.006-0.019 0.012-0.039 0.018-0.058s0.011-0.040 0.017-0.061c0.006-0.025 0.012-0.050 0.018-0.075 0.003-0.016 0.007-0.031 0.010-0.047 0.008-0.040 0.014-0.079 0.020-0.119 0.002-0.014 0.004-0.029 0.005-0.043 0.004-0.031 0.007-0.061 0.009-0.092 0.001-0.014 0.002-0.027 0.003-0.041 0.003-0.044 0.004-0.087 0.004-0.131l-0.002-13.795z"/><path fill="#f5f5f5" d="M8.658 20.999c2.761 0 4.999-2.238 4.999-4.999s-2.238-4.999-4.999-4.999-4.999 2.238-4.999 4.999 2.238 4.999 4.999 4.999zM4.353 14.48l3.169-0.025 1.003-3.007c0.043-0.128 0.224-0.128 0.266 0l1.003 3.007 3.169 0.025c0.135 0.001 0.191 0.173 0.082 0.253l-2.55 1.883 0.956 3.022c0.041 0.129-0.106 0.235-0.215 0.156l-2.579-1.843-2.579 1.843c-0.11 0.078-0.256-0.028-0.215-0.156l0.956-3.022-2.55-1.883c-0.109-0.080-0.053-0.252 0.082-0.253z"/><path fill="#ff4b55" d="M4.271 14.734l2.55 1.883-0.956 3.022c-0.041 0.129 0.106 0.235 0.215 0.156l2.578-1.843 2.579 1.843c0.11 0.078 0.256-0.028 0.215-0.156l-0.956-3.022 2.55-1.883c0.108-0.080 0.053-0.252-0.082-0.253l-3.169-0.025-1.003-3.007c-0.043-0.128-0.224-0.128-0.266 0l-1.003 3.007-3.169 0.025c-0.135 0.001-0.191 0.173-0.082 0.253z"/></svg>