<svg xmlns="http://www.w3.org/2000/svg" width="32" height="32" version="1.1" viewBox="0 0 32 32"><title>northern-marianas-islands</title><path fill="#4173cd" d="M30.153 22.895l-0-2.651-0-1.698-0.001-5.093-0-1.698-0-2.655c-0-0.194-0.026-0.384-0.075-0.567-0.026-0.098-0.059-0.194-0.099-0.287-0.16-0.381-0.426-0.714-0.773-0.955-0.051-0.035-0.103-0.069-0.157-0.101l-11.947-6.895c-0.682-0.394-1.523-0.394-2.205 0l-11.945 6.899c-0.053 0.030-0.103 0.063-0.152 0.098-0.212 0.147-0.393 0.328-0.54 0.534-0.098 0.138-0.18 0.287-0.244 0.443-0.107 0.261-0.166 0.544-0.166 0.836l0 2.651 0 1.698 0.001 5.092v0.001l0 1.697 0 2.655v0c0 0.725 0.357 1.399 0.946 1.809 0.051 0.035 0.103 0.069 0.157 0.101l11.948 6.895c0.682 0.394 1.523 0.394 2.205-0l11.945-6.899c0.053-0.030 0.103-0.063 0.152-0.098 0.591-0.41 0.95-1.085 0.95-1.813v0 0z"/><path fill="#f5f5f5" d="M16 24.753c-4.823 0-8.748-3.924-8.748-8.748s3.924-8.748 8.748-8.748 8.748 3.924 8.748 8.748-3.924 8.748-8.748 8.748zM16 9.068c-3.826 0-6.938 3.112-6.938 6.938s3.112 6.938 6.938 6.938 6.938-3.112 6.938-6.938-3.112-6.938-6.938-6.938z"/><path fill="#ffdc00" d="M16 24.15c-4.491 0-8.144-3.654-8.144-8.144s3.654-8.144 8.144-8.144 8.144 3.654 8.144 8.144-3.654 8.144-8.144 8.144zM16 8.464c-4.158 0-7.541 3.383-7.541 7.541s3.383 7.541 7.541 7.541 7.541-3.383 7.541-7.541-3.383-7.541-7.541-7.541z"/><path fill="#ffdc00" d="M8.76 16.006c0 0.333-0.27 0.603-0.603 0.603s-0.603-0.27-0.603-0.603c0-0.333 0.27-0.603 0.603-0.603s0.603 0.27 0.603 0.603z"/><path fill="#ffdc00" d="M24.446 16.006c0 0.333-0.27 0.603-0.603 0.603s-0.603-0.27-0.603-0.603c0-0.333 0.27-0.603 0.603-0.603s0.603 0.27 0.603 0.603z"/><path fill="#ffdc00" d="M16.603 8.162c0 0.333-0.27 0.603-0.603 0.603s-0.603-0.27-0.603-0.603c0-0.333 0.27-0.603 0.603-0.603s0.603 0.27 0.603 0.603z"/><path fill="#ffdc00" d="M11.058 10.459c0 0.333-0.27 0.603-0.603 0.603s-0.603-0.27-0.603-0.603c0-0.333 0.27-0.603 0.603-0.603s0.603 0.27 0.603 0.603z"/><path fill="#ffdc00" d="M22.149 10.459c0 0.333-0.27 0.603-0.603 0.603s-0.603-0.27-0.603-0.603c0-0.333 0.27-0.603 0.603-0.603s0.603 0.27 0.603 0.603z"/><path fill="#ffdc00" d="M23.848 13.004c0 0.333-0.27 0.603-0.603 0.603s-0.603-0.27-0.603-0.603c0-0.333 0.27-0.603 0.603-0.603s0.603 0.27 0.603 0.603z"/><path fill="#ffdc00" d="M13.602 8.76c0 0.333-0.27 0.603-0.603 0.603s-0.603-0.27-0.603-0.603c0-0.333 0.27-0.603 0.603-0.603s0.603 0.27 0.603 0.603z"/><path fill="#ffdc00" d="M9.357 13.004c0 0.333-0.27 0.603-0.603 0.603s-0.603-0.27-0.603-0.603c0-0.333 0.27-0.603 0.603-0.603s0.603 0.27 0.603 0.603z"/><path fill="#ffdc00" d="M19.605 8.76c0 0.333-0.27 0.603-0.603 0.603s-0.603-0.27-0.603-0.603c0-0.333 0.27-0.603 0.603-0.603s0.603 0.27 0.603 0.603z"/><path fill="#ffdc00" d="M24.295 14.476c0 0.333-0.27 0.603-0.603 0.603s-0.603-0.27-0.603-0.603c0-0.333 0.27-0.603 0.603-0.603s0.603 0.27 0.603 0.603z"/><path fill="#ffdc00" d="M15.073 8.313c0 0.333-0.27 0.603-0.603 0.603s-0.603-0.27-0.603-0.603c0-0.333 0.27-0.603 0.603-0.603s0.603 0.27 0.603 0.603z"/><path fill="#ffdc00" d="M10.082 11.648c0 0.333-0.27 0.603-0.603 0.603s-0.603-0.27-0.603-0.603c0-0.333 0.27-0.603 0.603-0.603s0.603 0.27 0.603 0.603z"/><path fill="#ffdc00" d="M20.96 9.484c0 0.333-0.27 0.603-0.603 0.603s-0.603-0.27-0.603-0.603c0-0.333 0.27-0.603 0.603-0.603s0.603 0.27 0.603 0.603z"/><path fill="#ffdc00" d="M23.124 11.648c0 0.333-0.27 0.603-0.603 0.603s-0.603-0.27-0.603-0.603c0-0.333 0.27-0.603 0.603-0.603s0.603 0.27 0.603 0.603z"/><path fill="#ffdc00" d="M12.246 9.484c0 0.333-0.27 0.603-0.603 0.603s-0.603-0.27-0.603-0.603c0-0.333 0.27-0.603 0.603-0.603s0.603 0.27 0.603 0.603z"/><path fill="#ffdc00" d="M8.911 14.476c0 0.333-0.27 0.603-0.603 0.603s-0.603-0.27-0.603-0.603c0-0.333 0.27-0.603 0.603-0.603s0.603 0.27 0.603 0.603z"/><path fill="#ffdc00" d="M18.133 8.313c0 0.333-0.27 0.603-0.603 0.603s-0.603-0.27-0.603-0.603c0-0.333 0.27-0.603 0.603-0.603s0.603 0.27 0.603 0.603z"/><path fill="#ffa000" d="M23.843 16.307c-0.167 0-0.302-0.135-0.302-0.302 0-4.158-3.383-7.541-7.541-7.541s-7.541 3.383-7.541 7.541c0 0.167-0.135 0.302-0.302 0.302s-0.302-0.135-0.302-0.302c0-4.491 3.654-8.144 8.144-8.144s8.144 3.654 8.144 8.144c0 0.167-0.135 0.302-0.302 0.302z"/><path fill="#b4b4b4" d="M17.676 25.055h-3.352c-0.716 0-1.275-0.62-1.2-1.333l1.066-10.129h3.62l1.066 10.129c0.075 0.712-0.483 1.333-1.2 1.333z"/><path fill="#aaa" d="M17.793 13.592h-3.6c-0.159 0-0.292-0.12-0.309-0.277l-0.225-2.071c-0.039-0.357 0.241-0.668 0.6-0.668h3.482c0.359 0 0.639 0.312 0.6 0.668l-0.223 2.057c-0.018 0.166-0.158 0.291-0.325 0.291z"/><path fill="#f5f5f5" d="M16.14 11.278l1.118 3.217 3.405 0.069c0.14 0.003 0.198 0.181 0.086 0.266l-2.714 2.058 0.986 3.26c0.041 0.134-0.111 0.244-0.226 0.164l-2.796-1.946-2.796 1.946c-0.115 0.080-0.267-0.030-0.226-0.164l0.986-3.26-2.714-2.058c-0.112-0.085-0.054-0.263 0.086-0.266l3.405-0.069 1.118-3.217c0.046-0.133 0.233-0.133 0.279 0z"/></svg>