<!-- Generated by IcoMoon.io -->
<svg version="1.1" xmlns="http://www.w3.org/2000/svg" width="32" height="32" viewBox="0 0 32 32">
<title>norway</title>
<path fill="#ff4b55" d="M14.521 31.486l0.379 0.218c0.682 0.394 1.523 0.394 2.205-0l11.945-6.899c0.682-0.394 1.102-1.122 1.102-1.91l-0.001-3.771h-15.631v12.362z"></path>
<path fill="#f5f5f5" d="M13.536 17.874v13.043l0.986 0.569v-12.362h15.631l-0-1.25z"></path>
<path fill="#f5f5f5" d="M10.579 14.125v-11.337l-0.986 0.569v9.518h-7.745l0 1.25z"></path>
<path fill="#f5f5f5" d="M13.536 14.125h16.616l-0-1.25h-15.63v-12.365l-0.986 0.569z"></path>
<path fill="#f5f5f5" d="M10.579 17.874h-8.73l0 1.25h7.744v9.518l0.986 0.569z"></path>
<path fill="#41479b" d="M13.536 1.081l-2.957 1.708v11.337h-8.731l0.001 3.749h8.73v11.336l2.957 1.707v-13.043h16.616l-0.001-3.749h-16.616z"></path>
</svg>
