<svg xmlns="http://www.w3.org/2000/svg" width="32" height="32" version="1.1" viewBox="0 0 32 32"><title>oman</title><path fill="#f5f5f5" d="M1.849 22.9l-0.002-13.795c-0-0.788 0.42-1.516 1.102-1.91l11.945-6.899c0.682-0.394 1.523-0.394 2.205-0l11.948 6.895c0.682 0.394 1.103 1.122 1.103 1.91l0.002 13.795c0 0.788-0.42 1.516-1.102 1.91l-11.945 6.899c-0.682 0.394-1.523 0.394-2.205 0l-11.947-6.895c-0.683-0.394-1.103-1.122-1.103-1.91z"/><path fill="#73af00" d="M11.548 29.77l3.352 1.934c0.682 0.394 1.523 0.394 2.205-0l11.945-6.899c0.682-0.394 1.102-1.122 1.102-1.91l-0-1.506-19.386-1.016 0.781 9.397z"/><path fill="#ff4b55" d="M30.151 10.611h-18.603v-8.382l-8.599 4.966c-0.682 0.394-1.103 1.122-1.102 1.91l0 1.506 0.002 10.778 0 1.51c0 0.788 0.421 1.516 1.103 1.91l8.596 4.961v-8.381h18.605l-0.002-10.778z"/><path fill="#f5f5f5" d="M4.284 11.814c-0.038 0.004-0.075 0.009-0.111 0.014v0.488c0.036 0.009 0.073 0.018 0.111 0.027 0 0 0-0.53 0-0.53z"/><path fill="#f5f5f5" d="M5.973 12.744c-0.102-0.008-0.258-0.024-0.445-0.047l-1.171 1.042c0.152 0.023 0.333 0.054 0.409 0.078 0.301-0.263 0.704-0.622 1.207-1.073z"/><path fill="#f5f5f5" d="M7.736 11.088v-0.1h-2.078v0.149h2.078z"/><path fill="#f5f5f5" d="M6.197 8.116c0 0.146 0.221 0.27 0.482 0.27s0.482-0.124 0.482-0.27c0-0.146-0.221-0.27-0.482-0.27s-0.482 0.124-0.482 0.27z"/><path fill="#f5f5f5" d="M5.747 11.748c-0.469-0.002-0.937 0.015-1.32 0.051v0.576c0.45 0.097 0.973 0.17 1.32 0.207v-0.835z"/><path fill="#f5f5f5" d="M3.33 14.593c0.185-0.004 0.593-0.077 0.868-0.293 0.085-0.067 0.231-0.19 0.436-0.368-0.139-0.029-0.372-0.063-0.497-0.080l-0.808 0.741z"/><path fill="#f5f5f5" d="M6.014 10.845v-0.262c-0.035-0.052-0.071-0.106-0.108-0.161l-0.319 0.232c0.064 0.109 0.104 0.178 0.112 0.191l0.316 0z"/><path fill="#f5f5f5" d="M3.56 12.028c-0.001 0.004-0.003 0.014 0.013 0.035 0.059 0.076 0.231 0.148 0.458 0.214v-0.428c-0.273 0.045-0.452 0.105-0.47 0.179z"/><path fill="#f5f5f5" d="M7.209 11.823v-0.544h-1.052v1.329h0.268c0.433 0 0.785-0.352 0.785-0.785z"/><path fill="#f5f5f5" d="M5.518 9.847c-0.563-0.831-1.165-1.703-1.312-1.876 0.021 0.077 0.072 0.223 0.191 0.494 0.153 0.351 0.525 1.024 0.832 1.565l0.289-0.183z"/><path fill="#f5f5f5" d="M5.3 10.155c0.080 0.14 0.154 0.268 0.215 0.375l0.311-0.226c-0.074-0.11-0.15-0.223-0.228-0.337l-0.299 0.189z"/><path fill="#f5f5f5" d="M6.014 12.606v-0.855c-0.042-0.001-0.083-0.002-0.125-0.002v0.848c0.048 0.004 0.090 0.007 0.125 0.009z"/><path fill="#f5f5f5" d="M6.157 10.111h1.052v0.149h-1.052v-0.149z"/><path fill="#f5f5f5" d="M8.672 10.836v0.009h0.053c0.039 0 0.071 0.032 0.071 0.071v0.292c0 0.039-0.032 0.071-0.071 0.071h-0.053v0.009c0 0.039 0.032 0.071 0.071 0.071h1.204c0.039 0 0.071-0.032 0.071-0.071v-0.453c0-0.039-0.032-0.071-0.071-0.071h-1.204c-0.039 0-0.071 0.032-0.071 0.072z"/><path fill="#f5f5f5" d="M10.019 14.589l-0.803-0.737c-0.124 0.017-0.358 0.052-0.497 0.080 0.209 0.181 0.355 0.304 0.437 0.368 0.271 0.212 0.67 0.286 0.864 0.288z"/><path fill="#f5f5f5" d="M8.369 11.037v0.1h0.285v-0.149h-0.285z"/><path fill="#f5f5f5" d="M8.587 13.818c0.076-0.024 0.258-0.055 0.41-0.078l-1.725-1.54c-0.047 0.105-0.112 0.2-0.192 0.28l0.045 0.041c0.625 0.56 1.114 0.993 1.462 1.297z"/><path fill="#f5f5f5" d="M4.721 11.288v-0.009h-0.053c-0.039 0-0.071-0.032-0.071-0.071v-0.292c0-0.039 0.032-0.071 0.071-0.071h0.053v-0.009c0-0.039-0.032-0.071-0.071-0.071h-1.204c-0.039 0-0.071 0.032-0.071 0.071v0.453c0 0.039 0.032 0.071 0.071 0.071h1.204c0.039-0 0.071-0.032 0.071-0.072z"/><path fill="#f5f5f5" d="M5.024 11.088v-0.1h-0.285v0.149h0.285z"/><path fill="#f5f5f5" d="M7.767 10.653l-0.319-0.232c-0.033 0.049-0.064 0.096-0.096 0.143v0.281h0.303c0.008-0.013 0.048-0.082 0.112-0.191z"/><path fill="#f5f5f5" d="M6.253 9.674h0.862l-0.19-0.21h-0.482z"/><path fill="#f5f5f5" d="M6.157 9.824h1.052v0.145h-1.052v-0.145z"/><path fill="#f5f5f5" d="M6.679 8.529c-0.069 0-0.134-0.009-0.196-0.022v0.806h0.397v-0.807c-0.063 0.014-0.13 0.023-0.201 0.023z"/><path fill="#f5f5f5" d="M6.157 10.553h1.048c-0-0.009 0.001-0.018 0.005-0.026v-0.123h-1.052v0.149z"/><path fill="#f5f5f5" d="M7.528 10.303l0.311 0.226c0.062-0.107 0.135-0.234 0.215-0.375l-0.299-0.189c-0.078 0.115-0.154 0.227-0.228 0.337z"/><path fill="#f5f5f5" d="M6.157 10.696h1.052v0.149h-1.052v-0.149z"/><path fill="#f5f5f5" d="M8.125 10.031c0.308-0.541 0.679-1.214 0.832-1.565 0.119-0.273 0.17-0.418 0.191-0.495-0.144 0.169-0.747 1.044-1.312 1.877l0.289 0.183z"/><path fill="#d23741" d="M10.218 14.577l-0.93-0.853c-0.016-0.014-0.037-0.021-0.058-0.018-0.008 0.001-0.026 0.004-0.050 0.007-0.001-0.001-0.002-0.003-0.003-0.004l-1.854-1.655c0.019-0.074 0.030-0.15 0.030-0.23v-0.544h0.45c0.058 0.075 0.148 0.125 0.25 0.125s0.192-0.049 0.25-0.125h0.227v0.009c0 0.118 0.096 0.214 0.214 0.214h1.204c0.118 0 0.214-0.096 0.214-0.214v-0.453c0-0.118-0.096-0.214-0.214-0.214h-1.204c-0.118 0-0.214 0.096-0.214 0.214v0.009h-0.227c-0.058-0.075-0.148-0.125-0.25-0.125-0.077 0-0.148 0.029-0.203 0.075 0.24-0.412 0.996-1.716 1.239-2.272 0.26-0.597 0.239-0.674 0.178-0.723-0.065-0.052-0.147 0.008-0.178 0.031-0.119 0.087-1.277 1.797-1.736 2.478v-0.563c0-0.002-0.001-0.003-0.001-0.004l-0-0c-0.002-0.024-0.015-0.044-0.035-0.056l-0.294-0.326v-0.897c0.17-0.073 0.281-0.199 0.281-0.346 0-0.231-0.274-0.413-0.624-0.413s-0.624 0.181-0.624 0.413c0 0.148 0.113 0.275 0.285 0.348v0.901l-0.289 0.32c-0.022 0.012-0.037 0.035-0.037 0.061v0.581c-0.45-0.668-1.628-2.409-1.748-2.497-0.031-0.023-0.113-0.082-0.178-0.031-0.062 0.049-0.083 0.127 0.178 0.723 0.235 0.538 0.95 1.779 1.214 2.231-0.042-0.021-0.089-0.033-0.139-0.033-0.102 0-0.192 0.049-0.25 0.125h-0.227v-0.009c0-0.118-0.096-0.214-0.214-0.214h-1.204c-0.118 0-0.214 0.096-0.214 0.214v0.453c0 0.118 0.096 0.214 0.214 0.214h1.204c0.118 0 0.214-0.096 0.214-0.214v-0.009h0.227c0.058 0.075 0.148 0.125 0.25 0.125s0.192-0.049 0.25-0.125h0.423v0.329c-0.661-0.014-2.493-0.016-2.593 0.386-0.009 0.037-0.010 0.095 0.038 0.157 0.193 0.247 1.171 0.428 1.881 0.523l-1.163 1.035c-0.001 0.001-0.002 0.003-0.003 0.004-0.024-0.003-0.042-0.006-0.050-0.007-0.021-0.003-0.042 0.004-0.058 0.018l-0.93 0.853c-0.028 0.026-0.031 0.069-0.007 0.098 0.031 0.037 0.109 0.055 0.214 0.055 0.258 0 0.676-0.11 0.943-0.318 0.22-0.172 0.829-0.706 1.81-1.587 0.043-0.038 0.071-0.063 0.083-0.075h0.245c0.204 0 0.391-0.067 0.544-0.178l0.060 0.054c1.13 1.011 1.815 1.612 2.038 1.786 0.267 0.208 0.685 0.318 0.943 0.318 0.105 0 0.183-0.018 0.214-0.055 0.024-0.029 0.021-0.073-0.007-0.098zM6.157 12.608v-1.329h1.052v0.544c0 0.433-0.352 0.785-0.785 0.785l-0.268-0zM4.030 12.277c-0.227-0.066-0.399-0.138-0.458-0.214-0.016-0.021-0.014-0.031-0.013-0.035 0.019-0.074 0.197-0.134 0.47-0.179l0 0.428zM4.206 7.971c0.147 0.173 0.749 1.046 1.312 1.876l-0.289 0.183c-0.308-0.541-0.679-1.214-0.832-1.565-0.119-0.272-0.17-0.417-0.191-0.494zM5.906 10.422c0.037 0.055 0.073 0.109 0.108 0.161v0.262h-0.316c-0.008-0.013-0.048-0.082-0.112-0.191l0.319-0.232zM5.515 10.529c-0.062-0.107-0.135-0.234-0.215-0.375l0.299-0.189c0.078 0.115 0.154 0.228 0.228 0.337l-0.311 0.226zM6.014 11.751v0.855c-0.035-0.002-0.077-0.005-0.125-0.009v-0.848c0.042 0.001 0.083 0.001 0.125 0.002zM4.427 11.799c0.383-0.036 0.851-0.053 1.32-0.051v0.835c-0.346-0.037-0.87-0.111-1.32-0.207v-0.576zM4.173 11.828c0.036-0.005 0.073-0.009 0.111-0.014v0.53c-0.038-0.009-0.075-0.018-0.111-0.027 0-0 0-0.488 0-0.488zM5.528 12.698c0.187 0.023 0.343 0.039 0.445 0.047-0.502 0.451-0.906 0.81-1.207 1.073-0.076-0.024-0.258-0.055-0.409-0.078l1.171-1.042zM4.635 13.932c-0.205 0.178-0.351 0.301-0.436 0.368-0.276 0.215-0.683 0.289-0.868 0.293l0.808-0.741c0.125 0.017 0.358 0.052 0.497 0.080zM5.658 11.137v-0.149h2.078v0.149l-2.078-0zM7.16 8.116c0 0.146-0.221 0.27-0.482 0.27s-0.482-0.124-0.482-0.27c0-0.146 0.221-0.27 0.482-0.27s0.482 0.124 0.482 0.27zM6.157 10.261v-0.149h1.052v0.149h-1.052zM7.209 10.403v0.123c-0.003 0.009-0.005 0.017-0.005 0.026h-1.048v-0.149l1.052 0zM6.157 9.969v-0.145h1.052v0.145h-1.052zM6.925 9.464l0.19 0.21h-0.862l0.19-0.21h0.482zM6.482 9.313v-0.806c0.062 0.013 0.127 0.022 0.196 0.022 0.071 0 0.138-0.009 0.201-0.023v0.807l-0.397-0zM6.157 10.695h1.052v0.149h-1.052v-0.149zM8.957 8.466c-0.153 0.351-0.525 1.024-0.832 1.565l-0.289-0.183c0.565-0.833 1.168-1.707 1.312-1.877-0.021 0.077-0.072 0.222-0.191 0.495zM8.226 11.037v0.051c0 0.096-0.078 0.174-0.174 0.174s-0.174-0.078-0.174-0.174v-0.051c0-0.096 0.078-0.174 0.174-0.174s0.174 0.078 0.174 0.174zM7.839 10.529l-0.311-0.226c0.074-0.11 0.15-0.223 0.228-0.337l0.299 0.189c-0.080 0.14-0.154 0.268-0.215 0.375zM7.352 10.564c0.031-0.047 0.063-0.094 0.096-0.143l0.319 0.232c-0.064 0.109-0.104 0.179-0.112 0.191h-0.303c0 0 0-0.281 0-0.281zM7.271 12.2l1.725 1.54c-0.152 0.023-0.334 0.054-0.41 0.078-0.349-0.304-0.837-0.738-1.462-1.297l-0.045-0.041c0.080-0.080 0.146-0.175 0.192-0.28zM9.215 13.852l0.803 0.737c-0.194-0.002-0.592-0.077-0.864-0.288-0.082-0.064-0.228-0.187-0.437-0.368 0.139-0.029 0.372-0.063 0.497-0.080zM10.018 10.836v0.453c0 0.039-0.032 0.071-0.071 0.071h-1.204c-0.039 0-0.071-0.032-0.071-0.071v-0.009h0.053c0.039 0 0.071-0.032 0.071-0.071v-0.292c0-0.039-0.032-0.071-0.071-0.071h-0.053v-0.009c0-0.039 0.032-0.071 0.071-0.071h1.204c0.039-0 0.071 0.032 0.071 0.071zM8.654 11.137h-0.285v-0.149h0.285v0.149zM3.375 11.288v-0.453c0-0.039 0.032-0.071 0.071-0.071h1.204c0.039 0 0.071 0.032 0.071 0.071v0.009h-0.053c-0.039 0-0.071 0.032-0.071 0.071v0.292c0 0.039 0.032 0.071 0.071 0.071h0.053v0.009c0 0.039-0.032 0.071-0.071 0.071h-1.204c-0.039 0-0.071-0.032-0.071-0.071zM4.739 10.987h0.285v0.149h-0.285c0-0 0-0.149 0-0.149zM5.515 11.088c0 0.096-0.078 0.174-0.174 0.174s-0.174-0.078-0.174-0.174v-0.051c0-0.096 0.078-0.174 0.174-0.174s0.174 0.078 0.174 0.174v0.051z"/></svg>