<!-- Generated by IcoMoon.io -->
<svg version="1.1" xmlns="http://www.w3.org/2000/svg" width="32" height="32" viewBox="0 0 32 32">
<title>ossetia</title>
<path fill="#f5f5f5" d="M30.153 21.363v0l-0-1.119-0-1.698-0.001-5.093-0-1.698-0-2.655c0-0.049-0.002-0.097-0.005-0.145-0.010-0.144-0.034-0.285-0.070-0.422-0.026-0.098-0.059-0.194-0.099-0.287-0.16-0.381-0.426-0.714-0.773-0.955-0.051-0.035-0.103-0.069-0.157-0.101l-11.947-6.895c-0.043-0.025-0.086-0.048-0.13-0.069-0.175-0.086-0.359-0.148-0.547-0.185-0.141-0.028-0.284-0.042-0.426-0.042-0.095 0-0.19 0.006-0.285 0.018-0.284 0.037-0.562 0.129-0.818 0.277l-11.945 6.899c-0.053 0.030-0.103 0.063-0.152 0.098-0.212 0.147-0.393 0.328-0.54 0.534-0.061 0.086-0.116 0.177-0.164 0.271-0.029 0.056-0.056 0.114-0.080 0.172-0.027 0.065-0.051 0.132-0.071 0.2-0.062 0.203-0.095 0.417-0.095 0.636l0 1.532 0 1.119 0 1.698 0.001 5.092v0.001l0 1.697 0 2.655v0c0 0.181 0.022 0.36 0.065 0.531 0.032 0.129 0.075 0.254 0.13 0.374 0.018 0.040 0.037 0.079 0.058 0.118 0.041 0.078 0.086 0.153 0.136 0.225 0.149 0.217 0.337 0.408 0.558 0.561 0.051 0.035 0.103 0.069 0.157 0.101l11.948 6.895c0.128 0.074 0.261 0.134 0.399 0.18 0.365 0.123 0.755 0.148 1.131 0.074 0.141-0.028 0.279-0.069 0.414-0.125 0.045-0.018 0.089-0.038 0.133-0.060s0.087-0.045 0.13-0.069l11.945-6.899c0.053-0.030 0.103-0.063 0.152-0.098 0.111-0.077 0.214-0.163 0.307-0.257 0.063-0.063 0.121-0.129 0.175-0.198 0.19-0.243 0.327-0.524 0.402-0.825 0.043-0.172 0.065-0.351 0.065-0.532l-0-1.532z"></path>
<path fill="#ff4b55" d="M30.153 21.363l-0-1.119-0-1.698-0.001-5.093-0-1.698-0-1.119h-28.304l0 1.119 0 1.698 0.001 5.092v0.001l0 1.697 0 1.119 14.385 1.432z"></path>
<path fill="#ffe15a" d="M29.203 24.708c0 0 0-0 0-0 0.049-0.034 0.096-0.071 0.142-0.108 0.012-0.009 0.023-0.019 0.034-0.029 0.045-0.038 0.089-0.078 0.13-0.119 0-0 0-0 0.001-0 0.063-0.063 0.121-0.129 0.175-0.198 0.026-0.033 0.050-0.066 0.074-0.1 0.008-0.011 0.015-0.023 0.022-0.034 0.015-0.023 0.031-0.047 0.045-0.070 0.008-0.014 0.016-0.028 0.024-0.041 0.013-0.022 0.026-0.044 0.038-0.067 0.008-0.015 0.016-0.030 0.023-0.045 0.011-0.022 0.022-0.045 0.033-0.068 0.007-0.015 0.014-0.030 0.021-0.046 0.010-0.023 0.020-0.047 0.030-0.071 0.006-0.015 0.012-0.030 0.018-0.045 0.010-0.026 0.019-0.053 0.028-0.080 0.004-0.013 0.009-0.026 0.013-0.038 0.012-0.040 0.024-0.079 0.034-0.12 0-0 0-0 0-0.001 0.043-0.172 0.065-0.351 0.065-0.532l-0-1.532h-28.304l0 1.536v0c0 0.181 0.022 0.36 0.065 0.531 0.014 0.057 0.032 0.113 0.050 0.169 0.005 0.014 0.009 0.028 0.014 0.042 0.020 0.055 0.041 0.11 0.065 0.163 0 0 0 0 0 0 0.018 0.039 0.036 0.077 0.056 0.115 0.001 0.001 0.001 0.002 0.002 0.003 0.002 0.004 0.004 0.008 0.007 0.012 0.032 0.061 0.068 0.119 0.105 0.177 0.008 0.012 0.015 0.025 0.024 0.037 0 0 0 0 0 0 0.033 0.048 0.069 0.094 0.106 0.14 0.009 0.011 0.019 0.023 0.028 0.034 0.038 0.045 0.077 0.089 0.118 0.13s0.085 0.081 0.13 0.12c0.011 0.010 0.023 0.019 0.034 0.029 0.046 0.038 0.093 0.074 0.142 0.109 0.051 0.035 0.103 0.069 0.157 0.101l11.948 6.895c0.038 0.022 0.077 0.043 0.117 0.062 0.012 0.006 0.024 0.012 0.036 0.017 0.029 0.014 0.058 0.027 0.088 0.040 0.012 0.005 0.024 0.010 0.037 0.015 0.040 0.016 0.080 0.031 0.12 0.045 0 0 0.001 0 0.001 0 0.131 0.044 0.264 0.075 0.399 0.094 0.196 0.027 0.394 0.029 0.59 0.003 0.047-0.006 0.094-0.014 0.141-0.023 0.042-0.008 0.084-0.018 0.126-0.029 0.012-0.003 0.025-0.007 0.037-0.010 0.031-0.009 0.062-0.018 0.092-0.028 0.012-0.004 0.024-0.008 0.036-0.012 0.041-0.014 0.082-0.029 0.122-0.046 0.020-0.008 0.040-0.018 0.060-0.027 0.024-0.011 0.049-0.021 0.073-0.033 0.037-0.018 0.074-0.038 0.11-0.059 0.006-0.004 0.013-0.007 0.020-0.010l11.945-6.899c0.052-0.030 0.103-0.063 0.152-0.097z"></path>
</svg>
