<svg xmlns="http://www.w3.org/2000/svg" width="32" height="32" version="1.1" viewBox="0 0 32 32"><title>pakistan</title><path fill="#f5f5f5" d="M30.151 9.1c-0-0.788-0.421-1.516-1.103-1.91l-11.948-6.895c-0.682-0.394-1.523-0.394-2.205 0l-11.945 6.899c-0.682 0.394-1.103 1.122-1.102 1.91l0.002 13.794c0 0.788 0.421 1.516 1.103 1.91l11.948 6.895c0.682 0.394 1.523 0.394 2.205-0l11.945-6.899c0.682-0.394 1.102-1.122 1.102-1.91l-0.002-13.794z"/><path fill="#73af00" d="M30.151 9.1c-0-0.788-0.421-1.516-1.103-1.91l-11.948-6.895c-0.682-0.394-1.523-0.394-2.205 0l-5.832 3.369v24.671l5.838 3.369c0.682 0.394 1.523 0.394 2.205-0l11.945-6.899c0.682-0.394 1.102-1.122 1.102-1.91l-0.002-13.794z"/><path fill="#f5f5f5" d="M26.203 18.881c-2.531 2.254-6.405 2.023-8.654-0.512-2.246-2.53-2.018-6.416 0.512-8.67 0.004-0.003 0.007-0.007 0.011-0.010 0.060-0.053 0.002-0.148-0.072-0.119-2.496 0.972-4.265 3.399-4.265 6.241 0 3.702 2.994 6.701 6.687 6.701 2.555 0 4.769-1.438 5.894-3.548 0.038-0.070-0.050-0.139-0.11-0.086-0.001 0.001-0.002 0.002-0.003 0.003z"/><path fill="#f5f5f5" d="M22.948 10.81l0.879 0.987 1.218-0.513c0.158-0.066 0.309 0.106 0.223 0.254l-0.667 1.141 0.864 1c0.112 0.13-0.005 0.327-0.173 0.29l-1.291-0.281-0.684 1.131c-0.089 0.146-0.313 0.096-0.33-0.075l-0.131-1.315-1.287-0.301c-0.167-0.039-0.188-0.268-0.031-0.336l1.21-0.531-0.111-1.317c-0.014-0.17 0.197-0.261 0.311-0.133z"/></svg>