<svg xmlns="http://www.w3.org/2000/svg" width="32" height="32" version="1.1" viewBox="0 0 32 32"><title>panama</title><path fill="#f5f5f5" d="M30.152 16l-0.001-6.9c-0-0.788-0.421-1.516-1.103-1.91l-11.948-6.895c-0.34-0.197-0.72-0.295-1.1-0.295-0.382-0-0.763 0.098-1.105 0.296l-11.945 6.899c-0.682 0.394-1.103 1.122-1.102 1.91l0.001 6.895 0.001 6.9c0 0.788 0.421 1.516 1.103 1.91l11.948 6.895c0.34 0.197 0.72 0.295 1.1 0.295 0.382 0 0.763-0.098 1.105-0.296l11.945-6.899c0.682-0.394 1.102-1.122 1.102-1.91l-0.001-6.895z"/><path fill="#ff4b55" d="M30.152 16l-0.001-6.9c-0-0.788-0.421-1.516-1.103-1.91l-11.948-6.895c-0.34-0.197-0.72-0.295-1.1-0.295v16h14.152z"/><path fill="#4173cd" d="M1.848 16l0.001 6.9c0 0.788 0.421 1.516 1.103 1.91l11.948 6.895c0.34 0.197 0.72 0.295 1.1 0.295v-16h-14.152z"/><path fill="#4173cd" d="M8.497 8.683l0.507 1.519 1.602 0.012c0.207 0.002 0.293 0.266 0.127 0.389l-1.289 0.951 0.483 1.527c0.063 0.198-0.163 0.361-0.331 0.241l-1.303-0.931-1.303 0.931c-0.169 0.121-0.394-0.043-0.331-0.241l0.483-1.527-1.288-0.951c-0.167-0.123-0.081-0.388 0.127-0.389l1.602-0.012 0.507-1.519c0.066-0.197 0.344-0.197 0.409 0z"/><path fill="#ff4b55" d="M23.912 18.783l0.507 1.519 1.602 0.012c0.207 0.002 0.293 0.266 0.127 0.389l-1.288 0.951 0.483 1.527c0.063 0.198-0.163 0.361-0.331 0.241l-1.303-0.931-1.303 0.931c-0.169 0.121-0.394-0.043-0.331-0.241l0.483-1.527-1.288-0.951c-0.167-0.123-0.081-0.388 0.127-0.389l1.602-0.012 0.507-1.519c0.066-0.197 0.344-0.197 0.41 0z"/></svg>