<!-- Generated by IcoMoon.io -->
<svg version="1.1" xmlns="http://www.w3.org/2000/svg" width="32" height="32" viewBox="0 0 32 32">
<title>philippines</title>
<path fill="#f5f5f5" d="M30.152 16l-0.001-6.9c-0-0.788-0.421-1.516-1.103-1.91l-11.948-6.895c-0.683-0.394-1.523-0.394-2.205 0l-11.945 6.899c-0.682 0.394-1.103 1.122-1.102 1.91l0.002 13.795c0 0.788 0.421 1.516 1.103 1.91l11.948 6.895c0.682 0.394 1.523 0.394 2.205-0l11.945-6.899c0.682-0.394 1.102-1.122 1.102-1.91l-0.001-6.895z"></path>
<path fill="#ff4b55" d="M6.37 26.782l8.53 4.923c0.682 0.394 1.523 0.394 2.205-0l11.945-6.899c0.682-0.394 1.102-1.122 1.102-1.91l-0.001-6.895-7.044-1.093-7.107 1.093-9.63 10.782z"></path>
<path fill="#41479b" d="M30.152 16l-0.001-6.9c-0-0.788-0.421-1.516-1.103-1.91l-11.948-6.895c-0.683-0.394-1.523-0.394-2.205 0l-8.524 4.923 9.63 10.781h14.152z"></path>
<path fill="#ffe15a" d="M8.647 16.004c0 0.927-0.752 1.679-1.679 1.679s-1.679-0.752-1.679-1.679c0-0.927 0.752-1.679 1.679-1.679s1.679 0.752 1.679 1.679z"></path>
<path fill="#ffe15a" d="M6.968 16.005l-0.63-2.518 0.63-0.839 0.63 0.839z"></path>
<path fill="#ffe15a" d="M6.968 16.005l0.63 2.518-0.63 0.84-0.63-0.84z"></path>
<path fill="#ffe15a" d="M6.968 16.005l-2.518 0.63-0.84-0.63 0.84-0.63z"></path>
<path fill="#ffe15a" d="M6.968 16.005l2.518-0.63 0.839 0.63-0.839 0.63z"></path>
<path fill="#ffe15a" d="M6.968 16.005l1.336-2.226 1.039-0.148-0.148 1.039z"></path>
<path fill="#ffe15a" d="M6.968 16.005l-1.336 2.226-1.039 0.148 0.148-1.039z"></path>
<path fill="#ffe15a" d="M6.968 16.005l-2.226-1.336-0.148-1.039 1.039 0.148z"></path>
<path fill="#ffe15a" d="M6.968 16.005l2.226 1.336 0.148 1.039-1.039-0.148z"></path>
<path fill="#ffe15a" d="M3.61 8.73l0.088 0.653-0.59 0.294c-0.076 0.038-0.060 0.151 0.024 0.167l0.648 0.119 0.098 0.652c0.013 0.084 0.125 0.104 0.166 0.029l0.313-0.58 0.65 0.108c0.084 0.014 0.138-0.087 0.079-0.149l-0.455-0.477 0.304-0.585c0.039-0.076-0.040-0.158-0.117-0.121l-0.594 0.285-0.462-0.47c-0.060-0.061-0.163-0.011-0.151 0.074z"></path>
<path fill="#ffe15a" d="M3.87 21.441l-0.111 0.65-0.65 0.106c-0.084 0.014-0.103 0.127-0.027 0.166l0.584 0.306-0.1 0.651c-0.013 0.084 0.089 0.137 0.15 0.077l0.471-0.461 0.588 0.297c0.076 0.038 0.157-0.042 0.12-0.119l-0.292-0.591 0.464-0.468c0.060-0.061 0.008-0.163-0.076-0.15l-0.652 0.096-0.301-0.586c-0.039-0.076-0.152-0.058-0.166 0.026z"></path>
<path fill="#ffe15a" d="M12.83 15.042l-0.379 0.539-0.633-0.184c-0.082-0.024-0.147 0.070-0.096 0.139l0.395 0.527-0.371 0.545c-0.048 0.070 0.021 0.162 0.102 0.134l0.624-0.213 0.403 0.521c0.052 0.067 0.16 0.030 0.159-0.056l-0.010-0.659 0.62-0.223c0.080-0.029 0.078-0.143-0.004-0.168l-0.63-0.194-0.020-0.659c-0.003-0.085-0.112-0.118-0.161-0.048z"></path>
</svg>
