<svg xmlns="http://www.w3.org/2000/svg" width="32" height="32" version="1.1" viewBox="0 0 32 32"><title>pitcairn-islands</title><path fill="#f5f5f5" d="M1.849 22.9l-0.002-13.795c-0-0.788 0.42-1.516 1.102-1.91l11.945-6.899c0.682-0.394 1.523-0.394 2.205-0l11.948 6.895c0.682 0.394 1.103 1.122 1.103 1.91l0.002 13.795c0 0.788-0.42 1.516-1.102 1.91l-11.945 6.899c-0.682 0.394-1.523 0.394-2.205 0l-11.947-6.895c-0.682-0.394-1.103-1.122-1.103-1.91z"/><path fill="#ff4b55" d="M2.585 7.459v8.552l1.231 0.457 1.382-0.457v-10.115l-2.249 1.299c-0.132 0.076-0.253 0.165-0.364 0.264z"/><path fill="#ff4b55" d="M6.048 5.405h9.952l0.234-2.058-0.234-2.125h-2.71z"/><path fill="#ff4b55" d="M6.751 6.799l8.754 9.095c0.002-0.001 0.004-0.003 0.005-0.004 0.004-0.003 0.008-0.007 0.011-0.010 0.028-0.021 0.478-0.424 0.478-0.427 0.010-0.229-0.005-0.639-0.003-0.699 0-0.004 0.001-0.007 0.001-0.011l-7.647-7.944-1.6-0z"/><path fill="#41479b" d="M30.151 9.1c-0-0.788-0.421-1.516-1.103-1.91l-11.948-6.895c-0.34-0.196-0.72-0.295-1.1-0.295v6.655h-6.636l6.636 6.959v1.060c0 0.023-0.001 0.046-0.002 0.069v0c-0 0.004-0.001 0.007-0.001 0.011-0.002 0.060-0.007 0.119-0.014 0.177-0.001 0.009-0.003 0.017-0.004 0.026-0.032 0.234-0.101 0.445-0.198 0.616-0.001 0.002-0.003 0.005-0.004 0.007-0.050 0.086-0.107 0.162-0.169 0.225-0.002 0.002-0.004 0.004-0.006 0.006-0.026 0.025-0.053 0.048-0.081 0.069-0.004 0.003-0.008 0.006-0.011 0.010-0.002 0.001-0.004 0.003-0.005 0.004v0c-0.104 0.075-0.219 0.117-0.34 0.117h-1.45l-7.735-8.111v8.111h-4.131l0.001 6.889c0 0.788 0.421 1.516 1.103 1.91l11.948 6.895c0.682 0.394 1.523 0.394 2.205-0l11.945-6.899c0.682-0.394 1.102-1.122 1.102-1.91l-0.002-13.795z"/><path fill="#73af00" d="M23.969 13.005c-0.011 0-0.023-0.004-0.033-0.011-0.008-0.006-0.788-0.614-0.329-1.645 0.012-0.027 0.044-0.039 0.072-0.027s0.040 0.044 0.027 0.072c-0.424 0.95 0.266 1.492 0.295 1.514 0.024 0.018 0.028 0.052 0.010 0.076-0.011 0.014-0.027 0.021-0.043 0.021z"/><path fill="#73af00" d="M23.52 12.115c-0.002 0-0.004-0-0.006-0-0.030-0.004-0.051-0.030-0.048-0.060 0.023-0.195 0.096-0.331 0.218-0.404 0.197-0.118 0.442-0.024 0.452-0.020 0.028 0.011 0.042 0.042 0.031 0.070s-0.043 0.042-0.070 0.031c-0.002-0.001-0.207-0.079-0.358 0.012-0.091 0.055-0.147 0.164-0.165 0.323-0.003 0.028-0.027 0.048-0.054 0.048z"/><path fill="#73af00" d="M23.667 11.416c-0.005-0.012-0.122-0.29-0.652-0.172-0.6 0.134-0.607 0.926-0.607 0.934 0 0.027 0.020 0.050 0.047 0.054 0.002 0 0.005 0 0.007 0 0.024 0 0.046-0.016 0.052-0.040 0.224-0.852 1.057-0.709 1.092-0.703 0.020 0.004 0.039-0.004 0.052-0.019s0.016-0.036 0.009-0.054z"/><path fill="#73af00" d="M23.543 11.857c0 0-0.362-0.23-0.511 0.063s-0.036 0.61 0.023 0.737c0 0 0.215-0.238 0.42-0.271 0.253-0.041 0.316-0.357 0.14-0.515-0.211-0.189-0.072-0.014-0.072-0.014z"/><path fill="#73af00" d="M23.937 11.317c-0.005 0.316 0.171 0.358 0.171 0.358 0.114-0.29-0.171-0.358-0.171-0.358z"/><path fill="#73af00" d="M23.882 11.982c0.002-0.3 0.206-0.334 0.206-0.334 0.123 0.279-0.206 0.334-0.206 0.334z"/><path fill="#ff4b55" d="M25.056 11.74c0 0-0.288-0.043-0.398-0.095-0.092-0.043-0.212-0.148-0.367-0.128-0.119 0-0.215 0.096-0.215 0.215s0.081 0.261 0.508 0.229c0.207-0.015 0.383 0.079 0.383 0.079-0.027-0.113 0.089-0.301 0.089-0.301z"/><path fill="#ffe15a" d="M24.758 11.834c0 0-0.442 0.031-0.538-0.041-0.090-0.066-0.066-0.171 0.026-0.181 0.138-0.015 0.513 0.222 0.513 0.222z"/><path fill="#b49b91" d="M25.617 12.334l-0.976 0.61-0.112-0.108 0.535-0.519 0.125 0.051 0.122-0.163-0.291-0.153c0 0-0.773 0.729-1.43 0.79-0.221 0.021-0.447 0.006-0.622-0.066l-0.394 0.568 0.827 0.705 1.213-0.047 1.003-1.363 0.176 0.081 0.149-0.176-0.325-0.21z"/><path fill="#9b8278" d="M22.896 13.976c-0.272 0-0.492-0.221-0.492-0.492s0.221-0.492 0.492-0.492c0.271 0 0.492 0.221 0.492 0.492s-0.221 0.492-0.492 0.492zM22.896 13.154c-0.182 0-0.33 0.148-0.33 0.33s0.148 0.33 0.33 0.33 0.33-0.148 0.33-0.33c0-0.182-0.148-0.33-0.33-0.33z"/><path fill="#73af00" d="M24.948 14.433c0 0 0.090-0.059 0.181-0.334l-0.185 0.027c0 0 0.036-0.154-0.005-0.267l-0.208 0.163c0 0-0.095-0.199-0.136-0.226 0 0-0.145 0.203-0.226 0.23 0 0-0.081-0.294-0.163-0.352l-0.14 0.199-0.208-0.163c0 0 0 0.14-0.005 0.172s-0.271-0.28-0.271-0.28-0.117 0.050-0.276 0.303l-0.199-0.203-0.081 0.267-0.276-0.072 0.045 0.158-0.24-0.018c0 0 0.041 0.235 0.158 0.316l2.233 0.081z"/><path fill="#73af00" d="M22.553 15.439c0 0-0.746 0.949-2.156 0.841l1.532 0.21 0.786-0.746-0.163-0.305z"/><path fill="#ffe15a" d="M20.119 16.137c0.149 0.108 1.071 0.373 1.735 0.054 0 0 0.014 0.156-0.061 0.244 0 0 0.488-0.197 0.752-0.563s-0.549 0.786-0.549 0.786l-1.247 0.23-0.508-0.42-0.122-0.332z"/><path fill="#ffe15a" d="M20.021 12.719c-0.166 0.014-0.345 0.114-0.436 0.235-0.050-0.021-0.161-0.031-0.253 0.031-0.122 0.082-0.348 0.376-0.538 0.298 0 0-0.017 0.278 0.278 0.268 0 0-0.075 0.115-0.061 0.298s-0.119 0.305-0.119 0.305 0.597 0.085 0.62-0.38c0.003-0.057 0.006-0.107 0.009-0.151 0.311 0.168 0.434-0.069 0.434-0.069s-0.187-0.177 0.003-0.428 0.714 0.342 0.714 0.342c0.010-0.237-0.011-0.802-0.651-0.748z"/><path fill="#73af00" d="M22.327 14.284c0 0-0.172 0.117-0.705 0.009 0 0 0.117-0.262 0.063-0.416 0 0-0.145 0.136-0.497 0.271s-0.786 0.569-0.913 0.85c0 0 0.793-1.828 0.156-2.013-0.218-0.064-0.406 0.040-0.473 0.141 0.032 0.038 0.063 0.092 0.066 0.164 0.007 0.156-0.149 1.207-0.38 1.932 0 0-0.068-0.251-0.176-0.373s-0.19-0.319-0.19-0.319-0.183 0.122-0.156 0.346c0 0-0.102-0.081-0.298-0.027s-0.271-0.075-0.271-0.075-0.163 0.434 0.319 0.658c0 0-0.129 0.061-0.19 0.108s-0.156 0.047-0.156 0.047 0.169 0.312 0.529 0.346 0.524 0.136 0.637 0.321c0.366 0.599 1.067 1.053 2.21 0.352 0 0-1.627 0.506-1.699-0.533-0.063-0.909 0.931-1.094 1.030-0.895s-0.009 0.371-0.009 0.371 0.542-0.127 0.28-0.624c0-0 0.533 0.081 0.823-0.642z"/><path fill="#73af00" d="M27.549 16.137c-0.149 0.108-1.091 0.515-1.742-0.136s-0.904-1.628-0.868-1.518h-0.651l0.217 1.952 2.413 0.454 0.508-0.42 0.122-0.332z"/><path fill="#73af00" d="M27.647 12.719c0.166 0.014 0.345 0.114 0.436 0.235 0.050-0.021 0.161-0.031 0.253 0.031 0.122 0.082 0.348 0.376 0.538 0.298 0 0 0.017 0.278-0.278 0.268 0 0 0.075 0.115 0.061 0.298s0.119 0.305 0.119 0.305-0.597 0.085-0.62-0.38c-0.003-0.057-0.006-0.107-0.009-0.151-0.311 0.168-0.434-0.069-0.434-0.069s0.187-0.177-0.003-0.428-0.714 0.342-0.714 0.342c-0.010-0.237 0.011-0.802 0.651-0.748z"/><path fill="#ffe15a" d="M25.341 14.284c0 0 0.172 0.117 0.705 0.009 0 0-0.117-0.262-0.063-0.416 0 0 0.145 0.136 0.497 0.271s0.786 0.569 0.913 0.85c0 0-0.793-1.828-0.156-2.013 0.218-0.064 0.406 0.040 0.473 0.141-0.032 0.038-0.063 0.092-0.066 0.164-0.007 0.156 0.149 1.207 0.38 1.932 0 0 0.068-0.251 0.176-0.373s0.19-0.319 0.19-0.319 0.183 0.122 0.156 0.346c0 0 0.102-0.081 0.298-0.027s0.271-0.075 0.271-0.075 0.163 0.434-0.319 0.658c0 0 0.129 0.061 0.19 0.108s0.156 0.047 0.156 0.047-0.169 0.312-0.529 0.346-0.524 0.136-0.637 0.321c-0.366 0.599-1.067 1.053-2.21 0.352 0 0 1.627 0.506 1.699-0.533 0.063-0.909-0.931-1.094-1.030-0.895s0.009 0.371 0.009 0.371-0.542-0.127-0.28-0.624c-0-0-0.533 0.081-0.823-0.642z"/><path fill="#73af00" d="M24.88 15.802c0.267 0.389 0.637 0.741 1.713 1.076s1.363 0.384 1.927 0.84c0 0 0.107 0.113 0.148 0.294 0.048 0.213-0.28 0.827-0.28 0.827s0.032-0.145-0.167-0.425-1.374-0.786-1.988-0.94c-0.615-0.154-1.677-0.867-1.383-1.401l0.031-0.271z"/><path fill="#73af00" d="M28.519 17.716c0 0.001 0.001 0.001 0.001 0.002-0.001-0.001-0.001-0.002-0.002-0.002l0.001 0z"/><path fill="#ffe15a" d="M28.491 19.038c0 0 0.027 0.197-0.136 0.366s-0.278 0.291-0.271 0.434c0 0-0.244-0.176-0.203-0.569 0 0-0.319 0.264-0.8 0.007 0 0 0.047-0.481 0.671-0.542 0 0-0.244-0.19 0.075-0.481 0 0 0.037 0.13 0.325 0.197 0.251 0.058 0.697-0.257 0.367-0.73 0.568 0.642 0.277 1.083-0.028 1.32z"/><path fill="#ffe15a" d="M24.647 15.445c0 0 0.137 0.225 0.495 0.443 0.429 0.262 0.468 0.384 0.468 0.384l-0.291-0.007c0 0 0.373 0.203 0.474 0.461 0 0-0.156 0.027-0.332-0.020 0 0 0.142 0.129 0.075 0.542h-0.725l-0.163-1.803z"/><path fill="#73af00" d="M23.204 17.303v-1.735c0 0-0.589 1.008-1.098 1.735h1.098z"/><path fill="#ffe15a" d="M22.697 15.531c-0.145 0.262-0.597 1.125-1.672 1.46s-1.272 0.271-1.836 0.727c0 0-0.107 0.113-0.148 0.294-0.048 0.213 0.28 0.827 0.28 0.827s-0.032-0.145 0.167-0.425 1.367-0.816 1.988-0.94c0.859-0.172 1.636-1.094 1.51-1.69s-0.29-0.253-0.29-0.253z"/><path fill="#73af00" d="M19.19 17.716c-0 0.001-0.001 0.001-0.001 0.002 0.001-0.001 0.001-0.002 0.002-0.002l-0.001 0z"/><path fill="#73af00" d="M19.217 19.038c0 0-0.027 0.197 0.136 0.366s0.278 0.291 0.271 0.434c0 0 0.244-0.176 0.203-0.569 0 0 0.319 0.264 0.8 0.007 0 0-0.047-0.481-0.671-0.542 0 0 0.244-0.19-0.075-0.481 0 0-0.037 0.13-0.325 0.197-0.251 0.058-0.697-0.257-0.367-0.73-0.568 0.642-0.277 1.083 0.028 1.32z"/><path fill="#ffe15a" d="M20.718 21.93c0 0 0.154 0.691 0.163 1.405 0 0 0.673 0.023 0.999-0.484 0 0-0.651-0.339-0.999-0.994l-0.163 0.072z"/><path fill="#73af00" d="M20.573 20.403c-0.027-0.325 0.117-1.148 0.777-1.744l0.016-0.73c0 0-0.197 0.020-0.371 0.173l-0.373 0.578-0.346 1.308 0.296 0.416z"/><path fill="#ffe15a" d="M20.591 20.638c0 0 0 0.696 0.289 1.22l-0.163 0.072c0 0-0.583-0.459-0.705-1.401 0 0-0.522 0.346-0.714-0.362 0 0 0.56 0.226 0.741-0.289 0.163-0.465 0.328-1.311 0.956-1.778-0.299 0.459-0.748 1.633-0.4 2.049 0.092 0.11 0.357 0.203 0.647 0.080-0.019 0.231-0.129 0.585-0.651 0.409z"/><path fill="#ffce5a" d="M20.676 22.054l-0.095-0.175c-0.017-0.031-0.005-0.069 0.025-0.086l0.174-0.095c0.031-0.017 0.069-0.005 0.085 0.025l0.095 0.175c0.017 0.031 0.005 0.069-0.025 0.086l-0.174 0.095c-0.031 0.017-0.069 0.005-0.085-0.025z"/><path fill="#ffe15a" d="M26.557 21.93c0 0-0.154 0.691-0.163 1.405 0 0-0.673 0.023-0.999-0.484 0 0 0.651-0.339 0.999-0.994l0.163 0.072z"/><path fill="#ffe15a" d="M26.701 20.403c0.027-0.325-0.117-1.148-0.777-1.744l-0.016-0.73c0 0 0.197 0.020 0.371 0.173l0.373 0.578 0.346 1.308-0.296 0.416z"/><path fill="#73af00" d="M26.032 20.229c0.29 0.124 0.555 0.031 0.647-0.080 0.348-0.416-0.101-1.59-0.4-2.049 0.628 0.467 0.793 1.313 0.956 1.778 0.181 0.515 0.741 0.289 0.741 0.289-0.192 0.707-0.714 0.362-0.714 0.362-0.122 0.942-0.705 1.401-0.705 1.401l-0.163-0.072c0.289-0.524 0.289-1.22 0.289-1.22-0.522 0.176-0.633-0.177-0.651-0.409z"/><path fill="#ffce5a" d="M26.599 22.054l0.095-0.175c0.017-0.031 0.005-0.069-0.025-0.086l-0.174-0.095c-0.031-0.017-0.069-0.005-0.085 0.025l-0.095 0.175c-0.017 0.031-0.005 0.069 0.025 0.086l0.174 0.095c0.031 0.017 0.069 0.005 0.085-0.025z"/><path fill="#4173cd" d="M21.468 17.086c-0.12 0-0.217 0.097-0.217 0.217v2.386c0 0.651 0.217 3.037 2.386 3.905 2.169-0.868 2.386-3.254 2.386-3.905v-2.386c0-0.12-0.097-0.217-0.217-0.217h-4.338z"/><path fill="#ffe15a" d="M23.506 17.086l-2.057 3.943c0.052 0.182 0.116 0.371 0.196 0.562l1.992-3.819 1.992 3.819c0.081-0.191 0.145-0.379 0.196-0.562l-2.057-3.943h-0.263z"/><path fill="#73af00" d="M25.63 21.591l-1.992-3.819-1.992 3.819c0.328 0.777 0.922 1.575 1.992 2.003 1.070-0.428 1.664-1.226 1.992-2.003v0z"/><path fill="#ffe15a" d="M24.444 21.838l0.131 0.063c-0.055 0.081-0.17 0.213-0.389 0.332-0.165 0.090-0.325 0.197-0.441 0.278v-1.79l0.542-0.056v-0.217l-0.542-0.056v-0.27c0-0.060-0.049-0.108-0.108-0.108-0.051 0-0.092 0.036-0.103 0.084-0.036-0.026-0.078-0.044-0.125-0.044-0.121 0-0.22 0.099-0.22 0.22 0 0.057 0.023 0.108 0.059 0.147l-0.261 0.027v0.217l0.542 0.056v1.79c-0.115-0.082-0.275-0.188-0.441-0.278-0.219-0.119-0.334-0.251-0.389-0.332l0.131-0.063-0.495-0.63v0.868l0.167-0.080c0.066 0.106 0.206 0.278 0.482 0.428 0.231 0.126 0.456 0.289 0.544 0.356l0.108 0.084 0.108-0.084c0.089-0.067 0.313-0.23 0.544-0.356 0.276-0.15 0.416-0.322 0.482-0.428l0.167 0.080v-0.868l-0.495 0.63zM23.408 20.386c-0.062 0-0.112-0.050-0.112-0.112s0.050-0.112 0.112-0.112 0.112 0.050 0.112 0.112-0.050 0.112-0.112 0.112z"/><path fill="#f5f5f5" d="M23.767 19.906h-0.259c-0.108 0-0.196-0.088-0.196-0.196v-0.476c0-0.108 0.088-0.196 0.196-0.196h0.259c0.108 0 0.196 0.088 0.196 0.196v0.476c0 0.108-0.088 0.196-0.196 0.196z"/><path fill="#b49b91" d="M25.156 17.086c-0.434-0.651-0.434-1.952-0.434-1.952s0-0.868-1.085-0.868c-0.549 0-0.82 0.223-0.954 0.442-0.521 0.209-0.782 0.642-0.782 0.642 0.222 0.111 0.418 0.164 0.596 0.177 0.354 0.421 0.471 0.827 0.503 1.119-0.204 0.208-0.317 0.71-0.014 1.089 0 0 0.642-0.149 1.183-0.651l0.986-0z"/><path fill="#9b8278" d="M24.17 17.086h0.81c-0.041-0.4-0.434-0.335-0.81 0z"/><path fill="#9b8278" d="M24.959 16.676c-0.237-0.673-0.237-1.543-0.237-1.543s-0-0.014-0.002-0.039c-0.282-0.038-0.572-0.018-1.137 0.201-0.602 0.233-0.896 0.24-1.085 0.232 0.354 0.421 0.471 0.827 0.503 1.119l0.009 0.461c0 0 0.339 0.050 1.085-0.38 0.372-0.214 0.687-0.232 0.866-0.052z"/><path fill="#9b8278" d="M23.805 15.039c0.44-0.11 0.721-0.099 0.902-0.034-0.048-0.242-0.248-0.738-1.069-0.738-0.549 0-0.82 0.223-0.954 0.442l-0.33 0.461c-0 0 0.412 0.129 1.451-0.131z"/><path fill="#ffe15a" d="M22.921 14.171c0.043 0.043 0.17 0.35 0.144 0.396-0.017 0.029-0.356 0.114-0.411 0.071-0.049-0.038-0.107-0.369-0.074-0.408 0.030-0.035 0.305-0.094 0.341-0.059z"/><path fill="#73af00" d="M23.357 14.154c0.039 0.045 0.129 0.346 0.093 0.384-0.023 0.025-0.401 0.055-0.454 0.007-0.047-0.042-0.057-0.355-0.016-0.385 0.037-0.027 0.343-0.044 0.376-0.006z"/><path fill="#ffe15a" d="M23.77 14.143c0.041 0.043 0.134 0.325 0.098 0.361-0.023 0.023-0.415 0.050-0.469 0.006-0.049-0.040-0.060-0.333-0.017-0.362 0.039-0.026 0.355-0.040 0.389-0.005z"/><path fill="#73af00" d="M24.19 14.163c0.036 0.046 0.104 0.343 0.066 0.377-0.024 0.022-0.404 0.023-0.453-0.027-0.044-0.044-0.032-0.346 0.011-0.373 0.039-0.024 0.345-0.017 0.376 0.022z"/><path fill="#73af00" d="M25.056 14.342c0.028 0.052 0.025 0.327-0.018 0.355-0.028 0.018-0.369-0.043-0.41-0.1-0.036-0.051 0.025-0.347 0.072-0.366 0.043-0.017 0.332 0.068 0.355 0.111z"/><path fill="#ffe15a" d="M24.658 14.225c0.034 0.047 0.060 0.323 0.019 0.353-0.027 0.019-0.417-0.013-0.465-0.064-0.042-0.046-0.011-0.331 0.035-0.352 0.042-0.019 0.382 0.024 0.411 0.063z"/><path fill="#9b8278" d="M23.044 13.484c0 0.082-0.066 0.148-0.148 0.148s-0.148-0.066-0.148-0.148c0-0.082 0.066-0.148 0.148-0.148s0.148 0.066 0.148 0.148z"/></svg>