<svg xmlns="http://www.w3.org/2000/svg" width="32" height="32" version="1.1" viewBox="0 0 32 32"><title>portugal</title><path fill="#ff4b55" d="M30.151 9.1c-0-0.788-0.421-1.516-1.103-1.91l-11.948-6.895c-0.683-0.394-1.523-0.394-2.205 0l-11.945 6.899c-0.682 0.394-1.103 1.122-1.102 1.91l0.002 13.795c0 0.788 0.421 1.516 1.103 1.91l11.948 6.895c0.682 0.394 1.523 0.394 2.205-0l11.945-6.899c0.682-0.394 1.102-1.122 1.102-1.91l-0.002-13.794z"/><path fill="#73af00" d="M1.847 9.105l0.002 13.795c0 0.788 0.421 1.516 1.103 1.91l9.105 5.255v-28.13l-9.108 5.26c-0.682 0.394-1.103 1.122-1.102 1.91z"/><path fill="#ffe15a" d="M17.708 16c0 3.103-2.516 5.619-5.619 5.619s-5.619-2.516-5.619-5.619c0-3.103 2.516-5.619 5.619-5.619s5.619 2.516 5.619 5.619z"/><path fill="#ff4b55" d="M13.964 14.126v2.499c0 1.034-0.841 1.875-1.874 1.875s-1.874-0.841-1.874-1.875v-2.499h3.749zM14.589 12.876h-4.999c-0.345 0-0.625 0.28-0.625 0.625v3.124c0 1.725 1.399 3.124 3.124 3.124s3.124-1.399 3.124-3.124v-3.124c0-0.345-0.28-0.625-0.625-0.625v0z"/><path fill="#f5f5f5" d="M13.964 14.126v2.499c0 1.034-0.841 1.875-1.874 1.875s-1.874-0.841-1.874-1.875v-2.499h3.749z"/><path fill="#ffe15a" d="M9.898 13.501c0 0.173-0.14 0.312-0.312 0.312s-0.312-0.14-0.312-0.312c0-0.173 0.14-0.312 0.312-0.312s0.312 0.14 0.312 0.312z"/><path fill="#ffe15a" d="M14.897 13.501c0 0.173-0.14 0.312-0.312 0.312s-0.312-0.14-0.312-0.312c0-0.173 0.14-0.312 0.312-0.312s0.312 0.14 0.312 0.312z"/><path fill="#ffe15a" d="M9.898 16c0 0.173-0.14 0.312-0.312 0.312s-0.312-0.14-0.312-0.312c0-0.173 0.14-0.312 0.312-0.312s0.312 0.14 0.312 0.312z"/><path fill="#ffe15a" d="M14.897 16c0 0.173-0.14 0.312-0.312 0.312s-0.312-0.14-0.312-0.312c0-0.173 0.14-0.312 0.312-0.312s0.312 0.14 0.312 0.312z"/><path fill="#ffe15a" d="M12.398 13.501c0 0.173-0.14 0.312-0.312 0.312s-0.312-0.14-0.312-0.312c0-0.173 0.14-0.312 0.312-0.312s0.312 0.14 0.312 0.312z"/><path fill="#ffe15a" d="M14.273 18.304c0 0.173-0.14 0.312-0.312 0.312s-0.312-0.14-0.312-0.312c0-0.173 0.14-0.312 0.312-0.312s0.312 0.14 0.312 0.312z"/><path fill="#ffe15a" d="M10.559 18.304c0 0.173-0.14 0.312-0.312 0.312s-0.312-0.14-0.312-0.312c0-0.173 0.14-0.312 0.312-0.312s0.312 0.14 0.312 0.312z"/><path fill="#41479b" d="M12.493 15.842v0.538c0 0.223-0.181 0.404-0.404 0.404s-0.404-0.181-0.404-0.404v-0.538h0.807z"/><path fill="#41479b" d="M12.493 14.566v0.538c0 0.223-0.181 0.404-0.404 0.404s-0.404-0.181-0.404-0.404v-0.538h0.807z"/><path fill="#41479b" d="M12.493 17.13v0.538c0 0.223-0.181 0.404-0.404 0.404s-0.404-0.181-0.404-0.404v-0.538h0.807z"/><path fill="#41479b" d="M13.58 15.842v0.538c0 0.223-0.181 0.404-0.404 0.404s-0.404-0.181-0.404-0.404v-0.538h0.807z"/><path fill="#41479b" d="M11.406 15.842v0.538c0 0.223-0.181 0.404-0.404 0.404s-0.404-0.181-0.404-0.404v-0.538h0.807z"/></svg>