<svg xmlns="http://www.w3.org/2000/svg" width="32" height="32" version="1.1" viewBox="0 0 32 32"><title>puerto-rico</title><path fill="#f5f5f5" d="M1.849 22.9l-0.002-13.795c-0-0.788 0.42-1.516 1.102-1.91l11.945-6.899c0.682-0.394 1.523-0.394 2.205-0l11.948 6.895c0.682 0.394 1.103 1.122 1.103 1.91l0.002 13.795c0 0.788-0.42 1.516-1.102 1.91l-11.945 6.899c-0.682 0.394-1.523 0.394-2.205 0l-11.948-6.895c-0.682-0.394-1.103-1.122-1.103-1.91z"/><path fill="#ff4b55" d="M27.448 6.267l-10.348-5.972c-0.682-0.394-1.523-0.394-2.205 0l-8.252 4.766-0.015 1.205 20.82-0z"/><path fill="#ff4b55" d="M16.219 19.244h13.934l-0.001-6.489h-13.933z"/><path fill="#ff4b55" d="M6.642 26.939l8.258 4.766c0.682 0.394 1.523 0.394 2.205-0l10.339-5.972h-20.817l0.014 1.206z"/><path fill="#41479b" d="M19.594 15.468l-12.951-10.406-3.693 2.133c-0.682 0.394-1.103 1.122-1.102 1.91l0.001 3.651 0.001 6.489 0.001 3.655c0 0.788 0.421 1.516 1.103 1.91l3.689 2.129 12.952-10.406c0.313-0.252 0.313-0.814 0-1.065z"/><path fill="#f5f5f5" d="M8.738 13.1l0.652 1.955 2.061 0.016c0.267 0.002 0.377 0.343 0.163 0.501l-1.658 1.224 0.622 1.965c0.080 0.254-0.209 0.465-0.426 0.31l-1.677-1.198-1.677 1.198c-0.217 0.155-0.507-0.055-0.426-0.31l0.622-1.965-1.658-1.224c-0.215-0.159-0.104-0.499 0.163-0.501l2.061-0.016 0.652-1.955c0.085-0.253 0.443-0.253 0.527 0z"/></svg>