<svg xmlns="http://www.w3.org/2000/svg" width="32" height="32" version="1.1" viewBox="0 0 32 32"><title>qatar</title><path fill="#f5f5f5" d="M1.849 22.9l-0.002-13.794c-0-0.788 0.42-1.516 1.102-1.91l11.945-6.899c0.682-0.394 1.523-0.394 2.205-0l11.947 6.895c0.682 0.394 1.103 1.122 1.103 1.91l0.002 13.794c0 0.788-0.42 1.516-1.102 1.91l-11.945 6.899c-0.682 0.394-1.523 0.394-2.205 0l-11.947-6.895c-0.682-0.394-1.103-1.122-1.103-1.91z"/><path fill="#873250" d="M30.151 9.1c-0-0.788-0.421-1.516-1.103-1.91l-11.947-6.895c-0.682-0.394-1.523-0.394-2.205 0l-0.976 0.563 1.962 0.6c0.214 0.065 0.214 0.368-0 0.433l-4.453 1.356c-0.214 0.065-0.214 0.368-0 0.433l4.453 1.361c0.214 0.065 0.214 0.368-0 0.433l-4.453 1.356c-0.214 0.065-0.214 0.368-0 0.433l4.453 1.361c0.214 0.065 0.214 0.368-0 0.433l-4.452 1.355c-0.214 0.065-0.214 0.368 0 0.433l4.452 1.355c0.214 0.065 0.214 0.368 0 0.433l-4.453 1.361c-0.214 0.065-0.214 0.368 0 0.433l4.453 1.356c0.214 0.065 0.214 0.368 0 0.433l-4.453 1.361c-0.214 0.065-0.214 0.368 0 0.433l4.453 1.356c0.214 0.065 0.214 0.368 0 0.433l-4.453 1.361c-0.214 0.065-0.214 0.368 0 0.433l4.453 1.356c0.214 0.065 0.214 0.368 0 0.433l-4.453 1.361c-0.214 0.065-0.214 0.368 0 0.433l4.452 1.356c0.214 0.065 0.214 0.368 0 0.433l-4.452 1.356c-0.214 0.065-0.214 0.368-0 0.433l4.453 1.361c0.214 0.065 0.214 0.368-0 0.433l-1.956 0.596 0.974 0.562c0.682 0.394 1.523 0.394 2.205-0l11.945-6.899c0.682-0.394 1.102-1.122 1.102-1.91l-0.002-13.795z"/></svg>