<!-- Generated by IcoMoon.io -->
<svg version="1.1" xmlns="http://www.w3.org/2000/svg" width="32" height="32" viewBox="0 0 32 32">
<title>rapa-nui</title>
<path fill="#f5f5f5" d="M30.153 22.895l-0-2.651-0-1.698-0.001-5.093-0-1.698-0-2.655c-0-0.194-0.026-0.384-0.075-0.567-0.026-0.098-0.059-0.194-0.099-0.287-0.16-0.381-0.426-0.714-0.773-0.955-0.051-0.035-0.103-0.069-0.157-0.101l-11.947-6.895c-0.682-0.394-1.523-0.394-2.205 0l-11.945 6.899c-0.053 0.030-0.103 0.063-0.152 0.098-0.212 0.147-0.393 0.328-0.54 0.534-0.098 0.138-0.18 0.287-0.244 0.443-0.107 0.261-0.166 0.544-0.166 0.836l0 2.651 0 1.698 0.001 5.092v0.001l0 1.697 0 2.655v0c0 0.725 0.357 1.399 0.946 1.809 0.051 0.035 0.103 0.069 0.157 0.101l11.948 6.895c0.682 0.394 1.523 0.394 2.205-0l11.945-6.899c0.053-0.030 0.103-0.063 0.152-0.098 0.591-0.41 0.95-1.085 0.95-1.813v0 0z"></path>
<path fill="#ff4b55" d="M27.711 10.125c-0.088-0.031-0.187 0.015-0.218 0.104-0.113 0.319-0.235 0.605-0.362 0.875-0.323 0.319-0.724 0.557-1.112 0.627-0.627 0.114-0.932 0.418-0.932 0.418-1.103-0.323-1.312 0.285-1.559 0.551-0.138 0.149-0.318 0.201-0.48 0.202-0.591-0.322-0.988-0.715-0.996-0.722-0.066-0.067-0.175-0.068-0.242-0.001s-0.068 0.175-0.001 0.242c0.050 0.051 1.012 1.004 2.246 1.202-0.358 0.105-0.622 0.179-0.622 0.179s-0.399 0-1.597 0.97-2.034 1.065-2.567 1.046c-0.532-0.019-0.932-0.209-1.502 0.228s-1.312 0.361-1.768 0.361c-0.456 0-1.198 0.076-1.768-0.361s-0.97-0.247-1.502-0.228c-0.532 0.019-1.369-0.076-2.567-1.046s-1.597-0.97-1.597-0.97-0.264-0.074-0.622-0.179c1.234-0.198 2.196-1.152 2.246-1.202 0.066-0.067 0.066-0.176-0.001-0.242s-0.176-0.066-0.242 0.001c-0.007 0.007-0.405 0.4-0.996 0.722-0.162-0.002-0.341-0.053-0.48-0.202-0.247-0.266-0.456-0.874-1.559-0.551 0 0-0.304-0.304-0.932-0.418-0.388-0.070-0.789-0.308-1.112-0.627-0.127-0.27-0.249-0.556-0.362-0.875-0.031-0.090-0.13-0.135-0.218-0.104s-0.136 0.129-0.104 0.218c0.003 0.010 0.007 0.018 0.011 0.027 0.017 0.088 0.364 1.839 1.633 3.053 0.894 0.855 1.761 2.16 2.129 2.89 1.198 2.377 3.479 5.57 8.042 5.57s6.844-3.194 8.042-5.57c0.368-0.73 1.235-2.035 2.129-2.89 1.27-1.214 1.617-2.965 1.633-3.053 0.003-0.010 0.007-0.018 0.011-0.027 0.032-0.089-0.015-0.187-0.104-0.218z"></path>
</svg>
