<!-- Generated by IcoMoon.io -->
<svg version="1.1" xmlns="http://www.w3.org/2000/svg" width="32" height="32" viewBox="0 0 32 32">
<title>romania</title>
<path fill="#ffe15a" d="M30.151 9.1c-0-0.788-0.421-1.516-1.103-1.91l-11.948-6.895c-0.683-0.394-1.523-0.394-2.205 0l-11.945 6.899c-0.682 0.394-1.103 1.122-1.102 1.91l0.002 13.795c0 0.788 0.421 1.516 1.103 1.91l11.948 6.895c0.682 0.394 1.523 0.394 2.205-0l11.945-6.899c0.682-0.394 1.102-1.122 1.102-1.91l-0.002-13.794z"></path>
<path fill="#41479b" d="M2.949 7.195c-0.682 0.394-1.103 1.122-1.102 1.91l0.002 13.795c0 0.788 0.421 1.516 1.103 1.91l8.27 4.773v-27.166l-8.273 4.778z"></path>
<path fill="#ff4b55" d="M29.051 24.805c0.682-0.394 1.102-1.122 1.102-1.91l-0.002-13.795c-0-0.788-0.421-1.516-1.103-1.91l-8.27-4.773v27.166l8.273-4.779z"></path>
</svg>
