<svg xmlns="http://www.w3.org/2000/svg" width="32" height="32" version="1.1" viewBox="0 0 32 32"><title>rwanda</title><path fill="#ffe15a" d="M30.075 23.471v0c0.012-0.046 0.023-0.093 0.033-0.14 0-0 0-0.001 0-0.001 0.009-0.044 0.016-0.089 0.023-0.134 0.001-0.004 0.001-0.008 0.002-0.012 0.006-0.041 0.009-0.082 0.013-0.123 0.001-0.008 0.002-0.015 0.002-0.023 0.003-0.048 0.005-0.096 0.005-0.144l-0-2.651-0-1.698-0-1.523-14.074-1.883-14.23 1.883 0 1.523 0 1.698 0 2.655c0 0.048 0.002 0.096 0.005 0.143 0 0.007 0.001 0.014 0.002 0.021 0.003 0.041 0.007 0.083 0.012 0.123 0 0.003 0.001 0.007 0.002 0.010 0.006 0.045 0.014 0.089 0.022 0.134 0 0 0 0 0 0 0.009 0.047 0.020 0.093 0.033 0.139v0l14.152 1.901 13.997-1.901z"/><path fill="#73af00" d="M29.747 24.168c0.001-0.002 0.003-0.004 0.004-0.006 0.036-0.051 0.069-0.103 0.101-0.157 0.002-0.003 0.003-0.006 0.005-0.008 0.095-0.165 0.169-0.341 0.219-0.526v-0l-28.15 0c0.050 0.184 0.123 0.361 0.217 0.525 0.002 0.003 0.004 0.007 0.006 0.010 0.031 0.054 0.064 0.106 0.1 0.157 0.001 0.002 0.003 0.003 0.004 0.005 0.033 0.046 0.067 0.091 0.103 0.134 0.007 0.008 0.013 0.016 0.020 0.024 0.038 0.045 0.078 0.089 0.12 0.131 0.003 0.003 0.006 0.005 0.009 0.008 0.038 0.038 0.078 0.074 0.119 0.109 0.011 0.009 0.022 0.019 0.034 0.028 0.045 0.037 0.091 0.073 0.139 0.106 0.051 0.035 0.103 0.069 0.157 0.101l11.948 6.895c0.682 0.394 1.523 0.394 2.205-0l11.945-6.899c0.053-0.030 0.103-0.063 0.152-0.098 0.048-0.033 0.094-0.069 0.139-0.106 0.011-0.009 0.023-0.019 0.034-0.028 0.041-0.035 0.081-0.071 0.119-0.108 0.003-0.003 0.006-0.006 0.009-0.009 0.042-0.042 0.082-0.086 0.12-0.131 0.007-0.008 0.013-0.016 0.020-0.024 0.036-0.044 0.071-0.088 0.103-0.134z"/><path fill="#4173cd" d="M30.151 13.453l-0-1.698-0-2.655c-0-0.725-0.357-1.399-0.946-1.809-0.051-0.035-0.103-0.069-0.157-0.101l-11.948-6.895c-0.682-0.394-1.523-0.394-2.205 0l-11.945 6.899c-0.053 0.030-0.103 0.063-0.152 0.098-0.592 0.41-0.95 1.085-0.95 1.813l0 2.651 0 1.698 0.001 3.57h28.304l-0.001-3.57z"/><path fill="#ffe15a" d="M25.236 11.425l2.558-0.423-2.558-0.423 2.201-1.37-2.525 0.588 1.509-2.108-2.108 1.509 0.588-2.525-1.37 2.201-0.423-2.558-0.423 2.558-1.37-2.201 0.588 2.525-2.108-1.509 1.509 2.108-2.525-0.588 2.201 1.37-2.558 0.423 2.558 0.423-2.201 1.37 2.525-0.588-1.509 2.108 2.108-1.509-0.588 2.525 1.37-2.201 0.423 2.558 0.423-2.558 1.37 2.201-0.588-2.525 2.108 1.509-1.509-2.108 2.525 0.588-2.201-1.37zM23.107 12.563c-0.863 0-1.562-0.699-1.562-1.562s0.699-1.562 1.562-1.562 1.562 0.699 1.562 1.562-0.699 1.562-1.562 1.562z"/><path fill="#ffe15a" d="M24.279 11.002c0 0.647-0.525 1.172-1.172 1.172s-1.172-0.525-1.172-1.172c0-0.647 0.525-1.172 1.172-1.172s1.172 0.525 1.172 1.172z"/></svg>