<svg xmlns="http://www.w3.org/2000/svg" width="32" height="32" version="1.1" viewBox="0 0 32 32"><title>saba-island</title><path fill="#f5f5f5" d="M30.153 22.895l-0-2.651-0-1.698-0.001-5.093-0-1.698-0-2.655c0-0.194-0.026-0.384-0.075-0.567-0.026-0.098-0.059-0.194-0.099-0.287-0.16-0.381-0.426-0.714-0.773-0.955-0.051-0.035-0.103-0.069-0.157-0.101l-11.947-6.895c-0.682-0.394-1.523-0.394-2.205 0l-11.945 6.899c-0.053 0.030-0.103 0.063-0.152 0.098-0.212 0.147-0.393 0.328-0.54 0.534-0.098 0.138-0.18 0.287-0.244 0.443-0.107 0.261-0.166 0.544-0.166 0.836l0 2.651 0 1.698 0.001 5.092v0.001l0 1.697 0 2.655v0c0 0.725 0.357 1.399 0.946 1.809 0.051 0.035 0.103 0.069 0.157 0.101l11.948 6.895c0.682 0.394 1.523 0.394 2.205-0l11.945-6.899c0.053-0.030 0.103-0.063 0.152-0.098 0.591-0.41 0.95-1.085 0.95-1.813v0 0z"/><path fill="#41479b" d="M17.105 31.704l11.945-6.899c0.053-0.030 0.103-0.063 0.152-0.098 0.592-0.41 0.95-1.085 0.95-1.813l-0-2.651-0-1.698-0-2.388-14.090 15.84c0.361-0.010 0.72-0.107 1.043-0.294z"/><path fill="#41479b" d="M1.849 18.546v0.001l0 1.697 0 2.655v0c0 0.725 0.357 1.399 0.946 1.809 0.051 0.035 0.103 0.069 0.157 0.101l11.948 6.895c0.322 0.186 0.679 0.283 1.038 0.293l-14.090-15.839 0 2.387z"/><path fill="#ff4b55" d="M14.895 0.296l-11.945 6.899c-0.053 0.030-0.103 0.063-0.152 0.098-0.212 0.147-0.393 0.328-0.54 0.534-0.098 0.138-0.18 0.287-0.244 0.443-0.107 0.261-0.166 0.544-0.166 0.836l0 2.651 0 1.698 0 2.388 14.090-15.839c-0.361 0.010-0.72 0.107-1.043 0.294z"/><path fill="#ff4b55" d="M30.151 13.453l-0-1.698-0-2.655c0-0.194-0.026-0.384-0.075-0.567-0.026-0.098-0.059-0.194-0.099-0.287-0.16-0.381-0.426-0.714-0.773-0.955-0.051-0.035-0.103-0.069-0.157-0.101l-11.948-6.895c-0.322-0.186-0.679-0.283-1.038-0.293l14.090 15.839-0-2.388z"/><path fill="#ffe15a" d="M16.187 9.113l1.5 4.315 4.567 0.093c0.188 0.004 0.266 0.243 0.116 0.356l-3.64 2.76 1.323 4.373c0.054 0.18-0.149 0.328-0.303 0.22l-3.75-2.609-3.75 2.609c-0.154 0.107-0.358-0.040-0.303-0.22l1.323-4.373-3.64-2.76c-0.15-0.114-0.072-0.353 0.116-0.356l4.567-0.093 1.5-4.315c0.062-0.178 0.313-0.178 0.375 0z"/></svg>