<!-- Generated by IcoMoon.io -->
<svg version="1.1" xmlns="http://www.w3.org/2000/svg" width="32" height="32" viewBox="0 0 32 32">
<title>sahrawi-arab-democratic-republic</title>
<path fill="#f5f5f5" d="M30.152 18.547l-0.001-5.093-0-1.698-0-2.655c-0-0.725-0.357-1.399-0.946-1.809-0.051-0.035-0.103-0.069-0.157-0.101l-11.948-6.895c-0.682-0.394-1.523-0.394-2.205 0l-11.945 6.899c-0.053 0.030-0.103 0.063-0.152 0.098-0.592 0.41-0.95 1.085-0.95 1.813l0 2.651 0 1.698 0.001 5.093 0 1.698 0 2.655c0 0.725 0.357 1.399 0.946 1.809 0.051 0.035 0.103 0.069 0.157 0.101l11.948 6.895c0.682 0.394 1.523 0.394 2.205-0l11.945-6.899c0.053-0.030 0.103-0.063 0.152-0.098 0.592-0.41 0.95-1.085 0.95-1.813l-0-2.651-0-1.698z"></path>
<path fill="#464655" d="M30.151 10.61l-0-1.51c-0-0.725-0.357-1.399-0.946-1.809-0.051-0.035-0.103-0.069-0.157-0.101l-11.948-6.895c-0.682-0.394-1.523-0.394-2.205 0l-8.516 4.918 1.733 3.288 2.989 2.108 19.051-0z"></path>
<path fill="#73af00" d="M6.378 26.786l8.522 4.918c0.682 0.394 1.523 0.394 2.205-0l11.945-6.899c0.053-0.030 0.103-0.063 0.152-0.098 0.592-0.41 0.95-1.085 0.95-1.813l-0-1.505h-19.053l-2.911 1.952-1.812 3.445z"></path>
<path fill="#ff4b55" d="M15.431 15.559l-9.052-10.345-3.429 1.981c-0.053 0.030-0.103 0.063-0.152 0.098-0.592 0.41-0.95 1.085-0.95 1.813l0 1.505 0 1.146 0 1.698 0.001 5.093 0 1.698 0 1.146 0 1.51c0 0.725 0.357 1.399 0.946 1.809 0.051 0.035 0.103 0.069 0.157 0.101l3.426 1.977 9.053-10.345c0.197-0.226 0.197-0.657-0-0.882z"></path>
<path fill="#ff4b55" d="M18.118 16c0-1.425 0.931-2.633 2.218-3.048 0.074-0.024 0.064-0.132-0.013-0.14-0.247-0.024-0.502-0.020-0.763 0.016-1.511 0.212-2.678 1.49-2.75 3.015-0.088 1.841 1.378 3.361 3.2 3.361 0.105 0 0.209-0.005 0.312-0.015 0.078-0.008 0.088-0.116 0.014-0.14-1.286-0.416-2.217-1.623-2.217-3.048z"></path>
<path fill="#ff4b55" d="M20.838 13.895l-0.421 1.262-1.33 0.010c-0.172 0.001-0.244 0.221-0.105 0.323l1.070 0.79-0.401 1.268c-0.052 0.164 0.135 0.3 0.275 0.2l1.082-0.774 1.082 0.774c0.14 0.1 0.327-0.036 0.275-0.2l-0.401-1.268 1.070-0.79c0.139-0.102 0.067-0.322-0.105-0.323l-1.33-0.010-0.421-1.262c-0.054-0.163-0.286-0.163-0.34 0z"></path>
</svg>
