<!-- Generated by IcoMoon.io -->
<svg version="1.1" xmlns="http://www.w3.org/2000/svg" width="32" height="32" viewBox="0 0 32 32">
<title>saint-kitts-and-nevis</title>
<path fill="#464655" d="M30.151 11.328l-0-2.228c0-0.194-0.026-0.384-0.075-0.567-0.026-0.098-0.059-0.194-0.099-0.287-0.16-0.381-0.426-0.714-0.773-0.955-0.051-0.035-0.103-0.069-0.157-0.101l-3.521-2.032-12.26 7.249-11.418 8.265 0 2.227v0c0 0.725 0.357 1.399 0.946 1.809 0.051 0.035 0.103 0.069 0.157 0.101l3.521 2.032 12.104-7.014 11.574-8.499z"></path>
<path fill="#73af00" d="M20.79 2.425l-3.69-2.13c-0.682-0.394-1.523-0.394-2.205 0l-11.945 6.899c-0.053 0.030-0.103 0.063-0.152 0.098-0.212 0.147-0.393 0.328-0.54 0.534-0.098 0.138-0.18 0.287-0.244 0.443-0.107 0.261-0.166 0.544-0.166 0.836l0 2.651 0 1.698 0.001 5.092v0.21l11.965-6.973 10.158-7.521-3.181-1.836z"></path>
<path fill="#ff4b55" d="M30.153 20.244l-0-1.698-0.001-5.093-0-0.209-11.027 6.504-11.096 7.99 6.871 3.966c0.682 0.394 1.523 0.394 2.205-0l11.945-6.899c0.053-0.030 0.103-0.063 0.152-0.098 0.592-0.41 0.95-1.085 0.95-1.813l-0-2.65z"></path>
<path fill="#ffe15a" d="M30.151 13.245l-0-1.489-0-0.427-23.678 15.513 1.555 0.898z"></path>
<path fill="#ffe15a" d="M25.062 4.89l-1.090-0.629-22.123 14.494 0 1.489 0 0.427 23.678-15.513z"></path>
<path fill="#f5f5f5" d="M7.485 20.659l1.686 0.11 0.442 1.631c0.057 0.211 0.35 0.228 0.431 0.025l0.626-1.57 1.688 0.084c0.219 0.011 0.325-0.263 0.157-0.403l-1.3-1.080 0.601-1.579c0.078-0.204-0.149-0.39-0.334-0.273l-1.429 0.902-1.316-1.060c-0.17-0.137-0.417 0.021-0.364 0.233l0.416 1.638-1.415 0.924c-0.183 0.12-0.109 0.404 0.11 0.418z"></path>
<path fill="#f5f5f5" d="M19.616 12.697l1.686 0.11 0.442 1.631c0.057 0.211 0.35 0.228 0.431 0.025l0.626-1.57 1.688 0.084c0.219 0.011 0.325-0.263 0.157-0.403l-1.3-1.080 0.601-1.579c0.078-0.204-0.149-0.39-0.334-0.274l-1.429 0.902-1.316-1.060c-0.17-0.137-0.417 0.021-0.363 0.233l0.416 1.638-1.415 0.924c-0.183 0.12-0.109 0.404 0.11 0.418z"></path>
</svg>
