<svg xmlns="http://www.w3.org/2000/svg" width="32" height="32" version="1.1" viewBox="0 0 32 32"><title>samoa</title><path fill="#ff4b55" d="M30.152 18.547l-0.001-5.093-0-1.698-0-2.655c-0-0.725-0.357-1.399-0.946-1.809-0.051-0.035-0.103-0.069-0.157-0.101l-11.948-6.895c-0.682-0.394-1.523-0.394-2.205 0l-11.945 6.899c-0.053 0.030-0.103 0.063-0.152 0.098-0.592 0.41-0.95 1.085-0.95 1.813l0 2.651 0 1.698 0.001 5.093 0 1.698 0 2.655c0 0.725 0.357 1.399 0.946 1.809 0.051 0.035 0.103 0.069 0.157 0.101l11.948 6.895c0.682 0.394 1.523 0.394 2.205-0l11.945-6.899c0.053-0.030 0.103-0.063 0.152-0.098 0.592-0.41 0.95-1.085 0.95-1.813l-0-2.651-0-1.698z"/><path fill="#41479b" d="M16 15.922v-15.922c-0.382-0-0.763 0.098-1.105 0.296l-11.945 6.899c-0.053 0.030-0.103 0.063-0.152 0.098-0.592 0.41-0.95 1.085-0.95 1.813l0 2.651 0 1.698 0 2.547h14.074c0.043-0 0.078-0.035 0.078-0.078z"/><path fill="#f5f5f5" d="M9.303 11.799l-0.278 0.832-0.877 0.007c-0.114 0.001-0.161 0.146-0.069 0.213l0.706 0.521-0.265 0.836c-0.034 0.108 0.089 0.198 0.181 0.132l0.714-0.51 0.714 0.51c0.092 0.066 0.216-0.024 0.181-0.132l-0.265-0.836 0.706-0.521c0.091-0.068 0.044-0.212-0.069-0.213l-0.877-0.007-0.278-0.832c-0.036-0.108-0.188-0.108-0.224 0z"/><path fill="#f5f5f5" d="M9.325 5.31l-0.225 0.673-0.71 0.005c-0.092 0.001-0.13 0.118-0.056 0.173l0.571 0.422-0.214 0.677c-0.028 0.088 0.072 0.16 0.147 0.107l0.577-0.413 0.577 0.413c0.075 0.053 0.175-0.019 0.147-0.107l-0.214-0.677 0.571-0.422c0.074-0.055 0.036-0.172-0.056-0.173l-0.71-0.005-0.225-0.673c-0.029-0.087-0.152-0.087-0.181 0z"/><path fill="#f5f5f5" d="M12.915 7.313l-0.225 0.673-0.71 0.005c-0.092 0.001-0.13 0.118-0.056 0.173l0.571 0.422-0.214 0.677c-0.028 0.088 0.072 0.16 0.147 0.107l0.577-0.413 0.577 0.413c0.075 0.053 0.175-0.019 0.147-0.107l-0.214-0.677 0.571-0.422c0.074-0.055 0.036-0.172-0.056-0.173l-0.71-0.005-0.225-0.673c-0.029-0.087-0.152-0.087-0.181 0z"/><path fill="#f5f5f5" d="M5.811 8.107l-0.225 0.673-0.71 0.005c-0.092 0.001-0.13 0.118-0.056 0.172l0.571 0.422-0.214 0.677c-0.028 0.088 0.072 0.16 0.147 0.107l0.577-0.413 0.577 0.413c0.075 0.053 0.175-0.019 0.147-0.107l-0.214-0.677 0.571-0.422c0.074-0.055 0.036-0.172-0.056-0.172l-0.71-0.005-0.225-0.673c-0.029-0.087-0.152-0.087-0.181 0z"/><path fill="#f5f5f5" d="M11.367 10.304l-0.126 0.378-0.398 0.003c-0.052 0-0.073 0.066-0.031 0.097l0.32 0.237-0.12 0.38c-0.016 0.049 0.040 0.090 0.082 0.060l0.324-0.232 0.324 0.232c0.042 0.030 0.098-0.011 0.082-0.060l-0.12-0.38 0.32-0.237c0.041-0.031 0.020-0.096-0.031-0.097l-0.398-0.003-0.126-0.378c-0.016-0.049-0.085-0.049-0.102 0z"/></svg>