<svg xmlns="http://www.w3.org/2000/svg" width="32" height="32" version="1.1" viewBox="0 0 32 32"><title>san-marino</title><path fill="#f5f5f5" d="M30.152 18.546l-0.001-5.093-0-1.698-0-2.655c-0-0.725-0.357-1.399-0.946-1.809-0.051-0.035-0.103-0.069-0.157-0.101l-11.948-6.895c-0.682-0.394-1.523-0.394-2.205 0l-11.945 6.899c-0.053 0.030-0.103 0.063-0.152 0.098-0.592 0.41-0.95 1.085-0.95 1.813l0 2.651 0 1.698 0.001 5.093 0 1.698 0 2.655c0 0.725 0.357 1.399 0.946 1.809 0.051 0.035 0.103 0.069 0.157 0.101l11.948 6.895c0.682 0.394 1.523 0.394 2.205-0l11.945-6.899c0.053-0.030 0.103-0.063 0.152-0.098 0.592-0.41 0.95-1.085 0.95-1.813l-0-2.651-0-1.698z"/><path fill="#82afff" d="M1.849 20.244l0 2.655c0 0.725 0.357 1.399 0.946 1.809 0.051 0.035 0.103 0.069 0.157 0.101l11.948 6.895c0.682 0.394 1.523 0.394 2.205-0l11.945-6.899c0.053-0.030 0.103-0.063 0.152-0.098 0.592-0.41 0.95-1.085 0.95-1.813l-0-2.651-0-1.698-0-2.547h-28.304l0 2.547 0 1.698z"/><path fill="#b46446" d="M16.058 21.095c-0.106-0.005-2.604-0.132-3.858-1.85-0.731-1.001-0.877-2.332-0.433-3.957l0.179 0.049c-0.427 1.567-0.292 2.845 0.404 3.798 1.2 1.646 3.692 1.774 3.717 1.775l-0.008 0.186z"/><path fill="#41aa5a" d="M11.765 14.567c-0.123 0.321-0.095 0.657 0.048 0.912 0.277-0.094 0.522-0.325 0.645-0.646s0.095-0.657-0.048-0.912c-0.277 0.094-0.522 0.325-0.645 0.646z"/><path fill="#41aa5a" d="M13.33 19.003c-0.137 0.226-0.173 0.528-0.071 0.822 0.095 0.274 0.29 0.477 0.516 0.579-0.22-0.115-0.499-0.144-0.774-0.049-0.294 0.101-0.51 0.316-0.603 0.563 0.226 0.137 0.528 0.173 0.822 0.071s0.51-0.316 0.603-0.563l-0-0c0.136-0.225 0.171-0.527 0.070-0.819s-0.316-0.51-0.563-0.603z"/><path fill="#41aa5a" d="M12.795 18.184c-0.211 0.158-0.357 0.426-0.373 0.736-0.014 0.29 0.091 0.55 0.263 0.73-0.161-0.189-0.41-0.32-0.699-0.334-0.31-0.016-0.591 0.103-0.769 0.297 0.158 0.211 0.426 0.357 0.736 0.373s0.591-0.103 0.769-0.297c-0-0-0-0-0-0 0.21-0.159 0.355-0.425 0.37-0.734s-0.103-0.591-0.297-0.769z"/><path fill="#41aa5a" d="M12.563 17.261c-0.255 0.067-0.491 0.259-0.623 0.541-0.123 0.263-0.123 0.544-0.032 0.775-0.078-0.236-0.259-0.451-0.521-0.574-0.281-0.131-0.586-0.127-0.825-0.015 0.067 0.255 0.259 0.491 0.541 0.623s0.586 0.127 0.825 0.015c0 0-0-0-0-0 0.254-0.068 0.489-0.259 0.62-0.54s0.127-0.586 0.015-0.825z"/><path fill="#41aa5a" d="M12.695 16.345c-0.262-0.026-0.551 0.072-0.772 0.29-0.207 0.204-0.305 0.467-0.3 0.715 0.009-0.248-0.085-0.513-0.289-0.719-0.218-0.221-0.505-0.324-0.768-0.302-0.026 0.262 0.072 0.551 0.29 0.772s0.505 0.324 0.768 0.302c0 0 0-0 0-0 0.262 0.025 0.549-0.073 0.769-0.29s0.324-0.505 0.301-0.768z"/><path fill="#41aa5a" d="M12.88 15.473c-0.255-0.069-0.555-0.020-0.809 0.158-0.238 0.167-0.378 0.41-0.414 0.656 0.050-0.243 0.001-0.52-0.166-0.757-0.178-0.254-0.444-0.403-0.707-0.424-0.069 0.255-0.020 0.555 0.158 0.809s0.444 0.403 0.707 0.424c0-0 0-0 0-0 0.254 0.068 0.553 0.019 0.807-0.159s0.403-0.444 0.424-0.707z"/><path fill="#ffe15a" d="M13.148 20.282c0 0.107-0.087 0.193-0.193 0.193s-0.193-0.087-0.193-0.193c0-0.107 0.087-0.193 0.193-0.193s0.193 0.087 0.193 0.193z"/><path fill="#ffe15a" d="M14.036 20.391c0 0.107-0.087 0.193-0.193 0.193s-0.193-0.087-0.193-0.193c0-0.107 0.087-0.193 0.193-0.193s0.193 0.087 0.193 0.193z"/><path fill="#ffe15a" d="M12.637 18.822c0 0.107-0.087 0.193-0.193 0.193s-0.193-0.087-0.193-0.193c0-0.107 0.087-0.193 0.193-0.193s0.193 0.087 0.193 0.193z"/><path fill="#ffe15a" d="M11.408 17.369c0 0.107-0.087 0.193-0.193 0.193s-0.193-0.087-0.193-0.193c0-0.107 0.087-0.193 0.193-0.193s0.193 0.087 0.193 0.193z"/><path fill="#ffe15a" d="M12.266 16.384c0 0.107-0.087 0.193-0.193 0.193s-0.193-0.087-0.193-0.193c0-0.107 0.087-0.193 0.193-0.193s0.193 0.087 0.193 0.193z"/><path fill="#ffe15a" d="M11.941 15.376c0 0.107-0.087 0.193-0.193 0.193s-0.193-0.087-0.193-0.193c0-0.107 0.087-0.193 0.193-0.193s0.193 0.087 0.193 0.193z"/><path fill="#b46446" d="M16.066 21.095l-0.008-0.186c0.025-0.001 2.516-0.129 3.717-1.775 0.695-0.953 0.831-2.231 0.404-3.798l0.179-0.049c0.443 1.625 0.297 2.956-0.433 3.957-1.254 1.718-3.752 1.846-3.858 1.85z"/><path fill="#41aa5a" d="M20.359 14.567c0.123 0.321 0.095 0.657-0.048 0.912-0.276-0.094-0.522-0.325-0.645-0.646s-0.095-0.657 0.048-0.912c0.276 0.094 0.522 0.325 0.645 0.646z"/><path fill="#41aa5a" d="M18.794 19.003c0.137 0.226 0.173 0.528 0.071 0.822-0.095 0.274-0.29 0.477-0.516 0.579 0.22-0.115 0.499-0.144 0.774-0.049 0.294 0.101 0.51 0.316 0.603 0.563-0.226 0.137-0.528 0.173-0.822 0.071s-0.51-0.316-0.603-0.563c0-0 0-0 0-0-0.135-0.225-0.171-0.527-0.070-0.819s0.316-0.51 0.562-0.603z"/><path fill="#41aa5a" d="M19.329 18.184c0.211 0.158 0.357 0.426 0.373 0.736 0.015 0.29-0.091 0.55-0.263 0.73 0.161-0.189 0.41-0.32 0.699-0.334 0.31-0.016 0.591 0.103 0.769 0.297-0.158 0.211-0.426 0.357-0.736 0.373s-0.591-0.103-0.769-0.297c0-0 0-0 0-0-0.21-0.159-0.355-0.425-0.37-0.734s0.103-0.591 0.297-0.769z"/><path fill="#41aa5a" d="M19.56 17.261c0.255 0.067 0.491 0.259 0.623 0.541 0.123 0.263 0.123 0.544 0.032 0.775 0.078-0.236 0.259-0.451 0.521-0.574 0.281-0.131 0.586-0.127 0.825-0.015-0.067 0.255-0.259 0.491-0.541 0.623s-0.586 0.127-0.825 0.015c0 0 0-0 0-0-0.254-0.068-0.489-0.259-0.62-0.54s-0.128-0.586-0.015-0.825z"/><path fill="#41aa5a" d="M19.429 16.345c0.262-0.026 0.551 0.072 0.772 0.29 0.207 0.204 0.305 0.467 0.3 0.715-0.009-0.248 0.085-0.513 0.289-0.719 0.218-0.221 0.505-0.324 0.768-0.302 0.026 0.262-0.072 0.551-0.29 0.772s-0.505 0.324-0.768 0.302c0 0 0-0 0-0-0.262 0.025-0.549-0.073-0.769-0.29s-0.324-0.505-0.301-0.768z"/><path fill="#41aa5a" d="M19.244 15.473c0.255-0.069 0.555-0.020 0.809 0.158 0.238 0.167 0.378 0.41 0.414 0.656-0.050-0.243-0.001-0.52 0.166-0.757 0.178-0.254 0.444-0.403 0.707-0.424 0.069 0.255 0.020 0.555-0.158 0.809s-0.444 0.403-0.707 0.424c0-0 0-0 0-0-0.254 0.068-0.553 0.019-0.807-0.159s-0.403-0.444-0.424-0.707z"/><path fill="#ffe15a" d="M19.363 20.282c0 0.107-0.087 0.193-0.193 0.193s-0.193-0.087-0.193-0.193c0-0.107 0.087-0.193 0.193-0.193s0.193 0.087 0.193 0.193z"/><path fill="#ffe15a" d="M18.474 20.391c0 0.107-0.087 0.193-0.193 0.193s-0.193-0.087-0.193-0.193c0-0.107 0.087-0.193 0.193-0.193s0.193 0.087 0.193 0.193z"/><path fill="#ffe15a" d="M19.874 18.822c0 0.107-0.087 0.193-0.193 0.193s-0.193-0.087-0.193-0.193c0-0.107 0.087-0.193 0.193-0.193s0.193 0.087 0.193 0.193z"/><path fill="#ffe15a" d="M21.103 17.369c0 0.107-0.087 0.193-0.193 0.193s-0.193-0.087-0.193-0.193c0-0.107 0.087-0.193 0.193-0.193s0.193 0.087 0.193 0.193z"/><path fill="#ffe15a" d="M20.244 16.384c0 0.107-0.087 0.193-0.193 0.193s-0.193-0.087-0.193-0.193c0-0.107 0.087-0.193 0.193-0.193s0.193 0.087 0.193 0.193z"/><path fill="#ffe15a" d="M20.569 15.376c0 0.107-0.087 0.193-0.193 0.193s-0.193-0.087-0.193-0.193c0-0.107 0.087-0.193 0.193-0.193s0.193 0.087 0.193 0.193z"/><path fill="#8cd7ff" d="M17.15 14.601h-2.217c-0.69 0-1.25 0.559-1.25 1.25v1.953c0 0.69 0.559 1.25 1.25 1.25h2.217c0.69 0 1.25-0.559 1.25-1.25v-1.953c0-0.69-0.559-1.25-1.25-1.25z"/><path fill="#f5f5f5" d="M16.407 16.301v0.247h-0.247v-0.247h-0.191v0.247h-0.247v-0.247h-0.155v0.495l0.124 0.157v1.823h0.742v-1.823l0.124-0.157v-0.495z"/><path fill="#f5f5f5" d="M16.098 15.518c0.122-0.059 0.155 0.191 0.155 0.191 0.258-0.129 0.191-0.338 0.129-0.438-0.082-0.134-0.412-0.186-0.552 0.093s0.237 0.83 0.237 0.83c0.021-0.17-0.129-0.598 0.031-0.675z"/><path fill="#f5f5f5" d="M17.679 16.763v0.247h-0.247v-0.247h-0.191v0.247h-0.247v-0.247h-0.155v0.495l0.124 0.157v1.823h0.742v-1.823l0.124-0.157v-0.495z"/><path fill="#f5f5f5" d="M17.37 15.979c0.122-0.059 0.155 0.191 0.155 0.191 0.258-0.129 0.191-0.338 0.129-0.438-0.082-0.134-0.412-0.186-0.552 0.093s0.237 0.83 0.237 0.83c0.021-0.17-0.129-0.598 0.031-0.675z"/><path fill="#f5f5f5" d="M15.135 16.763v0.247h-0.247v-0.247h-0.191v0.247h-0.247v-0.247h-0.155v0.495l0.124 0.157v1.823h0.742v-1.823l0.124-0.157v-0.495z"/><path fill="#f5f5f5" d="M14.826 15.979c0.122-0.059 0.155 0.191 0.155 0.191 0.258-0.129 0.191-0.338 0.129-0.438-0.082-0.134-0.412-0.186-0.552 0.093s0.237 0.83 0.237 0.83c0.021-0.17-0.129-0.598 0.031-0.675z"/><path fill="#6ec86e" d="M18.092 18.907c-0.165-0.082-0.349-0.132-0.546-0.132-0.211 0-0.406 0.058-0.58 0.151-0.226-0.243-0.546-0.398-0.904-0.398s-0.678 0.155-0.904 0.398c-0.174-0.093-0.369-0.151-0.58-0.151-0.197 0-0.38 0.050-0.546 0.132 0.353 0.648 1.030 1.695 2.030 2.095 1-0.4 1.677-1.447 2.030-2.095z"/><path fill="#ffe15a" d="M16.051 10.617l0.011-0.006c0 0-0.004 0.001-0.011 0.006z"/><path fill="#ffe15a" d="M16.062 10.611l0.011 0.006c-0.007-0.005-0.011-0.006-0.011-0.006z"/><path fill="#ffe15a" d="M18.435 11.67c-0.070-0.402-0.588-0.472-1.183-0.51s-0.851-0.379-0.851-0.379h-0.68c0 0-0.255 0.34-0.851 0.379s-1.113 0.108-1.183 0.51 0.441 1.036 0.441 1.036l0.448-0.363c0 0-0.549-0.526-0.278-0.719 0.267-0.191 1.046-0.059 1.393-0.517-0.015 0.096-0.009 0.214 0.050 0.36 0.113 0.278 0.072 0.629 0.072 0.629h0.495c0 0-0.041-0.351 0.072-0.629 0.059-0.146 0.064-0.264 0.050-0.36 0.347 0.458 1.126 0.326 1.393 0.517 0.271 0.193-0.278 0.719-0.278 0.719l0.448 0.363c0 0 0.51-0.634 0.441-1.036z"/><path fill="#ffe15a" d="M16.314 9.39h-0.129v-0.139c0-0.068-0.055-0.124-0.124-0.124s-0.124 0.055-0.124 0.124v0.139h-0.134c-0.068 0-0.124 0.055-0.124 0.124s0.055 0.124 0.124 0.124h0.134v0.356c0 0.068 0.055 0.124 0.124 0.124s0.124-0.055 0.124-0.124v-0.356h0.129c0.068 0 0.124-0.055 0.124-0.124s-0.055-0.124-0.124-0.124z"/><path fill="#fff0e1" d="M16.309 10.117c0 0.137-0.111 0.247-0.247 0.247s-0.247-0.111-0.247-0.247c0-0.137 0.111-0.247 0.247-0.247s0.247 0.111 0.247 0.247z"/><path fill="#ffc75a" d="M14.289 15.095c0.1 0.050 0.216 0.093 0.335 0.093 0.41 0 0.611-0.232 0.611-0.642s-0.247-0.719-0.657-0.719c0 0-0.046 0.001-0.12 0.012-0.016 0.003-0.032 0.005-0.047 0.008-0.394 0.075-1.368 0.438-1.564 2.206-0.275 2.471 1.732 4.701 3.216 5.195v-0.247c-0 0-3.505-2.68-1.773-5.907z"/><path fill="#ffc75a" d="M14.578 14.075l1.484 0.495-1.484 0.495z"/><path fill="#ffe15a" d="M17.546 15.064l-1.484-0.495 1.484-0.495z"/><path fill="#ffe15a" d="M13.092 16.081c0.177-1.595 1.013-1.923 1.374-1.992 0.008-0.002 0.016-0.003 0.030-0.005 0.045-0.007 0.077-0.009 0.086-0.009 0.271 0.002 0.45 0.206 0.45 0.454 0 0.273-0.16 0.376-0.32 0.381 0 0 0.129-0.268-0.134-0.34-0.177-0.049-0.402 0.093-0.381 0.35 0.014 0.181 0.186 0.356 0.381 0.356 0.41 0 0.742-0.296 0.742-0.706s-0.332-0.742-0.742-0.742c0 0-0.046 0.001-0.12 0.012-0.016 0.003-0.032 0.005-0.047 0.008-0.394 0.075-1.368 0.438-1.564 2.206-0.275 2.471 1.732 4.701 3.216 5.195v-0.247c0 0-0.526-0.263-0.885-0.518-1.111-0.789-2.286-2.598-2.085-4.402z"/><path fill="#ffc75a" d="M17.835 15.095c-0.1 0.050-0.216 0.093-0.335 0.093-0.41 0-0.611-0.232-0.611-0.642s0.247-0.719 0.657-0.719c0 0 0.046 0.001 0.12 0.012 0.016 0.003 0.032 0.005 0.047 0.008 0.394 0.075 1.368 0.438 1.564 2.206 0.275 2.471-1.732 4.701-3.216 5.195v-0.247c0 0 3.505-2.68 1.773-5.907z"/><path fill="#ffc75a" d="M17.546 14.075l-1.484 0.495 1.484 0.495z"/><path fill="#ffe15a" d="M19.032 16.081c-0.177-1.595-1.013-1.923-1.374-1.992-0.008-0.002-0.016-0.003-0.029-0.005-0.045-0.007-0.077-0.009-0.086-0.009-0.271 0.002-0.45 0.206-0.45 0.454 0 0.273 0.16 0.376 0.32 0.381 0 0-0.129-0.268 0.134-0.34 0.177-0.049 0.402 0.093 0.381 0.35-0.015 0.181-0.186 0.356-0.381 0.356-0.41 0-0.742-0.296-0.742-0.706s0.332-0.742 0.742-0.742c0 0 0.046 0.001 0.12 0.012 0.016 0.003 0.032 0.005 0.047 0.008 0.394 0.075 1.368 0.438 1.564 2.206 0.275 2.471-1.732 4.701-3.216 5.195v-0.247c0 0 0.526-0.263 0.885-0.518 1.111-0.789 2.286-2.598 2.085-4.402z"/><path fill="#ffe15a" d="M16.309 14.569c0 0.137-0.111 0.247-0.247 0.247s-0.247-0.111-0.247-0.247c0-0.137 0.111-0.247 0.247-0.247s0.247 0.111 0.247 0.247z"/><path fill="#ffc75a" d="M17.829 12.583c0.066-0.17-0.023-0.398-0.023-0.398-0.228-0.008-0.387 0.159-0.387 0.159 0.019-0.205-0.070-0.39-0.070-0.39-0.294 0.035-0.39 0.209-0.39 0.209-0.015-0.321-0.209-0.452-0.209-0.452-0.255 0.077-0.332 0.356-0.332 0.356-0.039-0.317-0.356-0.464-0.356-0.464s-0.317 0.147-0.356 0.464c0 0-0.077-0.278-0.332-0.356 0 0-0.193 0.131-0.209 0.452 0 0-0.097-0.174-0.39-0.209 0 0-0.089 0.186-0.070 0.39 0 0-0.159-0.166-0.387-0.159 0 0-0.089 0.228-0.023 0.398 0 0-0.259-0.081-0.472 0.043 0 0 0.39 0.151 0.52 0.336h3.437c0.13-0.186 0.52-0.336 0.52-0.336-0.213-0.124-0.472-0.043-0.472-0.043z"/><path fill="#ffe15a" d="M17.78 12.962c0 0.111-0.26 0.455-0.26 0.455s-0.843 0.117-1.459 0.117c-0.619 0-1.464-0.121-1.464-0.121s-0.254-0.342-0.254-0.452c0-0.316 0.77-0.573 1.719-0.573s1.719 0.256 1.719 0.573z"/><path fill="#ffc75a" d="M17.547 13.333c0 0.273-0.665 0.495-1.485 0.495s-1.485-0.222-1.485-0.495c0-0.273 0.665-0.495 1.485-0.495s1.485 0.222 1.485 0.495z"/><path fill="#ffc75a" d="M16.425 10.588c0-0.162-0.121-0.368-0.363-0.224-0.242-0.144-0.363 0.062-0.363 0.224s-0.186 0.186-0.209 0.17c0 0 0.155 0.201 0.332 0.070 0 0 0.095 0.139 0.24 0.139s0.24-0.139 0.24-0.139c0.178 0.131 0.332-0.070 0.332-0.070-0.023 0.015-0.209-0.008-0.209-0.17z"/><path fill="#b46446" d="M15.567 22.579c-0.014 0-0.028-0.003-0.041-0.010-0.046-0.023-0.065-0.078-0.042-0.124l0.495-0.99c0.023-0.045 0.079-0.064 0.124-0.041s0.064 0.078 0.042 0.124l-0.495 0.99c-0.016 0.032-0.049 0.051-0.083 0.051z"/><path fill="#b46446" d="M16.557 22.579c-0.034 0-0.067-0.019-0.083-0.051l-0.495-0.99c-0.023-0.046-0.004-0.102 0.042-0.124s0.101-0.004 0.124 0.041l0.495 0.99c0.023 0.046 0.004 0.102-0.042 0.124-0.013 0.007-0.027 0.010-0.041 0.010z"/><path fill="#f5f5f5" d="M18.288 21.713c-1.466 0.328-2.987 0.328-4.453 0 0-0.247 0-0.71 0-0.958 1.466 0.328 2.987 0.328 4.453 0 0 0.247 0 0.71 0 0.958z"/><path fill="#f5f5f5" d="M15.062 21.353c-0.947 0.183-1.917 0.233-2.883 0.143 0.016 0.128 0.78 0.507 0.78 0.507s-0.674 0.326-0.659 0.444c0.924 0.086 1.853 0.045 2.762-0.119v-0.974h0v-0z"/><path fill="#f5f5f5" d="M17.066 21.353c0.947 0.183 1.917 0.233 2.883 0.143-0.016 0.128-0.78 0.507-0.78 0.507s0.674 0.326 0.659 0.444c-0.924 0.086-1.853 0.045-2.762-0.119v-0.974h-0v-0z"/></svg>