<svg xmlns="http://www.w3.org/2000/svg" width="32" height="32" version="1.1" viewBox="0 0 32 32"><title>sao-tome-and-prince</title><path fill="#ffe15a" d="M30.153 22.895l-0-2.651-0-1.698-0.001-5.093-0-1.698-0-2.655c0-0.194-0.026-0.384-0.075-0.567-0.026-0.098-0.059-0.194-0.099-0.287-0.16-0.381-0.426-0.714-0.773-0.955-0.051-0.035-0.103-0.069-0.157-0.101l-11.947-6.895c-0.682-0.394-1.523-0.394-2.205 0l-11.945 6.899c-0.053 0.030-0.103 0.063-0.152 0.098-0.212 0.147-0.393 0.328-0.54 0.534-0.098 0.138-0.18 0.287-0.244 0.443-0.107 0.261-0.166 0.544-0.166 0.836l0 2.651 0 1.698 0.001 5.092v0.001l0 1.697 0 2.655v0c0 0.725 0.357 1.399 0.946 1.809 0.051 0.035 0.103 0.069 0.157 0.101l11.948 6.895c0.682 0.394 1.523 0.394 2.205-0l11.945-6.899c0.053-0.030 0.103-0.063 0.152-0.098 0.591-0.41 0.95-1.085 0.95-1.813v0 0z"/><path fill="#73af00" d="M30.076 8.534c-0.026-0.098-0.059-0.194-0.099-0.287-0.16-0.381-0.426-0.714-0.773-0.955-0.051-0.035-0.103-0.069-0.157-0.101l-11.947-6.895c-0.682-0.394-1.523-0.394-2.205 0l-9.787 5.653 0.192 2.163 1.994 0.448h22.788c-0.002-0.009-0.004-0.018-0.006-0.026z"/><path fill="#73af00" d="M7.294 23.44l-1.838 0.604-0.35 2.008 9.794 5.652c0.682 0.394 1.523 0.394 2.205-0l11.945-6.899c0.053-0.030 0.103-0.063 0.152-0.098 0.44-0.305 0.751-0.756 0.881-1.267l-22.79 0z"/><path fill="#ff4b55" d="M7.294 8.56l-2.186-2.611-2.158 1.246c-0.053 0.030-0.103 0.063-0.152 0.098-0.212 0.147-0.393 0.328-0.54 0.534-0.098 0.138-0.18 0.287-0.244 0.443-0.039 0.094-0.071 0.191-0.096 0.29-0.045 0.176-0.070 0.359-0.069 0.546l0 2.651 0 1.698 0.001 5.092v0.001l0 1.697 0 2.655v0c0 0.185 0.024 0.366 0.068 0.541 0.13 0.511 0.44 0.963 0.878 1.268 0.051 0.035 0.103 0.069 0.157 0.101l2.154 1.243 8.418-10.053-6.23-7.441z"/><path fill="#464655" d="M17.804 13.299l0.608 1.822 1.92 0.015c0.249 0.002 0.352 0.319 0.152 0.467l-1.545 1.141 0.579 1.831c0.075 0.237-0.195 0.433-0.397 0.289l-1.562-1.117-1.562 1.117c-0.202 0.145-0.472-0.052-0.397-0.289l0.579-1.831-1.545-1.141c-0.2-0.148-0.097-0.465 0.152-0.467l1.92-0.015 0.608-1.822c0.079-0.236 0.412-0.236 0.491 0z"/><path fill="#464655" d="M26.669 13.299l0.608 1.822 1.92 0.015c0.249 0.002 0.352 0.319 0.152 0.467l-1.545 1.141 0.579 1.831c0.075 0.237-0.195 0.433-0.397 0.289l-1.562-1.117-1.562 1.117c-0.202 0.145-0.472-0.052-0.397-0.289l0.579-1.831-1.545-1.141c-0.2-0.148-0.097-0.465 0.152-0.467l1.92-0.015 0.608-1.822c0.079-0.236 0.412-0.236 0.491 0z"/></svg>