<svg xmlns="http://www.w3.org/2000/svg" width="32" height="32" version="1.1" viewBox="0 0 32 32"><title>sardinia</title><path fill="#f5f5f5" d="M30.153 22.895l-0-2.651-0-1.698-0.001-5.093-0-1.698-0-2.655c0-0.194-0.026-0.384-0.075-0.567-0.026-0.098-0.059-0.194-0.099-0.287-0.16-0.381-0.426-0.714-0.773-0.955-0.051-0.035-0.103-0.069-0.157-0.101l-11.947-6.895c-0.682-0.394-1.523-0.394-2.205 0l-11.945 6.899c-0.053 0.030-0.103 0.063-0.152 0.098-0.212 0.147-0.393 0.328-0.54 0.534-0.098 0.138-0.18 0.287-0.244 0.443-0.107 0.261-0.166 0.544-0.166 0.836l0 2.651 0 1.698 0.001 5.092v0.001l0 1.697 0 2.655v0c0 0.725 0.357 1.399 0.946 1.809 0.051 0.035 0.103 0.069 0.157 0.101l11.948 6.895c0.682 0.394 1.523 0.394 2.205-0l11.945-6.899c0.053-0.030 0.103-0.063 0.152-0.098 0.591-0.41 0.95-1.085 0.95-1.813v0 0z"/><path fill="#ff4b55" d="M17.25 14.75v-14.369l-0.15-0.086c-0.682-0.394-1.523-0.394-2.205 0l-0.144 0.083v14.371h-12.902l0 2.499h12.902v14.369l0.15 0.086c0.682 0.394 1.523 0.394 2.205-0l0.144-0.083v-14.371h12.902l-0-2.499h-12.902z"/><path fill="#464655" d="M10.267 10.407c0.094-0.187-0.424-0.793-0.396-0.93s0.089-0.348-0.131-1.144c-0.22-0.796-0.88-0.989-1.676-1.071s-1.849 0.489-2.087 1.112c-0.144 0.376-0.046 0.796 0.104 1.196-0.068 0.007-0.197 0.011-0.292-0.059-0.076-0.057-0.118-0.153-0.125-0.285-0.027-0.505 0.249-1.332 0.252-1.34l0.021-0.062-0.865-0.305 0.051 0.406-0.667-0.142 0.041 0.112c0.059 0.161 0.576 1.58 0.645 1.705 0.114 0.205 0.269 0.336 0.46 0.389 0.069 0.019 0.136 0.027 0.201 0.027 0.008 0 0.015-0.002 0.023-0.002-0.039 0.072-0.118 0.163-0.32 0.257-0.237 0.109-0.476 0.227-0.503 0.669l-0.007 0.004c0.002 0.004 0.005 0.006 0.007 0.010-0.006 0.117-0 0.25 0.028 0.418 0.069 0.414 0.211 0.821 0.217 0.838l0.014 0.039 0.041 0.005c0.003 0 0.275 0.033 0.358 0.318 0.048 0.165 0.2 0.29 0.348 0.29 0.004 0 0.008-0 0.012-0 0.064-0.003 0.22-0.037 0.271-0.289l0.007-0.037-0.409-0.376 0.137-0.452-0.065-0.018c-0.004-0.001-0.275-0.082-0.555-0.388-0.026-0.126-0.023-0.217 0.011-0.268 0.038-0.058 0.119-0.074 0.213-0.093 0.088-0.018 0.178-0.036 0.251-0.093 0.236-0.184 0.368-0.501 0.435-0.718 0.036 0.082 0.071 0.162 0.102 0.238 0.233 0.577-0.412 1.236-0.412 1.236 0.412 0.165 0.453 0.261 1.030 0.975s1.098 0.412 1.098 0.412-0.074-0.457 0.305-0.65c0.379-0.193 0.388-0.441 0.388-0.441 0.946 0.222 1.003-0.165 0.961-0.3s0.010-0.346 0.010-0.346 0.095 0.006 0.165-0.041c0.111-0.075 0.036-0.253 0.036-0.253 0.109-0.052 0.15-0.165 0.067-0.253s-0.078-0.186-0.078-0.186 0.217 0.015 0.279-0.109zM5.637 9.86c-0.156-0.043-0.284-0.153-0.381-0.326-0.046-0.082-0.367-0.948-0.596-1.574l0.48 0.102 0.090 0.72 0.13-0.016-0.132-1.052 0.542 0.191c-0.065 0.206-0.263 0.874-0.238 1.327 0.009 0.174 0.069 0.303 0.177 0.384 0.098 0.073 0.216 0.091 0.306 0.091 0.053 0 0.089-0.005 0.114-0.009 0.013 0.033 0.027 0.066 0.041 0.098-0.076 0.037-0.3 0.131-0.534 0.065zM6.152 12.579c-0.018 0.065-0.058 0.144-0.139 0.148-0.002 0-0.004 0-0.006 0-0.090 0-0.191-0.088-0.222-0.195-0.002-0.006-0.005-0.008-0.007-0.014l0.067-0.221 0.306 0.282zM5.861 11.792l-0.168 0.552c-0.109-0.148-0.261-0.2-0.335-0.217-0.036-0.109-0.143-0.447-0.199-0.78-0.012-0.070-0.017-0.13-0.023-0.19 0.278 0.406 0.591 0.582 0.724 0.635zM5.799 10.741c-0.048 0.038-0.12 0.052-0.196 0.067-0.108 0.021-0.229 0.046-0.298 0.15-0.025 0.038-0.037 0.086-0.044 0.139-0.044-0.062-0.089-0.114-0.13-0.19 0.029-0.336 0.212-0.421 0.429-0.521 0.313-0.145 0.386-0.299 0.417-0.391 0.112-0.022 0.195-0.056 0.245-0.080 0.003 0.006 0.005 0.011 0.007 0.017-0.035 0.152-0.153 0.592-0.43 0.808zM6.535 10.148l-0.269-0.579 3.163-1.468c0.207 0.393 0.227 0.858 0.227 0.858l-3.122 1.189z"/><path fill="#464655" d="M27.534 10.407c0.094-0.187-0.424-0.793-0.396-0.93s0.089-0.348-0.131-1.144c-0.22-0.796-0.88-0.989-1.676-1.071s-1.849 0.489-2.087 1.112c-0.143 0.376-0.047 0.796 0.104 1.196-0.068 0.007-0.197 0.011-0.292-0.059-0.076-0.057-0.118-0.153-0.125-0.285-0.027-0.505 0.249-1.332 0.252-1.34l0.021-0.062-0.865-0.305 0.051 0.406-0.667-0.142 0.041 0.112c0.059 0.161 0.576 1.58 0.645 1.705 0.114 0.205 0.269 0.336 0.46 0.389 0.069 0.019 0.136 0.027 0.201 0.027 0.008 0 0.015-0.002 0.023-0.002-0.039 0.072-0.118 0.163-0.32 0.257-0.237 0.109-0.476 0.227-0.503 0.669l-0.007 0.004c0.002 0.004 0.005 0.006 0.007 0.010-0.006 0.117-0 0.25 0.028 0.418 0.070 0.414 0.211 0.821 0.217 0.838l0.014 0.039 0.041 0.005c0.003 0 0.275 0.033 0.358 0.318 0.048 0.165 0.2 0.29 0.348 0.29 0.004 0 0.008-0 0.012-0 0.064-0.003 0.22-0.037 0.271-0.289l0.007-0.037-0.409-0.376 0.137-0.452-0.065-0.018c-0.004-0.001-0.275-0.082-0.555-0.388-0.026-0.126-0.023-0.217 0.011-0.268 0.038-0.058 0.119-0.074 0.213-0.093 0.088-0.018 0.178-0.036 0.251-0.093 0.236-0.184 0.368-0.501 0.435-0.718 0.036 0.082 0.071 0.162 0.102 0.238 0.233 0.577-0.412 1.236-0.412 1.236 0.412 0.165 0.453 0.261 1.030 0.975s1.098 0.412 1.098 0.412-0.074-0.457 0.305-0.65c0.379-0.193 0.388-0.441 0.388-0.441 0.946 0.222 1.003-0.165 0.961-0.3s0.010-0.346 0.010-0.346 0.095 0.006 0.165-0.041c0.111-0.075 0.036-0.253 0.036-0.253 0.109-0.052 0.15-0.165 0.067-0.253s-0.078-0.186-0.078-0.186 0.217 0.015 0.279-0.109zM22.904 9.86c-0.156-0.043-0.284-0.153-0.381-0.326-0.046-0.082-0.367-0.948-0.596-1.574l0.48 0.102 0.090 0.72 0.13-0.016-0.132-1.052 0.542 0.191c-0.065 0.206-0.263 0.874-0.238 1.327 0.009 0.174 0.069 0.303 0.177 0.384 0.098 0.073 0.216 0.091 0.306 0.091 0.053 0 0.089-0.005 0.114-0.009 0.013 0.033 0.027 0.066 0.041 0.098-0.076 0.037-0.3 0.131-0.534 0.065zM23.419 12.579c-0.018 0.065-0.058 0.144-0.139 0.148-0.002 0-0.004 0-0.006 0-0.090 0-0.191-0.088-0.222-0.195-0.002-0.006-0.005-0.008-0.007-0.014l0.067-0.221 0.306 0.282zM23.128 11.792l-0.168 0.552c-0.109-0.148-0.261-0.2-0.335-0.217-0.036-0.109-0.143-0.447-0.199-0.78-0.012-0.070-0.017-0.13-0.023-0.19 0.278 0.406 0.591 0.582 0.724 0.635zM23.066 10.741c-0.049 0.038-0.12 0.052-0.196 0.067-0.108 0.021-0.229 0.046-0.298 0.15-0.025 0.038-0.038 0.086-0.044 0.139-0.044-0.062-0.089-0.114-0.13-0.19 0.029-0.336 0.212-0.421 0.429-0.521 0.313-0.145 0.386-0.299 0.417-0.391 0.112-0.022 0.195-0.056 0.245-0.080 0.003 0.006 0.005 0.011 0.007 0.017-0.035 0.152-0.153 0.592-0.43 0.808zM23.802 10.148l-0.269-0.579 3.163-1.468c0.207 0.393 0.227 0.858 0.227 0.858l-3.122 1.189z"/><path fill="#464655" d="M10.267 22.104c0.094-0.187-0.424-0.793-0.396-0.93s0.089-0.348-0.131-1.144c-0.22-0.796-0.88-0.989-1.676-1.071s-1.849 0.489-2.087 1.112c-0.144 0.376-0.046 0.796 0.104 1.196-0.068 0.007-0.197 0.011-0.292-0.059-0.076-0.057-0.118-0.153-0.125-0.285-0.027-0.505 0.249-1.332 0.252-1.34l0.021-0.062-0.865-0.305 0.051 0.406-0.667-0.142 0.041 0.112c0.059 0.161 0.576 1.58 0.645 1.705 0.114 0.205 0.269 0.336 0.46 0.389 0.069 0.019 0.136 0.027 0.201 0.027 0.008 0 0.015-0.002 0.023-0.002-0.039 0.072-0.118 0.163-0.32 0.257-0.237 0.109-0.476 0.227-0.503 0.669l-0.007 0.004c0.002 0.004 0.005 0.006 0.007 0.010-0.006 0.117-0 0.25 0.028 0.418 0.069 0.414 0.211 0.821 0.217 0.838l0.014 0.039 0.041 0.005c0.003 0 0.275 0.033 0.358 0.318 0.048 0.165 0.2 0.29 0.348 0.29 0.004 0 0.008-0 0.012-0 0.064-0.003 0.22-0.037 0.271-0.289l0.007-0.037-0.409-0.376 0.137-0.452-0.065-0.018c-0.004-0.001-0.275-0.082-0.555-0.388-0.026-0.126-0.023-0.217 0.011-0.268 0.038-0.058 0.119-0.074 0.213-0.093 0.088-0.018 0.178-0.036 0.251-0.093 0.236-0.184 0.368-0.501 0.435-0.718 0.036 0.082 0.071 0.162 0.102 0.238 0.233 0.577-0.412 1.236-0.412 1.236 0.412 0.165 0.453 0.261 1.030 0.975s1.098 0.412 1.098 0.412-0.074-0.457 0.305-0.65c0.379-0.193 0.388-0.441 0.388-0.441 0.946 0.222 1.003-0.165 0.961-0.3s0.010-0.346 0.010-0.346 0.095 0.006 0.165-0.041c0.111-0.075 0.036-0.253 0.036-0.253 0.109-0.052 0.15-0.165 0.067-0.253s-0.078-0.186-0.078-0.186 0.217 0.016 0.279-0.108zM5.637 21.557c-0.156-0.043-0.284-0.153-0.381-0.326-0.046-0.082-0.367-0.948-0.596-1.574l0.48 0.102 0.090 0.72 0.13-0.016-0.132-1.052 0.542 0.191c-0.065 0.206-0.263 0.874-0.238 1.327 0.009 0.174 0.069 0.303 0.177 0.384 0.098 0.073 0.216 0.090 0.306 0.090 0.053 0 0.089-0.005 0.114-0.009 0.013 0.033 0.027 0.066 0.041 0.098-0.076 0.038-0.3 0.131-0.534 0.065zM6.152 24.276c-0.018 0.065-0.058 0.144-0.139 0.148-0.002 0-0.004 0-0.006 0-0.090 0-0.191-0.088-0.222-0.195-0.002-0.006-0.005-0.008-0.007-0.014l0.067-0.221 0.306 0.282zM5.861 23.489l-0.168 0.552c-0.109-0.148-0.261-0.2-0.335-0.217-0.036-0.109-0.143-0.447-0.199-0.78-0.012-0.070-0.017-0.13-0.023-0.19 0.278 0.406 0.591 0.582 0.724 0.635zM5.799 22.438c-0.048 0.038-0.12 0.052-0.196 0.067-0.108 0.021-0.229 0.046-0.298 0.15-0.025 0.038-0.037 0.086-0.044 0.139-0.044-0.062-0.089-0.114-0.13-0.19 0.029-0.336 0.212-0.421 0.429-0.521 0.313-0.145 0.386-0.299 0.417-0.391 0.112-0.022 0.195-0.056 0.245-0.080 0.003 0.006 0.005 0.011 0.007 0.017-0.035 0.152-0.153 0.592-0.43 0.808zM6.535 21.845l-0.269-0.579 3.163-1.468c0.207 0.393 0.227 0.858 0.227 0.858l-3.122 1.189z"/><path fill="#464655" d="M27.534 22.104c0.094-0.187-0.424-0.793-0.396-0.93s0.089-0.348-0.131-1.144c-0.22-0.796-0.88-0.989-1.676-1.071s-1.849 0.489-2.087 1.112c-0.143 0.376-0.047 0.796 0.104 1.196-0.068 0.007-0.197 0.011-0.292-0.059-0.076-0.057-0.118-0.153-0.125-0.285-0.027-0.505 0.249-1.332 0.252-1.34l0.021-0.062-0.865-0.305 0.051 0.406-0.667-0.142 0.041 0.112c0.059 0.161 0.576 1.58 0.645 1.705 0.114 0.205 0.269 0.336 0.46 0.389 0.069 0.019 0.136 0.027 0.201 0.027 0.008 0 0.015-0.002 0.023-0.002-0.039 0.072-0.118 0.163-0.32 0.257-0.237 0.109-0.476 0.227-0.503 0.669l-0.007 0.004c0.002 0.004 0.005 0.006 0.007 0.010-0.006 0.117-0 0.25 0.028 0.418 0.070 0.414 0.211 0.821 0.217 0.838l0.014 0.039 0.041 0.005c0.003 0 0.275 0.033 0.358 0.318 0.048 0.165 0.2 0.29 0.348 0.29 0.004 0 0.008-0 0.012-0 0.064-0.003 0.22-0.037 0.271-0.289l0.007-0.037-0.409-0.376 0.137-0.452-0.065-0.018c-0.004-0.001-0.275-0.082-0.555-0.388-0.026-0.126-0.023-0.217 0.011-0.268 0.038-0.058 0.119-0.074 0.213-0.093 0.088-0.018 0.178-0.036 0.251-0.093 0.236-0.184 0.368-0.501 0.435-0.718 0.036 0.082 0.071 0.162 0.102 0.238 0.233 0.577-0.412 1.236-0.412 1.236 0.412 0.165 0.453 0.261 1.030 0.975s1.098 0.412 1.098 0.412-0.074-0.457 0.305-0.65c0.379-0.193 0.388-0.441 0.388-0.441 0.946 0.222 1.003-0.165 0.961-0.3s0.010-0.346 0.010-0.346 0.095 0.006 0.165-0.041c0.111-0.075 0.036-0.253 0.036-0.253 0.109-0.052 0.15-0.165 0.067-0.253s-0.078-0.186-0.078-0.186 0.217 0.016 0.279-0.108zM22.904 21.557c-0.156-0.043-0.284-0.153-0.381-0.326-0.046-0.082-0.367-0.948-0.596-1.574l0.48 0.102 0.090 0.72 0.13-0.016-0.132-1.052 0.542 0.191c-0.065 0.206-0.263 0.874-0.238 1.327 0.009 0.174 0.069 0.303 0.177 0.384 0.098 0.073 0.216 0.090 0.306 0.090 0.053 0 0.089-0.005 0.114-0.009 0.013 0.033 0.027 0.066 0.041 0.098-0.076 0.038-0.3 0.131-0.534 0.065zM23.419 24.276c-0.018 0.065-0.058 0.144-0.139 0.148-0.002 0-0.004 0-0.006 0-0.090 0-0.191-0.088-0.222-0.195-0.002-0.006-0.005-0.008-0.007-0.014l0.067-0.221 0.306 0.282zM23.128 23.489l-0.168 0.552c-0.109-0.148-0.261-0.2-0.335-0.217-0.036-0.109-0.143-0.447-0.199-0.78-0.012-0.070-0.017-0.13-0.023-0.19 0.278 0.406 0.591 0.582 0.724 0.635zM23.066 22.438c-0.049 0.038-0.12 0.052-0.196 0.067-0.108 0.021-0.229 0.046-0.298 0.15-0.025 0.038-0.038 0.086-0.044 0.139-0.044-0.062-0.089-0.114-0.13-0.19 0.029-0.336 0.212-0.421 0.429-0.521 0.313-0.145 0.386-0.299 0.417-0.391 0.112-0.022 0.195-0.056 0.245-0.080 0.003 0.006 0.005 0.011 0.007 0.017-0.035 0.152-0.153 0.592-0.43 0.808zM23.802 21.845l-0.269-0.579 3.163-1.468c0.207 0.393 0.227 0.858 0.227 0.858l-3.122 1.189z"/></svg>