<!-- Generated by IcoMoon.io -->
<svg version="1.1" xmlns="http://www.w3.org/2000/svg" width="32" height="32" viewBox="0 0 32 32">
<title>saudi-arabia</title>
<path fill="#73af00" d="M1.849 22.9l-0.002-13.795c-0-0.788 0.42-1.516 1.102-1.91l11.945-6.899c0.682-0.394 1.523-0.394 2.205-0l11.948 6.895c0.682 0.394 1.103 1.122 1.103 1.91l0.002 13.795c0 0.788-0.42 1.516-1.102 1.91l-11.945 6.899c-0.682 0.394-1.523 0.394-2.205 0l-11.947-6.895c-0.683-0.394-1.103-1.122-1.103-1.91z"></path>
<path fill="#f5f5f5" d="M6.338 12.545c0.056 0.359 0.273 0.472 0.462 0.457 0.223-0.017 0.418-0.221 0.418-0.436v-1.232c0-0.062 0.050-0.112 0.112-0.112s0.112 0.050 0.112 0.112v1.238c0 0.149 0.074 0.287 0.197 0.371 0.075 0.051 0.163 0.077 0.251 0.077 0.056 0 0.113-0.011 0.166-0.032l0.112-0.045c0.010 1.034-0.053 1.944-0.054 1.96-0.009 0.123 0.084 0.231 0.207 0.239 0.005 0 0.011 0.001 0.016 0.001 0.117 0 0.215-0.090 0.223-0.208 0.005-0.073 0.074-1.068 0.054-2.171l0.068-0.027c0.059-0.024 0.126-0.021 0.183 0.008 0.247 0.123 0.544 0.075 0.739-0.12l0.040-0.040c0.181-0.181 0.243-0.445 0.162-0.688l-0.191-0.572c0.103 0.031 0.216-0.015 0.266-0.114 0.055-0.111 0.010-0.245-0.1-0.301l-0.448-0.224c-0.081-0.041-0.178-0.028-0.247 0.031s-0.094 0.154-0.066 0.24l0.361 1.082c0.027 0.081 0.006 0.169-0.054 0.229l-0.040 0.040c-0.058 0.058-0.147 0.073-0.222 0.036-0.145-0.073-0.311-0.086-0.466-0.047-0.031-0.719-0.109-1.435-0.274-1.93-0.039-0.117-0.166-0.181-0.283-0.142s-0.181 0.166-0.142 0.283c0.161 0.484 0.232 1.222 0.257 1.956l-0.268 0.107v-1.238c0-0.309-0.251-0.56-0.56-0.56s-0.56 0.251-0.56 0.56v1.085l-0.229-1.129c-0.024-0.121-0.142-0.201-0.264-0.175s-0.2 0.143-0.175 0.264l0.236 1.167z"></path>
<path fill="#f5f5f5" d="M6.769 10.662c0.124 0 0.224-0.1 0.224-0.224v-0.224c0-0.124-0.1-0.224-0.224-0.224s-0.224 0.1-0.224 0.224v0.224c0 0.124 0.1 0.224 0.224 0.224z"></path>
<path fill="#f5f5f5" d="M9.009 10.438h0.224c0.124 0 0.224-0.1 0.224-0.224s-0.1-0.224-0.224-0.224h-0.224c-0.124 0-0.224 0.1-0.224 0.224s0.1 0.224 0.224 0.224z"></path>
<path fill="#f5f5f5" d="M7.55 13.383l-1.12 0.672c-0.106 0.064-0.141 0.201-0.077 0.307 0.042 0.070 0.116 0.109 0.192 0.109 0.039 0 0.079-0.010 0.115-0.032l1.12-0.672c0.106-0.064 0.141-0.201 0.077-0.307s-0.201-0.141-0.308-0.077z"></path>
<path fill="#f5f5f5" d="M10.571 13.779l0.005-0.004c0.019 0.076 0.051 0.149 0.103 0.21 0.091 0.107 0.228 0.161 0.382 0.148 0.219-0.016 0.368-0.116 0.466-0.245 0.015 0.010 0.031 0.020 0.047 0.028 0.121 0.061 0.261 0.056 0.395-0.013 0.339-0.174 0.412-0.578 0.401-0.789-0.006-0.123-0.111-0.21-0.233-0.212-0.123 0.005-0.219 0.11-0.214 0.233 0 0.003 0.005 0.269-0.157 0.367-0.027-0.037-0.058-0.12-0.070-0.189-0.019-0.115-0.125-0.196-0.239-0.186-0.116 0.009-0.206 0.107-0.206 0.223-0 0.033-0.007 0.32-0.229 0.344-0.026-0.035-0.026-0.184-0.001-0.293 0.021-0.090-0.015-0.184-0.091-0.236s-0.177-0.053-0.253-0.001l-0.125 0.085c-0.059-1.299-0.196-2.814-0.198-2.833-0.011-0.123-0.12-0.215-0.243-0.203s-0.214 0.12-0.203 0.243c0.002 0.021 0.16 1.773 0.209 3.111-0.011 0.011-0.023 0.023-0.034 0.033-0.089-0.223-0.264-0.364-0.491-0.386-0.319-0.028-0.665 0.189-0.789 0.499-0.107 0.267-0.040 0.529 0.171 0.668 0.152 0.1 0.38 0.132 0.668 0.031-0.070 0.247-0.198 0.497-0.364 0.691-0.149 0.174-0.398 0.374-0.716 0.365-0.185-0.007-0.328-0.068-0.435-0.186-0.259-0.283-0.237-0.796-0.237-0.802 0.006-0.123-0.088-0.229-0.211-0.235-0.124-0.013-0.229 0.088-0.236 0.211-0.002 0.028-0.034 0.702 0.352 1.126 0.19 0.209 0.442 0.321 0.75 0.333 0.015 0.001 0.030 0.001 0.045 0.001 0.375 0 0.739-0.184 1.028-0.521 0.273-0.317 0.457-0.748 0.513-1.148-0.001 0.767-0.463 1.631-1.075 2.012-0.26 0.162-0.665 0.307-1.122 0.082-0.563-0.278-0.496-0.921-0.493-0.948 0.015-0.123-0.072-0.235-0.195-0.25s-0.235 0.072-0.25 0.195c-0.005 0.040-0.113 0.985 0.739 1.405 0.219 0.108 0.448 0.162 0.678 0.162 0.296 0 0.595-0.089 0.879-0.265 0.746-0.463 1.287-1.47 1.287-2.394-0-0.144-0.003-0.302-0.008-0.468zM9.22 14.010c-0.040-0.027-0.009-0.111-0.002-0.128 0.047-0.118 0.195-0.22 0.313-0.22 0.006 0 0.012 0 0.018 0.001 0.029 0.003 0.105 0.010 0.137 0.179 0.004 0.018 0.007 0.036 0.009 0.055-0.25 0.146-0.417 0.151-0.475 0.113z"></path>
<path fill="#f5f5f5" d="M6.882 16.071c-0.106-0.062-0.243-0.027-0.306 0.079-0.010 0.017-0.024 0.036-0.038 0.053-0.002-0.006-0.005-0.012-0.007-0.018-0.093-0.249-0.027-0.633 0.007-0.76 0.032-0.12-0.040-0.242-0.159-0.274-0.119-0.031-0.242 0.039-0.274 0.158-0.016 0.061-0.154 0.605 0.007 1.033 0.103 0.274 0.261 0.343 0.375 0.352 0.010 0.001 0.020 0.001 0.030 0.001 0.241 0 0.402-0.243 0.446-0.32 0.062-0.107 0.026-0.243-0.081-0.305z"></path>
<path fill="#f5f5f5" d="M11.017 12.006c0.049 0 0.097-0.016 0.138-0.048l1.13-0.887c0.016-0.012 0.026-0.028 0.037-0.043 0.163-0.098 0.273-0.275 0.273-0.478 0-0.309-0.251-0.56-0.56-0.56s-0.56 0.251-0.56 0.56c0 0.173 0.080 0.326 0.204 0.428l-0.8 0.628c-0.097 0.076-0.114 0.217-0.038 0.314 0.044 0.057 0.11 0.086 0.176 0.086zM12.034 10.438c0.062 0 0.112 0.050 0.112 0.112s-0.050 0.112-0.112 0.112c-0.062 0-0.112-0.050-0.112-0.112s0.050-0.112 0.112-0.112z"></path>
<path fill="#f5f5f5" d="M11.769 11.794c-0.118-0.039-0.244 0.024-0.283 0.142-0.024 0.072-0.132 0.441 0.087 0.661 0.085 0.085 0.197 0.128 0.335 0.128 0.092 0 0.195-0.019 0.309-0.057 0.117-0.039 0.181-0.166 0.142-0.283s-0.166-0.181-0.284-0.142c-0.125 0.042-0.178 0.035-0.183 0.039-0.013-0.033-0.004-0.133 0.018-0.205 0.039-0.117-0.025-0.243-0.142-0.282z"></path>
<path fill="#f5f5f5" d="M14.334 10.868c0.021 0.006 0.042 0.009 0.063 0.009 0.097 0 0.186-0.063 0.215-0.161l0.131-0.448c0.035-0.119-0.034-0.243-0.152-0.278s-0.243 0.034-0.278 0.152l-0.131 0.448c-0.035 0.119 0.034 0.243 0.152 0.278z"></path>
<path fill="#f5f5f5" d="M13.028 10.841c0.036 0.021 0.075 0.031 0.113 0.031 0.077 0 0.152-0.040 0.194-0.111 0.063-0.107 0.027-0.244-0.080-0.307-0.045-0.026-0.039-0.1-0.037-0.115 0.007-0.059 0.042-0.131 0.103-0.15 0.118-0.037 0.184-0.162 0.147-0.281s-0.162-0.184-0.281-0.147c-0.223 0.070-0.386 0.276-0.415 0.527-0.027 0.233 0.072 0.445 0.256 0.553z"></path>
<path fill="#f5f5f5" d="M11.25 14.471c-0.124 0-0.224 0.1-0.224 0.224 0 0.109 0.078 0.2 0.182 0.22 0.012 0.017 0.042 0.077 0.042 0.228 0 0.124 0.1 0.224 0.224 0.224s0.224-0.1 0.224-0.224c-0-0.665-0.43-0.672-0.448-0.672z"></path>
<path fill="#f5f5f5" d="M15.052 13.543c0.028 0.005 0.056 0.007 0.084 0.007 0.176 0 0.354-0.089 0.53-0.265 0.088-0.088 0.088-0.229 0-0.317s-0.229-0.088-0.317 0c-0.134 0.134-0.206 0.137-0.225 0.133-0.043-0.006-0.082-0.062-0.090-0.077-0.056-0.109-0.19-0.153-0.299-0.098-0.111 0.055-0.156 0.19-0.1 0.301 0.014 0.028 0.143 0.272 0.417 0.316z"></path>
<path fill="#f5f5f5" d="M18.86 11.969c-0.001-0.004-0.003-0.007-0.004-0.010-0.040-0.116-0.167-0.18-0.283-0.14-0.117 0.039-0.181 0.166-0.142 0.283 0.017 0.053 0.117 0.316 0.364 0.349 0.017 0.002 0.033 0.003 0.049 0.003 0.155 0 0.301-0.1 0.433-0.299 0.069-0.103 0.041-0.242-0.062-0.311s-0.242-0.041-0.311 0.062c-0.018 0.026-0.033 0.047-0.046 0.062z"></path>
<path fill="#f5f5f5" d="M18.42 16.040c0-0.956-0.042-1.852-0.1-2.637 0.318 0.552 0.604 1.109 0.787 1.596 0.034 0.090 0.119 0.145 0.21 0.145 0.026 0 0.053-0.005 0.079-0.014 0.116-0.044 0.175-0.173 0.131-0.289-0.284-0.756-0.793-1.657-1.296-2.456-0.123-1.207-0.26-1.973-0.262-1.987-0.022-0.122-0.139-0.204-0.261-0.18-0.122 0.022-0.203 0.139-0.18 0.26 0.002 0.010 0.072 0.404 0.157 1.069-0.172-0.255-0.332-0.486-0.466-0.676l0.011 0.004c0.118 0.039 0.244-0.024 0.284-0.142s-0.024-0.244-0.142-0.283l-0.672-0.224c-0.093-0.031-0.195 0.002-0.253 0.081-0.015 0.021-0.026 0.044-0.033 0.069-0.134-0.099-0.306-0.18-0.468-0.112-0.098 0.040-0.214 0.142-0.214 0.399 0 0.197 0.075 0.409 0.155 0.635 0.132 0.374 0.215 0.649 0.075 0.78-0.077 0.072-0.154 0.1-0.23 0.081-0.138-0.035-0.275-0.219-0.366-0.492-0.004-0.012-0.012-0.020-0.018-0.031 0.047-0.347 0.027-0.765-0.068-1.24-0.024-0.121-0.142-0.2-0.264-0.176s-0.2 0.142-0.176 0.264c0.146 0.732 0.102 1.329-0.117 1.597-0.085 0.104-0.191 0.152-0.335 0.152-0.045 0-0.076-0.014-0.107-0.050-0.177-0.204-0.176-0.861-0.119-1.263 0.009-0.064-0.010-0.129-0.053-0.178s-0.104-0.077-0.169-0.077c-0.386 0-0.532 0.438-0.661 0.825-0.057 0.17-0.162 0.486-0.236 0.519-0.136 0-0.223-0.398-0.224-0.672-0-0.124-0.101-0.224-0.224-0.224 0 0-0 0-0 0-0.124 0-0.224 0.1-0.224 0.224 0 0.517 0.176 1.12 0.672 1.12 0.369 0 0.519-0.403 0.644-0.777 0.022 0.298 0.089 0.606 0.254 0.796 0.116 0.134 0.27 0.205 0.446 0.205 0.277 0 0.512-0.109 0.682-0.316 0.031-0.037 0.057-0.080 0.083-0.124 0.13 0.185 0.29 0.307 0.47 0.352 0.053 0.013 0.106 0.020 0.158 0.020 0.173 0 0.342-0.071 0.488-0.209 0.030-0.028 0.052-0.060 0.075-0.090 0.055 0.016 0.11 0.025 0.166 0.025 0.181 0 0.356-0.073 0.465-0.143 0.104-0.067 0.134-0.204 0.068-0.308s-0.204-0.135-0.308-0.070c-0.002 0.001-0.151 0.087-0.254 0.067 0-0.246-0.089-0.506-0.17-0.736-0.046-0.131-0.094-0.265-0.116-0.375 0.018 0.016 0.037 0.032 0.053 0.047 0.087 0.088 0.229 0.088 0.317 0 0.014-0.014 0.023-0.032 0.033-0.049 0.232 0.32 0.71 0.992 1.201 1.767 0.094 0.953 0.176 2.168 0.176 3.501 0 0.124 0.1 0.224 0.224 0.224s0.224-0.1 0.224-0.224z"></path>
<path fill="#f5f5f5" d="M18.644 11.11c0 0.124 0.1 0.224 0.224 0.224s0.224-0.1 0.224-0.224c0-0.264-0.206-0.69-0.248-0.772-0.055-0.111-0.19-0.155-0.301-0.1s-0.156 0.19-0.1 0.301c0.081 0.162 0.2 0.455 0.2 0.572z"></path>
<path fill="#f5f5f5" d="M17.625 16.064c-0.11-0.056-0.245-0.012-0.301 0.099-0.024 0.047-0.061 0.099-0.093 0.133-0.010-0.089 0.014-0.267 0.059-0.414 0.030-0.098-0.011-0.205-0.099-0.258s-0.201-0.039-0.274 0.034l-0.448 0.448c-0.088 0.088-0.088 0.229 0 0.317s0.229 0.088 0.317 0l0.011-0.011c0.019 0.090 0.056 0.172 0.12 0.235 0.084 0.084 0.186 0.128 0.291 0.128 0.020 0 0.041-0.002 0.062-0.005 0.254-0.041 0.412-0.321 0.454-0.406 0.055-0.111 0.011-0.244-0.1-0.3z"></path>
<path fill="#f5f5f5" d="M17.538 14.261h-1.579c0.014-0.056 0.028-0.109 0.043-0.159 0.63-0.131 1.004-0.334 1.114-0.605 0.038-0.094 0.078-0.284-0.084-0.503-0.146-0.197-0.352-0.285-0.566-0.242-0.318 0.065-0.602 0.408-0.806 0.957-0.633 0.108-1.037 0.335-1.294 0.559-0.091-0.918-0.447-1.464-0.465-1.49-0.069-0.103-0.208-0.131-0.311-0.062s-0.131 0.208-0.062 0.311c0.004 0.006 0.411 0.628 0.411 1.668 0 1.023-0.816 1.793-1.344 1.793-0.252 0-0.362-0.299-0.41-0.552 0.518-0.363 0.975-0.783 1.076-1.186 0.136-0.546-0.035-0.948-0.149-1.215-0.005-0.012-0.011-0.025-0.017-0.039 0.005 0.004 0.009 0.009 0.014 0.013 0.087 0.088 0.229 0.088 0.317 0s0.088-0.229 0-0.317c-0.131-0.131-0.385-0.337-0.617-0.24-0.098 0.040-0.214 0.142-0.214 0.399 0 0.116 0.048 0.229 0.104 0.36 0.101 0.236 0.226 0.53 0.126 0.93-0.059 0.237-0.35 0.524-0.733 0.809-0.041-0.049-0.101-0.082-0.169-0.082h-0c-0.124 0-0.224 0.1-0.224 0.224 0 0.040 0.002 0.083 0.004 0.128-0.479 0.311-1.022 0.598-1.442 0.789-0.113 0.051-0.162 0.184-0.111 0.297 0.037 0.082 0.119 0.131 0.204 0.131 0.031 0 0.063-0.006 0.093-0.020 0.126-0.057 0.724-0.336 1.338-0.717 0.113 0.384 0.353 0.737 0.81 0.737 0.537 0 1.147-0.44 1.499-1.096 0.043 0.075 0.091 0.147 0.149 0.214 0.564 0.65 1.666 0.658 1.712 0.658 0.121 0 0.22-0.095 0.224-0.216s-0.088-0.223-0.208-0.232c-0.002-0-0.18-0.020-0.28-0.136-0.060-0.070-0.084-0.166-0.073-0.294 0.023-0.276 0.914-0.482 1.699-0.495 0.094-0.002 0.176-0.061 0.208-0.149l0.224-0.63c0.024-0.069 0.014-0.145-0.028-0.204s-0.11-0.095-0.183-0.095zM16.554 13.191c0.004-0.001 0.010-0.002 0.017-0.002 0.021 0 0.055 0.011 0.1 0.071 0.009 0.011 0.036 0.050 0.029 0.067-0.026 0.063-0.18 0.168-0.503 0.263 0.142-0.277 0.28-0.384 0.356-0.4zM15.201 16.137c-0.228-0.074-0.46-0.191-0.62-0.377-0.177-0.204-0.242-0.462-0.199-0.789 0.007-0.017 0.021-0.051 0.047-0.095 0.316-0.029 1.158 0.095 1.217 0.337-0.26 0.133-0.451 0.319-0.474 0.585-0.011 0.133 0.002 0.246 0.029 0.34z"></path>
<path fill="#f5f5f5" d="M19.977 11.039l-0.224-0.672c-0.036-0.108-0.148-0.173-0.259-0.148s-0.188 0.128-0.176 0.241c0.155 1.546 0.447 4.561 0.447 4.907 0 0.31-0.552 0.922-1.445 1.368-0.111 0.055-0.156 0.19-0.1 0.301 0.039 0.079 0.118 0.124 0.201 0.124 0.034 0 0.068-0.008 0.1-0.024 0.815-0.408 1.692-1.135 1.692-1.769 0-0.331-0.229-2.713-0.36-4.051 0.106-0.045 0.162-0.165 0.124-0.277z"></path>
<path fill="#f5f5f5" d="M21.847 13.061c0.043 0.043 0.1 0.066 0.159 0.066 0.038 0 0.076-0.010 0.111-0.029 0.088-0.050 0.131-0.152 0.106-0.25-0.040-0.158-0.053-0.354-0.032-0.435 0.112 0.004 0.216-0.076 0.233-0.192 0.017-0.123-0.068-0.236-0.19-0.254-0.148-0.020-0.278 0.023-0.369 0.124-0.059 0.066-0.094 0.15-0.113 0.241l-0.26-0.26c-0.088-0.088-0.229-0.088-0.317 0s-0.088 0.229 0 0.317l0.672 0.672z"></path>
<path fill="#f5f5f5" d="M22.351 13.295l-0.84 0.602c-0.101 0.072-0.124 0.212-0.052 0.313 0.044 0.061 0.113 0.093 0.182 0.093 0.045 0 0.091-0.014 0.13-0.042l0.84-0.602c0.101-0.072 0.124-0.212 0.052-0.313s-0.212-0.124-0.313-0.051z"></path>
<path fill="#f5f5f5" d="M22.277 14.137c-0.070 0.091-0.060 0.219 0.020 0.297 0.010 0.016 0.053 0.102 0.045 0.323-0.004 0.124 0.092 0.228 0.216 0.232 0.003 0 0.005 0 0.008 0 0.12 0 0.22-0.095 0.224-0.216 0.016-0.457-0.133-0.624-0.198-0.675-0.098-0.076-0.239-0.059-0.314 0.039z"></path>
<path fill="#f5f5f5" d="M24.232 15.787c0.124 0 0.224-0.1 0.224-0.224 0-0.331-0.017-0.7-0.045-1.084 0.222 0.364 0.407 0.7 0.525 0.976 0.036 0.085 0.119 0.136 0.206 0.136 0.029 0 0.059-0.006 0.088-0.018 0.114-0.049 0.166-0.181 0.118-0.294-0.205-0.479-0.588-1.113-1.025-1.768-0.088-0.822-0.203-1.628-0.292-2.206 0.047 0.005 0.097-0.007 0.14-0.035 0.071-0.045 0.104-0.124 0.099-0.202 0.006 0.022 0.012 0.044 0.025 0.064 0.002 0.002 0.145 0.24 0.082 0.549-0.025 0.121 0.053 0.24 0.174 0.265 0.015 0.003 0.031 0.005 0.046 0.005 0.104 0 0.197-0.073 0.219-0.179 0.101-0.489-0.132-0.864-0.142-0.88-0.067-0.104-0.205-0.135-0.309-0.069-0.071 0.045-0.105 0.124-0.1 0.203-0.006-0.022-0.012-0.044-0.025-0.065l-0.378-0.588c-0.058-0.090-0.171-0.126-0.27-0.088s-0.158 0.142-0.139 0.248c0.003 0.018 0.174 1.001 0.326 2.186-0.172-0.243-0.344-0.48-0.51-0.706-0.027-0.339-0.054-0.652-0.078-0.912 0.012-0.004 0.024-0.008 0.036-0.014 0.111-0.055 0.156-0.19 0.1-0.301l-0.224-0.448c-0.048-0.097-0.159-0.145-0.263-0.115s-0.171 0.13-0.161 0.238c0.027 0.267 0.055 0.563 0.082 0.874-0.142-0.187-0.273-0.358-0.385-0.503 0.022-0.019 0.041-0.042 0.054-0.070 0.055-0.111 0.010-0.245-0.1-0.301l-0.448-0.224c-0.094-0.047-0.208-0.022-0.275 0.059s-0.066 0.199-0.001 0.281c0.012 0.015 0.564 0.707 1.224 1.599 0.114 1.48 0.191 3.021 0.083 3.343-0.020 0.059-0.054 0.129-0.086 0.131-0.135 0.019-0.459-0.284-0.621-0.608-0.094-0.187-0.228-0.206-0.3-0.203-0.241 0.015-0.335 0.28-0.506 0.761-0.122 0.345-0.275 0.773-0.445 0.948-0.093-0.113-0.212-0.492-0.279-0.882 0.031 0.086 0.112 0.149 0.209 0.149 0.124 0 0.224-0.1 0.224-0.224 0-0.334-0.234-2.879-0.364-4.274 0.109-0.044 0.166-0.166 0.129-0.278l-0.224-0.672c-0.036-0.108-0.147-0.172-0.259-0.148s-0.188 0.127-0.177 0.241c0.152 1.598 0.438 4.686 0.447 5.112-0.001-0.004-0.001-0.008-0.002-0.011-0.017-0.123-0.132-0.207-0.253-0.19-0.123 0.018-0.207 0.131-0.19 0.254 0.065 0.458 0.233 1.246 0.618 1.374 0.030 0.010 0.071 0.019 0.119 0.019 0.088 0 0.201-0.031 0.315-0.146 0.244-0.244 0.409-0.709 0.555-1.119 0.033-0.093 0.072-0.203 0.109-0.297 0.206 0.3 0.564 0.674 0.928 0.645 0.128-0.009 0.36-0.078 0.48-0.436s0.072-1.604-0.008-2.797c0.189 0.265 0.378 0.536 0.558 0.803 0.070 0.671 0.12 1.343 0.12 1.895 0 0.124 0.101 0.224 0.224 0.224z"></path>
<path fill="#f5f5f5" d="M25.932 14.609c-0.159-1.182-0.38-2.552-0.52-3.393 0.063 0.016 0.132 0.003 0.188-0.040 0.099-0.075 0.117-0.216 0.042-0.314l-0.406-0.532c-0.063-0.082-0.173-0.111-0.268-0.069s-0.149 0.142-0.131 0.244c0.004 0.023 0.404 2.323 0.651 4.164 0.094 0.704-0.043 1.332-0.369 1.681-0.209 0.224-0.486 0.326-0.822 0.306-0.123-0.007-0.23 0.086-0.238 0.21s0.086 0.23 0.209 0.238c0.038 0.002 0.075 0.003 0.112 0.003 0.423 0 0.789-0.155 1.066-0.452 0.422-0.453 0.599-1.199 0.485-2.046z"></path>
<path fill="#f5f5f5" d="M23.468 16.086c-0.082 0.090-0.076 0.23 0.011 0.315 0.012 0.012 0.027 0.035 0.027 0.046 0 0.006-0.009 0.025-0.034 0.050-0.088 0.088-0.088 0.229 0 0.317 0.044 0.044 0.101 0.066 0.158 0.066s0.115-0.022 0.158-0.066c0.142-0.142 0.168-0.286 0.165-0.382-0.007-0.207-0.148-0.34-0.176-0.365-0.091-0.080-0.227-0.070-0.31 0.019z"></path>
<path fill="#f5f5f5" d="M22.678 21h-1.568v-0.224c0-0.124-0.1-0.224-0.224-0.224s-0.224 0.1-0.224 0.224v0.224h-11.876c0.448 0.448 1.344 0.672 2.017 0.672 0.482 0 6.496 0 9.859 0v0.448c0 0.124 0.1 0.224 0.224 0.224h1.793c0.371 0 0.672-0.302 0.672-0.672s-0.302-0.672-0.672-0.672zM22.678 21.896h-1.569v-0.224c1.080 0 1.793 0 1.793 0l-0.040-0.121c0.023 0.035 0.040 0.075 0.040 0.121-0 0.124-0.101 0.224-0.224 0.224z"></path>
</svg>
