<!-- Generated by IcoMoon.io -->
<svg version="1.1" xmlns="http://www.w3.org/2000/svg" width="32" height="32" viewBox="0 0 32 32">
<title>senegal</title>
<path fill="#ffe15a" d="M30.152 18.547l-0.001-5.093-0-1.698-0-2.655c-0-0.725-0.357-1.399-0.946-1.809-0.051-0.035-0.103-0.069-0.157-0.101l-11.948-6.895c-0.682-0.394-1.523-0.394-2.205 0l-11.945 6.899c-0.053 0.030-0.103 0.063-0.152 0.098-0.592 0.41-0.95 1.085-0.95 1.813l0 2.651 0 1.698 0.001 5.093 0 1.698 0 2.655c0 0.725 0.357 1.399 0.946 1.809 0.051 0.035 0.103 0.069 0.157 0.101l11.948 6.895c0.682 0.394 1.523 0.394 2.205-0l11.945-6.899c0.053-0.030 0.103-0.063 0.152-0.098 0.592-0.41 0.95-1.085 0.95-1.813l-0-2.651-0-1.698z"></path>
<path fill="#73af00" d="M6.939 4.89l-3.99 2.304c-0.053 0.030-0.103 0.063-0.152 0.098-0.592 0.41-0.95 1.085-0.95 1.813l0 2.651 0 1.698 0.001 5.093 0 1.698 0 2.655c0 0.725 0.357 1.399 0.946 1.809 0.051 0.035 0.103 0.069 0.157 0.101l8.27 4.773v-27.166l-4.284 2.474z"></path>
<path fill="#ff4b55" d="M25.061 27.109l3.99-2.304c0.053-0.030 0.103-0.063 0.152-0.098 0.592-0.41 0.95-1.085 0.95-1.813l-0-2.651-0-1.698-0.001-5.093-0-1.698-0-2.655c-0-0.725-0.357-1.399-0.946-1.809-0.051-0.035-0.103-0.069-0.157-0.101l-8.27-4.773v27.166l4.284-2.474z"></path>
<path fill="#73af00" d="M16.129 12.806l0.741 2.223 2.343 0.018c0.131 0.001 0.185 0.168 0.080 0.246l-1.885 1.392 0.707 2.234c0.040 0.125-0.103 0.228-0.209 0.152l-1.906-1.362-1.906 1.362c-0.107 0.076-0.249-0.027-0.209-0.152l0.707-2.234-1.885-1.392c-0.105-0.078-0.051-0.245 0.080-0.246l2.343-0.018 0.741-2.223c0.042-0.124 0.217-0.124 0.259 0z"></path>
</svg>
