<svg xmlns="http://www.w3.org/2000/svg" width="32" height="32" version="1.1" viewBox="0 0 32 32"><title>seychelles</title><path fill="#f5f5f5" d="M30.153 20.244l-0-1.698-0.001-5.093-0-1.698-0-2.655c0-0.194-0.026-0.384-0.075-0.567-0.026-0.098-0.059-0.194-0.099-0.287-0.16-0.381-0.426-0.714-0.773-0.955-0.051-0.035-0.103-0.069-0.157-0.101l-11.947-6.895c-0.682-0.394-1.523-0.394-2.205 0l-11.945 6.899c-0.053 0.030-0.103 0.063-0.152 0.098-0.212 0.147-0.393 0.328-0.54 0.534-0.098 0.138-0.18 0.287-0.244 0.443-0.107 0.261-0.166 0.544-0.166 0.836l0 2.651 0 1.698 0.001 5.092v0.001l0 1.551v0.146l0 2.655v0c0 0.042 0.002 0.084 0.004 0.127 0.001 0.015 0.002 0.029 0.004 0.044 0.002 0.027 0.004 0.054 0.007 0.081 0.002 0.018 0.005 0.036 0.007 0.053 0.003 0.023 0.007 0.046 0.011 0.069 0.003 0.020 0.007 0.039 0.011 0.058 0.004 0.021 0.009 0.041 0.013 0.061s0.010 0.041 0.015 0.062c0.005 0.018 0.010 0.036 0.015 0.054 0.006 0.022 0.012 0.044 0.019 0.065 0.004 0.014 0.010 0.028 0.014 0.042 0.020 0.059 0.043 0.117 0.068 0.174 0 0 0 0.001 0.001 0.001v0c0.001 0.001 0.001 0.003 0.002 0.004v0 0c0.039 0.088 0.085 0.174 0.135 0.256 0.006 0.010 0.012 0.019 0.018 0.029 0.019 0.030 0.039 0.060 0.059 0.089 0.009 0.012 0.018 0.025 0.027 0.037 0.019 0.026 0.038 0.051 0.058 0.076 0.011 0.013 0.022 0.026 0.033 0.039 0.020 0.023 0.040 0.046 0.060 0.068 0.012 0.013 0.024 0.026 0.037 0.039 0.021 0.022 0.043 0.043 0.065 0.064 0.013 0.012 0.025 0.024 0.038 0.036 0.024 0.022 0.049 0.043 0.074 0.064 0.012 0.010 0.023 0.020 0.035 0.029 0.037 0.030 0.076 0.059 0.115 0.086 0.051 0.035 0.103 0.069 0.157 0.101l11.948 6.895c0.682 0.394 1.523 0.394 2.205-0l11.945-6.899c0.053-0.030 0.103-0.063 0.152-0.098 0.592-0.41 0.95-1.085 0.95-1.813l-0-2.65z"/><path fill="#73af00" d="M30.153 20.825l-24.742 5.403 9.49 5.477c0.682 0.394 1.523 0.394 2.205-0l11.945-6.899c0.053-0.030 0.103-0.063 0.152-0.098 0.592-0.41 0.95-1.085 0.95-1.813l-0-2.070z"/><path fill="#41479b" d="M10.719 2.707l-7.77 4.488c-0.053 0.030-0.103 0.063-0.152 0.098-0.212 0.147-0.393 0.328-0.54 0.534-0.098 0.138-0.18 0.287-0.244 0.443-0.107 0.261-0.166 0.544-0.166 0.836l0 2.651 0 1.698 0.001 5.092v0.001l0 1.551 8.87-17.391z"/><path fill="#ffe15a" d="M1.854 23.038c0.001 0.011 0.002 0.022 0.003 0.033 0.002 0.027 0.004 0.054 0.007 0.081 0 0.003 0.001 0.005 0.001 0.008 0.002 0.015 0.004 0.030 0.006 0.046s0.004 0.029 0.007 0.044c0.001 0.008 0.002 0.017 0.004 0.025 0.003 0.016 0.006 0.031 0.009 0.047 0.001 0.004 0.001 0.008 0.002 0.011 0.004 0.021 0.009 0.041 0.013 0.061 0.002 0.009 0.004 0.019 0.007 0.028 0.003 0.011 0.005 0.023 0.008 0.034 0.002 0.008 0.005 0.016 0.007 0.024 0.003 0.010 0.006 0.020 0.008 0.030 0.006 0.022 0.012 0.044 0.019 0.065 0.002 0.005 0.003 0.009 0.005 0.013 0.003 0.009 0.007 0.019 0.010 0.029v0c0.020 0.059 0.043 0.117 0.068 0.174 0 0 0 0 0 0s0 0.001 0.001 0.002l20.644-20.274-5.583-3.222c-0.682-0.394-1.523-0.394-2.205 0l-4.169 2.408-8.877 17.397v0.144l0 2.655v0c0 0.042 0.002 0.084 0.004 0.127 0 0.004 0.001 0.008 0.001 0.012z"/><path fill="#ff4b55" d="M30.151 13.778l-0-0.325-0-1.698-0-2.655c0-0.194-0.026-0.384-0.075-0.567-0.026-0.098-0.059-0.194-0.099-0.287-0.16-0.381-0.426-0.714-0.773-0.955-0.051-0.035-0.103-0.069-0.157-0.101l-6.341-3.659-20.666 20.265c0 0 0 0 0 0 0.007 0.016 0.015 0.031 0.023 0.046 0.013 0.028 0.026 0.057 0.041 0.084 0.023 0.043 0.047 0.085 0.072 0.126 0.006 0.010 0.012 0.019 0.018 0.029 0.019 0.030 0.039 0.060 0.059 0.089 0.007 0.010 0.014 0.019 0.021 0.029 0.002 0.003 0.004 0.006 0.006 0.008 0.004 0.005 0.007 0.009 0.011 0.014 0.015 0.021 0.031 0.041 0.047 0.061 0.011 0.013 0.022 0.026 0.033 0.039 0.020 0.023 0.040 0.046 0.060 0.068 0.012 0.013 0.024 0.026 0.037 0.039 0.011 0.012 0.023 0.023 0.034 0.034 0.010 0.010 0.020 0.020 0.030 0.030 0.006 0.005 0.011 0.011 0.017 0.016 0.007 0.007 0.014 0.013 0.021 0.020 0.012 0.011 0.024 0.021 0.036 0.031s0.025 0.022 0.038 0.033c0.008 0.007 0.016 0.014 0.025 0.021 0.003 0.003 0.007 0.006 0.010 0.009 0.037 0.030 0.076 0.059 0.115 0.086 0.051 0.035 0.103 0.069 0.157 0.101l0.837 0.483 26.362-11.515z"/></svg>