<svg xmlns="http://www.w3.org/2000/svg" width="32" height="32" version="1.1" viewBox="0 0 32 32"><title>singapore</title><path fill="#f5f5f5" d="M30.152 16.039l-0.001-6.939c-0-0.788-0.421-1.516-1.103-1.91l-11.948-6.895c-0.683-0.394-1.523-0.394-2.205 0l-11.945 6.899c-0.682 0.394-1.103 1.122-1.102 1.91l0.001 6.934 0.001 6.861c0 0.788 0.421 1.516 1.103 1.91l11.948 6.895c0.682 0.394 1.523 0.394 2.205-0l11.945-6.899c0.682-0.394 1.102-1.122 1.102-1.91l-0.001-6.856z"/><path fill="#ff4b55" d="M30.151 9.1c-0-0.788-0.421-1.516-1.103-1.91l-11.948-6.895c-0.683-0.394-1.523-0.394-2.205 0l-11.945 6.899c-0.682 0.394-1.103 1.122-1.102 1.91l0.001 6.934h28.304l-0.001-6.939z"/><path fill="#f5f5f5" d="M7.175 10.304c0-1.904 1.397-3.483 3.222-3.775 0.099-0.016 0.104-0.152 0.006-0.175-0.452-0.104-0.932-0.133-1.43-0.066-1.968 0.268-3.489 1.971-3.517 3.957-0.032 2.268 1.796 4.114 4.053 4.114 0.307 0 0.606-0.036 0.893-0.102 0.098-0.022 0.093-0.159-0.006-0.175-1.824-0.292-3.221-1.867-3.221-3.779z"/><path fill="#f5f5f5" d="M10.427 11.323l-0.171 0.514-0.542 0.004c-0.070 0.001-0.099 0.090-0.043 0.132l0.436 0.322-0.164 0.517c-0.021 0.067 0.055 0.122 0.112 0.081l0.441-0.315 0.441 0.315c0.057 0.041 0.133-0.014 0.112-0.081l-0.164-0.517 0.436-0.322c0.056-0.042 0.027-0.131-0.043-0.132l-0.542-0.004-0.171-0.514c-0.022-0.067-0.116-0.067-0.138 0z"/><path fill="#f5f5f5" d="M13.106 11.323l-0.171 0.514-0.542 0.004c-0.070 0.001-0.099 0.090-0.043 0.132l0.436 0.322-0.164 0.517c-0.021 0.067 0.055 0.122 0.112 0.081l0.441-0.315 0.441 0.315c0.057 0.041 0.133-0.014 0.112-0.081l-0.164-0.517 0.436-0.322c0.056-0.042 0.027-0.131-0.043-0.132l-0.542-0.004-0.171-0.514c-0.022-0.067-0.116-0.067-0.138 0z"/><path fill="#f5f5f5" d="M11.778 7.19l-0.171 0.514-0.542 0.004c-0.070 0.001-0.099 0.090-0.043 0.132l0.436 0.322-0.164 0.517c-0.021 0.067 0.055 0.122 0.112 0.081l0.441-0.315 0.441 0.315c0.057 0.041 0.133-0.014 0.112-0.081l-0.164-0.517 0.436-0.322c0.056-0.042 0.027-0.131-0.043-0.132l-0.542-0.004-0.171-0.514c-0.022-0.066-0.116-0.066-0.138 0z"/><path fill="#f5f5f5" d="M9.643 8.773l-0.171 0.514-0.542 0.004c-0.070 0.001-0.099 0.090-0.043 0.132l0.436 0.322-0.164 0.517c-0.021 0.067 0.055 0.122 0.112 0.081l0.441-0.315 0.441 0.315c0.057 0.041 0.133-0.014 0.112-0.081l-0.164-0.517 0.436-0.322c0.056-0.042 0.027-0.131-0.043-0.132l-0.542-0.004-0.171-0.514c-0.022-0.067-0.116-0.067-0.138 0z"/><path fill="#f5f5f5" d="M13.896 8.773l-0.171 0.514-0.542 0.004c-0.070 0.001-0.099 0.090-0.043 0.132l0.436 0.322-0.164 0.517c-0.021 0.067 0.055 0.122 0.112 0.081l0.441-0.315 0.441 0.315c0.057 0.041 0.133-0.014 0.112-0.081l-0.164-0.517 0.436-0.322c0.056-0.042 0.027-0.131-0.043-0.132l-0.542-0.004-0.171-0.514c-0.022-0.067-0.116-0.067-0.138 0z"/></svg>