<!-- Generated by IcoMoon.io -->
<svg version="1.1" xmlns="http://www.w3.org/2000/svg" width="32" height="32" viewBox="0 0 32 32">
<title>sint-eustatius</title>
<path fill="#41479b" d="M29.892 22.768l-0-2.602-0-1.666-0.001-4.999-0-1.666-0-2.606c0-0.191-0.026-0.377-0.074-0.556-0.026-0.096-0.058-0.191-0.097-0.282-0.158-0.374-0.418-0.7-0.758-0.937-0.050-0.035-0.101-0.068-0.154-0.099l-11.727-6.768c-0.67-0.387-1.495-0.386-2.165 0l-11.725 6.772c-0.052 0.030-0.101 0.062-0.15 0.096-0.208 0.144-0.386 0.322-0.53 0.524-0.096 0.135-0.177 0.281-0.24 0.435-0.105 0.256-0.163 0.534-0.163 0.82l0.001 2.602 0 1.666 0.001 4.998v0.001l0 1.666 0 2.606v0c0 0.712 0.35 1.373 0.929 1.776 0.050 0.035 0.101 0.068 0.154 0.099l11.727 6.768c0.67 0.387 1.495 0.386 2.165-0l11.725-6.772c0.052-0.030 0.101-0.062 0.15-0.096 0.581-0.402 0.932-1.065 0.932-1.779v0 0z"></path>
<path fill="#ffe15a" d="M17.179 13.948c0.082-0.060 0.040-0.19-0.062-0.191l-0.785-0.006-0.248-0.745c-0.032-0.096-0.169-0.096-0.201 0l-0.248 0.745-0.785 0.006c-0.102 0.001-0.144 0.13-0.062 0.191l0.632 0.466-0.044 0.139-0.193 0.609c-0.031 0.097 0.080 0.177 0.162 0.118l0.639-0.456 0.639 0.456c0.001 0.001 0.002 0.001 0.003 0.002 0.082 0.055 0.19-0.024 0.16-0.119l-0.237-0.748 0.632-0.466z"></path>
<path fill="#ff4b55" d="M30.152 20.244l-0-1.698-0-1.922-0-0.625-0-2.547-0-1.698-0-2.655c-0-0.194-0.026-0.384-0.075-0.567-0.026-0.098-0.059-0.194-0.099-0.287-0.16-0.381-0.426-0.714-0.773-0.955-0.051-0.035-0.103-0.069-0.157-0.101l-11.947-6.895c-0.341-0.197-0.722-0.295-1.102-0.295s-0.762 0.099-1.103 0.296l-11.945 6.899c-0.053 0.030-0.103 0.063-0.152 0.098-0.212 0.147-0.393 0.328-0.54 0.534-0.098 0.138-0.18 0.287-0.244 0.443-0.107 0.261-0.166 0.544-0.166 0.836l0 2.651 0 1.698 0 1.922 0 1.25 0 1.921v0.001l0 1.697 0 2.655v0c0 0.725 0.357 1.399 0.946 1.809 0.051 0.035 0.103 0.069 0.157 0.101l11.948 6.895c0.341 0.197 0.722 0.295 1.102 0.295s0.762-0.099 1.103-0.296l11.945-6.899c0.053-0.030 0.103-0.063 0.152-0.098 0.592-0.41 0.95-1.085 0.95-1.813l-0.001-2.651zM16.625 4.128v-2.664l11.798 6.809c0.017 0.010 0.040 0.025 0.068 0.044 0.148 0.103 0.264 0.246 0.335 0.415 0.017 0.041 0.032 0.083 0.043 0.124 0.022 0.082 0.033 0.164 0.033 0.245l0 2.655 0 1.698 0 1.922h-2.125l-10.152-5.375v-5.872zM3.097 13.453l-0-1.698-0-2.651c0-0.123 0.024-0.244 0.072-0.361 0.028-0.068 0.064-0.133 0.106-0.192 0.065-0.091 0.144-0.169 0.234-0.232 0.027-0.019 0.050-0.033 0.066-0.043l11.801-6.816v8.539l-10.152 5.375h-2.125l-0-1.922zM15.375 26.622v0 3.914l-11.798-6.809c-0.017-0.010-0.040-0.025-0.068-0.044-0.257-0.179-0.41-0.472-0.41-0.784l-0-2.655-0-1.698-0-1.921h2.125l10.152 5.375v4.622h0zM16 20.917l-9.287-4.917 9.287-4.916 9.287 4.916-9.287 4.917zM28.491 23.68c-0.027 0.019-0.049 0.033-0.066 0.043l-11.801 6.816v-8.539l10.152-5.375h2.125l0 1.922 0 1.698 0 2.651c-0 0.313-0.154 0.606-0.412 0.785z"></path>
<path fill="#73af00" d="M23.14 16.625l-1.622-1.622h-0.683l-0.504 0.504-0.36-0.36h-0.72l-2.76 2.76h-3.465l-0.787-1.165h-0.999l-0.393 0.551h-0.442l-0.266 0.521 2.736 1.449h6.248l4.35-2.303z"></path>
<path fill="#f5f5f5" d="M15.375 19.262h-2.499l3.124 1.654 3.124-1.654h-2.499z"></path>
<path fill="#f5f5f5" d="M24.106 15.375l-8.107-4.292-9.287 4.917 3.426 1.814 0.266-0.521h0.442l0.393-0.551h0.999l0.787 1.165h3.465l2.76-2.76h0.72l0.36 0.36 0.504-0.504h0.683l1.957 1.957 1.812-0.959-1.18-0.625zM17.179 13.948l-0.631 0.466 0.077 0.244 0.16 0.504c0.030 0.096-0.077 0.175-0.16 0.119-0.001-0.001-0.002-0.001-0.003-0.002l-0.639-0.456-0.639 0.456c-0.083 0.059-0.193-0.021-0.162-0.118l0.237-0.748-0.631-0.466c-0.082-0.060-0.040-0.19 0.062-0.191l0.785-0.006 0.248-0.745c0.032-0.096 0.169-0.096 0.201 0l0.248 0.745 0.785 0.006c0.101 0.001 0.144 0.131 0.062 0.191z"></path>
</svg>
