<!-- Generated by IcoMoon.io -->
<svg version="1.1" xmlns="http://www.w3.org/2000/svg" width="32" height="32" viewBox="0 0 32 32">
<title>slovenia</title>
<path fill="#f5f5f5" d="M30.153 21.407v0l-0.002-12.301v-0.006c-0-0.725-0.357-1.398-0.945-1.808-0.051-0.036-0.104-0.070-0.158-0.102l-11.948-6.896c-0.043-0.025-0.086-0.048-0.13-0.069-0.472-0.232-1.006-0.285-1.507-0.16-0.197 0.049-0.388 0.125-0.569 0.229l-11.946 6.899c-0.256 0.148-0.475 0.343-0.649 0.57-0.29 0.379-0.454 0.848-0.454 1.34l0 1.488 0.002 12.307c0 0.059 0.003 0.118 0.008 0.176 0.006 0.078 0.016 0.155 0.031 0.23 0.022 0.117 0.054 0.232 0.094 0.343 0.061 0.167 0.14 0.327 0.239 0.474 0.026 0.040 0.054 0.078 0.083 0.116 0.174 0.227 0.393 0.422 0.649 0.57l11.948 6.895c0.3 0.173 0.63 0.27 0.965 0.291 0.426 0.027 0.858-0.070 1.241-0.291l11.946-6.899c0.171-0.099 0.325-0.218 0.46-0.354 0.068-0.068 0.131-0.14 0.189-0.216 0.29-0.379 0.454-0.848 0.454-1.34l-0-1.488z"></path>
<path fill="#ff4b55" d="M29.793 24.102c0.009-0.014 0.018-0.029 0.027-0.044 0.020-0.032 0.039-0.065 0.058-0.098 0.009-0.017 0.018-0.034 0.027-0.051 0.017-0.034 0.034-0.068 0.050-0.103 0.007-0.016 0.014-0.031 0.021-0.047 0.021-0.050 0.041-0.101 0.059-0.152 0-0 0-0.001 0-0.001 0.018-0.052 0.033-0.104 0.047-0.157 0.004-0.017 0.008-0.034 0.012-0.050 0.009-0.037 0.017-0.075 0.024-0.113 0.003-0.019 0.007-0.038 0.010-0.057 0.006-0.038 0.010-0.076 0.014-0.115 0.002-0.017 0.004-0.035 0.005-0.052 0.004-0.055 0.007-0.111 0.007-0.167 0 0 0-0 0-0.001l-0-1.488-14.153-1.268-14.151 1.268 0 1.492c0 0.038 0.002 0.076 0.004 0.114 0.001 0.021 0.002 0.042 0.004 0.062v0 0c0.006 0.078 0.016 0.154 0.031 0.23 0 0 0 0 0 0v0c0.022 0.117 0.054 0.232 0.094 0.343 0.030 0.083 0.065 0.164 0.105 0.243 0.003 0.006 0.007 0.013 0.010 0.019 0.017 0.033 0.034 0.065 0.053 0.097 0.023 0.039 0.046 0.078 0.072 0.115 0.026 0.040 0.054 0.078 0.083 0.116 0 0 0 0 0 0 0.038 0.050 0.080 0.099 0.123 0.145 0.011 0.012 0.022 0.023 0.033 0.035 0.044 0.046 0.089 0.091 0.137 0.134 0 0 0 0 0.001 0.001 0.048 0.042 0.099 0.082 0.151 0.12 0.013 0.010 0.026 0.019 0.040 0.029 0.053 0.037 0.107 0.073 0.164 0.106 0 0 0.001 0 0.001 0.001l11.948 6.895c0.040 0.023 0.081 0.045 0.122 0.065 0.014 0.007 0.028 0.013 0.043 0.020 0.027 0.013 0.055 0.026 0.083 0.037 0.017 0.007 0.035 0.014 0.052 0.021 0.025 0.010 0.050 0.019 0.076 0.028 0.019 0.006 0.037 0.013 0.056 0.019 0.024 0.008 0.049 0.015 0.074 0.022 0.019 0.005 0.039 0.011 0.059 0.016 0.024 0.006 0.049 0.012 0.074 0.017 0.020 0.004 0.040 0.009 0.059 0.012 0.025 0.005 0.050 0.009 0.075 0.012 0.019 0.003 0.039 0.006 0.058 0.009 0.029 0.003 0.058 0.006 0.087 0.008 0.016 0.001 0.032 0.003 0.047 0.004 0 0 0 0 0 0s0.001 0 0.002 0c0.050 0.003 0.1 0.004 0.15 0.004 0.014-0 0.028-0.001 0.042-0.001 0.037-0.001 0.073-0.002 0.11-0.005 0.018-0.001 0.035-0.003 0.053-0.005 0.033-0.003 0.066-0.007 0.099-0.012 0.019-0.003 0.038-0.006 0.057-0.009 0.031-0.005 0.062-0.011 0.093-0.018 0.020-0.004 0.039-0.009 0.059-0.014 0.030-0.007 0.061-0.016 0.091-0.024 0.020-0.006 0.039-0.011 0.058-0.018 0.030-0.010 0.060-0.021 0.090-0.032 0.018-0.007 0.037-0.013 0.056-0.021 0.032-0.013 0.064-0.027 0.095-0.042 0.016-0.007 0.032-0.014 0.047-0.021 0.046-0.022 0.091-0.046 0.136-0.072 0.001-0 0.002-0.001 0.002-0.001l11.946-6.899c0.171-0.099 0.325-0.218 0.46-0.354 0.068-0.068 0.131-0.14 0.189-0.216 0-0 0-0.001 0.001-0.001 0.033-0.043 0.063-0.087 0.093-0.133z"></path>
<path fill="#41479b" d="M1.849 21.407h28.305l-0.002-10.026-0-0.788h-28.304l0.002 12.3v0.007z"></path>
<path fill="#41479b" d="M13.501 7.621c0 0-0.15 4.776-0.82 6.117-0.83 1.648-1.664 2.129-2.904 2.573-1.241-0.444-2.075-0.925-2.904-2.573-0.67-1.341-0.82-6.116-0.82-6.117 2.368-1.069 5.081-1.069 7.449 0z"></path>
<path fill="#f5f5f5" d="M10.855 14.244c-0.091-0.058-0.156-0.1-0.305-0.1s-0.214 0.042-0.304 0.1c-0.104 0.066-0.232 0.148-0.471 0.148s-0.368-0.082-0.472-0.149c-0.090-0.058-0.156-0.099-0.304-0.099s-0.214 0.042-0.304 0.099c-0.098 0.063-0.221 0.137-0.436 0.146 0.452 0.551 0.926 0.813 1.518 1.040 0.591-0.227 1.065-0.489 1.518-1.040-0.216-0.008-0.341-0.083-0.439-0.145z"></path>
<path fill="#f5f5f5" d="M7.919 13.362c0.090 0.058 0.155 0.099 0.303 0.099s0.214-0.042 0.304-0.099c0.104-0.066 0.232-0.149 0.471-0.149s0.368 0.082 0.471 0.148c0.090 0.058 0.156 0.1 0.304 0.1s0.214-0.042 0.304-0.099c0.103-0.066 0.232-0.149 0.472-0.149s0.369 0.082 0.472 0.148c0.091 0.058 0.156 0.1 0.305 0.1s0.214-0.042 0.305-0.1c0.086-0.055 0.195-0.119 0.367-0.139 0.045-0.117 0.089-0.251 0.13-0.413l-1.111-1.851-0.414 0.828-0.828-1.655-0.828 1.655-0.414-0.828-1.11 1.85c0.041 0.162 0.084 0.296 0.129 0.415 0.171 0.021 0.279 0.084 0.365 0.14z"></path>
<path fill="#f5f5f5" d="M11.798 13.623c-0.104 0.066-0.232 0.148-0.472 0.148s-0.368-0.082-0.472-0.148c-0.091-0.058-0.156-0.1-0.305-0.1s-0.214 0.042-0.304 0.1c-0.104 0.066-0.232 0.148-0.471 0.148s-0.368-0.082-0.472-0.149c-0.090-0.058-0.156-0.099-0.304-0.099s-0.214 0.042-0.304 0.099c-0.104 0.066-0.232 0.149-0.471 0.149s-0.368-0.082-0.471-0.149c-0-0-0.001-0.001-0.001-0.001 0.081 0.147 0.162 0.283 0.243 0.405 0.060 0.033 0.124 0.055 0.229 0.055 0.149 0 0.214-0.042 0.304-0.099 0.104-0.066 0.232-0.149 0.471-0.149s0.368 0.082 0.471 0.148c0.090 0.058 0.156 0.1 0.304 0.1s0.214-0.042 0.304-0.099c0.103-0.066 0.232-0.149 0.472-0.149s0.369 0.082 0.472 0.148c0.091 0.058 0.156 0.1 0.305 0.1 0.107 0 0.171-0.022 0.232-0.056 0.081-0.122 0.162-0.258 0.243-0.405-0.001 0.001-0.002 0.001-0.003 0.002z"></path>
<path fill="#ffe15a" d="M9.792 8.705l0.073 0.237 0.242-0.056c0.016-0.004 0.028 0.016 0.016 0.028l-0.169 0.181 0.169 0.181c0.011 0.012 0 0.032-0.016 0.028l-0.242-0.056-0.073 0.237c-0.005 0.016-0.028 0.016-0.033 0l-0.073-0.237-0.242 0.056c-0.016 0.004-0.028-0.016-0.016-0.028l0.169-0.181-0.169-0.181c-0.011-0.012-0-0.032 0.016-0.028l0.242 0.056 0.073-0.237c0.005-0.016 0.028-0.016 0.033 0z"></path>
<path fill="#ffe15a" d="M8.603 7.565l0.073 0.237 0.242-0.056c0.016-0.004 0.028 0.016 0.016 0.028l-0.169 0.181 0.169 0.181c0.011 0.012 0 0.032-0.016 0.028l-0.242-0.056-0.073 0.237c-0.005 0.016-0.028 0.016-0.033 0l-0.073-0.237-0.242 0.056c-0.016 0.004-0.028-0.016-0.016-0.028l0.169-0.181-0.169-0.181c-0.011-0.012-0-0.032 0.016-0.028l0.242 0.056 0.073-0.237c0.005-0.016 0.028-0.016 0.033 0z"></path>
<path fill="#ffe15a" d="M10.991 7.565l0.073 0.237 0.242-0.056c0.016-0.004 0.028 0.016 0.016 0.028l-0.169 0.181 0.169 0.181c0.011 0.012 0 0.032-0.016 0.028l-0.242-0.056-0.073 0.237c-0.005 0.016-0.028 0.016-0.033 0l-0.073-0.237-0.242 0.056c-0.016 0.004-0.028-0.016-0.016-0.028l0.169-0.181-0.169-0.181c-0.011-0.012-0-0.032 0.016-0.028l0.242 0.056 0.073-0.237c0.005-0.016 0.028-0.016 0.033 0z"></path>
<path fill="#ff1722" d="M13.072 7.442c0.002 0.132 0.005 0.265 0.005 0.409-0.060 1.493-0.282 4.745-0.766 5.724-0.714 1.433-1.373 1.907-2.535 2.344-1.162-0.437-1.821-0.91-2.534-2.343-0.486-0.983-0.71-4.29-0.767-5.725 0-0.144 0.002-0.276 0.004-0.409-0.143 0.056-0.286 0.115-0.427 0.179 0.010 0.29 0.082 2.192 0.299 3.865 0.122 0.934 0.291 1.794 0.52 2.253 0.83 1.649 1.664 2.129 2.904 2.573 1.241-0.444 2.075-0.925 2.904-2.573 0.229-0.459 0.398-1.319 0.52-2.253 0.217-1.672 0.289-3.575 0.299-3.865-0.141-0.064-0.284-0.123-0.427-0.179z"></path>
</svg>
