<svg xmlns="http://www.w3.org/2000/svg" width="32" height="32" version="1.1" viewBox="0 0 32 32"><title>slovakia</title><path fill="#f5f5f5" d="M1.849 22.9l-0.002-13.794c-0-0.788 0.42-1.516 1.102-1.91l11.945-6.899c0.682-0.394 1.523-0.394 2.205-0l11.948 6.895c0.682 0.394 1.103 1.122 1.103 1.91l0.002 13.794c0 0.788-0.42 1.516-1.102 1.91l-11.945 6.899c-0.682 0.394-1.523 0.394-2.205 0l-11.947-6.895c-0.682-0.394-1.103-1.122-1.103-1.91z"/><path fill="#ff4b55" d="M1.849 22.9c0 0.788 0.421 1.516 1.103 1.91l11.948 6.895c0.682 0.394 1.523 0.394 2.205-0l11.945-6.899c0.682-0.394 1.102-1.122 1.102-1.91l-0-1.519-14.153-1.628-14.151 1.628 0 1.523z"/><path fill="#41479b" d="M30.153 21.376l-0.002-10.752h-28.304l0.002 10.752z"/><path fill="#ff4b55" d="M9.121 22.397c-0.196-0.113-4.813-2.798-4.813-6.925v-5.641h9.954v5.641c0 4.127-4.616 6.812-4.813 6.925l-0.165 0.094-0.165-0.094z"/><path fill="#f5f5f5" d="M11.892 14.477l-1.564 0.206h-0.521v-0.934h0.313l1.251 0.206-0.169-0.728 0.169-0.727-1.251 0.206h-0.313v-0.315l0.206-1.564-0.727 0.212-0.727-0.212 0.206 1.564v0.315h-0.313l-1.251-0.206 0.169 0.727-0.169 0.728 1.251-0.206h0.313v0.934h-0.521l-1.564-0.206 0.212 0.728-0.212 0.727 1.564-0.206h0.521v2.401h1.043v-2.401h0.521l1.564 0.206-0.212-0.727z"/><path fill="#41479b" d="M9.285 17.131c-0.685 0-1.273 0.416-1.526 1.009-0.045-0.004-0.087-0.013-0.133-0.013-0.883 0-1.599 0.692-1.649 1.563 1.344 1.654 3.027 2.64 3.144 2.707l0.165 0.094 0.165-0.094c0.117-0.067 1.8-1.053 3.144-2.707-0.051-0.871-0.766-1.563-1.649-1.563-0.045 0-0.088 0.010-0.133 0.013-0.253-0.593-0.841-1.009-1.526-1.009z"/><path fill="#f5f5f5" d="M13.93 10.163c0 0 0 3.982 0 5.309 0 3.982-4.645 6.636-4.645 6.636s-4.645-2.654-4.645-6.636c0-1.327 0-5.309 0-5.309h9.291zM14.594 9.5h-10.618v5.973c0 4.317 4.776 7.096 4.98 7.212l0.329 0.188 0.329-0.188c0.203-0.116 4.98-2.895 4.98-7.212v-5.973h-0z"/></svg>