<svg xmlns="http://www.w3.org/2000/svg" width="32" height="32" version="1.1" viewBox="0 0 32 32"><title>solomon-islands</title><path fill="#ffe15a" d="M29.873 8.032c0 0 0-0-0-0-0.154-0.276-0.366-0.519-0.627-0.71-0.014-0.010-0.027-0.021-0.041-0.031-0.051-0.035-0.103-0.069-0.157-0.101l-0.698-0.403-14.068 7.025-12.154 10.156c0.154 0.276 0.366 0.519 0.627 0.71 0.014 0.010 0.027 0.021 0.041 0.031 0.051 0.035 0.103 0.069 0.157 0.101l0.698 0.403 14.693-7.416 11.53-9.764z"/><path fill="#41479b" d="M27.566 6.335l-10.466-6.040c-0.682-0.394-1.523-0.394-2.205 0l-11.945 6.899c-0.053 0.030-0.103 0.063-0.152 0.098-0.592 0.41-0.95 1.085-0.95 1.813l0 2.651 0 1.698 0.001 5.093 0 1.698 0 2.655c0 0.381 0.099 0.747 0.278 1.069l26.223-17.181-0.784-0.453z"/><path fill="#73af00" d="M30.152 20.244l-0-1.698-0.001-5.093-0-1.698-0-2.655c0-0.047-0.002-0.093-0.005-0.139-0.001-0.011-0.002-0.022-0.003-0.033-0.003-0.035-0.006-0.071-0.010-0.106-0.001-0.010-0.003-0.020-0.005-0.031-0.005-0.036-0.011-0.072-0.017-0.107-0.002-0.008-0.003-0.016-0.005-0.023-0.008-0.038-0.016-0.076-0.026-0.113-0.001-0.005-0.003-0.010-0.004-0.016-0.011-0.040-0.022-0.080-0.035-0.119-0.001-0.003-0.002-0.005-0.003-0.008-0.014-0.042-0.029-0.083-0.045-0.123-0-0.001-0.001-0.002-0.001-0.003-0.034-0.085-0.074-0.167-0.118-0.247v-0l-26.223 17.18 11.25 6.493c0.682 0.394 1.523 0.394 2.205-0l11.945-6.899c0.053-0.030 0.103-0.063 0.152-0.098 0.592-0.41 0.95-1.085 0.95-1.813l-0.001-2.651z"/><path fill="#f5f5f5" d="M5.589 7.212l-0.274 0.822-0.866 0.007c-0.083 0.001-0.118 0.107-0.051 0.156l0.697 0.515-0.261 0.826c-0.025 0.079 0.065 0.145 0.133 0.096l0.705-0.504 0.705 0.504c0.068 0.048 0.158-0.017 0.133-0.096l-0.261-0.826 0.697-0.515c0.067-0.049 0.032-0.155-0.051-0.156l-0.866-0.007-0.274-0.822c-0.026-0.079-0.138-0.079-0.164 0z"/><path fill="#f5f5f5" d="M12.188 7.212l-0.274 0.822-0.866 0.007c-0.083 0.001-0.118 0.107-0.051 0.156l0.697 0.515-0.261 0.826c-0.025 0.079 0.065 0.145 0.133 0.096l0.705-0.504 0.705 0.504c0.068 0.048 0.158-0.017 0.133-0.096l-0.261-0.826 0.697-0.515c0.067-0.049 0.032-0.155-0.051-0.156l-0.866-0.007-0.274-0.822c-0.026-0.079-0.138-0.079-0.164 0z"/><path fill="#f5f5f5" d="M8.889 10.152l-0.274 0.822-0.866 0.007c-0.083 0.001-0.118 0.107-0.051 0.156l0.697 0.515-0.261 0.826c-0.025 0.079 0.065 0.145 0.133 0.096l0.705-0.504 0.705 0.504c0.068 0.048 0.158-0.017 0.133-0.096l-0.261-0.826 0.697-0.515c0.067-0.049 0.032-0.155-0.051-0.156l-0.866-0.007-0.274-0.822c-0.026-0.079-0.138-0.079-0.164 0z"/><path fill="#f5f5f5" d="M5.589 13.093l-0.274 0.822-0.866 0.007c-0.083 0.001-0.118 0.107-0.051 0.156l0.697 0.515-0.261 0.826c-0.025 0.079 0.065 0.145 0.133 0.096l0.705-0.504 0.705 0.504c0.068 0.048 0.158-0.017 0.133-0.096l-0.261-0.826 0.697-0.515c0.067-0.049 0.032-0.155-0.051-0.156l-0.866-0.007-0.274-0.822c-0.026-0.079-0.138-0.079-0.164 0z"/><path fill="#f5f5f5" d="M12.188 13.093l-0.274 0.822-0.866 0.007c-0.083 0.001-0.118 0.107-0.051 0.156l0.697 0.515-0.261 0.826c-0.025 0.079 0.065 0.145 0.133 0.096l0.705-0.504 0.705 0.504c0.068 0.048 0.158-0.017 0.133-0.096l-0.261-0.826 0.697-0.515c0.067-0.049 0.032-0.155-0.051-0.156l-0.866-0.007-0.274-0.822c-0.026-0.079-0.138-0.079-0.164 0z"/></svg>