<!-- Generated by IcoMoon.io -->
<svg version="1.1" xmlns="http://www.w3.org/2000/svg" width="32" height="32" viewBox="0 0 32 32">
<title>somalia</title>
<path fill="#82afff" d="M30.152 18.546l-0.001-5.093-0-1.698-0-2.655c-0-0.725-0.357-1.399-0.946-1.809-0.051-0.035-0.103-0.069-0.157-0.101l-11.948-6.895c-0.682-0.394-1.523-0.394-2.205 0l-11.945 6.899c-0.053 0.030-0.103 0.063-0.152 0.098-0.592 0.41-0.95 1.085-0.95 1.813l0 2.651 0 1.698 0.001 5.093 0 1.698 0 2.655c0 0.725 0.357 1.399 0.946 1.809 0.051 0.035 0.103 0.069 0.157 0.101l11.948 6.895c0.682 0.394 1.523 0.394 2.205-0l11.945-6.899c0.053-0.030 0.103-0.063 0.152-0.098 0.592-0.41 0.95-1.085 0.95-1.813l-0-2.651-0-1.698z"></path>
<path fill="#f5f5f5" d="M15.821 11.572l-1.048 3.143-3.313 0.026c-0.182 0.001-0.257 0.233-0.111 0.341l2.665 1.968-0.999 3.159c-0.055 0.173 0.142 0.317 0.29 0.211l2.696-1.927 2.696 1.927c0.148 0.106 0.345-0.038 0.29-0.211l-1-3.159 2.665-1.968c0.146-0.108 0.071-0.34-0.111-0.341l-3.313-0.026-1.048-3.143c-0.057-0.172-0.301-0.172-0.359 0z"></path>
</svg>
