<!-- Generated by IcoMoon.io -->
<svg version="1.1" xmlns="http://www.w3.org/2000/svg" width="32" height="32" viewBox="0 0 32 32">
<title>south-africa</title>
<path fill="#f5f5f5" d="M30.153 21.106l-0-1.702-0.001-6.807-0-1.702-0-1.794c-0-0.788-0.421-1.516-1.103-1.91l-11.947-6.895c-0.682-0.394-1.523-0.394-2.205 0l-11.945 6.899c-0.053 0.030-0.103 0.064-0.153 0.098-0.105 0.073-0.203 0.154-0.292 0.242-0.415 0.409-0.658 0.972-0.657 1.57l0.002 13.795c0 0.596 0.241 1.158 0.654 1.567 0.089 0.088 0.187 0.169 0.292 0.242 0.051 0.035 0.103 0.069 0.157 0.101l11.948 6.895c0.682 0.394 1.523 0.394 2.205-0l11.945-6.899c0.682-0.394 1.102-1.122 1.102-1.91l-0-1.789z"></path>
<path fill="#ff4b55" d="M30.151 10.895l-0-1.794c-0-0.788-0.421-1.516-1.103-1.91l-11.948-6.895c-0.682-0.394-1.523-0.394-2.205 0l-5.709 3.297 5.371 7.301h15.594z"></path>
<path fill="#41479b" d="M9.186 28.407l5.714 3.298c0.682 0.394 1.523 0.394 2.205-0l11.945-6.899c0.682-0.394 1.102-1.122 1.102-1.91l-0-1.789h-15.596l-5.371 7.301z"></path>
<path fill="#464655" d="M2.505 7.535c-0.415 0.409-0.658 0.972-0.657 1.571l0.002 13.795c0 0.596 0.241 1.158 0.654 1.567l6.623-8.467-6.622-8.466z"></path>
<path fill="#ffe15a" d="M3.582 6.829l-0.633 0.366c-0.053 0.030-0.103 0.064-0.153 0.098-0.105 0.073-0.203 0.154-0.292 0.242l6.228 8.465-6.228 8.467c0.089 0.088 0.187 0.169 0.292 0.242 0.051 0.035 0.103 0.069 0.157 0.101l0.629 0.363 7.186-9.172-7.185-9.171z"></path>
<path fill="#73af00" d="M8.065 4.24l-4.483 2.589 6.746 9.171-6.747 9.172 4.483 2.587 6.147-8.356h15.941l-0.001-6.807h-15.939z"></path>
</svg>
