<svg xmlns="http://www.w3.org/2000/svg" width="32" height="32" version="1.1" viewBox="0 0 32 32"><title>south-sudan</title><path fill="#ff4b55" d="M30.153 22.895l-0-2.651-0-1.698-0.001-5.093-0-1.698-0-2.655c0-0.194-0.026-0.384-0.075-0.567-0.026-0.098-0.059-0.194-0.099-0.287-0.16-0.381-0.426-0.714-0.773-0.955-0.051-0.035-0.103-0.069-0.157-0.101l-11.947-6.895c-0.682-0.394-1.523-0.394-2.205 0l-11.945 6.899c-0.053 0.030-0.103 0.063-0.152 0.098-0.212 0.147-0.393 0.328-0.54 0.534-0.098 0.138-0.18 0.287-0.244 0.443-0.107 0.261-0.166 0.544-0.166 0.836l0 2.651 0 1.698 0.001 5.092v0.001l0 1.697 0 2.655v0c0 0.725 0.357 1.399 0.946 1.809 0.051 0.035 0.103 0.069 0.157 0.101l11.948 6.895c0.682 0.394 1.523 0.394 2.205-0l11.945-6.899c0.053-0.030 0.103-0.063 0.152-0.098 0.591-0.41 0.95-1.085 0.95-1.813v0 0z"/><path fill="#464655" d="M30.151 10.043l-0-0.942c0-0.194-0.026-0.384-0.075-0.567-0.026-0.098-0.059-0.194-0.099-0.287-0.16-0.381-0.426-0.714-0.773-0.955-0.051-0.035-0.103-0.069-0.157-0.101l-11.947-6.895c-0.682-0.394-1.523-0.394-2.205 0l-8.135 4.698 1.195 3.586 3.856 1.462h18.339z"/><path fill="#73af00" d="M6.759 27.007l8.14 4.698c0.682 0.394 1.523 0.394 2.205-0l11.945-6.899c0.053-0.030 0.103-0.063 0.152-0.098 0.592-0.41 0.95-1.085 0.95-1.813l-0-0.938h-18.341l-3.544 1.541-1.508 3.509z"/><path fill="#f5f5f5" d="M30.151 10.61l-0-0.567h-18.339l1.448 1.447h16.892z"/><path fill="#f5f5f5" d="M30.153 21.39l-0-0.879h-16.894l-1.448 1.447h18.341z"/><path fill="#41479b" d="M17.424 15.652l-10.664-10.658-3.811 2.201c-0.053 0.030-0.103 0.063-0.152 0.098-0.212 0.147-0.393 0.328-0.54 0.534-0.098 0.138-0.18 0.287-0.244 0.443-0.107 0.261-0.166 0.544-0.166 0.836l0 0.938 0 0.567 0 0.879v0.266l0 1.698 0.001 5.092v0.001l0 1.697v0.266l0 0.879 0 0.567 0 0.942v0c0 0.725 0.357 1.399 0.946 1.809 0.051 0.035 0.103 0.069 0.157 0.101l3.807 2.197 10.664-10.658c0.169-0.17 0.169-0.527-0-0.697z"/><path fill="#ffe15a" d="M6.515 13.087l1.404 1.437 1.814-0.863c0.235-0.112 0.477 0.14 0.356 0.37l-0.933 1.779 1.381 1.458c0.179 0.189 0.014 0.497-0.242 0.453l-1.98-0.337-0.96 1.764c-0.124 0.228-0.468 0.167-0.505-0.090l-0.291-1.987-1.975-0.368c-0.256-0.048-0.303-0.393-0.070-0.509l1.8-0.891-0.26-1.992c-0.034-0.258 0.28-0.41 0.462-0.224z"/></svg>