<!-- Generated by IcoMoon.io -->
<svg version="1.1" xmlns="http://www.w3.org/2000/svg" width="32" height="32" viewBox="0 0 32 32">
<title>south-korea</title>
<path fill="#f5f5f5" d="M1.849 22.9l-0.002-13.795c-0-0.788 0.42-1.516 1.102-1.91l11.945-6.899c0.682-0.394 1.523-0.394 2.205-0l11.948 6.895c0.683 0.394 1.103 1.122 1.103 1.91l0.002 13.795c0 0.788-0.42 1.516-1.102 1.91l-11.945 6.899c-0.682 0.394-1.523 0.394-2.205 0l-11.947-6.895c-0.683-0.394-1.103-1.122-1.103-1.91z"></path>
<path fill="#ff4b55" d="M19.311 11.037c-2.74-1.827-6.442-1.080-8.268 1.656-0.916 1.365-0.544 3.221 0.827 4.134 1.369 0.913 3.219 0.543 4.132-0.828s2.764-1.737 4.133-0.828c1.371 0.914 1.74 2.769 0.825 4.134 1.827-2.741 1.088-6.442-1.65-8.269z"></path>
<path fill="#41479b" d="M11.043 12.692c-0.916 1.366-0.544 3.221 0.827 4.134 1.369 0.913 3.219 0.543 4.132-0.828s2.764-1.737 4.133-0.828c1.371 0.914 1.74 2.769 0.825 4.134-1.825 2.745-5.525 3.483-8.265 1.656-2.738-1.827-3.479-5.529-1.652-8.269z"></path>
<path fill="#464655" d="M22.345 8.784l1.083 1.628c0.091 0.137 0.054 0.322-0.082 0.413l-0.275 0.184c-0.137 0.092-0.323 0.055-0.414-0.082l-1.085-1.628c-0.091-0.137-0.054-0.322 0.083-0.413l0.276-0.184c0.137-0.091 0.322-0.054 0.414 0.083z"></path>
<path fill="#464655" d="M24.017 11.294l1.087 1.627c0.092 0.137 0.054 0.323-0.084 0.414l-0.276 0.182c-0.137 0.090-0.321 0.053-0.412-0.083l-1.086-1.626c-0.091-0.137-0.055-0.322 0.082-0.414l0.275-0.184c0.137-0.092 0.322-0.055 0.414 0.082z"></path>
<path fill="#464655" d="M23.505 8.010l2.758 4.14c0.091 0.137 0.054 0.322-0.083 0.413l-0.277 0.185c-0.137 0.091-0.322 0.054-0.414-0.083l-2.759-4.139c-0.091-0.137-0.054-0.322 0.083-0.414l0.278-0.185c0.137-0.091 0.322-0.054 0.413 0.083z"></path>
<path fill="#464655" d="M24.662 7.237l1.086 1.631c0.091 0.137 0.054 0.323-0.084 0.414l-0.276 0.182c-0.137 0.091-0.321 0.053-0.412-0.083l-1.087-1.629c-0.091-0.137-0.054-0.322 0.083-0.414l0.277-0.185c0.137-0.091 0.322-0.054 0.414 0.083z"></path>
<path fill="#464655" d="M26.335 9.753l1.084 1.628c0.091 0.137 0.054 0.322-0.082 0.413l-0.275 0.184c-0.137 0.092-0.323 0.055-0.414-0.083l-1.084-1.628c-0.091-0.137-0.054-0.322 0.082-0.413l0.275-0.184c0.137-0.092 0.323-0.055 0.414 0.083z"></path>
<path fill="#464655" d="M7.671 18.566l2.758 4.135c0.091 0.137 0.054 0.322-0.082 0.413l-0.276 0.184c-0.137 0.091-0.322 0.055-0.414-0.083l-2.758-4.135c-0.091-0.137-0.054-0.322 0.083-0.413l0.276-0.184c0.137-0.091 0.322-0.055 0.414 0.082z"></path>
<path fill="#464655" d="M6.513 19.34l1.083 1.624c0.091 0.137 0.054 0.322-0.082 0.413l-0.275 0.184c-0.137 0.092-0.322 0.055-0.414-0.082l-1.084-1.624c-0.091-0.137-0.054-0.322 0.082-0.414l0.276-0.184c0.137-0.091 0.322-0.055 0.414 0.083z"></path>
<path fill="#464655" d="M8.187 21.851l1.084 1.628c0.091 0.137 0.054 0.322-0.082 0.413l-0.275 0.184c-0.137 0.092-0.322 0.055-0.414-0.083l-1.085-1.628c-0.091-0.137-0.054-0.322 0.083-0.413l0.276-0.184c0.137-0.092 0.322-0.055 0.414 0.083z"></path>
<path fill="#464655" d="M5.355 20.113l2.756 4.135c0.091 0.137 0.054 0.322-0.082 0.413l-0.275 0.184c-0.137 0.092-0.322 0.055-0.414-0.082l-2.758-4.135c-0.091-0.137-0.054-0.322 0.083-0.414l0.277-0.185c0.137-0.091 0.322-0.054 0.413 0.083z"></path>
<path fill="#464655" d="M6.899 12.922l2.758-4.139c0.091-0.137 0.277-0.174 0.414-0.083l0.276 0.184c0.137 0.091 0.174 0.277 0.082 0.413l-2.759 4.136c-0.091 0.137-0.276 0.174-0.413 0.083l-0.275-0.182c-0.138-0.091-0.175-0.277-0.084-0.414z"></path>
<path fill="#464655" d="M5.741 12.15l2.758-4.139c0.091-0.137 0.277-0.174 0.414-0.083l0.275 0.184c0.137 0.091 0.174 0.276 0.082 0.413l-2.757 4.14c-0.091 0.137-0.277 0.174-0.414 0.083l-0.276-0.184c-0.137-0.092-0.174-0.277-0.083-0.414z"></path>
<path fill="#464655" d="M4.582 11.381l2.758-4.144c0.091-0.137 0.277-0.174 0.414-0.083l0.275 0.184c0.137 0.091 0.174 0.276 0.083 0.413l-2.757 4.144c-0.091 0.137-0.277 0.174-0.414 0.083l-0.277-0.185c-0.137-0.091-0.174-0.276-0.083-0.413z"></path>
<path fill="#464655" d="M21.573 22.701l1.084-1.624c0.092-0.137 0.277-0.174 0.414-0.082l0.275 0.184c0.137 0.091 0.173 0.276 0.082 0.413l-1.083 1.624c-0.091 0.137-0.277 0.174-0.414 0.083l-0.276-0.184c-0.137-0.091-0.174-0.277-0.082-0.414z"></path>
<path fill="#464655" d="M23.245 20.198l1.086-1.632c0.091-0.137 0.277-0.174 0.414-0.083l0.277 0.184c0.137 0.091 0.174 0.277 0.083 0.414l-1.088 1.629c-0.091 0.137-0.276 0.174-0.413 0.083l-0.274-0.182c-0.137-0.091-0.175-0.276-0.084-0.414z"></path>
<path fill="#464655" d="M22.731 23.479l1.085-1.628c0.091-0.137 0.276-0.174 0.414-0.083l0.277 0.185c0.137 0.091 0.174 0.276 0.083 0.413l-1.084 1.628c-0.091 0.137-0.276 0.174-0.413 0.083l-0.278-0.185c-0.137-0.091-0.174-0.276-0.083-0.414z"></path>
<path fill="#464655" d="M24.405 20.963l1.085-1.624c0.091-0.137 0.276-0.174 0.413-0.082l0.277 0.185c0.137 0.091 0.174 0.277 0.083 0.414l-1.085 1.624c-0.091 0.137-0.276 0.174-0.413 0.082l-0.277-0.185c-0.137-0.091-0.174-0.277-0.083-0.414z"></path>
<path fill="#464655" d="M23.889 24.248l1.086-1.625c0.091-0.136 0.276-0.174 0.412-0.083l0.276 0.182c0.138 0.091 0.175 0.277 0.084 0.414l-1.085 1.627c-0.091 0.137-0.276 0.174-0.413 0.083l-0.277-0.185c-0.137-0.091-0.174-0.277-0.083-0.414z"></path>
<path fill="#464655" d="M25.563 21.741l1.083-1.627c0.091-0.137 0.277-0.174 0.414-0.083l0.275 0.184c0.137 0.091 0.174 0.276 0.082 0.413l-1.084 1.625c-0.091 0.137-0.276 0.174-0.413 0.083l-0.274-0.182c-0.137-0.091-0.175-0.277-0.083-0.414z"></path>
</svg>
