<!-- Generated by IcoMoon.io -->
<svg version="1.1" xmlns="http://www.w3.org/2000/svg" width="32" height="32" viewBox="0 0 32 32">
<title>spain</title>
<path fill="#ffd250" d="M30.151 9.1c-0-0.427-0.125-0.836-0.346-1.184-0.187-0.294-0.444-0.545-0.757-0.726l-11.948-6.895c-0.682-0.394-1.523-0.394-2.205 0l-11.945 6.899c-0.311 0.18-0.567 0.429-0.754 0.721-0.223 0.349-0.349 0.76-0.349 1.189l0.002 13.795c0 0.427 0.125 0.836 0.346 1.184 0.187 0.294 0.444 0.545 0.757 0.726l11.948 6.895c0.682 0.394 1.523 0.394 2.205-0l11.945-6.899c0.311-0.18 0.567-0.429 0.754-0.721 0.224-0.349 0.349-0.76 0.349-1.189l-0.002-13.795z"></path>
<path fill="#c8414b" d="M2.952 24.809l11.948 6.895c0.682 0.394 1.523 0.394 2.205-0l11.945-6.899c0.311-0.18 0.567-0.429 0.754-0.721h-27.609c0.188 0.294 0.444 0.545 0.757 0.726z"></path>
<path fill="#c8414b" d="M29.048 7.191l-11.948-6.895c-0.682-0.394-1.523-0.394-2.205 0l-11.945 6.899c-0.311 0.18-0.567 0.429-0.754 0.721h27.609c-0.188-0.294-0.444-0.545-0.757-0.726z"></path>
<path fill="#c8414b" d="M14.685 16.017l0.558-2.509c0.051-0.231-0.124-0.45-0.361-0.45h-0.393c-0.237 0-0.413 0.219-0.361 0.45l0.558 2.509z"></path>
<path fill="#f5f5f5" d="M14.027 14.701h1.316v5.591h-1.316v-5.591z"></path>
<path fill="#fab446" d="M13.698 14.043h1.973v0.658h-1.973v-0.658z"></path>
<path fill="#c8414b" d="M12.383 16.017h3.288v0.658h-3.288v-0.658z"></path>
<path fill="#c8414b" d="M15.671 18.647l-1.973-0.658v-0.658l1.973 0.658z"></path>
<path fill="#c8414b" d="M4.819 16.017l0.558-2.509c0.051-0.231-0.125-0.45-0.361-0.45h-0.393c-0.237 0-0.413 0.219-0.361 0.45l0.558 2.509z"></path>
<path fill="#f5f5f5" d="M7.121 14.043c-0.363 0-0.658 0.294-0.658 0.658v4.275c0 0.799 0.746 2.302 3.289 2.302s3.289-1.503 3.289-2.302v-4.275c0-0.363-0.294-0.658-0.658-0.658h-5.262z"></path>
<path fill="#c8414b" d="M9.752 17.332h-3.289v-2.664c0-0.345 0.28-0.625 0.625-0.625h2.664v3.289z"></path>
<path fill="#c8414b" d="M9.752 17.332h3.289v1.727c0 0.863-0.699 1.562-1.562 1.562h-0.164c-0.863 0-1.562-0.699-1.562-1.562v-1.727z"></path>
<path fill="#fab446" d="M6.463 17.332h3.289v1.727c0 0.863-0.699 1.562-1.562 1.562h-0.164c-0.863 0-1.562-0.699-1.562-1.562v-1.727z"></path>
<path fill="#c8414b" d="M9.094 20.284v-2.952h-0.658v3.255c0.245-0.050 0.466-0.158 0.658-0.303z"></path>
<path fill="#c8414b" d="M7.779 20.587v-3.255h-0.658v2.952c0.192 0.145 0.413 0.253 0.658 0.303z"></path>
<path fill="#ffb441" d="M7.121 16.017h1.973v0.658h-1.973v-0.658z"></path>
<path fill="#fab446" d="M7.121 14.701h1.973v0.658h-1.973v-0.658z"></path>
<path fill="#fab446" d="M7.449 15.092h1.316v1.192h-1.316v-1.192z"></path>
<path fill="#f5f5f5" d="M4.161 14.701h1.316v5.591h-1.316v-5.591z"></path>
<path fill="#fab446" d="M3.833 19.962h1.973v0.658h-1.973v-0.658z"></path>
<path fill="#fab446" d="M3.833 14.043h1.973v0.658h-1.973v-0.658z"></path>
<path fill="#5064aa" d="M3.504 20.62h2.631v0.658h-2.631v-0.658z"></path>
<path fill="#fab446" d="M14.027 19.962h1.973v0.658h-1.973v-0.658z"></path>
<path fill="#5064aa" d="M13.369 20.62h2.631v0.658h-2.631v-0.658z"></path>
<path fill="#fab446" d="M7.778 13.386h3.947v0.658h-3.947v-0.658z"></path>
<path fill="#ffb441" d="M9.423 11.412h0.658v1.973h-0.658v-1.973z"></path>
<path fill="#f5f5f5" d="M9.094 12.399c-0.544 0-0.987-0.443-0.987-0.987s0.443-0.987 0.987-0.987c0.544 0 0.987 0.443 0.987 0.987s-0.443 0.987-0.987 0.987zM9.094 11.084c-0.181 0-0.329 0.147-0.329 0.329s0.147 0.329 0.329 0.329c0.181 0 0.329-0.147 0.329-0.329s-0.147-0.329-0.329-0.329z"></path>
<path fill="#f5f5f5" d="M10.409 12.399c-0.544 0-0.987-0.443-0.987-0.987s0.443-0.987 0.987-0.987c0.544 0 0.987 0.443 0.987 0.987s-0.443 0.987-0.987 0.987zM10.409 11.084c-0.181 0-0.329 0.147-0.329 0.329s0.147 0.329 0.329 0.329c0.181 0 0.329-0.147 0.329-0.329s-0.147-0.329-0.329-0.329z"></path>
<path fill="#f5f5f5" d="M11.725 13.057c-0.544 0-0.987-0.443-0.987-0.987s0.443-0.987 0.987-0.987c0.544 0 0.987 0.443 0.987 0.987s-0.443 0.987-0.987 0.987zM11.725 11.741c-0.181 0-0.329 0.147-0.329 0.329s0.147 0.329 0.329 0.329c0.181 0 0.329-0.147 0.329-0.329s-0.147-0.329-0.329-0.329z"></path>
<path fill="#f5f5f5" d="M7.779 13.057c-0.544 0-0.987-0.443-0.987-0.987s0.443-0.987 0.987-0.987c0.544 0 0.987 0.443 0.987 0.987s-0.443 0.987-0.987 0.987zM7.779 11.741c-0.181 0-0.329 0.147-0.329 0.329s0.147 0.329 0.329 0.329 0.329-0.147 0.329-0.329-0.147-0.329-0.329-0.329z"></path>
<path fill="#fab446" d="M11.725 18.647v0.329c0 0.181-0.148 0.329-0.329 0.329s-0.329-0.148-0.329-0.329v-0.329h0.658zM12.383 17.99h-1.973v0.987c0 0.544 0.443 0.987 0.987 0.987s0.987-0.443 0.987-0.987v-0.987h-0z"></path>
<path fill="#ffa0d2" d="M11.429 16.674h-0.066c-0.345 0-0.625-0.28-0.625-0.625v-0.723c0-0.345 0.28-0.625 0.625-0.625h0.066c0.345 0 0.625 0.28 0.625 0.625v0.724c0 0.345-0.28 0.625-0.625 0.625z"></path>
<path fill="#5064aa" d="M10.739 17.332c0 0.545-0.442 0.987-0.987 0.987s-0.987-0.442-0.987-0.987c0-0.545 0.442-0.987 0.987-0.987s0.987 0.442 0.987 0.987z"></path>
<path fill="#fab446" d="M9.423 10.098h0.658v1.973h-0.658v-1.973z"></path>
<path fill="#c8414b" d="M7.779 13.386l-0.658-0.658 0.385-0.385c0.596-0.596 1.403-0.93 2.246-0.93v0c0.842 0 1.65 0.335 2.246 0.93l0.385 0.385-0.658 0.658h-3.946z"></path>
<path fill="#ffd250" d="M10.081 12.727c0 0.182-0.147 0.329-0.329 0.329s-0.329-0.147-0.329-0.329c0-0.182 0.147-0.329 0.329-0.329s0.329 0.147 0.329 0.329z"></path>
<path fill="#ffd250" d="M8.765 12.727c0 0.182-0.147 0.329-0.329 0.329s-0.329-0.147-0.329-0.329c0-0.182 0.147-0.329 0.329-0.329s0.329 0.147 0.329 0.329z"></path>
<path fill="#ffd250" d="M11.396 12.727c0 0.182-0.147 0.329-0.329 0.329s-0.329-0.147-0.329-0.329c0-0.182 0.147-0.329 0.329-0.329s0.329 0.147 0.329 0.329z"></path>
<path fill="#c8414b" d="M3.833 16.017h3.288v0.658h-3.288v-0.658z"></path>
<path fill="#c8414b" d="M3.832 18.647l1.973-0.658v-0.658l-1.973 0.658z"></path>
</svg>
