<!-- Generated by IcoMoon.io -->
<svg version="1.1" xmlns="http://www.w3.org/2000/svg" width="32" height="32" viewBox="0 0 32 32">
<title>sri-lanka</title>
<path fill="#ffd250" d="M30.152 18.547l-0.001-5.093-0-1.698-0-2.655c-0-0.725-0.357-1.399-0.946-1.809-0.051-0.035-0.103-0.069-0.157-0.101l-11.948-6.895c-0.682-0.394-1.523-0.394-2.205 0l-11.945 6.899c-0.053 0.030-0.103 0.063-0.152 0.098-0.592 0.41-0.95 1.085-0.95 1.813l0 2.651 0 1.698 0.001 5.093 0 1.698 0 2.655c0 0.725 0.357 1.399 0.946 1.809 0.051 0.035 0.103 0.069 0.157 0.101l11.948 6.895c0.682 0.394 1.523 0.394 2.205-0l11.945-6.899c0.053-0.030 0.103-0.063 0.152-0.098 0.592-0.41 0.95-1.085 0.95-1.813l-0-2.651-0-1.698z"></path>
<path fill="#ff7350" d="M6.862 6.919l-0.859 8.924 0.859 9.238 3.593 2.073v-22.311l-2.656 1.534z"></path>
<path fill="#5aa587" d="M5.927 7.459l-2.118 1.223c-0.001 0.001-0.010 0.006-0.034 0.022-0.131 0.091-0.21 0.241-0.21 0.4l0 2.651 0 1.698 0.001 5.093 0 1.698 0 2.655c0 0.159 0.078 0.308 0.209 0.399 0.024 0.017 0.034 0.023 0.035 0.023l3.050 1.76v-18.163l-0.935 0.54z"></path>
<path fill="#963c3c" d="M28.434 20.244l-0-1.698-0.001-5.093-0-1.698-0-2.655c0-0.159-0.078-0.308-0.209-0.399-0.024-0.017-0.034-0.023-0.035-0.023l-11.947-6.895c-0.074-0.043-0.158-0.065-0.243-0.065s-0.17 0.023-0.244 0.065l-3.581 2.068v24.295l3.586 2.070c0.074 0.043 0.158 0.065 0.244 0.065s0.17-0.023 0.244-0.065l11.945-6.899c0.001-0.001 0.010-0.006 0.034-0.022 0.131-0.091 0.21-0.241 0.21-0.4l-0-2.651z"></path>
<path fill="#ffd250" d="M30.152 20.244l-0-1.698-0.001-5.093-0-1.698-0-2.655c0-0.181-0.022-0.36-0.065-0.531-0.032-0.129-0.076-0.254-0.13-0.374-0.162-0.36-0.42-0.674-0.752-0.904-0.051-0.035-0.103-0.069-0.157-0.101l-11.948-6.895c-0.017-0.010-0.035-0.018-0.052-0.028-0.069-0.037-0.139-0.072-0.211-0.102-0.023-0.010-0.047-0.017-0.070-0.026-0.022-0.008-0.044-0.017-0.066-0.025-0.228-0.077-0.466-0.115-0.704-0.115-0.326 0-0.652 0.073-0.953 0.217-0.007 0.003-0.014 0.006-0.021 0.009-0.015 0.007-0.029 0.016-0.044 0.023-0.029 0.015-0.058 0.030-0.086 0.046l-11.945 6.899c-0.053 0.030-0.103 0.063-0.152 0.098-0.592 0.41-0.95 1.085-0.95 1.813l0 2.651 0 1.698 0.001 5.093 0 1.698 0 2.655c0 0.408 0.113 0.8 0.317 1.137 0.113 0.188 0.254 0.358 0.42 0.506 0.066 0.059 0.136 0.114 0.21 0.166 0.051 0.035 0.103 0.069 0.157 0.101l11.947 6.895c0.085 0.049 0.173 0.092 0.263 0.129 0.007 0.003 0.014 0.005 0.020 0.008 0.038 0.015 0.077 0.030 0.116 0.043 0.228 0.077 0.466 0.115 0.704 0.115 0.381 0 0.762-0.099 1.103-0.296l11.945-6.899c0.053-0.030 0.103-0.063 0.152-0.098 0.444-0.307 0.756-0.764 0.885-1.28 0.043-0.172 0.065-0.351 0.065-0.532l-0-2.651zM10.455 27.155l-6.643-3.834c-0.001-0.001-0.011-0.006-0.035-0.023-0.131-0.091-0.209-0.24-0.209-0.399l-0-2.655-0-1.698-0.001-5.093-0-1.698-0-2.651c0-0.159 0.079-0.309 0.21-0.4 0.023-0.016 0.033-0.022 0.034-0.022l6.646-3.839v22.311zM28.225 23.295c-0.023 0.016-0.033 0.022-0.034 0.022l-11.945 6.899c-0.074 0.043-0.158 0.065-0.244 0.065s-0.17-0.023-0.243-0.065l-3.586-2.070v-24.295l3.581-2.068c0.074-0.043 0.158-0.065 0.244-0.065s0.17 0.023 0.243 0.065l11.947 6.895c0.001 0.001 0.011 0.006 0.035 0.023 0.131 0.091 0.209 0.24 0.209 0.399l0 2.655 0 1.698 0.001 5.093 0 1.698 0 2.651c-0 0.159-0.079 0.309-0.21 0.4z"></path>
<path fill="#ffd250" d="M23.414 19.701c-0.015-0.103 0.075-0.237 0.216-0.428 0.051-0.069 0.124-0.17 0.144-0.218-0.013-0.001-0.031 0-0.044 0.001-0.078 0.004-0.195 0.009-0.298-0.105-0.040-0.045-0.059-0.101-0.056-0.162 0.008-0.124 0.109-0.246 0.172-0.311-0.162-0.114-0.317-0.232-0.46-0.375-0.273-0.273-0.584-0.404-0.928-0.397-0.032 0.342 0.144 0.567 0.332 0.803 0.055 0.070 0.111 0.139 0.161 0.212 0.247 0.358 0.196 1.049 0.164 1.122-0.036 0.083-0.231 0.267-0.499 0.231-0.123-0.016-0.265 0.025-0.355 0.103-0.038 0.034-0.084 0.090-0.084 0.165 0 0.004 0 0.023 0.006 0.026 0.036 0.022 0.171-0.021 0.267-0.073 0.027-0.014 0.060-0.010 0.082 0.011 0.19 0.177 0.38 0.024 0.401 0.006 0.026-0.022 0.064-0.023 0.091-0.002 0.194 0.156 0.396-0.015 0.405-0.022 0.024-0.021 0.059-0.023 0.085-0.006 0.084 0.055 0.161 0.071 0.23 0.047 0.060-0.021 0.092-0.066 0.096-0.077 0.002-0.029-0.037-0.177-0.062-0.275-0.027-0.103-0.055-0.209-0.065-0.279z"></path>
<path fill="#ffd250" d="M25.515 13.157c-0.058-0.004-0.101 0.008-0.13 0.037-0.053 0.053-0.049 0.147-0.049 0.148 0.001 0.021-0.007 0.042-0.023 0.056s-0.036 0.022-0.057 0.018c-0.105-0.014-0.261-0.125-0.549-0.336-0.458-0.336-1.15-0.843-1.811-0.927-0.768-0.098-1.451 0.147-1.625 0.582-0.193 0.483 0.218 0.924 0.222 0.928 0.021 0.022 0.025 0.055 0.011 0.082-0.108 0.204-0.026 0.355 0.048 0.437 0.023-0.068 0.058-0.115 0.106-0.143 0.115-0.069 0.266-0.012 0.474 0.067 0.123 0.046 0.262 0.099 0.425 0.139 0.417 0.102 0.925 0.011 1.373-0.069 0.159-0.028 0.311-0.056 0.453-0.074 0.358-0.046 0.716 0.113 0.815 0.361 0.048 0.12 0.073 0.362-0.292 0.628-0.657 0.478-3.653 0.257-3.83 0.244-0.004 0-0.008 0.001-0.016 0.001 0.066 0.074 0.142 0.145 0.176 0.154s0.056 0.042 0.052 0.077c-0.004 0.035-0.034 0.062-0.069 0.062l-0.307 0.005 0.028 0.295c0.002 0.022-0.006 0.043-0.022 0.058s-0.038 0.021-0.059 0.018c-0.012-0.002-0.277-0.044-0.46-0.146l-0.347 0.219c-0.011 0.007-0.025 0.011-0.038 0.011-0.008 0-0.015-0.001-0.023-0.004-0.020-0.007-0.036-0.023-0.044-0.043l-0.132-0.36-0.157 0.314c-0.011 0.023-0.034 0.038-0.060 0.039-0.025 0.003-0.050-0.011-0.063-0.033l-0.134-0.214c-0.061 0.077-0.16 0.189-0.261 0.258-0.018 0.013-0.042 0.016-0.063 0.009s-0.038-0.024-0.045-0.046l-0.070-0.222c-0.062 0.079-0.152 0.183-0.248 0.262-0.020 0.017-0.049 0.021-0.073 0.010s-0.041-0.034-0.042-0.060l-0.023-0.357c-0.081 0.041-0.191 0.095-0.251 0.114-0.028 0.009-0.058-0.001-0.076-0.023s-0.021-0.054-0.006-0.080c0.109-0.19 0.209-0.426 0.217-0.544-0.072 0.087-0.174 0.17-0.287 0.262-0.241 0.196-0.541 0.44-0.762 0.867-0.154 0.299-0.265 0.819-0.070 1.305 0.167 0.414 0.525 0.723 1.063 0.922-0.018-0.078-0.032-0.155-0.033-0.228-0.007-0.368 0.069-0.703 0.073-0.718 0.009-0.038 0.047-0.062 0.085-0.053s0.062 0.047 0.053 0.085c-0.001 0.003-0.076 0.333-0.069 0.683 0.003 0.171 0.077 0.382 0.148 0.587 0.095 0.271 0.192 0.552 0.15 0.788-0.058 0.321-0.458 0.402-0.829 0.34-0.105-0.018-0.201 0.008-0.27 0.073-0.070 0.065-0.106 0.165-0.096 0.268 0.005 0.048 0.023 0.058 0.029 0.061 0.045 0.024 0.15-0.009 0.206-0.038 0.029-0.015 0.064-0.009 0.086 0.016 0.149 0.167 0.349 0 0.358-0.007 0.029-0.024 0.072-0.022 0.098 0.006 0.056 0.060 0.115 0.090 0.181 0.091 0.121 0.007 0.236-0.1 0.237-0.101 0.021-0.020 0.052-0.026 0.079-0.014 0.234 0.107 0.356 0.045 0.361 0.042 0.203-0.173 0.085-0.583 0.084-0.587-0.006-0.019-0.003-0.039 0.007-0.056s0.026-0.029 0.045-0.033c0.284-0.065 0.443-0.247 0.519-0.368-0.14-0.001-0.252-0.051-0.317-0.153-0.106-0.166-0.055-0.415 0.129-0.635 0.315-0.377 0.508-1.14 0.479-1.451-0.004-0.039 0.025-0.073 0.064-0.077 0.038-0.004 0.073 0.025 0.077 0.064 0.025 0.272-0.097 0.837-0.321 1.262 0.284-0.078 0.543-0.193 0.813-0.317 0.269-0.123 0.546-0.249 0.88-0.354 0.564-0.177 1.062-0.054 1.479 0.364 0.202 0.202 0.423 0.351 0.679 0.522 0.112 0.075 0.229 0.154 0.351 0.241 0.329 0.237 0.323 0.434 0.317 0.644-0.002 0.064-0.004 0.13 0.003 0.201 0.034 0.34-0.236 0.394-0.366 0.419-0.018 0.003-0.034 0.007-0.049 0.010-0.018 0.005-0.040 0.009-0.064 0.014-0.132 0.027-0.331 0.067-0.38 0.236-0.009 0.030-0.005 0.041-0.005 0.041 0.021 0.009 0.129-0.015 0.215-0.054 0.018-0.008 0.039-0.009 0.057-0.001s0.033 0.023 0.039 0.042c0.025 0.073 0.064 0.086 0.077 0.090 0.089 0.028 0.235-0.054 0.279-0.085 0.027-0.019 0.064-0.017 0.089 0.005 0.073 0.067 0.141 0.096 0.201 0.088 0.081-0.011 0.131-0.088 0.131-0.089 0.012-0.019 0.032-0.031 0.054-0.033s0.044 0.007 0.059 0.023c0 0 0.062 0.066 0.189 0.106 0.083 0.026 0.104-0.004 0.111-0.014 0.035-0.051 0.023-0.182-0.046-0.268-0.090-0.112-0.131-0.283-0.106-0.435 0.023-0.14 0.099-0.254 0.218-0.33 0.219-0.139 0.269-0.289 0.255-0.318-0.004-0.002-0.028-0.005-0.047-0.008-0.098-0.013-0.261-0.034-0.429-0.345-0.148-0.274-0.005-0.707 0.161-1.209 0.084-0.254 0.171-0.517 0.225-0.775 0.149-0.713-0.318-1.28-0.323-1.285-0.024-0.029-0.022-0.071 0.006-0.097 0.328-0.308 0.469-0.593 0.419-0.847-0.052-0.266-0.309-0.451-0.514-0.53-0.255-0.098-0.72-0.042-1.169 0.011-0.376 0.045-0.731 0.087-0.96 0.039-0.118-0.025-0.205-0.081-0.257-0.166-0.043-0.070-0.054-0.148-0.053-0.208-0.114 0.043-0.191 0.148-0.192 0.15-0.013 0.018-0.034 0.029-0.056 0.030-0.028-0.001-0.044-0.010-0.057-0.027-0.058-0.075-0.081-0.157-0.069-0.246 0.016-0.114 0.089-0.212 0.149-0.275-0.264-0.093-0.466 0.128-0.475 0.139-0.023 0.026-0.061 0.031-0.090 0.013-0.127-0.078-0.206-0.232-0.201-0.391 0.005-0.15 0.082-0.276 0.213-0.346 0.089-0.047 0.175-0.056 0.254-0.026 0.076 0.028 0.129 0.087 0.162 0.137 0.096-0.11 0.105-0.3 0.105-0.302 0.001-0.019 0.009-0.037 0.023-0.050s0.033-0.021 0.051-0.019c0.168 0.007 0.298 0.068 0.387 0.18 0.122 0.154 0.133 0.368 0.126 0.5 0.268-0.137 0.234-0.452 0.232-0.467-0.003-0.024 0.007-0.048 0.026-0.064s0.044-0.020 0.068-0.011c0.284 0.1 0.388 0.354 0.412 0.542 0.080-0.077 0.082-0.175 0.082-0.177 0-0.032 0.022-0.060 0.053-0.069s0.064 0.006 0.080 0.035c0.11 0.2 0.277 0.325 0.399 0.395l-0.084-0.204c-0.011-0.028-0.004-0.059 0.018-0.080s0.055-0.024 0.081-0.010c0.14 0.075 0.251 0.161 0.369 0.252 0.142 0.109 0.288 0.222 0.495 0.319 0.202 0.095 0.338 0.077 0.416 0.045 0.081-0.033 0.127-0.091 0.143-0.13 0.029-0.075 0.037-0.182-0.009-0.253-0.030-0.046-0.079-0.071-0.148-0.076z"></path>
<path fill="#ffd250" d="M17.156 14.175c0 0 0 0 0 0s0.001 0 0.001 0c0.005 0.002 0.535 0.169 1.015 0.197 0.026 0.002 0.050 0.018 0.060 0.042s0.007 0.053-0.009 0.073l-0.017 0.021c0.095-0.014 0.215-0.028 0.333-0.028-0.048-0.057-0.108-0.13-0.17-0.207-0.129-0.002-0.599-0.023-0.982-0.207-0.093-0.045-0.254-0.123-0.33-0.084-0.013 0.007-0.035 0.039-0.031 0.078 0.005 0.050 0.050 0.090 0.129 0.114z"></path>
<path fill="#ffd250" d="M18.751 13.152c-0.007 0-0.014 0.001-0.020 0.003-0.031 0.009-0.047 0.044-0.051 0.071-0.005 0.035 0.004 0.082 0.044 0.109 0.053 0.035 0.109 0.011 0.142-0.021 0.010-0.010 0.059-0.062 0.023-0.119l-0-0c-0.055-0.025-0.104-0.043-0.138-0.043z"></path>
<path fill="#ffd250" d="M18.056 14.858c0.034 0.082 0.087 0.145 0.131 0.188 0.017-0.036 0.042-0.074 0.081-0.102s0.103-0.054 0.199-0.034c0.002 0 0.003 0 0.004 0.001 0.003 0.001 0.005 0 0.008 0.001s0.004 0.003 0.006 0.003c0.003 0.001 0.007 0.001 0.010 0.003s0.004 0.004 0.006 0.005c0.036 0.015 0.066 0.040 0.082 0.078 0.054 0.125-0.041 0.368-0.124 0.541 0.059-0.029 0.115-0.059 0.146-0.075 0.021-0.011 0.047-0.011 0.068 0.001s0.035 0.033 0.036 0.057l0.020 0.316c0.111-0.117 0.198-0.243 0.199-0.245 0.015-0.022 0.042-0.034 0.069-0.030s0.049 0.023 0.057 0.049l0.081 0.255c0.113-0.104 0.212-0.243 0.213-0.245 0.014-0.019 0.036-0.030 0.060-0.030s0.046 0.013 0.058 0.033l0.122 0.194 0.174-0.348c0.013-0.025 0.037-0.041 0.067-0.039 0.028 0.002 0.053 0.020 0.063 0.046l0.159 0.431 0.309-0.195c0.023-0.015 0.053-0.015 0.077 0.001 0.101 0.066 0.256 0.109 0.354 0.131l-0.026-0.277c-0.002-0.020 0.005-0.039 0.018-0.054s0.032-0.023 0.052-0.024l0.177-0.003c-0.043-0.043-0.078-0.085-0.095-0.106-0.012-0.014-0.016-0.031-0.015-0.048-0.13-0.006-0.312-0.029-0.494-0.107l-0.108 0.167c-0.010 0.016-0.027 0.027-0.045 0.031-0.005 0.001-0.009 0.002-0.014 0.002-0.014 0-0.028-0.004-0.039-0.012l-0.409-0.274-0.075 0.205c-0.009 0.024-0.029 0.041-0.054 0.045s-0.050-0.004-0.066-0.023c-0.070-0.081-0.181-0.204-0.246-0.272-0.059 0.057-0.163 0.149-0.274 0.21-0.018 0.010-0.040 0.012-0.059 0.005s-0.035-0.022-0.042-0.042l-0.112-0.301c-0.014-0.037 0.005-0.078 0.042-0.091s0.078 0.005 0.091 0.042l0.082 0.22c0.119-0.082 0.218-0.189 0.219-0.19 0.025-0.027 0.067-0.030 0.096-0.007 0.041 0.033 0.153 0.156 0.231 0.244l0.065-0.178c0.008-0.020 0.024-0.036 0.045-0.043s0.043-0.004 0.061 0.008l0.424 0.285 0.103-0.158c0.020-0.030 0.059-0.041 0.091-0.025 0.188 0.094 0.392 0.117 0.521 0.12-0.079-0.148-0.086-0.335-0.087-0.38-0.106-0.047-0.236-0.117-0.367-0.225l-0.051 0.126c-0.008 0.020-0.025 0.035-0.046 0.041s-0.044 0.002-0.061-0.011l-0.205-0.148-0.020 0.153c-0.003 0.024-0.018 0.044-0.040 0.055s-0.047 0.009-0.067-0.003c-0.007-0.004-0.175-0.107-0.276-0.22-0.026-0.029-0.023-0.074 0.006-0.1s0.074-0.024 0.1 0.006c0.042 0.048 0.102 0.095 0.151 0.131l0.021-0.158c0.003-0.025 0.019-0.046 0.042-0.056s0.049-0.007 0.070 0.008l0.228 0.165 0.055-0.134c0.009-0.022 0.028-0.037 0.051-0.043s0.047 0.002 0.064 0.018c0.177 0.166 0.368 0.256 0.486 0.3-0.041-0.189-0.056-0.426-0.057-0.438-0-0.002 0.001-0.003 0.001-0.005-0.11-0.061-0.266-0.166-0.401-0.33-0.001 0.087-0.008 0.176-0.029 0.232-0.007 0.019-0.023 0.034-0.042 0.041s-0.041 0.005-0.059-0.005c-0.009-0.005-0.163-0.093-0.277-0.223-0.020 0.071-0.044 0.146-0.064 0.18-0.019 0.032-0.059 0.043-0.092 0.027-0.007-0.003-0.115-0.058-0.212-0.142-0.009 0.094-0.024 0.201-0.045 0.253-0.008 0.019-0.023 0.033-0.042 0.040s-0.040 0.005-0.058-0.005c-0.006-0.004-0.129-0.071-0.244-0.156l-0.031 0.118c-0.005 0.020-0.019 0.037-0.038 0.046s-0.041 0.009-0.060 0c-0.009-0.004-0.211-0.097-0.326-0.238-0.025-0.030-0.020-0.075 0.010-0.1s0.075-0.020 0.1 0.010c0.055 0.067 0.14 0.124 0.2 0.159l0.036-0.138c0.006-0.024 0.025-0.043 0.048-0.050s0.049-0.001 0.068 0.015c0.068 0.061 0.159 0.121 0.224 0.161 0.014-0.087 0.025-0.214 0.029-0.296 0.002-0.032 0.024-0.058 0.055-0.065s0.063 0.008 0.078 0.035c0.039 0.072 0.132 0.142 0.203 0.186 0.019-0.060 0.043-0.15 0.061-0.227 0.007-0.030 0.032-0.052 0.062-0.054s0.059 0.014 0.071 0.041c0.044 0.098 0.151 0.188 0.228 0.242 0.008-0.103 0.001-0.25-0.009-0.342-0.003-0.034 0.018-0.066 0.051-0.075s0.068 0.006 0.083 0.037c0.142 0.289 0.394 0.449 0.525 0.516 0.071-0.781-0.158-1.080-0.16-1.083-0.013-0.016-0.018-0.037-0.014-0.057s0.016-0.038 0.034-0.048c0.127-0.074 0.204-0.208 0.252-0.339-0.288 0.279-0.744 0.386-0.966 0.423l0.108 0.132c0.017 0.020 0.021 0.048 0.011 0.072s-0.032 0.041-0.058 0.043c-0.272 0.027-0.471-0.009-0.605-0.054l0.046 0.085c0.012 0.022 0.011 0.050-0.002 0.071s-0.038 0.036-0.063 0.033c-0.222-0.009-0.416-0.101-0.575-0.182-0.008 0.052-0.033 0.103-0.076 0.145-0.052 0.051-0.119 0.078-0.185 0.078-0.047 0-0.093-0.013-0.134-0.040-0.080-0.053-0.12-0.148-0.106-0.248 0.014-0.091 0.071-0.162 0.15-0.186 0.106-0.031 0.226 0.030 0.378 0.107 0.121 0.062 0.265 0.135 0.423 0.168l-0.088-0.162c-0.016-0.030-0.009-0.068 0.018-0.089s0.065-0.021 0.091 0.002c0.002 0.001 0.178 0.146 0.578 0.139l-0.101-0.123c-0.017-0.020-0.021-0.048-0.011-0.072s0.033-0.041 0.059-0.043c0.008-0.001 0.589-0.060 0.946-0.348-0.116 0.034-0.207 0.029-0.213 0.029-0.020-0.002-0.038-0.011-0.050-0.027-0.164-0.206-0.331-0.269-0.416-0.289-0.047 0.15-0.162 0.271-0.168 0.276-0.015 0.016-0.037 0.024-0.058 0.021s-0.041-0.014-0.053-0.033c-0.126-0.204-0.308-0.257-0.414-0.27 0.013 0.15-0.092 0.274-0.162 0.326-0.027 0.020-0.064 0.018-0.089-0.004-0.304-0.272-0.538-0.191-0.633-0.137 0.030 0.075 0.016 0.135-0.004 0.176-0.145 0.294-1.043 0.353-1.221 0.362-0.022 0.002-0.044-0.009-0.058-0.026s-0.019-0.041-0.013-0.063c0.013-0.049 0.004-0.102-0.024-0.149s-0.077-0.083-0.126-0.094c-0.047-0.010-0.136-0.004-0.189 0.055-0.061 0.067-0.065 0.191-0.012 0.358 0.095 0.3 0.388 0.596 0.57 0.758-0.002-0.037-0.001-0.065-0-0.072 0.002-0.030 0.022-0.056 0.051-0.064s0.060 0.003 0.078 0.028c0.060 0.087 0.132 0.145 0.186 0.181l0.035-0.226c0.005-0.031 0.030-0.056 0.062-0.059 0.031-0.003 0.062 0.014 0.074 0.043 0.064 0.156 0.47 0.644 0.621 0.818 0.019 0.022 0.023 0.054 0.009 0.080s-0.043 0.040-0.072 0.036c-0.259-0.037-0.639 0.049-0.643 0.050-0.029 0.007-0.060-0.006-0.076-0.031s-0.014-0.058 0.005-0.082l0.052-0.065c-0.359-0.037-0.709-0.132-0.851-0.173l-0.119 0.323 0.32-0.032c0.024-0.003 0.049 0.008 0.064 0.028s0.018 0.046 0.009 0.069l-0.060 0.148 0.264-0.070c0.035-0.010 0.071 0.009 0.084 0.042 0.035 0.088 0.078 0.147 0.112 0.183l0.074-0.164c0.012-0.026 0.037-0.043 0.066-0.042 0.028 0.001 0.053 0.018 0.064 0.044z"></path>
<path fill="#ffd250" d="M17.139 18.479c0.279 0.186 0.505-0.026 0.626-0.19-0.257-0.188-0.445-0.419-0.555-0.694-0.036-0.090-0.060-0.181-0.078-0.271-0.026-0.021-0.415-0.328-0.74-0.688-0.017 0.043-0.038 0.078-0.056 0.101 0.023 0.093 0.001 0.169-0.028 0.218 0.020 0.066 0.004 0.132-0.019 0.18 0.049 0.074 0.058 0.147 0.027 0.217-0.007 0.016-0.017 0.031-0.027 0.045 0.040 0.049 0.104 0.161 0.104 0.386 0 0.151 0.056 0.242 0.098 0.289 0.024-0.021 0.051-0.033 0.081-0.036 0.089-0.010 0.163 0.066 0.263 0.172 0.078 0.083 0.176 0.186 0.306 0.272z"></path>
<path fill="#ffd250" d="M15.75 16.56c-0.005 0-0.011-0-0.016-0-0.102-0.001-0.195-0.011-0.281-0.028-0.008 0.024 0.009 0.092 0.028 0.107s0.030 0.037 0.030 0.060c-0.001 0.023-0.010 0.045-0.029 0.058-0.012 0.009-0.048 0.041-0.049 0.072s0.036 0.062 0.057 0.078c0.016 0.012 0.026 0.030 0.028 0.049s-0.004 0.039-0.017 0.054c-0.009 0.011-0.035 0.050-0.031 0.083 0.001 0.007 0.004 0.028 0.041 0.053 0.016 0.011 0.027 0.028 0.030 0.047s-0.002 0.039-0.013 0.054c0 0-0.020 0.029-0.012 0.058 0.008 0.032 0.048 0.057 0.080 0.072 0.060 0.028 0.145 0.046 0.235 0.050 0.003-0 0.005-0 0.008-0 0.075 0.002 0.153-0.005 0.219-0.029 0.065-0.024 0.108-0.058 0.128-0.103 0.006-0.014 0.019-0.043-0.036-0.108-0.022-0.025-0.023-0.063-0.003-0.089 0-0 0.047-0.065 0.018-0.117-0.016-0.028-0.011-0.062 0.012-0.085 0.004-0.005 0.048-0.056 0.013-0.149-0.010-0.027-0.003-0.057 0.018-0.076 0.003-0.003 0.067-0.069 0.065-0.171-0.009-0.011-0.017-0.021-0.026-0.032-0.137 0.058-0.305 0.093-0.497 0.093z"></path>
<path fill="#ffd250" d="M16.398 11.624c-0.286 0.154-0.897 0.637-0.915 1.958l0.016 2.227c0.002 0.003 0.005 0.006 0.006 0.009 0.037 0.070 0.019 0.16-0.001 0.223 0.177 0.063 0.398 0.037 0.492 0.014-0.019-0.055-0.034-0.144 0.030-0.245-0.010-2.656 0.243-3.786 0.372-4.186z"></path>
<path fill="#ffd250" d="M16.427 16.088c0-0.113-0.085-0.201-0.17-0.23-0.017-0.006-0.077-0.023-0.104 0.013-0.051 0.067-0.033 0.114-0.016 0.16 0.010 0.025 0.020 0.052 0.012 0.082-0.010 0.038-0.044 0.054-0.056 0.059-0.096 0.044-0.461 0.101-0.714-0.029-0.034-0.018-0.048-0.060-0.031-0.094 0.027-0.055 0.046-0.135 0.031-0.163-0.001-0.002-0.005-0.009-0.024-0.011-0.019-0.003-0.038-0.004-0.056-0.004-0.086 0-0.166 0.027-0.209 0.073-0.035 0.037-0.046 0.085-0.033 0.145 0.042 0.203 0.296 0.326 0.679 0.329 0.271-0.001 0.504-0.065 0.62-0.18 0.047-0.047 0.071-0.097 0.071-0.15z"></path>
<path fill="#ffd250" d="M15.818 17.768c0.016-0.022 0.043-0.032 0.070-0.026 0.049 0.010 0.172 0.036 0.242-0.018 0.024-0.019 0.030-0.070 0.011-0.104-0.006-0.012-0.026-0.046-0.1-0.018-0.070 0.027-0.17 0.056-0.233-0.001-0.013-0.011-0.021-0.024-0.027-0.038-0.019-0.002-0.038-0.003-0.056-0.005-0.006 0.016-0.014 0.031-0.029 0.044-0.063 0.057-0.163 0.027-0.233 0.001-0.073-0.028-0.094 0.007-0.1 0.018-0.019 0.033-0.013 0.085 0.011 0.104 0.070 0.054 0.193 0.029 0.233 0.020 0.026-0.005 0.058 0.004 0.075 0.025s0.024 0.050 0.011 0.074c-0.016 0.032-0.085 0.167-0.153 0.252 0.088 0.129 0.165 0.36-0.014 0.565-0.015 0.017-0.037 0.025-0.059 0.024s-0.042-0.014-0.054-0.032c-0.010-0.015-0.046-0.058-0.086-0.066-0.012-0.002-0.031-0.003-0.058 0.015-0.018 0.013-0.029 0.055-0.013 0.102 0.028 0.083 0.115 0.129 0.237 0.123 0.028-0.003 0.058 0.016 0.069 0.044s0.003 0.060-0.020 0.080l-0.115 0.099 0.188 0.046c0.025 0.006 0.045 0.025 0.052 0.050 0 0.001 0.028 0.102 0.085 0.186 0.056-0.085 0.084-0.185 0.085-0.186 0.007-0.025 0.027-0.044 0.052-0.050l0.188-0.046-0.116-0.099c-0.023-0.020-0.031-0.052-0.020-0.080s0.039-0.047 0.069-0.044c0.121 0.005 0.209-0.040 0.237-0.123 0.016-0.046 0.005-0.089-0.013-0.102-0.028-0.019-0.047-0.018-0.059-0.015-0.041 0.008-0.078 0.054-0.085 0.066-0.012 0.019-0.032 0.031-0.054 0.032s-0.044-0.007-0.059-0.024c-0.18-0.205-0.103-0.436-0.014-0.565-0.068-0.085-0.137-0.22-0.153-0.252-0.012-0.024-0.009-0.053 0.007-0.074z"></path>
<path fill="#464655" d="M25.782 13.156c-0.038-0.059-0.113-0.131-0.258-0.14-0.1-0.007-0.181 0.020-0.239 0.078-0.047 0.047-0.070 0.105-0.081 0.154-0.097-0.051-0.251-0.164-0.413-0.282-0.47-0.344-1.18-0.865-1.877-0.953-0.565-0.072-1.208 0.041-1.562 0.369 0.005-0.043 0.007-0.072 0.007-0.077 0-0.001-0.001-0.002-0.001-0.003 0-0.013-0.004-0.026-0.010-0.037-0.001-0.002-0.003-0.004-0.005-0.006-0.008-0.010-0.018-0.019-0.031-0.024-0-0-0-0-0.001-0h-0c-0.013-0.005-0.027-0.004-0.040-0.001-0.003 0.001-0.005 0.001-0.007 0.002-0.012 0.004-0.023 0.012-0.032 0.022-0.001 0.001-0.002 0.001-0.002 0.001-0.147 0.197-0.348 0.223-0.423 0.226-0.265-0.315-0.545-0.325-0.557-0.325-0.041 0.003-0.066 0.025-0.072 0.060-0.011 0.075-0.055 0.149-0.091 0.2-0.234-0.29-0.563-0.261-0.577-0.26-0.023 0.002-0.043 0.015-0.054 0.035s-0.013 0.044-0.003 0.065c0.042 0.093-0.009 0.173-0.050 0.218-0.46-0.369-0.814-0.068-0.818-0.065-0.027 0.024-0.032 0.064-0.012 0.094 0.034 0.050 0.028 0.077 0.019 0.096-0.074 0.151-0.614 0.249-1.019 0.278-0.002-0.057-0.019-0.114-0.051-0.165-0.050-0.082-0.129-0.14-0.218-0.159-0.098-0.021-0.236 0.001-0.323 0.098-0.098 0.108-0.112 0.275-0.042 0.496 0.109 0.346 0.438 0.671 0.63 0.838-0.047-0.017-0.093-0.036-0.138-0.058-0.113-0.055-0.302-0.147-0.441-0.074-0.070 0.036-0.116 0.128-0.107 0.217 0.004 0.045 0.029 0.145 0.16 0.209l-0.157 0.427c-0.008 0.023-0.004 0.049 0.011 0.068s0.039 0.030 0.063 0.027l0.316-0.032-0.070 0.17c-0.010 0.025-0.005 0.053 0.012 0.074s0.045 0.029 0.071 0.022l0.343-0.091c0.088 0.182 0.207 0.245 0.212 0.248 0.017 0.009 0.038 0.011 0.056 0.004s0.034-0.020 0.041-0.038l0.055-0.121c0.057 0.079 0.118 0.132 0.156 0.161-0.023 0.019-0.046 0.038-0.071 0.058-0.238 0.194-0.564 0.459-0.798 0.912-0.118 0.228-0.209 0.575-0.182 0.944-0.171-0.143-0.492-0.428-0.729-0.719 0.029-0.019 0.059-0.038 0.082-0.060 0.074-0.073 0.113-0.16 0.113-0.251 0-0.188-0.138-0.321-0.266-0.364-0.048-0.016-0.093-0.018-0.135-0.011-0.004-3.086 0.347-4.031 0.419-4.19 0.011-0.025 0.007-0.055-0.011-0.075s-0.047-0.029-0.073-0.021c-0.046 0.014-1.136 0.354-1.16 2.157l0.015 2.151c-0.148-0.016-0.288 0.027-0.37 0.114-0.046 0.050-0.096 0.137-0.068 0.27 0.037 0.177 0.179 0.308 0.399 0.379-0.006 0.023-0.008 0.049-0.005 0.079 0.003 0.035 0.014 0.077 0.034 0.114-0.027 0.032-0.053 0.078-0.054 0.134-0.001 0.054 0.020 0.105 0.064 0.151-0.017 0.035-0.032 0.082-0.026 0.135 0.004 0.031 0.017 0.073 0.054 0.113-0.010 0.031-0.017 0.071-0.006 0.116 0.011 0.046 0.040 0.085 0.082 0.119-0.108-0.020-0.185 0.029-0.22 0.093-0.054 0.096-0.032 0.223 0.048 0.285 0.065 0.050 0.143 0.066 0.214 0.063-0.036 0.061-0.074 0.117-0.098 0.136-0.016 0.012-0.025 0.030-0.027 0.050s0.005 0.039 0.018 0.054c0.007 0.008 0.162 0.182 0.070 0.363-0.028-0.023-0.065-0.045-0.109-0.054-0.057-0.012-0.114 0.002-0.167 0.038-0.075 0.051-0.103 0.16-0.068 0.264 0.027 0.080 0.094 0.161 0.208 0.199l-0.099 0.085c-0.020 0.017-0.029 0.044-0.023 0.070s0.026 0.046 0.052 0.052l0.284 0.069c0.022 0.062 0.072 0.183 0.155 0.266 0.013 0.013 0.039 0.021 0.057 0.021s0.037-0.008 0.050-0.021c0.083-0.083 0.133-0.204 0.155-0.266l0.284-0.069c0.026-0.006 0.046-0.026 0.052-0.052s-0.003-0.053-0.023-0.070l-0.099-0.085c0.114-0.038 0.181-0.119 0.208-0.199 0.035-0.104 0.007-0.212-0.067-0.264-0.052-0.036-0.11-0.049-0.167-0.038-0.044 0.009-0.080 0.031-0.109 0.054-0.090-0.18 0.063-0.355 0.070-0.363 0.013-0.015 0.020-0.034 0.018-0.054s-0.012-0.038-0.027-0.050c-0.024-0.019-0.062-0.075-0.098-0.136 0.071 0.001 0.148-0.012 0.214-0.063 0.014-0.011 0.025-0.026 0.035-0.041 0.005 0.311 0.202 0.434 0.21 0.439 0.034 0.020 0.077 0.009 0.097-0.024 0.017-0.027 0.027-0.032 0.026-0.033 0.025 0.001 0.095 0.075 0.146 0.129 0.083 0.088 0.187 0.197 0.33 0.292 0.105 0.070 0.203 0.097 0.294 0.097 0.255 0 0.446-0.215 0.527-0.326 0.159 0.1 0.339 0.186 0.544 0.256 0.007 0.002 0.014 0.003 0.021 0.003 0.024 0.079 0.051 0.16 0.079 0.239 0.089 0.254 0.18 0.517 0.144 0.717-0.047 0.259-0.456 0.261-0.666 0.226-0.15-0.024-0.288 0.014-0.39 0.109s-0.154 0.239-0.14 0.385c0.010 0.102 0.061 0.15 0.102 0.172 0.095 0.051 0.222 0.013 0.292-0.016 0.159 0.139 0.35 0.081 0.465 0.007 0.071 0.059 0.15 0.090 0.236 0.092 0.003 0 0.006 0 0.009 0 0.129 0 0.238-0.068 0.293-0.11 0.274 0.111 0.431 0.028 0.458 0.011 0.223-0.188 0.186-0.525 0.157-0.672 0.457-0.139 0.605-0.536 0.611-0.554 0.009-0.025 0.003-0.052-0.015-0.072s-0.045-0.027-0.070-0.020c-0.141 0.038-0.253 0.012-0.306-0.071-0.072-0.112-0.025-0.296 0.119-0.468 0.030-0.036 0.059-0.076 0.087-0.118 0.354-0.079 0.656-0.217 0.975-0.362 0.265-0.121 0.538-0.245 0.864-0.348 0.091-0.029 0.18-0.045 0.267-0.057-0.026 0.384 0.17 0.636 0.364 0.879 0.053 0.067 0.107 0.134 0.155 0.204 0.207 0.3 0.167 0.929 0.151 0.986-0.015 0.032-0.154 0.174-0.35 0.147-0.164-0.022-0.347 0.032-0.467 0.137-0.086 0.075-0.133 0.171-0.133 0.271 0 0.085 0.041 0.128 0.075 0.148 0.103 0.061 0.272-0.004 0.363-0.048 0.085 0.066 0.172 0.090 0.253 0.090 0.1 0 0.191-0.037 0.254-0.079 0.19 0.12 0.389 0.050 0.5-0.026 0.139 0.075 0.25 0.060 0.322 0.032 0.023-0.009 0.045-0.021 0.064-0.034 0.003 0.003 0.005 0.007 0.008 0.009 0.075 0.065 0.215 0.030 0.304-0.002 0.041 0.067 0.094 0.098 0.137 0.111 0.131 0.042 0.282-0.030 0.357-0.075 0.092 0.071 0.183 0.101 0.274 0.088 0.081-0.011 0.141-0.054 0.18-0.092 0.042 0.030 0.105 0.067 0.191 0.094 0.038 0.012 0.071 0.017 0.1 0.017 0.099 0 0.15-0.056 0.17-0.086 0.082-0.12 0.039-0.322-0.052-0.436-0.054-0.067-0.099-0.194-0.077-0.323 0.012-0.069 0.048-0.166 0.154-0.234 0.192-0.122 0.319-0.288 0.322-0.422 0.001-0.055-0.020-0.101-0.059-0.129-0.035-0.024-0.074-0.030-0.112-0.035-0.084-0.011-0.189-0.025-0.323-0.272-0.119-0.22 0.022-0.646 0.171-1.097 0.085-0.258 0.174-0.525 0.229-0.791 0.137-0.658-0.193-1.188-0.313-1.352 0.333-0.327 0.472-0.641 0.415-0.934-0.063-0.322-0.364-0.543-0.602-0.634-0.288-0.11-0.77-0.053-1.237 0.003-0.364 0.043-0.708 0.085-0.914 0.041-0.078-0.016-0.134-0.050-0.165-0.101-0.055-0.088-0.025-0.204-0.025-0.205 0.006-0.022 0.001-0.045-0.013-0.062s-0.037-0.029-0.058-0.027c-0.136 0.005-0.244 0.081-0.311 0.143-0.004-0.019-0.005-0.039-0.002-0.059 0.018-0.136 0.175-0.255 0.177-0.256 0.019-0.014 0.029-0.037 0.028-0.060s-0.014-0.045-0.034-0.057c-0.288-0.176-0.558-0.046-0.695 0.077-0.058-0.057-0.093-0.144-0.091-0.232 0.002-0.058 0.022-0.164 0.137-0.225 0.052-0.028 0.097-0.034 0.138-0.019 0.068 0.025 0.113 0.109 0.125 0.139 0.008 0.019 0.023 0.034 0.043 0.041s0.041 0.005 0.059-0.006c0.158-0.092 0.208-0.286 0.224-0.393 0.093 0.015 0.164 0.055 0.215 0.119 0.144 0.182 0.085 0.502 0.085 0.506-0.005 0.024 0.003 0.049 0.021 0.065s0.043 0.023 0.067 0.017c0.32-0.086 0.423-0.346 0.439-0.538 0.245 0.153 0.228 0.468 0.227 0.483-0.002 0.024 0.009 0.048 0.029 0.062s0.045 0.017 0.068 0.008c0.117-0.048 0.182-0.125 0.218-0.196 0.223 0.293 0.533 0.394 0.548 0.399 0.026 0.008 0.055 0.001 0.074-0.020s0.024-0.050 0.013-0.075l-0.069-0.168c0.056 0.040 0.111 0.081 0.166 0.124 0.148 0.114 0.301 0.231 0.521 0.335 0.248 0.116 0.425 0.090 0.529 0.048s0.188-0.121 0.222-0.211c0.039-0.105 0.055-0.26-0.023-0.38zM25.672 13.486c-0.015 0.040-0.061 0.097-0.143 0.13-0.078 0.032-0.214 0.050-0.416-0.045-0.207-0.097-0.353-0.21-0.495-0.319-0.118-0.091-0.229-0.176-0.369-0.252-0.026-0.014-0.059-0.010-0.081 0.010s-0.029 0.052-0.018 0.080l0.084 0.204c-0.122-0.070-0.29-0.195-0.399-0.395-0.015-0.028-0.048-0.043-0.080-0.035s-0.053 0.036-0.053 0.069c0 0.001-0.001 0.1-0.082 0.177-0.024-0.189-0.128-0.442-0.412-0.542-0.023-0.008-0.049-0.004-0.068 0.011s-0.029 0.039-0.026 0.064c0.002 0.015 0.036 0.33-0.232 0.467 0.007-0.132-0.004-0.346-0.126-0.5-0.089-0.113-0.219-0.173-0.387-0.18-0.018-0.002-0.037 0.006-0.051 0.019s-0.022 0.031-0.023 0.050c0 0.002-0.008 0.192-0.105 0.302-0.033-0.050-0.086-0.109-0.162-0.137-0.079-0.030-0.165-0.021-0.254 0.026-0.13 0.069-0.208 0.195-0.213 0.346-0.005 0.159 0.074 0.313 0.201 0.391 0.029 0.018 0.067 0.012 0.090-0.013 0.009-0.011 0.211-0.231 0.475-0.139-0.060 0.063-0.134 0.161-0.149 0.275-0.012 0.088 0.011 0.171 0.069 0.246 0.014 0.018 0.029 0.026 0.057 0.027 0.022-0 0.043-0.011 0.056-0.030 0.001-0.001 0.078-0.107 0.192-0.15-0 0.060 0.010 0.138 0.053 0.208 0.052 0.085 0.139 0.142 0.257 0.166 0.229 0.048 0.584 0.006 0.96-0.039 0.45-0.053 0.914-0.109 1.169-0.011 0.204 0.078 0.462 0.264 0.514 0.53 0.050 0.255-0.091 0.54-0.419 0.847-0.027 0.026-0.030 0.068-0.006 0.097 0.005 0.006 0.472 0.572 0.323 1.285-0.054 0.258-0.141 0.521-0.225 0.775-0.166 0.502-0.309 0.935-0.161 1.209 0.168 0.31 0.331 0.332 0.429 0.345 0.019 0.003 0.043 0.006 0.047 0.008 0.014 0.029-0.036 0.178-0.255 0.318-0.119 0.076-0.195 0.19-0.218 0.33-0.025 0.152 0.016 0.323 0.106 0.435 0.069 0.085 0.081 0.216 0.046 0.268-0.007 0.010-0.028 0.040-0.111 0.014-0.127-0.040-0.189-0.105-0.189-0.106-0.015-0.016-0.037-0.024-0.059-0.023s-0.042 0.014-0.054 0.033c-0.001 0.001-0.050 0.077-0.131 0.089-0.061 0.008-0.128-0.021-0.201-0.088-0.025-0.023-0.062-0.025-0.089-0.005-0.044 0.031-0.19 0.113-0.279 0.085-0.013-0.004-0.052-0.017-0.077-0.090-0.007-0.019-0.021-0.034-0.039-0.042s-0.039-0.008-0.057 0.001c-0.086 0.039-0.194 0.064-0.215 0.054 0 0-0.003-0.011 0.005-0.041 0.049-0.169 0.248-0.209 0.38-0.236 0.024-0.005 0.046-0.009 0.064-0.014 0.015-0.004 0.031-0.007 0.049-0.010 0.13-0.026 0.4-0.080 0.366-0.419-0.007-0.071-0.005-0.137-0.003-0.201 0.006-0.209 0.012-0.407-0.317-0.644-0.121-0.087-0.238-0.166-0.351-0.241-0.256-0.172-0.477-0.32-0.679-0.522-0.418-0.418-0.915-0.54-1.479-0.364-0.334 0.105-0.611 0.231-0.88 0.354-0.27 0.123-0.529 0.238-0.813 0.317 0.224-0.426 0.347-0.99 0.321-1.262-0.004-0.039-0.039-0.068-0.077-0.064-0.039 0.004-0.068 0.038-0.064 0.077 0.029 0.311-0.164 1.074-0.479 1.451-0.184 0.22-0.235 0.47-0.129 0.635 0.066 0.103 0.177 0.152 0.317 0.153-0.077 0.121-0.235 0.303-0.519 0.368-0.019 0.004-0.035 0.016-0.045 0.033s-0.012 0.037-0.007 0.056c0.001 0.004 0.118 0.414-0.084 0.587-0.005 0.003-0.128 0.065-0.361-0.042-0.026-0.012-0.058-0.007-0.079 0.014-0.001 0.001-0.116 0.108-0.237 0.101-0.066-0.002-0.125-0.031-0.181-0.091-0.026-0.028-0.069-0.030-0.098-0.006-0.008 0.007-0.209 0.174-0.358 0.007-0.022-0.024-0.057-0.031-0.086-0.016-0.057 0.030-0.162 0.063-0.206 0.038-0.006-0.003-0.024-0.013-0.029-0.061-0.010-0.102 0.026-0.202 0.096-0.268 0.069-0.064 0.165-0.090 0.27-0.073 0.371 0.062 0.771-0.019 0.829-0.341 0.043-0.236-0.055-0.517-0.15-0.788-0.071-0.204-0.145-0.415-0.148-0.587-0.007-0.35 0.068-0.68 0.069-0.683 0.009-0.038-0.015-0.076-0.053-0.085s-0.076 0.015-0.085 0.053c-0.003 0.014-0.080 0.35-0.073 0.718 0.001 0.072 0.015 0.149 0.033 0.228-0.537-0.199-0.896-0.508-1.063-0.922-0.195-0.485-0.084-1.006 0.070-1.305 0.221-0.427 0.521-0.671 0.762-0.867 0.113-0.092 0.215-0.175 0.287-0.262-0.008 0.118-0.108 0.354-0.217 0.544-0.015 0.025-0.012 0.057 0.006 0.080s0.049 0.032 0.076 0.023c0.061-0.019 0.171-0.073 0.251-0.114l0.023 0.357c0.002 0.026 0.018 0.050 0.042 0.060s0.053 0.007 0.073-0.010c0.095-0.078 0.186-0.183 0.248-0.262l0.070 0.222c0.007 0.021 0.023 0.038 0.045 0.046s0.045 0.004 0.063-0.009c0.101-0.070 0.199-0.182 0.261-0.258l0.134 0.214c0.014 0.022 0.038 0.036 0.063 0.033 0.026-0.001 0.049-0.016 0.060-0.039l0.157-0.314 0.132 0.36c0.007 0.020 0.023 0.036 0.044 0.043 0.007 0.003 0.015 0.004 0.023 0.004 0.013 0 0.026-0.004 0.038-0.011l0.347-0.219c0.183 0.102 0.448 0.144 0.46 0.146 0.021 0.003 0.044-0.003 0.059-0.018s0.024-0.037 0.022-0.058l-0.028-0.295 0.307-0.005c0.035-0.001 0.065-0.027 0.069-0.062s-0.018-0.068-0.052-0.077c-0.034-0.009-0.11-0.081-0.176-0.154 0.008-0.001 0.012-0.001 0.016-0.001 0.177 0.013 3.173 0.234 3.83-0.244 0.365-0.266 0.34-0.507 0.292-0.628-0.099-0.248-0.457-0.407-0.815-0.361-0.142 0.018-0.295 0.045-0.454 0.074-0.448 0.080-0.957 0.171-1.373 0.069-0.163-0.040-0.302-0.093-0.425-0.139-0.208-0.079-0.358-0.136-0.474-0.067-0.048 0.029-0.082 0.075-0.106 0.143-0.074-0.083-0.156-0.233-0.048-0.437 0.014-0.027 0.010-0.060-0.011-0.082-0.004-0.004-0.415-0.445-0.222-0.928 0.174-0.434 0.857-0.679 1.625-0.582 0.66 0.084 1.353 0.591 1.811 0.927 0.288 0.211 0.444 0.322 0.549 0.336 0.021 0.003 0.042-0.004 0.057-0.018s0.024-0.035 0.023-0.056c-0-0.001-0.004-0.095 0.049-0.148 0.029-0.029 0.071-0.041 0.13-0.037 0.069 0.005 0.118 0.030 0.148 0.076 0.046 0.072 0.038 0.179 0.009 0.254zM23.446 20.332c-0.069 0.024-0.146 0.008-0.23-0.047-0.026-0.017-0.061-0.015-0.085 0.006-0.009 0.007-0.211 0.178-0.405 0.022-0.026-0.021-0.065-0.021-0.091 0.002-0.021 0.018-0.211 0.171-0.401-0.006-0.022-0.021-0.055-0.025-0.082-0.011-0.096 0.052-0.231 0.095-0.267 0.073-0.006-0.003-0.006-0.023-0.006-0.026 0-0.075 0.046-0.131 0.084-0.165 0.089-0.078 0.231-0.12 0.355-0.103 0.268 0.036 0.464-0.148 0.499-0.231 0.031-0.073 0.083-0.764-0.164-1.122-0.050-0.073-0.105-0.142-0.161-0.212-0.188-0.236-0.364-0.461-0.332-0.803 0.344-0.007 0.655 0.124 0.928 0.397 0.143 0.143 0.298 0.261 0.46 0.375-0.063 0.064-0.164 0.186-0.172 0.311-0.004 0.061 0.016 0.117 0.056 0.162 0.103 0.114 0.22 0.109 0.298 0.105 0.013-0.001 0.031-0.002 0.044-0.001-0.020 0.048-0.093 0.148-0.144 0.218-0.14 0.192-0.231 0.325-0.216 0.428 0.011 0.070 0.038 0.177 0.065 0.279 0.026 0.098 0.064 0.246 0.062 0.275-0.004 0.011-0.036 0.056-0.096 0.077zM23.744 19.357c0.136-0.186 0.205-0.286 0.165-0.366-0.041-0.082-0.125-0.079-0.186-0.076-0.066 0.003-0.128 0.006-0.186-0.058-0.015-0.017-0.021-0.035-0.020-0.058 0.005-0.081 0.096-0.186 0.149-0.237 0.041 0.028 0.081 0.055 0.123 0.083 0.111 0.075 0.227 0.152 0.347 0.239 0.268 0.193 0.264 0.325 0.258 0.525-0.002 0.065-0.004 0.139 0.004 0.219 0.020 0.197-0.093 0.234-0.253 0.266-0.020 0.004-0.039 0.008-0.056 0.012s-0.036 0.008-0.058 0.013c-0.102 0.021-0.266 0.056-0.38 0.162-0.009-0.038-0.021-0.083-0.034-0.135-0.026-0.099-0.053-0.202-0.062-0.265-0.008-0.053 0.121-0.229 0.19-0.323zM16.57 18.036c-0.029 0.003-0.056 0.015-0.081 0.036-0.042-0.047-0.098-0.137-0.098-0.289 0-0.225-0.064-0.337-0.104-0.386 0.010-0.015 0.020-0.029 0.027-0.045 0.032-0.070 0.023-0.143-0.027-0.217 0.023-0.048 0.039-0.114 0.019-0.18 0.029-0.049 0.051-0.125 0.028-0.218 0.018-0.023 0.040-0.058 0.056-0.101 0.325 0.36 0.714 0.667 0.74 0.688 0.018 0.091 0.042 0.181 0.078 0.271 0.111 0.275 0.298 0.506 0.555 0.694-0.121 0.164-0.346 0.377-0.626 0.19-0.13-0.086-0.227-0.189-0.306-0.272-0.1-0.105-0.174-0.182-0.263-0.172zM15.978 18.66c0.014 0.017 0.036 0.025 0.059 0.024s0.042-0.014 0.054-0.032c0.008-0.012 0.044-0.058 0.085-0.066 0.012-0.003 0.031-0.003 0.059 0.015 0.018 0.013 0.029 0.055 0.013 0.102-0.028 0.083-0.116 0.129-0.237 0.123-0.030-0.003-0.058 0.016-0.069 0.044s-0.003 0.060 0.020 0.080l0.115 0.099-0.188 0.046c-0.025 0.006-0.045 0.025-0.052 0.050-0 0.001-0.028 0.102-0.085 0.186-0.056-0.085-0.085-0.185-0.085-0.186-0.007-0.025-0.027-0.044-0.052-0.050l-0.188-0.046 0.115-0.099c0.023-0.020 0.031-0.052 0.020-0.080s-0.041-0.047-0.069-0.044c-0.123 0.006-0.209-0.040-0.237-0.123-0.016-0.046-0.005-0.089 0.013-0.102 0.027-0.019 0.046-0.018 0.058-0.015 0.040 0.008 0.076 0.051 0.086 0.066 0.012 0.019 0.032 0.031 0.054 0.032 0.021 0.001 0.044-0.007 0.059-0.024 0.18-0.205 0.103-0.436 0.014-0.565 0.068-0.085 0.137-0.22 0.153-0.252 0.012-0.024 0.005-0.052-0.011-0.074s-0.049-0.030-0.075-0.025c-0.040 0.009-0.163 0.034-0.233-0.020-0.024-0.019-0.030-0.070-0.011-0.104 0.006-0.012 0.026-0.046 0.1-0.018 0.070 0.027 0.17 0.056 0.233-0.001 0.014-0.013 0.023-0.028 0.029-0.044 0.019 0.003 0.037 0.004 0.056 0.005 0.006 0.014 0.014 0.027 0.027 0.038 0.063 0.057 0.163 0.027 0.233 0.001 0.074-0.028 0.093 0.007 0.1 0.018 0.019 0.033 0.013 0.085-0.011 0.104-0.070 0.054-0.193 0.029-0.242 0.018-0.027-0.006-0.054 0.005-0.070 0.026s-0.019 0.050-0.007 0.075c0.016 0.032 0.085 0.167 0.153 0.252-0.088 0.129-0.165 0.36 0.014 0.565zM16.208 16.669c-0.021 0.020-0.028 0.050-0.018 0.076 0.035 0.093-0.009 0.145-0.013 0.149-0.023 0.022-0.027 0.057-0.012 0.085 0.029 0.052-0.018 0.117-0.018 0.117-0.020 0.027-0.019 0.064 0.003 0.089 0.056 0.065 0.043 0.094 0.036 0.108-0.020 0.044-0.063 0.079-0.128 0.103-0.066 0.024-0.143 0.032-0.219 0.029-0.003 0-0.006-0-0.008 0-0.089-0.004-0.175-0.022-0.235-0.050-0.032-0.015-0.072-0.040-0.080-0.072-0.008-0.029 0.012-0.058 0.012-0.058 0.012-0.015 0.016-0.035 0.013-0.054s-0.014-0.036-0.030-0.047c-0.037-0.025-0.040-0.047-0.041-0.053-0.005-0.033 0.021-0.073 0.031-0.083 0.013-0.015 0.019-0.034 0.017-0.054s-0.012-0.037-0.028-0.049c-0.022-0.016-0.058-0.048-0.057-0.078s0.036-0.063 0.049-0.072c0.019-0.013 0.029-0.035 0.029-0.058s-0.011-0.046-0.030-0.060c-0.018-0.014-0.036-0.083-0.028-0.107 0.086 0.017 0.179 0.027 0.281 0.028 0.005 0 0.011 0 0.016 0 0.192 0 0.36-0.035 0.497-0.093 0.009 0.011 0.017 0.021 0.026 0.032 0.001 0.102-0.063 0.168-0.065 0.171zM15.736 16.418c-0.383-0.003-0.637-0.127-0.679-0.329-0.012-0.060-0.002-0.108 0.033-0.145 0.043-0.046 0.123-0.073 0.209-0.073 0.018 0 0.037 0.001 0.056 0.004 0.020 0.003 0.023 0.009 0.024 0.011 0.015 0.028-0.005 0.108-0.031 0.163-0.017 0.035-0.003 0.077 0.031 0.094 0.252 0.13 0.618 0.073 0.714 0.029 0.012-0.005 0.047-0.021 0.056-0.059 0.008-0.030-0.003-0.056-0.012-0.082-0.017-0.046-0.036-0.093 0.016-0.16 0.027-0.036 0.087-0.019 0.104-0.013 0.084 0.029 0.17 0.117 0.17 0.23 0 0.053-0.024 0.103-0.071 0.15-0.116 0.115-0.349 0.179-0.62 0.18zM15.996 16.056c-0.095 0.023-0.315 0.049-0.492-0.014 0.021-0.063 0.038-0.153 0.001-0.223-0.002-0.003-0.004-0.006-0.006-0.009l-0.016-2.227c0.018-1.322 0.628-1.805 0.914-1.959-0.128 0.4-0.382 1.53-0.372 4.186-0.064 0.101-0.049 0.19-0.030 0.246zM17.926 14.857l-0.074 0.164c-0.034-0.036-0.077-0.094-0.112-0.183-0.013-0.033-0.049-0.052-0.084-0.042l-0.264 0.070 0.060-0.148c0.009-0.023 0.006-0.049-0.009-0.069s-0.040-0.031-0.064-0.028l-0.32 0.032 0.119-0.323c0.141 0.041 0.491 0.136 0.851 0.173l-0.052 0.065c-0.019 0.024-0.021 0.056-0.005 0.082s0.047 0.038 0.076 0.031c0.004-0.001 0.384-0.087 0.643-0.050 0.029 0.004 0.058-0.010 0.072-0.036s0.011-0.058-0.009-0.080c-0.151-0.175-0.557-0.663-0.621-0.818-0.012-0.029-0.042-0.046-0.074-0.043-0.032 0.004-0.057 0.028-0.062 0.059l-0.035 0.226c-0.054-0.036-0.126-0.095-0.186-0.181-0.017-0.025-0.048-0.036-0.078-0.028s-0.050 0.034-0.051 0.064c-0 0.007-0.002 0.034 0 0.072-0.182-0.162-0.475-0.458-0.57-0.758-0.053-0.167-0.049-0.291 0.012-0.358 0.053-0.058 0.142-0.065 0.189-0.055 0.050 0.011 0.097 0.046 0.126 0.094 0.029 0.047 0.038 0.1 0.024 0.149-0.006 0.022-0.001 0.045 0.013 0.063s0.036 0.028 0.058 0.026c0.178-0.009 1.076-0.068 1.221-0.362 0.020-0.041 0.034-0.102 0.004-0.176 0.095-0.054 0.33-0.135 0.633 0.137 0.025 0.022 0.062 0.024 0.089 0.004 0.070-0.052 0.175-0.175 0.162-0.326 0.106 0.013 0.288 0.067 0.414 0.27 0.012 0.019 0.031 0.031 0.053 0.033s0.043-0.006 0.058-0.021c0.006-0.006 0.12-0.127 0.168-0.276 0.084 0.020 0.252 0.083 0.416 0.289 0.012 0.015 0.030 0.025 0.050 0.027 0.007 0 0.097 0.005 0.213-0.029-0.358 0.288-0.939 0.347-0.946 0.348-0.026 0.002-0.049 0.019-0.059 0.043s-0.006 0.052 0.011 0.072l0.101 0.123c-0.4 0.008-0.576-0.137-0.578-0.139-0.026-0.023-0.064-0.023-0.091-0.002s-0.034 0.059-0.018 0.089l0.088 0.162c-0.157-0.033-0.302-0.106-0.423-0.168-0.152-0.078-0.273-0.139-0.378-0.107-0.079 0.024-0.136 0.095-0.15 0.186-0.015 0.099 0.026 0.194 0.106 0.248 0.041 0.027 0.087 0.040 0.134 0.040 0.066 0 0.133-0.027 0.185-0.078 0.043-0.042 0.069-0.092 0.076-0.145 0.16 0.081 0.354 0.172 0.575 0.182 0.025 0.003 0.050-0.011 0.063-0.033s0.014-0.049 0.002-0.071l-0.046-0.085c0.134 0.045 0.332 0.081 0.605 0.054 0.026-0.003 0.048-0.019 0.058-0.043s0.006-0.052-0.011-0.072l-0.108-0.132c0.222-0.037 0.678-0.144 0.966-0.423-0.047 0.13-0.125 0.265-0.252 0.339-0.018 0.010-0.030 0.028-0.034 0.048s0.002 0.041 0.014 0.057c0.002 0.003 0.232 0.302 0.16 1.083-0.131-0.067-0.383-0.227-0.525-0.516-0.015-0.031-0.049-0.046-0.083-0.037s-0.054 0.041-0.051 0.075c0.009 0.092 0.017 0.239 0.009 0.342-0.077-0.055-0.184-0.145-0.228-0.242-0.012-0.028-0.041-0.045-0.071-0.041s-0.055 0.025-0.062 0.054c-0.018 0.077-0.042 0.166-0.061 0.227-0.070-0.044-0.164-0.114-0.203-0.186-0.015-0.028-0.047-0.042-0.078-0.035s-0.053 0.033-0.055 0.065c-0.005 0.082-0.015 0.208-0.029 0.296-0.065-0.040-0.157-0.1-0.224-0.161-0.018-0.017-0.044-0.023-0.068-0.015s-0.042 0.026-0.048 0.050l-0.036 0.138c-0.061-0.035-0.145-0.092-0.2-0.159-0.025-0.030-0.069-0.035-0.1-0.010s-0.035 0.069-0.010 0.1c0.115 0.141 0.318 0.234 0.326 0.238 0.019 0.009 0.041 0.008 0.060-0.001s0.033-0.026 0.038-0.046l0.031-0.118c0.115 0.085 0.238 0.153 0.244 0.156 0.018 0.010 0.039 0.011 0.058 0.005s0.034-0.022 0.042-0.040c0.021-0.052 0.035-0.158 0.045-0.253 0.097 0.084 0.205 0.139 0.212 0.142 0.033 0.017 0.073 0.005 0.092-0.027 0.020-0.033 0.044-0.108 0.064-0.18 0.115 0.129 0.269 0.218 0.277 0.223 0.018 0.010 0.039 0.012 0.059 0.005s0.035-0.022 0.042-0.041c0.021-0.056 0.029-0.145 0.029-0.232 0.135 0.165 0.291 0.27 0.401 0.33 0 0.002-0.001 0.003-0.001 0.005 0.001 0.012 0.016 0.249 0.057 0.438-0.119-0.044-0.31-0.134-0.486-0.3-0.017-0.016-0.041-0.023-0.064-0.018s-0.042 0.021-0.051 0.043l-0.055 0.134-0.228-0.165c-0.020-0.014-0.047-0.018-0.070-0.008s-0.039 0.031-0.042 0.056l-0.021 0.158c-0.049-0.036-0.109-0.083-0.151-0.131-0.026-0.029-0.071-0.032-0.1-0.006s-0.032 0.071-0.006 0.1c0.1 0.113 0.269 0.216 0.276 0.22 0.021 0.013 0.046 0.014 0.067 0.003s0.037-0.031 0.040-0.055l0.020-0.153 0.205 0.148c0.017 0.013 0.040 0.017 0.061 0.011s0.038-0.021 0.046-0.041l0.051-0.126c0.131 0.108 0.261 0.178 0.367 0.225 0.001 0.044 0.007 0.232 0.087 0.38-0.13-0.003-0.333-0.026-0.521-0.12-0.032-0.016-0.071-0.006-0.091 0.025l-0.103 0.158-0.424-0.285c-0.018-0.012-0.041-0.016-0.061-0.008s-0.037 0.023-0.045 0.043l-0.065 0.178c-0.078-0.088-0.19-0.211-0.231-0.244-0.029-0.023-0.071-0.020-0.096 0.007-0.001 0.001-0.1 0.107-0.219 0.19l-0.082-0.22c-0.014-0.037-0.055-0.055-0.091-0.042s-0.055 0.055-0.042 0.091l0.112 0.301c0.007 0.019 0.023 0.035 0.042 0.042s0.041 0.006 0.059-0.005c0.111-0.062 0.215-0.153 0.274-0.21 0.066 0.068 0.176 0.191 0.246 0.272 0.017 0.019 0.042 0.028 0.066 0.023s0.045-0.022 0.054-0.045l0.075-0.205 0.409 0.274c0.012 0.008 0.026 0.012 0.039 0.012 0.005 0 0.009-0 0.014-0.002 0.019-0.004 0.035-0.015 0.045-0.031l0.108-0.167c0.182 0.079 0.364 0.102 0.494 0.107-0.001 0.017 0.004 0.034 0.015 0.048 0.017 0.021 0.052 0.063 0.095 0.106l-0.177 0.003c-0.020 0-0.038 0.009-0.052 0.024s-0.020 0.034-0.018 0.054l0.026 0.277c-0.098-0.022-0.253-0.065-0.354-0.131-0.023-0.015-0.053-0.016-0.077-0.001l-0.309 0.195-0.159-0.431c-0.010-0.027-0.034-0.045-0.063-0.046-0.031-0.002-0.055 0.014-0.067 0.039l-0.174 0.348-0.122-0.194c-0.013-0.020-0.034-0.033-0.058-0.033-0.024 0-0.046 0.011-0.060 0.030-0.001 0.002-0.1 0.141-0.213 0.245l-0.081-0.255c-0.008-0.026-0.030-0.045-0.057-0.049s-0.053 0.008-0.069 0.030c-0.001 0.002-0.088 0.128-0.199 0.245l-0.020-0.316c-0.002-0.024-0.015-0.046-0.036-0.057s-0.047-0.012-0.068-0.001c-0.030 0.016-0.087 0.046-0.146 0.075 0.083-0.173 0.178-0.416 0.124-0.541-0.016-0.037-0.046-0.062-0.082-0.078-0.002-0.002-0.004-0.004-0.006-0.005s-0.007-0.002-0.010-0.003c-0.002-0.001-0.004-0.003-0.006-0.003s-0.005-0.001-0.008-0.001c-0.002-0-0.003-0-0.004-0.001-0.096-0.020-0.161 0.007-0.199 0.034s-0.064 0.066-0.081 0.102c-0.044-0.043-0.097-0.106-0.131-0.188-0.011-0.026-0.036-0.043-0.064-0.043-0.028-0.002-0.054 0.016-0.066 0.042zM17.388 14.067c0.383 0.184 0.853 0.205 0.982 0.207 0.062 0.076 0.122 0.149 0.17 0.207-0.118 0-0.238 0.014-0.333 0.028l0.017-0.021c0.017-0.021 0.020-0.049 0.009-0.073s-0.034-0.040-0.060-0.042c-0.481-0.029-1.010-0.196-1.015-0.197-0-0-0 0-0.001-0s-0-0-0-0c-0.079-0.024-0.125-0.064-0.129-0.114-0.004-0.039 0.018-0.071 0.031-0.078 0.076-0.039 0.237 0.038 0.33 0.084zM18.057 14.107c0.015-0.011 0.027-0.027 0.029-0.046l0.021-0.133c0.042 0.062 0.094 0.13 0.147 0.199-0.055-0.004-0.122-0.010-0.197-0.021zM17.932 14.086c-0.035-0.006-0.070-0.014-0.106-0.022 0.003-0.015 0.001-0.031-0.006-0.046-0.002-0.004-0.004-0.008-0.006-0.013 0.045 0.037 0.086 0.063 0.118 0.081zM18.866 13.314c-0.032 0.032-0.089 0.056-0.142 0.021-0.040-0.027-0.049-0.074-0.044-0.109 0.004-0.027 0.020-0.062 0.051-0.071 0.006-0.002 0.013-0.003 0.020-0.003 0.034 0 0.082 0.018 0.138 0.043l0 0c0.036 0.057-0.013 0.109-0.023 0.119zM21.558 14.373c0.020 0.013 0.046 0.014 0.068 0.004s0.037-0.031 0.040-0.055c0.012-0.089 0.034-0.144 0.065-0.162 0.056-0.034 0.193 0.018 0.351 0.078 0.12 0.046 0.27 0.102 0.441 0.144 0.446 0.109 0.97 0.015 1.432-0.067 0.156-0.028 0.307-0.055 0.447-0.073 0.292-0.037 0.591 0.085 0.665 0.273 0.056 0.142-0.030 0.306-0.244 0.461-0.592 0.43-3.426 0.239-3.715 0.219-0.077-0.073-0.107-0.223-0.116-0.322 0.047 0.015 0.078 0.022 0.082 0.023s0.010 0.002 0.015 0.002c0.020 0 0.040-0.009 0.054-0.024 0.017-0.020 0.022-0.047 0.013-0.071-0.044-0.12-0.068-0.343-0.079-0.457 0.019 0.005 0.038 0.003 0.055-0.007 0.018-0.011 0.031-0.031 0.033-0.052 0.084-0.711-0.062-1.082-0.139-1.221 0.019-0.014 0.036-0.030 0.053-0.045 0.005 0.336 0.2 0.607 0.28 0.703-0.142 0.322 0.064 0.564 0.2 0.65z"></path>
<path fill="#ffd250" d="M14.456 10.728c-0.027-0.57-0.163-1.493-0.596-1.514-0.244-0.011-0.364 0.139-0.369 0.145-0.014 0.018-0.038 0.029-0.060 0.028l-0.165-0.010 0.030 0.11c0.007 0.027-0.002 0.055-0.023 0.073-0.010 0.008-0.244 0.212-0.102 0.47 0.108 0.197 0.459 0.29 0.715 0.358 0.114 0.030 0.213 0.057 0.277 0.088 0.114 0.056 0.214 0.15 0.294 0.252z"></path>
<path fill="#464655" d="M13.867 9.072c-0.249-0.012-0.404 0.112-0.462 0.171l-0.229-0.014c-0.022-0.002-0.045 0.008-0.059 0.026s-0.019 0.041-0.014 0.063l0.044 0.164c-0.113 0.115-0.245 0.353-0.101 0.615 0.138 0.25 0.522 0.352 0.802 0.427 0.107 0.028 0.2 0.053 0.251 0.078 0.166 0.081 0.299 0.266 0.368 0.411 0.012 0.025 0.037 0.040 0.064 0.040 0.005 0 0.010-0.001 0.015-0.002 0.032-0.007 0.055-0.035 0.056-0.068 0.001-0.077 0.010-1.876-0.736-1.912zM13.885 10.388c-0.256-0.068-0.606-0.161-0.715-0.358-0.142-0.259 0.092-0.462 0.102-0.47 0.021-0.018 0.030-0.046 0.023-0.073l-0.030-0.11 0.165 0.010c0.023 0.001 0.046-0.009 0.060-0.028 0.005-0.007 0.125-0.157 0.369-0.145 0.433 0.021 0.568 0.944 0.596 1.514-0.080-0.102-0.18-0.196-0.294-0.252-0.064-0.031-0.163-0.058-0.277-0.088z"></path>
<path fill="#ffd250" d="M26.291 10.728c0.027-0.57 0.163-1.493 0.596-1.514 0.244-0.011 0.364 0.139 0.369 0.145 0.014 0.018 0.038 0.029 0.060 0.028l0.165-0.010-0.030 0.11c-0.007 0.027 0.002 0.055 0.023 0.073 0.010 0.008 0.244 0.212 0.102 0.47-0.108 0.197-0.459 0.29-0.715 0.358-0.114 0.030-0.213 0.057-0.277 0.088-0.114 0.056-0.214 0.15-0.294 0.252z"></path>
<path fill="#464655" d="M26.144 10.985c0 0.033 0.023 0.061 0.055 0.068 0.005 0.001 0.010 0.002 0.015 0.002 0.027 0 0.052-0.015 0.064-0.040 0.069-0.146 0.203-0.33 0.368-0.411 0.052-0.025 0.144-0.050 0.251-0.078 0.281-0.075 0.665-0.177 0.802-0.427 0.144-0.262 0.012-0.501-0.101-0.615l0.044-0.164c0.006-0.022 0.001-0.046-0.014-0.063s-0.037-0.028-0.059-0.026l-0.229 0.014c-0.058-0.059-0.213-0.183-0.462-0.171-0.746 0.037-0.737 1.836-0.736 1.912zM26.585 10.476c-0.114 0.056-0.214 0.15-0.294 0.252 0.027-0.57 0.163-1.493 0.596-1.514 0.244-0.011 0.364 0.139 0.369 0.145 0.014 0.018 0.038 0.029 0.060 0.028l0.165-0.010-0.030 0.11c-0.007 0.027 0.002 0.055 0.023 0.073 0.010 0.008 0.244 0.212 0.102 0.47-0.108 0.197-0.459 0.29-0.715 0.358-0.114 0.030-0.213 0.057-0.277 0.088z"></path>
<path fill="#ffd250" d="M26.291 21.272c0.027 0.57 0.163 1.493 0.596 1.514 0.244 0.011 0.364-0.139 0.369-0.145 0.014-0.018 0.038-0.029 0.060-0.028l0.165 0.010-0.030-0.11c-0.007-0.026 0.002-0.055 0.023-0.073 0.010-0.009 0.244-0.212 0.102-0.47-0.108-0.197-0.459-0.29-0.715-0.358-0.114-0.030-0.213-0.057-0.277-0.088-0.114-0.056-0.214-0.15-0.294-0.252z"></path>
<path fill="#464655" d="M26.88 22.928c0.249 0.012 0.404-0.112 0.462-0.171l0.229 0.014c0.022 0.002 0.045-0.008 0.059-0.026s0.019-0.041 0.014-0.063l-0.044-0.163c0.113-0.115 0.245-0.353 0.101-0.615-0.138-0.25-0.522-0.352-0.802-0.427-0.107-0.029-0.2-0.053-0.251-0.078-0.166-0.081-0.299-0.266-0.368-0.411-0.012-0.025-0.037-0.040-0.064-0.040-0.005 0-0.010 0.001-0.015 0.002-0.032 0.007-0.055 0.035-0.056 0.068-0.001 0.077-0.010 1.876 0.736 1.912zM26.862 21.612c0.256 0.068 0.606 0.161 0.715 0.358 0.142 0.259-0.092 0.462-0.102 0.47-0.021 0.018-0.030 0.046-0.023 0.073l0.030 0.11-0.165-0.010c-0.023-0.001-0.046 0.009-0.060 0.028-0.005 0.006-0.125 0.157-0.369 0.145-0.433-0.021-0.568-0.944-0.596-1.514 0.080 0.102 0.18 0.196 0.294 0.252 0.064 0.031 0.163 0.058 0.277 0.088z"></path>
<path fill="#ffd250" d="M14.456 21.272c-0.027 0.57-0.163 1.493-0.596 1.514-0.244 0.011-0.364-0.139-0.369-0.145-0.014-0.018-0.038-0.029-0.060-0.028l-0.165 0.010 0.030-0.11c0.007-0.026-0.002-0.055-0.023-0.073-0.010-0.009-0.244-0.212-0.102-0.47 0.108-0.197 0.459-0.29 0.715-0.358 0.114-0.030 0.213-0.057 0.277-0.088 0.114-0.056 0.214-0.15 0.294-0.252z"></path>
<path fill="#464655" d="M14.603 21.015c-0-0.033-0.023-0.061-0.056-0.068-0.005-0.001-0.010-0.002-0.015-0.002-0.027 0-0.052 0.015-0.064 0.040-0.069 0.146-0.203 0.33-0.368 0.411-0.052 0.025-0.144 0.050-0.251 0.078-0.281 0.075-0.665 0.177-0.802 0.427-0.144 0.262-0.012 0.5 0.101 0.615l-0.044 0.163c-0.006 0.022-0.001 0.046 0.014 0.063s0.037 0.028 0.059 0.026l0.229-0.014c0.058 0.059 0.213 0.183 0.462 0.171 0.746-0.036 0.737-1.836 0.736-1.912zM14.162 21.524c0.114-0.056 0.214-0.15 0.294-0.252-0.027 0.57-0.163 1.493-0.596 1.514-0.244 0.011-0.364-0.139-0.369-0.145-0.014-0.018-0.038-0.029-0.060-0.028l-0.165 0.010 0.030-0.11c0.007-0.026-0.002-0.055-0.023-0.073-0.010-0.009-0.244-0.212-0.102-0.47 0.108-0.197 0.459-0.29 0.715-0.358 0.114-0.030 0.213-0.057 0.277-0.088z"></path>
</svg>
