<svg xmlns="http://www.w3.org/2000/svg" width="32" height="32" version="1.1" viewBox="0 0 32 32"><title>st-barts</title><path fill="#f5f5f5" d="M30.152 18.546l-0.001-5.093-0-1.698-0-2.655c-0-0.725-0.357-1.399-0.946-1.809-0.051-0.035-0.103-0.069-0.157-0.101l-11.948-6.895c-0.682-0.394-1.523-0.394-2.205 0l-11.945 6.899c-0.053 0.030-0.103 0.063-0.152 0.098-0.592 0.41-0.95 1.085-0.95 1.813l0 2.651 0 1.698 0.001 5.093 0 1.698 0 2.655c0 0.725 0.357 1.399 0.946 1.809 0.051 0.035 0.103 0.069 0.157 0.101l11.948 6.895c0.682 0.394 1.523 0.394 2.205-0l11.945-6.899c0.053-0.030 0.103-0.063 0.152-0.098 0.592-0.41 0.95-1.085 0.95-1.813l-0-2.651-0-1.698z"/><path fill="#ffecd7" d="M12.911 20.357c-1.335-0.305-2.526-0.994-3.447-1.947v2.038c1.005 0.733 2.178 1.247 3.447 1.482v-1.572z"/><path fill="#ffecd7" d="M19.085 20.357c1.335-0.305 2.526-0.994 3.447-1.947v2.038c-1.005 0.733-2.178 1.247-3.447 1.482v-1.572z"/><path fill="#ffe15a" d="M12.32 15.941c-0.064 0.013-0.154 0.18-0.18 0.463s-0.206 1.479-0.592 1.351c-0.386-0.129-0.643-0.695-0.643-0.695l-0.54 0.785c0 0 0.36-0.142 0.733 0.026s0.463 0.257 0.566 0.154c0.103-0.103 0.347-0.412 0.54-0.386l0.219-1.556-0.103-0.141z"/><path fill="#ffe15a" d="M10.184 18.5c0 0-0.090 0.746-0.039 0.836s1.466 0.424 1.466 0.424-0.412 0.334-0.425 0.515c0 0-0.502 0.090-0.682 0.244l-0.669-1.106-0.026-0.913 0.373-0z"/><path fill="#ffecd7" d="M9.737 11.715l0.010-0.386c0 0-0.453-0.048-0.511 0.974l-0.164-0.453c0 0-0.338 0.453-0.135 1.187l-0.087 0.068c0 0-0.444-0.588-0.714-1.351 0 0-0.453 0.357 0.077 1.37l-0.656-0.83c0 0-0.328 0.695 0.656 1.524l-0.926-0.656c0 0-0.058 0.752 0.839 1.235l-0.897-0.482c0 0 0.029 0.724 1.071 1.081l-0.984-0.183c0 0 0.249 0.592 0.977 0.751-0.153 0.171-0.294 0.4-0.33 0.696l0.733-0.405c0 0-0.347 0.357-0.251 0.849l1.129-1.129-0.154-0.069c0.854-0.16 0.675-0.22 0.675-0.22s-0.63-1.621-0.206-2.74 0.797-1.273 0.797-1.325c0-0.051-0.457-0.113-0.949 0.495z"/><path fill="#ffe15a" d="M10.609 12.365c0 0 1.466 1.544 1.492 1.685s-0.154 0.116-0.154 0.116-0.36-0.463-0.849-0.643c-0.489-0.18-0.81-0.746-1.003-0.875s0.515-0.283 0.515-0.283z"/><path fill="#fff5e1" d="M10.12 12.738c0.193 0.064 0.63-0.026 0.617-0.425s-0.412-0.553-0.707-0.463c-0.296 0.090-0.849 0.502-0.502 1.299s0.862 1.093 0.965 1.775c0 0-0.463 0.071-0.707 0.013-0.21-0.050-0.566-0.219-0.489-0.682s0.257-0.733 0.103-0.99c-0.154-0.257-0.643-0.707-0.643-0.707s-1.055 2.701 0.849 3.409c0 0-0.9 0.862-1.351 1.698l0.27 0.077c0 0-0.476 0.515-0.746 0.707 0 0 0.888 0.309 1.762-0.695 0 0 0.219 0.36 0.27 0.746h0.373c0 0 0.129-0.617 0.72-1.132s1.192-1.248 1.132-1.917c-0.071-0.785-0.662-1.138-1.277-1.624-0.83-0.656-0.64-1.090-0.64-1.090z"/><path fill="#ffe15a" d="M19.68 15.941c0.064 0.013 0.154 0.18 0.18 0.463s0.206 1.479 0.592 1.351c0.386-0.129 0.643-0.695 0.643-0.695l0.54 0.785c0 0-0.36-0.142-0.733 0.026s-0.463 0.257-0.566 0.154c-0.103-0.103-0.347-0.412-0.54-0.386l-0.219-1.556 0.103-0.141z"/><path fill="#ffe15a" d="M21.816 18.5c0 0 0.090 0.746 0.039 0.836s-1.466 0.424-1.466 0.424 0.412 0.334 0.424 0.515c0 0 0.502 0.090 0.682 0.244l0.669-1.106 0.026-0.913-0.373-0z"/><path fill="#ffecd7" d="M22.262 11.715l-0.010-0.386c0 0 0.453-0.048 0.511 0.974l0.164-0.453c0 0 0.338 0.453 0.135 1.187l0.087 0.068c0 0 0.444-0.588 0.714-1.351 0 0 0.453 0.357-0.077 1.37l0.656-0.83c0 0 0.328 0.695-0.656 1.524l0.926-0.656c0 0 0.058 0.752-0.839 1.235l0.897-0.482c0 0-0.029 0.724-1.071 1.081l0.984-0.183c0 0-0.249 0.592-0.977 0.751 0.153 0.171 0.294 0.4 0.33 0.696l-0.733-0.405c0 0 0.347 0.357 0.251 0.849l-1.129-1.129 0.154-0.069c-0.854-0.16-0.675-0.22-0.675-0.22s0.63-1.621 0.206-2.74-0.797-1.273-0.797-1.325c0-0.051 0.457-0.113 0.949 0.495z"/><path fill="#ffe15a" d="M21.391 12.365c0 0-1.466 1.544-1.492 1.685s0.154 0.116 0.154 0.116 0.36-0.463 0.849-0.643c0.489-0.18 0.81-0.746 1.003-0.875s-0.515-0.283-0.515-0.283z"/><path fill="#fff5e1" d="M21.88 12.738c-0.193 0.064-0.63-0.026-0.617-0.425s0.412-0.553 0.707-0.463c0.296 0.090 0.849 0.502 0.502 1.299s-0.862 1.093-0.965 1.775c0 0 0.463 0.071 0.707 0.013 0.21-0.050 0.566-0.219 0.489-0.682s-0.257-0.733-0.103-0.99 0.643-0.707 0.643-0.707 1.055 2.701-0.849 3.409c0 0 0.9 0.862 1.351 1.698l-0.27 0.077c0 0 0.476 0.515 0.746 0.707 0 0-0.888 0.309-1.762-0.695 0 0-0.219 0.36-0.27 0.746h-0.373c0 0-0.129-0.617-0.72-1.132s-1.192-1.248-1.132-1.917c0.071-0.785 0.662-1.138 1.277-1.624 0.83-0.656 0.64-1.090 0.64-1.090z"/><path fill="#464655" d="M12.294 10.127h7.409v1.492h-7.409v-1.492z"/><path fill="#41479b" d="M15.998 11.31h-3.705c0 0 0 4.013 0 4.939s0.617 3.396 3.705 4.322c3.087-0.926 3.705-3.396 3.705-4.322s0-4.939 0-4.939h-3.705z"/><path fill="#ff4b55" d="M12.294 16.249c0 0.23 0.038 0.554 0.142 0.926h7.124c0.104-0.372 0.142-0.697 0.142-0.926v-1.852h-7.409v1.852z"/><path fill="#f5f5f5" d="M15.998 15.786l-0.432 1.080 0.432-0.216 0.432 0.216z"/><path fill="#f5f5f5" d="M15.998 15.786l0.432-1.081-0.432 0.216-0.432-0.216z"/><path fill="#f5f5f5" d="M15.998 15.786l-1.080-0.432 0.216 0.432-0.216 0.432z"/><path fill="#f5f5f5" d="M15.998 15.786l1.081 0.432-0.216-0.432 0.216-0.432z"/><path fill="#ffe15a" d="M16.484 12.402c-0.072 0.012-0.135 0.021-0.193 0.051 0.065-0.163 0.111-0.315 0.070-0.422-0.099-0.261-0.288-0.214-0.361-0.405v-0.007c-0.001 0.001-0.001 0.002-0.002 0.004-0.001-0.001-0.001-0.002-0.002-0.004v0.007c-0.073 0.19-0.263 0.144-0.361 0.405-0.040 0.107 0.005 0.259 0.070 0.422-0.057-0.030-0.121-0.039-0.193-0.051-0.147-0.024-0.371 0.13-0.324 0.424s0.389 0.318 0.389 0.318c-0.047-0.047-0.088-0.124-0.065-0.206s0.194-0.153 0.283 0.124-0.212 0.671-0.212 0.671c0.103-0.005 0.178-0.037 0.232-0.070-0.071 0.232 0.162 0.412 0.181 0.426v0.003l0.002-0.001c0 0 0.002 0.001 0.002 0.001v-0.003c0.019-0.014 0.252-0.194 0.181-0.426 0.054 0.033 0.129 0.064 0.232 0.070 0 0-0.3-0.394-0.212-0.671s0.259-0.206 0.282-0.124c0.023 0.082-0.018 0.159-0.065 0.206 0 0 0.341-0.024 0.389-0.318s-0.176-0.447-0.324-0.424z"/><path fill="#ffe15a" d="M18.755 12.402c-0.072 0.012-0.135 0.021-0.193 0.051 0.065-0.163 0.111-0.315 0.070-0.422-0.099-0.261-0.288-0.214-0.361-0.405v-0.007c-0 0.001-0.001 0.002-0.002 0.004-0.001-0.001-0.001-0.002-0.002-0.004v0.007c-0.073 0.19-0.263 0.144-0.361 0.405-0.040 0.107 0.005 0.259 0.070 0.422-0.057-0.030-0.121-0.039-0.193-0.051-0.147-0.024-0.371 0.13-0.324 0.424s0.389 0.318 0.389 0.318c-0.047-0.047-0.088-0.124-0.065-0.206s0.194-0.153 0.282 0.124-0.212 0.671-0.212 0.671c0.103-0.005 0.178-0.037 0.232-0.070-0.071 0.232 0.162 0.412 0.181 0.426v0.003l0.002-0.001c0 0 0.002 0.001 0.002 0.001v-0.003c0.019-0.014 0.252-0.194 0.181-0.426 0.054 0.033 0.129 0.064 0.232 0.070 0 0-0.3-0.394-0.212-0.671s0.259-0.206 0.282-0.124c0.023 0.082-0.018 0.159-0.065 0.206 0 0 0.341-0.024 0.389-0.318s-0.176-0.447-0.324-0.424z"/><path fill="#ffe15a" d="M14.212 12.402c-0.072 0.012-0.135 0.021-0.193 0.051 0.065-0.163 0.111-0.315 0.070-0.422-0.099-0.261-0.288-0.214-0.361-0.405v-0.007c-0.001 0.001-0.001 0.002-0.002 0.004-0-0.001-0.001-0.002-0.002-0.004v0.007c-0.073 0.19-0.263 0.144-0.361 0.405-0.040 0.107 0.005 0.259 0.070 0.422-0.057-0.030-0.121-0.039-0.193-0.051-0.147-0.024-0.371 0.13-0.324 0.424s0.389 0.318 0.389 0.318c-0.047-0.047-0.088-0.124-0.065-0.206s0.194-0.153 0.283 0.124-0.212 0.671-0.212 0.671c0.103-0.005 0.178-0.037 0.232-0.070-0.071 0.232 0.162 0.412 0.181 0.426v0.003l0.002-0.001c0 0 0.002 0.001 0.002 0.001v-0.003c0.019-0.014 0.252-0.194 0.181-0.426 0.054 0.033 0.129 0.064 0.232 0.070 0 0-0.3-0.394-0.212-0.671s0.259-0.206 0.283-0.124c0.024 0.082-0.018 0.159-0.065 0.206 0 0 0.341-0.024 0.389-0.318s-0.176-0.447-0.323-0.424z"/><path fill="#ffe15a" d="M16.723 18.762c0 0-0.165-0.026-0.178 0.14 0 0 0 0.019-0.001 0.045-0.020-0.010-0.043-0.016-0.067-0.016-0.087 0-0.158 0.071-0.158 0.158s0.071 0.158 0.158 0.158c0.007 0 0.013-0.003 0.020-0.004-0.023 0.075-0.061 0.144-0.113 0.193h-0.211c-0.055-0.061-0.072-0.182-0.076-0.269 0.003 0 0.006 0.003 0.009 0.003 0.072 0 0.13-0.058 0.13-0.13s-0.057-0.128-0.127-0.129c0.011-0.019 0.019-0.040 0.019-0.064 0-0.072-0.058-0.13-0.13-0.13s-0.13 0.058-0.13 0.13c0 0.024 0.008 0.045 0.019 0.064-0.070 0.001-0.127 0.058-0.127 0.129s0.058 0.13 0.13 0.13c0.004 0 0.006-0.002 0.009-0.003-0.004 0.087-0.020 0.207-0.076 0.269h-0.211c-0.053-0.049-0.090-0.118-0.113-0.193 0.007 0.001 0.013 0.004 0.020 0.004 0.087 0 0.158-0.071 0.158-0.158s-0.071-0.158-0.158-0.158c-0.024 0-0.046 0.006-0.067 0.016-0.001-0.026-0.001-0.045-0.001-0.045-0.013-0.166-0.178-0.14-0.178-0.14 0.103 0.313 0.076 0.675 0.076 0.675v0.318h1.296v-0.318l0.002-0.001c0 0-0.027-0.362 0.076-0.675z"/><path fill="#ffe15a" d="M15.208 17.527c0 0-0.165-0.026-0.178 0.14 0 0 0 0.019-0.001 0.045-0.020-0.010-0.043-0.016-0.067-0.016-0.087 0-0.158 0.071-0.158 0.158s0.071 0.158 0.158 0.158c0.007 0 0.013-0.003 0.020-0.004-0.024 0.075-0.061 0.144-0.113 0.193h-0.211c-0.055-0.061-0.072-0.182-0.076-0.269 0.003 0 0.006 0.003 0.009 0.003 0.072 0 0.13-0.058 0.13-0.13s-0.057-0.128-0.127-0.129c0.011-0.019 0.019-0.040 0.019-0.064 0-0.072-0.058-0.13-0.13-0.13s-0.13 0.058-0.13 0.13c0 0.024 0.008 0.045 0.019 0.064-0.070 0.001-0.127 0.058-0.127 0.129s0.058 0.13 0.13 0.13c0.004 0 0.006-0.002 0.009-0.003-0.004 0.087-0.020 0.207-0.076 0.269h-0.211c-0.053-0.049-0.090-0.118-0.113-0.193 0.007 0.001 0.013 0.004 0.020 0.004 0.087 0 0.158-0.071 0.158-0.158s-0.071-0.158-0.158-0.158c-0.024 0-0.046 0.006-0.067 0.016-0.001-0.026-0.001-0.045-0.001-0.045-0.013-0.166-0.178-0.14-0.178-0.14 0.103 0.313 0.076 0.675 0.076 0.675v0.318h1.296v-0.318l0.002-0.001c0 0-0.027-0.362 0.076-0.675z"/><path fill="#ffe15a" d="M18.237 17.527c0 0-0.165-0.026-0.178 0.14 0 0 0 0.019-0.001 0.045-0.020-0.010-0.043-0.016-0.067-0.016-0.087 0-0.158 0.071-0.158 0.158s0.071 0.158 0.158 0.158c0.007 0 0.013-0.003 0.020-0.004-0.023 0.075-0.061 0.144-0.113 0.193h-0.211c-0.055-0.061-0.072-0.182-0.076-0.269 0.003 0 0.006 0.003 0.009 0.003 0.072 0 0.13-0.058 0.13-0.13s-0.057-0.128-0.127-0.129c0.011-0.019 0.019-0.040 0.019-0.064 0-0.072-0.058-0.13-0.13-0.13s-0.13 0.058-0.13 0.13c0 0.024 0.008 0.045 0.019 0.064-0.070 0.001-0.127 0.058-0.127 0.129s0.058 0.13 0.13 0.13c0.003 0 0.006-0.002 0.009-0.003-0.004 0.087-0.020 0.207-0.076 0.269h-0.211c-0.052-0.049-0.090-0.118-0.113-0.193 0.007 0.001 0.013 0.004 0.020 0.004 0.087 0 0.158-0.071 0.158-0.158s-0.071-0.158-0.158-0.158c-0.024 0-0.046 0.006-0.067 0.016-0.001-0.026-0.001-0.045-0.001-0.045-0.013-0.166-0.178-0.14-0.178-0.14 0.103 0.313 0.076 0.675 0.076 0.675v0.318h1.296v-0.318l0.002-0.001c0 0-0.027-0.362 0.076-0.675z"/><path fill="#ffe15a" d="M20.793 9.417c-0.178-0.070-0.357-0.137-0.536-0.199-0.050 0.146-0.101 0.292-0.151 0.438-0.087-0.030-0.174-0.059-0.261-0.087 0.047-0.147 0.094-0.294 0.141-0.441-0.181-0.058-0.363-0.113-0.545-0.163-0.041 0.149-0.081 0.298-0.122 0.447-0.088-0.024-0.176-0.047-0.265-0.070 0.037-0.15 0.075-0.299 0.112-0.449-0.183-0.046-0.368-0.088-0.552-0.126-0.062 0.302-0.124 0.605-0.185 0.907 0.114 0.024 0.229 0.049 0.343 0.076-0.023 0.1-0.047 0.2-0.070 0.301-0.666-0.157-1.343-0.256-2.022-0.295 0.006-0.103 0.012-0.206 0.018-0.308 0.116 0.007 0.232 0.015 0.348 0.025 0.027-0.307 0.053-0.615 0.080-0.923-0.187-0.016-0.375-0.028-0.562-0.037-0.007 0.154-0.013 0.308-0.020 0.463-0.090-0.004-0.181-0.007-0.272-0.009 0.003-0.154 0.007-0.309 0.010-0.463-0.188-0.004-0.376-0.004-0.563 0 0.003 0.154 0.007 0.309 0.010 0.463-0.091 0.002-0.181 0.005-0.272 0.009-0.007-0.154-0.013-0.308-0.020-0.463-0.188 0.008-0.375 0.020-0.562 0.037 0.027 0.308 0.053 0.615 0.080 0.923 0.116-0.010 0.232-0.018 0.348-0.025 0.006 0.103 0.012 0.206 0.018 0.308-0.679 0.039-1.356 0.138-2.022 0.295-0.024-0.1-0.047-0.2-0.070-0.301 0.114-0.027 0.228-0.052 0.343-0.076-0.062-0.302-0.124-0.605-0.185-0.907-0.185 0.038-0.369 0.080-0.553 0.126 0.037 0.15 0.075 0.299 0.112 0.449-0.088 0.022-0.177 0.045-0.265 0.070-0.041-0.149-0.081-0.298-0.122-0.447-0.183 0.050-0.364 0.104-0.545 0.163 0.047 0.147 0.094 0.294 0.141 0.441-0.087 0.028-0.174 0.057-0.261 0.087-0.050-0.146-0.101-0.292-0.151-0.438-0.18 0.062-0.359 0.129-0.536 0.199 0.113 0.287 0.227 0.574 0.34 0.861 0.11-0.044 0.221-0.086 0.332-0.126 0.14 0.387 0.28 0.774 0.419 1.161 0.299-0.109 0.602-0.204 0.907-0.285 0.102-0.027 0.204-0.053 0.306-0.077 0.614-0.145 1.238-0.236 1.864-0.272 0.417-0.024 0.836-0.024 1.253 0 0.626 0.036 1.25 0.127 1.864 0.272 0.102 0.024 0.204 0.050 0.306 0.077 0.305 0.082 0.608 0.177 0.907 0.285 0.14-0.387 0.28-0.774 0.419-1.161 0.111 0.040 0.221 0.082 0.332 0.126 0.113-0.287 0.227-0.574 0.34-0.861z"/><path fill="#ffe1cd" d="M15.998 24.121c1.842 0 3.547-0.591 4.939-1.591v-2.020c-1.26 1.276-3.009 2.068-4.939 2.068-1.957 0-3.727-0.815-4.991-2.122v2.038c1.402 1.023 3.127 1.628 4.991 1.628z"/></svg>