<!-- Generated by IcoMoon.io -->
<svg version="1.1" xmlns="http://www.w3.org/2000/svg" width="32" height="32" viewBox="0 0 32 32">
<title>sudan</title>
<path fill="#f5f5f5" d="M30.152 18.547l-0.001-5.093-0-1.698-0-2.655c-0-0.725-0.357-1.399-0.946-1.809-0.051-0.035-0.103-0.069-0.157-0.101l-11.948-6.895c-0.682-0.394-1.523-0.394-2.205 0l-11.945 6.899c-0.053 0.030-0.103 0.063-0.152 0.098-0.592 0.41-0.95 1.085-0.95 1.813l0 2.651 0 1.698 0.001 5.093 0 1.698 0 2.655c0 0.725 0.357 1.399 0.946 1.809 0.051 0.035 0.103 0.069 0.157 0.101l11.948 6.895c0.682 0.394 1.523 0.394 2.205-0l11.945-6.899c0.053-0.030 0.103-0.063 0.152-0.098 0.592-0.41 0.95-1.085 0.95-1.813l-0-2.651-0-1.698z"></path>
<path fill="#ff4b55" d="M30.151 10.61l-0-1.51c-0-0.725-0.357-1.399-0.946-1.809-0.051-0.035-0.103-0.069-0.157-0.101l-11.948-6.895c-0.682-0.394-1.523-0.394-2.205 0l-8.478 4.897 1.773 3.231 2.945 2.186 19.016 0z"></path>
<path fill="#464655" d="M6.415 26.808l8.484 4.896c0.682 0.394 1.523 0.394 2.205-0l11.945-6.899c0.053-0.030 0.103-0.063 0.152-0.098 0.592-0.41 0.95-1.085 0.95-1.813l-0-1.505h-19.018l-2.945 2.108-1.774 3.31z"></path>
<path fill="#73af00" d="M15.446 15.559l-9.030-10.366-3.467 2.002c-0.053 0.030-0.103 0.063-0.152 0.098-0.592 0.41-0.95 1.085-0.95 1.813l0 1.505 0 1.146 0 1.698 0.001 5.093 0 1.698 0 1.146 0 1.51c0 0.725 0.357 1.399 0.946 1.809 0.051 0.035 0.103 0.069 0.157 0.101l3.463 1.999 9.030-10.367c0.196-0.226 0.196-0.657-0-0.882z"></path>
</svg>
