<!-- Generated by IcoMoon.io -->
<svg version="1.1" xmlns="http://www.w3.org/2000/svg" width="32" height="32" viewBox="0 0 32 32">
<title>suriname</title>
<path fill="#f5f5f5" d="M30.105 23.347c0.009-0.044 0.017-0.087 0.023-0.131 0.001-0.007 0.002-0.014 0.003-0.021 0.005-0.040 0.010-0.081 0.013-0.122 0.001-0.010 0.002-0.020 0.003-0.030 0.003-0.049 0.005-0.098 0.005-0.148l-0-2.345-0-0.306-0-1.698-0.001-5.093-0-1.698-0-0.477-0-2.178c0-0.049-0.002-0.098-0.005-0.147-0.001-0.009-0.002-0.019-0.003-0.028-0.003-0.041-0.008-0.081-0.013-0.122-0.001-0.007-0.002-0.013-0.003-0.020-0.006-0.044-0.014-0.088-0.023-0.132-0.001-0.003-0.001-0.005-0.002-0.008-0.010-0.048-0.022-0.095-0.035-0.141v-0c-0.138-0.487-0.44-0.917-0.862-1.211-0.051-0.035-0.103-0.069-0.157-0.101l-11.948-6.895c-0.683-0.394-1.523-0.394-2.205 0l-11.945 6.899c-0.053 0.030-0.103 0.063-0.152 0.098-0.423 0.293-0.726 0.723-0.865 1.21v0c0 0 0 0-0 0-0.013 0.047-0.025 0.094-0.035 0.142-0.001 0.003-0.001 0.006-0.002 0.009-0.009 0.044-0.017 0.088-0.024 0.132-0.001 0.007-0.002 0.014-0.003 0.021-0.006 0.041-0.010 0.081-0.013 0.122-0.001 0.010-0.002 0.019-0.003 0.029-0.003 0.049-0.005 0.098-0.005 0.147 0 0 0 0.001 0 0.001l0 0.869 0 1.435 0 0.346 0 1.698 0.001 5.093 0 1.698 0 0.477 0 2.178c0 0.049 0.002 0.098 0.005 0.147 0.001 0.009 0.002 0.019 0.003 0.029 0.003 0.041 0.008 0.082 0.013 0.122 0.001 0.007 0.002 0.013 0.003 0.020 0.006 0.044 0.014 0.088 0.023 0.132 0.001 0.003 0.001 0.005 0.002 0.008 0.010 0.048 0.022 0.095 0.035 0.141v0c0.138 0.487 0.44 0.917 0.862 1.211 0.051 0.035 0.103 0.069 0.157 0.101l11.948 6.895c0.682 0.394 1.523 0.394 2.205-0l11.945-6.899c0.053-0.030 0.103-0.063 0.152-0.098 0.464-0.321 0.784-0.806 0.9-1.352 0-0.003 0.001-0.006 0.002-0.009z"></path>
<path fill="#73af00" d="M29.204 7.291c-0.051-0.035-0.103-0.069-0.157-0.101l-11.948-6.895c-0.683-0.394-1.523-0.394-2.205 0l-11.945 6.899c-0.053 0.030-0.103 0.063-0.152 0.098-0.423 0.293-0.726 0.723-0.865 1.209h28.135c-0.138-0.487-0.44-0.917-0.862-1.211z"></path>
<path fill="#73af00" d="M2.795 24.709c0.051 0.035 0.103 0.069 0.157 0.101l11.948 6.895c0.682 0.394 1.523 0.394 2.205-0l11.945-6.899c0.053-0.030 0.103-0.063 0.152-0.098 0.423-0.293 0.726-0.723 0.864-1.209h-28.134c0.138 0.487 0.44 0.917 0.862 1.211z"></path>
<path fill="#c8414b" d="M30.153 20.999l-0-0.754-0-1.698-0.001-5.093-0-1.698-0-0.477v-0.132l-0-0.146h-28.304l0 0.754 0 1.698 0.001 5.093 0 1.698 0 0.477v0.277z"></path>
<path fill="#ffe15a" d="M11.963 15.197l2.313 1.708-0.867 2.742c-0.048 0.15 0.124 0.275 0.252 0.183l2.34-1.672 2.34 1.672c0.128 0.092 0.299-0.033 0.252-0.183l-0.867-2.742 2.313-1.708c0.127-0.094 0.061-0.295-0.096-0.296l-2.876-0.022-0.91-2.728c-0.050-0.15-0.261-0.15-0.311 0l-0.91 2.728-2.876 0.022c-0.158 0.001-0.223 0.202-0.096 0.296z"></path>
</svg>
