<!-- Generated by IcoMoon.io -->
<svg version="1.1" xmlns="http://www.w3.org/2000/svg" width="32" height="32" viewBox="0 0 32 32">
<title>swaziland</title>
<path fill="#ffe15a" d="M30.152 18.547l-0.001-5.093-0-1.698-0-2.655c-0-0.725-0.357-1.399-0.946-1.809-0.051-0.035-0.103-0.069-0.157-0.101l-11.947-6.895c-0.682-0.394-1.523-0.394-2.205 0l-11.945 6.899c-0.053 0.030-0.103 0.063-0.152 0.098-0.592 0.41-0.95 1.085-0.95 1.813l0 2.651 0 1.698 0.001 5.093 0 1.698 0 2.655c0 0.725 0.357 1.399 0.946 1.809 0.051 0.035 0.103 0.069 0.157 0.101l11.948 6.895c0.682 0.394 1.523 0.394 2.205-0l11.945-6.899c0.053-0.030 0.103-0.063 0.152-0.098 0.592-0.41 0.95-1.085 0.95-1.813l-0-2.651-0-1.698z"></path>
<path fill="#ff4b55" d="M30.153 22.895l-0-2.651-0-1.698-0.001-5.093-0-1.698-0-2.655c-0-0.204-0.029-0.404-0.083-0.596h-28.136c-0.055 0.193-0.084 0.394-0.084 0.6l0 2.651 0 1.698 0.001 5.093 0 1.698 0 2.655c0 0.204 0.029 0.404 0.083 0.596h28.136c-0.035 0.122 0.091-0.276 0.084-0.6z"></path>
<path fill="#4173cd" d="M3.036 24.858l11.863 6.847c0.682 0.394 1.523 0.394 2.205-0l11.854-6.846h-25.922z"></path>
<path fill="#4173cd" d="M28.963 7.142l-11.863-6.847c-0.682-0.394-1.523-0.394-2.205 0l-11.854 6.846 25.922-0z"></path>
<path fill="#ffe15a" d="M28.529 16.556h-25.084c-0.186 0-0.336-0.15-0.336-0.336v-0.044c0-0.185 0.15-0.336 0.336-0.336h25.084c0.186 0 0.336 0.15 0.336 0.336v0.044c0 0.186-0.15 0.336-0.336 0.336z"></path>
<path fill="#f5f5f5" d="M23.678 15.125l1.252-0.537 1.252 0.537-1.252 0.537z"></path>
<path fill="#ffe15a" d="M23.986 14.897h-18.373c-0.126 0-0.229 0.102-0.229 0.229s0.102 0.229 0.229 0.229h18.373c0.126 0 0.229-0.102 0.229-0.229s-0.102-0.229-0.229-0.229z"></path>
<path fill="#f5f5f5" d="M24.979 13.873l1.252-0.537 1.252 0.537-1.252 0.537z"></path>
<path fill="#ffe15a" d="M25.287 13.645h-18.373c-0.126 0-0.229 0.102-0.229 0.229s0.102 0.229 0.229 0.229h18.373c0.126 0 0.229-0.102 0.229-0.229s-0.102-0.229-0.229-0.229z"></path>
<path fill="#f5f5f5" d="M15.987 11.548c-3.177 0-5.949 1.799-7.434 4.471 1.485 2.672 4.257 4.471 7.434 4.471s5.949-1.799 7.434-4.471c-1.485-2.672-4.257-4.471-7.434-4.471z"></path>
<path fill="#464655" d="M8.553 16.019c1.485 2.672 4.257 4.471 7.434 4.471 0.531 0 1.048-0.054 1.552-0.151-0.385-0.844-1.738-0.843-1.82-1.161-0.089-0.343 1.103-0.268 1.312-0.552s-1.133-0.402-1.192-0.686c-0.060-0.283 0.537-0.477 0.641-0.924s0.343-0.581 0.522-0.85c0.179-0.268-0.298-0.358-0.417-1.252s-0.82-1.014-1.163-1.744c-0.343-0.73 0.209-1.267 0.566-1.625-3.177 0-5.949 1.799-7.434 4.471z"></path>
<path fill="#f5f5f5" d="M11.337 14.41h0.358v1.431h-0.358v-1.431z"></path>
<path fill="#f5f5f5" d="M12.052 14.41h0.358v1.431h-0.358v-1.431z"></path>
<path fill="#f5f5f5" d="M12.767 14.41h0.358v1.431h-0.358v-1.431z"></path>
<path fill="#f5f5f5" d="M13.483 14.41h0.358v1.431h-0.358v-1.431z"></path>
<path fill="#f5f5f5" d="M14.199 14.41h0.358v1.431h-0.358v-1.431z"></path>
<path fill="#f5f5f5" d="M14.914 14.41h0.358v1.431h-0.358v-1.431z"></path>
<path fill="#f5f5f5" d="M11.337 16.556h0.358v1.431h-0.358v-1.431z"></path>
<path fill="#f5f5f5" d="M12.052 16.556h0.358v1.431h-0.358v-1.431z"></path>
<path fill="#f5f5f5" d="M12.767 16.556h0.358v1.431h-0.358v-1.431z"></path>
<path fill="#f5f5f5" d="M13.483 16.556h0.358v1.431h-0.358v-1.431z"></path>
<path fill="#f5f5f5" d="M14.199 16.556h0.358v1.431h-0.358v-1.431z"></path>
<path fill="#f5f5f5" d="M14.914 16.556h0.358v1.431h-0.358v-1.431z"></path>
<path fill="#464655" d="M16.702 14.41h0.358v1.431h-0.358v-1.431z"></path>
<path fill="#464655" d="M17.418 14.41h0.358v1.431h-0.358v-1.431z"></path>
<path fill="#464655" d="M18.133 14.41h0.358v1.431h-0.358v-1.431z"></path>
<path fill="#464655" d="M18.849 14.41h0.358v1.431h-0.358v-1.431z"></path>
<path fill="#464655" d="M19.564 14.41h0.358v1.431h-0.358v-1.431z"></path>
<path fill="#464655" d="M20.28 14.41h0.358v1.431h-0.358v-1.431z"></path>
<path fill="#464655" d="M16.702 16.556h0.358v1.431h-0.358v-1.431z"></path>
<path fill="#464655" d="M17.418 16.556h0.358v1.431h-0.358v-1.431z"></path>
<path fill="#464655" d="M18.133 16.556h0.358v1.431h-0.358v-1.431z"></path>
<path fill="#464655" d="M18.849 16.556h0.358v1.431h-0.358v-1.431z"></path>
<path fill="#464655" d="M19.564 16.556h0.358v1.431h-0.358v-1.431z"></path>
<path fill="#464655" d="M20.28 16.556h0.358v1.431h-0.358v-1.431z"></path>
<path fill="#245dbd" d="M27.025 15.785c-0.286 0.665-1.102 0.744-0.65 2.44l0.231-0.235c0 0 0.242 0.639 0.826 1.070 0 0 0.716-0.6 0.771-1.553l0.297 0.131c0 0-0.143-1.736-1.476-1.853z"></path>
<path fill="#ff4b55" d="M28.083 17.148c-0.023 0-0.046-0.011-0.063-0.031-0.281-0.338-0.638-0.447-0.641-0.448-0.047-0.014-0.076-0.070-0.064-0.126s0.060-0.090 0.107-0.076c0.017 0.005 0.408 0.123 0.725 0.505 0.034 0.041 0.034 0.107-0.001 0.148-0.017 0.020-0.040 0.030-0.062 0.030z"></path>
<path fill="#ff4b55" d="M27.881 17.938c-0.026 0-0.052-0.014-0.070-0.041-0.208-0.321-0.444-0.495-0.447-0.497-0.041-0.030-0.054-0.095-0.029-0.144s0.080-0.064 0.121-0.034c0.011 0.008 0.266 0.197 0.494 0.547 0.030 0.046 0.022 0.111-0.016 0.146-0.016 0.015-0.035 0.022-0.054 0.022z"></path>
<path fill="#ff4b55" d="M27.418 18.817c-0.005 0-0.010-0-0.015-0.002-0.048-0.010-0.080-0.064-0.072-0.12 0.035-0.239 0.006-0.631-0.042-0.833-0.013-0.055 0.014-0.113 0.061-0.129s0.096 0.017 0.109 0.073c0.054 0.228 0.085 0.654 0.046 0.924-0.008 0.051-0.045 0.087-0.087 0.087z"></path>
<path fill="#ff4b55" d="M26.798 17.853c-0.025 0-0.050-0.013-0.067-0.037-0.031-0.044-0.027-0.11 0.010-0.147 0.002-0.002 0.227-0.23 0.286-0.546 0.010-0.056 0.057-0.092 0.105-0.079s0.078 0.068 0.067 0.124c-0.072 0.387-0.333 0.65-0.345 0.661-0.017 0.016-0.037 0.025-0.056 0.025z"></path>
<path fill="#ff4b55" d="M26.554 17.185c-0.030 0-0.058-0.018-0.075-0.050-0.025-0.049-0.013-0.113 0.029-0.144 0.003-0.002 0.323-0.238 0.422-0.495 0.020-0.053 0.073-0.076 0.117-0.052s0.064 0.086 0.044 0.138c-0.122 0.315-0.475 0.575-0.49 0.586s-0.030 0.015-0.046 0.015z"></path>
<path fill="#245dbd" d="M4.691 16.009c-0.24 0.556-0.921 0.622-0.543 2.040l0.193-0.196c0 0 0.203 0.535 0.691 0.895 0 0 0.599-0.502 0.645-1.299l0.249 0.109c0 0-0.12-1.451-1.234-1.549z"></path>
<path fill="#ff4b55" d="M5.575 17.149c-0.019 0-0.038-0.009-0.053-0.026-0.235-0.283-0.533-0.374-0.536-0.375-0.039-0.012-0.064-0.059-0.054-0.106s0.050-0.075 0.089-0.064c0.014 0.004 0.341 0.103 0.606 0.422 0.029 0.034 0.028 0.090-0.001 0.123-0.014 0.017-0.033 0.025-0.052 0.025z"></path>
<path fill="#ff4b55" d="M5.406 17.809c-0.022 0-0.044-0.012-0.058-0.034-0.174-0.268-0.371-0.414-0.373-0.415-0.035-0.025-0.045-0.079-0.024-0.12s0.067-0.054 0.101-0.028c0.009 0.006 0.223 0.165 0.413 0.458 0.025 0.038 0.019 0.093-0.013 0.122-0.013 0.012-0.029 0.018-0.045 0.018z"></path>
<path fill="#ff4b55" d="M5.019 18.544c-0.004 0-0.008-0-0.013-0.001-0.040-0.008-0.067-0.053-0.060-0.101 0.029-0.2 0.005-0.527-0.035-0.697-0.011-0.046 0.012-0.094 0.051-0.108s0.080 0.014 0.091 0.061c0.045 0.191 0.071 0.547 0.039 0.773-0.006 0.043-0.037 0.073-0.073 0.073z"></path>
<path fill="#ff4b55" d="M4.501 17.738c-0.021 0-0.042-0.011-0.056-0.031-0.026-0.037-0.022-0.092 0.009-0.123 0.002-0.002 0.19-0.193 0.239-0.457 0.009-0.047 0.048-0.077 0.088-0.066s0.065 0.057 0.056 0.104c-0.060 0.323-0.279 0.544-0.288 0.553-0.014 0.014-0.031 0.020-0.047 0.020z"></path>
<path fill="#ff4b55" d="M4.296 17.179c-0.025 0-0.049-0.015-0.063-0.042-0.021-0.041-0.011-0.095 0.024-0.12 0.003-0.002 0.27-0.199 0.353-0.414 0.017-0.044 0.061-0.064 0.098-0.043s0.053 0.072 0.036 0.116c-0.102 0.264-0.397 0.481-0.41 0.49s-0.025 0.013-0.038 0.013z"></path>
</svg>
