<svg xmlns="http://www.w3.org/2000/svg" width="32" height="32" version="1.1" viewBox="0 0 32 32"><title>sweden</title><path fill="#ffe15a" d="M1.849 22.9l-0.002-13.795c-0-0.788 0.42-1.516 1.102-1.91l11.945-6.899c0.682-0.394 1.523-0.394 2.205-0l11.948 6.895c0.682 0.394 1.103 1.122 1.103 1.91l0.002 13.795c0 0.788-0.42 1.516-1.102 1.91l-11.945 6.899c-0.682 0.394-1.523 0.394-2.205 0l-11.947-6.895c-0.683-0.394-1.103-1.122-1.103-1.91z"/><path fill="#4173cd" d="M30.152 14.126l-0.001-5.025c-0-0.788-0.421-1.516-1.103-1.91l-11.948-6.895c-0.682-0.394-1.523-0.394-2.205 0l-1.327 0.766v13.064l16.584-0z"/><path fill="#4173cd" d="M10.603 2.775l-7.654 4.42c-0.682 0.394-1.103 1.122-1.102 1.91l0.001 5.020h8.755v-11.351h0z"/><path fill="#4173cd" d="M1.848 17.874l0.001 5.025c0 0.788 0.421 1.516 1.103 1.91l7.651 4.415v-11.35h-8.754z"/><path fill="#4173cd" d="M30.152 17.874h-16.584v13.062l1.332 0.769c0.682 0.394 1.523 0.394 2.205-0l11.945-6.899c0.682-0.394 1.102-1.122 1.102-1.91l-0.001-5.020z"/></svg>