<svg xmlns="http://www.w3.org/2000/svg" width="32" height="32" version="1.1" viewBox="0 0 32 32"><title>switzerland</title><path fill="#ff4b55" d="M1.849 22.9l-0.002-13.795c-0-0.788 0.42-1.516 1.102-1.91l11.945-6.899c0.682-0.394 1.523-0.394 2.205-0l11.948 6.895c0.683 0.394 1.103 1.122 1.103 1.91l0.002 13.795c0 0.788-0.42 1.516-1.102 1.91l-11.945 6.899c-0.682 0.394-1.523 0.394-2.205 0l-11.947-6.895c-0.683-0.394-1.103-1.122-1.103-1.91z"/><path fill="#f5f5f5" d="M21.441 14.021h-3.463v-3.463c0-0.273-0.221-0.495-0.495-0.495h-2.968c-0.273 0-0.495 0.222-0.495 0.495v3.463h-3.463c-0.273 0-0.495 0.221-0.495 0.495v2.968c0 0.273 0.221 0.495 0.495 0.495h3.463v3.463c0 0.273 0.221 0.495 0.495 0.495h2.968c0.273 0 0.495-0.221 0.495-0.495v-3.462h3.463c0.273 0 0.495-0.221 0.495-0.495v-2.968c0-0.273-0.221-0.495-0.495-0.495z"/></svg>