<!-- Generated by IcoMoon.io -->
<svg version="1.1" xmlns="http://www.w3.org/2000/svg" width="32" height="32" viewBox="0 0 32 32">
<title>syria</title>
<path fill="#f5f5f5" d="M1.849 22.9l-0.002-13.795c-0-0.788 0.42-1.516 1.102-1.91l11.945-6.899c0.682-0.394 1.523-0.394 2.205-0l11.948 6.895c0.682 0.394 1.103 1.122 1.103 1.91l0.002 13.795c0 0.788-0.42 1.516-1.102 1.91l-11.945 6.899c-0.682 0.394-1.523 0.394-2.205 0l-11.947-6.895c-0.683-0.394-1.103-1.122-1.103-1.91z"></path>
<path fill="#ff4b55" d="M30.151 9.1c-0-0.788-0.421-1.516-1.103-1.91l-11.948-6.895c-0.682-0.394-1.523-0.394-2.205 0l-11.945 6.899c-0.682 0.394-1.103 1.122-1.102 1.91l0 1.505h28.304l-0-1.51z"></path>
<path fill="#464655" d="M1.849 22.9c0 0.788 0.421 1.516 1.103 1.91l11.948 6.895c0.682 0.394 1.523 0.394 2.205-0l11.945-6.899c0.682-0.394 1.102-1.122 1.102-1.91l-0-1.505h-28.304l0 1.51z"></path>
<path fill="#73af00" d="M8.38 13.655l0.529 1.587 1.673 0.013c0.217 0.002 0.306 0.278 0.132 0.407l-1.346 0.994 0.505 1.595c0.065 0.206-0.17 0.377-0.346 0.251l-1.361-0.973-1.361 0.973c-0.176 0.126-0.411-0.045-0.346-0.251l0.505-1.595-1.346-0.994c-0.174-0.129-0.084-0.405 0.132-0.407l1.673-0.013 0.529-1.587c0.069-0.205 0.359-0.205 0.428 0z"></path>
<path fill="#73af00" d="M24.048 13.655l0.529 1.587 1.673 0.013c0.217 0.002 0.306 0.278 0.132 0.407l-1.346 0.994 0.505 1.595c0.065 0.206-0.17 0.377-0.346 0.251l-1.361-0.973-1.361 0.973c-0.176 0.126-0.411-0.045-0.346-0.251l0.505-1.595-1.346-0.994c-0.174-0.129-0.084-0.405 0.132-0.407l1.673-0.013 0.529-1.587c0.069-0.205 0.359-0.205 0.428 0z"></path>
</svg>
