<!-- Generated by IcoMoon.io -->
<svg version="1.1" xmlns="http://www.w3.org/2000/svg" width="32" height="32" viewBox="0 0 32 32">
<title>taiwan</title>
<path fill="#41479b" d="M1.849 22.9l-0.002-13.794c-0-0.788 0.42-1.516 1.102-1.91l11.945-6.899c0.682-0.394 1.523-0.394 2.205-0l11.947 6.895c0.682 0.394 1.103 1.122 1.103 1.91l0.002 13.794c0 0.788-0.42 1.516-1.102 1.91l-11.945 6.899c-0.682 0.394-1.523 0.394-2.205 0l-11.947-6.895c-0.682-0.394-1.103-1.122-1.103-1.91z"></path>
<path fill="#ff4b55" d="M30.15 9.101c-0-0.788-0.421-1.516-1.103-1.91l-11.947-6.895c-0.558-0.323-1.090-0.295-1.1-0.295v15.375c0 0.345-0.28 0.625-0.625 0.625h-13.527l0.001 6.9c0 0.788 0.421 1.516 1.103 1.91l11.947 6.895c0.682 0.394 1.523 0.394 2.205-0l11.945-6.899c0.682-0.394 1.102-1.122 1.102-1.91l-0.002-13.794z"></path>
<path fill="#f5f5f5" d="M6.776 10.065c0-0.629 0.255-1.198 0.667-1.611l-1.909-0.546c-0.111-0.032-0.19 0.106-0.107 0.186l1.429 1.381-1.928 0.482c-0.112 0.028-0.112 0.187 0 0.215l1.928 0.482-1.429 1.381c-0.083 0.080-0.003 0.218 0.107 0.186l1.909-0.546c-0.412-0.412-0.667-0.982-0.667-1.611z"></path>
<path fill="#f5f5f5" d="M7.444 8.453c0.412-0.412 0.982-0.667 1.611-0.667s1.198 0.255 1.611 0.667l0.546-1.909c0.032-0.111-0.106-0.19-0.186-0.107l-1.381 1.429-0.482-1.928c-0.028-0.112-0.187-0.112-0.215 0l-0.482 1.928-1.381-1.429c-0.080-0.083-0.218-0.003-0.186 0.107l0.546 1.909z"></path>
<path fill="#f5f5f5" d="M10.666 11.676c-0.412 0.412-0.982 0.667-1.611 0.667s-1.198-0.255-1.611-0.667l-0.546 1.909c-0.032 0.111 0.106 0.19 0.186 0.107l1.381-1.429 0.482 1.928c0.028 0.112 0.187 0.112 0.215 0l0.482-1.928 1.381 1.429c0.080 0.083 0.218 0.003 0.186-0.107l-0.546-1.909z"></path>
<path fill="#f5f5f5" d="M13.182 9.957l-1.928-0.482 1.429-1.381c0.083-0.080 0.003-0.218-0.107-0.186l-1.909 0.546c0.412 0.412 0.667 0.982 0.667 1.611s-0.255 1.198-0.667 1.611l1.909 0.546c0.111 0.032 0.19-0.106 0.107-0.186l-1.429-1.382 1.928-0.482c0.112-0.028 0.112-0.187 0-0.215z"></path>
<path fill="#f5f5f5" d="M10.869 10.064c0 1.002-0.812 1.814-1.814 1.814s-1.814-0.812-1.814-1.814c0-1.002 0.812-1.814 1.814-1.814s1.814 0.812 1.814 1.814z"></path>
</svg>
