<svg xmlns="http://www.w3.org/2000/svg" width="32" height="32" version="1.1" viewBox="0 0 32 32"><title>tajikistan</title><path fill="#f5f5f5" d="M30.152 18.547l-0.001-5.093-0-1.698-0-2.655c-0-0.725-0.357-1.399-0.946-1.809-0.051-0.035-0.103-0.069-0.157-0.101l-11.947-6.895c-0.682-0.394-1.523-0.394-2.205 0l-11.945 6.899c-0.053 0.030-0.103 0.063-0.152 0.098-0.592 0.41-0.95 1.085-0.95 1.813l0 2.651 0 1.698 0.001 5.093 0 1.698 0 2.655c0 0.725 0.357 1.399 0.946 1.809 0.051 0.035 0.103 0.069 0.157 0.101l11.948 6.895c0.682 0.394 1.523 0.394 2.205-0l11.945-6.899c0.053-0.030 0.103-0.063 0.152-0.098 0.592-0.41 0.95-1.085 0.95-1.813l-0-2.651-0-1.698z"/><path fill="#73af00" d="M1.849 22.9c0 0.725 0.357 1.399 0.946 1.809 0.051 0.035 0.103 0.069 0.157 0.101l11.948 6.895c0.682 0.394 1.523 0.394 2.205-0l11.945-6.899c0.053-0.030 0.103-0.063 0.152-0.098 0.592-0.41 0.95-1.085 0.95-1.813l-0-1.505h-28.304l0 1.51z"/><path fill="#ff4b55" d="M30.151 9.1c-0-0.725-0.357-1.399-0.946-1.809-0.051-0.035-0.103-0.069-0.157-0.101l-11.947-6.895c-0.682-0.394-1.523-0.394-2.205 0l-11.945 6.899c-0.053 0.030-0.103 0.063-0.152 0.098-0.592 0.41-0.95 1.085-0.95 1.813l0 1.505h28.304l-0-1.51z"/><path fill="#ffcd5a" d="M13.952 18.232c0.26-0.131 0.412-0.347 0.493-0.502 0.465 0.304 0.864 0.201 1.072 0.104 0.203-0.095 0.37-0.25 0.481-0.408 0.111 0.158 0.278 0.313 0.481 0.408 0.208 0.097 0.607 0.2 1.072-0.104 0.081 0.156 0.233 0.371 0.493 0.502 0.15 0.075 0.315 0.113 0.494 0.113 0.184 0 0.383-0.040 0.595-0.119l-0.103-0.275c-0.338 0.127-0.624 0.134-0.851 0.020-0.318-0.158-0.424-0.508-0.425-0.51l-0.062-0.217-0.173 0.144c-0.306 0.255-0.622 0.317-0.916 0.179-0.298-0.14-0.459-0.422-0.459-0.507v-1.267c0.064-0.14 0.204-0.238 0.367-0.238 0.056 0 0.112 0.012 0.165 0.036l0.182 0.082-0.027-0.198c-0.058-0.415-0.416-0.728-0.833-0.728s-0.775 0.313-0.833 0.728l-0.027 0.198 0.182-0.082c0.053-0.024 0.109-0.036 0.165-0.036 0.163 0 0.304 0.098 0.367 0.238v1.267c0 0.085-0.161 0.367-0.459 0.507-0.293 0.138-0.61 0.076-0.916-0.179l-0.172-0.142-0.063 0.214c-0.001 0.003-0.107 0.353-0.425 0.511-0.227 0.113-0.514 0.107-0.851-0.020l-0.103 0.275c0.212 0.080 0.411 0.119 0.595 0.119 0.18 0 0.345-0.038 0.495-0.113zM15.484 15.335c-0.018 0-0.035 0.001-0.053 0.002 0.098-0.219 0.318-0.369 0.566-0.369s0.468 0.15 0.566 0.369c-0.228-0.020-0.444 0.091-0.566 0.268-0.113-0.163-0.301-0.27-0.514-0.27z"/><path fill="#ffcd5a" d="M13.455 19.166l0.093 0.279c0.624-0.208 1.517-0.328 2.45-0.328s1.826 0.12 2.45 0.328l0.093-0.279c-0.653-0.218-1.58-0.343-2.543-0.343s-1.89 0.125-2.543 0.343z"/><path fill="#ffcd5a" d="M15.998 18.529c0.153 0 0.288-0.090 0.379-0.213-0.061-0.038-0.142-0.059-0.234-0.071 0-0.003 0.001-0.006 0.001-0.010 0-0.126-0.059-0.235-0.147-0.294-0.087 0.059-0.147 0.168-0.147 0.294 0 0.003 0.001 0.006 0.001 0.010-0.092 0.011-0.173 0.033-0.234 0.071 0.091 0.122 0.226 0.213 0.379 0.213z"/><path fill="#ffcd5a" d="M14.65 18.668c0.15-0.030 0.264-0.146 0.329-0.285-0.067-0.025-0.151-0.030-0.243-0.023-0.001-0.003-0-0.006-0.001-0.010-0.025-0.123-0.105-0.218-0.203-0.258-0.074 0.075-0.11 0.194-0.085 0.317 0.001 0.003 0.002 0.006 0.003 0.009-0.088 0.029-0.163 0.067-0.215 0.116 0.114 0.102 0.264 0.164 0.414 0.133z"/><path fill="#ffcd5a" d="M17.464 18.092c-0.098 0.040-0.177 0.135-0.203 0.258-0.001 0.003-0 0.006-0.001 0.010-0.092-0.007-0.176-0.002-0.243 0.023 0.065 0.138 0.179 0.254 0.329 0.285s0.3-0.031 0.414-0.133c-0.052-0.049-0.127-0.087-0.215-0.116 0.001-0.003 0.002-0.006 0.003-0.009 0.025-0.123-0.011-0.242-0.085-0.317z"/><path fill="#ffcd5a" d="M15.959 12.684l-0.099 0.297-0.313 0.002c-0.040 0-0.057 0.052-0.025 0.076l0.252 0.186-0.094 0.298c-0.012 0.039 0.032 0.070 0.065 0.047l0.254-0.182 0.254 0.182c0.033 0.024 0.077-0.008 0.065-0.047l-0.094-0.298 0.252-0.186c0.033-0.024 0.016-0.076-0.025-0.076l-0.313-0.002-0.099-0.297c-0.013-0.038-0.067-0.038-0.080 0z"/><path fill="#ffcd5a" d="M14.169 13.173l-0.099 0.297-0.313 0.002c-0.040 0-0.057 0.052-0.025 0.076l0.252 0.186-0.094 0.298c-0.012 0.039 0.032 0.070 0.065 0.047l0.254-0.182 0.254 0.182c0.033 0.024 0.077-0.008 0.065-0.047l-0.094-0.298 0.252-0.186c0.033-0.024 0.016-0.076-0.025-0.076l-0.313-0.002-0.099-0.297c-0.013-0.038-0.067-0.038-0.080 0z"/><path fill="#ffcd5a" d="M12.854 14.495l-0.099 0.297-0.313 0.002c-0.040 0-0.057 0.052-0.025 0.076l0.252 0.186-0.094 0.298c-0.012 0.039 0.032 0.070 0.065 0.047l0.254-0.182 0.254 0.182c0.033 0.024 0.077-0.008 0.065-0.047l-0.094-0.298 0.252-0.186c0.033-0.024 0.016-0.076-0.025-0.076l-0.313-0.002-0.099-0.297c-0.013-0.038-0.067-0.038-0.080 0z"/><path fill="#ffcd5a" d="M12.37 16.282l-0.099 0.297-0.313 0.002c-0.040 0-0.057 0.052-0.025 0.076l0.252 0.186-0.094 0.298c-0.012 0.039 0.032 0.070 0.065 0.047l0.254-0.182 0.254 0.182c0.033 0.023 0.077-0.008 0.065-0.047l-0.094-0.298 0.252-0.186c0.033-0.024 0.016-0.076-0.025-0.076l-0.313-0.002-0.099-0.297c-0.013-0.038-0.067-0.038-0.080 0z"/><path fill="#ffcd5a" d="M17.83 13.173l0.099 0.297 0.313 0.002c0.040 0 0.057 0.052 0.025 0.076l-0.252 0.186 0.094 0.298c0.012 0.039-0.032 0.070-0.065 0.047l-0.254-0.182-0.254 0.182c-0.033 0.024-0.077-0.008-0.065-0.047l0.094-0.298-0.252-0.186c-0.033-0.024-0.016-0.076 0.025-0.076l0.313-0.002 0.099-0.297c0.013-0.038 0.067-0.038 0.080 0z"/><path fill="#ffcd5a" d="M19.146 14.495l0.099 0.297 0.313 0.002c0.040 0 0.057 0.052 0.025 0.076l-0.252 0.186 0.094 0.298c0.012 0.039-0.032 0.070-0.065 0.047l-0.254-0.182-0.254 0.182c-0.033 0.024-0.077-0.008-0.065-0.047l0.094-0.298-0.252-0.186c-0.033-0.024-0.016-0.076 0.025-0.076l0.313-0.002 0.099-0.297c0.013-0.038 0.067-0.038 0.080 0z"/><path fill="#ffcd5a" d="M19.629 16.282l0.099 0.297 0.313 0.002c0.040 0 0.057 0.052 0.025 0.076l-0.252 0.186 0.094 0.298c0.012 0.039-0.032 0.070-0.065 0.047l-0.254-0.182-0.254 0.182c-0.033 0.023-0.077-0.008-0.065-0.047l0.094-0.298-0.252-0.186c-0.033-0.024-0.016-0.076 0.025-0.076l0.313-0.002 0.099-0.297c0.013-0.038 0.067-0.038 0.080 0z"/></svg>