<svg xmlns="http://www.w3.org/2000/svg" width="32" height="32" version="1.1" viewBox="0 0 32 32"><title>tanzania</title><path fill="#ffe15a" d="M1.849 22.9l-0.002-13.795c-0-0.788 0.42-1.516 1.102-1.91l11.945-6.899c0.682-0.394 1.523-0.394 2.205-0l11.948 6.895c0.682 0.394 1.103 1.122 1.103 1.91l0.002 13.795c0 0.788-0.42 1.516-1.102 1.91l-11.945 6.899c-0.682 0.394-1.523 0.394-2.205 0l-11.948-6.895c-0.682-0.394-1.103-1.122-1.103-1.91z"/><path fill="#464655" d="M30.151 11.816l-0-2.716c-0-0.788-0.421-1.516-1.103-1.91l-3.917-2.26-23.282 15.254 0 2.716c0 0.788 0.421 1.516 1.103 1.91l3.917 2.261 23.282-15.254z"/><path fill="#73af00" d="M1.848 17.132l20.806-13.632-5.554-3.205c-0.043-0.025-0.086-0.048-0.13-0.069-0.088-0.043-0.177-0.080-0.269-0.111-0.046-0.015-0.092-0.029-0.138-0.041-0.185-0.049-0.376-0.074-0.566-0.074-0.095 0-0.19 0.006-0.285 0.018-0.109 0.014-0.217 0.037-0.323 0.068-0.171 0.049-0.337 0.118-0.495 0.209l-11.945 6.899c-0.256 0.148-0.475 0.343-0.649 0.57-0.29 0.379-0.454 0.848-0.454 1.34l0.001 8.027z"/><path fill="#4173cd" d="M30.152 14.868l-20.806 13.632 5.554 3.206c0.128 0.074 0.261 0.134 0.399 0.18 0.091 0.031 0.184 0.055 0.278 0.074 0.095 0.019 0.192 0.031 0.288 0.037 0.141 0.009 0.283 0.004 0.423-0.014 0.284-0.037 0.562-0.129 0.818-0.277l11.945-6.899c0.171-0.099 0.325-0.218 0.46-0.354 0.068-0.068 0.131-0.14 0.189-0.216 0.29-0.379 0.454-0.848 0.454-1.34l-0.001-8.027z"/></svg>