<svg xmlns="http://www.w3.org/2000/svg" width="32" height="32" version="1.1" viewBox="0 0 32 32"><title>thailand</title><path fill="#f5f5f5" d="M30.14 21.918v-12.822c0-0.787-0.418-1.518-1.099-1.911l-11.942-6.889c-0.681-0.393-1.524-0.393-2.205 0l-11.936 6.908c-0.681 0.393-1.099 1.124-1.099 1.911v13.791c0 0.787 0.418 1.518 1.099 1.911l11.942 6.889c0.681 0.393 1.524 0.393 2.205 0l11.936-6.895c0.681-0.393 1.099-1.124 1.099-1.911v-0.981z"/><path fill="#ff4b55" d="M14.901 31.692c0.681 0.393 1.524 0.393 2.205 0l8.126-4.691h-18.462l8.132 4.691z"/><path fill="#ff4b55" d="M17.099 0.301c-0.681-0.393-1.524-0.393-2.205 0l-8.126 4.697h18.462l-8.132-4.697z"/><path fill="#41479b" d="M1.86 21.918h28.281v-11.842h-28.281z"/></svg>