<svg xmlns="http://www.w3.org/2000/svg" width="32" height="32" version="1.1" viewBox="0 0 32 32"><title>tibet</title><path fill="#ffe15a" d="M30.152 18.546l-0.001-5.093-0-1.698-0-2.655c-0-0.725-0.357-1.399-0.946-1.809-0.051-0.035-0.103-0.069-0.157-0.101l-11.948-6.895c-0.682-0.394-1.523-0.394-2.205 0l-11.945 6.899c-0.053 0.030-0.103 0.063-0.152 0.098-0.592 0.41-0.95 1.085-0.95 1.813l0 2.651 0 1.698 0.001 5.093 0 1.698 0 2.655c0 0.725 0.357 1.399 0.946 1.809 0.051 0.035 0.103 0.069 0.157 0.101l11.948 6.895c0.682 0.394 1.523 0.394 2.205-0l11.945-6.899c0.053-0.030 0.103-0.063 0.152-0.098 0.592-0.41 0.95-1.085 0.95-1.813l-0-2.651-0-1.698z"/><path fill="#41479b" d="M30.152 18.523l-0.001-5.047-0-1.682-0-2.631c-0-0.719-0.356-1.387-0.943-1.793-0.051-0.035-0.102-0.069-0.156-0.1l-11.908-6.833c-0.68-0.39-1.518-0.39-2.198 0l-11.906 6.837c-0.052 0.030-0.103 0.063-0.152 0.097-0.59 0.406-0.947 1.076-0.947 1.796l0 2.627 0 1.682 0.001 5.047 0 1.682 0 2.631c0 0.719 0.356 1.387 0.943 1.793 0.051 0.035 0.102 0.069 0.156 0.1l11.908 6.833c0.68 0.39 1.518 0.39 2.198-0l11.906-6.837c0.052-0.030 0.103-0.063 0.152-0.097 0.59-0.406 0.947-1.075 0.947-1.796l-0-2.627-0-1.683z"/><path fill="#ff4b55" d="M12.37 13.258l-3.705-3.416 4.063 2.986c0.112-0.119 0.231-0.233 0.355-0.34l-6.143-7.266c0 0-4.219 2.649-4.374 2.89l9.533 5.56c0.083-0.143 0.173-0.281 0.271-0.414z"/><path fill="#ff4b55" d="M16.101 11.365c0.434 0 0.854 0.063 1.252 0.175l2.157-4.975-0.163 0.53 0.062-0.143-1.473 4.794c0.433 0.187 0.83 0.44 1.182 0.743l6.097-7.11c0 0-8.769-5.061-9.115-5.077v11.064z"/><path fill="#ff4b55" d="M30.151 9.1c0-0.083-0.015-0.236-0.024-0.317-0.035-0.305-0.358-0.594-0.615-0.594l-9.41 5.482c0.049 0.084 0.096 0.168 0.139 0.255l4.679-1.819-4.46 2.332c0.032 0.088 0.061 0.177 0.088 0.266l9.603-2.794v-0.157l-0.001-2.655z"/><path fill="#ff4b55" d="M20.715 16.413l4.954 1.001-5.036-0.447c-0.023 0.11-0.052 0.219-0.084 0.326l9.604 2.794-0-1.541-0-2.547h-9.416c0 0.14-0.009 0.277-0.021 0.413z"/><path fill="#ff4b55" d="M11.472 16c0-0.134 0.009-0.265 0.019-0.396l-4.768-1.037 4.843 0.485c0.024-0.117 0.053-0.232 0.086-0.345l-9.493-2.853 0 1.6 0 2.547 9.311-0z"/><path fill="#ff4b55" d="M2.644 23.81l9.454-5.482c-0.054-0.092-0.104-0.186-0.151-0.282l-4.666 1.764 4.451-2.275c-0.028-0.080-0.054-0.161-0.079-0.242l-9.399 2.924c0 0 0.167 3.244 0.391 3.593z"/><path fill="#ffe15a" d="M20.548 17.294c0.032-0.107 0.061-0.215 0.084-0.326l5.036 0.447-4.954-1.001c0.012-0.136 0.021-0.274 0.021-0.413 0-0.134-0.009-0.267-0.020-0.398l4.914-1.035-4.992 0.484c-0.024-0.117-0.055-0.232-0.089-0.345-0.027-0.090-0.056-0.179-0.088-0.266l4.46-2.332-4.679 1.819c-0.044-0.087-0.091-0.171-0.139-0.255-0.085-0.145-0.176-0.285-0.275-0.42l3.699-3.41-4.056 2.981c-0.111-0.118-0.228-0.229-0.35-0.335-0.352-0.304-0.749-0.556-1.182-0.743l1.473-4.794-0.062 0.143 0.163-0.53-2.157 4.975c-0.399-0.112-0.818-0.175-1.252-0.175-0.46 0-0.903 0.069-1.322 0.194l-1.998-4.608 1.475 4.798c-0.429 0.187-0.823 0.437-1.172 0.739-0.124 0.107-0.243 0.22-0.355 0.34l-4.063-2.986 3.705 3.416c-0.098 0.133-0.188 0.271-0.271 0.414-0.049 0.085-0.097 0.17-0.141 0.258l-4.689-1.823 4.47 2.337c-0.031 0.086-0.059 0.173-0.086 0.261-0.034 0.113-0.065 0.228-0.089 0.345l-5.003-0.485 4.925 1.037c-0.011 0.131-0.020 0.262-0.020 0.396v0c0 0.139 0.009 0.275 0.021 0.411l-4.965 1.004 5.047-0.448c0.024 0.111 0.053 0.219 0.085 0.327 0.024 0.082 0.051 0.162 0.079 0.242l-4.451 2.275 4.666-1.764c0.047 0.096 0.098 0.19 0.151 0.282l3.473-2.020c0.327-0.191 0.732-0.19 1.059 0l3.472 2.020c0.053-0.091 0.103-0.183 0.15-0.278l4.657 1.76-4.442-2.27c0.029-0.081 0.056-0.164 0.081-0.247z"/><path fill="#f5f5f5" d="M20.103 18.328l-3.472-2.020c-0.327-0.191-0.732-0.191-1.059-0-0 0-0 0-0 0l-13.372 7.78c0.155 0.241 0.356 0.453 0.596 0.62 0.051 0.035 0.103 0.069 0.157 0.101l11.948 6.895c0.682 0.394 1.523 0.394 2.205-0l11.945-6.899c0.053-0.030 0.103-0.063 0.152-0.098 0.269-0.187 0.49-0.429 0.651-0.706l-9.751-5.673z"/><path fill="#ff4b55" d="M16.13 21.759c0 0.070-0.057 0.127-0.127 0.127s-0.127-0.057-0.127-0.127c0-0.070 0.057-0.127 0.127-0.127s0.127 0.057 0.127 0.127z"/><path fill="#ff4b55" d="M15.81 17.52c0.38 0.469-0.235 0.704-0.159 1.152 0 0-0.124-0.186-0.076-0.449s-0.117-0.345-0.117-0.345 0.076 0.297-0.11 0.462c-0.186 0.166-0.131 0.545-0.131 0.545s-0.235-0.159-0.186-0.4c0 0-0.317 0.276-0.034 0.738 0 0-0.186-0.014-0.255-0.131 0 0-0.165 0.486 0.501 0.857s0.762-0.512 0.762-0.512l0.476 0.593c0 0 0.57-0.016 0.842-0.628l-0.327 0.060c0.021-0.172 0.458-0.219 0.285-0.736 0 0-0.014 0.11-0.138 0.186 0 0 0.005-0.357-0.253-0.591 0 0-0.009 0.191-0.092 0.26 0 0 0.028-0.246-0.124-0.439-0.145-0.185-0.159-0.354-0.159-0.354s-0.172 0.317-0.11 0.476c0 0-0.144-0.035-0.159-0.228-0.032-0.419-0.435-0.518-0.435-0.518z"/><path fill="#ffe15a" d="M17.081 21.286c0 0.255-0.482 0.462-1.077 0.462s-1.077-0.207-1.077-0.462c0-0.255 0.482-0.462 1.077-0.462s1.077 0.207 1.077 0.462z"/><path fill="#ff4b55" d="M16.935 21.185c0 0.23-0.417 0.417-0.931 0.417s-0.931-0.187-0.931-0.417c0-0.23 0.417-0.417 0.931-0.417s0.931 0.187 0.931 0.417z"/><path fill="#ff82aa" d="M16.198 21.24h-0.39c-0.007 0.122 0.048 0.298 0.195 0.363v0c0-0 0-0 0-0s0 0 0 0v-0c0.147-0.064 0.202-0.241 0.195-0.363z"/><path fill="#ff82aa" d="M16.509 21.165l-0.354 0.083c0.022 0.12 0.112 0.28 0.26 0.311l0 0 0-0c0 0 0 0 0 0v-0c0.118-0.094 0.128-0.277 0.094-0.394z"/><path fill="#ff82aa" d="M16.692 21.037l-0.247 0.162c0.062 0.105 0.194 0.23 0.322 0.223l0 0 0-0c0 0 0 0 0 0l-0-0c0.058-0.114-0.005-0.285-0.076-0.384z"/><path fill="#ff82aa" d="M16.685 20.788l-0.097 0.245c0.131 0.167 0.347 0.15 0.347 0.15 0.009-0.136-0.161-0.312-0.25-0.395z"/><path fill="#ff82aa" d="M15.494 21.165l0.354 0.083c-0.022 0.12-0.112 0.28-0.26 0.311l-0 0-0-0-0 0 0-0c-0.118-0.094-0.128-0.277-0.094-0.394z"/><path fill="#ff82aa" d="M15.311 21.037l0.247 0.162c-0.062 0.105-0.194 0.23-0.322 0.223l-0 0-0-0-0 0 0-0c-0.057-0.114 0.005-0.285 0.076-0.384z"/><path fill="#ff82aa" d="M15.318 20.788l0.097 0.245c-0.132 0.167-0.347 0.15-0.347 0.15-0.009-0.136 0.161-0.312 0.25-0.395z"/><path fill="#ffe15a" d="M16.759 20.932c0 0.187-0.338 0.339-0.756 0.339s-0.756-0.152-0.756-0.339c0-0.187 0.338-0.339 0.756-0.339s0.756 0.152 0.756 0.339z"/><path fill="#ff4b55" d="M16.566 20.932c0 0.122-0.252 0.22-0.562 0.22s-0.562-0.099-0.562-0.22c0-0.122 0.252-0.22 0.562-0.22s0.562 0.099 0.562 0.22z"/><path fill="#41479b" d="M16.060 24.738c-0.368 0.031-0.691-0.242-0.722-0.609-0.016-0.183 0.121-0.345 0.304-0.361s0.345 0.121 0.361 0.304c0.016 0.184 0.177 0.32 0.361 0.305s0.32-0.178 0.304-0.361c0.031 0.368-0.241 0.691-0.609 0.722z"/><path fill="#ff9b55" d="M15.338 24.129c-0.016-0.183 0.121-0.345 0.304-0.361s0.345 0.121 0.361 0.304c0.016 0.184 0.177 0.32 0.361 0.305s0.32-0.178 0.304-0.361c-0.031-0.368-0.354-0.64-0.722-0.609s-0.64 0.355-0.609 0.722z"/><path fill="#ffe15a" d="M16.003 22.979c-0.604 0-1.093 0.489-1.093 1.093s0.489 1.093 1.093 1.093c0.604 0 1.093-0.489 1.093-1.093s-0.489-1.093-1.093-1.093zM16.003 24.938c-0.478 0-0.865-0.387-0.865-0.865s0.387-0.865 0.865-0.865c0.478 0 0.865 0.387 0.865 0.865s-0.387 0.865-0.865 0.865z"/><path fill="#ff4b55" d="M16.003 23.207c-0.478 0-0.865 0.387-0.865 0.865s0.387 0.865 0.865 0.865c0.478 0 0.865-0.387 0.865-0.865s-0.387-0.865-0.865-0.865zM16.003 24.735c-0.366 0-0.663-0.297-0.663-0.663s0.297-0.663 0.663-0.663 0.663 0.297 0.663 0.663c0 0.366-0.297 0.663-0.663 0.663z"/><path fill="#ff9b55" d="M15.75 24.072c0 0.046-0.037 0.084-0.084 0.084s-0.084-0.037-0.084-0.084c0-0.046 0.037-0.084 0.084-0.084s0.084 0.037 0.084 0.084z"/><path fill="#41479b" d="M16.419 24.072c0 0.046-0.037 0.084-0.084 0.084s-0.084-0.037-0.084-0.084c0-0.046 0.037-0.084 0.084-0.084s0.084 0.037 0.084 0.084z"/><path fill="#ff4b55" d="M16.105 22.711c0 0.056-0.045 0.101-0.101 0.101s-0.101-0.045-0.101-0.101c0-0.056 0.045-0.101 0.101-0.101s0.101 0.045 0.101 0.101z"/><path fill="#ff4b55" d="M16.205 22.887c0 0.056-0.045 0.101-0.101 0.101s-0.101-0.045-0.101-0.101c0-0.056 0.045-0.101 0.101-0.101s0.101 0.045 0.101 0.101z"/><path fill="#ff4b55" d="M16.003 22.887c0 0.056-0.045 0.101-0.101 0.101s-0.101-0.045-0.101-0.101c0-0.056 0.045-0.101 0.101-0.101s0.101 0.045 0.101 0.101z"/><path fill="#ff4b55" d="M16.105 25.437c0 0.056-0.045 0.101-0.101 0.101s-0.101-0.045-0.101-0.101c0-0.056 0.045-0.101 0.101-0.101s0.101 0.045 0.101 0.101z"/><path fill="#ff4b55" d="M16.003 25.261c0 0.056-0.045 0.101-0.101 0.101s-0.101-0.045-0.101-0.101c0-0.056 0.045-0.101 0.101-0.101s0.101 0.045 0.101 0.101z"/><path fill="#ff4b55" d="M16.205 25.261c0 0.056-0.045 0.101-0.101 0.101s-0.101-0.045-0.101-0.101c0-0.056 0.045-0.101 0.101-0.101s0.101 0.045 0.101 0.101z"/><path fill="#ff9b55" d="M15.818 19.847c-0.069-0.388-0.255-0.679-0.415-0.65s-0.232 0.366-0.163 0.754c0.050 0.28 0.161 0.505 0.279 0.6-0.049 0.083-0.078 0.21-0.079 0.368 0.087 0.007 0.177 0.007 0.27-0.009s0.177-0.047 0.256-0.085c-0.055-0.147-0.127-0.256-0.201-0.317 0.077-0.13 0.103-0.38 0.053-0.659z"/><path fill="#41479b" d="M16.186 19.847c0.070-0.388 0.255-0.679 0.415-0.65s0.232 0.366 0.163 0.754c-0.050 0.28-0.161 0.505-0.279 0.6 0.049 0.083 0.078 0.21 0.079 0.368-0.087 0.007-0.177 0.007-0.27-0.009s-0.177-0.047-0.256-0.085c0.055-0.147 0.127-0.256 0.201-0.317-0.077-0.13-0.103-0.38-0.053-0.659z"/><path fill="#f5f5f5" d="M16.3 19.838c0-0.427-0.131-0.773-0.293-0.773s-0.293 0.346-0.293 0.773c0 0.308 0.070 0.569 0.169 0.694-0.063 0.080-0.114 0.209-0.142 0.377 0.085 0.025 0.173 0.041 0.267 0.041s0.183-0.017 0.267-0.041c-0.028-0.168-0.080-0.298-0.142-0.377 0.099-0.124 0.168-0.385 0.168-0.694z"/><path fill="#ffe15a" d="M16.003 20.646c-0.191 0-0.366-0.018-0.48-0.049-0.039-0.010-0.062-0.050-0.052-0.090s0.052-0.065 0.090-0.051c0.202 0.054 0.682 0.054 0.884 0 0.039-0.014 0.079 0.012 0.090 0.051s-0.012 0.080-0.052 0.090c-0.114 0.032-0.289 0.049-0.48 0.049z"/><path fill="#ffe15a" d="M15.375 21.806c0.079-0.010 0.179-0.035 0.186-0.155 0 0-0.179-0.017-0.179-0.003s-0.007 0.159-0.007 0.159z"/><path fill="#ff4b55" d="M13.574 21.357c0.090 0.025 0.177 0.044 0.205 0.154 0 0 0.092-0.184-0.037-0.294-0.023-0.020-0.168 0.14-0.168 0.14z"/><path fill="#ff4b55" d="M13.956 21.049c0.090 0.025 0.177 0.044 0.205 0.154 0 0 0.092-0.184-0.037-0.294-0.023-0.020-0.168 0.14-0.168 0.14z"/><path fill="#ffe15a" d="M13.602 21.688c-0.055-0.014-0.152-0.138-0.028-0.331s-0.421 0.097-0.442 0.255c-0.021 0.159-0.041 0.442 0.083 0.366s0.386-0.29 0.386-0.29z"/><path fill="#ff4b55" d="M14.193 21.709c0.018-0.101 0-0.17 0.129-0.262s0.147-0.143 0.147-0.202c0 0-0.070 0.075-0.194 0.106-0.076 0.019-0.141 0.074-0.141 0.074s-0.032-0.115 0.083-0.179c0 0-0.202 0-0.235 0.184s0.074 0.212-0.078 0.23c-0.152 0.018-0.506-0.055-0.63 0.225s0.253 0.078 0.354 0.041c0.101-0.037 0.423 0.041 0.474-0.028s0.092-0.189 0.092-0.189z"/><path fill="#fff5e6" d="M12.867 22.213l0.545-0.897c0 0 0.542-0.209 0.546-0.237s0.179-0.253 0.179-0.285-0.018-0.189-0.087-0.216c-0.069-0.028-0.289 0.065-0.384 0.090s-0.246-0.154-0.246-0.154-0.879 0.166-0.943 0.271c-0.064 0.106-0.368 0.865-0.382 0.943s0 0.616 0.018 0.607c0.018-0.009 0.753-0.122 0.753-0.122z"/><path fill="#ff4b55" d="M14.17 20.66c-0.083-0.12-0.235-0.12-0.299-0.023s-0.202 0.097-0.235 0.216c-0.025 0.094 0.129 0.267 0.221 0.235s0.262-0.138 0.262-0.138 0.133-0.17 0.051-0.29zM13.918 20.904c-0.038 0.048-0.133-0.012-0.133-0.065s0.079-0.057 0.118-0.029c0.026 0.018 0.046 0.055 0.015 0.094zM14.060 20.784c-0.055 0.027-0.114-0.069-0.091-0.117s0.095-0.016 0.118 0.026c0.015 0.028 0.017 0.070-0.028 0.091z"/><path fill="#fff5e6" d="M14.344 24.14c0.092 0.009 0.213-0.003 0.238-0.211 0.029-0.238 0.101-0.321 0.22-0.266s0.090 0.15 0.090 0.15 0.131 0.345 0.062 0.483c-0.069 0.138-0.228 0.304-0.345 0.331s-0.359-0.131-0.359-0.131l0.094-0.357z"/><path fill="#ffe6d7" d="M13.682 23.338c0.078-0.037 1.044-0.709 1.159-0.962s0.051-0.437 0.202-0.446c0.152-0.009 0.409-0.018 0.386-0.207s-0.276-0.069-0.345-0.106-0.285-0.138-0.327 0.009c-0.041 0.147 0 0.281-0.060 0.354s-0.327 0.202-0.373 0.193-0.144-0.021-0.219 0.026c-0.075 0.047-0.117 0.112-0.117 0.112s-0.283 0.012-0.323 0.049c-0.040 0.038-0.192 0.24-0.192 0.24l0.207 0.736z"/><path fill="#5aa587" d="M13.783 23.186c0 0 0.184-0.069 0.315-0.324s0.262-0.152 0.456-0.29 0.069-0.345 0.014-0.428c-0.055-0.083-0.017-0.297 0.172-0.29 0.125 0.005 0.524 0.393 0.345 0.78 0 0-0.028-0.069-0.097-0.152 0 0 0.104 0.255-0.138 0.538 0 0 0.007-0.145-0.069-0.241 0 0-0.007 0.359-0.283 0.587 0 0 0.034-0.235-0.007-0.331 0 0-0.041 0.311-0.449 0.593 0 0 0.062-0.11 0.048-0.29l-0.345 0.179 0.037-0.331z"/><path fill="#f5dcd2" d="M11.159 24.366c0 0-0.124 0.38 0.214 0.49s0.524-0.035 0.649 0c0.124 0.035 0.097 0.255-0.076 0.442s-0.345 0.207-0.538 0.069c-0.193-0.138-0.207-0.262-0.407-0.214s-0.476-0.145-0.476-0.145 0.179-0.78 0.2-0.773c0.021 0.007 0.435 0.131 0.435 0.131z"/><path fill="#fff5e6" d="M9.404 23.416c0 0 0.238-0.229 1.164-0.513s1.421-0.403 1.421-0.403l0.724-0.229c0 0 0.341-0.001 0.565-0.065s0.224-0.064 0.224-0.064 0.596 0.843 0.147 1.696l0.156 0.147c0 0 0.164 0.050 0.288 0.094s0.033 0.282 0.033 0.282l-0.477 0.22-1.393-0.064c0 0-0.027-0.064-0.486 0.082s-0.66-0.183-1.54-0.211c-0.88-0.028-0.825-0.972-0.825-0.972z"/><path fill="#5aa587" d="M13.365 20.126c0 0 0.14 0.14 0.064 0.29 0 0-0.156-0.161-0.285-0.198-0.198-0.057-0.239 0.052-0.678 0.073-0.276 0.013-0.387 0.277-0.657 0.213-0.289-0.069-0.527 0.063-0.527 0.063s0.166-0.021 0.3 0.107c0.135 0.128 0.373 0.1 0.373 0.1s-0.217 0.152-0.4 0.079c-0.183-0.073-0.445 0.062-0.445 0.062 0.048-0.003 0.155 0.014 0.276 0.141s0.39 0.097 0.39 0.097c-0.048 0.059-0.183 0.124-0.31 0.1-0.288-0.055-0.596 0.073-0.596 0.073s0.183-0.064 0.431 0.119c0.247 0.183 0.532 0.073 0.532 0.073 0 0.119-0.248 0.578-0.688 0.563-0.548-0.019-0.687 0.299-0.687 0.299s0.22-0.073 0.504-0.027c0.55 0.089 0.926-0.229 0.926-0.229s-0.092 0.431-0.467 0.412c-0.376-0.018-0.852 0.367-0.852 0.367s0.424-0.076 0.97-0.083c0.18-0.002 0.326-0.073 0.451-0.157 0.329-0.222 0.632-0.222 0.632-0.222-0.359 0.083-0.545 0.476-0.545 0.476s0.276-0.241 0.676-0.241 0.525-0.469 0.525-0.469c-0.373 0.007-0.428-0.297-0.428-0.297s-0.11 0.035-0.214 0.159c-0.065 0.079-0.176 0.105-0.252 0.116-0.028-0.242 0.155-0.463 0.155-0.463s-0.248-0.376 0.073-0.779c0.321-0.403 1.054-0.275 1.054-0.275 0.076-0.338-0.209-0.549-0.301-0.54z"/><path fill="#5aa587" d="M12.619 21.461c0.12-0.018 0.676-0.202 0.667-0.451s-0.34-0.161-0.322-0.028c0.018 0.133 0.138 0.106 0.138 0.106s-0.012 0.060-0.258 0.11c-0.202 0.041-0.225 0.262-0.225 0.262z"/><path fill="#5aa587" d="M14.092 24.078c0 0 0.345-0.055 0.331 0.193s-0.212 0.511-0.621 0.626c0 0 0.152-0.131 0.117-0.207s-0.207-0.097-0.297 0.035c-0.090 0.131-0.242 0.186-0.373 0.166 0 0 0.235-0.172 0.069-0.235-0.149-0.056-0.092 0.186-0.449 0.228 0 0 0.262-0.207 0.11-0.262s-0.235 0.304-0.504 0.276c0 0 0.225-0.225 0.104-0.262-0.192-0.058-0.242 0.276-0.587 0.131 0 0 0.172-0.076 0.034-0.262s0.055-0.421 0.152-0.518c0.097-0.097 0.166-0.159 0.138-0.255 0 0 0.246 0.154 0.122 0.426-0.117 0.255 0.355 0.114 0.722 0.083 0.377-0.032 0.601 0.184 0.842 0.11 0.225-0.069 0.087-0.271 0.087-0.271z"/><path fill="#5aa587" d="M7.415 24.195c0 0 0.453 0.209 0.709-0.002s0.326 0.039 0.629-0.145c0.303-0.183 0.284-0.082 0.522-0.082s0.412-0.385 0.266-0.651c0 0 0.498-0.193 0.396-0.592-0.076-0.297-0.451-0.205-0.451-0.205s-0.395-0.248-0.669 0.073c-0.224 0.263-0.101 0.44-0.477 0.486s-0.431 0.431-0.834 0.385c0 0 0.275 0.358 0.697 0.128 0 0-0.010 0.345-0.788 0.605z"/><path fill="#5aa587" d="M11.421 24.87c0 0 0.386 0.345-0.373 0.552 0 0 0.048-0.062 0.104-0.173 0 0-0.235 0.173-0.538 0.159 0 0 0.090-0.069 0.11-0.152 0 0-0.276 0.076-0.476-0.055 0 0 0.242-0.014 0.393-0.241 0 0 0.069 0.138 0.214 0.069s0.228 0.030 0.359 0.035c0.107 0.003 0.2-0.052 0.207-0.193z"/><path fill="#5aa587" d="M11.23 22.739c0 0-0.276 0.129-0.147 0.373 0.086 0.163 0.355 0.202 0.46 0.051 0.090-0.129 0.018-0.254-0.076-0.271-0.099-0.018-0.159 0.023-0.205 0.106-0 0-0.17-0.064-0.032-0.258z"/><path fill="#5aa587" d="M12.47 23.169c0 0 0.599 0.023 0.569 0.438-0.013 0.183-0.26 0.31-0.416 0.215-0.133-0.082-0.112-0.218-0.042-0.278 0.076-0.067 0.152-0.043 0.227 0.015 0-0 0.038-0.227-0.338-0.389z"/><path fill="#5aa587" d="M13.667 22.361c0 0 0.324-0.217 0.45 0.041 0.055 0.114-0.048 0.276-0.174 0.272-0.108-0.003-0.142-0.091-0.122-0.152 0.023-0.066 0.076-0.078 0.141-0.070 0 0 0.020-0.168-0.294-0.092z"/><path fill="#5aa587" d="M14.107 22.2c0 0 0.298-0.2 0.415 0.038 0.051 0.105-0.044 0.254-0.161 0.251-0.099-0.003-0.131-0.084-0.112-0.14 0.021-0.061 0.070-0.072 0.13-0.064 0 0 0.018-0.155-0.271-0.085z"/><path fill="#5aa587" d="M12.989 23.524c0 0 0.516 0.020 0.49 0.377-0.011 0.157-0.224 0.267-0.358 0.185-0.114-0.070-0.121-0.2-0.071-0.261 0.086-0.107 0.19-0.059 0.19-0.059s0.073-0.102-0.25-0.242z"/><path fill="#5aa587" d="M13.367 23.807c0 0 0.569-0.055 0.527 0.329-0.011 0.1-0.143 0.171-0.229 0.118-0.073-0.045-0.077-0.128-0.045-0.167 0.055-0.068 0.121-0.038 0.121-0.038s-0.036-0.17-0.374-0.242z"/><path fill="#ffe6d7" d="M9.716 25.634c0 0 0.078 0.158 0.128 0.312 0.043 0.131 0.266 0.22 0.385 0.137s0.32-0.329 0.238-0.384c-0.082-0.055-0.44-0.010-0.495-0.203s-0.037-0.321-0.037-0.321 0.478 0.142 0.705-0.217c0.228-0.359 0.195-0.709 0.284-0.883 0.070-0.136 0.192-0.202 0.192-0.202-0.14-0.556-1.851-0.953-1.653 0.489l-0.269 0.611 0.519 0.66z"/><path fill="#5aa587" d="M9.109 25.61c0.117 0.076 0.547 0.294 0.814 0.129 0.218-0.135 0.221-0.29 0.083-0.324s-0.214 0.062-0.29 0-0.504-0.414-0.345-0.524c0.159-0.11 0.245-0.2 0.242-0.393-0.002-0.143-0.127-0.281-0.274-0.294-0.184-0.017-0.327 0.060-0.52 0.060l0.225 0.115c-0.145 0.069-0.156 0.265-0.329 0.299 0 0 0.117 0.133 0.265 0.092 0 0-0.051 0.138-0.189 0.156 0 0 0.129 0.147 0.248 0.189 0 0-0.078 0.055-0.2 0.032 0 0 0.191 0.281 0.476 0.352l-0.207 0.113z"/><path fill="#5aa587" d="M9.94 25.085c0 0 0.077-0.013 0.083-0.107 0.004-0.054-0.050-0.124-0.141-0.118-0.107 0.006-0.18 0.148-0.128 0.243 0.131 0.241 0.62 0.144 0.68 0.057 0-0-0.391 0.018-0.494-0.075z"/><path fill="#ffe15a" d="M10.17 26.231c0.021-0.030 0.039-0.111-0.003-0.161 0 0 0.022-0.116 0.11-0.074 0 0 0.037 0.093 0.008 0.157s-0.115 0.078-0.115 0.078z"/><path fill="#ffe15a" d="M10.349 26.167c-0.002-0.083-0.020-0.129-0.088-0.136 0 0-0.017-0.121 0.083-0.121 0 0 0.074 0.066 0.075 0.137s-0.070 0.12-0.070 0.12z"/><path fill="#ffe15a" d="M10.46 26.086c-0.016-0.082-0.032-0.139-0.107-0.144 0 0-0.040-0.099 0.070-0.113 0 0 0.070 0.056 0.084 0.126s-0.048 0.131-0.048 0.131z"/><path fill="#ffe15a" d="M10.571 25.959c-0.034-0.076-0.068-0.107-0.142-0.096 0 0-0.064-0.090 0.024-0.138 0 0 0.107 0.031 0.136 0.096s-0.018 0.138-0.018 0.138z"/><path fill="#ffe15a" d="M11.881 25.492c0.016-0.033 0.018-0.116-0.031-0.158 0 0 0.002-0.118 0.095-0.093 0 0 0.053 0.084 0.035 0.153s-0.099 0.097-0.099 0.097z"/><path fill="#ffe15a" d="M12.046 25.397c-0.016-0.082-0.043-0.123-0.11-0.118 0 0-0.038-0.116 0.060-0.134 0 0 0.085 0.051 0.098 0.121s-0.048 0.131-0.048 0.131z"/><path fill="#ffe15a" d="M12.141 25.297c-0.031-0.078-0.056-0.131-0.131-0.123 0 0-0.057-0.090 0.049-0.123 0 0 0.079 0.043 0.105 0.109s-0.024 0.137-0.024 0.137z"/><path fill="#ffe15a" d="M12.228 25.153c-0.047-0.069-0.086-0.093-0.157-0.069 0 0-0.079-0.077-0.001-0.14 0 0 0.111 0.011 0.15 0.070s0.007 0.139 0.007 0.139z"/><path fill="#ffe6d7" d="M14.174 20.904c0.015 0.075-0.023 0.156-0.202 0.235s-0.175 0.046-0.294 0.198c-0.12 0.152-0.133 0.156-0.281 0.184s-0.216 0.483-0.041 0.414 0.198-0.212 0.391-0.166 0.294 0.11 0.446-0.060c0 0 0.147 0.198-0.129 0.281s-0.427 0.089-0.563 0.153c-0.136 0.064-0.62 0.219-0.652-0.233-0.009-0.131 0.087-0.182 0.143-0.278s0.11-0.161 0.244-0.267 0.051-0.193 0.267-0.225c0.216-0.032 0.396-0.028 0.46-0.184s0.193-0.142 0.211-0.050z"/><path fill="#5aa587" d="M10.551 23.097c0 0-0.041-0.165 0.151-0.235-0.045 0.014-0.087 0.026-0.134 0.041-0.040 0.012-0.072 0.024-0.11 0.036-0.015 0.020-0.035 0.030-0.044 0.058-0.059 0.164 0.086 0.376 0.259 0.353 0.147-0.020 0.189-0.149 0.141-0.226-0.050-0.081-0.161-0.1-0.261-0.027z"/><path fill="#5aa587" d="M10.611 24.847c-0.209 0.047-0.303-0.034-0.303-0.034s0.077-0.013 0.083-0.107c0.004-0.054-0.050-0.124-0.141-0.118-0.107 0.006-0.18 0.148-0.128 0.243 0.113 0.207 0.434 0.158 0.576 0.011 0.007-0.015 0.015-0.030 0.022-0.045-0.031 0.020-0.071 0.042-0.108 0.050z"/><path fill="#5aa587" d="M10.822 24.498c0.005-0.024 0.013-0.047 0.017-0.070-0.245 0.099-0.317-0.026-0.317-0.026s0.077-0.013 0.083-0.107c0.004-0.054-0.050-0.124-0.141-0.118-0.107 0.006-0.18 0.148-0.128 0.243 0.12 0.22 0.333 0.159 0.486 0.078z"/><path fill="#5aa587" d="M11.373 24.615c-0.142 0.128-0.251 0.121-0.251 0.121s0.057-0.053 0.011-0.135c-0.026-0.047-0.109-0.076-0.183-0.022-0.086 0.064-0.070 0.222 0.025 0.273 0.233 0.125 0.384-0.069 0.464-0.225-0.022-0.003-0.044-0.008-0.066-0.013z"/><path fill="#ffe15a" d="M15.046 24.492c-0.010-0.051-0.064-0.148-0.129-0.154 0 0-0.077-0.136 0.011-0.185 0 0 0.097 0.052 0.129 0.146s-0.010 0.194-0.010 0.194z"/><path fill="#ffe15a" d="M15.107 24.245c-0.067-0.080-0.115-0.105-0.162-0.043 0 0-0.106-0.1-0.043-0.202 0 0 0.098-0.012 0.155 0.057s0.051 0.189 0.051 0.189z"/><path fill="#ffe15a" d="M15.113 24.053c-0.075-0.063-0.13-0.103-0.181-0.032 0 0-0.103-0.056-0.045-0.182 0 0 0.089-0.017 0.152 0.038s0.073 0.176 0.073 0.176z"/><path fill="#ffe15a" d="M15.082 23.817c-0.081-0.040-0.127-0.035-0.165 0.052 0 0-0.111-0.023-0.094-0.159 0 0 0.091-0.079 0.161-0.045s0.098 0.153 0.098 0.153z"/><path fill="#f5f5f5" d="M13.434 21.161c0 0.071-0.058 0.129-0.129 0.129s-0.129-0.058-0.129-0.129c0-0.071 0.058-0.129 0.129-0.129s0.129 0.058 0.129 0.129z"/><path fill="#41479b" d="M13.352 21.161c0 0.026-0.021 0.047-0.047 0.047s-0.047-0.021-0.047-0.047c0-0.026 0.021-0.047 0.047-0.047s0.047 0.021 0.047 0.047z"/><path fill="#f5f5f5" d="M13.675 20.691c0 0.058-0.047 0.105-0.105 0.105s-0.105-0.047-0.105-0.105c0-0.058 0.047-0.105 0.105-0.105s0.105 0.047 0.105 0.105z"/><path fill="#41479b" d="M13.608 20.691c0 0.021-0.017 0.038-0.038 0.038s-0.038-0.017-0.038-0.038c0-0.021 0.017-0.038 0.038-0.038s0.038 0.017 0.038 0.038z"/><path fill="#fff5e6" d="M9.854 23.22c-0.119 0.092-0.531-0.11-0.821-0.014-0.375 0.125-0.371 0.366-0.371 0.366s0.233-0.29 0.622-0.147c0.215 0.079 0.34 0.083 0.34 0.083l0.23-0.288z"/><path fill="#ffe15a" d="M16.625 21.806c-0.079-0.010-0.179-0.035-0.186-0.155 0 0 0.179-0.017 0.179-0.003s0.007 0.159 0.007 0.159z"/><path fill="#ff4b55" d="M18.426 21.357c-0.090 0.025-0.177 0.044-0.205 0.154 0 0-0.092-0.184 0.037-0.294 0.023-0.020 0.168 0.14 0.168 0.14z"/><path fill="#ff4b55" d="M18.044 21.049c-0.090 0.025-0.177 0.044-0.205 0.154 0 0-0.092-0.184 0.037-0.294 0.023-0.020 0.168 0.14 0.168 0.14z"/><path fill="#ffe15a" d="M18.398 21.688c0.055-0.014 0.152-0.138 0.028-0.331s0.421 0.097 0.442 0.255 0.041 0.442-0.083 0.366c-0.124-0.076-0.387-0.29-0.387-0.29z"/><path fill="#ff4b55" d="M17.807 21.709c-0.018-0.101 0-0.17-0.129-0.262s-0.147-0.143-0.147-0.202c0 0 0.070 0.075 0.194 0.106 0.076 0.019 0.141 0.074 0.141 0.074s0.032-0.115-0.083-0.179c0 0 0.202 0 0.235 0.184s-0.074 0.212 0.078 0.23c0.152 0.018 0.506-0.055 0.63 0.225s-0.253 0.078-0.354 0.041c-0.101-0.037-0.423 0.041-0.474-0.028s-0.092-0.189-0.092-0.189z"/><path fill="#fff5e6" d="M19.133 22.213l-0.545-0.897c0 0-0.542-0.209-0.546-0.237s-0.179-0.253-0.179-0.285 0.018-0.189 0.087-0.216c0.069-0.028 0.289 0.065 0.384 0.090s0.246-0.154 0.246-0.154 0.879 0.166 0.943 0.271c0.064 0.106 0.368 0.865 0.382 0.943s0 0.616-0.018 0.607c-0.018-0.009-0.753-0.122-0.753-0.122z"/><path fill="#ff4b55" d="M17.881 20.95c0 0 0.17 0.106 0.262 0.138s0.246-0.14 0.221-0.235c-0.032-0.12-0.17-0.12-0.235-0.216s-0.216-0.097-0.299 0.023c-0.083 0.12 0.051 0.29 0.051 0.29zM18.097 20.809c0.039-0.028 0.119-0.025 0.118 0.029s-0.095 0.114-0.133 0.065c-0.031-0.039-0.010-0.076 0.015-0.094zM17.912 20.693c0.023-0.042 0.095-0.075 0.118-0.026s-0.035 0.144-0.091 0.117c-0.045-0.022-0.043-0.064-0.028-0.091z"/><path fill="#fff5e6" d="M17.656 24.14c-0.092 0.009-0.213-0.003-0.238-0.211-0.029-0.238-0.101-0.321-0.22-0.266s-0.090 0.15-0.090 0.15-0.131 0.345-0.062 0.483c0.069 0.138 0.228 0.304 0.345 0.331s0.359-0.131 0.359-0.131l-0.094-0.357z"/><path fill="#ffe6d7" d="M18.318 23.338c-0.078-0.037-1.044-0.709-1.159-0.962s-0.051-0.437-0.202-0.446c-0.152-0.009-0.41-0.018-0.386-0.207s0.276-0.069 0.345-0.106 0.285-0.138 0.327 0.009c0.041 0.147 0 0.281 0.060 0.354s0.327 0.202 0.373 0.193 0.144-0.021 0.219 0.026c0.075 0.047 0.117 0.112 0.117 0.112s0.283 0.012 0.323 0.049c0.040 0.038 0.192 0.24 0.192 0.24l-0.207 0.736z"/><path fill="#5aa587" d="M18.216 23.186c0 0-0.184-0.069-0.315-0.324s-0.262-0.152-0.456-0.29-0.069-0.345-0.014-0.428 0.017-0.297-0.172-0.29c-0.125 0.005-0.524 0.393-0.345 0.78 0 0 0.028-0.069 0.097-0.152 0 0-0.104 0.255 0.138 0.538 0 0-0.007-0.145 0.069-0.241 0 0 0.007 0.359 0.283 0.587 0 0-0.035-0.235 0.007-0.331 0 0 0.041 0.311 0.449 0.593 0 0-0.062-0.11-0.048-0.29l0.345 0.179-0.037-0.331z"/><path fill="#f5dcd2" d="M20.841 24.366c0 0 0.124 0.38-0.214 0.49s-0.524-0.035-0.649 0c-0.124 0.035-0.097 0.255 0.076 0.442s0.345 0.207 0.538 0.069c0.193-0.138 0.207-0.262 0.407-0.214s0.476-0.145 0.476-0.145-0.179-0.78-0.2-0.773c-0.021 0.007-0.435 0.131-0.435 0.131z"/><path fill="#fff5e6" d="M22.596 23.416c0 0-0.238-0.229-1.164-0.513s-1.421-0.403-1.421-0.403l-0.724-0.229c0 0-0.341-0.001-0.565-0.065s-0.224-0.064-0.224-0.064-0.596 0.843-0.147 1.696l-0.156 0.147c0 0-0.164 0.050-0.288 0.094s-0.033 0.282-0.033 0.282l0.477 0.22 1.393-0.064c0 0 0.027-0.064 0.486 0.082s0.66-0.183 1.54-0.211c0.88-0.028 0.825-0.972 0.825-0.972z"/><path fill="#5aa587" d="M18.635 20.126c0 0-0.14 0.14-0.064 0.29 0 0 0.156-0.161 0.285-0.198 0.198-0.057 0.239 0.052 0.677 0.073 0.276 0.013 0.387 0.277 0.657 0.213 0.289-0.069 0.527 0.063 0.527 0.063s-0.166-0.021-0.3 0.107c-0.135 0.128-0.373 0.1-0.373 0.1s0.217 0.152 0.4 0.079c0.183-0.073 0.445 0.062 0.445 0.062-0.048-0.003-0.155 0.014-0.276 0.141s-0.39 0.097-0.39 0.097c0.048 0.059 0.183 0.124 0.31 0.1 0.288-0.055 0.596 0.073 0.596 0.073s-0.183-0.064-0.431 0.119c-0.247 0.183-0.532 0.073-0.532 0.073 0 0.119 0.248 0.578 0.688 0.563 0.548-0.019 0.687 0.299 0.687 0.299s-0.22-0.073-0.504-0.027c-0.55 0.089-0.926-0.229-0.926-0.229s0.092 0.431 0.467 0.412c0.376-0.018 0.852 0.367 0.852 0.367s-0.424-0.076-0.97-0.083c-0.18-0.002-0.326-0.073-0.451-0.157-0.329-0.222-0.632-0.222-0.632-0.222 0.359 0.083 0.545 0.476 0.545 0.476s-0.276-0.241-0.676-0.241c-0.4 0-0.525-0.469-0.525-0.469 0.373 0.007 0.428-0.297 0.428-0.297s0.11 0.035 0.214 0.159c0.065 0.079 0.176 0.105 0.252 0.116 0.028-0.242-0.155-0.463-0.155-0.463s0.247-0.376-0.073-0.779c-0.321-0.403-1.054-0.275-1.054-0.275-0.076-0.338 0.209-0.549 0.301-0.54z"/><path fill="#5aa587" d="M19.38 21.461c-0.12-0.018-0.676-0.202-0.667-0.451s0.34-0.161 0.322-0.028c-0.018 0.133-0.138 0.106-0.138 0.106s0.012 0.060 0.258 0.11c0.202 0.041 0.225 0.262 0.225 0.262z"/><path fill="#5aa587" d="M17.908 24.078c0 0-0.345-0.055-0.331 0.193s0.212 0.511 0.621 0.626c0 0-0.152-0.131-0.117-0.207s0.207-0.097 0.297 0.035c0.090 0.131 0.241 0.186 0.373 0.166 0 0-0.235-0.172-0.069-0.235 0.149-0.056 0.092 0.186 0.449 0.228 0 0-0.262-0.207-0.11-0.262s0.235 0.304 0.504 0.276c0 0-0.225-0.225-0.104-0.262 0.192-0.058 0.241 0.276 0.587 0.131 0 0-0.172-0.076-0.035-0.262s-0.055-0.421-0.152-0.518c-0.097-0.097-0.166-0.159-0.138-0.255 0 0-0.246 0.154-0.122 0.426 0.117 0.255-0.355 0.114-0.722 0.083-0.377-0.032-0.601 0.184-0.842 0.11-0.225-0.069-0.087-0.271-0.087-0.271z"/><path fill="#5aa587" d="M24.585 24.195c0 0-0.453 0.209-0.709-0.002s-0.326 0.039-0.629-0.145c-0.302-0.183-0.284-0.082-0.522-0.082s-0.412-0.385-0.266-0.651c0 0-0.498-0.193-0.396-0.592 0.076-0.297 0.451-0.205 0.451-0.205s0.395-0.248 0.669 0.073c0.224 0.263 0.101 0.44 0.477 0.486s0.431 0.431 0.834 0.385c0 0-0.275 0.358-0.697 0.128-0 0 0.010 0.345 0.788 0.605z"/><path fill="#5aa587" d="M20.579 24.87c0 0-0.386 0.345 0.373 0.552 0 0-0.048-0.062-0.104-0.173 0 0 0.235 0.173 0.538 0.159 0 0-0.090-0.069-0.11-0.152 0 0 0.276 0.076 0.476-0.055 0 0-0.241-0.014-0.393-0.241 0 0-0.069 0.138-0.214 0.069s-0.228 0.030-0.359 0.035c-0.107 0.003-0.2-0.052-0.207-0.193z"/><path fill="#5aa587" d="M20.77 22.739c0 0 0.276 0.129 0.147 0.373-0.086 0.163-0.355 0.202-0.46 0.051-0.090-0.129-0.018-0.254 0.076-0.271 0.099-0.018 0.159 0.023 0.205 0.106 0 0 0.17-0.064 0.032-0.258z"/><path fill="#5aa587" d="M19.53 23.169c0 0-0.599 0.023-0.569 0.438 0.013 0.183 0.26 0.31 0.416 0.215 0.133-0.082 0.112-0.218 0.042-0.278-0.076-0.067-0.152-0.043-0.227 0.015 0-0-0.038-0.227 0.338-0.389z"/><path fill="#5aa587" d="M18.333 22.361c0 0-0.324-0.217-0.45 0.041-0.055 0.114 0.048 0.276 0.174 0.272 0.108-0.003 0.142-0.091 0.122-0.152-0.023-0.066-0.076-0.078-0.141-0.070 0 0-0.020-0.168 0.294-0.092z"/><path fill="#5aa587" d="M17.893 22.2c0 0-0.298-0.2-0.415 0.038-0.051 0.105 0.044 0.254 0.161 0.251 0.099-0.003 0.131-0.084 0.112-0.14-0.021-0.061-0.070-0.072-0.13-0.064 0 0-0.018-0.155 0.271-0.085z"/><path fill="#5aa587" d="M19.011 23.524c0 0-0.516 0.020-0.49 0.377 0.011 0.157 0.224 0.267 0.358 0.185 0.114-0.070 0.121-0.2 0.071-0.261-0.086-0.107-0.19-0.059-0.19-0.059s-0.073-0.102 0.25-0.242z"/><path fill="#5aa587" d="M18.633 23.807c0 0-0.569-0.055-0.527 0.329 0.011 0.1 0.143 0.171 0.229 0.118 0.073-0.045 0.077-0.128 0.045-0.167-0.055-0.068-0.121-0.038-0.121-0.038s0.036-0.17 0.374-0.242z"/><path fill="#ffe6d7" d="M22.284 25.634c0 0-0.078 0.158-0.128 0.312-0.043 0.131-0.266 0.22-0.385 0.137s-0.32-0.329-0.238-0.384c0.082-0.055 0.439-0.010 0.494-0.203s0.037-0.321 0.037-0.321-0.478 0.142-0.705-0.217c-0.228-0.359-0.195-0.709-0.284-0.883-0.070-0.136-0.192-0.202-0.192-0.202 0.14-0.556 1.851-0.953 1.653 0.489l0.269 0.611-0.519 0.66z"/><path fill="#5aa587" d="M22.891 25.61c-0.117 0.076-0.547 0.294-0.814 0.129-0.218-0.135-0.221-0.29-0.083-0.324s0.214 0.062 0.29 0 0.504-0.414 0.345-0.524c-0.159-0.11-0.245-0.2-0.241-0.393 0.002-0.143 0.127-0.281 0.274-0.294 0.184-0.017 0.327 0.060 0.52 0.060l-0.225 0.115c0.145 0.069 0.156 0.265 0.329 0.299 0 0-0.117 0.133-0.265 0.092 0 0 0.051 0.138 0.189 0.156 0 0-0.129 0.147-0.248 0.189 0 0 0.078 0.055 0.2 0.032 0 0-0.191 0.281-0.476 0.352l0.207 0.113z"/><path fill="#5aa587" d="M22.059 25.085c0 0-0.077-0.013-0.083-0.107-0.004-0.054 0.050-0.124 0.141-0.118 0.107 0.006 0.18 0.148 0.128 0.243-0.131 0.241-0.62 0.144-0.68 0.057-0-0 0.391 0.018 0.494-0.075z"/><path fill="#ffe15a" d="M21.83 26.231c-0.021-0.030-0.038-0.111 0.003-0.161 0 0-0.022-0.116-0.11-0.074 0 0-0.037 0.093-0.008 0.157s0.115 0.078 0.115 0.078z"/><path fill="#ffe15a" d="M21.651 26.167c0.002-0.083 0.020-0.129 0.087-0.136 0 0 0.017-0.121-0.083-0.121 0 0-0.074 0.066-0.075 0.137s0.070 0.12 0.070 0.12z"/><path fill="#ffe15a" d="M21.54 26.086c0.016-0.082 0.032-0.139 0.107-0.144 0 0 0.040-0.099-0.070-0.113 0 0-0.070 0.056-0.084 0.126s0.048 0.131 0.048 0.131z"/><path fill="#ffe15a" d="M21.429 25.959c0.034-0.076 0.068-0.107 0.142-0.096 0 0 0.064-0.090-0.024-0.138 0 0-0.107 0.031-0.136 0.096s0.018 0.138 0.018 0.138z"/><path fill="#ffe15a" d="M20.119 25.492c-0.016-0.033-0.018-0.116 0.031-0.158 0 0-0.002-0.118-0.096-0.093 0 0-0.053 0.084-0.035 0.153s0.099 0.097 0.099 0.097z"/><path fill="#ffe15a" d="M19.954 25.397c0.016-0.082 0.043-0.123 0.11-0.118 0 0 0.038-0.116-0.060-0.134 0 0-0.085 0.051-0.098 0.121s0.048 0.131 0.048 0.131z"/><path fill="#ffe15a" d="M19.859 25.297c0.031-0.078 0.056-0.131 0.131-0.123 0 0 0.057-0.090-0.049-0.123 0 0-0.079 0.043-0.105 0.109s0.024 0.137 0.024 0.137z"/><path fill="#ffe15a" d="M19.772 25.153c0.047-0.069 0.086-0.093 0.157-0.069 0 0 0.079-0.077 0.001-0.14 0 0-0.111 0.011-0.15 0.070s-0.007 0.139-0.007 0.139z"/><path fill="#ffe6d7" d="M17.825 20.904c-0.015 0.075 0.023 0.156 0.202 0.235s0.175 0.046 0.294 0.198c0.12 0.152 0.133 0.156 0.281 0.184s0.216 0.483 0.041 0.414c-0.175-0.069-0.198-0.212-0.391-0.166s-0.294 0.11-0.446-0.060c0 0-0.147 0.198 0.129 0.281s0.427 0.089 0.563 0.153c0.136 0.064 0.62 0.219 0.652-0.233 0.009-0.131-0.087-0.182-0.143-0.278s-0.11-0.161-0.244-0.267-0.051-0.193-0.267-0.225c-0.216-0.032-0.396-0.028-0.46-0.184s-0.193-0.142-0.212-0.050z"/><path fill="#5aa587" d="M21.448 23.097c0 0 0.041-0.165-0.151-0.235 0.045 0.014 0.087 0.026 0.134 0.041 0.040 0.012 0.073 0.024 0.11 0.036 0.015 0.020 0.035 0.030 0.044 0.058 0.058 0.164-0.086 0.376-0.259 0.353-0.147-0.020-0.189-0.149-0.141-0.226 0.050-0.081 0.161-0.1 0.261-0.027z"/><path fill="#5aa587" d="M21.389 24.847c0.209 0.047 0.302-0.034 0.302-0.034s-0.077-0.013-0.083-0.107c-0.004-0.054 0.050-0.124 0.141-0.118 0.107 0.006 0.18 0.148 0.128 0.243-0.113 0.207-0.434 0.158-0.576 0.011-0.007-0.015-0.015-0.030-0.022-0.045 0.031 0.020 0.071 0.042 0.108 0.050z"/><path fill="#5aa587" d="M21.178 24.498c-0.005-0.024-0.013-0.047-0.017-0.070 0.245 0.099 0.317-0.026 0.317-0.026s-0.077-0.013-0.083-0.107c-0.004-0.054 0.050-0.124 0.141-0.118 0.107 0.006 0.18 0.148 0.128 0.243-0.12 0.22-0.333 0.159-0.486 0.078z"/><path fill="#5aa587" d="M20.626 24.615c0.142 0.128 0.251 0.121 0.251 0.121s-0.057-0.053-0.012-0.135c0.026-0.047 0.109-0.076 0.183-0.022 0.086 0.064 0.070 0.222-0.025 0.273-0.233 0.125-0.384-0.069-0.464-0.225 0.022-0.003 0.044-0.008 0.066-0.013z"/><path fill="#ffe15a" d="M16.954 24.492c0.010-0.051 0.064-0.148 0.129-0.154 0 0 0.077-0.136-0.011-0.185 0 0-0.097 0.052-0.129 0.146s0.010 0.194 0.010 0.194z"/><path fill="#ffe15a" d="M16.892 24.245c0.067-0.080 0.115-0.105 0.162-0.043 0 0 0.106-0.1 0.044-0.202 0 0-0.098-0.012-0.155 0.057s-0.051 0.189-0.051 0.189z"/><path fill="#ffe15a" d="M16.887 24.053c0.075-0.063 0.13-0.103 0.181-0.032 0 0 0.103-0.056 0.045-0.182 0 0-0.089-0.017-0.152 0.038s-0.073 0.176-0.073 0.176z"/><path fill="#ffe15a" d="M16.917 23.817c0.081-0.040 0.127-0.035 0.165 0.052 0 0 0.111-0.023 0.094-0.159 0 0-0.091-0.079-0.161-0.045s-0.098 0.153-0.098 0.153z"/><path fill="#f5f5f5" d="M18.824 21.161c0 0.071-0.058 0.129-0.129 0.129s-0.129-0.058-0.129-0.129c0-0.071 0.058-0.129 0.129-0.129s0.129 0.058 0.129 0.129z"/><path fill="#41479b" d="M18.742 21.161c0 0.026-0.021 0.047-0.047 0.047s-0.047-0.021-0.047-0.047c0-0.026 0.021-0.047 0.047-0.047s0.047 0.021 0.047 0.047z"/><path fill="#f5f5f5" d="M18.534 20.691c0 0.058-0.047 0.105-0.105 0.105s-0.105-0.047-0.105-0.105c0-0.058 0.047-0.105 0.105-0.105s0.105 0.047 0.105 0.105z"/><path fill="#41479b" d="M18.467 20.691c0 0.021-0.017 0.038-0.038 0.038s-0.038-0.017-0.038-0.038c0-0.021 0.017-0.038 0.038-0.038s0.038 0.017 0.038 0.038z"/><path fill="#fff5e6" d="M22.145 23.22c0.119 0.092 0.531-0.11 0.821-0.014 0.375 0.125 0.371 0.366 0.371 0.366s-0.233-0.29-0.622-0.147c-0.215 0.079-0.34 0.083-0.34 0.083l-0.23-0.288z"/><path fill="#ffe15a" d="M28.313 23.423c-0.028 0.020-0.041 0.027-0.044 0.029l-11.945 6.899c-0.098 0.056-0.209 0.086-0.322 0.086s-0.224-0.030-0.322-0.086l-11.947-6.895c-0.004-0.003-0.018-0.010-0.046-0.030-0.075-0.052-0.135-0.119-0.181-0.194-0.060-0.099-0.095-0.214-0.095-0.333l-0-2.655-0-1.698-0.001-5.093-0-1.698-0-2.651c0-0.115 0.032-0.225 0.088-0.322 0.047-0.081 0.11-0.152 0.189-0.207 0.028-0.020 0.041-0.027 0.044-0.029l11.945-6.899c0.098-0.056 0.209-0.086 0.322-0.086s0.224 0.030 0.322 0.086l11.947 6.895c0.004 0.002 0.017 0.010 0.046 0.030 0.080 0.056 0.144 0.128 0.191 0.21h1.624c-0.088-0.601-0.42-1.143-0.922-1.492-0.051-0.035-0.103-0.069-0.157-0.101l-11.947-6.895c-0.341-0.197-0.721-0.295-1.102-0.295s-0.762 0.099-1.103 0.296l-11.945 6.899c-0.053 0.030-0.103 0.063-0.152 0.098-0.503 0.348-0.837 0.889-0.925 1.491-0.016 0.106-0.024 0.213-0.024 0.322l0 2.651 0 1.698 0.001 5.093 0 1.698 0 2.655c0 0.113 0.010 0.224 0.026 0.333 0.091 0.595 0.422 1.13 0.92 1.476 0.051 0.035 0.103 0.069 0.157 0.101l11.948 6.895c0.341 0.197 0.722 0.295 1.102 0.295s0.762-0.099 1.103-0.296l11.945-6.899c0.053-0.030 0.103-0.063 0.152-0.098 0.499-0.345 0.831-0.88 0.923-1.475h-1.632c-0.046 0.074-0.106 0.14-0.18 0.191z"/></svg>