<!-- Generated by IcoMoon.io -->
<svg version="1.1" xmlns="http://www.w3.org/2000/svg" width="32" height="32" viewBox="0 0 32 32">
<title>togo</title>
<path fill="#ffe15a" d="M30.153 20.244l-0-1.698-0.001-5.093-0-0.698-0-1-0-2.655c-0-0.725-0.357-1.399-0.946-1.809-0.051-0.035-0.103-0.069-0.157-0.101l-11.948-6.895c-0.682-0.394-1.523-0.394-2.205 0l-11.945 6.899c-0.053 0.030-0.103 0.063-0.152 0.098-0.592 0.41-0.95 1.085-0.95 1.813l0 2.651 0 1 0 0.698 0.001 5.093 0 0.698 0 1 0 2.655c0 0.725 0.357 1.399 0.946 1.809 0.051 0.035 0.103 0.069 0.157 0.101l11.948 6.895c0.682 0.394 1.523 0.394 2.205-0l11.945-6.899c0.053-0.030 0.103-0.063 0.152-0.098 0.592-0.41 0.95-1.085 0.95-1.813l-0-2.651z"></path>
<path fill="#73af00" d="M26.178 5.535l-9.078-5.239c-0.682-0.394-1.523-0.394-2.205 0l-10.339 5.972h22.892l-1.269-0.733z"></path>
<path fill="#73af00" d="M5.801 26.453l9.099 5.251c0.682 0.394 1.523 0.394 2.205-0l10.339-5.972h-22.892l1.248 0.721z"></path>
<path fill="#73af00" d="M30.152 18.547l-0.001-5.093-0-0.698h-28.304l0 0.698 0.001 5.093 0 0.698h28.304z"></path>
<path fill="#ff4b55" d="M14.547 19.23v-18.709c0-0.011-0.012-0.018-0.021-0.012l-11.576 6.686c-0.053 0.030-0.103 0.063-0.152 0.098-0.592 0.41-0.95 1.085-0.95 1.813l0 2.651 0 1.698 0.001 5.093 0 0.683c0 0.008 0.006 0.014 0.014 0.014h12.67c0.008-0 0.014-0.006 0.014-0.014z"></path>
<path fill="#f5f5f5" d="M7.867 8.379l-0.903 2.708-2.854 0.022c-0.156 0.001-0.221 0.201-0.095 0.294l2.296 1.696-0.861 2.721c-0.047 0.149 0.123 0.273 0.25 0.182l2.322-1.66 2.322 1.66c0.127 0.091 0.297-0.032 0.25-0.182l-0.861-2.721 2.296-1.695c0.126-0.093 0.061-0.293-0.095-0.294l-2.854-0.022-0.903-2.708c-0.049-0.148-0.259-0.148-0.309 0z"></path>
</svg>
