<!-- Generated by IcoMoon.io -->
<svg version="1.1" xmlns="http://www.w3.org/2000/svg" width="32" height="32" viewBox="0 0 32 32">
<title>tunisia</title>
<path fill="#ff4b55" d="M1.849 22.9l-0.002-13.795c-0-0.788 0.42-1.516 1.102-1.91l11.945-6.899c0.682-0.394 1.523-0.394 2.205-0l11.948 6.895c0.683 0.394 1.103 1.122 1.103 1.91l0.002 13.795c0 0.788-0.42 1.516-1.102 1.91l-11.945 6.899c-0.682 0.394-1.523 0.394-2.205 0l-11.947-6.895c-0.683-0.394-1.103-1.122-1.103-1.91z"></path>
<path fill="#f5f5f5" d="M16.071 10.064c3.276 0 5.931 2.662 5.931 5.936 0 3.283-2.655 5.936-5.931 5.936-3.283 0-5.941-2.653-5.941-5.936-0-3.274 2.658-5.936 5.941-5.936z"></path>
<path fill="#ff4b55" d="M17.149 19.326c-1.838 0-3.328-1.49-3.328-3.326 0-1.831 1.49-3.321 3.328-3.321 0.625 0 1.209 0.175 1.708 0.477 0.075 0.045 0.153-0.053 0.091-0.114-0.749-0.738-1.774-1.195-2.907-1.195-2.3 0-4.162 1.862-4.162 4.153 0 2.295 1.862 4.157 4.162 4.157 1.132 0 2.157-0.457 2.906-1.194 0.062-0.061-0.016-0.159-0.091-0.114-0.499 0.302-1.083 0.477-1.707 0.477z"></path>
<path fill="#ff4b55" d="M16.845 13.673l0.917 1.246 1.476-0.465c0.191-0.060 0.349 0.157 0.232 0.32l-0.901 1.257 0.898 1.26c0.116 0.163-0.042 0.38-0.233 0.32l-1.474-0.469-0.921 1.243c-0.119 0.161-0.375 0.078-0.376-0.123l-0.010-1.547-1.467-0.491c-0.19-0.064-0.19-0.332 0.001-0.396l1.468-0.488 0.014-1.547c0.002-0.2 0.258-0.283 0.376-0.122z"></path>
</svg>
