<svg xmlns="http://www.w3.org/2000/svg" width="32" height="32" version="1.1" viewBox="0 0 32 32"><title>turks-and-caicos</title><path fill="#f5f5f5" d="M1.849 22.9l-0.002-13.795c-0-0.788 0.42-1.516 1.102-1.91l11.945-6.899c0.682-0.394 1.523-0.394 2.205-0l11.948 6.895c0.682 0.394 1.103 1.122 1.103 1.91l0.002 13.795c0 0.788-0.42 1.516-1.102 1.91l-11.945 6.899c-0.682 0.394-1.523 0.394-2.205 0l-11.947-6.895c-0.682-0.394-1.103-1.122-1.103-1.91z"/><path fill="#ff4b55" d="M2.585 7.459v8.552l1.231 0.457 1.382-0.457v-10.115l-2.249 1.299c-0.132 0.076-0.253 0.165-0.364 0.264z"/><path fill="#ff4b55" d="M6.048 5.405h9.952l0.234-2.058-0.234-2.125h-2.71z"/><path fill="#ff4b55" d="M6.751 6.799l8.754 9.095c0.002-0.001 0.004-0.003 0.005-0.004 0.004-0.003 0.008-0.007 0.011-0.010 0.028-0.021 0.478-0.424 0.478-0.427 0.010-0.229-0.005-0.639-0.003-0.699 0-0.004 0.001-0.007 0.001-0.011l-7.647-7.944-1.6-0z"/><path fill="#41479b" d="M30.151 9.1c-0-0.788-0.421-1.516-1.103-1.91l-11.948-6.895c-0.34-0.196-0.72-0.295-1.1-0.295v6.655h-6.636l6.636 6.959v1.060c0 0.023-0.001 0.046-0.002 0.069v0c-0 0.004-0.001 0.007-0.001 0.011-0.002 0.060-0.007 0.119-0.014 0.177-0.001 0.009-0.003 0.017-0.004 0.026-0.032 0.234-0.101 0.445-0.198 0.616-0.001 0.002-0.003 0.005-0.004 0.007-0.050 0.086-0.107 0.162-0.169 0.225-0.002 0.002-0.004 0.004-0.006 0.006-0.026 0.025-0.053 0.048-0.081 0.069-0.004 0.003-0.008 0.006-0.011 0.010-0.002 0.001-0.004 0.003-0.005 0.004v0c-0.104 0.075-0.219 0.117-0.34 0.117h-1.45l-7.735-8.111v8.111h-4.131l0.001 6.889c0 0.788 0.421 1.516 1.103 1.91l11.948 6.895c0.682 0.394 1.523 0.394 2.205-0l11.945-6.899c0.682-0.394 1.102-1.122 1.102-1.91l-0.002-13.795z"/><path fill="#ffe15a" d="M20.291 13.032c-0.081 0-0.146 0.066-0.146 0.146v2.488c0 4.975 3.512 5.853 3.512 5.853s3.512-0.878 3.512-5.853v-2.488c0-0.081-0.066-0.146-0.146-0.146h-6.731z"/><path fill="#f5f5f5" d="M26.803 13.398v2.268c0 4.232-2.616 5.299-3.146 5.472-0.533-0.174-3.146-1.242-3.146-5.472v-2.268h6.292zM27.023 13.032h-6.731c-0.081 0-0.146 0.066-0.146 0.146v2.488c0 4.975 3.512 5.853 3.512 5.853s3.512-0.878 3.512-5.853v-2.488c0-0.081-0.066-0.146-0.146-0.146v0z"/><path fill="#73af00" d="M24.050 17.667h-0.749c0 0-0.604 0.604-0.742 1.93-0.004 0.042 0.013 0.085 0.046 0.111 0.127 0.099 0.484 0.329 1.070 0.329s0.943-0.23 1.070-0.329c0.034-0.026 0.051-0.069 0.046-0.111-0.139-1.326-0.742-1.93-0.742-1.93z"/><path fill="#ff4b55" d="M24.050 17.542h-0.749v-0.649c0-0.192 0.157-0.349 0.349-0.349h0.051c0.192 0 0.349 0.157 0.349 0.349l-0 0.649z"/><path fill="#ff4b55" d="M24.058 17.792h-0.765c-0.064 0-0.116-0.052-0.116-0.116v-0.017c0-0.064 0.052-0.116 0.116-0.116h0.765c0.064 0 0.116 0.052 0.116 0.116v0.017c0 0.064-0.052 0.116-0.116 0.116z"/><path fill="#d35a10" d="M26.545 15.033c-0.022 0-0.348 0.002-0.686 0.060v-0.195c0.286-0.13 0.566-0.198 0.571-0.199 0.034-0.008 0.054-0.041 0.047-0.075s-0.041-0.054-0.075-0.046c-0.019 0.004-0.27 0.065-0.544 0.184-0.004-0.075-0.030-0.143-0.073-0.2 0.224-0.173 0.414-0.283 0.418-0.285 0.030-0.017 0.040-0.055 0.023-0.085s-0.055-0.040-0.085-0.023c-0.015 0.009-0.215 0.124-0.447 0.305-0.060-0.040-0.131-0.064-0.209-0.064-0.080 0-0.154 0.026-0.215 0.069 0.064-0.321 0.195-0.46 0.197-0.462 0.024-0.024 0.024-0.064-0-0.088s-0.064-0.024-0.088 0c-0.008 0.007-0.129 0.133-0.205 0.414-0.077-0.281-0.198-0.406-0.205-0.414-0.024-0.024-0.063-0.024-0.088-0s-0.025 0.064-0.001 0.088c0.002 0.002 0.133 0.141 0.197 0.462-0.061-0.043-0.135-0.069-0.215-0.069-0.077 0-0.149 0.024-0.209 0.064-0.232-0.181-0.432-0.296-0.447-0.305-0.030-0.017-0.068-0.007-0.085 0.023s-0.007 0.068 0.023 0.085c0.003 0.002 0.194 0.112 0.418 0.285-0.042 0.057-0.068 0.125-0.073 0.2-0.274-0.119-0.526-0.18-0.544-0.184-0.034-0.008-0.067 0.013-0.075 0.046s0.013 0.067 0.047 0.075c0.005 0.001 0.285 0.069 0.571 0.199v0.195c-0.339-0.058-0.664-0.060-0.686-0.060-0.034 0-0.062 0.028-0.062 0.062s0.028 0.062 0.062 0.062c0.005 0 0.346 0.001 0.686 0.062v0.202c-0.187-0.006-0.396 0.021-0.589 0.117-0.031 0.015-0.043 0.053-0.028 0.084 0.011 0.022 0.033 0.034 0.056 0.034 0.009 0 0.019-0.002 0.028-0.007 0.172-0.086 0.362-0.108 0.534-0.103v0.772c0 0.094-0.009 0.189-0.028 0.281l-0.096 0.478c-0.007 0.034 0.015 0.067 0.049 0.073 0.004 0.001 0.008 0.001 0.012 0.001 0.029 0 0.055-0.020 0.061-0.050l0.096-0.478c0.020-0.101 0.030-0.203 0.030-0.306v-0.763c0.094 0.010 0.178 0.027 0.245 0.044l0.048 0.618c0.006 0.077 0.044 0.144 0.101 0.189l-0.202 0.303c-0.108 0.163 0.008 0.38 0.204 0.38h0.333c0.195 0 0.312-0.218 0.204-0.38l-0.202-0.303c0.056-0.045 0.095-0.112 0.101-0.189l0.047-0.618c0.068-0.017 0.152-0.034 0.245-0.044v0.763c0 0.102 0.010 0.205 0.030 0.306l0.096 0.478c0.006 0.030 0.032 0.050 0.061 0.050 0.004 0 0.008-0 0.012-0.001 0.034-0.007 0.056-0.040 0.049-0.073l-0.096-0.478c-0.018-0.093-0.028-0.187-0.028-0.281v-0.772c0.172-0.006 0.361 0.017 0.534 0.103 0.009 0.004 0.018 0.007 0.028 0.007 0.023 0 0.045-0.013 0.056-0.034 0.015-0.031 0.003-0.068-0.028-0.084-0.193-0.097-0.402-0.123-0.589-0.117v-0.202c0.34-0.060 0.681-0.062 0.686-0.062 0.034 0 0.062-0.028 0.062-0.062s-0.028-0.062-0.062-0.062zM25.734 15.117c-0.075 0.016-0.148 0.035-0.217 0.058-0.001-0.025-0.005-0.048-0.011-0.071 0.069-0.053 0.147-0.102 0.228-0.145v0.158zM25.734 14.783v0.034c-0.099 0.049-0.196 0.106-0.283 0.171-0.018-0.025-0.039-0.047-0.063-0.066 0.093-0.103 0.197-0.199 0.299-0.284 0.029 0.041 0.047 0.091 0.047 0.145zM25.484 14.534c0.037 0 0.072 0.009 0.104 0.023-0.108 0.091-0.217 0.194-0.315 0.305-0.013-0.004-0.025-0.008-0.039-0.010v-0.007c0-0.028 0.001-0.055 0.002-0.082 0.010-0.128 0.117-0.23 0.248-0.23zM24.861 14.534c0.131 0 0.237 0.102 0.247 0.23 0.001 0.027 0.002 0.054 0.002 0.082v0.007c-0.013 0.002-0.026 0.006-0.039 0.010-0.098-0.112-0.207-0.215-0.315-0.305 0.032-0.015 0.067-0.023 0.104-0.023zM24.611 14.783c0-0.054 0.018-0.104 0.047-0.145 0.102 0.085 0.206 0.18 0.299 0.284-0.024 0.019-0.045 0.041-0.063 0.066-0.087-0.065-0.184-0.121-0.283-0.171v-0.035zM24.611 14.959c0.081 0.043 0.159 0.091 0.228 0.145-0.006 0.023-0.010 0.047-0.011 0.071-0.069-0.023-0.143-0.042-0.217-0.058v-0.158zM24.611 15.43v-0.185c0.078 0.018 0.154 0.039 0.223 0.065l0.012 0.16c-0.068-0.016-0.148-0.030-0.235-0.039zM25.734 15.43c-0.088 0.009-0.167 0.024-0.235 0.039l0.012-0.16c0.069-0.026 0.145-0.047 0.223-0.065v0.185z"/><path fill="#ffa033" d="M22.603 16.717h-0.28l-1.071-0.952c-0.117-0.104-0.166-0.264-0.129-0.416l0.299-1.194c0.026-0.106 0.158-0.142 0.235-0.065l0.485 0.485c0.026 0.026 0.062 0.041 0.099 0.041h0.362v2.102h0z"/><path fill="#ff9480" d="M22.402 14.328l-0.172 0.774c-0.031 0.14-0.026 0.286 0.015 0.424l0.357 1.191h0.28l0.357-1.191c0.041-0.138 0.047-0.284 0.015-0.424l-0.172-0.774c-0.035-0.16-0.177-0.273-0.341-0.273h-0.001c-0.163-0-0.305 0.114-0.341 0.273z"/><path fill="#ffa0e4" d="M22.753 14.335h-0.019c-0.072 0-0.131 0.059-0.131 0.131v2.252h0.28v-2.252c0-0.072-0.059-0.131-0.131-0.131z"/></svg>