<!-- Generated by IcoMoon.io -->
<svg version="1.1" xmlns="http://www.w3.org/2000/svg" width="32" height="32" viewBox="0 0 32 32">
<title>turkey</title>
<path fill="#ff4b55" d="M1.849 22.9l-0.002-13.795c-0-0.788 0.42-1.516 1.102-1.91l11.945-6.899c0.682-0.394 1.523-0.394 2.205-0l11.948 6.895c0.682 0.394 1.103 1.122 1.103 1.91l0.002 13.795c0 0.788-0.42 1.516-1.102 1.91l-11.945 6.899c-0.682 0.394-1.523 0.394-2.205 0l-11.947-6.895c-0.683-0.394-1.103-1.122-1.103-1.91z"></path>
<path fill="#f5f5f5" d="M15.242 14.395l0.734 0.96 1.146-0.384c0.064-0.021 0.119 0.051 0.080 0.107l-0.686 0.995 0.719 0.971c0.040 0.054-0.012 0.129-0.077 0.109l-1.158-0.345-0.702 0.984c-0.039 0.055-0.126 0.028-0.128-0.039l-0.029-1.208-1.153-0.363c-0.064-0.020-0.066-0.111-0.002-0.134l1.14-0.401-0.011-1.209c-0.001-0.068 0.085-0.097 0.126-0.043z"></path>
<path fill="#f5f5f5" d="M11.183 19.749c-2.069 0-3.747-1.678-3.747-3.749 0-2.067 1.678-3.749 3.747-3.749 0.77 0 1.479 0.237 2.071 0.637 0.091 0.061 0.194-0.058 0.118-0.136-0.884-0.919-2.135-1.48-3.523-1.433-2.383 0.081-4.356 1.992-4.509 4.372-0.174 2.726 1.984 4.991 4.671 4.991 1.324 0 2.514-0.553 3.363-1.438 0.075-0.078-0.029-0.195-0.118-0.135-0.592 0.401-1.303 0.638-2.074 0.638z"></path>
</svg>
