<svg xmlns="http://www.w3.org/2000/svg" width="32" height="32" version="1.1" viewBox="0 0 32 32"><title>tuvalu</title><path fill="#f5f5f5" d="M1.849 22.9l-0.002-13.795c-0-0.788 0.42-1.516 1.102-1.91l11.945-6.899c0.682-0.394 1.523-0.394 2.205-0l11.948 6.895c0.682 0.394 1.103 1.122 1.103 1.91l0.002 13.795c0 0.788-0.42 1.516-1.102 1.91l-11.945 6.899c-0.682 0.394-1.523 0.394-2.205 0l-11.947-6.895c-0.682-0.394-1.103-1.122-1.103-1.91z"/><path fill="#ff4b55" d="M2.585 7.459v8.552l1.231 0.457 1.382-0.457v-10.115l-2.249 1.299c-0.132 0.076-0.253 0.165-0.364 0.264z"/><path fill="#ff4b55" d="M6.048 5.405h9.952l0.234-2.058-0.234-2.125h-2.71z"/><path fill="#ff4b55" d="M6.751 6.799l8.754 9.095c0.002-0.001 0.004-0.003 0.005-0.004 0.004-0.003 0.008-0.007 0.011-0.010 0.028-0.021 0.478-0.424 0.478-0.427 0.010-0.229-0.005-0.639-0.003-0.699 0-0.004 0.001-0.007 0.001-0.011l-7.647-7.944-1.6-0z"/><path fill="#3cc8ff" d="M30.151 9.1c-0-0.788-0.421-1.516-1.103-1.91l-11.948-6.895c-0.34-0.196-0.72-0.295-1.1-0.295v6.655h-6.636l6.636 6.959v1.060c0 0.023-0.001 0.046-0.002 0.069v0c-0 0.004-0.001 0.007-0.001 0.011-0.002 0.060-0.007 0.119-0.014 0.177-0.001 0.009-0.003 0.017-0.004 0.026-0.032 0.234-0.101 0.445-0.198 0.616-0.001 0.002-0.003 0.005-0.004 0.007-0.050 0.086-0.107 0.162-0.169 0.225-0.002 0.002-0.004 0.004-0.006 0.006-0.026 0.025-0.053 0.048-0.081 0.069-0.004 0.003-0.008 0.006-0.011 0.010-0.002 0.001-0.004 0.003-0.005 0.004v0c-0.104 0.075-0.219 0.117-0.34 0.117h-1.45l-7.735-8.111v8.111h-4.131l0.001 6.889c0 0.788 0.421 1.516 1.103 1.91l11.948 6.895c0.682 0.394 1.523 0.394 2.205-0l11.945-6.899c0.682-0.394 1.102-1.122 1.102-1.91l-0.002-13.795z"/><path fill="#ffe15a" d="M17.625 24.217l0.233 0.698 0.736 0.006c0.095 0.001 0.135 0.122 0.058 0.179l-0.592 0.437 0.222 0.702c0.029 0.091-0.075 0.166-0.152 0.111l-0.599-0.428-0.599 0.428c-0.078 0.055-0.181-0.020-0.152-0.111l0.222-0.702-0.592-0.437c-0.077-0.057-0.037-0.178 0.058-0.179l0.736-0.006 0.233-0.698c0.030-0.090 0.158-0.090 0.188 0z"/><path fill="#ffe15a" d="M24.398 18.95l0.233 0.698 0.736 0.006c0.095 0.001 0.135 0.122 0.058 0.179l-0.592 0.437 0.222 0.702c0.029 0.091-0.075 0.166-0.152 0.111l-0.599-0.428-0.599 0.428c-0.078 0.055-0.181-0.020-0.152-0.111l0.222-0.702-0.592-0.437c-0.077-0.057-0.037-0.178 0.058-0.179l0.736-0.006 0.233-0.698c0.030-0.090 0.158-0.090 0.188 0z"/><path fill="#ffe15a" d="M27.591 16.992l0.233 0.698 0.736 0.006c0.095 0.001 0.135 0.122 0.058 0.179l-0.592 0.437 0.222 0.702c0.029 0.091-0.075 0.166-0.152 0.111l-0.599-0.428-0.599 0.428c-0.078 0.055-0.181-0.020-0.152-0.111l0.222-0.702-0.592-0.437c-0.077-0.057-0.037-0.178 0.058-0.179l0.736-0.006 0.233-0.698c0.030-0.090 0.158-0.090 0.188 0z"/><path fill="#ffe15a" d="M26.829 10.276l0.233 0.698 0.736 0.006c0.095 0.001 0.135 0.122 0.058 0.179l-0.592 0.437 0.222 0.702c0.029 0.091-0.075 0.166-0.152 0.111l-0.599-0.428-0.599 0.428c-0.078 0.055-0.181-0.020-0.152-0.111l0.222-0.702-0.592-0.437c-0.077-0.057-0.037-0.178 0.058-0.179l0.736-0.006 0.233-0.698c0.030-0.090 0.158-0.090 0.188 0z"/><path fill="#ffe15a" d="M20.456 25.962l-0.233-0.698-0.736-0.006c-0.095-0.001-0.135-0.122-0.058-0.179l0.592-0.437-0.222-0.702c-0.029-0.091 0.075-0.166 0.152-0.111l0.599 0.428 0.599-0.428c0.078-0.055 0.181 0.020 0.152 0.111l-0.222 0.702 0.592 0.437c0.077 0.057 0.037 0.178-0.058 0.179l-0.736 0.006-0.233 0.698c-0.030 0.090-0.158 0.090-0.188 0z"/><path fill="#ffe15a" d="M22.657 23.986l-0.233-0.698-0.736-0.006c-0.095-0.001-0.135-0.122-0.058-0.179l0.592-0.437-0.222-0.702c-0.029-0.091 0.075-0.166 0.152-0.111l0.599 0.428 0.599-0.428c0.078-0.055 0.181 0.020 0.152 0.111l-0.222 0.702 0.592 0.437c0.077 0.057 0.037 0.178-0.058 0.179l-0.736 0.006-0.233 0.698c-0.030 0.090-0.158 0.090-0.188 0z"/><path fill="#ffe15a" d="M24.638 15.371l-0.233-0.698-0.736-0.006c-0.095-0.001-0.135-0.122-0.058-0.179l0.592-0.437-0.222-0.702c-0.029-0.091 0.075-0.166 0.152-0.111l0.599 0.428 0.599-0.428c0.078-0.055 0.181 0.020 0.152 0.111l-0.222 0.702 0.592 0.437c0.077 0.057 0.037 0.178-0.058 0.179l-0.736 0.006-0.233 0.698c-0.030 0.090-0.158 0.090-0.188 0z"/><path fill="#ffe15a" d="M22.352 16.105l-0.233-0.698-0.736-0.006c-0.095-0.001-0.135-0.122-0.058-0.179l0.592-0.437-0.222-0.702c-0.029-0.091 0.075-0.166 0.152-0.111l0.599 0.428 0.599-0.428c0.078-0.055 0.181 0.020 0.152 0.111l-0.222 0.702 0.592 0.437c0.077 0.057 0.037 0.178-0.058 0.179l-0.736 0.006-0.233 0.698c-0.030 0.090-0.158 0.090-0.188 0z"/><path fill="#ffe15a" d="M20.889 21.804l-0.233-0.698-0.736-0.006c-0.095-0.001-0.135-0.122-0.058-0.179l0.592-0.437-0.222-0.702c-0.029-0.091 0.075-0.166 0.152-0.111l0.599 0.428 0.599-0.428c0.078-0.055 0.181 0.020 0.152 0.111l-0.222 0.702 0.592 0.437c0.077 0.057 0.037 0.178-0.058 0.179l-0.736 0.006-0.233 0.698c-0.030 0.090-0.158 0.090-0.188 0z"/></svg>