<svg xmlns="http://www.w3.org/2000/svg" width="32" height="32" version="1.1" viewBox="0 0 32 32"><title>united-arab-emirates</title><path fill="#f5f5f5" d="M30.153 21.337l-0.002-10.83-0-1.406c-0-0.788-0.421-1.516-1.103-1.91l-11.948-6.895c-0.682-0.394-1.523-0.394-2.205 0l-11.945 6.899c-0.682 0.394-1.103 1.122-1.102 1.91l0.002 13.795c0 0.788 0.421 1.516 1.103 1.91l11.948 6.895c0.682 0.394 1.523 0.394 2.205-0l11.945-6.899c0.682-0.394 1.102-1.122 1.102-1.91l-0-1.558z"/><path fill="#73af00" d="M30.151 10.507l-0-1.406c-0-0.788-0.421-1.516-1.103-1.91l-11.948-6.895c-0.682-0.394-1.523-0.394-2.205 0l-4.346 2.51-0.797 4.056 0.797 3.645 19.602-0z"/><path fill="#464655" d="M10.549 29.194l4.351 2.511c0.682 0.394 1.523 0.394 2.205-0l11.945-6.899c0.682-0.394 1.102-1.122 1.102-1.91l-0-1.558h-19.604l-0.953 3.645 0.953 4.212z"/><path fill="#ff4b55" d="M1.847 9.105l0.002 13.795c0 0.788 0.421 1.516 1.103 1.91l7.597 4.384v-26.388l-7.599 4.389c-0.682 0.394-1.103 1.122-1.102 1.91z"/></svg>