<!-- Generated by IcoMoon.io -->
<svg version="1.1" xmlns="http://www.w3.org/2000/svg" width="32" height="32" viewBox="0 0 32 32">
<title>united-states</title>
<path fill="#f5f5f5" d="M30.153 22.18l-0-2.472-0-2.472-0.001-7.416-0-0.72c-0-0.693-0.325-1.338-0.867-1.752-0.075-0.057-0.153-0.11-0.236-0.158l-11.948-6.895c-0.38-0.219-0.809-0.316-1.232-0.291-0.337 0.020-0.671 0.117-0.974 0.291l-11.945 6.899c-0.078 0.045-0.419 0.315-0.419 0.315-0.431 0.411-0.684 0.985-0.684 1.595l0 0.278 0 0.437 0 0.606 0 1.866v0.028l0 1.042 0 1.402 0 1.747 0 0.724 0 2.472 0 2.472 0 0.72c0 0.692 0.325 1.338 0.867 1.752 0.075 0.057 0.153 0.11 0.236 0.158l11.948 6.895c0.682 0.394 1.523 0.394 2.205-0l11.945-6.899c0.080-0.047 0.157-0.098 0.23-0.153 0.545-0.414 0.873-1.062 0.873-1.757l-0-0.715z"></path>
<path fill="#ff4b55" d="M15.871 2.404h4.884l-3.654-2.109c-0.38-0.219-0.809-0.316-1.232-0.291 0.001 0.016 0.002 0.033 0.002 0.049v2.351z"></path>
<path fill="#ff4b55" d="M15.871 12.292h14.281l-0-2.472h-14.28z"></path>
<path fill="#ff4b55" d="M15.871 7.348h13.413c-0.075-0.057-0.153-0.11-0.236-0.158l-4.010-2.314h-9.167v2.472h-0z"></path>
<path fill="#ff4b55" d="M15.871 15.666c0 0.467-0.379 0.846-0.846 0.846h-13.177l0 0.724h28.304l-0-2.472h-14.281v0.902z"></path>
<path fill="#ff4b55" d="M2.952 24.809l4.010 2.314h18.074l4.015-2.319c0.080-0.047 0.157-0.098 0.23-0.153h-26.564c0.075 0.057 0.153 0.11 0.236 0.157z"></path>
<path fill="#ff4b55" d="M14.9 31.705c0.682 0.394 1.523 0.394 2.205-0l3.651-2.109h-9.51l3.654 2.109z"></path>
<path fill="#ff4b55" d="M1.849 22.18h28.304l-0-2.472h-28.304z"></path>
<path fill="#41479b" d="M15.868 0.004c-0.337 0.020-0.671 0.117-0.974 0.291l-11.945 6.899c-0.078 0.045-0.419 0.315-0.419 0.315-0.431 0.411-0.684 0.985-0.684 1.595l0 0.278 0 0.437 0 0.606 0 1.866v0.028l0 1.042 0 1.402 0 1.747h13.177c0.467 0 0.846-0.379 0.846-0.846v-15.613c-0-0.017-0.002-0.033-0.003-0.049z"></path>
<path fill="#f5f5f5" d="M5.319 8.513l-0.592-0.005-0.187-0.561c-0.005-0.014-0.013-0.025-0.023-0.034-0.030-0.027-0.076-0.027-0.106 0-0.010 0.009-0.018 0.019-0.023 0.034l-0.187 0.561-0.592 0.005c-0.077 0.001-0.108 0.098-0.047 0.144l0.476 0.352-0.178 0.564c-0.023 0.073 0.060 0.133 0.122 0.089l0.481-0.344 0.481 0.344c0.062 0.044 0.146-0.016 0.122-0.089l-0.178-0.564 0.476-0.352c0.062-0.045 0.030-0.143-0.047-0.144z"></path>
<path fill="#f5f5f5" d="M5.319 11.45l-0.592-0.005-0.187-0.561c-0.024-0.073-0.127-0.073-0.151 0l-0.187 0.561-0.592 0.005c-0.077 0.001-0.108 0.098-0.047 0.144l0.476 0.352-0.178 0.564c-0.023 0.073 0.060 0.133 0.122 0.089l0.481-0.344 0.481 0.344c0.062 0.044 0.146-0.016 0.122-0.089l-0.178-0.564 0.476-0.352c0.061-0.046 0.030-0.143-0.047-0.144z"></path>
<path fill="#f5f5f5" d="M5.319 14.386l-0.592-0.005-0.187-0.561c-0.024-0.073-0.127-0.073-0.151 0l-0.187 0.561-0.592 0.005c-0.077 0.001-0.108 0.098-0.047 0.144l0.476 0.352-0.179 0.564c-0.023 0.073 0.060 0.133 0.122 0.089l0.481-0.344 0.481 0.344c0.062 0.044 0.146-0.016 0.122-0.089l-0.037-0.116-0.142-0.448 0.476-0.352c0.062-0.046 0.030-0.143-0.047-0.144z"></path>
<path fill="#f5f5f5" d="M7.599 7.016l-0.592-0.005-0.187-0.561c-0.024-0.073-0.127-0.073-0.151 0l-0.187 0.561-0.592 0.005c-0.077 0.001-0.108 0.098-0.047 0.144l0.476 0.352-0.178 0.564c-0.023 0.073 0.060 0.133 0.122 0.089l0.481-0.344 0.481 0.344c0.062 0.044 0.146-0.016 0.122-0.089l-0.051-0.162-0.127-0.402 0.476-0.352c0.062-0.046 0.030-0.143-0.047-0.144z"></path>
<path fill="#f5f5f5" d="M7.645 10.097c0.062-0.046 0.030-0.143-0.047-0.144l-0.592-0.005-0.187-0.561c-0.024-0.073-0.127-0.073-0.151 0l-0.187 0.561-0.592 0.005c-0.077 0.001-0.108 0.098-0.047 0.144l0.476 0.352-0.178 0.564c-0.023 0.073 0.060 0.133 0.122 0.089l0.481-0.344 0.481 0.344c0.062 0.044 0.146-0.016 0.122-0.089l-0.178-0.564 0.476-0.352z"></path>
<path fill="#f5f5f5" d="M7.599 12.889l-0.592-0.005-0.009-0.027-0.178-0.534c-0.024-0.073-0.127-0.073-0.151 0l-0.187 0.561-0.592 0.005c-0.077 0.001-0.108 0.098-0.047 0.144l0.476 0.352-0.178 0.564c-0.023 0.073 0.060 0.133 0.122 0.089l0.481-0.344 0.481 0.344c0.062 0.044 0.146-0.016 0.122-0.089l-0.178-0.564 0.476-0.352c0.062-0.046 0.030-0.143-0.047-0.144z"></path>
<path fill="#f5f5f5" d="M9.878 5.576l-0.592-0.005-0.187-0.561c-0.024-0.073-0.127-0.073-0.151 0l-0.187 0.561-0.592 0.005c-0.077 0.001-0.108 0.098-0.047 0.144l0.476 0.352-0.178 0.564c-0.023 0.073 0.060 0.133 0.122 0.089l0.481-0.344 0.481 0.344c0.062 0.045 0.146-0.016 0.122-0.089l-0.178-0.564 0.476-0.352c0.062-0.045 0.030-0.143-0.047-0.144z"></path>
<path fill="#f5f5f5" d="M9.878 8.513l-0.592-0.005-0.187-0.561c-0.005-0.014-0.013-0.025-0.023-0.034-0.030-0.027-0.076-0.027-0.106 0-0.010 0.009-0.018 0.019-0.023 0.034l-0.187 0.561-0.592 0.005c-0.077 0.001-0.108 0.098-0.047 0.144l0.476 0.352-0.178 0.564c-0.023 0.073 0.060 0.133 0.122 0.089l0.481-0.344 0.481 0.344c0.062 0.044 0.146-0.016 0.122-0.089l-0.178-0.564 0.476-0.352c0.062-0.045 0.030-0.143-0.047-0.144z"></path>
<path fill="#f5f5f5" d="M9.878 11.45l-0.592-0.005-0.187-0.561c-0.024-0.073-0.127-0.073-0.151 0l-0.187 0.561-0.592 0.005c-0.077 0.001-0.108 0.098-0.047 0.144l0.476 0.352-0.178 0.564c-0.023 0.073 0.060 0.133 0.122 0.089l0.481-0.344 0.481 0.344c0.062 0.044 0.146-0.016 0.122-0.089l-0.178-0.564 0.476-0.352c0.062-0.046 0.030-0.143-0.047-0.144z"></path>
<path fill="#f5f5f5" d="M9.878 14.386l-0.592-0.005-0.187-0.561c-0.024-0.073-0.127-0.073-0.151 0l-0.187 0.561-0.592 0.005c-0.077 0.001-0.108 0.098-0.047 0.144l0.476 0.352-0.179 0.564c-0.023 0.073 0.060 0.133 0.122 0.089l0.482-0.344 0.481 0.344c0.062 0.044 0.146-0.016 0.122-0.089l-0.037-0.116-0.142-0.448 0.476-0.352c0.062-0.046 0.030-0.143-0.047-0.144z"></path>
<path fill="#f5f5f5" d="M10.877 4.575l-0.178 0.564c-0.023 0.073 0.060 0.133 0.122 0.089l0.481-0.344 0.481 0.344c0.062 0.045 0.146-0.016 0.122-0.089l-0.178-0.564 0.476-0.352c0.062-0.046 0.030-0.143-0.047-0.144l-0.592-0.005-0.187-0.561c-0.024-0.073-0.127-0.073-0.151 0l-0.187 0.561-0.592 0.005c-0.077 0.001-0.108 0.098-0.047 0.144l0.476 0.352z"></path>
<path fill="#f5f5f5" d="M12.157 7.016l-0.592-0.005-0.187-0.561c-0.024-0.073-0.127-0.073-0.151 0l-0.187 0.561-0.592 0.005c-0.077 0.001-0.108 0.098-0.047 0.144l0.476 0.352-0.178 0.564c-0.023 0.073 0.060 0.133 0.122 0.089l0.481-0.344 0.481 0.344c0.062 0.044 0.146-0.016 0.122-0.089l-0.051-0.162-0.127-0.402 0.476-0.352c0.062-0.046 0.030-0.143-0.047-0.144z"></path>
<path fill="#f5f5f5" d="M12.204 10.097c0.062-0.046 0.030-0.143-0.047-0.144l-0.592-0.005-0.187-0.561c-0.024-0.073-0.127-0.073-0.151 0l-0.187 0.561-0.592 0.005c-0.077 0.001-0.108 0.098-0.047 0.144l0.476 0.352-0.178 0.564c-0.023 0.073 0.060 0.133 0.122 0.089l0.481-0.344 0.481 0.344c0.062 0.044 0.146-0.016 0.122-0.089l-0.178-0.564 0.476-0.352z"></path>
<path fill="#f5f5f5" d="M12.157 12.889l-0.592-0.005-0.009-0.027-0.178-0.534c-0.024-0.073-0.127-0.073-0.151 0l-0.187 0.561-0.592 0.005c-0.077 0.001-0.108 0.098-0.047 0.144l0.476 0.352-0.178 0.564c-0.023 0.073 0.060 0.133 0.122 0.089l0.481-0.344 0.481 0.344c0.062 0.044 0.146-0.016 0.122-0.089l-0.178-0.564 0.476-0.352c0.062-0.046 0.030-0.143-0.047-0.144z"></path>
<path fill="#f5f5f5" d="M14.437 2.64l-0.592-0.005-0.187-0.561c-0.024-0.073-0.127-0.073-0.151 0l-0.187 0.561-0.592 0.005c-0.077 0.001-0.108 0.098-0.047 0.144l0.476 0.352-0.178 0.564c-0.023 0.073 0.060 0.134 0.122 0.089l0.481-0.344 0.481 0.344c0.062 0.045 0.146-0.016 0.122-0.089l-0.179-0.564 0.476-0.352c0.062-0.046 0.030-0.143-0.047-0.144z"></path>
<path fill="#f5f5f5" d="M14.437 5.576l-0.592-0.005-0.187-0.561c-0.024-0.073-0.127-0.073-0.151 0l-0.187 0.561-0.592 0.005c-0.077 0.001-0.108 0.098-0.047 0.144l0.476 0.352-0.178 0.564c-0.023 0.073 0.060 0.133 0.122 0.089l0.481-0.344 0.481 0.344c0.062 0.045 0.146-0.016 0.122-0.089l-0.179-0.564 0.476-0.352c0.062-0.045 0.030-0.143-0.046-0.144z"></path>
<path fill="#f5f5f5" d="M14.437 8.513l-0.592-0.005-0.187-0.561c-0.005-0.014-0.013-0.025-0.023-0.034-0.030-0.027-0.076-0.027-0.106 0-0.010 0.009-0.018 0.019-0.023 0.034l-0.187 0.561-0.592 0.005c-0.077 0.001-0.108 0.098-0.047 0.144l0.476 0.352-0.178 0.564c-0.023 0.073 0.060 0.133 0.122 0.089l0.481-0.344 0.481 0.344c0.062 0.044 0.146-0.016 0.122-0.089l-0.179-0.564 0.476-0.352c0.062-0.045 0.030-0.143-0.046-0.144z"></path>
<path fill="#f5f5f5" d="M13.157 11.945l-0.178 0.564c-0.023 0.073 0.060 0.133 0.122 0.089l0.481-0.344 0.481 0.344c0.062 0.044 0.146-0.016 0.122-0.089l-0.179-0.564 0.476-0.352c0.062-0.046 0.030-0.143-0.047-0.144l-0.592-0.005-0.187-0.561c-0.024-0.073-0.127-0.073-0.151 0l-0.187 0.561-0.592 0.005c-0.077 0.001-0.108 0.098-0.047 0.144l0.476 0.352z"></path>
<path fill="#f5f5f5" d="M14.437 14.386l-0.592-0.005-0.187-0.561c-0.024-0.073-0.127-0.073-0.151 0l-0.187 0.561-0.592 0.005c-0.077 0.001-0.108 0.098-0.047 0.144l0.476 0.352-0.178 0.564c-0.023 0.073 0.060 0.133 0.122 0.089l0.481-0.344 0.481 0.344c0.062 0.044 0.146-0.016 0.122-0.089l-0.037-0.116-0.142-0.448 0.476-0.352c0.062-0.046 0.030-0.143-0.047-0.144z"></path>
</svg>
