<svg xmlns="http://www.w3.org/2000/svg" width="32" height="32" version="1.1" viewBox="0 0 32 32"><title>united-kingdom</title><path fill="#f5f5f5" d="M30.152 18.547l-0.001-5.093-0-1.698-0-2.655c-0-0.725-0.357-1.399-0.946-1.809-0.051-0.035-0.103-0.069-0.157-0.101l-11.948-6.895c-0.682-0.394-1.523-0.394-2.205 0l-11.945 6.899c-0.053 0.030-0.103 0.063-0.152 0.098-0.592 0.41-0.95 1.085-0.95 1.813l0 2.651 0 1.698 0.001 5.093 0 1.698 0 2.655c0 0.725 0.357 1.399 0.946 1.809 0.051 0.035 0.103 0.069 0.157 0.101l11.948 6.895c0.682 0.394 1.523 0.394 2.205-0l11.945-6.899c0.053-0.030 0.103-0.063 0.152-0.098 0.592-0.41 0.95-1.085 0.95-1.813l-0-2.651-0-1.698z"/><path fill="#41479b" d="M19.124 30.538l5.937-3.429-5.937-5.284z"/><path fill="#41479b" d="M25.061 4.89l-5.937-3.427v8.711z"/><path fill="#41479b" d="M6.938 27.11l5.937 3.427v-8.711z"/><path fill="#41479b" d="M29.203 24.707c0.592-0.41 0.95-1.085 0.95-1.813l-0-2.651h-5.964l5.014 4.463z"/><path fill="#41479b" d="M1.849 20.244l0 2.655c0 0.725 0.357 1.399 0.946 1.809l5.016-4.465-5.962 0z"/><path fill="#41479b" d="M2.797 7.293c-0.592 0.41-0.95 1.085-0.95 1.813l0 2.651h5.964l-5.014-4.463z"/><path fill="#41479b" d="M30.151 11.756l-0-2.655c-0-0.725-0.357-1.399-0.946-1.809l-5.016 4.465h5.963z"/><path fill="#41479b" d="M12.876 1.462l-5.937 3.429 5.937 5.284z"/><path fill="#ff4b55" d="M17.874 0.742l-0.774-0.447c-0.682-0.394-1.523-0.394-2.205 0l-0.769 0.444v12.713h-12.278l0.001 5.093h12.277v12.711l0.774 0.447c0.682 0.394 1.523 0.394 2.205-0l0.769-0.444v-12.713h12.278l-0.001-5.093h-12.277v-12.711z"/><path fill="#ff4b55" d="M10.546 20.244l-6.133 5.408 1.387 0.801 7.041-6.209z"/><path fill="#ff4b55" d="M20.102 20.244l6.666 5.879 1.387-0.801-5.758-5.078z"/><path fill="#ff4b55" d="M11.626 11.756l-6.559-5.784-1.387 0.801 5.651 4.983z"/><path fill="#ff4b55" d="M19.124 11.756h2.295l6.146-5.42-1.387-0.801z"/></svg>