<svg xmlns="http://www.w3.org/2000/svg" width="32" height="32" version="1.1" viewBox="0 0 32 32"><title>uruguay</title><path fill="#f5f5f5" d="M1.849 22.9l-0.002-13.795c-0-0.788 0.42-1.516 1.102-1.91l11.945-6.899c0.682-0.394 1.523-0.394 2.205-0l11.948 6.895c0.683 0.394 1.103 1.122 1.103 1.91l0.002 13.795c0 0.788-0.42 1.516-1.102 1.91l-11.945 6.899c-0.682 0.394-1.523 0.394-2.205 0l-11.947-6.895c-0.683-0.394-1.103-1.122-1.103-1.91z"/><path fill="#4173cd" d="M16 3.625v3.558h13.035l-6.165-3.558z"/><path fill="#4173cd" d="M16 10.741v3.558h14.152l-0-1.839-0-1.719z"/><path fill="#4173cd" d="M1.848 17.857l0.001 3.558h28.304l-0.001-3.256-0-0.302z"/><path fill="#4173cd" d="M22.599 28.531l6.16-3.558h-25.523l6.165 3.558z"/><path fill="#ffe15a" d="M7.664 6.761l0.953 4.41 1.491-0.618z"/><path fill="#ffcd5a" d="M7.664 6.761l1.699 4.101-0.746 0.309z"/><path fill="#ffe15a" d="M11.371 15.709l-0.953-4.41-1.491 0.618z"/><path fill="#ffcd5a" d="M11.371 15.709l-1.699-4.101 0.746-0.309z"/><path fill="#ffe15a" d="M13.991 9.382l-4.41 0.953 0.618 1.491z"/><path fill="#ffcd5a" d="M13.991 9.382l-4.101 1.699-0.309-0.746z"/><path fill="#ffe15a" d="M5.044 13.088l4.41-0.953-0.618-1.491z"/><path fill="#ffcd5a" d="M5.044 13.088l4.101-1.699 0.309 0.746z"/><path fill="#ffe15a" d="M11.371 6.761l-2.444 3.792 1.491 0.618z"/><path fill="#ffcd5a" d="M11.371 6.761l-1.699 4.101-0.746-0.309z"/><path fill="#ffe15a" d="M7.664 15.709l2.444-3.792-1.491-0.618z"/><path fill="#ffcd5a" d="M7.664 15.709l1.699-4.101 0.746 0.309z"/><path fill="#ffe15a" d="M13.991 13.088l-3.792-2.444-0.618 1.491z"/><path fill="#ffcd5a" d="M13.991 13.088l-4.101-1.699 0.309-0.746z"/><path fill="#ffe15a" d="M5.044 9.382l3.792 2.444 0.618-1.491z"/><path fill="#ffcd5a" d="M5.044 9.382l4.101 1.699-0.309 0.746z"/><path fill="#ffe15a" d="M9.517 6.393l-0.807 4.439h1.614z"/><path fill="#ffcd5a" d="M9.517 6.393v4.439h-0.807z"/><path fill="#ffe15a" d="M9.517 16.078l0.807-4.439h-1.614z"/><path fill="#ffcd5a" d="M9.517 16.078v-4.439h0.807z"/><path fill="#ffe15a" d="M14.36 11.235l-4.439-0.807v1.614z"/><path fill="#ffcd5a" d="M14.36 11.235h-4.439v-0.807z"/><path fill="#ffe15a" d="M4.675 11.235l4.439 0.807v-1.614z"/><path fill="#ffcd5a" d="M4.675 11.235h4.439v0.807z"/><path fill="#ffe15a" d="M12.942 7.811l-3.709 2.568 1.141 1.141z"/><path fill="#ffcd5a" d="M12.942 7.811l-3.139 3.139-0.571-0.571z"/><path fill="#ffe15a" d="M6.093 14.659l3.709-2.568-1.141-1.141z"/><path fill="#ffcd5a" d="M6.093 14.659l3.139-3.139 0.571 0.571z"/><path fill="#ffe15a" d="M12.942 14.659l-2.568-3.709-1.141 1.141z"/><path fill="#ffcd5a" d="M12.942 14.659l-3.139-3.139 0.571-0.571z"/><path fill="#ffe15a" d="M6.093 7.811l2.568 3.709 1.141-1.141z"/><path fill="#ffcd5a" d="M6.093 7.811l3.139 3.139-0.571 0.571z"/><path fill="#ffe15a" d="M11.132 11.235c0 0.892-0.723 1.614-1.614 1.614s-1.614-0.723-1.614-1.614c0-0.892 0.723-1.614 1.614-1.614s1.614 0.723 1.614 1.614z"/></svg>