<svg xmlns="http://www.w3.org/2000/svg" width="32" height="32" version="1.1" viewBox="0 0 32 32"><title>vanuatu</title><path fill="#73af00" d="M30.153 20.244l-0-1.689-14.152-0.681-9.062 9.235 7.962 4.595c0.682 0.394 1.523 0.394 2.205-0l11.945-6.899c0.053-0.030 0.103-0.063 0.152-0.098 0.592-0.41 0.95-1.085 0.95-1.813l-0-2.65z"/><path fill="#ff4b55" d="M16 14.36l14.151-0.915-0-1.689-0-2.655c0-0.194-0.026-0.384-0.075-0.567-0.026-0.098-0.059-0.194-0.099-0.287-0.16-0.381-0.426-0.714-0.773-0.955-0.051-0.035-0.103-0.069-0.157-0.101l-11.947-6.895c-0.682-0.394-1.523-0.394-2.205 0l-7.961 4.598 9.066 9.466z"/><path fill="#464655" d="M15.63 16.078l14.522-0.93 0 0.853-0-2.548v-0.009h-14.152l-9.061-8.554-1.355 0.782z"/><path fill="#464655" d="M15.63 16l-11.325-9.588-1.355 0.783c-0.053 0.030-0.103 0.063-0.152 0.098-0.212 0.147-0.393 0.328-0.54 0.534-0.098 0.138-0.18 0.287-0.244 0.443-0.107 0.261-0.166 0.544-0.166 0.836l0 2.651 0 1.698 0.001 5.092v0.001l0 1.697 0 2.655v0c0 0.725 0.357 1.399 0.946 1.809 0.051 0.035 0.103 0.069 0.157 0.101l1.351 0.78 11.327-9.589z"/><path fill="#464655" d="M16 18.555h14.152l0 1.689-0-1.698-0-1.695-14.522-0.774-10.047 10.25 1.35 0.779z"/><path fill="#ffe15a" d="M30.152 16.852l-0-0.851-0-0.853h-14.522l-10.046-9.475-1.28 0.739 10.166 9.588-10.167 9.589 1.28 0.739 10.047-9.476z"/><path fill="#ffe15a" d="M6.931 12.495c-1.784-0.561-3.131 0.735-3.439 1.402-0.261 0.565-0.745 3.126 1.669 3.535s2.387-1.87 2.387-1.87c-0.109 0.363-0.304 1.398-2.047 1.398-0.654 0-1.593-0.971-1.416-2.042 0.167-1.008 1.067-1.523 1.747-1.552 0.644-0.027 2.146 0.417 2.146 2.246 0 2.056-2.119 2.287-2.119 2.287v1.241c1.844-0.181 2.888-1.202 3.164-2.838 0.275-1.629-0.279-3.236-2.093-3.807z"/><path fill="#ffe15a" d="M4.956 15.543c-0.042 0.053-0.064 0.12-0.066 0.188l-0.005 0.334-0.065 0.113c-0.023 0.041-0.010 0.093 0.031 0.117s0.094 0.010 0.118-0.032l0.067-0.117 0.267-0.097c0.081-0.029 0.146-0.090 0.181-0.168 0.070-0.155 0.219-0.441 0.462-0.739 0.242 0.298 0.392 0.583 0.462 0.739 0.035 0.078 0.1 0.139 0.181 0.168l0.267 0.097 0.067 0.117c0.024 0.042 0.077 0.056 0.118 0.032s0.055-0.076 0.031-0.117l-0.065-0.113-0.005-0.334c-0.001-0.068-0.024-0.134-0.066-0.188-0.223-0.284-0.461-0.507-0.695-0.704 0.187-0.176 0.399-0.344 0.665-0.473 0.062-0.030 0.094-0.099 0.078-0.166-0.022-0.091-0.121-0.139-0.206-0.099-0.179 0.083-0.486 0.247-0.831 0.499-0.345-0.252-0.652-0.415-0.831-0.499-0.085-0.040-0.184 0.008-0.206 0.099-0.016 0.067 0.016 0.136 0.078 0.166 0.266 0.13 0.478 0.297 0.665 0.473-0.234 0.197-0.471 0.42-0.695 0.704z"/></svg>