<svg xmlns="http://www.w3.org/2000/svg" width="32" height="32" version="1.1" viewBox="0 0 32 32"><title>vatican-city</title><path fill="#f5f5f5" d="M30.152 18.547l-0.001-5.093-0-1.698-0-2.655c-0-0.725-0.357-1.399-0.946-1.809-0.051-0.035-0.103-0.069-0.157-0.101l-11.948-6.895c-0.682-0.394-1.523-0.394-2.205 0l-11.945 6.899c-0.053 0.030-0.103 0.063-0.152 0.098-0.592 0.41-0.95 1.085-0.95 1.813l0 2.651 0 1.698 0.001 5.093 0 1.698 0 2.655c0 0.725 0.357 1.399 0.946 1.809 0.051 0.035 0.103 0.069 0.157 0.101l11.948 6.895c0.682 0.394 1.523 0.394 2.205-0l11.945-6.899c0.053-0.030 0.103-0.063 0.152-0.098 0.592-0.41 0.95-1.085 0.95-1.813l-0-2.651-0-1.698z"/><path fill="#ffe15a" d="M14.895 0.296l-11.945 6.899c-0.053 0.030-0.103 0.063-0.152 0.098-0.592 0.41-0.95 1.085-0.95 1.813l0 2.651 0 1.698 0.001 5.093 0 1.698 0 2.655c0 0.725 0.357 1.399 0.946 1.809 0.051 0.035 0.103 0.069 0.157 0.101l11.948 6.895c0.34 0.196 0.72 0.295 1.1 0.295v-32c-0.382-0-0.763 0.098-1.105 0.296z"/><path fill="#ebebeb" d="M24.65 11.034l-0.036 0.071c0.115 0.059 0.18 0.126 0.18 0.197l-0.018-0.353c-0.024 0.047-0.071 0.082-0.127 0.085z"/><path fill="#ebebeb" d="M21.875 11.105l-0.036-0.071c-0.056-0.004-0.103-0.038-0.127-0.085l-0.018 0.353c0-0.071 0.066-0.138 0.18-0.197z"/><path fill="#ebebeb" d="M21.849 10.726c0.086 0 0.155 0.069 0.155 0.155 0 0.031-0.011 0.058-0.027 0.082l0.041 0.082c0.117-0.041 0.261-0.076 0.426-0.103l-0.017-0.070c-0.064-0.019-0.112-0.076-0.112-0.146 0-0.086 0.069-0.155 0.155-0.155s0.155 0.069 0.155 0.155c0 0.044-0.018 0.083-0.047 0.111l0.021 0.083c0.086-0.011 0.177-0.019 0.271-0.026-0.007-0.029-0.012-0.059-0.012-0.091 0-0.214 0.174-0.388 0.388-0.388s0.388 0.174 0.388 0.388c0 0.031-0.005 0.061-0.012 0.091 0.094 0.006 0.185 0.015 0.271 0.026l0.021-0.083c-0.029-0.028-0.047-0.067-0.047-0.111 0-0.086 0.069-0.155 0.155-0.155s0.155 0.069 0.155 0.155c0 0.070-0.048 0.127-0.112 0.146l-0.017 0.070c0.164 0.027 0.309 0.062 0.426 0.103l0.041-0.082c-0.016-0.024-0.027-0.052-0.027-0.082 0-0.086 0.069-0.155 0.155-0.155 0.056 0 0.102 0.031 0.13 0.075l-0.012-0.236c-0.153-0.174-0.772-0.304-1.513-0.304s-1.36 0.13-1.513 0.304l-0.012 0.236c0.027-0.044 0.074-0.075 0.13-0.075z"/><path fill="#e6b432" d="M23.487 8.903c0.042-0.053 0.068-0.119 0.068-0.192 0-0.144-0.099-0.265-0.233-0.299v-0.19c0.046-0.027 0.078-0.075 0.078-0.131 0-0.086-0.069-0.155-0.155-0.155s-0.155 0.069-0.155 0.155c0 0.057 0.032 0.104 0.078 0.131v0.19c-0.134 0.035-0.233 0.155-0.233 0.299 0 0.073 0.026 0.139 0.068 0.192 0.079-0.022 0.159-0.037 0.242-0.037s0.163 0.015 0.242 0.037z"/><path fill="#ebebeb" d="M22.595 9.687l-0.014-0.055c-0.064-0.019-0.112-0.076-0.112-0.146 0-0.086 0.069-0.155 0.155-0.155s0.155 0.069 0.155 0.155c0 0.044-0.018 0.083-0.047 0.111l0.017 0.070c0.152-0.017 0.319-0.026 0.495-0.026-0.128 0-0.233-0.104-0.233-0.232s0.104-0.233 0.233-0.233c0.128 0 0.233 0.104 0.233 0.233s-0.104 0.232-0.233 0.232c0.176 0 0.343 0.009 0.495 0.026l0.017-0.070c-0.029-0.028-0.047-0.067-0.047-0.111 0-0.086 0.069-0.155 0.155-0.155s0.155 0.069 0.155 0.155c0 0.070-0.048 0.127-0.112 0.146l-0.014 0.055c0.079 0.012 0.152 0.026 0.218 0.042l0.114-0.229c-0.198-0.306-0.453-0.52-0.74-0.599-0.079-0.022-0.159-0.037-0.242-0.037s-0.163 0.015-0.242 0.037c-0.287 0.079-0.542 0.292-0.74 0.599l0.114 0.229c0.066-0.016 0.139-0.030 0.218-0.042z"/><path fill="#e6b432" d="M23.090 22.382v-0.339c0-0.036 0.005-0.071 0.013-0.105-0.004-0.003-0.009-0.005-0.013-0.007-0.046-0.027-0.098-0.043-0.155-0.043s-0.109 0.016-0.155 0.043c-0.092 0.054-0.155 0.153-0.155 0.267 0 0.083 0.033 0.159 0.087 0.215 0.067-0.037 0.142-0.059 0.223-0.059 0.055-0 0.106 0.011 0.155 0.028z"/><path fill="#e6b432" d="M23.4 21.157c-0.092 0.054-0.155 0.153-0.155 0.267 0 0.083 0.033 0.159 0.087 0.215 0.067-0.037 0.142-0.059 0.223-0.059s0.157 0.023 0.223 0.059c0.054-0.056 0.087-0.131 0.087-0.215 0-0.114-0.063-0.213-0.155-0.267-0.046-0.027-0.098-0.043-0.155-0.043s-0.109 0.016-0.155 0.043z"/><path fill="#ff4b57" d="M23.332 21.638c-0.114 0.063-0.199 0.171-0.229 0.301-0.008 0.034-0.013 0.069-0.013 0.105v0.339c-0.049-0.017-0.1-0.029-0.155-0.029-0.081 0-0.157 0.023-0.223 0.059-0.144 0.079-0.242 0.23-0.242 0.406v0.62h0.93v-0.62c0-0.055-0.011-0.106-0.029-0.155h0.649v-0.62c0-0.175-0.098-0.326-0.242-0.406-0.067-0.037-0.142-0.059-0.223-0.059s-0.157 0.023-0.223 0.059z"/><path fill="#e6b432" d="M23.4 15.403l0.265 0.265 0.091-0.091c0.022-0.022 0.048-0.033 0.076-0.039l1.311-1.312 0.84 0.84 0.548-0.548-0.219-0.219-0.11 0.11-0.219-0.219 0.11-0.11-0.11-0.11 0.219-0.219 0.11 0.11 0.11-0.11 0.219 0.219-0.11 0.11 0.219 0.219 0.548-0.548-0.84-0.84 0.575-0.575c-0.028-0.011-0.054-0.028-0.076-0.051l-0.31-0.31c-0.023-0.023-0.040-0.050-0.051-0.079l-3.23 3.231c0.021 0.026 0.035 0.058 0.035 0.094v0.181h-0z"/><path fill="#e6b432" d="M23.044 16.326l-0.439-0.439-1.363 1.363c-0.121 0.121-0.121 0.317 0 0.439 0.061 0.061 0.14 0.091 0.219 0.091s0.159-0.030 0.219-0.091l1.363-1.363z"/><path fill="#d2d2d2" d="M18.812 17.935c0.009-0.024 0.014-0.050 0.014-0.078 0-0.128-0.104-0.233-0.233-0.233s-0.233 0.104-0.233 0.233c0 0.128 0.104 0.233 0.233 0.233 0.027 0 0.053-0.006 0.078-0.014 0.044-0.050 0.091-0.097 0.141-0.141z"/><path fill="#d2d2d2" d="M18.671 20.12c-0.024-0.009-0.050-0.014-0.078-0.014-0.128 0-0.233 0.104-0.233 0.233s0.104 0.233 0.233 0.233c0.128 0 0.233-0.104 0.233-0.233 0-0.027-0.006-0.053-0.014-0.077-0.050-0.044-0.097-0.091-0.141-0.141z"/><path fill="#d2d2d2" d="M20.997 18.076c0.024 0.009 0.050 0.014 0.078 0.014 0.128 0 0.233-0.104 0.233-0.233s-0.104-0.233-0.233-0.233-0.233 0.104-0.233 0.233c0 0.027 0.006 0.053 0.014 0.078 0.050 0.044 0.097 0.091 0.141 0.141z"/><path fill="#d2d2d2" d="M20.842 20.338c0 0.128 0.104 0.233 0.233 0.233 0.072 0 0.135-0.033 0.178-0.084-0.146-0.053-0.282-0.111-0.407-0.176-0.001 0.009-0.003 0.018-0.003 0.027z"/><path fill="#e6b432" d="M20.518 20.114c-0.033-0.024-0.052-0.058-0.060-0.095-0.026 0.006-0.054 0.009-0.082 0.009-0.184 0-0.338-0.129-0.377-0.302-0.042 0.043-0.101 0.069-0.165 0.069s-0.123-0.027-0.165-0.069c-0.039 0.172-0.193 0.302-0.377 0.302-0.214 0-0.388-0.174-0.388-0.388 0-0.184 0.129-0.338 0.302-0.377-0.043-0.042-0.069-0.101-0.069-0.165s0.027-0.123 0.069-0.165c-0.172-0.039-0.302-0.193-0.302-0.377 0-0.214 0.174-0.388 0.388-0.388 0.184 0 0.338 0.129 0.377 0.302 0.042-0.043 0.101-0.069 0.165-0.069s0.123 0.027 0.165 0.069c0.039-0.172 0.193-0.302 0.377-0.302 0.214 0 0.388 0.174 0.388 0.388 0 0.184-0.129 0.338-0.302 0.377 0.043 0.042 0.069 0.101 0.069 0.165s-0.027 0.123-0.069 0.165c0.172 0.039 0.302 0.193 0.302 0.377 0 0.082-0.026 0.157-0.069 0.22 0.002 0.001 0.003 0.001 0.005 0.002 0.1 0.073 0.216 0.14 0.344 0.202 0.039-0.048 0.074-0.099 0.106-0.152 0.102-0.165 0.174-0.349 0.209-0.547 0.015-0.087 0.025-0.176 0.025-0.268 0-0.392-0.147-0.749-0.388-1.022-0.044-0.050-0.091-0.097-0.141-0.141-0.273-0.24-0.63-0.388-1.022-0.388s-0.749 0.147-1.022 0.388c-0.050 0.044-0.097 0.091-0.141 0.141-0.24 0.273-0.388 0.63-0.388 1.022s0.147 0.749 0.388 1.022c0.044 0.050 0.091 0.097 0.141 0.141 0.273 0.24 0.63 0.387 1.022 0.387 0.373 0 0.715-0.132 0.982-0.352-0.108-0.057-0.208-0.118-0.298-0.183zM21.033 18.785c0.026 0.1 0.042 0.205 0.042 0.314s-0.015 0.213-0.042 0.314c-0.044-0.125-0.121-0.233-0.223-0.314 0.101-0.081 0.179-0.189 0.223-0.314zM20.148 17.9c-0.125 0.044-0.233 0.121-0.314 0.223-0.081-0.101-0.189-0.179-0.314-0.223 0.1-0.026 0.205-0.042 0.314-0.042s0.213 0.015 0.314 0.042zM18.636 18.785c0.044 0.125 0.121 0.233 0.223 0.314-0.101 0.081-0.179 0.189-0.223 0.314-0.026-0.1-0.042-0.205-0.042-0.314s0.015-0.213 0.042-0.314zM19.52 20.297c0.125-0.044 0.233-0.121 0.314-0.223 0.081 0.101 0.189 0.179 0.314 0.223-0.1 0.026-0.205 0.042-0.314 0.042s-0.213-0.015-0.314-0.042z"/><path fill="#f0c814" d="M19.602 19.098c0-0.128-0.104-0.233-0.233-0.233-0.064 0-0.121 0.026-0.163 0.067s-0.069 0.101-0.069 0.165 0.027 0.123 0.069 0.165c0.042 0.041 0.1 0.067 0.163 0.067 0.128-0 0.233-0.104 0.233-0.233z"/><path fill="#f0c814" d="M20.067 19.098c0 0.128 0.104 0.233 0.233 0.233 0.064 0 0.121-0.026 0.163-0.067s0.069-0.101 0.069-0.165-0.027-0.123-0.069-0.165c-0.042-0.041-0.1-0.067-0.163-0.067-0.128 0-0.233 0.104-0.233 0.233z"/><path fill="#f0c814" d="M19.834 18.866c0.128 0 0.233-0.104 0.233-0.233 0-0.064-0.026-0.121-0.067-0.163s-0.101-0.069-0.165-0.069-0.123 0.027-0.165 0.069c-0.041 0.042-0.067 0.1-0.067 0.163 0 0.128 0.104 0.233 0.233 0.233z"/><path fill="#f0c814" d="M19.834 19.331c-0.128 0-0.233 0.104-0.233 0.233 0 0.064 0.026 0.121 0.067 0.163s0.101 0.069 0.165 0.069 0.123-0.027 0.165-0.069c0.041-0.042 0.067-0.1 0.067-0.163-0-0.128-0.104-0.233-0.233-0.233z"/><path fill="#d2d2d2" d="M26.956 12.286c0.023 0.023 0.049 0.039 0.076 0.051s0.058 0.017 0.088 0.017c0.059 0 0.119-0.023 0.164-0.068 0.081-0.081 0.085-0.204 0.023-0.294l0.086-0.343c0.012 0.003 0.024 0.007 0.037 0.007 0.086 0 0.155-0.069 0.155-0.155s-0.069-0.155-0.155-0.155-0.155 0.069-0.155 0.155c0 0.013 0.004 0.025 0.007 0.037l-0.343 0.086c-0.091-0.062-0.214-0.058-0.294 0.023-0.068 0.068-0.085 0.167-0.051 0.25 0.011 0.029 0.028 0.055 0.051 0.079l0.31 0.31z"/><path fill="#d2d2d2" d="M23.090 15.933v-0.711c0-0.036 0.014-0.068 0.035-0.094l-3.23-3.231c-0.011 0.029-0.028 0.055-0.051 0.079l-0.31 0.31c-0.023 0.023-0.049 0.039-0.076 0.051l0.575 0.575-0.84 0.84 0.548 0.548 0.219-0.219-0.11-0.11 0.219-0.219 0.11 0.11 0.11-0.11 0.219 0.219-0.11 0.11 0.11 0.11-0.219 0.219-0.11-0.11-0.219 0.219 0.548 0.548 0.84-0.84 1.311 1.312c0.028 0.006 0.054 0.017 0.076 0.039l0.355 0.356z"/><path fill="#d2d2d2" d="M23.445 16.326l1.363 1.363c0.061 0.061 0.14 0.091 0.219 0.091s0.159-0.030 0.219-0.091c0.121-0.121 0.121-0.317 0-0.439l-1.363-1.363-0.439 0.439z"/><path fill="#d2d2d2" d="M23.4 15.842v0.091l0.265-0.265-0.265-0.265z"/><path fill="#d2d2d2" d="M27.818 18.076c0.024 0.009 0.050 0.014 0.078 0.014 0.128 0 0.233-0.104 0.233-0.233s-0.104-0.233-0.233-0.233-0.233 0.104-0.233 0.233c0 0.027 0.006 0.053 0.014 0.078 0.050 0.044 0.097 0.091 0.141 0.141z"/><path fill="#d2d2d2" d="M27.896 20.106c-0.027 0-0.053 0.006-0.078 0.014-0.044 0.050-0.091 0.097-0.141 0.141-0.009 0.024-0.014 0.050-0.014 0.077 0 0.128 0.104 0.233 0.233 0.233s0.233-0.104 0.233-0.233c0-0.128-0.104-0.232-0.233-0.232z"/><path fill="#d2d2d2" d="M25.634 17.935c0.009-0.024 0.014-0.050 0.014-0.078 0-0.128-0.104-0.233-0.233-0.233s-0.233 0.104-0.233 0.233c0 0.128 0.104 0.233 0.233 0.233 0.027 0 0.053-0.006 0.078-0.014 0.044-0.050 0.091-0.097 0.141-0.141z"/><path fill="#d2d2d2" d="M25.415 20.571c0.128 0 0.233-0.104 0.233-0.233 0-0.009-0.002-0.018-0.003-0.027-0.125 0.064-0.262 0.123-0.407 0.176 0.043 0.051 0.106 0.084 0.177 0.084z"/><path fill="#e6b432" d="M27.818 20.12c0.24-0.273 0.388-0.63 0.388-1.022s-0.147-0.749-0.388-1.022c-0.044-0.050-0.091-0.097-0.141-0.141-0.273-0.24-0.63-0.388-1.022-0.388s-0.749 0.147-1.022 0.388c-0.050 0.044-0.097 0.091-0.141 0.141-0.24 0.273-0.388 0.63-0.388 1.022 0 0.092 0.009 0.182 0.025 0.269 0.035 0.197 0.107 0.381 0.209 0.545 0.033 0.053 0.068 0.104 0.106 0.152 0.128-0.062 0.244-0.129 0.344-0.202 0.002-0.001 0.003-0.001 0.005-0.002-0.043-0.063-0.069-0.138-0.069-0.22 0-0.184 0.129-0.338 0.302-0.377-0.043-0.042-0.069-0.101-0.069-0.165s0.027-0.123 0.069-0.165c-0.172-0.039-0.302-0.193-0.302-0.377 0-0.214 0.174-0.388 0.388-0.388 0.184 0 0.338 0.129 0.377 0.302 0.042-0.043 0.101-0.069 0.165-0.069s0.123 0.027 0.165 0.069c0.039-0.172 0.193-0.302 0.377-0.302 0.214 0 0.388 0.174 0.388 0.388 0 0.184-0.129 0.338-0.302 0.377 0.043 0.042 0.069 0.101 0.069 0.165s-0.027 0.123-0.069 0.165c0.172 0.039 0.302 0.193 0.302 0.377 0 0.214-0.174 0.388-0.388 0.388-0.184 0-0.338-0.129-0.377-0.302-0.042 0.043-0.101 0.069-0.165 0.069s-0.123-0.027-0.165-0.069c-0.039 0.172-0.193 0.302-0.377 0.302-0.028 0-0.055-0.003-0.082-0.009-0.008 0.037-0.027 0.071-0.060 0.095-0.090 0.065-0.19 0.126-0.298 0.182 0.268 0.22 0.61 0.352 0.982 0.352 0.392 0 0.749-0.147 1.022-0.387 0.050-0.044 0.097-0.091 0.141-0.141zM25.457 19.412c-0.026-0.1-0.042-0.205-0.042-0.314s0.015-0.213 0.042-0.314c0.044 0.125 0.121 0.233 0.223 0.314-0.101 0.081-0.179 0.189-0.223 0.314zM26.656 18.123c-0.081-0.101-0.189-0.179-0.314-0.223 0.1-0.026 0.205-0.042 0.314-0.042s0.213 0.015 0.314 0.042c-0.125 0.044-0.233 0.121-0.314 0.223zM27.854 18.785c0.026 0.1 0.042 0.205 0.042 0.314s-0.015 0.213-0.042 0.314c-0.044-0.125-0.121-0.233-0.223-0.314 0.101-0.081 0.179-0.189 0.223-0.314zM26.342 20.297c0.125-0.044 0.233-0.121 0.314-0.223 0.081 0.101 0.189 0.179 0.314 0.223-0.1 0.026-0.205 0.042-0.314 0.042s-0.213-0.015-0.314-0.042z"/><path fill="#f0c814" d="M26.888 19.098c0 0.128 0.104 0.233 0.233 0.233 0.064 0 0.121-0.026 0.163-0.067s0.069-0.101 0.069-0.165-0.027-0.123-0.069-0.165c-0.042-0.041-0.1-0.067-0.163-0.067-0.128 0-0.233 0.104-0.233 0.233z"/><path fill="#f0c814" d="M26.423 19.098c0-0.128-0.104-0.233-0.233-0.233-0.064 0-0.121 0.026-0.163 0.067s-0.069 0.101-0.069 0.165 0.027 0.123 0.069 0.165c0.042 0.041 0.1 0.067 0.163 0.067 0.128-0 0.233-0.104 0.233-0.233z"/><path fill="#f0c814" d="M26.656 18.866c0.128 0 0.233-0.104 0.233-0.233 0-0.064-0.026-0.121-0.067-0.163s-0.101-0.069-0.165-0.069-0.123 0.027-0.165 0.069c-0.041 0.042-0.067 0.1-0.067 0.163 0 0.128 0.104 0.233 0.233 0.233z"/><path fill="#f0c814" d="M26.656 19.331c-0.128 0-0.233 0.104-0.233 0.233 0 0.064 0.026 0.121 0.067 0.163s0.101 0.069 0.165 0.069 0.123-0.027 0.165-0.069c0.041-0.042 0.067-0.1 0.067-0.163 0-0.128-0.104-0.233-0.233-0.233z"/><path fill="#f7b518" d="M19.843 11.976c0.023-0.023 0.040-0.050 0.051-0.079 0.033-0.084 0.016-0.183-0.051-0.25-0.081-0.081-0.204-0.085-0.294-0.023l-0.343-0.086c0.003-0.012 0.007-0.024 0.007-0.037 0-0.086-0.069-0.155-0.155-0.155s-0.155 0.069-0.155 0.155c0 0.086 0.069 0.155 0.155 0.155 0.013 0 0.025-0.004 0.037-0.007l0.086 0.343c-0.062 0.091-0.058 0.214 0.023 0.294 0.045 0.045 0.105 0.068 0.164 0.068 0.030 0 0.060-0.006 0.088-0.017s0.054-0.028 0.076-0.051l0.31-0.31z"/><path fill="#ff4b55" d="M25.971 20.114c0.033-0.024 0.052-0.058 0.060-0.095 0.008-0.041 0.001-0.085-0.025-0.122-0.049-0.068-0.142-0.083-0.212-0.037-0.002 0.001-0.003 0.001-0.005 0.002-0.1 0.073-0.216 0.14-0.344 0.202-0.454 0.219-1.070 0.365-1.736 0.412v-2.178c0.677 0.924 1.336 1.421 1.629 1.614-0.102-0.164-0.174-0.348-0.209-0.545-0.375-0.31-0.906-0.832-1.42-1.618v-1.053c0.011-0.024 0.022-0.048 0.033-0.072l-0.298-0.298 0.529-0.529c0.061-0.060 0.061-0.159 0-0.219-0.039-0.039-0.093-0.050-0.143-0.039-0.028 0.006-0.054 0.017-0.076 0.039l-0.356 0.356v-0.711c0-0.036-0.014-0.068-0.035-0.094-0.028-0.036-0.070-0.061-0.12-0.061s-0.092 0.025-0.12 0.061c-0.021 0.026-0.035 0.058-0.035 0.094v0.711l-0.355-0.355c-0.022-0.022-0.048-0.033-0.076-0.039-0.050-0.011-0.104-0-0.143 0.039-0.061 0.060-0.061 0.159 0 0.219l0.529 0.529-0.298 0.298c0.011 0.024 0.022 0.048 0.033 0.072v1.052c-0.514 0.785-1.045 1.307-1.42 1.618-0.035 0.198-0.107 0.382-0.209 0.547 0.294-0.193 0.953-0.69 1.629-1.614v2.178c-0.666-0.047-1.281-0.193-1.736-0.412-0.128-0.062-0.244-0.129-0.344-0.202-0.002-0.001-0.003-0.001-0.005-0.002-0.069-0.047-0.163-0.031-0.212 0.037-0.027 0.037-0.034 0.081-0.025 0.122 0.008 0.037 0.027 0.071 0.060 0.095 0.090 0.065 0.19 0.126 0.298 0.183 0.009 0.005 0.019 0.010 0.028 0.015 0.125 0.064 0.262 0.123 0.407 0.176 0.44 0.159 0.965 0.264 1.528 0.301v1.144c0.046-0.027 0.098-0.043 0.155-0.043s0.109 0.016 0.155 0.043v-1.131c0.052 0.001 0.103 0.002 0.155 0.002s0.104-0.001 0.155-0.002v0.355c0.046-0.027 0.098-0.043 0.155-0.043s0.109 0.016 0.155 0.043v-0.369c0.563-0.037 1.088-0.141 1.528-0.301 0.146-0.053 0.282-0.111 0.407-0.176 0.009-0.005 0.019-0.010 0.028-0.015 0.108-0.057 0.208-0.118 0.298-0.183zM23.245 20.494c-0.052 0-0.104-0.001-0.155-0.002v-2.646c0.052-0.082 0.104-0.166 0.155-0.253 0.051 0.087 0.103 0.172 0.155 0.253v2.646c-0.052 0.001-0.103 0.002-0.155 0.002z"/><path fill="#e6b432" d="M23.245 11.622c0.856 0 1.55 0.146 1.55 0.327 0-0.304 0-0.601 0-0.647 0-0.071-0.066-0.138-0.18-0.197l0.036-0.071c0.056-0.004 0.103-0.038 0.127-0.085 0.010-0.021 0.018-0.043 0.018-0.068 0-0.030-0.011-0.056-0.025-0.080-0.027-0.044-0.074-0.075-0.13-0.075-0.086 0-0.155 0.069-0.155 0.155 0 0.031 0.011 0.058 0.027 0.082l-0.041 0.082c-0.117-0.041-0.261-0.076-0.426-0.103l0.017-0.070c0.064-0.019 0.112-0.076 0.112-0.146 0-0.086-0.069-0.155-0.155-0.155s-0.155 0.069-0.155 0.155c0 0.044 0.018 0.083 0.047 0.111l-0.021 0.083c-0.086-0.011-0.177-0.019-0.271-0.026 0.007-0.029 0.012-0.059 0.012-0.091 0-0.214-0.174-0.388-0.388-0.388s-0.388 0.174-0.388 0.388c0 0.031 0.005 0.061 0.012 0.091-0.094 0.006-0.185 0.015-0.271 0.026l-0.021-0.083c0.029-0.028 0.047-0.067 0.047-0.111 0-0.086-0.069-0.155-0.155-0.155s-0.155 0.069-0.155 0.155c0 0.070 0.048 0.127 0.112 0.146l0.017 0.070c-0.164 0.027-0.309 0.062-0.426 0.103l-0.041-0.082c0.016-0.024 0.027-0.052 0.027-0.082 0-0.086-0.069-0.155-0.155-0.155-0.056 0-0.102 0.031-0.13 0.075-0.015 0.024-0.025 0.050-0.025 0.080 0 0.025 0.007 0.047 0.018 0.068 0.024 0.047 0.071 0.081 0.127 0.085l0.036 0.071c-0.115 0.059-0.18 0.126-0.18 0.197 0 0.046 0 0.343 0 0.647-0-0.181 0.694-0.327 1.55-0.327z"/><path fill="#e6b432" d="M21.694 11.967l0.002-0.001c-0-0.005-0.002-0.012-0.002-0.017 0 0.006 0 0.011 0 0.017z"/><path fill="#e6b432" d="M24.795 11.967c0-0.006 0-0.011 0-0.017 0 0.004-0.002 0.011-0.002 0.017l0.002 0.001z"/><path fill="#ebebeb" d="M22.004 12.277c0 0.031-0.011 0.058-0.027 0.082l0.059 0.118c0.103-0.051 0.243-0.095 0.41-0.128l-0.020-0.081c-0.064-0.019-0.112-0.076-0.112-0.146 0-0.086 0.069-0.155 0.155-0.155s0.155 0.069 0.155 0.155c0 0.044-0.018 0.083-0.047 0.111l0.022 0.089c0.15-0.022 0.315-0.037 0.49-0.043v-0.14c-0.047-0.043-0.078-0.104-0.078-0.172 0-0.128 0.104-0.232 0.233-0.232s0.233 0.104 0.233 0.232c0 0.069-0.030 0.13-0.078 0.172v0.14c0.175 0.006 0.341 0.020 0.49 0.043l0.022-0.089c-0.029-0.028-0.047-0.067-0.047-0.111 0-0.086 0.069-0.155 0.155-0.155s0.155 0.069 0.155 0.155c0 0.070-0.048 0.127-0.112 0.146l-0.020 0.081c0.168 0.034 0.308 0.077 0.41 0.128l0.059-0.118c-0.016-0.024-0.027-0.052-0.027-0.082 0-0.086 0.069-0.155 0.155-0.155 0.037 0 0.070 0.015 0.096 0.037 0.035-0.085 0.053-0.152 0.057-0.192 0-0.005 0.002-0.012 0.002-0.017 0-0.181-0.694-0.327-1.55-0.327s-1.55 0.146-1.55 0.327c0 0.004 0.002 0.011 0.002 0.017 0.004 0.040 0.022 0.108 0.057 0.192 0.027-0.022 0.059-0.037 0.096-0.037 0.085 0 0.155 0.069 0.155 0.155z"/><path fill="#e6b432" d="M21.694 12.277c0 0.082 0.064 0.147 0.145 0.153l0.067 0.134c-0.036 0.036-0.057 0.073-0.057 0.112 0 0.045 0.027 0.088 0.075 0.128l0.236 0.404c0-0.171 0.486-0.31 1.085-0.31s1.085 0.139 1.085 0.31l0.236-0.404c0.048-0.040 0.075-0.083 0.075-0.128 0-0.039-0.020-0.076-0.057-0.112l0.067-0.134c0.081-0.006 0.145-0.071 0.145-0.153 0-0.049-0.024-0.090-0.059-0.118-0.027-0.022-0.059-0.037-0.096-0.037-0.086 0-0.155 0.069-0.155 0.155 0 0.031 0.011 0.058 0.027 0.082l-0.059 0.118c-0.103-0.051-0.243-0.095-0.41-0.128l0.020-0.081c0.064-0.019 0.112-0.076 0.112-0.146 0-0.086-0.069-0.155-0.155-0.155s-0.155 0.069-0.155 0.155c0 0.044 0.018 0.083 0.047 0.111l-0.022 0.089c-0.15-0.022-0.315-0.037-0.49-0.043v-0.14c0.047-0.043 0.078-0.104 0.078-0.172 0-0.128-0.104-0.232-0.233-0.232s-0.233 0.104-0.233 0.232c0 0.069 0.030 0.13 0.078 0.172v0.14c-0.175 0.006-0.341 0.020-0.49 0.043l-0.022-0.089c0.029-0.028 0.047-0.067 0.047-0.111 0-0.086-0.069-0.155-0.155-0.155s-0.155 0.069-0.155 0.155c0 0.070 0.048 0.127 0.112 0.146l0.020 0.081c-0.168 0.034-0.308 0.077-0.41 0.128l-0.059-0.118c0.016-0.024 0.027-0.052 0.027-0.082 0-0.086-0.069-0.155-0.155-0.155-0.037 0-0.070 0.015-0.096 0.037-0.035 0.028-0.058 0.070-0.058 0.118z"/><path fill="#ebebeb" d="M24.33 13.207c0 0.171-0.486 0.31-1.085 0.31s-1.085-0.139-1.085-0.31c0-0.171 0.486-0.31 1.085-0.31s1.085 0.139 1.085 0.31z"/><path fill="#e6b432" d="M24.758 10.565l-0.273-0.614c0-0.039-0.030-0.076-0.082-0.11l0.22-0.441c0.038-0.077 0.007-0.17-0.069-0.208s-0.17-0.007-0.208 0.069l-0.234 0.468c-0.066-0.016-0.139-0.030-0.218-0.042l0.014-0.055c0.064-0.019 0.112-0.076 0.112-0.146 0-0.086-0.069-0.155-0.155-0.155s-0.155 0.069-0.155 0.155c0 0.044 0.018 0.083 0.047 0.111l-0.017 0.070c-0.152-0.017-0.319-0.026-0.495-0.026s-0.343 0.009-0.495 0.026l-0.017-0.070c0.029-0.028 0.047-0.067 0.047-0.111 0-0.086-0.069-0.155-0.155-0.155s-0.155 0.069-0.155 0.155c0 0.070 0.048 0.127 0.112 0.146l0.014 0.055c-0.079 0.012-0.152 0.026-0.218 0.042l-0.234-0.468c-0.038-0.076-0.131-0.107-0.208-0.069s-0.108 0.131-0.069 0.208l0.22 0.441c-0.052 0.034-0.082 0.071-0.082 0.11l-0.273 0.614c0.153-0.174 0.772-0.304 1.513-0.304s1.36 0.13 1.513 0.304z"/><path fill="#e6b432" d="M23.477 9.408c0 0.128-0.104 0.232-0.233 0.232s-0.233-0.104-0.233-0.232c0-0.128 0.104-0.232 0.233-0.232s0.233 0.104 0.233 0.232z"/></svg>