<!-- Generated by IcoMoon.io -->
<svg version="1.1" xmlns="http://www.w3.org/2000/svg" width="32" height="32" viewBox="0 0 32 32">
<title>vietnam</title>
<path fill="#ff4b55" d="M1.849 22.9l-0.002-13.795c-0-0.788 0.42-1.516 1.102-1.91l11.945-6.899c0.682-0.394 1.523-0.394 2.205-0l11.948 6.895c0.683 0.394 1.103 1.122 1.103 1.91l0.002 13.795c0 0.788-0.42 1.516-1.102 1.91l-11.945 6.899c-0.682 0.394-1.523 0.394-2.205 0l-11.947-6.895c-0.683-0.394-1.103-1.122-1.103-1.91z"></path>
<path fill="#ffe15a" d="M16.237 10.142l1.36 4.078 4.298 0.033c0.24 0.002 0.34 0.309 0.147 0.451l-3.458 2.553 1.296 4.098c0.073 0.229-0.188 0.419-0.384 0.279l-3.497-2.5-3.497 2.5c-0.196 0.14-0.456-0.050-0.384-0.279l1.296-4.098-3.458-2.553c-0.193-0.143-0.094-0.45 0.147-0.451l4.298-0.033 1.36-4.078c0.076-0.228 0.399-0.228 0.475 0z"></path>
</svg>
