<svg xmlns="http://www.w3.org/2000/svg" width="32" height="32" version="1.1" viewBox="0 0 32 32"><title>wales</title><path fill="#f5f5f5" d="M1.849 22.9l-0.002-13.794c-0-0.788 0.42-1.516 1.102-1.91l11.945-6.899c0.682-0.394 1.523-0.394 2.205-0l11.948 6.895c0.682 0.394 1.103 1.122 1.103 1.91l0.002 13.794c0 0.788-0.42 1.516-1.102 1.91l-11.945 6.899c-0.682 0.394-1.523 0.394-2.205 0l-11.947-6.895c-0.682-0.394-1.103-1.122-1.103-1.91z"/><path fill="#73af00" d="M2.952 24.809l11.948 6.895c0.682 0.394 1.523 0.394 2.205-0l11.945-6.899c0.682-0.394 1.102-1.122 1.102-1.91l-0.001-6.895h-28.304l0.001 6.9c0 0.788 0.421 1.516 1.103 1.91z"/><path fill="#ff4b55" d="M23.237 12.229c0 0 0.331 0.907 0.359 0.955l0.038-0.076 0.227-1.181 0.586-1.096-0.17 0.019-1.333 0.643c0 0-0.794 0.87-0.803 0.898s1.096-0.16 1.096-0.16z"/><path fill="#ff4b55" d="M23.706 20.905c-0.044-0.006-0.699 0.025-0.699 0.025l-0.214-0.718-0.123-1.358 0.232-0.061 0.288 0.137 0.104-0.543c0 0-0.25-0.274-0.298-0.293s-0.614-0.146-0.614-0.146l-0.761-1.007 0.907-0.506 0.709-0.974 0.17-0.879-0.142-0.728-0.322-0.54c-0.005-0.015-0.008-0.027-0.008-0.027-0.002-0.003-0.010-0.008-0.015-0.012l-0.060-0.101-0.001 0.059c-0.14-0.087-0.426-0.239-0.5-0.276-0.095-0.047-0.595-0.132-0.699-0.057s-0.586 0.302-0.671 0.463-0.142 0.737-0.142 0.737 0.142 0.321 0.321 0.397c0.18 0.076 0.529 0.161 0.586 0.142 0.049-0.016 0.604-0.18 0.755-0.249l0.067 0.136-0.028 0.388-0.312 0.217-0.577 0.227c0 0-0.879-0.246-0.917-0.236s-1.125-0.321-1.125-0.321l-1.021-0.236 0.34-0.17 0.926-0.066c0 0 0.18-1.049 0.208-1.068s0.633-0.501 0.633-0.501l0.501-0.123-0.302-1.282 0.454-1.399-1.185 0.34-1.878 0.466-1.197-0.076-1.059 0.34-0.681 0.618-0.391 0.529-0.139 0.844-0.088 1.122-0.328 0.617-0.371 0.291c-0.042-0.11-0.237-0.53-0.237-0.53l0.473-0.113-0.123-0.312-0.331-0.246 0.104-0.378 0.378 0.208 0.104 0.076 0.066-0.388-0.416-0.586 0.066-0.293 0.501 0.265-0.057-0.681-0.444-0.274 0.028-0.378 0.485 0.145-0.050-0.359-0.529-0.384 0.517-0.832-0.63 0.032-0.050-0.271-0.164-0.063c0 0-0.876 0.372-0.939 0.359s-0.762-0.107-0.844-0.088c-0.082 0.019-0.372 0.095-0.372 0.095l-0.082 0.321-0.536-0.088-0.794-0.066-0.239 0.293 0.378 0.151c0 0-0.088 0.668-0.063 0.718s0.252 0.378 0.252 0.378l-0.517 0.706 0.529 0.076 0.731-0.113-0.025 0.176 0.97-0.101-0.214 0.113-0.277 0.832-0.807 1.638-0.284 1.456-0.454-0.473-0.302-1.248-0.454-1.229c0 0-0.095-0.378-0.151-0.388s-0.302-0.057-0.302-0.057l-0.312 0.255-0.397-0.057-0.227 0.312 0.255 0.397c0 0-0.425 0.17-0.425 0.217s0.028 0.321 0.057 0.331c0.028 0.009 0.671-0.009 0.671-0.009l0.388 0.69-0.302 0.794 0.151 0.302 0.265 0.038 0.246-0.284 0.851 2.543c0 0-0.066 0.331-0.113 0.359s-0.274 0.284-0.217 0.284 0.406 0.047 0.444 0.028 0.529-0.397 0.529-0.397 0.775-0.595 0.822-0.548c0.047 0.047 0.784 0.501 0.784 0.501l-0.34 1.172-0.803 1.172-0.501-0.302-0.359-0.51-0.265 0.085-0.095 0.161 0.038 0.34c0 0-0.274 0.217-0.274 0.265s0.028 0.388 0.028 0.388 0.18 0.085 0.189 0.132 0.104 0.388 0.104 0.388l0.189 0.066 0.359-0.217h0.595l0.369 0.057 0.784-0.246 1.144 0.057-0.104-0.217c0 0-0.463-0.236-0.624-0.284s-0.321-0.085-0.321-0.085l-0.066-0.331 1.125-1.333 0.416-0.085 0.142 0.35c0 0 0.466-0.113 0.466-0.151s0-0.441 0-0.479c0-0.038-0.101-0.353-0.101-0.353s-0.001-0.012-0.003-0.029l0.356-0.059 1.235-0.592 0.435 0.523 0.542 0.258-0.674 1.21-0.58 0.391-0.416-0.189-0.58-0.428-0.227 0.139 0.050 0.428-0.34-0.025-0.151 0.302 0.252 0.365-0.088 0.29c0 0 0.063 0.265 0.126 0.265s0.441-0.139 0.441-0.139l1.109-0.088 0.807-0.265 0.844 0.063c0 0 0.164-0.567 0.126-0.567s-0.050-0.013-0.151-0.013c-0.101 0-0.454 0.013-0.454 0.013l-0.013-0.126 0.277-0.504 1.071-0.895 0.315 0.063 0.113 0.164 0.315-0.239-0.013-0.403-0.277-0.29-0.277-0.328 0.088-0.491 0.479 0.227c0 0 0.756 0.529 0.819 0.555s1.525 0.403 1.525 0.403l0.302 0.718-0.151 1.134-0.466-0.139-0.441-0.567c0 0-0.126-0.063-0.189-0.050s-0.214 0.265-0.214 0.265l0.151 0.353-0.202 0.063-0.189 0.126-0.038 0.265 0.176 0.164c0 0 0 0.302 0 0.34s0.101 0.176 0.139 0.189 0.328 0.050 0.397 0.044c0.069-0.006 0.586-0.221 0.586-0.221s0.97 0.019 0.996 0.013c0.025-0.006 0.863-0.189 0.863-0.189l0.473 0.076c0 0 0.315-0.239 0.302-0.271s-0.328-0.328-0.372-0.334zM21.895 14.081c-0.255 0.028-0.388 0.104-0.406-0.038s-0.019-0.425 0.009-0.435c0.028-0.009 0.321-0.18 0.331-0.151s0.302 0.17 0.302 0.17l0.178 0.361c-0.094 0.050-0.239 0.073-0.415 0.093z"/><path fill="#ff4b55" d="M9.012 11.766c0 0 0.104-0.539 0.132-0.539s0.416-0.142 0.416-0.142l-1.153-0.747c0 0 0.198 0.917 0.217 0.992s0.388 0.435 0.388 0.435z"/><path fill="#464655" d="M11.945 10.657c0.004 0.001 0.027 0.006 0.062 0.013l-0.009 0.038c-0.014 0.061 0.024 0.122 0.085 0.136 0.009 0.002 0.017 0.003 0.026 0.003 0.052 0 0.098-0.035 0.11-0.088l0.012-0.053c0.082 0.010 0.172 0.018 0.258 0.018 0.073 0 0.144-0.005 0.205-0.020s0.099-0.075 0.085-0.136c-0.014-0.061-0.075-0.1-0.136-0.085-0.179 0.042-0.529-0.020-0.649-0.047-0.060-0.014-0.122 0.024-0.136 0.085s0.024 0.122 0.085 0.136z"/><path fill="#464655" d="M23.174 12.488l0.286 0.873c0.015 0.047 0.059 0.078 0.108 0.078 0.002 0 0.003 0 0.005 0 0.051-0.002 0.094-0.038 0.105-0.088 0.209-0.896 0.628-2.314 0.924-2.545 0.041-0.032 0.055-0.088 0.034-0.136s-0.072-0.074-0.124-0.065c-0.061 0.011-1.495 0.291-2.493 1.788-0.026 0.038-0.025 0.088 0 0.126s0.072 0.056 0.117 0.048l0.831-0.172c-0.116 0.281-0.191 0.527-0.216 0.618-0.378-0.23-0.805-0.271-1.101-0.195-0.338 0.089-0.622 0.304-0.779 0.591-0.121 0.22-0.153 0.462-0.088 0.663 0.075 0.234 0.277 0.524 0.616 0.639 0.225 0.076 0.588 0.093 1.067-0.203 0 0.002 0 0.004 0 0.007-0.003 0.189-0.1 0.343-0.289 0.459-0.375 0.229-1.031 0.245-1.463 0.033-0.57-0.278-1.427-0.437-1.906-0.509 0.297-0.095 0.656-0.121 1.087-0.023 0.006 0.002 0.012-0.001 0.017-0 0.003 0 0.005 0.003 0.008 0.003s0.006-0.003 0.009-0.004c0.026-0.002 0.051-0.010 0.070-0.029 0-0 0-0.001 0.001-0.001s0-0 0-0 0-0.001 0.001-0.002c0.018-0.019 0.026-0.043 0.029-0.069 0.001-0.006 0.001-0.011 0.001-0.017s0.002-0.010 0.001-0.015c-0.001-0.007-0.127-0.65 0.219-1.094 0.208-0.267 0.548-0.412 1.011-0.433 0.007-0 0.013-0.005 0.020-0.006 0.010-0.002 0.020-0.004 0.029-0.009s0.014-0.012 0.021-0.018c0.006-0.005 0.013-0.009 0.017-0.015 0.001-0.001 0.001-0.003 0.002-0.005s0.002-0.002 0.003-0.003c0.002-0.004 0.002-0.008 0.003-0.011 0.005-0.011 0.009-0.023 0.010-0.035 0.001-0.006 0.001-0.011 0-0.017-0.001-0.013-0.004-0.025-0.008-0.037-0.001-0.003-0.001-0.006-0.002-0.009-0.009-0.018-0.899-1.798 0.551-2.986 0.047-0.039 0.055-0.108 0.018-0.156s-0.105-0.059-0.155-0.024c-1.432 1.005-3.41 1.114-4.194 1.114-1.399 0-2.282 0.527-2.702 1.61-0.044 0.113-0.074 0.246-0.1 0.389 0.014-0.2-0.023-0.376-0.113-0.523-0.129-0.21-0.326-0.297-0.415-0.328 0-0.051-0-0.102-0.002-0.152 0.153-0.024 0.335 0.095 0.395 0.146 0.021 0.018 0.047 0.027 0.074 0.027 0.017 0 0.035-0.004 0.051-0.012 0.041-0.021 0.065-0.063 0.062-0.109-0.037-0.527-0.395-0.784-0.64-0.87 0.216-0.172 0.447-0.453 0.588-0.912 0.014-0.044-0.001-0.092-0.037-0.121s-0.086-0.034-0.126-0.011c-0.004 0.002-0.235 0.127-0.582 0.23l0.032-0.412c0.003-0.042-0.017-0.082-0.052-0.104s-0.081-0.024-0.117-0.003c-0.006 0.003-0.587 0.329-1.179 0.501-0.447-0.112-1.029-0.2-1.249 0.030-0.053 0.055-0.103 0.145-0.090 0.284-0.381-0.079-1.254-0.209-1.785 0.133-0.042 0.027-0.061 0.078-0.048 0.126s0.057 0.082 0.106 0.083c0.168 0.004 0.429 0.043 0.537 0.115-0.048 0.129-0.127 0.403-0.058 0.666-0.23 0.067-0.472 0.077-0.765-0.082l0.256-0.063c0.046-0.011 0.080-0.050 0.086-0.097s-0.019-0.092-0.061-0.114c-0.007-0.004-0.652-0.339-1.189-0.904-0.030-0.032-0.077-0.043-0.119-0.029s-0.072 0.052-0.076 0.096c-0.005 0.045-0.101 1.119 0.714 1.755 0.020 0.016 0.045 0.024 0.070 0.024 0.016 0 0.031-0.003 0.046-0.010 0.038-0.017 0.064-0.053 0.067-0.095l0.032-0.405c0.406 0.243 0.743 0.22 1.032 0.132 0.036 0.055 0.082 0.108 0.14 0.156 0.009 0.008 0.022 0.016 0.035 0.025-0.186 0.434-0.554 0.546-0.57 0.551-0.046 0.013-0.079 0.054-0.082 0.101s0.023 0.092 0.067 0.112c0.027 0.012 0.621 0.269 1.286 0.032l-0.010 0.076c-0.004 0.032 0.005 0.064 0.026 0.089s0.052 0.039 0.084 0.040c0.003 0 0.010 0 0.022 0 0.076 0 0.33-0.006 0.617-0.072-0.043 0.406-0.291 0.889-0.554 1.4-0.356 0.691-0.753 1.471-0.747 2.258-0.136-0.176-0.305-0.45-0.389-0.814-0.029-0.126-0.048-0.24-0.066-0.344-0.042-0.251-0.079-0.467-0.227-0.671-0.168-0.23-0.405-0.745-0.394-1.025 0.010-0.26-0.16-0.412-0.333-0.449-0.012-0.003-0.024 0.001-0.037-0.001-0.041-0.082-0.152-0.24-0.406-0.258-0.061-0.008-0.117 0.043-0.121 0.105s0.043 0.117 0.105 0.121c0.089 0.006 0.144 0.040 0.178 0.074-0.083 0.043-0.151 0.114-0.197 0.206-0.152-0.088-0.305-0.109-0.423-0.083-0.030 0.007-0.053 0.023-0.080 0.036-0.077-0.040-0.281-0.116-0.528 0.040-0.053 0.033-0.069 0.104-0.035 0.156 0.022 0.034 0.058 0.053 0.096 0.053 0.021 0 0.042-0.006 0.061-0.018 0.088-0.056 0.163-0.063 0.218-0.056-0.040 0.075-0.063 0.157-0.059 0.234 0.008 0.153 0.096 0.271 0.233 0.321-0.163 0.031-0.301 0.107-0.374 0.209-0.012 0.017-0.014 0.035-0.023 0.053-0.104 0.011-0.263 0.081-0.364 0.293-0.027 0.056-0.003 0.124 0.054 0.151 0.016 0.007 0.032 0.011 0.048 0.011 0.043 0 0.083-0.024 0.103-0.065 0.045-0.095 0.098-0.132 0.137-0.15 0.108 0.355 0.458 0.274 0.669 0.225l0.085-0.019c0.118-0.024 0.327 0.322 0.383 0.547 0.039 0.156-0.028 0.347-0.238 0.681-0.128 0.203-0.091 0.35-0.037 0.438 0.001 0.002 0.003 0.003 0.004 0.004-0.034 0.010-0.076 0.018-0.132 0.010-0.061-0.012-0.119 0.035-0.128 0.097s0.035 0.119 0.097 0.128c0.029 0.004 0.056 0.006 0.082 0.006 0.132 0 0.22-0.045 0.273-0.082 0.074 0.032 0.15 0.043 0.206 0.039 0.156-0.013 0.262-0.15 0.334-0.32 0.209 1.15 0.688 2.219 0.771 2.399-0.017 0.408-0.457 0.503-0.476 0.507-0.049 0.010-0.085 0.051-0.090 0.101s0.024 0.096 0.070 0.115c0.191 0.078 0.359 0.11 0.504 0.11 0.449 0 0.686-0.296 0.761-0.41 0.331-0.115 0.72-0.386 0.871-0.496 0.253 0.189 0.463 0.294 0.533 0.327-0.122 1.203-0.827 2.015-1.034 2.228-0.14-0.080-0.448-0.278-0.55-0.513-0.096-0.223-0.275-0.285-0.421-0.272-0.049-0.063-0.159-0.181-0.313-0.198-0.076-0.008-0.191 0.006-0.307 0.123-0.044 0.044-0.044 0.116 0 0.16s0.116 0.045 0.16 0c0.064-0.064 0.108-0.060 0.122-0.058 0.044 0.005 0.086 0.036 0.119 0.069-0.083 0.070-0.134 0.169-0.126 0.277 0.006 0.076 0.034 0.147 0.074 0.213-0.083 0.043-0.182 0.114-0.248 0.225-0.002 0.004-0.005 0.010-0.008 0.015-0.135 0.009-0.379 0.104-0.417 0.42-0.007 0.062 0.037 0.119 0.099 0.126 0.005 0.001 0.009 0.001 0.014 0.001 0.057 0 0.106-0.042 0.113-0.1 0.014-0.113 0.068-0.167 0.12-0.195-0.001 0.047 0.003 0.095 0.019 0.145 0.039 0.119 0.132 0.216 0.27 0.291-0.015 0.047-0.024 0.096-0.025 0.15-0.073 0.037-0.18 0.105-0.236 0.222-0.041 0.087-0.044 0.185-0.008 0.282 0.017 0.046 0.060 0.074 0.106 0.074 0.013 0 0.027-0.002 0.040-0.007 0.059-0.022 0.089-0.087 0.067-0.146-0.020-0.053-0.010-0.086-0-0.106 0.017-0.036 0.050-0.066 0.084-0.089 0.042 0.075 0.106 0.133 0.191 0.161 0.039 0.013 0.079 0.019 0.12 0.019 0.135 0 0.272-0.068 0.359-0.187 0.105-0.142 0.31-0.061 0.324-0.055 0.43 0.156 1.010 0.038 1.361-0.159 0.195-0.11 0.881-0.051 1.268 0.013 0.030 0.004 0.063-0.003 0.087-0.022s0.041-0.048 0.044-0.079c0.039-0.392-0.467-0.496-0.875-0.579-0.111-0.023-0.216-0.044-0.316-0.087-0.040-0.23 0.557-1.066 1.126-1.485 0.139-0.102 0.252-0.144 0.308-0.113 0.080 0.044 0.106 0.249 0.098 0.374-0 0.003 0.002 0.006 0.002 0.009 0 0.012 0.002 0.024 0.007 0.036 0.002 0.005 0.003 0.010 0.006 0.015 0.002 0.003 0.002 0.006 0.004 0.009 0.007 0.010 0.015 0.017 0.024 0.024 0.002 0.001 0.002 0.004 0.004 0.005 0 0 0.001 0 0.001 0 0.015 0.010 0.031 0.017 0.048 0.019 0.004 0.001 0.008 0 0.013 0 0.013 0.001 0.025-0.001 0.037-0.004 0.003-0.001 0.006 0 0.009-0.001 0.009-0.004 0.019-0.009 0.029-0.012 0.060-0.031 0.163 0.004 0.235 0.040-0.013 0.041-0.021 0.085-0.018 0.131 0.005 0.058 0.023 0.117 0.051 0.172-0.112-0.013-0.217 0-0.294 0.058-0.027 0.021-0.049 0.047-0.070 0.073-0.16 0.016-0.359 0.116-0.407 0.354-0.012 0.061 0.027 0.121 0.089 0.134 0.008 0.002 0.015 0.002 0.022 0.002 0.053 0 0.1-0.037 0.111-0.091 0.011-0.057 0.040-0.091 0.072-0.117-0.001 0.041 0.003 0.082 0.016 0.121 0.022 0.070 0.082 0.175 0.235 0.233-0.014 0.023-0.026 0.048-0.036 0.074-0.114 0.037-0.285 0.154-0.285 0.404 0 0.063 0.051 0.113 0.113 0.113s0.113-0.051 0.113-0.113c0-0.044 0.011-0.076 0.025-0.103 0.004 0.016 0.006 0.033 0.012 0.049 0.027 0.072 0.11 0.206 0.341 0.206 0.076 0 0.168-0.014 0.28-0.051 0.271-0.088 0.463-0.097 0.648-0.106 0.222-0.011 0.431-0.021 0.726-0.157 0.424-0.197 0.949-0.13 1.225-0.073 0.149 0.031 0.295-0.043 0.355-0.179 0.021-0.047 0.034-0.087 0.048-0.129 0.128 0.015 0.155 0.14 0.158 0.168 0.006 0.058 0.055 0.101 0.113 0.101 0.004 0 0.008-0 0.012-0.001 0.062-0.006 0.108-0.062 0.101-0.125-0.012-0.119-0.1-0.331-0.335-0.368 0.003-0.080-0.013-0.147-0.052-0.195-0.043-0.053-0.129-0.109-0.297-0.074-0.174 0.036-0.254 0.043-0.29 0.040 0.005-0.022 0.018-0.061 0.048-0.128 0.101-0.228 0.774-0.829 1.215-1.189 0.106-0.024 0.241-0.025 0.272 0.010 0.011 0.012 0.011 0.054-0.014 0.12-0.018 0.047-0.003 0.099 0.037 0.13s0.094 0.032 0.135 0.003c0.018-0.012 0.429-0.305 0.421-0.66-0.004-0.18-0.109-0.336-0.312-0.464-0.172-0.108-0.27-0.234-0.293-0.373-0.024-0.145 0.038-0.274 0.079-0.343 0.162 0.078 0.326 0.179 0.488 0.313 0.958 0.792 1.773 0.918 2.213 0.916 0.092 0.204 0.363 0.9 0.132 1.615-0.123-0.022-0.365-0.1-0.531-0.377-0.161-0.269-0.355-0.336-0.489-0.345-0.209-0.016-0.43 0.102-0.604 0.32-0.037 0.047-0.032 0.114 0.012 0.154s0.112 0.040 0.155-0.001c0.029-0.027 0.083-0.061 0.106-0.043l0.023 0.066c0.013 0.036 0.025 0.073 0.041 0.108-0.090 0.013-0.177 0.050-0.245 0.127-0.045 0.051-0.073 0.109-0.093 0.169-0.208 0.037-0.321 0.195-0.326 0.202-0.035 0.052-0.021 0.121 0.031 0.156 0.019 0.013 0.041 0.020 0.063 0.020 0.036 0 0.072-0.017 0.094-0.049 0.002-0.003 0.044-0.060 0.119-0.092 0.009 0.043 0.025 0.084 0.048 0.122 0.039 0.063 0.095 0.105 0.158 0.128-0.009 0.033-0.016 0.069-0.020 0.107-0.002 0.001-0.005 0-0.007 0.001-0.272 0.114-0.216 0.452-0.149 0.614 0.018 0.044 0.060 0.070 0.105 0.070 0.014 0 0.029-0.003 0.043-0.009 0.058-0.024 0.085-0.090 0.062-0.148-0.001-0.002-0.065-0.169-0.024-0.264 0.001 0.003 0.001 0.005 0.003 0.008 0.047 0.106 0.137 0.182 0.262 0.219 0.061 0.018 0.12 0.026 0.176 0.026 0.186 0 0.343-0.086 0.476-0.159 0.103-0.056 0.201-0.108 0.278-0.103 0.056 0.005 0.12 0.015 0.19 0.026 0.265 0.041 0.629 0.098 0.99-0.019 0.067-0.022 0.128-0.043 0.184-0.062 0.293-0.1 0.403-0.138 0.582-0.036 0.217 0.124 0.497 0.041 0.641-0.111 0.045-0.048 0.071-0.101 0.085-0.155 0.074 0.029 0.134 0.061 0.144 0.079-0.021 0.059 0.010 0.124 0.069 0.145 0.013 0.004 0.025 0.006 0.038 0.006 0.047 0 0.090-0.029 0.107-0.075 0.021-0.059 0.016-0.12-0.015-0.177-0.075-0.137-0.294-0.21-0.404-0.239-0.181-0.247-0.458-0.323-0.915-0.251-0.018 0.003-0.032-0.001-0.048-0.014-0.167-0.135-0.204-0.836-0.226-1.255-0.018-0.335-0.029-0.529-0.081-0.623 0.026-0.022 0.17-0.024 0.259 0.041 0.043 0.032 0.047 0.061 0.037 0.093-0.002 0.005-0.003 0.009-0.005 0.014-0.022 0.058 0.006 0.123 0.064 0.146s0.123-0.005 0.147-0.063c0.003-0.008 0.006-0.016 0.009-0.024 0.040-0.115 0.206-0.635 0.011-0.965-0.088-0.148-0.231-0.236-0.425-0.263-0.495-0.067-0.872-0.383-1.125-0.934 0.384-0.135 1.515-0.648 1.726-2.062 0.14-0.94-0.197-1.467-0.504-1.743-0.015-0.013-0.031-0.023-0.046-0.036 0.009-0.012 0.020-0.021 0.024-0.036 0.002-0.004 0.080-0.29 0.216-0.62zM22.373 12.286c0.646-0.841 1.439-1.216 1.868-1.367-0.281 0.507-0.549 1.454-0.689 1.995l-0.236-0.721c-0.001-0.003-0.004-0.004-0.005-0.007 0.069-0.136 0.147-0.269 0.233-0.38 0.038-0.050 0.029-0.121-0.021-0.159s-0.121-0.029-0.159 0.021c-0.107 0.139-0.201 0.304-0.283 0.471l-0.708 0.146zM8.945 11.611c-0.349-0.37-0.44-0.85-0.461-1.142 0.299 0.277 0.6 0.484 0.804 0.611l-0.181 0.044c-0.034-0.028-0.068-0.053-0.104-0.086-0.046-0.042-0.118-0.037-0.16 0.009s-0.038 0.118 0.009 0.16c0.040 0.036 0.079 0.064 0.118 0.095l-0.024 0.308zM17.501 15.353c-0.212-0.566-0.852-1.92-2.419-3.053 0.001-0.003 0.002-0.008 0.003-0.011 0.020-0.052 0.046-0.097 0.069-0.146 2.373 0.606 3.817 1.593 4.394 2.052-1.179-0.087-1.802 0.725-2.047 1.157zM20.069 13.11c-0.251 0.322-0.294 0.714-0.289 0.979-0.52-0.436-1.983-1.496-4.527-2.154 0.033-0.057 0.072-0.107 0.109-0.159 0.008 0.002 0.016 0.005 0.025 0.005 3.13-0.134 4.876 0.538 5.515 0.854-0.359 0.073-0.642 0.228-0.833 0.474zM17.575 10.824c0.692 0 2.289-0.083 3.666-0.766-0.591 0.891-0.379 1.89-0.212 2.384-0.634-0.325-2.352-1-5.485-0.892 0.452-0.484 1.12-0.727 2.031-0.727zM14.915 13.24c0.028-0.256 0.056-0.5 0.101-0.706 1.506 1.117 2.113 2.466 2.292 2.956-0.37-0.083-0.705-0.056-0.994 0.093-0.236 0.122-0.401 0.301-0.514 0.466-0.050-0.571-0.239-1.589-0.927-2.391-0.002-0.003-0.005-0.004-0.008-0.006 0.018-0.138 0.035-0.276 0.050-0.411zM14.772 16.703c-0.527-0.123-0.748-0.654-0.759-0.679-0.014-0.034-0.044-0.060-0.080-0.068-0.009-0.002-0.017-0.003-0.026-0.003-0.028 0-0.055 0.010-0.076 0.029-0.379 0.341-0.842 0.43-1.073 0.454 0.183-0.574 0.697-0.873 1.389-1.274l0.032-0.019c0.172-0.1 0.297-0.252 0.394-0.431-0 0.285 0.015 0.603 0.068 0.871 0.011 0.054 0.058 0.092 0.111 0.092 0.007 0 0.015-0.001 0.022-0.002 0.061-0.012 0.101-0.072 0.089-0.133-0.114-0.579-0.042-1.449-0.031-1.567 0.66 0.89 0.747 2.014 0.757 2.381-0.387-0.067-0.603-0.368-0.605-0.371-0.021-0.031-0.056-0.049-0.093-0.049h-0.001c-0.037 0-0.071 0.018-0.093 0.048-0.168 0.238-0.102 0.53-0.027 0.721zM14.37 13.6c-0.088-0.108-0.206-0.227-0.323-0.279 0.027-0.106 0.051-0.218 0.074-0.336 0.121 0.1 0.305 0.305 0.249 0.616zM13.859 14.005c0.034 0.005 0.241 0.045 0.326 0.31-0.096-0.017-0.209-0.008-0.324 0.054-0.018-0.106-0.022-0.228-0.003-0.364zM14.264 14.587c0.033 0.025 0.076 0.028 0.114 0.012-0.066 0.122-0.149 0.223-0.25 0.299-0.056-0.056-0.137-0.156-0.199-0.302 0.168-0.123 0.319-0.022 0.336-0.009zM14.655 12.915c0.040-0.010 0.070-0.042 0.081-0.081-0.017 0.123-0.032 0.25-0.046 0.382-0.047 0.431-0.099 0.898-0.246 1.253-0.042-0.477-0.353-0.652-0.535-0.684 0.010-0.033 0.018-0.065 0.031-0.1 0.016-0.045 0.032-0.093 0.048-0.144 0.104 0.065 0.247 0.242 0.327 0.366 0.021 0.033 0.057 0.052 0.095 0.052 0.003 0 0.005 0 0.008-0 0.041-0.003 0.078-0.028 0.095-0.065 0.271-0.584-0.094-1-0.348-1.157 0.006-0.042 0.013-0.083 0.019-0.125 0.147 0.069 0.305 0.212 0.361 0.273 0.022 0.023 0.052 0.036 0.083 0.036 0.010 0 0.019-0.001 0.029-0.004zM14.467 12.192c0.065 0.105 0.092 0.235 0.082 0.386-0.092-0.076-0.214-0.159-0.338-0.203 0.013-0.129 0.023-0.258 0.029-0.386 0.069 0.034 0.162 0.096 0.227 0.203zM14.549 11.421c-0.093-0.041-0.205-0.068-0.32-0.056-0.012-0.126-0.030-0.244-0.056-0.35 0.119 0.056 0.29 0.173 0.376 0.405zM13.817 9.735l-0.022 0.284c-0.176 0.039-0.37 0.069-0.575 0.073-0.031-0.011-0.074-0.025-0.123-0.041 0.292-0.108 0.554-0.232 0.72-0.316zM10.502 11.568c-0.023-0.020-0.044-0.040-0.062-0.062 0.022-0.009 0.044-0.018 0.066-0.026 0.157-0.063 0.306-0.123 0.449-0.131 0.321-0.020 0.415 0.107 0.436 0.146s0.018 0.075 0.005 0.092c-0.053 0.073-0.139 0.116-0.255 0.13-0.264 0.030-0.579-0.099-0.64-0.15zM11.299 12.288c-0.034-0.025-0.079-0.029-0.117-0.009-0.389 0.194-0.776 0.17-1.022 0.121 0.148-0.101 0.321-0.269 0.437-0.536 0.133 0.048 0.297 0.087 0.46 0.087 0.038 0 0.075-0.002 0.113-0.007 0.178-0.022 0.319-0.098 0.41-0.221 0.068-0.093 0.073-0.222 0.012-0.335-0.048-0.088-0.206-0.291-0.648-0.265-0.18 0.010-0.353 0.079-0.521 0.146-0.027 0.011-0.054 0.022-0.080 0.032-0.061-0.268 0.075-0.564 0.077-0.568 0.017-0.036 0.014-0.078-0.008-0.111-0.063-0.095-0.189-0.154-0.321-0.191 0.611-0.128 1.396 0.083 1.406 0.086 0.042 0.011 0.086-0.001 0.115-0.034s0.037-0.077 0.021-0.118c-0.046-0.115-0.048-0.195-0.006-0.238 0.176-0.184 1.006-0.002 1.539 0.185 0.013 0.004 0.027 0.003 0.039 0.007 0.525-0.008 0.984-0.158 1.255-0.271-0.307 0.666-0.828 0.759-0.853 0.764-0.062 0.010-0.104 0.067-0.094 0.129s0.068 0.105 0.129 0.095c0.012-0.002 0.123-0.021 0.274-0.094 0.225 0.621 0.049 2.003-0.19 2.665-0.267 0.742 0.029 1.213 0.21 1.415-0.716 0.417-1.276 0.771-1.433 1.498-0 0.001-0.001 0.001-0.001 0.002-0.004 0.012-0.042 0.139-0.086 0.367-0.278-0.184-0.795-0.942-0.517-1.829 0.076-0.242 0.165-0.479 0.251-0.708 0.256-0.681 0.498-1.324 0.318-1.926 0.070-0.050 0.136-0.107 0.193-0.173 0.198-0.23 0.267-0.525 0.205-0.875-0.011-0.062-0.069-0.104-0.131-0.092-0.062 0.011-0.103 0.069-0.092 0.131 0.050 0.284-0.001 0.509-0.154 0.688-0.297 0.346-0.899 0.418-1.163 0.432l0.020-0.142c0.006-0.042-0.012-0.083-0.046-0.107zM12.317 17.459c-0.195 0.239-0.592 0.556-0.746 0.676-0.142-0.136-0.284-0.296-0.41-0.485 0.58-0.098 0.929-0.459 1.059-0.626 0.043 0.037 0.085 0.067 0.121 0.086 0.011 0.006 0.022 0.006 0.033 0.008-0.015 0.097-0.030 0.207-0.043 0.328-0.005 0.004-0.010 0.007-0.015 0.012zM10.937 15.392c0.091 0.026 0.328 0.086 0.547 0.086 0.040 0 0.076-0.007 0.113-0.012-0.008 0.14-0.001 0.274 0.018 0.402-0.181 0.118-0.602 0.128-0.83 0.118 0.031-0.198 0.083-0.397 0.151-0.594zM11.221 14.715c0.084 0.020 0.247 0.053 0.413 0.053 0.043 0 0.086-0.003 0.127-0.008-0.027 0.077-0.054 0.153-0.079 0.232-0.026 0.083-0.044 0.165-0.059 0.245-0.001 0-0.002-0-0.002 0-0.168 0.042-0.457-0.018-0.605-0.059 0.063-0.156 0.131-0.311 0.204-0.464zM11.48 14.2c0.029-0.057 0.058-0.113 0.087-0.17 0.099 0.024 0.293 0.068 0.43 0.085-0.019 0.052-0.039 0.104-0.059 0.157-0.030 0.080-0.060 0.162-0.091 0.244-0.014-0.001-0.029-0-0.043 0.005-0.134 0.041-0.344 0.013-0.48-0.015 0.052-0.104 0.104-0.206 0.156-0.306zM11.84 13.46c0.082 0.031 0.212 0.072 0.344 0.072 0.004 0 0.008-0.002 0.012-0.002-0.034 0.119-0.075 0.241-0.12 0.366-0.063-0.001-0.248-0.037-0.405-0.074 0.061-0.123 0.117-0.243 0.168-0.362zM11.997 13.026c0.064 0.005 0.123 0.008 0.174 0.008s0.089-0.003 0.125-0.008c-0.008 0.088-0.020 0.177-0.040 0.269-0.086 0.025-0.227-0.008-0.331-0.046 0.028-0.075 0.052-0.15 0.072-0.223zM10.931 16.216c0.217 0 0.521-0.025 0.731-0.122 0.029 0.107 0.067 0.208 0.109 0.303-0.39 0.271-0.825 0.333-0.979 0.346-0.017-0.094-0.029-0.191-0.035-0.292-0.005-0.079-0.002-0.159 0.003-0.238 0.044 0.002 0.102 0.004 0.171 0.004zM11.877 16.599c0.059 0.099 0.121 0.188 0.184 0.263-0.096 0.128-0.437 0.519-1.022 0.582-0.078-0.146-0.144-0.305-0.193-0.478 0.198-0.019 0.629-0.096 1.032-0.367zM12.264 12.547c0.020 0.082 0.032 0.166 0.036 0.25v0c-0.029 0.009-0.136 0.010-0.253 0.004 0.009-0.058 0.015-0.115 0.017-0.172 0.067-0.023 0.134-0.051 0.199-0.082zM10.736 18.856c-0.029 0.009-0.054 0.030-0.068 0.058-0.009 0.019-0.201 0.392-0.708 0.319 0.179-0.118 0.344-0.317 0.344-0.621 0-0.017-0.004-0.033-0.011-0.048s-0.745-1.589-0.846-2.997c-0.004-0.059-0.053-0.105-0.113-0.105h-0.001c-0.059 0-0.108 0.045-0.113 0.104-0.029 0.354-0.147 0.756-0.268 0.766-0.045 0.005-0.149-0.029-0.189-0.094-0.029-0.048-0.017-0.115 0.036-0.199 0.206-0.328 0.331-0.599 0.266-0.857-0.054-0.216-0.306-0.784-0.65-0.714l-0.090 0.020c-0.293 0.069-0.368 0.055-0.404-0.078-0.009-0.033-0.004-0.060 0.016-0.087 0.050-0.069 0.177-0.121 0.316-0.129 0.262-0.014 0.366 0.098 0.369 0.101 0.034 0.042 0.094 0.053 0.141 0.028s0.071-0.081 0.055-0.133c-0.004-0.014-0.112-0.355-0.568-0.411-0.102-0.012-0.127-0.078-0.13-0.131-0.004-0.087 0.051-0.191 0.151-0.213 0.179-0.040 0.514 0.112 0.659 0.692 0.015 0.061 0.078 0.096 0.137 0.083 0.061-0.015 0.098-0.077 0.083-0.138-0.074-0.297-0.194-0.5-0.329-0.637 0.002-0.004 0.006-0.007 0.008-0.012 0.054-0.138 0.166-0.167 0.247-0.151 0.077 0.016 0.158 0.082 0.153 0.218-0.014 0.376 0.283 0.955 0.437 1.167 0.117 0.161 0.146 0.335 0.187 0.576 0.018 0.107 0.038 0.225 0.068 0.356 0.15 0.654 0.546 1.051 0.639 1.137 0.123 0.787 0.566 1.337 0.973 1.687-0.175 0.124-0.523 0.356-0.797 0.441zM11.744 18.289c0.131-0.103 0.362-0.292 0.555-0.48-0.016 0.221-0.028 0.464-0.029 0.739-0 0.032-0.003 0.063-0.004 0.095-0.112-0.060-0.306-0.176-0.522-0.354zM18.75 17.533l0.198-0.585c0.193 0.069 0.375 0.147 0.546 0.233l-0.377 0.527c-0.12-0.070-0.242-0.128-0.366-0.175zM18.533 17.466c-0.106-0.027-0.213-0.047-0.322-0.058l0.073-0.64c0.026 0.005 0.053 0.008 0.080 0.013 0.127 0.027 0.248 0.060 0.367 0.096l-0.199 0.588zM17.984 17.399c-0.112 0.001-0.225 0.011-0.339 0.029l-0.062-0.717c0.16-0.002 0.32 0.005 0.478 0.022l-0.076 0.665zM17.356 16.721l0.065 0.753c-0.117 0.030-0.235 0.070-0.354 0.117l-0.2-0.817c0.16-0.025 0.324-0.043 0.489-0.053zM17.007 18.9c-0.091-0.032-0.176-0.075-0.257-0.124l0.405-0.77c0.009 0.011 0.020 0.020 0.028 0.033 0.040 0.068 0.046 0.157 0.018 0.266-0.038 0.145-0.105 0.357-0.194 0.594zM16.504 18.146c0.14-0.094 0.295-0.183 0.459-0.261l-0.403 0.764c-0.155-0.12-0.275-0.245-0.343-0.323 0.095-0.056 0.19-0.116 0.286-0.18zM16.643 16.812l0.214 0.871c-0.109 0.053-0.22 0.113-0.33 0.18l-0.328-0.953c0.142-0.036 0.291-0.069 0.445-0.099zM15.978 16.97l0.346 1.004c0.002 0.005 0.006 0.006 0.008 0.011-0.138 0.090-0.275 0.171-0.409 0.246l-0.335-1.138c0.119-0.040 0.25-0.082 0.391-0.122zM15.373 17.168l0.345 1.17c0 0.001 0.001 0.001 0.001 0.002-0.151 0.077-0.295 0.145-0.428 0.203l-0.375-1.171c0.005-0.008 0.010-0.019 0.015-0.026 0.062-0.028 0.219-0.096 0.442-0.178zM14.772 17.665l0.309 0.965c-0.236 0.094-0.421 0.153-0.512 0.181-0.059-0.375 0.064-0.819 0.203-1.146zM14.705 19.74c0.077-0.185 0.054-0.412-0.069-0.694-0.002-0.005-0.004-0.010-0.007-0.015 0.19-0.056 0.747-0.237 1.388-0.591 0.114 0.139 0.453 0.509 0.907 0.671-0.258 0.63-0.642 1.337-1.030 1.4-0.325 0.051-0.501-0.142-0.671-0.331-0.148-0.164-0.316-0.35-0.555-0.224-0.019 0.010-0.033 0.022-0.049 0.034-0.018-0.011-0.044-0.024-0.074-0.038 0.065-0.057 0.124-0.123 0.16-0.21zM18.545 18.203c0.033 0.206 0.167 0.385 0.397 0.53 0.134 0.085 0.204 0.178 0.206 0.277 0.003 0.106-0.067 0.216-0.145 0.306-0.011-0.022-0.024-0.040-0.037-0.055-0.145-0.161-0.459-0.088-0.521-0.072-0.016 0.004-0.030 0.012-0.043 0.022-0.116 0.095-1.141 0.935-1.299 1.29-0.059 0.133-0.11 0.271-0.030 0.37 0.083 0.103 0.242 0.092 0.526 0.033 0.024-0.005 0.042-0.006 0.054-0.006 0.014 0 0.020 0 0.020 0.002 0.010 0.016 0.016 0.108-0.076 0.315-0.017 0.038-0.059 0.057-0.101 0.049-0.303-0.063-0.883-0.135-1.366 0.089-0.254 0.118-0.434 0.126-0.641 0.136-0.191 0.009-0.408 0.020-0.707 0.117-0.069 0.022-0.298 0.087-0.339-0.021-0.035-0.091 0.033-0.251 0.105-0.298 0.446 0.017 0.628 0.017 0.628 0.017 0.063 0 0.113-0.051 0.113-0.113s-0.051-0.113-0.113-0.113c-0.002 0-0.19 0-0.657-0.019-0.081-0.003-0.22-0.023-0.251-0.118-0.022-0.071 0.017-0.172 0.088-0.227 0.062-0.048 0.27 0.005 0.473 0.093 0.065 0.041 0.132 0.074 0.197 0.095 0.055 0.020 0.116-0.008 0.14-0.062s0.002-0.116-0.049-0.145c-0.040-0.022-0.106-0.057-0.186-0.093-0.132-0.090-0.237-0.218-0.245-0.318-0.003-0.036 0.004-0.083 0.088-0.127 0.073-0.038 0.125 0.003 0.281 0.176 0.181 0.201 0.428 0.473 0.875 0.403 0.871-0.141 1.485-2.349 1.49-2.371 0.044-0.169 0.030-0.317-0.042-0.439-0.042-0.070-0.096-0.116-0.147-0.151 0.428-0.154 0.91-0.207 1.405-0.035-0.057 0.104-0.122 0.273-0.091 0.465zM19.308 17.831l0.388-0.541c0.141 0.079 0.274 0.163 0.399 0.249l-0.497 0.514c-0.039-0.030-0.076-0.056-0.115-0.088-0.057-0.047-0.115-0.092-0.174-0.133zM20.28 18.494l0.498-0.397c0.096 0.093 0.183 0.183 0.261 0.269l-0.403 0.286c-0.113-0.042-0.232-0.095-0.356-0.158zM20.063 18.377c-0.093-0.055-0.188-0.117-0.286-0.186l0.502-0.519c0.118 0.089 0.229 0.18 0.33 0.269l-0.546 0.435zM20.906 18.739l0.282-0.2c0.092 0.111 0.167 0.21 0.221 0.286-0.14-0.008-0.311-0.035-0.503-0.086zM23.26 14.89c-0.2 1.342-1.276 1.787-1.596 1.89-0.269-0.605-0.715-1.115-1.012-1.269-0.055-0.028-0.124-0.007-0.153 0.048s-0.007 0.124 0.049 0.153c0.226 0.117 0.684 0.594 0.949 1.246 0.285 0.703 0.742 1.102 1.357 1.185 0.124 0.017 0.209 0.067 0.26 0.153 0.075 0.127 0.071 0.318 0.044 0.486-0.145-0.092-0.38-0.121-0.509-0.023-0.080 0.061-0.103 0.158-0.061 0.26 0.028 0.069 0.041 0.316 0.054 0.555 0.036 0.691 0.082 1.235 0.309 1.419 0.066 0.053 0.145 0.075 0.226 0.061 0.448-0.071 0.612 0.024 0.719 0.189 0.006 0.010 0.026 0.040-0.027 0.097-0.081 0.085-0.25 0.135-0.364 0.071-0.268-0.154-0.457-0.089-0.768 0.018-0.055 0.019-0.114 0.039-0.18 0.061-0.309 0.1-0.628 0.050-0.885 0.010-0.075-0.012-0.144-0.022-0.204-0.028-0.146-0.014-0.279 0.059-0.408 0.129-0.156 0.085-0.303 0.167-0.477 0.114-0.081-0.024-0.107-0.065-0.12-0.093-0.038-0.085-0.010-0.209 0.017-0.288 0.097-0.017 0.185-0.014 0.281-0.004 0.139 0.014 0.297 0.030 0.496-0.043 0.059-0.022 0.089-0.087 0.067-0.146s-0.087-0.088-0.146-0.067c-0.15 0.055-0.263 0.044-0.394 0.030-0.119-0.012-0.254-0.026-0.415 0.017-0.025 0.006-0.062 0.010-0.090-0.036-0.038-0.060-0.036-0.172 0.041-0.258 0.059-0.067 0.174-0.065 0.279-0.043 0.059 0.033 0.135 0.060 0.232 0.079 0.056 0.012 0.111-0.022 0.129-0.075s-0.006-0.113-0.057-0.138c-0.009-0.004-0.098-0.048-0.217-0.078-0.063-0.045-0.085-0.11-0.118-0.206l-0.025-0.071c-0.015-0.040-0.034-0.071-0.056-0.094 0.055-0.024 0.108-0.034 0.16-0.031 0.117 0.008 0.221 0.087 0.31 0.236 0.294 0.49 0.782 0.496 0.803 0.496 0.047 0 0.089-0.029 0.106-0.073 0.367-0.969-0.124-1.907-0.145-1.946-0-0.001-0.001-0.001-0.001-0.002s-0-0.001-0-0.002c-0.044-0.075-1.090-1.845-3.307-2.323-1.597-0.345-3.526 0.556-3.607 0.594-0.019 0.009-0.035 0.023-0.047 0.041-0.229 0.355-0.612 1.296-0.33 1.941 0.096 0.22 0.119 0.393 0.068 0.517-0.034 0.082-0.101 0.149-0.215 0.21-0.015-0.142-0.064-0.326-0.21-0.407-0.143-0.078-0.328-0.035-0.552 0.13-0.529 0.389-1.284 1.308-1.215 1.706 0.017 0.098 0.078 0.167 0.172 0.195 0.091 0.027 0.203 0.051 0.322 0.075 0.234 0.048 0.509 0.105 0.632 0.206-0.33-0.042-0.969-0.101-1.222 0.041-0.298 0.168-0.81 0.275-1.167 0.146-0.13-0.054-0.42-0.097-0.589 0.132-0.063 0.085-0.162 0.109-0.226 0.087-0.074-0.024-0.090-0.101-0.090-0.162 0-0.263 0.253-0.284 0.331-0.284 0.063 0 0.113-0.051 0.113-0.113s-0.051-0.113-0.113-0.113c-0.174 0-0.317 0.057-0.415 0.153-0.091-0.047-0.149-0.103-0.171-0.168-0.029-0.088 0.013-0.18 0.040-0.227 0.053-0.089 0.146-0.137 0.202-0.16 0.129 0.121 0.279 0.207 0.354 0.241 0.057 0.024 0.124-0.001 0.149-0.058s-0.001-0.124-0.059-0.149c-0.152-0.066-0.43-0.271-0.443-0.443-0.005-0.063 0.053-0.111 0.113-0.126 0.043-0.011 0.152-0.020 0.218 0.132 0.166 0.384 0.705 0.654 0.728 0.665 0.016 0.008 0.033 0.012 0.050 0.012 0.028 0 0.055-0.010 0.076-0.029 0.048-0.044 1.178-1.087 1.184-2.794 0.004-1.032 0.147-1.675 0.201-1.88 0.2-0.010 0.713-0.071 1.173-0.424 0.133 0.236 0.471 0.694 1.093 0.71 0.001 0 0.002 0 0.003 0 0.041 0 0.078-0.022 0.099-0.058 0.021-0.037 0.020-0.082-0.003-0.117-0.002-0.003-0.177-0.282-0.137-0.523 0.143 0.138 0.403 0.325 0.774 0.338h0c0.001 0 0.003 0 0.004 0 0.020 0 0.037-0.006 0.053-0.015 0.007-0.004 0.014-0.007 0.020-0.013 0.014-0.013 0.025-0.029 0.032-0.047 0.001-0.002 0.002-0.003 0.003-0.004 0.002-0.005 0.159-0.499 0.606-0.73 0.286-0.148 0.631-0.157 1.027-0.027 0.010 0.003 0.020 0.003 0.029 0.004 0.002 0 0.004 0.002 0.006 0.002s0.003-0.001 0.005-0.001 0.006-0.001 0.009-0.001 0.010-0.001 0.015-0.002c0.003-0.001 0.006-0.003 0.009-0.005 0.008-0.003 0.014-0.006 0.021-0.010s0.011-0.008 0.016-0.012c0.005-0.005 0.010-0.010 0.014-0.016s0.008-0.012 0.011-0.018c0.002-0.003 0.004-0.005 0.005-0.008 0.015-0.041 0.25-0.654 0.835-1.015 0.002 0 0.004 0.002 0.006 0.002 0.014 0.002 1.412 0.156 2.185 0.534 0.236 0.115 0.524 0.172 0.809 0.172 0.322 0 0.639-0.073 0.873-0.216 0.255-0.156 0.392-0.381 0.397-0.648 0.009-0.549-0.328-0.971-0.651-1.090-0.202-0.074-0.397-0.030-0.52 0.121-0.153 0.187-0.144 0.429 0.022 0.575 0.172 0.152 0.49 0.177 0.808-0.105 0.037 0.072 0.067 0.152 0.087 0.237-0.359 0.248-0.693 0.331-0.966 0.238-0.259-0.087-0.414-0.312-0.473-0.493-0.046-0.142-0.020-0.319 0.071-0.484 0.128-0.233 0.36-0.408 0.638-0.48 0.289-0.076 0.764-0.011 1.123 0.311 0.266 0.239 0.557 0.7 0.431 1.54zM22.222 13.83c-0.223 0.21-0.428 0.214-0.529 0.125-0.074-0.066-0.073-0.169 0.003-0.261 0.045-0.055 0.101-0.074 0.156-0.074 0.039 0 0.078 0.010 0.111 0.022 0.090 0.033 0.18 0.099 0.259 0.189z"/></svg>