<!-- Generated by IcoMoon.io -->
<svg version="1.1" xmlns="http://www.w3.org/2000/svg" width="32" height="32" viewBox="0 0 32 32">
<title>zimbabwe</title>
<path fill="#f5f5f5" d="M29.657 24.286c0.008-0.009 0.016-0.018 0.023-0.028 0.021-0.027 0.042-0.055 0.062-0.083 0.005-0.007 0.010-0.014 0.015-0.021 0.021-0.030 0.041-0.062 0.061-0.093 0.003-0.005 0.007-0.010 0.010-0.015 0.021-0.034 0.040-0.068 0.059-0.102 0.002-0.003 0.004-0.006 0.005-0.010 0.020-0.037 0.038-0.074 0.055-0.111 0.001-0.001 0.001-0.003 0.002-0.004 0.127-0.275 0.197-0.576 0.202-0.888 0-0 0-0 0-0 0-0.012 0.001-0.023 0.001-0.035l-0-2.651-0-1.698-0-0.237-0.001-4.857-0-1.698-0-2.655c-0-0.323-0.071-0.636-0.202-0.919-0-0.001-0.001-0.002-0.001-0.003-0.018-0.038-0.036-0.076-0.056-0.113-0.002-0.003-0.003-0.006-0.005-0.008-0.019-0.035-0.038-0.070-0.059-0.104-0.003-0.005-0.006-0.009-0.009-0.014-0.020-0.032-0.040-0.063-0.061-0.094-0.005-0.007-0.010-0.014-0.015-0.021-0.020-0.028-0.040-0.056-0.062-0.084-0.007-0.009-0.015-0.018-0.023-0.027-0.020-0.024-0.040-0.049-0.061-0.073-0.010-0.012-0.021-0.023-0.032-0.034-0.019-0.020-0.038-0.041-0.057-0.061-0.014-0.014-0.029-0.028-0.044-0.042-0.017-0.016-0.034-0.033-0.052-0.049-0.020-0.017-0.040-0.034-0.060-0.051-0.014-0.011-0.027-0.023-0.041-0.034-0.035-0.027-0.070-0.054-0.107-0.079-0.051-0.035-0.103-0.069-0.157-0.101l-11.948-6.895c-0.043-0.025-0.086-0.048-0.13-0.069-0.175-0.086-0.359-0.148-0.547-0.185-0.141-0.028-0.284-0.042-0.426-0.042-0.095 0-0.19 0.006-0.285 0.018-0.284 0.037-0.562 0.129-0.818 0.277l-11.945 6.899c-0.053 0.030-0.103 0.063-0.152 0.098-0.037 0.025-0.072 0.052-0.107 0.079-0.014 0.011-0.026 0.022-0.040 0.033-0.021 0.017-0.042 0.034-0.062 0.052-0.018 0.015-0.034 0.032-0.051 0.048-0.015 0.014-0.030 0.028-0.045 0.042-0.020 0.020-0.038 0.040-0.057 0.061-0.011 0.011-0.022 0.023-0.032 0.034-0.021 0.023-0.040 0.048-0.060 0.072-0.008 0.009-0.016 0.018-0.023 0.028-0.021 0.027-0.041 0.055-0.061 0.083-0.005 0.007-0.011 0.014-0.016 0.021-0.021 0.030-0.041 0.062-0.061 0.093-0.003 0.005-0.007 0.010-0.010 0.015-0.021 0.034-0.040 0.068-0.059 0.102-0.002 0.003-0.004 0.006-0.005 0.010-0.019 0.037-0.038 0.074-0.055 0.111-0.001 0.002-0.001 0.003-0.002 0.004-0.127 0.275-0.197 0.576-0.202 0.889v0c-0 0.012-0.001 0.023-0.001 0.035l0 2.651 0 1.698v0.237l0.001 3.909 0 0.948 0 1.698 0 2.655c0 0.323 0.071 0.636 0.202 0.919 0 0.001 0.001 0.001 0.001 0.002 0.018 0.039 0.037 0.077 0.056 0.114 0.001 0.002 0.003 0.005 0.004 0.007 0.019 0.036 0.039 0.071 0.060 0.105 0.003 0.004 0.005 0.008 0.008 0.012 0.020 0.032 0.041 0.064 0.063 0.096 0.005 0.007 0.010 0.013 0.014 0.019 0.020 0.029 0.041 0.057 0.063 0.085 0.007 0.009 0.014 0.017 0.022 0.026 0.020 0.025 0.040 0.050 0.062 0.074 0.010 0.011 0.021 0.022 0.031 0.033 0.019 0.021 0.038 0.042 0.058 0.062 0.014 0.014 0.028 0.027 0.042 0.040 0.018 0.017 0.035 0.034 0.053 0.050s0.039 0.033 0.059 0.050c0.014 0.012 0.028 0.024 0.042 0.035 0.035 0.027 0.070 0.054 0.107 0.079 0.051 0.035 0.103 0.069 0.157 0.101l11.948 6.895c0.128 0.074 0.261 0.134 0.399 0.18 0.365 0.123 0.755 0.148 1.131 0.074 0.141-0.028 0.279-0.069 0.414-0.125 0.045-0.018 0.089-0.038 0.133-0.060s0.087-0.045 0.13-0.069l11.945-6.899c0.053-0.030 0.103-0.063 0.152-0.098 0.037-0.025 0.072-0.052 0.107-0.079 0.014-0.011 0.027-0.023 0.040-0.034 0.021-0.017 0.041-0.034 0.061-0.051 0.018-0.016 0.034-0.032 0.051-0.048 0.015-0.014 0.030-0.027 0.044-0.042 0.020-0.020 0.038-0.040 0.057-0.061 0.011-0.012 0.022-0.023 0.032-0.034 0.021-0.023 0.041-0.048 0.060-0.072z"></path>
<path fill="#73af00" d="M19.124 1.463l-2.024-1.168c-0.043-0.025-0.086-0.048-0.13-0.069-0.175-0.086-0.359-0.148-0.547-0.185-0.042-0.008-0.085-0.015-0.127-0.021-0.012-0.002-0.025-0.003-0.038-0.005-0.032-0.004-0.063-0.007-0.095-0.009-0.012-0.001-0.025-0.002-0.038-0.003-0.090-0.005-0.181-0.005-0.271 0-0.047 0.003-0.095 0.008-0.142 0.014-0.043 0.006-0.085 0.013-0.127 0.021-0.012 0.002-0.025 0.005-0.037 0.008-0.031 0.007-0.062 0.014-0.093 0.022-0.012 0.003-0.025 0.006-0.037 0.009-0.042 0.011-0.083 0.024-0.124 0.037s-0.082 0.029-0.122 0.046c-0.012 0.005-0.024 0.010-0.036 0.015-0.030 0.013-0.059 0.026-0.089 0.040-0.012 0.006-0.023 0.011-0.035 0.017-0.039 0.020-0.079 0.040-0.117 0.062l-7.193 4.154 8.454 0.459 8.143-0.459-5.175-2.986z"></path>
<path fill="#73af00" d="M12.876 30.536l2.024 1.168c0.038 0.022 0.077 0.043 0.117 0.062 0.012 0.006 0.024 0.012 0.036 0.017 0.029 0.014 0.058 0.027 0.088 0.040 0.012 0.005 0.024 0.010 0.037 0.015 0.040 0.016 0.080 0.031 0.12 0.045 0 0 0.001 0 0.001 0 0.131 0.044 0.264 0.075 0.399 0.094 0.196 0.027 0.394 0.029 0.59 0.003 0.047-0.006 0.094-0.014 0.141-0.023 0.042-0.008 0.084-0.018 0.126-0.029 0.012-0.003 0.025-0.007 0.037-0.010 0.031-0.009 0.062-0.018 0.092-0.028 0.012-0.004 0.024-0.008 0.036-0.012 0.062-0.021 0.122-0.046 0.182-0.073 0.024-0.011 0.049-0.021 0.073-0.033 0.044-0.022 0.087-0.045 0.13-0.069l7.193-4.154-8.298-0.537-8.299 0.538 5.175 2.986z"></path>
<path fill="#ff4b55" d="M30.153 20.244l-0-1.698-0-0.237-8.529-0.592-6.977 0.592-2.161 1.986-1.912 2.634 10.034 0.568 9.544-0.568c0-0.012 0.001-0.023 0.001-0.035l-0-2.651z"></path>
<path fill="#ff4b55" d="M10.574 9.070l1.833 2.634 2.239 1.986 6.821 0.67 8.684-0.67v-0.237l-0-1.698-0-2.655c0-0.010-0.001-0.020-0.001-0.030l-9.385-0.568-10.19 0.568z"></path>
<path fill="#ffe15a" d="M30.15 9.070c-0.001-0.044-0.003-0.088-0.006-0.132-0-0.001-0-0.003-0-0.004-0.003-0.041-0.008-0.082-0.013-0.123-0.001-0.004-0.001-0.008-0.002-0.013-0.005-0.038-0.012-0.075-0.019-0.112-0.001-0.006-0.002-0.013-0.004-0.019-0.007-0.035-0.015-0.069-0.024-0.104-0.002-0.008-0.004-0.016-0.006-0.024-0.009-0.033-0.018-0.065-0.028-0.098-0.003-0.009-0.005-0.017-0.008-0.026-0.010-0.032-0.022-0.064-0.034-0.095-0.003-0.008-0.006-0.016-0.009-0.024-0.015-0.039-0.032-0.077-0.049-0.115-0-0.001-0.001-0.001-0.001-0.002-0.007-0.015-0.015-0.030-0.022-0.045-0.011-0.023-0.022-0.046-0.034-0.069-0.001-0.003-0.003-0.005-0.004-0.008-0.008-0.015-0.017-0.029-0.025-0.043-0.012-0.020-0.023-0.041-0.035-0.061-0.003-0.005-0.006-0.009-0.009-0.014-0.020-0.032-0.040-0.063-0.061-0.094-0.005-0.007-0.010-0.014-0.015-0.021-0.016-0.023-0.033-0.045-0.050-0.068-0.004-0.005-0.008-0.011-0.012-0.016-0.007-0.009-0.015-0.018-0.023-0.027-0.004-0.005-0.009-0.010-0.013-0.016-0.016-0.019-0.031-0.038-0.048-0.057-0.010-0.012-0.021-0.023-0.032-0.034-0.016-0.017-0.032-0.035-0.049-0.052-0.003-0.003-0.006-0.006-0.009-0.009-0.013-0.013-0.027-0.025-0.040-0.038-0.018-0.018-0.036-0.035-0.055-0.052s-0.038-0.032-0.058-0.048c-0.007-0.006-0.014-0.012-0.020-0.017s-0.015-0.013-0.023-0.019c-0.035-0.027-0.070-0.054-0.107-0.079-0.051-0.035-0.103-0.069-0.157-0.101l-4.749-2.741h-16.597l-0.795 0.459 3.667 4.161 19.576-0z"></path>
<path fill="#ffe15a" d="M6.906 27.091l0.032 0.019 0.763 0.44h16.597l4.753-2.745c0.053-0.030 0.103-0.063 0.152-0.098 0.037-0.025 0.072-0.052 0.107-0.079 0.009-0.007 0.018-0.015 0.027-0.022 0.005-0.005 0.011-0.009 0.016-0.014 0.020-0.016 0.039-0.032 0.058-0.049 0.018-0.016 0.034-0.032 0.051-0.048 0.015-0.014 0.030-0.027 0.044-0.042 0.020-0.020 0.038-0.040 0.057-0.061 0.011-0.012 0.022-0.023 0.032-0.034 0.021-0.024 0.041-0.048 0.061-0.073 0.008-0.009 0.015-0.018 0.023-0.027 0.021-0.027 0.042-0.055 0.062-0.083 0.005-0.007 0.010-0.014 0.015-0.021 0.014-0.020 0.027-0.041 0.041-0.062 0.007-0.011 0.014-0.021 0.021-0.032 0.003-0.005 0.006-0.010 0.009-0.015 0.021-0.034 0.040-0.068 0.059-0.102 0.002-0.003 0.004-0.006 0.005-0.009 0.012-0.022 0.022-0.044 0.033-0.066 0.007-0.015 0.015-0.030 0.022-0.045 0.001-0.001 0.001-0.003 0.002-0.004 0.017-0.037 0.033-0.075 0.048-0.113 0.004-0.010 0.008-0.021 0.012-0.031 0.011-0.028 0.021-0.056 0.030-0.085 0.004-0.013 0.008-0.026 0.012-0.039 0.008-0.026 0.016-0.053 0.023-0.079 0.004-0.014 0.008-0.029 0.011-0.043 0.006-0.026 0.012-0.052 0.018-0.078 0.003-0.015 0.006-0.030 0.009-0.045 0.005-0.026 0.009-0.053 0.013-0.079 0.002-0.015 0.005-0.030 0.007-0.045 0.004-0.028 0.006-0.057 0.009-0.085 0.001-0.013 0.003-0.026 0.004-0.040 0.003-0.042 0.005-0.084 0.006-0.126h-19.578l-1.994 1.818-1.674 2.344z"></path>
<path fill="#464655" d="M10.574 22.93l4.072-4.62h15.506l-0.001-4.857v0.237h-15.505l-7.739-8.781-0.634 0.366 9.453 10.724-9.453 10.725 0.634 0.366z"></path>
<path fill="#ff4b55" d="M7.209 11.728l1.22 2.472 2.728 0.396-1.974 1.925 0.466 2.717-2.44-1.283-2.44 1.283 0.466-2.717-1.974-1.925 2.728-0.396z"></path>
<path fill="#ffe15a" d="M10.375 16.277l-3.243-2.51c-0.379-0.889-0.919-1.462-1.376-1.462-0.389 0-0.579 0.36-0.633 0.577-0.28 0.13-0.346 0.388-0.349 0.399-0.005 0.018-0 0.038 0.011 0.053s0.030 0.024 0.049 0.024l0.058-0.001c0.261-0.006 0.695-0.018 0.806 0.81 0.069 0.517-0.034 1.442-0.361 2.14-0.228 0.487-0.153 0.882-0.15 0.898 0.006 0.031 0.035 0.052 0.067 0.050 0.005-0 0.017-0.001 0.032-0.002l0.262 1.483c0.005 0.030 0.031 0.051 0.061 0.051h3.915c0.029 0 0.054-0.020 0.060-0.047l0.437-1.796c0-0.001 0.001-0.001 0.001-0.001s-0-0.002 0-0.003l0.139-0.571c0.103 0.012 0.164 0.018 0.167 0.019 0.030 0.004 0.054-0.013 0.064-0.039s0.002-0.055-0.020-0.072z"></path>
<path fill="#464655" d="M10.375 16.277l-3.243-2.51c-0.379-0.889-0.919-1.462-1.376-1.462-0.389 0-0.579 0.36-0.633 0.577-0.28 0.13-0.346 0.388-0.349 0.399-0.005 0.018-0 0.038 0.011 0.053s0.030 0.024 0.049 0.024l0.058-0.001c0.261-0.006 0.695-0.018 0.806 0.81 0.069 0.517-0.034 1.442-0.361 2.14-0.228 0.487-0.153 0.882-0.15 0.898 0.006 0.031 0.035 0.052 0.067 0.050 0.005-0 0.017-0.001 0.032-0.002l0.262 1.483c0.005 0.030 0.031 0.051 0.061 0.051h3.915c0.029 0 0.054-0.020 0.060-0.047l0.437-1.796c0-0.001 0.001-0.001 0.001-0.001s-0-0.002 0-0.003l0.139-0.571c0.103 0.012 0.164 0.018 0.167 0.019 0.030 0.004 0.054-0.013 0.064-0.039s0.002-0.055-0.020-0.072zM5.45 16.36c0.296-0.631 0.455-1.581 0.371-2.21-0.12-0.896-0.623-0.924-0.895-0.919 0.038-0.075 0.119-0.185 0.273-0.248 0.019-0.008 0.033-0.025 0.037-0.045s0.11-0.51 0.519-0.51c0.404 0 0.914 0.563 1.268 1.402 0.004 0.010 0.011 0.018 0.019 0.025l3.079 2.384c-0.543-0.066-1.961-0.261-2.801-0.592-0.439-0.173-0.539-0.436-0.628-0.668-0.012-0.032-0.048-0.048-0.080-0.036s-0.048 0.048-0.036 0.080c0.088 0.231 0.208 0.547 0.698 0.74 0.1 0.039 0.208 0.077 0.321 0.112-0.020 0.060-0.145 0.365-0.703 0.565-0.452 0.162-0.773 0.436-0.817 0.683-0.165-0.001-0.312-0-0.436 0v-0.179c0-0.136 0.131-0.334 0.27-0.543 0.194-0.291 0.413-0.621 0.413-0.959 0-0.034-0.028-0.062-0.062-0.062s-0.062 0.028-0.062 0.062c0 0.3-0.209 0.614-0.392 0.89-0.156 0.235-0.291 0.438-0.291 0.611v0.18c-0.094 0.001-0.167 0.002-0.215 0.004-0.011-0.117-0.017-0.417 0.147-0.768zM7.914 15.966c-0.072 0.2-0.285 0.267-0.442 0.289 0.171-0.152 0.229-0.293 0.245-0.344 0.064 0.019 0.13 0.037 0.197 0.055zM8.034 15.997c0.068 0.017 0.137 0.034 0.207 0.050-0.063 0.129-0.233 0.192-0.418 0.219 0.092-0.058 0.17-0.144 0.211-0.268zM9.79 17.375c-0.63-0.194-2.448-0.244-3.587-0.251 0.039-0.141 0.217-0.326 0.52-0.475 0.003 0 0.006 0.002 0.009 0.002 1.701 0.006 2.885 0.258 3.156 0.322l-0.098 0.402zM9.71 17.704l-0.248-0.277c0.118 0.021 0.219 0.044 0.299 0.069l-0.051 0.208zM6.496 17.748l0.121 0.114c-0.037-0-0.074-0.001-0.112-0.001-0.003-0.036-0.006-0.075-0.009-0.113zM9.636 18.009l-0.316-0.346c-0.021-0.023-0.055-0.027-0.080-0.010l-0.371 0.248-0.279-0.306c-0.022-0.024-0.058-0.027-0.084-0.007l-0.335 0.257-0.304-0.3c-0.023-0.023-0.059-0.024-0.084-0.003l-0.327 0.275-0.307-0.285c-0.023-0.022-0.059-0.022-0.083-0.001l-0.32 0.281-0.263-0.247c-0.005-0.074-0.009-0.15-0.012-0.228l0.236 0.231c0.023 0.023 0.059 0.024 0.084 0.003l0.329-0.284 0.301 0.296c0.023 0.022 0.059 0.024 0.083 0.003l0.331-0.275 0.317 0.299c0.022 0.021 0.056 0.023 0.080 0.004l0.332-0.254 0.277 0.318c0.021 0.024 0.057 0.028 0.083 0.010l0.369-0.263 0.367 0.409c0.004 0.005 0.010 0.008 0.015 0.011l-0.040 0.163zM9.449 17.989c-0.099-0.012-0.237-0.027-0.424-0.042l0.239-0.16 0.185 0.203zM8.722 17.925c-0.125-0.008-0.265-0.016-0.421-0.023l0.235-0.181 0.185 0.203zM8.041 17.892c-0.142-0.005-0.297-0.010-0.463-0.014l0.242-0.204 0.221 0.218zM7.332 17.872c-0.143-0.003-0.296-0.005-0.456-0.007l0.23-0.202 0.226 0.209zM6.562 17.252c0.129 0.002 0.263 0.004 0.401 0.007l-0.21 0.181-0.191-0.187zM7.276 17.267c0.133 0.004 0.268 0.008 0.403 0.013l-0.211 0.176-0.192-0.189zM7.997 17.294c0.143 0.007 0.283 0.015 0.42 0.023l-0.218 0.167-0.202-0.19zM8.71 17.339c0.153 0.012 0.298 0.027 0.432 0.043l-0.244 0.174-0.188-0.216zM5.413 17.25c0.187-0.003 0.521-0.004 0.93-0.001 0.023 0.591 0.075 1.065 0.153 1.413h-0.833l-0.25-1.413zM9.477 18.663h-2.853c-0.044-0.187-0.079-0.414-0.106-0.678 2.079 0.014 2.868 0.117 3.066 0.149 0.006 0.006 0.012 0.010 0.020 0.013l-0.126 0.516zM9.918 16.852c-0.263-0.061-1.347-0.292-2.912-0.322 0.11-0.044 0.204-0.092 0.283-0.141 0.037 0.005 0.146 0.017 0.282 0.017 0.284 0 0.682-0.054 0.792-0.332 0.646 0.141 1.308 0.234 1.675 0.28l-0.121 0.498z"></path>
<path fill="#464655" d="M5.932 12.853c0-0.114-0.093-0.207-0.207-0.207s-0.207 0.093-0.207 0.207 0.093 0.207 0.207 0.207 0.207-0.093 0.207-0.207zM5.725 12.936c-0.046 0-0.083-0.037-0.083-0.083s0.037-0.083 0.083-0.083c0.046 0 0.083 0.037 0.083 0.083s-0.037 0.083-0.083 0.083z"></path>
<path fill="#464655" d="M7.461 16.705c-0.112 0-0.204 0.091-0.204 0.204s0.091 0.204 0.204 0.204c0.112 0 0.204-0.091 0.204-0.204s-0.091-0.204-0.204-0.204zM7.461 16.988c-0.044 0-0.079-0.036-0.079-0.079s0.036-0.079 0.079-0.079 0.079 0.036 0.079 0.079c0 0.044-0.036 0.079-0.079 0.079z"></path>
<path fill="#464655" d="M8.070 16.739c-0.112 0-0.204 0.091-0.204 0.204s0.091 0.204 0.204 0.204 0.204-0.091 0.204-0.204-0.091-0.204-0.204-0.204zM8.070 17.023c-0.044 0-0.079-0.036-0.079-0.079s0.036-0.079 0.079-0.079 0.079 0.036 0.079 0.079-0.036 0.079-0.079 0.079z"></path>
</svg>
