<?xml version="1.0" standalone="no"?>
<!DOCTYPE svg PUBLIC "-//W3C//DTD SVG 1.1//EN" "http://www.w3.org/Graphics/SVG/1.1/DTD/svg11.dtd" >
<svg xmlns="http://www.w3.org/2000/svg">
<metadata>
<json>
<![CDATA[
{
	"fontFamily": "lapflag",
	"majorVersion": 1,
	"minorVersion": 0,
	"version": "Version 1.0",
	"fontId": "lapflag",
	"psName": "lapflag",
	"subFamily": "Regular",
	"fullName": "lapflag",
	"description": "Font generated by IcoMoon."
}
]]>
</json>
</metadata>
<defs>
<font id="lapflag" horiz-adv-x="1024">
<font-face units-per-em="1024" ascent="960" descent="-64" />
<missing-glyph horiz-adv-x="1024" />
<glyph unicode="&#x20;" horiz-adv-x="512" d="" />
<glyph unicode="&#xe401;" d="M59.18 227.216l-0.072 441.423c-0.004 25.214 13.444 48.514 35.278 61.124l382.243 220.778c21.834 12.61 48.736 12.614 70.573 0.012l382.319-220.648c21.836-12.604 35.292-35.9 35.298-61.114l0.072-441.423c0.006-25.214-13.444-48.514-35.278-61.126l-382.245-220.774c-21.834-12.612-48.736-12.614-70.573-0.012l-382.317 220.646c-21.84 12.604-35.294 35.902-35.298 61.114z" />
<glyph unicode="&#xe402;" d="M929.525 729.902l-382.323 220.648c-21.836 12.604-48.74 12.6-70.573-0.012l-382.247-220.774c-10.222-5.904-18.572-14.168-24.598-23.858l452.212-45.45 432.227 45.45c-6.036 9.75-14.424 18.068-24.698 23.996z" />
<glyph unicode="&#xe403;" d="M59.142 448.004h905.715l-0.038 220.788v0.002c0 1.63-0.062 3.252-0.172 4.864-0.028 0.4-0.084 0.794-0.12 1.194-0.104 1.222-0.22 2.442-0.39 3.648-0.052 0.384-0.132 0.762-0.192 1.144-0.192 1.228-0.398 2.452-0.652 3.664-0.066 0.308-0.148 0.612-0.218 0.92-0.29 1.288-0.602 2.57-0.962 3.834-0.062 0.218-0.134 0.43-0.198 0.648-0.4 1.354-0.832 2.696-1.312 4.022-0.048 0.13-0.1 0.26-0.148 0.392-0.52 1.408-1.078 2.796-1.682 4.162-0.028 0.060-0.054 0.12-0.080 0.18-0.64 1.43-1.322 2.84-2.052 4.224-0.008 0.014-0.018 0.030-0.026 0.044-0.748 1.414-1.544 2.804-2.386 4.166l-0.006 0.008h-884.439c0-0.002 0-0.002 0-0.002-0.85-1.364-1.65-2.756-2.402-4.174-0.012-0.022-0.024-0.044-0.034-0.064-0.73-1.378-1.412-2.782-2.052-4.206-0.034-0.074-0.070-0.15-0.102-0.224-0.602-1.358-1.158-2.734-1.674-4.126-0.054-0.15-0.114-0.3-0.17-0.452-0.474-1.308-0.902-2.636-1.302-3.974-0.070-0.24-0.15-0.474-0.218-0.714-0.358-1.248-0.668-2.514-0.954-3.786-0.074-0.33-0.162-0.654-0.232-0.984-0.252-1.198-0.458-2.406-0.648-3.62-0.062-0.402-0.144-0.798-0.2-1.202-0.168-1.198-0.28-2.404-0.388-3.614-0.034-0.418-0.094-0.828-0.124-1.242-0.11-1.592-0.17-3.194-0.17-4.804 0-0.024-0.002-0.050-0.002-0.072l0.030-220.644z" />
<glyph unicode="&#xe404;" d="M949.139 182.964c0.066 0.080 0.132 0.16 0.194 0.24 0.86 1.072 1.688 2.17 2.482 3.286 0.020 0.028 0.038 0.054 0.058 0.080 0.814 1.152 1.598 2.33 2.342 3.526 0 0 0 0.002 0.002 0.002h-884.437c0.752-1.214 1.54-2.404 2.362-3.572 0.008-0.012 0.018-0.026 0.028-0.038 0.808-1.142 1.65-2.262 2.524-3.36 0.050-0.060 0.1-0.12 0.15-0.182 0.838-1.042 1.704-2.062 2.602-3.056 0.122-0.134 0.25-0.264 0.372-0.4 0.84-0.918 1.7-1.818 2.59-2.69 0.23-0.228 0.472-0.442 0.708-0.668 0.808-0.772 1.624-1.534 2.472-2.27 0.388-0.334 0.792-0.65 1.188-0.978 0.73-0.608 1.458-1.214 2.214-1.794 0.632-0.48 1.288-0.93 1.936-1.392 0.562-0.4 1.112-0.818 1.692-1.202 1.258-0.838 2.544-1.642 3.864-2.404l382.323-220.646c4.094-2.364 8.368-4.284 12.752-5.76 2.922-0.984 5.894-1.772 8.898-2.362 3.050-0.6 6.13-0.99 9.22-1.184 4.514-0.282 9.048-0.134 13.538 0.45 9.078 1.184 17.98 4.138 26.168 8.868l382.247 220.776c1.318 0.76 2.596 1.562 3.852 2.4 0.57 0.38 1.112 0.792 1.67 1.188 0.652 0.464 1.314 0.918 1.946 1.402 0.738 0.562 1.444 1.154 2.154 1.744 0.412 0.34 0.832 0.67 1.238 1.020 0.82 0.712 1.612 1.45 2.394 2.194 0.258 0.244 0.52 0.48 0.772 0.728 0.862 0.848 1.7 1.72 2.514 2.606 0.144 0.158 0.292 0.308 0.434 0.464 0.872 0.978 1.718 1.97 2.538 2.984z" />
<glyph unicode="&#xe405;" d="M59.18 227.213l-0.072 441.425c-0.006 25.214 13.444 48.514 35.278 61.124l382.245 220.778c21.834 12.61 48.736 12.614 70.574 0.012l382.321-220.65c21.836-12.604 35.292-35.9 35.298-61.114l0.072-441.425c0.006-25.214-13.444-48.514-35.278-61.126l-382.251-220.774c-21.834-12.612-48.736-12.614-70.574-0.012l-382.317 220.648c-21.838 12.604-35.292 35.9-35.296 61.114z" />
<glyph unicode="&#xe406;" d="M964.82 668.789c-0.006 25.214-13.458 48.51-35.298 61.114l-382.319 220.648c-21.836 12.604-48.74 12.6-70.574-0.012l-382.249-220.774c-21.834-12.61-35.28-35.91-35.278-61.124l0.008-48.934h905.716l-0.006 49.082z" />
<glyph unicode="&#xe407;" d="M59.18 227.213c0.006-25.214 13.458-48.51 35.298-61.114l382.321-220.65c21.836-12.604 48.74-12.598 70.572 0.010l382.247 220.778c21.834 12.612 35.28 35.91 35.278 61.124l-0.008 48.932h-905.716l0.008-49.080z" />
<glyph unicode="&#xe408;" d="M59.178 227.211l-0.072 441.425c-0.006 25.214 13.444 48.514 35.278 61.126l382.245 220.776c21.834 12.612 48.736 12.614 70.574 0.012l382.321-220.65c21.836-12.604 35.292-35.9 35.298-61.114l0.072-441.425c0.006-25.214-13.444-48.514-35.278-61.126l-382.249-220.776c-21.834-12.612-48.736-12.614-70.574-0.012l-382.317 220.65c-21.84 12.604-35.294 35.9-35.298 61.114z" />
<glyph unicode="&#xe409;" d="M369.539 7.352l107.258-61.9c21.836-12.604 48.74-12.598 70.574 0.010l382.249 220.778c21.834 12.612 35.28 35.91 35.278 61.126l-0.008 48.184-620.341 32.504 24.99-300.701z" />
<glyph unicode="&#xe40a;" d="M964.832 620.453h-595.293v268.233l-275.159-158.924c-21.834-12.61-35.28-35.91-35.278-61.124l0.008-48.186 0.058-344.905 0.008-48.334c0.006-25.214 13.458-48.51 35.298-61.114l275.063-158.75v268.197h595.349l-0.054 344.905z" />
<glyph unicode="&#xe40b;" d="M137.094 581.959c-1.228-0.14-2.414-0.288-3.566-0.442v-15.626c1.162-0.298 2.346-0.59 3.566-0.878 0 0 0 16.946 0 16.946z" />
<glyph unicode="&#xe40c;" d="M191.144 552.179c-3.256 0.26-8.262 0.762-14.238 1.492l-37.474-33.33c4.854-0.742 10.672-1.724 13.102-2.5 9.622 8.422 22.534 19.902 38.61 34.338z" />
<glyph unicode="&#xe40d;" d="M247.536 605.191v3.21h-66.494v-4.778h66.494z" />
<glyph unicode="&#xe40e;" d="M198.308 700.283c0-4.682 7.056-8.638 15.41-8.638 8.356 0 15.41 3.954 15.41 8.638 0 4.682-7.056 8.638-15.41 8.638-8.356 0-15.41-3.956-15.41-8.638z" />
<glyph unicode="&#xe40f;" d="M183.896 584.075c-15.010 0.072-29.99-0.478-42.236-1.634v-18.444c14.388-3.090 31.148-5.454 42.236-6.63v26.708z" />
<glyph unicode="&#xe410;" d="M106.572 493.037c5.934 0.124 18.964 2.47 27.788 9.364 2.736 2.136 7.406 6.068 13.968 11.772-4.452 0.914-11.92 2.020-15.9 2.57l-25.856-23.706z" />
<glyph unicode="&#xe411;" d="M192.458 612.967v8.386c-1.124 1.678-2.286 3.402-3.47 5.158l-10.21-7.422c2.032-3.492 3.334-5.71 3.574-6.12l10.106-0.002z" />
<glyph unicode="&#xe412;" d="M113.91 575.103c-0.032-0.138-0.112-0.454 0.402-1.114 1.894-2.426 7.376-4.746 14.65-6.858v13.712c-8.736-1.452-14.458-3.366-15.052-5.74z" />
<glyph unicode="&#xe413;" d="M230.698 581.649v17.408h-33.676v-42.52h8.56c13.85-0.002 25.116 11.266 25.116 25.112z" />
<glyph unicode="&#xe414;" d="M176.576 644.881c-18.028 26.576-37.284 54.506-41.982 60.038 0.672-2.474 2.3-7.12 6.096-15.82 4.898-11.226 16.79-32.752 26.632-50.078l9.254 5.86z" />
<glyph unicode="&#xe415;" d="M169.584 635.047c2.562-4.488 4.914-8.572 6.894-11.99l9.96 7.244c-2.37 3.516-4.806 7.12-7.296 10.798l-9.558-6.052z" />
<glyph unicode="&#xe416;" d="M192.458 556.615v27.35c-1.33 0.028-2.66 0.054-3.996 0.072v-27.122c1.54-0.134 2.882-0.234 3.996-0.3z" />
<glyph unicode="&#xe417;" d="M197.020 636.441h33.674v-4.782h-33.674v4.782z" />
<glyph unicode="&#xe418;" d="M277.499 613.253v-0.284h1.712c1.262 0 2.282-1.022 2.282-2.282v-9.344c0-1.262-1.022-2.282-2.282-2.282h-1.712v-0.284c0-1.258 1.022-2.282 2.282-2.282h38.526c1.26 0 2.282 1.024 2.282 2.282v14.484c0 1.258-1.022 2.282-2.282 2.282h-38.526c-1.26-0.006-2.282-1.034-2.282-2.29z" />
<glyph unicode="&#xe419;" d="M320.603 493.167l-25.71 23.574c-3.982-0.548-11.45-1.654-15.9-2.57 6.684-5.796 11.35-9.73 13.968-11.776 8.682-6.778 21.446-9.156 27.642-9.228z" />
<glyph unicode="&#xe41a;" d="M267.795 606.831v-3.208h9.132v4.778h-9.132z" />
<glyph unicode="&#xe41b;" d="M274.781 517.835c2.426 0.778 8.256 1.762 13.116 2.504l-55.21 49.27c-1.498-3.36-3.584-6.4-6.156-8.962l1.452-1.298c20.004-17.908 35.638-31.772 46.798-41.514z" />
<glyph unicode="&#xe41c;" d="M151.078 598.771v0.284h-1.712c-1.262 0-2.282 1.020-2.282 2.282v9.344c0 1.262 1.022 2.282 2.282 2.282h1.712v0.284c0 1.258-1.022 2.282-2.282 2.282h-38.528c-1.26 0-2.282-1.024-2.282-2.282v-14.484c0-1.258 1.022-2.282 2.282-2.282h38.526c1.262 0.006 2.284 1.030 2.284 2.29z" />
<glyph unicode="&#xe41d;" d="M160.78 605.191v3.21h-9.13v-4.778h9.13z" />
<glyph unicode="&#xe41e;" d="M248.538 619.089l-10.208 7.422c-1.044-1.554-2.064-3.072-3.066-4.562v-8.982h9.698c0.24 0.41 1.544 2.63 3.576 6.122z" />
<glyph unicode="&#xe41f;" d="M200.080 650.421h27.576l-6.070 6.734h-15.436z" />
<glyph unicode="&#xe420;" d="M197.020 645.641h33.674v-4.636h-33.674v4.636z" />
<glyph unicode="&#xe421;" d="M213.718 687.079c-2.216 0-4.298 0.284-6.278 0.708v-25.806h12.7v25.836c-2.020-0.442-4.15-0.738-6.422-0.738z" />
<glyph unicode="&#xe422;" d="M197.022 622.313h33.528c-0.008 0.288 0.042 0.564 0.148 0.84v3.938h-33.676v-4.778z" />
<glyph unicode="&#xe423;" d="M240.882 630.299l9.96-7.244c1.98 3.42 4.332 7.5 6.894 11.99l-9.558 6.050c-2.488-3.674-4.926-7.278-7.296-10.796z" />
<glyph unicode="&#xe424;" d="M197.020 617.741h33.674v-4.782h-33.674v4.782z" />
<glyph unicode="&#xe425;" d="M259.997 639.023c9.842 17.326 21.734 38.852 26.632 50.078 3.806 8.722 5.43 13.374 6.1 15.838-4.614-5.416-23.918-33.414-41.992-60.056l9.26-5.86z" />
<glyph unicode="&#xe426;" d="M326.961 493.529l-29.772 27.302c-0.5 0.46-1.172 0.682-1.85 0.58-0.252-0.032-0.828-0.112-1.592-0.218-0.040 0.042-0.058 0.098-0.102 0.138l-59.344 52.958c0.604 2.36 0.962 4.816 0.962 7.358v17.408h14.396c1.854-2.412 4.736-3.996 8.008-3.996s6.154 1.582 8.006 3.996h7.26v-0.284c0-3.776 3.072-6.848 6.848-6.848h38.526c3.776 0 6.848 3.072 6.848 6.848v14.484c0 3.776-3.072 6.848-6.848 6.848h-38.526c-3.776 0-6.848-3.072-6.848-6.848v-0.284h-7.26c-1.852 2.412-4.736 3.994-8.006 3.994-2.48 0-4.722-0.93-6.484-2.412 7.696 13.174 31.872 54.928 39.636 72.72 8.33 19.092 7.658 21.56 5.688 23.142-2.076 1.662-4.706-0.25-5.698-0.978-3.818-2.774-40.862-57.5-55.542-79.308v18.010c0 0.050-0.024 0.092-0.030 0.142l-0.002 0.006c-0.052 0.772-0.484 1.418-1.118 1.79l-9.412 10.44v28.7c5.444 2.336 8.99 6.374 8.99 11.070 0 7.4-8.776 13.204-19.978 13.204s-19.978-5.8-19.978-13.204c0-4.736 3.612-8.792 9.132-11.12v-28.822l-9.234-10.242c-0.692-0.392-1.182-1.108-1.182-1.962v-18.604c-14.398 21.392-52.094 77.104-55.942 79.904-0.998 0.722-3.626 2.634-5.7 0.978-1.972-1.582-2.642-4.048 5.688-23.142 7.518-17.228 30.416-56.914 38.852-71.378-1.348 0.662-2.842 1.070-4.442 1.070-3.272 0-6.154-1.582-8.006-3.994h-7.26v0.284c0 3.776-3.072 6.848-6.848 6.848h-38.53c-3.776 0-6.848-3.072-6.848-6.848v-14.484c0-3.776 3.072-6.848 6.848-6.848h38.526c3.776 0 6.848 3.072 6.848 6.848v0.284h7.26c1.854-2.412 4.736-3.996 8.006-3.996s6.154 1.582 8.006 3.996h13.538v-10.512c-21.166 0.454-79.764 0.522-82.974-12.336-0.298-1.19-0.328-3.036 1.23-5.028 6.176-7.91 37.478-13.684 60.184-16.738l-37.222-33.106c-0.044-0.042-0.064-0.098-0.104-0.142-0.764 0.108-1.338 0.184-1.59 0.218-0.688 0.098-1.352-0.12-1.848-0.58l-29.774-27.302c-0.9-0.82-0.992-2.206-0.21-3.144 0.988-1.188 3.494-1.764 6.848-1.764 8.252 0 21.642 3.52 30.176 10.184 7.034 5.494 26.52 22.576 57.92 50.778 1.36 1.22 2.26 2.030 2.66 2.384h7.838c6.514 0 12.522 2.134 17.422 5.704l1.934-1.728c36.152-32.358 58.090-51.58 65.21-57.142 8.536-6.67 21.92-10.184 30.172-10.184 3.354 0 5.86 0.58 6.85 1.764 0.78 0.938 0.688 2.322-0.212 3.144zM197.022 556.535v42.52h33.674v-17.408c0-13.846-11.264-25.114-25.114-25.114l-8.56 0.002zM128.96 567.129c-7.274 2.11-12.754 4.428-14.65 6.858-0.514 0.66-0.434 0.978-0.402 1.114 0.594 2.374 6.316 4.288 15.050 5.738l0.002-13.71zM134.594 704.918c4.696-5.536 23.954-33.464 41.982-60.038l-9.254-5.86c-9.842 17.328-21.732 38.852-26.632 50.078-3.798 8.7-5.424 13.346-6.096 15.82zM188.99 626.511c1.182-1.754 2.342-3.482 3.47-5.158v-8.386h-10.102c-0.24 0.408-1.544 2.63-3.574 6.12l10.206 7.424zM176.478 623.057c-1.98 3.42-4.332 7.5-6.894 11.99l9.558 6.050c2.49-3.676 4.926-7.282 7.296-10.798l-9.96-7.242zM192.458 583.965v-27.35c-1.114 0.062-2.456 0.162-3.996 0.3v27.122c1.334-0.016 2.666-0.042 3.996-0.072zM141.66 582.441c12.246 1.158 27.226 1.71 42.236 1.634v-26.712c-11.086 1.178-27.848 3.542-42.236 6.63v18.448zM133.528 581.515c1.154 0.154 2.34 0.3 3.566 0.442v-16.946c-1.22 0.288-2.404 0.58-3.566 0.878 0 0.002 0 15.626 0 15.626zM176.906 553.671c5.976-0.73 10.98-1.232 14.238-1.492-16.076-14.434-28.988-25.916-38.612-34.338-2.43 0.774-8.248 1.758-13.102 2.5l37.476 33.33zM148.326 514.175c-6.564-5.704-11.232-9.634-13.968-11.772-8.822-6.894-21.854-9.24-27.788-9.364l25.852 23.704c3.986-0.55 11.452-1.654 15.904-2.568zM181.042 603.623v4.778h66.492v-4.78l-66.492 0.002zM229.128 700.283c0-4.682-7.056-8.638-15.41-8.638-8.356 0-15.41 3.954-15.41 8.638 0 4.682 7.056 8.638 15.41 8.638 8.356 0 15.41-3.956 15.41-8.638zM197.022 631.659v4.778h33.674v-4.778h-33.674zM230.698 627.093v-3.938c-0.104-0.278-0.154-0.554-0.148-0.84h-33.528v4.782l33.676-0.004zM197.022 641.005v4.636h33.674v-4.636h-33.674zM221.586 657.155l6.070-6.734h-27.576l6.070 6.734h15.436zM207.44 661.981v25.806c1.98-0.422 4.062-0.708 6.278-0.708 2.272 0 4.402 0.292 6.42 0.734v-25.836l-12.698 0.004zM197.022 617.749h33.674v-4.778h-33.674v4.778zM286.629 689.099c-4.898-11.226-16.79-32.752-26.632-50.078l-9.254 5.86c18.072 26.642 37.374 54.64 41.992 60.056-0.674-2.464-2.3-7.116-6.106-15.838zM263.229 606.831v-1.64c0-3.066-2.496-5.566-5.566-5.566s-5.566 2.496-5.566 5.566v1.64c0 3.070 2.496 5.566 5.566 5.566 3.068 0 5.566-2.496 5.566-5.566zM250.84 623.057l-9.96 7.244c2.37 3.516 4.806 7.12 7.296 10.798l9.558-6.050c-2.562-4.492-4.914-8.574-6.894-11.992zM235.264 621.949c1.002 1.49 2.020 3.006 3.066 4.562l10.208-7.422c-2.032-3.492-3.336-5.714-3.576-6.12h-9.698c0 0 0 8.98 0 8.98zM232.688 569.609l55.21-49.27c-4.862-0.742-10.692-1.728-13.116-2.504-11.16 9.742-26.792 23.606-46.798 41.514l-1.452 1.298c2.572 2.562 4.658 5.602 6.156 8.962zM294.893 516.743l25.71-23.574c-6.196 0.072-18.96 2.45-27.642 9.23-2.616 2.046-7.282 5.978-13.968 11.776 4.452 0.914 11.918 2.018 15.9 2.568zM320.591 613.253v-14.484c0-1.258-1.022-2.282-2.282-2.282h-38.526c-1.26 0-2.282 1.024-2.282 2.282v0.284h1.712c1.262 0 2.282 1.020 2.282 2.282v9.344c0 1.262-1.022 2.282-2.282 2.282h-1.712v0.284c0 1.258 1.022 2.282 2.282 2.282h38.526c1.256 0.010 2.282-1.018 2.282-2.274zM276.927 603.623h-9.132v4.778h9.132v-4.778zM107.986 598.771v14.484c0 1.258 1.022 2.282 2.282 2.282h38.526c1.26 0 2.282-1.024 2.282-2.282v-0.284h-1.712c-1.262 0-2.282-1.022-2.282-2.282v-9.344c0-1.262 1.022-2.282 2.282-2.282h1.712v-0.284c0-1.258-1.022-2.282-2.282-2.282h-38.526c-1.26-0.010-2.282 1.014-2.282 2.274zM151.65 608.401h9.132v-4.78h-9.132c0 0.002 0 4.78 0 4.78zM176.476 605.191c0-3.066-2.496-5.566-5.566-5.566-3.066 0-5.566 2.496-5.566 5.566v1.64c0 3.070 2.496 5.566 5.566 5.566s5.566-2.496 5.566-5.566v-1.64z" />
<glyph unicode="&#xe427;" d="M59.18 227.213l-0.072 441.425c-0.006 25.214 13.444 48.514 35.278 61.124l382.245 220.778c21.834 12.61 48.736 12.614 70.574 0.012l382.321-220.65c21.836-12.604 35.292-35.9 35.298-61.114l0.072-441.425c0.006-25.214-13.444-48.514-35.278-61.126l-382.251-220.774c-21.834-12.612-48.736-12.614-70.574-0.012l-382.317 220.648c-21.838 12.604-35.292 35.9-35.296 61.114z" />
<glyph unicode="&#xe428;" d="M964.82 668.789c-0.006 25.214-13.458 48.51-35.298 61.114l-382.319 220.648c-21.836 12.604-48.74 12.6-70.574-0.012l-382.249-220.774c-21.834-12.61-35.28-35.91-35.278-61.124l0.008-47.352h905.718l-0.008 47.5z" />
<glyph unicode="&#xe429;" d="M59.18 227.213c0.006-25.214 13.458-48.51 35.298-61.114l382.321-220.65c21.838-12.604 48.74-12.598 70.572 0.010l382.247 220.778c21.834 12.612 35.28 35.91 35.278 61.124l-0.008 47.352h-905.716l0.008-47.5z" />
<glyph unicode="&#xe42a;" d="M750.401 447.733c0-131.472-106.738-238.4-238.4-238.4s-238.4 106.928-238.4 238.4c0 131.852 106.738 238.59 238.4 238.59s238.4-106.74 238.4-238.59v0z" />
<glyph unicode="&#xe42b;" d="M330.679 507.665h138.514l31.344 96.46 8.326-25.872-45.518-140.224-13.562 9.892 14.178 43.568h-111.4l-21.882 16.176zM399.885 294.381l42.808 131.662-82.048 59.744h27.062l119.25-86.574-13.556-9.892-37.15 27.018-34.486-106.168-21.88-15.79zM624.111 294.381l-112.11 81.43-82.002-59.552 8.372 25.492 119.152 86.764 5.092-15.98-37.058-26.828 90.138-65.644 8.416-25.682zM693.319 507.665l-112.016-81.626 31.348-96.466-21.878 15.986-45.472 140.224h16.648l14.174-43.762 90.188 65.644h27.008zM511.999 639.327l42.808-131.662h101.458l-21.928-16.176h-147.36l5.188 16.176h45.944l-34.486 105.978 8.376 25.684z" />
<glyph unicode="&#xe42c;" d="M515.993 257.087h-7.942v103.314h7.942v-103.314zM692.129 385.329l-98.222 31.772 2.474 7.418 98.272-31.772-2.524-7.418zM331.821 385.329l-2.474 7.418 98.316 31.772 2.43-7.418-98.272-31.772zM566.655 516.231l-6.474 4.564 60.744 83.53 6.326-4.568-60.596-83.526zM457.493 516.231l-60.84 83.524 6.424 4.568 60.696-83.53-6.28-4.562z" />
<glyph unicode="&#xe42d;" d="M59.176 227.211l-0.072 441.427c-0.006 25.214 13.444 48.514 35.278 61.126l382.247 220.774c21.834 12.61 48.736 12.614 70.574 0.012l382.321-220.65c21.838-12.604 35.292-35.9 35.298-61.114l0.072-441.427c0.006-25.214-13.444-48.514-35.278-61.124l-382.249-220.774c-21.834-12.61-48.736-12.614-70.574-0.012l-382.321 220.648c-21.838 12.606-35.292 35.902-35.296 61.114z" />
<glyph unicode="&#xe42e;" d="M964.838 581.881l-0.016 86.906c-0.006 25.214-13.458 48.51-35.298 61.114l-125.338 72.336-745.025-488.121 0.014-86.906c0.006-25.214 13.458-48.51 35.298-61.114l125.338-72.336 745.027 488.121z" />
<glyph unicode="&#xe42f;" d="M59.146 411.763l665.793 436.211-177.738 102.576c-1.364 0.788-2.75 1.524-4.152 2.214-2.804 1.38-5.676 2.562-8.6 3.546-1.462 0.492-2.934 0.934-4.418 1.328-5.934 1.574-12.024 2.362-18.118 2.362-3.046 0-6.094-0.198-9.118-0.592-3.482-0.454-6.93-1.2-10.33-2.174-5.464-1.57-10.79-3.778-15.836-6.694l-382.251-220.778c-8.188-4.728-15.196-10.962-20.756-18.232-9.27-12.122-14.52-27.132-14.518-42.89l0.042-256.877z" />
<glyph unicode="&#xe430;" d="M964.854 484.235l-665.795-436.211 177.736-102.576c4.094-2.364 8.368-4.284 12.752-5.76 2.922-0.984 5.896-1.772 8.898-2.362 3.050-0.6 6.13-0.99 9.22-1.184 4.514-0.282 9.048-0.134 13.538 0.45 9.078 1.184 17.98 4.138 26.168 8.868l382.251 220.774c5.458 3.154 10.392 6.974 14.724 11.324 2.164 2.176 4.178 4.484 6.034 6.908 9.27 12.122 14.52 27.132 14.518 42.89l-0.044 256.879z" />
<glyph unicode="&#xe431;" d="M59.176 227.213l-0.072 441.425c-0.006 25.214 13.444 48.514 35.278 61.124l382.245 220.778c21.834 12.61 48.736 12.614 70.572 0.012l382.321-220.65c21.836-12.604 35.292-35.9 35.298-61.114l0.072-441.425c0.006-25.214-13.444-48.514-35.278-61.126l-382.247-220.774c-21.834-12.612-48.736-12.614-70.574-0.012l-382.317 220.648c-21.838 12.604-35.292 35.9-35.298 61.114z" />
<glyph unicode="&#xe432;" d="M964.82 668.789c-0.006 25.214-13.458 48.51-35.298 61.114l-382.321 220.648c-21.836 12.604-48.74 12.6-70.572-0.012l-382.249-220.774c-21.834-12.61-35.28-35.91-35.276-61.124l0.008-45.974h905.718l-0.010 46.122z" />
<glyph unicode="&#xe433;" d="M59.176 227.213c0.006-25.214 13.458-48.51 35.298-61.114l382.321-220.65c21.836-12.604 48.74-12.598 70.574 0.010l382.249 220.776c21.834 12.612 35.28 35.91 35.278 61.124l-0.008 45.974h-905.72l0.008-46.12z" />
<glyph unicode="&#xe434;" d="M511.997 548.985l-84.124-123.714h168.252z" />
<glyph unicode="&#xe435;" d="M427.873 425.271l-54.434-79.178h277.117l-54.432 79.178z" />
<glyph unicode="&#xe436;" d="M533.527 432.183c0.334 0.692 0.688 1.37 0.99 2.074-0.3-0.702-0.656-1.384-0.99-2.074z" />
<glyph unicode="&#xe437;" d="M535.841 437.887c0.204 0.62 0.454 1.224 0.632 1.856-0.174-0.632-0.424-1.234-0.632-1.856z" />
<glyph unicode="&#xe438;" d="M530.665 426.993c0.424 0.678 0.844 1.352 1.242 2.046-0.394-0.694-0.82-1.372-1.242-2.046z" />
<glyph unicode="&#xe439;" d="M543.525 450.041c-0.752 0-1.474-0.122-2.14-0.348 0.664 0.226 1.386 0.348 2.14 0.348v0z" />
<glyph unicode="&#xe43a;" d="M539.585 448.735c-1.050-0.814-1.764-1.956-1.928-3.256v0c0.166 1.298 0.878 2.44 1.928 3.256z" />
<glyph unicode="&#xe43b;" d="M537.033 411.811c1.18-1.118 2.346-2.184 3.52-3.2 6.28 5.436 12.834 12.346 17.432 20.424-0.33-0.58-0.688-1.14-1.038-1.71-4.294 7.9-6.564 14.73-7.662 18.782-0.628 2.314-3.022 3.924-5.754 3.926 1.052-9.224 3.312-26.182-6.498-38.222z" />
<glyph unicode="&#xe43c;" d="M561.921 437.887c0.204 0.62 0.454 1.224 0.632 1.856-0.174-0.632-0.424-1.234-0.632-1.856z" />
<glyph unicode="&#xe43d;" d="M565.665 448.735c-1.050-0.814-1.764-1.956-1.926-3.256v0c0.162 1.298 0.876 2.44 1.926 3.256z" />
<glyph unicode="&#xe43e;" d="M559.607 432.183c0.334 0.692 0.688 1.37 0.99 2.074-0.3-0.702-0.654-1.384-0.99-2.074z" />
<glyph unicode="&#xe43f;" d="M613.031 405.477c-9.54 0-18.564 4.576-24.076 12.364-8.3 11.73-12.064 22.662-13.586 28.272-0.63 2.316-3.026 3.928-5.764 3.928l0.010-0.002c1.252-11.014 4.244-33.040-13.656-44.562h-11.654c-0.48 0.38-0.944 0.742-1.434 1.142 0.010-0.010 0.022-0.018 0.032-0.028-3.262-4.256-9.784-5.45-14.844-2.844-21.176 10.912-17.888 34.706-16.57 46.292-2.732-0.006-5.126-1.612-5.754-3.926-1.1-4.052-3.366-10.882-7.662-18.782-0.35 0.568-0.708 1.13-1.034 1.71 5.174-9.090 12.848-16.766 19.784-22.448-3.262-4.256-9.784-5.45-14.844-2.844-21.18 10.912-17.888 34.706-16.57 46.292-2.732-0.004-5.126-1.612-5.754-3.926-1.1-4.052-3.366-10.882-7.662-18.782-0.35 0.568-0.708 1.13-1.038 1.71 5.176-9.090 12.848-16.766 19.784-22.448-3.262-4.256-9.784-5.45-14.844-2.844-21.18 10.912-17.888 34.706-16.57 46.292l0.010 0.002c-2.736 0-5.136-1.612-5.764-3.928-1.522-5.61-5.286-16.542-13.586-28.272-5.51-7.788-14.536-12.364-24.074-12.364h-7.838v-9.898h207.84v9.898l-2.882-0.004z" />
<glyph unicode="&#xe440;" d="M520.509 434.261c0.302-0.704 0.654-1.384 0.99-2.074-0.336 0.686-0.688 1.368-0.99 2.074z" />
<glyph unicode="&#xe441;" d="M518.551 439.745c0.178-0.632 0.428-1.234 0.632-1.856-0.204 0.62-0.454 1.222-0.632 1.856z" />
<glyph unicode="&#xe442;" d="M517.369 445.471l-0.002 0.008c-0.162 1.3-0.878 2.442-1.926 3.256 1.050-0.814 1.764-1.956 1.926-3.26l0.002-0.004z" />
<glyph unicode="&#xe443;" d="M523.119 429.039c0.394-0.694 0.818-1.37 1.242-2.046-0.424 0.674-0.846 1.352-1.242 2.046z" />
<glyph unicode="&#xe444;" d="M527.669 422.179c-0.050 0.068-0.098 0.134-0.148 0.202 0.424 0.564 0.832 1.134 1.24 1.714-0.404-0.578-0.824-1.142-1.248-1.708-0.422 0.562-0.84 1.13-1.248 1.708 0.458-0.648 0.924-1.284 1.404-1.916z" />
<glyph unicode="&#xe445;" d="M529.841 419.439c0.482-0.58 0.96-1.152 1.454-1.714-0.492 0.56-0.972 1.138-1.454 1.714z" />
<glyph unicode="&#xe446;" d="M535.127 413.633c-0.46 0.462-0.912 0.948-1.37 1.422 0.458-0.476 0.908-0.958 1.37-1.422z" />
<glyph unicode="&#xe447;" d="M569.615 450.039l-0.010 0.002c-1.504 0-2.89-0.49-3.938-1.308-1.050-0.814-1.764-1.956-1.926-3.26l-0.002-0.008c-0.244-1.95-0.658-3.856-1.182-5.724-0.178-0.632-0.428-1.234-0.632-1.856-0.404-1.224-0.818-2.444-1.324-3.63-0.302-0.704-0.654-1.384-0.99-2.074-0.514-1.062-1.038-2.12-1.622-3.146-4.598-8.080-11.152-14.988-17.432-20.424-1.172 1.014-2.34 2.080-3.52 3.2 9.81 12.040 7.55 28.998 6.5 38.226l-0.010 0.002c-0.752 0-1.474-0.122-2.14-0.348-0.664-0.224-1.274-0.552-1.8-0.96-1.050-0.814-1.764-1.956-1.926-3.26l-0.002-0.008c-0.244-1.95-0.658-3.856-1.182-5.724-0.178-0.632-0.428-1.234-0.632-1.856-0.404-1.224-0.818-2.444-1.324-3.63-0.302-0.704-0.654-1.384-0.99-2.074-0.514-1.062-1.038-2.12-1.622-3.146-0.394-0.694-0.818-1.37-1.242-2.046-0.612-0.982-1.24-1.952-1.904-2.896-0.408-0.58-0.814-1.15-1.24-1.714-0.424 0.564-0.842 1.132-1.252 1.714-0.664 0.944-1.292 1.914-1.904 2.896-0.422 0.678-0.844 1.352-1.242 2.046-0.584 1.024-1.108 2.084-1.622 3.146-0.334 0.692-0.688 1.37-0.99 2.074-0.508 1.182-0.92 2.404-1.324 3.63-0.204 0.62-0.454 1.224-0.632 1.856-0.524 1.87-0.938 3.774-1.182 5.724l-0.002 0.008c-0.162 1.302-0.878 2.442-1.926 3.26-1.050 0.814-2.434 1.308-3.938 1.308l-0.010-0.002c-1.318-11.586-4.608-35.382 16.57-46.292 3.572-1.84 7.856-1.77 11.216-0.076 2.146 1.082 4.452 1.804 6.854 1.804h9.828c17.892 11.528 14.9 33.552 13.648 44.566z" />
<glyph unicode="&#xe448;" d="M492.471 439.745c0.178-0.632 0.428-1.234 0.632-1.856-0.204 0.62-0.454 1.222-0.632 1.856z" />
<glyph unicode="&#xe449;" d="M491.289 445.471l-0.002 0.008c-0.162 1.3-0.878 2.442-1.926 3.256 1.050-0.814 1.764-1.956 1.926-3.26l0.002-0.004z" />
<glyph unicode="&#xe44a;" d="M494.427 434.261c0.302-0.704 0.654-1.384 0.99-2.074-0.334 0.686-0.686 1.368-0.99 2.074z" />
<glyph unicode="&#xe44b;" d="M485.423 450.041v0c0.752 0 1.474-0.122 2.14-0.348-0.668 0.226-1.388 0.348-2.14 0.348z" />
<glyph unicode="&#xe44c;" d="M501.981 403.747c5.058-2.606 11.582-1.412 14.844 2.844-6.936 5.684-14.61 13.356-19.784 22.448-0.584 1.024-1.108 2.084-1.622 3.146-0.334 0.692-0.688 1.37-0.99 2.074-0.508 1.182-0.92 2.404-1.324 3.63-0.204 0.62-0.454 1.224-0.632 1.856-0.524 1.87-0.938 3.774-1.182 5.724l-0.002 0.008c-0.162 1.302-0.878 2.442-1.926 3.26-0.524 0.408-1.134 0.734-1.8 0.96-0.664 0.224-1.388 0.348-2.14 0.348v0l-0.010-0.002c-1.32-11.59-4.612-35.384 16.568-46.296z" />
<glyph unicode="&#xe44d;" d="M466.391 439.745c0.178-0.632 0.428-1.234 0.632-1.856-0.206 0.62-0.456 1.222-0.632 1.856z" />
<glyph unicode="&#xe44e;" d="M468.347 434.261c0.302-0.704 0.654-1.384 0.99-2.074-0.334 0.686-0.688 1.368-0.99 2.074z" />
<glyph unicode="&#xe44f;" d="M465.209 445.471l-0.002 0.008c-0.162 1.3-0.878 2.442-1.926 3.256 1.050-0.814 1.764-1.956 1.926-3.26l0.002-0.004z" />
<glyph unicode="&#xe450;" d="M475.901 403.747c5.058-2.606 11.582-1.412 14.844 2.844-6.936 5.684-14.61 13.356-19.784 22.448-0.584 1.024-1.108 2.084-1.622 3.146-0.334 0.692-0.688 1.37-0.99 2.074-0.508 1.182-0.92 2.404-1.324 3.63-0.204 0.62-0.458 1.224-0.632 1.856-0.524 1.87-0.938 3.774-1.182 5.724l-0.002 0.008c-0.162 1.302-0.878 2.442-1.926 3.26-1.050 0.814-2.434 1.308-3.938 1.308l-0.010-0.002c-1.322-11.59-4.614-35.384 16.566-46.296z" />
<glyph unicode="&#xe451;" d="M470.307 489.391c-0.412-1.58-0.822-3.156-1.234-4.736 13.508 4.052 28.414 6.484 44.596 6.484 16.178-0.008 31.086-2.424 44.596-6.484-0.412 1.58-0.822 3.16-1.234 4.736-13.438 3.466-27.9 5.46-43.36 5.454-15.462 0.004-29.926-1.986-43.364-5.454z" />
<glyph unicode="&#xe452;" d="M470.845 491.447c-0.41-1.58-0.822-3.156-1.234-4.736 13.362 4.062 28.084 6.498 44.058 6.504 15.974-0.008 30.7-2.442 44.058-6.504-0.412 1.58-0.822 3.16-1.234 4.736-13.286 3.492-27.564 5.47-42.824 5.474-15.264-0.002-29.538-1.988-42.824-5.474z" />
<glyph unicode="&#xe453;" d="M471.339 493.351c-0.41-1.58-0.822-3.156-1.234-4.736 13.228 4.074 27.78 6.528 43.56 6.524 15.786 0 30.336-2.45 43.562-6.524-0.41 1.58-0.824 3.156-1.234 4.736-13.144 3.492-27.25 5.494-42.328 5.496-15.074 0-29.178-2.006-42.326-5.496z" />
<glyph unicode="&#xe454;" d="M471.907 495.527c-0.412-1.58-0.822-3.16-1.234-4.736 13.072 4.088 27.43 6.546 42.996 6.546 15.566-0.008 29.924-2.454 42.996-6.546-0.412 1.58-0.822 3.156-1.234 4.736-12.988 3.506-26.896 5.514-41.76 5.516-14.87-0.004-28.778-2.010-41.764-5.516z" />
<glyph unicode="&#xe455;" d="M472.463 497.663c-0.41-1.58-0.822-3.156-1.234-4.736 12.922 4.098 27.080 6.564 42.438 6.566 15.356-0.010 29.516-2.46 42.438-6.566-0.41 1.58-0.824 3.156-1.234 4.736-12.828 3.514-26.546 5.536-41.204 5.538-14.656-0.006-28.372-2.018-41.204-5.538z" />
<glyph unicode="&#xe456;" d="M472.701 498.573c-0.288-1.104-0.574-2.212-0.864-3.316 12.752 4.104 26.71 6.594 41.83 6.59 15.124 0.004 29.080-2.48 41.83-6.59-0.288 1.104-0.574 2.212-0.864 3.316-12.762 3.52-26.4 5.544-40.966 5.546-14.568 0.010-28.204-2.020-40.966-5.546z" />
<glyph unicode="&#xe457;" d="M650.559 341.289h-277.119c-1.826 0-3.504 1.004-4.364 2.61-0.86 1.614-0.762 3.566 0.248 5.084l138.56 207.84c1.838 2.744 6.398 2.744 8.236 0l138.56-207.84c1.010-1.518 1.108-3.47 0.248-5.084-0.864-1.606-2.54-2.61-4.368-2.61zM382.683 351.187h258.631l-129.316 193.972-129.316-193.972z" />
<glyph unicode="&#xe458;" d="M521.463 470.081c0 4.352-4.414 10.974-11.474 10.974-4.128 0-7.472-2.522-7.472-5.634 0-1.552 0.834-2.96 2.182-3.978-0.008-0.058-0.010-0.114-0.014-0.172-1.688-1.032-2.786-2.59-2.786-4.354 0-2.97 3.056-5.376 6.924-5.59l3.18-6.36 2.872 5.744c3.766 0.958 6.588 4.782 6.588 9.37z" />
<glyph unicode="&#xe459;" d="M964.898 227.361v0.018l-0.008 48.14-0.058 344.963-0.008 48.306c-0.002 22.062-10.304 42.656-27.51 55.902-2.456 1.892-5.056 3.634-7.786 5.208l-382.325 220.652c-1.364 0.788-2.75 1.524-4.152 2.214-2.804 1.38-5.676 2.562-8.6 3.546-1.462 0.492-2.934 0.934-4.418 1.328-5.934 1.574-12.026 2.362-18.118 2.362-6.094 0-12.184-0.79-18.118-2.366s-11.71-3.942-17.168-7.096l-382.251-220.776c-10.916-6.304-19.738-15.284-25.828-25.836-0.762-1.32-1.48-2.662-2.154-4.028-4.724-9.562-7.296-20.226-7.292-31.258v0 0-0.068l0.008-48.090 0.058-344.963 0.008-48.242v-0.064c0.002-9.454 1.894-18.64 5.412-27.092 2.344-5.636 5.412-10.944 9.12-15.794 5.564-7.27 12.574-13.502 20.764-18.228l382.323-220.65c6.824-3.938 14.144-6.646 21.646-8.122 3.002-0.59 6.034-0.982 9.074-1.18 13.686-0.884 27.57 2.222 39.852 9.314l382.249 220.778c2.73 1.578 5.328 3.32 7.786 5.214 7.37 5.68 13.474 12.708 18.042 20.622 6.094 10.55 9.454 22.68 9.452 35.286v0 0z" />
<glyph unicode="&#xe45a;" d="M59.11 620.481l0.058-344.965h905.722l-0.056 344.965-452.835 24.978z" />
<glyph unicode="&#xe45b;" d="M66.392 699.881c-0.632-1.282-1.222-2.59-1.778-3.908-0.18-0.43-0.338-0.87-0.51-1.302-0.36-0.904-0.712-1.814-1.034-2.736-0.182-0.52-0.348-1.050-0.518-1.578-0.274-0.852-0.542-1.708-0.784-2.57-0.158-0.562-0.304-1.124-0.45-1.69-0.218-0.852-0.42-1.71-0.604-2.572-0.122-0.572-0.242-1.142-0.352-1.718-0.168-0.888-0.312-1.78-0.448-2.674-0.082-0.558-0.172-1.11-0.242-1.668-0.122-0.982-0.212-1.97-0.294-2.96-0.040-0.478-0.094-0.952-0.124-1.432-0.092-1.47-0.148-2.95-0.148-4.434v-0.068l0.008-48.090h905.722l-0.008 48.306c0 1.484-0.054 2.964-0.148 4.434-0.030 0.48-0.084 0.958-0.124 1.434-0.082 0.99-0.172 1.976-0.294 2.956-0.070 0.56-0.16 1.112-0.244 1.67-0.134 0.892-0.28 1.784-0.448 2.67-0.11 0.578-0.23 1.152-0.354 1.724-0.184 0.86-0.388 1.718-0.604 2.566-0.146 0.568-0.292 1.132-0.45 1.692-0.242 0.862-0.51 1.714-0.784 2.564-0.172 0.53-0.338 1.060-0.52 1.584-0.322 0.92-0.674 1.824-1.032 2.73-0.172 0.434-0.332 0.874-0.512 1.308-1.114 2.652-2.39 5.228-3.816 7.72-0.23 0.402-0.482 0.794-0.722 1.194-0.5 0.832-1.004 1.662-1.54 2.476-0.302 0.462-0.622 0.91-0.934 1.364-0.508 0.732-1.022 1.462-1.558 2.176-0.348 0.462-0.702 0.92-1.062 1.374-0.54 0.684-1.094 1.362-1.66 2.030-0.378 0.442-0.754 0.884-1.142 1.318-0.594 0.668-1.21 1.32-1.834 1.964-0.384 0.4-0.764 0.802-1.16 1.194-0.7 0.692-1.424 1.362-2.154 2.026-0.344 0.312-0.678 0.638-1.030 0.944-1.098 0.958-2.22 1.89-3.38 2.784-0.82 0.63-1.678 1.22-2.526 1.816-1.7 1.194-3.44 2.344-5.258 3.394l-382.335 220.656c-1.364 0.788-2.75 1.524-4.152 2.214-0.7 0.344-1.418 0.64-2.126 0.96-2.126 0.96-4.278 1.844-6.474 2.584-0.834 0.28-1.682 0.51-2.524 0.76-0.632 0.188-1.258 0.4-1.894 0.57-1.484 0.394-2.976 0.738-4.478 1.034-1.502 0.294-3.010 0.542-4.522 0.738-3.026 0.392-6.072 0.59-9.118 0.59-1.522 0-3.046-0.050-4.566-0.15-4.562-0.298-9.1-1.034-13.552-2.216-5.934-1.578-11.71-3.942-17.168-7.096l-382.251-220.776c-8.188-4.728-15.196-10.962-20.756-18.232-1.854-2.424-3.546-4.964-5.068-7.602-0.572-0.99-1.094-2.006-1.618-3.022-0.174-0.34-0.37-0.668-0.54-1.008-0.002-0.006-0.002-0.012-0.004-0.016z" />
<glyph unicode="&#xe45c;" d="M59.178 227.211l-0.072 441.424c-0.006 25.214 13.444 48.514 35.278 61.124l382.247 220.779c21.834 12.61 48.736 12.614 70.574 0.012l382.321-220.649c21.836-12.604 35.292-35.9 35.298-61.114l0.072-441.424c0.006-25.214-13.444-48.514-35.278-61.126l-382.249-220.775c-21.834-12.612-48.736-12.614-70.574-0.012l-382.319 220.647c-21.84 12.604-35.292 35.902-35.298 61.114z" />
<glyph unicode="&#xe45d;" d="M964.832 620.797h-905.718l0.026-172.797 477.852-22.482 427.866 22.482z" />
<glyph unicode="&#xe45e;" d="M819.099 102.405h-614.262l271.959-156.953c4.094-2.364 8.368-4.284 12.752-5.76 2.922-0.984 5.896-1.772 8.898-2.362s6.034-0.982 9.076-1.18c4.562-0.294 9.144-0.148 13.686 0.444 9.080 1.184 17.98 4.138 26.166 8.868l271.725 156.943z" />
<glyph unicode="&#xe45f;" d="M204.899 793.595h614.264l-271.957 156.955c-21.836 12.604-48.74 12.6-70.574-0.012l-271.733-156.943z" />
<glyph unicode="&#xe460;" d="M59.17 275.203h905.718l-0.030 172.797h-905.718z" />
<glyph unicode="&#xe461;" d="M675.717 447.982c0-90.409-73.291-163.699-163.699-163.699s-163.699 73.291-163.699 163.699c0 90.409 73.291 163.699 163.699 163.699s163.699-73.291 163.699-163.699z" />
<glyph unicode="&#xe462;" d="M521.874 547.668l16.126 6.45c2.336 0.934 3.466 3.614 2.432 5.908-3.616 8.020-13.306 24.61-31.722 25.108-11.662 0.314-20.38-2.312-25.3-4.342-2.514-1.038-3.524-4.028-2.152-6.374l9.732-16.626 30.884-10.124z" />
<glyph unicode="&#xe463;" d="M508.71 585.133c-1.34 0.038-2.552-0.042-3.814-0.078l-1.754-25.742 9.368-5.188 20.256 18.328c-5.338 6.452-13.158 12.386-24.056 12.68z" />
<glyph unicode="&#xe464;" d="M578.072 396.284l-72.908 85.060c0 17.606 6.364 31.982 9.878 38.59 10.034 4.482 16.506 15.516 13.814 27.7-1.956 8.86-9.108 16.090-17.952 18.112-15.916 3.638-30.040-8.352-30.040-23.646 0-0.574 0.13-1.114 0.17-1.68-15.726-4.146-18.65-9.204-18.65-9.204s10.308 2.742 19.252 5.086c0.18-0.73 0.42-1.432 0.662-2.136l-17.638-5.988 19.262 2.344c2.14-3.914 5.312-7.166 9.14-9.412-14.394-11.596-36.5-33.39-36.5-57.99 0-22.496 16.662-37.484 37.648-47.452 7.336-3.484 14.078-8.082 19.624-14.016l0.208-0.22 1.828-27.924c-15.050 0-32.994 0-41.076 0-15.188 0-19.364-9.872-19.364-26.2l7.216 10.252 6.076-11.392 0.76 12.912 6.456-8.352c0 0-0.068 10.91 8.162 12.342 4.366 0.76 19.494 1.71 32.344 1.71l2.722-41.616c-17.428 0.082-37.152-8.128-37.152-8.128 6.076 1.14 20.884-1.14 20.884-1.14l-2.47-7.216c17.088 9.302 48.414 9.492 48.414 9.492s-6.834 4.662-22.784 6.486l0.37 42.118h25.074l3.796 9.872c0 0-12.936 17.16-12.936 26.252 20.046-3.816 35.71-4.616 35.71-4.616zM526.498 373.502l0.128 14.448c7.528-8.066 13.476-14.448 13.476-14.448s-5.62 0-13.604 0z" />
<glyph unicode="&#xe465;" d="M578.072 384.134c-6.076 24.304-32.702 31.772-60.756 48.604-30.38 18.228-12.152 48.604-12.152 48.604s101.764-29.872 109.36-72.908c5.916-33.516-18.228-54.68-30.376-60.756l4.366 12.152h-22.594c0 0 23.924 18.608 24.304 36.452l-12.152-12.148z" />
<glyph unicode="&#xe466;" d="M614.526 408.436c-5.076 28.77-52.21 51.638-82.922 63.65v0c-9.828 1.094-18.464-15.426 8.496-33.274 36.27-24.008 37.972-54.68 37.972-54.68l12.152 12.152c-0.38-17.848-24.304-36.452-24.304-36.452h22.594l-4.366-12.152c12.152 6.076 36.292 27.24 30.378 60.756z" />
<glyph unicode="&#xe467;" d="M614.526 408.436c-3.364 19.068-25.216 35.52-48.504 47.96-11.216 3.354-20.984 2.924-20.984 2.924 6.836-4.176 9.872-14.808 9.872-14.808-4.936 3.036-15.948 1.52-15.948 1.52 3.062-2.624 5.966-7.98 7.906-12.086 29.7-23.086 31.206-49.808 31.206-49.808l12.152 12.152c-0.38-17.848-24.304-36.452-24.304-36.452h22.594l-4.366-12.152c12.15 6.070 36.29 27.234 30.376 60.75z" />
<glyph unicode="&#xe468;" d="M499.35 544.382c0-2.238-1.814-4.052-4.052-4.052s-4.052 1.814-4.052 4.052c0 2.238 1.814 4.052 4.052 4.052s4.052-1.814 4.052-4.052z" />
<glyph unicode="&#xe469;" d="M484.66 528.936c0 0-8.86-10.38-3.036-13.416s11.44 5.588 11.44 5.588l-8.404 7.828z" />
<glyph unicode="&#xe46a;" d="M964.896 274.974v0l-0.066 393.644v0.182c-0.002 23.194-11.412 44.744-30.234 57.86-1.64 1.142-3.314 2.244-5.062 3.254l-382.334 220.656c-1.364 0.788-2.75 1.528-4.152 2.214-15.098 7.424-32.2 9.108-48.22 5.106-6.296-1.572-12.43-3.998-18.202-7.334l-382.26-220.78c-8.188-4.728-15.196-10.962-20.758-18.232-9.27-12.122-14.522-27.134-14.518-42.892l0.008-47.614 0.064-393.824c0-1.892 0.1-3.766 0.25-5.634 0.2-2.486 0.528-4.946 0.984-7.37 0.704-3.754 1.714-7.424 3.002-10.98 1.938-5.354 4.486-10.46 7.638-15.182 0.844-1.268 1.732-2.506 2.66-3.72 5.564-7.27 12.574-13.502 20.764-18.228l382.334-220.654c9.598-5.538 20.174-8.64 30.87-9.308 13.64-0.852 27.468 2.25 39.708 9.32l382.258 220.782c5.458 3.154 10.392 6.974 14.724 11.324 2.164 2.178 4.178 4.486 6.034 6.908 9.27 12.122 14.522 27.134 14.518 42.892l-0.010 47.61z" />
<glyph unicode="&#xe46b;" d="M953.386 188.744c0.3 0.46 0.578 0.93 0.868 1.398 0.64 1.032 1.26 2.076 1.848 3.14 0.294 0.534 0.584 1.074 0.864 1.618 0.56 1.080 1.088 2.176 1.59 3.284 0.224 0.498 0.462 0.988 0.678 1.49 0.682 1.6 1.322 3.216 1.884 4.866 0.002 0.010 0.008 0.022 0.010 0.032 0.562 1.648 1.048 3.324 1.488 5.016 0.14 0.532 0.252 1.072 0.378 1.61 0.282 1.194 0.538 2.396 0.758 3.61 0.11 0.61 0.212 1.222 0.308 1.834 0.188 1.22 0.334 2.446 0.46 3.684 0.054 0.558 0.124 1.112 0.168 1.674 0.134 1.772 0.222 3.554 0.222 5.348 0 0 0 0.012 0 0.020l-0.008 47.61-452.898 40.578-452.846-40.58 0.008-47.76c0-1.22 0.060-2.432 0.122-3.642 0.038-0.664 0.074-1.33 0.128-1.992v0-0.010c0.2-2.48 0.528-4.932 0.982-7.35 0 0 0-0.008 0.002-0.010v0c0.704-3.756 1.714-7.424 3.002-10.98 0.962-2.662 2.080-5.262 3.344-7.784 0.102-0.204 0.22-0.402 0.324-0.604 0.538-1.048 1.090-2.090 1.682-3.11 0.728-1.25 1.488-2.48 2.29-3.684 0.844-1.268 1.732-2.506 2.66-3.72 0 0 0.002-0.002 0.004-0.006 1.232-1.612 2.564-3.152 3.936-4.656 0.344-0.378 0.694-0.752 1.050-1.124 1.408-1.478 2.856-2.916 4.396-4.274 0.008-0.008 0.012-0.012 0.020-0.018 1.538-1.354 3.162-2.62 4.824-3.842 0.42-0.31 0.844-0.614 1.274-0.914 1.692-1.188 3.422-2.332 5.234-3.38 0.010-0.006 0.018-0.010 0.024-0.018l382.334-220.654c1.288-0.742 2.594-1.434 3.914-2.090 0.45-0.222 0.908-0.42 1.36-0.632 0.878-0.412 1.754-0.82 2.644-1.192 0.55-0.232 1.108-0.442 1.662-0.66 0.804-0.314 1.61-0.622 2.422-0.904 0.598-0.208 1.2-0.404 1.802-0.598 0.782-0.25 1.57-0.488 2.36-0.71 0.622-0.174 1.248-0.344 1.872-0.502 0.782-0.198 1.568-0.372 2.354-0.542 0.634-0.138 1.268-0.278 1.904-0.394 0.802-0.15 1.61-0.272 2.416-0.394 0.62-0.094 1.24-0.2 1.862-0.278 0.922-0.112 1.85-0.19 2.774-0.268 0.504-0.042 1.010-0.108 1.514-0.14 0 0 0.002 0 0.006 0 0.018 0 0.036 0 0.052 0 1.602-0.098 3.206-0.138 4.814-0.124 0.448 0.002 0.894 0.032 1.342 0.042 1.178 0.030 2.352 0.076 3.526 0.162 0.562 0.042 1.124 0.108 1.688 0.164 1.058 0.104 2.112 0.224 3.164 0.378 0.612 0.090 1.222 0.196 1.832 0.3 0.998 0.172 1.994 0.364 2.984 0.578 0.632 0.138 1.26 0.282 1.89 0.438 0.972 0.238 1.938 0.504 2.9 0.784 0.624 0.182 1.25 0.364 1.872 0.564 0.97 0.312 1.932 0.66 2.89 1.018 0.592 0.22 1.19 0.428 1.778 0.664 1.028 0.412 2.040 0.87 3.052 1.334 0.5 0.23 1.008 0.438 1.502 0.68 1.47 0.714 2.922 1.478 4.348 2.3 0.024 0.012 0.050 0.026 0.074 0.040l382.258 220.782c5.458 3.154 10.392 6.974 14.724 11.324 2.164 2.176 4.178 4.486 6.034 6.908 0.008 0.008 0.012 0.018 0.020 0.028 1.046 1.37 2.030 2.792 2.978 4.24z" />
<glyph unicode="&#xe46c;" d="M59.152 274.974h905.744l-0.054 320.84-0.004 25.224h-905.742l0.066-393.602v-0.222z" />
<glyph unicode="&#xe46d;" d="M432.016 716.114c0 0-4.796-152.824-26.24-195.738-26.546-52.75-53.232-68.132-92.94-82.352-39.702 14.212-66.39 29.592-92.94 82.352-21.44 42.92-26.246 195.726-26.24 195.738 75.77 34.21 162.59 34.21 238.36 0z" />
<glyph unicode="&#xe46e;" d="M347.346 504.186c-2.904 1.862-4.998 3.194-9.762 3.194-4.752 0-6.848-1.332-9.738-3.194-3.312-2.106-7.43-4.746-15.086-4.746-7.664 0-11.782 2.636-15.092 4.758-2.89 1.85-4.978 3.182-9.732 3.182s-6.84-1.332-9.732-3.182c-3.13-2.004-7.084-4.394-13.956-4.662 14.468-17.646 29.64-26.014 48.576-33.284 18.922 7.268 34.092 15.634 48.562 33.28-6.928 0.25-10.902 2.656-14.040 4.654z" />
<glyph unicode="&#xe46f;" d="M253.406 532.418c2.89-1.85 4.974-3.182 9.712-3.182 4.752 0 6.84 1.332 9.732 3.182 3.312 2.122 7.428 4.758 15.086 4.758 7.656 0 11.774-2.64 15.086-4.746 2.89-1.862 4.986-3.194 9.738-3.194s6.84 1.332 9.732 3.182c3.31 2.122 7.428 4.758 15.092 4.758 7.668 0 11.794-2.64 15.104-4.746 2.904-1.862 4.992-3.194 9.758-3.194s6.86 1.332 9.762 3.194c2.766 1.762 6.238 3.802 11.74 4.456 1.442 3.754 2.84 8.030 4.146 13.226l-35.544 59.238-13.242-26.486-26.486 52.97-26.484-52.97-13.242 26.486-35.522-59.202c1.3-5.192 2.694-9.488 4.138-13.264 5.482-0.658 8.936-2.698 11.694-4.466z" />
<glyph unicode="&#xe470;" d="M377.548 524.050c-3.312-2.106-7.436-4.746-15.104-4.746-7.664 0-11.788 2.636-15.098 4.746-2.904 1.862-4.998 3.194-9.762 3.194-4.752 0-6.848-1.332-9.738-3.194-3.312-2.106-7.43-4.746-15.086-4.746-7.664 0-11.782 2.636-15.092 4.758-2.89 1.85-4.978 3.182-9.732 3.182s-6.84-1.332-9.732-3.182c-3.312-2.122-7.43-4.758-15.086-4.758-7.65 0-11.762 2.636-15.066 4.758-0.014 0.010-0.030 0.018-0.044 0.030 2.594-4.712 5.192-9.040 7.776-12.964 1.934-1.060 3.954-1.754 7.336-1.754 4.752 0 6.84 1.332 9.732 3.182 3.312 2.122 7.428 4.758 15.086 4.758 7.656 0 11.774-2.64 15.086-4.746 2.89-1.862 4.986-3.194 9.738-3.194s6.84 1.332 9.732 3.182c3.31 2.122 7.428 4.758 15.092 4.758 7.668 0 11.794-2.64 15.104-4.746 2.904-1.862 4.992-3.194 9.758-3.194 3.432 0 5.472 0.708 7.434 1.79 2.584 3.918 5.176 8.246 7.77 12.95-0.040-0.028-0.070-0.042-0.104-0.064z" />
<glyph unicode="&#xe471;" d="M313.356 681.428l2.324-7.594 7.738 1.784c0.524 0.122 0.89-0.51 0.522-0.904l-5.414-5.808 5.414-5.808c0.368-0.394 0.002-1.028-0.522-0.904l-7.738 1.784-2.324-7.594c-0.158-0.514-0.888-0.514-1.044 0l-2.324 7.594-7.738-1.784c-0.524-0.122-0.89 0.51-0.522 0.904l5.414 5.808-5.414 5.808c-0.368 0.394-0.002 1.028 0.522 0.904l7.738-1.784 2.324 7.594c0.158 0.514 0.888 0.514 1.044 0z" />
<glyph unicode="&#xe472;" d="M275.286 717.916l2.324-7.594 7.738 1.784c0.524 0.122 0.89-0.51 0.522-0.904l-5.414-5.808 5.414-5.808c0.368-0.394 0.002-1.028-0.522-0.904l-7.738 1.784-2.324-7.594c-0.158-0.514-0.888-0.514-1.048 0l-2.324 7.594-7.738-1.784c-0.524-0.12-0.89 0.512-0.522 0.904l5.414 5.808-5.414 5.808c-0.368 0.394-0.002 1.028 0.522 0.904l7.738-1.784 2.324 7.594c0.16 0.514 0.89 0.514 1.048 0z" />
<glyph unicode="&#xe473;" d="M351.704 717.916l2.324-7.594 7.738 1.784c0.524 0.122 0.89-0.51 0.522-0.904l-5.414-5.808 5.414-5.808c0.368-0.394 0.002-1.028-0.522-0.904l-7.738 1.784-2.324-7.594c-0.158-0.514-0.888-0.514-1.044 0l-2.324 7.594-7.738-1.784c-0.524-0.12-0.89 0.512-0.522 0.904l5.414 5.808-5.414 5.808c-0.368 0.394-0.002 1.028 0.522 0.904l7.738-1.784 2.324 7.594c0.158 0.514 0.886 0.514 1.044 0z" />
<glyph unicode="&#xe474;" d="M418.308 721.868c0.080-4.222 0.15-8.486 0.15-13.084-1.91-47.778-9.020-151.83-24.512-183.162-22.84-45.87-43.926-61.030-81.11-75.002-37.184 13.968-58.268 29.126-81.092 74.966-15.548 31.458-22.706 137.272-24.536 183.196 0 4.606 0.074 8.82 0.14 13.080-4.584-1.794-9.14-3.694-13.652-5.728 0.318-9.278 2.63-70.148 9.568-123.666 3.914-29.876 9.298-57.414 16.634-72.092 26.548-52.76 53.236-68.138 92.94-82.352 39.708 14.218 66.394 29.606 92.94 82.352 7.336 14.678 12.72 42.214 16.634 72.092 6.936 53.52 9.246 114.386 9.566 123.666-4.522 2.036-9.082 3.936-13.67 5.734z" />
<glyph unicode="&#xe475;" d="M949.024 182.836c0.244 0.302 0.504 0.59 0.744 0.894 0.682 0.868 1.33 1.76 1.972 2.656 0.162 0.224 0.334 0.444 0.494 0.674 0.678 0.972 1.32 1.97 1.946 2.974 0.102 0.164 0.214 0.322 0.314 0.49 0.658 1.072 1.28 2.17 1.88 3.276 0.054 0.104 0.118 0.202 0.174 0.308 0.624 1.168 1.212 2.356 1.772 3.56 0.022 0.046 0.044 0.092 0.068 0.138 4.058 8.786 6.316 18.438 6.476 28.42 0 0.006 0 0.010 0 0.016 0.006 0.374 0.036 0.748 0.036 1.124l-0.016 84.82-0.010 54.328-0.002 7.57-0.026 155.412-0.010 54.328-0.016 84.97c-0.002 10.338-2.282 20.342-6.458 29.422-0.012 0.028-0.028 0.052-0.040 0.082-0.564 1.222-1.16 2.43-1.792 3.616-0.048 0.090-0.102 0.178-0.15 0.268-0.604 1.122-1.232 2.232-1.894 3.32-0.094 0.158-0.2 0.302-0.294 0.458-0.632 1.018-1.278 2.024-1.96 3.006-0.154 0.222-0.324 0.438-0.482 0.658-0.642 0.904-1.292 1.804-1.98 2.676-0.232 0.298-0.484 0.578-0.722 0.872-0.634 0.782-1.27 1.568-1.936 2.324-0.332 0.374-0.688 0.73-1.028 1.098-0.604 0.654-1.2 1.314-1.83 1.946-0.454 0.458-0.938 0.888-1.402 1.332-0.548 0.52-1.082 1.052-1.648 1.558-0.624 0.558-1.28 1.082-1.924 1.618-0.44 0.364-0.864 0.744-1.314 1.1-1.112 0.878-2.252 1.722-3.42 2.536-1.624 1.13-3.284 2.22-5.018 3.222l-382.321 220.646c-1.364 0.788-2.75 1.528-4.152 2.214-5.608 2.756-11.492 4.726-17.496 5.906-4.502 0.888-9.074 1.33-13.642 1.33-3.046 0-6.094-0.198-9.118-0.592-9.080-1.184-17.98-4.138-26.168-8.868l-382.249-220.78c-1.682-0.972-3.296-2.030-4.878-3.124-1.172-0.812-2.316-1.658-3.432-2.534-0.432-0.34-0.842-0.708-1.268-1.058-0.664-0.55-1.34-1.090-1.982-1.66-0.56-0.494-1.088-1.020-1.628-1.532-0.478-0.452-0.968-0.888-1.43-1.352-0.63-0.63-1.228-1.29-1.834-1.944-0.34-0.368-0.698-0.724-1.032-1.1-0.664-0.75-1.294-1.524-1.926-2.3-0.244-0.3-0.502-0.588-0.74-0.892-0.68-0.864-1.324-1.752-1.962-2.644-0.164-0.232-0.342-0.454-0.504-0.688-0.678-0.972-1.318-1.97-1.944-2.972-0.102-0.164-0.214-0.322-0.318-0.49-0.658-1.074-1.28-2.17-1.88-3.276-0.058-0.102-0.118-0.202-0.174-0.308-0.624-1.168-1.212-2.354-1.772-3.56-0.022-0.048-0.044-0.090-0.068-0.138-4.062-8.79-6.318-18.444-6.476-28.432v0c-0.006-0.378-0.034-0.75-0.034-1.124l0.014-84.82 0.010-54.328v-7.57l0.020-125.088 0.006-30.324 0.010-54.328 0.014-84.97c0.002-10.338 2.282-20.344 6.46-29.424 0.008-0.018 0.018-0.036 0.024-0.052 0.568-1.234 1.17-2.45 1.806-3.648 0.040-0.078 0.088-0.15 0.128-0.228 0.612-1.138 1.248-2.26 1.92-3.362 0.082-0.134 0.172-0.26 0.254-0.394 0.642-1.038 1.302-2.064 2-3.066 0.144-0.21 0.308-0.41 0.454-0.622 0.65-0.918 1.31-1.826 2.004-2.714 0.222-0.282 0.462-0.552 0.688-0.83 0.644-0.798 1.29-1.594 1.972-2.364 0.322-0.364 0.67-0.71 1-1.070 0.612-0.664 1.22-1.334 1.856-1.976 0.44-0.442 0.908-0.86 1.36-1.29 0.562-0.534 1.11-1.080 1.69-1.598 0.612-0.548 1.258-1.062 1.89-1.588 0.45-0.374 0.884-0.764 1.348-1.13 1.112-0.878 2.252-1.722 3.42-2.536 1.624-1.13 3.284-2.22 5.018-3.222l382.323-220.644c4.094-2.362 8.368-4.282 12.752-5.758 11.692-3.938 24.17-4.724 36.178-2.356 4.502 0.888 8.938 2.216 13.238 3.992 1.434 0.592 2.852 1.232 4.254 1.922s2.786 1.428 4.152 2.216l382.251 220.778c1.682 0.972 3.296 2.026 4.878 3.122 1.172 0.812 2.316 1.66 3.432 2.534 0.442 0.348 0.86 0.722 1.292 1.078 0.658 0.542 1.322 1.074 1.956 1.638 0.564 0.5 1.1 1.030 1.644 1.55 0.47 0.444 0.954 0.878 1.412 1.334 0.63 0.63 1.228 1.29 1.832 1.942 0.342 0.368 0.7 0.724 1.032 1.1 0.67 0.75 1.3 1.524 1.932 2.296z" />
<glyph unicode="&#xe476;" d="M611.973 913.17l-64.77 37.38c-1.364 0.788-2.75 1.528-4.152 2.214-5.608 2.756-11.492 4.726-17.496 5.906-1.352 0.264-2.712 0.478-4.074 0.664-0.4 0.054-0.802 0.1-1.202 0.148-1.014 0.12-2.030 0.22-3.046 0.294-0.4 0.030-0.8 0.064-1.202 0.088-2.892 0.168-5.79 0.172-8.682-0.014-1.52-0.1-3.040-0.248-4.552-0.444-1.362-0.178-2.716-0.408-4.066-0.664-0.4-0.078-0.8-0.162-1.2-0.248-0.998-0.21-1.992-0.438-2.982-0.69-0.398-0.1-0.794-0.198-1.19-0.304-1.334-0.364-2.662-0.754-3.976-1.198s-2.614-0.94-3.908-1.462c-0.382-0.154-0.76-0.318-1.14-0.48-0.954-0.408-1.902-0.834-2.842-1.284-0.374-0.178-0.75-0.354-1.12-0.54-1.26-0.63-2.512-1.288-3.742-1.996l-230.164-132.936 270.531-14.7 260.565 14.7-165.592 95.566z" />
<glyph unicode="&#xe477;" d="M412.029-17.166l64.768-37.38c1.228-0.708 2.474-1.362 3.732-1.992 0.38-0.19 0.762-0.368 1.144-0.552 0.93-0.442 1.864-0.864 2.806-1.264 0.39-0.164 0.778-0.334 1.17-0.494 1.274-0.514 2.556-1.002 3.854-1.44 0.014-0.006 0.028-0.010 0.042-0.016 4.178-1.41 8.46-2.394 12.784-2.996 6.258-0.872 12.606-0.918 18.872-0.1 1.512 0.198 3.022 0.444 4.522 0.74 1.35 0.264 2.692 0.584 4.026 0.93 0.398 0.1 0.79 0.214 1.184 0.324 0.988 0.274 1.972 0.57 2.95 0.888 0.39 0.124 0.778 0.25 1.164 0.382 1.97 0.68 3.908 1.47 5.828 2.33 0.782 0.35 1.57 0.68 2.342 1.058 1.402 0.69 2.786 1.428 4.152 2.216l230.164 132.936-265.531 17.198-265.563-17.2 165.592-95.568z" />
<glyph unicode="&#xe478;" d="M964.882 312.183l-0.010 54.328-0.002 7.57-272.921 18.938-223.278-18.938-69.14-63.54-61.168-84.3 321.095-18.172 305.403 18.172c0.006 0.374 0.036 0.748 0.036 1.124l-0.016 84.818z" />
<glyph unicode="&#xe479;" d="M338.365 669.763l58.668-84.3 71.64-63.542 218.28-21.434 277.895 21.434v7.57l-0.010 54.328-0.016 84.97c0 0.324-0.026 0.648-0.030 0.972l-300.333 18.172-326.093-18.17z" />
<glyph unicode="&#xe47a;" d="M964.792 669.763c-0.020 1.412-0.082 2.816-0.184 4.214-0.002 0.044-0.008 0.088-0.010 0.132-0.1 1.322-0.24 2.636-0.412 3.944-0.018 0.134-0.038 0.268-0.054 0.402-0.168 1.208-0.368 2.41-0.598 3.598-0.040 0.202-0.078 0.408-0.118 0.608-0.224 1.118-0.48 2.224-0.758 3.326-0.062 0.25-0.122 0.502-0.188 0.752-0.278 1.050-0.584 2.090-0.91 3.124-0.088 0.274-0.164 0.554-0.254 0.83-0.334 1.028-0.704 2.040-1.088 3.046-0.098 0.26-0.184 0.524-0.288 0.784-0.488 1.248-1.010 2.476-1.568 3.692-0.010 0.020-0.020 0.040-0.030 0.060-0.222 0.484-0.478 0.954-0.712 1.438-0.36 0.734-0.708 1.478-1.092 2.2-0.046 0.082-0.092 0.164-0.14 0.248-0.252 0.47-0.532 0.928-0.794 1.392-0.368 0.652-0.722 1.308-1.112 1.946-0.094 0.158-0.2 0.302-0.294 0.458-0.632 1.018-1.278 2.024-1.96 3.006-0.156 0.222-0.324 0.438-0.482 0.658-0.52 0.73-1.054 1.45-1.598 2.164-0.13 0.168-0.25 0.348-0.38 0.514-0.232 0.298-0.484 0.578-0.722 0.87-0.138 0.17-0.282 0.334-0.42 0.504-0.504 0.612-0.994 1.23-1.522 1.824-0.332 0.372-0.684 0.728-1.024 1.094-0.512 0.554-1.028 1.11-1.554 1.654-0.094 0.098-0.182 0.2-0.278 0.294-0.414 0.418-0.852 0.81-1.28 1.214-0.588 0.56-1.162 1.132-1.77 1.672-0.598 0.534-1.228 1.040-1.848 1.552-0.218 0.182-0.432 0.37-0.652 0.548-0.244 0.208-0.484 0.42-0.74 0.62-1.112 0.878-2.252 1.722-3.42 2.536-1.624 1.13-3.284 2.22-5.018 3.222l-151.962 87.7h-531.089l-25.454-14.702 117.35-133.14 626.427 0.002z" />
<glyph unicode="&#xe47b;" d="M221 93.084l1.034-0.598 24.406-14.084h531.095l152.086 87.842c1.682 0.972 3.296 2.026 4.878 3.122 1.172 0.812 2.316 1.66 3.432 2.534 0.294 0.232 0.574 0.478 0.86 0.718 0.174 0.146 0.348 0.29 0.52 0.434 0.628 0.518 1.262 1.024 1.868 1.564 0.564 0.5 1.1 1.030 1.644 1.55 0.47 0.444 0.954 0.878 1.412 1.334 0.63 0.63 1.228 1.29 1.832 1.942 0.34 0.368 0.698 0.722 1.028 1.098 0.672 0.758 1.312 1.542 1.95 2.326 0.24 0.292 0.49 0.574 0.724 0.872 0.682 0.868 1.33 1.76 1.972 2.656 0.162 0.224 0.334 0.444 0.494 0.674 0.452 0.648 0.872 1.318 1.298 1.982 0.22 0.34 0.45 0.672 0.662 1.012 0.1 0.158 0.204 0.31 0.302 0.47 0.658 1.072 1.28 2.17 1.88 3.276 0.054 0.102 0.118 0.202 0.172 0.304 0.372 0.698 0.71 1.418 1.060 2.126 0.234 0.48 0.488 0.95 0.712 1.434 0.020 0.044 0.044 0.090 0.066 0.132 0.55 1.19 1.062 2.4 1.544 3.618 0.13 0.332 0.248 0.672 0.372 1.004 0.34 0.9 0.67 1.802 0.972 2.714 0.14 0.418 0.262 0.838 0.394 1.258 0.262 0.84 0.512 1.684 0.742 2.536 0.124 0.46 0.24 0.922 0.354 1.388 0.204 0.828 0.398 1.658 0.572 2.492 0.1 0.48 0.2 0.958 0.29 1.44 0.158 0.84 0.294 1.684 0.424 2.532 0.072 0.48 0.15 0.958 0.212 1.44 0.118 0.904 0.208 1.816 0.29 2.726 0.038 0.422 0.090 0.842 0.12 1.268 0.098 1.334 0.162 2.674 0.184 4.022h-626.491l-63.798-58.162-53.568-74.996z" />
<glyph unicode="&#xe47c;" d="M338.365 226.241l130.308 147.84h496.199l-0.024 155.412v-7.572h-496.175l-247.658 280.979-20.288-11.716 302.483-343.181-302.505-343.211 20.294-11.708z" />
<glyph unicode="&#xe47d;" d="M230.692 584.703l39.048-79.114 87.306-12.686-63.176-61.584 14.914-86.954-78.092 41.054-78.090-41.054 14.916 86.954-63.178 61.584 87.308 12.686z" />
<glyph unicode="&#xe47e;" d="M331.993 439.129l-103.762 80.326c-12.14 28.45-29.396 46.798-44.046 46.798-12.444 0-18.528-11.534-20.272-18.462-8.962-4.152-11.066-12.41-11.154-12.768-0.144-0.592-0.008-1.22 0.368-1.702 0.378-0.48 0.952-0.758 1.564-0.758l1.856 0.032c8.338 0.192 22.226 0.56 25.78-25.928 2.216-16.536-1.074-46.158-11.54-68.486-7.31-15.598-4.896-28.212-4.788-28.742 0.2-0.998 1.128-1.65 2.16-1.588 0.16 0.014 0.548 0.032 1.038 0.048l8.396-47.464c0.168-0.95 0.992-1.642 1.956-1.642h125.27c0.918 0 1.714 0.628 1.932 1.518l13.994 57.476c0.006 0.018 0.024 0.026 0.028 0.042 0.008 0.032-0.002 0.062 0.006 0.094l4.446 18.258c3.286-0.39 5.246-0.592 5.354-0.604 0.95-0.122 1.722 0.418 2.046 1.24 0.326 0.828 0.070 1.77-0.632 2.312z" />
<glyph unicode="&#xe47f;" d="M331.993 439.129l-103.762 80.326c-12.14 28.45-29.396 46.798-44.046 46.798-12.444 0-18.528-11.534-20.272-18.462-8.962-4.152-11.066-12.41-11.154-12.768-0.144-0.592-0.008-1.22 0.368-1.702 0.378-0.48 0.952-0.758 1.564-0.758l1.856 0.032c8.338 0.192 22.226 0.56 25.78-25.928 2.216-16.536-1.074-46.158-11.54-68.486-7.31-15.598-4.896-28.212-4.788-28.742 0.2-0.998 1.128-1.65 2.16-1.588 0.16 0.014 0.548 0.032 1.038 0.048l8.396-47.464c0.168-0.95 0.992-1.642 1.956-1.642h125.27c0.918 0 1.714 0.628 1.932 1.518l13.994 57.476c0.006 0.018 0.024 0.026 0.028 0.042 0.008 0.032-0.002 0.062 0.006 0.094l4.446 18.258c3.286-0.39 5.246-0.592 5.354-0.604 0.95-0.122 1.722 0.418 2.046 1.24 0.326 0.828 0.070 1.77-0.632 2.312zM174.386 436.495c9.47 20.2 14.576 50.596 11.882 70.704-3.844 28.674-19.94 29.574-28.63 29.402 1.232 2.394 3.794 5.914 8.74 7.93 0.612 0.248 1.062 0.792 1.198 1.442 0.14 0.664 3.524 16.306 16.61 16.306 12.926 0 29.24-18.026 40.588-44.85 0.132-0.314 0.344-0.59 0.612-0.798l98.542-76.286c-17.368 2.106-62.756 8.36-89.638 18.952-14.052 5.536-17.252 13.958-20.082 21.392-0.388 1.028-1.542 1.534-2.566 1.152-1.024-0.39-1.542-1.54-1.152-2.566 2.81-7.382 6.656-17.5 22.342-23.68 3.196-1.26 6.648-2.456 10.278-3.594-0.632-1.914-4.654-11.682-22.484-18.088-14.452-5.194-24.73-13.946-26.138-21.852-5.282 0.020-9.992 0.012-13.954-0.012v5.74c0 4.358 4.202 10.678 8.65 17.366 6.198 9.32 13.222 19.884 13.222 30.69 0 1.098-0.89 1.99-1.99 1.99-1.098 0-1.99-0.89-1.99-1.99 0-9.602-6.674-19.634-12.556-28.484-4.998-7.516-9.314-14.006-9.314-19.568v-5.774c-3.002-0.032-5.354-0.072-6.888-0.114-0.348 3.734-0.554 13.344 4.718 24.59zM253.246 449.089c-2.302-6.394-9.11-8.558-14.158-9.25 5.474 4.864 7.318 9.36 7.838 11.004 2.062-0.602 4.176-1.184 6.32-1.754zM257.077 448.103c2.186-0.548 4.398-1.078 6.628-1.59-2.030-4.128-7.452-6.154-13.378-7 2.938 1.862 5.426 4.608 6.75 8.59zM313.293 404.005c-20.156 6.214-78.33 7.8-114.79 8.032 1.234 4.516 6.956 10.448 16.646 15.204 0.1-0.016 0.19-0.060 0.292-0.060 54.428-0.192 92.31-8.268 100.988-10.3l-3.136-12.876zM310.727 393.467l-7.952 8.87c3.792-0.66 7.018-1.394 9.574-2.21l-1.622-6.66zM207.872 392.063l3.866-3.638c-1.192 0.010-2.362 0.020-3.582 0.028-0.104 1.166-0.192 2.402-0.284 3.61zM308.349 383.699l-10.102 11.070c-0.664 0.73-1.766 0.864-2.574 0.31l-11.864-7.94-8.928 9.784c-0.692 0.76-1.862 0.862-2.676 0.234l-10.724-8.222-9.73 9.608c-0.73 0.722-1.896 0.77-2.676 0.104l-10.474-8.81-9.814 9.104c-0.742 0.69-1.894 0.704-2.664 0.036l-10.24-8.998-8.418 7.92c-0.148 2.364-0.278 4.798-0.392 7.302l7.536-7.398c0.734-0.724 1.902-0.758 2.69-0.088l10.542 9.078 9.632-9.484c0.728-0.714 1.882-0.762 2.67-0.11l10.578 8.812 10.15-9.562c0.714-0.67 1.806-0.728 2.574-0.13l10.614 8.14 8.88-10.19c0.67-0.772 1.82-0.902 2.654-0.31l11.806 8.412 11.74-13.094c0.14-0.158 0.318-0.252 0.488-0.352l-1.278-5.226zM302.379 384.339c-3.166 0.4-7.586 0.874-13.574 1.358l7.656 5.126 5.918-6.484zM279.111 386.389c-3.992 0.252-8.468 0.498-13.466 0.724l7.532 5.778 5.934-6.502zM257.315 387.461c-4.552 0.17-9.498 0.324-14.81 0.462l7.746 6.516 7.064-6.978zM234.618 388.109c-4.584 0.094-9.458 0.172-14.58 0.234l7.36 6.466 7.22-6.7zM209.978 407.929c4.126-0.054 8.426-0.128 12.824-0.22l-6.714-5.778-6.11 5.998zM232.832 407.465c4.272-0.12 8.59-0.26 12.898-0.424l-6.754-5.626-6.144 6.050zM255.896 406.601c4.562-0.22 9.068-0.464 13.434-0.75l-6.968-5.344-6.466 6.094zM278.723 405.165c4.908-0.4 9.55-0.85 13.824-1.36l-7.798-5.556-6.026 6.916zM173.216 407.985c5.976 0.088 16.686 0.138 29.752 0.018 0.748-18.9 2.396-34.084 4.906-45.232h-26.66l-7.998 45.214zM303.253 362.773h-91.31c-1.398 5.978-2.526 13.242-3.394 21.7 66.514-0.438 91.782-3.74 98.098-4.772 0.188-0.182 0.394-0.332 0.624-0.424l-4.018-16.504zM317.367 420.743c-8.408 1.966-43.116 9.332-93.182 10.292 3.53 1.404 6.536 2.93 9.070 4.502 1.184-0.148 4.668-0.532 9.038-0.532 9.074 0 21.818 1.714 25.34 10.628 20.664-4.522 41.848-7.492 53.61-8.962l-3.876-15.928z" />
<glyph unicode="&#xe480;" d="M189.822 548.689c0 3.656-2.972 6.628-6.628 6.628s-6.628-2.972-6.628-6.628 2.972-6.628 6.628-6.628 6.628 2.974 6.628 6.628zM183.194 546.041c-1.462 0-2.652 1.188-2.652 2.652 0 1.462 1.188 2.652 2.652 2.652 1.462 0 2.652-1.188 2.652-2.652-0.004-1.466-1.19-2.652-2.652-2.652z" />
<glyph unicode="&#xe481;" d="M238.756 425.451c-3.594 0-6.516-2.924-6.516-6.516 0-3.594 2.924-6.516 6.516-6.516 3.594 0 6.518 2.924 6.518 6.516 0.002 3.592-2.924 6.516-6.518 6.516zM238.756 416.393c-1.4 0-2.54 1.14-2.54 2.54 0 1.402 1.14 2.54 2.54 2.54s2.542-1.14 2.542-2.54c0.002-1.4-1.14-2.54-2.542-2.54z" />
<glyph unicode="&#xe482;" d="M258.241 424.339c-3.594 0-6.518-2.926-6.518-6.518 0-3.594 2.926-6.516 6.518-6.516s6.516 2.922 6.516 6.516-2.922 6.518-6.516 6.518zM258.241 415.279c-1.4 0-2.542 1.14-2.542 2.54s1.142 2.542 2.542 2.542 2.54-1.142 2.54-2.542-1.14-2.54-2.54-2.54z" />
<glyph unicode="&#xe483;" d="M964.898 227.365l-0.016 84.82-0.010 54.328-0.028 162.981-0.010 54.328-0.016 84.972c0 6.21-0.844 12.294-2.404 18.14-0.84 3.144-1.896 6.214-3.154 9.196-5.136 12.182-13.628 22.838-24.724 30.56-1.624 1.13-3.284 2.22-5.018 3.222l-382.313 220.639c-21.836 12.602-48.74 12.6-70.574-0.012l-382.251-220.779c-1.682-0.972-3.296-2.030-4.878-3.122-6.784-4.698-12.592-10.508-17.276-17.076-3.144-4.412-5.766-9.17-7.822-14.184-3.43-8.358-5.304-17.412-5.302-26.742l0.014-84.82 0.010-54.328 0.028-162.955v-0.038l0.010-54.318 0.014-84.956v-0.012c0.006-23.214 11.43-44.776 30.28-57.892 1.624-1.13 3.284-2.22 5.018-3.22l382.325-220.649c21.836-12.604 48.74-12.596 70.574 0.012l382.249 220.777c1.682 0.972 3.296 2.030 4.878 3.122 18.926 13.112 30.398 34.732 30.396 58.006v0 0z" />
<glyph unicode="&#xe484;" d="M962.422 686.927c-0.84 3.144-1.898 6.214-3.154 9.194-5.136 12.182-13.628 22.838-24.724 30.56-1.624 1.13-3.284 2.22-5.018 3.222l-382.319 220.647c-21.836 12.604-48.74 12.6-70.574-0.012l-313.199-180.895 6.16-69.214 63.802-14.338h729.217c-0.070 0.278-0.12 0.56-0.192 0.836z" />
<glyph unicode="&#xe485;" d="M233.399 209.909l-58.804-19.338-11.19-64.252 313.397-180.867c21.84-12.604 48.74-12.596 70.574 0.012l382.247 220.781c1.682 0.972 3.296 2.026 4.878 3.124 14.076 9.748 24.018 24.206 28.194 40.546l-729.295-0.006z" />
<glyph unicode="&#xe486;" d="M233.399 686.091l-69.964 83.552-69.054-39.886c-1.682-0.972-3.296-2.030-4.878-3.122-6.784-4.698-12.592-10.508-17.276-17.076-3.144-4.412-5.766-9.17-7.822-14.184-1.238-3.012-2.262-6.116-3.080-9.288-1.45-5.63-2.224-11.486-2.222-17.456l0.014-84.82 0.010-54.328 0.028-162.955v-0.038l0.010-54.318 0.014-84.956v-0.012c0-5.914 0.752-11.716 2.17-17.302 4.146-16.344 14.064-30.814 28.11-40.588 1.624-1.13 3.284-2.22 5.018-3.222l68.928-39.782 269.361 321.681-199.367 238.099z" />
<glyph unicode="&#xe487;" d="M569.736 534.434l19.442-58.294 61.45-0.478c7.956-0.062 11.254-10.214 4.854-14.94l-49.434-36.506 18.534-58.588c2.4-7.586-6.236-13.862-12.71-9.234l-49.994 35.736-49.994-35.736c-6.474-4.626-15.108 1.65-12.71 9.234l18.534 58.588-49.434 36.506c-6.4 4.726-3.102 14.878 4.854 14.94l61.45 0.478 19.442 58.294c2.522 7.548 13.196 7.548 15.716 0z" />
<glyph unicode="&#xe488;" d="M853.409 534.434l19.442-58.294 61.45-0.478c7.956-0.062 11.254-10.214 4.854-14.94l-49.434-36.506 18.534-58.588c2.4-7.586-6.236-13.862-12.708-9.234l-49.994 35.736-49.994-35.736c-6.474-4.626-15.108 1.65-12.71 9.234l18.534 58.588-49.434 36.506c-6.4 4.726-3.102 14.878 4.854 14.94l61.45 0.478 19.442 58.294c2.52 7.548 13.198 7.548 15.714 0z" />
<glyph unicode="&#xe489;" d="M929.79 729.9l-382.323 220.65c-21.84 12.604-48.742 12.6-70.574-0.012l-382.253-220.774c-21.834-12.61-35.28-35.91-35.278-61.124l0.072-441.427c0.006-25.214 13.46-48.51 35.298-61.114l382.323-220.65c21.84-12.604 48.742-12.596 70.574 0.012l382.251 220.778c19.392 11.2 32.144 30.842 34.756 52.758v457.395c-2.406 22.222-15.226 42.184-34.846 53.508z" />
<glyph unicode="&#xe48a;" d="M94.64 729.764c-21.834-12.61-35.28-35.91-35.278-61.124l0.072-441.427c0.006-25.214 13.46-48.51 35.298-61.114l263.403-152.016v867.87l-263.495-152.188z" />
<glyph unicode="&#xe48b;" d="M929.79 729.9l-268.401 154.904v-873.644l268.495 155.076c19.392 11.2 32.144 30.842 34.756 52.758v457.397c-2.41 22.222-15.23 42.184-34.85 53.508z" />
<glyph unicode="&#xe48c;" d="M59.176 227.213l-0.072 441.424c-0.006 25.214 13.444 48.514 35.278 61.126l382.247 220.775c21.834 12.612 48.736 12.614 70.574 0.012l382.321-220.649c21.836-12.604 35.292-35.9 35.298-61.114l0.072-441.424c0.006-25.214-13.444-48.514-35.278-61.126l-382.249-220.775c-21.834-12.612-48.736-12.614-70.574-0.012l-382.319 220.649c-21.838 12.604-35.292 35.9-35.298 61.114z" />
<glyph unicode="&#xe48d;" d="M94.474 166.099l382.321-220.649c21.836-12.604 48.74-12.6 70.574 0.010l382.249 220.777c21.834 12.612 35.28 35.91 35.278 61.126l-0.038 220.637h-905.716l0.038-220.787c0.004-25.214 13.458-48.51 35.296-61.114z" />
<glyph unicode="&#xe48e;" d="M743.579 568.678c0 0 10.588-29.034 11.494-30.546l1.21 2.42 7.258 37.808 18.752 35.086-5.444-0.604-42.646-20.566c0 0-25.406-27.824-25.708-28.732-0.304-0.914 35.084 5.134 35.084 5.134z" />
<glyph unicode="&#xe48f;" d="M758.601 291.025c-1.412 0.202-22.382-0.804-22.382-0.804l-6.856 22.986-3.932 43.454 7.41 1.966 9.226-4.386 3.326 17.39c0 0-8.016 8.77-9.528 9.374s-19.66 4.688-19.66 4.688l-24.348 32.212 29.034 16.18 22.684 31.154 5.444 28.128-4.536 23.288-10.314 17.272c-0.152 0.492-0.27 0.874-0.27 0.874-0.072 0.090-0.328 0.268-0.49 0.4l-1.93 3.23-0.030-1.884c-4.474 2.794-13.632 7.656-16 8.84-3.024 1.512-19.054 4.234-22.382 1.814-3.326-2.42-18.752-9.678-21.474-14.82s-4.536-23.592-4.536-23.592 4.536-10.284 10.284-12.704c5.746-2.42 16.938-5.142 18.752-4.536 1.568 0.522 19.32 5.768 24.164 7.976l2.15-4.346-0.908-12.402-9.98-6.956-18.45-7.258c0 0-28.128 7.862-29.336 7.56-1.21-0.302-35.992 10.284-35.992 10.284l-32.666 7.56 10.89 5.444 29.642 2.116c0 0 5.746 33.574 6.654 34.178s20.264 16.030 20.264 16.030l16.030 3.932-9.678 41.034 14.518 44.762-37.908-10.89-60.088-14.92-38.31 2.42-33.876-10.888-21.776-19.762-12.502-16.938-4.436-27.020-2.824-35.892-10.484-19.76-11.882-9.312c-1.332 3.516-7.578 16.976-7.578 16.976l15.124 3.628-3.932 9.98-10.588 7.862 3.326 12.1 12.1-6.654 3.326-2.42 2.116 12.402-13.308 18.752 2.116 9.374 16.030-8.468-1.814 21.776-14.216 8.77 0.908 12.1 15.526-4.636-1.614 11.494-16.938 12.3 16.532 26.616-20.164-1.010-1.614 8.67-5.244 2.016c0 0-28.028-11.896-30.044-11.494s-24.398 3.426-27.020 2.822c-2.622-0.604-11.896-3.024-11.896-3.024l-2.622-10.284-17.138 2.822-25.406 2.116-7.662-9.374 12.1-4.838c0 0-2.822-21.372-2.016-22.986 0.808-1.612 8.066-12.1 8.066-12.1l-16.532-22.584 16.938-2.42 23.392 3.628-0.808-5.646 31.052 3.226-6.856-3.628-8.872-26.616-25.81-52.426-9.076-46.578-14.518 15.124-9.678 39.924-14.518 39.32c0 0-3.024 12.1-4.838 12.402s-9.678 1.814-9.678 1.814l-9.98-8.168-12.704 1.814-7.258-9.98 8.166-12.704c0 0-13.612-5.444-13.612-6.956s0.908-10.284 1.814-10.584c0.908-0.302 21.474 0.302 21.474 0.302l12.402-22.078-9.678-25.406 4.838-9.678 8.468-1.21 7.862 9.072 27.22-81.36c0 0-2.116-10.588-3.628-11.494-1.512-0.908-8.77-9.072-6.956-9.072s13.006-1.512 14.216-0.908 16.938 12.704 16.938 12.704 24.8 19.054 26.312 17.542c1.512-1.512 25.104-16.030 25.104-16.030l-10.89-37.504-25.708-37.504-16.030 9.68-11.494 16.334-8.468-2.722-3.024-5.142 1.21-10.89c0 0-8.772-6.956-8.772-8.468s0.908-12.402 0.908-12.402 5.746-2.722 6.048-4.234 3.326-12.402 3.326-12.402l6.048-2.116 11.494 6.956h19.054l11.796-1.814 25.104 7.862 36.598-1.814-3.326 6.956c0 0-14.82 7.56-19.962 9.072s-10.284 2.722-10.284 2.722l-2.116 10.588 35.992 42.646 13.308 2.722 4.536-11.192c0 0 14.92 3.628 14.92 4.838s0 14.114 0 15.326c0 1.21-3.226 11.292-3.226 11.292s-0.042 0.37-0.108 0.924l11.4 1.9 39.522 18.952 13.914-16.736 17.34-8.268-21.576-38.714-18.55-12.502-13.308 6.048-18.55 13.712-7.258-4.436 1.614-13.712-10.89 0.804-4.838-9.678 8.066-11.694-2.824-9.274c0 0 2.016-8.468 4.034-8.468 2.016 0 14.114 4.436 14.114 4.436l35.488 2.822 25.81 8.468 27.020-2.016c0 0 5.244 18.148 4.034 18.148s-1.614 0.404-4.838 0.404c-3.226 0-14.518-0.404-14.518-0.404l-0.402 4.034 8.872 16.13 34.278 28.632 10.082-2.016 3.628-5.242 10.082 7.662-0.402 12.904-8.872 9.274-8.872 10.484 2.824 15.728 15.324-7.258c0 0 24.196-16.938 26.212-17.746 2.016-0.804 48.796-12.904 48.796-12.904l9.678-22.986-4.838-36.296-14.92 4.436-14.114 18.148c0 0-4.034 2.016-6.048 1.614-2.016-0.404-6.856-8.468-6.856-8.468l4.838-11.292-6.454-2.016-6.048-4.034-1.21-8.468 5.646-5.242c0 0 0-9.678 0-10.89 0-1.21 3.226-5.646 4.436-6.048s10.484-1.612 12.704-1.412c2.216 0.202 18.752 7.058 18.752 7.058s31.052-0.604 31.858-0.404c0.808 0.202 27.624 6.048 27.624 6.048l15.124-2.42c0 0 10.082 7.662 9.678 8.67-0.406 1.026-10.488 10.504-11.9 10.704zM700.631 509.396c-8.166-0.908-12.402-3.326-13.006 1.21s-0.604 13.612 0.302 13.914c0.908 0.302 10.284 5.746 10.588 4.838 0.302-0.908 9.678-5.444 9.678-5.444l5.708-11.542c-3.012-1.596-7.662-2.35-13.27-2.976z" />
<glyph unicode="&#xe490;" d="M288.385 583.497c0 0 3.326 17.24 4.234 17.24s13.308 4.536 13.308 4.536l-36.9 23.894c0 0 6.35-29.34 6.956-31.758 0.606-2.416 12.402-13.912 12.402-13.912z" />
<glyph unicode="&#xe491;" d="M382.241 618.981c0.128-0.030 0.864-0.192 1.99-0.414l-0.278-1.21c-0.454-1.946 0.764-3.904 2.722-4.348 0.274-0.068 0.548-0.094 0.818-0.094 1.65 0 3.146 1.134 3.532 2.816l0.39 1.69c2.614-0.324 5.494-0.574 8.272-0.574 2.35 0 4.616 0.17 6.568 0.624s3.172 2.402 2.716 4.348c-0.454 1.956-2.386 3.204-4.354 2.722-5.74-1.352-16.938 0.642-20.756 1.512-1.914 0.454-3.894-0.764-4.348-2.722-0.442-1.958 0.776-3.906 2.728-4.35z" />
<glyph unicode="&#xe492;" d="M741.567 560.388l9.148-27.928c0.492-1.494 1.884-2.494 3.45-2.494 0.052 0 0.104 0 0.16 0 1.624 0.074 3.006 1.22 3.374 2.806 6.69 28.678 20.084 74.034 29.552 81.446 1.32 1.030 1.758 2.816 1.072 4.348-0.68 1.512-2.302 2.382-3.964 2.080-1.936-0.36-47.85-9.3-79.79-57.212-0.818-1.23-0.812-2.826 0.010-4.046 0.828-1.22 2.302-1.786 3.746-1.522l26.6 5.502c-3.726-8.98-6.098-16.88-6.92-19.782-12.112 7.372-25.772 8.682-35.246 6.228-10.812-2.836-19.9-9.724-24.938-18.912-3.862-7.040-4.882-14.774-2.802-21.21 2.414-7.476 8.86-16.778 19.718-20.434 7.19-2.444 18.814-2.984 34.136 6.498 0-0.072 0.010-0.14 0.010-0.212-0.104-6.048-3.21-10.982-9.24-14.678-11.984-7.342-33-7.836-46.832-1.068-18.24 8.906-45.668 13.974-60.988 16.274 9.5 3.030 20.984 3.882 34.788 0.72 0.188-0.048 0.37 0.024 0.558 0.012 0.092-0.008 0.162-0.104 0.254-0.104 0.1 0 0.178 0.108 0.28 0.114 0.834 0.068 1.642 0.322 2.254 0.914 0.010 0.010 0.010 0.022 0.020 0.032 0.002 0.002 0.010 0.002 0.010 0.002 0.018 0.018 0.012 0.040 0.026 0.054 0.584 0.61 0.844 1.392 0.918 2.212 0.018 0.198 0.040 0.348 0.024 0.542-0.010 0.164 0.058 0.322 0.022 0.484-0.042 0.208-4.064 20.812 7.008 35.010 6.654 8.536 17.538 13.194 32.348 13.866 0.232 0.010 0.428 0.144 0.65 0.198 0.32 0.074 0.64 0.122 0.93 0.282 0.264 0.148 0.45 0.378 0.67 0.584 0.182 0.172 0.412 0.278 0.56 0.492 0.032 0.046 0.036 0.1 0.066 0.148 0.026 0.040 0.072 0.058 0.098 0.1 0.066 0.112 0.050 0.244 0.102 0.362 0.162 0.362 0.278 0.728 0.314 1.11 0.018 0.184 0.018 0.352 0.008 0.538-0.020 0.41-0.114 0.794-0.27 1.174-0.040 0.094-0.020 0.202-0.068 0.294-0.292 0.578-28.772 57.524 17.628 95.548 1.508 1.238 1.766 3.45 0.59 4.998-1.182 1.542-3.37 1.9-4.976 0.774-45.812-32.164-109.13-35.632-134.223-35.632-44.758 0-73.038-16.852-86.458-51.51-1.394-3.602-2.38-7.872-3.21-12.446 0.448 6.41-0.728 12.036-3.62 16.738-4.132 6.704-10.448 9.51-13.288 10.484 0.002 1.644-0.010 3.274-0.060 4.872 4.902 0.754 10.722-3.052 12.64-4.666 0.67-0.568 1.508-0.87 2.354-0.87 0.558 0 1.12 0.132 1.634 0.398 1.304 0.662 2.090 2.032 1.984 3.486-1.188 16.878-12.636 25.080-20.492 27.854 6.926 5.504 14.308 14.508 18.828 29.194 0.434 1.418-0.032 2.96-1.188 3.884-1.152 0.934-2.76 1.078-4.044 0.36-0.122-0.068-7.512-4.068-18.618-7.368l1.014 13.188c0.1 1.332-0.54 2.62-1.672 3.336-1.13 0.728-2.576 0.758-3.734 0.094-0.188-0.102-18.77-10.534-37.722-16.040-14.304 3.596-32.924 6.396-39.982-0.954-1.702-1.766-3.284-4.642-2.892-9.092-12.18 2.542-40.136 6.7-57.106-4.272-1.338-0.86-1.952-2.494-1.522-4.026 0.434-1.532 1.814-2.61 3.406-2.646 5.388-0.132 13.714-1.37 17.188-3.666-1.532-4.132-4.064-12.882-1.852-21.324-7.366-2.134-15.094-2.464-24.494 2.622l8.192 2.012c1.47 0.36 2.562 1.598 2.742 3.1 0.174 1.502-0.6 2.96-1.942 3.65-0.208 0.112-20.87 10.86-38.052 28.922-0.972 1.012-2.452 1.38-3.808 0.928-1.342-0.462-2.292-1.664-2.43-3.072-0.148-1.454-3.23-35.796 22.848-56.152 0.652-0.5 1.442-0.764 2.234-0.764 0.498 0 0.992 0.104 1.464 0.312 1.22 0.538 2.052 1.702 2.154 3.034l1.010 12.968c13.008-7.79 23.782-7.044 33.020-4.236 1.158-1.766 2.632-3.45 4.488-4.992 0.298-0.248 0.708-0.518 1.122-0.788-5.938-13.904-17.73-17.486-18.234-17.622-1.47-0.424-2.524-1.72-2.626-3.242-0.108-1.522 0.742-2.95 2.136-3.574 0.88-0.388 19.872-8.6 41.162-1.020l-0.334-2.43c-0.142-1.020 0.16-2.060 0.838-2.844 0.672-0.794 1.65-1.258 2.684-1.274 0.090 0 0.33-0.010 0.71-0.010 2.444 0 10.554 0.184 19.744 2.296-1.39-12.986-9.3-28.464-17.718-44.792-11.394-22.122-24.094-47.068-23.89-72.26-4.346 5.628-9.76 14.402-12.44 26.050-0.928 4.046-1.54 7.676-2.1 10.992-1.358 8.026-2.53 14.96-7.274 21.484-5.364 7.372-12.948 23.828-12.62 32.816 0.312 8.308-5.132 13.194-10.662 14.358-0.398 0.082-0.774-0.020-1.172 0.024-1.31 2.64-4.856 7.69-13.006 8.272-1.962 0.264-3.738-1.362-3.878-3.364-0.142-1.994 1.362-3.734 3.36-3.876 2.842-0.2 4.606-1.284 5.688-2.37-2.662-1.368-4.818-3.654-6.32-6.576-4.858 2.8-9.768 3.502-13.524 2.642-0.972-0.22-1.71-0.748-2.546-1.144-2.456 1.282-9.006 3.724-16.896-1.294-1.692-1.068-2.192-3.316-1.114-5.008 0.69-1.088 1.866-1.682 3.066-1.682 0.662 0 1.338 0.18 1.942 0.568 2.816 1.79 5.224 2.022 6.988 1.796-1.294-2.396-2.026-5.038-1.902-7.498 0.25-4.886 3.076-8.678 7.442-10.284-5.208-0.992-9.622-3.412-11.98-6.684-0.38-0.53-0.46-1.134-0.732-1.694-3.316-0.342-8.418-2.576-11.644-9.392-0.86-1.804-0.084-3.968 1.724-4.828 0.504-0.238 1.030-0.35 1.55-0.35 1.362 0 2.664 0.764 3.284 2.080 1.44 3.034 3.13 4.238 4.392 4.786 3.446-11.37 14.656-8.78 21.416-7.198l2.706 0.614c3.788 0.758 10.472-10.312 12.27-17.496 1.248-4.992-0.89-11.096-7.618-21.776-4.088-6.504-2.912-11.21-1.2-14.016 0.034-0.058 0.090-0.088 0.124-0.142-1.084-0.324-2.424-0.562-4.232-0.322-1.952 0.398-3.818-1.114-4.088-3.1-0.27-1.984 1.12-3.818 3.104-4.084 0.928-0.132 1.8-0.19 2.626-0.19 4.222 0 7.034 1.442 8.722 2.62 2.36-1.010 4.792-1.39 6.586-1.25 5.004 0.414 8.392 4.802 10.684 10.244 6.678-36.814 22.022-71 24.688-76.766-0.54-13.044-14.616-16.106-15.226-16.238-1.564-0.322-2.736-1.624-2.882-3.224-0.148-1.588 0.754-3.082 2.232-3.686 6.126-2.504 11.484-3.506 16.138-3.506 14.358 0 21.946 9.47 24.338 13.118 10.602 3.694 23.034 12.34 27.884 15.876 8.090-6.060 14.816-9.422 17.066-10.474-3.908-38.484-26.472-64.48-33.074-71.298-4.472 2.562-14.344 8.886-17.606 16.418-3.084 7.12-8.802 9.126-13.468 8.708-1.568 2.024-5.082 5.798-10.014 6.34-2.424 0.254-6.1-0.19-9.84-3.932-1.418-1.418-1.418-3.714 0-5.132 1.412-1.418 3.708-1.428 5.132-0.010 2.052 2.052 3.446 1.93 3.898 1.862 1.398-0.148 2.75-1.16 3.816-2.202-2.644-2.254-4.284-5.412-4.018-8.858 0.188-2.42 1.094-4.696 2.374-6.814-2.644-1.378-5.828-3.634-7.928-7.204-0.074-0.128-0.16-0.332-0.24-0.472-4.334-0.274-12.132-3.336-13.348-13.432-0.238-1.994 1.182-3.798 3.172-4.036 0.152-0.020 0.292-0.028 0.44-0.028 1.81 0 3.38 1.352 3.602 3.194 0.434 3.616 2.184 5.356 3.826 6.226-0.042-1.49 0.082-3.040 0.614-4.656 1.252-3.808 4.214-6.898 8.632-9.3-0.468-1.49-0.77-3.074-0.812-4.788-2.334-1.178-5.774-3.374-7.538-7.11-1.32-2.79-1.4-5.908-0.24-9.028 0.542-1.464 1.926-2.362 3.402-2.362 0.42 0 0.85 0.074 1.268 0.228 1.882 0.7 2.836 2.79 2.136 4.668-0.632 1.692-0.308 2.742-0.006 3.384 0.534 1.144 1.602 2.102 2.692 2.85 1.344-2.414 3.38-4.258 6.098-5.156 1.242-0.408 2.534-0.604 3.828-0.604 4.318 0 8.696 2.184 11.502 5.984 3.36 4.556 9.934 1.946 10.36 1.768 13.744-4.992 32.312-1.23 43.548 5.086 6.234 3.506 28.194 1.618 40.582-0.414 0.97-0.132 2 0.104 2.796 0.7 0.794 0.614 1.3 1.522 1.4 2.524 1.252 12.534-14.96 15.86-27.992 18.534-3.55 0.728-6.928 1.418-10.112 2.78-1.272 7.352 17.836 34.12 36.040 47.504 4.462 3.28 8.052 4.594 9.854 3.63 2.572-1.408 3.39-7.968 3.13-11.956-0.008-0.104 0.054-0.194 0.054-0.3 0.004-0.398 0.078-0.778 0.218-1.16 0.060-0.162 0.102-0.314 0.184-0.464 0.050-0.098 0.054-0.202 0.114-0.294 0.208-0.32 0.49-0.552 0.77-0.782 0.054-0.044 0.074-0.12 0.132-0.162 0.012-0.010 0.030-0.008 0.030-0.008 0.47-0.334 0.988-0.532 1.534-0.622 0.14-0.022 0.27 0 0.412-0.008 0.404-0.020 0.798 0.022 1.198 0.142 0.094 0.026 0.192-0.002 0.284 0.032 0.294 0.114 0.614 0.278 0.914 0.4 1.934 0.992 5.216-0.114 7.51-1.29-0.428-1.322-0.684-2.706-0.562-4.204 0.152-1.872 0.732-3.734 1.64-5.518-3.596 0.408-6.96 0-9.394-1.872-0.87-0.668-1.554-1.508-2.246-2.334-5.108-0.504-11.5-3.724-13.016-11.332-0.392-1.966 0.88-3.876 2.844-4.272 0.24-0.048 0.482-0.066 0.718-0.066 1.692 0 3.21 1.192 3.554 2.922 0.364 1.818 1.294 2.916 2.32 3.744-0.030-1.324 0.11-2.636 0.502-3.876 0.71-2.244 2.626-5.594 7.506-7.466-0.44-0.748-0.818-1.542-1.152-2.354-3.632-1.168-9.106-4.934-9.106-12.932 0-2.004 1.628-3.63 3.628-3.63 2.002 0 3.628 1.628 3.628 3.63 0 1.412 0.35 2.436 0.812 3.284 0.118-0.524 0.2-1.064 0.388-1.554 0.88-2.296 3.522-6.608 10.922-6.608 2.44 0 5.388 0.462 8.96 1.628 8.662 2.806 14.8 3.1 20.736 3.394 7.098 0.34 13.804 0.67 23.224 5.038 13.572 6.304 30.382 4.168 39.192 2.324 4.774-0.982 9.442 1.362 11.366 5.738 0.66 1.492 1.092 2.796 1.55 4.124 4.106-0.492 4.956-4.484 5.066-5.364 0.202-1.852 1.772-3.232 3.602-3.232 0.122 0 0.25 0.010 0.378 0.020 1.994 0.208 3.444 1.994 3.236 3.988-0.392 3.792-3.202 10.594-10.724 11.78 0.094 2.574-0.404 4.694-1.668 6.256-1.38 1.702-4.126 3.49-9.504 2.382-5.566-1.152-8.128-1.38-9.282-1.274 0.174 0.71 0.584 1.966 1.544 4.112 3.242 7.298 24.768 26.54 38.864 38.062 3.4 0.764 7.708 0.812 8.706-0.322 0.35-0.388 0.35-1.72-0.444-3.828-0.568-1.494-0.090-3.176 1.168-4.148 1.252-0.974 3.002-1.020 4.306-0.112 0.562 0.398 13.728 9.744 13.464 21.134-0.138 5.756-3.492 10.758-9.978 14.858-5.496 3.47-8.652 7.486-9.39 11.926-0.77 4.646 1.212 8.768 2.534 10.964 5.198-2.492 10.418-5.714 15.614-10.010 30.652-25.344 56.732-29.38 70.82-29.312 2.954-6.528 11.632-28.808 4.226-51.688-3.942 0.7-11.682 3.214-16.996 12.070-5.166 8.6-11.362 10.758-15.656 11.040-6.678 0.52-13.762-3.28-19.33-10.238-1.192-1.494-1.024-3.648 0.372-4.934 1.404-1.294 3.572-1.284 4.948 0.020 0.928 0.88 2.652 1.946 3.394 1.37l0.752-2.096c0.402-1.162 0.812-2.334 1.304-3.47-2.886-0.424-5.666-1.608-7.836-4.064-1.43-1.62-2.33-3.49-2.98-5.416-6.648-1.19-10.27-6.23-10.422-6.466-1.108-1.654-0.658-3.876 0.988-4.992 0.62-0.424 1.328-0.632 2.026-0.632 1.158 0 2.296 0.548 3.006 1.57 0.070 0.094 1.41 1.912 3.808 2.93 0.3-1.368 0.79-2.69 1.538-3.894 1.252-2.020 3.032-3.372 5.048-4.092-0.272-1.050-0.504-2.192-0.654-3.426-0.078-0.026-0.158-0.016-0.234-0.046-8.69-3.658-6.918-14.462-4.768-19.66 0.582-1.4 1.93-2.24 3.352-2.24 0.462 0 0.93 0.094 1.38 0.274 1.852 0.764 2.736 2.882 1.98 4.736-0.028 0.068-2.066 5.404-0.754 8.442 0.036-0.082 0.042-0.168 0.080-0.248 1.502-3.394 4.398-5.814 8.376-7.004 1.956-0.584 3.828-0.832 5.618-0.832 5.94 0 10.982 2.75 15.226 5.076 3.304 1.804 6.428 3.46 8.89 3.29 1.792-0.17 3.842-0.492 6.090-0.842 8.488-1.322 20.122-3.12 31.668 0.594 2.15 0.69 4.096 1.36 5.878 1.974 9.38 3.214 12.886 4.414 18.62 1.152 6.944-3.968 15.894-1.304 20.504 3.564 1.444 1.528 2.276 3.226 2.724 4.948 2.366-0.942 4.286-1.962 4.594-2.53-0.674-1.89 0.308-3.962 2.196-4.642 0.402-0.142 0.812-0.208 1.22-0.208 1.49 0 2.886 0.928 3.416 2.41 0.68 1.9 0.514 3.856-0.468 5.654-2.4 4.368-9.422 6.714-12.938 7.646-5.808 7.892-14.664 10.35-29.292 8.036-0.582-0.084-1.034 0.020-1.538 0.434-5.342 4.318-6.518 26.758-7.216 40.152-0.562 10.718-0.944 16.938-2.59 19.924 0.842 0.69 5.434 0.774 8.298-1.314 1.38-1.020 1.518-1.936 1.188-2.976-0.058-0.152-0.108-0.292-0.16-0.434-0.71-1.852 0.208-3.942 2.056-4.668 1.848-0.71 3.942 0.16 4.694 2.004 0.11 0.254 0.202 0.52 0.288 0.774 1.294 3.676 6.598 20.33 0.35 30.88-2.806 4.736-7.378 7.56-13.592 8.402-15.83 2.134-27.898 12.25-36.010 29.876 12.292 4.318 48.476 20.72 55.242 65.992 4.494 30.094-6.29 46.948-16.134 55.784-0.47 0.422-0.98 0.744-1.46 1.144 0.284 0.37 0.648 0.672 0.774 1.152 0.074 0.14 2.56 9.292 6.914 19.85zM715.941 566.856c20.684 26.918 46.052 38.904 59.774 43.744-8.998-16.21-17.57-46.53-22.042-63.848l-7.552 23.062c-0.030 0.090-0.122 0.128-0.158 0.214 2.212 4.368 4.704 8.598 7.448 12.166 1.22 1.588 0.922 3.866-0.668 5.086-1.592 1.23-3.866 0.928-5.088-0.662-3.426-4.454-6.446-9.738-9.050-15.074l-22.664-4.688zM286.249 588.441c-11.182 11.844-14.094 27.212-14.758 36.55 9.564-8.866 19.214-15.5 25.722-19.548l-5.78-1.42c-1.104 0.884-2.19 1.708-3.344 2.744-1.48 1.332-3.772 1.2-5.124-0.274-1.342-1.494-1.22-3.792 0.274-5.134 1.294-1.164 2.526-2.060 3.782-3.056l-0.772-9.862zM560.020 468.718c-6.784 18.102-27.256 61.436-77.408 97.694 0.040 0.106 0.066 0.244 0.104 0.348 0.642 1.662 1.484 3.094 2.204 4.664 75.934-19.404 122.154-50.974 140.615-65.67-37.72 2.78-57.676-23.202-65.516-37.036zM642.221 540.486c-8.018-10.302-9.414-22.856-9.26-31.332-16.65 13.942-63.456 47.866-144.851 68.918 1.052 1.826 2.314 3.414 3.492 5.098 0.262-0.062 0.514-0.154 0.792-0.172 100.15 4.304 156.023-17.202 176.489-27.338-11.48-2.324-20.528-7.29-26.662-15.174zM562.41 613.639c22.136 0 73.242 2.656 117.32 24.498-18.92-28.498-12.12-60.486-6.774-76.29-20.296 10.398-75.27 31.992-175.535 28.534 14.464 15.494 35.85 23.258 64.99 23.258zM477.28 536.306c0.904 8.206 1.804 16.006 3.23 22.582 48.2-35.73 67.612-78.918 73.354-94.58-11.836 2.654-22.562 1.794-31.804-2.972-7.562-3.906-12.838-9.642-16.458-14.898-1.612 18.262-7.642 50.854-29.666 76.514-0.070 0.082-0.17 0.118-0.244 0.192 0.592 4.416 1.114 8.838 1.588 13.162zM472.696 425.504c-16.868 3.932-23.95 20.926-24.276 21.73-0.444 1.098-1.394 1.92-2.546 2.184-0.274 0.058-0.548 0.094-0.822 0.094-0.884 0-1.75-0.33-2.424-0.934-12.116-10.898-26.942-13.772-34.344-14.528 5.85 18.374 22.302 27.92 44.432 40.766l1.020 0.594c5.516 3.202 9.498 8.062 12.61 13.782-0.002-9.132 0.488-19.31 2.164-27.872 0.34-1.73 1.856-2.93 3.56-2.93 0.232 0 0.468 0.020 0.704 0.068 1.966 0.388 3.246 2.296 2.864 4.264-3.632 18.522-1.332 46.382-0.998 50.136 21.11-28.494 23.904-64.454 24.218-76.18-12.382 2.142-19.282 11.764-19.354 11.864-0.674 0.982-1.786 1.57-2.972 1.57h-0.016c-1.182 0-2.286-0.568-2.97-1.532-5.366-7.602-3.274-16.97-0.85-23.076zM459.842 524.804c-2.812 3.46-6.596 7.266-10.34 8.938 0.848 3.382 1.64 6.98 2.362 10.76 3.886-3.19 9.764-9.76 7.978-19.698zM443.492 511.83c1.088-0.158 7.702-1.438 10.448-9.93-3.080 0.53-6.7 0.25-10.354-1.718-0.582 3.406-0.698 7.288-0.094 11.648zM456.454 493.216c1.050-0.808 2.444-0.908 3.638-0.39-2.106-3.908-4.752-7.14-8.008-9.57-1.78 1.796-4.396 5.006-6.368 9.66 5.376 3.922 10.2 0.69 10.738 0.3zM468.966 546.724c1.268 0.328 2.246 1.33 2.576 2.6-0.53-3.948-1.012-8.010-1.478-12.222-1.52-13.802-3.176-28.748-7.88-40.090-1.332 15.254-11.286 20.864-17.118 21.882 0.31 1.052 0.592 2.092 0.988 3.19 0.514 1.434 1.024 2.974 1.522 4.602 3.316-2.092 7.9-7.756 10.468-11.7 0.674-1.040 1.82-1.654 3.044-1.654 0.084 0 0.17 0 0.254 0.010 1.32 0.094 2.482 0.898 3.034 2.090 8.688 18.684-3.006 32.006-11.146 37.034 0.204 1.33 0.41 2.66 0.594 4.008 4.718-2.216 9.752-6.78 11.566-8.72 0.694-0.748 1.66-1.152 2.652-1.152 0.308-0.004 0.616 0.036 0.924 0.122zM462.94 569.87c2.070-3.364 2.94-7.506 2.61-12.364-2.946 2.446-6.838 5.092-10.824 6.498 0.43 4.126 0.75 8.266 0.934 12.354 2.204-1.098 5.172-3.072 7.28-6.488zM465.562 594.529c-2.98 1.302-6.566 2.184-10.242 1.782-0.37 4.038-0.96 7.796-1.782 11.194 3.814-1.794 9.294-5.542 12.024-12.976zM442.14 648.479l-0.7-9.088c-5.63-1.254-11.824-2.194-18.39-2.35-0.982 0.34-2.354 0.8-3.948 1.314 9.346 3.456 17.738 7.428 23.038 10.124zM336.077 589.811c-0.748 0.624-1.404 1.284-1.974 1.974 0.714 0.282 1.422 0.568 2.116 0.842 5.038 2.022 9.792 3.932 14.366 4.186 10.28 0.632 13.278-3.432 13.952-4.678 0.684-1.274 0.578-2.402 0.17-2.96-1.712-2.324-4.452-3.724-8.152-4.176-8.454-0.962-18.516 3.178-20.478 4.812zM361.579 566.788c-1.098 0.794-2.542 0.918-3.738 0.292-12.452-6.218-24.844-5.434-32.714-3.866 4.726 3.222 10.264 8.62 13.968 17.146 4.244-1.538 9.518-2.78 14.73-2.78 1.21 0 2.414 0.074 3.602 0.218 5.68 0.69 10.218 3.14 13.124 7.070 2.19 2.976 2.33 7.088 0.37 10.718-1.522 2.816-6.584 9.31-20.732 8.47-5.77-0.312-11.31-2.534-16.668-4.688-0.86-0.34-1.72-0.69-2.574-1.020-1.946 8.592 2.4 18.062 2.462 18.186 0.54 1.152 0.44 2.504-0.264 3.564-2.016 3.034-6.036 4.924-10.26 6.106 19.564 4.092 44.682-2.664 44.99-2.75 1.342-0.35 2.752 0.038 3.666 1.078 0.918 1.020 1.178 2.476 0.672 3.762-1.46 3.676-1.528 6.238-0.198 7.618 5.644 5.878 32.206 0.068 49.254-5.926 0.408-0.142 0.86-0.104 1.262-0.208 16.796 0.264 31.474 5.066 40.164 8.658-9.81-21.304-26.498-24.3-27.282-24.434-1.97-0.312-3.316-2.154-3.014-4.132 0.302-1.984 2.16-3.374 4.138-3.044 0.382 0.062 3.932 0.678 8.76 3.002 7.188-19.882 1.56-64.088-6.076-85.286-8.54-23.734 0.932-38.804 6.736-45.276-22.924-13.336-40.844-24.668-45.862-47.95-0.008-0.020-0.024-0.036-0.030-0.054-0.12-0.38-1.348-4.458-2.764-11.734-8.886 5.904-25.44 30.136-16.528 58.538 2.43 7.75 5.284 15.33 8.042 22.666 8.202 21.776 15.928 42.36 10.178 61.64 2.244 1.61 4.348 3.414 6.166 5.534 6.328 7.372 8.54 16.796 6.574 28.014-0.34 1.984-2.216 3.326-4.202 2.95-1.97-0.34-3.294-2.222-2.944-4.196 1.592-9.102-0.020-16.304-4.928-22.032-9.49-11.076-28.784-13.364-37.22-13.828l0.624 4.536c0.18 1.332-0.392 2.654-1.484 3.438zM394.158 401.298c-6.25-7.64-18.938-17.806-23.864-21.644-4.548 4.336-9.102 9.484-13.118 15.518 18.57 3.15 29.716 14.676 33.896 20.020 1.392-1.182 2.716-2.134 3.886-2.76 0.34-0.182 0.702-0.2 1.060-0.264-0.49-3.11-0.95-6.634-1.39-10.484-0.154-0.136-0.334-0.224-0.47-0.386zM349.989 467.448c2.922-0.822 10.502-2.756 17.498-2.756 1.28 0 2.426 0.234 3.628 0.384-0.258-4.468-0.040-8.77 0.588-12.862-5.788-3.766-19.272-4.084-26.558-3.772 0.978 6.352 2.65 12.706 4.844 19.006zM359.073 489.11c2.674-0.64 7.918-1.708 13.216-1.708 1.374 0 2.742 0.082 4.072 0.254-0.852-2.462-1.728-4.902-2.516-7.418-0.832-2.656-1.41-5.264-1.872-7.842-0.028-0.004-0.052 0.002-0.080-0.002-5.386-1.33-14.632 0.592-19.352 1.88 2.004 5.006 4.188 9.966 6.532 14.836zM367.369 505.608c0.94 1.822 1.862 3.624 2.784 5.426 3.16-0.76 9.388-2.19 13.748-2.73-0.622-1.668-1.234-3.32-1.878-5.022-0.964-2.56-1.934-5.194-2.902-7.816-0.45 0.038-0.914 0.002-1.372-0.144-4.302-1.328-11.022-0.42-15.374 0.484 1.67 3.318 3.342 6.598 4.994 9.802zM378.883 529.292c2.614-0.99 6.796-2.304 11.020-2.304 0.132 0 0.252 0.058 0.384 0.060-1.094-3.796-2.406-7.708-3.826-11.7-2.022 0.024-7.948 1.2-12.954 2.362 1.942 3.926 3.742 7.788 5.376 11.582zM383.897 543.162c2.052-0.144 3.952-0.24 5.558-0.24 1.582 0 2.844 0.104 3.992 0.244-0.252-2.82-0.654-5.678-1.278-8.602-2.754-0.814-7.256 0.242-10.592 1.474 0.89 2.414 1.666 4.788 2.32 7.124zM349.807 441.080c6.95 0 16.676 0.792 23.392 3.914 0.942-3.434 2.13-6.67 3.484-9.684-12.47-8.666-26.4-10.658-31.328-11.066-0.542 3.002-0.934 6.106-1.12 9.342-0.144 2.534-0.048 5.078 0.1 7.626 1.408-0.066 3.264-0.132 5.472-0.132zM380.055 428.836c1.872-3.184 3.868-6.030 5.874-8.418-3.086-4.092-13.968-16.598-32.714-18.628-2.5 4.658-4.608 9.762-6.178 15.3 6.326 0.622 20.13 3.068 33.018 11.746zM392.434 558.484c0.65-2.626 1.022-5.298 1.158-8.010v0c-0.922-0.294-4.364-0.324-8.082-0.128 0.298 1.862 0.47 3.692 0.544 5.498 2.154 0.742 4.292 1.626 6.38 2.64zM343.561 356.6c-0.94-0.302-1.724-0.964-2.164-1.842-0.298-0.594-6.446-12.542-22.666-10.208 5.738 3.782 10.992 10.142 10.992 19.868 0 0.538-0.118 1.068-0.35 1.55-0.238 0.5-23.846 50.862-27.086 95.906-0.138 1.89-1.708 3.354-3.602 3.364h-0.018c-1.886 0-3.46-1.448-3.616-3.326-0.94-11.332-4.694-24.186-8.582-24.508-1.432-0.152-4.782 0.928-6.038 2.996-0.934 1.54-0.548 3.686 1.144 6.37 6.604 10.492 10.578 19.16 8.516 27.41-1.724 6.908-9.792 25.076-20.81 22.844l-2.874-0.652c-9.362-2.222-11.772-1.75-12.934 2.486-0.288 1.060-0.132 1.92 0.502 2.796 1.588 2.212 5.65 3.866 10.118 4.122 8.38 0.454 11.72-3.12 11.81-3.224 1.104-1.342 2.992-1.702 4.514-0.898 1.522 0.812 2.264 2.59 1.768 4.244-0.142 0.462-3.574 11.37-18.162 13.146-3.274 0.398-4.064 2.504-4.154 4.186-0.142 2.79 1.62 6.096 4.822 6.824 5.736 1.274 16.44-3.592 21.082-22.146 0.488-1.958 2.5-3.082 4.398-2.646 1.946 0.492 3.13 2.456 2.642 4.404-2.374 9.498-6.224 16.006-10.524 20.394 0.074 0.134 0.188 0.234 0.248 0.38 1.74 4.424 5.322 5.342 7.91 4.822 2.472-0.52 5.062-2.626 4.902-6.986-0.45-12.022 9.056-30.556 13.998-37.352 3.744-5.142 4.684-10.71 5.984-18.422 0.58-3.44 1.22-7.204 2.184-11.406 4.814-20.944 17.46-33.634 20.436-36.392 3.928-25.194 18.12-42.784 31.128-53.978-5.608-3.974-16.748-11.39-25.518-14.126zM375.809 374.744c4.192 3.296 11.574 9.33 17.76 15.36-0.52-7.070-0.902-14.836-0.934-23.656-0.004-1.030-0.090-2.012-0.12-3.030-3.592 1.93-9.808 5.626-16.706 11.326zM599.998 398.934l6.32 18.72c6.18-2.194 12.006-4.706 17.482-7.454l-12.074-16.852c-3.836 2.248-7.75 4.106-11.728 5.586zM593.054 401.082c-3.392 0.87-6.82 1.512-10.294 1.846l2.35 20.48c0.844-0.158 1.71-0.248 2.546-0.428 4.056-0.874 7.948-1.934 11.754-3.084l-6.356-18.814zM575.486 403.236c-3.582-0.032-7.2-0.358-10.854-0.938l-1.994 22.934c5.132 0.070 10.248-0.148 15.288-0.714l-2.44-21.282zM555.382 424.932l2.094-24.094c-3.746-0.952-7.528-2.232-11.332-3.746l-6.406 26.132c5.136 0.79 10.362 1.378 15.644 1.708zM544.212 355.206c-2.912 1.024-5.64 2.414-8.22 3.958l12.976 24.626c0.304-0.348 0.634-0.642 0.888-1.064 1.29-2.174 1.484-5.038 0.578-8.516-1.214-4.626-3.374-11.436-6.222-19.004zM528.126 379.342c4.492 2.994 9.43 5.868 14.7 8.366l-12.884-24.454c-4.956 3.836-8.8 7.842-10.974 10.342 3.028 1.802 6.084 3.696 9.158 5.746zM532.566 422.006l6.834-27.88c-3.502-1.688-7.024-3.612-10.562-5.768l-10.512 30.492c4.54 1.16 9.326 2.218 14.24 3.156zM511.304 416.95l11.076-32.134c0.050-0.144 0.192-0.208 0.258-0.342-4.426-2.896-8.802-5.486-13.104-7.87l-10.732 36.43c3.822 1.294 7.99 2.624 12.502 3.916zM491.94 410.624l11.032-37.452c0.008-0.026 0.038-0.038 0.044-0.066-4.818-2.466-9.44-4.648-13.688-6.488l-12.002 37.46c0.152 0.26 0.322 0.598 0.47 0.842 1.988 0.894 7.016 3.080 14.144 5.704zM472.704 394.728l9.898-30.894c-7.556-3-13.456-4.908-16.394-5.784-1.886 12.004 2.060 26.22 6.496 36.678zM470.568 328.33c2.456 5.908 1.73 13.184-2.222 22.222-0.070 0.16-0.142 0.32-0.208 0.492 6.090 1.78 23.906 7.596 44.402 18.91 3.662-4.434 14.496-16.28 29.020-21.482-8.246-20.172-20.56-42.78-32.964-44.79-10.398-1.644-16.026 4.556-21.46 10.594-4.742 5.256-10.122 11.21-17.76 7.184-0.594-0.314-1.042-0.718-1.562-1.074-0.592 0.344-1.408 0.77-2.372 1.212 2.086 1.82 3.964 3.934 5.126 6.732zM593.454 377.518c1.062-6.606 5.332-12.316 12.69-16.976 4.296-2.712 6.514-5.698 6.594-8.876 0.084-3.394-2.132-6.928-4.642-9.792-0.344 0.71-0.764 1.294-1.194 1.768-4.632 5.142-14.7 2.826-16.678 2.306-0.5-0.122-0.97-0.37-1.37-0.69-3.718-3.024-36.508-29.914-41.554-41.266-1.89-4.254-3.522-8.668-0.97-11.834 2.66-3.31 7.75-2.94 16.822-1.058 0.78 0.16 1.342 0.208 1.72 0.208 0.434 0 0.648 0 0.648-0.048 0.308-0.52 0.51-3.442-2.43-10.074-0.534-1.2-1.884-1.834-3.242-1.56-9.682 2.004-28.254 4.308-43.728-2.854-8.132-3.772-13.876-4.046-20.52-4.366-6.116-0.292-13.044-0.632-22.626-3.742-2.206-0.71-9.528-2.796-10.864 0.68-1.12 2.922 1.060 8.038 3.372 9.54 14.284-0.554 20.106-0.56 20.106-0.56 2.004 0 3.628 1.624 3.628 3.63s-1.624 3.628-3.628 3.628c-0.062 0-6.084 0-21.026 0.604-2.58 0.104-7.056 0.728-8.020 3.772-0.718 2.26 0.548 5.518 2.826 7.258 1.974 1.532 8.636-0.152 15.14-2.96 2.064-1.304 4.216-2.354 6.3-3.044 1.768-0.632 3.72 0.264 4.472 1.984 0.754 1.72 0.074 3.724-1.57 4.632-1.29 0.718-3.396 1.824-5.94 2.96-4.224 2.864-7.57 6.966-7.83 10.17-0.094 1.152 0.138 2.664 2.822 4.074 2.33 1.22 3.998-0.104 8.986-5.624 5.788-6.418 13.696-15.134 28.014-12.892 27.882 4.518 47.51 75.152 47.694 75.86 1.412 5.416 0.96 10.142-1.358 14.046-1.338 2.256-3.060 3.724-4.702 4.844 13.692 4.926 29.124 6.61 44.972 1.122-1.814-3.328-3.906-8.728-2.914-14.87zM617.842 389.422l12.41 17.32c4.522-2.536 8.766-5.204 12.754-7.958l-15.92-16.45c-1.238 0.962-2.436 1.792-3.692 2.83-1.828 1.514-3.68 2.934-5.552 4.258zM648.953 368.186l15.94 12.702c3.072-2.966 5.87-5.866 8.346-8.6l-12.892-9.16c-3.618 1.35-7.42 3.028-11.394 5.058zM642.025 371.944c-2.972 1.768-6.020 3.742-9.138 5.946l16.070 16.608c3.778-2.86 7.318-5.748 10.552-8.62l-17.484-13.934zM668.985 360.36l9.016 6.408c2.954-3.564 5.346-6.726 7.070-9.158-4.484 0.266-9.95 1.106-16.086 2.75zM744.321 483.518c-6.414-42.938-40.822-57.172-51.066-60.494-8.612 19.374-22.892 35.672-32.394 40.596-1.768 0.908-3.966 0.218-4.892-1.55-0.922-1.788-0.228-3.968 1.554-4.896 7.24-3.752 21.898-19.018 30.364-39.876 9.136-22.504 23.744-35.266 43.408-37.93 3.956-0.53 6.674-2.136 8.318-4.896 2.41-4.064 2.286-10.17 1.402-15.538-4.632 2.94-12.17 3.884-16.276 0.738-2.562-1.956-3.294-5.066-1.966-8.318 0.898-2.202 1.314-10.104 1.714-17.75 1.158-22.126 2.626-39.526 9.898-45.416 2.1-1.702 4.626-2.402 7.24-1.956 14.348 2.27 19.584-0.774 23.002-6.058 0.208-0.322 0.842-1.294-0.86-3.1-2.58-2.722-7.99-4.318-11.634-2.26-8.588 4.914-14.614 2.844-24.578-0.584-1.744-0.594-3.654-1.248-5.756-1.936-9.898-3.194-20.104-1.608-28.318-0.322-2.41 0.368-4.604 0.71-6.518 0.888-4.678 0.444-8.94-1.882-13.066-4.138-4.996-2.732-9.712-5.348-15.268-3.658-2.58 0.774-3.416 2.070-3.828 2.986-1.22 2.73-0.318 6.688 0.55 9.202 3.112 0.548 5.91 0.444 8.99 0.124 4.442-0.444 9.5-0.972 15.868 1.37 1.882 0.69 2.84 2.78 2.15 4.658-0.694 1.882-2.77 2.816-4.664 2.144-4.786-1.75-8.426-1.4-12.61-0.954-3.814 0.388-8.116 0.822-13.284-0.548-0.79-0.208-1.98-0.33-2.892 1.144-1.2 1.928-1.15 5.49 1.31 8.27 1.89 2.144 5.554 2.080 8.938 1.362 1.894-1.060 4.306-1.926 7.42-2.524 1.778-0.378 3.54 0.69 4.122 2.4 0.582 1.72-0.194 3.602-1.814 4.414-0.274 0.132-3.13 1.532-6.934 2.494-2.004 1.454-2.716 3.506-3.788 6.578l-0.808 2.26c-0.482 1.284-1.102 2.26-1.778 2.996 1.744 0.754 3.45 1.098 5.108 0.992 3.734-0.254 7.070-2.79 9.914-7.542 9.418-15.69 25.038-15.87 25.7-15.87 1.508 0 2.86 0.934 3.394 2.344 11.74 31.022-3.956 61.010-4.632 62.278-0.010 0.020-0.030 0.030-0.042 0.050-0.010 0.018-0.006 0.038-0.016 0.052-1.394 2.41-34.89 59.036-105.816 74.32-51.092 11.050-112.83-17.778-115.434-19.018-0.614-0.282-1.13-0.738-1.498-1.304-7.342-11.352-19.59-41.474-10.562-62.108 3.076-7.034 3.808-12.59 2.174-16.53-1.098-2.636-3.232-4.754-6.866-6.71-0.488 4.536-2.052 10.444-6.72 13.016-4.566 2.494-10.502 1.104-17.656-4.148-16.932-12.45-41.092-41.852-38.89-54.586 0.54-3.13 2.5-5.352 5.516-6.256 2.916-0.87 6.508-1.618 10.288-2.392 7.476-1.54 16.296-3.346 20.208-6.588-10.558 1.352-31.012 3.224-39.096-1.314-9.538-5.368-25.93-8.79-37.344-4.658-4.148 1.73-13.442 3.1-18.842-4.216-2.014-2.732-5.176-3.48-7.216-2.79-2.372 0.774-2.87 3.242-2.87 5.172 0 8.422 8.106 9.072 10.588 9.072 2.004 0 3.628 1.628 3.628 3.628 0 2.002-1.624 3.63-3.628 3.63-5.558 0-10.132-1.81-13.272-4.894-2.902 1.518-4.776 3.306-5.456 5.376-0.93 2.826 0.408 5.756 1.29 7.25 1.682 2.856 4.656 4.372 6.478 5.106 4.122-3.872 8.916-6.64 11.32-7.696 1.814-0.784 3.964 0.038 4.784 1.872 0.802 1.834-0.038 3.978-1.872 4.784-4.858 2.126-13.748 8.686-14.168 14.186-0.154 2.014 1.702 3.544 3.62 4.026 1.384 0.35 4.872 0.624 6.97-4.226 5.306-12.276 22.566-20.916 23.298-21.276 0.51-0.254 1.060-0.378 1.608-0.378 0.884 0 1.754 0.322 2.44 0.934 1.538 1.4 37.684 34.782 37.892 89.396 0.124 33.014 4.716 53.606 6.418 60.156 6.416 0.308 22.814 2.284 37.54 13.576 4.264-7.552 15.080-22.212 34.99-22.714 0.028 0 0.062 0 0.090 0 1.304 0 2.51 0.71 3.156 1.842 0.662 1.172 0.624 2.61-0.094 3.734-0.070 0.112-5.648 9.036-4.376 16.73 4.574-4.414 12.906-10.388 24.778-10.812h0.004c0.042 0 0.084 0 0.128 0 0.628 0 1.192 0.204 1.71 0.492 0.234 0.13 0.444 0.232 0.642 0.418 0.464 0.402 0.804 0.918 1.018 1.512 0.020 0.054 0.078 0.082 0.094 0.14 0.048 0.16 5.072 15.974 19.404 23.374 9.154 4.736 20.194 5.028 32.854 0.86 0.312-0.102 0.624-0.098 0.938-0.112 0.072-0.006 0.124-0.066 0.194-0.066 0.058 0 0.112 0.020 0.168 0.022 0.094 0.002 0.182 0.024 0.274 0.038 0.16 0.020 0.322 0.020 0.482 0.064 0.112 0.030 0.192 0.108 0.298 0.148 0.24 0.088 0.454 0.194 0.672 0.33 0.19 0.118 0.364 0.24 0.524 0.39 0.172 0.154 0.314 0.328 0.454 0.518s0.262 0.378 0.364 0.592c0.048 0.098 0.128 0.17 0.168 0.272 0.482 1.322 7.99 20.922 26.71 32.488 0.068-0.010 0.12-0.052 0.19-0.060 0.45-0.048 45.176-5.002 69.928-17.088 7.548-3.686 16.758-5.51 25.876-5.51 10.292 0 20.456 2.324 27.94 6.908 8.166 5.002 12.556 12.184 12.704 20.746 0.298 17.56-10.51 31.076-20.832 34.868-6.474 2.372-12.71 0.944-16.648-3.866-4.906-5.974-4.616-13.714 0.69-18.412 5.506-4.876 15.676-5.654 25.85 3.346 1.192-2.312 2.142-4.864 2.784-7.588-11.48-7.932-22.184-10.578-30.926-7.63-8.302 2.796-13.256 9.99-15.128 15.784-1.47 4.546-0.642 10.198 2.26 15.49 4.084 7.448 11.522 13.054 20.406 15.368 9.262 2.43 24.456 0.34 35.93-9.962 8.512-7.638 17.818-22.392 13.796-49.292zM711.089 517.432c-7.13-6.71-13.696-6.864-16.932-3.988-2.382 2.106-2.34 5.396 0.11 8.366 1.452 1.768 3.246 2.364 4.992 2.364 1.258 0 2.49-0.312 3.55-0.7 2.868-1.062 5.754-3.16 8.28-6.042z" />
<glyph unicode="&#xe493;" d="M59.178 227.213l-0.072 441.424c-0.006 25.214 13.444 48.514 35.278 61.126l382.247 220.775c21.834 12.612 48.736 12.614 70.574 0.012l382.321-220.649c21.836-12.604 35.292-35.9 35.298-61.114l0.072-441.424c0.006-25.214-13.444-48.514-35.278-61.126l-382.249-220.775c-21.834-12.612-48.736-12.614-70.574-0.012l-382.319 220.649c-21.838 12.604-35.292 35.9-35.298 61.114z" />
<glyph unicode="&#xe494;" d="M964.822 668.789c-0.006 25.214-13.458 48.51-35.298 61.114l-382.323 220.645c-21.836 12.604-48.74 12.6-70.574-0.012l-382.247-220.773c-21.834-12.61-35.28-35.91-35.278-61.124l0.008-48.156h905.718l-0.008 48.306z" />
<glyph unicode="&#xe495;" d="M59.178 227.213c0.006-25.214 13.458-48.51 35.298-61.114l382.321-220.649c21.836-12.604 48.74-12.6 70.574 0.010l382.249 220.777c21.834 12.612 35.28 35.91 35.278 61.126l-0.008 48.156h-905.718l0.008-48.306z" />
<glyph unicode="&#xe496;" d="M403.318 481.974c0.652 2.296 1.372 4.572 2.17 6.82-2.204-1.112-3.714-1.568-3.714-1.568-1.144 1.118-2.050 2.336-2.782 3.612-1.024-2.912-1.952-5.858-2.75-8.842 0.772-1.038 1.094-1.796 1.094-1.796 1.794 0.996 4.080 1.506 5.982 1.774z" />
<glyph unicode="&#xe497;" d="M393.174 447.636c1.598 1.67 3.876 2.984 5.838 3.914 0.008 2.656 0.128 5.306 0.32 7.942-1.158-0.888-2.38-1.76-3.736-2.58 0.020-0.006 0.074-0.022 0.074-0.022l-0.18-0.046c0.038 0.022 0.068 0.048 0.106 0.068-0.2 0.060-1.47 0.454-3.164 1.36-0.138-2.33-0.232-4.664-0.232-7.008 0-0.92 0.050-1.83 0.070-2.744 0.588-0.512 0.904-0.884 0.904-0.884z" />
<glyph unicode="&#xe498;" d="M424.648 379.91c-2.636 3.196-5.078 6.558-7.356 10.038-0.748-2.132-1.684-4.304-2.866-6.49 0.024 0.006 0.098 0.012 0.098 0.012l-0.162-0.15c0.024 0.046 0.042 0.090 0.068 0.136-0.1-0.016-0.414-0.058-0.898-0.098 2.034-2.922 4.188-5.756 6.47-8.48 1.826-0.114 2.966-0.424 2.966-0.424 0.202 1.848 0.87 3.74 1.68 5.456z" />
<glyph unicode="&#xe499;" d="M404.77 415.83c-1.044 3.134-1.952 6.328-2.722 9.578-0.894-1.234-1.85-2.472-2.944-3.698 0.022 0.002 0.090 0 0.090 0l-0.182-0.108c0.032 0.038 0.058 0.072 0.090 0.108-0.214-0.002-1.454 0.002-3.256 0.3 0.792-3.13 1.732-6.198 2.77-9.224 1.342-0.73 2.096-1.35 2.096-1.35 0.996 1.68 2.532 3.182 4.058 4.394z" />
<glyph unicode="&#xe49a;" d="M414.232 507.724c1.25 2.15 2.59 4.248 3.984 6.318-2.942-0.808-4.928-0.934-4.928-0.934-0.704 1.104-1.21 2.244-1.614 3.392-1.154-1.768-2.276-3.552-3.336-5.374l4.146 1.844 1.748-5.246z" />
<glyph unicode="&#xe49b;" d="M459.694 351.558c-3.442 1.79-6.784 3.746-10.004 5.87 0.048-1.628 0.040-3.29-0.084-5.016 0.022 0.016 0.092 0.058 0.092 0.058l-0.098-0.224c0.006 0.058 0.002 0.11 0.006 0.168-0.18-0.114-1.084-0.682-2.574-1.364 3.242-2.086 6.59-4.022 10.038-5.794 1.986 0.74 3.32 0.912 3.32 0.912-0.524 1.69-0.7 3.568-0.696 5.39z" />
<glyph unicode="&#xe49c;" d="M504.088 334.196c-2.896 0.864-5.98 1.952-8.226 3.176 0.22-0.564 0.462-1.094 0.668-1.678 0.014 0.024 0.068 0.098 0.068 0.098v-0.268c-0.020 0.058-0.046 0.11-0.068 0.17-0.124-0.19-0.76-1.11-1.9-2.386 2.54-0.358 5.104-0.624 7.69-0.82 0.592 0.62 1.182 1.186 1.768 1.708z" />
<glyph unicode="&#xe49d;" d="M490.508 347.754c-9.468 14.206-22.744 19.544-22.744 19.544-1.488-2.54-2.222-6.026-2.546-9.564-1.344 0.97-2.77 1.868-4.322 2.622 0 0-1.192-4.222-1.202-8.8 10.058-5.232 20.994-8.982 32.534-10.97-1.45 2.142-2 4.69-1.72 7.168z" />
<glyph unicode="&#xe49e;" d="M495.862 337.376c-0.952 0.52-1.762 1.060-2.33 1.622-0.498 0.494-0.928 1.030-1.304 1.59-11.54 1.986-22.476 5.738-32.534 10.97-0.006-1.822 0.172-3.698 0.694-5.392 0 0-1.332-0.172-3.32-0.912 11.562-5.946 24.206-10.058 37.562-11.942 1.14 1.274 1.772 2.196 1.9 2.386-0.206 0.584-0.448 1.114-0.668 1.678z" />
<glyph unicode="&#xe49f;" d="M449.69 357.428c-9.428 6.216-17.878 13.794-25.040 22.482-0.808-1.714-1.478-3.604-1.682-5.456 0 0-1.14 0.31-2.966 0.424 7.74-9.242 16.862-17.28 27.032-23.83 1.49 0.682 2.394 1.248 2.574 1.364 0.122 1.726 0.126 3.39 0.082 5.016z" />
<glyph unicode="&#xe4a0;" d="M416.68 400.342c-1.258 0-2.41 0.692-3.002 1.794-0.592 1.11-0.524 2.454 0.17 3.496l5.224 7.838c-0.59 3.244-1.308 5.206-1.308 5.206-2.384-0.502-4.928-1.994-7.278-3.766-0.154 1.364-0.4 2.736-0.8 4.108 0 0-2.442-1.214-4.922-3.192 3.072-9.214 7.3-17.898 12.524-25.882 1.274 3.638 1.966 7.144 2.292 10.394h-2.902v0.004h0.002z" />
<glyph unicode="&#xe4a1;" d="M417.294 389.946c-5.224 7.986-9.452 16.67-12.524 25.882-1.522-1.212-3.062-2.714-4.056-4.398 0 0-0.754 0.622-2.096 1.35 3.612-10.55 8.656-20.434 14.914-29.422 0.484 0.040 0.798 0.082 0.898 0.098 1.178 2.184 2.116 4.358 2.864 6.49z" />
<glyph unicode="&#xe4a2;" d="M409.692 451.788c-2.146-0.244-4.574-1.15-6.918-2.314 0.172 1.202 0.27 2.424 0.222 3.662 0 0-1.794-0.552-3.984-1.588 0-0.094-0.006-0.19-0.006-0.284 0-8.9 1.072-17.55 3.036-25.858 6.336 8.75 7.88 17.428 8.17 22.346-0.19 1.316-0.362 2.666-0.52 4.036z" />
<glyph unicode="&#xe4a3;" d="M399.1 421.708c1.098 1.228 2.052 2.464 2.944 3.698-1.964 8.308-3.036 16.958-3.036 25.858 0 0.094 0.006 0.19 0.006 0.284-1.964-0.93-4.244-2.244-5.838-3.914 0 0-0.32 0.37-0.904 0.884 0.208-9.122 1.42-18.002 3.576-26.512 1.798-0.298 3.040-0.3 3.252-0.298z" />
<glyph unicode="&#xe4a4;" d="M408.71 469.864c0 3.13 0.068 6.358 0.228 9.72-1.004-0.050-2.040-0.16-3.076-0.33 0.458 0.964 0.852 1.962 1.134 3.014 0 0-1.614-0.002-3.682-0.294-2.080-7.31-3.42-14.84-3.982-22.482 4.358 3.342 7.362 7.058 9.378 10.372z" />
<glyph unicode="&#xe4a5;" d="M399.336 459.492c0.562 7.64 1.902 15.17 3.982 22.482-1.902-0.268-4.186-0.778-5.98-1.778 0 0-0.322 0.758-1.094 1.796-2.062-7.722-3.334-15.674-3.808-23.722 1.694-0.904 2.964-1.3 3.164-1.36 1.356 0.824 2.578 1.692 3.736 2.582z" />
<glyph unicode="&#xe4a6;" d="M400.178 500.734c0.762 1.228 2.166 1.782 3.504 1.532 1.428 3.014 2.974 5.974 4.652 8.862l-4.788-2.13-5.176 3.758c0 0-4.772-12.534 0.622-21.922 0.642 1.822 1.32 3.628 2.050 5.418-1.386 1.056-1.804 2.98-0.864 4.482z" />
<glyph unicode="&#xe4a7;" d="M405.486 488.792c0.444 1.254 0.918 2.496 1.404 3.732l-5.634 3.52c-0.090 0.054-0.138 0.148-0.22 0.21-0.73-1.788-1.408-3.596-2.050-5.418 0.732-1.274 1.638-2.494 2.782-3.612 0.004 0.002 1.514 0.458 3.718 1.568z" />
<glyph unicode="&#xe4a8;" d="M404.87 501.816l4.724-2.954c1.41 3.020 2.96 5.974 4.636 8.86l-1.75 5.246-4.146-1.844c-1.678-2.89-3.224-5.846-4.652-8.862 0.41-0.074 0.814-0.21 1.188-0.446z" />
<glyph unicode="&#xe4a9;" d="M425.418 523.626c-2.586-3.070-4.976-6.278-7.204-9.582 3.638 1 8.74 3.054 13.418 7.264 0.34 1.618 0.714 3.246 1.142 4.894l-2.436 1.074-0.794 8.486-9.602-1.844-4.192 4.834c0 0-7.828-11.674-4.082-22.246 2.61 3.988 5.446 7.842 8.542 11.512l5.208-4.392z" />
<glyph unicode="&#xe4aa;" d="M609.64 383.32l-0.164 0.15c0 0 0.072-0.010 0.098-0.012-1.182 2.184-2.12 4.358-2.866 6.49-2.276-3.48-4.718-6.84-7.356-10.038 0.808-1.714 1.478-3.604 1.682-5.456 0 0 1.14 0.31 2.966 0.424 2.282 2.724 4.434 5.558 6.47 8.48-0.484 0.040-0.798 0.082-0.898 0.098 0.026-0.046 0.044-0.090 0.068-0.136z" />
<glyph unicode="&#xe4ab;" d="M605.786 514.042c1.394-2.070 2.734-4.166 3.984-6.318l1.75 5.246 4.146-1.844c-1.058 1.822-2.18 3.606-3.334 5.374-0.408-1.148-0.91-2.286-1.614-3.392-0.002 0-1.992 0.124-4.932 0.934z" />
<glyph unicode="&#xe4ac;" d="M624.992 421.598l-0.182 0.108c0 0 0.068 0.002 0.090 0-1.098 1.228-2.052 2.464-2.944 3.698-0.77-3.25-1.678-6.444-2.722-9.578 1.522-1.212 3.062-2.714 4.056-4.398 0 0 0.754 0.622 2.096 1.35 1.034 3.026 1.974 6.096 2.77 9.224-1.802-0.3-3.042-0.302-3.254-0.3 0.030-0.032 0.054-0.066 0.090-0.104z" />
<glyph unicode="&#xe4ad;" d="M618.514 488.792c0.798-2.246 1.518-4.524 2.17-6.82 1.902-0.268 4.186-0.778 5.98-1.778 0 0 0.322 0.758 1.094 1.796-0.798 2.984-1.724 5.93-2.75 8.842-0.732-1.274-1.638-2.494-2.782-3.612 0.002 0.006-1.506 0.462-3.712 1.572z" />
</font>
</defs>
</svg>
