<!-- Generated by IcoMoon.io -->
<svg version="1.1" xmlns="http://www.w3.org/2000/svg" width="32" height="32" viewBox="0 0 32 32">
<title>american-samoa</title>
<path fill="#41479b" d="M29.603 26.483h-27.207c-1.324 0-2.397-1.073-2.397-2.397v-16.172c0-1.324 1.073-2.397 2.397-2.397h27.207c1.324 0 2.397 1.073 2.397 2.397v16.172c0 1.324-1.073 2.396-2.397 2.396z"></path>
<path fill="#ff4b55" d="M31.712 25.227l-28.167-9.227 28.167-9.227c-0.197-0.363-0.485-0.669-0.833-0.888l-30.878 10.115 30.878 10.115c0.348-0.219 0.636-0.525 0.833-0.888z"></path>
<path fill="#f5f5f5" d="M31.712 25.227c0.184-0.339 0.288-0.728 0.288-1.141v-16.172c0-0.413-0.105-0.802-0.288-1.141l-28.167 9.227 28.167 9.227z"></path>
<path fill="#fff5dc" d="M28.631 13.285c0 0 1.889 0.080 2.065-0.064s0.208-1.105-0.416-1.249c-0.624-0.144-2.322 0.785-2.322 0.785l0.672 0.528z"></path>
<path fill="#d27d69" d="M24.933 14.774c0 0-0.021 0.053-0.032 0.288s0.032 0.843 0.769 1.11l-0.171 0.715 0.779 0.47c0 0 0.576-0.854 0.608-1.569s-1.953-1.014-1.953-1.014z"></path>
<path fill="#d27d69" d="M22.595 14.293l0.304-0.304c0 0-0.623 0.38-0.859 0.037-0.309-0.448 0.107-0.918 0.539-1.126s1.297-0.048 1.297-0.048l0.544 1.393-1.649 1.041-0.176-0.993z"></path>
<path fill="#d27d69" d="M27.703 11.636l1.473-0.176c0 0-0.432 0.624-1.281 1.089 0 0 0.881 0 1.137 0.304s-0.256 0.592-0.448 0.688c-0.192 0.096-1.857 1.121-1.857 1.121l-1.489-0.176 2.466-2.85z"></path>
<path fill="#d27d69" d="M28.797 10.504c0 0 0.32-0.747 0.309-1.27l-1.078 0.747c0 0 0.245-0.117 0.16-0.544l-3.522 1.911-0.715 1.27 2.177 0.672 2.669-2.786z"></path>
<path fill="#ffe15a" d="M26.142 16.327l-0.368 0.584c0 0-0.657-0.144-0.881 0.016s-0.248 0.761 0.144 0.809c0 0 0.272 0.168 0.432 0.032 0 0 0.328 0.128 0.384-0.080s-0.016-0.384-0.016-0.384h0.232l0.408-0.729-0.336-0.248z"></path>
<path fill="#b95546" d="M22.852 15.062c0 0 1.025-0.512 1.025-1.281s-0.95-0.811-1.718-0.555c0 0-0.459-0.363-0.075-0.726 0.527-0.498 2.818-1.537 2.818-1.537l-0.256 1.281c0 0 0.913 0.48 1.281 0.256 0.309-0.188 3.33-2.562 3.33-2.562s-0.256 1.281-2.049 2.562l-0.19 0.95c-0.042 0.209-0.177 0.386-0.368 0.482l-0.723 0.361c0 0 2.049 0.256 2.049 0.512s-0.512 1.537-1.537 2.049l-0.512-0.512 0.256-0.769c0 0-0.769-0.256-1.281-0.512 0 0-0.769 0.256-1.281 0.256s-0.769-0.256-0.769-0.256z"></path>
<path fill="#fff5dc" d="M21.314 16.343v-0.532c0-0.151 0.060-0.296 0.167-0.403l1.114-1.114 0.256 0.512h1.025l-0.256 0.256v0.256l-1.281 0.769-1.025 0.256z"></path>
<path fill="#ffe15a" d="M21.827 16.087h-0.512c0 0-0.512 0.769 0 0.769 0 0 0.769-0.512 1.025-0.769 0 0 0-0.256-0.512 0z"></path>
<path fill="#ffe15a" d="M28.076 17.223h-3.541c-0.029-0.031-0.070-0.052-0.116-0.052 0 0-0.62-0.257-0.709-0.257h-0.073c-0.088 0-0.16 0.072-0.16 0.16v0.149h-0.81v-0.149c0-0.088-0.072-0.16-0.16-0.16h-0.073c-0.088 0-0.16 0.072-0.16 0.16v0.003c-0.347-0.014-1.089-0.058-1.473-0.186l-2.049 0.512 2.049 0.512c0.384-0.128 1.126-0.172 1.473-0.186v0.003c0 0.088 0.072 0.16 0.16 0.16h0.073c0.088 0 0.16-0.072 0.16-0.16v-0.149h0.81v0.149c0 0.088 0.072 0.16 0.16 0.16h0.073c0.088 0 0.709-0.257 0.709-0.257 0.046 0 0.087-0.020 0.116-0.052h3.541c0.099 0 0.18-0.080 0.18-0.18s-0.080-0.179-0.18-0.179z"></path>
<path fill="#ffe15a" d="M27.922 17.912c-0.213-0.043-2.658 0.384-2.658 0.384s-0.149-0.149 0.299-0.566l-0.213-0.053c0 0-0.47 0.331-0.662 0.374-0.165 0.037-0.535 0.216-0.615 0.456l-1.488 0.248 0.032 0.128 1.46-0.171c0.070 0.224 0.299 0.27 0.462 0.203 0 0 0.213 0.085 0.406-0.064 0 0 0.384 0.064 0.406-0.288l2.679-0.406c0 0 0.107-0.203-0.107-0.245z"></path>
<path fill="#ffe15a" d="M26.406 19.716c0 0-0.203 0.267-0.704 0.032s-1.089 0.021-1.409-0.053-0.801-0.267-1.249-0.096c-0.448 0.171-0.694 0.16-0.598-0.053s0.149-0.374 0-0.448l0.171-0.213-0.032-0.128c0 0-0.854-0.331-1.43 0.128s-0.406 1.505 0.555 1.58c0 0 0.299 0.374 1.035 0.267 0 0 0.48 0.331 1.302 0.181 0 0 0.032 0.096 0.566 0.053s1.131 0.021 1.025 0.384c0 0 0.395-0.075 0.16-0.438 0 0 0.47-0.021 0.79 0.256 0 0 0.021-0.32-0.288-0.491 0 0 0.523-0.181 0.811 0 0 0-0.192-0.406-0.704-0.352 0 0 0.374-0.299 0.544-0.224 0 0-0.16-0.192-0.63 0-0 0 0.299-0.181 0.085-0.384z"></path>
</svg>
