<!-- Generated by IcoMoon.io -->
<svg version="1.1" xmlns="http://www.w3.org/2000/svg" width="32" height="32" viewBox="0 0 32 32">
<title>andorra</title>
<path fill="#41479b" d="M2.273 26.481h8.394v-20.962h-8.27c-1.324 0-2.397 1.073-2.397 2.397v16.172c0 1.282 1.007 2.329 2.273 2.393z"></path>
<path fill="#ffe15a" d="M10.667 5.519h10.667v20.962h-10.667v-20.962z"></path>
<path fill="#ff4b55" d="M29.727 26.481c1.266-0.064 2.273-1.111 2.273-2.393v-16.172c0-1.324-1.073-2.397-2.397-2.397h-8.27v20.962h8.394z"></path>
<path fill="#dcbe82" d="M19.751 17.792c0-0.16-0.13-0.29-0.29-0.29-0.035 0-0.068 0.007-0.099 0.018-0.143-0.128-0.404-0.444-0.143-0.892 0.035 0.027 0.079 0.044 0.127 0.044 0.115 0 0.208-0.093 0.208-0.208 0-0.091-0.059-0.167-0.14-0.196 0.214-0.109 0.52-0.342 0.505-0.776-0.022-0.616-0.527-0.956-0.836-0.82 0.001-0.009 0.003-0.017 0.003-0.026 0-0.113-0.092-0.205-0.205-0.205-0.070 0-0.131 0.035-0.168 0.088-0.013-0.062-0.011-0.176 0.132-0.299 0.266-0.23 0.568-0.779 0.018-1.166-0.304-0.214-0.886-0.317-1.081-0.024-0.085 0.127-0.017 0.309 0.080 0.35-0.156 0.087-0.451 0.217-0.684 0.115-0.332-0.145-0.14-0.433-0.066-0.562 0.13-0.227 0.048-0.598-0.387-0.598-0.29 0-0.435 0.29-0.725 0.29s-0.435-0.29-0.725-0.29c-0.435 0-0.517 0.371-0.387 0.598 0.074 0.129 0.266 0.417-0.066 0.562-0.233 0.102-0.528-0.028-0.684-0.115 0.097-0.041 0.164-0.223 0.080-0.35-0.195-0.292-0.777-0.19-1.081 0.024-0.55 0.387-0.248 0.936 0.018 1.166 0.143 0.124 0.145 0.238 0.132 0.299-0.037-0.053-0.098-0.088-0.168-0.088-0.113 0-0.205 0.092-0.205 0.205 0 0.009 0.002 0.017 0.003 0.026-0.309-0.136-0.814 0.204-0.836 0.82-0.016 0.434 0.29 0.666 0.505 0.776-0.081 0.029-0.14 0.105-0.14 0.196 0 0.115 0.093 0.208 0.208 0.208 0.048 0 0.092-0.017 0.127-0.044 0.261 0.447 0.001 0.764-0.143 0.892-0.031-0.011-0.064-0.018-0.099-0.018-0.16 0-0.29 0.13-0.29 0.29 0 0.15 0.115 0.273 0.261 0.287-0.2 0.205-0.379 0.658 0.011 1.172 0.426 0.562 1.441 0.517 1.93 0.535 0.31 0.012 0.544 0.172 0.673 0.288-0.083 0.051-0.139 0.142-0.139 0.246 0 0.146 0.109 0.266 0.25 0.286 0.051 0.082 0.142 0.137 0.245 0.137 0.116 0 0.215-0.069 0.262-0.167 0.153 0.126 0.258 0.179 0.258 0.179s0.105-0.053 0.258-0.179c0.046 0.098 0.146 0.167 0.262 0.167 0.104 0 0.194-0.055 0.245-0.137 0.141-0.020 0.25-0.14 0.25-0.286 0-0.105-0.056-0.195-0.139-0.246 0.13-0.116 0.363-0.277 0.673-0.288 0.489-0.018 1.504 0.027 1.93-0.535 0.39-0.514 0.21-0.967 0.011-1.172 0.146-0.015 0.261-0.137 0.261-0.287z"></path>
<path fill="#d2aa73" d="M13.39 14.067v4.205c0 0.48 0.389 0.87 0.87 0.87h1.16c0.435 0 0.58 0.29 0.58 0.29s0.145-0.29 0.58-0.29h1.16c0.48 0 0.87-0.389 0.87-0.87v-4.205c0-0.080-0.065-0.145-0.145-0.145h-4.929c-0.080-0-0.145 0.065-0.145 0.145z"></path>
<path fill="#ff4b55" d="M13.68 14.213h2.175v2.175h-2.175v-2.175z"></path>
<path fill="#ff4b55" d="M15.855 18.852v0c-1.201 0-2.175-0.974-2.175-2.175v0h2.175v2.175z"></path>
<path fill="#ffe15a" d="M16.145 18.852v0-2.175h2.175c-0 1.201-0.974 2.175-2.175 2.175z"></path>
<path fill="#ffe15a" d="M16.145 14.213h0.311v2.175h-0.311v-2.175z"></path>
<path fill="#ff4b55" d="M16.456 14.213h0.311v2.175h-0.311v-2.175z"></path>
<path fill="#ffe15a" d="M16.766 14.213h0.311v2.175h-0.311v-2.175z"></path>
<path fill="#ff4b55" d="M17.078 14.213h0.311v2.175h-0.311v-2.175z"></path>
<path fill="#ffe15a" d="M17.387 14.213h0.311v2.175h-0.311v-2.175z"></path>
<path fill="#ffe15a" d="M18.009 14.213h0.311v2.175h-0.311v-2.175z"></path>
<path fill="#ff4b55" d="M17.699 14.213h0.311v2.175h-0.311v-2.175z"></path>
<path fill="#ff4b55" d="M14.405 16.677h0.242v2.175h-0.242v-2.175z"></path>
<path fill="#ffe15a" d="M14.647 16.677h0.242v2.175h-0.242v-2.175z"></path>
<path fill="#ffe15a" d="M15.131 16.677h0.242v2.175h-0.242v-2.175z"></path>
<path fill="#ff4b55" d="M14.888 16.677h0.242v2.175h-0.242v-2.175z"></path>
<path fill="#ffe15a" d="M15.613 16.677h0.242v2.175h-0.242v-2.175z"></path>
<path fill="#ff4b55" d="M15.372 16.677h0.242v2.175h-0.242v-2.175z"></path>
<path fill="#ffe15a" d="M13.922 18.741v-2.064h-0.242v1.595c-0 0.194 0.096 0.364 0.242 0.469z"></path>
<path fill="#ff4b55" d="M14.164 18.842v-2.165h-0.242v2.064c0.070 0.051 0.152 0.086 0.242 0.101z"></path>
<path fill="#ffe15a" d="M14.164 16.677v2.165c0.032 0.005 0.063 0.010 0.097 0.010h0.145v-2.175l-0.242-0z"></path>
<path fill="#f5f5f5" d="M14.004 16.264c-0.011 0-0.022-0.003-0.031-0.009-0.143-0.094-0.151-0.193-0.143-0.243 0.010-0.068 0.061-0.124 0.128-0.143 0.064-0.018 0.128 0.001 0.172 0.051 0.090 0.105 0.183 0.146 0.261 0.117 0.062-0.023 0.099-0.084 0.099-0.13 0-0.032 0.025-0.057 0.057-0.057s0.057 0.025 0.057 0.057c0 0.1-0.073 0.199-0.173 0.237-0.073 0.027-0.221 0.044-0.387-0.149-0.018-0.021-0.039-0.020-0.054-0.016-0.020 0.006-0.043 0.024-0.047 0.051-0.006 0.039 0.028 0.087 0.093 0.13 0.026 0.017 0.034 0.053 0.016 0.079-0.011 0.017-0.029 0.026-0.048 0.026z"></path>
<path fill="#f5f5f5" d="M15.538 16.264c-0.018 0-0.037-0.009-0.048-0.026-0.017-0.026-0.010-0.062 0.016-0.079 0.065-0.043 0.099-0.091 0.093-0.13-0.004-0.027-0.027-0.045-0.047-0.051-0.015-0.004-0.036-0.005-0.054 0.016-0.166 0.193-0.314 0.177-0.387 0.149-0.101-0.037-0.173-0.137-0.173-0.237 0-0.032 0.025-0.057 0.057-0.057s0.057 0.025 0.057 0.057c0 0.046 0.037 0.107 0.099 0.13 0.078 0.029 0.171-0.012 0.261-0.117 0.043-0.051 0.107-0.069 0.172-0.051 0.068 0.019 0.118 0.075 0.128 0.143 0.008 0.050-0.001 0.148-0.143 0.243-0.010 0.006-0.021 0.009-0.031 0.009z"></path>
<path fill="#ffe15a" d="M13.973 16.331c-0.012 0-0.024-0.004-0.035-0.012-0.025-0.019-0.030-0.055-0.011-0.080l1.242-1.632c0.012-0.021 0.016-0.051 0.021-0.085 0.010-0.064 0.022-0.144 0.119-0.203 0.064-0.038 0.139-0.037 0.203 0.003 0.070 0.045 0.111 0.128 0.103 0.207-0.005 0.048-0.033 0.136-0.163 0.184-0.030 0.011-0.063-0.004-0.073-0.034s0.004-0.063 0.034-0.073c0.038-0.014 0.084-0.041 0.089-0.089 0.004-0.037-0.017-0.077-0.050-0.098-0.019-0.012-0.048-0.022-0.082-0.002-0.052 0.031-0.057 0.065-0.065 0.122-0.006 0.040-0.013 0.085-0.040 0.132l-1.245 1.638c-0.011 0.015-0.028 0.022-0.045 0.022z"></path>
<path fill="#ffe15a" d="M14.775 14.536l-0.571 0.685 0.228 0.685h0.685l0.229-0.685z"></path>
<path fill="#f5f5f5" d="M14.775 14.447l-0.635 0.762 0.252 0.755h0.768l0.252-0.755-0.635-0.762zM14.269 15.233l0.45-0.54v1.156h-0.244l-0.205-0.616zM15.077 15.85h-0.244v-1.156l0.45 0.54-0.205 0.616z"></path>
<path fill="#ff4b55" d="M17.785 17.364l0.009-0.127c0 0 0.112-0.081 0.058-0.155s-0.118-0.089-0.251-0.072-0.34 0.014-0.429 0.020c-0.089 0.006-0.135 0.055-0.276 0.014l0.037-0.086c0 0-0.066 0.006-0.107 0.026-0.022 0.011-0.075-0.061-0.127-0.049s-0.104 0.118-0.184 0.173l0.043 0.086c0 0 0.049-0.023 0.086 0.003s0.049 0.043 0.112 0.043l0.040 0.017c0 0-0.014 0.092 0.046 0.135 0 0-0.069 0.089-0.061 0.104s0.066 0.124 0.089 0.187l0.052-0.098c0 0-0.078-0.069-0.063-0.078s0.066-0.020 0.058-0.043 0.040 0.003 0.095 0.012c0 0 0.003 0.086 0.014 0.098s0.029 0.058 0.026 0.107c-0.003 0.049-0.046 0.063-0.046 0.063l0.078 0.023c0 0 0.020-0.029 0.035-0.026 0 0-0.006-0.239 0.026-0.276 0 0 0.187 0.037 0.274-0.009 0 0 0.011 0.014 0.033 0.027-0.009 0.020-0.016 0.040-0.013 0.046 0.007 0.013 0.030 0.012 0.036-0.003 0.002-0.005 0.006-0.017 0.009-0.028 0.010 0.003 0.022 0.006 0.035 0.007-0.001 0.018-0.001 0.035 0.003 0.039 0.011 0.010 0.032 0.002 0.033-0.014 0-0.005 0-0.015-0-0.025 0.015-0.001 0.031-0.004 0.048-0.009l-0.098 0.161-0.049 0.020 0.063 0.032 0.058-0.023c0 0 0.055-0.138 0.144-0.179 0 0 0.061 0.144-0.014 0.222l0.066 0.037 0.032-0.066c0 0-0.012-0.13 0.032-0.213l-0.052-0.124z"></path>
<path fill="#4173cd" d="M16.701 16.952c0 0-0.029-0.027-0.036-0.064s-0.016-0.052-0.048-0.062c0 0 0.020 0.023 0.017 0.059s0 0.085 0.020 0.101l0.046-0.035z"></path>
<path fill="#4173cd" d="M16.952 17.054c0 0-0.039 0.134-0.155 0.203l-0.040-0.017c0 0 0.123-0.105 0.138-0.196l0.057 0.010z"></path>
<path fill="#4173cd" d="M16.755 16.984c-0.004-0.004 0.051-0.020 0.038-0.064s-0.013-0.075 0.013-0.095c0 0 0.003 0.036 0.023 0.059s0.032 0.081-0.001 0.114c0-0-0.033 0.026-0.072-0.015z"></path>
<path fill="#4173cd" d="M16.762 17.378v0c-0.007-0.003-0.010-0.012-0.006-0.019l0.017-0.035c0.010-0.021 0.003-0.047-0.017-0.058-0.022-0.013-0.050-0.004-0.061 0.018l-0.018 0.037c-0.003 0.007-0.012 0.010-0.019 0.006l-0.011 0.022c0 0 0.016 0.008 0.035 0.017l-0 0.001c-0.004 0.009-0.001 0.020 0.008 0.024s0.020 0.001 0.024-0.008l0-0.001c0.019 0.009 0.035 0.017 0.035 0.017l0.011-0.022z"></path>
<path fill="#4173cd" d="M16.901 17.622l0.043 0.009-0.036 0.111-0.037-0.058z"></path>
<path fill="#4173cd" d="M17.008 17.744l-0.026 0.047h0.104l0-0.024z"></path>
<path fill="#4173cd" d="M17.52 17.709v0.028h-0.118l0.057-0.057z"></path>
<path fill="#4173cd" d="M17.707 17.73l-0.058 0.058h0.123l0.002-0.021z"></path>
<path fill="#ff4b55" d="M17.785 18.266l0.009-0.127c0 0 0.112-0.081 0.058-0.155s-0.118-0.089-0.251-0.072-0.34 0.014-0.429 0.020c-0.089 0.006-0.135 0.055-0.276 0.014l0.037-0.086c0 0-0.066 0.006-0.107 0.026-0.022 0.011-0.075-0.061-0.127-0.049s-0.104 0.118-0.184 0.173l0.043 0.086c0 0 0.049-0.023 0.086 0.003s0.049 0.043 0.112 0.043l0.040 0.017c0 0-0.014 0.092 0.046 0.135 0 0-0.069 0.089-0.061 0.104s0.066 0.124 0.089 0.187l0.052-0.098c0 0-0.078-0.069-0.063-0.078s0.066-0.020 0.058-0.043 0.040 0.003 0.095 0.012c0 0 0.003 0.086 0.014 0.098s0.029 0.058 0.026 0.107c-0.003 0.049-0.046 0.063-0.046 0.063l0.078 0.023c0 0 0.020-0.029 0.035-0.026 0 0-0.006-0.239 0.026-0.276 0 0 0.187 0.037 0.274-0.009 0 0 0.011 0.014 0.033 0.027-0.009 0.020-0.016 0.040-0.013 0.046 0.007 0.013 0.030 0.012 0.036-0.003 0.002-0.005 0.006-0.017 0.009-0.028 0.010 0.003 0.022 0.006 0.035 0.007-0.001 0.018-0.001 0.035 0.003 0.039 0.011 0.010 0.032 0.002 0.033-0.014 0-0.005 0-0.015-0-0.025 0.015-0.001 0.031-0.004 0.048-0.009l-0.098 0.161-0.049 0.020 0.063 0.032 0.058-0.023c0 0 0.055-0.138 0.144-0.179 0 0 0.061 0.144-0.014 0.222l0.066 0.037 0.032-0.066c0 0-0.012-0.13 0.032-0.213l-0.052-0.124z"></path>
<path fill="#4173cd" d="M16.701 17.855c0 0-0.029-0.027-0.036-0.064s-0.016-0.052-0.048-0.062c0 0 0.020 0.023 0.017 0.059s0 0.085 0.020 0.101l0.046-0.035z"></path>
<path fill="#4173cd" d="M16.952 17.956c0 0-0.039 0.134-0.155 0.203l-0.040-0.017c0 0 0.123-0.105 0.138-0.196l0.057 0.010z"></path>
<path fill="#4173cd" d="M16.755 17.886c-0.004-0.004 0.051-0.020 0.038-0.064s-0.013-0.075 0.013-0.095c0 0 0.003 0.036 0.023 0.059s0.032 0.081-0.001 0.114c0 0-0.033 0.026-0.072-0.014z"></path>
<path fill="#4173cd" d="M16.762 18.28v0c-0.007-0.003-0.010-0.012-0.006-0.019l0.017-0.035c0.010-0.021 0.003-0.047-0.017-0.058-0.022-0.013-0.050-0.004-0.061 0.018l-0.018 0.037c-0.003 0.007-0.012 0.010-0.019 0.006l-0.011 0.022c0 0 0.016 0.008 0.035 0.017l-0 0.001c-0.004 0.009-0.001 0.020 0.008 0.024s0.020 0.001 0.024-0.008l0-0.001c0.019 0.009 0.035 0.017 0.035 0.017l0.011-0.022z"></path>
<path fill="#4173cd" d="M16.901 18.524l0.043 0.009-0.036 0.111-0.037-0.058z"></path>
<path fill="#4173cd" d="M17.008 18.646l-0.026 0.047h0.104l0-0.024z"></path>
<path fill="#4173cd" d="M17.52 18.612v0.028h-0.118l0.057-0.057z"></path>
<path fill="#4173cd" d="M17.707 18.632l-0.058 0.058h0.123l0.002-0.021z"></path>
</svg>
