<svg xmlns="http://www.w3.org/2000/svg" width="32" height="32" version="1.1" viewBox="0 0 32 32"><title>angola</title><path fill="#ff4b55" d="M32 7.914c0-1.324-1.073-2.397-2.397-2.397h-27.207c-1.324 0-2.397 1.073-2.397 2.397v8.086h32v-8.086z"/><path fill="#464655" d="M2.397 26.483h27.207c1.324 0 2.397-1.073 2.397-2.397v-8.086h-32v8.086c0 1.324 1.073 2.397 2.397 2.397z"/><path fill="#ffe15a" d="M14.744 11.393l0.377 1.131 1.192 0.009c0.092 0.001 0.131 0.119 0.056 0.173l-0.959 0.708 0.36 1.137c0.028 0.088-0.072 0.161-0.148 0.107l-0.97-0.693-0.97 0.693c-0.075 0.054-0.175-0.019-0.148-0.107l0.36-1.137-0.959-0.708c-0.074-0.055-0.036-0.173 0.056-0.173l1.192-0.009 0.377-1.131c0.029-0.088 0.153-0.088 0.182 0z"/><path fill="#ffe15a" d="M19.843 20.997c0 0-6.825-5.149-7.027-5.318-0.311-0.262-0.552-0.724-0.563-1.287 0 0-0.736 0.754-0.592 1.534 0.167 0.902 0.684 1.224 1.351 1.661 0.469 0.307 4.193 2.656 6.367 4.026l0.464-0.616z"/><path fill="#ffe15a" d="M21.885 22.506c-0.089-0.064-0.804-0.592-1.796-1.327l-0.36 0.654c0.728 0.459 1.213 0.764 1.213 0.764s0.069 0.897 0.793 0.747c0.261-0.054 0.471-0.609 0.149-0.839z"/><path fill="#ffe15a" d="M15.991 20.128c-0.516 0.182-1.069 0.285-1.647 0.285-1.465 0-2.778-0.638-3.687-1.648l-0.808 0.727c0.271 0.301 0.56 0.584 0.886 0.826l-0.161 0.279 1.194 0.69 0.158-0.274c0.54 0.235 1.12 0.393 1.727 0.461v0.318h1.379v-0.318c0.608-0.069 1.188-0.227 1.727-0.461l0.158 0.274 0.475-0.274c-0.463-0.292-0.938-0.592-1.403-0.885z"/><path fill="#ffe15a" d="M20.372 14.759c-0.069-0.608-0.227-1.188-0.461-1.727l0.274-0.158-0.69-1.195-0.279 0.161c-0.357-0.481-0.782-0.906-1.263-1.262l0.161-0.279-1.195-0.69-0.158 0.274c-0.448-0.195-0.924-0.333-1.42-0.415l-0.181 1.088c2.353 0.39 4.15 2.429 4.15 4.893 0 1.327-0.524 2.529-1.371 3.42 0.293 0.221 0.584 0.441 0.872 0.658 0.139-0.153 0.282-0.303 0.405-0.469l0.279 0.161 0.69-1.195-0.274-0.158c0.235-0.54 0.393-1.12 0.461-1.727h0.318v-1.379l-0.318-0z"/></svg>