<!-- Generated by IcoMoon.io -->
<svg version="1.1" xmlns="http://www.w3.org/2000/svg" width="32" height="32" viewBox="0 0 32 32">
<title>anguilla</title>
<path fill="#41479b" d="M29.5 5.518h-27.007c-1.375 0-2.493 1.112-2.493 2.493v15.978c0 1.375 1.112 2.493 2.493 2.493h27.013c1.375 0 2.493-1.112 2.493-2.493v-15.984c-0.006-1.375-1.119-2.487-2.5-2.487z"></path>
<path fill="#f5f5f5" d="M0.55 15.997h0.956l5.112-3.349v3.349h2.756v-3.349l5.111 3.349h0.956c0.306 0 0.55-0.25 0.55-0.55v-0.437l-4.387-2.874h4.393v-2.756h-4.387l4.387-2.874v-0.437c0-0.306-0.25-0.55-0.55-0.55h-0.956l-5.112 3.349v-3.349h-2.756v3.349l-4.918-3.224c-0.575 0.187-1.050 0.581-1.356 1.094l4.037 2.643h-4.387v2.756h4.387l-4.387 2.874v0.437c0 0.3 0.25 0.55 0.55 0.55z"></path>
<path fill="#ff4b55" d="M15.997 9.929h-7.174v-4.412h-1.65v4.412h-7.174v1.656h7.174v4.412h1.65v-4.412h7.174z"></path>
<path fill="#ff4b55" d="M0.544 6.449l4.505 2.924h1.012l-5.124-3.324c-0.137 0.119-0.275 0.256-0.394 0.4z"></path>
<path fill="#ff4b55" d="M10.392 9.379l5.524-3.587c-0.094-0.162-0.262-0.275-0.469-0.275h-0.119l-5.949 3.862h1.012z"></path>
<path fill="#ff4b55" d="M5.593 12.135l-5.593 3.581c0.094 0.169 0.344 0.281 0.55 0.281h0.106l5.949-3.862h-1.012z"></path>
<path fill="#ff4b55" d="M15.991 15.491l-5.168-3.356h-1.012l5.868 3.806c0.175-0.081 0.294-0.25 0.312-0.45z"></path>
<path fill="#f5f5f5" d="M20.534 12.041c-0.075 0.987-0.381 7.249 3.593 8.667 3.974-1.418 3.668-7.68 3.593-8.667-0.481 0.187-2.225 0.762-3.593-0.212-1.368 0.969-3.112 0.4-3.593 0.212z"></path>
<path fill="#ffa028" d="M26.082 13.304c-0.219-0.169-0.619 0.144-1.075 0.112-0.419-0.031-0.937-0.456-1.606-0.269-0.187-0.169-0.094-0.569-0.094-0.569-0.469 0.3-0.5 0.712-0.469 0.937-0.331 0.437-0.312 1.112-0.25 1.312 0.081 0.269 0.231 0.3 0.256 0.6s0.137 0.194 0.137 0.194c0.231-0.131 0.269-0.375 0.369-0.781 0.381 0.050 0.625-0.294 0.625-0.294-0.25 0.075-0.406-0.056-0.494-0.181 0.012-0.037 0.025-0.075 0.038-0.119 0.281-0.775 1.637-0.562 1.762-0.35 0.225 0.387 0.525 0.531 0.525 0.531 0-0.406-0.3-0.756-0.3-0.756 0.456-0.081 0.575-0.369 0.575-0.369zM22.827 14.966c-0.044 0-0.081-0.037-0.081-0.081s0.038-0.081 0.081-0.081c0.044 0 0.081 0.037 0.081 0.081s-0.031 0.081-0.081 0.081z"></path>
<path fill="#ffa028" d="M24.751 18.259c0.262-0.081 0.231-0.594 0.519-0.95 0.262-0.331 0.906-0.512 1.137-1.169 0.244-0.056 0.525 0.244 0.525 0.244 0.019-0.556-0.306-0.819-0.506-0.919-0.175-0.525-0.737-0.887-0.944-0.95-0.262-0.087-0.381 0.025-0.637-0.125s-0.237 0-0.237 0c-0.025 0.269 0.162 0.437 0.437 0.744-0.256 0.287-0.119 0.681-0.119 0.681 0.075-0.25 0.281-0.3 0.425-0.3 0.025 0.031 0.050 0.063 0.075 0.1 0.475 0.675-0.462 1.662-0.712 1.643-0.45-0.031-0.737 0.131-0.737 0.131 0.331 0.231 0.794 0.187 0.794 0.187-0.187 0.419-0.019 0.681-0.019 0.681zM25.226 14.641c0.025-0.037 0.075-0.044 0.112-0.019s0.044 0.075 0.019 0.112c-0.025 0.037-0.075 0.044-0.112 0.019-0.031-0.025-0.044-0.075-0.019-0.112z"></path>
<path fill="#ffa028" d="M21.196 14.672c-0.038 0.275 0.444 0.462 0.644 0.869 0.187 0.375 0.081 1.037 0.581 1.525-0.050 0.244-0.437 0.369-0.437 0.369 0.494 0.25 0.869 0.069 1.044-0.069 0.55 0.063 1.112-0.3 1.256-0.456 0.187-0.206 0.137-0.356 0.381-0.525 0.244-0.175 0.1-0.219 0.1-0.219-0.231-0.137-0.462-0.038-0.862 0.081-0.15-0.35-0.569-0.394-0.569-0.394 0.194 0.175 0.156 0.381 0.094 0.512-0.044 0.006-0.081 0.019-0.125 0.025-0.812 0.15-1.312-1.125-1.194-1.337 0.219-0.394 0.194-0.725 0.194-0.725-0.35 0.206-0.5 0.644-0.5 0.644-0.3-0.344-0.606-0.3-0.606-0.3zM24.276 16.628c0.025 0.038 0.012 0.087-0.031 0.112-0.038 0.025-0.087 0.012-0.112-0.031-0.025-0.038-0.012-0.087 0.031-0.112 0.044-0.019 0.094-0.006 0.112 0.031z"></path>
<path fill="#cdce0c" d="M24.127 20.915l-0.031-0.012c-4.474-1.556-3.756-8.936-3.743-9.011l0.012-0.131 0.125 0.056c0.019 0.012 2.1 0.931 3.581-0.181l0.056-0.044 0.056 0.044c1.487 1.112 3.562 0.194 3.581 0.181l0.125-0.056 0.012 0.131c0.006 0.075 0.731 7.455-3.743 9.011l-0.031 0.012zM20.534 12.041c-0.075 0.987-0.381 7.249 3.593 8.667 3.974-1.418 3.668-7.68 3.593-8.667-0.481 0.187-2.225 0.762-3.593-0.212-1.368 0.969-3.112 0.4-3.593 0.212z"></path>
<path fill="#82afff" d="M21.633 18.484c0.544 0.987 1.337 1.812 2.493 2.225 1.156-0.412 1.95-1.237 2.493-2.225h-4.987z"></path>
</svg>
