<svg xmlns="http://www.w3.org/2000/svg" width="32" height="32" version="1.1" viewBox="0 0 32 32"><title>antigua-and-barbuda</title><path fill="#464655" d="M29.603 5.516h-27.21c-1.28 0-2.326 1.004-2.393 2.267v16.433c0.067 1.263 1.113 2.267 2.393 2.267h27.21c1.324 0 2.397-1.073 2.397-2.397v-16.174c0-1.324-1.073-2.397-2.397-2.397z"/><path fill="#ffe15a" d="M16.002 6.62l0.7 3.656 2.045-3.11-0.752 3.645 3.080-2.090-2.090 3.080 3.645-0.752-3.11 2.045 3.655 0.7-3.655 0.7 3.11 2.045-3.645-0.752 2.090 3.080-3.080-2.090 0.752 3.645-2.045-3.109-0.7 3.655-0.7-3.655-2.045 3.109 0.752-3.645-3.080 2.090 2.090-3.080-3.645 0.752 3.109-2.045-3.655-0.7 3.655-0.7-3.109-2.045 3.645 0.752-2.090-3.080 3.080 2.090-0.752-3.645 2.045 3.11z"/><path fill="#ff4b55" d="M0.609 6.313c-0.354 0.394-0.579 0.906-0.609 1.47v16.433c0.067 1.263 1.113 2.267 2.393 2.267h13.609l-15.393-20.171z"/><path fill="#ff4b55" d="M16.002 26.484h13.601c1.324 0 2.397-1.073 2.397-2.397v-16.174c0-0.613-0.23-1.171-0.608-1.595l-15.39 20.166z"/><path fill="#4173cd" d="M9.685 18.207h12.633l3.369-4.414h-19.371z"/><path fill="#f5f5f5" d="M9.685 18.207l6.316 8.277 6.316-8.277z"/></svg>