<!-- Generated by IcoMoon.io -->
<svg version="1.1" xmlns="http://www.w3.org/2000/svg" width="32" height="32" viewBox="0 0 32 32">
<title>aruba</title>
<path fill="#4173cd" d="M29.6 26.482h-27.204c-1.323 0-2.396-1.073-2.396-2.396v-16.171c0-1.323 1.073-2.396 2.396-2.396h27.204c1.323 0 2.396 1.073 2.396 2.396v16.171c0 1.323-1.073 2.396-2.396 2.396z"></path>
<path fill="#ffe15a" d="M0.004 19.862h31.996v1.103h-31.996v-1.103z"></path>
<path fill="#ffe15a" d="M0.004 22.069h31.996v1.103h-31.996v-1.103z"></path>
<path fill="#ff4b55" d="M4.080 10.997l-2.053-0.701 2.053-0.701 0.701-2.053 0.701 2.053 2.053 0.701-2.053 0.701-0.701 2.053z"></path>
<path fill="#f5f5f5" d="M4.781 7.911l0.607 1.778 1.778 0.607-1.778 0.607-0.607 1.778-0.607-1.778-1.778-0.607 1.778-0.607 0.607-1.778zM4.781 7.173l-0.795 2.328-2.328 0.795 2.328 0.795 0.795 2.328 0.795-2.328 2.328-0.795-2.328-0.795-0.795-2.328z"></path>
</svg>
