<!-- Generated by IcoMoon.io -->
<svg version="1.1" xmlns="http://www.w3.org/2000/svg" width="32" height="32" viewBox="0 0 32 32">
<title>australia</title>
<path fill="#41479b" d="M29.603 5.517h-27.207c-1.324 0-2.397 1.073-2.397 2.397v16.172c0 1.324 1.073 2.397 2.397 2.397h27.207c1.324 0 2.397-1.073 2.397-2.397v-16.172c0-1.324-1.073-2.397-2.397-2.397z"></path>
<path fill="#f5f5f5" d="M0.552 16h0.958l5.111-3.348v3.348h2.759v-3.348l5.111 3.348h0.958c0.305 0 0.552-0.247 0.552-0.552v-0.438l-4.385-2.873h4.385v-2.759h-4.385l4.385-2.873v-0.438c0-0.305-0.247-0.552-0.552-0.552h-0.958l-5.111 3.348v-3.348h-2.759v3.348l-4.943-3.239c-0.577 0.181-1.060 0.575-1.357 1.090l4.064 2.663h-4.385v2.759h4.385l-4.385 2.873v0.438c0 0.305 0.247 0.552 0.552 0.552z"></path>
<path fill="#ff4b55" d="M16 9.931h-7.172v-4.414h-1.655v4.414h-7.172v1.655h7.172v4.414h1.655v-4.414h7.172z"></path>
<path fill="#ff4b55" d="M0.514 6.431l4.541 2.948h1.013l-5.156-3.347c-0.148 0.117-0.282 0.251-0.399 0.399z"></path>
<path fill="#ff4b55" d="M10.393 9.379l5.523-3.585c-0.096-0.162-0.265-0.277-0.468-0.277h-0.119l-5.95 3.862h1.013z"></path>
<path fill="#ff4b55" d="M5.592 12.138l-5.513 3.579c0.095 0.166 0.267 0.284 0.472 0.284h0.104l5.95-3.862h-1.013z"></path>
<path fill="#ff4b55" d="M15.991 15.492l-5.167-3.354h-1.013l5.867 3.808c0.176-0.082 0.296-0.252 0.313-0.455z"></path>
<path fill="#f5f5f5" d="M8.167 19.008l0.416 1.375 1.335-0.532c0.114-0.045 0.217 0.084 0.148 0.185l-0.815 1.183 1.248 0.712c0.106 0.061 0.069 0.223-0.053 0.231l-1.433 0.1 0.221 1.419c0.019 0.121-0.131 0.193-0.214 0.103l-0.972-1.058-0.972 1.058c-0.083 0.090-0.232 0.018-0.214-0.103l0.221-1.419-1.433-0.1c-0.122-0.009-0.159-0.17-0.053-0.231l1.248-0.712-0.815-1.183c-0.069-0.101 0.034-0.231 0.148-0.185l1.335 0.532 0.416-1.375c0.036-0.117 0.202-0.117 0.237 0z"></path>
<path fill="#f5f5f5" d="M24.58 9.233l0.203 0.672 0.652-0.26c0.056-0.022 0.106 0.041 0.072 0.091l-0.398 0.578 0.609 0.348c0.052 0.030 0.034 0.109-0.026 0.113l-0.7 0.049 0.108 0.693c0.009 0.059-0.064 0.094-0.104 0.050l-0.475-0.517-0.475 0.517c-0.041 0.044-0.114 0.009-0.104-0.050l0.108-0.693-0.7-0.049c-0.060-0.004-0.078-0.083-0.026-0.113l0.609-0.348-0.398-0.578c-0.034-0.049 0.017-0.113 0.072-0.091l0.652 0.26 0.203-0.672c0.018-0.057 0.099-0.057 0.116 0z"></path>
<path fill="#f5f5f5" d="M20.044 14.388l0.203 0.672 0.652-0.26c0.056-0.022 0.106 0.041 0.072 0.091l-0.398 0.578 0.609 0.348c0.052 0.030 0.034 0.109-0.026 0.113l-0.7 0.049 0.108 0.693c0.009 0.059-0.064 0.094-0.104 0.050l-0.475-0.517-0.475 0.517c-0.041 0.044-0.114 0.009-0.104-0.050l0.108-0.693-0.7-0.049c-0.060-0.004-0.078-0.083-0.026-0.113l0.609-0.348-0.398-0.578c-0.034-0.049 0.017-0.113 0.072-0.091l0.652 0.26 0.203-0.672c0.017-0.057 0.099-0.057 0.116 0z"></path>
<path fill="#f5f5f5" d="M28.871 12.181l0.203 0.672 0.652-0.26c0.056-0.022 0.106 0.041 0.072 0.091l-0.398 0.578 0.609 0.348c0.052 0.030 0.034 0.109-0.026 0.113l-0.7 0.049 0.108 0.693c0.009 0.059-0.064 0.094-0.104 0.050l-0.475-0.517-0.475 0.517c-0.041 0.044-0.114 0.009-0.104-0.050l0.108-0.693-0.7-0.049c-0.060-0.004-0.078-0.083-0.026-0.113l0.609-0.348-0.398-0.578c-0.034-0.049 0.017-0.113 0.072-0.091l0.652 0.26 0.203-0.672c0.017-0.057 0.098-0.057 0.116 0z"></path>
<path fill="#f5f5f5" d="M24.58 21.008l0.203 0.672 0.652-0.26c0.056-0.022 0.106 0.041 0.072 0.091l-0.398 0.578 0.609 0.348c0.052 0.030 0.034 0.109-0.026 0.113l-0.7 0.049 0.108 0.693c0.009 0.059-0.064 0.094-0.104 0.050l-0.475-0.517-0.475 0.517c-0.041 0.044-0.114 0.009-0.104-0.050l0.108-0.693-0.7-0.049c-0.060-0.004-0.078-0.083-0.026-0.113l0.609-0.348-0.398-0.578c-0.034-0.049 0.017-0.113 0.072-0.091l0.652 0.26 0.203-0.672c0.018-0.057 0.099-0.057 0.116 0z"></path>
<path fill="#f5f5f5" d="M26.154 15.595l-0.163 0.49-0.516 0.004c-0.067 0.001-0.095 0.086-0.041 0.125l0.415 0.307-0.156 0.492c-0.020 0.064 0.052 0.116 0.107 0.078l0.42-0.3 0.42 0.3c0.054 0.039 0.127-0.014 0.107-0.078l-0.156-0.492 0.415-0.307c0.054-0.040 0.026-0.125-0.041-0.125l-0.516-0.004-0.163-0.49c-0.021-0.063-0.111-0.063-0.132 0z"></path>
</svg>
