<svg xmlns="http://www.w3.org/2000/svg" width="32" height="32" version="1.1" viewBox="0 0 32 32"><title>azerbaijan</title><path fill="#73af00" d="M0 24.217c0.067 1.263 1.113 2.267 2.393 2.267h27.21c1.324 0 2.397-1.073 2.397-2.397v-4.592h-32v4.722z"/><path fill="#82afff" d="M29.603 5.516h-27.21c-1.28 0-2.326 1.004-2.393 2.267v4.722h32v-4.592c0-1.324-1.073-2.397-2.397-2.397z"/><path fill="#ff4b55" d="M0 12.506h32v6.989h-32v-6.989z"/><path fill="#f5f5f5" d="M16.754 18.288c-1.238 0-2.243-1.005-2.243-2.244 0-1.237 1.005-2.244 2.243-2.244 0.461 0 0.886 0.142 1.24 0.382 0.054 0.037 0.116-0.035 0.071-0.082-0.529-0.55-1.278-0.886-2.108-0.857-1.427 0.049-2.608 1.193-2.699 2.617-0.104 1.632 1.188 2.988 2.796 2.988 0.792 0 1.505-0.331 2.013-0.861 0.045-0.047-0.017-0.117-0.071-0.081-0.355 0.241-0.78 0.382-1.242 0.382z"/><path fill="#f5f5f5" d="M18.718 14.663l0.233 0.654 0.627-0.298c0.047-0.023 0.097 0.027 0.074 0.074l-0.298 0.627 0.654 0.233c0.049 0.018 0.049 0.087 0 0.105l-0.654 0.233 0.298 0.627c0.023 0.047-0.027 0.097-0.074 0.074l-0.627-0.298-0.233 0.654c-0.017 0.049-0.087 0.049-0.105 0l-0.233-0.654-0.627 0.298c-0.047 0.023-0.097-0.027-0.074-0.074l0.298-0.627-0.654-0.233c-0.049-0.017-0.049-0.087 0-0.105l0.654-0.233-0.298-0.627c-0.023-0.047 0.027-0.097 0.074-0.074l0.627 0.298 0.233-0.654c0.018-0.049 0.087-0.049 0.105-0z"/></svg>