<!-- Generated by IcoMoon.io -->
<svg version="1.1" xmlns="http://www.w3.org/2000/svg" width="32" height="32" viewBox="0 0 32 32">
<title>azores-islands</title>
<path fill="#41479b" d="M2.393 5.516c-1.28 0-2.326 1.004-2.393 2.267v16.433c0.067 1.263 1.113 2.267 2.393 2.267h10.298v-20.968h-10.298z"></path>
<path fill="#f5f5f5" d="M29.603 5.516h-16.912v20.899h17.483c1.048-0.256 1.826-1.201 1.826-2.328v-16.174c0-1.324-1.073-2.397-2.397-2.397z"></path>
<path fill="#ffe15a" d="M16.413 15.88c-0.232 0-0.458 0.079-0.639 0.224l-1.1 0.88c-0.181 0.145-0.407 0.224-0.639 0.224h-0.305v-0.176c0-0.27 0.219-0.489 0.489-0.489h0.508v-0.237c0-0.236-0.191-0.428-0.428-0.428h-0.237c0-0.183-0.149-0.332-0.332-0.332v0c-0.917 0-1.661 0.744-1.661 1.661h-0.638c-0.232 0-0.458-0.079-0.639-0.224l-1.1-0.88c-0.181-0.145-0.407-0.224-0.639-0.224h-4.845c-0.163 0-0.245 0.197-0.13 0.313l1.677 1.677c0.215 0.215 0.506 0.335 0.809 0.335h1.187l0.974 0.731c0.23 0.172 0.51 0.266 0.797 0.266h1.218c0.209 0 0.406-0.098 0.531-0.266l0.133-0.177v0.775l-0.82 1.639c-0.081 0.162 0.037 0.354 0.219 0.354h2.682c0.135 0 0.244-0.109 0.244-0.244v-2.966l0.465 0.62c0.125 0.167 0.322 0.266 0.531 0.266h1.218c0.288 0 0.567-0.093 0.797-0.266l0.974-0.731h1.187c0.303 0 0.595-0.121 0.809-0.335l1.677-1.677c0.115-0.115 0.034-0.313-0.13-0.313h-4.845z"></path>
<path fill="#ffe15a" d="M12.797 10.498l0.159 0.476 0.502 0.004c0.065 0.001 0.092 0.083 0.040 0.122l-0.404 0.298 0.151 0.479c0.020 0.062-0.051 0.113-0.104 0.075l-0.408-0.292-0.408 0.292c-0.053 0.038-0.123-0.013-0.104-0.075l0.151-0.479-0.404-0.298c-0.052-0.039-0.025-0.121 0.040-0.122l0.502-0.004 0.159-0.476c0.021-0.062 0.108-0.062 0.128 0z"></path>
<path fill="#ffe15a" d="M5.425 13.499l0.449 0.224 0.358-0.352c0.046-0.046 0.124-0.006 0.114 0.058l-0.075 0.496 0.445 0.231c0.058 0.030 0.044 0.116-0.020 0.127l-0.495 0.082-0.082 0.495c-0.011 0.064-0.097 0.078-0.127 0.020l-0.231-0.445-0.496 0.075c-0.064 0.010-0.104-0.068-0.058-0.114l0.352-0.358-0.224-0.449c-0.029-0.058 0.032-0.12 0.091-0.091z"></path>
<path fill="#ffe15a" d="M20.132 13.589l-0.224 0.449 0.352 0.358c0.046 0.046 0.006 0.124-0.058 0.114l-0.496-0.075-0.231 0.445c-0.030 0.058-0.116 0.044-0.127-0.020l-0.082-0.495-0.495-0.082c-0.064-0.011-0.078-0.097-0.020-0.127l0.445-0.231-0.075-0.496c-0.010-0.064 0.068-0.104 0.114-0.058l0.358 0.352 0.449-0.224c0.058-0.029 0.12 0.033 0.091 0.091z"></path>
<path fill="#ffe15a" d="M8.813 11.265l0.329 0.379 0.465-0.188c0.060-0.024 0.117 0.042 0.083 0.098l-0.259 0.43 0.323 0.384c0.042 0.050-0.004 0.124-0.067 0.109l-0.489-0.113-0.266 0.426c-0.034 0.055-0.119 0.035-0.125-0.030l-0.043-0.5-0.487-0.121c-0.063-0.016-0.070-0.103-0.010-0.128l0.462-0.196-0.036-0.501c-0.005-0.065 0.076-0.098 0.118-0.049z"></path>
<path fill="#ffe15a" d="M16.772 11.314l-0.035 0.501 0.462 0.196c0.060 0.025 0.053 0.112-0.010 0.128l-0.487 0.121-0.043 0.5c-0.006 0.065-0.090 0.085-0.125 0.030l-0.266-0.426-0.489 0.113c-0.063 0.015-0.109-0.060-0.067-0.109l0.323-0.384-0.259-0.43c-0.034-0.056 0.023-0.122 0.083-0.098l0.465 0.188 0.329-0.379c0.043-0.049 0.123-0.016 0.119 0.049z"></path>
<path fill="#ffe15a" d="M10.767 10.685l0.249 0.436 0.493-0.094c0.064-0.012 0.106 0.064 0.063 0.112l-0.338 0.371 0.242 0.44c0.031 0.057-0.028 0.121-0.087 0.094l-0.457-0.207-0.344 0.366c-0.044 0.047-0.124 0.011-0.117-0.054l0.055-0.499-0.454-0.214c-0.059-0.028-0.049-0.114 0.015-0.127l0.492-0.102 0.063-0.498c0.008-0.064 0.094-0.081 0.126-0.025z"></path>
<path fill="#ffe15a" d="M18.564 12.286l-0.133 0.484 0.415 0.282c0.054 0.037 0.030 0.12-0.035 0.123l-0.501 0.024-0.14 0.482c-0.018 0.062-0.105 0.066-0.128 0.005l-0.177-0.47-0.502 0.016c-0.065 0.002-0.095-0.080-0.044-0.12l0.392-0.314-0.17-0.472c-0.022-0.061 0.047-0.115 0.101-0.079l0.419 0.276 0.396-0.308c0.052-0.040 0.124 0.009 0.107 0.071z"></path>
<path fill="#ffe15a" d="M7.009 12.215l0.396 0.308 0.42-0.276c0.054-0.036 0.123 0.018 0.101 0.079l-0.17 0.472 0.392 0.314c0.051 0.041 0.021 0.122-0.044 0.12l-0.502-0.016-0.177 0.47c-0.023 0.061-0.11 0.057-0.128-0.005l-0.14-0.482-0.501-0.024c-0.065-0.003-0.089-0.087-0.035-0.123l0.415-0.282-0.133-0.484c-0.017-0.063 0.055-0.111 0.107-0.071z"></path>
<path fill="#ffe15a" d="M14.825 10.71l0.063 0.498 0.492 0.102c0.064 0.013 0.074 0.1 0.015 0.127l-0.454 0.214 0.055 0.499c0.007 0.065-0.072 0.101-0.117 0.054l-0.344-0.366-0.457 0.207c-0.059 0.027-0.118-0.037-0.087-0.094l0.242-0.44-0.338-0.371c-0.044-0.048-0.001-0.124 0.063-0.112l0.493 0.094 0.249-0.436c0.032-0.057 0.118-0.040 0.126 0.025z"></path>
<path fill="#ff4b55" d="M4.512 7.885v1.428c0 0.591-0.481 1.071-1.071 1.071s-1.071-0.481-1.071-1.071v-1.428h2.142zM4.869 7.171h-2.856c-0.197 0-0.357 0.16-0.357 0.357v1.785c0 0.986 0.799 1.785 1.785 1.785s1.785-0.799 1.785-1.785v-1.785c-0-0.197-0.16-0.357-0.357-0.357v0z"></path>
<path fill="#f5f5f5" d="M4.512 7.885v1.428c0 0.591-0.481 1.071-1.071 1.071s-1.071-0.481-1.071-1.071v-1.428h2.142z"></path>
<path fill="#ffe15a" d="M2.188 7.528c0 0.099-0.080 0.178-0.179 0.178s-0.179-0.080-0.179-0.178c0-0.099 0.080-0.178 0.179-0.178s0.179 0.080 0.179 0.178z"></path>
<path fill="#ffe15a" d="M5.045 7.528c0 0.099-0.080 0.178-0.178 0.178s-0.178-0.080-0.178-0.178c0-0.099 0.080-0.178 0.178-0.178s0.178 0.080 0.178 0.178z"></path>
<path fill="#ffe15a" d="M2.188 8.957c0 0.099-0.080 0.178-0.179 0.178s-0.179-0.080-0.179-0.178c0-0.099 0.080-0.178 0.179-0.178s0.179 0.080 0.179 0.178z"></path>
<path fill="#ffe15a" d="M5.045 8.957c0 0.099-0.080 0.178-0.178 0.178s-0.178-0.080-0.178-0.178c0-0.099 0.080-0.178 0.178-0.178s0.178 0.080 0.178 0.178z"></path>
<path fill="#ffe15a" d="M3.617 7.528c0 0.099-0.080 0.178-0.179 0.178s-0.179-0.080-0.179-0.178c0-0.099 0.080-0.178 0.179-0.178s0.179 0.080 0.179 0.178z"></path>
<path fill="#ffe15a" d="M4.688 10.274c0 0.099-0.080 0.178-0.178 0.178s-0.178-0.080-0.178-0.178c0-0.099 0.080-0.178 0.178-0.178s0.178 0.080 0.178 0.178z"></path>
<path fill="#ffe15a" d="M2.565 10.274c0 0.099-0.080 0.178-0.179 0.178s-0.179-0.080-0.179-0.178c0-0.099 0.080-0.178 0.179-0.178s0.179 0.080 0.179 0.178z"></path>
<path fill="#41479b" d="M3.671 8.866v0.307c0 0.127-0.103 0.231-0.231 0.231s-0.231-0.103-0.231-0.231v-0.307h0.461z"></path>
<path fill="#41479b" d="M3.671 8.137v0.307c0 0.127-0.103 0.231-0.231 0.231s-0.231-0.103-0.231-0.231v-0.307h0.461z"></path>
<path fill="#41479b" d="M3.671 9.603v0.307c0 0.127-0.103 0.231-0.231 0.231s-0.231-0.103-0.231-0.231v-0.307h0.461z"></path>
<path fill="#41479b" d="M4.292 8.866v0.307c0 0.127-0.103 0.231-0.231 0.231s-0.231-0.103-0.231-0.231v-0.307h0.461z"></path>
<path fill="#41479b" d="M3.050 8.866v0.307c0 0.127-0.103 0.231-0.231 0.231s-0.231-0.103-0.231-0.231v-0.307h0.461z"></path>
</svg>
