<!-- Generated by IcoMoon.io -->
<svg version="1.1" xmlns="http://www.w3.org/2000/svg" width="32" height="32" viewBox="0 0 32 32">
<title>bahrain</title>
<path fill="#f5f5f5" d="M2.397 26.483h6.431l4.414-1.31-4.414-1.31 4.414-1.31-4.414-1.31 4.414-1.31-4.414-1.31 4.414-1.31-4.414-1.31 4.414-1.31-4.414-1.31 4.414-1.31-4.414-1.31 4.414-1.31-4.414-1.31 4.414-1.31-4.414-1.31h-6.431c-1.324 0-2.397 1.073-2.397 2.397v16.172c0 1.324 1.073 2.396 2.397 2.396z"></path>
<path fill="#ff4b55" d="M8.828 8.138l4.414 1.31-4.414 1.31 4.414 1.31-4.414 1.31 4.414 1.31-4.414 1.31 4.414 1.31-4.414 1.31 4.414 1.31-4.414 1.31 4.414 1.31-4.414 1.31 4.414 1.31-4.414 1.31h20.776c1.324 0 2.397-1.073 2.397-2.397v-16.173c0-1.324-1.073-2.397-2.397-2.397h-20.776l4.414 1.31-4.414 1.31z"></path>
</svg>
