<svg xmlns="http://www.w3.org/2000/svg" width="32" height="32" version="1.1" viewBox="0 0 32 32"><title>balearic-islands</title><path fill="#ffe15a" d="M29.603 5.517h-27.207c-1.301 0-2.359 1.037-2.395 2.33h31.997c-0.036-1.293-1.094-2.329-2.395-2.329z"/><path fill="#ff4b55" d="M32 7.914c0-0.022-0.001-0.045-0.002-0.067h-31.997c-0.001 0.022-0.002 0.045-0.002 0.067v2.262h32v-2.262z"/><path fill="#ffe15a" d="M0 10.176h32v2.329h-32v-2.329z"/><path fill="#ff4b55" d="M0 12.506h32v2.329h-32v-2.329z"/><path fill="#ffe15a" d="M0 14.835h32v2.329h-32v-2.329z"/><path fill="#ffe15a" d="M2.397 26.483h27.207c1.301 0 2.359-1.037 2.395-2.329h-31.997c0.036 1.293 1.094 2.329 2.395 2.329z"/><path fill="#ff4b55" d="M0 17.165h32v2.329h-32v-2.329z"/><path fill="#ffe15a" d="M0 19.494h32v2.329h-32v-2.329z"/><path fill="#ff4b55" d="M31.998 24.153c0.001-0.022 0.002-0.045 0.002-0.067v-2.262h-32v2.262c0 0.023 0.001 0.045 0.002 0.067h31.997z"/><path fill="#64466e" d="M0.552 16h14.897c0.305 0 0.552-0.247 0.552-0.552v-9.379c0-0.305-0.247-0.552-0.551-0.552h-13.052c-1.324 0-2.397 1.073-2.397 2.397v7.534c0 0.305 0.247 0.552 0.552 0.552z"/><path fill="#f5f5f5" d="M14.715 10.163h-1.27v-1.452h0.181v-0.363h-1.815v0.363h0.181v1.452h-0.726v-1.452h0.181v-0.363h-1.815v0.363h0.181v1.452h-1.089v-1.815h0.181v-0.363h-1.815v0.363h0.181v1.815h-1.089v-1.452h0.181v-0.363h-1.815v0.363h0.181v1.452h-0.726v-1.452h0.181v-0.363h-1.815v0.363h0.181v1.452h-1.452v0.363h0.181v3.267h2.541v-1.089c0-0.2 0.163-0.363 0.363-0.363s0.363 0.163 0.363 0.363v1.089h1.815v-1.089c0-0.2 0.162-0.363 0.363-0.363s0.363 0.163 0.363 0.363v1.089h0.363v-1.27c0-0.301 0.244-0.544 0.545-0.544s0.545 0.244 0.545 0.544v1.27h0.363v-1.089c0-0.2 0.162-0.363 0.363-0.363s0.363 0.163 0.363 0.363v1.089h1.815v-1.089c0-0.2 0.162-0.363 0.363-0.363s0.363 0.163 0.363 0.363v1.089h2.541v-3.267h0.181v-0.363l-0.181-0zM3.644 11.615h-0.726v-1.089c0-0.2 0.163-0.363 0.363-0.363s0.363 0.163 0.363 0.363v1.089zM5.822 11.615h-0.726v-1.089c0-0.2 0.162-0.363 0.363-0.363s0.363 0.163 0.363 0.363l0 1.089zM8.363 10.526h-0.726v-0.726c0-0.2 0.162-0.363 0.363-0.363s0.363 0.163 0.363 0.363l0 0.726zM10.904 11.615h-0.726v-1.089c0-0.2 0.162-0.363 0.363-0.363s0.363 0.163 0.363 0.363l0 1.089zM13.082 11.615h-0.726v-1.089c0-0.2 0.162-0.363 0.363-0.363s0.363 0.163 0.363 0.363l0 1.089z"/></svg>