<svg xmlns="http://www.w3.org/2000/svg" width="32" height="32" version="1.1" viewBox="0 0 32 32"><title>basque-country</title><path fill="#ff4b55" d="M29.603 26.483h-27.207c-1.324 0-2.397-1.073-2.397-2.397v-16.172c0-1.324 1.073-2.397 2.397-2.397h27.207c1.324 0 2.397 1.073 2.397 2.397v16.172c0 1.324-1.073 2.397-2.397 2.397z"/><path fill="#73af00" d="M29.603 5.517h-0.12l-13.483 8.834-13.483-8.834h-0.12c-1.086 0-2.003 0.723-2.297 1.714l13.384 8.769-13.384 8.769c0.294 0.991 1.211 1.714 2.297 1.714h0.12l13.483-8.834 13.483 8.834h0.12c1.086 0 2.003-0.723 2.297-1.714l-13.384-8.769 13.384-8.769c-0.294-0.991-1.211-1.714-2.297-1.714z"/><path fill="#f5f5f5" d="M32 14.621h-14.621v-9.103h-2.759v9.103h-14.621v2.759h14.621v9.103h2.759v-9.103h14.621z"/></svg>