<svg xmlns="http://www.w3.org/2000/svg" width="32" height="32" version="1.1" viewBox="0 0 32 32"><title>belgium</title><path fill="#ffe15a" d="M29.612 26.483h-27.218c-1.319 0-2.394-1.069-2.394-2.394v-16.178c0-1.325 1.075-2.394 2.394-2.394h27.212c1.325 0 2.394 1.075 2.394 2.394v16.178c0.006 1.325-1.069 2.394-2.388 2.394z"/><path fill="#464655" d="M2.394 5.517c-1.319 0-2.394 1.069-2.394 2.394v16.178c0 1.325 1.075 2.394 2.394 2.394h8.27v-20.967h-8.27z"/><path fill="#ff4b55" d="M29.612 5.517h-8.277v20.967h8.27c1.325 0 2.394-1.075 2.394-2.394v-16.178c0.006-1.325-1.069-2.394-2.388-2.394z"/></svg>