<svg xmlns="http://www.w3.org/2000/svg" width="32" height="32" version="1.1" viewBox="0 0 32 32"><title>belize</title><path fill="#ff4b55" d="M31.988 7.726c-0.092-1.236-1.132-2.208-2.388-2.208h-27.208c-1.256 0-2.288 0.968-2.388 2.208h-0.004v16.552h0.008c0.092 1.236 1.128 2.204 2.384 2.204h27.208c1.264 0 2.292-0.976 2.388-2.208h0.012v-16.548h-0.012z"/><path fill="#41479b" d="M0 7.726h32v16.552h-32v-16.552z"/><path fill="#f5f5f5" d="M23.176 16.002c0 3.963-3.213 7.176-7.176 7.176s-7.176-3.213-7.176-7.176c0-3.963 3.213-7.176 7.176-7.176s7.176 3.213 7.176 7.176z"/><path fill="#82afff" d="M14.624 19.77l-1.108 0.188c-0.136 0.024-0.268-0.080-0.268-0.224v-0.42h1.376v0.456z"/><path fill="#82afff" d="M17.368 19.77l1.108 0.188c0.136 0.024 0.268-0.080 0.268-0.224v-0.42h-1.376v0.456z"/><path fill="#965032" d="M15.768 12.326h-0.092c-0.112 0-0.22-0.064-0.268-0.168l-0.168-0.336 0.156-0.076 0.168 0.336c0.024 0.044 0.068 0.068 0.12 0.068h0.092v0.176h-0.008z"/><path fill="#965032" d="M14.129 12.617l-0.283-0.565 0.15-0.075 0.283 0.565-0.15 0.075z"/><path fill="#965032" d="M16.312 14.97l-0.468-0.468c-0.1-0.1-0.164-0.244-0.164-0.388v-0.156c0-0.056-0.012-0.12-0.036-0.168l-0.12-0.232c-0.024-0.052-0.076-0.080-0.124-0.080h-0.408c-0.12 0-0.224-0.068-0.28-0.176l-0.164-0.332 0.156-0.076 0.164 0.332c0.024 0.052 0.076 0.080 0.124 0.080h0.408c0.12 0 0.224 0.068 0.28 0.176l0.12 0.232c0.036 0.076 0.056 0.164 0.056 0.244v0.156c0 0.1 0.036 0.192 0.112 0.264l0.176 0.176v-0.8c0-0.22-0.076-0.432-0.212-0.6-0.164-0.2-0.252-0.452-0.252-0.708v-0.664h0.168v0.664c0 0.22 0.076 0.432 0.212 0.6 0.164 0.2 0.252 0.452 0.252 0.708v1.216z"/><path fill="#965032" d="M15.9 14.526h-0.256c-0.156 0-0.3-0.1-0.356-0.244l-0.064-0.176 0.164-0.064 0.064 0.176c0.032 0.080 0.108 0.132 0.192 0.132h0.256v0.176z"/><path fill="#965032" d="M15.798 13.782l-0.154-0.068 0.965-2.189 0.154 0.068-0.965 2.189z"/><path fill="#965032" d="M17 13.478h-0.832v-0.176h0.656v-0.832h0.176z"/><path fill="#73af00" d="M15.424 14.302h-0.688c-0.188 0-0.344-0.156-0.344-0.344v0c0-0.188 0.156-0.344 0.344-0.344h0.688c0.188 0 0.344 0.156 0.344 0.344v0c0 0.196-0.156 0.344-0.344 0.344z"/><path fill="#73af00" d="M17.024 14.302h-0.688c-0.188 0-0.344-0.156-0.344-0.344v0c0-0.188 0.156-0.344 0.344-0.344h0.688c0.188 0 0.344 0.156 0.344 0.344v0c0 0.196-0.148 0.344-0.344 0.344z"/><path fill="#73af00" d="M17.712 13.614h-0.912c-0.188 0-0.344-0.156-0.344-0.344v0c0-0.188 0.156-0.344 0.344-0.344h0.912c0.188 0 0.344 0.156 0.344 0.344v0c0 0.196-0.156 0.344-0.344 0.344z"/><path fill="#73af00" d="M17.944 12.702h-1.6c-0.188 0-0.344-0.156-0.344-0.344v0c0-0.188 0.156-0.344 0.344-0.344h1.6c0.188 0 0.344 0.156 0.344 0.344v0c0 0.188-0.156 0.344-0.344 0.344z"/><path fill="#73af00" d="M17.024 11.79h-0.456c-0.188 0-0.344-0.156-0.344-0.344v0c0-0.188 0.156-0.344 0.344-0.344h0.456c0.188 0 0.344 0.156 0.344 0.344v0c0 0.188-0.148 0.344-0.344 0.344z"/><path fill="#73af00" d="M14.052 12.246h-0.232c-0.188 0-0.344-0.156-0.344-0.344v0c0-0.188 0.156-0.344 0.344-0.344h0.232c0.188 0 0.344 0.156 0.344 0.344v0c-0.004 0.188-0.152 0.344-0.344 0.344z"/><path fill="#73af00" d="M15.656 12.014h-0.688c-0.188 0-0.344-0.156-0.344-0.344v0c0-0.188 0.156-0.344 0.344-0.344h0.688c0.188 0 0.344 0.156 0.344 0.344v0c-0.008 0.196-0.156 0.344-0.344 0.344z"/><path fill="#73af00" d="M15.424 13.158h-1.376c-0.188 0-0.344-0.156-0.344-0.344v0c0-0.188 0.156-0.344 0.344-0.344h1.376c0.188 0 0.344 0.156 0.344 0.344v0c0 0.196-0.156 0.344-0.344 0.344z"/><path fill="#73af00" d="M19.432 17.946h-6.868c-0.252 0-0.456 0.208-0.456 0.456s0.208 0.456 0.456 0.456h1.832c0 0.252 0.208 0.456 0.456 0.456h2.288c0.252 0 0.456-0.208 0.456-0.456h1.832c0.252 0 0.456-0.208 0.456-0.456 0.004-0.256-0.204-0.456-0.452-0.456z"/><path fill="#be7855" d="M20.556 13.882c-0.020-0.032-0.108 0.008-0.164-0.012-0.692-0.256-1.62-0.724-2.224-1.044l-0.12-0.192-1.148-0.556c-0.076-0.036-0.164-0.008-0.2 0.064l-0.056 0.1c-0.044 0.076-0.012 0.176 0.064 0.212l1.092 0.568 0.312-0.024 1.2 0.62c0 0 0.82 0.42 0.864 0.452s0.068 0.2 0.152 0.188c0.052-0.020 0.304-0.224 0.228-0.376z"/><path fill="#ffbe3c" d="M12.976 18.282c0 0 0.076 0.336 0.008 0.376-0.068 0.036-0.452 0.036-0.444-0.044 0.012-0.080 0.064-0.368 0.064-0.368l0.372 0.036z"/><path fill="#ffbe3c" d="M13.608 18.102c0 0-0.064 0.252 0.064 0.264s0.824 0.008 0.844-0.012c0.020-0.020 0.044-0.068 0.044-0.068l-0.652-0.18h-0.3v-0.004z"/><path fill="#eaf3f5" d="M12.892 14.954c0 0-0.168 0.408-0.232 1.808-0.020 0.376 0.032 0.288-0.156 1.488l0.22 0.112c0.064 0.032 0.144 0.032 0.208-0.008l0.212-0.132c0 0-0.108-1.344 0.236-2.12 0 0 0.18 0.332 0.18 0.58s-0.012 1.436-0.012 1.436 0.4 0.068 0.58 0.052c0 0-0.112-2.588-0.232-3.192l-1.004-0.024z"/><path fill="#965032" d="M12.932 14.782c0 0-0.068 0.052-0.032 0.168 0 0 0.524 0.224 1.012 0.032 0 0 0.056-0.080-0.012-0.176l-0.968-0.024z"/><path fill="#965032" d="M12.232 13.546c-0.3 0.112-0.752 0.388-0.72 0.608s0.18 0.168 0.232 0.112 0.188-0.224 0.232-0.256c0.044-0.032 0.744-0.392 0.744-0.392l1.864-0.956c0 0 0.012-0.092-0.092-0.168-0.012-0.004-1.148 0.632-2.26 1.052z"/><path fill="#ffbe3c" d="M13.108 12.466l-0.012 0.080c0 0-0.032 0.508 0.136 0.636 0 0 0.036 0.108-0.020 0.156-0.056 0.052-0.624 0.336-0.624 0.336s-0.144 0.308-0.144 0.476c0 0-0.136-0.056-0.124-0.12 0.012-0.068 0.092-0.244 0.068-0.332s-0.12-0.064-0.12-0.064-0.044 0.052 0.032 0.080l-0.024 0.108-0.308 0.18 0.068 0.080c0 0 0.008 0.632 0.376 0.712 0 0 0.192 0.012 0.432-0.432 0 0 0.124 0.22 0.080 0.412 0 0 0.408 0.22 0.964 0.032l0.008-0.388c0 0 0.088 0.592 0.38 0.536 0 0 0.812-0.312 0.676-0.432-0.312-0.276-0.692-0.044-0.692-0.044-0.020-0.4-0.052-0.92-0.108-0.976-0.088-0.092-0.352-0.044-0.4-0.164-0.052-0.12-0.036-0.332 0.020-0.576s-0.232-0.412-0.232-0.412l-0.432 0.116z"/><path fill="#464655" d="M13.1 12.546c0 0 0.292 0.076 0.52-0.020l0.1 0.252h0.056c0 0 0.136-0.456-0.044-0.456 0 0 0-0.152-0.32-0.144-0.276 0.004-0.376 0.188-0.312 0.368z"/><path fill="#965032" d="M19.056 18.282c0 0-0.076 0.336-0.008 0.376 0.068 0.036 0.452 0.036 0.444-0.044-0.012-0.080-0.064-0.368-0.064-0.368l-0.372 0.036z"/><path fill="#965032" d="M18.424 18.102c0 0 0.064 0.252-0.064 0.264s-0.824 0.008-0.844-0.012c-0.020-0.020-0.044-0.068-0.044-0.068l0.648-0.18h0.304v-0.004z"/><path fill="#eaf3f5" d="M19.132 14.954c0 0 0.168 0.408 0.232 1.808 0.020 0.376-0.032 0.288 0.156 1.488l-0.22 0.112c-0.064 0.032-0.144 0.032-0.208-0.008l-0.212-0.132c0 0 0.108-1.344-0.236-2.12 0 0-0.18 0.332-0.18 0.58s0.012 1.436 0.012 1.436-0.4 0.068-0.58 0.052c0 0 0.112-2.588 0.232-3.192l1.004-0.024z"/><path fill="#be7855" d="M19.1 14.782c0 0 0.068 0.052 0.032 0.168 0 0-0.524 0.224-1.012 0.032 0 0-0.056-0.080 0.012-0.176l0.968-0.024z"/><path fill="#965032" d="M18.924 12.466l0.012 0.080c0 0 0.032 0.508-0.136 0.636 0 0-0.036 0.108 0.020 0.156 0.056 0.052 0.624 0.336 0.624 0.336s0.144 0.308 0.144 0.476c0 0 0.136-0.056 0.124-0.12-0.012-0.068-0.092-0.244-0.068-0.332s0.12-0.064 0.12-0.064 0.044 0.052-0.032 0.080l0.024 0.108 0.308 0.18-0.068 0.080c0 0-0.008 0.632-0.376 0.712 0 0-0.192 0.012-0.432-0.432 0 0-0.124 0.22-0.080 0.412 0 0-0.408 0.22-0.964 0.032l-0.008-0.388c0 0-0.088 0.592-0.38 0.536 0 0-0.812-0.312-0.676-0.432 0.312-0.276 0.692-0.044 0.692-0.044 0.020-0.4 0.052-0.92 0.108-0.976 0.088-0.092 0.352-0.044 0.4-0.164 0.052-0.12 0.036-0.332-0.020-0.576s0.232-0.412 0.232-0.412l0.432 0.116z"/><path fill="#464655" d="M18.932 12.546c0 0-0.292 0.076-0.52-0.020l-0.1 0.252h-0.056c0 0-0.136-0.456 0.044-0.456 0 0 0-0.152 0.32-0.144 0.272 0.004 0.372 0.188 0.312 0.368z"/><path fill="#eaf3f5" d="M14.032 12.734c-0.024-0.056 0.020-0.076 0.020-0.076s0.288-0.156 0.324-0.156c0.056 0.008 0.124 0.1 0.124 0.188 0 0.080 0.108 0.3 0.332 0.356 0 0-0.28 0.38-0.668 0.324-0.008 0 0.016-0.256-0.132-0.636z"/><path fill="#82afff" d="M14.436 14.51c-0.088 0-0.156 0.076-0.156 0.164v1.892c0 0.456 0.212 2.064 1.72 2.52 1.5-0.456 1.72-2.064 1.72-2.52v-1.892c0-0.092-0.068-0.164-0.156-0.164h-3.128z"/><path fill="#ffe15a" d="M17.712 16.57v-1.892c0-0.092-0.068-0.164-0.156-0.164h-1.564v1.6l1.508 1.508c0.168-0.444 0.212-0.852 0.212-1.052z"/><path fill="#eaf3f5" d="M14.28 16.57v-1.892c0-0.092 0.068-0.164 0.156-0.164h1.564v1.6l-1.508 1.508c-0.172-0.444-0.212-0.852-0.212-1.052z"/><path fill="#8c5a28" d="M14.98 17.57l0.4 0.42h1.108l0.232-0.3-0.268 0.112h-0.896z"/><path fill="#f5f5f5" d="M15.412 17.026l-0.064 0.612-0.276-0.108c0.004 0.004 0.128-0.292 0.34-0.504z"/><path fill="#8c5a28" d="M15.956 16.79h0.044v1.044h-0.044v-1.044z"/><path fill="#8c5a28" d="M16.332 16.878h0.044v0.952h-0.044v-0.952z"/><path fill="#8c5a28" d="M15.58 16.878h0.044v0.952h-0.044v-0.952z"/><path fill="#f5f5f5" d="M16.112 17.726h-0.276c-0.020 0-0.032-0.012-0.032-0.032v-0.148c0-0.020 0.012-0.032 0.032-0.032h0.276c0.020 0 0.032 0.012 0.032 0.032v0.148c0.008 0.020-0.012 0.032-0.032 0.032z"/><path fill="#f5f5f5" d="M16.112 17.438h-0.276c-0.020 0-0.032-0.012-0.032-0.032v-0.156c0-0.020 0.012-0.032 0.032-0.032h0.276c0.020 0 0.032 0.012 0.032 0.032v0.152c0.008 0.020-0.012 0.036-0.032 0.036z"/><path fill="#f5f5f5" d="M16.112 17.166h-0.276c-0.020 0-0.032-0.012-0.032-0.032v-0.148c0-0.020 0.012-0.032 0.032-0.032h0.276c0.020 0 0.032 0.012 0.032 0.032v0.148c0.008 0.020-0.012 0.032-0.032 0.032z"/><path fill="#f5f5f5" d="M16.468 17.726h-0.232c-0.020 0-0.032-0.012-0.032-0.032v-0.148c0-0.020 0.012-0.032 0.032-0.032h0.232c0.020 0 0.032 0.012 0.032 0.032v0.148c0 0.020-0.012 0.032-0.032 0.032z"/><path fill="#f5f5f5" d="M16.468 17.458h-0.232c-0.020 0-0.032-0.012-0.032-0.032v-0.12c0-0.020 0.012-0.032 0.032-0.032h0.232c0.020 0 0.032 0.012 0.032 0.032v0.12c0 0.020-0.012 0.032-0.032 0.032z"/><path fill="#f5f5f5" d="M16.468 17.194h-0.232c-0.020 0-0.032-0.012-0.032-0.032v-0.088c0-0.020 0.012-0.032 0.032-0.032h0.232c0.020 0 0.032 0.012 0.032 0.032v0.088c0 0.016-0.012 0.032-0.032 0.032z"/><path fill="#f5f5f5" d="M15.712 17.726h-0.232c-0.020 0-0.032-0.012-0.032-0.032v-0.148c0-0.020 0.012-0.032 0.032-0.032h0.232c0.020 0 0.032 0.012 0.032 0.032v0.148c0.008 0.020-0.012 0.032-0.032 0.032z"/><path fill="#f5f5f5" d="M15.712 17.458h-0.232c-0.020 0-0.032-0.012-0.032-0.032v-0.12c0-0.020 0.012-0.032 0.032-0.032h0.232c0.020 0 0.032 0.012 0.032 0.032v0.12c0.008 0.020-0.012 0.032-0.032 0.032z"/><path fill="#f5f5f5" d="M15.712 17.194h-0.232c-0.020 0-0.032-0.012-0.032-0.032v-0.088c0-0.020 0.012-0.032 0.032-0.032h0.232c0.020 0 0.032 0.012 0.032 0.032v0.088c0.008 0.016-0.012 0.032-0.032 0.032z"/><path fill="#ff4b55" d="M16.332 16.878v0.124l-0.18-0.064z"/><path fill="#ff4b55" d="M15.58 16.878v0.124l-0.18-0.064z"/><path fill="#ff4b55" d="M15.956 16.79v0.12l-0.18-0.064z"/><path fill="#4173cd" d="M17.356 17.946h-2.724c0.036 0.076 0.088 0.156 0.136 0.232h2.456c0.052-0.084 0.096-0.156 0.132-0.232z"/><path fill="#73af00" d="M17.224 18.17h-2.456c0.108 0.164 0.244 0.32 0.4 0.456h1.652c0.16-0.136 0.292-0.292 0.404-0.456v0z"/><path fill="#ffe15a" d="M15.168 18.626c0.22 0.192 0.488 0.356 0.824 0.456 0.336-0.1 0.608-0.264 0.824-0.456h-1.648z"/><path fill="#be7855" d="M15.7 16.246c0 0-0.020 0.008-0.036 0.008-0.012-0.008-0.044-0.008-0.024-0.064 0.008-0.024 0.024-0.064 0.012-0.076s-0.020-0.024-0.032-0.036c-0.024-0.024-0.052-0.056-0.080-0.092-0.064-0.068-0.132-0.144-0.212-0.22-0.044-0.036-0.080-0.076-0.124-0.12-0.044-0.036-0.088-0.080-0.136-0.12-0.024-0.012-0.064-0.024-0.092-0.032-0.032-0.012-0.052-0.036-0.068-0.056-0.044-0.036-0.088-0.080-0.124-0.12-0.080-0.076-0.156-0.148-0.22-0.212s-0.112-0.112-0.144-0.152c-0.032-0.036-0.032-0.092 0.008-0.124l0.1-0.1c0.036-0.032 0.092-0.032 0.124 0 0.036 0.036 0.088 0.088 0.152 0.148s0.132 0.144 0.208 0.224c0.036 0.044 0.076 0.088 0.112 0.132 0.020 0.024 0.044 0.044 0.052 0.076 0.012 0.032 0.020 0.068 0.032 0.092 0.032 0.052 0.076 0.092 0.112 0.136s0.076 0.088 0.112 0.132 0.144 0.164 0.212 0.224c0.032 0.032 0.064 0.056 0.088 0.080 0.012 0.012 0.024 0.024 0.036 0.036 0.008 0.012 0.044-0.008 0.076-0.012 0.056-0.012 0.056 0.012 0.056 0.024 0 0.020-0.008 0.036-0.008 0.036l-0.192 0.188z"/><path fill="#965032" d="M14.58 16.426c-0.020 0-0.036-0.008-0.052-0.020-0.036-0.032-0.044-0.080-0.020-0.12l0.812-1.108c0.024-0.036 0.080-0.044 0.12-0.020 0.036 0.032 0.044 0.080 0.020 0.12l-0.812 1.108c-0.016 0.028-0.040 0.040-0.068 0.040z"/><path fill="#f5f5f5" d="M15.232 15.11l0.424 0.28 0.18-0.252-0.392-0.316z"/><path fill="#965032" d="M16.364 15.002l1.088 1.344c0 0 0.152 0.008 0.132-0.112l-1.124-1.32-0.096 0.088z"/><path fill="#eaf3f5" d="M16.12 15.19c0 0 0.308-0.056 0.432-0.244l0.176 0.208c0 0-0.288 0.2-0.312 0.42-0.004-0.008-0.236-0.072-0.296-0.384z"/><path fill="#965032" d="M17.292 15.054c-0.020 0-0.036-0.012-0.052-0.032-0.032-0.056-0.036-0.112-0.020-0.156 0.032-0.064 0.092-0.080 0.108-0.088 0.032-0.008 0.064 0.012 0.068 0.036 0.008 0.032-0.012 0.064-0.036 0.068-0.008 0-0.024 0.012-0.032 0.024s0 0.036 0.012 0.064c0.012 0.024 0.008 0.064-0.024 0.076-0.004 0.008-0.016 0.008-0.024 0.008z"/><path fill="#965032" d="M16.4 15.882c0-0.020-0.012-0.036-0.032-0.052-0.056-0.032-0.112-0.036-0.156-0.020-0.064 0.032-0.080 0.092-0.088 0.108-0.008 0.032 0.012 0.064 0.036 0.068 0.032 0.008 0.064-0.012 0.068-0.036 0-0.008 0.012-0.024 0.024-0.032s0.036 0 0.064 0.012c0.024 0.012 0.064 0.008 0.076-0.024 0.008-0.004 0.008-0.016 0.008-0.024z"/><path fill="#eaf3f5" d="M17.332 14.926l-1.024 1.008 0.236 0.268 1.004-1.008z"/><path fill="#ffbe3c" d="M12.132 13.482c0.068-0.020 0.132 0.076 0.068 0.144s-0.244 0.188-0.292 0.176c-0.1-0.020-0.172-0.232 0.224-0.32z"/><path fill="#965032" d="M19.892 13.578c-0.064-0.020-0.12 0.076-0.064 0.144s0.224 0.188 0.276 0.176c0.096-0.020 0.152-0.228-0.212-0.32z"/><path fill="#464655" d="M17.556 14.51c0.088 0 0.156 0.076 0.156 0.164v1.892c0 0.456-0.212 2.064-1.72 2.52-1.5-0.456-1.72-2.064-1.72-2.52v-1.892c0-0.092 0.068-0.164 0.156-0.164h3.128zM17.556 14.394h-3.12c-0.152 0-0.268 0.124-0.268 0.28v1.892c0 0.108 0.012 0.688 0.308 1.308 0.312 0.664 0.824 1.12 1.492 1.32l0.032 0.012 0.032-0.012c0.668-0.2 1.18-0.656 1.492-1.32 0.292-0.62 0.308-1.2 0.308-1.308v-1.892c-0.008-0.152-0.124-0.28-0.276-0.28v0z"/><path fill="#eaf3f5" d="M18.744 19.114c-0.488-0.164-1.008-0.088-1.5 0.236-0.632 0.42-1.044 0.42-1.244 0.42s-0.62 0-1.244-0.42c-0.492-0.324-1.012-0.408-1.5-0.236v0.488c0.308-0.144 0.736-0.208 1.244 0.132 0.744 0.492 1.276 0.492 1.5 0.492s0.756 0 1.5-0.492c0.508-0.336 0.936-0.276 1.244-0.132v-0.488z"/><path fill="#965032" d="M15.992 21.722c-3.22 0-5.836-2.62-5.836-5.836s2.62-5.836 5.836-5.836 5.84 2.616 5.84 5.832-2.62 5.84-5.84 5.84zM15.992 10.278c-3.092 0-5.608 2.512-5.608 5.608s2.512 5.608 5.608 5.608 5.608-2.516 5.608-5.612-2.512-5.604-5.608-5.604z"/><path fill="#73af00" d="M9.612 16.37c0 0-0.024-0.712 0.664-0.712 0 0 0.012 0.28-0.232 0.408-0.2 0.092-0.432 0.304-0.432 0.304z"/><path fill="#73af00" d="M10.936 16.37c0 0 0.024-0.712-0.664-0.712 0 0-0.012 0.28 0.232 0.408 0.208 0.092 0.432 0.304 0.432 0.304z"/><path fill="#73af00" d="M22.376 15.654c0 0 0.024 0.712-0.664 0.712 0 0-0.012-0.28 0.232-0.408 0.2-0.092 0.432-0.304 0.432-0.304z"/><path fill="#73af00" d="M21.052 15.654c0 0-0.024 0.712 0.664 0.712 0 0 0.012-0.28-0.232-0.408-0.208-0.092-0.432-0.304-0.432-0.304z"/><path fill="#73af00" d="M16.352 22.394c0 0-0.712 0.024-0.712-0.664 0 0 0.28-0.012 0.408 0.232 0.096 0.204 0.304 0.432 0.304 0.432z"/><path fill="#73af00" d="M16.352 21.066c0 0-0.712-0.024-0.712 0.664 0 0 0.28 0.012 0.408-0.232 0.096-0.204 0.304-0.432 0.304-0.432z"/><path fill="#73af00" d="M15.636 9.634c0 0 0.712-0.024 0.712 0.664 0 0-0.28 0.012-0.408-0.232-0.096-0.208-0.304-0.432-0.304-0.432z"/><path fill="#73af00" d="M15.636 10.958c0 0 0.712 0.024 0.712-0.664 0 0-0.28-0.012-0.408 0.232-0.096 0.2-0.304 0.432-0.304 0.432z"/><path fill="#73af00" d="M11.736 20.778c0 0-0.524-0.488-0.036-0.976 0 0 0.208 0.188 0.12 0.452-0.068 0.212-0.084 0.524-0.084 0.524z"/><path fill="#73af00" d="M12.676 19.838c0 0-0.488-0.524-0.976-0.036 0 0 0.188 0.208 0.452 0.12 0.212-0.068 0.524-0.084 0.524-0.084z"/><path fill="#73af00" d="M20.256 11.246c0 0 0.524 0.488 0.036 0.976 0 0-0.208-0.188-0.12-0.452 0.064-0.212 0.084-0.524 0.084-0.524z"/><path fill="#73af00" d="M19.32 12.182c0 0 0.488 0.524 0.976 0.036 0 0-0.188-0.208-0.452-0.12-0.22 0.072-0.524 0.084-0.524 0.084z"/><path fill="#73af00" d="M20.756 20.27c0 0-0.488 0.524-0.976 0.036 0 0 0.188-0.208 0.452-0.12 0.22 0.072 0.524 0.084 0.524 0.084z"/><path fill="#73af00" d="M19.82 19.334c0 0-0.524 0.488-0.036 0.976 0 0 0.208-0.188 0.12-0.452-0.068-0.212-0.084-0.524-0.084-0.524z"/><path fill="#73af00" d="M11.232 11.754c0 0 0.488-0.524 0.976-0.036 0 0-0.188 0.208-0.452 0.12-0.22-0.072-0.524-0.084-0.524-0.084z"/><path fill="#73af00" d="M12.168 12.69c0 0 0.524-0.488 0.036-0.976 0 0-0.208 0.188-0.12 0.452 0.072 0.216 0.084 0.524 0.084 0.524z"/><path fill="#73af00" d="M10.236 18.782c0 0-0.292-0.652 0.336-0.912 0 0 0.12 0.256-0.064 0.464-0.14 0.168-0.272 0.448-0.272 0.448z"/><path fill="#73af00" d="M11.464 18.278c0 0-0.252-0.668-0.888-0.408 0 0 0.092 0.264 0.368 0.288 0.224 0.012 0.52 0.12 0.52 0.12z"/><path fill="#73af00" d="M21.752 13.238c0 0 0.292 0.652-0.336 0.912 0 0-0.12-0.256 0.064-0.464 0.14-0.164 0.272-0.448 0.272-0.448z"/><path fill="#73af00" d="M20.524 13.746c0 0 0.252 0.668 0.888 0.408 0 0-0.092-0.264-0.368-0.288-0.224-0.012-0.52-0.12-0.52-0.12z"/><path fill="#73af00" d="M18.768 21.77c0 0-0.648 0.292-0.912-0.336 0 0 0.256-0.12 0.464 0.064 0.168 0.14 0.448 0.272 0.448 0.272z"/><path fill="#73af00" d="M18.256 20.546c0 0-0.668 0.252-0.408 0.888 0 0 0.264-0.092 0.288-0.368 0.016-0.228 0.12-0.52 0.12-0.52z"/><path fill="#73af00" d="M13.224 10.254c0 0 0.652-0.292 0.912 0.336 0 0-0.256 0.12-0.464-0.064-0.164-0.144-0.448-0.272-0.448-0.272z"/><path fill="#73af00" d="M13.732 11.478c0 0 0.668-0.252 0.408-0.888 0 0-0.264 0.092-0.288 0.368-0.016 0.232-0.12 0.52-0.12 0.52z"/><path fill="#73af00" d="M13.88 22.046c0 0-0.668-0.252-0.408-0.888 0 0 0.264 0.092 0.288 0.368 0.016 0.228 0.12 0.52 0.12 0.52z"/><path fill="#73af00" d="M14.388 20.822c0 0-0.652-0.292-0.912 0.336 0 0 0.256 0.12 0.464-0.064 0.168-0.14 0.448-0.272 0.448-0.272z"/><path fill="#73af00" d="M18.108 9.982c0 0 0.668 0.252 0.408 0.888 0 0-0.264-0.092-0.288-0.368-0.016-0.232-0.12-0.52-0.12-0.52z"/><path fill="#73af00" d="M17.6 11.202c0 0 0.652 0.292 0.912-0.336 0 0-0.256-0.12-0.464 0.064-0.168 0.148-0.448 0.272-0.448 0.272z"/><path fill="#73af00" d="M22.024 18.122c0 0-0.252 0.668-0.888 0.408 0 0 0.092-0.264 0.368-0.288 0.232-0.016 0.52-0.12 0.52-0.12z"/><path fill="#73af00" d="M20.8 17.614c0 0-0.292 0.652 0.336 0.912 0 0 0.12-0.256-0.064-0.464-0.14-0.168-0.272-0.448-0.272-0.448z"/><path fill="#73af00" d="M9.964 13.902c0 0 0.252-0.668 0.888-0.408 0 0-0.092 0.264-0.368 0.288-0.228 0.012-0.52 0.12-0.52 0.12z"/><path fill="#73af00" d="M11.188 14.41c0 0 0.292-0.652-0.336-0.912 0 0-0.12 0.256 0.064 0.464 0.14 0.164 0.272 0.448 0.272 0.448z"/><path fill="#73af00" d="M9.808 17.61c0 0-0.164-0.692 0.512-0.832 0 0 0.068 0.276-0.152 0.444-0.18 0.136-0.36 0.388-0.36 0.388z"/><path fill="#73af00" d="M11.108 17.354c0 0-0.12-0.708-0.788-0.576 0 0 0.044 0.28 0.308 0.352 0.216 0.060 0.48 0.224 0.48 0.224z"/><path fill="#73af00" d="M22.18 14.414c0 0 0.164 0.692-0.512 0.832 0 0-0.068-0.276 0.148-0.444 0.184-0.136 0.364-0.388 0.364-0.388z"/><path fill="#73af00" d="M20.88 14.678c0 0 0.12 0.708 0.788 0.576 0 0-0.044-0.28-0.308-0.352-0.208-0.064-0.48-0.224-0.48-0.224z"/><path fill="#73af00" d="M17.588 22.202c0 0-0.692 0.164-0.832-0.512 0 0 0.276-0.068 0.444 0.152 0.136 0.172 0.388 0.36 0.388 0.36z"/><path fill="#73af00" d="M17.332 20.902c0 0-0.708 0.12-0.576 0.788 0 0 0.28-0.044 0.352-0.308 0.060-0.216 0.224-0.48 0.224-0.48z"/><path fill="#73af00" d="M14.4 9.826c0 0 0.692-0.164 0.832 0.512 0 0-0.276 0.068-0.444-0.152-0.136-0.176-0.388-0.36-0.388-0.36z"/><path fill="#73af00" d="M14.656 11.126c0 0 0.708-0.12 0.576-0.788 0 0-0.28 0.044-0.352 0.308-0.060 0.212-0.224 0.48-0.224 0.48z"/><path fill="#73af00" d="M12.744 21.514c0 0-0.608-0.376-0.224-0.952 0 0 0.244 0.144 0.208 0.42-0.028 0.228 0.016 0.532 0.016 0.532z"/><path fill="#73af00" d="M13.48 20.414c0 0-0.58-0.42-0.964 0.156 0 0 0.224 0.168 0.468 0.032 0.196-0.112 0.496-0.188 0.496-0.188z"/><path fill="#73af00" d="M19.244 10.51c0 0 0.608 0.376 0.224 0.952 0 0-0.244-0.144-0.208-0.42 0.028-0.228-0.016-0.532-0.016-0.532z"/><path fill="#73af00" d="M18.508 11.61c0 0 0.58 0.42 0.964-0.156 0 0-0.224-0.168-0.468-0.032-0.196 0.116-0.496 0.188-0.496 0.188z"/><path fill="#73af00" d="M21.5 19.258c0 0-0.376 0.608-0.952 0.224 0 0 0.144-0.244 0.42-0.208 0.224 0.036 0.532-0.016 0.532-0.016z"/><path fill="#73af00" d="M20.392 18.522c0 0-0.42 0.58 0.156 0.964 0 0 0.168-0.224 0.032-0.468-0.112-0.192-0.188-0.496-0.188-0.496z"/><path fill="#73af00" d="M10.488 12.766c0 0 0.376-0.608 0.952-0.224 0 0-0.144 0.244-0.42 0.208-0.228-0.036-0.532 0.016-0.532 0.016z"/><path fill="#73af00" d="M11.592 13.502c0 0 0.42-0.58-0.156-0.964 0 0-0.168 0.224-0.032 0.468 0.116 0.196 0.188 0.496 0.188 0.496z"/><path fill="#73af00" d="M10.888 19.854c0 0-0.42-0.58 0.156-0.964 0 0 0.168 0.224 0.032 0.468-0.112 0.192-0.188 0.496-0.188 0.496z"/><path fill="#73af00" d="M11.988 19.122c0 0-0.376-0.608-0.952-0.224 0 0 0.144 0.244 0.42 0.208 0.224-0.036 0.532 0.016 0.532 0.016z"/><path fill="#73af00" d="M21.1 12.17c0 0 0.42 0.58-0.156 0.964 0 0-0.168-0.224-0.032-0.468 0.112-0.196 0.188-0.496 0.188-0.496z"/><path fill="#73af00" d="M20 12.91c0 0 0.376 0.608 0.952 0.224 0 0-0.144-0.244-0.42-0.208-0.224 0.028-0.532-0.016-0.532-0.016z"/><path fill="#73af00" d="M19.836 21.122c0 0-0.58 0.42-0.964-0.156 0 0 0.224-0.168 0.468-0.032 0.196 0.112 0.496 0.188 0.496 0.188z"/><path fill="#73af00" d="M19.1 20.014c0 0-0.608 0.376-0.224 0.952 0 0 0.244-0.144 0.208-0.42-0.036-0.224 0.016-0.532 0.016-0.532z"/><path fill="#73af00" d="M12.152 10.91c0 0 0.58-0.42 0.964 0.156 0 0-0.224 0.168-0.468 0.032-0.192-0.12-0.496-0.188-0.496-0.188z"/><path fill="#73af00" d="M12.888 12.010c0 0 0.608-0.376 0.224-0.952 0 0-0.244 0.144-0.208 0.42 0.032 0.224-0.016 0.532-0.016 0.532z"/><path fill="#73af00" d="M15.1 22.338c0 0-0.708-0.12-0.576-0.788 0 0 0.28 0.044 0.352 0.308 0.060 0.22 0.224 0.48 0.224 0.48z"/><path fill="#73af00" d="M15.356 21.038c0 0-0.692-0.164-0.832 0.512 0 0 0.276 0.068 0.444-0.148 0.14-0.18 0.388-0.364 0.388-0.364z"/><path fill="#73af00" d="M16.888 9.682c0 0 0.708 0.12 0.576 0.788 0 0-0.28-0.044-0.352-0.308-0.064-0.208-0.224-0.48-0.224-0.48z"/><path fill="#73af00" d="M16.632 10.982c0 0 0.692 0.164 0.832-0.512 0 0-0.276-0.068-0.444 0.152-0.14 0.18-0.388 0.36-0.388 0.36z"/><path fill="#73af00" d="M22.324 16.91c0 0-0.12 0.708-0.788 0.576 0 0 0.044-0.28 0.308-0.352 0.212-0.068 0.48-0.224 0.48-0.224z"/><path fill="#73af00" d="M21.024 16.646c0 0-0.164 0.692 0.512 0.832 0 0 0.068-0.276-0.152-0.444-0.176-0.14-0.36-0.388-0.36-0.388z"/><path fill="#73af00" d="M9.668 15.122c0 0 0.12-0.708 0.788-0.576 0 0-0.044 0.28-0.308 0.352-0.216 0.060-0.48 0.224-0.48 0.224z"/><path fill="#73af00" d="M10.968 15.378c0 0 0.164-0.692-0.512-0.832 0 0-0.068 0.276 0.152 0.444 0.172 0.136 0.36 0.388 0.36 0.388z"/></svg>