<svg xmlns="http://www.w3.org/2000/svg" width="32" height="32" version="1.1" viewBox="0 0 32 32"><title>bonaire</title><path fill="#41479b" d="M31.951 7.431c-0.016-0.078-0.036-0.155-0.059-0.23s-0.050-0.149-0.081-0.22c-0.045-0.107-0.099-0.211-0.159-0.31s-0.127-0.193-0.2-0.282c-0.073-0.089-0.153-0.172-0.238-0.25-0.023-0.021-0.047-0.041-0.071-0.062l-30.288 19.844c0.417 0.35 0.954 0.561 1.54 0.561h27.207c1.324 0 2.397-1.073 2.397-2.397v-16.172c0-0.165-0.017-0.327-0.049-0.483z"/><path fill="#f5f5f5" d="M31.037 5.993c-0.061-0.046-0.125-0.089-0.191-0.129-0.362-0.22-0.788-0.347-1.243-0.347h-15.555l-14.049 9.204v9.365c0 0.737 0.333 1.396 0.856 1.836l30.288-19.843c-0.035-0.029-0.070-0.058-0.106-0.085z"/><path fill="#ffe15a" d="M2.397 5.517c-0.455 0-0.88 0.127-1.243 0.347-0.066 0.040-0.13 0.083-0.191 0.129s-0.121 0.095-0.177 0.146c-0.085 0.077-0.165 0.161-0.238 0.25s-0.14 0.183-0.2 0.282c-0.060 0.099-0.113 0.202-0.159 0.31-0.030 0.072-0.057 0.145-0.081 0.22s-0.043 0.152-0.059 0.23c-0.032 0.156-0.049 0.318-0.049 0.483v6.808l14.049-9.204h-11.652z"/><path fill="#464655" d="M12.642 14.321c-0.25-1.671-1.568-2.989-3.239-3.239l-0.575-1.151-0.575 1.151c-1.671 0.25-2.989 1.568-3.239 3.239l-1.151 0.575 1.151 0.575c0.25 1.671 1.568 2.989 3.239 3.239l0.575 1.151 0.575-1.151c1.671-0.25 2.989-1.568 3.239-3.239l1.151-0.575-1.151-0.575zM8.828 18.207c-1.828 0-3.31-1.482-3.31-3.31s1.482-3.31 3.31-3.31 3.31 1.482 3.31 3.31c0 1.828-1.482 3.31-3.31 3.31z"/><path fill="#ff4b55" d="M8.828 12.775l0.594 1.093 1.243-0.032-0.649 1.061 0.649 1.061-1.243-0.032-0.594 1.093-0.594-1.093-1.243 0.032 0.649-1.061-0.649-1.061 1.243 0.032z"/></svg>