<!-- Generated by IcoMoon.io -->
<svg version="1.1" xmlns="http://www.w3.org/2000/svg" width="32" height="32" viewBox="0 0 32 32">
<title>brazil</title>
<path fill="#73af00" d="M29.603 5.517h-27.207c-1.324 0-2.397 1.073-2.397 2.397v16.172c0 1.324 1.073 2.397 2.397 2.397h27.207c1.324 0 2.397-1.073 2.397-2.397v-16.172c0-1.324-1.073-2.397-2.397-2.397z"></path>
<path fill="#ffe15a" d="M15.713 8.45l-11.629 7.078c-0.353 0.215-0.353 0.728 0 0.943l11.629 7.078c0.176 0.107 0.397 0.107 0.574 0l11.628-7.078c0.353-0.215 0.353-0.728 0-0.943l-11.629-7.078c-0.176-0.107-0.398-0.107-0.574 0z"></path>
<path fill="#41479b" d="M20.414 16c0 2.438-1.976 4.414-4.414 4.414s-4.414-1.976-4.414-4.414c0-2.438 1.976-4.414 4.414-4.414s4.414 1.976 4.414 4.414z"></path>
<path fill="#f5f5f5" d="M12.213 13.742c-0.208 0.349-0.369 0.727-0.475 1.13 2.447-0.184 6.066 0.5 8.37 2.736 0.15-0.384 0.25-0.793 0.287-1.22-2.379-2.002-5.667-2.714-8.182-2.646z"></path>
<path fill="#f5f5f5" d="M16.183 17.506l0.117 0.352 0.371 0.003c0.048 0 0.068 0.062 0.029 0.090l-0.299 0.221 0.112 0.354c0.015 0.046-0.038 0.084-0.077 0.056l-0.302-0.216-0.302 0.216c-0.039 0.028-0.091-0.010-0.077-0.056l0.112-0.354-0.299-0.221c-0.039-0.029-0.019-0.090 0.029-0.090l0.371-0.003 0.118-0.352c0.015-0.046 0.080-0.046 0.095 0z"></path>
<path fill="#f5f5f5" d="M17.627 18.418l0.051 0.152 0.16 0.001c0.021 0 0.029 0.027 0.013 0.039l-0.129 0.095 0.048 0.152c0.006 0.020-0.016 0.036-0.033 0.024l-0.13-0.093-0.13 0.093c-0.017 0.012-0.039-0.004-0.033-0.024l0.048-0.152-0.129-0.095c-0.017-0.012-0.008-0.039 0.013-0.039l0.16-0.001 0.051-0.152c0.007-0.020 0.035-0.020 0.041 0z"></path>
<path fill="#f5f5f5" d="M15.559 16.837l0.051 0.152 0.16 0.001c0.021 0 0.029 0.027 0.013 0.039l-0.129 0.095 0.048 0.152c0.006 0.020-0.016 0.036-0.033 0.024l-0.13-0.093-0.13 0.093c-0.017 0.012-0.039-0.004-0.033-0.024l0.048-0.152-0.129-0.095c-0.017-0.012-0.008-0.039 0.013-0.039l0.16-0.001 0.051-0.152c0.007-0.020 0.034-0.020 0.041 0z"></path>
<path fill="#f5f5f5" d="M12.758 16.653l0.051 0.152 0.16 0.001c0.021 0 0.029 0.027 0.013 0.039l-0.129 0.095 0.048 0.152c0.006 0.020-0.016 0.036-0.033 0.024l-0.13-0.093-0.13 0.093c-0.017 0.012-0.039-0.004-0.033-0.024l0.048-0.152-0.129-0.095c-0.017-0.012-0.008-0.039 0.013-0.039l0.16-0.001 0.051-0.152c0.007-0.020 0.034-0.020 0.041 0z"></path>
<path fill="#f5f5f5" d="M15.101 18.365l0.051 0.152 0.16 0.001c0.021 0 0.029 0.027 0.013 0.039l-0.129 0.095 0.048 0.152c0.006 0.020-0.016 0.036-0.033 0.024l-0.13-0.093-0.13 0.093c-0.017 0.012-0.039-0.004-0.033-0.024l0.048-0.152-0.129-0.095c-0.017-0.012-0.008-0.039 0.013-0.039l0.16-0.001 0.051-0.152c0.007-0.020 0.035-0.020 0.041 0z"></path>
<path fill="#f5f5f5" d="M13.812 16.547l0.041 0.124 0.131 0.001c0.017 0 0.024 0.022 0.010 0.032l-0.105 0.078 0.039 0.125c0.005 0.016-0.013 0.029-0.027 0.020l-0.106-0.076-0.106 0.076c-0.014 0.010-0.032-0.003-0.027-0.020l0.039-0.125-0.105-0.078c-0.014-0.010-0.007-0.032 0.010-0.032l0.131-0.001 0.041-0.124c0.005-0.016 0.028-0.016 0.033 0z"></path>
<path fill="#f5f5f5" d="M17.739 13.987l0.052 0.155 0.163 0.001c0.021 0 0.030 0.027 0.013 0.040l-0.131 0.097 0.049 0.156c0.006 0.020-0.017 0.037-0.034 0.025l-0.133-0.095-0.133 0.095c-0.017 0.012-0.040-0.004-0.034-0.025l0.049-0.156-0.131-0.097c-0.017-0.013-0.008-0.040 0.013-0.040l0.163-0.001 0.052-0.155c0.007-0.020 0.035-0.020 0.042 0z"></path>
<path fill="#f5f5f5" d="M12.938 15.788l0.041 0.124 0.131 0.001c0.017 0 0.024 0.022 0.010 0.032l-0.105 0.078 0.039 0.125c0.005 0.016-0.013 0.029-0.027 0.020l-0.106-0.076-0.106 0.076c-0.014 0.010-0.032-0.003-0.027-0.020l0.039-0.125-0.105-0.078c-0.014-0.010-0.007-0.032 0.010-0.032l0.131-0.001 0.041-0.124c0.005-0.016 0.028-0.016 0.033 0z"></path>
<path fill="#f5f5f5" d="M13.569 17.536l0.063 0.188 0.198 0.002c0.026 0 0.036 0.033 0.016 0.048l-0.159 0.118 0.060 0.189c0.008 0.024-0.020 0.045-0.041 0.030l-0.161-0.115-0.161 0.115c-0.021 0.015-0.049-0.005-0.041-0.030l0.060-0.189-0.159-0.118c-0.021-0.015-0.010-0.048 0.016-0.048l0.198-0.002 0.063-0.188c0.008-0.024 0.043-0.024 0.051 0z"></path>
<path fill="#f5f5f5" d="M18.431 18.457l0.039 0.118 0.125 0.001c0.016 0 0.023 0.021 0.010 0.030l-0.1 0.074 0.038 0.119c0.005 0.015-0.013 0.028-0.026 0.019l-0.101-0.072-0.101 0.072c-0.013 0.009-0.031-0.003-0.026-0.019l0.038-0.119-0.1-0.074c-0.013-0.010-0.006-0.030 0.010-0.030l0.125-0.001 0.039-0.118c0.005-0.015 0.027-0.015 0.032 0z"></path>
<path fill="#f5f5f5" d="M18.867 17.555l0.051 0.152 0.16 0.001c0.021 0 0.029 0.027 0.013 0.039l-0.129 0.095 0.048 0.152c0.006 0.020-0.016 0.036-0.033 0.024l-0.13-0.093-0.13 0.093c-0.017 0.012-0.039-0.004-0.033-0.024l0.048-0.152-0.129-0.095c-0.017-0.012-0.008-0.039 0.013-0.039l0.16-0.001 0.051-0.152c0.007-0.020 0.034-0.020 0.041 0z"></path>
</svg>
