<svg xmlns="http://www.w3.org/2000/svg" width="32" height="32" version="1.1" viewBox="0 0 32 32"><title>british-columbia</title><path fill="#41479b" d="M14.087 5.517h-10.221l10.221 3.348z"/><path fill="#41479b" d="M32 9.379v-1.466c0-0.472-0.137-0.913-0.373-1.284l-8.392 2.749h8.766z"/><path fill="#41479b" d="M28.141 5.517h-10.221v3.348z"/><path fill="#41479b" d="M0.375 6.628c-0.215 0.337-0.348 0.732-0.371 1.156v1.595h8.769l-8.398-2.751z"/><path fill="#41479b" d="M32 15.009v-2.871h-8.766z"/><path fill="#41479b" d="M0.004 12.138v2.873l8.769-2.873z"/><path fill="#41479b" d="M17.92 16h10.221l-10.221-3.348z"/><path fill="#41479b" d="M3.866 16h10.221v-3.348z"/><path fill="#f5f5f5" d="M6.396 23.379c1.599 0 1.599-0.483 3.199-0.483s1.6 0.483 3.2 0.483 1.6-0.483 3.2-0.483c1.6 0 1.6 0.483 3.2 0.483s1.6-0.483 3.199-0.483c1.6 0 1.6 0.483 3.199 0.483 1.601 0 1.601-0.483 3.202-0.483 1.602 0 1.602 0.483 3.204 0.483v-1.448c-1.602 0-1.602-0.483-3.204-0.483-1.601 0-1.601 0.483-3.202 0.483-1.6 0-1.6-0.483-3.199-0.483s-1.6 0.483-3.199 0.483c-1.6 0-1.6-0.483-3.2-0.483s-1.6 0.483-3.2 0.483-1.6-0.483-3.2-0.483c-1.599 0-1.599 0.483-3.199 0.483s-1.598-0.483-3.197-0.483c-1.598 0-1.6 0.482-3.195 0.483v1.448c1.596-0.001 1.597-0.483 3.195-0.483s1.599 0.483 3.197 0.483z"/><path fill="#f5f5f5" d="M6.396 20.483c1.599 0 1.599-0.483 3.199-0.483s1.6 0.483 3.2 0.483 1.6-0.483 3.2-0.483c1.6 0 1.6 0.483 3.2 0.483s1.6-0.483 3.199-0.483c1.6 0 1.6 0.483 3.199 0.483 1.601 0 1.601-0.483 3.202-0.483 1.602 0 1.602 0.483 3.204 0.483v-1.448c-1.602 0-1.602-0.483-3.204-0.483-1.601 0-1.601 0.483-3.202 0.483-1.6 0-1.6-0.483-3.199-0.483s-1.6 0.483-3.199 0.483c-1.6 0-1.6-0.483-3.2-0.483s-1.6 0.483-3.2 0.483-1.6-0.483-3.2-0.483c-1.599 0-1.599 0.483-3.199 0.483s-1.598-0.483-3.197-0.483c-1.598 0-1.6 0.482-3.195 0.483v1.448c1.596-0.001 1.597-0.483 3.195-0.483s1.599 0.483 3.197 0.483z"/><path fill="#f5f5f5" d="M6.396 17.586c1.599 0 1.599-0.483 3.199-0.483s1.6 0.483 3.2 0.483 1.6-0.483 3.2-0.483c1.6 0 1.6 0.483 3.2 0.483s1.6-0.483 3.199-0.483c1.6 0 1.6 0.483 3.199 0.483 1.601 0 1.601-0.483 3.202-0.483 1.602 0 1.602 0.483 3.204 0.483v-1.586h-31.996v1.586c1.596-0.001 1.597-0.483 3.195-0.483s1.599 0.483 3.197 0.483z"/><path fill="#f5f5f5" d="M25.593 24.827c-1.6 0-1.6-0.483-3.199-0.483s-1.6 0.483-3.199 0.483c-1.6 0-1.6-0.483-3.2-0.483s-1.6 0.483-3.2 0.483-1.6-0.483-3.2-0.483c-1.599 0-1.599 0.483-3.199 0.483s-1.598-0.483-3.197-0.483c-1.559 0-1.599 0.459-3.082 0.482 0.312 0.961 1.214 1.656 2.279 1.656h27.207c1.065 0 1.968-0.695 2.279-1.656-1.485-0.023-1.525-0.482-3.087-0.482-1.601 0-1.601 0.483-3.202 0.483z"/><path fill="#f5f5f5" d="M16.831 16h1.089v-3.348l10.221 3.348h3.381l-11.897-3.862h2.027l10.347 3.358v-0.487l-8.766-2.871h8.766v-0.552h-15.169z"/><path fill="#f5f5f5" d="M13.215 12.138l-11.899 3.862h2.55l10.221-3.348v3.348h1.089v-4.414h-15.172v0.552h8.769l-8.769 2.873v0.756l11.184-3.629z"/><path fill="#f5f5f5" d="M32 9.931v-0.552h-8.766l8.392-2.749c-0.144-0.226-0.325-0.427-0.534-0.593l-10.303 3.342h-2.027l11.56-3.752c-0.227-0.071-0.469-0.11-0.719-0.11h-1.462l-10.221 3.348v-3.348h-1.089v4.414l15.169-0z"/><path fill="#f5f5f5" d="M15.176 5.517h-1.089v3.348l-10.221-3.348h-1.469c-0.433 0-0.838 0.115-1.188 0.316l10.933 3.546h-2.027l-9.489-3.080c-0.093 0.102-0.177 0.212-0.251 0.329l8.398 2.751h-8.769v0.552h15.172v-4.414z"/><path fill="#ff4b55" d="M16.831 9.931h15.169v1.655h-15.169v-1.655z"/><path fill="#ff4b55" d="M0.004 9.931h15.172v1.655h-15.172v-1.655z"/><path fill="#ff4b55" d="M15.176 11.586v4.414h1.655v-10.483h-1.655v4.414z"/><path fill="#ff4b55" d="M13.215 12.138h-2.027l-11.184 3.629v0.233h1.312z"/><path fill="#ff4b55" d="M19.626 12.138l11.897 3.862h0.477v-0.504l-10.347-3.358z"/><path fill="#41479b" d="M6.396 19.034c1.599 0 1.599-0.483 3.199-0.483s1.6 0.483 3.2 0.483 1.6-0.483 3.2-0.483c1.6 0 1.6 0.483 3.2 0.483s1.6-0.483 3.199-0.483c1.6 0 1.6 0.483 3.199 0.483 1.601 0 1.601-0.483 3.202-0.483 1.602 0 1.602 0.483 3.204 0.483v-1.448c-1.602 0-1.602-0.483-3.204-0.483-1.601 0-1.601 0.483-3.202 0.483-1.6 0-1.6-0.483-3.199-0.483s-1.6 0.483-3.199 0.483c-1.6 0-1.6-0.483-3.2-0.483s-1.6 0.483-3.2 0.483-1.6-0.483-3.2-0.483c-1.599 0-1.599 0.483-3.199 0.483s-1.598-0.483-3.197-0.483c-1.598 0-1.6 0.482-3.195 0.483-0.001 0-0.002 0-0.004 0v1.448c0.001 0 0.002 0 0.004 0 1.596-0.001 1.597-0.483 3.195-0.483s1.599 0.483 3.197 0.483z"/><path fill="#41479b" d="M6.396 21.931c1.599 0 1.599-0.483 3.199-0.483s1.6 0.483 3.2 0.483 1.6-0.483 3.2-0.483c1.6 0 1.6 0.483 3.2 0.483s1.6-0.483 3.199-0.483c1.6 0 1.6 0.483 3.199 0.483 1.601 0 1.601-0.483 3.202-0.483 1.602 0 1.602 0.483 3.204 0.483v-1.448c-1.602 0-1.602-0.483-3.204-0.483-1.601 0-1.601 0.483-3.202 0.483-1.6 0-1.6-0.483-3.199-0.483s-1.6 0.483-3.199 0.483c-1.6 0-1.6-0.483-3.2-0.483s-1.6 0.483-3.2 0.483-1.6-0.483-3.2-0.483c-1.599 0-1.599 0.483-3.199 0.483s-1.598-0.483-3.197-0.483c-1.598 0-1.6 0.482-3.195 0.483-0.001 0-0.002 0-0.004 0v1.448c0.001 0 0.002 0 0.004 0 1.596-0.001 1.597-0.483 3.195-0.483s1.599 0.483 3.197 0.483z"/><path fill="#41479b" d="M0.117 24.826c1.483-0.023 1.523-0.482 3.082-0.482 1.599 0 1.599 0.483 3.197 0.483s1.599-0.483 3.199-0.483c1.6 0 1.6 0.483 3.2 0.483s1.6-0.483 3.2-0.483 1.6 0.483 3.2 0.483c1.6 0 1.6-0.483 3.199-0.483s1.6 0.483 3.199 0.483c1.601 0 1.601-0.483 3.202-0.483 1.562 0 1.602 0.459 3.087 0.482 0.076-0.233 0.117-0.482 0.117-0.74v-0.707c-1.602 0-1.602-0.483-3.204-0.483-1.601 0-1.601 0.483-3.202 0.483-1.6 0-1.6-0.483-3.199-0.483s-1.6 0.483-3.199 0.483c-1.6 0-1.6-0.483-3.2-0.483s-1.6 0.483-3.2 0.483-1.6-0.483-3.2-0.483c-1.599 0-1.599 0.483-3.199 0.483s-1.598-0.483-3.197-0.483c-1.598 0-1.6 0.482-3.195 0.483-0.001 0-0.002 0-0.004 0v0.707c-0 0.258 0.041 0.507 0.117 0.74z"/><path fill="#ff4b55" d="M12.141 9.379l-10.933-3.546c-0.218 0.125-0.415 0.282-0.583 0.467l9.489 3.080h2.027z"/><path fill="#ff4b55" d="M20.789 9.379l10.304-3.342c-0.227-0.18-0.487-0.321-0.77-0.41l-11.56 3.752h2.027z"/><path fill="#ffe15a" d="M18.832 9.797l-0.814 0.421-0.321-0.748c-0.033-0.077-0.166-0.091-0.224-0.023l-0.663 0.771-0.693-1.075c-0.047-0.072-0.179-0.072-0.226 0l-0.693 1.075-0.663-0.771c-0.058-0.068-0.191-0.054-0.225 0.023l-0.321 0.748-0.814-0.421c-0.108-0.056-0.241 0.035-0.183 0.125l0.795 1.233h-0.034c-0.092 0-0.167 0.058-0.167 0.13v0.366c0 0.072 0.075 0.13 0.167 0.13h4.501c0.092 0 0.167-0.058 0.167-0.13v-0.366c0-0.072-0.075-0.13-0.167-0.13h-0.034l0.795-1.233c0.058-0.090-0.075-0.181-0.183-0.125z"/><path fill="#ffe15a" d="M25.106 25.74c1.159-0.597 1.576-1.492 1.727-1.825 0.23-0.504 1.297-0.91 1.297-0.91s-1.318 0.006-2.023 0.922c-0.65 0.844-1.821 0.917-2.95 1.563-0.108-0.135-0.218-0.268-0.333-0.397l3.518-4.259-4.259 3.518c-0.167-0.149-0.339-0.291-0.517-0.427 0.112-0.291 0.333-0.742 0.768-1.255 0.842-0.995 0.885-1.981 0.898-2.347 0.020-0.553 0.85-1.337 0.85-1.337s-1.215 0.51-1.516 1.626c-0.277 1.028-1.33 1.543-2.126 2.571-0.151-0.084-0.304-0.165-0.46-0.241l1.62-5.278-2.588 4.879c-0.211-0.073-0.424-0.14-0.641-0.198-0.008-0.312 0.025-0.813 0.229-1.451 0.397-1.241 0.059-2.169-0.069-2.512-0.194-0.519 0.273-1.56 0.273-1.56s-0.927 0.936-0.779 2.083c0.137 1.056-0.639 1.936-0.981 3.19-0.171-0.019-0.343-0.035-0.517-0.045l-0.524-5.499-0.524 5.499c-0.225 0.013-0.447 0.035-0.667 0.064-0.127-0.285-0.289-0.761-0.345-1.431-0.108-1.299-0.775-2.027-1.024-2.294-0.377-0.405-0.345-1.546-0.345-1.546s-0.499 1.22 0.078 2.222c0.531 0.923 0.151 2.032 0.315 3.322-0.167 0.048-0.332 0.099-0.495 0.156l-2.588-4.879 1.62 5.278c-0.202 0.098-0.399 0.205-0.592 0.316-0.226-0.215-0.558-0.592-0.865-1.189-0.597-1.159-1.492-1.576-1.825-1.727-0.504-0.23-0.91-1.297-0.91-1.297s0.006 1.318 0.922 2.023c0.844 0.65 0.917 1.821 1.563 2.95-0.135 0.108-0.268 0.218-0.397 0.333l-4.259-3.518 3.518 4.259c-0.149 0.167-0.291 0.339-0.427 0.517-0.291-0.112-0.742-0.333-1.255-0.768-0.995-0.842-1.981-0.885-2.347-0.898-0.553-0.020-1.337-0.85-1.337-0.85s0.51 1.215 1.626 1.516c0.922 0.249 1.435 1.121 2.272 1.872h16.327c0.225-0.215 0.564-0.486 1.063-0.743z"/><path fill="#ffe15a" d="M27.804 26.483l1.707-0.905-2.951 0.905z"/><path fill="#ffe15a" d="M2.496 25.577l1.707 0.905h1.243z"/></svg>