<!-- Generated by IcoMoon.io -->
<svg version="1.1" xmlns="http://www.w3.org/2000/svg" width="32" height="32" viewBox="0 0 32 32">
<title>british-virgin-islands</title>
<path fill="#41479b" d="M29.603 26.483h-27.207c-1.324 0-2.397-1.073-2.397-2.397v-16.172c0-1.324 1.073-2.397 2.397-2.397h27.207c1.324 0 2.397 1.073 2.397 2.397v16.172c0 1.324-1.073 2.396-2.397 2.396z"></path>
<path fill="#f5f5f5" d="M9.379 8.866v-3.348h-2.759v3.348l-4.943-3.238c-0.577 0.181-1.060 0.575-1.357 1.090l4.064 2.663h-4.385v2.759h4.385l-4.385 2.873v0.44c0.001 0.304 0.248 0.55 0.552 0.55h0.958l5.111-3.348v3.348h2.759v-3.348l5.111 3.348h0.958c0.305 0 0.552-0.247 0.552-0.552v-0.438l-4.385-2.873h4.385v-2.759h-4.385l4.385-2.873v-0.438c0-0.305-0.247-0.552-0.551-0.552h-0.959l-5.111 3.348z"></path>
<path fill="#ff4b55" d="M16 9.931h-7.172v-4.414h-1.655v4.414h-7.172v1.655h7.172v4.414h1.655v-4.414h7.172z"></path>
<path fill="#ff4b55" d="M0.514 6.431l4.541 2.948h1.013l-5.156-3.347c-0.148 0.117-0.282 0.251-0.399 0.399z"></path>
<path fill="#ff4b55" d="M10.393 9.379l5.523-3.585c-0.096-0.162-0.265-0.277-0.468-0.277h-0.119l-5.95 3.862h1.013z"></path>
<path fill="#ff4b55" d="M5.592 12.138l-5.513 3.578c0.095 0.166 0.267 0.284 0.472 0.284h0.104l5.95-3.862-1.013 0z"></path>
<path fill="#ff4b55" d="M15.991 15.492l-5.167-3.354h-1.013l5.867 3.808c0.176-0.082 0.296-0.252 0.313-0.455z"></path>
<path fill="#73af00" d="M24.234 10.695h-3.612c0 0 0 4.675 0 6.587 0 1.487 3.612 2.975 3.612 2.975s3.612-1.487 3.612-2.975c0-1.912 0-6.587 0-6.587h-3.612z"></path>
<path fill="#ff4b55" d="M22.12 15.721c0 0-0.020-0.070-0.002-0.133s-0.028-0.121-0.038-0.176c-0.027-0.149 0.099-0.187 0.106-0.32 0 0 0.090 0.092 0.056 0.181s0.050 0.101 0.038 0.185c-0.011 0.083-0.104 0.171-0.095 0.246l-0.065 0.018z"></path>
<path fill="#ffe15a" d="M23.54 15.58c-0.074-0.092-0.203 0.007-0.298 0.079-0.013 0.010-0.024 0.018-0.036 0.026l-0.349-0.516c0.010-0.015 0.017-0.031 0.017-0.050 0-0.051-0.042-0.093-0.093-0.093s-0.093 0.042-0.093 0.093c0 0.019 0.007 0.036 0.017 0.050l-0.361 0.532h-0.255c0 0-0.011 0.159 0.268 0.178 0.036 0.054 0.087 0.098 0.149 0.122-0.029 0.005-0.052 0.027-0.052 0.057v0.037c0 0.002 0.002 0.004 0.003 0.006h0.649c0-0.002 0.003-0.004 0.003-0.006v-0.037c0-0.030-0.024-0.053-0.053-0.057 0.109-0.044 0.185-0.145 0.198-0.266 0.010-0.008 0.020-0.014 0.031-0.023 0.069-0.053 0.172-0.133 0.205-0.091 0.008 0.010 0.007 0.016 0.007 0.018-0.004 0.024-0.056 0.059-0.098 0.087-0.066 0.044-0.134 0.090-0.139 0.155-0.002 0.019 0.012 0.035 0.031 0.036 0.001 0 0.002 0 0.003 0 0.017 0 0.032-0.013 0.033-0.031 0.003-0.033 0.062-0.073 0.11-0.105 0.061-0.041 0.118-0.080 0.127-0.133 0.004-0.025-0.003-0.048-0.021-0.070zM22.942 15.702c-0.019-0.073-0.065-0.144-0.121-0.169 0.030-0.015 0.051-0.046 0.051-0.082 0-0.051-0.042-0.093-0.093-0.093s-0.093 0.042-0.093 0.093c0 0.036 0.021 0.066 0.051 0.082-0.057 0.025-0.102 0.096-0.121 0.169h-0.192l0.335-0.494c0.007 0.002 0.014 0.004 0.021 0.004s0.014-0.003 0.021-0.004l0.335 0.494h-0.193z"></path>
<path fill="#ffc8b9" d="M24.004 12.572c0 0-0.336-0.1-0.487 1.078 0 0-0.823 1.047-0.85 1.109s-0.002 0.507 0.086 0.471 0.248-0.241 0.239-0.392 0.059-0.235 0.126-0.31c0.126-0.142 0.837-0.784 0.863-0.925s0.022-1.031 0.022-1.031z"></path>
<path fill="#f5f5f5" d="M24.527 12.349c0 0 0.52-0.069 0.673 0.463 0 0-0.427 0.235-0.374 0.54s-0.007 1.7-0.007 1.7c-0.817 0.266-1.248-0.066-1.248-0.066s0.212-0.79 0.179-1.434c0 0-0.193-0.146-0.146-0.312s0.166-0.352 0.206-0.491 0.146-0.372 0.405-0.392c0.259-0.020 0.312-0.007 0.312-0.007z"></path>
<path fill="#f5f5f5" d="M23.721 14.83c0 0-0.407 1.541-0.266 3.639 0 0 1.27 0.168 1.961-0.084 0 0-0.359-2.51-0.704-3.493l-0.992-0.062z"></path>
<path fill="#ffc8b9" d="M23.96 11.441v0.638c0 0.070 0.057 0.127 0.127 0.127h0.011c0.050 0 0.090 0.040 0.090 0.090v0.153c0 0 0.085 0.223 0.418-0.038v-0.965l-0.646-0.005z"></path>
<path fill="#8c5a28" d="M23.885 11.311c-0.021 0.052 0.001 0.191 0.128 0.181 0.159-0.012 0.351-0.013 0.394 0.163 0.040 0.164 0.013 0.572 0.19 0.599s0.378-0.091 0.374-0.443c-0.003-0.31-0.206-0.681-0.489-0.624 0 0-0.251-0.176-0.398 0.022 0 0-0.155-0.009-0.199 0.102z"></path>
<path fill="#ffc8b9" d="M25.199 12.811c0 0 0.181 1.194 0.173 1.293-0.009 0.102-0.642 1.080-0.607 1.186s0.071 0.248-0.124 0.301-0.175-0.258-0.122-0.417 0.498-1.008 0.498-1.106-0.252-0.726-0.19-0.974c0.062-0.248 0.372-0.283 0.372-0.283z"></path>
<path fill="#ff4b55" d="M21.323 11.954c0 0-0.020-0.070-0.002-0.133s-0.028-0.121-0.038-0.176c-0.027-0.149 0.099-0.187 0.106-0.32 0 0 0.090 0.092 0.056 0.181s0.050 0.101 0.038 0.185-0.104 0.171-0.095 0.246l-0.066 0.018z"></path>
<path fill="#ffe15a" d="M22.743 11.813c-0.074-0.092-0.203 0.007-0.298 0.079-0.013 0.010-0.024 0.018-0.036 0.026l-0.349-0.516c0.010-0.015 0.017-0.031 0.017-0.050 0-0.051-0.042-0.093-0.093-0.093s-0.093 0.042-0.093 0.093c0 0.019 0.007 0.036 0.017 0.050l-0.361 0.532h-0.255c0 0-0.011 0.159 0.268 0.178 0.036 0.054 0.087 0.098 0.149 0.122-0.029 0.005-0.052 0.027-0.052 0.057v0.037c0 0.002 0.002 0.004 0.003 0.006h0.649c0-0.002 0.003-0.004 0.003-0.006v-0.037c0-0.030-0.024-0.053-0.053-0.057 0.109-0.044 0.185-0.145 0.198-0.266 0.010-0.008 0.020-0.014 0.031-0.023 0.069-0.053 0.172-0.133 0.205-0.091 0.008 0.010 0.007 0.016 0.007 0.018-0.004 0.024-0.056 0.059-0.098 0.087-0.066 0.044-0.134 0.090-0.139 0.155-0.002 0.019 0.012 0.035 0.031 0.036 0.001 0 0.002 0 0.003 0 0.017 0 0.032-0.013 0.033-0.031 0.003-0.033 0.062-0.073 0.11-0.105 0.061-0.041 0.118-0.080 0.127-0.133 0.004-0.025-0.003-0.048-0.021-0.071zM22.146 11.934c-0.019-0.073-0.065-0.144-0.121-0.169 0.030-0.015 0.051-0.046 0.051-0.082 0-0.051-0.042-0.093-0.093-0.093s-0.093 0.042-0.093 0.093c0 0.036 0.021 0.066 0.051 0.082-0.057 0.025-0.102 0.096-0.121 0.169h-0.192l0.335-0.494c0.007 0.002 0.014 0.004 0.021 0.004s0.014-0.003 0.021-0.004l0.335 0.494h-0.193z"></path>
<path fill="#ff4b55" d="M21.323 13.21c0 0-0.020-0.070-0.002-0.133s-0.028-0.121-0.038-0.176c-0.027-0.149 0.099-0.187 0.106-0.32 0 0 0.090 0.092 0.056 0.181s0.050 0.101 0.038 0.185-0.104 0.171-0.095 0.246l-0.066 0.018z"></path>
<path fill="#ffe15a" d="M22.743 13.068c-0.074-0.092-0.203 0.007-0.298 0.079-0.013 0.010-0.024 0.018-0.036 0.026l-0.349-0.516c0.010-0.015 0.017-0.031 0.017-0.050 0-0.051-0.042-0.093-0.093-0.093s-0.093 0.042-0.093 0.093c0 0.019 0.007 0.036 0.017 0.050l-0.361 0.532h-0.255c0 0-0.011 0.159 0.268 0.178 0.036 0.054 0.087 0.098 0.149 0.122-0.029 0.005-0.052 0.027-0.052 0.057v0.037c0 0.002 0.002 0.004 0.003 0.006h0.649c0-0.002 0.003-0.004 0.003-0.006v-0.037c0-0.030-0.024-0.053-0.053-0.057 0.109-0.044 0.185-0.145 0.198-0.266 0.010-0.008 0.020-0.014 0.031-0.023 0.069-0.053 0.172-0.133 0.205-0.091 0.008 0.010 0.007 0.016 0.007 0.018-0.004 0.024-0.056 0.059-0.098 0.087-0.066 0.044-0.134 0.090-0.139 0.155-0.002 0.019 0.012 0.035 0.031 0.036 0.001 0 0.002 0 0.003 0 0.017 0 0.032-0.013 0.033-0.031 0.003-0.033 0.062-0.073 0.11-0.105 0.061-0.041 0.118-0.080 0.127-0.133 0.004-0.025-0.003-0.048-0.021-0.070zM22.146 13.19c-0.019-0.073-0.065-0.144-0.121-0.169 0.030-0.015 0.051-0.046 0.051-0.082 0-0.051-0.042-0.093-0.093-0.093s-0.093 0.042-0.093 0.093c0 0.036 0.021 0.066 0.051 0.082-0.057 0.025-0.102 0.096-0.121 0.169h-0.192l0.335-0.494c0.007 0.002 0.014 0.004 0.021 0.004s0.014-0.003 0.021-0.004l0.335 0.494h-0.193z"></path>
<path fill="#ff4b55" d="M21.323 14.466c0 0-0.020-0.070-0.002-0.133s-0.028-0.121-0.038-0.176c-0.027-0.149 0.099-0.187 0.106-0.32 0 0 0.090 0.092 0.056 0.181s0.050 0.101 0.038 0.185-0.104 0.171-0.095 0.246l-0.066 0.018z"></path>
<path fill="#ffe15a" d="M22.743 14.324c-0.074-0.092-0.203 0.007-0.298 0.079-0.013 0.010-0.024 0.018-0.036 0.026l-0.349-0.516c0.010-0.015 0.017-0.031 0.017-0.050 0-0.051-0.042-0.093-0.093-0.093s-0.093 0.042-0.093 0.093c0 0.019 0.007 0.036 0.017 0.050l-0.361 0.532h-0.255c0 0-0.011 0.159 0.268 0.178 0.036 0.054 0.087 0.098 0.149 0.122-0.029 0.005-0.052 0.027-0.052 0.057v0.037c0 0.002 0.002 0.004 0.003 0.006h0.649c0-0.002 0.003-0.004 0.003-0.006v-0.037c0-0.030-0.024-0.053-0.053-0.057 0.109-0.044 0.185-0.145 0.198-0.266 0.010-0.008 0.020-0.014 0.031-0.023 0.069-0.053 0.172-0.133 0.205-0.091 0.008 0.010 0.007 0.016 0.007 0.018-0.004 0.024-0.056 0.059-0.098 0.087-0.066 0.044-0.134 0.090-0.139 0.155-0.002 0.019 0.012 0.035 0.031 0.036 0.001 0 0.002 0 0.003 0 0.017 0 0.032-0.013 0.033-0.031 0.003-0.033 0.062-0.073 0.11-0.105 0.061-0.041 0.118-0.080 0.127-0.133 0.004-0.025-0.003-0.048-0.021-0.071zM22.146 14.446c-0.019-0.073-0.065-0.144-0.121-0.169 0.030-0.015 0.051-0.046 0.051-0.082 0-0.051-0.042-0.093-0.093-0.093s-0.093 0.042-0.093 0.093c0 0.036 0.021 0.066 0.051 0.082-0.057 0.025-0.102 0.096-0.121 0.169h-0.192l0.335-0.494c0.007 0.002 0.014 0.004 0.021 0.004s0.014-0.003 0.021-0.004l0.335 0.494h-0.193z"></path>
<path fill="#ff4b55" d="M21.323 16.977c0 0-0.020-0.070-0.002-0.133s-0.028-0.121-0.038-0.176c-0.027-0.149 0.099-0.187 0.106-0.32 0 0 0.090 0.093 0.056 0.18s0.050 0.102 0.038 0.185-0.104 0.171-0.095 0.246l-0.066 0.018z"></path>
<path fill="#ffe15a" d="M22.743 16.836c-0.074-0.092-0.203 0.007-0.298 0.079-0.013 0.010-0.024 0.018-0.036 0.026l-0.349-0.516c0.010-0.015 0.017-0.031 0.017-0.050 0-0.051-0.042-0.093-0.093-0.093s-0.093 0.042-0.093 0.093c0 0.019 0.007 0.036 0.017 0.050l-0.361 0.532h-0.255c0 0-0.011 0.159 0.268 0.178 0.036 0.054 0.087 0.098 0.149 0.122-0.029 0.005-0.052 0.027-0.052 0.057v0.037c0 0.002 0.002 0.004 0.003 0.006h0.649c0-0.002 0.003-0.004 0.003-0.006v-0.037c0-0.030-0.024-0.053-0.053-0.057 0.109-0.044 0.185-0.145 0.198-0.266 0.010-0.008 0.020-0.014 0.031-0.023 0.069-0.053 0.172-0.133 0.205-0.091 0.008 0.010 0.007 0.016 0.007 0.018-0.004 0.024-0.056 0.059-0.098 0.087-0.066 0.044-0.134 0.090-0.139 0.155-0.002 0.019 0.012 0.035 0.031 0.036 0.001 0 0.002 0 0.003 0 0.017 0 0.032-0.013 0.033-0.031 0.003-0.033 0.062-0.073 0.11-0.105 0.061-0.041 0.118-0.080 0.127-0.133 0.004-0.025-0.003-0.048-0.021-0.071zM22.146 16.958c-0.019-0.073-0.065-0.144-0.121-0.169 0.030-0.015 0.051-0.046 0.051-0.082 0-0.051-0.042-0.093-0.093-0.093s-0.093 0.042-0.093 0.093c0 0.036 0.021 0.067 0.051 0.082-0.057 0.025-0.102 0.096-0.121 0.169h-0.192l0.335-0.494c0.007 0.002 0.014 0.004 0.021 0.004s0.014-0.003 0.021-0.004l0.335 0.494h-0.193z"></path>
<path fill="#ff4b55" d="M21.323 18.233c0 0-0.020-0.070-0.002-0.133s-0.028-0.121-0.038-0.176c-0.027-0.149 0.099-0.187 0.106-0.32 0 0 0.090 0.093 0.056 0.18s0.050 0.102 0.038 0.185c-0.011 0.083-0.104 0.171-0.095 0.246l-0.066 0.018z"></path>
<path fill="#ffe15a" d="M22.743 18.092c-0.074-0.092-0.203 0.007-0.298 0.079-0.013 0.010-0.024 0.018-0.036 0.026l-0.349-0.516c0.010-0.015 0.017-0.031 0.017-0.050 0-0.051-0.042-0.093-0.093-0.093s-0.093 0.042-0.093 0.093c0 0.019 0.007 0.036 0.017 0.050l-0.361 0.532h-0.255c0 0-0.011 0.159 0.268 0.178 0.036 0.054 0.087 0.098 0.149 0.122-0.029 0.005-0.052 0.027-0.052 0.057v0.037c0 0.002 0.002 0.004 0.003 0.006h0.649c0-0.002 0.003-0.004 0.003-0.006v-0.037c0-0.030-0.024-0.053-0.053-0.057 0.109-0.044 0.185-0.145 0.198-0.266 0.010-0.008 0.020-0.014 0.031-0.023 0.069-0.053 0.172-0.133 0.205-0.091 0.008 0.010 0.007 0.016 0.007 0.018-0.004 0.024-0.056 0.059-0.098 0.087-0.066 0.044-0.134 0.090-0.139 0.155-0.002 0.019 0.012 0.035 0.031 0.036 0.001 0 0.002 0 0.003 0 0.017 0 0.032-0.013 0.033-0.031 0.003-0.033 0.062-0.073 0.11-0.105 0.061-0.041 0.118-0.080 0.127-0.133 0.004-0.025-0.003-0.048-0.021-0.071zM22.146 18.214c-0.019-0.073-0.065-0.144-0.121-0.169 0.030-0.015 0.051-0.046 0.051-0.082 0-0.051-0.042-0.093-0.093-0.093s-0.093 0.042-0.093 0.093c0 0.036 0.021 0.067 0.051 0.082-0.057 0.025-0.102 0.096-0.121 0.169h-0.192l0.335-0.494c0.007 0.002 0.014 0.004 0.021 0.004s0.014-0.003 0.021-0.004l0.335 0.494h-0.193z"></path>
<path fill="#ff4b55" d="M25.692 11.954c0 0-0.020-0.070-0.002-0.133s-0.028-0.121-0.038-0.176c-0.027-0.149 0.099-0.187 0.106-0.32 0 0 0.090 0.092 0.056 0.181s0.050 0.101 0.038 0.185-0.104 0.171-0.095 0.246l-0.066 0.018z"></path>
<path fill="#ffe15a" d="M27.112 11.813c-0.074-0.092-0.203 0.007-0.298 0.079-0.013 0.010-0.024 0.018-0.036 0.026l-0.349-0.516c0.010-0.015 0.017-0.031 0.017-0.050 0-0.051-0.042-0.093-0.093-0.093s-0.093 0.042-0.093 0.093c0 0.019 0.007 0.036 0.017 0.050l-0.361 0.532h-0.255c0 0-0.011 0.159 0.268 0.178 0.036 0.054 0.087 0.098 0.149 0.122-0.029 0.005-0.052 0.027-0.052 0.057v0.037c0 0.002 0.002 0.004 0.003 0.006h0.649c0-0.002 0.003-0.004 0.003-0.006v-0.037c0-0.030-0.024-0.053-0.053-0.057 0.109-0.044 0.185-0.145 0.198-0.266 0.010-0.008 0.020-0.014 0.031-0.023 0.069-0.053 0.172-0.133 0.205-0.091 0.008 0.010 0.007 0.016 0.007 0.018-0.004 0.024-0.056 0.059-0.098 0.087-0.066 0.044-0.134 0.090-0.139 0.155-0.002 0.019 0.012 0.035 0.031 0.036 0.001 0 0.002 0 0.003 0 0.017 0 0.032-0.013 0.033-0.031 0.003-0.033 0.062-0.073 0.11-0.105 0.061-0.041 0.118-0.080 0.127-0.133 0.004-0.025-0.003-0.048-0.021-0.071zM26.515 11.934c-0.019-0.073-0.065-0.144-0.121-0.169 0.030-0.015 0.051-0.046 0.051-0.082 0-0.051-0.042-0.093-0.093-0.093s-0.093 0.042-0.093 0.093c0 0.036 0.021 0.066 0.051 0.082-0.057 0.025-0.102 0.096-0.121 0.169h-0.192l0.335-0.494c0.007 0.002 0.014 0.004 0.021 0.004s0.014-0.003 0.021-0.004l0.335 0.494h-0.193z"></path>
<path fill="#ff4b55" d="M25.692 13.21c0 0-0.020-0.070-0.002-0.133s-0.028-0.121-0.038-0.176c-0.027-0.149 0.099-0.187 0.106-0.32 0 0 0.090 0.092 0.056 0.181s0.050 0.101 0.038 0.185-0.104 0.171-0.095 0.246l-0.066 0.018z"></path>
<path fill="#ffe15a" d="M27.112 13.068c-0.074-0.092-0.203 0.007-0.298 0.079-0.013 0.010-0.024 0.018-0.036 0.026l-0.349-0.516c0.010-0.015 0.017-0.031 0.017-0.050 0-0.051-0.042-0.093-0.093-0.093s-0.093 0.042-0.093 0.093c0 0.019 0.007 0.036 0.017 0.050l-0.361 0.532h-0.255c0 0-0.011 0.159 0.268 0.178 0.036 0.054 0.087 0.098 0.149 0.122-0.029 0.005-0.052 0.027-0.052 0.057v0.037c0 0.002 0.002 0.004 0.003 0.006h0.649c0-0.002 0.003-0.004 0.003-0.006v-0.037c0-0.030-0.024-0.053-0.053-0.057 0.109-0.044 0.185-0.145 0.198-0.266 0.010-0.008 0.020-0.014 0.031-0.023 0.069-0.053 0.172-0.133 0.205-0.091 0.008 0.010 0.007 0.016 0.007 0.018-0.004 0.024-0.056 0.059-0.098 0.087-0.066 0.044-0.134 0.090-0.139 0.155-0.002 0.019 0.012 0.035 0.031 0.036 0.001 0 0.002 0 0.003 0 0.017 0 0.032-0.013 0.033-0.031 0.003-0.033 0.062-0.073 0.11-0.105 0.061-0.041 0.118-0.080 0.127-0.133 0.004-0.025-0.003-0.048-0.021-0.070zM26.515 13.19c-0.019-0.073-0.065-0.144-0.121-0.169 0.030-0.015 0.051-0.046 0.051-0.082 0-0.051-0.042-0.093-0.093-0.093s-0.093 0.042-0.093 0.093c0 0.036 0.021 0.066 0.051 0.082-0.057 0.025-0.102 0.096-0.121 0.169h-0.192l0.335-0.494c0.007 0.002 0.014 0.004 0.021 0.004s0.014-0.003 0.021-0.004l0.335 0.494h-0.193z"></path>
<path fill="#ff4b55" d="M25.692 14.466c0 0-0.020-0.070-0.002-0.133s-0.028-0.121-0.038-0.176c-0.027-0.149 0.099-0.187 0.106-0.32 0 0 0.090 0.092 0.056 0.181s0.050 0.101 0.038 0.185-0.104 0.171-0.095 0.246l-0.066 0.018z"></path>
<path fill="#ffe15a" d="M27.112 14.324c-0.074-0.092-0.203 0.007-0.298 0.079-0.013 0.010-0.024 0.018-0.036 0.026l-0.349-0.516c0.010-0.015 0.017-0.031 0.017-0.050 0-0.051-0.042-0.093-0.093-0.093s-0.093 0.042-0.093 0.093c0 0.019 0.007 0.036 0.017 0.050l-0.361 0.532h-0.255c0 0-0.011 0.159 0.268 0.178 0.036 0.054 0.087 0.098 0.149 0.122-0.029 0.005-0.052 0.027-0.052 0.057v0.037c0 0.002 0.002 0.004 0.003 0.006h0.649c0-0.002 0.003-0.004 0.003-0.006v-0.037c0-0.030-0.024-0.053-0.053-0.057 0.109-0.044 0.185-0.145 0.198-0.266 0.010-0.008 0.020-0.014 0.031-0.023 0.069-0.053 0.172-0.133 0.205-0.091 0.008 0.010 0.007 0.016 0.007 0.018-0.004 0.024-0.056 0.059-0.098 0.087-0.066 0.044-0.134 0.090-0.139 0.155-0.002 0.019 0.012 0.035 0.031 0.036 0.001 0 0.002 0 0.003 0 0.017 0 0.032-0.013 0.033-0.031 0.003-0.033 0.062-0.073 0.11-0.105 0.061-0.041 0.118-0.080 0.127-0.133 0.004-0.025-0.003-0.048-0.021-0.071zM26.515 14.446c-0.019-0.073-0.065-0.144-0.121-0.169 0.030-0.015 0.051-0.046 0.051-0.082 0-0.051-0.042-0.093-0.093-0.093s-0.093 0.042-0.093 0.093c0 0.036 0.021 0.066 0.051 0.082-0.057 0.025-0.102 0.096-0.121 0.169h-0.192l0.335-0.494c0.007 0.002 0.014 0.004 0.021 0.004s0.014-0.003 0.021-0.004l0.335 0.494h-0.193z"></path>
<path fill="#ff4b55" d="M25.692 15.721c0 0-0.020-0.070-0.002-0.133s-0.028-0.121-0.038-0.176c-0.027-0.149 0.099-0.187 0.106-0.32 0 0 0.090 0.092 0.056 0.181s0.050 0.101 0.038 0.185c-0.011 0.083-0.104 0.171-0.095 0.246l-0.066 0.018z"></path>
<path fill="#ffe15a" d="M27.112 15.58c-0.074-0.092-0.203 0.007-0.298 0.079-0.013 0.010-0.024 0.018-0.036 0.026l-0.349-0.516c0.010-0.015 0.017-0.031 0.017-0.050 0-0.051-0.042-0.093-0.093-0.093s-0.093 0.042-0.093 0.093c0 0.019 0.007 0.036 0.017 0.050l-0.361 0.532h-0.255c0 0-0.011 0.159 0.268 0.178 0.036 0.054 0.087 0.098 0.149 0.122-0.029 0.005-0.052 0.027-0.052 0.057v0.037c0 0.002 0.002 0.004 0.003 0.006h0.649c0-0.002 0.003-0.004 0.003-0.006v-0.037c0-0.030-0.024-0.053-0.053-0.057 0.109-0.044 0.185-0.145 0.198-0.266 0.010-0.008 0.020-0.014 0.031-0.023 0.069-0.053 0.172-0.133 0.205-0.091 0.008 0.010 0.007 0.016 0.007 0.018-0.004 0.024-0.056 0.059-0.098 0.087-0.066 0.044-0.134 0.090-0.139 0.155-0.002 0.019 0.012 0.035 0.031 0.036 0.001 0 0.002 0 0.003 0 0.017 0 0.032-0.013 0.033-0.031 0.003-0.033 0.062-0.073 0.11-0.105 0.061-0.041 0.118-0.080 0.127-0.133 0.004-0.025-0.003-0.048-0.021-0.070zM26.515 15.702c-0.019-0.073-0.065-0.144-0.121-0.169 0.030-0.015 0.051-0.046 0.051-0.082 0-0.051-0.042-0.093-0.093-0.093s-0.093 0.042-0.093 0.093c0 0.036 0.021 0.066 0.051 0.082-0.057 0.025-0.102 0.096-0.121 0.169h-0.192l0.335-0.494c0.007 0.002 0.014 0.004 0.021 0.004s0.014-0.003 0.021-0.004l0.335 0.494h-0.193z"></path>
<path fill="#ff4b55" d="M25.692 16.977c0 0-0.020-0.070-0.002-0.133s-0.028-0.121-0.038-0.176c-0.027-0.149 0.099-0.187 0.106-0.32 0 0 0.090 0.093 0.056 0.18s0.050 0.102 0.038 0.185-0.104 0.171-0.095 0.246l-0.066 0.018z"></path>
<path fill="#ffe15a" d="M27.112 16.836c-0.074-0.092-0.203 0.007-0.298 0.079-0.013 0.010-0.024 0.018-0.036 0.026l-0.349-0.516c0.010-0.015 0.017-0.031 0.017-0.050 0-0.051-0.042-0.093-0.093-0.093s-0.093 0.042-0.093 0.093c0 0.019 0.007 0.036 0.017 0.050l-0.361 0.532h-0.255c0 0-0.011 0.159 0.268 0.178 0.036 0.054 0.087 0.098 0.149 0.122-0.029 0.005-0.052 0.027-0.052 0.057v0.037c0 0.002 0.002 0.004 0.003 0.006h0.649c0-0.002 0.003-0.004 0.003-0.006v-0.037c0-0.030-0.024-0.053-0.053-0.057 0.109-0.044 0.185-0.145 0.198-0.266 0.010-0.008 0.020-0.014 0.031-0.023 0.069-0.053 0.172-0.133 0.205-0.091 0.008 0.010 0.007 0.016 0.007 0.018-0.004 0.024-0.056 0.059-0.098 0.087-0.066 0.044-0.134 0.090-0.139 0.155-0.002 0.019 0.012 0.035 0.031 0.036 0.001 0 0.002 0 0.003 0 0.017 0 0.032-0.013 0.033-0.031 0.003-0.033 0.062-0.073 0.11-0.105 0.061-0.041 0.118-0.080 0.127-0.133 0.004-0.025-0.003-0.048-0.021-0.071zM26.515 16.958c-0.019-0.073-0.065-0.144-0.121-0.169 0.030-0.015 0.051-0.046 0.051-0.082 0-0.051-0.042-0.093-0.093-0.093s-0.093 0.042-0.093 0.093c0 0.036 0.021 0.067 0.051 0.082-0.057 0.025-0.102 0.096-0.121 0.169h-0.192l0.335-0.494c0.007 0.002 0.014 0.004 0.021 0.004s0.014-0.003 0.021-0.004l0.335 0.494h-0.193z"></path>
<path fill="#ff4b55" d="M25.692 18.233c0 0-0.020-0.070-0.002-0.133s-0.028-0.121-0.038-0.176c-0.027-0.149 0.099-0.187 0.106-0.32 0 0 0.090 0.093 0.056 0.18s0.050 0.102 0.038 0.185c-0.011 0.083-0.104 0.171-0.095 0.246l-0.066 0.018z"></path>
<path fill="#ffe15a" d="M27.112 18.092c-0.074-0.092-0.203 0.007-0.298 0.079-0.013 0.010-0.024 0.018-0.036 0.026l-0.349-0.516c0.010-0.015 0.017-0.031 0.017-0.050 0-0.051-0.042-0.093-0.093-0.093s-0.093 0.042-0.093 0.093c0 0.019 0.007 0.036 0.017 0.050l-0.361 0.532h-0.255c0 0-0.011 0.159 0.268 0.178 0.036 0.054 0.087 0.098 0.149 0.122-0.029 0.005-0.052 0.027-0.052 0.057v0.037c0 0.002 0.002 0.004 0.003 0.006h0.649c0-0.002 0.003-0.004 0.003-0.006v-0.037c0-0.030-0.024-0.053-0.053-0.057 0.109-0.044 0.185-0.145 0.198-0.266 0.010-0.008 0.020-0.014 0.031-0.023 0.069-0.053 0.172-0.133 0.205-0.091 0.008 0.010 0.007 0.016 0.007 0.018-0.004 0.024-0.056 0.059-0.098 0.087-0.066 0.044-0.134 0.090-0.139 0.155-0.002 0.019 0.012 0.035 0.031 0.036 0.001 0 0.002 0 0.003 0 0.017 0 0.032-0.013 0.033-0.031 0.003-0.033 0.062-0.073 0.11-0.105 0.061-0.041 0.118-0.080 0.127-0.133 0.004-0.025-0.003-0.048-0.021-0.071zM26.515 18.214c-0.019-0.073-0.065-0.144-0.121-0.169 0.030-0.015 0.051-0.046 0.051-0.082 0-0.051-0.042-0.093-0.093-0.093s-0.093 0.042-0.093 0.093c0 0.036 0.021 0.067 0.051 0.082-0.057 0.025-0.102 0.096-0.121 0.169h-0.192l0.335-0.494c0.007 0.002 0.014 0.004 0.021 0.004s0.014-0.003 0.021-0.004l0.335 0.494h-0.193z"></path>
<path fill="#f5f5f5" d="M27.847 10.695c0 0 0 4.675 0 6.587 0 1.487-3.612 2.975-3.612 2.975s-3.612-1.487-3.612-2.975c0-1.912 0-6.587 0-6.587h7.224zM28.059 10.483h-7.649v6.8c0 0.695 0.642 1.444 1.907 2.226 0.907 0.56 1.799 0.93 1.837 0.945l0.081 0.033 0.081-0.033c0.038-0.015 0.93-0.385 1.837-0.945 1.265-0.782 1.907-1.53 1.907-2.226v-6.587l0-0.213z"></path>
<path fill="#f5f5f5" d="M28.090 18.454l0.963 0.664c-1.119 1.435-2.862 2.361-4.819 2.361s-3.7-0.926-4.819-2.361l0.963-0.664c0.906 1.131 2.297 1.856 3.855 1.856s2.949-0.726 3.856-1.856zM28.048 18.167l-0.124 0.154c-0.905 1.129-2.25 1.777-3.69 1.777s-2.785-0.648-3.69-1.777l-0.124-0.154-1.311 0.904 0.139 0.178c1.21 1.552 3.028 2.443 4.986 2.443s3.776-0.89 4.986-2.443l0.139-0.178-1.312-0.904z"></path>
<path fill="#ffe15a" d="M24.234 21.479c1.957 0 3.7-0.926 4.819-2.361l-0.963-0.664c-0.906 1.131-2.297 1.856-3.855 1.856s-2.949-0.726-3.855-1.856l-0.963 0.664c1.119 1.435 2.862 2.361 4.819 2.361z"></path>
</svg>
