<!-- Generated by IcoMoon.io -->
<svg version="1.1" xmlns="http://www.w3.org/2000/svg" width="32" height="32" viewBox="0 0 32 32">
<title>burkina-faso</title>
<path fill="#ff4b55" d="M29.603 5.516h-27.21c-1.28 0-2.326 1.004-2.393 2.267v8.217h32v-8.087c0-1.324-1.073-2.397-2.397-2.397z"></path>
<path fill="#73af00" d="M0 24.217c0.067 1.263 1.113 2.267 2.393 2.267h27.21c1.324 0 2.397-1.073 2.397-2.397v-8.087h-32v8.217z"></path>
<path fill="#ffe15a" d="M16.17 12.991l0.694 2.082 2.194 0.017c0.17 0.001 0.24 0.218 0.104 0.319l-1.765 1.303 0.662 2.092c0.051 0.162-0.133 0.296-0.272 0.197l-1.785-1.276-1.785 1.276c-0.138 0.099-0.323-0.035-0.272-0.197l0.662-2.092-1.765-1.303c-0.137-0.101-0.066-0.318 0.104-0.319l2.194-0.017 0.694-2.082c0.054-0.161 0.282-0.161 0.336-0z"></path>
</svg>
