<!-- Generated by IcoMoon.io -->
<svg version="1.1" xmlns="http://www.w3.org/2000/svg" width="32" height="32" viewBox="0 0 32 32">
<title>burundi</title>
<path fill="#73af00" d="M29.603 5.516h-27.21c-1.28 0-2.326 1.004-2.393 2.267v16.433c0.065 1.223 1.046 2.202 2.269 2.264h27.458c1.266-0.064 2.273-1.111 2.273-2.394v-16.174c0-1.324-1.073-2.397-2.397-2.397z"></path>
<path fill="#ff4b55" d="M2.517 5.513l13.485 8.835 13.485-8.835z"></path>
<path fill="#ff4b55" d="M29.487 26.487l-13.485-8.835-13.485 8.835z"></path>
<path fill="#f5f5f5" d="M29.603 5.516h-0.121l-10.249 6.715c-0.869-0.746-1.996-1.2-3.231-1.2s-2.363 0.454-3.231 1.2l-10.249-6.715h-0.129c-1.085 0-2.001 0.721-2.296 1.709l11.158 7.31c-0.142 0.462-0.219 0.953-0.219 1.461s0.077 0.999 0.219 1.461l-11.16 7.311c0.283 0.953 1.142 1.659 2.174 1.712h0.248l10.254-6.718c0.869 0.746 1.996 1.2 3.231 1.2s2.363-0.454 3.231-1.2l10.254 6.718h0.24c1.034-0.053 1.894-0.76 2.175-1.716l-11.153-7.307c0.142-0.462 0.219-0.953 0.219-1.461s-0.077-0.999-0.219-1.461l11.152-7.306c-0.294-0.991-1.211-1.713-2.297-1.713z"></path>
<path fill="#ff4b55" d="M15.644 14.409l-0.748 0.019 0.391-0.639-0.391-0.639 0.748 0.019 0.358-0.658 0.358 0.658 0.748-0.019-0.391 0.639 0.391 0.639-0.748-0.019-0.358 0.658z"></path>
<path fill="#73af00" d="M16.002 12.686l0.309 0.568 0.647-0.017-0.338 0.552 0.338 0.552-0.647-0.017-0.309 0.568-0.309-0.568-0.647 0.017 0.338-0.552-0.338-0.552 0.647 0.017 0.309-0.568zM16.002 12.34l-0.406 0.747-0.85-0.022 0.444 0.725-0.444 0.725 0.85-0.022 0.406 0.747 0.406-0.747 0.85 0.022-0.444-0.725 0.444-0.725-0.85 0.022-0.406-0.747z"></path>
<path fill="#ff4b55" d="M13.589 18.066l-0.748 0.019 0.391-0.639-0.391-0.639 0.748 0.019 0.357-0.658 0.358 0.658 0.748-0.019-0.391 0.639 0.391 0.639-0.748-0.019-0.358 0.658z"></path>
<path fill="#73af00" d="M13.947 16.343l0.309 0.568 0.647-0.017-0.338 0.552 0.338 0.552-0.647-0.017-0.309 0.568-0.309-0.568-0.647 0.017 0.338-0.552-0.338-0.552 0.647 0.017 0.309-0.568zM13.947 15.997l-0.406 0.747-0.85-0.022 0.444 0.725-0.444 0.725 0.85-0.022 0.406 0.747 0.406-0.747 0.85 0.022-0.444-0.725 0.444-0.725-0.85 0.022-0.406-0.747z"></path>
<path fill="#ff4b55" d="M17.699 18.066l-0.748 0.019 0.391-0.639-0.391-0.639 0.748 0.019 0.357-0.658 0.358 0.658 0.748-0.019-0.391 0.639 0.391 0.639-0.748-0.019-0.358 0.658z"></path>
<path fill="#73af00" d="M18.057 16.343l0.309 0.568 0.647-0.017-0.338 0.552 0.338 0.552-0.647-0.017-0.309 0.568-0.309-0.568-0.647 0.017 0.338-0.552-0.338-0.552 0.647 0.017 0.309-0.568zM18.057 15.997l-0.406 0.747-0.85-0.022 0.444 0.725-0.444 0.725 0.85-0.022 0.406 0.747 0.406-0.747 0.85 0.022-0.444-0.725 0.444-0.725-0.85 0.022-0.406-0.747z"></path>
</svg>
