<!-- Generated by IcoMoon.io -->
<svg version="1.1" xmlns="http://www.w3.org/2000/svg" width="32" height="32" viewBox="0 0 32 32">
<title>cambodia</title>
<path fill="#41479b" d="M29.603 26.483h-27.207c-1.324 0-2.397-1.073-2.397-2.397v-16.172c0-1.324 1.073-2.397 2.397-2.397h27.207c1.324 0 2.397 1.073 2.397 2.397v16.172c0 1.324-1.073 2.397-2.397 2.397z"></path>
<path fill="#ff4b55" d="M0 10.483h32v11.034h-32v-11.034z"></path>
<path fill="#f5f5f5" d="M23.301 20.183v-0.782h-0.261v-0.521h-0.261v-0.521h-0.261v-0.521h-0.782v-1.564h-0l0.261-0.261v-0.782h-0.261v-0.521h-0.261v-0.782h-0.261v-0.521h-0.261v-0.521h-0.261v-0.261h-0.522v0.261h-0.261v0.521h-0.261v0.521h-0.261v0.782h-0.261v0.521h-1.565v-0.782h-0.261v-0.782h-0.261v-0.782h-0.261v-0.521h-0.261v-0.521h-0.261v-0.261h-0.13v-0.261h-0.261v0.261h-0.13v0.261h-0.261v0.521h-0.261v0.521h-0.261v0.782h-0.261v0.782h-0.261v0.782h-1.565v-0.521h-0.261v-0.782h-0.261v-0.521h-0.261v-0.521h-0.261v-0.261h-0.521v0.261h-0.261v0.521h-0.261v0.521h-0.261v0.782h-0.261v0.521h-0.261v0.782l0.261 0.261v1.564h-0.782v0.521h-0.261v0.521h-0.261v0.521h-0.261v0.782h-0.261v0.782h15.123v-0.782z"></path>
</svg>
