<svg xmlns="http://www.w3.org/2000/svg" width="32" height="32" version="1.1" viewBox="0 0 32 32"><title>cameroon</title><path fill="#73af00" d="M2.397 26.483h8.27v-20.965h-8.27c-1.324 0-2.397 1.073-2.397 2.397v16.172c0 1.324 1.073 2.396 2.397 2.396z"/><path fill="#ff4b55" d="M10.667 5.517h10.667v20.966h-10.667v-20.966z"/><path fill="#ffe15a" d="M29.603 26.483c1.324 0 2.397-1.073 2.397-2.397v-16.172c0-1.324-1.073-2.397-2.397-2.397h-8.27v20.965h8.27z"/><path fill="#ffe15a" d="M16.115 13.978l0.474 1.421 1.498 0.012c0.116 0.001 0.164 0.149 0.071 0.218l-1.205 0.89 0.452 1.428c0.035 0.111-0.091 0.202-0.185 0.135l-1.219-0.871-1.219 0.871c-0.094 0.067-0.22-0.024-0.185-0.135l0.452-1.428-1.205-0.89c-0.093-0.069-0.045-0.217 0.071-0.218l1.498-0.012 0.474-1.421c0.037-0.11 0.192-0.11 0.229 0z"/></svg>