<!-- Generated by IcoMoon.io -->
<svg version="1.1" xmlns="http://www.w3.org/2000/svg" width="32" height="32" viewBox="0 0 32 32">
<title>canary-islands</title>
<path fill="#f5f5f5" d="M2.273 26.481h8.394v-20.962h-8.27c-1.324 0-2.397 1.073-2.397 2.397v16.172c0 1.282 1.007 2.329 2.273 2.393z"></path>
<path fill="#4173cd" d="M10.667 5.519h10.667v20.962h-10.667v-20.962z"></path>
<path fill="#ffe15a" d="M29.727 26.481c1.266-0.064 2.273-1.111 2.273-2.393v-16.172c0-1.324-1.073-2.397-2.397-2.397h-8.27v20.962h8.394z"></path>
<path fill="#c17400" d="M14.335 16.61c-0.006 0.165-0.253 0.234-0.253 0.234-0.025-0.279 0.26-0.792 0.317-0.836s0.285-0.253 0.057-0.209c-0.228 0.044-0.45 0.558-0.501 0.646s-0.171 0.082-0.171 0.082 0-0.412 0-0.5 0.393-0.279 0.393-0.279 0.063-0.38 0.006-0.418c-0.057-0.038-0.177 0.070-0.348 0.082s-0.38 0.019-0.557 0.184c-0.177 0.165-0.184 0.279-0.184 0.558s0 0 0 0.672-0.627 1.14-0.862 1.375c-0.064 0.064-0.088 0.142-0.090 0.224-0.047 0.044-0.151 0.108-0.238 0.090-0.133-0.029-0.153-0.263-0.153-0.401 0-0.042-0.034-0.076-0.076-0.076s-0.076 0.034-0.076 0.076c0 0.465 0.198 0.547 0.316 0.555 0.007 0 0.013 0.001 0.020 0.001 0.078 0 0.162-0.031 0.232-0.074 0.045 0.164 0.141 0.316 0.168 0.378 0.051 0.114-0.228 0.298-0.228 0.298l0.228 0.703h0.31c0-0.174-0.212-0.139-0.244-0.184s-0.070-0.447-0.070-0.447l0.441-0.369c0.034-0.028 0.054-0.070 0.054-0.115v-0.196c0 0 0.323 0.052 0.404 0.123s0.009 0.285 0.009 0.314 0.409 0.39 0.409 0.39h0.28c0-0.128-0.133-0.123-0.2-0.147s-0.266-0.271-0.266-0.271 0.108-0.334 0.108-0.417c0-0.082-0.463-0.418-0.463-0.418s0.063-0.108 0.532-0.399c0.469-0.291 0.431-0.621 0.431-0.621l0.405-0.456v-0.329c-0 0-0.133 0.013-0.139 0.177z"></path>
<path fill="#c17400" d="M17.677 16.61c0.006 0.165 0.253 0.234 0.253 0.234 0.025-0.279-0.26-0.792-0.317-0.836s-0.285-0.253-0.057-0.209c0.228 0.044 0.45 0.558 0.501 0.646s0.171 0.082 0.171 0.082 0-0.412 0-0.5-0.393-0.279-0.393-0.279-0.063-0.38-0.006-0.418c0.057-0.038 0.177 0.070 0.349 0.082s0.38 0.019 0.558 0.184c0.177 0.165 0.184 0.279 0.184 0.558s0 0 0 0.672 0.627 1.14 0.862 1.375c0.064 0.064 0.088 0.142 0.090 0.224 0.047 0.044 0.151 0.108 0.238 0.090 0.133-0.029 0.153-0.263 0.153-0.401 0-0.042 0.034-0.076 0.076-0.076s0.076 0.034 0.076 0.076c0 0.465-0.198 0.547-0.316 0.555-0.006 0-0.013 0.001-0.020 0.001-0.078 0-0.162-0.031-0.232-0.074-0.045 0.164-0.141 0.316-0.168 0.378-0.051 0.114 0.228 0.298 0.228 0.298l-0.228 0.703h-0.311c0-0.174 0.212-0.139 0.244-0.184s0.070-0.447 0.070-0.447l-0.441-0.369c-0.034-0.028-0.054-0.070-0.054-0.115v-0.196c0 0-0.323 0.052-0.404 0.123s-0.009 0.285-0.009 0.314-0.409 0.39-0.409 0.39h-0.28c0-0.128 0.133-0.123 0.2-0.147s0.266-0.271 0.266-0.271-0.108-0.334-0.108-0.417c0-0.082 0.462-0.418 0.462-0.418s-0.063-0.108-0.532-0.399-0.431-0.621-0.431-0.621l-0.405-0.456v-0.329c0 0 0.133 0.013 0.14 0.177z"></path>
<path fill="#c8c8c8" d="M15.396 16.177l-0.456 0.456h0.912z"></path>
<path fill="#c8c8c8" d="M16.612 16.177l-0.456 0.456h0.912z"></path>
<path fill="#c8c8c8" d="M15.396 16.937l-0.456 0.456h0.912z"></path>
<path fill="#c8c8c8" d="M16.612 16.937l-0.456 0.456h0.912z"></path>
<path fill="#c8c8c8" d="M15.396 17.697l-0.456 0.456h0.912z"></path>
<path fill="#c8c8c8" d="M16.612 17.697l-0.456 0.456h0.912z"></path>
<path fill="#c8c8c8" d="M16.004 18.457l-0.456 0.456h0.912z"></path>
<path fill="#ffe15a" d="M15.928 13.744h0.152v0.912h-0.152v-0.912z"></path>
<path fill="#ffe15a" d="M15.17 14.674c-0.003-0.010-0.059-0.243 0.099-0.413 0.139-0.15 0.39-0.196 0.748-0.136l-0.025 0.15c-0.3-0.050-0.511-0.019-0.611 0.089s-0.063 0.272-0.063 0.274l-0.148 0.037z"></path>
<path fill="#ffe15a" d="M14.754 15.18c-0.19-0.095-0.283-0.371-0.204-0.603 0.033-0.097 0.183-0.406 0.709-0.3l-0.030 0.149c-0.278-0.056-0.473 0.018-0.535 0.2-0.054 0.158 0.007 0.357 0.128 0.417l-0.068 0.136z"></path>
<path fill="#ffe15a" d="M16.838 14.674l-0.074-0.018-0.074-0.018c0-0.002 0.038-0.166-0.064-0.275-0.101-0.108-0.311-0.138-0.61-0.088l-0.025-0.15c0.358-0.060 0.609-0.014 0.748 0.136 0.157 0.17 0.101 0.404 0.099 0.413z"></path>
<path fill="#ffe15a" d="M17.255 15.18l-0.068-0.136c0.121-0.061 0.182-0.259 0.128-0.417-0.063-0.183-0.258-0.256-0.535-0.2l-0.030-0.149c0.526-0.105 0.676 0.203 0.709 0.3 0.079 0.232-0.014 0.508-0.204 0.603z"></path>
<path fill="#ff4b55" d="M16.612 14.656c0 0-0.304-0.152-0.608-0.152s-0.608 0.152-0.608 0.152c-0.304-0.152-0.76 0-0.76 0.304s0.456 0.76 0.456 0.76h1.825c0 0 0.456-0.456 0.456-0.76s-0.456-0.456-0.76-0.304z"></path>
<path fill="#ffe15a" d="M15.852 13.819h0.304v0.152h-0.304v-0.152z"></path>
<path fill="#c8c8c8" d="M14.484 12.984h3.041v0.608h-3.041v-0.608z"></path>
<path fill="#c8c8c8" d="M14.715 13.374l0.144 0.433-0.912 0.304-0.144-0.433 0.912-0.304z"></path>
<path fill="#c8c8c8" d="M17.294 13.375l0.912 0.304-0.144 0.433-0.912-0.304 0.144-0.433z"></path>
<path fill="#464655" d="M16.004 19.446c-0.88 0-1.597-0.443-1.597-0.988v-2.585c0-0.126 0.102-0.228 0.228-0.228h2.737c0.126 0 0.228 0.102 0.228 0.228v2.585c0 0.545-0.716 0.988-1.597 0.988zM14.636 15.796c-0.042 0-0.076 0.034-0.076 0.076v2.585c0 0.461 0.648 0.836 1.445 0.836s1.445-0.375 1.445-0.836v-2.585c0-0.042-0.034-0.076-0.076-0.076h-2.737z"></path>
</svg>
