<!-- Generated by IcoMoon.io -->
<svg version="1.1" xmlns="http://www.w3.org/2000/svg" width="32" height="32" viewBox="0 0 32 32">
<title>central-african-republic</title>
<path fill="#ffe15a" d="M0 24.086c0 1.324 1.073 2.397 2.397 2.397h27.207c1.323 0 2.395-1.072 2.396-2.394v-2.847h-32v2.845z"></path>
<path fill="#73af00" d="M0 16h32v5.241h-32v-5.241z"></path>
<path fill="#f5f5f5" d="M0 10.758h32v5.241h-32v-5.241z"></path>
<path fill="#41479b" d="M29.604 5.517h-27.207c-1.324 0-2.397 1.073-2.397 2.397v2.845h32v-2.847c-0.001-1.322-1.074-2.394-2.396-2.394z"></path>
<path fill="#ff4b55" d="M13.379 5.517h5.241v20.966h-5.241v-20.966z"></path>
<path fill="#ffe15a" d="M4.781 6.223l0.46 1.38 1.455 0.011c0.113 0.001 0.159 0.145 0.069 0.212l-1.171 0.864 0.439 1.387c0.034 0.107-0.088 0.196-0.18 0.131l-1.184-0.846-1.184 0.846c-0.092 0.066-0.214-0.023-0.18-0.131l0.439-1.387-1.17-0.864c-0.091-0.067-0.044-0.211 0.069-0.212l1.455-0.011 0.46-1.38c0.036-0.107 0.187-0.107 0.223 0z"></path>
</svg>
