<!-- Generated by IcoMoon.io -->
<svg version="1.1" xmlns="http://www.w3.org/2000/svg" width="32" height="32" viewBox="0 0 32 32">
<title>chile</title>
<path fill="#f5f5f5" d="M29.603 5.517h-19.672c0.305 0 0.552 0.247 0.552 0.552v9.379c0 0.305-0.247 0.552-0.552 0.552h22.069v-8.086c0-1.324-1.073-2.397-2.397-2.397z"></path>
<path fill="#ff4b55" d="M1.103 16h-0.552c-0.305 0-0.552-0.247-0.552-0.552v8.638c0 1.324 1.073 2.397 2.397 2.397h27.207c1.324 0 2.397-1.073 2.397-2.397v-8.086h-30.897z"></path>
<path fill="#41479b" d="M0.552 16h9.379c0.305 0 0.552-0.247 0.552-0.552v-9.379c0-0.305-0.247-0.552-0.552-0.552h-7.535c-1.324 0-2.397 1.073-2.397 2.397v7.534c0 0.305 0.247 0.552 0.552 0.552z"></path>
<path fill="#f5f5f5" d="M5.454 8.405l0.526 1.577 1.662 0.013c0.215 0.002 0.304 0.276 0.131 0.404l-1.337 0.988 0.501 1.585c0.065 0.205-0.169 0.375-0.344 0.25l-1.353-0.967-1.353 0.967c-0.175 0.125-0.409-0.045-0.344-0.25l0.501-1.585-1.337-0.988c-0.173-0.128-0.084-0.403 0.131-0.404l1.662-0.013 0.526-1.577c0.068-0.204 0.357-0.204 0.425-0z"></path>
</svg>
