<!-- Generated by IcoMoon.io -->
<svg version="1.1" xmlns="http://www.w3.org/2000/svg" width="32" height="32" viewBox="0 0 32 32">
<title>christmas-island</title>
<path fill="#41479b" d="M2.397 26.483h27.207c0.587 0 1.124-0.211 1.54-0.561l-30.287-19.843c-0.523 0.44-0.856 1.099-0.856 1.836v16.172c0 1.324 1.073 2.396 2.397 2.396z"></path>
<path fill="#73af00" d="M32 24.086v-16.172c0-1.324-1.073-2.397-2.397-2.397h-27.207c-0.587 0-1.124 0.211-1.54 0.561l30.288 19.843c0.523-0.44 0.856-1.099 0.856-1.835z"></path>
<path fill="#ffe15a" d="M19.31 16c0 1.828-1.482 3.31-3.31 3.31s-3.31-1.482-3.31-3.31c0-1.828 1.482-3.31 3.31-3.31s3.31 1.482 3.31 3.31z"></path>
<path fill="#f5f5f5" d="M2.413 16.037l0.192 0.485 0.499-0.153c0.028-0.009 0.051 0.021 0.037 0.047l-0.26 0.452 0.43 0.295c0.024 0.016 0.015 0.053-0.013 0.058l-0.515 0.079 0.038 0.52c0.002 0.029-0.032 0.045-0.054 0.026l-0.383-0.354-0.383 0.354c-0.021 0.020-0.056 0.003-0.054-0.026l0.038-0.52-0.515-0.079c-0.029-0.004-0.037-0.042-0.013-0.058l0.43-0.295-0.26-0.452c-0.014-0.025 0.009-0.055 0.037-0.047l0.499 0.153 0.192-0.485c0.011-0.027 0.049-0.027 0.059 0z"></path>
<path fill="#f5f5f5" d="M9.387 14.73l0.191 0.485 0.499-0.153c0.028-0.008 0.051 0.021 0.037 0.046l-0.26 0.452 0.43 0.295c0.024 0.016 0.015 0.053-0.013 0.058l-0.515 0.079 0.038 0.52c0.002 0.029-0.032 0.045-0.053 0.026l-0.383-0.354-0.383 0.354c-0.021 0.020-0.056 0.003-0.053-0.026l0.038-0.52-0.515-0.079c-0.029-0.004-0.037-0.042-0.013-0.058l0.43-0.295-0.26-0.452c-0.014-0.025 0.009-0.055 0.037-0.046l0.499 0.153 0.191-0.485c0.011-0.027 0.049-0.027 0.059 0z"></path>
<path fill="#f5f5f5" d="M5.9 11.585l0.192 0.485 0.499-0.153c0.028-0.008 0.051 0.021 0.037 0.046l-0.26 0.452 0.43 0.295c0.024 0.016 0.015 0.053-0.013 0.058l-0.516 0.079 0.038 0.52c0.002 0.029-0.032 0.045-0.053 0.026l-0.383-0.354-0.383 0.354c-0.021 0.020-0.056 0.003-0.053-0.026l0.038-0.52-0.516-0.079c-0.029-0.004-0.037-0.042-0.013-0.058l0.43-0.295-0.26-0.452c-0.014-0.025 0.009-0.055 0.037-0.046l0.499 0.153 0.191-0.485c0.011-0.027 0.049-0.027 0.059 0z"></path>
<path fill="#f5f5f5" d="M5.9 23.011l0.192 0.485 0.499-0.153c0.028-0.009 0.051 0.021 0.037 0.046l-0.26 0.452 0.43 0.295c0.024 0.016 0.015 0.053-0.013 0.058l-0.516 0.079 0.038 0.52c0.002 0.029-0.032 0.045-0.053 0.026l-0.383-0.354-0.383 0.354c-0.021 0.020-0.056 0.003-0.053-0.026l0.038-0.52-0.516-0.079c-0.029-0.004-0.037-0.042-0.013-0.058l0.43-0.295-0.26-0.452c-0.014-0.025 0.009-0.055 0.037-0.046l0.499 0.153 0.191-0.485c0.011-0.027 0.049-0.027 0.059 0z"></path>
<path fill="#f5f5f5" d="M7.327 16.476l0.134 0.401 0.423 0.003c0.033 0 0.046 0.042 0.020 0.061l-0.34 0.251 0.127 0.403c0.010 0.031-0.026 0.057-0.052 0.038l-0.344-0.246-0.344 0.246c-0.027 0.019-0.062-0.007-0.052-0.038l0.127-0.403-0.34-0.251c-0.026-0.019-0.013-0.061 0.020-0.061l0.423-0.003 0.134-0.401c0.010-0.031 0.054-0.031 0.065 0z"></path>
<path fill="#73af00" d="M14.036 14.576c-0.135-0.032-0.271 0.317-0.121 0.437s0.422 0.347 0.256 0.483c-0.166 0.136-0.226 0.151-0.256 0.317s0 0.196-0.136 0.271-0.452 0.226-0.317 0.377c0.136 0.151 0.317 0.060 0.437-0.181 0 0 0.845-0.030 0.875 0.030s0.106 0.287 0.287 0.226c0.181-0.060 0.181-0.060 0.181-0.060s0.106-0.045 0.181 0.045c0.075 0.090 0.256 0.121 0.467 0.121s0.392 0.121 0.377 0.407c-0.010 0.184-0.056 0.565-0.089 0.816-0.017 0.134 0.075 0.258 0.208 0.28l0.386 0.064c0.102 0.017 0.196-0.056 0.205-0.158 0.018-0.206 0.044-0.509 0.044-0.519-0.009-0.108 0.211-0.663 0.196-0.92s-0.015-0.256-0.015-0.256 0.226-0.030 0.317-0.181 0.287-0.528 0.679-0.663l0.106-0.256c0 0-0.302-0.136-0.241-0.226s0.090-0.332 0.045-0.528-0.060-0.467-0.060-0.467-0.108-0.045-0.13 0.017-0.045 0.097-0.102 0.085c-0.057-0.011-0.142-0.017-0.165-0.068s-0.085-0.102-0.142-0.074c-0.057 0.028-0.153 0.409-0.29 0.448 0 0-0.011-0.165-0.096-0.131s-0.079 0.114-0.091 0.255c-0.011 0.142-0.965 1.101-1.8 0.846 0 0-0.091-0.182-0.278-0.165s-0.369 0.011-0.477-0.119c-0.108-0.131-0.28-0.515-0.441-0.553z"></path>
<path fill="#ffe15a" d="M20.177 16.154c0.252 0.267 3.015 1.020 5.808-0.443s4.456-1.884 4.456-1.884 0.022-0.377 0.366-0.432c0.344-0.055 0.177-0.2 0.089-0.31s-0.521-0.41-1.108-0.155c0 0-0.683 0.026-0.787-0.92s-0.148-1.907-0.384-2.32c-0.236-0.414-2.187-2.483-2.424-2.32s0.591 2.217 1.36 2.941c0 0 0.177 1.271-0.044 1.33s-1.448-1.064-3.636-1.33c0 0 0.931 1.271 2.069 1.803s1.448 1.020 1.419 1.227c-0.030 0.207-0.414 1.197-1.049 1.655s-2.232 1.7-5.853 1.049c0-0-0.399-0.015-0.281 0.111z"></path>
</svg>
