<!-- Generated by IcoMoon.io -->
<svg version="1.1" xmlns="http://www.w3.org/2000/svg" width="32" height="32" viewBox="0 0 32 32">
<title>cocos-island</title>
<path fill="#73af00" d="M32 7.911c-0.001-1.322-1.074-2.394-2.396-2.394h-27.207c-1.324-0-2.397 1.073-2.397 2.397v16.172c0 1.323 1.073 2.397 2.397 2.397h27.207c1.323 0 2.395-1.072 2.396-2.394v-16.177z"></path>
<path fill="#ffe15a" d="M17.726 19.228c-1.783 0-3.228-1.445-3.228-3.228s1.445-3.228 3.228-3.228c0.237 0 0.466 0.028 0.687 0.079 0.088 0.020 0.135-0.098 0.058-0.146-0.676-0.419-1.49-0.636-2.359-0.566-1.891 0.154-3.412 1.696-3.541 3.589-0.154 2.262 1.635 4.144 3.864 4.144 0.747 0 1.444-0.212 2.036-0.579 0.077-0.048 0.030-0.166-0.058-0.146-0.221 0.051-0.45 0.079-0.687 0.079z"></path>
<path fill="#ffe15a" d="M20.539 13.267l0.242 0.614 0.631-0.193c0.035-0.011 0.065 0.027 0.047 0.059l-0.329 0.572 0.545 0.373c0.030 0.021 0.020 0.068-0.017 0.073l-0.653 0.1 0.048 0.658c0.003 0.037-0.041 0.057-0.068 0.033l-0.485-0.448-0.485 0.448c-0.027 0.025-0.070 0.004-0.068-0.033l0.048-0.658-0.653-0.1c-0.036-0.005-0.047-0.053-0.017-0.073l0.545-0.373-0.329-0.572c-0.018-0.032 0.012-0.069 0.047-0.059l0.631 0.193 0.242-0.614c0.013-0.034 0.061-0.034 0.075 0z"></path>
<path fill="#ffe15a" d="M29.367 11.612l0.242 0.614 0.631-0.193c0.035-0.011 0.065 0.027 0.047 0.059l-0.329 0.572 0.545 0.373c0.030 0.021 0.020 0.068-0.017 0.073l-0.653 0.1 0.048 0.658c0.003 0.037-0.041 0.057-0.068 0.033l-0.485-0.448-0.485 0.448c-0.027 0.025-0.070 0.004-0.068-0.033l0.048-0.658-0.653-0.1c-0.036-0.005-0.047-0.053-0.017-0.073l0.545-0.373-0.329-0.572c-0.018-0.032 0.012-0.069 0.047-0.059l0.631 0.193 0.242-0.614c0.013-0.034 0.062-0.034 0.075 0z"></path>
<path fill="#ffe15a" d="M24.953 7.631l0.242 0.614 0.631-0.193c0.035-0.011 0.065 0.027 0.047 0.059l-0.329 0.572 0.545 0.373c0.030 0.021 0.020 0.068-0.017 0.073l-0.653 0.1 0.048 0.658c0.003 0.037-0.041 0.057-0.068 0.033l-0.485-0.448-0.485 0.448c-0.027 0.025-0.070 0.004-0.068-0.033l0.048-0.658-0.653-0.1c-0.036-0.005-0.047-0.053-0.017-0.073l0.545-0.373-0.329-0.572c-0.018-0.032 0.012-0.069 0.047-0.059l0.631 0.193 0.242-0.614c0.013-0.034 0.061-0.034 0.075 0z"></path>
<path fill="#ffe15a" d="M24.953 22.095l0.242 0.614 0.631-0.193c0.035-0.011 0.065 0.027 0.047 0.059l-0.329 0.572 0.545 0.373c0.030 0.021 0.020 0.068-0.017 0.073l-0.653 0.1 0.048 0.658c0.003 0.037-0.041 0.058-0.068 0.033l-0.485-0.448-0.485 0.448c-0.027 0.025-0.070 0.004-0.068-0.033l0.048-0.658-0.653-0.1c-0.036-0.006-0.047-0.053-0.017-0.073l0.545-0.373-0.329-0.572c-0.018-0.032 0.012-0.070 0.047-0.059l0.631 0.193 0.242-0.614c0.013-0.034 0.061-0.034 0.075 0z"></path>
<path fill="#ffe15a" d="M26.76 13.822l0.169 0.507 0.535 0.004c0.041 0 0.059 0.053 0.025 0.078l-0.43 0.318 0.161 0.51c0.012 0.040-0.032 0.072-0.066 0.048l-0.435-0.311-0.435 0.311c-0.034 0.024-0.079-0.009-0.066-0.048l0.161-0.51-0.43-0.318c-0.033-0.025-0.016-0.078 0.025-0.078l0.535-0.004 0.169-0.507c0.013-0.039 0.069-0.039 0.082 0z"></path>
<path fill="#ffe15a" d="M9.379 11.311c0 1.981-1.606 3.586-3.586 3.586s-3.586-1.606-3.586-3.586c0-1.981 1.606-3.586 3.586-3.586s3.586 1.606 3.586 3.586z"></path>
<path fill="#964b50" d="M5.424 14.104h0.968c0 0 0.55-2.465 0.044-3.346l-0.308 0.198c0 0 0.506 1.695-0.704 3.148z"></path>
<path fill="#73af00" d="M5.461 10.869c0 0-0.558 0.382-0.381 1.511 0 0 0.425-0.352 0.66-1.13 0 0-0.338 0.646 0.132 1.159 0 0 0.499-0.704 0.425-1.321 0 0 1.659 1.732 1.306 1.291-0.059-0.073 0.088-0.807-0.484-1.409 0 0 0.939 0.235 1.291 0.147 0 0 0.029-0.748-0.866-0.88l0.205-0.587c0 0-0.69-0.044-1.057 0.308 0 0-0.088-0.91 0.279-1.35 0 0-1.086-0.161-1.13 1.262 0 0-0.396-0.91-1.614-0.69 0 0 0.69 0.499 0.807 0.719 0 0-0.968-0.66-1.423 0.264 0 0 0.778-0.205 1.057 0.161 0 0-1.247-0.132-1.35 0.939 0-0 1.159-0.543 2.142-0.396z"></path>
</svg>
