<!-- Generated by IcoMoon.io -->
<svg version="1.1" xmlns="http://www.w3.org/2000/svg" width="32" height="32" viewBox="0 0 32 32">
<title>comoros</title>
<path fill="#ffe15a" d="M29.603 5.516h-27.21c-1.28 0-2.326 1.004-2.393 2.267v2.975h32v-2.845c0-1.324-1.073-2.397-2.397-2.397z"></path>
<path fill="#f5f5f5" d="M0 10.757h32v5.242h-32v-5.242z"></path>
<path fill="#ff4b55" d="M0 16h32v5.242h-32v-5.242z"></path>
<path fill="#4173cd" d="M0 24.217c0.067 1.263 1.113 2.267 2.393 2.267h27.21c1.324 0 2.397-1.073 2.397-2.397v-2.845h-32v2.975z"></path>
<path fill="#73af00" d="M15.667 15.78l-14.812-9.705c-0.493 0.414-0.818 1.022-0.854 1.708v16.433c0.036 0.685 0.361 1.294 0.854 1.708l14.812-9.705c0.158-0.104 0.158-0.335 0-0.439z"></path>
<path fill="#f5f5f5" d="M3.052 16c0-1.995 1.304-3.683 3.106-4.265 0.095-0.031 0.082-0.169-0.017-0.182-0.186-0.024-0.374-0.037-0.567-0.037-2.476 0-4.484 2.008-4.484 4.484s2.008 4.484 4.484 4.484c0.192 0 0.381-0.013 0.567-0.037 0.099-0.013 0.112-0.151 0.017-0.182-1.802-0.581-3.106-2.27-3.106-4.265z"></path>
<path fill="#f5f5f5" d="M6.181 12.575l0.123 0.37 0.39 0.003c0.051 0 0.071 0.065 0.031 0.095l-0.314 0.232 0.118 0.372c0.015 0.048-0.040 0.088-0.081 0.059l-0.317-0.227-0.317 0.227c-0.041 0.029-0.096-0.011-0.081-0.059l0.118-0.372-0.314-0.232c-0.041-0.030-0.020-0.095 0.031-0.095l0.39-0.003 0.123-0.37c0.016-0.048 0.084-0.048 0.1 0z"></path>
<path fill="#f5f5f5" d="M6.181 14.451l0.123 0.37 0.39 0.003c0.051 0 0.071 0.065 0.031 0.095l-0.314 0.232 0.118 0.372c0.015 0.048-0.040 0.088-0.081 0.059l-0.317-0.227-0.317 0.227c-0.041 0.029-0.096-0.011-0.081-0.059l0.118-0.372-0.314-0.232c-0.041-0.030-0.020-0.095 0.031-0.095l0.39-0.003 0.123-0.37c0.016-0.048 0.084-0.048 0.1 0z"></path>
<path fill="#f5f5f5" d="M6.181 16.326l0.123 0.37 0.39 0.003c0.051 0 0.071 0.065 0.031 0.095l-0.314 0.232 0.118 0.372c0.015 0.048-0.040 0.088-0.081 0.059l-0.317-0.227-0.317 0.227c-0.041 0.029-0.096-0.011-0.081-0.059l0.118-0.372-0.314-0.232c-0.041-0.030-0.020-0.095 0.031-0.095l0.39-0.003 0.123-0.37c0.016-0.048 0.084-0.048 0.1 0z"></path>
<path fill="#f5f5f5" d="M6.181 18.202l0.123 0.37 0.39 0.003c0.051 0 0.071 0.065 0.031 0.095l-0.314 0.232 0.118 0.372c0.015 0.048-0.040 0.088-0.081 0.059l-0.317-0.227-0.317 0.227c-0.041 0.029-0.096-0.011-0.081-0.059l0.118-0.372-0.314-0.232c-0.041-0.030-0.020-0.095 0.031-0.095l0.39-0.003 0.123-0.37c0.016-0.048 0.084-0.048 0.1 0z"></path>
</svg>
