<!-- Generated by IcoMoon.io -->
<svg version="1.1" xmlns="http://www.w3.org/2000/svg" width="32" height="32" viewBox="0 0 32 32">
<title>cook-islands</title>
<path fill="#41479b" d="M29.603 26.483h-27.207c-1.324 0-2.397-1.073-2.397-2.397v-16.172c0-1.324 1.073-2.397 2.397-2.397h27.207c1.324 0 2.397 1.073 2.397 2.397v16.172c0 1.324-1.073 2.396-2.397 2.396z"></path>
<path fill="#f5f5f5" d="M0.552 16h0.958l5.111-3.348v3.348h2.759v-3.348l5.111 3.348h0.958c0.305 0 0.552-0.247 0.552-0.552v-0.438l-4.385-2.873h4.385v-2.759h-4.385l4.385-2.873v-0.438c0-0.305-0.247-0.552-0.551-0.552h-0.959l-5.111 3.348v-3.348h-2.759v3.348l-4.943-3.239c-0.577 0.181-1.060 0.575-1.357 1.090l4.064 2.663h-4.385v2.759h4.385l-4.385 2.873v0.438c0 0.305 0.247 0.552 0.552 0.552z"></path>
<path fill="#ff4b55" d="M16 9.931h-7.172v-4.414h-1.655v4.414h-7.172v1.655h7.172v4.414h1.655v-4.414h7.172z"></path>
<path fill="#ff4b55" d="M0.514 6.431l4.541 2.948h1.013l-5.156-3.347c-0.148 0.117-0.282 0.251-0.399 0.399z"></path>
<path fill="#ff4b55" d="M10.393 9.379l5.523-3.585c-0.096-0.162-0.265-0.277-0.468-0.277h-0.119l-5.95 3.862h1.013z"></path>
<path fill="#ff4b55" d="M5.592 12.138l-5.513 3.579c0.095 0.166 0.267 0.284 0.472 0.284h0.104l5.95-3.862h-1.013z"></path>
<path fill="#ff4b55" d="M15.991 15.492l-5.167-3.354h-1.013l5.867 3.808c0.176-0.082 0.296-0.252 0.313-0.455z"></path>
<path fill="#f5f5f5" d="M20.851 10.128l0.432 0.472 0.586-0.256c0.045-0.020 0.090 0.030 0.065 0.073l-0.316 0.556 0.424 0.479c0.033 0.037-0 0.095-0.049 0.085l-0.627-0.128-0.324 0.551c-0.025 0.043-0.090 0.029-0.096-0.020l-0.072-0.636-0.625-0.138c-0.048-0.011-0.055-0.077-0.010-0.097l0.582-0.265-0.062-0.637c-0.005-0.049 0.056-0.076 0.090-0.040z"></path>
<path fill="#f5f5f5" d="M18.67 11.916l0.586 0.256 0.432-0.472c0.033-0.037 0.094-0.009 0.089 0.040l-0.062 0.637 0.582 0.265c0.045 0.021 0.038 0.087-0.010 0.097l-0.625 0.138-0.072 0.636c-0.006 0.049-0.071 0.063-0.096 0.020l-0.324-0.551-0.627 0.128c-0.049 0.010-0.082-0.048-0.049-0.085l0.424-0.479-0.316-0.556c-0.024-0.043 0.020-0.092 0.066-0.073z"></path>
<path fill="#f5f5f5" d="M17.405 14.437l0.64-0.005 0.202-0.607c0.016-0.047 0.082-0.047 0.098 0l0.202 0.607 0.64 0.005c0.049 0 0.070 0.064 0.030 0.093l-0.515 0.38 0.193 0.61c0.015 0.047-0.039 0.086-0.079 0.057l-0.52-0.372-0.52 0.372c-0.040 0.029-0.094-0.010-0.079-0.057l0.193-0.61-0.514-0.38c-0.040-0.030-0.019-0.093 0.031-0.093z"></path>
<path fill="#f5f5f5" d="M17.274 17.254l0.582-0.265-0.062-0.637c-0.005-0.049 0.056-0.076 0.089-0.040l0.432 0.472 0.586-0.256c0.045-0.020 0.090 0.030 0.065 0.073l-0.316 0.556 0.424 0.479c0.033 0.037-0 0.095-0.049 0.085l-0.627-0.128-0.324 0.551c-0.025 0.043-0.090 0.029-0.096-0.020l-0.072-0.636-0.625-0.138c-0.048-0.011-0.055-0.077-0.010-0.097z"></path>
<path fill="#f5f5f5" d="M18.301 19.88l0.424-0.479-0.316-0.556c-0.024-0.043 0.020-0.093 0.065-0.073l0.586 0.256 0.432-0.472c0.033-0.037 0.094-0.009 0.089 0.040l-0.062 0.637 0.582 0.265c0.045 0.020 0.038 0.087-0.010 0.097l-0.625 0.138-0.072 0.636c-0.006 0.049-0.071 0.063-0.096 0.020l-0.324-0.551-0.627 0.128c-0.048 0.010-0.082-0.048-0.049-0.085z"></path>
<path fill="#f5f5f5" d="M20.307 21.862l0.193-0.61-0.514-0.38c-0.040-0.029-0.019-0.093 0.030-0.093l0.64-0.005 0.202-0.607c0.016-0.047 0.082-0.047 0.098 0l0.202 0.607 0.64 0.005c0.049 0 0.070 0.064 0.030 0.093l-0.515 0.38 0.193 0.61c0.015 0.047-0.039 0.086-0.079 0.058l-0.52-0.372-0.52 0.372c-0.040 0.029-0.094-0.010-0.079-0.058z"></path>
<path fill="#f5f5f5" d="M22.946 22.857l-0.072-0.636-0.625-0.138c-0.048-0.011-0.055-0.077-0.010-0.097l0.582-0.265-0.062-0.637c-0.005-0.049 0.056-0.076 0.089-0.040l0.432 0.472 0.586-0.256c0.045-0.020 0.090 0.030 0.065 0.073l-0.316 0.556 0.424 0.479c0.033 0.037-0 0.095-0.049 0.085l-0.627-0.128-0.324 0.551c-0.025 0.043-0.090 0.029-0.096-0.020z"></path>
<path fill="#f5f5f5" d="M25.761 22.692l-0.324-0.551-0.627 0.128c-0.049 0.010-0.082-0.048-0.049-0.085l0.424-0.479-0.316-0.556c-0.024-0.043 0.020-0.093 0.065-0.073l0.586 0.256 0.432-0.472c0.033-0.037 0.094-0.009 0.089 0.040l-0.062 0.637 0.582 0.265c0.045 0.020 0.038 0.087-0.010 0.097l-0.625 0.138-0.072 0.636c-0.006 0.049-0.070 0.063-0.096 0.020z"></path>
<path fill="#f5f5f5" d="M28.266 21.397l-0.52-0.372-0.52 0.372c-0.040 0.029-0.094-0.010-0.079-0.058l0.193-0.61-0.514-0.38c-0.040-0.029-0.019-0.093 0.030-0.093l0.64-0.005 0.202-0.607c0.016-0.047 0.082-0.047 0.098 0l0.202 0.607 0.64 0.005c0.049 0 0.070 0.064 0.030 0.093l-0.515 0.38 0.193 0.61c0.015 0.047-0.039 0.086-0.079 0.058z"></path>
<path fill="#f5f5f5" d="M30.027 19.195l-0.627-0.128-0.324 0.551c-0.025 0.043-0.090 0.029-0.096-0.020l-0.072-0.636-0.625-0.138c-0.048-0.011-0.055-0.077-0.010-0.097l0.582-0.265-0.062-0.637c-0.005-0.049 0.056-0.076 0.089-0.040l0.432 0.472 0.586-0.256c0.045-0.020 0.090 0.030 0.065 0.073l-0.316 0.556 0.424 0.479c0.033 0.037-0 0.095-0.049 0.085z"></path>
<path fill="#f5f5f5" d="M30.741 16.467l-0.625 0.138-0.072 0.636c-0.006 0.049-0.071 0.063-0.096 0.020l-0.324-0.551-0.627 0.128c-0.049 0.010-0.082-0.048-0.049-0.085l0.424-0.479-0.316-0.556c-0.024-0.043 0.020-0.092 0.065-0.073l0.586 0.256 0.432-0.472c0.033-0.037 0.094-0.009 0.089 0.040l-0.062 0.637 0.582 0.265c0.045 0.021 0.038 0.087-0.010 0.097z"></path>
<path fill="#f5f5f5" d="M30.283 13.684l-0.515 0.38 0.193 0.61c0.015 0.047-0.039 0.086-0.079 0.057l-0.52-0.372-0.52 0.372c-0.040 0.029-0.094-0.010-0.079-0.057l0.193-0.61-0.514-0.38c-0.040-0.029-0.019-0.093 0.030-0.093l0.64-0.005 0.202-0.607c0.016-0.047 0.082-0.047 0.098 0l0.202 0.607 0.64 0.005c0.050 0 0.070 0.064 0.030 0.093z"></path>
<path fill="#f5f5f5" d="M28.733 11.328l-0.316 0.556 0.424 0.479c0.033 0.037-0 0.095-0.049 0.085l-0.627-0.128-0.324 0.551c-0.025 0.043-0.090 0.029-0.096-0.020l-0.072-0.636-0.625-0.138c-0.048-0.011-0.055-0.077-0.010-0.097l0.582-0.265-0.062-0.637c-0.005-0.049 0.056-0.076 0.089-0.040l0.432 0.472 0.586-0.256c0.046-0.020 0.090 0.030 0.066 0.073z"></path>
<path fill="#f5f5f5" d="M26.358 9.806l-0.062 0.637 0.582 0.265c0.045 0.021 0.038 0.087-0.010 0.097l-0.625 0.138-0.072 0.636c-0.006 0.049-0.071 0.063-0.096 0.020l-0.324-0.551-0.627 0.128c-0.049 0.010-0.082-0.048-0.049-0.085l0.424-0.479-0.316-0.556c-0.024-0.043 0.020-0.092 0.065-0.073l0.586 0.256 0.432-0.472c0.034-0.037 0.094-0.009 0.090 0.040z"></path>
<path fill="#f5f5f5" d="M23.571 9.382l0.202 0.607 0.64 0.005c0.049 0 0.070 0.064 0.030 0.093l-0.515 0.38 0.193 0.61c0.015 0.047-0.039 0.086-0.079 0.057l-0.52-0.372-0.52 0.372c-0.040 0.029-0.094-0.010-0.079-0.057l0.193-0.61-0.514-0.38c-0.040-0.029-0.019-0.093 0.030-0.093l0.64-0.005 0.202-0.607c0.016-0.047 0.082-0.047 0.098 0z"></path>
</svg>
