<svg xmlns="http://www.w3.org/2000/svg" width="32" height="32" version="1.1" viewBox="0 0 32 32"><title>cuba</title><path fill="#41479b" d="M32 7.914c0-1.324-1.073-2.397-2.397-2.397h-27.207c-1.324 0-2.397 1.073-2.397 2.397v1.797h32v-1.797z"/><path fill="#41479b" d="M2.397 26.483h27.207c1.324 0 2.397-1.073 2.397-2.397v-1.797h-32v1.797c0 1.324 1.073 2.397 2.397 2.397z"/><path fill="#f5f5f5" d="M0 9.711h32v4.193h-32v-4.193z"/><path fill="#41479b" d="M0 13.904h32v4.193h-32v-4.193z"/><path fill="#f5f5f5" d="M0 18.097h32v4.193h-32v-4.193z"/><path fill="#ff4b55" d="M0.869 25.933l15.301-9.691c0.178-0.113 0.178-0.372 0-0.484l-15.301-9.691c-0.531 0.44-0.869 1.103-0.869 1.846v16.172c0 0.743 0.338 1.407 0.869 1.846z"/><path fill="#f5f5f5" d="M5.533 13.34l0.567 1.698 1.79 0.014c0.139 0.001 0.196 0.178 0.085 0.261l-1.44 1.064 0.54 1.707c0.042 0.132-0.109 0.242-0.222 0.161l-1.457-1.041-1.457 1.041c-0.113 0.081-0.263-0.029-0.222-0.161l0.54-1.707-1.44-1.064c-0.112-0.082-0.054-0.259 0.085-0.261l1.79-0.014 0.566-1.698c0.044-0.132 0.23-0.132 0.274 0z"/></svg>