<!-- Generated by IcoMoon.io -->
<svg version="1.1" xmlns="http://www.w3.org/2000/svg" width="32" height="32" viewBox="0 0 32 32">
<title>democratic-republic-of-congo</title>
<path fill="#82afff" d="M29.603 26.483h-27.207c-1.324 0-2.397-1.073-2.397-2.397v-16.172c0-1.324 1.073-2.397 2.397-2.397h27.207c1.324 0 2.397 1.073 2.397 2.397v16.172c0 1.324-1.073 2.396-2.397 2.396z"></path>
<path fill="#ffe15a" d="M29.843 5.529l-29.843 15.436v1.103l31.054-16.063c-0.343-0.261-0.758-0.432-1.211-0.477z"></path>
<path fill="#ffe15a" d="M2.156 26.471l29.843-15.436v-1.103l-31.054 16.063c0.343 0.261 0.758 0.432 1.211 0.477z"></path>
<path fill="#ff4b55" d="M31.054 6.006l-31.054 16.062v2.017c0 0.778 0.371 1.47 0.946 1.907l31.054-16.063v-2.017c0-0.778-0.371-1.47-0.946-1.907z"></path>
<path fill="#ffe15a" d="M5.789 7.686l0.795 2.383 2.512 0.019c0.14 0.001 0.199 0.18 0.086 0.264l-2.021 1.493 0.758 2.396c0.042 0.134-0.11 0.245-0.224 0.163l-2.044-1.461-2.044 1.461c-0.114 0.082-0.267-0.029-0.224-0.163l0.758-2.396-2.021-1.493c-0.113-0.083-0.055-0.263 0.086-0.264l2.512-0.019 0.795-2.383c0.045-0.133 0.233-0.133 0.277 0z"></path>
</svg>
