<svg xmlns="http://www.w3.org/2000/svg" width="32" height="32" version="1.1" viewBox="0 0 32 32"><title>djibouti</title><path fill="#f5f5f5" d="M0.856 6.078c-0.523 0.44-0.856 1.099-0.856 1.835v16.172c0 0.737 0.333 1.396 0.857 1.836l15.143-9.922-15.144-9.922z"/><path fill="#73af00" d="M0.857 25.922c0.417 0.35 0.954 0.561 1.54 0.561h27.207c1.324 0 2.397-1.073 2.397-2.397v-8.086h-16l-15.143 9.922z"/><path fill="#82afff" d="M29.618 5.517h-27.236c-0.581 0.003-1.113 0.214-1.526 0.561l15.144 9.922h16v-8.087c0-1.319-1.065-2.388-2.382-2.396z"/><path fill="#ff4b55" d="M5.735 13.509l-0.559 1.675-1.766 0.014c-0.097 0.001-0.137 0.124-0.059 0.182l1.421 1.049-0.533 1.684c-0.029 0.092 0.076 0.169 0.155 0.112l1.437-1.027 1.437 1.027c0.079 0.056 0.184-0.020 0.155-0.112l-0.533-1.684 1.421-1.049c0.078-0.057 0.038-0.181-0.059-0.182l-1.766-0.014-0.559-1.675c-0.031-0.092-0.161-0.092-0.191 0z"/></svg>