<!-- Generated by IcoMoon.io -->
<svg version="1.1" xmlns="http://www.w3.org/2000/svg" width="32" height="32" viewBox="0 0 32 32">
<title>east-timor</title>
<path fill="#ff4b55" d="M29.608 26.483h-27.213c-1.32 0-2.396-1.068-2.396-2.396v-16.174c0-1.324 1.076-2.396 2.396-2.396h27.209c1.324 0 2.396 1.076 2.396 2.396v16.178c0.004 1.324-1.072 2.392-2.392 2.392z"></path>
<path fill="#ffe15a" d="M0.912 25.971l17.050-9.627c0.268-0.152 0.268-0.536 0-0.688l-17.050-9.627c-0.556 0.436-0.912 1.12-0.912 1.88v16.178c0 0.764 0.356 1.444 0.912 1.884z"></path>
<path fill="#464655" d="M0.764 25.839l11.471-9.463c0.236-0.192 0.236-0.564 0-0.756l-11.471-9.459c-0.468 0.44-0.764 1.064-0.764 1.752v16.178c0 0.692 0.296 1.308 0.764 1.748z"></path>
<path fill="#f5f5f5" d="M3.444 13.404l0.052 1.988-1.864 0.692c-0.18 0.068-0.168 0.32 0.012 0.376l1.908 0.564 0.080 1.988c0.008 0.188 0.256 0.264 0.364 0.108l1.124-1.636 1.912 0.532c0.18 0.052 0.324-0.164 0.212-0.312l-1.208-1.576 1.1-1.656c0.108-0.156-0.052-0.364-0.232-0.292l-1.876 0.664-1.228-1.564c-0.116-0.148-0.356-0.060-0.356 0.124z"></path>
</svg>
