<svg xmlns="http://www.w3.org/2000/svg" width="32" height="32" version="1.1" viewBox="0 0 32 32"><title>egypt</title><path fill="#ff4b55" d="M29.603 5.517h-27.207c-1.324 0-2.397 1.073-2.397 2.397v4.592h32v-4.592c0-1.324-1.073-2.397-2.397-2.397z"/><path fill="#464655" d="M0 24.086c0 1.324 1.073 2.397 2.397 2.397h27.207c1.324 0 2.397-1.073 2.397-2.397v-4.592h-32v4.592z"/><path fill="#f5f5f5" d="M0 12.506h32v6.988h-32v-6.988z"/><path fill="#f0c727" d="M17.762 14.911c0-0.274-0.268-0.467-0.528-0.38l-0.488 0.163-0.118-0.715c-0.071-0.427-0.436-0.736-0.869-0.736h-0.456l-0.477 0.587h0.632l-0.177 0.873-0.515-0.171c-0.26-0.087-0.528 0.107-0.528 0.38v2.967l0.71-0.71-0.335 1.004h-0.376v0.587h3.523v-0.587h-0.375l-0.335-1.004 0.71 0.71v-2.967h-0zM15.706 18.171h-0.473l0.325-0.869 0.148 0.189v0.68zM16.294 18.171v-0.68l0.148-0.189 0.326 0.869h-0.473zM16 17.107c0 0-0.908-0.615-0.872-1.762 0 0 0.56-0.092 0.872-0.587 0.312 0.495 0.872 0.587 0.872 0.587 0.037 1.147-0.872 1.762-0.872 1.762z"/></svg>