<!-- Generated by IcoMoon.io -->
<svg version="1.1" xmlns="http://www.w3.org/2000/svg" width="32" height="32" viewBox="0 0 32 32">
<title>el-salvador</title>
<path fill="#41479b" d="M29.603 5.517h-27.207c-1.324 0-2.397 1.073-2.397 2.397v4.592h32v-4.592c0-1.324-1.073-2.397-2.397-2.397z"></path>
<path fill="#41479b" d="M0 24.086c0 1.324 1.073 2.397 2.397 2.397h27.207c1.324 0 2.397-1.073 2.397-2.397v-4.592h-32v4.592z"></path>
<path fill="#f5f5f5" d="M0 12.506h32v6.988h-32v-6.988z"></path>
<path fill="#50af69" d="M15.987 18.348c-1.331 0-2.414-1.083-2.414-2.414 0-0.569 0.201-1.121 0.568-1.555l0.105 0.089c-0.345 0.409-0.535 0.93-0.535 1.466 0 1.255 1.021 2.276 2.276 2.276l0 0.138z"></path>
<path fill="#50af69" d="M15.104 17.635c-0.030 0.051-0.045 0.122-0.052 0.194-0.027-0.020-0.056-0.038-0.088-0.053 0 0-0.047 0.167-0.010 0.287 0 0-0.126 0.016-0.241 0.131 0 0 0.040 0.028 0.108 0.057-0.115 0.090-0.15 0.178-0.15 0.178 0.677 0.338 1.001-0.134 1.015-0.155-0.166-0.473-0.583-0.64-0.583-0.64z"></path>
<path fill="#50af69" d="M15.687 18.275c0 0.001 0.001 0.002 0.001 0.003v-0.005c0 0-0.001 0.002-0.001 0.002z"></path>
<path fill="#50af69" d="M14.479 17.184c-0.044 0.032-0.083 0.086-0.114 0.145-0.016-0.026-0.033-0.052-0.054-0.077 0 0-0.101 0.123-0.114 0.239 0 0-0.112-0.033-0.251 0.023 0 0 0.023 0.038 0.070 0.088-0.129 0.034-0.192 0.095-0.192 0.095 0.447 0.533 0.893 0.253 0.913 0.241 0.033-0.46-0.257-0.753-0.257-0.753z"></path>
<path fill="#50af69" d="M14.736 17.936c-0 0.001 0 0.002-0 0.003l0.002-0.005c0 0-0.001 0.001-0.002 0.001z"></path>
<path fill="#50af69" d="M14.091 16.594c-0.048 0.010-0.1 0.040-0.147 0.076-0.003-0.028-0.008-0.055-0.016-0.083 0 0-0.129 0.064-0.182 0.154 0 0-0.080-0.068-0.215-0.075 0 0 0.005 0.040 0.025 0.098-0.119-0.020-0.193 0.007-0.193 0.007 0.17 0.603 0.639 0.539 0.66 0.536 0.197-0.365 0.068-0.714 0.068-0.714z"></path>
<path fill="#50af69" d="M14.023 17.308c-0.001 0.001-0.001 0.002-0.001 0.003l0.003-0.003c0 0-0.001 0-0.002 0z"></path>
<path fill="#50af69" d="M13.937 15.922c-0.046 0.003-0.099 0.023-0.15 0.048 0.004-0.024 0.005-0.049 0.005-0.074 0 0-0.131 0.040-0.199 0.111 0 0-0.056-0.069-0.176-0.091 0 0-0.005 0.035 0 0.088-0.102-0.032-0.175-0.017-0.175-0.017 0.014 0.544 0.452 0.545 0.471 0.545 0.262-0.293 0.225-0.611 0.225-0.611z"></path>
<path fill="#50af69" d="M13.713 16.533c-0.001 0.001-0.001 0.001-0.002 0.002l0.004-0.002c0 0-0.001-0-0.002 0z"></path>
<path fill="#50af69" d="M13.988 15.365c-0.039-0.009-0.089-0.006-0.139 0.002 0.009-0.020 0.017-0.040 0.023-0.061 0 0-0.12-0-0.196 0.042 0 0-0.029-0.072-0.124-0.122 0 0-0.013 0.028-0.023 0.074-0.077-0.053-0.142-0.060-0.142-0.060-0.129 0.46 0.238 0.574 0.255 0.579 0.295-0.178 0.347-0.454 0.347-0.454z"></path>
<path fill="#50af69" d="M13.642 15.819c-0.001 0.001-0.001 0.001-0.002 0.001l0.004-0.001c0 0-0.001-0-0.002-0.001z"></path>
<path fill="#50af69" d="M13.698 14.688c0 0-0.125 0.328 0.069 0.517 0 0 0.253-0.075 0.378-0.338l-0.106-0.020-0.055-0.164-0.181 0.081-0.105-0.076z"></path>
<path fill="#50af69" d="M14.050 14.162c0 0-0.196 0.291-0.050 0.519 0 0 0.263-0.015 0.445-0.243l-0.099-0.044-0.016-0.172-0.195 0.037-0.085-0.098z"></path>
<path fill="#50af69" d="M16.013 18.348v-0.138c1.255 0 2.276-1.021 2.276-2.276 0-0.536-0.19-1.057-0.535-1.466l0.105-0.089c0.366 0.434 0.567 0.986 0.567 1.555 0 1.331-1.083 2.414-2.414 2.414z"></path>
<path fill="#50af69" d="M16.896 17.635c0.030 0.051 0.045 0.122 0.052 0.194 0.027-0.020 0.056-0.038 0.087-0.053 0 0 0.047 0.167 0.010 0.287 0 0 0.126 0.016 0.241 0.131 0 0-0.040 0.028-0.108 0.057 0.115 0.090 0.15 0.178 0.15 0.178-0.677 0.338-1.001-0.134-1.015-0.155 0.166-0.473 0.583-0.64 0.583-0.64z"></path>
<path fill="#50af69" d="M16.313 18.275c-0 0.001-0.001 0.002-0.001 0.003v-0.005c0 0 0.001 0.002 0.001 0.002z"></path>
<path fill="#50af69" d="M17.521 17.184c0.044 0.032 0.083 0.086 0.114 0.145 0.016-0.026 0.033-0.052 0.054-0.077 0 0 0.101 0.123 0.114 0.239 0 0 0.112-0.033 0.251 0.023 0 0-0.023 0.038-0.070 0.088 0.129 0.034 0.192 0.095 0.192 0.095-0.447 0.533-0.893 0.253-0.913 0.241-0.033-0.46 0.257-0.753 0.257-0.753z"></path>
<path fill="#50af69" d="M17.264 17.936c0 0.001 0 0.002 0 0.003l-0.002-0.005c0 0 0.001 0.001 0.002 0.001z"></path>
<path fill="#50af69" d="M17.909 16.594c0.048 0.010 0.1 0.040 0.147 0.076 0.003-0.028 0.008-0.055 0.016-0.083 0 0 0.129 0.064 0.182 0.154 0 0 0.080-0.068 0.215-0.075 0 0-0.005 0.040-0.025 0.098 0.119-0.020 0.193 0.007 0.193 0.007-0.17 0.603-0.639 0.539-0.66 0.536-0.197-0.365-0.067-0.714-0.067-0.714z"></path>
<path fill="#50af69" d="M17.977 17.308c0 0.001 0.001 0.002 0.001 0.003l-0.003-0.003c-0 0 0.001 0 0.002 0z"></path>
<path fill="#50af69" d="M18.063 15.922c0.046 0.003 0.099 0.023 0.15 0.048-0.003-0.024-0.005-0.049-0.005-0.074 0 0 0.131 0.040 0.199 0.111 0 0 0.056-0.069 0.176-0.091 0 0 0.005 0.035 0 0.088 0.102-0.032 0.175-0.017 0.175-0.017-0.014 0.544-0.452 0.545-0.471 0.545-0.262-0.293-0.225-0.611-0.225-0.611z"></path>
<path fill="#50af69" d="M18.287 16.533c0.001 0.001 0.001 0.001 0.002 0.002l-0.004-0.002c0 0 0.001-0 0.002 0z"></path>
<path fill="#50af69" d="M18.012 15.365c0.039-0.009 0.089-0.006 0.139 0.002-0.009-0.020-0.017-0.040-0.023-0.061 0 0 0.12-0 0.196 0.042 0 0 0.029-0.072 0.124-0.122 0 0 0.013 0.028 0.023 0.074 0.077-0.053 0.142-0.060 0.142-0.060 0.129 0.46-0.238 0.574-0.255 0.579-0.295-0.178-0.347-0.454-0.347-0.454z"></path>
<path fill="#50af69" d="M18.358 15.819c0.001 0.001 0.001 0.001 0.002 0.001l-0.004-0.001c0 0 0.001-0 0.002-0.001z"></path>
<path fill="#50af69" d="M18.302 14.688c0 0 0.125 0.328-0.069 0.517 0 0-0.253-0.075-0.378-0.338l0.106-0.020 0.055-0.164 0.181 0.081 0.105-0.076z"></path>
<path fill="#50af69" d="M17.95 14.162c0 0 0.196 0.291 0.050 0.519 0 0-0.263-0.015-0.445-0.243l0.099-0.044 0.016-0.172 0.195 0.037 0.085-0.098z"></path>
<path fill="#41479b" d="M16 16.897l-0.213 0.32c-0.036 0.055-0.029 0.127 0.017 0.174l0.196 0.196 0.196-0.196c0.046-0.046 0.054-0.119 0.017-0.174l-0.213-0.32z"></path>
<path fill="#f5f5f5" d="M16.091 17.216l-0.091-0.32-0.091 0.32c-0.015 0.055-0.012 0.127 0.007 0.174l0.084 0.196 0.084-0.196c0.020-0.047 0.023-0.119 0.007-0.174z"></path>
<path fill="#41479b" d="M16 14.034v-0.862c0 0-0.328 0.471-0.276 1.161z"></path>
<path fill="#41479b" d="M14.531 14.037c-0.474 1.028 0.012 1.875 0.114 2.034 0.003 0.004 0.677-1.086 0.677-1.086l-0.791-0.948z"></path>
<path fill="#f5f5f5" d="M15.030 15.457c-0.075-0.233-0.086-0.505 0.004-0.817l-0.293-0.351c-0.241 0.649-0.141 1.129 0.1 1.473 0.059-0.095 0.125-0.201 0.189-0.304z"></path>
<path fill="#ffe15a" d="M15.31 15.043c-0.021 0-0.041-0.009-0.055-0.027l-0.865-1.112c-0.023-0.030-0.018-0.073 0.012-0.097s0.073-0.018 0.097 0.012l0.865 1.112c0.023 0.030 0.018 0.073-0.012 0.097-0.013 0.010-0.027 0.015-0.042 0.015z"></path>
<path fill="#41479b" d="M13.931 15.106c-0.276 2.759 1.931 2.069 2.069 1.793l-1.379-0.69 0.276-0.552-0.966-0.552z"></path>
<path fill="#f5f5f5" d="M14.598 15.424l-0.384-0.231c-0.086 1.639 0.789 1.912 1.435 1.831-0.523-0.070-1.046-0.457-1.050-1.6z"></path>
<path fill="#ffe15a" d="M14.896 15.727c-0.012 0-0.025-0.003-0.037-0.011l-1.103-0.69c-0.032-0.020-0.042-0.063-0.022-0.095s0.063-0.042 0.095-0.022l1.103 0.69c0.032 0.020 0.042 0.063 0.022 0.095-0.013 0.021-0.036 0.032-0.059 0.032z"></path>
<path fill="#41479b" d="M17.469 14.035c0.474 1.028-0.012 1.875-0.114 2.034-0.003 0.004-0.677-1.086-0.677-1.086l0.791-0.948z"></path>
<path fill="#f5f5f5" d="M16.97 15.454c0.075-0.233 0.086-0.505-0.004-0.817l0.293-0.351c0.241 0.649 0.141 1.129-0.1 1.473-0.059-0.095-0.125-0.201-0.189-0.304z"></path>
<path fill="#ffe15a" d="M16.69 15.040c-0.015 0-0.030-0.005-0.042-0.015-0.030-0.023-0.035-0.067-0.012-0.097l0.865-1.112c0.023-0.030 0.067-0.035 0.097-0.012s0.035 0.067 0.012 0.097l-0.865 1.112c-0.014 0.018-0.034 0.027-0.055 0.027z"></path>
<path fill="#41479b" d="M18.069 15.103c0.276 2.759-1.931 2.069-2.069 1.793l1.379-0.69-0.276-0.552 0.965-0.552z"></path>
<path fill="#f5f5f5" d="M17.402 15.421l0.384-0.231c0.087 1.639-0.789 1.912-1.435 1.831 0.523-0.070 1.046-0.457 1.050-1.6z"></path>
<path fill="#ffe15a" d="M17.104 15.724c-0.023 0-0.045-0.011-0.059-0.033-0.020-0.032-0.010-0.075 0.022-0.095l1.103-0.69c0.032-0.020 0.075-0.011 0.095 0.022s0.010 0.075-0.022 0.095l-1.103 0.69c-0.011 0.007-0.024 0.011-0.037 0.011z"></path>
<path fill="#ffe6e6" d="M16.552 15.241c0 0.305-0.247 0.552-0.552 0.552s-0.552-0.247-0.552-0.552c0-0.305 0.247-0.552 0.552-0.552s0.552 0.247 0.552 0.552z"></path>
<path fill="#f5f5f5" d="M16.276 15.241c0 0.152-0.123 0.276-0.276 0.276s-0.276-0.123-0.276-0.276c0-0.152 0.123-0.276 0.276-0.276s0.276 0.123 0.276 0.276z"></path>
<path fill="#ffe15a" d="M16 16.138c-0.038 0-0.069-0.031-0.069-0.069v-0.828c0-0.038 0.031-0.069 0.069-0.069s0.069 0.031 0.069 0.069v0.828c0 0.038-0.031 0.069-0.069 0.069z"></path>
<path fill="#5aa0e6" d="M17.885 16.885h-3.695l0.431-0.82h2.77z"></path>
<path fill="#ffb750" d="M16.112 16.218h0.961l-0.299-0.299c-0.014-0.014-0.031-0.025-0.050-0.031l-0.104-0.035c-0.038-0.012-0.079-0.007-0.112 0.015l-0.332 0.221-0.064 0.128z"></path>
<path fill="#ffc455" d="M15.785 16.27h1.147l-0.357-0.357c-0.017-0.017-0.037-0.029-0.060-0.037l-0.124-0.041c-0.045-0.015-0.094-0.008-0.133 0.018l-0.397 0.264-0.076 0.153z"></path>
<path fill="#ffcd55" d="M15.386 16.328h1.385l-0.431-0.431c-0.020-0.020-0.045-0.036-0.072-0.045l-0.15-0.050c-0.054-0.018-0.113-0.010-0.161 0.021l-0.479 0.319-0.092 0.185z"></path>
<path fill="#ffd25a" d="M14.992 16.379h1.586l-0.493-0.493c-0.023-0.023-0.052-0.041-0.083-0.051l-0.172-0.057c-0.062-0.021-0.13-0.011-0.184 0.025l-0.548 0.366-0.106 0.212z"></path>
<path fill="#ffe15a" d="M14.345 16.483h2.069l-0.644-0.644c-0.030-0.030-0.067-0.053-0.108-0.067l-0.224-0.075c-0.081-0.027-0.169-0.015-0.24 0.032l-0.715 0.477-0.138 0.276z"></path>
<path fill="#ff4b55" d="M16.149 15.365h-0.298l0.069-0.288h0.104c0.034 0 0.063 0.023 0.071 0.056l0.055 0.232z"></path>
<path fill="#ff4b55" d="M16.132 15.411h-0.268c-0.022 0-0.040-0.018-0.040-0.040v-0.013c0-0.022 0.018-0.040 0.040-0.040h0.268c0.022 0 0.040 0.018 0.040 0.040v0.013c0 0.022-0.018 0.040-0.040 0.040z"></path>
<path fill="#ff4b55" d="M15.955 15.208l-0.067-0.017c-0.020-0.005-0.029-0.029-0.017-0.046l0.048-0.068 0.035 0.131z"></path>
<path fill="#41479b" d="M15.656 14.533c-0.003 0.025-0.007 0.051-0.010 0.076 0.107-0.065 0.225-0.104 0.354-0.104s0.247 0.039 0.354 0.104c-0.003-0.025-0.007-0.051-0.010-0.076-0.107-0.056-0.221-0.088-0.344-0.088s-0.237 0.032-0.344 0.088z"></path>
<path fill="#5aa0e6" d="M15.66 14.5c-0.003 0.025-0.007 0.051-0.010 0.076 0.106-0.065 0.223-0.104 0.35-0.104s0.244 0.039 0.35 0.104c-0.003-0.025-0.007-0.051-0.010-0.076-0.105-0.056-0.219-0.088-0.34-0.088s-0.234 0.032-0.34 0.088z"></path>
<path fill="#9bc800" d="M15.664 14.469c-0.003 0.025-0.007 0.051-0.010 0.076 0.105-0.065 0.22-0.105 0.346-0.105s0.241 0.039 0.346 0.105c-0.003-0.025-0.007-0.051-0.010-0.076-0.104-0.056-0.216-0.088-0.336-0.088s-0.231 0.032-0.336 0.088z"></path>
<path fill="#ffe14e" d="M15.669 14.434c-0.003 0.025-0.007 0.051-0.010 0.076 0.104-0.066 0.218-0.105 0.341-0.105s0.237 0.039 0.341 0.105c-0.003-0.025-0.007-0.051-0.010-0.076-0.103-0.056-0.213-0.088-0.331-0.089s-0.228 0.032-0.331 0.089z"></path>
<path fill="#ffb14e" d="M15.673 14.4c-0.003 0.025-0.007 0.051-0.010 0.076 0.103-0.066 0.215-0.105 0.337-0.105s0.234 0.040 0.337 0.105c-0.003-0.025-0.007-0.051-0.010-0.076-0.102-0.056-0.211-0.089-0.327-0.089s-0.225 0.032-0.327 0.089z"></path>
<path fill="#ff4b55" d="M15.675 14.385c-0.002 0.018-0.005 0.036-0.007 0.053 0.101-0.066 0.212-0.106 0.332-0.106s0.231 0.040 0.332 0.106c-0.002-0.018-0.005-0.036-0.007-0.053-0.101-0.056-0.209-0.089-0.325-0.089s-0.224 0.033-0.325 0.089z"></path>
<path fill="#ffe15a" d="M17.931 16.965h-3.862c-0.025 0-0.049-0.014-0.061-0.036s-0.011-0.050 0.003-0.071l1.931-2.897c0.026-0.038 0.089-0.038 0.115 0l1.931 2.897c0.014 0.021 0.015 0.048 0.003 0.071s-0.035 0.036-0.061 0.036zM14.198 16.828h3.604l-1.802-2.703-1.802 2.703z"></path>
<path fill="#ffe15a" d="M16 13.379c-0.038 0-0.069-0.031-0.069-0.069v-0.276c0-0.038 0.031-0.069 0.069-0.069s0.069 0.031 0.069 0.069v0.276c0 0.038-0.031 0.069-0.069 0.069z"></path>
<path fill="#ffe15a" d="M16.138 13.379h-0.276c-0.038 0-0.069-0.031-0.069-0.069s0.031-0.069 0.069-0.069h0.276c0.038 0 0.069 0.031 0.069 0.069s-0.031 0.069-0.069 0.069z"></path>
<path fill="#41479b" d="M16 18.345c-0.005 0-0.010-0.001-0.015-0.002-0.068-0.015-0.293-0.069-0.359-0.135-0.084-0.084-0.085-0.221-0.001-0.305 0.041-0.041 0.095-0.063 0.152-0.064h0.001c0.057 0 0.111 0.022 0.152 0.063 0.066 0.066 0.122 0.291 0.138 0.358 0.005 0.023-0.002 0.047-0.018 0.064-0.013 0.013-0.031 0.020-0.049 0.020zM15.778 17.978c-0.018 0.006-0.040 0.008-0.055 0.023-0.030 0.030-0.030 0.080 0.001 0.11 0.017 0.016 0.091 0.044 0.181 0.070-0.026-0.089-0.055-0.163-0.071-0.18l0.049-0.049-0.049 0.049c-0.015-0.015-0.034-0.023-0.055-0.023z"></path>
<path fill="#41479b" d="M16 18.345c-0.018 0-0.036-0.007-0.049-0.020-0.017-0.017-0.024-0.041-0.018-0.064 0.015-0.067 0.071-0.292 0.138-0.358v0c0.041-0.041 0.090-0.059 0.153-0.063 0.058 0 0.112 0.023 0.152 0.064 0.084 0.084 0.083 0.221-0.001 0.305-0.067 0.066-0.292 0.12-0.359 0.135-0.005 0.001-0.010 0.002-0.015 0.002zM16.119 17.951l0.049 0.049c-0.017 0.017-0.045 0.091-0.071 0.18 0.089-0.025 0.164-0.054 0.181-0.070 0.030-0.030 0.030-0.079 0-0.11-0.015-0.015-0.034-0.023-0.055-0.023h-0c-0.021 0-0.040 0.008-0.055 0.023l-0.049-0.049zM16.119 17.951v0z"></path>
<path fill="#41479b" d="M15.724 18.759c-0.038 0-0.069-0.031-0.069-0.069 0-0.315 0.301-0.469 0.314-0.476 0.034-0.017 0.075-0.003 0.092 0.031s0.003 0.075-0.030 0.093c-0.002 0.001-0.238 0.123-0.238 0.352-0 0.038-0.031 0.069-0.069 0.069z"></path>
<path fill="#41479b" d="M16.276 18.759c-0.038 0-0.069-0.031-0.069-0.069 0-0.229-0.236-0.351-0.238-0.352-0.034-0.017-0.047-0.059-0.030-0.093s0.058-0.048 0.092-0.031c0.013 0.006 0.314 0.161 0.314 0.476-0 0.038-0.031 0.069-0.069 0.069z"></path>
</svg>
