<!-- Generated by IcoMoon.io -->
<svg version="1.1" xmlns="http://www.w3.org/2000/svg" width="32" height="32" viewBox="0 0 32 32">
<title>eritrea</title>
<path fill="#73af00" d="M29.618 5.517h-27.236c-1.317 0.008-2.382 1.077-2.382 2.396v8.087h32v-8.087c0-1.319-1.065-2.388-2.382-2.396z"></path>
<path fill="#4173cd" d="M0 24.086c0 1.324 1.073 2.397 2.397 2.397h27.207c1.324 0 2.397-1.073 2.397-2.397v-8.086h-32v8.086z"></path>
<path fill="#ff4b55" d="M0 7.914v16.172c0 0.855 0.448 1.605 1.122 2.029l30.878-10.115-30.879-10.115c-0.673 0.424-1.121 1.174-1.121 2.029z"></path>
<path fill="#ffe15a" d="M11.8 19.15c0 0 1.554-0.567 1.993-2.267 0 0-0.676 0.878-1.152 1.133 0 0 1.042-1.389 0.823-2.742 0 0-0.128 0.548-0.384 0.768 0 0 0.457-1.956-0.128-2.779 0 0 0.018 0.695-0.238 1.389 0 0 0.098-2.2-0.902-2.76 0 0 0.39 0.695 0.225 1.28 0 0-0.274-1.243-1.548-1.737 0 0-0.079 0.091-0.061 0.366 0 0-0.347-0.421-1.207-0.402 0 0 0.018 0.311 0.238 0.603 0 0-0.347 0.183-0.567 0.128 0 0 0.347 0.384 1.572 0.347 0 0-0.165 0.146-0.494 0.183 0 0 0.5 0.23 0.993 0.274 0.676 0.061 0.945 0.457 1.072 0.951 0 0-0.53-0.311-0.731-0.622 0 0-0.037 0.53 0.969 1.554l-0.512-0.219c0 0 0.329 0.951 0.731 2.029l-0.421-0.457c0 0-0.091 0.768-0.165 2.194l-0.293-0.676c0 0-0.512 1.682-1.298 1.956-0.615 0.215-1.296 0.362-1.563 0.416-0.025-0.941 0.375-1.147 0.375-1.147 0.713 0.037 0.877-0.75 0.877-0.75-0.146 0.146-0.421 0.146-0.421 0.146 0.421-0.439 0.421-1.060 0.421-1.060-0.256 0.494-0.658 0.567-0.658 0.567l0.037-0.494c-0.744 0.541-0.691 1.174-0.678 1.267-0.017-0.118-0.149-1.045-0.218-1.267-0.073-0.238 0.091-0.713 0.347-0.64 0.828 0.237 1.024-0.366 1.024-0.366-0.439 0.201-0.695 0.055-0.695 0.055 0.567-0.548 0.329-1.060 0.329-1.060-0.183 0.53-0.695 0.622-0.695 0.622l-0.018-0.585c-0.238 0.128-0.457 0.695-0.457 0.695s-0.055-0.457 0.11-0.859c0.165-0.402 0.585-0.201 0.585-0.201 0.749 0.146 0.987-0.567 0.987-0.567l-0.494 0.073c0.548-0.402 0.384-0.896 0.384-0.896-0.128 0.311-0.585 0.366-0.585 0.366l0.219-0.585c-0.475 0-0.749 0.622-0.749 0.622l-0.037-0.603c0.219-0.786-0.293-1.133-0.293-1.133-0.11 0.146-0.055 0.457-0.055 0.457-0.457-0.402-0.804 0.073-0.804 0.073 0.347 0.366 0.676 0.329 0.676 0.329-0.11 0.073-0.512 0.11-0.512 0.11 0.457 0.384 0.713 0.311 0.713 0.311 0.219 0.932-0.366 1.353-0.366 1.353-0.11-0.695-0.53-1.024-0.53-1.024l0.018 0.457c-0.274-0.165-0.494-0.658-0.494-0.658-0.183 0.695 0.311 1.298 0.311 1.298l-0.457-0.037c0.402 0.932 1.042 0.64 1.042 0.64-0.055 0.658 0.165 1.737 0.165 1.737-0.091-0.11-1.060-1.024-1.060-1.024-0.037 0.366 0.311 0.841 0.311 0.841-0.183-0.037-0.713-0.439-0.713-0.439 0.055 0.585 0.823 0.969 0.823 0.969-0.293 0.037-0.859-0.293-0.859-0.293 0.329 1.408 1.536 0.786 1.536 0.786l0.093 1.904c-0.255-0.061-0.812-0.203-1.391-0.405-0.786-0.274-1.298-1.956-1.298-1.956l-0.292 0.676c-0.073-1.426-0.165-2.194-0.165-2.194l-0.42 0.457c0.402-1.079 0.731-2.029 0.731-2.029l-0.512 0.219c1.005-1.024 0.969-1.554 0.969-1.554-0.201 0.311-0.731 0.622-0.731 0.622 0.128-0.494 0.53-1.005 1.024-1.042s1.042-0.183 1.042-0.183c-0.329-0.037-0.494-0.183-0.494-0.183 1.426-0.128 1.572-0.512 1.572-0.512-0.219 0.055-0.896-0.018-0.896-0.018 0.567-0.311 1.499-0.603 1.499-0.603-1.152-0.201-2.139 0.457-2.139 0.457 0.165-0.311 0.457-0.658 0.457-0.658-1.408 0.622-2.066 2.029-2.066 2.029-0.165-0.585 0.225-1.28 0.225-1.28-0.999 0.561-0.902 2.76-0.902 2.76-0.256-0.695-0.238-1.389-0.238-1.389-0.585 0.823-0.128 2.779-0.128 2.779-0.256-0.219-0.384-0.768-0.384-0.768-0.219 1.353 0.823 2.742 0.823 2.742-0.475-0.256-1.152-1.133-1.152-1.133 0.439 1.7 1.993 2.267 1.993 2.267-0.859-0.329-1.225-0.055-1.225-0.055 0.603 0.128 1.188 0.494 1.664 0.841s1.115 0.421 1.682 0.494c0.234 0.030 0.428 0.070 0.578 0.106-0.31 0.152-0.524 0.469-0.524 0.837h1.865c0-0.354-0.197-0.662-0.488-0.82 0.187-0.040 0.437-0.087 0.708-0.122 0.567-0.073 1.159-0.224 1.682-0.494 0.567-0.293 1.060-0.713 1.664-0.841 0.001-0-0.365-0.274-1.224 0.055z"></path>
</svg>
