<!-- Generated by IcoMoon.io -->
<svg version="1.1" xmlns="http://www.w3.org/2000/svg" width="32" height="32" viewBox="0 0 32 32">
<title>ethiopia</title>
<path fill="#73af00" d="M29.603 5.517h-27.207c-1.324 0-2.397 1.073-2.397 2.397v4.592h32v-4.592c0-1.324-1.073-2.397-2.397-2.397z"></path>
<path fill="#ff4b55" d="M0 24.086c0 1.324 1.073 2.397 2.397 2.397h27.207c1.324 0 2.397-1.073 2.397-2.397v-4.592h-32v4.592z"></path>
<path fill="#ffe15a" d="M0 12.506h32v6.988h-32v-6.988z"></path>
<path fill="#4173cd" d="M22.622 16.006c0 3.652-2.965 6.622-6.622 6.622s-6.622-2.97-6.622-6.622c0-3.662 2.965-6.627 6.622-6.627s6.622 2.965 6.622 6.627v0z"></path>
<path fill="#f2dd30" d="M10.964 14.341h3.847l0.871-2.679 0.231 0.719-1.264 3.895-0.377-0.275 0.394-1.21h-3.094l-0.608-0.449zM12.886 20.265l1.189-3.657-2.279-1.659h0.752l3.312 2.405-0.377 0.275-1.032-0.75-0.958 2.949-0.608 0.439zM19.114 20.265l-3.114-2.262-2.278 1.654 0.233-0.708 3.309-2.41 0.141 0.444-1.029 0.745 2.504 1.823 0.234 0.713zM21.036 14.341l-3.111 2.267 0.871 2.679-0.608-0.444-1.263-3.895h0.462l0.394 1.216 2.505-1.823 0.75 0zM16 10.685l1.189 3.657h2.818l-0.609 0.449h-4.093l0.144-0.449h1.276l-0.958-2.944 0.233-0.713z"></path>
<path fill="#f2dd30" d="M16.111 21.301h-0.221v-2.869h0.221v2.869zM21.003 17.739l-2.728-0.883 0.069-0.206 2.729 0.883-0.070 0.206zM10.995 17.739l-0.069-0.206 2.731-0.883 0.068 0.206-2.729 0.883zM17.518 14.104l-0.18-0.127 1.687-2.32 0.176 0.127-1.683 2.32zM14.486 14.104l-1.69-2.32 0.178-0.127 1.686 2.32-0.174 0.127z"></path>
</svg>
