<!-- Generated by IcoMoon.io -->
<svg version="1.1" xmlns="http://www.w3.org/2000/svg" width="32" height="32" viewBox="0 0 32 32">
<title>european-union</title>
<path fill="#41479b" d="M29.603 5.517h-27.207c-1.324 0-2.397 1.073-2.397 2.397v16.172c0 1.324 1.073 2.397 2.397 2.397h27.207c1.324 0 2.397-1.073 2.397-2.397v-16.172c0-1.324-1.073-2.397-2.397-2.397z"></path>
<path fill="#ffe15a" d="M16.224 7.918l0.221 0.663 0.699 0.005c0.091 0.001 0.128 0.116 0.055 0.17l-0.563 0.415 0.211 0.667c0.027 0.086-0.071 0.158-0.145 0.105l-0.569-0.407-0.569 0.407c-0.074 0.053-0.172-0.019-0.145-0.105l0.211-0.667-0.563-0.415c-0.073-0.054-0.035-0.169 0.055-0.17l0.699-0.005 0.221-0.663c0.029-0.086 0.15-0.086 0.179 0z"></path>
<path fill="#ffe15a" d="M16.224 22.159l0.221 0.663 0.699 0.005c0.091 0.001 0.128 0.116 0.055 0.17l-0.563 0.415 0.211 0.667c0.027 0.086-0.071 0.158-0.145 0.105l-0.569-0.407-0.569 0.407c-0.074 0.053-0.172-0.019-0.145-0.105l0.211-0.667-0.563-0.415c-0.073-0.054-0.035-0.169 0.055-0.17l0.699-0.005 0.221-0.663c0.029-0.086 0.15-0.086 0.179 0z"></path>
<path fill="#ffe15a" d="M23.345 15.038l0.221 0.663 0.699 0.005c0.091 0.001 0.128 0.116 0.055 0.17l-0.563 0.415 0.211 0.667c0.027 0.086-0.071 0.158-0.145 0.105l-0.569-0.407-0.569 0.407c-0.074 0.053-0.172-0.019-0.145-0.105l0.211-0.667-0.563-0.415c-0.073-0.054-0.035-0.169 0.055-0.17l0.699-0.005 0.221-0.663c0.029-0.086 0.15-0.086 0.179 0z"></path>
<path fill="#ffe15a" d="M9.104 15.038l0.221 0.663 0.699 0.005c0.091 0.001 0.128 0.116 0.055 0.17l-0.563 0.415 0.211 0.667c0.027 0.086-0.071 0.158-0.145 0.105l-0.569-0.407-0.569 0.407c-0.074 0.053-0.172-0.019-0.145-0.105l0.211-0.667-0.563-0.415c-0.073-0.054-0.035-0.169 0.055-0.17l0.699-0.005 0.221-0.663c0.029-0.086 0.15-0.086 0.179 0z"></path>
<path fill="#ffe15a" d="M10.173 11.32l0.221 0.663 0.699 0.005c0.091 0.001 0.128 0.116 0.055 0.17l-0.563 0.415 0.211 0.667c0.027 0.086-0.071 0.158-0.145 0.105l-0.569-0.407-0.569 0.407c-0.074 0.053-0.172-0.019-0.145-0.105l0.211-0.667-0.563-0.415c-0.073-0.054-0.035-0.169 0.055-0.17l0.699-0.005 0.221-0.663c0.029-0.086 0.15-0.086 0.179 0z"></path>
<path fill="#ffe15a" d="M22.506 18.441l0.221 0.663 0.699 0.005c0.091 0.001 0.128 0.116 0.055 0.17l-0.563 0.415 0.211 0.667c0.027 0.086-0.071 0.158-0.145 0.105l-0.569-0.407-0.569 0.407c-0.074 0.053-0.172-0.019-0.145-0.105l0.211-0.667-0.563-0.415c-0.073-0.054-0.035-0.169 0.055-0.17l0.699-0.005 0.221-0.663c0.029-0.086 0.15-0.086 0.179 0z"></path>
<path fill="#ffe15a" d="M19.9 8.714l0.221 0.663 0.699 0.005c0.091 0.001 0.128 0.116 0.055 0.17l-0.563 0.415 0.211 0.667c0.027 0.086-0.071 0.158-0.145 0.105l-0.569-0.407-0.569 0.407c-0.074 0.053-0.172-0.019-0.145-0.105l0.211-0.667-0.563-0.415c-0.073-0.054-0.035-0.169 0.055-0.17l0.699-0.005 0.221-0.663c0.029-0.086 0.15-0.086 0.179 0z"></path>
<path fill="#ffe15a" d="M12.779 21.047l0.221 0.663 0.699 0.005c0.091 0.001 0.128 0.116 0.055 0.17l-0.563 0.415 0.211 0.667c0.027 0.086-0.071 0.158-0.145 0.105l-0.569-0.407-0.569 0.407c-0.074 0.053-0.172-0.019-0.145-0.105l0.211-0.667-0.563-0.415c-0.073-0.054-0.035-0.169 0.055-0.17l0.699-0.005 0.221-0.663c0.029-0.086 0.15-0.086 0.179-0z"></path>
<path fill="#ffe15a" d="M22.327 11.32l-0.221 0.663-0.699 0.005c-0.091 0.001-0.128 0.116-0.055 0.17l0.563 0.415-0.211 0.667c-0.027 0.086 0.071 0.158 0.145 0.105l0.569-0.407 0.569 0.407c0.074 0.053 0.172-0.019 0.145-0.105l-0.211-0.667 0.563-0.415c0.073-0.054 0.035-0.169-0.055-0.17l-0.699-0.005-0.221-0.663c-0.029-0.086-0.15-0.086-0.179 0z"></path>
<path fill="#ffe15a" d="M9.994 18.441l-0.221 0.663-0.699 0.005c-0.091 0.001-0.128 0.116-0.055 0.17l0.563 0.415-0.211 0.667c-0.027 0.086 0.071 0.158 0.145 0.105l0.569-0.407 0.569 0.407c0.074 0.053 0.172-0.019 0.145-0.105l-0.211-0.667 0.563-0.415c0.073-0.054 0.035-0.169-0.055-0.17l-0.699-0.005-0.221-0.663c-0.029-0.086-0.15-0.086-0.179 0z"></path>
<path fill="#ffe15a" d="M12.6 8.714l-0.221 0.663-0.699 0.005c-0.091 0.001-0.128 0.116-0.055 0.17l0.563 0.415-0.211 0.667c-0.027 0.086 0.071 0.158 0.145 0.105l0.569-0.407 0.569 0.407c0.074 0.053 0.172-0.019 0.145-0.105l-0.211-0.667 0.563-0.415c0.073-0.054 0.035-0.169-0.055-0.17l-0.699-0.005-0.221-0.663c-0.029-0.086-0.15-0.086-0.179 0z"></path>
<path fill="#ffe15a" d="M19.721 21.047l-0.221 0.663-0.699 0.005c-0.091 0.001-0.128 0.116-0.055 0.17l0.563 0.415-0.211 0.667c-0.027 0.086 0.071 0.158 0.145 0.105l0.569-0.407 0.569 0.407c0.074 0.053 0.172-0.019 0.145-0.105l-0.211-0.667 0.563-0.415c0.073-0.054 0.035-0.169-0.055-0.17l-0.699-0.005-0.221-0.663c-0.029-0.086-0.15-0.086-0.179-0z"></path>
</svg>
