<svg xmlns="http://www.w3.org/2000/svg" width="32" height="32" version="1.1" viewBox="0 0 32 32"><title>fiji</title><path fill="#82afff" d="M29.603 5.517h-27.207c-1.324 0-2.397 1.073-2.397 2.397v16.172c0 1.324 1.073 2.397 2.397 2.397h27.207c1.324 0 2.397-1.073 2.397-2.397v-16.172c0-1.324-1.073-2.397-2.397-2.397z"/><path fill="#41479b" d="M0.552 16h14.897c0.305 0 0.552-0.247 0.552-0.552v-9.379c0-0.305-0.247-0.552-0.552-0.552h-13.052c-1.324 0-2.397 1.073-2.397 2.397v7.534c0 0.305 0.247 0.552 0.552 0.552z"/><path fill="#f5f5f5" d="M15.448 5.517h-0.958l-5.111 3.348v-3.348h-2.759v3.348l-5.111-3.348h-0.958c-0.305 0-0.552 0.247-0.552 0.552v0.438l4.385 2.873h-4.385v2.759h4.385l-4.385 2.873v0.438c0 0.305 0.247 0.552 0.552 0.552h0.958l5.111-3.348v3.348h2.759v-3.348l5.111 3.348h0.958c0.305 0 0.552-0.247 0.552-0.552v-0.438l-4.385-2.873h4.385v-2.759h-4.385l4.385-2.873v-0.438c0-0.305-0.247-0.552-0.552-0.552z"/><path fill="#ff4b55" d="M16 9.931h-7.172v-4.414h-1.655v4.414h-7.172v1.655h7.172v4.414h1.655v-4.414h7.172z"/><path fill="#ff4b55" d="M0.514 6.431l4.541 2.948h1.013l-5.156-3.347c-0.148 0.117-0.282 0.251-0.399 0.399z"/><path fill="#ff4b55" d="M10.393 9.379l5.523-3.585c-0.096-0.162-0.265-0.277-0.468-0.277h-0.119l-5.95 3.862h1.013z"/><path fill="#ff4b55" d="M5.592 12.138l-5.513 3.579c0.095 0.166 0.267 0.284 0.472 0.284h0.104l5.95-3.862h-1.013z"/><path fill="#ff4b55" d="M15.991 15.492l-5.167-3.354h-1.013l5.867 3.808c0.176-0.082 0.296-0.252 0.313-0.455z"/><path fill="#f5f5f5" d="M20.127 11.539v6.054c0 2.455 3.449 3.717 3.869 3.861 0.42-0.145 3.869-1.408 3.869-3.861v-6.054h-7.738z"/><path fill="#ff4b55" d="M28.001 14.315v-2.913h-8.011v2.913h3.459v2.731h-3.459v1.092h3.459v3.277l0.546 0.182 0.546-0.182v-3.277h3.459v-1.092h-3.459v-2.731z"/><path fill="#f5f5f5" d="M21.345 13.179c0 0.252-0.204 0.456-0.456 0.456s-0.456-0.204-0.456-0.456c0-0.252 0.204-0.456 0.456-0.456s0.456 0.204 0.456 0.456z"/><path fill="#ffe15a" d="M21.764 12.562c-0.146-0.080-0.408-0.295-0.514-0.259s-0.129 0.111-0.277 0.123c-0.144 0.011-0.372 0.152-0.277 0.308 0.123 0.203 0.509 0.045 0.535-0.050 0 0 0.095 0.015 0.174-0.004 0 0 0.159 0.221 0.355 0.207s0.288-0.259 0.244-0.259-0.241-0.066-0.241-0.066z"/><path fill="#ffe15a" d="M22.37 13.529c-0.033 0.060-0.283 0.274-0.7 0.372-0.093 0.022-0.077 0.131-0.17 0.077s-0.35-0.098-0.58-0.109c-0.23-0.011-0.253-0.224-0.213-0.301 0.050-0.098 0.417-0.157 0.482-0.037s0.115 0.095 0.278 0.13c0.101 0.022 0.104 0.071 0.104 0.071s0.186-0.186 0.345-0.241 0.295-0.175 0.323-0.175c0.027 0 0.17 0.038 0.17 0.038l-0.038 0.175z"/><path fill="#ffe15a" d="M22.977 12.883c0.241 0.088 0.952 0.060 1.712-0.186s0.979-0.29 1.351-0.153 0.533-0.295 0.289-0.368c-0.384-0.115-1.57 0.575-2.429 0.188 0 0-0.025 0.104 0.002 0.153 0 0-0.623 0.022-0.476-0.623 0 0 0.043 0.236 0.337 0.209 0.558-0.051 0.637 0.341 1.818-0.023 0.655-0.202 1.165-0.103 1.169 0.216 0.005 0.384-0.524 0.473-0.524 0.473s0.206 0.421 0.622 0.235 0.438 0.135 0.474 0.244c0.037 0.109 0.106 0.215 0.197 0.226 0 0 0.066 0.197 0.040 0.222s-0.197 0.241-0.368 0.241-0.543 0-0.543 0-0.099-0.244 0.091-0.248c0.19-0.004 0.419-0.018 0.39-0.12s-0.179-0.149-0.175-0.263c0 0-0.441 0.321-0.715-0.058l-0.007 0.179c0 0-0.332-0.062-0.452-0.328 0 0 0.033 0.299-0.252 0.255 0 0 0.058 0.088 0.157 0.149s-0.004 0.197-0.193 0.31-0.773 0.441-1.039 0.106c-0.266-0.335 0.058-0.529 0.139-0.507s0.31 0.376 0.467 0.328c0.157-0.047 0.233-0.208 0.102-0.306s-0.23-0.191-0.147-0.291c0.114-0.137 0.533-0.096 0.519-0.187s-0.405-0.066-0.66 0.19c-0.255 0.255-1.364 0.842-1.805 0.47s-0.089-0.733-0.089-0.733z"/><path fill="#ffd25a" d="M22.835 12.719c0 0 0.334 0.328 0.897 0.432 0 0-0.104 0.159-0.405 0.115 0 0 0.12 0.104 0.202 0.279 0 0-0.191 0.044-0.361-0.049 0 0 0.022 0.142 0.104 0.257 0 0-0.224 0-0.416-0.17l-0.077 0.219c0 0-0.131-0.088-0.213-0.257 0 0-0.153 0.12-0.306 0.12 0 0 0.055-0.164 0.055-0.257 0 0-0.219 0.131-0.399 0.082 0 0 0.005-0.23 0.066-0.295 0 0-0.142 0.016-0.235-0.033 0 0 0.055-0.126 0.082-0.208 0 0-0.153 0.005-0.246-0.082 0 0 0.295-0.115 0.361-0.224l0.891 0.071z"/><path fill="#ffbe5a" d="M22.297 11.8c0.066 0.037 0.171 0.117 0.215 0.252 0 0 0.12-0.175 0.328-0.208 0 0 0.091 0.102 0.066 0.368 0 0 0.23-0.066 0.354 0.055 0 0-0.244 0.055-0.357 0.259 0 0-0.044 0.209 0.033 0.333 0 0-0.085 0.011-0.171-0.026 0 0-0.044 0.208 0 0.274 0 0-0.12-0.015-0.186-0.142 0 0-0.099 0.149-0.091 0.241 0 0-0.131-0.077-0.139-0.19 0 0-0.091 0.171-0.19 0.186 0 0-0.011-0.241-0.055-0.332 0 0-0.084 0.091-0.193 0.088 0 0 0-0.186 0.091-0.274 0 0-0.153 0.047-0.237-0.12 0 0 0.252 0.073 0.314-0.080s0.080-0.201 0.168-0.284c0.087-0.084 0.051-0.397 0.051-0.397z"/><path fill="#ffe15a" d="M22.835 12.506c0 0-0.312 0.596-0.596 0.416-0.312-0.198 0.077-0.662 0.126-0.711-0-0 0.23 0.060 0.47 0.295z"/><path fill="#5abea0" d="M21.71 15.559c0 0-0.033-0.428-0.265-0.552-0.218-0.116-0.347-0.174-0.372-0.323 0 0 0.19 0.087 0.39 0.142 0.181 0.049 0.358 0.356 0.304 0.701l-0.057 0.033z"/><path fill="#b46446" d="M20.977 15.912l0.029 0.054 0.021 0.117-0.043 0.139c0 0 0.171 0.068 0.209 0.299 0.027 0.159 0.097 0.193 0.14 0.161s0.069-0.071 0.024-0.245c-0.057-0.222-0.212-0.433-0.212-0.433l-0.121-0.185-0.048 0.093z"/><path fill="#5abea0" d="M21.147 16.004c-0.156-0.201-0.58-0.621-0.66-0.049 0 0-0.166-0.482 0.145-0.463 0.36 0.022 0.515 0.512 0.515 0.512z"/><path fill="#5abea0" d="M21.007 15.966c-0.134-0.147-0.177-0.256-0.247-0.528s-0.091-0.354-0.172-0.348-0.129 0.093-0.129 0.267c0 0-0.236-0.212-0.075-0.381s0.521-0.076 0.542 0.223c0.021 0.299 0.016 0.501 0.123 0.751l-0.043 0.016z"/><path fill="#5abea0" d="M21.045 15.835c0 0-0.285-0.626 0.515-0.964 0 0-0.709-0.191-0.623 0.817l0.107 0.147z"/><path fill="#5abea0" d="M21.136 16.059c0 0-0.601-0.229-0.548 0.327 0 0 0.102-0.261 0.397-0.163l0.15-0.163z"/><path fill="#b46446" d="M21.818 15.839c0 0.162 0.064 0.634-0.027 0.693-0.046 0.030-0.174 0.005-0.164-0.109s0.062-0.67 0.062-0.806c0-0.136 0.129 0.221 0.129 0.221z"/><path fill="#5abea0" d="M21.435 16.216c0.104-0.105 0.136-0.345 0.1-0.664 0 0 0.215 0.149 0.283 0.287 0 0 0.068-0.316-0.154-0.399s-0.34-0.036-0.379 0.065c-0.039 0.102 0.068 0.215 0.115 0.381 0.043 0.152 0.036 0.33 0.036 0.33z"/><path fill="#5abea0" d="M21.803 15.755c0 0 0.036-0.167 0.154-0.236 0 0 0.243 0.171 0.225 0.399 0 0 0.064-0.312-0.068-0.436s-0.283-0.156-0.358-0.047c-0.075 0.109 0.047 0.319 0.047 0.319z"/><path fill="#5abea0" d="M21.861 15.436c0 0 0.075-0.447 0.265-0.544s0.54-0.189 0.562-0.211c0 0-0.419 0.022-0.487 0.022s-0.444 0.272-0.444 0.675c0 0.403 0.036 0.127 0.047 0.123s0.057-0.065 0.057-0.065z"/><path fill="#b46446" d="M22.035 16.617c0.043 0.090 0.145 0.112 0.166 0.065s0.118-0.4 0.118-0.4l-0.137-0.065-0.148 0.4z"/><path fill="#5abea0" d="M22.838 15.131c0.168-0.098 0.279 0.192 0.279 0.192 0-0.342-0.107-0.45-0.376-0.319-0.081 0.039-0.14 0.122-0.183 0.217-0.136-0.39-0.436-0.384-0.436-0.384l-0.068 0.047c0.245 0.047 0.386 0.341 0.445 0.502-0.032 0.117-0.048 0.231-0.054 0.296-0.161 0.167-0.262 0.535-0.262 0.535s0.115 0.068 0.137 0.065c0 0 0.075-0.231 0.169-0.226s0.204 0.155 0.207 0.25c0 0 0.14-0.283-0.027-0.392-0.063-0.041-0.113-0.056-0.153-0.057l0.123-0.139c0.201 0.038 0.341 0.229 0.341 0.229 0.004-0.34-0.146-0.407-0.305-0.378 0.028-0.137 0.091-0.396 0.162-0.438z"/><path fill="#b46446" d="M26.151 15.602c0 0.285 0 0.918 0 0.965s-0.204 0.228-0.204 0.228h0.543c0 0-0.174-0.202-0.174-0.228s0.040-0.892 0.040-0.892l-0.204-0.073z"/><path fill="#5abea0" d="M26.186 15.701c-0.13-0.010-0.488 0.285-0.593 0.737 0 0-0.319-0.519 0.479-0.949 0 0-0.354-0.104-0.892 0.457-0.029 0.030-0.055-0.846 0.912-0.612 0 0-0.369-0.534-1.127-0.114 0 0 0.503-0.903 1.246-0.093 0 0 0.005-0.7 0.010-0.628s0.060 0.394 0.060 0.394l0.145-0.254-0.115 0.519c0 0 0.663-0.882 1.226 0.036 0 0-0.728-0.301-1.077 0.036 0 0 0.748-0.202 0.688 0.664 0 0-0.294-0.514-0.773-0.446 0 0 0.563 0.259 0.384 0.96-0 0-0.34-0.687-0.573-0.706z"/><path fill="#5abea0" d="M21.426 18.819c-0.028-0.038-0.067-0.056-0.105-0.060 0.015-0.051 0.024-0.074 0.021-0.111 0.012 0.003 0.023 0.008 0.035 0.010l0.005-0.042c-0.044-0.005-0.093-0.025-0.142-0.055 0.031-0.026 0.053-0.066 0.053-0.116 0-0.054-0.025-0.098-0.059-0.124-0.035 0.026-0.059 0.070-0.059 0.124 0 0.040 0.017 0.072 0.038 0.098-0.018-0.013-0.037-0.027-0.056-0.043-0.005-0.033-0.017-0.066-0.047-0.093-0.040-0.036-0.089-0.048-0.132-0.040-0.005 0.043 0.012 0.091 0.052 0.127 0.031 0.028 0.067 0.037 0.101 0.038 0.008 0.007 0.016 0.013 0.025 0.020-0.024-0.003-0.049-0-0.075 0.009-0.050 0.018-0.084 0.057-0.096 0.098 0.036 0.024 0.086 0.032 0.137 0.014 0.044-0.016 0.072-0.048 0.087-0.083 0.029 0.019 0.062 0.035 0.095 0.047l-0.005 0.001c-0.001 0.030 0.001 0.043-0.014 0.099-0.034-0.022-0.079-0.032-0.126-0.018-0.051 0.015-0.087 0.051-0.102 0.092 0.034 0.026 0.084 0.037 0.136 0.022 0.039-0.011 0.065-0.036 0.084-0.064-0.007 0.021-0.016 0.043-0.026 0.066-0.030 0.014-0.058 0.035-0.076 0.071-0.023 0.048-0.021 0.099-0.001 0.137 0.043-0.008 0.084-0.037 0.108-0.085 0.018-0.037 0.017-0.074 0.008-0.108 0.004-0.009 0.008-0.019 0.012-0.029 0.004 0.024 0.014 0.047 0.030 0.069 0.032 0.043 0.078 0.065 0.121 0.064 0.013-0.041 0.006-0.092-0.026-0.135z"/><path fill="#ffecde" d="M21.18 18.684c0.182 0 0.42-0.007 0.413 0.175s-0.21 0.798 0.259 0.987 0.525 0.161 0.525 0.161l0.21 0.483 0.511-0.182-0.49-0.392c0 0-0.042-0.266-0.161-0.448 0 0 0.301-0.154 0.406-0.287l-0.21-0.014c0 0 0.273-0.175 0.399-0.371l-0.147 0.014c0 0 0.168-0.168 0.21-0.364 0 0-0.273 0.273-0.553 0.308 0 0 0.119-0.308 0.147-0.427 0 0-0.21 0.133-0.357 0.189s-0.378 0.063-0.273 0.539c0 0-0.126-0.105-0.203-0.329s-0.105-0.308-0.21-0.308c-0.171 0-0.238 0.154-0.238 0.154l-0.238 0.112z"/><path fill="#b46446" d="M26.345 18.774c0.063-0.084 0.189-0.346 0.299-0.278s0.257 0.236 0.346 0.157 0.094-0.178-0.042-0.226-0.289-0.126-0.383-0.094c-0.094 0.031-0.383 0.331-0.383 0.331l0.163 0.11z"/><path fill="#ffe15a" d="M25.532 19c-0.005-0.121 0.076-0.645 0.404-0.577 0.178 0.037 0.266 0.226 0.498 0.315 0.247 0.094 0.404 0.152 0.357 0.315s-0.136 0.357-0.341 0.404c-0.205 0.047-0.918-0.456-0.918-0.456z"/><path fill="#5abea0" d="M25.317 19.432c-0.070 0.014-0.329 0.392-0.021 0.776 0 0 0.378 0.154 0.679-0.084s0.077-0.357 0.077-0.357l-0.735-0.336z"/><path fill="#5abea0" d="M25.343 19.514c-0.031-0.047-0.026-0.082-0.026-0.082s-0.016-0.542 0.21-0.553 1.039 0.525 1.039 0.614-0.262 0.346-0.483 0.399c-0.22 0.052-0.74-0.378-0.74-0.378z"/><path fill="#b46446" d="M24.787 20.826c0 0 0.717-0.322 0.582-0.584-0.097-0.189-0.316-0.068-0.35 0.076-0.043 0.18-0.183 0.431-0.232 0.507z"/><path fill="#464655" d="M23.996 21.741l-0.041-0.013c-0.042-0.013-1.031-0.332-2.036-0.995-1.35-0.89-2.064-1.976-2.064-3.141v-6.327h8.284v6.327c0 1.165-0.714 2.251-2.064 3.141-1.006 0.663-1.995 0.981-2.036 0.995l-0.041 0.013zM20.127 11.539v6.054c0 2.455 3.449 3.717 3.869 3.861 0.42-0.145 3.869-1.408 3.869-3.861v-6.054h-7.738z"/></svg>