<!-- Generated by IcoMoon.io -->
<svg version="1.1" xmlns="http://www.w3.org/2000/svg" width="32" height="32" viewBox="0 0 32 32">
<title>ghana</title>
<path fill="#ff4b55" d="M29.603 5.517h-27.207c-1.324 0-2.397 1.073-2.397 2.397v4.592h32v-4.592c0-1.324-1.073-2.397-2.397-2.397z"></path>
<path fill="#73af00" d="M0 24.086c0 1.324 1.073 2.397 2.397 2.397h27.207c1.324 0 2.397-1.073 2.397-2.397v-4.592h-32v4.592z"></path>
<path fill="#ffe15a" d="M0 12.506h32v6.988h-32v-6.988z"></path>
<path fill="#464655" d="M16.233 13.369l0.576 1.726 1.82 0.014c0.236 0.002 0.333 0.303 0.144 0.443l-1.464 1.081 0.549 1.735c0.071 0.225-0.185 0.41-0.376 0.273l-1.481-1.058-1.481 1.058c-0.192 0.137-0.447-0.049-0.376-0.273l0.549-1.735-1.464-1.081c-0.19-0.14-0.092-0.441 0.144-0.443l1.82-0.014 0.576-1.726c0.075-0.223 0.391-0.223 0.465 0z"></path>
</svg>
