<!-- Generated by IcoMoon.io -->
<svg version="1.1" xmlns="http://www.w3.org/2000/svg" width="32" height="32" viewBox="0 0 32 32">
<title>greenland</title>
<path fill="#f5f5f5" d="M29.618 5.517h-27.236c-1.317 0.008-2.382 1.077-2.382 2.396v8.087h32v-8.087c0-1.319-1.065-2.388-2.382-2.396z"></path>
<path fill="#ff4b55" d="M0 24.086c0 1.324 1.073 2.397 2.397 2.397h27.207c1.324 0 2.397-1.073 2.397-2.397v-8.086h-32v8.086z"></path>
<path fill="#ff4b55" d="M11.034 8.828c-3.961 0-7.172 3.211-7.172 7.172h14.345c0-3.961-3.211-7.172-7.172-7.172z"></path>
<path fill="#f5f5f5" d="M11.034 23.173c3.961 0 7.172-3.211 7.172-7.172h-14.345c0 3.961 3.211 7.172 7.172 7.172z"></path>
</svg>
