<!-- Generated by IcoMoon.io -->
<svg version="1.1" xmlns="http://www.w3.org/2000/svg" width="32" height="32" viewBox="0 0 32 32">
<title>greece</title>
<path fill="#f5f5f5" d="M31.975 7.85c-0.037-1.293-1.093-2.329-2.392-2.329h-27.191c-1.318 0.006-2.392 1.074-2.392 2.398v16.162c0 0.025 0 0.044 0 0.069v0c0.006 0.325 0.081 0.631 0.206 0.906v0c0.013 0.037 0.031 0.069 0.050 0.1v0c0.019 0.031 0.031 0.062 0.050 0.1 0 0 0 0 0 0.006 0.019 0.031 0.037 0.062 0.056 0.094 0 0 0 0.006 0.006 0.006 0.019 0.031 0.037 0.056 0.056 0.087l0.006 0.006c0.019 0.031 0.037 0.056 0.062 0.081 0 0.006 0.006 0.006 0.006 0.012 0.019 0.025 0.044 0.050 0.062 0.075 0.006 0.006 0.006 0.006 0.012 0.012 0.019 0.025 0.044 0.050 0.062 0.075 0.006 0.006 0.006 0.006 0.012 0.012 0.019 0.025 0.044 0.044 0.069 0.069 0.006 0.006 0.012 0.012 0.012 0.012 0.025 0.019 0.044 0.044 0.069 0.062 0.006 0.006 0.012 0.012 0.019 0.019 0.025 0.019 0.044 0.037 0.069 0.056 0.006 0.006 0.012 0.012 0.025 0.019 0.025 0.019 0.044 0.037 0.069 0.050 0.006 0.006 0.019 0.012 0.025 0.019 0.025 0.019 0.044 0.031 0.069 0.044 0.012 0.006 0.019 0.012 0.031 0.019 0.025 0.012 0.044 0.031 0.069 0.044 0.012 0.006 0.025 0.012 0.031 0.019 0.019 0.012 0.044 0.025 0.062 0.037 0.012 0.006 0.025 0.012 0.037 0.019 0.019 0.012 0.044 0.025 0.062 0.031 0.012 0.006 0.025 0.012 0.044 0.019 0.019 0.012 0.044 0.019 0.062 0.031 0.012 0.006 0.031 0.012 0.044 0.019 0.019 0.006 0.044 0.019 0.062 0.025s0.031 0.012 0.050 0.019 0.037 0.012 0.062 0.019c0.019 0.006 0.037 0.012 0.056 0.012 0.019 0.006 0.037 0.012 0.056 0.019s0.037 0.006 0.056 0.012c0.019 0.006 0.037 0.006 0.056 0.012s0.044 0.006 0.062 0.012c0.019 0.006 0.037 0.006 0.056 0.012 0.025 0.006 0.044 0.006 0.069 0.006 0.019 0 0.031 0.006 0.050 0.006 0.025 0 0.050 0.006 0.081 0.006 0.013 0 0.025 0 0.044 0.006 0.037 0 0.081 0 0.125 0h27.185c0.044 0 0.081 0 0.125 0 0.012 0 0.025 0 0.044-0.006 0.025 0 0.050-0.006 0.081-0.006 0.019 0 0.031-0.006 0.050-0.006 0.025 0 0.044-0.006 0.069-0.006 0.019 0 0.037-0.006 0.056-0.012s0.044-0.006 0.062-0.012c0.019-0.006 0.037-0.006 0.056-0.012s0.037-0.006 0.056-0.012c0.019-0.006 0.037-0.012 0.056-0.019s0.037-0.012 0.056-0.012c0.019-0.006 0.037-0.012 0.062-0.019 0.019-0.006 0.031-0.012 0.050-0.019s0.044-0.019 0.062-0.025c0.012-0.006 0.031-0.012 0.044-0.019 0.019-0.006 0.044-0.019 0.062-0.031 0.012-0.006 0.025-0.012 0.044-0.019 0.019-0.012 0.044-0.019 0.062-0.031 0.012-0.006 0.025-0.012 0.037-0.019 0.025-0.012 0.044-0.025 0.062-0.037 0.012-0.006 0.025-0.012 0.031-0.019 0.025-0.012 0.044-0.025 0.069-0.044 0.012-0.006 0.019-0.012 0.031-0.019 0.025-0.012 0.044-0.031 0.069-0.044 0.006-0.006 0.019-0.012 0.025-0.019 0.025-0.019 0.044-0.031 0.069-0.050 0.006-0.006 0.012-0.012 0.025-0.019 0.025-0.019 0.044-0.037 0.069-0.056 0.006-0.006 0.012-0.012 0.019-0.019 0.025-0.019 0.044-0.044 0.069-0.062 0.006-0.006 0.012-0.012 0.019-0.012 0.025-0.025 0.044-0.044 0.069-0.069 0.006-0.006 0.006-0.006 0.012-0.012 0.025-0.025 0.044-0.050 0.062-0.075 0.006-0.006 0.006-0.006 0.012-0.012 0.019-0.025 0.044-0.050 0.062-0.075 0-0.006 0.006-0.006 0.006-0.012 0.019-0.025 0.044-0.056 0.062-0.081l0.006-0.006c0.019-0.031 0.037-0.056 0.056-0.087 0 0 0-0.006 0.006-0.006 0.019-0.031 0.037-0.062 0.056-0.094 0 0 0 0 0-0.006 0.019-0.031 0.037-0.062 0.050-0.1v0c0.019-0.031 0.031-0.069 0.050-0.1v0c0.125-0.281 0.2-0.587 0.206-0.906v0c0-0.025 0-0.044 0-0.069v-16.162c-0.025-0.019-0.025-0.044-0.025-0.069z"></path>
<path fill="#41479b" d="M0 19.491h31.975v2.329h-31.975v-2.329zM0.206 25.055v0c0.013 0.037 0.031 0.069 0.050 0.1v0c0.019 0.031 0.031 0.062 0.050 0.1 0 0 0 0 0 0.006 0.019 0.031 0.037 0.062 0.056 0.094 0 0 0 0.006 0.006 0.006 0.019 0.031 0.037 0.056 0.056 0.087l0.006 0.006c0.019 0.031 0.037 0.056 0.062 0.081 0 0.006 0.006 0.006 0.006 0.012 0.019 0.025 0.044 0.050 0.062 0.075 0.006 0.006 0.006 0.006 0.012 0.012 0.019 0.025 0.044 0.050 0.062 0.075 0.006 0.006 0.006 0.006 0.012 0.012 0.019 0.025 0.044 0.044 0.069 0.069 0.006 0.006 0.012 0.012 0.012 0.012 0.025 0.019 0.044 0.044 0.069 0.062 0.006 0.006 0.012 0.012 0.019 0.019 0.025 0.019 0.044 0.037 0.069 0.056 0.006 0.006 0.012 0.012 0.025 0.019 0.025 0.019 0.044 0.037 0.069 0.050 0.006 0.006 0.019 0.012 0.025 0.019 0.025 0.019 0.044 0.031 0.069 0.044 0.012 0.006 0.019 0.012 0.031 0.019 0.025 0.012 0.044 0.031 0.069 0.044 0.012 0.006 0.025 0.012 0.031 0.019 0.019 0.012 0.044 0.025 0.062 0.037 0.012 0.006 0.025 0.012 0.037 0.019 0.019 0.012 0.044 0.025 0.062 0.031 0.012 0.006 0.025 0.012 0.044 0.019 0.019 0.012 0.044 0.019 0.062 0.031 0.012 0.006 0.031 0.012 0.044 0.019 0.019 0.006 0.044 0.019 0.062 0.025s0.031 0.012 0.050 0.019c0.019 0.006 0.037 0.012 0.062 0.019 0.019 0.006 0.037 0.012 0.056 0.012 0.019 0.006 0.037 0.012 0.056 0.019s0.037 0.006 0.056 0.012c0.019 0.006 0.037 0.006 0.056 0.012s0.044 0.006 0.062 0.012c0.019 0.006 0.037 0.006 0.056 0.012 0.025 0.006 0.044 0.006 0.069 0.006 0.019 0 0.031 0.006 0.050 0.006 0.025 0 0.050 0.006 0.081 0.006 0.013 0 0.025 0 0.044 0.006 0.037 0 0.081 0 0.125 0h27.185c0.044 0 0.081 0 0.125 0 0.012 0 0.025 0 0.044-0.006 0.025 0 0.050-0.006 0.081-0.006 0.019 0 0.031-0.006 0.050-0.006 0.025 0 0.044-0.006 0.069-0.006 0.019 0 0.037-0.006 0.056-0.012s0.044-0.006 0.062-0.012c0.019-0.006 0.037-0.006 0.056-0.012s0.037-0.006 0.056-0.012c0.019-0.006 0.037-0.012 0.056-0.019s0.037-0.012 0.056-0.012c0.019-0.006 0.037-0.012 0.062-0.019 0.019-0.006 0.031-0.012 0.050-0.019s0.044-0.019 0.062-0.025c0.012-0.006 0.031-0.012 0.044-0.019 0.019-0.006 0.044-0.019 0.062-0.031 0.012-0.006 0.025-0.012 0.044-0.019 0.019-0.012 0.044-0.019 0.062-0.031 0.012-0.006 0.025-0.012 0.037-0.019 0.025-0.012 0.044-0.025 0.062-0.037 0.012-0.006 0.025-0.012 0.031-0.019 0.025-0.012 0.044-0.025 0.069-0.044 0.012-0.006 0.019-0.012 0.031-0.019 0.025-0.012 0.044-0.031 0.069-0.044 0.006-0.006 0.019-0.012 0.025-0.019 0.025-0.019 0.044-0.031 0.069-0.050 0.006-0.006 0.012-0.012 0.025-0.019 0.025-0.019 0.044-0.037 0.069-0.056 0.006-0.006 0.012-0.012 0.019-0.019 0.025-0.019 0.044-0.044 0.069-0.062 0.006-0.006 0.012-0.012 0.019-0.012 0.025-0.025 0.044-0.044 0.069-0.069 0.006-0.006 0.006-0.006 0.012-0.012 0.025-0.025 0.044-0.050 0.062-0.075 0.006-0.006 0.006-0.006 0.012-0.012 0.019-0.025 0.044-0.050 0.062-0.075 0-0.006 0.006-0.006 0.006-0.012 0.019-0.025 0.044-0.056 0.062-0.081l0.006-0.006c0.019-0.031 0.037-0.056 0.056-0.087 0 0 0-0.006 0.006-0.006 0.019-0.031 0.037-0.062 0.056-0.094 0 0 0 0 0-0.006 0.019-0.031 0.037-0.062 0.050-0.1v0c0.019-0.031 0.031-0.069 0.050-0.1v0c0.125-0.281 0.2-0.587 0.206-0.906h-32c0.013 0.319 0.081 0.625 0.206 0.906zM11.029 10.18v2.329h-4.347v4.653h25.293v-2.329h-20.946v-2.329h20.946v-2.329l-20.946 0.006zM4.347 12.509h-4.347v4.659h4.347v-4.659zM31.975 7.85c-0.037-1.293-1.093-2.329-2.392-2.329h-22.907v4.653h4.347v-2.329l20.952 0.006zM4.347 5.527h-1.955c-1.318 0-2.392 1.068-2.392 2.392v2.261h4.347v-4.653z"></path>
</svg>
