<svg xmlns="http://www.w3.org/2000/svg" width="32" height="32" version="1.1" viewBox="0 0 32 32"><title>guam</title><path fill="#41479b" d="M29.603 26.483h-27.207c-1.324 0-2.397-1.073-2.397-2.397v-16.172c0-1.324 1.073-2.397 2.397-2.397h27.207c1.324 0 2.397 1.073 2.397 2.397v16.172c0 1.324-1.073 2.396-2.397 2.396z"/><path fill="#3cc8ff" d="M16.004 10.483c-2.097 1.103-3.511 3.731-3.511 5.517s1.414 4.414 3.511 5.517c2.097-1.103 3.511-3.731 3.511-5.517s-1.414-4.414-3.511-5.517z"/><path fill="#73af00" d="M16.456 14.111c0.339-0.179 0.917-0.375 1.574-0.134 0 0-0.633-0.705-1.511-0.131 0.236-0.287 0.591-0.641 0.976-0.74 0 0-0.765-0.286-1.228 0.734 0.090-0.514 0.073-1.324-0.756-1.795 0 0 0.464 0.995 0.509 1.821-0.027-0.146-0.081-0.3-0.223-0.448-0.438-0.457-0.82-0.496-0.82-0.496s0.608 0.674 0.907 1.311c-0.172-0.206-0.475-0.47-0.964-0.453-1.144 0.038-1.392 0.724-1.392 0.724 0.474-0.2 1.227-0.299 1.81-0.25-0.753 0.133-1.021 1.071-1.021 1.071 0.605-0.754 1.265-0.877 1.528-0.894-0.481 0.398-0.452 1.132-0.452 1.132 0.112-0.413 0.545-0.883 0.756-1.094 0.569 0.615 0.636 1.307 0.636 1.307s0.124-0.208 0.067-0.632c-0.054-0.4-0.305-0.662-0.497-0.816 1.004 0.138 1.659 0.867 1.659 0.867-0.329-0.958-1.151-1.083-1.56-1.084z"/><path fill="#ff4b55" d="M29.603 5.517h-27.207c-1.28 0-2.326 1.004-2.393 2.267v16.431c0.067 1.263 1.113 2.267 2.393 2.267h27.207c1.324 0 2.397-1.073 2.397-2.397v-16.172c0-1.324-1.073-2.397-2.397-2.397zM30.9 25.379h-29.793v-18.759h29.793l-0 18.759z"/><path fill="#ff965a" d="M14.883 17.333l0.506-0.873 4.155-0.092-0.276 1.149z"/><path fill="#4173cd" d="M12.644 17.103c0.416 1.635 1.664 3.522 3.359 4.414 1.695-0.892 2.943-2.779 3.359-4.414h-6.719z"/><path fill="#ffe15a" d="M13.245 18.759c0 0 1.203-0.060 1.926 0.237 0.181 0.074 0.204 0.318 0.041 0.425-0.352 0.232-0.864 0.631-0.864 0.992l-1.103-1.655z"/><path fill="#ffe15a" d="M15.36 20.965c-0.046-0.46 0.361-0.794 0.92-1.012 0.724-0.282 0.328-0.73-0.035-1.023-0.432-0.349 0.126-0.448 2.471-0.494l-1.149 1.793-1.563 1.287-0.644-0.552z"/><path fill="#ff4b55" d="M16.004 21.829l-0.129-0.068c-2.188-1.151-3.658-3.908-3.658-5.761s1.47-4.611 3.658-5.761l0.129-0.068 0.128 0.068c2.188 1.151 3.658 3.908 3.658 5.761s-1.47 4.611-3.658 5.761l-0.128 0.068zM16.004 10.797c-1.941 1.096-3.235 3.547-3.235 5.203s1.294 4.107 3.235 5.203c1.941-1.096 3.235-3.547 3.235-5.203s-1.294-4.107-3.235-5.203z"/><path fill="#a54b37" d="M17.176 19.149c-0.025 0-0.051-0.007-0.073-0.021-0.75-0.471-1.18-1.251-1.18-2.14v-2.54c0-0.076 0.062-0.138 0.138-0.138s0.138 0.062 0.138 0.138v2.54c0 0.792 0.383 1.487 1.050 1.906 0.065 0.041 0.084 0.126 0.044 0.19-0.026 0.042-0.071 0.065-0.117 0.065z"/><path fill="#a54b37" d="M16.363 14.457c0 0.167-0.135 0.302-0.302 0.302s-0.302-0.135-0.302-0.302c0-0.167 0.135-0.302 0.302-0.302s0.302 0.135 0.302 0.302z"/></svg>