<svg xmlns="http://www.w3.org/2000/svg" width="32" height="32" version="1.1" viewBox="0 0 32 32"><title>guatemala</title><path fill="#82afff" d="M2.397 5.517c-1.324 0-2.397 1.073-2.397 2.397v16.172c0 1.324 1.073 2.397 2.397 2.397h8.27v-20.966h-8.27z"/><path fill="#f5f5f5" d="M10.667 5.517h10.667v20.966h-10.667v-20.966z"/><path fill="#82afff" d="M29.603 5.517h-8.27v20.965h8.27c1.324 0 2.397-1.073 2.397-2.397v-16.172c0-1.324-1.073-2.397-2.397-2.397z"/><path fill="#ffc855" d="M15.861 13.257l-0.316 0.158 0.291 0.12z"/><path fill="#73af00" d="M16 19.103c-1.758 0-3.189-1.431-3.189-3.189 0-1.092 0.55-2.097 1.471-2.687l0.082 0.128c-0.877 0.562-1.401 1.519-1.401 2.559 0 1.675 1.363 3.037 3.037 3.037v0.152z"/><path fill="#73af00" d="M14.175 19.302c0.121 0.025 0.309-0.007 0.501-0.097s0.338-0.213 0.397-0.322c-0.121-0.025-0.309 0.007-0.501 0.097s-0.338 0.213-0.397 0.322z"/><path fill="#73af00" d="M15.073 18.884c0.025-0.122-0.007-0.309-0.097-0.501s-0.213-0.338-0.322-0.397c-0.025 0.122 0.007 0.309 0.097 0.501s0.213 0.338 0.322 0.397z"/><path fill="#73af00" d="M13.54 18.912c0.117 0.042 0.307 0.038 0.51-0.022s0.365-0.161 0.44-0.26c-0.117-0.042-0.307-0.038-0.51 0.022s-0.365 0.161-0.44 0.26z"/><path fill="#73af00" d="M14.49 18.63c0.042-0.117 0.038-0.307-0.022-0.51s-0.161-0.365-0.26-0.44c-0.042 0.117-0.038 0.307 0.022 0.51s0.161 0.365 0.26 0.44z"/><path fill="#73af00" d="M12.952 18.38c0.107 0.063 0.295 0.093 0.506 0.070s0.388-0.093 0.479-0.177c-0.107-0.063-0.295-0.093-0.506-0.070s-0.388 0.093-0.479 0.177z"/><path fill="#73af00" d="M13.937 18.273c0.063-0.107 0.093-0.295 0.070-0.506s-0.093-0.388-0.177-0.479c-0.063 0.107-0.093 0.295-0.070 0.506s0.093 0.388 0.177 0.479z"/><path fill="#73af00" d="M12.466 17.646c0.094 0.081 0.274 0.143 0.486 0.158s0.398-0.022 0.503-0.089c-0.094-0.081-0.274-0.143-0.486-0.158s-0.398 0.022-0.503 0.089z"/><path fill="#73af00" d="M13.455 17.715c0.081-0.094 0.143-0.274 0.158-0.486s-0.022-0.398-0.089-0.503c-0.081 0.094-0.143 0.274-0.158 0.486s0.022 0.398 0.089 0.503z"/><path fill="#73af00" d="M12.182 16.837c0.075 0.099 0.237 0.198 0.441 0.257s0.394 0.062 0.51 0.019c-0.075-0.099-0.237-0.198-0.441-0.257s-0.394-0.062-0.51-0.019z"/><path fill="#73af00" d="M13.134 17.113c0.099-0.075 0.198-0.237 0.257-0.442s0.062-0.394 0.019-0.51c-0.099 0.075-0.198 0.237-0.257 0.442s-0.062 0.394-0.019 0.51z"/><path fill="#73af00" d="M12.061 15.893c0.047 0.115 0.179 0.252 0.361 0.362s0.365 0.161 0.488 0.149c-0.047-0.115-0.179-0.252-0.361-0.362s-0.365-0.161-0.488-0.149z"/><path fill="#73af00" d="M12.91 16.404c0.115-0.047 0.252-0.179 0.362-0.361s0.161-0.365 0.149-0.488c-0.115 0.047-0.252 0.179-0.362 0.361s-0.161 0.365-0.149 0.488z"/><path fill="#73af00" d="M12.175 15.001c0.022 0.122 0.122 0.284 0.277 0.429s0.323 0.234 0.446 0.249c-0.022-0.122-0.122-0.284-0.277-0.429s-0.323-0.234-0.446-0.249z"/><path fill="#73af00" d="M12.898 15.679c0.122-0.022 0.284-0.122 0.429-0.277s0.234-0.323 0.249-0.446c-0.122 0.022-0.284 0.122-0.429 0.277s-0.234 0.323-0.249 0.446z"/><path fill="#73af00" d="M12.623 14.036c-0.025 0.121 0.005 0.309 0.094 0.502s0.21 0.339 0.319 0.399c0.025-0.121-0.005-0.309-0.094-0.502s-0.21-0.339-0.319-0.399z"/><path fill="#73af00" d="M13.036 14.937c0.121 0.025 0.309-0.005 0.502-0.094s0.339-0.21 0.399-0.319c-0.121-0.025-0.309 0.005-0.502 0.094s-0.339 0.21-0.399 0.319z"/><path fill="#73af00" d="M13.159 13.322c-0.057 0.11-0.078 0.299-0.045 0.509s0.112 0.383 0.2 0.47c0.057-0.11 0.078-0.299 0.045-0.509s-0.112-0.383-0.2-0.47z"/><path fill="#73af00" d="M13.315 14.3c0.11 0.057 0.299 0.078 0.509 0.045s0.383-0.112 0.47-0.2c-0.11-0.057-0.299-0.078-0.509-0.045s-0.383 0.112-0.47 0.2z"/><path fill="#73af00" d="M13.684 12.824c-0.073 0.1-0.121 0.284-0.119 0.497s0.054 0.395 0.129 0.494c0.073-0.1 0.121-0.284 0.119-0.497s-0.054-0.395-0.129-0.494z"/><path fill="#73af00" d="M13.694 13.815c0.1 0.073 0.284 0.121 0.497 0.119s0.395-0.054 0.494-0.129c-0.1-0.073-0.284-0.121-0.497-0.119s-0.395 0.054-0.494 0.129z"/><path fill="#73af00" d="M13.949 13.555c0.124 0.010 0.306-0.044 0.486-0.156s0.31-0.252 0.355-0.367c-0.124-0.010-0.306 0.044-0.486 0.156s-0.31 0.252-0.355 0.367z"/><path fill="#73af00" d="M16 19.103v-0.152c1.675 0 3.037-1.362 3.037-3.037 0-1.040-0.524-1.997-1.401-2.559l0.082-0.128c0.921 0.59 1.471 1.595 1.471 2.687-0 1.758-1.431 3.189-3.189 3.189z"/><path fill="#73af00" d="M17.825 19.302c-0.122 0.025-0.309-0.007-0.501-0.097s-0.338-0.213-0.397-0.322c0.122-0.025 0.309 0.007 0.501 0.097s0.338 0.213 0.397 0.322z"/><path fill="#73af00" d="M16.927 18.884c-0.025-0.122 0.007-0.309 0.097-0.501s0.213-0.338 0.322-0.397c0.025 0.122-0.007 0.309-0.097 0.501s-0.213 0.338-0.322 0.397z"/><path fill="#73af00" d="M18.46 18.912c-0.117 0.042-0.307 0.038-0.51-0.022s-0.365-0.161-0.44-0.26c0.117-0.042 0.307-0.038 0.51 0.022s0.365 0.161 0.44 0.26z"/><path fill="#73af00" d="M17.51 18.63c-0.042-0.117-0.038-0.307 0.022-0.51s0.161-0.365 0.26-0.44c0.042 0.117 0.038 0.307-0.022 0.51s-0.161 0.365-0.26 0.44z"/><path fill="#73af00" d="M19.048 18.38c-0.107 0.063-0.295 0.093-0.506 0.070s-0.388-0.093-0.479-0.177c0.107-0.063 0.295-0.093 0.506-0.070s0.388 0.093 0.479 0.177z"/><path fill="#73af00" d="M18.063 18.273c-0.063-0.107-0.093-0.295-0.070-0.506s0.093-0.388 0.177-0.479c0.063 0.107 0.093 0.295 0.070 0.506s-0.093 0.388-0.177 0.479z"/><path fill="#73af00" d="M19.534 17.646c-0.094 0.081-0.274 0.143-0.486 0.158s-0.398-0.022-0.503-0.089c0.094-0.081 0.274-0.143 0.486-0.158s0.398 0.022 0.503 0.089z"/><path fill="#73af00" d="M18.545 17.715c-0.081-0.094-0.143-0.274-0.158-0.486s0.022-0.398 0.089-0.503c0.081 0.094 0.143 0.274 0.158 0.486s-0.022 0.398-0.089 0.503z"/><path fill="#73af00" d="M19.818 16.837c-0.075 0.099-0.237 0.198-0.442 0.257s-0.394 0.062-0.51 0.019c0.075-0.099 0.237-0.198 0.442-0.257s0.394-0.062 0.51-0.019z"/><path fill="#73af00" d="M18.866 17.113c-0.099-0.075-0.198-0.237-0.257-0.442s-0.062-0.394-0.019-0.51c0.099 0.075 0.198 0.237 0.257 0.442s0.062 0.394 0.019 0.51z"/><path fill="#73af00" d="M19.939 15.893c-0.047 0.115-0.179 0.252-0.361 0.362s-0.365 0.161-0.488 0.149c0.047-0.115 0.179-0.252 0.361-0.362s0.365-0.161 0.488-0.149z"/><path fill="#73af00" d="M19.090 16.404c-0.115-0.047-0.252-0.179-0.362-0.361s-0.161-0.365-0.149-0.488c0.115 0.047 0.252 0.179 0.362 0.361s0.161 0.365 0.149 0.488z"/><path fill="#73af00" d="M19.825 15.001c-0.022 0.122-0.122 0.284-0.277 0.429s-0.323 0.234-0.446 0.249c0.022-0.122 0.122-0.284 0.277-0.429s0.323-0.234 0.446-0.249z"/><path fill="#73af00" d="M19.102 15.679c-0.122-0.022-0.284-0.122-0.429-0.277s-0.234-0.323-0.249-0.446c0.122 0.022 0.284 0.122 0.429 0.277s0.234 0.323 0.249 0.446z"/><path fill="#73af00" d="M19.377 14.036c0.026 0.121-0.005 0.309-0.094 0.502s-0.21 0.339-0.319 0.399c-0.026-0.121 0.005-0.309 0.094-0.502s0.21-0.339 0.319-0.399z"/><path fill="#73af00" d="M18.964 14.937c-0.121 0.025-0.309-0.005-0.502-0.094s-0.339-0.21-0.399-0.319c0.121-0.025 0.309 0.005 0.502 0.094s0.339 0.21 0.399 0.319z"/><path fill="#73af00" d="M18.841 13.322c0.057 0.11 0.078 0.299 0.045 0.509s-0.112 0.383-0.2 0.47c-0.057-0.11-0.078-0.299-0.045-0.509s0.112-0.383 0.2-0.47z"/><path fill="#73af00" d="M18.685 14.3c-0.11 0.057-0.299 0.078-0.509 0.045s-0.383-0.112-0.47-0.2c0.11-0.057 0.299-0.078 0.509-0.045s0.383 0.112 0.47 0.2z"/><path fill="#73af00" d="M18.316 12.824c0.073 0.1 0.121 0.284 0.119 0.497s-0.054 0.395-0.129 0.494c-0.073-0.1-0.121-0.284-0.119-0.497s0.054-0.395 0.129-0.494z"/><path fill="#73af00" d="M18.306 13.815c-0.1 0.073-0.284 0.121-0.497 0.119s-0.395-0.054-0.494-0.129c0.1-0.073 0.284-0.121 0.497-0.119s0.395 0.054 0.494 0.129z"/><path fill="#73af00" d="M18.051 13.555c-0.124 0.010-0.306-0.044-0.486-0.156s-0.31-0.252-0.355-0.367c0.124-0.010 0.306 0.044 0.486 0.156s0.31 0.252 0.355 0.367z"/><path fill="#966446" d="M14.259 18.397l-0.553 0.553-0.273-0.545 0.818-0.818 0.273 0.273-0.079 0.236c-0.038 0.114-0.102 0.217-0.186 0.301z"/><path fill="#b9b9b9" d="M17.25 14.316l-2.998 2.998c-0.075 0.075-0.075 0.197 0 0.273l0.136 0.136 0.545-0.545 2.181-2.453 0.273-0.273-0.136-0.136z"/><path fill="#966446" d="M14.989 16.849c-0.036 0.036-0.056 0.085-0.056 0.136v0.193l2.181-2.453-2.124 2.124z"/><path fill="#a0a0a0" d="M17.386 14.452l-0.136-0.136-0.136 0.136 0.273 0.273 1.499-1.772z"/><path fill="#966446" d="M17.893 18.397l0.553 0.553 0.273-0.545-0.818-0.818-0.273 0.273 0.079 0.236c0.038 0.114 0.102 0.217 0.186 0.301z"/><path fill="#b9b9b9" d="M14.902 14.316l2.998 2.998c0.075 0.075 0.075 0.197 0 0.273l-0.136 0.136-0.545-0.545-2.181-2.453-0.273-0.273 0.136-0.136z"/><path fill="#966446" d="M17.163 16.849c0.036 0.036 0.056 0.085 0.056 0.136v0.193l-2.181-2.453 2.124 2.124z"/><path fill="#a0a0a0" d="M14.766 14.452l0.136-0.136 0.136 0.136-0.273 0.273-1.499-1.772z"/><path fill="#b9b9b9" d="M14.957 18.283l0.135 0.123c0.494-0.542 1.359-1.49 2.73-2.721 0 0-1.136 0.701-2.865 2.597z"/><path fill="#ffe15a" d="M14.574 18.839v0c-0.049-0.044-0.052-0.12-0.008-0.168l0.29-0.318c0.044-0.049 0.12-0.052 0.168-0.008v0c0.049 0.044 0.052 0.12 0.008 0.168l-0.29 0.318c-0.044 0.049-0.12 0.052-0.168 0.008z"/><path fill="#ffc855" d="M14.847 18.183l-0.079 0.035c-0.070 0.035-0.254 0.139-0.286 0.287-0.015 0.070 0.006 0.139 0.061 0.203 0.005-0.013 0.012-0.026 0.023-0.038l0.037-0.040c-0.025-0.036-0.038-0.071-0.030-0.107 0.020-0.093 0.144-0.176 0.221-0.217l0.348 0.317 0.086-0.095-0.381-0.347z"/><path fill="#b9b9b9" d="M17.193 18.433l-0.135 0.123c-0.494-0.542-1.359-1.49-2.73-2.721-0 0 1.136 0.701 2.865 2.597z"/><path fill="#ffe15a" d="M17.576 18.989v0c0.049-0.044 0.052-0.12 0.008-0.168l-0.29-0.318c-0.044-0.049-0.12-0.052-0.168-0.008v0c-0.049 0.044-0.052 0.12-0.008 0.168l0.29 0.318c0.044 0.049 0.12 0.052 0.168 0.008z"/><path fill="#ffc855" d="M17.303 18.333l0.079 0.035c0.070 0.035 0.254 0.139 0.286 0.287 0.015 0.070-0.006 0.139-0.061 0.203-0.005-0.013-0.012-0.026-0.023-0.038l-0.037-0.040c0.025-0.036 0.038-0.071 0.030-0.107-0.020-0.093-0.144-0.176-0.221-0.217l-0.348 0.317-0.087-0.095 0.381-0.347z"/><path fill="#69b469" d="M16.135 13.418c0.011-0.026 0.017-0.055 0.017-0.085 0-0.126-0.102-0.228-0.228-0.228s-0.228 0.102-0.228 0.228c0 0.075 0.037 0.141 0.093 0.182-0.082 0.662 0.57 0.712 0.818 0.805 0.377 0.14 0.85 0.424 0.82 1.218-0.029 0.771-0.517 1.516-0.517 1.516l0.405-0.55c-0.148 0.626-0.494 1.424-1.316 2.373 0 0 0.562-0.55 1.031-1.259-0.345 0.812-0.728 1.563-0.728 1.563s0.677-0.88 1.224-2.401c0.664-1.845-0.732-2.953-1.393-3.36z"/><path fill="#f4e08f" d="M14.938 16.142h0.607v0.304h-0.607v-0.304z"/><path fill="#ecd077" d="M15.241 16.445c0 0.168-0.136 0.304-0.304 0.304s-0.304-0.136-0.304-0.304c0-0.168 0.136-0.304 0.304-0.304s0.304 0.136 0.304 0.304z"/><path fill="#ecd077" d="M15.241 14.472c0 0.168-0.136 0.304-0.304 0.304s-0.304-0.136-0.304-0.304c0-0.168 0.136-0.304 0.304-0.304s0.304 0.136 0.304 0.304z"/><path fill="#fcf0a8" d="M16.759 14.775c0.168 0 0.304-0.136 0.304-0.304s-0.136-0.304-0.304-0.304h-1.822c0.168 0 0.304 0.136 0.304 0.304s-0.136 0.304-0.304 0.304-0.304-0.136-0.304-0.304c0 0.51 0.427 1.126 0.564 1.67 0 0 0.043 0.136 0.043 0.304s-0.136 0.304-0.304 0.304h1.822c0.168 0 0.304-0.136 0.304-0.304 0-0.51-0.427-1.126-0.564-1.67h0.261z"/><path fill="#f4e08f" d="M15.241 14.472c0 0.168-0.136 0.304-0.304 0.304h1.822c0.168 0 0.304-0.136 0.304-0.304h-1.822z"/><path fill="#f4e08f" d="M15.241 16.446c0 0.168-0.136 0.304-0.304 0.304h1.822c0.168 0 0.304-0.136 0.304-0.304h-1.822z"/></svg>