<!-- Generated by IcoMoon.io -->
<svg version="1.1" xmlns="http://www.w3.org/2000/svg" width="32" height="32" viewBox="0 0 32 32">
<title>iran</title>
<path fill="#73af00" d="M29.603 5.517h-27.207c-1.324 0-2.397 1.073-2.397 2.397v4.592h32v-4.592c0-1.324-1.073-2.397-2.397-2.397z"></path>
<path fill="#ff4b55" d="M0 24.086c0 1.324 1.073 2.397 2.397 2.397h27.207c1.324 0 2.397-1.073 2.397-2.397v-4.592h-32v4.592z"></path>
<path fill="#f5f5f5" d="M0 12.506h32v6.988h-32v-6.988z"></path>
<path fill="#f5f5f5" d="M0.087 12.136h0.005c0.048 0 0.087-0.039 0.087-0.087v-0.188c0-0.048 0.039-0.087 0.087-0.087h0.364c0.048 0 0.087 0.039 0.087 0.087v0.188c0 0.048 0.039 0.087 0.087 0.087h0.719c0.048 0 0.087-0.039 0.087-0.087v-0.371c0-0.048-0.039-0.087-0.087-0.087h-0.362c-0.048 0-0.087 0.039-0.087 0.087v0.010c0 0.048 0.039 0.087 0.087 0.087h0.183c0.048 0 0.087 0.039 0.087 0.087v0.009c0 0.048-0.039 0.087-0.087 0.087h-0.362c-0.048 0-0.087-0.039-0.087-0.087v-0.193c0-0.048-0.039-0.087-0.087-0.087h-0.721c-0.048 0-0.087 0.039-0.087 0.087v0.371c0 0.048 0.039 0.087 0.087 0.087zM0.446 12.136h0.005c0.048 0 0.087-0.039 0.087-0.087v-0.005c0-0.048-0.039-0.087-0.087-0.087h-0.005c-0.048 0-0.087 0.039-0.087 0.087v0.005c0 0.048 0.039 0.087 0.087 0.087zM0.087 11.408h2.151c0.048 0 0.087-0.039 0.087-0.087v-0.009c0-0.048-0.039-0.087-0.087-0.087h-2.151c-0.048 0-0.087 0.039-0.087 0.087v0.009c0 0.048 0.039 0.087 0.087 0.087zM2.238 12.136h-0.362c-0.048 0-0.087-0.039-0.087-0.087v-0.371c0-0.048 0.039-0.087 0.087-0.087h0.54c0.048 0 0.087-0.039 0.087-0.087v-0.193c0-0.048 0.039-0.087 0.087-0.087h0.005c0.048 0 0.087 0.039 0.087 0.087v0.559c0 0.048 0.039 0.087 0.087 0.087h0.005c0.048 0 0.087-0.039 0.087-0.087v-0.559c0-0.048 0.039-0.087 0.087-0.087h0.005c0.048 0 0.087 0.039 0.087 0.087v0.559c0 0.048 0.039 0.087 0.087 0.087h0.007c0.048 0 0.087-0.039 0.087-0.087v-0.559c0-0.048 0.039-0.087 0.087-0.087h0.003c0.048 0 0.087 0.039 0.087 0.087v0.737c0 0.048-0.039 0.087-0.087 0.087h-0.718c-0.048 0-0.087-0.039-0.087-0.087v-0.188c0-0.048-0.039-0.087-0.087-0.087h-0.362c-0.048 0-0.087 0.039-0.087 0.087v0.009c0 0.048 0.039 0.087 0.087 0.087h0.183c0.048 0 0.087 0.039 0.087 0.087v0.005c-0 0.048-0.039 0.087-0.087 0.087z"></path>
<path fill="#f5f5f5" d="M3.664 12.136h0.007c0.048 0 0.087-0.039 0.087-0.087v-0.188c0-0.048 0.039-0.087 0.087-0.087h0.36c0.048 0 0.087 0.039 0.087 0.087v0.188c0 0.048 0.039 0.087 0.087 0.087h0.719c0.048 0 0.087-0.039 0.087-0.087v-0.371c0-0.048-0.039-0.087-0.087-0.087h-0.362c-0.048 0-0.087 0.039-0.087 0.087v0.010c0 0.048 0.039 0.087 0.087 0.087h0.183c0.048 0 0.087 0.039 0.087 0.087v0.009c0 0.048-0.039 0.087-0.087 0.087h-0.362c-0.048 0-0.087-0.039-0.087-0.087v-0.193c0-0.048-0.039-0.087-0.087-0.087h-0.719c-0.048 0-0.087 0.039-0.087 0.087v0.371c0 0.048 0.039 0.087 0.087 0.087zM4.021 12.136h0.005c0.048 0 0.087-0.039 0.087-0.087v-0.005c0-0.048-0.039-0.087-0.087-0.087h-0.005c-0.048 0-0.087 0.039-0.087 0.087v0.005c0 0.048 0.039 0.087 0.087 0.087zM3.664 11.408h2.149c0.048 0 0.087-0.039 0.087-0.087v-0.009c0-0.048-0.039-0.087-0.087-0.087h-2.149c-0.048 0-0.087 0.039-0.087 0.087v0.009c0 0.048 0.039 0.087 0.087 0.087zM5.813 12.136h-0.364c-0.048 0-0.087-0.039-0.087-0.087v-0.371c0-0.048 0.039-0.087 0.087-0.087h0.54c0.048 0 0.087-0.039 0.087-0.087v-0.193c0-0.048 0.039-0.087 0.087-0.087h0.007c0.048 0 0.087 0.039 0.087 0.087v0.559c0 0.048 0.039 0.087 0.087 0.087h0.007c0.048 0 0.087-0.039 0.087-0.087v-0.559c0-0.048 0.039-0.087 0.087-0.087h0.003c0.048 0 0.087 0.039 0.087 0.087v0.559c0 0.048 0.039 0.087 0.087 0.087h0.007c0.048 0 0.087-0.039 0.087-0.087v-0.559c0-0.048 0.039-0.087 0.087-0.087h0.005c0.048 0 0.087 0.039 0.087 0.087v0.737c0 0.048-0.039 0.087-0.087 0.087h-0.723c-0.048 0-0.087-0.039-0.087-0.087v-0.188c0-0.048-0.039-0.087-0.087-0.087h-0.36c-0.048 0-0.087 0.039-0.087 0.087v0.009c0 0.048 0.039 0.087 0.087 0.087h0.183c0.048 0 0.087 0.039 0.087 0.087v0.005c-0 0.048-0.039 0.087-0.087 0.087z"></path>
<path fill="#f5f5f5" d="M7.238 12.136h0.005c0.048 0 0.087-0.039 0.087-0.087v-0.188c0-0.048 0.039-0.087 0.087-0.087h0.362c0.048 0 0.087 0.039 0.087 0.087v0.188c0 0.048 0.039 0.087 0.087 0.087h0.721c0.048 0 0.087-0.039 0.087-0.087v-0.371c0-0.048-0.039-0.087-0.087-0.087h-0.362c-0.048 0-0.087 0.039-0.087 0.087v0.010c0 0.048 0.039 0.087 0.087 0.087h0.183c0.048 0 0.087 0.039 0.087 0.087v0.009c0 0.048-0.039 0.087-0.087 0.087h-0.364c-0.048 0-0.087-0.039-0.087-0.087v-0.193c0-0.048-0.039-0.087-0.087-0.087h-0.719c-0.048 0-0.087 0.039-0.087 0.087v0.371c-0 0.048 0.039 0.087 0.087 0.087zM7.595 12.136h0.005c0.048 0 0.087-0.039 0.087-0.087v-0.005c0-0.048-0.039-0.087-0.087-0.087h-0.005c-0.048 0-0.087 0.039-0.087 0.087v0.005c-0 0.048 0.039 0.087 0.087 0.087zM7.238 11.408h2.152c0.048 0 0.087-0.039 0.087-0.087v-0.009c0-0.048-0.039-0.087-0.087-0.087h-2.152c-0.048 0-0.087 0.039-0.087 0.087v0.009c-0 0.048 0.039 0.087 0.087 0.087zM9.39 12.136h-0.364c-0.048 0-0.087-0.039-0.087-0.087v-0.371c0-0.048 0.039-0.087 0.087-0.087h0.54c0.048 0 0.087-0.039 0.087-0.087v-0.193c0-0.048 0.039-0.087 0.087-0.087h0.005c0.048 0 0.087 0.039 0.087 0.087v0.559c0 0.048 0.039 0.087 0.087 0.087h0.007c0.048 0 0.087-0.039 0.087-0.087v-0.559c0-0.048 0.039-0.087 0.087-0.087h0.007c0.048 0 0.087 0.039 0.087 0.087v0.559c0 0.048 0.039 0.087 0.087 0.087h0.003c0.048 0 0.087-0.039 0.087-0.087v-0.559c0-0.048 0.039-0.087 0.087-0.087h0.005c0.048 0 0.087 0.039 0.087 0.087v0.737c0 0.048-0.039 0.087-0.087 0.087h-0.721c-0.048 0-0.087-0.039-0.087-0.087v-0.188c0-0.048-0.039-0.087-0.087-0.087h-0.362c-0.048 0-0.087 0.039-0.087 0.087v0.009c0 0.048 0.039 0.087 0.087 0.087h0.186c0.048 0 0.087 0.039 0.087 0.087v0.005c0 0.048-0.039 0.087-0.087 0.087z"></path>
<path fill="#f5f5f5" d="M10.813 12.136h0.005c0.048 0 0.087-0.039 0.087-0.087v-0.188c0-0.048 0.039-0.087 0.087-0.087h0.362c0.048 0 0.087 0.039 0.087 0.087v0.188c0 0.048 0.039 0.087 0.087 0.087h0.721c0.048 0 0.087-0.039 0.087-0.087v-0.371c0-0.048-0.039-0.087-0.087-0.087h-0.364c-0.048 0-0.087 0.039-0.087 0.087v0.010c0 0.048 0.039 0.087 0.087 0.087h0.183c0.048 0 0.087 0.039 0.087 0.087v0.009c0 0.048-0.039 0.087-0.087 0.087h-0.362c-0.048 0-0.087-0.039-0.087-0.087v-0.193c0-0.048-0.039-0.087-0.087-0.087h-0.719c-0.048 0-0.087 0.039-0.087 0.087v0.371c0 0.048 0.039 0.087 0.087 0.087zM11.17 12.136h0.005c0.048 0 0.087-0.039 0.087-0.087v-0.005c0-0.048-0.039-0.087-0.087-0.087h-0.005c-0.048 0-0.087 0.039-0.087 0.087v0.005c0 0.048 0.039 0.087 0.087 0.087zM10.813 11.408h2.149c0.048 0 0.087-0.039 0.087-0.087v-0.009c0-0.048-0.039-0.087-0.087-0.087h-2.149c-0.048 0-0.087 0.039-0.087 0.087v0.009c0 0.048 0.039 0.087 0.087 0.087zM12.962 12.136h-0.364c-0.048 0-0.087-0.039-0.087-0.087v-0.371c0-0.048 0.039-0.087 0.087-0.087h0.545c0.048 0 0.087-0.039 0.087-0.087v-0.193c0-0.048 0.039-0.087 0.087-0.087h0.005c0.048 0 0.087 0.039 0.087 0.087v0.559c0 0.048 0.039 0.087 0.087 0.087h0.003c0.048 0 0.087-0.039 0.087-0.087v-0.559c0-0.048 0.039-0.087 0.087-0.087h0.007c0.048 0 0.087 0.039 0.087 0.087v0.559c0 0.048 0.039 0.087 0.087 0.087h0.005c0.048 0 0.087-0.039 0.087-0.087v-0.559c0-0.048 0.039-0.087 0.087-0.087h0.005c0.048 0 0.087 0.039 0.087 0.087v0.737c0 0.048-0.039 0.087-0.087 0.087h-0.719c-0.048 0-0.087-0.039-0.087-0.087v-0.188c0-0.048-0.039-0.087-0.087-0.087h-0.364c-0.048 0-0.087 0.039-0.087 0.087v0.009c0 0.048 0.039 0.087 0.087 0.087h0.183c0.048 0 0.087 0.039 0.087 0.087v0.005c0 0.048-0.039 0.087-0.087 0.087z"></path>
<path fill="#f5f5f5" d="M14.387 12.136h0.005c0.048 0 0.087-0.039 0.087-0.087v-0.188c0-0.048 0.039-0.087 0.087-0.087h0.362c0.048 0 0.087 0.039 0.087 0.087v0.188c0 0.048 0.039 0.087 0.087 0.087h0.721c0.048 0 0.087-0.039 0.087-0.087v-0.371c0-0.048-0.039-0.087-0.087-0.087h-0.364c-0.048 0-0.087 0.039-0.087 0.087v0.010c0 0.048 0.039 0.087 0.087 0.087h0.186c0.048 0 0.087 0.039 0.087 0.087v0.009c0 0.048-0.039 0.087-0.087 0.087h-0.362c-0.048 0-0.087-0.039-0.087-0.087v-0.193c0-0.048-0.039-0.087-0.087-0.087h-0.721c-0.048 0-0.087 0.039-0.087 0.087v0.371c0 0.048 0.039 0.087 0.087 0.087zM14.747 12.136h0.003c0.048 0 0.087-0.039 0.087-0.087v-0.005c0-0.048-0.039-0.087-0.087-0.087h-0.003c-0.048 0-0.087 0.039-0.087 0.087v0.005c-0 0.048 0.039 0.087 0.087 0.087zM14.387 11.408h2.152c0.048 0 0.087-0.039 0.087-0.087v-0.009c0-0.048-0.039-0.087-0.087-0.087h-2.152c-0.048 0-0.087 0.039-0.087 0.087v0.009c0 0.048 0.039 0.087 0.087 0.087zM16.539 12.136h-0.364c-0.048 0-0.087-0.039-0.087-0.087v-0.371c0-0.048 0.039-0.087 0.087-0.087h0.543c0.048 0 0.087-0.039 0.087-0.087v-0.193c0-0.048 0.039-0.087 0.087-0.087h0.005c0.048 0 0.087 0.039 0.087 0.087v0.559c0 0.048 0.039 0.087 0.087 0.087h0.005c0.048 0 0.087-0.039 0.087-0.087v-0.559c0-0.048 0.039-0.087 0.087-0.087h0.005c0.048 0 0.087 0.039 0.087 0.087v0.559c0 0.048 0.039 0.087 0.087 0.087h0.005c0.048 0 0.087-0.039 0.087-0.087v-0.559c0-0.048 0.039-0.087 0.087-0.087h0.005c0.048 0 0.087 0.039 0.087 0.087v0.737c0 0.048-0.039 0.087-0.087 0.087h-0.719c-0.048 0-0.087-0.039-0.087-0.087v-0.188c0-0.048-0.039-0.087-0.087-0.087h-0.364c-0.048 0-0.087 0.039-0.087 0.087v0.009c0 0.048 0.039 0.087 0.087 0.087h0.186c0.048 0 0.087 0.039 0.087 0.087v0.005c0 0.048-0.038 0.087-0.086 0.087z"></path>
<path fill="#f5f5f5" d="M17.962 12.136h0.005c0.048 0 0.087-0.039 0.087-0.087v-0.188c0-0.048 0.039-0.087 0.087-0.087h0.362c0.048 0 0.087 0.039 0.087 0.087v0.188c0 0.048 0.039 0.087 0.087 0.087h0.721c0.048 0 0.087-0.039 0.087-0.087v-0.371c0-0.048-0.039-0.087-0.087-0.087h-0.362c-0.048 0-0.087 0.039-0.087 0.087v0.010c0 0.048 0.039 0.087 0.087 0.087h0.181c0.048 0 0.087 0.039 0.087 0.087v0.009c0 0.048-0.039 0.087-0.087 0.087h-0.36c-0.048 0-0.087-0.039-0.087-0.087v-0.193c0-0.048-0.039-0.087-0.087-0.087h-0.721c-0.048 0-0.087 0.039-0.087 0.087v0.371c-0 0.048 0.039 0.087 0.087 0.087zM18.321 12.136h0.003c0.048 0 0.087-0.039 0.087-0.087v-0.005c0-0.048-0.039-0.087-0.087-0.087h-0.003c-0.048 0-0.087 0.039-0.087 0.087v0.005c0 0.048 0.039 0.087 0.087 0.087zM17.962 11.408h2.152c0.048 0 0.087-0.039 0.087-0.087v-0.009c0-0.048-0.039-0.087-0.087-0.087h-2.152c-0.048 0-0.087 0.039-0.087 0.087v0.009c0 0.048 0.039 0.087 0.087 0.087zM20.114 12.136h-0.362c-0.048 0-0.087-0.039-0.087-0.087v-0.371c0-0.048 0.039-0.087 0.087-0.087h0.54c0.048 0 0.087-0.039 0.087-0.087v-0.193c0-0.048 0.039-0.087 0.087-0.087h0.005c0.048 0 0.087 0.039 0.087 0.087v0.559c0 0.048 0.039 0.087 0.087 0.087h0.005c0.048 0 0.087-0.039 0.087-0.087v-0.559c0-0.048 0.039-0.087 0.087-0.087h0.005c0.048 0 0.087 0.039 0.087 0.087v0.559c0 0.048 0.039 0.087 0.087 0.087h0.005c0.048 0 0.087-0.039 0.087-0.087v-0.559c0-0.048 0.039-0.087 0.087-0.087h0.005c0.048 0 0.087 0.039 0.087 0.087v0.737c0 0.048-0.039 0.087-0.087 0.087h-0.719c-0.048 0-0.087-0.039-0.087-0.087v-0.188c0-0.048-0.039-0.087-0.087-0.087h-0.364c-0.048 0-0.087 0.039-0.087 0.087v0.009c0 0.048 0.039 0.087 0.087 0.087h0.186c0.048 0 0.087 0.039 0.087 0.087v0.005c0 0.048-0.039 0.087-0.087 0.087z"></path>
<path fill="#f5f5f5" d="M21.537 12.136h0.005c0.048 0 0.087-0.039 0.087-0.087v-0.188c0-0.048 0.039-0.087 0.087-0.087h0.364c0.048 0 0.087 0.039 0.087 0.087v0.188c0 0.048 0.039 0.087 0.087 0.087h0.719c0.048 0 0.087-0.039 0.087-0.087v-0.371c0-0.048-0.039-0.087-0.087-0.087h-0.362c-0.048 0-0.087 0.039-0.087 0.087v0.010c0 0.048 0.039 0.087 0.087 0.087h0.186c0.048 0 0.087 0.039 0.087 0.087v0.009c0 0.048-0.039 0.087-0.087 0.087h-0.367c-0.048 0-0.087-0.039-0.087-0.087v-0.193c0-0.048-0.039-0.087-0.087-0.087h-0.719c-0.048 0-0.087 0.039-0.087 0.087v0.371c-0 0.048 0.039 0.087 0.087 0.087zM21.894 12.136h0.007c0.048 0 0.087-0.039 0.087-0.087v-0.005c0-0.048-0.039-0.087-0.087-0.087h-0.007c-0.048 0-0.087 0.039-0.087 0.087v0.005c-0 0.048 0.039 0.087 0.087 0.087zM21.537 11.408h2.151c0.048 0 0.087-0.039 0.087-0.087v-0.009c0-0.048-0.039-0.087-0.087-0.087h-2.151c-0.048 0-0.087 0.039-0.087 0.087v0.009c0 0.048 0.039 0.087 0.087 0.087zM23.688 12.136h-0.362c-0.048 0-0.087-0.039-0.087-0.087v-0.371c0-0.048 0.039-0.087 0.087-0.087h0.54c0.048 0 0.087-0.039 0.087-0.087v-0.193c0-0.048 0.039-0.087 0.087-0.087h0.005c0.048 0 0.087 0.039 0.087 0.087v0.559c0 0.048 0.039 0.087 0.087 0.087h0.005c0.048 0 0.087-0.039 0.087-0.087v-0.559c0-0.048 0.039-0.087 0.087-0.087h0.005c0.048 0 0.087 0.039 0.087 0.087v0.559c0 0.048 0.039 0.087 0.087 0.087h0.007c0.048 0 0.087-0.039 0.087-0.087v-0.559c0-0.048 0.039-0.087 0.087-0.087h0.003c0.048 0 0.087 0.039 0.087 0.087v0.737c0 0.048-0.039 0.087-0.087 0.087h-0.719c-0.048 0-0.087-0.039-0.087-0.087v-0.188c0-0.048-0.039-0.087-0.087-0.087h-0.36c-0.048 0-0.087 0.039-0.087 0.087v0.009c0 0.048 0.039 0.087 0.087 0.087h0.181c0.048 0 0.087 0.039 0.087 0.087v0.005c0 0.048-0.039 0.087-0.087 0.087z"></path>
<path fill="#f5f5f5" d="M25.114 12.136h0.003c0.048 0 0.087-0.039 0.087-0.087v-0.188c0-0.048 0.039-0.087 0.087-0.087h0.362c0.048 0 0.087 0.039 0.087 0.087v0.188c0 0.048 0.039 0.087 0.087 0.087h0.721c0.048 0 0.087-0.039 0.087-0.087v-0.371c0-0.048-0.039-0.087-0.087-0.087h-0.36c-0.048 0-0.087 0.039-0.087 0.087v0.010c0 0.048 0.039 0.087 0.087 0.087h0.183c0.048 0 0.087 0.039 0.087 0.087v0.009c0 0.048-0.039 0.087-0.087 0.087h-0.364c-0.048 0-0.087-0.039-0.087-0.087v-0.193c0-0.048-0.039-0.087-0.087-0.087h-0.719c-0.048 0-0.087 0.039-0.087 0.087v0.371c-0 0.048 0.039 0.087 0.087 0.087zM25.471 12.136h0.005c0.048 0 0.087-0.039 0.087-0.087v-0.005c0-0.048-0.039-0.087-0.087-0.087h-0.005c-0.048 0-0.087 0.039-0.087 0.087v0.005c-0 0.048 0.039 0.087 0.087 0.087zM25.114 11.408h2.154c0.048 0 0.087-0.039 0.087-0.087v-0.009c0-0.048-0.039-0.087-0.087-0.087h-2.154c-0.048 0-0.087 0.039-0.087 0.087v0.009c-0 0.048 0.039 0.087 0.087 0.087zM27.267 12.136h-0.367c-0.048 0-0.087-0.039-0.087-0.087v-0.371c0-0.048 0.039-0.087 0.087-0.087h0.54c0.048 0 0.087-0.039 0.087-0.087v-0.193c0-0.048 0.039-0.087 0.087-0.087h0.007c0.048 0 0.087 0.039 0.087 0.087v0.559c0 0.048 0.039 0.087 0.087 0.087h0.005c0.048 0 0.087-0.039 0.087-0.087v-0.559c0-0.048 0.039-0.087 0.087-0.087h0.003c0.048 0 0.087 0.039 0.087 0.087v0.559c0 0.048 0.039 0.087 0.087 0.087h0.007c0.048 0 0.087-0.039 0.087-0.087v-0.559c0-0.048 0.039-0.087 0.087-0.087h0.005c0.048 0 0.087 0.039 0.087 0.087v0.737c0 0.048-0.039 0.087-0.087 0.087h-0.721c-0.048 0-0.087-0.039-0.087-0.087v-0.188c0-0.048-0.039-0.087-0.087-0.087h-0.362c-0.048 0-0.087 0.039-0.087 0.087v0.009c0 0.048 0.039 0.087 0.087 0.087h0.188c0.048 0 0.087 0.039 0.087 0.087v0.005c0 0.048-0.039 0.087-0.087 0.087z"></path>
<path fill="#f5f5f5" d="M28.688 12.136h0.005c0.048 0 0.087-0.039 0.087-0.087v-0.188c0-0.048 0.039-0.087 0.087-0.087h0.362c0.048 0 0.087 0.039 0.087 0.087v0.188c0 0.048 0.039 0.087 0.087 0.087h0.721c0.048 0 0.087-0.039 0.087-0.087v-0.371c0-0.048-0.039-0.087-0.087-0.087h-0.36c-0.048 0-0.087 0.039-0.087 0.087v0.010c0 0.048 0.039 0.087 0.087 0.087h0.183c0.048 0 0.087 0.039 0.087 0.087v0.009c0 0.048-0.039 0.087-0.087 0.087h-0.367c-0.048 0-0.087-0.039-0.087-0.087v-0.193c0-0.048-0.039-0.087-0.087-0.087h-0.719c-0.048 0-0.087 0.039-0.087 0.087v0.371c-0 0.048 0.039 0.087 0.087 0.087zM29.045 12.136h0.005c0.048 0 0.087-0.039 0.087-0.087v-0.005c0-0.048-0.039-0.087-0.087-0.087h-0.005c-0.048 0-0.087 0.039-0.087 0.087v0.005c0 0.048 0.039 0.087 0.087 0.087zM28.688 11.408h2.149c0.048 0 0.087-0.039 0.087-0.087v-0.009c0-0.048-0.039-0.087-0.087-0.087h-2.149c-0.048 0-0.087 0.039-0.087 0.087v0.009c0 0.048 0.039 0.087 0.087 0.087zM30.837 12.136h-0.362c-0.048 0-0.087-0.039-0.087-0.087v-0.371c0-0.048 0.039-0.087 0.087-0.087h0.545c0.048 0 0.087-0.039 0.087-0.087v-0.193c0-0.048 0.039-0.087 0.087-0.087h0c0.048 0 0.087 0.039 0.087 0.087v0.559c0 0.048 0.039 0.087 0.087 0.087h0.009c0.048 0 0.087-0.039 0.087-0.087v-0.559c0-0.048 0.039-0.087 0.087-0.087h0c0.048 0 0.087 0.039 0.087 0.087v0.559c0 0.048 0.039 0.087 0.087 0.087h0.005c0.048 0 0.087-0.039 0.087-0.087v-0.559c0-0.048 0.039-0.087 0.087-0.087h0.009c0.048 0 0.087 0.039 0.087 0.087v0.737c0 0.048-0.039 0.087-0.087 0.087h-0.719c-0.048 0-0.087-0.039-0.087-0.087v-0.188c0-0.048-0.039-0.087-0.087-0.087h-0.366c-0.048 0-0.087 0.039-0.087 0.087v0.009c0 0.048 0.039 0.087 0.087 0.087h0.183c0.048 0 0.087 0.039 0.087 0.087v0.005c0 0.048-0.039 0.087-0.087 0.087z"></path>
<path fill="#f5f5f5" d="M0.087 12.69h1.435c0.048 0 0.087-0.039 0.087-0.087v-0.193c0-0.048-0.039-0.087-0.087-0.087h-1.435c-0.048 0-0.087 0.039-0.087 0.087v0.193c0 0.048 0.039 0.087 0.087 0.087zM1.876 12.69h1.433c0.048 0 0.087-0.039 0.087-0.087v-0.193c0-0.048-0.039-0.087-0.087-0.087h-1.433c-0.048 0-0.087 0.039-0.087 0.087v0.193c-0 0.048 0.039 0.087 0.087 0.087z"></path>
<path fill="#f5f5f5" d="M3.664 12.69h1.433c0.048 0 0.087-0.039 0.087-0.087v-0.193c0-0.048-0.039-0.087-0.087-0.087h-1.433c-0.048 0-0.087 0.039-0.087 0.087v0.193c0 0.048 0.039 0.087 0.087 0.087zM5.449 12.69h1.438c0.048 0 0.087-0.039 0.087-0.087v-0.193c0-0.048-0.039-0.087-0.087-0.087h-1.438c-0.048 0-0.087 0.039-0.087 0.087v0.193c0 0.048 0.039 0.087 0.087 0.087z"></path>
<path fill="#f5f5f5" d="M7.238 12.69h1.435c0.048 0 0.087-0.039 0.087-0.087v-0.193c0-0.048-0.039-0.087-0.087-0.087h-1.435c-0.048 0-0.087 0.039-0.087 0.087v0.193c-0 0.048 0.039 0.087 0.087 0.087zM9.026 12.69h1.435c0.048 0 0.087-0.039 0.087-0.087v-0.193c0-0.048-0.039-0.087-0.087-0.087h-1.435c-0.048 0-0.087 0.039-0.087 0.087v0.193c0 0.048 0.039 0.087 0.087 0.087z"></path>
<path fill="#f5f5f5" d="M10.813 12.69h1.435c0.048 0 0.087-0.039 0.087-0.087v-0.193c0-0.048-0.039-0.087-0.087-0.087h-1.435c-0.048 0-0.087 0.039-0.087 0.087v0.193c0 0.048 0.039 0.087 0.087 0.087zM12.598 12.69h1.438c0.048 0 0.087-0.039 0.087-0.087v-0.193c0-0.048-0.039-0.087-0.087-0.087h-1.438c-0.048 0-0.087 0.039-0.087 0.087v0.193c-0 0.048 0.039 0.087 0.087 0.087z"></path>
<path fill="#f5f5f5" d="M14.387 12.69h1.435c0.048 0 0.087-0.039 0.087-0.087v-0.193c0-0.048-0.039-0.087-0.087-0.087h-1.435c-0.048 0-0.087 0.039-0.087 0.087v0.193c0 0.048 0.039 0.087 0.087 0.087zM16.175 12.69h1.435c0.048 0 0.087-0.039 0.087-0.087v-0.193c0-0.048-0.039-0.087-0.087-0.087h-1.435c-0.048 0-0.087 0.039-0.087 0.087v0.193c0 0.048 0.039 0.087 0.087 0.087z"></path>
<path fill="#f5f5f5" d="M17.962 12.69h1.435c0.048 0 0.087-0.039 0.087-0.087v-0.193c0-0.048-0.039-0.087-0.087-0.087h-1.435c-0.048 0-0.087 0.039-0.087 0.087v0.193c0 0.048 0.039 0.087 0.087 0.087zM19.752 12.69h1.433c0.048 0 0.087-0.039 0.087-0.087v-0.193c0-0.048-0.039-0.087-0.087-0.087h-1.433c-0.048 0-0.087 0.039-0.087 0.087v0.193c-0 0.048 0.039 0.087 0.087 0.087z"></path>
<path fill="#f5f5f5" d="M21.537 12.69h1.435c0.048 0 0.087-0.039 0.087-0.087v-0.193c0-0.048-0.039-0.087-0.087-0.087h-1.435c-0.048 0-0.087 0.039-0.087 0.087v0.193c0 0.048 0.039 0.087 0.087 0.087zM23.326 12.69h1.433c0.048 0 0.087-0.039 0.087-0.087v-0.193c0-0.048-0.039-0.087-0.087-0.087h-1.433c-0.048 0-0.087 0.039-0.087 0.087v0.193c0 0.048 0.039 0.087 0.087 0.087z"></path>
<path fill="#f5f5f5" d="M25.114 12.69h1.433c0.048 0 0.087-0.039 0.087-0.087v-0.193c0-0.048-0.039-0.087-0.087-0.087h-1.433c-0.048 0-0.087 0.039-0.087 0.087v0.193c-0 0.048 0.039 0.087 0.087 0.087zM26.901 12.69h1.435c0.048 0 0.087-0.039 0.087-0.087v-0.193c0-0.048-0.039-0.087-0.087-0.087h-1.435c-0.048 0-0.087 0.039-0.087 0.087v0.193c-0 0.048 0.039 0.087 0.087 0.087z"></path>
<path fill="#f5f5f5" d="M28.688 12.69h1.435c0.048 0 0.087-0.039 0.087-0.087v-0.193c0-0.048-0.039-0.087-0.087-0.087h-1.435c-0.048 0-0.087 0.039-0.087 0.087v0.193c0 0.048 0.039 0.087 0.087 0.087zM30.476 12.69h1.438c0.048 0 0.087-0.039 0.087-0.087v-0.193c0-0.048-0.039-0.087-0.087-0.087h-1.438c-0.048 0-0.087 0.039-0.087 0.087v0.193c-0 0.048 0.039 0.087 0.087 0.087z"></path>
<path fill="#f5f5f5" d="M31.913 19.864h-0.005c-0.048 0-0.087 0.039-0.087 0.087v0.188c0 0.048-0.039 0.087-0.087 0.087h-0.364c-0.048 0-0.087-0.039-0.087-0.087v-0.188c0-0.048-0.039-0.087-0.087-0.087h-0.719c-0.048 0-0.087 0.039-0.087 0.087v0.371c0 0.048 0.039 0.087 0.087 0.087h0.362c0.048 0 0.087-0.039 0.087-0.087v-0.009c0-0.048-0.039-0.087-0.087-0.087h-0.183c-0.048 0-0.087-0.039-0.087-0.087v-0.009c0-0.048 0.039-0.087 0.087-0.087h0.362c0.048 0 0.087 0.039 0.087 0.087v0.193c0 0.048 0.039 0.087 0.087 0.087h0.721c0.048 0 0.087-0.039 0.087-0.087v-0.371c-0-0.048-0.039-0.087-0.087-0.087zM31.554 19.864h-0.005c-0.048 0-0.087 0.039-0.087 0.087v0.005c0 0.048 0.039 0.087 0.087 0.087h0.005c0.048 0 0.087-0.039 0.087-0.087v-0.005c0-0.048-0.039-0.087-0.087-0.087zM31.913 20.592h-2.151c-0.048 0-0.087 0.039-0.087 0.087v0.010c0 0.048 0.039 0.087 0.087 0.087h2.151c0.048 0 0.087-0.039 0.087-0.087v-0.010c0-0.048-0.039-0.087-0.087-0.087zM29.762 19.864h0.362c0.048 0 0.087 0.039 0.087 0.087v0.371c0 0.048-0.039 0.087-0.087 0.087h-0.54c-0.048 0-0.087 0.039-0.087 0.087v0.193c0 0.048-0.039 0.087-0.087 0.087h-0.005c-0.048 0-0.087-0.039-0.087-0.087v-0.559c0-0.048-0.039-0.087-0.087-0.087h-0.005c-0.048 0-0.087 0.039-0.087 0.087v0.559c0 0.048-0.039 0.087-0.087 0.087h-0.005c-0.048 0-0.087-0.039-0.087-0.087v-0.559c0-0.048-0.039-0.087-0.087-0.087h-0.007c-0.048 0-0.087 0.039-0.087 0.087v0.559c0 0.048-0.039 0.087-0.087 0.087h-0.003c-0.048 0-0.087-0.039-0.087-0.087v-0.737c0-0.048 0.039-0.087 0.087-0.087h0.719c0.048 0 0.087 0.039 0.087 0.087v0.188c0 0.048 0.039 0.087 0.087 0.087h0.362c0.048 0 0.087-0.039 0.087-0.087v-0.009c0-0.048-0.039-0.087-0.087-0.087h-0.183c-0.048 0-0.087-0.039-0.087-0.087v-0.005c-0-0.048 0.039-0.087 0.087-0.087z"></path>
<path fill="#f5f5f5" d="M28.336 19.864h-0.007c-0.048 0-0.087 0.039-0.087 0.087v0.188c0 0.048-0.039 0.087-0.087 0.087h-0.36c-0.048 0-0.087-0.039-0.087-0.087v-0.188c0-0.048-0.039-0.087-0.087-0.087h-0.719c-0.048 0-0.087 0.039-0.087 0.087v0.371c0 0.048 0.039 0.087 0.087 0.087h0.362c0.048 0 0.087-0.039 0.087-0.087v-0.009c0-0.048-0.039-0.087-0.087-0.087h-0.183c-0.048 0-0.087-0.039-0.087-0.087v-0.009c0-0.048 0.039-0.087 0.087-0.087h0.362c0.048 0 0.087 0.039 0.087 0.087v0.193c0 0.048 0.039 0.087 0.087 0.087h0.719c0.048 0 0.087-0.039 0.087-0.087v-0.371c-0-0.048-0.039-0.087-0.087-0.087zM27.979 19.864h-0.005c-0.048 0-0.087 0.039-0.087 0.087v0.005c0 0.048 0.039 0.087 0.087 0.087h0.005c0.048 0 0.087-0.039 0.087-0.087v-0.005c-0-0.048-0.039-0.087-0.087-0.087zM28.336 20.592h-2.149c-0.048 0-0.087 0.039-0.087 0.087v0.010c0 0.048 0.039 0.087 0.087 0.087h2.149c0.048 0 0.087-0.039 0.087-0.087v-0.010c-0-0.048-0.039-0.087-0.087-0.087zM26.187 19.864h0.364c0.048 0 0.087 0.039 0.087 0.087v0.371c0 0.048-0.039 0.087-0.087 0.087h-0.54c-0.048 0-0.087 0.039-0.087 0.087v0.193c0 0.048-0.039 0.087-0.087 0.087h-0.007c-0.048 0-0.087-0.039-0.087-0.087v-0.559c0-0.048-0.039-0.087-0.087-0.087h-0.007c-0.048 0-0.087 0.039-0.087 0.087v0.559c0 0.048-0.039 0.087-0.087 0.087h-0.003c-0.048 0-0.087-0.039-0.087-0.087v-0.559c0-0.048-0.039-0.087-0.087-0.087h-0.007c-0.048 0-0.087 0.039-0.087 0.087v0.559c0 0.048-0.039 0.087-0.087 0.087h-0.005c-0.048 0-0.087-0.039-0.087-0.087v-0.737c0-0.048 0.039-0.087 0.087-0.087h0.723c0.048 0 0.087 0.039 0.087 0.087v0.188c0 0.048 0.039 0.087 0.087 0.087h0.36c0.048 0 0.087-0.039 0.087-0.087v-0.009c0-0.048-0.039-0.087-0.087-0.087h-0.183c-0.048 0-0.087-0.039-0.087-0.087v-0.005c0-0.048 0.039-0.087 0.087-0.087z"></path>
<path fill="#f5f5f5" d="M24.762 19.864h-0.005c-0.048 0-0.087 0.039-0.087 0.087v0.188c0 0.048-0.039 0.087-0.087 0.087h-0.362c-0.048 0-0.087-0.039-0.087-0.087v-0.188c0-0.048-0.039-0.087-0.087-0.087h-0.721c-0.048 0-0.087 0.039-0.087 0.087v0.371c0 0.048 0.039 0.087 0.087 0.087h0.362c0.048 0 0.087-0.039 0.087-0.087v-0.009c0-0.048-0.039-0.087-0.087-0.087h-0.183c-0.048 0-0.087-0.039-0.087-0.087v-0.009c0-0.048 0.039-0.087 0.087-0.087h0.364c0.048 0 0.087 0.039 0.087 0.087v0.193c0 0.048 0.039 0.087 0.087 0.087h0.719c0.048 0 0.087-0.039 0.087-0.087v-0.371c0-0.048-0.039-0.087-0.087-0.087zM24.405 19.864h-0.005c-0.048 0-0.087 0.039-0.087 0.087v0.005c0 0.048 0.039 0.087 0.087 0.087h0.005c0.048 0 0.087-0.039 0.087-0.087v-0.005c0-0.048-0.039-0.087-0.087-0.087zM24.762 20.592h-2.151c-0.048 0-0.087 0.039-0.087 0.087v0.010c0 0.048 0.039 0.087 0.087 0.087h2.151c0.048 0 0.087-0.039 0.087-0.087v-0.010c0-0.048-0.039-0.087-0.087-0.087zM22.61 19.864h0.364c0.048 0 0.087 0.039 0.087 0.087v0.371c0 0.048-0.039 0.087-0.087 0.087h-0.54c-0.048 0-0.087 0.039-0.087 0.087v0.193c0 0.048-0.039 0.087-0.087 0.087h-0.005c-0.048 0-0.087-0.039-0.087-0.087v-0.559c0-0.048-0.039-0.087-0.087-0.087h-0.007c-0.048 0-0.087 0.039-0.087 0.087v0.559c0 0.048-0.039 0.087-0.087 0.087h-0.007c-0.048 0-0.087-0.039-0.087-0.087v-0.559c0-0.048-0.039-0.087-0.087-0.087h-0.003c-0.048 0-0.087 0.039-0.087 0.087v0.559c0 0.048-0.039 0.087-0.087 0.087h-0.005c-0.048 0-0.087-0.039-0.087-0.087v-0.737c0-0.048 0.039-0.087 0.087-0.087h0.721c0.048 0 0.087 0.039 0.087 0.087v0.188c0 0.048 0.039 0.087 0.087 0.087h0.362c0.048 0 0.087-0.039 0.087-0.087v-0.009c0-0.048-0.039-0.087-0.087-0.087h-0.186c-0.048 0-0.087-0.039-0.087-0.087v-0.005c0-0.048 0.039-0.087 0.087-0.087z"></path>
<path fill="#f5f5f5" d="M21.187 19.864h-0.005c-0.048 0-0.087 0.039-0.087 0.087v0.188c0 0.048-0.039 0.087-0.087 0.087h-0.362c-0.048 0-0.087-0.039-0.087-0.087v-0.188c0-0.048-0.039-0.087-0.087-0.087h-0.721c-0.048 0-0.087 0.039-0.087 0.087v0.371c0 0.048 0.039 0.087 0.087 0.087h0.364c0.048 0 0.087-0.039 0.087-0.087v-0.009c0-0.048-0.039-0.087-0.087-0.087h-0.183c-0.048 0-0.087-0.039-0.087-0.087v-0.009c0-0.048 0.039-0.087 0.087-0.087h0.362c0.048 0 0.087 0.039 0.087 0.087v0.193c0 0.048 0.039 0.087 0.087 0.087h0.719c0.048 0 0.087-0.039 0.087-0.087v-0.371c-0-0.048-0.039-0.087-0.087-0.087zM20.83 19.864h-0.005c-0.048 0-0.087 0.039-0.087 0.087v0.005c0 0.048 0.039 0.087 0.087 0.087h0.005c0.048 0 0.087-0.039 0.087-0.087v-0.005c-0-0.048-0.039-0.087-0.087-0.087zM21.187 20.592h-2.149c-0.048 0-0.087 0.039-0.087 0.087v0.010c0 0.048 0.039 0.087 0.087 0.087h2.149c0.048 0 0.087-0.039 0.087-0.087v-0.010c-0-0.048-0.039-0.087-0.087-0.087zM19.038 19.864h0.364c0.048 0 0.087 0.039 0.087 0.087v0.371c0 0.048-0.039 0.087-0.087 0.087h-0.545c-0.048 0-0.087 0.039-0.087 0.087v0.193c0 0.048-0.039 0.087-0.087 0.087h-0.005c-0.048 0-0.087-0.039-0.087-0.087v-0.559c0-0.048-0.039-0.087-0.087-0.087h-0.003c-0.048 0-0.087 0.039-0.087 0.087v0.559c0 0.048-0.039 0.087-0.087 0.087h-0.007c-0.048 0-0.087-0.039-0.087-0.087v-0.559c0-0.048-0.039-0.087-0.087-0.087h-0.005c-0.048 0-0.087 0.039-0.087 0.087v0.559c0 0.048-0.039 0.087-0.087 0.087h-0.005c-0.048 0-0.087-0.039-0.087-0.087v-0.737c0-0.048 0.039-0.087 0.087-0.087h0.719c0.048 0 0.087 0.039 0.087 0.087v0.188c0 0.048 0.039 0.087 0.087 0.087h0.364c0.048 0 0.087-0.039 0.087-0.087v-0.009c0-0.048-0.039-0.087-0.087-0.087h-0.183c-0.048 0-0.087-0.039-0.087-0.087v-0.005c0-0.048 0.039-0.087 0.087-0.087z"></path>
<path fill="#f5f5f5" d="M17.612 19.864h-0.005c-0.048 0-0.087 0.039-0.087 0.087v0.188c0 0.048-0.039 0.087-0.087 0.087h-0.362c-0.048 0-0.087-0.039-0.087-0.087v-0.188c0-0.048-0.039-0.087-0.087-0.087h-0.721c-0.048 0-0.087 0.039-0.087 0.087v0.371c0 0.048 0.039 0.087 0.087 0.087h0.364c0.048 0 0.087-0.039 0.087-0.087v-0.009c0-0.048-0.039-0.087-0.087-0.087h-0.186c-0.048 0-0.087-0.039-0.087-0.087v-0.009c0-0.048 0.039-0.087 0.087-0.087h0.362c0.048 0 0.087 0.039 0.087 0.087v0.193c0 0.048 0.039 0.087 0.087 0.087h0.721c0.048 0 0.087-0.039 0.087-0.087v-0.371c-0-0.048-0.039-0.087-0.087-0.087zM17.253 19.864h-0.003c-0.048 0-0.087 0.039-0.087 0.087v0.005c0 0.048 0.039 0.087 0.087 0.087h0.003c0.048 0 0.087-0.039 0.087-0.087v-0.005c0-0.048-0.039-0.087-0.087-0.087zM17.612 20.592h-2.152c-0.048 0-0.087 0.039-0.087 0.087v0.010c0 0.048 0.039 0.087 0.087 0.087h2.152c0.048 0 0.087-0.039 0.087-0.087v-0.010c-0-0.048-0.039-0.087-0.087-0.087zM15.461 19.864h0.364c0.048 0 0.087 0.039 0.087 0.087v0.371c0 0.048-0.039 0.087-0.087 0.087h-0.543c-0.048 0-0.087 0.039-0.087 0.087v0.193c0 0.048-0.039 0.087-0.087 0.087h-0.005c-0.048 0-0.087-0.039-0.087-0.087v-0.559c0-0.048-0.039-0.087-0.087-0.087h-0.005c-0.048 0-0.087 0.039-0.087 0.087v0.559c0 0.048-0.039 0.087-0.087 0.087h-0.005c-0.048 0-0.087-0.039-0.087-0.087v-0.559c0-0.048-0.039-0.087-0.087-0.087h-0.005c-0.048 0-0.087 0.039-0.087 0.087v0.559c0 0.048-0.039 0.087-0.087 0.087h-0.005c-0.048 0-0.087-0.039-0.087-0.087v-0.737c0-0.048 0.039-0.087 0.087-0.087h0.719c0.048 0 0.087 0.039 0.087 0.087v0.188c0 0.048 0.039 0.087 0.087 0.087h0.364c0.048 0 0.087-0.039 0.087-0.087v-0.009c0-0.048-0.039-0.087-0.087-0.087h-0.186c-0.048 0-0.087-0.039-0.087-0.087v-0.005c-0-0.048 0.039-0.087 0.086-0.087z"></path>
<path fill="#f5f5f5" d="M14.038 19.864h-0.005c-0.048 0-0.087 0.039-0.087 0.087v0.188c0 0.048-0.039 0.087-0.087 0.087h-0.362c-0.048 0-0.087-0.039-0.087-0.087v-0.188c0-0.048-0.039-0.087-0.087-0.087h-0.721c-0.048 0-0.087 0.039-0.087 0.087v0.371c0 0.048 0.039 0.087 0.087 0.087h0.362c0.048 0 0.087-0.039 0.087-0.087v-0.009c0-0.048-0.039-0.087-0.087-0.087h-0.181c-0.048 0-0.087-0.039-0.087-0.087v-0.009c0-0.048 0.039-0.087 0.087-0.087h0.36c0.048 0 0.087 0.039 0.087 0.087v0.193c0 0.048 0.039 0.087 0.087 0.087h0.721c0.048 0 0.087-0.039 0.087-0.087v-0.371c-0-0.048-0.039-0.087-0.087-0.087zM13.678 19.864h-0.003c-0.048 0-0.087 0.039-0.087 0.087v0.005c0 0.048 0.039 0.087 0.087 0.087h0.003c0.048 0 0.087-0.039 0.087-0.087v-0.005c0-0.048-0.039-0.087-0.087-0.087zM14.038 20.592h-2.152c-0.048 0-0.087 0.039-0.087 0.087v0.010c0 0.048 0.039 0.087 0.087 0.087h2.152c0.048 0 0.087-0.039 0.087-0.087v-0.010c0-0.048-0.039-0.087-0.087-0.087zM11.886 19.864h0.362c0.048 0 0.087 0.039 0.087 0.087v0.371c0 0.048-0.039 0.087-0.087 0.087h-0.54c-0.048 0-0.087 0.039-0.087 0.087v0.193c0 0.048-0.039 0.087-0.087 0.087h-0.005c-0.048 0-0.087-0.039-0.087-0.087v-0.559c0-0.048-0.039-0.087-0.087-0.087h-0.005c-0.048 0-0.087 0.039-0.087 0.087v0.559c0 0.048-0.039 0.087-0.087 0.087h-0.005c-0.048 0-0.087-0.039-0.087-0.087v-0.559c0-0.048-0.039-0.087-0.087-0.087h-0.005c-0.048 0-0.087 0.039-0.087 0.087v0.559c0 0.048-0.039 0.087-0.087 0.087h-0.005c-0.048 0-0.087-0.039-0.087-0.087v-0.737c0-0.048 0.039-0.087 0.087-0.087h0.719c0.048 0 0.087 0.039 0.087 0.087v0.188c0 0.048 0.039 0.087 0.087 0.087h0.364c0.048 0 0.087-0.039 0.087-0.087v-0.009c0-0.048-0.039-0.087-0.087-0.087h-0.186c-0.048 0-0.087-0.039-0.087-0.087v-0.005c-0-0.048 0.039-0.087 0.086-0.087z"></path>
<path fill="#f5f5f5" d="M10.463 19.864h-0.005c-0.048 0-0.087 0.039-0.087 0.087v0.188c0 0.048-0.039 0.087-0.087 0.087h-0.364c-0.048 0-0.087-0.039-0.087-0.087v-0.188c0-0.048-0.039-0.087-0.087-0.087h-0.719c-0.048 0-0.087 0.039-0.087 0.087v0.371c0 0.048 0.039 0.087 0.087 0.087h0.362c0.048 0 0.087-0.039 0.087-0.087v-0.009c0-0.048-0.039-0.087-0.087-0.087h-0.186c-0.048 0-0.087-0.039-0.087-0.087v-0.009c0-0.048 0.039-0.087 0.087-0.087h0.367c0.048 0 0.087 0.039 0.087 0.087v0.193c0 0.048 0.039 0.087 0.087 0.087h0.719c0.048 0 0.087-0.039 0.087-0.087v-0.371c0-0.048-0.039-0.087-0.087-0.087zM10.106 19.864h-0.007c-0.048 0-0.087 0.039-0.087 0.087v0.005c0 0.048 0.039 0.087 0.087 0.087h0.007c0.048 0 0.087-0.039 0.087-0.087v-0.005c0-0.048-0.039-0.087-0.087-0.087zM10.463 20.592h-2.152c-0.048 0-0.087 0.039-0.087 0.087v0.010c0 0.048 0.039 0.087 0.087 0.087h2.152c0.048 0 0.087-0.039 0.087-0.087v-0.010c0-0.048-0.039-0.087-0.087-0.087zM8.312 19.864h0.362c0.048 0 0.087 0.039 0.087 0.087v0.371c0 0.048-0.039 0.087-0.087 0.087h-0.54c-0.048 0-0.087 0.039-0.087 0.087v0.193c0 0.048-0.039 0.087-0.087 0.087h-0.005c-0.048 0-0.087-0.039-0.087-0.087v-0.559c0-0.048-0.039-0.087-0.087-0.087h-0.005c-0.048 0-0.087 0.039-0.087 0.087v0.559c0 0.048-0.039 0.087-0.087 0.087h-0.005c-0.048 0-0.087-0.039-0.087-0.087v-0.559c0-0.048-0.039-0.087-0.087-0.087h-0.007c-0.048 0-0.087 0.039-0.087 0.087v0.559c0 0.048-0.039 0.087-0.087 0.087h-0.003c-0.048 0-0.087-0.039-0.087-0.087v-0.737c0-0.048 0.039-0.087 0.087-0.087h0.719c0.048 0 0.087 0.039 0.087 0.087v0.188c0 0.048 0.039 0.087 0.087 0.087h0.36c0.048 0 0.087-0.039 0.087-0.087v-0.009c0-0.048-0.039-0.087-0.087-0.087h-0.181c-0.048 0-0.087-0.039-0.087-0.087v-0.005c-0-0.048 0.039-0.087 0.087-0.087z"></path>
<path fill="#f5f5f5" d="M6.886 19.864h-0.003c-0.048 0-0.087 0.039-0.087 0.087v0.188c0 0.048-0.039 0.087-0.087 0.087h-0.362c-0.048 0-0.087-0.039-0.087-0.087v-0.188c0-0.048-0.039-0.087-0.087-0.087h-0.721c-0.048 0-0.087 0.039-0.087 0.087v0.371c0 0.048 0.039 0.087 0.087 0.087h0.359c0.048 0 0.087-0.039 0.087-0.087v-0.009c0-0.048-0.039-0.087-0.087-0.087h-0.183c-0.048 0-0.087-0.039-0.087-0.087v-0.009c0-0.048 0.039-0.087 0.087-0.087h0.364c0.048 0 0.087 0.039 0.087 0.087v0.193c0 0.048 0.039 0.087 0.087 0.087h0.719c0.048 0 0.087-0.039 0.087-0.087v-0.371c-0-0.048-0.039-0.087-0.087-0.087zM6.529 19.864h-0.005c-0.048 0-0.087 0.039-0.087 0.087v0.005c0 0.048 0.039 0.087 0.087 0.087h0.005c0.048 0 0.087-0.039 0.087-0.087v-0.005c0-0.048-0.039-0.087-0.087-0.087zM6.886 20.592h-2.154c-0.048 0-0.087 0.039-0.087 0.087v0.010c0 0.048 0.039 0.087 0.087 0.087h2.154c0.048 0 0.087-0.039 0.087-0.087v-0.010c0-0.048-0.039-0.087-0.087-0.087zM4.732 19.864h0.367c0.048 0 0.087 0.039 0.087 0.087v0.371c0 0.048-0.039 0.087-0.087 0.087h-0.54c-0.048 0-0.087 0.039-0.087 0.087v0.193c0 0.048-0.039 0.087-0.087 0.087h-0.007c-0.048 0-0.087-0.039-0.087-0.087v-0.559c0-0.048-0.039-0.087-0.087-0.087h-0.005c-0.048 0-0.087 0.039-0.087 0.087v0.559c0 0.048-0.039 0.087-0.087 0.087h-0.003c-0.048 0-0.087-0.039-0.087-0.087v-0.559c0-0.048-0.039-0.087-0.087-0.087h-0.007c-0.048 0-0.087 0.039-0.087 0.087v0.559c0 0.048-0.039 0.087-0.087 0.087h-0.005c-0.048 0-0.087-0.039-0.087-0.087v-0.737c0-0.048 0.039-0.087 0.087-0.087h0.721c0.048 0 0.087 0.039 0.087 0.087v0.188c0 0.048 0.039 0.087 0.087 0.087h0.362c0.048 0 0.087-0.039 0.087-0.087v-0.009c0-0.048-0.039-0.087-0.087-0.087h-0.188c-0.048 0-0.087-0.039-0.087-0.087v-0.005c-0-0.048 0.039-0.087 0.087-0.087z"></path>
<path fill="#f5f5f5" d="M3.312 19.864h-0.005c-0.048 0-0.087 0.039-0.087 0.087v0.188c0 0.048-0.039 0.087-0.087 0.087h-0.362c-0.048 0-0.087-0.039-0.087-0.087v-0.188c0-0.048-0.039-0.087-0.087-0.087h-0.721c-0.048 0-0.087 0.039-0.087 0.087v0.371c0 0.048 0.039 0.087 0.087 0.087h0.36c0.048 0 0.087-0.039 0.087-0.087v-0.009c0-0.048-0.039-0.087-0.087-0.087h-0.183c-0.048 0-0.087-0.039-0.087-0.087v-0.009c0-0.048 0.039-0.087 0.087-0.087h0.367c0.048 0 0.087 0.039 0.087 0.087v0.193c0 0.048 0.039 0.087 0.087 0.087h0.719c0.048 0 0.087-0.039 0.087-0.087v-0.371c0-0.048-0.039-0.087-0.087-0.087zM2.955 19.864h-0.005c-0.048 0-0.087 0.039-0.087 0.087v0.005c0 0.048 0.039 0.087 0.087 0.087h0.005c0.048 0 0.087-0.039 0.087-0.087v-0.005c0-0.048-0.039-0.087-0.087-0.087zM3.312 20.592h-2.149c-0.048 0-0.087 0.039-0.087 0.087v0.010c0 0.048 0.039 0.087 0.087 0.087h2.149c0.048 0 0.087-0.039 0.087-0.087v-0.010c0-0.048-0.039-0.087-0.087-0.087zM1.162 19.864h0.362c0.048 0 0.087 0.039 0.087 0.087v0.371c0 0.048-0.039 0.087-0.087 0.087h-0.545c-0.048 0-0.087 0.039-0.087 0.087v0.193c0 0.048-0.039 0.087-0.087 0.087h-0c-0.048 0-0.087-0.039-0.087-0.087v-0.559c0-0.048-0.039-0.087-0.087-0.087h-0.010c-0.048 0-0.087 0.039-0.087 0.087v0.559c0 0.048-0.039 0.087-0.087 0.087h-0c-0.048 0-0.087-0.039-0.087-0.087v-0.559c0-0.048-0.039-0.087-0.087-0.087h-0.005c-0.048 0-0.087 0.039-0.087 0.087v0.559c0 0.048-0.039 0.087-0.087 0.087h-0.009c-0.048 0-0.087-0.039-0.087-0.087v-0.737c0-0.048 0.039-0.087 0.087-0.087h0.719c0.048 0 0.087 0.039 0.087 0.087v0.188c0 0.048 0.039 0.087 0.087 0.087h0.367c0.048 0 0.087-0.039 0.087-0.087v-0.009c0-0.048-0.039-0.087-0.087-0.087h-0.183c-0.048 0-0.087-0.039-0.087-0.087v-0.005c-0-0.048 0.039-0.087 0.087-0.087z"></path>
<path fill="#f5f5f5" d="M31.913 19.31h-1.435c-0.048 0-0.087 0.039-0.087 0.087v0.193c0 0.048 0.039 0.087 0.087 0.087h1.435c0.048 0 0.087-0.039 0.087-0.087v-0.193c0-0.048-0.039-0.087-0.087-0.087zM30.124 19.31h-1.433c-0.048 0-0.087 0.039-0.087 0.087v0.193c0 0.048 0.039 0.087 0.087 0.087h1.433c0.048 0 0.087-0.039 0.087-0.087v-0.193c0-0.048-0.039-0.087-0.087-0.087z"></path>
<path fill="#f5f5f5" d="M28.336 19.31h-1.433c-0.048 0-0.087 0.039-0.087 0.087v0.193c0 0.048 0.039 0.087 0.087 0.087h1.433c0.048 0 0.087-0.039 0.087-0.087v-0.193c-0-0.048-0.039-0.087-0.087-0.087zM26.551 19.31h-1.438c-0.048 0-0.087 0.039-0.087 0.087v0.193c0 0.048 0.039 0.087 0.087 0.087h1.438c0.048 0 0.087-0.039 0.087-0.087v-0.193c0-0.048-0.039-0.087-0.087-0.087z"></path>
<path fill="#f5f5f5" d="M24.762 19.31h-1.435c-0.048 0-0.087 0.039-0.087 0.087v0.193c0 0.048 0.039 0.087 0.087 0.087h1.435c0.048 0 0.087-0.039 0.087-0.087v-0.193c0-0.048-0.039-0.087-0.087-0.087zM22.974 19.31h-1.435c-0.048 0-0.087 0.039-0.087 0.087v0.193c0 0.048 0.039 0.087 0.087 0.087h1.435c0.048 0 0.087-0.039 0.087-0.087v-0.193c0-0.048-0.039-0.087-0.087-0.087z"></path>
<path fill="#f5f5f5" d="M21.187 19.31h-1.435c-0.048 0-0.087 0.039-0.087 0.087v0.193c0 0.048 0.039 0.087 0.087 0.087h1.435c0.048 0 0.087-0.039 0.087-0.087v-0.193c-0-0.048-0.039-0.087-0.087-0.087zM19.402 19.31h-1.438c-0.048 0-0.087 0.039-0.087 0.087v0.193c0 0.048 0.039 0.087 0.087 0.087h1.438c0.048 0 0.087-0.039 0.087-0.087v-0.193c0-0.048-0.039-0.087-0.087-0.087z"></path>
<path fill="#f5f5f5" d="M17.612 19.31h-1.435c-0.048 0-0.087 0.039-0.087 0.087v0.193c0 0.048 0.039 0.087 0.087 0.087h1.435c0.048 0 0.087-0.039 0.087-0.087v-0.193c-0-0.048-0.039-0.087-0.087-0.087zM15.825 19.31h-1.435c-0.048 0-0.087 0.039-0.087 0.087v0.193c0 0.048 0.039 0.087 0.087 0.087h1.435c0.048 0 0.087-0.039 0.087-0.087v-0.193c0-0.048-0.039-0.087-0.087-0.087z"></path>
<path fill="#f5f5f5" d="M14.038 19.31h-1.435c-0.048 0-0.087 0.039-0.087 0.087v0.193c0 0.048 0.039 0.087 0.087 0.087h1.435c0.048 0 0.087-0.039 0.087-0.087v-0.193c0-0.048-0.039-0.087-0.087-0.087zM12.248 19.31h-1.433c-0.048 0-0.087 0.039-0.087 0.087v0.193c0 0.048 0.039 0.087 0.087 0.087h1.433c0.048 0 0.087-0.039 0.087-0.087v-0.193c0-0.048-0.039-0.087-0.087-0.087z"></path>
<path fill="#f5f5f5" d="M10.463 19.31h-1.435c-0.048 0-0.087 0.039-0.087 0.087v0.193c0 0.048 0.039 0.087 0.087 0.087h1.435c0.048 0 0.087-0.039 0.087-0.087v-0.193c0-0.048-0.039-0.087-0.087-0.087zM8.673 19.31h-1.433c-0.048 0-0.087 0.039-0.087 0.087v0.193c0 0.048 0.039 0.087 0.087 0.087h1.433c0.048 0 0.087-0.039 0.087-0.087v-0.193c-0-0.048-0.039-0.087-0.087-0.087z"></path>
<path fill="#f5f5f5" d="M6.886 19.31h-1.433c-0.048 0-0.087 0.039-0.087 0.087v0.193c0 0.048 0.039 0.087 0.087 0.087h1.433c0.048 0 0.087-0.039 0.087-0.087v-0.193c0-0.048-0.039-0.087-0.087-0.087zM5.099 19.31h-1.435c-0.048 0-0.087 0.039-0.087 0.087v0.193c0 0.048 0.039 0.087 0.087 0.087h1.435c0.048 0 0.087-0.039 0.087-0.087v-0.193c0-0.048-0.039-0.087-0.087-0.087z"></path>
<path fill="#f5f5f5" d="M3.312 19.31h-1.435c-0.048 0-0.087 0.039-0.087 0.087v0.193c0 0.048 0.039 0.087 0.087 0.087h1.435c0.048 0 0.087-0.039 0.087-0.087v-0.193c0-0.048-0.039-0.087-0.087-0.087zM1.524 19.31h-1.438c-0.048 0-0.087 0.039-0.087 0.087v0.193c0 0.048 0.039 0.087 0.087 0.087h1.438c0.048 0 0.087-0.039 0.087-0.087v-0.193c0-0.048-0.039-0.087-0.087-0.087z"></path>
<path fill="#ff4b55" d="M15.544 13.392c0.164 0.044 0.338-0.004 0.458-0.127 0.181 0.183 0.478 0.188 0.666 0.009 0.122-0.118 0.172-0.297 0.129-0.458-0.159 0.258-0.495 0.341-0.753 0.179-0.013-0.009-0.031-0.018-0.041-0.026-0.242 0.179-0.585 0.131-0.768-0.109-0.007-0.013-0.020-0.031-0.028-0.044-0.066 0.253 0.087 0.515 0.338 0.576z"></path>
<path fill="#ff4b55" d="M16.56 18.491c0.587-0.322 1.076-0.829 1.345-1.498 0.457-1.146 0.169-2.439-0.705-3.277-0.030-0.029-0.076 0.010-0.054 0.045 0.862 1.406 0.523 3.255-0.812 4.267l0.064-4.085c0.001-0.055-0.024-0.108-0.067-0.143l-0.217-0.175c-0.067-0.054-0.162-0.053-0.228 0.001l-0.214 0.175c-0.043 0.035-0.067 0.087-0.066 0.143l0.062 4.088c-1.335-1.012-1.675-2.862-0.814-4.27 0.022-0.036-0.024-0.074-0.054-0.045-0.873 0.839-1.162 2.132-0.705 3.277 0.268 0.668 0.758 1.176 1.345 1.498-0.373 0.128-0.766 0.196-1.163 0.184-0.042-0.001-0.050 0.058-0.010 0.070 0.504 0.153 1.023 0.164 1.511 0.054l0.191 0.371c0.013 0.026 0.050 0.026 0.063 0l0.193-0.371c0.488 0.109 1.006 0.098 1.511-0.055 0.040-0.012 0.032-0.071-0.010-0.070-0.397 0.012-0.791-0.056-1.165-0.184z"></path>
<path fill="#ff4b55" d="M18.948 14.693c-0.3-0.561-0.799-0.986-1.393-1.194-0.037-0.013-0.066 0.036-0.036 0.061 1.31 1.079 1.573 3.002 0.56 4.394-0.052 0.070-0.109 0.144-0.164 0.205 1.244-0.668 1.705-2.222 1.032-3.466z"></path>
<path fill="#ff4b55" d="M13.922 17.953c-1.013-1.392-0.753-3.314 0.557-4.394 0.030-0.025 0.001-0.074-0.036-0.061-0.593 0.208-1.088 0.633-1.39 1.194-0.677 1.244-0.212 2.798 1.034 3.466-0.059-0.061-0.116-0.135-0.166-0.205z"></path>
</svg>
