<svg xmlns="http://www.w3.org/2000/svg" width="32" height="32" version="1.1" viewBox="0 0 32 32"><title>isle-of-man</title><path fill="#ff4b55" d="M29.603 26.483h-27.207c-1.324 0-2.397-1.073-2.397-2.397v-16.172c0-1.324 1.073-2.397 2.397-2.397h27.207c1.324 0 2.397 1.073 2.397 2.397v16.172c0 1.324-1.073 2.396-2.397 2.396z"/><path fill="#ffe15a" d="M16.079 16.024l-0.153 0.088c-0.265-0.381-0.25-1.314-0.25-1.324 0.003-0.028-0.014-0.053-0.039-0.064l-1.145-0.501 0.007-0.118c0.597 0.069 1.288 0.347 1.297 0.351 0.024 0.015 0.053 0.011 0.074-0.006l0.951-0.793 0.205 0.183c-0.296 0.364-1.017 0.867-1.027 0.872-0.025 0.011-0.039 0.038-0.037 0.065l0.117 1.246z"/><path fill="#ffe15a" d="M20.235 10.377c0.023 0.012 0.051 0.010 0.073-0.006l0.248-0.184-0.079 0.229c-0.009 0.026-0.001 0.055 0.019 0.074l0.117 0.104c-0.035 0.059-0.049 0.131-0.050 0.206l-0.173 0.088c-0.015 0.008-0.026 0.020-0.033 0.035l-0.129 0.313-0.071-0.259c-0.009-0.034-0.042-0.055-0.076-0.050l-0.312 0.043 0.253-0.287c0.014-0.015 0.020-0.036 0.017-0.056l-0.056-0.379 0.252 0.128z"/><path fill="#ffe15a" d="M17.41 20.596c-0.022 0.015-0.033 0.040-0.030 0.066l0.040 0.306-0.162-0.18c-0.018-0.020-0.048-0.028-0.074-0.019l-0.148 0.052c-0.034-0.059-0.091-0.106-0.156-0.144l0.007-0.194c0.001-0.017-0.005-0.033-0.015-0.046l-0.211-0.265 0.261 0.064c0.034 0.009 0.068-0.010 0.081-0.042l0.114-0.293 0.128 0.36c0.007 0.019 0.022 0.034 0.041 0.042l0.358 0.134-0.235 0.158z"/><path fill="#ffe15a" d="M9.824 13.412c-0.003-0.026-0.021-0.048-0.046-0.056l-0.292-0.101 0.234-0.065c0.027-0.007 0.046-0.030 0.050-0.058l0.020-0.155c0.068-0.005 0.135-0.034 0.198-0.075l0.171 0.093c0.014 0.008 0.031 0.010 0.047 0.007l0.331-0.070-0.174 0.205c-0.023 0.027-0.022 0.065 0.001 0.091l0.211 0.233-0.38-0.047c-0.020-0.002-0.041 0.004-0.056 0.018l-0.28 0.261-0.037-0.281z"/><path fill="#f5f5f5" d="M15.9 22.79c-0.169 0.34-0.534 0.622-0.625 0.639-0.017 0.003-0.030-0.003-0.044-0.017-0.041-0.047-0.061-0.174-0.005-0.343 0.005-0.017 0.011-0.039 0.019-0.064l0.655-0.216z"/><path fill="#f5f5f5" d="M16.022 22.439c-0.022 0.066-0.041 0.133-0.055 0.183l-0.675 0.224c0.019-0.061 0.039-0.127 0.058-0.199l0.672-0.207z"/><path fill="#ffe15a" d="M16.171 22.060c-0.033 0.075-0.064 0.147-0.091 0.216l-0.686 0.21c0.019-0.075 0.041-0.152 0.061-0.23l0.716-0.196z"/><path fill="#f5f5f5" d="M16.306 21.786c-0.019 0.036-0.039 0.072-0.058 0.111l-0.755 0.205c0.033-0.13 0.061-0.257 0.083-0.368l0.73 0.052z"/><path fill="#f5f5f5" d="M16.519 21.499c-0.044 0.041-0.086 0.094-0.127 0.155l-0.794-0.058c0.011-0.072 0.019-0.136 0.019-0.183 0-0.036-0.003-0.069-0.005-0.105 0.030 0.003 0.064 0.003 0.091 0.003 0.199 0 0.34-0.036 0.442-0.088 0.113 0.166 0.26 0.241 0.373 0.277z"/><path fill="#f5f5f5" d="M16.68 21.385c-0.050-0.006-0.271-0.028-0.42-0.243 0.075-0.064 0.111-0.133 0.127-0.18 0.083-0.232-0.495-0.595-0.849-0.788-0.166-0.091-0.296-0.271-0.412-0.478 0.014 0.003 0.025 0.003 0.039 0.003 0.177 0 0.318-0.083 0.393-0.147 0.066 0.111 0.127 0.213 0.182 0.301 0.252 0.426 0.368 0.619 0.636 0.807 0.008 0.006 0.019 0.011 0.030 0.011 0.13 0.017 0.506 0.099 0.528 0.265 0.030 0.227-0.052 0.371-0.254 0.448z"/><path fill="#f5f5f5" d="M16.257 20.915c-0.030 0.088-0.158 0.288-0.661 0.254-0.044-0.288-0.171-0.492-0.373-0.586-0.263-0.124-1.244-0.827-1.692-1.244 0.088-0.282 0.321-0.512 0.65-0.633 0.047-0.019 0.088-0.036 0.124-0.055 0.088 0.072 0.169 0.152 0.235 0.243 0.102 0.144 0.191 0.326 0.285 0.52 0.174 0.354 0.354 0.722 0.647 0.882 0.542 0.299 0.81 0.556 0.785 0.619z"/><path fill="#f5f5f5" d="M15.482 19.433c-0.053 0.053-0.227 0.171-0.437 0.111-0.033-0.064-0.064-0.127-0.097-0.191-0.097-0.199-0.188-0.387-0.299-0.539-0.064-0.091-0.144-0.171-0.229-0.243 0.124-0.108 0.144-0.224 0.149-0.323 0.218 0.188 0.423 0.423 0.611 0.713 0.119 0.18 0.216 0.334 0.301 0.473z"/><path fill="#f5f5f5" d="M14.44 18.145c-0.003 0.022-0.005 0.047-0.005 0.072-0.005 0.094-0.014 0.185-0.124 0.268-0.232-0.166-0.501-0.279-0.73-0.354 0.105-0.108 0.174-0.216 0.207-0.321 0 0 0 0 0.003 0 0.227 0.064 0.445 0.177 0.65 0.335z"/><path fill="#f5f5f5" d="M14.175 18.557c-0.014 0.006-0.025 0.014-0.041 0.019-0.346 0.127-0.6 0.362-0.713 0.653-0.136-0.136-0.232-0.257-0.31-0.354-0.086-0.111-0.158-0.196-0.246-0.257 0.249-0.127 0.448-0.254 0.6-0.379 0.003 0 0.003 0 0.005 0 0.216 0.066 0.478 0.166 0.705 0.318z"/><path fill="#f5f5f5" d="M13.334 18.164c-0.144 0.113-0.346 0.241-0.63 0.379-0.066-0.017-0.133-0.030-0.188-0.041-0.136-0.025-0.224-0.044-0.293-0.122-0.041-0.044-0.122-0.169-0.199-0.326 0.011 0.006 0.022 0.011 0.033 0.014 0.080 0.019 0.194-0.017 0.335-0.066 0.174-0.058 0.387-0.13 0.581-0.105 0.174 0.022 0.221 0.091 0.277 0.169 0.025 0.033 0.050 0.069 0.086 0.1z"/><path fill="#ffe15a" d="M13.663 17.749c-0.022 0.086-0.083 0.194-0.221 0.323-0.033-0.022-0.055-0.053-0.080-0.088-0.061-0.086-0.138-0.194-0.371-0.224-0.224-0.030-0.456 0.047-0.644 0.111-0.105 0.036-0.216 0.075-0.26 0.064-0.047-0.011-0.108-0.086-0.111-0.16-0.003-0.086 0.075-0.124 0.138-0.144 0.144-0.044 0.318-0.011 0.489 0.019 0.174 0.033 0.34 0.064 0.473 0.011 0.091-0.036 0.196-0.149 0.323-0.313 0.088 0.019 0.163 0.050 0.207 0.113 0.064 0.091 0.080 0.188 0.055 0.288z"/><path fill="#f5f5f5" d="M13.24 17.329c-0.086 0.105-0.16 0.183-0.216 0.205-0.094 0.039-0.241 0.011-0.395-0.019-0.177-0.033-0.379-0.069-0.553-0.017-0.105 0.030-0.163 0.083-0.196 0.133-0.030-0.152-0.030-0.299 0.039-0.415 0.069-0.122 0.16-0.224 0.254-0.326 0.124 0.017 0.216 0.041 0.531 0.318 0.108 0.094 0.282 0.105 0.451 0.113 0.028 0.003 0.058 0.006 0.086 0.008z"/><path fill="#f5f5f5" d="M15.809 16.187c-0.31 0.205-1.69 1.112-1.977 1.23-0.014 0.006-0.025 0.017-0.033 0.028-0.008 0.014-0.014 0.025-0.022 0.039-0.014-0.036-0.033-0.069-0.055-0.102-0.055-0.080-0.138-0.124-0.229-0.152 0.041-0.053 0.083-0.108 0.127-0.169 0.199-0.274 0.429-0.581 0.691-0.854 0.451-0.47 1.053-0.78 1.255-0.874 0.030 0.293 0.097 0.639 0.243 0.854z"/><path fill="#f5f5f5" d="M15.552 15.186c-0.144 0.064-0.827 0.387-1.341 0.924-0.271 0.282-0.512 0.606-0.702 0.868-0.058 0.077-0.113 0.152-0.166 0.221-0.061-0.006-0.122-0.011-0.18-0.014-0.152-0.011-0.296-0.019-0.368-0.083-0.265-0.232-0.39-0.301-0.509-0.332 0.011-0.011 0.019-0.022 0.030-0.033 0.174-0.177 0.357-0.362 0.501-0.619 0.249-0.445 1.081-1.416 1.623-1.767l1.098 0.481c0 0.066 0.003 0.196 0.014 0.354z"/><path fill="#f5f5f5" d="M8.537 11.081c-0.229-0.303-0.318-0.755-0.292-0.845 0.005-0.016 0.016-0.026 0.035-0.032 0.061-0.016 0.183 0.023 0.309 0.148 0.012 0.012 0.030 0.027 0.048 0.046l-0.1 0.683z"/><path fill="#f5f5f5" d="M8.796 11.347c-0.049-0.049-0.1-0.096-0.139-0.131l0.101-0.704c0.046 0.044 0.097 0.091 0.152 0.141l-0.115 0.694z"/><path fill="#ffe15a" d="M9.069 11.65c-0.052-0.063-0.103-0.122-0.152-0.178l0.118-0.707c0.058 0.051 0.117 0.105 0.178 0.157l-0.145 0.728z"/><path fill="#f5f5f5" d="M9.253 11.893c-0.024-0.033-0.047-0.067-0.073-0.101l0.154-0.767c0.101 0.088 0.203 0.169 0.292 0.239l-0.373 0.63z"/><path fill="#f5f5f5" d="M9.415 12.212c-0.017-0.058-0.046-0.119-0.082-0.183l0.407-0.684c0.059 0.042 0.113 0.078 0.155 0.099 0.032 0.016 0.063 0.028 0.097 0.042-0.016 0.026-0.031 0.056-0.043 0.080-0.089 0.178-0.12 0.32-0.119 0.435-0.199 0.027-0.331 0.125-0.414 0.21z"/><path fill="#f5f5f5" d="M9.445 12.406c0.027-0.042 0.146-0.23 0.405-0.267 0.024 0.095 0.069 0.158 0.104 0.194 0.171 0.178 0.753-0.177 1.084-0.407 0.156-0.108 0.375-0.144 0.612-0.155-0.009 0.011-0.014 0.021-0.020 0.033-0.079 0.158-0.068 0.322-0.044 0.417-0.129 0.010-0.247 0.019-0.351 0.029-0.493 0.035-0.719 0.052-1.007 0.208-0.009 0.005-0.019 0.012-0.023 0.022-0.073 0.109-0.315 0.408-0.473 0.354-0.216-0.074-0.308-0.213-0.287-0.428z"/><path fill="#f5f5f5" d="M10.055 12.238c-0.066-0.067-0.187-0.27 0.068-0.705 0.277 0.089 0.517 0.067 0.691-0.072 0.229-0.179 1.296-0.744 1.869-0.958 0.213 0.205 0.314 0.516 0.276 0.864-0.004 0.051-0.007 0.095-0.006 0.136-0.104 0.047-0.211 0.083-0.323 0.101-0.174 0.027-0.377 0.025-0.592 0.023-0.395-0.002-0.804-0.006-1.078 0.185-0.509 0.351-0.859 0.476-0.905 0.426z"/><path fill="#f5f5f5" d="M11.726 12.208c-0.024-0.070-0.052-0.279 0.096-0.44 0.072-0.001 0.142-0 0.214-0.001 0.221 0.002 0.43 0.005 0.616-0.026 0.11-0.016 0.218-0.052 0.32-0.097 0.041 0.159 0.136 0.229 0.223 0.278-0.266 0.111-0.568 0.189-0.911 0.228-0.214 0.026-0.396 0.043-0.558 0.058z"/><path fill="#f5f5f5" d="M13.345 11.851c-0.019-0.012-0.040-0.026-0.062-0.037-0.082-0.047-0.16-0.095-0.184-0.231 0.252-0.134 0.473-0.323 0.643-0.495 0.050 0.142 0.115 0.252 0.194 0.329 0 0 0 0-0.001 0.002-0.158 0.174-0.357 0.319-0.59 0.432z"/><path fill="#f5f5f5" d="M13.095 11.429c0.001-0.015-0.001-0.028 0.001-0.046 0.041-0.366-0.056-0.699-0.265-0.93 0.182-0.061 0.334-0.093 0.455-0.119 0.137-0.027 0.246-0.053 0.34-0.105 0.003 0.279 0.027 0.514 0.071 0.706-0.001 0.002-0.001 0.002-0.002 0.005-0.156 0.163-0.362 0.354-0.6 0.489z"/><path fill="#f5f5f5" d="M13.822 10.853c-0.037-0.179-0.061-0.417-0.057-0.733 0.044-0.052 0.087-0.105 0.121-0.15 0.083-0.11 0.14-0.181 0.24-0.208 0.058-0.017 0.205-0.033 0.381-0.032-0.010 0.007-0.020 0.015-0.027 0.024-0.053 0.063-0.072 0.181-0.090 0.329-0.026 0.182-0.057 0.404-0.165 0.566-0.098 0.146-0.181 0.157-0.274 0.172-0.041 0.007-0.084 0.014-0.127 0.032z"/><path fill="#ffe15a" d="M14.046 11.332c-0.067-0.058-0.136-0.161-0.191-0.342 0.035-0.020 0.072-0.026 0.115-0.032 0.104-0.016 0.235-0.037 0.366-0.231 0.127-0.187 0.162-0.429 0.189-0.626 0.015-0.11 0.030-0.226 0.059-0.261 0.031-0.037 0.125-0.058 0.193-0.027 0.078 0.036 0.078 0.122 0.067 0.188-0.025 0.148-0.132 0.289-0.236 0.429-0.107 0.141-0.209 0.276-0.221 0.418-0.009 0.098 0.046 0.242 0.135 0.429-0.057 0.070-0.117 0.124-0.194 0.135-0.11 0.016-0.204-0.012-0.282-0.079z"/><path fill="#f5f5f5" d="M14.611 11.142c-0.056-0.124-0.092-0.225-0.087-0.284 0.007-0.101 0.098-0.22 0.194-0.345 0.109-0.143 0.231-0.308 0.262-0.487 0.020-0.108-0.001-0.183-0.031-0.235 0.15 0.041 0.281 0.106 0.354 0.22 0.078 0.116 0.129 0.244 0.178 0.373-0.070 0.104-0.133 0.174-0.522 0.333-0.132 0.055-0.22 0.205-0.303 0.353-0.015 0.024-0.031 0.050-0.046 0.073z"/><path fill="#f5f5f5" d="M14.485 13.95c-0.045-0.368-0.239-2.008-0.217-2.319 0.001-0.015-0.004-0.030-0.010-0.042-0.009-0.014-0.016-0.023-0.025-0.037 0.038 0.004 0.077 0.001 0.116-0.004 0.097-0.014 0.173-0.068 0.239-0.137 0.028 0.061 0.059 0.122 0.094 0.189 0.156 0.3 0.328 0.643 0.455 1 0.219 0.613 0.227 1.291 0.221 1.514-0.271-0.059-0.585-0.126-0.873-0.164z"/><path fill="#f5f5f5" d="M15.495 14.168c0.007-0.157 0.023-0.913-0.227-1.613-0.131-0.368-0.313-0.728-0.463-1.016-0.043-0.087-0.085-0.169-0.124-0.247 0.032-0.052 0.064-0.104 0.093-0.155 0.078-0.131 0.149-0.256 0.239-0.292 0.326-0.134 0.444-0.214 0.524-0.307 0.005 0.015 0.011 0.027 0.016 0.042 0.081 0.235 0.165 0.481 0.33 0.725 0.287 0.422 0.783 1.6 0.855 2.242l-0.921 0.767c-0.059-0.030-0.177-0.085-0.323-0.146z"/><path fill="#f5f5f5" d="M22.886 10.633c0.379-0.018 0.803 0.165 0.862 0.236 0.011 0.013 0.012 0.028 0.007 0.047-0.021 0.059-0.123 0.138-0.297 0.171-0.017 0.003-0.039 0.009-0.065 0.014l-0.507-0.468z"/><path fill="#f5f5f5" d="M22.52 10.697c0.069-0.013 0.136-0.028 0.186-0.040l0.523 0.481c-0.063 0.013-0.13 0.028-0.202 0.046l-0.508-0.487z"/><path fill="#ffe15a" d="M22.116 10.751c0.081-0.007 0.159-0.015 0.233-0.025l0.517 0.498c-0.075 0.019-0.153 0.037-0.23 0.058l-0.519-0.531z"/><path fill="#f5f5f5" d="M21.811 10.765c0.041-0.001 0.082-0.001 0.125-0.003l0.545 0.561c-0.13 0.034-0.254 0.072-0.362 0.106l-0.308-0.664z"/><path fill="#f5f5f5" d="M21.457 10.719c0.058 0.019 0.124 0.029 0.197 0.036l0.334 0.722c-0.068 0.025-0.128 0.049-0.169 0.072-0.031 0.017-0.059 0.036-0.089 0.056-0.012-0.028-0.028-0.057-0.042-0.081-0.097-0.174-0.197-0.28-0.292-0.344 0.090-0.18 0.084-0.344 0.061-0.461z"/><path fill="#f5f5f5" d="M21.28 10.633c0.019 0.046 0.107 0.25-0.009 0.486-0.092-0.034-0.17-0.032-0.219-0.024-0.243 0.040-0.28 0.721-0.277 1.125 0.001 0.189-0.093 0.39-0.218 0.592-0.004-0.013-0.010-0.023-0.016-0.035-0.086-0.155-0.227-0.238-0.319-0.272 0.064-0.112 0.124-0.215 0.175-0.306 0.25-0.427 0.363-0.622 0.397-0.948 0.001-0.010 0-0.022-0.005-0.032-0.049-0.122-0.159-0.491-0.024-0.591 0.183-0.137 0.349-0.134 0.515 0.005z"/><path fill="#f5f5f5" d="M21.074 11.231c0.092-0.016 0.328-0.002 0.543 0.454-0.23 0.178-0.347 0.389-0.331 0.611 0.019 0.29-0.119 1.489-0.267 2.084-0.29 0.059-0.603-0.032-0.869-0.261-0.040-0.032-0.074-0.060-0.109-0.082 0.020-0.112 0.051-0.221 0.099-0.324 0.076-0.159 0.193-0.325 0.316-0.501 0.225-0.324 0.459-0.66 0.457-0.994-0.002-0.619 0.093-0.978 0.16-0.987z"/><path fill="#f5f5f5" d="M20.154 12.628c0.071 0.020 0.26 0.115 0.309 0.328-0.040 0.060-0.080 0.117-0.12 0.177-0.127 0.181-0.247 0.352-0.326 0.523-0.049 0.1-0.080 0.209-0.101 0.319-0.155-0.056-0.266-0.017-0.355 0.027 0.058-0.282 0.165-0.575 0.327-0.881 0.099-0.191 0.188-0.351 0.267-0.493z"/><path fill="#f5f5f5" d="M19.533 14.164c0.021-0.008 0.044-0.018 0.066-0.030 0.085-0.041 0.169-0.078 0.295-0.021-0.032 0.284-0.001 0.573 0.045 0.81-0.145-0.040-0.273-0.048-0.381-0.026 0 0 0 0-0.001-0.002-0.054-0.229-0.061-0.475-0.023-0.731z"/><path fill="#f5f5f5" d="M20.022 14.197c0.012 0.009 0.024 0.015 0.037 0.027 0.279 0.241 0.608 0.349 0.917 0.307-0.053 0.184-0.112 0.328-0.159 0.443-0.055 0.129-0.095 0.233-0.105 0.34-0.232-0.156-0.44-0.268-0.622-0.341-0.001-0.002-0.001-0.002-0.003-0.005-0.047-0.221-0.087-0.499-0.064-0.771z"/><path fill="#f5f5f5" d="M20.087 15.122c0.169 0.071 0.378 0.185 0.637 0.367 0.018 0.066 0.038 0.131 0.055 0.185 0.044 0.131 0.070 0.217 0.036 0.315-0.019 0.058-0.088 0.188-0.189 0.332-0.001-0.012-0.001-0.025-0.004-0.036-0.022-0.079-0.108-0.161-0.22-0.26-0.135-0.124-0.302-0.275-0.374-0.457-0.065-0.163-0.028-0.238 0.013-0.324 0.017-0.038 0.036-0.077 0.046-0.123z"/><path fill="#ffe15a" d="M19.564 15.036c0.086-0.022 0.209-0.021 0.39 0.036-0.003 0.040-0.019 0.074-0.038 0.113-0.045 0.095-0.102 0.215-0.016 0.433 0.082 0.211 0.263 0.376 0.409 0.51 0.082 0.074 0.17 0.152 0.182 0.196 0.013 0.047-0.023 0.136-0.087 0.175-0.074 0.044-0.145-0.005-0.193-0.051-0.108-0.104-0.164-0.273-0.221-0.437-0.055-0.168-0.109-0.328-0.22-0.419-0.076-0.062-0.226-0.099-0.43-0.131-0.026-0.087-0.036-0.167-0.002-0.236 0.049-0.1 0.125-0.162 0.225-0.188z"/><path fill="#f5f5f5" d="M19.402 15.61c0.133 0.024 0.237 0.052 0.284 0.089 0.079 0.063 0.126 0.205 0.175 0.355 0.057 0.171 0.123 0.365 0.254 0.492 0.078 0.077 0.152 0.102 0.211 0.107-0.118 0.1-0.246 0.172-0.381 0.167-0.14-0.001-0.274-0.032-0.409-0.064-0.046-0.117-0.068-0.209 0.020-0.619 0.030-0.14-0.045-0.298-0.12-0.449-0.011-0.025-0.023-0.053-0.034-0.079z"/><path fill="#f5f5f5" d="M17.157 13.918c0.329 0.171 1.792 0.938 2.035 1.131 0.012 0.009 0.027 0.014 0.040 0.016 0.016 0.001 0.029 0 0.045 0.001-0.025 0.030-0.044 0.063-0.063 0.098-0.043 0.087-0.042 0.181-0.022 0.274-0.066-0.011-0.135-0.020-0.209-0.029-0.336-0.041-0.716-0.093-1.083-0.19-0.63-0.166-1.193-0.543-1.373-0.674 0.199-0.178 0.462-0.408 0.629-0.627z"/><path fill="#f5f5f5" d="M16.407 14.629c0.125 0.095 0.74 0.535 1.458 0.724 0.378 0.1 0.778 0.153 1.1 0.193 0.096 0.013 0.188 0.025 0.274 0.038 0.025 0.056 0.049 0.112 0.075 0.164 0.064 0.138 0.127 0.268 0.106 0.362-0.074 0.345-0.074 0.487-0.043 0.606-0.015-0.004-0.029-0.006-0.044-0.011-0.239-0.066-0.49-0.136-0.785-0.137-0.51-0.002-1.763-0.258-2.333-0.562l-0.112-1.193c0.058-0.032 0.17-0.098 0.303-0.184z"/><path fill="#464655" d="M23.874 10.812c-0.007-0.012-0.012-0.022-0.020-0.030-0.107-0.13-0.734-0.371-1.178-0.26-0.48 0.121-1.133 0.152-1.295 0.014-0.207-0.184-0.438-0.191-0.666-0.035l-0.092-0.082 0.136-0.396c0.006-0.019 0.004-0.039-0.005-0.056-0.005-0.008-0.011-0.016-0.020-0.022-0.024-0.018-0.058-0.018-0.082 0l-0.393 0.291-0.334-0.169c-0.023-0.012-0.051-0.010-0.072 0.005s-0.032 0.041-0.028 0.066l0.071 0.479-0.355 0.402c-0.019 0.022-0.023 0.053-0.009 0.078 0.014 0.017 0.042 0.040 0.070 0.036l0.436-0.060 0.108 0.396c0.008 0.029 0.033 0.049 0.062 0.051s0.057-0.015 0.068-0.043l0.197-0.476 0.1-0.051c0.020 0.133 0.062 0.254 0.080 0.301-0.033 0.287-0.144 0.475-0.375 0.879-0.135 0.23-0.3 0.514-0.515 0.925-0.358 0.683-0.473 1.313-0.343 1.873-0.039 0.003-0.099 0.004-0.161 0.001-0.33-0.247-2.034-1.129-2.106-1.168-0.004-0.002-0.281-0.24-0.281-0.24-0.077-0.672-0.578-1.853-0.874-2.294-0.157-0.23-0.238-0.465-0.316-0.692-0.074-0.21-0.141-0.411-0.264-0.598-0.272-0.42-1.124-0.361-1.329-0.309-0.146 0.038-0.225 0.141-0.315 0.26-0.036 0.047-0.077 0.098-0.127 0.156-0.084 0.094-0.201 0.119-0.391 0.157-0.148 0.031-0.335 0.071-0.579 0.156-0.571 0.203-1.709 0.809-1.951 0.997-0.239 0.187-0.586 0.060-0.772-0.033-0.262-0.131-1.054-0.854-1.269-1.067-0.15-0.146-0.319-0.215-0.444-0.182-0.053 0.014-0.095 0.048-0.117 0.093-0.006 0.012-0.011 0.022-0.014 0.033-0.047 0.162 0.109 0.815 0.452 1.119 0.371 0.328 0.766 0.849 0.744 1.061-0.034 0.275 0.090 0.469 0.347 0.569l-0.016 0.122-0.404 0.111c-0.019 0.005-0.035 0.019-0.043 0.036-0.004 0.009-0.007 0.018-0.007 0.029-0.001 0.030 0.018 0.058 0.047 0.068l0.462 0.16 0.049 0.371c0.003 0.026 0.021 0.047 0.045 0.056s0.052 0.003 0.070-0.014l0.355-0.33 0.532 0.065c0.029 0.004 0.057-0.011 0.070-0.037 0.006-0.021 0.009-0.057-0.010-0.078l-0.296-0.326 0.266-0.313c0.020-0.023 0.022-0.055 0.007-0.080s-0.045-0.038-0.074-0.032l-0.504 0.107-0.098-0.054c0.098-0.092 0.174-0.194 0.203-0.236 0.256-0.135 0.474-0.15 0.937-0.187 0.266-0.019 0.594-0.043 1.054-0.098 0.765-0.091 1.35-0.352 1.738-0.776 0.025 0.031 0.059 0.079 0.091 0.132-0.017 0.412 0.219 2.316 0.227 2.398 0.001 0.004-0.004 0.206-0.004 0.206-0.567 0.371-1.395 1.341-1.657 1.802-0.136 0.243-0.31 0.42-0.478 0.592-0.155 0.16-0.304 0.31-0.418 0.503-0.254 0.431 0.18 1.167 0.318 1.327 0.1 0.113 0.227 0.138 0.373 0.166 0.058 0.011 0.122 0.025 0.196 0.044 0.122 0.033 0.196 0.127 0.315 0.279 0.094 0.119 0.213 0.268 0.398 0.448 0.437 0.42 1.488 1.167 1.764 1.3 0.274 0.13 0.315 0.498 0.315 0.705 0 0.293-0.293 1.325-0.387 1.612-0.064 0.199-0.050 0.382 0.036 0.478 0.036 0.041 0.086 0.064 0.136 0.064 0.014 0 0.025 0 0.036-0.003 0.166-0.030 0.68-0.462 0.799-0.904 0.127-0.478 0.418-1.065 0.617-1.139 0.261-0.092 0.379-0.29 0.354-0.565l0.116-0.041 0.28 0.312c0.014 0.015 0.032 0.023 0.051 0.023 0.010 0 0.020-0.002 0.029-0.006 0.027-0.013 0.044-0.042 0.040-0.072l-0.064-0.485 0.31-0.209c0.021-0.014 0.033-0.040 0.030-0.065s-0.020-0.047-0.044-0.057l-0.454-0.17-0.179-0.505c-0.010-0.027-0.035-0.046-0.064-0.046-0.021 0.004-0.055 0.017-0.066 0.044l-0.16 0.41-0.399-0.098c-0.030-0.007-0.059 0.005-0.075 0.030s-0.014 0.057 0.004 0.080l0.321 0.403-0.004 0.112c-0.126-0.047-0.252-0.069-0.302-0.077-0.235-0.169-0.346-0.357-0.586-0.755-0.136-0.23-0.304-0.512-0.559-0.899-0.423-0.644-0.918-1.051-1.471-1.208 0.017-0.036 0.044-0.088 0.077-0.141 0.376-0.169 1.974-1.23 2.043-1.275 0.001-0.001 0.001-0.002 0.002-0.003l0.216-0.125c0.599 0.316 1.852 0.569 2.382 0.573 0.279 0 0.518 0.067 0.75 0.131 0.215 0.058 0.418 0.116 0.643 0.121 0.501 0.013 0.933-0.724 1.006-0.922 0.051-0.142 0.011-0.265-0.036-0.407-0.018-0.056-0.037-0.118-0.057-0.193-0.030-0.123 0.016-0.233 0.091-0.411 0.058-0.14 0.131-0.316 0.198-0.566 0.155-0.586 0.298-1.867 0.28-2.173-0.019-0.302 0.282-0.517 0.463-0.618 0.256-0.142 1.3-0.387 1.597-0.444 0.205-0.041 0.358-0.142 0.401-0.264 0.019-0.052 0.014-0.106-0.010-0.149zM20.564 10.802l-0.173 0.088c-0.015 0.008-0.026 0.020-0.033 0.035l-0.129 0.313-0.071-0.259c-0.009-0.034-0.042-0.055-0.076-0.050l-0.312 0.043 0.253-0.287c0.014-0.015 0.020-0.036 0.017-0.056l-0.056-0.379 0.252 0.128c0.023 0.012 0.051 0.010 0.073-0.006l0.248-0.184-0.079 0.229c-0.009 0.026-0.001 0.055 0.019 0.074l0.117 0.104c-0.035 0.059-0.048 0.131-0.050 0.206zM20.397 12.199c0.25-0.427 0.363-0.622 0.397-0.948 0.001-0.010 0-0.022-0.005-0.032-0.049-0.122-0.159-0.491-0.024-0.591 0.183-0.137 0.349-0.134 0.515 0.005 0.019 0.046 0.107 0.25-0.009 0.486-0.092-0.034-0.17-0.032-0.219-0.024-0.243 0.040-0.28 0.721-0.277 1.125 0.001 0.189-0.093 0.39-0.218 0.592-0.004-0.013-0.010-0.023-0.016-0.035-0.086-0.155-0.227-0.238-0.319-0.272 0.064-0.112 0.124-0.214 0.175-0.306zM19.887 13.121c0.099-0.191 0.188-0.351 0.267-0.493 0.071 0.020 0.26 0.115 0.309 0.328-0.040 0.060-0.080 0.117-0.12 0.177-0.127 0.181-0.247 0.352-0.327 0.523-0.049 0.1-0.080 0.209-0.101 0.319-0.155-0.056-0.266-0.017-0.355 0.027 0.058-0.282 0.165-0.575 0.327-0.881zM19.533 14.164c0.021-0.008 0.044-0.018 0.066-0.030 0.085-0.041 0.169-0.078 0.295-0.021-0.032 0.284-0.001 0.573 0.045 0.81-0.145-0.040-0.273-0.048-0.381-0.026 0 0 0 0-0.001-0.002-0.054-0.229-0.061-0.475-0.023-0.731zM19.233 15.065c0.016 0.001 0.029 0 0.045 0.001-0.025 0.030-0.044 0.063-0.063 0.098-0.043 0.087-0.042 0.181-0.022 0.274-0.066-0.011-0.135-0.020-0.209-0.029-0.336-0.041-0.716-0.093-1.083-0.19-0.63-0.166-1.193-0.543-1.373-0.674 0.173-0.165 0.424-0.359 0.629-0.627 0.329 0.171 1.792 0.938 2.035 1.131 0.012 0.009 0.027 0.014 0.040 0.016zM16.079 16.024l-0.153 0.088c-0.265-0.381-0.25-1.314-0.25-1.324 0.003-0.028-0.014-0.053-0.039-0.064l-1.145-0.501 0.007-0.118c0.597 0.069 1.288 0.347 1.297 0.351 0.024 0.015 0.053 0.011 0.074-0.006l0.951-0.793 0.205 0.183c-0.296 0.364-1.017 0.867-1.027 0.872-0.025 0.011-0.039 0.038-0.037 0.065l0.117 1.246zM15.537 10.538c0.005 0.015 0.011 0.027 0.016 0.042 0.081 0.235 0.165 0.481 0.33 0.725 0.287 0.422 0.783 1.6 0.855 2.242l-0.921 0.767c-0.059-0.030-0.177-0.085-0.323-0.146 0.007-0.157 0.023-0.913-0.227-1.613-0.131-0.368-0.313-0.728-0.463-1.016-0.043-0.087-0.085-0.169-0.124-0.247 0.032-0.052 0.064-0.104 0.093-0.155 0.078-0.131 0.149-0.256 0.239-0.292 0.326-0.133 0.444-0.214 0.524-0.307zM15.303 10.010c0.078 0.116 0.129 0.244 0.178 0.373-0.070 0.104-0.133 0.174-0.522 0.333-0.132 0.055-0.22 0.205-0.303 0.353-0.015 0.024-0.031 0.050-0.046 0.073-0.056-0.124-0.092-0.225-0.087-0.284 0.007-0.101 0.098-0.22 0.194-0.345 0.109-0.143 0.231-0.308 0.262-0.487 0.020-0.108-0.001-0.183-0.031-0.235 0.15 0.041 0.281 0.106 0.354 0.22zM13.886 9.97c0.083-0.11 0.14-0.181 0.24-0.208 0.058-0.017 0.205-0.033 0.381-0.032-0.010 0.007-0.020 0.015-0.027 0.024-0.053 0.063-0.072 0.181-0.090 0.329-0.026 0.182-0.057 0.404-0.165 0.566-0.098 0.146-0.181 0.157-0.274 0.172-0.041 0.007-0.084 0.014-0.127 0.032-0.037-0.179-0.061-0.417-0.057-0.733 0.044-0.052 0.087-0.105 0.121-0.15zM13.286 10.335c0.137-0.027 0.246-0.053 0.34-0.105 0.003 0.279 0.027 0.514 0.071 0.706-0.001 0.002-0.001 0.002-0.002 0.005-0.156 0.163-0.362 0.354-0.6 0.489 0.001-0.015-0.001-0.028 0.001-0.046 0.041-0.366-0.056-0.699-0.265-0.93 0.182-0.061 0.334-0.093 0.455-0.119zM10.813 11.461c0.229-0.179 1.296-0.744 1.869-0.958 0.213 0.205 0.314 0.515 0.276 0.864-0.004 0.051-0.007 0.095-0.006 0.136-0.104 0.047-0.211 0.083-0.323 0.101-0.174 0.027-0.377 0.025-0.592 0.023-0.395-0.002-0.804-0.006-1.078 0.185-0.509 0.351-0.859 0.476-0.905 0.426-0.066-0.067-0.187-0.27 0.068-0.705 0.277 0.089 0.517 0.067 0.691-0.072zM8.537 11.081c-0.229-0.303-0.318-0.755-0.292-0.845 0.005-0.016 0.016-0.026 0.035-0.032 0.061-0.016 0.183 0.023 0.309 0.148 0.012 0.012 0.030 0.027 0.048 0.046l-0.1 0.683zM8.796 11.347c-0.050-0.049-0.1-0.096-0.139-0.131l0.101-0.704c0.046 0.044 0.097 0.091 0.152 0.141l-0.115 0.694zM8.916 11.472l0.118-0.707c0.058 0.051 0.117 0.105 0.178 0.157l-0.144 0.728c-0.052-0.063-0.103-0.122-0.152-0.178zM9.253 11.893c-0.024-0.033-0.047-0.067-0.073-0.101l0.154-0.767c0.101 0.088 0.203 0.169 0.292 0.239l-0.373 0.63zM9.333 12.029l0.407-0.684c0.059 0.042 0.113 0.078 0.155 0.099 0.032 0.016 0.063 0.028 0.097 0.042-0.016 0.026-0.031 0.056-0.043 0.080-0.089 0.178-0.12 0.32-0.119 0.435-0.199 0.027-0.331 0.125-0.414 0.21-0.017-0.058-0.046-0.119-0.082-0.183zM10.159 12.995c0.014 0.008 0.031 0.010 0.047 0.007l0.331-0.070-0.174 0.205c-0.023 0.027-0.022 0.065 0.001 0.091l0.211 0.233-0.38-0.047c-0.020-0.002-0.041 0.004-0.055 0.018l-0.28 0.261-0.037-0.281c-0.003-0.026-0.021-0.048-0.046-0.056l-0.292-0.101 0.234-0.065c0.027-0.007 0.046-0.030 0.050-0.058l0.020-0.155c0.068-0.005 0.135-0.034 0.198-0.075l0.171 0.093zM11.631 11.805c-0.079 0.158-0.068 0.322-0.044 0.417-0.129 0.010-0.247 0.019-0.351 0.029-0.493 0.035-0.719 0.052-1.007 0.208-0.009 0.005-0.019 0.012-0.023 0.022-0.073 0.109-0.315 0.408-0.473 0.354-0.216-0.074-0.308-0.213-0.287-0.428 0.027-0.042 0.146-0.23 0.405-0.267 0.024 0.095 0.069 0.158 0.104 0.194 0.171 0.178 0.753-0.177 1.084-0.407 0.156-0.108 0.375-0.144 0.612-0.155-0.009 0.011-0.014 0.021-0.020 0.033zM12.284 12.149c-0.214 0.026-0.396 0.043-0.558 0.058-0.024-0.070-0.052-0.279 0.096-0.44 0.072-0.001 0.142-0 0.214-0.001 0.221 0.002 0.43 0.005 0.616-0.026 0.11-0.016 0.218-0.052 0.32-0.097 0.041 0.159 0.136 0.229 0.223 0.278-0.266 0.111-0.568 0.189-0.911 0.228zM13.935 11.419c-0.158 0.174-0.357 0.319-0.59 0.432-0.019-0.012-0.040-0.026-0.062-0.037-0.082-0.047-0.16-0.095-0.184-0.231 0.252-0.134 0.473-0.323 0.643-0.495 0.050 0.142 0.115 0.252 0.194 0.329 0 0 0 0-0.001 0.002zM14.046 11.332c-0.067-0.058-0.136-0.161-0.191-0.342 0.035-0.020 0.072-0.026 0.115-0.032 0.104-0.016 0.235-0.037 0.366-0.231 0.127-0.187 0.162-0.429 0.189-0.626 0.015-0.11 0.030-0.226 0.059-0.261 0.031-0.037 0.125-0.058 0.193-0.027 0.078 0.036 0.078 0.122 0.067 0.188-0.025 0.148-0.132 0.289-0.236 0.429-0.107 0.141-0.209 0.276-0.221 0.418-0.009 0.098 0.046 0.242 0.135 0.429-0.057 0.070-0.117 0.124-0.194 0.135-0.11 0.016-0.204-0.012-0.282-0.079zM14.267 11.632c0.001-0.015-0.004-0.030-0.010-0.042-0.009-0.014-0.016-0.023-0.025-0.037 0.038 0.004 0.077 0.001 0.116-0.004 0.097-0.014 0.173-0.068 0.239-0.137 0.028 0.061 0.059 0.122 0.094 0.189 0.156 0.3 0.328 0.643 0.455 1 0.219 0.613 0.227 1.291 0.221 1.514-0.268-0.058-0.54-0.119-0.873-0.164-0.044-0.368-0.239-2.008-0.217-2.319zM12.316 16.737c0.174-0.177 0.357-0.362 0.501-0.619 0.249-0.445 1.081-1.416 1.623-1.767l1.098 0.481c0 0.066 0.003 0.196 0.014 0.354-0.144 0.064-0.827 0.387-1.341 0.924-0.271 0.282-0.512 0.606-0.702 0.868-0.058 0.077-0.113 0.152-0.166 0.221-0.061-0.006-0.122-0.011-0.18-0.014-0.152-0.011-0.296-0.019-0.368-0.083-0.265-0.232-0.39-0.301-0.509-0.332 0.011-0.011 0.019-0.022 0.030-0.033zM11.879 17.63c-0.030-0.152-0.030-0.299 0.039-0.415 0.069-0.122 0.16-0.224 0.254-0.326 0.124 0.017 0.216 0.041 0.531 0.318 0.108 0.094 0.282 0.105 0.451 0.113 0.028 0.003 0.058 0.006 0.086 0.008-0.086 0.105-0.16 0.183-0.216 0.205-0.094 0.039-0.241 0.011-0.395-0.019-0.177-0.033-0.379-0.069-0.553-0.017-0.105 0.030-0.163 0.083-0.196 0.133zM12.114 17.63c0.144-0.044 0.318-0.011 0.489 0.019 0.174 0.033 0.34 0.064 0.473 0.011 0.091-0.036 0.196-0.149 0.323-0.313 0.088 0.019 0.163 0.050 0.207 0.113 0.064 0.091 0.080 0.188 0.055 0.288-0.022 0.086-0.083 0.194-0.221 0.323-0.033-0.022-0.055-0.053-0.080-0.088-0.061-0.086-0.138-0.194-0.371-0.224-0.224-0.030-0.456 0.047-0.644 0.111-0.105 0.036-0.216 0.075-0.26 0.064-0.047-0.011-0.108-0.086-0.111-0.16-0.003-0.086 0.075-0.124 0.138-0.144zM12.703 18.543c-0.066-0.017-0.133-0.030-0.188-0.041-0.136-0.025-0.224-0.044-0.293-0.122-0.041-0.044-0.122-0.169-0.199-0.326 0.011 0.006 0.022 0.011 0.033 0.014 0.080 0.019 0.194-0.017 0.335-0.066 0.174-0.058 0.387-0.13 0.581-0.105 0.174 0.022 0.221 0.091 0.277 0.169 0.025 0.033 0.050 0.069 0.086 0.099-0.144 0.113-0.346 0.241-0.63 0.379zM13.11 18.875c-0.086-0.111-0.158-0.196-0.246-0.257 0.249-0.127 0.448-0.254 0.6-0.379 0.003 0 0.003 0 0.005 0 0.216 0.066 0.478 0.166 0.705 0.318-0.014 0.006-0.025 0.014-0.041 0.019-0.346 0.127-0.6 0.362-0.713 0.653-0.136-0.136-0.232-0.257-0.31-0.354zM15.223 20.584c-0.263-0.124-1.244-0.827-1.692-1.244 0.088-0.282 0.321-0.512 0.65-0.633 0.047-0.019 0.088-0.036 0.124-0.055 0.088 0.072 0.169 0.152 0.235 0.243 0.102 0.144 0.191 0.326 0.285 0.52 0.174 0.354 0.354 0.722 0.647 0.882 0.542 0.299 0.81 0.556 0.785 0.619-0.030 0.088-0.158 0.288-0.661 0.254-0.044-0.287-0.171-0.492-0.373-0.586zM15.275 23.429c-0.017 0.003-0.030-0.003-0.044-0.017-0.041-0.047-0.061-0.174-0.005-0.343 0.005-0.017 0.011-0.039 0.019-0.064l0.655-0.216c-0.169 0.34-0.534 0.622-0.625 0.639zM15.966 22.621l-0.675 0.224c0.019-0.061 0.039-0.127 0.058-0.199l0.672-0.207c-0.022 0.066-0.041 0.133-0.055 0.183zM16.080 22.276l-0.686 0.21c0.019-0.075 0.041-0.152 0.061-0.23l0.716-0.196c-0.033 0.075-0.063 0.147-0.091 0.216zM16.248 21.897l-0.755 0.205c0.033-0.13 0.061-0.257 0.083-0.368l0.73 0.053c-0.019 0.036-0.039 0.072-0.058 0.111zM16.392 21.654l-0.794-0.058c0.011-0.072 0.019-0.136 0.019-0.183 0-0.036-0.003-0.069-0.005-0.105 0.030 0.003 0.064 0.003 0.091 0.003 0.199 0 0.34-0.036 0.442-0.088 0.113 0.166 0.26 0.241 0.373 0.276-0.044 0.042-0.086 0.094-0.127 0.155zM16.661 20.173l0.261 0.064c0.034 0.009 0.068-0.010 0.081-0.042l0.114-0.293 0.128 0.36c0.007 0.019 0.022 0.034 0.041 0.042l0.358 0.134-0.235 0.158c-0.022 0.015-0.033 0.040-0.030 0.066l0.040 0.306-0.162-0.18c-0.018-0.020-0.048-0.028-0.074-0.019l-0.148 0.052c-0.034-0.059-0.091-0.106-0.156-0.144l0.007-0.194c0.001-0.017-0.005-0.033-0.015-0.046l-0.211-0.265zM15.739 19.854c0.252 0.426 0.368 0.619 0.636 0.807 0.008 0.006 0.019 0.011 0.030 0.011 0.13 0.017 0.506 0.099 0.528 0.265 0.030 0.227-0.053 0.371-0.254 0.448-0.050-0.006-0.271-0.028-0.42-0.243 0.075-0.064 0.111-0.133 0.127-0.18 0.083-0.232-0.495-0.595-0.849-0.788-0.166-0.091-0.296-0.271-0.412-0.478 0.014 0.003 0.025 0.003 0.039 0.003 0.177 0 0.318-0.083 0.393-0.147 0.066 0.111 0.127 0.213 0.183 0.301zM15.181 18.96c0.119 0.18 0.216 0.335 0.301 0.473-0.053 0.053-0.227 0.171-0.437 0.111-0.033-0.064-0.064-0.127-0.097-0.191-0.097-0.199-0.188-0.387-0.299-0.539-0.064-0.091-0.144-0.171-0.229-0.243 0.124-0.108 0.144-0.224 0.149-0.323 0.219 0.188 0.423 0.423 0.611 0.713zM14.44 18.145c-0.003 0.022-0.005 0.047-0.005 0.072-0.005 0.094-0.014 0.185-0.124 0.268-0.232-0.166-0.501-0.279-0.73-0.354 0.105-0.108 0.174-0.216 0.207-0.321 0 0 0 0 0.003 0 0.227 0.064 0.445 0.177 0.65 0.335zM13.832 17.417c-0.014 0.006-0.025 0.017-0.033 0.028-0.008 0.014-0.014 0.025-0.022 0.039-0.014-0.036-0.033-0.069-0.055-0.102-0.055-0.080-0.138-0.124-0.229-0.152 0.041-0.053 0.083-0.108 0.127-0.169 0.199-0.274 0.429-0.581 0.691-0.854 0.451-0.47 1.053-0.78 1.255-0.874 0.030 0.293 0.097 0.639 0.243 0.854-0.31 0.205-1.689 1.112-1.977 1.23zM19.42 16.109c-0.074 0.345-0.074 0.487-0.043 0.606-0.015-0.004-0.029-0.006-0.044-0.011-0.239-0.066-0.49-0.136-0.785-0.137-0.51-0.002-1.763-0.258-2.333-0.562l-0.112-1.193c0.058-0.032 0.17-0.098 0.303-0.184 0.125 0.095 0.74 0.535 1.458 0.724 0.378 0.1 0.778 0.153 1.1 0.193 0.096 0.013 0.188 0.025 0.274 0.038 0.025 0.056 0.049 0.112 0.075 0.164 0.064 0.138 0.127 0.268 0.106 0.362zM19.945 16.82c-0.14-0.001-0.274-0.032-0.409-0.064-0.046-0.117-0.068-0.209 0.020-0.619 0.030-0.14-0.045-0.298-0.12-0.449-0.011-0.025-0.023-0.053-0.034-0.079 0.133 0.024 0.237 0.052 0.284 0.089 0.079 0.063 0.126 0.205 0.175 0.355 0.057 0.171 0.123 0.365 0.254 0.492 0.078 0.077 0.152 0.102 0.211 0.107-0.118 0.1-0.246 0.172-0.381 0.167zM20.405 16.498c-0.074 0.044-0.145-0.005-0.193-0.051-0.108-0.104-0.164-0.273-0.221-0.437-0.055-0.168-0.109-0.328-0.22-0.419-0.076-0.062-0.226-0.099-0.43-0.131-0.026-0.087-0.036-0.167-0.002-0.236 0.049-0.1 0.125-0.161 0.225-0.188 0.086-0.022 0.209-0.021 0.39 0.036-0.003 0.040-0.019 0.074-0.038 0.113-0.045 0.095-0.102 0.215-0.016 0.433 0.082 0.211 0.263 0.376 0.409 0.51 0.082 0.074 0.17 0.152 0.182 0.196 0.013 0.046-0.023 0.136-0.087 0.174zM20.815 15.989c-0.019 0.058-0.088 0.188-0.189 0.332-0.001-0.012-0.001-0.025-0.004-0.036-0.022-0.079-0.108-0.161-0.22-0.26-0.135-0.124-0.302-0.275-0.374-0.457-0.065-0.163-0.028-0.238 0.013-0.324 0.017-0.038 0.036-0.077 0.045-0.123 0.169 0.071 0.378 0.185 0.637 0.367 0.018 0.066 0.038 0.131 0.055 0.185 0.044 0.13 0.070 0.217 0.036 0.315zM20.817 14.973c-0.055 0.129-0.095 0.233-0.105 0.34-0.232-0.156-0.44-0.268-0.622-0.341-0.001-0.002-0.001-0.002-0.003-0.005-0.047-0.221-0.087-0.499-0.064-0.771 0.012 0.009 0.024 0.015 0.037 0.027 0.279 0.241 0.608 0.349 0.917 0.307-0.053 0.184-0.112 0.328-0.159 0.442zM21.286 12.297c0.019 0.29-0.119 1.489-0.267 2.083-0.29 0.059-0.603-0.032-0.869-0.261-0.040-0.032-0.074-0.060-0.109-0.082 0.020-0.112 0.051-0.221 0.099-0.324 0.076-0.159 0.193-0.325 0.316-0.501 0.225-0.324 0.459-0.66 0.457-0.994-0.002-0.619 0.093-0.978 0.16-0.987 0.092-0.016 0.328-0.002 0.543 0.454-0.23 0.178-0.347 0.389-0.331 0.611zM21.819 11.548c-0.031 0.017-0.059 0.036-0.089 0.056-0.012-0.028-0.028-0.057-0.042-0.081-0.097-0.174-0.197-0.28-0.292-0.344 0.090-0.18 0.084-0.344 0.061-0.461 0.058 0.019 0.124 0.029 0.197 0.036l0.334 0.722c-0.068 0.025-0.128 0.049-0.169 0.072zM22.12 11.429l-0.308-0.664c0.041-0.001 0.082-0.001 0.125-0.003l0.545 0.561c-0.13 0.034-0.254 0.072-0.362 0.106zM22.636 11.282l-0.519-0.531c0.081-0.007 0.159-0.015 0.233-0.025l0.517 0.498c-0.075 0.019-0.153 0.038-0.23 0.058zM23.028 11.184l-0.507-0.487c0.069-0.013 0.136-0.028 0.186-0.040l0.523 0.481c-0.063 0.012-0.13 0.028-0.202 0.046zM23.458 11.088c-0.017 0.003-0.039 0.009-0.065 0.014l-0.507-0.468c0.379-0.018 0.803 0.165 0.862 0.236 0.011 0.013 0.012 0.028 0.007 0.047-0.021 0.059-0.123 0.138-0.297 0.171z"/></svg>