<!-- Generated by IcoMoon.io -->
<svg version="1.1" xmlns="http://www.w3.org/2000/svg" width="32" height="32" viewBox="0 0 32 32">
<title>jamaica</title>
<path fill="#73af00" d="M29.603 26.483h-27.207c-1.324 0-2.397-1.073-2.397-2.397v-16.172c0-1.324 1.073-2.397 2.397-2.397h27.207c1.324 0 2.397 1.073 2.397 2.397v16.172c0 1.324-1.073 2.396-2.397 2.396z"></path>
<path fill="#ffe15a" d="M31.967 24.482l-12.946-8.482 12.946-8.482c-0.189-1.135-1.175-2.001-2.363-2.001h-0.624l-12.979 8.504-12.979-8.504h-0.624c-1.189 0-2.175 0.866-2.363 2.001l12.946 8.482-12.946 8.482c0.189 1.135 1.175 2.001 2.363 2.001h0.624l12.979-8.504 12.979 8.504h0.624c1.189 0 2.175-0.866 2.363-2.001z"></path>
<path fill="#464655" d="M32 7.496v17.008l-12.979-8.504z"></path>
<path fill="#464655" d="M0 24.504v-17.008l12.979 8.504z"></path>
</svg>
