<!-- Generated by IcoMoon.io -->
<svg version="1.1" xmlns="http://www.w3.org/2000/svg" width="32" height="32" viewBox="0 0 32 32">
<title>jordan</title>
<path fill="#464655" d="M29.603 5.517h-27.207c-0.561 0-1.077 0.193-1.485 0.517l11.948 6.472h19.141v-4.592c0-1.324-1.073-2.397-2.397-2.397z"></path>
<path fill="#73af00" d="M0.911 25.966c0.408 0.323 0.924 0.517 1.485 0.517h27.207c1.324 0 2.397-1.073 2.397-2.397v-4.592h-19.141l-11.948 6.472z"></path>
<path fill="#f5f5f5" d="M18.898 15.777c0.177 0.096 0.177 0.351 0 0.447l-6.039 3.271h19.141v-6.989h-19.141l6.039 3.271z"></path>
<path fill="#ff4b55" d="M18.898 16.223c0.177-0.096 0.177-0.351 0-0.447l-17.987-9.743c-0.555 0.439-0.911 1.118-0.911 1.88v16.172c0 0.762 0.356 1.441 0.911 1.88l17.987-9.743z"></path>
<path fill="#f5f5f5" d="M5.962 14.573l0.328 0.711 0.761-0.187c0.047-0.012 0.087 0.038 0.065 0.081l-0.352 0.7 0.62 0.478c0.039 0.030 0.025 0.091-0.023 0.101l-0.766 0.161 0.013 0.783c0.001 0.049-0.056 0.076-0.094 0.045l-0.604-0.499-0.604 0.499c-0.038 0.031-0.095 0.004-0.094-0.045l0.013-0.783-0.766-0.161c-0.048-0.010-0.062-0.072-0.023-0.101l0.62-0.478-0.352-0.7c-0.022-0.044 0.017-0.093 0.065-0.081l0.761 0.187 0.328-0.711c0.020-0.044 0.083-0.044 0.104 0z"></path>
</svg>
