<!-- Generated by IcoMoon.io -->
<svg version="1.1" xmlns="http://www.w3.org/2000/svg" width="32" height="32" viewBox="0 0 32 32">
<title>kenya</title>
<path fill="#73af00" d="M0 24.086c0 1.324 1.073 2.397 2.397 2.397h27.207c1.324 0 2.397-1.073 2.397-2.397v-4.592h-32v4.592z"></path>
<path fill="#464655" d="M29.603 5.517h-27.207c-1.324 0-2.397 1.073-2.397 2.397v4.592h32v-4.592c0-1.324-1.073-2.397-2.397-2.397z"></path>
<path fill="#c8414b" d="M0 12.506h32v6.988h-32v-6.988z"></path>
<path fill="#f5f5f5" d="M0 12.138h32v1.103h-32v-1.103z"></path>
<path fill="#f5f5f5" d="M0 18.759h32v1.103h-32v-1.103z"></path>
<path fill="#f5f5f5" d="M18.954 11.351c0.444-0.916 0.908-3.038 0.908-3.038s-1.38 1.678-1.824 2.594c-0.093 0.192-0.054 0.413 0.081 0.562l-5.060 10.433 0.344 0.167 5.060-10.433c0.201 0.013 0.399-0.092 0.492-0.284z"></path>
<path fill="#f5f5f5" d="M13.046 11.351c-0.444-0.916-0.908-3.038-0.908-3.038s1.38 1.678 1.824 2.594c0.093 0.192 0.054 0.413-0.081 0.562l5.061 10.433-0.343 0.167-5.061-10.433c-0.201 0.013-0.399-0.092-0.492-0.284z"></path>
<path fill="#c8414b" d="M18.759 16c0 3.047-2.251 5.517-2.759 5.517s-2.759-2.47-2.759-5.517 2.251-5.517 2.759-5.517 2.759 2.47 2.759 5.517z"></path>
<path fill="#464655" d="M18.207 18.662c0.325-0.789 0.552-1.696 0.552-2.662s-0.227-1.872-0.552-2.662c-0.325 0.789-0.552 1.696-0.552 2.662s0.227 1.872 0.552 2.662z"></path>
<path fill="#464655" d="M13.793 13.338c-0.325 0.789-0.552 1.696-0.552 2.662s0.227 1.872 0.552 2.662c0.325-0.789 0.552-1.696 0.552-2.662s-0.227-1.872-0.552-2.662z"></path>
<path fill="#f5f5f5" d="M16.552 16c0 0.457-0.247 0.828-0.552 0.828s-0.552-0.37-0.552-0.828c0-0.457 0.247-0.828 0.552-0.828s0.552 0.37 0.552 0.828z"></path>
<path fill="#f5f5f5" d="M16.083 10.483v4.69c0.15-0.313 0.417-1.238 0.417-2.345s-0.267-2.032-0.417-2.345z"></path>
<path fill="#f5f5f5" d="M15.917 10.483c-0.15 0.313-0.417 1.238-0.417 2.345s0.267 2.032 0.417 2.345v-4.69z"></path>
<path fill="#f5f5f5" d="M16.083 16.828v4.69c0.15-0.313 0.417-1.238 0.417-2.345s-0.267-2.032-0.417-2.345z"></path>
<path fill="#f5f5f5" d="M15.917 16.828c-0.15 0.313-0.417 1.238-0.417 2.345s0.267 2.032 0.417 2.345v-4.69z"></path>
</svg>
