<!-- Generated by IcoMoon.io -->
<svg version="1.1" xmlns="http://www.w3.org/2000/svg" width="32" height="32" viewBox="0 0 32 32">
<title>laos</title>
<path fill="#ff4b55" d="M29.603 5.517h-27.207c-1.324 0-2.397 1.073-2.397 2.397v2.017h32v-2.017c0-1.324-1.073-2.397-2.397-2.397z"></path>
<path fill="#ff4b55" d="M0 24.086c0 1.324 1.073 2.397 2.397 2.397h27.207c1.324 0 2.397-1.073 2.397-2.397v-2.017h-32v2.017z"></path>
<path fill="#41479b" d="M0 9.931h32v12.138h-32v-12.138z"></path>
<path fill="#f5f5f5" d="M20.414 16c0 2.438-1.976 4.414-4.414 4.414s-4.414-1.976-4.414-4.414c0-2.438 1.976-4.414 4.414-4.414s4.414 1.976 4.414 4.414z"></path>
</svg>
