<!-- Generated by IcoMoon.io -->
<svg version="1.1" xmlns="http://www.w3.org/2000/svg" width="32" height="32" viewBox="0 0 32 32">
<title>liberia</title>
<path fill="#ff4b55" d="M29.603 5.517h-27.207c-1.155 0-2.12 0.818-2.346 1.906h31.899c-0.227-1.088-1.191-1.906-2.346-1.906z"></path>
<path fill="#f5f5f5" d="M0.051 7.423c-0.033 0.158-0.051 0.322-0.051 0.491v1.415h32v-1.415c0-0.168-0.017-0.332-0.050-0.491h-31.899z"></path>
<path fill="#ff4b55" d="M0 9.329h32v1.906h-32v-1.906z"></path>
<path fill="#f5f5f5" d="M0 11.235h32v1.906h-32v-1.906z"></path>
<path fill="#ff4b55" d="M0 14.345h0.552l0 0.702h31.448v-1.906h-32z"></path>
<path fill="#f5f5f5" d="M0.552 14.345h-0.552v2.608h32v-1.906h-31.448z"></path>
<path fill="#ff4b55" d="M0 16.953h32v1.906h-32v-1.906z"></path>
<path fill="#f5f5f5" d="M0 18.859h32v1.906h-32v-1.906z"></path>
<path fill="#ff4b55" d="M0 20.765h32v1.906h-32v-1.906z"></path>
<path fill="#f5f5f5" d="M0 24.086c0 0.168 0.018 0.332 0.050 0.491h31.899c0.033-0.158 0.050-0.322 0.050-0.491v-1.415h-32v1.415z"></path>
<path fill="#ff4b55" d="M2.396 26.483h27.208c1.155-0 2.119-0.818 2.346-1.906h-31.899c0.226 1.088 1.19 1.906 2.346 1.906z"></path>
<path fill="#41479b" d="M0.552 15.047h8.276c0.305 0 0.552-0.247 0.552-0.552v-8.426c0-0.305-0.247-0.552-0.551-0.552h-6.431c-1.324 0-2.397 1.073-2.397 2.397v6.582c0 0.305 0.247 0.552 0.552 0.552z"></path>
<path fill="#f5f5f5" d="M4.532 7.984l-0.527 1.579-1.665 0.013c-0.16 0.001-0.226 0.205-0.097 0.3l1.339 0.989-0.502 1.587c-0.048 0.152 0.125 0.278 0.255 0.185l1.355-0.968 1.354 0.968c0.13 0.093 0.303-0.033 0.255-0.185l-0.502-1.587 1.339-0.989c0.128-0.095 0.062-0.299-0.097-0.3l-1.665-0.013-0.527-1.579c-0.051-0.152-0.265-0.152-0.315-0z"></path>
</svg>
