<!-- Generated by IcoMoon.io -->
<svg version="1.1" xmlns="http://www.w3.org/2000/svg" width="32" height="32" viewBox="0 0 32 32">
<title>libya</title>
<path fill="#73af00" d="M0 24.086c0 1.324 1.073 2.397 2.397 2.397h27.207c1.324 0 2.397-1.073 2.397-2.397v-3.121h-32v3.121z"></path>
<path fill="#ff4b55" d="M29.603 5.517h-27.207c-1.324 0-2.397 1.073-2.397 2.397v3.121h32v-3.121c0-1.324-1.073-2.397-2.397-2.397z"></path>
<path fill="#464655" d="M0 11.034h32v9.931h-32v-9.931z"></path>
<path fill="#f5f5f5" d="M19.129 14.214l0.83 1.086 1.297-0.434c0.073-0.024 0.134 0.058 0.091 0.121l-0.776 1.125 0.813 1.099c0.045 0.061-0.013 0.145-0.087 0.124l-1.31-0.391-0.794 1.113c-0.044 0.062-0.142 0.032-0.144-0.044l-0.033-1.367-1.304-0.411c-0.073-0.023-0.075-0.125-0.003-0.151l1.29-0.454-0.012-1.367c-0.001-0.076 0.096-0.11 0.143-0.049z"></path>
<path fill="#f5f5f5" d="M16.875 18.681c-1.479 0-2.68-1.2-2.68-2.681 0-1.478 1.2-2.681 2.68-2.681 0.55 0 1.058 0.169 1.481 0.456 0.065 0.044 0.139-0.041 0.084-0.098-0.632-0.657-1.527-1.058-2.519-1.024-1.705 0.058-3.116 1.425-3.225 3.127-0.125 1.95 1.419 3.57 3.341 3.57 0.947 0 1.798-0.396 2.405-1.029 0.054-0.056-0.020-0.14-0.085-0.096-0.424 0.287-0.932 0.457-1.483 0.457z"></path>
</svg>
