<!-- Generated by IcoMoon.io -->
<svg version="1.1" xmlns="http://www.w3.org/2000/svg" width="32" height="32" viewBox="0 0 32 32">
<title>liechtenstein</title>
<path fill="#41479b" d="M29.603 5.517h-27.207c-1.324 0-2.397 1.073-2.397 2.397v8.086h32v-8.086c0-1.324-1.073-2.397-2.397-2.397z"></path>
<path fill="#ff4b55" d="M0 24.086c0 1.324 1.073 2.397 2.397 2.397h27.207c1.324 0 2.397-1.073 2.397-2.397v-8.086h-32v8.086z"></path>
<path fill="#ffe15a" d="M10.252 11.793c-0.007-0.021-0.023-0.038-0.044-0.047-0.002-0.001-0.045-0.017-0.115-0.037 0.031-0.041 0.052-0.090 0.052-0.145 0-0.047-0.017-0.089-0.040-0.127 0.076-0.043 0.13-0.121 0.13-0.215 0-0.074-0.034-0.139-0.085-0.184 0.062-0.045 0.104-0.115 0.104-0.197 0-0.092-0.052-0.169-0.126-0.212 0.039-0.044 0.065-0.1 0.065-0.164 0-0.11-0.073-0.201-0.172-0.234 0.023-0.037 0.039-0.079 0.039-0.126 0-0.135-0.109-0.245-0.243-0.248 0.006-0.021 0.013-0.041 0.013-0.063 0-0.137-0.112-0.249-0.249-0.249-0.023 0-0.044 0.007-0.065 0.013 0-0.005 0.003-0.010 0.003-0.016 0-0.137-0.112-0.249-0.249-0.249-0.047 0-0.089 0.017-0.127 0.040-0.029-0.105-0.122-0.185-0.236-0.185-0.069 0-0.131 0.028-0.176 0.073-0.042-0.078-0.122-0.133-0.216-0.133-0.086 0-0.159 0.047-0.204 0.114-0.046-0.048-0.109-0.079-0.18-0.079-0.092 0-0.17 0.053-0.213 0.127-0.046-0.051-0.11-0.085-0.184-0.085-0.091 0-0.168 0.052-0.211 0.125-0.042-0.033-0.093-0.056-0.152-0.056-0.105 0-0.194 0.065-0.231 0.157-0.045-0.043-0.105-0.071-0.173-0.071-0.095 0-0.175 0.055-0.217 0.134-0.018-0.011-0.037-0.020-0.058-0.027 0.053-0.078 0.083-0.171 0.083-0.272 0-0.195-0.116-0.363-0.283-0.44l0.070-0.14c0.011-0.022 0.011-0.047 0-0.069l-0.084-0.168c0.006-0.006 0.012-0.011 0.018-0.018l0.168 0.084c0.011 0.005 0.022 0.008 0.034 0.008s0.024-0.003 0.034-0.008l0.41-0.205c0.026-0.013 0.043-0.040 0.043-0.069s-0.016-0.056-0.043-0.069l-0.41-0.205c-0.022-0.011-0.047-0.011-0.069 0l-0.168 0.084c-0.006-0.006-0.011-0.012-0.018-0.018l0.084-0.168c0.011-0.022 0.011-0.047 0-0.069l-0.205-0.41c-0.026-0.052-0.111-0.052-0.137 0l-0.205 0.41c-0.011 0.022-0.011 0.047 0 0.069l0.084 0.168c-0.006 0.006-0.012 0.011-0.018 0.018l-0.168-0.084c-0.022-0.011-0.047-0.011-0.069 0l-0.41 0.205c-0.026 0.013-0.043 0.040-0.043 0.069s0.016 0.056 0.043 0.069l0.41 0.205c0.011 0.005 0.022 0.008 0.034 0.008s0.024-0.003 0.034-0.008l0.168-0.084c0.006 0.006 0.011 0.012 0.018 0.018l-0.084 0.168c-0.011 0.022-0.011 0.047 0 0.069l0.070 0.14c-0.166 0.077-0.283 0.245-0.283 0.44 0 0.099 0.030 0.19 0.080 0.267-0.030 0.006-0.058 0.016-0.083 0.032-0.042-0.078-0.122-0.134-0.217-0.134-0.067 0-0.128 0.027-0.173 0.071-0.037-0.092-0.126-0.157-0.231-0.157-0.058 0-0.109 0.023-0.152 0.056-0.043-0.073-0.12-0.125-0.211-0.125-0.074 0-0.138 0.034-0.184 0.085-0.043-0.075-0.121-0.127-0.213-0.127-0.071 0-0.135 0.031-0.18 0.079-0.045-0.067-0.117-0.114-0.204-0.114-0.095 0-0.174 0.055-0.216 0.133-0.045-0.045-0.107-0.073-0.176-0.073-0.115 0-0.207 0.079-0.236 0.185-0.038-0.023-0.079-0.040-0.127-0.040-0.137 0-0.249 0.112-0.249 0.249 0 0.006 0.003 0.010 0.003 0.016-0.021-0.006-0.042-0.013-0.065-0.013-0.138 0-0.249 0.112-0.249 0.249 0 0.023 0.007 0.043 0.013 0.063-0.135 0.003-0.243 0.113-0.243 0.248 0 0.047 0.017 0.088 0.039 0.126-0.099 0.033-0.172 0.123-0.172 0.234 0 0.063 0.026 0.12 0.065 0.164-0.074 0.043-0.126 0.12-0.126 0.212 0 0.082 0.043 0.152 0.104 0.197-0.051 0.046-0.086 0.11-0.086 0.184 0 0.093 0.054 0.172 0.13 0.215-0.023 0.038-0.040 0.080-0.040 0.127 0 0.058 0.023 0.109 0.057 0.152-0.055 0.016-0.090 0.029-0.091 0.030-0.021 0.008-0.037 0.026-0.044 0.047s-0.005 0.045 0.007 0.064c0.006 0.010 0.61 1.024 0.81 2.024 0.005 0.025 0.023 0.041 0.044 0.051 0.154 0.207 1.484 0.37 3.104 0.37s2.95-0.162 3.104-0.37c0.021-0.010 0.039-0.026 0.044-0.051 0.2-0.999 0.804-2.014 0.81-2.024 0.012-0.019 0.014-0.043 0.007-0.064z"></path>
<path fill="#464655" d="M10.252 11.793c-0.007-0.021-0.023-0.038-0.044-0.047-0.002-0.001-0.045-0.017-0.115-0.037 0.031-0.041 0.052-0.090 0.052-0.145 0-0.047-0.017-0.089-0.040-0.127 0.076-0.043 0.13-0.121 0.13-0.215 0-0.074-0.034-0.139-0.085-0.184 0.062-0.045 0.104-0.115 0.104-0.197 0-0.092-0.052-0.169-0.126-0.212 0.039-0.044 0.065-0.1 0.065-0.164 0-0.11-0.073-0.201-0.172-0.234 0.023-0.037 0.039-0.079 0.039-0.126 0-0.135-0.109-0.245-0.243-0.248 0.006-0.021 0.013-0.041 0.013-0.063 0-0.137-0.112-0.249-0.249-0.249-0.023 0-0.044 0.007-0.065 0.013 0-0.005 0.003-0.010 0.003-0.016 0-0.137-0.112-0.249-0.249-0.249-0.047 0-0.089 0.017-0.127 0.040-0.029-0.105-0.122-0.185-0.236-0.185-0.069 0-0.131 0.028-0.176 0.073-0.042-0.078-0.122-0.133-0.216-0.133-0.086 0-0.159 0.047-0.204 0.114-0.046-0.048-0.109-0.079-0.18-0.079-0.092 0-0.17 0.053-0.213 0.127-0.046-0.051-0.11-0.085-0.184-0.085-0.091 0-0.168 0.052-0.211 0.125-0.042-0.033-0.093-0.056-0.152-0.056-0.105 0-0.194 0.065-0.231 0.157-0.045-0.043-0.105-0.071-0.173-0.071-0.095 0-0.175 0.055-0.217 0.134-0.018-0.011-0.037-0.020-0.058-0.027 0.053-0.078 0.083-0.171 0.083-0.272 0-0.195-0.116-0.363-0.283-0.44l0.070-0.14c0.011-0.022 0.011-0.047 0-0.069l-0.084-0.168c0.006-0.006 0.012-0.011 0.018-0.018l0.168 0.084c0.011 0.005 0.022 0.008 0.034 0.008s0.024-0.003 0.034-0.008l0.41-0.205c0.026-0.013 0.043-0.040 0.043-0.069s-0.016-0.056-0.043-0.069l-0.41-0.205c-0.022-0.011-0.047-0.011-0.069 0l-0.168 0.084c-0.006-0.006-0.011-0.012-0.018-0.018l0.084-0.168c0.011-0.022 0.011-0.047 0-0.069l-0.205-0.41c-0.026-0.052-0.111-0.052-0.137 0l-0.205 0.41c-0.011 0.022-0.011 0.047 0 0.069l0.084 0.168c-0.006 0.006-0.012 0.011-0.018 0.018l-0.168-0.084c-0.022-0.011-0.047-0.011-0.069 0l-0.41 0.205c-0.026 0.013-0.043 0.040-0.043 0.069s0.016 0.056 0.043 0.069l0.41 0.205c0.011 0.005 0.022 0.008 0.034 0.008s0.024-0.003 0.034-0.008l0.168-0.084c0.006 0.006 0.011 0.012 0.018 0.018l-0.084 0.168c-0.011 0.022-0.011 0.047 0 0.069l0.070 0.14c-0.166 0.077-0.283 0.245-0.283 0.44 0 0.099 0.030 0.19 0.080 0.267-0.030 0.006-0.058 0.016-0.083 0.032-0.042-0.078-0.122-0.134-0.217-0.134-0.067 0-0.128 0.027-0.173 0.071-0.037-0.092-0.126-0.157-0.231-0.157-0.058 0-0.109 0.023-0.152 0.056-0.043-0.073-0.12-0.125-0.211-0.125-0.074 0-0.138 0.034-0.184 0.085-0.043-0.075-0.121-0.127-0.213-0.127-0.071 0-0.135 0.031-0.18 0.079-0.045-0.067-0.117-0.114-0.204-0.114-0.095 0-0.174 0.055-0.216 0.133-0.045-0.045-0.107-0.073-0.176-0.073-0.115 0-0.207 0.079-0.236 0.185-0.038-0.023-0.079-0.040-0.127-0.040-0.137 0-0.249 0.112-0.249 0.249 0 0.006 0.003 0.010 0.003 0.016-0.021-0.006-0.042-0.013-0.065-0.013-0.138 0-0.249 0.112-0.249 0.249 0 0.023 0.007 0.043 0.013 0.063-0.135 0.003-0.243 0.113-0.243 0.248 0 0.047 0.017 0.088 0.039 0.126-0.099 0.033-0.172 0.123-0.172 0.234 0 0.063 0.026 0.12 0.065 0.164-0.074 0.043-0.126 0.12-0.126 0.212 0 0.082 0.043 0.152 0.104 0.197-0.051 0.046-0.086 0.11-0.086 0.184 0 0.093 0.054 0.172 0.13 0.215-0.023 0.038-0.040 0.080-0.040 0.127 0 0.058 0.023 0.109 0.057 0.152-0.055 0.016-0.090 0.029-0.091 0.030-0.021 0.008-0.037 0.026-0.044 0.047s-0.005 0.045 0.007 0.064c0.006 0.010 0.61 1.024 0.81 2.024 0.005 0.025 0.023 0.041 0.044 0.051 0.154 0.207 1.484 0.37 3.104 0.37s2.95-0.162 3.104-0.37c0.021-0.010 0.039-0.026 0.044-0.051 0.2-0.999 0.804-2.014 0.81-2.024 0.012-0.019 0.014-0.043 0.007-0.064zM8.080 11.298v-1.202c0.097-0.008 0.192-0.011 0.283-0.008v1.249c-0.085-0.041-0.18-0.053-0.283-0.039zM7.196 9.661c0.002 0.002 0.005 0.003 0.007 0.005-0.003 0.001-0.006 0.001-0.010 0.002 0.001-0.002 0.002-0.005 0.003-0.007zM9.895 11.469c0.053 0 0.096 0.043 0.096 0.096s-0.043 0.096-0.096 0.096-0.096-0.043-0.096-0.096c0-0.053 0.043-0.096 0.096-0.096zM9.986 11.318c-0.053 0-0.096-0.043-0.096-0.096s0.043-0.096 0.096-0.096c0.053 0 0.096 0.043 0.096 0.096s-0.043 0.096-0.096 0.096zM9.909 10.841c0-0.053 0.043-0.096 0.096-0.096s0.096 0.043 0.096 0.096c0 0.053-0.043 0.096-0.096 0.096s-0.096-0.043-0.096-0.096zM7.053 11.793c-0.092-0.349-0.211-0.874-0.261-1.399 0.053-0.018 0.144-0.049 0.261-0.084v1.483zM5.772 10.4c-0.054 0.559-0.186 1.118-0.279 1.463v-1.553c0.132 0.040 0.231 0.074 0.279 0.091zM6.383 9.769c0 0.053-0.043 0.096-0.096 0.096s-0.096-0.043-0.096-0.096c0-0.053 0.043-0.096 0.096-0.096s0.096 0.043 0.096 0.096zM5.35 9.661l-0.001-0c0 0 0-0 0-0s0 0 0 0.001zM2.542 10.745c0.053 0 0.096 0.043 0.096 0.096s-0.043 0.096-0.096 0.096-0.096-0.043-0.096-0.096c-0-0.053 0.043-0.096 0.096-0.096zM2.656 11.223c0 0.053-0.043 0.096-0.096 0.096s-0.096-0.043-0.096-0.096c0-0.053 0.043-0.096 0.096-0.096s0.096 0.043 0.096 0.096zM2.651 11.469c0.053 0 0.096 0.043 0.096 0.096s-0.043 0.096-0.096 0.096-0.096-0.043-0.096-0.096c-0-0.053 0.043-0.096 0.096-0.096zM3.045 10.174c0.15-0.243 0.444-0.533 0.989-0.533 0.532 0 1.283 0.163 1.763 0.282 0 0.104-0.005 0.211-0.012 0.319-0.328-0.114-1.633-0.532-2.187-0.152-0.628 0.431-0.429 1.252-0.312 1.592-0.1-0.027-0.201-0.039-0.298-0.041-0.227-0.455-0.204-1.044 0.057-1.467zM3.478 11.757c-0.054-0.126-0.399-0.994 0.114-1.464v1.532c-0.037-0.026-0.075-0.049-0.114-0.069zM3.746 10.185c0.081-0.042 0.177-0.069 0.283-0.084v1.367c-0.154 0.156-0.223 0.371-0.253 0.533-0.010-0.012-0.021-0.022-0.031-0.034v-1.782h0zM4.183 10.088c0.091-0.003 0.186-0.001 0.283 0.008v1.201c-0.017-0.002-0.034-0.006-0.051-0.006-0.075 0-0.146 0.016-0.211 0.048-0.008 0.004-0.014 0.009-0.022 0.014v-1.265h0v0zM4.62 10.113c0.095 0.013 0.19 0.029 0.283 0.048v1.315c-0.098-0.067-0.192-0.116-0.283-0.146v-1.217zM5.057 10.193c0.101 0.023 0.196 0.047 0.283 0.072v1.626c-0.085-0.107-0.182-0.209-0.283-0.297v-1.401zM5.95 9.962c0.115 0.030 0.207 0.055 0.26 0.070v1.303c-0.208 0.021-0.367 0.127-0.489 0.258 0.108-0.45 0.225-1.065 0.229-1.631zM6.364 10.032c0.052-0.015 0.139-0.039 0.251-0.068 0.004 0.56 0.118 1.167 0.226 1.616-0.12-0.125-0.275-0.225-0.476-0.246v-1.303h-0v-0zM7.206 10.265c0.088-0.024 0.183-0.049 0.283-0.072v1.413c0 0.004 0.002 0.007 0.002 0.010-0.103 0.093-0.201 0.201-0.285 0.312 0 0 0-1.663 0-1.663zM7.643 10.16c0.093-0.019 0.188-0.035 0.283-0.048v1.224c-0.091 0.033-0.186 0.086-0.283 0.157v-1.333zM8.517 10.101c0.107 0.014 0.202 0.042 0.283 0.084v1.799c0 0.004 0.002 0.008 0.002 0.011-0.002 0.002-0.003 0.003-0.005 0.005-0.032-0.171-0.108-0.4-0.281-0.557v-1.342zM8.954 10.293c0.55 0.504 0.112 1.469 0.107 1.479-0.001 0.001-0 0.002-0.001 0.003-0.037 0.021-0.072 0.045-0.106 0.072v-1.554zM8.948 10.090c-0.544-0.373-1.811 0.023-2.169 0.146-0.007-0.105-0.012-0.208-0.011-0.31 0.48-0.12 1.237-0.284 1.773-0.284 0.545 0 0.838 0.29 0.989 0.533 0.261 0.422 0.284 1.011 0.057 1.467-0.107 0.002-0.219 0.017-0.329 0.051 0.117-0.334 0.325-1.167-0.309-1.602zM9.943 10.561c-0.053 0-0.096-0.043-0.096-0.096s0.043-0.096 0.096-0.096c0.053 0 0.096 0.043 0.096 0.096s-0.043 0.096-0.096 0.096zM9.905 10.105c0 0.053-0.043 0.096-0.096 0.096s-0.096-0.043-0.096-0.096c0-0.053 0.043-0.096 0.096-0.096s0.096 0.043 0.096 0.096zM9.675 9.794c0 0.053-0.043 0.096-0.096 0.096s-0.096-0.043-0.096-0.096c0-0.053 0.043-0.096 0.096-0.096s0.096 0.043 0.096 0.096zM9.268 9.446c0.053 0 0.096 0.043 0.096 0.096s-0.043 0.096-0.096 0.096c-0.053 0-0.096-0.043-0.096-0.096s0.043-0.096 0.096-0.096zM8.905 9.301c0.053 0 0.096 0.043 0.096 0.096s-0.043 0.096-0.096 0.096-0.096-0.043-0.096-0.096c-0-0.053 0.043-0.096 0.096-0.096zM8.513 9.242c0.053 0 0.096 0.043 0.096 0.096s-0.043 0.096-0.096 0.096c-0.053 0-0.096-0.043-0.096-0.096s0.043-0.096 0.096-0.096zM8.129 9.276c0.053 0 0.096 0.043 0.096 0.096s-0.043 0.096-0.096 0.096c-0.053 0-0.096-0.043-0.096-0.096s0.043-0.096 0.096-0.096zM7.732 9.318c0.053 0 0.096 0.043 0.096 0.096s-0.043 0.096-0.096 0.096c-0.053 0-0.096-0.043-0.096-0.096s0.043-0.096 0.096-0.096zM7.369 9.387c0.053 0 0.096 0.043 0.096 0.096s-0.043 0.096-0.096 0.096-0.096-0.043-0.096-0.096 0.043-0.096 0.096-0.096zM6.966 9.473c0.053 0 0.096 0.043 0.096 0.096s-0.043 0.096-0.096 0.096-0.096-0.043-0.096-0.096 0.043-0.096 0.096-0.096zM6.62 9.757c-0.053 0-0.096-0.043-0.096-0.096s0.043-0.096 0.096-0.096 0.096 0.043 0.096 0.096-0.043 0.096-0.096 0.096zM6.159 8.131c0-0.071 0.057-0.128 0.128-0.128s0.128 0.057 0.128 0.128-0.057 0.128-0.128 0.128c-0.071 0-0.128-0.057-0.128-0.128zM6.697 8.012l0.238 0.119-0.238 0.119-0.133-0.067c0.003-0.017 0.005-0.034 0.005-0.052s-0.002-0.035-0.005-0.052l0.133-0.067zM6.168 7.721l0.119-0.238 0.119 0.238-0.067 0.133c-0.017-0.003-0.034-0.005-0.052-0.005s-0.035 0.002-0.052 0.005l-0.067-0.133zM5.878 8.25l-0.238-0.119 0.238-0.119 0.133 0.067c-0.003 0.017-0.005 0.034-0.005 0.052s0.002 0.035 0.005 0.052l-0.133 0.067zM6.168 8.54l0.067-0.133c0.017 0.003 0.034 0.005 0.052 0.005s0.035-0.002 0.052-0.005l0.067 0.133-0.067 0.133c-0.017-0.002-0.034-0.005-0.052-0.005s-0.035 0.003-0.052 0.005l-0.067-0.133zM6.287 8.822c0.184 0 0.333 0.149 0.333 0.333s-0.149 0.333-0.333 0.333-0.333-0.149-0.333-0.333c0-0.184 0.149-0.333 0.333-0.333zM5.926 9.566c0.053 0 0.096 0.043 0.096 0.096s-0.043 0.096-0.096 0.096-0.096-0.043-0.096-0.096c-0-0.053 0.043-0.096 0.096-0.096zM5.581 9.473c0.053 0 0.096 0.043 0.096 0.096s-0.043 0.096-0.096 0.096-0.096-0.043-0.096-0.096 0.043-0.096 0.096-0.096zM5.177 9.387c0.053 0 0.096 0.043 0.096 0.096s-0.043 0.096-0.096 0.096-0.096-0.043-0.096-0.096 0.043-0.096 0.096-0.096zM4.815 9.318c0.053 0 0.096 0.043 0.096 0.096s-0.043 0.096-0.096 0.096c-0.053 0-0.096-0.043-0.096-0.096s0.043-0.096 0.096-0.096zM4.418 9.276c0.053 0 0.096 0.043 0.096 0.096s-0.043 0.096-0.096 0.096c-0.053 0-0.096-0.043-0.096-0.096s0.043-0.096 0.096-0.096zM4.034 9.242c0.053 0 0.096 0.043 0.096 0.096s-0.043 0.096-0.096 0.096c-0.053 0-0.096-0.043-0.096-0.096s0.043-0.096 0.096-0.096zM3.641 9.301c0.053 0 0.096 0.043 0.096 0.096s-0.043 0.096-0.096 0.096-0.096-0.043-0.096-0.096c-0-0.053 0.043-0.096 0.096-0.096zM3.278 9.446c0.053 0 0.096 0.043 0.096 0.096s-0.043 0.096-0.096 0.096c-0.053 0-0.096-0.043-0.096-0.096s0.043-0.096 0.096-0.096zM2.967 9.698c0.053 0 0.096 0.043 0.096 0.096s-0.043 0.096-0.096 0.096c-0.053 0-0.096-0.043-0.096-0.096s0.043-0.096 0.096-0.096zM2.736 10.010c0.053 0 0.096 0.043 0.096 0.096s-0.043 0.096-0.096 0.096c-0.053 0-0.096-0.043-0.096-0.096s0.043-0.096 0.096-0.096zM2.603 10.369c0.053 0 0.096 0.043 0.096 0.096s-0.043 0.096-0.096 0.096c-0.053 0-0.096-0.043-0.096-0.096s0.043-0.096 0.096-0.096zM9.299 13.786c-0.354-0.175-1.566-0.304-3.011-0.304s-2.657 0.129-3.011 0.304c-0.183-0.848-0.621-1.669-0.767-1.926 0.243-0.075 0.94-0.223 1.252 0.402 0.016 0.032 0.052 0.049 0.086 0.040s0.059-0.039 0.059-0.075c0-0.006 0.004-0.569 0.367-0.751 0.359-0.179 0.941 0.415 1.126 0.785 0 0 0 0 0 0 0.006 0.012 0.016 0.021 0.028 0.029 0.002 0.002 0.005 0.003 0.007 0.004s0.006 0.004 0.010 0.005c0.008 0.003 0.016 0.004 0.024 0.004 0.001 0 0.003-0.001 0.004-0.001s0.003 0.001 0.004 0.001c0.007-0.001 0.013-0.006 0.019-0.008s0.014-0.004 0.020-0.009c0.007-0.006 0.011-0.014 0.016-0.021 0.003-0.005 0.008-0.008 0.011-0.014 0.002-0.007 0.012-0.037 0.026-0.083 0.067-0.194 0.28-0.683 0.72-0.683 0.374 0 0.583 0.352 0.68 0.577 0.031 0.108 0.053 0.178 0.057 0.189 0.011 0.033 0.041 0.053 0.073 0.053 0.008 0 0.016-0.001 0.024-0.004 0.001-0.001 0.002-0.002 0.004-0.002 0.021-0.005 0.041-0.016 0.051-0.037 0.185-0.37 0.767-0.963 1.126-0.785 0.024 0.012 0.046 0.026 0.067 0.041 0.021 0.018 0.035 0.031 0.059 0.050 0.237 0.231 0.241 0.655 0.241 0.66 0 0.036 0.025 0.067 0.059 0.075s0.070-0.009 0.086-0.040c0.312-0.623 1.008-0.476 1.252-0.402-0.146 0.258-0.584 1.078-0.768 1.926z"></path>
<path fill="#464655" d="M6.59 12.098c-0.010 0.008-0.020 0.017-0.029 0.026-0.074 0.070-0.197 0.015-0.197-0.087v-0.014c0-0.042-0.034-0.077-0.077-0.077s-0.077 0.034-0.077 0.077v0.014c0 0.102-0.122 0.157-0.197 0.087-0.010-0.009-0.019-0.018-0.029-0.026-0.033-0.027-0.081-0.023-0.108 0.010s-0.023 0.081 0.010 0.108c0.21 0.174 0.324 0.585 0.324 0.747v0.083c0 0.042 0.034 0.077 0.077 0.077s0.077-0.034 0.077-0.077v-0.083c0-0.162 0.114-0.573 0.324-0.747 0.033-0.027 0.037-0.076 0.010-0.108s-0.075-0.037-0.108-0.010z"></path>
<path fill="#464655" d="M8.332 12.42c-0.009-0.001-0.018-0.001-0.027-0.001-0.072 0.005-0.142-0.097-0.107-0.176 0.001-0.003 0.003-0.007 0.004-0.010 0.013-0.031 0.003-0.081-0.022-0.113s-0.059-0.031-0.075 0.005c-0.002 0.004-0.003 0.008-0.005 0.012-0.036 0.082-0.141 0.058-0.157-0.063-0.002-0.016-0.004-0.031-0.007-0.047-0.008-0.051-0.037-0.087-0.069-0.072s-0.052 0.071-0.045 0.123c0.044 0.343-0.006 0.706-0.065 0.837-0.010 0.023-0.021 0.046-0.031 0.070-0.016 0.036 0.004 0.064 0.046 0.061s0.086-0.031 0.1-0.062c0.009-0.020 0.018-0.041 0.027-0.061 0.055-0.126 0.286-0.404 0.475-0.39 0.030-0 0.043-0.020 0.031-0.050s-0.044-0.059-0.073-0.062z"></path>
<path fill="#464655" d="M9.471 12.659c-0.008 0-0.015 0-0.023 0.001-0.060 0.010-0.112-0.084-0.077-0.163 0.001-0.003 0.003-0.007 0.004-0.010 0.013-0.031 0.009-0.078-0.010-0.108s-0.047-0.025-0.063 0.011c-0.002 0.004-0.003 0.008-0.005 0.011-0.036 0.082-0.122 0.066-0.127-0.050-0.001-0.015-0.001-0.030-0.002-0.045-0.003-0.049-0.025-0.081-0.052-0.065s-0.049 0.073-0.046 0.122c0.012 0.329-0.057 0.683-0.115 0.815-0.010 0.023-0.021 0.046-0.031 0.070-0.016 0.036-0.001 0.061 0.034 0.055s0.074-0.037 0.088-0.067c0.009-0.020 0.018-0.041 0.027-0.061 0.055-0.126 0.268-0.412 0.425-0.412 0.025-0.002 0.038-0.023 0.030-0.050s-0.033-0.054-0.057-0.055z"></path>
<path fill="#464655" d="M4.816 12.914c-0.058-0.132-0.109-0.494-0.065-0.837 0.008-0.052-0.014-0.109-0.045-0.123s-0.061 0.021-0.069 0.072c-0.002 0.016-0.005 0.031-0.007 0.047-0.016 0.121-0.121 0.146-0.157 0.063-0.002-0.004-0.003-0.008-0.005-0.012-0.016-0.036-0.049-0.038-0.075-0.005s-0.036 0.083-0.022 0.113c0.001 0.003 0.003 0.007 0.004 0.010 0.035 0.079-0.035 0.181-0.107 0.176-0.009-0-0.018 0-0.027 0.001-0.029 0.002-0.061 0.032-0.074 0.062s0.001 0.050 0.031 0.050c0.189-0.014 0.42 0.264 0.475 0.39 0.009 0.020 0.018 0.041 0.027 0.061 0.013 0.031 0.058 0.059 0.1 0.062s0.061-0.025 0.046-0.061c-0.010-0.023-0.020-0.047-0.031-0.070z"></path>
<path fill="#464655" d="M3.617 13.179c-0.058-0.132-0.127-0.486-0.115-0.815 0.002-0.050-0.019-0.107-0.046-0.122s-0.049 0.016-0.052 0.065c-0.001 0.015-0.002 0.030-0.002 0.045-0.005 0.116-0.090 0.132-0.127 0.050-0.002-0.004-0.003-0.008-0.005-0.011-0.016-0.036-0.044-0.040-0.063-0.011s-0.024 0.077-0.010 0.108c0.001 0.003 0.003 0.007 0.004 0.010 0.035 0.079-0.016 0.173-0.077 0.163-0.008-0.001-0.015-0.001-0.022-0.001-0.024 0-0.049 0.027-0.057 0.054s0.004 0.048 0.030 0.050c0.157-0 0.37 0.286 0.425 0.412 0.009 0.020 0.018 0.041 0.027 0.061 0.013 0.031 0.053 0.061 0.088 0.067s0.049-0.019 0.034-0.055c-0.010-0.023-0.020-0.046-0.031-0.070z"></path>
</svg>
