<!-- Generated by IcoMoon.io -->
<svg version="1.1" xmlns="http://www.w3.org/2000/svg" width="32" height="32" viewBox="0 0 32 32">
<title>marshall-island</title>
<path fill="#41479b" d="M29.603 26.483h-27.207c-1.324 0-2.397-1.073-2.397-2.397v-16.172c0-1.324 1.073-2.397 2.397-2.397h27.207c1.324 0 2.397 1.073 2.397 2.397v16.172c0 1.324-1.073 2.396-2.397 2.396z"></path>
<path fill="#f5f5f5" d="M1.032 26.056l30.968-12.814v-3.862l-31.43 16.257c0.135 0.159 0.29 0.3 0.462 0.419z"></path>
<path fill="#ff9b55" d="M31.124 6.061l-30.846 19.146c0.082 0.154 0.18 0.298 0.292 0.43l31.43-16.257v-1.466c0-0.746-0.341-1.413-0.876-1.852z"></path>
<path fill="#f5f5f5" d="M9.119 13.136l3.571-0.446-3.571-0.446 1.81-1.11-2.252 0.551 1.37-1.87-1.87 1.37 0.55-2.252-1.11 1.81-0.446-3.571-0.446 3.571-1.11-1.81 0.551 2.252-1.87-1.37 1.37 1.87-2.252-0.551 1.81 1.11-3.571 0.446 3.571 0.446-1.81 1.11 2.252-0.551-1.37 1.87 1.87-1.37-0.551 2.252 1.11-1.81 0.446 3.571 0.446-3.571 1.11 1.81-0.55-2.252 1.87 1.37-1.37-1.87 2.252 0.551z"></path>
</svg>
