<svg xmlns="http://www.w3.org/2000/svg" width="32" height="32" version="1.1" viewBox="0 0 32 32"><title>myanmar</title><path fill="#ff4b55" d="M0 24.086c0 1.324 1.073 2.397 2.397 2.397h27.207c1.324 0 2.397-1.073 2.397-2.397v-4.592h-32v4.592z"/><path fill="#ffe15a" d="M29.603 5.517h-27.207c-1.324 0-2.397 1.073-2.397 2.397v4.592h32v-4.592c0-1.324-1.073-2.397-2.397-2.397z"/><path fill="#73af00" d="M0 12.506h32v6.988h-32v-6.988z"/><path fill="#f5f5f5" d="M16.314 9.060l1.652 4.954 5.222 0.040c0.319 0.002 0.451 0.409 0.194 0.598l-4.201 3.102 1.575 4.979c0.096 0.304-0.25 0.555-0.509 0.37l-4.248-3.037-4.248 3.037c-0.259 0.185-0.605-0.066-0.509-0.37l1.575-4.979-4.201-3.102c-0.256-0.189-0.124-0.596 0.194-0.598l5.222-0.040 1.652-4.954c0.101-0.302 0.528-0.302 0.629 0z"/></svg>