<svg xmlns="http://www.w3.org/2000/svg" width="32" height="32" version="1.1" viewBox="0 0 32 32"><title>namibia</title><path fill="#41479b" d="M2.397 5.517c-1.324 0-2.397 1.073-2.397 2.397v13.603l24.276-16h-21.879z"/><path fill="#73af00" d="M29.603 26.483c1.324 0 2.397-1.073 2.397-2.397v-13.603l-24.276 16h21.879z"/><path fill="#f5f5f5" d="M29.603 5.517h-5.657l-23.946 15.689v2.88c0 1.324 1.073 2.397 2.397 2.397h5.657l23.946-15.689v-2.88c0-1.324-1.073-2.397-2.397-2.397z"/><path fill="#ff4b55" d="M29.603 5.517h-2.637l-26.966 17.667v0.902c0 1.324 1.073 2.397 2.397 2.397h2.638l26.966-17.667v-0.902c0-1.324-1.073-2.397-2.397-2.397z"/><path fill="#ffe15a" d="M5.638 9.118c0.543 0 1.035 0.22 1.391 0.576l0.195-1.355-1.077 0.848-0.509-1.273-0.509 1.273-1.077-0.848 0.195 1.355c0.356-0.356 0.848-0.576 1.391-0.576z"/><path fill="#ffe15a" d="M4.246 12.477c-0.356-0.356-0.576-0.848-0.576-1.391s0.22-1.035 0.576-1.391l-1.355-0.195 0.848 1.077-1.273 0.509 1.273 0.509-0.848 1.077 1.355-0.195z"/><path fill="#ffe15a" d="M8.81 11.086l-1.273-0.509 0.848-1.077-1.355 0.195c0.356 0.356 0.576 0.848 0.576 1.391s-0.22 1.035-0.576 1.391l1.355 0.195-0.848-1.077 1.273-0.509z"/><path fill="#ffe15a" d="M5.638 13.054c-0.543 0-1.035-0.22-1.391-0.576l-0.195 1.355 1.077-0.848 0.509 1.273 0.509-1.273 1.077 0.848-0.195-1.355c-0.356 0.356-0.848 0.576-1.391 0.576z"/><path fill="#ffe15a" d="M7.245 11.086c0 0.887-0.719 1.607-1.607 1.607s-1.607-0.719-1.607-1.607c0-0.887 0.719-1.607 1.607-1.607s1.607 0.719 1.607 1.607z"/></svg>