<!-- Generated by IcoMoon.io -->
<svg version="1.1" xmlns="http://www.w3.org/2000/svg" width="32" height="32" viewBox="0 0 32 32">
<title>nato</title>
<path fill="#41479b" d="M29.603 26.483h-27.207c-1.324 0-2.397-1.073-2.397-2.397v-16.172c0-1.324 1.073-2.397 2.397-2.397h27.207c1.324 0 2.397 1.073 2.397 2.397v16.172c0 1.324-1.073 2.396-2.397 2.396z"></path>
<path fill="#f5f5f5" d="M22.099 15.865l-1.582-0.352c-0.227-2.12-1.91-3.802-4.030-4.029l-0.352-1.583c-0.028-0.126-0.241-0.126-0.269 0l-0.351 1.579c-2.121 0.227-3.803 1.913-4.031 4.033l-1.582 0.352c-0.063 0.014-0.108 0.070-0.108 0.135s0.045 0.121 0.108 0.135l1.582 0.352c0.227 2.12 1.91 3.804 4.030 4.031l0.351 1.581c0.014 0.063 0.070 0.108 0.135 0.108s0.121-0.045 0.135-0.108l0.352-1.584c2.119-0.227 3.803-1.909 4.030-4.029l1.582-0.352c0.063-0.014 0.108-0.070 0.108-0.135s-0.045-0.121-0.108-0.135zM20.237 15.452l-3.018-0.671-0.67-3.017c1.919 0.248 3.441 1.768 3.689 3.687zM15.451 11.764l-0.671 3.017-3.017 0.671c0.248-1.919 1.769-3.44 3.688-3.688zM14.853 15.048l0.952 0.952h-5.238l4.286-0.952zM11.764 16.549l3.017 0.671 0.671 3.018c-1.919-0.247-3.441-1.77-3.688-3.688zM16 21.433l-0.952-4.286 0.952-0.952v5.238zM16 15.805v-5.238l0.952 4.286-0.952 0.952zM16.549 20.233l0.67-3.014 3.018-0.671c-0.247 1.919-1.769 3.437-3.688 3.685zM17.147 16.952l-0.952-0.952h5.238l-4.286 0.952z"></path>
<path fill="#f5f5f5" d="M8.828 16.138h-7.724c-0.076 0-0.138-0.062-0.138-0.138s0.062-0.138 0.138-0.138h7.724c0.076 0 0.138 0.062 0.138 0.138s-0.062 0.138-0.138 0.138z"></path>
<path fill="#f5f5f5" d="M30.897 16.138h-7.724c-0.076 0-0.138-0.062-0.138-0.138s0.062-0.138 0.138-0.138h7.724c0.076 0 0.138 0.062 0.138 0.138s-0.062 0.138-0.138 0.138z"></path>
<path fill="#f5f5f5" d="M16 8.966c-0.076 0-0.138-0.062-0.138-0.138v-2.207c0-0.076 0.062-0.138 0.138-0.138s0.138 0.062 0.138 0.138v2.207c0 0.076-0.062 0.138-0.138 0.138z"></path>
<path fill="#f5f5f5" d="M16 25.517c-0.076 0-0.138-0.062-0.138-0.138v-2.207c0-0.076 0.062-0.138 0.138-0.138s0.138 0.062 0.138 0.138v2.207c0 0.076-0.062 0.138-0.138 0.138z"></path>
</svg>
