<svg xmlns="http://www.w3.org/2000/svg" width="32" height="32" version="1.1" viewBox="0 0 32 32"><title>nepal</title><path fill="#f5f5f5" d="M29.603 5.517h-27.207c-1.324 0-2.397 1.073-2.397 2.397v16.172c0 1.324 1.073 2.397 2.397 2.397h27.207c1.324 0 2.397-1.073 2.397-2.397v-16.172c0-1.324-1.073-2.397-2.397-2.397z"/><path fill="#41479b" d="M14.345 16l-13.529-9.887c-0.5 0.439-0.816 1.083-0.816 1.8v16.172c0 1.324 1.073 2.397 2.397 2.397h11.948l-9.398-10.483h9.398zM12.739 25.765h-12.021v-18.836l11.431 8.353h-8.808l9.398 10.483z"/><path fill="#ff4b55" d="M4.412 16.479l-1.072-1.196h8.808l-11.431-8.353v18.836h12.021z"/><path fill="#f5f5f5" d="M4.209 18.525l0.442 0.911 0.838-0.569c0.037-0.025 0.087 0.004 0.083 0.048l-0.073 1.010 1.010-0.073c0.045-0.003 0.073 0.046 0.048 0.083l-0.569 0.838 0.911 0.442c0.040 0.020 0.040 0.077 0 0.096l-0.911 0.442 0.569 0.838c0.025 0.037-0.004 0.087-0.048 0.083l-1.010-0.073 0.073 1.010c0.003 0.045-0.046 0.073-0.083 0.048l-0.838-0.569-0.442 0.911c-0.019 0.040-0.077 0.040-0.096 0l-0.442-0.911-0.838 0.569c-0.037 0.025-0.087-0.004-0.083-0.048l0.073-1.010-1.010 0.073c-0.045 0.003-0.073-0.046-0.048-0.083l0.569-0.838-0.911-0.442c-0.040-0.020-0.040-0.077 0-0.096l0.911-0.442-0.569-0.838c-0.025-0.037 0.004-0.087 0.048-0.083l1.010 0.073-0.073-1.010c-0.003-0.045 0.046-0.073 0.083-0.048l0.838 0.569 0.442-0.911c0.019-0.040 0.077-0.040 0.096 0z"/><path fill="#f5f5f5" d="M5.356 13.254l-0.383-0.262 0.338-0.354-0.481-0.088 0.165-0.46-0.475 0.115-0.037-0.488-0.387 0.299-0.232-0.43-0.232 0.43-0.387-0.299-0.037 0.488-0.475-0.115 0.164 0.46-0.481 0.088 0.338 0.354-0.383 0.262c-0.484-0.226-0.909-0.556-1.244-0.964 0.225 1.31 1.363 2.308 2.738 2.308s2.513-0.998 2.738-2.308c-0.335 0.408-0.76 0.738-1.244 0.964z"/></svg>