<!-- Generated by IcoMoon.io -->
<svg version="1.1" xmlns="http://www.w3.org/2000/svg" width="32" height="32" viewBox="0 0 32 32">
<title>new-zealand</title>
<path fill="#41479b" d="M29.603 26.483h-27.207c-1.324 0-2.397-1.073-2.397-2.397v-16.172c0-1.324 1.073-2.397 2.397-2.397h27.207c1.324 0 2.397 1.073 2.397 2.397v16.172c0 1.324-1.073 2.396-2.397 2.396z"></path>
<path fill="#f5f5f5" d="M0.552 16h0.958l5.111-3.348v3.348h2.759v-3.348l5.111 3.348h0.958c0.305 0 0.552-0.247 0.552-0.552v-0.438l-4.385-2.873h4.385v-2.759h-4.385l4.385-2.873v-0.438c0-0.305-0.247-0.552-0.552-0.552h-0.958l-5.111 3.348v-3.348h-2.759v3.348l-4.943-3.239c-0.577 0.181-1.060 0.575-1.357 1.090l4.064 2.663h-4.385v2.759h4.385l-4.385 2.873v0.438c0 0.305 0.247 0.552 0.552 0.552z"></path>
<path fill="#ff4b55" d="M16 9.931h-7.172v-4.414h-1.655v4.414h-7.172v1.655h7.172v4.414h1.655v-4.414h7.172z"></path>
<path fill="#ff4b55" d="M0.514 6.431l4.541 2.948h1.013l-5.156-3.347c-0.148 0.117-0.282 0.251-0.399 0.399z"></path>
<path fill="#ff4b55" d="M10.393 9.379l5.523-3.585c-0.096-0.162-0.265-0.277-0.468-0.277h-0.119l-5.95 3.862h1.013z"></path>
<path fill="#ff4b55" d="M5.592 12.138l-5.513 3.579c0.095 0.166 0.267 0.284 0.472 0.284h0.104l5.95-3.862h-1.013z"></path>
<path fill="#ff4b55" d="M15.991 15.492l-5.167-3.354h-1.013l5.867 3.808c0.176-0.082 0.296-0.252 0.313-0.455z"></path>
<path fill="#ff4b55" d="M24.717 23.007c-0.022 0-0.045-0.007-0.064-0.020l-0.653-0.467-0.653 0.467c-0.019 0.013-0.042 0.020-0.064 0.020s-0.046-0.007-0.065-0.021c-0.038-0.028-0.055-0.078-0.040-0.123l0.242-0.765-0.645-0.476c-0.038-0.029-0.054-0.078-0.040-0.123s0.057-0.076 0.104-0.076l0.803-0.006 0.254-0.761c0.015-0.045 0.057-0.075 0.105-0.075s0.090 0.031 0.105 0.075l0.254 0.761 0.803 0.006c0.048 0.001 0.089 0.031 0.104 0.076s-0.001 0.094-0.040 0.123l-0.645 0.476 0.242 0.765c0.014 0.045-0.002 0.095-0.040 0.123-0.020 0.014-0.043 0.021-0.065 0.021z"></path>
<path fill="#f5f5f5" d="M24 20.69l0.279 0.836 0.881 0.007-0.709 0.524 0.266 0.84-0.717-0.512-0.717 0.513 0.266-0.84-0.709-0.524 0.881-0.007 0.279-0.836zM24 20.469c-0.095 0-0.179 0.061-0.209 0.151l-0.229 0.686-0.724 0.006c-0.095 0.001-0.179 0.062-0.208 0.152s0.002 0.189 0.079 0.246l0.582 0.43-0.218 0.69c-0.029 0.091 0.004 0.189 0.081 0.245 0.039 0.028 0.084 0.042 0.13 0.042s0.090-0.014 0.128-0.041l0.589-0.421 0.589 0.421c0.038 0.027 0.083 0.041 0.128 0.041s0.091-0.014 0.13-0.042c0.077-0.056 0.109-0.155 0.081-0.245l-0.218-0.69 0.582-0.43c0.076-0.056 0.108-0.155 0.079-0.246s-0.113-0.152-0.208-0.152l-0.724-0.006-0.229-0.686c-0.030-0.090-0.115-0.151-0.21-0.151v0z"></path>
<path fill="#ff4b55" d="M24.717 14.112c-0.023 0-0.045-0.007-0.064-0.021l-0.653-0.467-0.653 0.467c-0.019 0.013-0.042 0.021-0.064 0.021s-0.046-0.007-0.065-0.021c-0.038-0.028-0.055-0.078-0.040-0.123l0.242-0.765-0.645-0.477c-0.038-0.029-0.054-0.078-0.040-0.123s0.057-0.076 0.104-0.076l0.803-0.006 0.254-0.761c0.015-0.045 0.057-0.075 0.105-0.075s0.090 0.031 0.105 0.075l0.254 0.761 0.803 0.006c0.047 0.001 0.089 0.031 0.104 0.076s-0.001 0.094-0.040 0.123l-0.645 0.477 0.242 0.765c0.014 0.045-0.002 0.095-0.040 0.123-0.020 0.014-0.043 0.021-0.065 0.021z"></path>
<path fill="#f5f5f5" d="M24 11.795l0.279 0.836 0.881 0.007-0.709 0.524 0.266 0.84-0.717-0.513-0.717 0.513 0.266-0.84-0.709-0.524 0.881-0.007 0.279-0.836zM24 11.574c-0.095 0-0.179 0.061-0.209 0.151l-0.229 0.687-0.724 0.006c-0.095 0.001-0.179 0.062-0.208 0.152s0.002 0.189 0.079 0.246l0.582 0.43-0.218 0.69c-0.029 0.091 0.004 0.189 0.081 0.245 0.039 0.028 0.084 0.042 0.13 0.042s0.090-0.014 0.128-0.041l0.589-0.421 0.589 0.421c0.038 0.027 0.083 0.041 0.128 0.041s0.091-0.014 0.13-0.042c0.077-0.056 0.109-0.155 0.081-0.245l-0.218-0.69 0.582-0.43c0.076-0.056 0.108-0.155 0.079-0.246s-0.113-0.152-0.208-0.152l-0.724-0.006-0.229-0.687c-0.030-0.090-0.115-0.151-0.21-0.151v0z"></path>
<path fill="#ff4b55" d="M28.579 16.871c-0.023 0-0.045-0.007-0.064-0.020l-0.653-0.467-0.653 0.467c-0.019 0.013-0.042 0.020-0.064 0.020s-0.046-0.007-0.065-0.021c-0.038-0.028-0.055-0.078-0.040-0.123l0.242-0.765-0.645-0.477c-0.038-0.029-0.054-0.078-0.040-0.123s0.057-0.076 0.104-0.076l0.803-0.006 0.254-0.761c0.015-0.045 0.057-0.075 0.105-0.075s0.090 0.031 0.105 0.075l0.254 0.761 0.803 0.006c0.047 0.001 0.089 0.031 0.104 0.076s-0.001 0.094-0.040 0.123l-0.645 0.477 0.242 0.765c0.014 0.045-0.002 0.095-0.040 0.123-0.020 0.014-0.043 0.021-0.065 0.021z"></path>
<path fill="#f5f5f5" d="M27.862 14.553l0.279 0.836 0.881 0.007-0.709 0.524 0.266 0.84-0.717-0.513-0.717 0.513 0.266-0.84-0.709-0.524 0.881-0.007 0.279-0.836zM27.862 14.332c-0.095 0-0.179 0.061-0.209 0.151l-0.229 0.687-0.724 0.006c-0.095 0.001-0.179 0.062-0.208 0.152s0.002 0.189 0.079 0.246l0.582 0.43-0.218 0.69c-0.029 0.091 0.004 0.189 0.081 0.245 0.039 0.028 0.084 0.042 0.13 0.042s0.090-0.014 0.128-0.041l0.589-0.421 0.589 0.421c0.038 0.027 0.083 0.041 0.128 0.041s0.091-0.014 0.13-0.042c0.077-0.056 0.109-0.155 0.081-0.245l-0.218-0.69 0.582-0.43c0.076-0.056 0.108-0.155 0.079-0.246s-0.113-0.152-0.208-0.152l-0.724-0.006-0.229-0.687c-0.030-0.090-0.115-0.151-0.21-0.151v0z"></path>
<path fill="#ff4b55" d="M20.855 17.974c-0.023 0-0.045-0.007-0.064-0.020l-0.653-0.467-0.653 0.467c-0.019 0.013-0.042 0.020-0.064 0.020s-0.046-0.007-0.065-0.021c-0.038-0.028-0.055-0.078-0.040-0.123l0.242-0.765-0.645-0.477c-0.038-0.029-0.054-0.078-0.040-0.123s0.057-0.076 0.104-0.076l0.803-0.006 0.254-0.761c0.015-0.045 0.057-0.075 0.105-0.075s0.090 0.031 0.105 0.075l0.254 0.761 0.803 0.006c0.047 0.001 0.089 0.031 0.104 0.076s-0.001 0.094-0.040 0.123l-0.645 0.477 0.242 0.765c0.014 0.045-0.002 0.095-0.040 0.123-0.020 0.014-0.043 0.021-0.065 0.021z"></path>
<path fill="#f5f5f5" d="M20.138 15.657l0.279 0.836 0.881 0.007-0.709 0.524 0.266 0.84-0.717-0.513-0.717 0.513 0.266-0.84-0.709-0.524 0.881-0.007 0.279-0.836zM20.138 15.436c-0.095 0-0.179 0.061-0.209 0.151l-0.229 0.687-0.724 0.006c-0.095 0.001-0.179 0.062-0.208 0.152s0.002 0.189 0.079 0.246l0.582 0.43-0.218 0.69c-0.029 0.091 0.004 0.189 0.081 0.245 0.039 0.028 0.084 0.042 0.13 0.042s0.090-0.014 0.128-0.041l0.589-0.421 0.589 0.421c0.038 0.027 0.083 0.041 0.128 0.041s0.091-0.014 0.13-0.042c0.077-0.056 0.109-0.155 0.081-0.245l-0.218-0.69 0.582-0.43c0.076-0.056 0.108-0.155 0.079-0.246s-0.113-0.152-0.208-0.152l-0.724-0.006-0.229-0.687c-0.030-0.090-0.115-0.151-0.21-0.151v0z"></path>
</svg>
