<!-- Generated by IcoMoon.io -->
<svg version="1.1" xmlns="http://www.w3.org/2000/svg" width="32" height="32" viewBox="0 0 32 32">
<title>norfolk-island</title>
<path fill="#73af00" d="M2.397 5.517c-1.324 0-2.397 1.073-2.397 2.397v16.172c0 1.324 1.073 2.397 2.397 2.397h8.27v-20.966h-8.27z"></path>
<path fill="#f5f5f5" d="M10.667 5.517h10.667v20.966h-10.667v-20.966z"></path>
<path fill="#73af00" d="M29.603 5.517h-8.27v20.965h8.27c1.324 0 2.397-1.073 2.397-2.397v-16.172c0-1.324-1.073-2.397-2.397-2.397z"></path>
<path fill="#73af00" d="M19.685 21.412l-1.712-9.988c-0.065-0.381-0.201-0.747-0.4-1.079l-1.573-2.621-1.573 2.621c-0.199 0.332-0.335 0.698-0.4 1.079l-1.712 9.988c-0.033 0.191 0.114 0.365 0.308 0.365h2.753v2.498h1.249v-2.498h2.753c0.194 0 0.34-0.174 0.308-0.365z"></path>
</svg>
