<!-- Generated by IcoMoon.io -->
<svg version="1.1" xmlns="http://www.w3.org/2000/svg" width="32" height="32" viewBox="0 0 32 32">
<title>north-korea</title>
<path fill="#41479b" d="M0 24.086c0 1.324 1.073 2.397 2.397 2.397h27.207c1.324 0 2.397-1.073 2.397-2.397v-0.362h-32v0.362z"></path>
<path fill="#41479b" d="M29.603 5.517h-27.207c-1.324 0-2.397 1.073-2.397 2.397v0.362h32v-0.362c0-1.324-1.073-2.397-2.397-2.397z"></path>
<path fill="#f5f5f5" d="M0 8.276h32v1.103h-32v-1.103z"></path>
<path fill="#f5f5f5" d="M0 22.621h32v1.103h-32v-1.103z"></path>
<path fill="#ff4b55" d="M0 9.379h32v13.241h-32v-13.241z"></path>
<path fill="#f5f5f5" d="M13.241 16c0 2.438-1.976 4.414-4.414 4.414s-4.414-1.976-4.414-4.414c0-2.438 1.976-4.414 4.414-4.414s4.414 1.976 4.414 4.414z"></path>
<path fill="#ff4b55" d="M8.945 11.982l0.885 2.655 2.799 0.022c0.119 0.001 0.168 0.153 0.073 0.224l-2.251 1.662 0.844 2.668c0.036 0.113-0.093 0.207-0.19 0.138l-2.277-1.627-2.277 1.627c-0.097 0.069-0.226-0.025-0.19-0.138l0.844-2.668-2.251-1.662c-0.096-0.071-0.046-0.223 0.073-0.224l2.799-0.022 0.885-2.655c0.038-0.113 0.197-0.113 0.235 0z"></path>
</svg>
