<!-- Generated by IcoMoon.io -->
<svg version="1.1" xmlns="http://www.w3.org/2000/svg" width="32" height="32" viewBox="0 0 32 32">
<title>northern-marianas-islands</title>
<path fill="#4173cd" d="M29.603 26.483h-27.207c-1.324 0-2.397-1.073-2.397-2.397v-16.172c0-1.324 1.073-2.397 2.397-2.397h27.207c1.324 0 2.397 1.073 2.397 2.397v16.172c0 1.324-1.073 2.396-2.397 2.396z"></path>
<path fill="#f5f5f5" d="M16 24c-4.411 0-8-3.589-8-8s3.589-8 8-8 8 3.589 8 8-3.589 8-8 8zM16 9.655c-3.499 0-6.345 2.846-6.345 6.345s2.846 6.345 6.345 6.345 6.345-2.846 6.345-6.345-2.846-6.345-6.345-6.345z"></path>
<path fill="#ffdc00" d="M16 23.448c-4.107 0-7.448-3.341-7.448-7.448s3.341-7.448 7.448-7.448 7.448 3.341 7.448 7.448-3.341 7.448-7.448 7.448zM16 9.103c-3.803 0-6.897 3.094-6.897 6.897s3.094 6.897 6.897 6.897 6.897-3.094 6.897-6.897-3.094-6.897-6.897-6.897z"></path>
<path fill="#ffdc00" d="M9.379 16c0 0.305-0.247 0.552-0.552 0.552s-0.552-0.247-0.552-0.552c0-0.305 0.247-0.552 0.552-0.552s0.552 0.247 0.552 0.552z"></path>
<path fill="#ffdc00" d="M23.724 16c0 0.305-0.247 0.552-0.552 0.552s-0.552-0.247-0.552-0.552c0-0.305 0.247-0.552 0.552-0.552s0.552 0.247 0.552 0.552z"></path>
<path fill="#ffdc00" d="M16.552 8.828c0 0.305-0.247 0.552-0.552 0.552s-0.552-0.247-0.552-0.552c0-0.305 0.247-0.552 0.552-0.552s0.552 0.247 0.552 0.552z"></path>
<path fill="#ffdc00" d="M11.48 10.928c0 0.305-0.247 0.552-0.552 0.552s-0.552-0.247-0.552-0.552c0-0.305 0.247-0.552 0.552-0.552s0.552 0.247 0.552 0.552z"></path>
<path fill="#ffdc00" d="M21.624 10.928c0 0.305-0.247 0.552-0.552 0.552s-0.552-0.247-0.552-0.552c0-0.305 0.247-0.552 0.552-0.552s0.552 0.247 0.552 0.552z"></path>
<path fill="#ffdc00" d="M23.178 13.255c0 0.305-0.247 0.552-0.552 0.552s-0.552-0.247-0.552-0.552c0-0.305 0.247-0.552 0.552-0.552s0.552 0.247 0.552 0.552z"></path>
<path fill="#ffdc00" d="M13.807 9.374c0 0.305-0.247 0.552-0.552 0.552s-0.552-0.247-0.552-0.552c0-0.305 0.247-0.552 0.552-0.552s0.552 0.247 0.552 0.552z"></path>
<path fill="#ffdc00" d="M9.925 13.255c0 0.305-0.247 0.552-0.552 0.552s-0.552-0.247-0.552-0.552c0-0.305 0.247-0.552 0.552-0.552s0.552 0.247 0.552 0.552z"></path>
<path fill="#ffdc00" d="M19.297 9.374c0 0.305-0.247 0.552-0.552 0.552s-0.552-0.247-0.552-0.552c0-0.305 0.247-0.552 0.552-0.552s0.552 0.247 0.552 0.552z"></path>
<path fill="#ffdc00" d="M23.586 14.601c0 0.305-0.247 0.552-0.552 0.552s-0.552-0.247-0.552-0.552c0-0.305 0.247-0.552 0.552-0.552s0.552 0.247 0.552 0.552z"></path>
<path fill="#ffdc00" d="M15.152 8.966c0 0.305-0.247 0.552-0.552 0.552s-0.552-0.247-0.552-0.552c0-0.305 0.247-0.552 0.552-0.552s0.552 0.247 0.552 0.552z"></path>
<path fill="#ffdc00" d="M10.589 12.015c0 0.305-0.247 0.552-0.552 0.552s-0.552-0.247-0.552-0.552c0-0.305 0.247-0.552 0.552-0.552s0.552 0.247 0.552 0.552z"></path>
<path fill="#ffdc00" d="M20.537 10.037c0 0.305-0.247 0.552-0.552 0.552s-0.552-0.247-0.552-0.552c0-0.305 0.247-0.552 0.552-0.552s0.552 0.247 0.552 0.552z"></path>
<path fill="#ffdc00" d="M22.515 12.015c0 0.305-0.247 0.552-0.552 0.552s-0.552-0.247-0.552-0.552c0-0.305 0.247-0.552 0.552-0.552s0.552 0.247 0.552 0.552z"></path>
<path fill="#ffdc00" d="M12.567 10.037c0 0.305-0.247 0.552-0.552 0.552s-0.552-0.247-0.552-0.552c0-0.305 0.247-0.552 0.552-0.552s0.552 0.247 0.552 0.552z"></path>
<path fill="#ffdc00" d="M9.517 14.601c0 0.305-0.247 0.552-0.552 0.552s-0.552-0.247-0.552-0.552c0-0.305 0.247-0.552 0.552-0.552s0.552 0.247 0.552 0.552z"></path>
<path fill="#ffdc00" d="M17.951 8.966c0 0.305-0.247 0.552-0.552 0.552s-0.552-0.247-0.552-0.552c0-0.305 0.247-0.552 0.552-0.552s0.552 0.247 0.552 0.552z"></path>
<path fill="#ffa000" d="M23.172 16.276c-0.152 0-0.276-0.123-0.276-0.276 0-3.803-3.094-6.897-6.897-6.897s-6.897 3.094-6.897 6.897c0 0.152-0.123 0.276-0.276 0.276s-0.276-0.123-0.276-0.276c0-4.107 3.341-7.448 7.448-7.448s7.448 3.341 7.448 7.448c0 0.152-0.123 0.276-0.276 0.276z"></path>
<path fill="#b4b4b4" d="M17.533 24.276h-3.066c-0.655 0-1.166-0.567-1.097-1.219l0.975-9.264h3.31l0.975 9.264c0.069 0.651-0.442 1.219-1.097 1.219z"></path>
<path fill="#aaa" d="M17.64 13.793h-3.292c-0.145 0-0.267-0.109-0.283-0.253l-0.206-1.894c-0.035-0.326 0.22-0.611 0.549-0.611h3.184c0.328 0 0.584 0.285 0.549 0.611l-0.204 1.881c-0.016 0.151-0.144 0.266-0.297 0.266z"></path>
<path fill="#f5f5f5" d="M16.128 11.677l1.023 2.942 3.114 0.063c0.128 0.003 0.181 0.165 0.079 0.243l-2.482 1.882 0.902 2.982c0.037 0.123-0.101 0.223-0.207 0.15l-2.557-1.779-2.557 1.779c-0.105 0.073-0.244-0.027-0.207-0.15l0.902-2.982-2.482-1.882c-0.102-0.077-0.049-0.24 0.079-0.243l3.114-0.063 1.023-2.942c0.042-0.121 0.214-0.121 0.256 0z"></path>
</svg>
