<!-- Generated by IcoMoon.io -->
<svg version="1.1" xmlns="http://www.w3.org/2000/svg" width="32" height="32" viewBox="0 0 32 32">
<title>northern-cyprus</title>
<path fill="#f5f5f5" d="M29.603 26.483h-27.207c-1.324 0-2.397-1.073-2.397-2.397v-16.172c0-1.324 1.073-2.397 2.397-2.397h27.207c1.324 0 2.397 1.073 2.397 2.397v16.172c0 1.324-1.073 2.396-2.397 2.396z"></path>
<path fill="#ff4b55" d="M0 7.724h32v2.207h-32v-2.207z"></path>
<path fill="#ff4b55" d="M0 22.069h32v2.207h-32v-2.207z"></path>
<path fill="#ff4b55" d="M15.531 14.302l0.777 1.016 1.213-0.406c0.068-0.023 0.125 0.054 0.085 0.113l-0.726 1.053 0.761 1.028c0.043 0.057-0.013 0.136-0.081 0.116l-1.226-0.365-0.742 1.041c-0.041 0.058-0.133 0.030-0.135-0.041l-0.031-1.279-1.22-0.384c-0.068-0.021-0.070-0.117-0.002-0.141l1.206-0.425-0.011-1.279c-0.001-0.072 0.090-0.103 0.134-0.046z"></path>
<path fill="#ff4b55" d="M11.531 19.975c-2.193 0-3.973-1.779-3.973-3.975 0-2.191 1.779-3.975 3.973-3.975 0.816 0 1.569 0.251 2.196 0.676 0.096 0.065 0.206-0.061 0.125-0.145-0.937-0.975-2.264-1.569-3.735-1.519-2.527 0.086-4.619 2.112-4.781 4.636-0.185 2.89 2.104 5.292 4.953 5.292 1.404 0 2.665-0.587 3.566-1.525 0.080-0.083-0.030-0.207-0.125-0.143-0.628 0.425-1.382 0.677-2.199 0.677z"></path>
</svg>
