<!-- Generated by IcoMoon.io -->
<svg version="1.1" xmlns="http://www.w3.org/2000/svg" width="32" height="32" viewBox="0 0 32 32">
<title>pakistan</title>
<path fill="#73af00" d="M29.603 5.517h-21.328v20.965h21.328c1.324 0 2.397-1.073 2.397-2.397v-16.172c0-1.324-1.073-2.397-2.397-2.397z"></path>
<path fill="#f5f5f5" d="M2.397 5.517c-1.324 0-2.397 1.073-2.397 2.397v16.172c0 1.324 1.073 2.397 2.397 2.397h5.879v-20.966h-5.879z"></path>
<path fill="#f5f5f5" d="M25.753 18.887c-2.54 2.262-6.427 2.030-8.685-0.514-2.253-2.539-2.025-6.438 0.514-8.7 0.004-0.003 0.007-0.007 0.011-0.010 0.060-0.053 0.002-0.149-0.073-0.12-2.504 0.975-4.28 3.411-4.28 6.263 0 3.715 3.004 6.724 6.711 6.724 2.564 0 4.786-1.443 5.915-3.561 0.038-0.071-0.051-0.139-0.11-0.086-0.001 0.001-0.002 0.002-0.003 0.003z"></path>
<path fill="#f5f5f5" d="M22.487 10.787l0.883 0.99 1.223-0.514c0.158-0.067 0.31 0.107 0.224 0.255l-0.669 1.145 0.867 1.004c0.112 0.13-0.006 0.328-0.173 0.291l-1.296-0.282-0.687 1.135c-0.089 0.147-0.314 0.096-0.331-0.075l-0.132-1.32-1.291-0.302c-0.167-0.039-0.188-0.269-0.031-0.338l1.214-0.533-0.111-1.322c-0.015-0.171 0.197-0.262 0.311-0.134z"></path>
</svg>
