<!-- Generated by IcoMoon.io -->
<svg version="1.1" xmlns="http://www.w3.org/2000/svg" width="32" height="32" viewBox="0 0 32 32">
<title>panama</title>
<path fill="#f5f5f5" d="M31.448 16h-15.448v9.931c0 0.305-0.247 0.552-0.552 0.552h14.155c1.324 0 2.397-1.073 2.397-2.397v-8.638c0 0.305-0.247 0.552-0.552 0.552z"></path>
<path fill="#f5f5f5" d="M0.552 16h15.448v-9.931c0-0.305 0.247-0.552 0.552-0.552h-14.155c-1.324 0-2.397 1.073-2.397 2.397v8.638c0-0.305 0.247-0.552 0.552-0.552z"></path>
<path fill="#ff4b55" d="M29.603 5.517h-13.052c-0.305 0-0.552 0.247-0.552 0.552v9.931h15.448c0.305 0 0.552-0.247 0.552-0.552v-7.534c0-1.324-1.073-2.397-2.397-2.397z"></path>
<path fill="#4173cd" d="M16 25.931v-9.931h-15.448c-0.305 0-0.552 0.247-0.552 0.552v7.535c0 1.324 1.073 2.397 2.397 2.397h13.052c0.305-0 0.552-0.247 0.552-0.552z"></path>
<path fill="#4173cd" d="M8.213 8.405l0.526 1.577 1.662 0.013c0.215 0.002 0.305 0.276 0.131 0.404l-1.337 0.988 0.501 1.585c0.065 0.205-0.169 0.375-0.344 0.25l-1.353-0.967-1.353 0.967c-0.175 0.125-0.409-0.045-0.344-0.25l0.501-1.585-1.337-0.988c-0.173-0.128-0.084-0.403 0.131-0.404l1.663-0.013 0.526-1.577c0.068-0.204 0.357-0.204 0.425-0z"></path>
<path fill="#ff4b55" d="M24.212 18.888l0.526 1.577 1.663 0.013c0.215 0.002 0.305 0.276 0.131 0.404l-1.337 0.988 0.501 1.585c0.065 0.205-0.169 0.375-0.344 0.25l-1.352-0.967-1.353 0.967c-0.175 0.125-0.409-0.045-0.344-0.25l0.501-1.585-1.337-0.988c-0.173-0.128-0.084-0.403 0.131-0.404l1.663-0.013 0.526-1.577c0.068-0.204 0.357-0.204 0.425-0z"></path>
</svg>
