<svg xmlns="http://www.w3.org/2000/svg" width="32" height="32" version="1.1" viewBox="0 0 32 32"><title>papua-new-guinea</title><path fill="#ff4b55" d="M29.603 26.483h-27.207c-1.324 0-2.397-1.073-2.397-2.397v-16.172c0-1.324 1.073-2.397 2.397-2.397h27.207c1.324 0 2.397 1.073 2.397 2.397v16.172c0 1.324-1.073 2.396-2.397 2.396z"/><path fill="#464655" d="M2.396 26.483h27.208c0.586-0 1.123-0.211 1.54-0.561l-30.288-19.844c-0.523 0.44-0.856 1.099-0.856 1.836v16.172c0 1.323 1.073 2.396 2.396 2.396z"/><path fill="#f5f5f5" d="M3.219 15.643l-0.316 0.947-0.998 0.008c-0.096 0.001-0.135 0.123-0.058 0.18l0.803 0.593-0.301 0.951c-0.029 0.091 0.075 0.167 0.153 0.111l0.812-0.58 0.812 0.58c0.078 0.056 0.182-0.020 0.153-0.111l-0.301-0.951 0.803-0.593c0.077-0.057 0.037-0.179-0.058-0.18l-0.998-0.008-0.316-0.947c-0.030-0.091-0.159-0.091-0.189 0z"/><path fill="#f5f5f5" d="M10.018 15.643l-0.316 0.947-0.998 0.008c-0.096 0.001-0.135 0.123-0.058 0.18l0.803 0.593-0.301 0.951c-0.029 0.091 0.075 0.167 0.153 0.111l0.812-0.58 0.812 0.58c0.078 0.056 0.182-0.020 0.153-0.111l-0.301-0.951 0.803-0.593c0.077-0.057 0.037-0.179-0.058-0.18l-0.998-0.008-0.316-0.947c-0.030-0.091-0.158-0.091-0.189 0z"/><path fill="#f5f5f5" d="M6.618 11.522l-0.316 0.947-0.998 0.008c-0.096 0.001-0.135 0.123-0.058 0.18l0.803 0.593-0.301 0.951c-0.029 0.091 0.075 0.167 0.153 0.111l0.812-0.58 0.812 0.58c0.078 0.056 0.182-0.020 0.153-0.111l-0.301-0.951 0.803-0.593c0.077-0.057 0.037-0.179-0.058-0.18l-0.998-0.008-0.316-0.947c-0.030-0.091-0.158-0.091-0.189 0z"/><path fill="#f5f5f5" d="M6.618 21.656l-0.316 0.947-0.998 0.008c-0.096 0.001-0.135 0.123-0.058 0.18l0.803 0.593-0.301 0.951c-0.029 0.091 0.075 0.167 0.153 0.111l0.812-0.58 0.812 0.58c0.078 0.056 0.182-0.020 0.153-0.111l-0.301-0.951 0.803-0.593c0.077-0.057 0.037-0.179-0.058-0.18l-0.998-0.008-0.316-0.947c-0.030-0.091-0.158-0.091-0.189 0z"/><path fill="#f5f5f5" d="M8.202 19.187l-0.168 0.503-0.531 0.004c-0.051 0-0.072 0.065-0.031 0.096l0.427 0.315-0.16 0.506c-0.015 0.049 0.040 0.089 0.081 0.059l0.432-0.309 0.432 0.309c0.041 0.030 0.097-0.011 0.081-0.059l-0.16-0.506 0.427-0.315c0.041-0.030 0.020-0.095-0.031-0.096l-0.531-0.004-0.168-0.503c-0.016-0.048-0.084-0.048-0.101 0z"/><path fill="#ffe15a" d="M27.348 15.522c-0.081-0.625-0.348-1.243-0.542-1.625 0.096 0.048 0.245 0.134 0.245 0.134l-0.131-0.477c0.329 0.132 0.575 0.386 0.575 0.386-0.164-0.822-0.419-1.208-0.419-1.208l0.206 0.074c-0.386-0.954-0.962-1.225-0.962-1.225l0.329-0.082c-0.485-0.608-1.167-0.814-1.167-0.814l0.444-0.214c-1.175-0.666-2.31 0.033-2.31 0.033s0.395-0.411 0.543-0.584c0.148-0.173-0.206-0.23-0.206-0.23s0.345-0.238 0.329-0.378c-0.016-0.14-0.329-0.066-0.329-0.066s0.271-0.279 0.271-0.436c0-0.156-0.279-0.057-0.279-0.057s0.090-0.189 0.115-0.337c0.025-0.148-0.247-0.025-0.247-0.025s0.304-0.543 0.288-0.658c-0.016-0.115-0.797 0.37-1.356 0.904s-0.492 1.393-0.442 1.597 0.081 0.681-0.167 0.848c-0.248 0.167-0.689-0.242-0.909-0.494s-0.493-0.164-0.778-0.066c-0.285 0.099-0.822-0.033-0.986-0.055s0.186 0.164 0.482 0.274 0.427 0.373 0.844 0.526c0.365 0.134 0.657 0.476 0.37 0.633-0.224 0.123-0.222-0.074-1.208-0.329s-2.17 2.252-2.17 2.252c0.634-0.078 0.957-0.458 0.957-0.458l-0.171 0.491c0.468-0.089 0.697-0.373 0.697-0.373l-0.124 0.495c0.359-0.111 0.607-0.495 0.607-0.495l-0.105 0.489c0.353-0.167 0.538-0.489 0.538-0.489 0.037 0.179 0.066 0.546 0.066 0.546 0.546-0.292 0.674-0.707 0.674-0.707 0.625 1.891 1.529 2.203 1.529 2.203l0.049-0.493c0.279 0.395 0.674 0.592 0.674 0.592l-0.066-0.427c0.97 1.184 2.088 1.48 2.088 1.48l-0.286-0.655 0.352 0.071c-0.378-0.321-0.518-0.88-0.518-0.88l0.296 0.049c-0.477-0.436-0.715-0.937-0.715-0.937l0.288 0.049c-0.090-0.14-0.164-0.633-0.164-0.633 0.526 0.164 0.797 0.37 0.797 0.37l0.031-0.179c0.451 0.325 1.192 0.931 1.706 1.692 0.001 0.248-0.039 0.499-0.143 0.751-0.471 1.149-1.71 1.074-2.258 0.833 0 0 1.699 1.326 2.63-0.559 0.059-0.119 0.096-0.247 0.122-0.378 0.116 0.277 0.197 0.566 0.212 0.866 0.099 1.923-1.907 1.743-1.907 1.743s2.219 0.888 2.318-1.677c0.022-0.57-0.22-1.14-0.607-1.682zM25.331 13.602l0.010-0.056c0.337 0.099 0.691 0.337 0.691 0.337l0.078-0.234c0.333 0.401 0.6 0.832 0.748 1.278-0.45-0.484-0.99-0.933-1.526-1.326z"/></svg>