<!-- Generated by IcoMoon.io -->
<svg version="1.1" xmlns="http://www.w3.org/2000/svg" width="32" height="32" viewBox="0 0 32 32">
<title>paraguay</title>
<path fill="#ff4b55" d="M29.603 5.517h-27.207c-1.324 0-2.397 1.073-2.397 2.397v4.592h32v-4.592c0-1.324-1.073-2.397-2.397-2.397z"></path>
<path fill="#41479b" d="M0 24.086c0 1.324 1.073 2.397 2.397 2.397h27.207c1.324 0 2.397-1.073 2.397-2.397v-4.592h-32v4.592z"></path>
<path fill="#f5f5f5" d="M0 12.506h32v6.988h-32v-6.988z"></path>
<path fill="#ff4b55" d="M16 13.241c-1.524 0-2.759 1.235-2.759 2.759s1.235 2.759 2.759 2.759 2.759-1.235 2.759-2.759-1.235-2.759-2.759-2.759zM16 18.081c-1.149 0-2.081-0.931-2.081-2.081s0.931-2.081 2.081-2.081 2.081 0.931 2.081 2.081c0 1.149-0.931 2.081-2.081 2.081z"></path>
<path fill="#41479b" d="M16.957 16c0 0.528-0.428 0.957-0.957 0.957s-0.957-0.428-0.957-0.957c0-0.528 0.428-0.957 0.957-0.957s0.957 0.428 0.957 0.957z"></path>
<path fill="#ffe15a" d="M16.062 15.275l0.154 0.463 0.487 0.004c0.063 0.001 0.089 0.081 0.038 0.119l-0.392 0.29 0.147 0.465c0.019 0.060-0.049 0.11-0.101 0.073l-0.397-0.283-0.397 0.283c-0.051 0.037-0.12-0.013-0.101-0.073l0.147-0.465-0.392-0.29c-0.051-0.037-0.025-0.118 0.039-0.119l0.487-0.004 0.154-0.463c0.020-0.060 0.105-0.060 0.125 0z"></path>
<path fill="#64c86e" d="M17.81 16.022c0 0 0.055-0.253-0.214 0.051 0 0 0.004-0.086-0.004-0.158 0.059-0.064 0.133-0.204 0.115-0.503 0 0-0.042-0.255-0.181 0.126 0 0-0.038-0.112-0.078-0.175 0.033-0.069 0.059-0.195-0.021-0.434 0 0-0.094-0.204-0.123 0.147 0 0-0.077-0.115-0.127-0.143 0.010-0.057 0.002-0.154-0.111-0.311 0 0-0.113-0.126-0.056 0.133 0 0-0.103-0.084-0.136-0.074-0.017-0.050-0.067-0.133-0.233-0.243 0 0-0.144-0.079 0.021 0.127 0 0-0.146-0.058-0.145-0.025s0.072 0.095 0.131 0.122c0 0-0.214 0.022-0.126 0.070 0 0 0.218 0.075 0.348 0.003 0.011 0.038 0.032 0.081 0.063 0.111 0 0-0.255-0.050-0.186 0.027 0 0 0.191 0.141 0.381 0.119-0.001 0.052 0.015 0.119 0.043 0.17 0 0-0.304-0.163-0.247-0.039 0 0 0.182 0.243 0.424 0.296-0.010 0.054-0.010 0.12 0.003 0.174 0 0-0.289-0.273-0.262-0.117 0 0 0.121 0.32 0.366 0.456-0.020 0.041-0.036 0.086-0.042 0.128 0 0-0.168-0.36-0.201-0.206 0 0-0.006 0.36 0.186 0.575-0.041 0.034-0.081 0.082-0.105 0.128 0 0-0.037-0.396-0.12-0.261 0 0-0.114 0.3-0.037 0.558-0.051 0.015-0.107 0.043-0.148 0.076 0 0 0.122-0.378-0.007-0.287 0 0-0.23 0.248-0.247 0.528-0.061-0.001-0.143 0.021-0.203 0.056 0 0 0.175-0.357 0.034-0.285 0 0-0.25 0.205-0.315 0.47-0.059 0.034-0.16 0.091-0.26 0.148-0.059-0.034-0.115-0.067-0.164-0.095l0.002-0.003-0.569-0.477 0.011 0.156-0.286-0.511-0.035 0.174-0.094-0.565-0.083 0.083 0.032-0.527-0.108 0.058 0.197-0.392-0.092 0.026 0.243-0.233-0.128 0.011 0.307-0.139-0.112-0.017 0.3-0.152-0.129-0.006 0.389-0.134-0.071-0.062 0.336-0.099-0.403-0.031 0.115-0.141-0.308 0.157 0.044-0.213-0.269 0.277 0.047-0.194-0.252 0.251 0.016-0.189-0.249 0.422-0.032-0.189-0.207 0.473-0.057-0.206-0.092 0.587-0.077-0.087 0.101 0.566-0.129-0.096 0.236 0.509c0 0-0.171-0.075-0.193-0.075s0.41 0.438 0.41 0.438l-0.225-0.024 0.434 0.305-0.161 0.040 0.361 0.14-0.088 0.068 0.748 0.053c0 0 0.072 0.060 0.17 0.13-0.052 0.029-0.097 0.055-0.126 0.070s-0.062 0.017-0.092 0.005c-0.071-0.030-0.174-0.072-0.223-0.092 0 0 0.005 0.213 0.226 0.218 0.091 0.002 0.215-0.056 0.33-0.124 0.118 0.074 0.248 0.139 0.342 0.136 0.217-0.005 0.221-0.218 0.221-0.218-0.049 0.020-0.149 0.062-0.219 0.092-0.029 0.012-0.062 0.011-0.090-0.005-0.031-0.017-0.081-0.046-0.139-0.079 0.059-0.040 0.109-0.076 0.143-0.103 0.055 0.043 0.21 0.118 0.559-0.013 0 0 0.231-0.116-0.174-0.135 0 0 0.075-0.055 0.126-0.108 0.066 0.034 0.231 0.075 0.543-0.097 0 0 0.212-0.148-0.191-0.109 0 0 0.054-0.052 0.096-0.106 0.070 0.008 0.242-0.011 0.47-0.302 0 0 0.137-0.22-0.219-0.025 0 0 0.046-0.11 0.057-0.183 0.079-0.038 0.198-0.141 0.293-0.426z"></path>
</svg>
