<svg xmlns="http://www.w3.org/2000/svg" width="32" height="32" version="1.1" viewBox="0 0 32 32"><title>portugal</title><path fill="#ff4b55" d="M29.603 26.483h-27.207c-1.324 0-2.397-1.073-2.397-2.397v-16.172c0-1.324 1.073-2.397 2.397-2.397h27.207c1.324 0 2.397 1.073 2.397 2.397v16.172c0 1.324-1.073 2.396-2.397 2.396z"/><path fill="#73af00" d="M2.397 5.517c-1.324 0-2.397 1.073-2.397 2.397v16.172c0 1.324 1.073 2.397 2.397 2.397h9.19v-20.966h-9.19z"/><path fill="#ffe15a" d="M16.552 16c0 2.74-2.221 4.961-4.961 4.961s-4.961-2.221-4.961-4.961c0-2.74 2.221-4.961 4.961-4.961s4.961 2.221 4.961 4.961z"/><path fill="#ff4b55" d="M13.246 14.345v2.207c0 0.913-0.742 1.655-1.655 1.655s-1.655-0.742-1.655-1.655v-2.207h3.31zM13.797 13.241h-4.414c-0.305 0-0.552 0.247-0.552 0.552v2.759c0 1.523 1.235 2.759 2.759 2.759s2.759-1.235 2.759-2.759v-2.759c0-0.305-0.247-0.552-0.552-0.552v0z"/><path fill="#f5f5f5" d="M13.246 14.345v2.207c0 0.913-0.742 1.655-1.655 1.655s-1.655-0.742-1.655-1.655v-2.207h3.31z"/><path fill="#ffe15a" d="M9.655 13.793c0 0.152-0.123 0.276-0.276 0.276s-0.276-0.123-0.276-0.276c0-0.152 0.123-0.276 0.276-0.276s0.276 0.123 0.276 0.276z"/><path fill="#ffe15a" d="M14.069 13.793c0 0.152-0.123 0.276-0.276 0.276s-0.276-0.123-0.276-0.276c0-0.152 0.123-0.276 0.276-0.276s0.276 0.123 0.276 0.276z"/><path fill="#ffe15a" d="M9.655 16c0 0.152-0.123 0.276-0.276 0.276s-0.276-0.123-0.276-0.276c0-0.152 0.123-0.276 0.276-0.276s0.276 0.123 0.276 0.276z"/><path fill="#ffe15a" d="M14.069 16c0 0.152-0.123 0.276-0.276 0.276s-0.276-0.123-0.276-0.276c0-0.152 0.123-0.276 0.276-0.276s0.276 0.123 0.276 0.276z"/><path fill="#ffe15a" d="M11.862 13.793c0 0.152-0.123 0.276-0.276 0.276s-0.276-0.123-0.276-0.276c0-0.152 0.123-0.276 0.276-0.276s0.276 0.123 0.276 0.276z"/><path fill="#ffe15a" d="M13.518 18.034c0 0.152-0.123 0.276-0.276 0.276s-0.276-0.123-0.276-0.276c0-0.152 0.123-0.276 0.276-0.276s0.276 0.123 0.276 0.276z"/><path fill="#ffe15a" d="M10.238 18.034c0 0.152-0.123 0.276-0.276 0.276s-0.276-0.123-0.276-0.276c0-0.152 0.123-0.276 0.276-0.276s0.276 0.123 0.276 0.276z"/><path fill="#41479b" d="M11.947 15.86v0.475c0 0.197-0.16 0.356-0.356 0.356s-0.356-0.16-0.356-0.356v-0.475h0.713z"/><path fill="#41479b" d="M11.947 14.734v0.475c0 0.197-0.16 0.356-0.356 0.356s-0.356-0.16-0.356-0.356v-0.475h0.713z"/><path fill="#41479b" d="M11.947 16.998v0.475c0 0.197-0.16 0.356-0.356 0.356s-0.356-0.16-0.356-0.356v-0.475h0.713z"/><path fill="#41479b" d="M12.907 15.86v0.475c0 0.197-0.16 0.356-0.356 0.356s-0.356-0.16-0.356-0.356v-0.475h0.713z"/><path fill="#41479b" d="M10.987 15.86v0.475c0 0.197-0.16 0.356-0.356 0.356s-0.356-0.16-0.356-0.356v-0.475h0.713z"/></svg>