<svg xmlns="http://www.w3.org/2000/svg" width="32" height="32" version="1.1" viewBox="0 0 32 32"><title>puerto-rico</title><path fill="#ff4b55" d="M29.603 5.517h-27.207c-1.324 0-2.397 1.073-2.397 2.397v1.797h32v-1.797c0-1.324-1.073-2.397-2.397-2.397z"/><path fill="#f5f5f5" d="M0 9.711h32v4.193h-32v-4.193z"/><path fill="#ff4b55" d="M0 13.904h32v4.193h-32v-4.193z"/><path fill="#ff4b55" d="M0 24.086c0 1.324 1.073 2.397 2.397 2.397h27.207c1.324 0 2.397-1.073 2.397-2.397v-1.797h-32v1.797z"/><path fill="#f5f5f5" d="M0 18.097h32v4.193h-32v-4.193z"/><path fill="#41479b" d="M0.856 25.922l14.619-9.578c0.248-0.162 0.248-0.526 0-0.688l-14.619-9.578c-0.523 0.44-0.856 1.099-0.856 1.836v16.172c0 0.737 0.333 1.396 0.856 1.835z"/><path fill="#f5f5f5" d="M5.636 13.439l0.576 1.726 1.82 0.014c0.236 0.002 0.333 0.303 0.144 0.443l-1.464 1.081 0.549 1.735c0.071 0.225-0.185 0.41-0.376 0.273l-1.481-1.058-1.481 1.058c-0.192 0.137-0.447-0.049-0.376-0.273l0.549-1.735-1.464-1.081c-0.19-0.14-0.092-0.441 0.144-0.443l1.82-0.014 0.576-1.726c0.074-0.223 0.391-0.223 0.465 0z"/></svg>