<svg xmlns="http://www.w3.org/2000/svg" width="32" height="32" version="1.1" viewBox="0 0 32 32"><title>qatar</title><path fill="#f5f5f5" d="M13.84 25.46c0.139-0.042 0.139-0.239 0-0.282l-2.896-0.885c-0.139-0.042-0.139-0.239 0-0.282l2.895-0.882c0.139-0.042 0.139-0.239 0-0.282l-2.895-0.882c-0.139-0.042-0.139-0.239-0-0.282l2.896-0.885c0.139-0.042 0.139-0.239-0-0.282l-2.896-0.882c-0.139-0.042-0.139-0.239-0-0.282l2.896-0.885c0.139-0.043 0.139-0.239-0-0.282l-2.896-0.882c-0.139-0.042-0.139-0.239-0-0.282l2.896-0.885c0.139-0.043 0.139-0.239-0-0.282l-2.896-0.882c-0.139-0.042-0.139-0.239-0-0.282l2.896-0.885c0.139-0.043 0.139-0.239-0-0.282l-2.895-0.881c-0.139-0.042-0.139-0.239 0-0.282l2.895-0.881c0.139-0.042 0.139-0.239 0-0.281l-2.896-0.885c-0.139-0.043-0.139-0.239 0-0.282l2.896-0.882c0.139-0.042 0.139-0.239 0-0.281l-2.896-0.885c-0.139-0.043-0.139-0.239 0-0.282l2.896-0.882c0.139-0.042 0.139-0.239 0-0.282l-3.337-1.019c-0.014-0.004-0.028-0.006-0.043-0.006h-8.064c-1.324-0-2.397 1.073-2.397 2.396v16.172c0 1.324 1.073 2.397 2.397 2.397h8.064c0.015 0 0.029-0.002 0.043-0.006l3.337-1.016z"/><path fill="#873250" d="M29.603 5.517h-19.143c0.015 0 0.029 0.002 0.043 0.006l3.337 1.019c0.139 0.042 0.139 0.239-0 0.282l-2.896 0.882c-0.139 0.042-0.139 0.239-0 0.282l2.896 0.885c0.139 0.042 0.139 0.239-0 0.281l-2.896 0.882c-0.139 0.042-0.139 0.239-0 0.282l2.896 0.885c0.139 0.042 0.139 0.239-0 0.281l-2.895 0.881c-0.139 0.042-0.139 0.239 0 0.282l2.895 0.881c0.139 0.042 0.139 0.239 0 0.282l-2.896 0.885c-0.139 0.043-0.139 0.239 0 0.282l2.896 0.882c0.139 0.042 0.139 0.239 0 0.282l-2.896 0.885c-0.139 0.043-0.139 0.239 0 0.282l2.896 0.882c0.139 0.042 0.139 0.239 0 0.282l-2.896 0.885c-0.139 0.043-0.139 0.239 0 0.282l2.896 0.882c0.139 0.042 0.139 0.239 0 0.282l-2.896 0.885c-0.139 0.043-0.139 0.239 0 0.282l2.895 0.882c0.139 0.042 0.139 0.239 0 0.282l-2.895 0.882c-0.139 0.042-0.139 0.239-0 0.282l2.896 0.885c0.139 0.042 0.139 0.239-0 0.282l-3.337 1.016c-0.014 0.004-0.028 0.006-0.043 0.006h19.143c1.324 0 2.397-1.073 2.397-2.397v-16.172c-0-1.324-1.073-2.396-2.397-2.396z"/></svg>