<!-- Generated by IcoMoon.io -->
<svg version="1.1" xmlns="http://www.w3.org/2000/svg" width="32" height="32" viewBox="0 0 32 32">
<title>republic-of-macedonia</title>
<path fill="#ff4b55" d="M29.603 5.517h-27.207c-1.324 0-2.397 1.073-2.397 2.397v16.172c0 1.324 1.073 2.397 2.397 2.397h27.207c1.324 0 2.397-1.073 2.397-2.397v-16.172c0-1.324-1.073-2.397-2.397-2.397z"></path>
<path fill="#ffe15a" d="M13.695 14.49c0.118-0.18 0.258-0.342 0.413-0.489-0 0-0.001 0.001-0.001 0.001l-8.038-8.485h-3.672c-0.587 0-1.124 0.211-1.54 0.561l12.839 8.412z"></path>
<path fill="#ffe15a" d="M13.27 16.283c-0.010-0.094-0.028-0.186-0.028-0.283s0.019-0.188 0.028-0.283v0l-13.27-1.373v3.31l13.27-1.373z"></path>
<path fill="#ffe15a" d="M15.571 13.285v0h-0z"></path>
<path fill="#ffe15a" d="M16 13.241c0.147 0 0.288 0.021 0.429 0.043l1.226-7.767h-3.31l1.226 7.767c0.141-0.022 0.282-0.043 0.429-0.043z"></path>
<path fill="#ffe15a" d="M16.429 13.285h-0z"></path>
<path fill="#ffe15a" d="M17.892 14.001c0.155 0.147 0.295 0.309 0.413 0.489l12.839-8.412c-0.417-0.35-0.954-0.561-1.54-0.561h-3.672l-8.038 8.485c-0-0-0.001-0.001-0.001-0.001z"></path>
<path fill="#ffe15a" d="M18.305 17.51c-0.118 0.18-0.258 0.342-0.413 0.489 0-0 0.001-0.001 0.001-0.001l8.038 8.485h3.672c0.587 0 1.124-0.211 1.54-0.561l-12.839-8.412z"></path>
<path fill="#ffe15a" d="M18.73 15.717c0.010 0.094 0.029 0.186 0.029 0.283s-0.019 0.188-0.029 0.283v-0l13.27 1.373v-3.31l-13.27 1.373z"></path>
<path fill="#ffe15a" d="M16 18.759c-0.147 0-0.288-0.021-0.429-0.043l-1.226 7.767h3.31l-1.226-7.767c-0.141 0.022-0.282 0.043-0.429 0.043z"></path>
<path fill="#ffe15a" d="M16.429 18.715v0h0z"></path>
<path fill="#ffe15a" d="M15.571 18.715h0z"></path>
<path fill="#ffe15a" d="M14.108 17.999c-0.155-0.147-0.295-0.309-0.413-0.489l-12.839 8.412c0.417 0.35 0.954 0.561 1.54 0.561h3.672l8.038-8.485c0 0 0.001 0 0.001 0.001z"></path>
<path fill="#ffe15a" d="M18.207 16c0 1.219-0.988 2.207-2.207 2.207s-2.207-0.988-2.207-2.207c0-1.219 0.988-2.207 2.207-2.207s2.207 0.988 2.207 2.207z"></path>
</svg>
