<svg xmlns="http://www.w3.org/2000/svg" width="32" height="32" version="1.1" viewBox="0 0 32 32"><title>rwanda</title><path fill="#4173cd" d="M29.603 5.517h-27.207c-1.324 0-2.397 1.073-2.397 2.397v8.086h32v-8.086c0-1.324-1.073-2.397-2.397-2.397z"/><path fill="#ffe15a" d="M0 16h32v5.241h-32v-5.241z"/><path fill="#73af00" d="M0 24.086c0 1.324 1.073 2.397 2.397 2.397h27.207c1.324 0 2.397-1.073 2.397-2.397v-2.845h-32v2.845z"/><path fill="#ffe15a" d="M28.638 11.133l2.258-0.374-2.258-0.374 1.943-1.21-2.229 0.519 1.333-1.861-1.861 1.333 0.519-2.229-1.21 1.943-0.374-2.258-0.374 2.258-1.21-1.943 0.519 2.229-1.861-1.333 1.333 1.861-2.23-0.519 1.943 1.21-2.258 0.374 2.258 0.374-1.943 1.21 2.23-0.519-1.333 1.861 1.861-1.333-0.519 2.229 1.21-1.943 0.374 2.258 0.374-2.258 1.21 1.943-0.519-2.229 1.861 1.333-1.333-1.861 2.23 0.519-1.943-1.21zM26.759 12.138c-0.762 0-1.379-0.617-1.379-1.379s0.617-1.379 1.379-1.379 1.379 0.617 1.379 1.379-0.617 1.379-1.379 1.379z"/><path fill="#ffe15a" d="M27.793 10.759c0 0.571-0.463 1.034-1.035 1.034s-1.035-0.463-1.035-1.034c0-0.571 0.463-1.034 1.035-1.034s1.035 0.463 1.035 1.034z"/></svg>