<!-- Generated by IcoMoon.io -->
<svg version="1.1" xmlns="http://www.w3.org/2000/svg" width="32" height="32" viewBox="0 0 32 32">
<title>san-marino</title>
<path fill="#f5f5f5" d="M29.618 5.517h-27.236c-1.317 0.008-2.382 1.077-2.382 2.396v8.087h32v-8.087c0-1.319-1.065-2.388-2.382-2.396z"></path>
<path fill="#82afff" d="M0 24.086c0 1.324 1.073 2.397 2.397 2.397h27.207c1.324 0 2.397-1.073 2.397-2.397v-8.086h-32v8.086z"></path>
<path fill="#b46446" d="M16.051 20.499c-0.093-0.004-2.299-0.117-3.407-1.634-0.645-0.884-0.774-2.059-0.383-3.494l0.158 0.043c-0.377 1.384-0.258 2.512 0.357 3.354 1.060 1.453 3.26 1.566 3.282 1.567l-0.007 0.164z"></path>
<path fill="#41aa5a" d="M12.26 14.735c-0.109 0.283-0.084 0.58 0.042 0.805 0.244-0.083 0.461-0.287 0.57-0.57s0.084-0.58-0.042-0.805c-0.244 0.083-0.461 0.287-0.57 0.57z"></path>
<path fill="#41aa5a" d="M13.642 18.652c-0.121 0.199-0.152 0.466-0.063 0.726 0.084 0.242 0.256 0.421 0.456 0.511-0.194-0.102-0.441-0.127-0.683-0.044-0.259 0.089-0.45 0.279-0.533 0.497 0.199 0.121 0.466 0.152 0.726 0.063s0.45-0.279 0.533-0.497l-0-0c0.12-0.199 0.151-0.465 0.062-0.723s-0.279-0.45-0.497-0.532z"></path>
<path fill="#41aa5a" d="M13.17 17.929c-0.186 0.14-0.315 0.376-0.329 0.65-0.013 0.256 0.081 0.486 0.232 0.644-0.142-0.167-0.362-0.282-0.617-0.295-0.274-0.014-0.522 0.091-0.679 0.262 0.14 0.186 0.376 0.315 0.65 0.329s0.522-0.091 0.679-0.262c-0-0-0-0-0-0 0.185-0.14 0.313-0.375 0.327-0.648s-0.091-0.521-0.262-0.679z"></path>
<path fill="#41aa5a" d="M12.966 17.113c-0.225 0.059-0.434 0.229-0.55 0.477-0.108 0.232-0.109 0.48-0.028 0.684-0.069-0.208-0.228-0.398-0.46-0.506-0.248-0.116-0.517-0.113-0.728-0.013 0.059 0.225 0.229 0.434 0.477 0.55s0.517 0.113 0.728 0.013c0 0-0-0-0-0 0.224-0.060 0.432-0.229 0.548-0.477s0.113-0.517 0.014-0.728z"></path>
<path fill="#41aa5a" d="M13.081 16.305c-0.232-0.023-0.486 0.064-0.682 0.256-0.183 0.18-0.27 0.412-0.265 0.631 0.008-0.219-0.075-0.453-0.255-0.635-0.193-0.195-0.446-0.286-0.678-0.266-0.023 0.232 0.063 0.486 0.256 0.682s0.446 0.286 0.678 0.266c0 0 0-0 0-0 0.231 0.022 0.485-0.064 0.679-0.256s0.286-0.446 0.266-0.678z"></path>
<path fill="#41aa5a" d="M13.245 15.535c-0.225-0.061-0.49-0.018-0.715 0.14-0.21 0.147-0.334 0.362-0.366 0.579 0.044-0.215 0.001-0.459-0.146-0.669-0.157-0.225-0.392-0.356-0.624-0.375-0.061 0.225-0.018 0.49 0.14 0.715s0.392 0.356 0.624 0.375c0-0 0-0 0-0 0.224 0.060 0.489 0.017 0.712-0.14s0.356-0.392 0.375-0.624z"></path>
<path fill="#ffe15a" d="M13.481 19.782c0 0.094-0.076 0.171-0.171 0.171s-0.171-0.076-0.171-0.171c0-0.094 0.076-0.171 0.171-0.171s0.171 0.076 0.171 0.171z"></path>
<path fill="#ffe15a" d="M14.266 19.878c0 0.094-0.076 0.171-0.171 0.171s-0.171-0.076-0.171-0.171c0-0.094 0.076-0.171 0.171-0.171s0.171 0.076 0.171 0.171z"></path>
<path fill="#ffe15a" d="M13.031 18.492c0 0.094-0.076 0.171-0.171 0.171s-0.171-0.076-0.171-0.171c0-0.094 0.076-0.171 0.171-0.171s0.171 0.076 0.171 0.171z"></path>
<path fill="#ffe15a" d="M11.945 17.208c0 0.094-0.076 0.171-0.171 0.171s-0.171-0.076-0.171-0.171c0-0.094 0.076-0.171 0.171-0.171s0.171 0.076 0.171 0.171z"></path>
<path fill="#ffe15a" d="M12.703 16.339c0 0.094-0.076 0.171-0.171 0.171s-0.171-0.076-0.171-0.171c0-0.094 0.076-0.171 0.171-0.171s0.171 0.076 0.171 0.171z"></path>
<path fill="#ffe15a" d="M12.416 15.448c0 0.094-0.076 0.171-0.171 0.171s-0.171-0.076-0.171-0.171c0-0.094 0.076-0.171 0.171-0.171s0.171 0.076 0.171 0.171z"></path>
<path fill="#b46446" d="M16.058 20.499l-0.007-0.164c0.022-0.001 2.222-0.114 3.282-1.567 0.614-0.842 0.734-1.97 0.357-3.354l0.158-0.043c0.391 1.435 0.262 2.61-0.383 3.494-1.107 1.517-3.313 1.63-3.407 1.634z"></path>
<path fill="#41aa5a" d="M19.849 14.735c0.109 0.283 0.084 0.58-0.042 0.805-0.244-0.083-0.461-0.287-0.57-0.57s-0.084-0.58 0.042-0.805c0.244 0.083 0.461 0.287 0.57 0.57z"></path>
<path fill="#41aa5a" d="M18.467 18.652c0.121 0.199 0.152 0.466 0.063 0.726-0.084 0.242-0.256 0.421-0.456 0.511 0.194-0.102 0.441-0.127 0.683-0.044 0.259 0.089 0.45 0.279 0.532 0.497-0.199 0.121-0.466 0.152-0.726 0.063s-0.45-0.279-0.532-0.497c0-0 0-0 0-0-0.12-0.199-0.151-0.465-0.062-0.723s0.279-0.45 0.497-0.532z"></path>
<path fill="#41aa5a" d="M18.94 17.929c0.186 0.14 0.315 0.376 0.329 0.65 0.013 0.256-0.081 0.486-0.232 0.644 0.142-0.167 0.362-0.282 0.617-0.295 0.274-0.014 0.522 0.091 0.679 0.262-0.14 0.186-0.376 0.315-0.65 0.329s-0.522-0.091-0.679-0.262c0-0 0-0 0-0-0.185-0.14-0.314-0.375-0.327-0.648s0.091-0.521 0.262-0.679z"></path>
<path fill="#41aa5a" d="M19.144 17.113c0.225 0.059 0.434 0.229 0.55 0.477 0.108 0.232 0.109 0.48 0.028 0.684 0.069-0.208 0.228-0.398 0.46-0.506 0.248-0.116 0.517-0.113 0.728-0.013-0.059 0.225-0.229 0.434-0.477 0.55s-0.517 0.113-0.728 0.013c0 0 0-0 0-0-0.224-0.060-0.432-0.229-0.548-0.477s-0.113-0.517-0.014-0.728z"></path>
<path fill="#41aa5a" d="M19.028 16.305c0.232-0.023 0.486 0.064 0.682 0.256 0.183 0.18 0.27 0.412 0.265 0.631-0.008-0.219 0.075-0.453 0.255-0.635 0.192-0.195 0.446-0.286 0.678-0.266 0.023 0.232-0.064 0.486-0.256 0.682s-0.446 0.286-0.678 0.266c0 0 0-0 0-0-0.231 0.022-0.485-0.064-0.679-0.256s-0.286-0.446-0.266-0.678z"></path>
<path fill="#41aa5a" d="M18.864 15.535c0.225-0.061 0.49-0.018 0.715 0.14 0.21 0.147 0.334 0.362 0.366 0.579-0.044-0.215-0.001-0.459 0.146-0.669 0.157-0.225 0.392-0.356 0.624-0.375 0.061 0.225 0.018 0.49-0.14 0.715s-0.392 0.356-0.624 0.375c0-0 0-0 0-0-0.224 0.060-0.489 0.017-0.712-0.14s-0.356-0.392-0.375-0.624z"></path>
<path fill="#ffe15a" d="M18.97 19.782c0 0.094-0.076 0.171-0.171 0.171s-0.171-0.076-0.171-0.171c0-0.094 0.076-0.171 0.171-0.171s0.171 0.076 0.171 0.171z"></path>
<path fill="#ffe15a" d="M18.184 19.878c0 0.094-0.076 0.171-0.171 0.171s-0.171-0.076-0.171-0.171c0-0.094 0.076-0.171 0.171-0.171s0.171 0.076 0.171 0.171z"></path>
<path fill="#ffe15a" d="M19.42 18.492c0 0.094-0.076 0.171-0.171 0.171s-0.171-0.076-0.171-0.171c0-0.094 0.076-0.171 0.171-0.171s0.171 0.076 0.171 0.171z"></path>
<path fill="#ffe15a" d="M20.506 17.208c0 0.094-0.076 0.171-0.171 0.171s-0.171-0.076-0.171-0.171c0-0.094 0.076-0.171 0.171-0.171s0.171 0.076 0.171 0.171z"></path>
<path fill="#ffe15a" d="M19.748 16.339c0 0.094-0.076 0.171-0.171 0.171s-0.171-0.076-0.171-0.171c0-0.094 0.076-0.171 0.171-0.171s0.171 0.076 0.171 0.171z"></path>
<path fill="#ffe15a" d="M20.036 15.448c0 0.094-0.076 0.171-0.171 0.171s-0.171-0.076-0.171-0.171c0-0.094 0.076-0.171 0.171-0.171s0.171 0.076 0.171 0.171z"></path>
<path fill="#8cd7ff" d="M17.015 14.765h-1.958c-0.609 0-1.103 0.494-1.103 1.103v1.725c0 0.61 0.494 1.103 1.103 1.103h1.958c0.609 0 1.103-0.494 1.103-1.103v-1.725c0-0.609-0.494-1.103-1.103-1.103z"></path>
<path fill="#f5f5f5" d="M16.36 16.266v0.218h-0.218v-0.218h-0.168v0.218h-0.218v-0.218h-0.137v0.437l0.109 0.138v1.609h0.655v-1.609l0.109-0.138v-0.437z"></path>
<path fill="#f5f5f5" d="M16.087 15.575c0.108-0.052 0.137 0.168 0.137 0.168 0.228-0.114 0.168-0.299 0.114-0.387-0.073-0.118-0.364-0.164-0.487 0.082s0.209 0.733 0.209 0.733c0.018-0.15-0.114-0.528 0.027-0.596z"></path>
<path fill="#f5f5f5" d="M17.483 16.674v0.218h-0.218v-0.218h-0.168v0.218h-0.218v-0.218h-0.137v0.437l0.109 0.138v1.609h0.655v-1.609l0.109-0.138v-0.437z"></path>
<path fill="#f5f5f5" d="M17.21 15.982c0.108-0.052 0.137 0.168 0.137 0.168 0.228-0.114 0.168-0.299 0.114-0.387-0.073-0.118-0.364-0.164-0.487 0.082s0.209 0.733 0.209 0.733c0.018-0.15-0.114-0.528 0.027-0.596z"></path>
<path fill="#f5f5f5" d="M15.237 16.674v0.218h-0.219v-0.218h-0.168v0.218h-0.218v-0.218h-0.137v0.437l0.109 0.138v1.609h0.655v-1.609l0.109-0.138v-0.437z"></path>
<path fill="#f5f5f5" d="M14.964 15.982c0.108-0.052 0.137 0.168 0.137 0.168 0.228-0.114 0.168-0.299 0.114-0.387-0.073-0.118-0.364-0.164-0.487 0.082s0.209 0.733 0.209 0.733c0.018-0.15-0.114-0.528 0.027-0.596z"></path>
<path fill="#6ec86e" d="M17.847 18.567c-0.146-0.072-0.308-0.116-0.482-0.116-0.186 0-0.359 0.051-0.512 0.133-0.199-0.215-0.482-0.352-0.799-0.352s-0.599 0.137-0.799 0.352c-0.153-0.082-0.326-0.133-0.512-0.133-0.174 0-0.336 0.044-0.482 0.116 0.312 0.572 0.909 1.496 1.792 1.85 0.883-0.353 1.48-1.278 1.792-1.85z"></path>
<path fill="#ffe15a" d="M16.045 11.247l0.010-0.005c0 0-0.003 0.001-0.010 0.005z"></path>
<path fill="#ffe15a" d="M16.055 11.242l0.010 0.005c-0.007-0.004-0.010-0.005-0.010-0.005z"></path>
<path fill="#ffe15a" d="M18.151 12.177c-0.061-0.355-0.519-0.416-1.044-0.451s-0.751-0.335-0.751-0.335h-0.601c0 0-0.225 0.3-0.751 0.335s-0.983 0.096-1.044 0.451c-0.061 0.355 0.389 0.915 0.389 0.915l0.396-0.321c0 0-0.485-0.464-0.246-0.635 0.236-0.169 0.924-0.052 1.23-0.456-0.013 0.085-0.008 0.189 0.044 0.318 0.1 0.246 0.064 0.555 0.064 0.555h0.437c0 0-0.036-0.309 0.064-0.555 0.052-0.129 0.057-0.233 0.044-0.318 0.306 0.405 0.994 0.288 1.23 0.456 0.239 0.171-0.246 0.635-0.246 0.635l0.396 0.321c0 0 0.451-0.56 0.389-0.915z"></path>
<path fill="#ffe15a" d="M16.278 10.163h-0.114v-0.123c0-0.060-0.049-0.109-0.109-0.109s-0.109 0.049-0.109 0.109v0.123h-0.118c-0.060 0-0.109 0.049-0.109 0.109s0.049 0.109 0.109 0.109h0.118v0.314c0 0.060 0.049 0.109 0.109 0.109s0.109-0.049 0.109-0.109v-0.314h0.114c0.060 0 0.109-0.049 0.109-0.109s-0.049-0.109-0.109-0.109z"></path>
<path fill="#fff0e1" d="M16.273 10.805c0 0.121-0.098 0.219-0.218 0.219s-0.219-0.098-0.219-0.219c0-0.121 0.098-0.219 0.219-0.219s0.218 0.098 0.218 0.219z"></path>
<path fill="#ffc75a" d="M14.489 15.201c0.088 0.044 0.191 0.082 0.296 0.082 0.362 0 0.539-0.205 0.539-0.567s-0.218-0.635-0.58-0.635c0 0-0.041 0.001-0.106 0.011-0.014 0.002-0.028 0.004-0.042 0.008-0.348 0.066-1.208 0.387-1.381 1.948-0.242 2.182 1.529 4.151 2.84 4.587v-0.218c-0 0-3.095-2.366-1.566-5.215z"></path>
<path fill="#ffc75a" d="M14.744 14.3l1.311 0.437-1.311 0.437z"></path>
<path fill="#ffe15a" d="M17.365 15.174l-1.311-0.437 1.311-0.437z"></path>
<path fill="#ffe15a" d="M13.432 16.072c0.156-1.409 0.895-1.698 1.213-1.759 0.007-0.002 0.014-0.003 0.026-0.005 0.040-0.006 0.068-0.008 0.076-0.008 0.239 0.002 0.397 0.182 0.397 0.4 0 0.241-0.141 0.332-0.282 0.337 0 0 0.114-0.237-0.118-0.3-0.157-0.043-0.355 0.082-0.337 0.309 0.013 0.16 0.165 0.314 0.337 0.314 0.362 0 0.655-0.262 0.655-0.623s-0.293-0.655-0.655-0.655c0 0-0.041 0.001-0.106 0.011-0.014 0.002-0.028 0.004-0.042 0.008-0.348 0.066-1.208 0.387-1.381 1.948-0.242 2.182 1.529 4.151 2.84 4.587v-0.218c0 0-0.464-0.232-0.782-0.458-0.981-0.696-2.018-2.294-1.841-3.887z"></path>
<path fill="#ffc75a" d="M17.62 15.201c-0.088 0.044-0.191 0.082-0.296 0.082-0.362 0-0.539-0.205-0.539-0.567s0.218-0.635 0.58-0.635c0 0 0.041 0.001 0.106 0.011 0.014 0.002 0.028 0.004 0.042 0.008 0.348 0.066 1.208 0.387 1.381 1.948 0.242 2.182-1.529 4.151-2.84 4.587v-0.218c0 0 3.095-2.366 1.566-5.215z"></path>
<path fill="#ffc75a" d="M17.365 14.3l-1.311 0.437 1.311 0.437z"></path>
<path fill="#ffe15a" d="M18.677 16.072c-0.157-1.409-0.895-1.698-1.213-1.759-0.007-0.002-0.014-0.003-0.026-0.005-0.040-0.006-0.068-0.008-0.076-0.008-0.239 0.002-0.397 0.182-0.397 0.4 0 0.241 0.141 0.332 0.282 0.337 0 0-0.114-0.237 0.118-0.3 0.157-0.043 0.355 0.082 0.337 0.309-0.013 0.16-0.165 0.314-0.337 0.314-0.362 0-0.655-0.262-0.655-0.623s0.293-0.655 0.655-0.655c0 0 0.041 0.001 0.106 0.011 0.014 0.002 0.028 0.004 0.042 0.008 0.348 0.066 1.208 0.387 1.381 1.948 0.242 2.182-1.529 4.151-2.84 4.587v-0.218c0 0 0.464-0.232 0.782-0.458 0.981-0.696 2.018-2.294 1.841-3.887z"></path>
<path fill="#ffe15a" d="M16.273 14.738c0 0.121-0.098 0.219-0.218 0.219s-0.219-0.098-0.219-0.219c0-0.121 0.098-0.219 0.219-0.219s0.218 0.098 0.218 0.219z"></path>
<path fill="#ffc75a" d="M17.615 12.983c0.058-0.15-0.020-0.352-0.020-0.352-0.201-0.007-0.341 0.14-0.341 0.14 0.017-0.181-0.061-0.345-0.061-0.345-0.259 0.031-0.345 0.184-0.345 0.184-0.014-0.283-0.184-0.399-0.184-0.399-0.225 0.068-0.294 0.314-0.294 0.314-0.034-0.28-0.314-0.41-0.314-0.41s-0.28 0.13-0.314 0.41c0 0-0.068-0.246-0.293-0.314 0 0-0.171 0.116-0.184 0.399 0 0-0.085-0.154-0.345-0.184 0 0-0.079 0.164-0.061 0.345 0 0-0.14-0.147-0.341-0.14 0 0-0.079 0.201-0.021 0.352 0 0-0.229-0.072-0.416 0.037 0 0 0.344 0.133 0.459 0.297h3.035c0.115-0.164 0.459-0.297 0.459-0.297-0.188-0.109-0.416-0.037-0.416-0.037z"></path>
<path fill="#ffe15a" d="M17.572 13.317c0 0.098-0.23 0.402-0.23 0.402s-0.745 0.104-1.288 0.104c-0.547 0-1.293-0.107-1.293-0.107s-0.225-0.302-0.225-0.399c0-0.279 0.679-0.506 1.517-0.506s1.518 0.227 1.518 0.506z"></path>
<path fill="#ffc75a" d="M17.365 13.645c0 0.241-0.587 0.437-1.311 0.437s-1.311-0.196-1.311-0.437c0-0.241 0.587-0.437 1.311-0.437s1.311 0.196 1.311 0.437z"></path>
<path fill="#ffc75a" d="M16.376 11.221c0-0.143-0.107-0.325-0.321-0.198-0.214-0.127-0.321 0.055-0.321 0.198s-0.164 0.164-0.184 0.15c0 0 0.137 0.178 0.293 0.061 0 0 0.084 0.123 0.212 0.123s0.212-0.123 0.212-0.123c0.157 0.116 0.294-0.061 0.294-0.061-0.020 0.014-0.184-0.007-0.184-0.15z"></path>
<path fill="#b46446" d="M15.618 21.81c-0.012 0-0.025-0.003-0.037-0.009-0.041-0.020-0.057-0.069-0.037-0.11l0.437-0.874c0.020-0.040 0.069-0.057 0.11-0.037s0.057 0.069 0.037 0.11l-0.437 0.874c-0.014 0.029-0.043 0.045-0.073 0.045z"></path>
<path fill="#b46446" d="M16.492 21.81c-0.030 0-0.059-0.017-0.073-0.045l-0.437-0.874c-0.020-0.041-0.004-0.090 0.037-0.11s0.090-0.004 0.11 0.037l0.437 0.874c0.020 0.041 0.004 0.090-0.037 0.11-0.012 0.006-0.024 0.009-0.037 0.009z"></path>
<path fill="#f5f5f5" d="M18.021 21.045c-1.295 0.289-2.637 0.289-3.932 0 0-0.218 0-0.627 0-0.846 1.295 0.289 2.637 0.289 3.932 0 0 0.218 0 0.627 0 0.846z"></path>
<path fill="#f5f5f5" d="M15.172 20.727c-0.836 0.161-1.693 0.206-2.545 0.126 0.014 0.113 0.689 0.447 0.689 0.447s-0.595 0.288-0.582 0.392c0.816 0.076 1.636 0.040 2.438-0.105v-0.86z"></path>
<path fill="#f5f5f5" d="M16.941 20.727c0.836 0.161 1.693 0.206 2.545 0.126-0.014 0.113-0.689 0.447-0.689 0.447s0.595 0.288 0.582 0.392c-0.816 0.076-1.636 0.040-2.439-0.105v-0.86z"></path>
</svg>
