<!-- Generated by IcoMoon.io -->
<svg version="1.1" xmlns="http://www.w3.org/2000/svg" width="32" height="32" viewBox="0 0 32 32">
<title>sao-tome-and-prince</title>
<path fill="#73af00" d="M29.603 26.483h-27.207c-1.324 0-2.397-1.073-2.397-2.397v-16.172c0-1.324 1.073-2.397 2.397-2.397h27.207c1.324 0 2.397 1.073 2.397 2.397v16.172c0 1.324-1.073 2.397-2.397 2.397z"></path>
<path fill="#ffe15a" d="M0 10.483h32v11.034h-32v-11.034z"></path>
<path fill="#ff4b55" d="M0.72 6.202c-0.444 0.435-0.72 1.041-0.72 1.712v16.172c0 0.671 0.276 1.277 0.72 1.712l10.314-9.798-10.314-9.798z"></path>
<path fill="#464655" d="M17.394 13.486l0.565 1.695 1.787 0.014c0.231 0.002 0.327 0.297 0.141 0.435l-1.438 1.062 0.539 1.704c0.070 0.221-0.181 0.403-0.37 0.269l-1.454-1.039-1.454 1.039c-0.188 0.135-0.439-0.048-0.37-0.269l0.539-1.704-1.438-1.062c-0.186-0.137-0.090-0.433 0.141-0.435l1.787-0.014 0.565-1.695c0.073-0.22 0.383-0.22 0.457 0z"></path>
<path fill="#464655" d="M25.644 13.486l0.565 1.695 1.787 0.014c0.231 0.002 0.327 0.297 0.141 0.435l-1.438 1.062 0.539 1.704c0.070 0.221-0.181 0.403-0.37 0.269l-1.454-1.039-1.454 1.039c-0.188 0.135-0.439-0.048-0.37-0.269l0.539-1.704-1.438-1.062c-0.186-0.137-0.090-0.433 0.141-0.435l1.787-0.014 0.565-1.695c0.073-0.22 0.383-0.22 0.457 0z"></path>
</svg>
