<svg xmlns="http://www.w3.org/2000/svg" width="32" height="32" version="1.1" viewBox="0 0 32 32"><title>saudi-arabia</title><path fill="#73af00" d="M29.603 26.483h-27.207c-1.324 0-2.397-1.073-2.397-2.397v-16.172c0-1.324 1.073-2.397 2.397-2.397h27.207c1.324 0 2.397 1.073 2.397 2.397v16.172c0 1.324-1.073 2.396-2.397 2.396z"/><path fill="#f5f5f5" d="M6.621 12.642c0.054 0.349 0.265 0.458 0.448 0.444 0.216-0.017 0.405-0.214 0.405-0.423v-1.196c0-0.060 0.049-0.109 0.109-0.109s0.109 0.049 0.109 0.109v1.201c0 0.144 0.071 0.279 0.191 0.36 0.073 0.050 0.158 0.075 0.244 0.075 0.055 0 0.109-0.010 0.162-0.031l0.109-0.043c0.010 1.004-0.051 1.886-0.052 1.903-0.008 0.12 0.082 0.224 0.201 0.232 0.005 0 0.011 0.001 0.016 0.001 0.113 0 0.209-0.088 0.217-0.202 0.005-0.071 0.072-1.037 0.052-2.107l0.066-0.026c0.058-0.023 0.122-0.020 0.178 0.007 0.24 0.119 0.528 0.073 0.717-0.116l0.039-0.039c0.176-0.176 0.236-0.432 0.158-0.668l-0.185-0.556c0.1 0.030 0.21-0.014 0.258-0.111 0.054-0.107 0.010-0.238-0.097-0.292l-0.435-0.217c-0.079-0.040-0.173-0.027-0.24 0.030s-0.092 0.15-0.064 0.233l0.35 1.050c0.026 0.079 0.006 0.164-0.053 0.223l-0.039 0.039c-0.057 0.057-0.143 0.070-0.215 0.035-0.141-0.070-0.301-0.084-0.452-0.045-0.031-0.698-0.106-1.393-0.266-1.874-0.038-0.114-0.161-0.176-0.275-0.137s-0.175 0.161-0.137 0.275c0.157 0.47 0.225 1.186 0.249 1.898l-0.26 0.104v-1.201c0-0.3-0.244-0.544-0.544-0.544s-0.544 0.244-0.544 0.544v1.053l-0.222-1.096c-0.024-0.118-0.138-0.195-0.256-0.17s-0.194 0.139-0.17 0.256l0.229 1.132z"/><path fill="#f5f5f5" d="M7.040 10.815c0.12 0 0.217-0.097 0.217-0.217v-0.217c0-0.12-0.097-0.217-0.217-0.217s-0.218 0.097-0.218 0.217v0.217c0 0.12 0.097 0.217 0.218 0.217z"/><path fill="#f5f5f5" d="M9.215 10.597h0.217c0.12 0 0.217-0.097 0.217-0.217s-0.097-0.217-0.217-0.217h-0.217c-0.12 0-0.217 0.097-0.217 0.217s0.097 0.217 0.217 0.217z"/><path fill="#f5f5f5" d="M7.798 13.455l-1.087 0.652c-0.103 0.062-0.136 0.195-0.075 0.298 0.041 0.068 0.113 0.106 0.187 0.106 0.038 0 0.077-0.010 0.112-0.031l1.087-0.652c0.103-0.062 0.136-0.195 0.075-0.298s-0.195-0.136-0.298-0.075z"/><path fill="#f5f5f5" d="M10.73 13.84l0.005-0.003c0.018 0.073 0.050 0.145 0.1 0.204 0.088 0.104 0.221 0.156 0.371 0.144 0.212-0.015 0.357-0.113 0.452-0.238 0.015 0.010 0.030 0.019 0.046 0.027 0.118 0.059 0.254 0.055 0.383-0.012 0.329-0.169 0.399-0.561 0.389-0.766-0.006-0.119-0.107-0.204-0.226-0.206-0.119 0.005-0.212 0.106-0.208 0.226 0 0.003 0.005 0.261-0.153 0.357-0.026-0.036-0.056-0.117-0.068-0.183-0.018-0.112-0.121-0.19-0.232-0.181-0.113 0.009-0.2 0.104-0.2 0.217-0 0.032-0.007 0.311-0.223 0.334-0.025-0.034-0.025-0.178-0.001-0.285 0.021-0.087-0.014-0.178-0.088-0.229s-0.172-0.051-0.246-0.001l-0.121 0.083c-0.058-1.261-0.19-2.731-0.192-2.75-0.011-0.119-0.116-0.208-0.236-0.197s-0.208 0.117-0.197 0.236c0.002 0.020 0.155 1.721 0.203 3.019-0.011 0.011-0.023 0.022-0.033 0.032-0.086-0.217-0.257-0.353-0.476-0.374-0.31-0.027-0.646 0.184-0.766 0.485-0.104 0.259-0.038 0.514 0.166 0.649 0.147 0.097 0.369 0.128 0.649 0.030-0.068 0.24-0.192 0.483-0.354 0.671-0.145 0.168-0.386 0.363-0.695 0.354-0.18-0.007-0.318-0.066-0.422-0.18-0.252-0.275-0.23-0.773-0.23-0.778 0.006-0.12-0.085-0.222-0.205-0.229-0.121-0.013-0.223 0.085-0.229 0.205-0.002 0.028-0.033 0.682 0.342 1.093 0.184 0.203 0.429 0.311 0.728 0.323 0.015 0.001 0.029 0.001 0.044 0.001 0.364 0 0.717-0.178 0.998-0.506 0.264-0.308 0.444-0.726 0.498-1.115-0.001 0.744-0.449 1.583-1.043 1.953-0.252 0.157-0.646 0.298-1.089 0.080-0.546-0.27-0.481-0.894-0.479-0.92 0.015-0.119-0.070-0.228-0.189-0.243s-0.228 0.069-0.243 0.189c-0.005 0.039-0.109 0.956 0.718 1.364 0.212 0.105 0.435 0.157 0.658 0.157 0.288 0 0.578-0.086 0.853-0.257 0.724-0.45 1.249-1.427 1.249-2.324-0-0.14-0.003-0.293-0.007-0.454zM9.419 14.064c-0.039-0.026-0.008-0.108-0.002-0.124 0.046-0.115 0.189-0.214 0.303-0.214 0.006 0 0.012 0 0.018 0.001 0.028 0.003 0.102 0.010 0.133 0.174 0.003 0.017 0.006 0.035 0.008 0.053-0.242 0.142-0.405 0.147-0.461 0.11z"/><path fill="#f5f5f5" d="M7.15 16.065c-0.103-0.061-0.236-0.026-0.297 0.077-0.010 0.017-0.023 0.035-0.037 0.052-0.002-0.006-0.005-0.011-0.007-0.018-0.091-0.242-0.026-0.615 0.006-0.738 0.031-0.116-0.038-0.235-0.154-0.266-0.116-0.030-0.235 0.038-0.266 0.154-0.016 0.059-0.149 0.587 0.006 1.003 0.1 0.266 0.253 0.333 0.364 0.342 0.010 0.001 0.020 0.001 0.029 0.001 0.234 0 0.39-0.236 0.433-0.311 0.060-0.104 0.025-0.235-0.078-0.296z"/><path fill="#f5f5f5" d="M11.163 12.119c0.047 0 0.094-0.015 0.134-0.046l1.096-0.861c0.015-0.012 0.025-0.027 0.036-0.042 0.158-0.095 0.265-0.267 0.265-0.464 0-0.3-0.244-0.544-0.544-0.544s-0.544 0.244-0.544 0.544c0 0.168 0.078 0.316 0.198 0.416l-0.776 0.609c-0.094 0.074-0.111 0.211-0.037 0.305 0.043 0.055 0.107 0.083 0.171 0.083zM12.151 10.597c0.060 0 0.109 0.049 0.109 0.109s-0.049 0.109-0.109 0.109-0.109-0.049-0.109-0.109 0.049-0.109 0.109-0.109z"/><path fill="#f5f5f5" d="M11.893 11.913c-0.115-0.038-0.237 0.024-0.275 0.137-0.023 0.070-0.128 0.428 0.085 0.641 0.083 0.083 0.191 0.124 0.325 0.124 0.089 0 0.189-0.018 0.3-0.055 0.114-0.038 0.175-0.161 0.137-0.275s-0.161-0.176-0.275-0.137c-0.121 0.040-0.173 0.034-0.178 0.038-0.013-0.032-0.004-0.129 0.018-0.199 0.038-0.114-0.024-0.236-0.138-0.274z"/><path fill="#f5f5f5" d="M14.383 11.014c0.020 0.006 0.041 0.009 0.061 0.009 0.094 0 0.181-0.062 0.209-0.157l0.127-0.435c0.034-0.115-0.033-0.236-0.148-0.27s-0.236 0.033-0.27 0.148l-0.127 0.435c-0.034 0.115 0.033 0.236 0.148 0.27z"/><path fill="#f5f5f5" d="M13.115 10.989c0.035 0.020 0.072 0.030 0.11 0.030 0.075 0 0.148-0.038 0.188-0.108 0.061-0.104 0.026-0.237-0.078-0.297-0.044-0.025-0.038-0.098-0.036-0.112 0.007-0.057 0.041-0.127 0.1-0.145 0.115-0.036 0.179-0.158 0.143-0.272s-0.158-0.178-0.272-0.143c-0.217 0.068-0.375 0.268-0.403 0.511-0.026 0.226 0.070 0.432 0.249 0.537z"/><path fill="#f5f5f5" d="M11.39 14.512c-0.12 0-0.217 0.097-0.217 0.217 0 0.106 0.076 0.195 0.177 0.214 0.011 0.017 0.041 0.074 0.041 0.221 0 0.12 0.097 0.217 0.217 0.217s0.217-0.097 0.217-0.217c0-0.645-0.417-0.652-0.435-0.652z"/><path fill="#f5f5f5" d="M15.079 13.611c0.027 0.005 0.055 0.007 0.082 0.007 0.171 0 0.344-0.086 0.514-0.257 0.085-0.085 0.085-0.223 0-0.307s-0.223-0.085-0.307 0c-0.13 0.13-0.2 0.133-0.218 0.129-0.041-0.006-0.079-0.060-0.088-0.075-0.055-0.106-0.184-0.148-0.29-0.095s-0.151 0.184-0.097 0.292c0.013 0.027 0.139 0.264 0.404 0.307z"/><path fill="#f5f5f5" d="M18.776 12.083c-0.001-0.003-0.003-0.007-0.004-0.010-0.039-0.113-0.162-0.174-0.274-0.136-0.114 0.038-0.176 0.161-0.138 0.275 0.017 0.051 0.114 0.307 0.354 0.339 0.016 0.002 0.032 0.003 0.048 0.003 0.151 0 0.292-0.098 0.421-0.29 0.067-0.1 0.040-0.235-0.060-0.302s-0.235-0.040-0.302 0.060c-0.017 0.026-0.032 0.045-0.044 0.060z"/><path fill="#f5f5f5" d="M18.349 16.034c0-0.927-0.041-1.797-0.097-2.56 0.309 0.536 0.587 1.077 0.764 1.549 0.033 0.087 0.116 0.141 0.204 0.141 0.025 0 0.051-0.005 0.076-0.014 0.113-0.042 0.169-0.168 0.127-0.28-0.275-0.734-0.77-1.608-1.258-2.384-0.119-1.172-0.252-1.915-0.254-1.928-0.021-0.118-0.134-0.198-0.253-0.175-0.118 0.021-0.197 0.135-0.175 0.253 0.002 0.009 0.070 0.393 0.152 1.037-0.167-0.248-0.322-0.472-0.453-0.656l0.011 0.003c0.115 0.038 0.237-0.024 0.275-0.137s-0.024-0.237-0.137-0.275l-0.652-0.217c-0.090-0.031-0.19 0.002-0.245 0.079-0.015 0.021-0.025 0.043-0.032 0.067-0.13-0.096-0.297-0.175-0.454-0.109-0.095 0.039-0.208 0.138-0.208 0.387 0 0.191 0.073 0.397 0.15 0.616 0.128 0.363 0.208 0.63 0.073 0.757-0.075 0.070-0.15 0.097-0.223 0.078-0.134-0.034-0.267-0.213-0.355-0.478-0.004-0.011-0.012-0.020-0.017-0.030 0.046-0.337 0.026-0.743-0.066-1.203-0.023-0.118-0.138-0.195-0.256-0.171s-0.194 0.138-0.171 0.256c0.142 0.71 0.099 1.29-0.114 1.55-0.082 0.101-0.186 0.147-0.325 0.147-0.044 0-0.074-0.014-0.104-0.048-0.172-0.198-0.171-0.836-0.116-1.226 0.009-0.062-0.010-0.126-0.051-0.173s-0.101-0.075-0.164-0.075c-0.374 0-0.516 0.426-0.641 0.801-0.055 0.165-0.157 0.472-0.229 0.504-0.132 0-0.217-0.387-0.217-0.653-0-0.12-0.098-0.217-0.217-0.217 0 0-0 0-0 0-0.12 0-0.217 0.097-0.217 0.217 0 0.502 0.171 1.087 0.652 1.087 0.359 0 0.504-0.391 0.626-0.754 0.021 0.289 0.086 0.588 0.247 0.773 0.113 0.13 0.262 0.199 0.433 0.199 0.268 0 0.497-0.106 0.662-0.306 0.030-0.036 0.055-0.078 0.081-0.12 0.126 0.18 0.281 0.298 0.456 0.342 0.051 0.013 0.103 0.020 0.154 0.020 0.168 0 0.332-0.069 0.474-0.202 0.029-0.028 0.050-0.058 0.073-0.088 0.053 0.015 0.107 0.024 0.161 0.024 0.176 0 0.346-0.071 0.451-0.139 0.101-0.065 0.13-0.198 0.066-0.299s-0.198-0.131-0.299-0.068c-0.002 0.001-0.147 0.084-0.246 0.065 0-0.238-0.086-0.492-0.165-0.715-0.045-0.127-0.091-0.257-0.113-0.364 0.018 0.015 0.035 0.031 0.051 0.046 0.085 0.085 0.223 0.085 0.307 0 0.014-0.014 0.022-0.031 0.032-0.048 0.225 0.311 0.689 0.963 1.166 1.715 0.091 0.925 0.171 2.104 0.171 3.398 0 0.12 0.097 0.218 0.218 0.218s0.218-0.097 0.218-0.217z"/><path fill="#f5f5f5" d="M18.567 11.249c0 0.12 0.097 0.217 0.218 0.217s0.218-0.097 0.218-0.217c0-0.256-0.2-0.669-0.24-0.75-0.054-0.107-0.184-0.151-0.292-0.097s-0.151 0.184-0.097 0.292c0.078 0.157 0.195 0.442 0.195 0.555z"/><path fill="#f5f5f5" d="M17.577 16.058c-0.107-0.054-0.238-0.011-0.292 0.096-0.023 0.046-0.060 0.096-0.090 0.129-0.010-0.086 0.013-0.259 0.057-0.402 0.029-0.096-0.010-0.199-0.096-0.25s-0.195-0.038-0.266 0.033l-0.435 0.435c-0.085 0.085-0.085 0.223 0 0.308s0.223 0.085 0.308 0l0.011-0.011c0.019 0.087 0.055 0.167 0.116 0.229 0.081 0.082 0.18 0.125 0.283 0.125 0.020 0 0.040-0.002 0.060-0.005 0.246-0.040 0.4-0.312 0.441-0.394 0.053-0.107 0.010-0.237-0.097-0.291z"/><path fill="#f5f5f5" d="M17.493 14.308h-1.533c0.014-0.054 0.028-0.106 0.042-0.155 0.611-0.127 0.975-0.324 1.081-0.588 0.037-0.091 0.076-0.276-0.082-0.488-0.142-0.191-0.342-0.277-0.55-0.235-0.309 0.063-0.584 0.396-0.782 0.929-0.614 0.105-1.007 0.325-1.256 0.543-0.088-0.891-0.434-1.421-0.451-1.446-0.067-0.1-0.202-0.127-0.302-0.060s-0.127 0.202-0.060 0.302c0.004 0.006 0.398 0.609 0.398 1.619 0 0.993-0.792 1.74-1.305 1.74-0.244 0-0.351-0.29-0.398-0.536 0.503-0.352 0.946-0.76 1.044-1.152 0.133-0.53-0.034-0.921-0.145-1.179-0.005-0.012-0.011-0.025-0.016-0.038 0.005 0.004 0.009 0.009 0.014 0.013 0.085 0.085 0.223 0.085 0.307 0s0.085-0.223 0-0.307c-0.127-0.127-0.374-0.327-0.598-0.233-0.095 0.039-0.208 0.138-0.208 0.387 0 0.112 0.047 0.222 0.101 0.35 0.098 0.229 0.22 0.514 0.123 0.903-0.057 0.23-0.34 0.508-0.712 0.785-0.040-0.048-0.098-0.080-0.165-0.080h-0c-0.12 0-0.217 0.097-0.217 0.217 0 0.039 0.002 0.081 0.004 0.124-0.465 0.301-0.992 0.58-1.399 0.766-0.109 0.050-0.158 0.179-0.108 0.288 0.036 0.080 0.115 0.127 0.198 0.127 0.030 0 0.061-0.006 0.090-0.020 0.122-0.056 0.703-0.326 1.299-0.695 0.11 0.373 0.342 0.715 0.786 0.715 0.522 0 1.114-0.427 1.455-1.064 0.041 0.073 0.089 0.143 0.145 0.208 0.547 0.631 1.617 0.638 1.662 0.638 0.117 0 0.213-0.093 0.217-0.21s-0.085-0.216-0.202-0.225c-0.002-0-0.175-0.019-0.271-0.132-0.058-0.068-0.081-0.161-0.071-0.286 0.022-0.268 0.887-0.468 1.649-0.48 0.091-0.002 0.171-0.059 0.202-0.145l0.218-0.612c0.024-0.066 0.014-0.141-0.027-0.198s-0.107-0.092-0.177-0.092zM16.538 13.269c0.004-0.001 0.010-0.002 0.017-0.002 0.021 0 0.054 0.010 0.097 0.069 0.008 0.011 0.035 0.049 0.028 0.065-0.025 0.062-0.175 0.163-0.488 0.255 0.138-0.268 0.272-0.373 0.346-0.388zM15.225 16.128c-0.221-0.072-0.446-0.186-0.602-0.366-0.171-0.198-0.235-0.449-0.193-0.766 0.006-0.017 0.021-0.050 0.045-0.092 0.306-0.028 1.124 0.093 1.181 0.327-0.252 0.129-0.438 0.31-0.46 0.567-0.011 0.129 0.002 0.239 0.028 0.33z"/><path fill="#f5f5f5" d="M19.86 11.181l-0.218-0.652c-0.035-0.105-0.144-0.168-0.252-0.144s-0.182 0.124-0.171 0.234c0.15 1.501 0.434 4.427 0.434 4.763 0 0.301-0.536 0.895-1.402 1.328-0.107 0.054-0.151 0.184-0.097 0.292 0.038 0.076 0.115 0.12 0.195 0.12 0.033 0 0.066-0.007 0.097-0.023 0.791-0.396 1.643-1.102 1.643-1.717 0-0.321-0.222-2.633-0.35-3.932 0.103-0.044 0.157-0.161 0.121-0.269z"/><path fill="#f5f5f5" d="M21.675 13.143c0.042 0.042 0.098 0.064 0.154 0.064 0.037 0 0.074-0.009 0.107-0.028 0.085-0.048 0.127-0.148 0.103-0.243-0.039-0.153-0.052-0.344-0.031-0.422 0.109 0.003 0.21-0.074 0.226-0.187 0.017-0.119-0.066-0.229-0.184-0.246-0.144-0.020-0.27 0.023-0.358 0.121-0.057 0.064-0.091 0.146-0.11 0.233l-0.252-0.252c-0.085-0.085-0.223-0.085-0.308 0s-0.085 0.223 0 0.307l0.652 0.652z"/><path fill="#f5f5f5" d="M22.164 13.37l-0.816 0.585c-0.098 0.070-0.12 0.206-0.050 0.303 0.043 0.059 0.109 0.091 0.177 0.091 0.044 0 0.088-0.013 0.127-0.041l0.816-0.585c0.098-0.070 0.12-0.206 0.050-0.303s-0.206-0.12-0.304-0.050z"/><path fill="#f5f5f5" d="M22.092 14.188c-0.068 0.088-0.059 0.212 0.019 0.288 0.009 0.016 0.052 0.099 0.044 0.313-0.004 0.12 0.090 0.221 0.21 0.225 0.003 0 0.005 0 0.008 0 0.117 0 0.213-0.092 0.217-0.21 0.016-0.444-0.129-0.606-0.193-0.655-0.095-0.074-0.232-0.057-0.305 0.038z"/><path fill="#f5f5f5" d="M23.99 15.79c0.12 0 0.218-0.097 0.218-0.217 0-0.321-0.017-0.679-0.043-1.052 0.216 0.353 0.395 0.679 0.51 0.947 0.035 0.083 0.116 0.132 0.2 0.132 0.029 0 0.058-0.005 0.086-0.018 0.11-0.047 0.162-0.175 0.114-0.285-0.199-0.465-0.571-1.080-0.995-1.716-0.085-0.798-0.197-1.58-0.283-2.142 0.046 0.005 0.094-0.007 0.136-0.034 0.069-0.044 0.101-0.12 0.096-0.197 0.006 0.021 0.012 0.043 0.024 0.063 0.001 0.002 0.141 0.233 0.079 0.533-0.024 0.117 0.051 0.233 0.169 0.257 0.015 0.003 0.030 0.005 0.044 0.005 0.101 0 0.191-0.071 0.213-0.174 0.098-0.475-0.129-0.839-0.138-0.854-0.065-0.101-0.199-0.131-0.3-0.067-0.069 0.044-0.102 0.12-0.097 0.197-0.006-0.021-0.012-0.043-0.024-0.063l-0.367-0.571c-0.056-0.087-0.166-0.122-0.262-0.085s-0.153 0.138-0.135 0.24c0.003 0.017 0.169 0.972 0.317 2.122-0.167-0.235-0.333-0.466-0.495-0.685-0.026-0.329-0.053-0.633-0.075-0.885 0.012-0.004 0.024-0.008 0.035-0.014 0.107-0.054 0.151-0.184 0.097-0.292l-0.218-0.435c-0.047-0.094-0.154-0.141-0.255-0.112s-0.166 0.126-0.156 0.231c0.026 0.26 0.053 0.547 0.079 0.849-0.138-0.181-0.265-0.347-0.374-0.488 0.021-0.018 0.039-0.041 0.053-0.068 0.054-0.107 0.010-0.238-0.097-0.292l-0.435-0.217c-0.091-0.045-0.202-0.022-0.266 0.058s-0.064 0.193-0.001 0.273c0.012 0.015 0.547 0.686 1.188 1.552 0.111 1.437 0.185 2.932 0.081 3.245-0.019 0.057-0.052 0.125-0.084 0.127-0.131 0.018-0.445-0.276-0.603-0.591-0.091-0.181-0.221-0.2-0.291-0.197-0.234 0.014-0.325 0.272-0.491 0.739-0.119 0.335-0.266 0.75-0.432 0.921-0.090-0.11-0.206-0.478-0.27-0.856 0.030 0.084 0.109 0.144 0.203 0.144 0.12 0 0.218-0.097 0.218-0.217 0-0.324-0.227-2.794-0.354-4.148 0.106-0.043 0.161-0.161 0.125-0.27l-0.218-0.652c-0.035-0.105-0.142-0.167-0.251-0.144s-0.182 0.123-0.172 0.233c0.148 1.552 0.425 4.548 0.434 4.962-0.001-0.004-0.001-0.007-0.002-0.011-0.017-0.119-0.128-0.2-0.246-0.185-0.119 0.017-0.201 0.127-0.184 0.246 0.064 0.445 0.226 1.209 0.6 1.333 0.029 0.010 0.069 0.019 0.116 0.019 0.086 0 0.195-0.030 0.306-0.142 0.237-0.237 0.397-0.688 0.539-1.087 0.032-0.090 0.070-0.197 0.105-0.288 0.2 0.291 0.548 0.654 0.9 0.626 0.124-0.009 0.35-0.076 0.466-0.424 0.116-0.347 0.070-1.557-0.008-2.715 0.183 0.257 0.367 0.52 0.542 0.78 0.068 0.651 0.116 1.304 0.116 1.84 0 0.12 0.097 0.217 0.217 0.217z"/><path fill="#f5f5f5" d="M25.641 14.646c-0.154-1.148-0.369-2.477-0.505-3.293 0.061 0.015 0.128 0.003 0.182-0.039 0.096-0.073 0.114-0.209 0.041-0.305l-0.394-0.517c-0.061-0.079-0.168-0.107-0.26-0.067s-0.144 0.138-0.127 0.237c0.004 0.022 0.392 2.255 0.632 4.042 0.092 0.683-0.042 1.293-0.358 1.632-0.203 0.218-0.472 0.316-0.798 0.297-0.12-0.006-0.223 0.084-0.231 0.203s0.083 0.223 0.203 0.231c0.037 0.002 0.073 0.003 0.109 0.003 0.41 0 0.766-0.15 1.034-0.438 0.41-0.439 0.582-1.164 0.471-1.986z"/><path fill="#f5f5f5" d="M23.248 16.079c-0.080 0.087-0.074 0.224 0.011 0.306 0.012 0.011 0.026 0.034 0.026 0.045 0 0.006-0.009 0.024-0.033 0.049-0.085 0.085-0.085 0.223 0 0.308 0.043 0.043 0.098 0.064 0.154 0.064s0.111-0.021 0.154-0.064c0.138-0.138 0.163-0.278 0.16-0.371-0.007-0.201-0.143-0.33-0.171-0.354-0.089-0.077-0.221-0.068-0.301 0.019z"/><path fill="#f5f5f5" d="M22.481 20.849h-1.522v-0.218c0-0.12-0.097-0.218-0.218-0.218s-0.218 0.097-0.218 0.218v0.218h-11.527c0.435 0.435 1.305 0.652 1.957 0.652 0.468 0 6.305 0 9.569 0v0.435c0 0.12 0.097 0.218 0.218 0.218h1.74c0.36 0 0.652-0.293 0.652-0.652s-0.293-0.652-0.652-0.652zM22.481 21.719h-1.522v-0.218c1.048 0 1.74 0 1.74 0l-0.039-0.117c0.023 0.034 0.039 0.073 0.039 0.117 0 0.12-0.098 0.218-0.217 0.218z"/></svg>