<svg xmlns="http://www.w3.org/2000/svg" width="32" height="32" version="1.1" viewBox="0 0 32 32"><title>senegal</title><path fill="#73af00" d="M2.397 5.517c-1.324 0-2.397 1.073-2.397 2.397v16.172c0 1.324 1.073 2.397 2.397 2.397h8.27v-20.966h-8.27z"/><path fill="#ffe15a" d="M10.667 5.517h10.667v20.966h-10.667v-20.966z"/><path fill="#ff4b55" d="M29.603 5.517h-8.27v20.965h8.27c1.324 0 2.397-1.073 2.397-2.397v-16.172c0-1.324-1.073-2.397-2.397-2.397z"/><path fill="#73af00" d="M16.128 12.861l0.731 2.191 2.31 0.018c0.129 0.001 0.183 0.166 0.079 0.243l-1.858 1.372 0.697 2.202c0.039 0.123-0.101 0.225-0.206 0.15l-1.879-1.343-1.879 1.343c-0.105 0.075-0.245-0.027-0.206-0.15l0.697-2.202-1.858-1.372c-0.104-0.077-0.050-0.242 0.079-0.243l2.31-0.018 0.731-2.191c0.041-0.122 0.214-0.122 0.255 0z"/></svg>