<!-- Generated by IcoMoon.io -->
<svg version="1.1" xmlns="http://www.w3.org/2000/svg" width="32" height="32" viewBox="0 0 32 32">
<title>seychelles</title>
<path fill="#73af00" d="M2.397 26.483h27.207c1.324 0 2.397-1.073 2.397-2.397v-4.592l-30.725 6.71c0.335 0.178 0.716 0.279 1.121 0.279z"></path>
<path fill="#41479b" d="M2.397 5.517c-1.324 0-2.397 1.073-2.397 2.397v16.172c0 0.543 0.18 1.043 0.484 1.444l10.182-20.013h-8.27z"></path>
<path fill="#ffe15a" d="M10.667 5.517l-10.182 20.013c0.069 0.091 0.143 0.176 0.224 0.256l20.625-20.27h-10.667z"></path>
<path fill="#ff4b55" d="M29.603 5.517h-8.27l-20.625 20.27c0.094 0.093 0.195 0.178 0.303 0.254l30.989-13.535v-4.592c0-1.324-1.073-2.397-2.397-2.397z"></path>
<path fill="#f5f5f5" d="M1.275 26.204l30.725-6.71v-6.989l-30.989 13.535c0.084 0.060 0.172 0.114 0.264 0.163z"></path>
</svg>
