<svg xmlns="http://www.w3.org/2000/svg" width="32" height="32" version="1.1" viewBox="0 0 32 32"><title>sicily</title><path fill="#ffe15a" d="M0 7.914v16.172c0 1.324 1.073 2.397 2.397 2.397h27.207c0.587 0 1.124-0.211 1.54-0.561l-30.287-19.844c-0.523 0.44-0.856 1.099-0.856 1.836z"/><path fill="#ff4b55" d="M29.603 5.517h-27.207c-0.587 0-1.124 0.211-1.54 0.561l30.287 19.843c0.523-0.44 0.856-1.099 0.856-1.836v-16.172c0-1.324-1.073-2.397-2.397-2.397z"/><path fill="#ffbe55" d="M17.051 14.522c0.062-0.050 0.113-0.111 0.093-0.163-0.016-0.043-0.096-0.083-0.18-0.125-0.157-0.078-0.366-0.186-0.435-0.443-0.008-0.001-0.016-0-0.024-0.002-0.069-0.013-0.112 0.011-0.161 0.172-0.009 0.029-0.029 0.077-0.054 0.131 0.052 0.034 0.18 0.113 0.305 0.142 0.248 0.056 0.401 0.152 0.457 0.287z"/><path fill="#ffbe55" d="M16.088 14.413c0.074 0.068 0.142 0.144 0.209 0.23 0.004 0.005 0.008 0.010 0.012 0.015 0.166-0.127 0.378-0.128 0.525-0.104-0.043-0.044-0.126-0.088-0.283-0.123-0.146-0.033-0.288-0.116-0.358-0.161-0.032 0.052-0.068 0.101-0.105 0.144z"/><path fill="#ffbe55" d="M16.931 15.144c0.078 0.045 0.234 0.146 0.37 0.293 0.020-0.113 0.014-0.262-0.092-0.393-0.090 0.050-0.187 0.082-0.278 0.101z"/><path fill="#ffbe55" d="M15.634 13.83l-0.026 0.032c-0.13 0.159-0.278 0.332-0.419 0.474 0.086-0.040 0.187-0.070 0.292-0.086 0.037-0.060 0.152-0.219 0.292-0.411-0.034-0.022-0.101-0.055-0.139-0.008z"/><path fill="#ffbe55" d="M15.125 14.636c0.001 0.001 0.009 0.012 0.034 0.021 0.043 0.017 0.123 0.022 0.207-0.016 0.243-0.113 0.489-0.051 0.73 0.182 0.001 0.001 0 0.002 0.001 0.002s0.002 0.001 0.002 0.001 0.083 0.083 0.229 0.158c-0.070-0.074-0.134-0.149-0.188-0.219-0.087-0.112-0.163-0.208-0.253-0.266-0.229-0.145-0.627-0.018-0.739 0.101-0.019 0.020-0.023 0.032-0.023 0.035z"/><path fill="#ffbe55" d="M17.015 14.78c0 0-0.001 0-0.001 0-0.013 0.006-0.026 0.009-0.040 0.009-0.001 0-0.001 0-0.002 0s-0.003-0.001-0.004-0.001c-0.010-0-0.021-0.001-0.031-0.005-0.003-0.001-0.312-0.11-0.501 0.027 0.053 0.059 0.113 0.114 0.179 0.164 0.093 0.002 0.413-0.003 0.596-0.174 0.092-0.086 0.1-0.18 0.085-0.254-0.068 0.107-0.189 0.19-0.281 0.234z"/><path fill="#ffbe55" d="M14.199 14.679c-0.016-0.023-0.033-0.042-0.046-0.069-0.022-0.044-0.034-0.091-0.045-0.137-0.071 0.114-0.146 0.29-0.1 0.486 0.053-0.127 0.134-0.223 0.191-0.28z"/><path fill="#ffbe55" d="M15.924 14.298c0.090-0.094 0.2-0.302 0.229-0.395 0.027-0.089 0.11-0.36 0.388-0.31 0.062 0.011 0.108-0.028 0.135-0.062-0.067-0.077-0.156-0.127-0.232-0.129-0.057-0.005-0.123 0.031-0.174 0.099-0.25 0.336-0.439 0.596-0.542 0.741 0.069 0.008 0.134 0.028 0.196 0.056z"/><path fill="#ffbe55" d="M15.279 13.693c-0.155 0.207-0.317 0.323-0.436 0.408-0.156 0.112-0.195 0.15-0.185 0.237 0.002 0.018 0.009 0.031 0.025 0.043 0.021 0.017 0.051 0.028 0.085 0.037 0.002-0.001 0.003-0.003 0.006-0.004 0.187-0.076 0.558-0.53 0.68-0.679l0.026-0.032c0.129-0.157 0.312-0.094 0.411-0.026 0.034-0.047 0.069-0.094 0.104-0.141-0.18-0.217-0.478-0.161-0.716 0.157z"/><path fill="#ffbe55" d="M16.853 13.627c-0.029 0.043-0.072 0.087-0.126 0.12 0.050 0.165 0.188 0.24 0.327 0.309 0.082 0.041 0.16 0.082 0.215 0.14 0.047-0.167 0.041-0.301-0.024-0.393-0.095-0.136-0.297-0.169-0.392-0.176z"/><path fill="#ffbe55" d="M16.123 19.611l0.022 0.025c0.275 0.313 0.534 0.614 0.707 0.869-0.005-0.137-0.015-0.279-0.031-0.378-0.001-0.003-0.001-0.006-0.001-0.010-0.088-0.114-0.183-0.22-0.283-0.31-0.293-0.262-0.458-0.524-0.55-0.726-0.016 0.174 0.004 0.38 0.137 0.531z"/><path fill="#ffbe55" d="M15.983 18.602c-0.023-0.041-0.045-0.085-0.062-0.135-0-0 0-0.001-0-0.001-0.001-0.001-0.003-0.001-0.004-0.002-0.060 0.104-0.169 0.175-0.287 0.175 0 0-0 0-0.001 0-0.009 0-0.017-0.003-0.026-0.004-0.015 0.067-0.020 0.143 0.022 0.184 0.048 0.046 0.146 0.046 0.197 0.033 0.025-0.105 0.052-0.18 0.056-0.189 0.017-0.042 0.059-0.067 0.105-0.061z"/><path fill="#ffbe55" d="M15.788 19.058c-0.011 0.001-0.020 0.002-0.031 0.002-0.030 0-0.061-0.004-0.092-0.010-0.018 0.069-0.025 0.147 0.021 0.193 0.029 0.029 0.070 0.041 0.105 0.043-0.008-0.079-0.009-0.156-0.003-0.228z"/><path fill="#ffbe55" d="M12.075 14.613l-0.001 0c-0.2 0.067-0.439 0.051-0.647 0.010 0.121 0.187 0.168 0.413 0.173 0.623 0.262-0.341 0.551-0.497 0.758-0.572-0.107-0.009-0.203-0.029-0.284-0.061z"/><path fill="#ffbe55" d="M16.802 19.576c-0.045-0.003-0.147-0.016-0.268-0.053 0.043 0.045 0.085 0.090 0.136 0.136 0.334 0.299 0.605 0.753 0.783 1.104 0.063-0.226 0.212-0.42 0.372-0.567-0.446-0.029-0.795-0.34-1.022-0.619z"/><path fill="#ffbe55" d="M14.544 15.923c-0.073-0.016-0.155-0.046-0.235-0.096-0.053 0.17-0.091 0.328-0.111 0.471 0.111-0.010 0.194-0.009 0.251-0.005 0.027-0.153 0.065-0.283 0.095-0.371z"/><path fill="#ffbe55" d="M11.393 15.436c0.024-0.236 0.011-0.613-0.251-0.839-0.001-0-0.002 0-0.002 0-0.008-0.001-0.756-0.109-1.256 0.401-0.188 0.192-0.31 0.342-0.408 0.463-0.133 0.164-0.229 0.281-0.383 0.372 0.469 0.167 1.605 0.449 2.301-0.398z"/><path fill="#ffbe55" d="M18.346 12.412c0.209 0.112 0.562 0.244 0.871 0.089 0-0.001 0-0.002 0.001-0.002 0.004-0.007 0.39-0.657 0.109-1.314-0.105-0.247-0.198-0.417-0.272-0.554-0.1-0.185-0.173-0.319-0.198-0.497-0.333 0.37-1.028 1.312-0.512 2.278z"/><path fill="#ffbe55" d="M18.061 20.258c-0.188 0.144-0.454 0.411-0.439 0.757 0.001 0.001 0.002 0.001 0.002 0.002 0.004 0.006 0.439 0.625 1.153 0.639 0.269 0.005 0.462-0.009 0.617-0.020 0.21-0.016 0.361-0.026 0.534 0.024-0.2-0.455-0.774-1.475-1.867-1.402z"/><path fill="#ffbe55" d="M16.506 19.129c-0.002-0.004-0-0.008-0.002-0.012l-0.136 0.116c0.089 0.056 0.184 0.090 0.264 0.111-0.080-0.123-0.125-0.212-0.126-0.215z"/><path fill="#ffbe55" d="M15.943 17.797c-0.038-0.003-0.075-0.007-0.113-0.013-0.029 0.046-0.091 0.178 0.001 0.344 0.034 0.062 0.093 0.139 0.173 0.158 0.048 0.011 0.104-0.005 0.162-0.037-0.12-0.194-0.192-0.364-0.225-0.453z"/><path fill="#ffbe55" d="M17.984 14.285c0.104-0.078 0.293-0.223 0.517-0.415 0.067-0.427 0.316-0.825 0.539-1.107-0.227 0.031-0.459-0.024-0.655-0.108 0.262 0.702-0.305 1.479-0.412 1.617 0.003 0.005 0.007 0.009 0.011 0.014z"/><path fill="#ffbe55" d="M16.22 19.096l0.181-0.154c-0.117-0.041-0.23-0.107-0.322-0.207 0.014 0.064 0.052 0.194 0.141 0.362z"/><path fill="#ffbe55" d="M13.991 16.328c0.023-0.193 0.073-0.408 0.152-0.642-0.051-0.057-0.095-0.128-0.13-0.211-0.093 0.216-0.228 0.569-0.28 0.911 0.095-0.025 0.181-0.044 0.258-0.058z"/><path fill="#ffbe55" d="M17.487 13.895c0.023 0.13 0.008 0.279-0.054 0.451 0.038 0.067 0.069 0.159 0.069 0.26 0.079-0.017 0.085-0.065 0.109-0.326l0.010-0.108c0.010-0.099-0.008-0.175-0.053-0.224-0.023-0.026-0.052-0.041-0.082-0.054z"/><path fill="#ffbe55" d="M17.465 15.601c0.065-0.013 0.147-0.042 0.213-0.102 0.099-0.092 0.21-0.286 0.192-0.374-0.002-0.011-0.005-0.018-0.024-0.025-0.072-0.026-0.094-0.016-0.094-0.016-0.004 0.003-0.013 0.022-0.017 0.032-0.012 0.028-0.029 0.065-0.067 0.090-0.058 0.037-0.112 0.047-0.162 0.048 0.015 0.139-0.013 0.266-0.040 0.347z"/><path fill="#ffbe55" d="M13.806 14.726c0.014-0.092 0.040-0.177 0.077-0.254-0.182-0.068-0.592-0.2-0.927-0.154-0.474 0.064-0.834 0.011-1.062-0.051 0.109 0.113 0.297 0.23 0.592 0.218 0.73-0.015 1.148 0.15 1.321 0.241z"/><path fill="#ffbe55" d="M12.89 14.697c-0.173 0.135-0.3 0.298-0.387 0.437 0.268-0.139 0.613-0.278 0.841-0.365-0.123-0.031-0.274-0.057-0.454-0.072z"/><path fill="#ffbe55" d="M17.805 14.887c0.031 0.004 0.064 0.010 0.103 0.024-0.002-0.008-0.003-0.015-0.005-0.024-0.012-0.056-0.028-0.134-0.024-0.247-0-0.001-0-0.001-0-0.002s0-0.001 0-0.002c0-0.002-0-0.004-0-0.006 0.005-0.105-0.031-0.19-0.077-0.253-0.014 0.135-0.031 0.237-0.079 0.309 0.028 0.045 0.062 0.115 0.082 0.201z"/><path fill="#ffbe55" d="M18.063 14.476c0.003 0.015 0.006 0.029 0.009 0.045 0.585-0.079 1-0.668 1.24-1.139-0.509 0.539-1.081 0.972-1.249 1.094z"/><path fill="#ffbe55" d="M15.629 18.44h0c0.050-0 0.101-0.038 0.123-0.087-0.034-0.037-0.067-0.077-0.095-0.128-0.019-0.033-0.031-0.066-0.042-0.097-0.039 0.024-0.083 0.058-0.103 0.102-0.015 0.032-0.014 0.067 0.002 0.107 0.018 0.047 0.053 0.103 0.115 0.103z"/><path fill="#ffbe55" d="M13.525 16.447c0.040-0.359 0.171-0.732 0.274-0.98-0.065 0.049-0.146 0.1-0.245 0.148-0.011 0.025-0.213 0.477-0.289 0.924 0.092-0.035 0.179-0.065 0.261-0.092z"/><path fill="#ffbe55" d="M17.062 19.573c0.116 0.012 0.224 0.007 0.318-0.006-0.178-0.061-0.355-0.141-0.5-0.213 0.051 0.070 0.112 0.146 0.182 0.22z"/><path fill="#ffbe55" d="M15.634 17.73c-0.48-0.182-0.859-0.699-0.995-1.357-0.040 0.255-0.043 0.571 0.093 0.855 0.147 0.307 0.439 0.523 0.857 0.651 0.009-0.059 0.026-0.109 0.044-0.148z"/><path fill="#ffbe55" d="M18.19 14.709c-0.011 0.002-0.022 0.002-0.033 0.004 0.133 0.146 0.67 0.795 0.815 1.928 0.1 0.038 0.193 0.077 0.272 0.117-0.052-0.461-0.261-1.627-1.054-2.050z"/><path fill="#ffbe55" d="M13.050 16.624c0.042-0.345 0.163-0.699 0.245-0.909-0.084 0.026-0.176 0.049-0.279 0.069-0.18 0.302-0.289 0.754-0.339 1.009 0.133-0.064 0.255-0.119 0.373-0.169z"/><path fill="#ffbe55" d="M16.282 18.418c-0.050 0.029-0.097 0.048-0.14 0.059 0.111 0.22 0.318 0.296 0.494 0.315-0.142-0.113-0.258-0.243-0.354-0.374z"/><path fill="#ffbe55" d="M14.845 14.683c0.025-0.011 0.055-0.020 0.083-0.030-0.001-0.005-0.002-0.010-0.002-0.015-0.117-0.002-0.27-0.021-0.368-0.1-0.057-0.046-0.092-0.107-0.099-0.178-0.023-0.212 0.118-0.314 0.268-0.421 0.061-0.044 0.13-0.095 0.202-0.159-0.219-0.015-0.415 0.058-0.537 0.217-0.121 0.157-0.144 0.357-0.060 0.524 0.114 0.228 0.359 0.205 0.514 0.162z"/><path fill="#ffbe55" d="M14.576 14.905c-0.058-0.007-0.115-0.025-0.169-0.049-0.008 0.114-0.001 0.269 0.073 0.36 0.002-0.051 0.008-0.103 0.023-0.154 0.014-0.049 0.037-0.103 0.073-0.157z"/><path fill="#ffbe55" d="M15.324 14.973c0.238 0.019 0.42-0.042 0.529-0.093-0.182-0.13-0.315-0.099-0.403-0.058-0.141 0.066-0.299 0.061-0.405 0-0.039 0.018-0.082 0.036-0.132 0.050-0.111 0.056-0.184 0.135-0.216 0.237-0.010 0.032-0.012 0.064-0.014 0.095 0.002-0.002 0.002-0.005 0.004-0.007 0.229-0.164 0.443-0.238 0.637-0.225z"/><path fill="#ffbe55" d="M16.409 17.725c-0.082 0.032-0.166 0.056-0.253 0.068 0.058 0.137 0.171 0.371 0.351 0.59 0.094-0.158-0.017-0.497-0.098-0.657z"/><path fill="#ffbe55" d="M14.512 15.467c-0.212-0.063-0.294-0.257-0.309-0.458-0.046 0.095-0.070 0.215-0.024 0.347 0.092 0.266 0.293 0.344 0.411 0.368 0.001-0.031 0.003-0.062 0.005-0.093-0.001-0.001-0.002-0.001-0.002-0.002-0.028-0.030-0.058-0.089-0.081-0.163z"/><path fill="#ffbe55" d="M13.803 14.949c-0.007-0.003-0.015-0.002-0.022-0.007-0.001-0.001-0.047-0.031-0.132-0.070-0.3 0.162-0.469 0.492-0.546 0.689 0.544-0.132 0.716-0.379 0.75-0.437-0.025-0.059-0.041-0.117-0.050-0.175z"/><path fill="#ffbe55" d="M17.317 17.144c0.101-0.219 0.123-0.469 0.069-0.746-0.121 0.556-0.416 1.008-0.798 1.239 0.017 0.035 0.037 0.078 0.057 0.13 0.15-0.066 0.501-0.252 0.672-0.622z"/><path fill="#ffbe55" d="M17.558 15.039c0.012-0.033 0.030-0.066 0.057-0.094-0.012-0.062-0.037-0.114-0.057-0.148-0.030 0.008-0.063 0.014-0.101 0.017-0.003 0-0.005 0-0.008 0-0.020 0.037-0.047 0.074-0.081 0.109 0.030 0.038 0.057 0.077 0.076 0.117 0.005 0.003 0.012 0.001 0.016 0.005 0.008 0.006 0.045 0.028 0.098-0.006z"/><path fill="#ffbe55" d="M17.842 15.617c0.103 0.271 0.168 0.517 0.193 0.735 0.081 0.021 0.168 0.044 0.258 0.070-0.052-0.384-0.213-0.787-0.308-1-0.042 0.076-0.094 0.144-0.143 0.195z"/><path fill="#ffbe55" d="M17.825 16.299c-0.027-0.168-0.077-0.355-0.151-0.558-0.085 0.041-0.168 0.059-0.229 0.067 0 0.011 0.001 0.021 0.001 0.031 0 0.025-0.002 0.050-0.003 0.075 0.002 0.004 0.006 0.007 0.008 0.012 0.043 0.106 0.076 0.208 0.103 0.309 0.031 0.007 0.131 0.029 0.271 0.064z"/><path fill="#ffbe55" d="M18.501 16.482c0.085 0.026 0.171 0.053 0.254 0.081-0.126-0.808-0.457-1.345-0.642-1.588-0.002 0.039-0.010 0.081-0.033 0.13-0.003 0.006-0.008 0.008-0.012 0.014 0.001 0.011 0.003 0.022 0.002 0.033 0.007 0.007 0.015 0.015 0.020 0.024 0.014 0.028 0.354 0.695 0.411 1.306z"/><path fill="#ffd7aa" d="M16.015 17.603c0.679 0 1.232-0.791 1.232-1.764 0-0.053-0.002-0.106-0.005-0.158-0.132-0.198-0.363-0.337-0.431-0.375-0.407-0.007-0.679-0.189-0.795-0.284-0.115 0.067-0.365 0.176-0.707 0.151-0.139-0.009-0.297 0.046-0.475 0.166-0.034 0.162-0.051 0.33-0.051 0.5 0 0.973 0.553 1.764 1.232 1.764z"/><path fill="#ffd7aa" d="M11.195 18.849c0.018-0.005 0.201-0.055 0.47-0.077 1.242-0.28 2.7-1.171 2.963-1.336-0.026-0.041-0.055-0.080-0.076-0.124-0.131-0.273-0.152-0.565-0.13-0.82-0.187-0.012-0.758 0.015-1.831 0.566-0.014 0.007-0.030 0.011-0.046 0.011-0.020 0-0.041-0.006-0.058-0.018-0.030-0.022-0.046-0.058-0.041-0.095 0.003-0.022 0.054-0.369 0.17-0.739-0.617 0.129-1.919 1.444-2.636 2.168-0.135 0.137-0.257 0.26-0.361 0.362-0.014 0.014-0.029 0.027-0.045 0.041-0.091 0.080-0.184 0.163-0.118 0.64 0.061 0.44 0.634 0.485 1.060 0.488h0.031c0.134 0 0.457 0.112 1.016 0.309 0.543 0.192 1.158 0.409 1.557 0.483 0.191 0.035 0.37 0.067 0.534 0.097 0.504 0.090 0.868 0.155 1.058 0.233 0.231 0.096 0.486 0.568 0.707 1.003l0.042 0.083c0.13 0.251 0.155 0.566 0.064 0.82-0.044 0.124-0.013 0.189 0.003 0.211s0.034 0.030 0.044 0.030c0.051 0 0.088 0 0.13-0.13 0.052-0.164 0.065-0.18 0.283-0.444l0.060-0.072c0.225-0.273-0-0.832-0.109-1.102l-0.015-0.038c-0.077-0.192-0.009-0.395 0.057-0.59 0.045-0.133 0.091-0.27 0.091-0.401 0-0.029-0.008-0.048-0.026-0.065-0.105-0.099-0.46-0.080-0.72-0.067-0.096 0.005-0.186 0.010-0.264 0.010-0.402 0-1.047-0.402-1.985-1.015-0.465-0.303-1.017-0.33-1.391-0.3-0.155 0.034-0.307 0.058-0.454 0.072-0.051 0.004-0.098-0.030-0.107-0.081s0.022-0.1 0.071-0.114z"/><path fill="#ffd7aa" d="M22.669 12.291c-0.169 0.036-0.189 0.032-0.529-0.030l-0.089-0.016c-0.349-0.064-0.726 0.408-0.907 0.634l-0.026 0.032c-0.13 0.161-0.339 0.2-0.542 0.239-0.138 0.026-0.281 0.053-0.395 0.117-0.025 0.014-0.038 0.030-0.044 0.054-0.035 0.14 0.155 0.441 0.294 0.66 0.051 0.081 0.1 0.158 0.138 0.225 0.197 0.35 0.162 1.11 0.087 2.228-0.039 0.584 0.237 1.1 0.452 1.408 0.087 0.098 0.171 0.201 0.25 0.31 0.031 0.042 0.024 0.101-0.016 0.135s-0.099 0.031-0.136-0.005c-0.012-0.012-0.127-0.129-0.263-0.322-0.546-0.608-1.216-1.010-1.495-1.163 0.007 0.079 0.010 0.133 0.011 0.145 0.002 0.039-0.020 0.075-0.055 0.093-0.014 0.007-0.030 0.011-0.045 0.011-0.022 0-0.044-0.007-0.062-0.022-0.265-0.211-1.237-0.467-1.699-0.574 0.041 0.285 0.007 0.546-0.102 0.78-0.112 0.24-0.283 0.41-0.445 0.529 0.847 1.046 2.852 1.493 4.060 1.761 0.311 0.069 0.579 0.128 0.777 0.186 0.019 0.006 0.038 0.012 0.057 0.019 0.114 0.040 0.232 0.081 0.616-0.21 0.354-0.269 0.116-0.793-0.093-1.163l-0.015-0.027c-0.066-0.117-0.126-0.453-0.228-1.037-0.099-0.567-0.21-1.21-0.341-1.595-0.063-0.184-0.122-0.357-0.178-0.516-0.168-0.482-0.289-0.831-0.313-1.035-0.030-0.248 0.257-0.702 0.528-1.107l0.052-0.079c0.156-0.237 0.418-0.412 0.684-0.457 0.13-0.022 0.171-0.082 0.183-0.106s0.009-0.044 0.004-0.053c-0.025-0.044-0.043-0.078-0.177-0.049z"/><path fill="#ffd7aa" d="M9.664 12.223c0.116 0.127 0.123 0.146 0.243 0.468l0.033 0.087c0.124 0.332 0.722 0.416 1.009 0.456l0.040 0.006c0.205 0.029 0.346 0.189 0.482 0.344 0.093 0.105 0.189 0.214 0.303 0.28 0.025 0.014 0.046 0.017 0.069 0.010 0.138-0.041 0.3-0.358 0.417-0.59 0.044-0.085 0.085-0.167 0.124-0.234 0.2-0.348 0.871-0.706 1.871-1.213 0.551-0.28 0.858-0.823 1.004-1.164 0.034-0.112 0.071-0.218 0.114-0.318 0.021-0.048 0.074-0.071 0.124-0.055 0.049 0.017 0.078 0.069 0.065 0.12-0.004 0.015-0.039 0.146-0.117 0.332-0.268 0.91-0.255 2.199-0.238 2.719 0.202-0.221 0.393-0.271 0.525-0.271 0.146 0 0.279 0.064 0.386 0.176 0.112-0.145 0.239-0.173 0.332-0.172 0.169 0.004 0.308 0.112 0.397 0.225 0.097 0.005 0.317 0.031 0.478 0.168 0.221-1.084-0.287-2.624-0.629-3.661-0.107-0.325-0.2-0.605-0.258-0.829-0.005-0.020-0.009-0.039-0.013-0.059-0.024-0.118-0.049-0.241-0.495-0.421-0.412-0.168-0.741 0.305-0.952 0.674l-0.016 0.027c-0.067 0.116-0.325 0.34-0.776 0.727-0.437 0.374-0.932 0.799-1.195 1.107-0.126 0.147-0.243 0.286-0.351 0.414-0.329 0.392-0.567 0.675-0.731 0.8-0.199 0.153-0.736 0.138-1.224 0.112l-0.092-0.005c-0.154-0.007-0.306-0.053-0.444-0.124l-0.011-0.003-0.007-0.008c-0.107-0.059-0.205-0.131-0.281-0.219-0.049-0.058-0.093-0.083-0.128-0.094l-0.11 0.024c-0.022 0.040-0.032 0.074 0.053 0.167z"/><path fill="#464655" d="M23.020 12.243c-0.079-0.142-0.201-0.187-0.392-0.147-0.131 0.028-0.131 0.027-0.452-0.031l-0.090-0.016c-0.466-0.085-0.893 0.449-1.098 0.705l-0.025 0.031c-0.084 0.104-0.241 0.133-0.423 0.168-0.154 0.029-0.313 0.059-0.456 0.139-0.072 0.041-0.121 0.102-0.14 0.179-0.056 0.223 0.134 0.524 0.319 0.816 0.049 0.078 0.096 0.152 0.132 0.217 0.182 0.325 0.121 1.236 0.062 2.117-0.023 0.346 0.051 0.666 0.16 0.94-0.566-0.487-1.109-0.762-1.197-0.805-0.078-0.529-0.31-1.462-0.985-1.929 0.878-0.389 1.295-1.712 1.314-1.777 0.014-0.047-0.007-0.097-0.051-0.118s-0.096-0.009-0.125 0.030c-0.229 0.311-0.524 0.613-0.802 0.869 0.17-0.481 0.549-0.901 0.713-1.067 0.029-0.025 0.057-0.052 0.084-0.082 0.036-0.039 0.035-0.1-0.003-0.138-0.013-0.014-0.031-0.017-0.049-0.021 0.102-0.282 0.197-0.741-0.006-1.216-0.109-0.255-0.204-0.43-0.28-0.571-0.136-0.252-0.199-0.367-0.18-0.633 0.003-0.041-0.019-0.079-0.055-0.097s-0.080-0.012-0.11 0.015c-0.014 0.012-1.301 1.178-0.812 2.47-0.015 0.005-0.031 0.008-0.042 0.020-0.035 0.037-0.036 0.095-0.002 0.134 0.549 0.626-0.059 1.501-0.199 1.684-0.003-0.002-0.006-0.005-0.009-0.007 0-0.125-0.034-0.229-0.105-0.308-0.063-0.069-0.141-0.106-0.21-0.126 0.261-1.137-0.247-2.679-0.623-3.817-0.106-0.322-0.198-0.599-0.255-0.817-0.004-0.016-0.007-0.032-0.011-0.049-0.039-0.189-0.112-0.363-0.616-0.567-0.621-0.251-1.057 0.51-1.201 0.76l-0.015 0.027c-0.053 0.092-0.399 0.389-0.733 0.675-0.442 0.379-0.944 0.809-1.217 1.129-0.126 0.148-0.243 0.287-0.352 0.416-0.309 0.368-0.553 0.658-0.7 0.771-0.157 0.121-0.836 0.084-1.091 0.070l-0.094-0.005c-0.229-0.010-0.459-0.119-0.599-0.284-0.103-0.121-0.232-0.183-0.355-0.172-0.087 0.008-0.163 0.054-0.203 0.123-0.081 0.141-0.058 0.268 0.074 0.412 0.090 0.099 0.090 0.099 0.203 0.403l0.033 0.087c0.166 0.443 0.843 0.538 1.168 0.584l0.039 0.005c0.132 0.019 0.238 0.139 0.361 0.278 0.087 0.098 0.181 0.195 0.291 0.273-0.007 0.003-0.015 0.004-0.021 0.009-0.031 0.026-0.044 0.068-0.032 0.107 0.001 0.003 0.070 0.19 0.255 0.351-0.292 0.014-0.625-0.097-0.759-0.149-0.021-0.009-0.043-0.018-0.066-0.027-0.051-0.019-0.107 0.007-0.127 0.057-0.007 0.017-0.007 0.035-0.004 0.052-0.299 0.014-0.757 0.103-1.117 0.47-0.194 0.199-0.32 0.353-0.421 0.477-0.181 0.222-0.263 0.324-0.516 0.408-0.039 0.013-0.065 0.048-0.068 0.088s0.019 0.079 0.056 0.096c0.010 0.005 0.604 0.287 1.294 0.287 0.436 0 0.91-0.113 1.299-0.48 0.010 0.011 0.019 0.024 0.034 0.030 0.011 0.004 0.023 0.006 0.035 0.006 0.037 0 0.072-0.021 0.090-0.056 0.288-0.583 0.686-0.793 0.917-0.868-0.206 0.262-0.297 0.511-0.302 0.525-0.015 0.042 0.001 0.090 0.038 0.115s0.087 0.023 0.121-0.007c0.151-0.128 0.517-0.293 0.828-0.42-0.188 0.258-0.27 0.531-0.287 0.594-0.065 0.105-0.122 0.226-0.17 0.352-0.607 0.022-1.741 1.116-2.851 2.238-0.135 0.136-0.256 0.259-0.359 0.36-0.012 0.012-0.024 0.023-0.037 0.034-0.145 0.128-0.258 0.277-0.183 0.817 0.092 0.664 0.97 0.662 1.258 0.66h0.031c0.106 0 0.535 0.151 0.95 0.297 0.55 0.194 1.173 0.414 1.587 0.491 0.191 0.036 0.371 0.068 0.536 0.097 0.473 0.084 0.846 0.151 1.017 0.221 0.182 0.075 0.49 0.681 0.605 0.909l0.043 0.085c0.106 0.203 0.126 0.457 0.053 0.661-0.053 0.149-0.043 0.293 0.028 0.393 0.051 0.072 0.128 0.114 0.208 0.114 0.162 0 0.261-0.083 0.32-0.269 0.040-0.127 0.040-0.127 0.246-0.377l0.060-0.073c0.301-0.364 0.045-0.998-0.077-1.303l-0.015-0.037c-0.049-0.124 0.002-0.276 0.061-0.451 0.050-0.148 0.102-0.301 0.102-0.465 0-0.083-0.030-0.155-0.088-0.21-0.167-0.158-0.523-0.139-0.868-0.121-0.092 0.005-0.179 0.010-0.254 0.010-0.373 0-1.137-0.499-1.876-0.982-0.277-0.181-0.578-0.274-0.86-0.315 1.119-0.383 2.211-1.059 2.421-1.193 0.164 0.187 0.383 0.335 0.664 0.436-0.031 0.031-0.060 0.069-0.080 0.113-0.037 0.082-0.038 0.172-0.002 0.263 0.022 0.056 0.054 0.1 0.091 0.137-0.064 0.224-0.001 0.348 0.065 0.413-0.072 0.223-0.010 0.354 0.058 0.424 0.071 0.073 0.171 0.104 0.258 0.104 0.011 0 0.021-0.004 0.032-0.005 0.030 0.091 0.071 0.18 0.141 0.26l0.022 0.024c0.302 0.343 0.806 0.917 0.866 1.185 0.011 0.050 0.058 0.082 0.108 0.078s0.089-0.048 0.089-0.098c0-0.015 0.002-0.245-0.008-0.481 0.221 0.359 0.374 0.716 0.426 0.841 0.006 0.017 0.013 0.034 0.021 0.051 0.016 0.038 0.053 0.060 0.092 0.060 0.012 0 0.025-0.002 0.038-0.007 0.017-0.007 0.029-0.018 0.040-0.032 0.215 0.208 0.594 0.481 1.108 0.491 0.278 0.004 0.476-0.009 0.636-0.021 0.286-0.021 0.416-0.030 0.651 0.096 0.015 0.008 0.031 0.012 0.047 0.012 0.023 0 0.045-0.008 0.064-0.023 0.031-0.026 0.044-0.068 0.032-0.107-0.006-0.018-0.541-1.668-1.918-1.755 0.001-0.016 0.005-0.031-0.002-0.047-0.020-0.047-0.072-0.072-0.121-0.057-0.341 0.104-0.637-0.005-0.873-0.179 0.305-0.019 0.516-0.124 0.527-0.129 0.040-0.020 0.061-0.064 0.053-0.107s-0.044-0.077-0.088-0.081c-0.446-0.047-1.127-0.455-1.134-0.459-0.003-0.002-0.006-0.001-0.009-0.002 0.001-0.002 0.003-0.003 0.004-0.005 0.038 0.004 0.076 0.005 0.112 0.005 0.085 0 0.162-0.009 0.225-0.022 0.042-0.009 0.073-0.043 0.078-0.085s-0.017-0.083-0.055-0.102c-0.136-0.067-0.254-0.157-0.357-0.257 0.123-0.149 0.111-0.375 0.060-0.574 0.045-0.018 0.105-0.047 0.179-0.089 0.883 1.111 2.866 1.553 4.185 1.846 0.308 0.068 0.573 0.127 0.765 0.183 0.016 0.005 0.031 0.010 0.047 0.016 0.063 0.022 0.126 0.039 0.2 0.039 0.14 0 0.318-0.063 0.603-0.279 0.534-0.406 0.102-1.17-0.040-1.421l-0.015-0.027c-0.052-0.093-0.13-0.54-0.205-0.973-0.1-0.575-0.213-1.226-0.348-1.624-0.063-0.185-0.123-0.358-0.178-0.517-0.158-0.453-0.282-0.81-0.304-0.993-0.023-0.196 0.354-0.76 0.496-0.972l0.053-0.080c0.126-0.192 0.337-0.333 0.551-0.37 0.156-0.027 0.276-0.106 0.329-0.217 0.037-0.079 0.037-0.168-0.002-0.237zM22.842 12.393c-0.012 0.024-0.053 0.084-0.183 0.106-0.266 0.045-0.529 0.22-0.684 0.457l-0.052 0.079c-0.271 0.405-0.558 0.859-0.528 1.107 0.024 0.204 0.146 0.553 0.313 1.035 0.055 0.159 0.115 0.331 0.178 0.516 0.13 0.384 0.242 1.027 0.341 1.595 0.102 0.584 0.162 0.92 0.228 1.037l0.015 0.027c0.21 0.371 0.447 0.894 0.093 1.163-0.384 0.291-0.501 0.25-0.616 0.21-0.019-0.007-0.038-0.013-0.057-0.019-0.198-0.057-0.466-0.117-0.777-0.186-1.207-0.268-3.213-0.715-4.060-1.761 0.162-0.119 0.333-0.288 0.445-0.529 0.109-0.234 0.142-0.495 0.102-0.78 0.462 0.107 1.434 0.363 1.699 0.574 0.018 0.014 0.040 0.022 0.062 0.022 0.015 0 0.031-0.004 0.045-0.011 0.035-0.018 0.056-0.054 0.055-0.093-0-0.011-0.003-0.065-0.011-0.145 0.279 0.152 0.949 0.555 1.495 1.163 0.136 0.193 0.25 0.31 0.263 0.322 0.037 0.037 0.096 0.040 0.136 0.005s0.047-0.093 0.016-0.135c-0.079-0.108-0.163-0.212-0.25-0.31-0.215-0.308-0.492-0.824-0.452-1.408 0.075-1.118 0.11-1.878-0.087-2.228-0.038-0.068-0.087-0.145-0.138-0.225-0.139-0.22-0.329-0.521-0.294-0.66 0.006-0.024 0.019-0.041 0.044-0.054 0.115-0.065 0.257-0.091 0.395-0.117 0.202-0.038 0.412-0.078 0.542-0.239l0.026-0.032c0.181-0.226 0.558-0.698 0.907-0.634l0.089 0.016c0.339 0.062 0.36 0.066 0.529 0.030 0.134-0.028 0.152 0.005 0.177 0.049 0.005 0.009 0.007 0.029-0.004 0.053zM19.394 21.636c-0.155 0.011-0.348 0.026-0.617 0.020-0.714-0.014-1.149-0.633-1.153-0.639-0.001-0.001-0.002-0.001-0.002-0.002-0.014-0.346 0.251-0.613 0.439-0.757 1.093-0.072 1.667 0.947 1.867 1.402-0.172-0.050-0.323-0.039-0.534-0.024zM17.452 20.762c-0.177-0.351-0.449-0.805-0.783-1.104-0.051-0.045-0.093-0.091-0.136-0.136 0.121 0.037 0.223 0.050 0.268 0.053 0.227 0.279 0.576 0.589 1.022 0.619-0.16 0.147-0.308 0.341-0.372 0.567zM15.664 19.051c0.031 0.006 0.062 0.010 0.092 0.010 0.011 0 0.021-0.002 0.031-0.002-0.007 0.072-0.005 0.15 0.003 0.229-0.034-0.002-0.076-0.014-0.105-0.043-0.046-0.047-0.040-0.125-0.021-0.194zM15.822 18.853c-0.051 0.013-0.149 0.014-0.197-0.033-0.043-0.041-0.038-0.117-0.022-0.184 0.009 0.001 0.017 0.004 0.026 0.004 0 0 0 0 0 0 0.117-0 0.227-0.072 0.287-0.175 0.001 0.001 0.003 0.001 0.004 0.002 0 0 0 0.001 0 0.001 0.017 0.049 0.039 0.094 0.062 0.135-0.045-0.005-0.088 0.019-0.105 0.061-0.004 0.009-0.031 0.084-0.056 0.189zM11.231 19.044c0.147-0.013 0.299-0.038 0.454-0.072 0.374-0.030 0.926-0.004 1.391 0.3 0.938 0.613 1.583 1.015 1.985 1.015 0.078 0 0.168-0.005 0.264-0.010 0.26-0.013 0.615-0.032 0.72 0.067 0.018 0.017 0.026 0.036 0.026 0.065 0 0.131-0.046 0.269-0.091 0.401-0.066 0.195-0.134 0.397-0.057 0.59l0.015 0.038c0.108 0.269 0.334 0.829 0.109 1.102l-0.060 0.072c-0.218 0.264-0.231 0.28-0.283 0.444-0.041 0.13-0.078 0.13-0.13 0.13-0.011 0-0.029-0.008-0.044-0.030s-0.047-0.087-0.003-0.211c0.091-0.255 0.067-0.569-0.064-0.82l-0.042-0.083c-0.221-0.435-0.476-0.908-0.707-1.003-0.191-0.079-0.554-0.143-1.058-0.233-0.165-0.029-0.344-0.061-0.534-0.097-0.399-0.075-1.014-0.292-1.557-0.483-0.559-0.197-0.882-0.309-1.016-0.309h-0.031c-0.426-0.003-0.999-0.048-1.060-0.488-0.066-0.477 0.027-0.56 0.118-0.64 0.015-0.014 0.030-0.027 0.045-0.041 0.103-0.102 0.225-0.225 0.361-0.362 0.717-0.724 2.019-2.038 2.636-2.168-0.116 0.369-0.167 0.716-0.17 0.739-0.005 0.037 0.011 0.074 0.041 0.095 0.017 0.012 0.037 0.018 0.058 0.018 0.016 0 0.031-0.004 0.046-0.011 1.073-0.551 1.644-0.578 1.831-0.566-0.022 0.255-0.001 0.546 0.13 0.82 0.021 0.044 0.051 0.083 0.076 0.124-0.263 0.165-1.721 1.056-2.963 1.336-0.268 0.022-0.451 0.072-0.47 0.077-0.050 0.014-0.081 0.063-0.071 0.114s0.057 0.085 0.107 0.081zM11.601 15.246c-0.005-0.21-0.052-0.436-0.173-0.623 0.208 0.041 0.446 0.057 0.647-0.010l0.001-0c0.082 0.032 0.178 0.052 0.284 0.061-0.207 0.074-0.497 0.23-0.758 0.572zM9.476 15.461c0.098-0.121 0.22-0.271 0.408-0.463 0.499-0.51 1.248-0.402 1.256-0.401 0.001 0 0.002-0 0.002-0 0.262 0.226 0.275 0.603 0.251 0.839-0.696 0.846-1.832 0.565-2.301 0.398 0.155-0.091 0.251-0.209 0.384-0.372zM19.328 11.185c0.28 0.657-0.106 1.307-0.109 1.314-0 0.001-0 0.002-0.001 0.002-0.309 0.155-0.662 0.023-0.871-0.089-0.516-0.966 0.179-1.908 0.512-2.278 0.025 0.178 0.097 0.312 0.198 0.497 0.074 0.137 0.166 0.307 0.272 0.554zM18.386 12.654c0.196 0.084 0.428 0.139 0.655 0.108-0.223 0.283-0.472 0.681-0.539 1.107-0.224 0.192-0.414 0.338-0.517 0.415-0.003-0.005-0.007-0.009-0.011-0.014 0.106-0.137 0.674-0.915 0.412-1.617zM16.22 19.096c-0.090-0.167-0.128-0.298-0.141-0.362 0.092 0.101 0.205 0.167 0.322 0.207l-0.181 0.154zM16.504 19.116c0.001 0.004-0 0.008 0.002 0.012s0.046 0.092 0.126 0.215c-0.081-0.021-0.175-0.055-0.264-0.111l0.136-0.116zM16.537 19.807c0.1 0.090 0.195 0.196 0.283 0.31 0 0.003 0.001 0.006 0.001 0.010 0.017 0.099 0.026 0.241 0.031 0.378-0.173-0.254-0.432-0.556-0.707-0.869l-0.022-0.025c-0.133-0.151-0.152-0.357-0.137-0.53 0.092 0.202 0.257 0.465 0.55 0.726zM16.005 18.286c-0.081-0.019-0.139-0.096-0.173-0.158-0.093-0.166-0.030-0.298-0.001-0.344 0.037 0.007 0.075 0.011 0.113 0.013 0.033 0.088 0.105 0.259 0.225 0.453-0.059 0.031-0.114 0.048-0.162 0.037zM16.444 13.402c0.077 0.002 0.165 0.052 0.232 0.129-0.028 0.035-0.074 0.074-0.135 0.062-0.277-0.050-0.361 0.221-0.388 0.31-0.029 0.092-0.139 0.301-0.229 0.395-0.062-0.028-0.127-0.048-0.196-0.056 0.103-0.145 0.293-0.405 0.542-0.741 0.051-0.068 0.116-0.105 0.174-0.099zM15.887 14.5c0.090 0.057 0.166 0.154 0.253 0.266 0.055 0.070 0.118 0.145 0.188 0.219-0.146-0.075-0.228-0.156-0.229-0.158s-0.002-0.001-0.002-0.001-0-0.002-0.001-0.002c-0.241-0.233-0.487-0.295-0.73-0.182-0.083 0.039-0.164 0.033-0.207 0.016-0.025-0.009-0.034-0.020-0.034-0.021 0-0.003 0.004-0.016 0.023-0.035 0.113-0.119 0.511-0.246 0.739-0.101zM15.19 14.335c0.141-0.141 0.289-0.315 0.419-0.474l0.026-0.032c0.038-0.046 0.105-0.013 0.139 0.008-0.14 0.192-0.255 0.351-0.292 0.411-0.105 0.016-0.206 0.046-0.292 0.086zM16.55 14.43c0.157 0.036 0.241 0.079 0.283 0.123-0.147-0.024-0.359-0.023-0.525 0.104-0.004-0.005-0.008-0.010-0.012-0.015-0.067-0.086-0.135-0.162-0.209-0.23 0.037-0.043 0.073-0.092 0.105-0.144 0.070 0.045 0.212 0.128 0.358 0.161zM16.289 14.093c0.026-0.054 0.045-0.101 0.054-0.131 0.050-0.161 0.093-0.185 0.161-0.172 0.009 0.002 0.016 0.001 0.024 0.002 0.069 0.257 0.279 0.364 0.435 0.443 0.084 0.042 0.164 0.082 0.18 0.125 0.019 0.052-0.032 0.113-0.093 0.163-0.055-0.134-0.208-0.23-0.457-0.287-0.125-0.028-0.254-0.108-0.305-0.142zM14.834 15.339c0.177-0.121 0.336-0.175 0.475-0.166 0.342 0.025 0.592-0.085 0.707-0.151 0.116 0.096 0.388 0.277 0.795 0.284 0.068 0.038 0.299 0.176 0.431 0.375 0.003 0.052 0.005 0.105 0.005 0.158 0 0.973-0.552 1.764-1.232 1.764s-1.232-0.791-1.232-1.764c-0-0.17 0.017-0.338 0.050-0.5zM17.301 15.437c-0.136-0.146-0.292-0.248-0.37-0.293 0.091-0.019 0.188-0.051 0.278-0.101 0.106 0.131 0.112 0.281 0.092 0.393zM17.212 14.8c-0.183 0.171-0.503 0.176-0.596 0.174-0.067-0.050-0.126-0.105-0.179-0.164 0.189-0.136 0.497-0.028 0.501-0.027 0.010 0.004 0.020 0.004 0.031 0.005 0.001 0 0.003 0.001 0.004 0.001s0.001-0 0.002-0c0.014-0 0.028-0.003 0.040-0.009 0-0 0.001-0 0.001-0 0.093-0.044 0.213-0.128 0.282-0.235 0.015 0.074 0.008 0.168-0.085 0.254zM17.269 14.195c-0.056-0.058-0.133-0.099-0.215-0.14-0.139-0.069-0.277-0.145-0.327-0.309 0.054-0.033 0.096-0.077 0.126-0.12 0.096 0.007 0.298 0.040 0.393 0.176 0.065 0.092 0.071 0.226 0.024 0.393zM15.892 13.677c-0.1-0.068-0.282-0.131-0.411 0.026l-0.026 0.032c-0.122 0.149-0.494 0.603-0.68 0.679-0.002 0.001-0.004 0.003-0.006 0.004-0.034-0.009-0.064-0.021-0.085-0.037-0.016-0.012-0.023-0.025-0.025-0.043-0.009-0.087 0.029-0.125 0.185-0.237 0.119-0.085 0.281-0.201 0.436-0.408 0.238-0.317 0.536-0.374 0.716-0.157-0.035 0.047-0.069 0.094-0.104 0.141zM15.010 13.584c-0.312-0.043-0.599 0.061-0.776 0.291-0.073 0.095-0.116 0.204-0.136 0.314-0.012 0.005-0.026 0.005-0.035 0.015-0.025 0.025-0.052 0.058-0.078 0.093-0.175-0.069-0.649-0.233-1.057-0.178-0.471 0.064-0.819 0.002-1.022-0.057 0.217-0.070 0.377-0.384 0.532-0.688 0.042-0.082 0.081-0.16 0.118-0.225 0.186-0.322 1-0.735 1.788-1.135 0.331-0.168 0.581-0.417 0.764-0.669-0.143 0.903-0.115 1.889-0.099 2.238zM14.108 14.473c0.012 0.046 0.023 0.093 0.045 0.137 0.013 0.027 0.030 0.046 0.046 0.069-0.057 0.057-0.138 0.153-0.191 0.28-0.045-0.196 0.029-0.372 0.1-0.486zM14.013 15.474c0.035 0.084 0.080 0.154 0.13 0.211-0.079 0.234-0.13 0.449-0.152 0.642-0.077 0.014-0.163 0.033-0.258 0.058 0.052-0.342 0.187-0.695 0.28-0.911zM14.197 16.299c0.021-0.144 0.058-0.301 0.111-0.471 0.080 0.049 0.162 0.079 0.235 0.096-0.030 0.088-0.068 0.219-0.095 0.371-0.057-0.005-0.141-0.006-0.251 0.005zM13.799 15.466c-0.104 0.249-0.235 0.621-0.274 0.98-0.081 0.026-0.168 0.056-0.261 0.091 0.077-0.447 0.278-0.899 0.289-0.924 0.1-0.048 0.181-0.098 0.245-0.148zM13.103 15.561c0.077-0.197 0.246-0.527 0.546-0.689 0.085 0.039 0.131 0.069 0.132 0.070 0.007 0.005 0.015 0.004 0.022 0.007 0.009 0.058 0.025 0.116 0.050 0.175-0.034 0.058-0.206 0.305-0.75 0.437zM14.59 15.725c-0.118-0.025-0.319-0.102-0.411-0.368-0.046-0.133-0.021-0.252 0.024-0.347 0.015 0.201 0.097 0.395 0.309 0.458 0.023 0.074 0.053 0.133 0.081 0.164 0.001 0.001 0.002 0.001 0.002 0.002-0.002 0.031-0.004 0.062-0.005 0.092zM14.406 14.855c0.055 0.024 0.111 0.043 0.169 0.049-0.036 0.054-0.059 0.108-0.073 0.157-0.015 0.051-0.021 0.103-0.023 0.154-0.074-0.091-0.081-0.246-0.073-0.36zM14.332 14.521c-0.083-0.166-0.060-0.367 0.060-0.524 0.122-0.159 0.318-0.232 0.537-0.217-0.072 0.064-0.141 0.115-0.202 0.159-0.149 0.107-0.291 0.209-0.268 0.421 0.008 0.070 0.042 0.132 0.099 0.178 0.098 0.078 0.251 0.097 0.368 0.1 0 0.005 0.001 0.010 0.002 0.015-0.028 0.010-0.059 0.019-0.083 0.030-0.155 0.043-0.4 0.066-0.514-0.162zM14.697 15.11c0.032-0.102 0.105-0.181 0.216-0.237 0.050-0.014 0.092-0.032 0.132-0.050 0.107 0.061 0.264 0.066 0.405 0 0.088-0.041 0.22-0.072 0.403 0.058-0.109 0.051-0.291 0.112-0.529 0.093-0.194-0.012-0.408 0.061-0.637 0.225-0.002 0.002-0.002 0.005-0.004 0.007 0.002-0.031 0.004-0.063 0.014-0.095zM16.156 17.793c0.087-0.012 0.171-0.035 0.253-0.068 0.082 0.16 0.192 0.499 0.098 0.657-0.18-0.219-0.294-0.453-0.351-0.59zM17.386 16.398c0.053 0.277 0.032 0.527-0.069 0.746-0.171 0.371-0.522 0.557-0.672 0.622-0.020-0.051-0.039-0.095-0.057-0.13 0.382-0.23 0.677-0.683 0.798-1.239zM17.444 15.914c0.001-0.025 0.003-0.050 0.003-0.075 0-0.011-0.001-0.021-0.001-0.031 0.061-0.008 0.144-0.025 0.229-0.067 0.074 0.203 0.125 0.39 0.151 0.558-0.141-0.035-0.24-0.057-0.271-0.064-0.026-0.101-0.059-0.203-0.103-0.309-0.002-0.005-0.005-0.008-0.008-0.012zM17.443 15.041c-0.019-0.040-0.046-0.078-0.076-0.117 0.034-0.036 0.061-0.072 0.081-0.109 0.003-0 0.005-0 0.008-0 0.038-0.004 0.071-0.010 0.101-0.017 0.021 0.034 0.046 0.086 0.057 0.148-0.026 0.028-0.044 0.062-0.057 0.094-0.053 0.034-0.090 0.012-0.098 0.007-0.005-0.004-0.011-0.002-0.017-0.005zM18.293 16.421c-0.090-0.025-0.177-0.049-0.258-0.070-0.026-0.218-0.090-0.464-0.193-0.735 0.049-0.051 0.1-0.12 0.143-0.195 0.095 0.214 0.257 0.617 0.308 1zM18.068 15.118c0.004-0.005 0.009-0.008 0.012-0.014 0.023-0.049 0.032-0.091 0.033-0.13 0.185 0.242 0.516 0.779 0.642 1.588-0.083-0.028-0.169-0.055-0.254-0.081-0.057-0.611-0.397-1.278-0.411-1.306-0.005-0.010-0.012-0.017-0.020-0.024 0-0.011-0.001-0.022-0.002-0.033zM18.972 16.641c-0.145-1.133-0.682-1.782-0.815-1.928 0.011-0.002 0.022-0.002 0.033-0.004 0.793 0.422 1.002 1.588 1.054 2.049-0.079-0.040-0.172-0.079-0.272-0.117zM18.071 14.52c-0.002-0.015-0.005-0.030-0.009-0.045 0.167-0.123 0.739-0.555 1.249-1.094-0.24 0.471-0.655 1.060-1.24 1.139zM17.879 14.63c-0 0.002 0 0.004 0 0.006 0 0.001-0 0.001-0 0.002s0 0.001 0 0.002c-0.004 0.113 0.012 0.191 0.024 0.247 0.002 0.009 0.003 0.016 0.005 0.024-0.039-0.013-0.072-0.020-0.103-0.024-0.020-0.086-0.053-0.156-0.082-0.201 0.048-0.072 0.066-0.174 0.079-0.309 0.046 0.063 0.082 0.148 0.077 0.253zM17.735 15.117c0.005-0.011 0.013-0.029 0.017-0.032-0-0 0.022-0.010 0.094 0.016 0.019 0.007 0.022 0.014 0.024 0.025 0.018 0.087-0.092 0.282-0.192 0.374-0.066 0.061-0.148 0.089-0.213 0.102 0.027-0.081 0.055-0.208 0.040-0.347 0.050-0 0.105-0.010 0.162-0.048 0.038-0.024 0.055-0.062 0.067-0.090zM17.611 14.281c-0.024 0.261-0.030 0.309-0.109 0.326-0-0.101-0.032-0.194-0.069-0.26 0.062-0.173 0.077-0.322 0.054-0.451 0.029 0.012 0.058 0.028 0.082 0.054 0.045 0.050 0.063 0.125 0.053 0.224l-0.010 0.108zM12.955 14.318c0.335-0.046 0.746 0.086 0.927 0.154-0.036 0.077-0.063 0.162-0.077 0.254-0.173-0.090-0.591-0.255-1.322-0.241-0.294 0.012-0.482-0.105-0.592-0.218 0.229 0.061 0.589 0.114 1.062 0.051zM12.89 14.697c0.18 0.015 0.331 0.041 0.454 0.072-0.228 0.087-0.572 0.226-0.841 0.365 0.087-0.139 0.214-0.302 0.387-0.437zM13.296 15.714c-0.082 0.21-0.204 0.565-0.245 0.909-0.117 0.049-0.24 0.104-0.373 0.169 0.050-0.255 0.159-0.708 0.339-1.009 0.102-0.020 0.195-0.042 0.279-0.069zM14.732 17.227c-0.136-0.284-0.133-0.599-0.093-0.855 0.136 0.657 0.515 1.174 0.995 1.357-0.019 0.039-0.036 0.089-0.044 0.148-0.418-0.127-0.71-0.343-0.857-0.651zM15.513 18.23c0.020-0.044 0.063-0.078 0.103-0.102 0.011 0.032 0.023 0.064 0.042 0.097 0.028 0.050 0.060 0.091 0.095 0.128-0.022 0.050-0.073 0.087-0.123 0.087h-0c-0.062 0-0.097-0.056-0.115-0.103-0.016-0.041-0.017-0.075-0.002-0.107zM17.062 19.573c-0.070-0.074-0.131-0.149-0.182-0.22 0.145 0.072 0.322 0.153 0.5 0.213-0.094 0.013-0.202 0.019-0.318 0.006zM16.143 18.477c0.043-0.011 0.090-0.029 0.14-0.059 0.097 0.131 0.212 0.261 0.354 0.374-0.176-0.020-0.383-0.095-0.494-0.315zM9.664 12.023c0.011-0.001 0.032 0.001 0.057 0.009 0.034 0.011 0.078 0.036 0.128 0.094 0.075 0.089 0.174 0.161 0.281 0.219 0.006 0.003 0.012 0.008 0.018 0.011 0.137 0.071 0.29 0.117 0.444 0.124l0.092 0.005c0.488 0.026 1.025 0.041 1.224-0.112 0.163-0.126 0.402-0.409 0.731-0.8 0.108-0.128 0.225-0.267 0.351-0.414 0.263-0.308 0.759-0.732 1.195-1.107 0.451-0.386 0.709-0.61 0.776-0.727l0.016-0.027c0.211-0.369 0.54-0.842 0.952-0.674 0.446 0.181 0.471 0.303 0.495 0.421 0.004 0.020 0.008 0.040 0.013 0.059 0.058 0.224 0.151 0.504 0.258 0.829 0.343 1.037 0.85 2.577 0.629 3.661-0.16-0.137-0.38-0.163-0.478-0.168-0.089-0.112-0.229-0.22-0.397-0.225-0.093-0.001-0.22 0.027-0.332 0.172-0.107-0.112-0.24-0.176-0.386-0.176-0.132 0-0.324 0.050-0.525 0.271-0.018-0.519-0.030-1.808 0.238-2.719 0.079-0.185 0.114-0.316 0.117-0.332 0.013-0.051-0.015-0.103-0.065-0.12-0.050-0.015-0.103 0.007-0.124 0.055-0.043 0.099-0.080 0.206-0.114 0.318-0.146 0.341-0.453 0.885-1.004 1.164-1 0.507-1.67 0.865-1.871 1.213-0.039 0.067-0.080 0.149-0.124 0.234-0.118 0.232-0.279 0.549-0.417 0.59-0.024 0.007-0.044 0.004-0.069-0.010-0.114-0.066-0.21-0.174-0.303-0.28-0.136-0.155-0.277-0.314-0.482-0.344l-0.040-0.006c-0.287-0.040-0.885-0.125-1.009-0.456l-0.033-0.087c-0.12-0.321-0.127-0.341-0.243-0.468-0.085-0.093-0.075-0.127-0.053-0.167 0.002-0.003 0.003-0.007 0.005-0.010 0.006-0.009 0.021-0.021 0.048-0.024z"/></svg>