<!-- Generated by IcoMoon.io -->
<svg version="1.1" xmlns="http://www.w3.org/2000/svg" width="32" height="32" viewBox="0 0 32 32">
<title>sint-eustatius</title>
<path fill="#41479b" d="M29.604 26.484h-27.208c-1.324 0-2.396-1.072-2.396-2.396v-16.176c0-1.324 1.072-2.396 2.396-2.396h27.208c1.324 0 2.396 1.072 2.396 2.396v16.172c0 1.324-1.072 2.4-2.396 2.4z"></path>
<path fill="#f5f5f5" d="M16 11.152l-9.16 4.848 9.16 4.848 9.16-4.848z"></path>
<path fill="#73af00" d="M12.956 19.116h5.972l4.156-2.2-1.868-1.872h-0.652l-0.484 0.484-0.344-0.344h-0.688l-2.636 2.636h-3.312l-0.752-1.112h-0.956l-0.376 0.524h-0.424l-0.252 0.5z"></path>
<path fill="#ffe15a" d="M16.072 13.356l0.22 0.656 0.692 0.004c0.088 0 0.128 0.116 0.056 0.168l-0.556 0.416 0.208 0.66c0.028 0.084-0.072 0.156-0.144 0.104l-0.564-0.404-0.564 0.404c-0.072 0.052-0.172-0.020-0.144-0.104l0.208-0.66-0.556-0.412c-0.072-0.052-0.036-0.168 0.056-0.168l0.692-0.004 0.22-0.656c0.028-0.088 0.148-0.088 0.176-0.004z"></path>
<path fill="#ff4b55" d="M29.604 5.516h-27.208c-1.324 0-2.396 1.072-2.396 2.396v16.172c0 1.324 1.072 2.396 2.396 2.396h27.208c1.324 0 2.396-1.072 2.396-2.396v-16.172c0-1.32-1.072-2.396-2.396-2.396zM1.104 6.62h14.344v4.080l-8.964 4.748h-5.38c0 0 0-8.828 0-8.828zM15.448 25.38h-14.344v-8.828h5.38l8.964 4.744v4.084zM7.8 16l8.2-4.34 8.2 4.34-8.2 4.34-8.2-4.34zM30.896 25.38h-14.344v-4.080l8.964-4.744h5.38v8.824zM30.896 15.448h-5.38l-8.964-4.744v-4.080h14.344v8.824z"></path>
</svg>
