<svg xmlns="http://www.w3.org/2000/svg" width="32" height="32" version="1.1" viewBox="0 0 32 32"><title>solomon-islands</title><path fill="#41479b" d="M29.618 5.517h-27.236c-1.317 0.008-2.382 1.077-2.382 2.396v16.172c0 1.324 1.073 2.397 2.397 2.397h27.207c1.324 0 2.397-1.073 2.397-2.397v-16.172c0-1.319-1.065-2.389-2.382-2.396z"/><path fill="#73af00" d="M31.144 6.078l-30.288 19.843c0.417 0.35 0.954 0.561 1.54 0.561h27.207c1.324 0 2.397-1.073 2.397-2.397v-16.172c0-0.737-0.333-1.396-0.856-1.835z"/><path fill="#ffe15a" d="M32 6.069c0-0.305-0.247-0.552-0.552-0.552h-0.959l-30.49 19.976v0.438c0 0.305 0.247 0.552 0.552 0.552h0.959l30.49-19.976v-0.438z"/><path fill="#f5f5f5" d="M2.777 7.236l-0.295 0.886-0.933 0.007c-0.089 0.001-0.127 0.115-0.055 0.168l0.751 0.555-0.282 0.89c-0.027 0.085 0.070 0.156 0.143 0.104l0.76-0.543 0.76 0.543c0.073 0.052 0.17-0.019 0.143-0.104l-0.282-0.89 0.751-0.555c0.072-0.053 0.035-0.167-0.055-0.168l-0.933-0.007-0.295-0.886c-0.028-0.085-0.148-0.085-0.177 0z"/><path fill="#f5f5f5" d="M9.888 7.236l-0.295 0.886-0.934 0.007c-0.089 0.001-0.127 0.115-0.055 0.168l0.751 0.555-0.282 0.89c-0.027 0.085 0.070 0.156 0.143 0.104l0.759-0.543 0.759 0.543c0.073 0.052 0.17-0.019 0.143-0.104l-0.282-0.89 0.751-0.555c0.072-0.053 0.035-0.167-0.055-0.168l-0.934-0.007-0.295-0.886c-0.028-0.085-0.149-0.085-0.177 0z"/><path fill="#f5f5f5" d="M6.332 10.405l-0.295 0.886-0.934 0.007c-0.090 0.001-0.127 0.115-0.055 0.168l0.751 0.555-0.282 0.89c-0.027 0.085 0.070 0.156 0.143 0.104l0.76-0.543 0.76 0.543c0.073 0.052 0.17-0.019 0.143-0.104l-0.282-0.89 0.751-0.555c0.072-0.053 0.035-0.167-0.055-0.168l-0.934-0.007-0.295-0.886c-0.029-0.085-0.149-0.085-0.177 0z"/><path fill="#f5f5f5" d="M2.777 13.573l-0.295 0.886-0.933 0.007c-0.089 0.001-0.127 0.115-0.055 0.168l0.751 0.555-0.282 0.89c-0.027 0.085 0.070 0.156 0.143 0.104l0.76-0.543 0.76 0.543c0.073 0.052 0.17-0.019 0.143-0.104l-0.282-0.89 0.751-0.555c0.072-0.053 0.035-0.167-0.055-0.168l-0.933-0.007-0.295-0.886c-0.028-0.085-0.148-0.085-0.177 0z"/><path fill="#f5f5f5" d="M9.888 13.573l-0.295 0.886-0.934 0.007c-0.089 0.001-0.127 0.115-0.055 0.168l0.751 0.555-0.282 0.89c-0.027 0.085 0.070 0.156 0.143 0.104l0.759-0.543 0.759 0.543c0.073 0.052 0.17-0.019 0.143-0.104l-0.282-0.89 0.751-0.555c0.072-0.053 0.035-0.167-0.055-0.168l-0.934-0.007-0.295-0.886c-0.028-0.085-0.149-0.085-0.177 0z"/></svg>