<!-- Generated by IcoMoon.io -->
<svg version="1.1" xmlns="http://www.w3.org/2000/svg" width="32" height="32" viewBox="0 0 32 32">
<title>somalia</title>
<path fill="#82afff" d="M29.603 26.483h-27.207c-1.324 0-2.397-1.073-2.397-2.397v-16.172c0-1.324 1.073-2.397 2.397-2.397h27.207c1.324 0 2.397 1.073 2.397 2.397v16.172c0 1.324-1.073 2.396-2.397 2.396z"></path>
<path fill="#f5f5f5" d="M15.842 12.091l-0.926 2.776-2.926 0.023c-0.16 0.001-0.227 0.206-0.098 0.301l2.354 1.738-0.883 2.79c-0.048 0.153 0.126 0.279 0.256 0.186l2.38-1.701 2.38 1.701c0.131 0.093 0.305-0.033 0.256-0.186l-0.883-2.79 2.354-1.738c0.129-0.095 0.063-0.3-0.098-0.301l-2.926-0.023-0.926-2.776c-0.051-0.152-0.266-0.152-0.317-0z"></path>
</svg>
