<svg xmlns="http://www.w3.org/2000/svg" width="32" height="32" version="1.1" viewBox="0 0 32 32"><title>spain</title><path fill="#c8414b" d="M0 24.086c0 1.324 1.073 2.397 2.397 2.397h27.207c1.324 0 2.397-1.073 2.397-2.397v-2.017h-32v2.017z"/><path fill="#c8414b" d="M29.603 5.517h-27.207c-1.324 0-2.397 1.073-2.397 2.397v2.017h32v-2.017c0-1.324-1.073-2.397-2.397-2.397z"/><path fill="#ffd250" d="M0 9.931h32v12.138h-32v-12.138z"/><path fill="#c8414b" d="M13.517 16l0.468-2.105c0.043-0.194-0.104-0.378-0.303-0.378h-0.329c-0.199 0-0.346 0.184-0.303 0.378l0.468 2.105z"/><path fill="#f5f5f5" d="M12.966 14.896h1.103v4.689h-1.103v-4.689z"/><path fill="#fab446" d="M12.689 14.345h1.655v0.552h-1.655v-0.552z"/><path fill="#c8414b" d="M11.586 16h2.759v0.552h-2.759v-0.552z"/><path fill="#c8414b" d="M14.345 18.207l-1.655-0.552v-0.552l1.655 0.552z"/><path fill="#c8414b" d="M5.241 16l0.468-2.105c0.043-0.194-0.104-0.378-0.303-0.378h-0.33c-0.199 0-0.346 0.184-0.303 0.378l0.468 2.105z"/><path fill="#f5f5f5" d="M7.172 14.345c-0.305 0-0.552 0.247-0.552 0.552v3.586c0 0.67 0.626 1.931 2.759 1.931s2.759-1.261 2.759-1.931v-3.586c0-0.305-0.247-0.552-0.552-0.552h-4.414z"/><path fill="#c8414b" d="M9.379 17.103h-2.759v-2.207c0-0.305 0.247-0.552 0.552-0.552h2.207v2.759z"/><path fill="#c8414b" d="M9.379 17.103h2.759v1.379c0 0.762-0.617 1.379-1.379 1.379v0c-0.762 0-1.379-0.617-1.379-1.379v-1.379z"/><path fill="#fab446" d="M6.621 17.103h2.759v1.379c0 0.762-0.617 1.379-1.379 1.379v0c-0.762 0-1.379-0.617-1.379-1.379v-1.379z"/><path fill="#c8414b" d="M8.828 19.58v-2.477h-0.552v2.731c0.205-0.042 0.391-0.133 0.552-0.254z"/><path fill="#c8414b" d="M7.724 19.834v-2.731h-0.552v2.477c0.161 0.122 0.347 0.213 0.552 0.254z"/><path fill="#ffb441" d="M7.173 16h1.655v0.552h-1.655v-0.552z"/><path fill="#fab446" d="M7.173 14.896h1.655v0.552h-1.655v-0.552z"/><path fill="#fab446" d="M7.448 15.224h1.103v0.999h-1.103v-0.999z"/><path fill="#f5f5f5" d="M4.689 14.896h1.103v4.689h-1.103v-4.689z"/><path fill="#fab446" d="M4.414 19.311h1.655v0.552h-1.655v-0.552z"/><path fill="#fab446" d="M4.414 14.345h1.655v0.552h-1.655v-0.552z"/><path fill="#5064aa" d="M4.138 19.862h2.207v0.552h-2.207v-0.552z"/><path fill="#fab446" d="M12.966 19.311h1.655v0.552h-1.655v-0.552z"/><path fill="#5064aa" d="M12.414 19.862h2.207v0.552h-2.207v-0.552z"/><path fill="#fab446" d="M7.724 13.793h3.31v0.552h-3.31v-0.552z"/><path fill="#ffb441" d="M9.104 12.138h0.552v1.655h-0.552v-1.655z"/><path fill="#f5f5f5" d="M8.828 12.966c-0.456 0-0.828-0.371-0.828-0.828s0.371-0.828 0.828-0.828c0.456 0 0.828 0.371 0.828 0.828s-0.371 0.828-0.828 0.828zM8.828 11.862c-0.152 0-0.276 0.124-0.276 0.276s0.124 0.276 0.276 0.276 0.276-0.124 0.276-0.276c0-0.152-0.124-0.276-0.276-0.276z"/><path fill="#f5f5f5" d="M9.931 12.966c-0.456 0-0.828-0.371-0.828-0.828s0.371-0.828 0.828-0.828c0.456 0 0.828 0.371 0.828 0.828s-0.371 0.828-0.828 0.828zM9.931 11.862c-0.152 0-0.276 0.124-0.276 0.276s0.124 0.276 0.276 0.276c0.152 0 0.276-0.124 0.276-0.276s-0.124-0.276-0.276-0.276z"/><path fill="#f5f5f5" d="M11.034 13.517c-0.456 0-0.828-0.371-0.828-0.828s0.371-0.828 0.828-0.828c0.456 0 0.828 0.371 0.828 0.828s-0.371 0.828-0.828 0.828zM11.034 12.414c-0.152 0-0.276 0.124-0.276 0.276s0.124 0.276 0.276 0.276c0.152 0 0.276-0.124 0.276-0.276s-0.124-0.276-0.276-0.276z"/><path fill="#f5f5f5" d="M7.724 13.517c-0.456 0-0.828-0.371-0.828-0.828s0.371-0.828 0.828-0.828c0.456 0 0.828 0.371 0.828 0.828s-0.371 0.828-0.828 0.828zM7.724 12.414c-0.152 0-0.276 0.124-0.276 0.276s0.124 0.276 0.276 0.276 0.276-0.124 0.276-0.276c0-0.152-0.124-0.276-0.276-0.276z"/><path fill="#fab446" d="M11.034 18.207v0.276c0 0.152-0.124 0.276-0.276 0.276s-0.276-0.124-0.276-0.276v-0.276h0.552zM11.586 17.655h-1.655v0.828c0 0.456 0.371 0.828 0.828 0.828s0.828-0.371 0.828-0.828v-0.828h0z"/><path fill="#ffa0d2" d="M10.759 16.552v0c-0.305 0-0.552-0.247-0.552-0.552v-0.552c0-0.305 0.247-0.552 0.552-0.552v0c0.305 0 0.552 0.247 0.552 0.552v0.552c0 0.305-0.247 0.552-0.552 0.552z"/><path fill="#5064aa" d="M10.207 17.103c0 0.457-0.37 0.828-0.828 0.828s-0.828-0.37-0.828-0.828c0-0.457 0.37-0.828 0.828-0.828s0.828 0.37 0.828 0.828z"/><path fill="#fab446" d="M9.104 11.034h0.552v1.655h-0.552v-1.655z"/><path fill="#c8414b" d="M7.724 13.793l-0.552-0.552 0.323-0.323c0.5-0.5 1.177-0.78 1.884-0.78v0c0.707 0 1.384 0.281 1.884 0.78l0.323 0.323-0.552 0.552h-3.31z"/><path fill="#ffd250" d="M9.655 13.241c0 0.152-0.123 0.276-0.276 0.276s-0.276-0.123-0.276-0.276c0-0.152 0.123-0.276 0.276-0.276s0.276 0.123 0.276 0.276z"/><path fill="#ffd250" d="M8.552 13.241c0 0.152-0.123 0.276-0.276 0.276s-0.276-0.123-0.276-0.276c0-0.152 0.124-0.276 0.276-0.276s0.276 0.123 0.276 0.276z"/><path fill="#ffd250" d="M10.758 13.241c0 0.152-0.123 0.276-0.276 0.276s-0.276-0.123-0.276-0.276c0-0.152 0.123-0.276 0.276-0.276s0.276 0.123 0.276 0.276z"/><path fill="#c8414b" d="M4.414 16h2.759v0.552h-2.759v-0.552z"/><path fill="#c8414b" d="M4.414 18.207l1.655-0.552v-0.552l-1.655 0.552z"/></svg>