<!-- Generated by IcoMoon.io -->
<svg version="1.1" xmlns="http://www.w3.org/2000/svg" width="32" height="32" viewBox="0 0 32 32">
<title>st-vincent-and-the-grenadines</title>
<path fill="#ffe15a" d="M7.173 5.517h17.655v20.966h-17.655v-20.966z"></path>
<path fill="#73af00" d="M29.603 26.483c1.324 0 2.397-1.073 2.397-2.397v-16.172c0-1.324-1.073-2.397-2.397-2.397h-4.776v20.965h4.776z"></path>
<path fill="#4173cd" d="M2.397 26.483h4.776v-20.965h-4.776c-1.324 0-2.397 1.073-2.397 2.397v16.172c0 1.324 1.073 2.396 2.397 2.396z"></path>
<path fill="#73af00" d="M11.993 15.717l1.79 3.579 1.79-3.579-1.79-3.579z"></path>
<path fill="#73af00" d="M16.428 15.717l1.79 3.579 1.79-3.579-1.79-3.579z"></path>
<path fill="#73af00" d="M14.21 20.020l1.79 3.579 1.79-3.579-1.79-3.579z"></path>
</svg>
