<svg xmlns="http://www.w3.org/2000/svg" width="32" height="32" version="1.1" viewBox="0 0 32 32"><title>sudan</title><path fill="#ff4b55" d="M29.603 5.517h-27.207c-1.324 0-2.397 1.073-2.397 2.397v4.592h32v-4.592c0-1.324-1.073-2.397-2.397-2.397z"/><path fill="#464655" d="M0 24.086c0 1.324 1.073 2.397 2.397 2.397h27.207c1.324 0 2.397-1.073 2.397-2.397v-4.592h-32v4.592z"/><path fill="#f5f5f5" d="M0 12.506h32v6.988h-32v-6.988z"/><path fill="#73af00" d="M0.802 25.875l12.079-9.589c0.184-0.146 0.184-0.426 0-0.572l-12.079-9.589c-0.492 0.439-0.802 1.077-0.802 1.788v16.172c0 0.711 0.31 1.349 0.802 1.788z"/></svg>