<!-- Generated by IcoMoon.io -->
<svg version="1.1" xmlns="http://www.w3.org/2000/svg" width="32" height="32" viewBox="0 0 32 32">
<title>suriname</title>
<path fill="#73af00" d="M29.618 5.517h-27.236c-1.317 0.008-2.382 1.077-2.382 2.396v16.172c0 1.324 1.073 2.397 2.397 2.397h27.207c1.324 0 2.397-1.073 2.397-2.397v-16.172c0-1.319-1.065-2.388-2.382-2.396z"></path>
<path fill="#f5f5f5" d="M0 9.379h32v2.207h-32v-2.207z"></path>
<path fill="#f5f5f5" d="M0 20.414h32v2.207h-32v-2.207z"></path>
<path fill="#c8414b" d="M0 11.586h32v8.828h-32v-8.828z"></path>
<path fill="#ffe15a" d="M15.863 12.601l-0.803 2.409-2.539 0.020c-0.139 0.001-0.197 0.179-0.085 0.261l2.043 1.508-0.766 2.421c-0.042 0.133 0.109 0.243 0.222 0.162l2.066-1.477 2.066 1.477c0.113 0.081 0.264-0.029 0.222-0.162l-0.766-2.421 2.043-1.508c0.112-0.083 0.054-0.26-0.085-0.261l-2.539-0.020-0.803-2.409c-0.044-0.132-0.231-0.132-0.275 0z"></path>
</svg>
