<svg xmlns="http://www.w3.org/2000/svg" width="32" height="32" version="1.1" viewBox="0 0 32 32"><title>switzerland</title><path fill="#ff4b55" d="M29.603 26.483h-27.207c-1.324 0-2.397-1.073-2.397-2.397v-16.172c0-1.324 1.073-2.397 2.397-2.397h27.207c1.324 0 2.397 1.073 2.397 2.397v16.172c0 1.324-1.073 2.396-2.397 2.396z"/><path fill="#f5f5f5" d="M22.069 13.793h-3.862v-3.862c0-0.305-0.247-0.552-0.552-0.552h-3.31c-0.305 0-0.552 0.247-0.552 0.552v3.862h-3.862c-0.305 0-0.552 0.247-0.552 0.552v3.31c0 0.305 0.247 0.552 0.552 0.552h3.862v3.862c0 0.305 0.247 0.552 0.552 0.552h3.31c0.305 0 0.552-0.247 0.552-0.552v-3.862h3.862c0.305 0 0.552-0.247 0.552-0.552v-3.31c0-0.305-0.247-0.552-0.552-0.552z"/></svg>