<!-- Generated by IcoMoon.io -->
<svg version="1.1" xmlns="http://www.w3.org/2000/svg" width="32" height="32" viewBox="0 0 32 32">
<title>syria</title>
<path fill="#ff4b55" d="M29.603 5.517h-27.207c-1.324 0-2.397 1.073-2.397 2.397v4.592h32v-4.592c0-1.324-1.073-2.397-2.397-2.397z"></path>
<path fill="#464655" d="M0 24.086c0 1.324 1.073 2.397 2.397 2.397h27.207c1.324 0 2.397-1.073 2.397-2.397v-4.592h-32v4.592z"></path>
<path fill="#f5f5f5" d="M0 12.506h32v6.988h-32v-6.988z"></path>
<path fill="#73af00" d="M9.377 13.957l0.46 1.379 1.454 0.011c0.188 0.001 0.266 0.242 0.115 0.354l-1.17 0.864 0.439 1.386c0.057 0.179-0.148 0.328-0.301 0.218l-1.183-0.845-1.183 0.845c-0.153 0.109-0.357-0.039-0.301-0.218l0.439-1.386-1.17-0.864c-0.151-0.112-0.073-0.352 0.115-0.354l1.454-0.011 0.46-1.379c0.059-0.179 0.312-0.179 0.372 0z"></path>
<path fill="#73af00" d="M22.995 13.957l0.46 1.379 1.454 0.011c0.188 0.001 0.266 0.242 0.115 0.354l-1.17 0.864 0.439 1.386c0.057 0.179-0.148 0.328-0.301 0.218l-1.183-0.845-1.183 0.845c-0.153 0.109-0.357-0.039-0.301-0.218l0.439-1.386-1.17-0.864c-0.151-0.112-0.073-0.352 0.115-0.354l1.454-0.011 0.46-1.379c0.059-0.179 0.312-0.179 0.372 0z"></path>
</svg>
