<!-- Generated by IcoMoon.io -->
<svg version="1.1" xmlns="http://www.w3.org/2000/svg" width="32" height="32" viewBox="0 0 32 32">
<title>tajikistan</title>
<path fill="#73af00" d="M0 24.086c0 1.324 1.073 2.397 2.397 2.397h27.207c1.324 0 2.397-1.073 2.397-2.397v-4.592h-32v4.592z"></path>
<path fill="#ff4b55" d="M29.603 5.517h-27.207c-1.324 0-2.397 1.073-2.397 2.397v4.592h32v-4.592c0-1.324-1.073-2.397-2.397-2.397z"></path>
<path fill="#f5f5f5" d="M0 12.506h32v6.988h-32v-6.988z"></path>
<path fill="#ffcd5a" d="M14.192 17.971c0.229-0.116 0.364-0.306 0.435-0.444 0.411 0.268 0.763 0.177 0.947 0.091 0.179-0.084 0.326-0.221 0.425-0.36 0.098 0.139 0.246 0.276 0.425 0.36 0.183 0.086 0.536 0.177 0.947-0.091 0.072 0.137 0.206 0.328 0.435 0.444 0.132 0.067 0.278 0.1 0.436 0.1 0.163 0 0.338-0.035 0.526-0.105l-0.091-0.243c-0.298 0.112-0.551 0.118-0.752 0.018-0.28-0.14-0.374-0.448-0.375-0.451l-0.055-0.191-0.153 0.127c-0.27 0.225-0.549 0.28-0.808 0.158-0.263-0.123-0.405-0.373-0.405-0.448v-1.119c0.056-0.123 0.18-0.21 0.324-0.21 0.050 0 0.099 0.011 0.146 0.032l0.16 0.072-0.024-0.175c-0.051-0.367-0.367-0.643-0.736-0.643s-0.685 0.276-0.736 0.643l-0.024 0.175 0.161-0.072c0.047-0.021 0.096-0.032 0.146-0.032 0.144 0 0.268 0.086 0.324 0.21v1.119c0 0.075-0.142 0.324-0.405 0.448-0.259 0.122-0.539 0.067-0.809-0.158l-0.152-0.126-0.056 0.189c-0.001 0.003-0.095 0.311-0.375 0.451-0.201 0.1-0.453 0.094-0.752-0.018l-0.091 0.243c0.187 0.070 0.363 0.105 0.525 0.105 0.158-0 0.304-0.033 0.437-0.1zM15.545 15.413c-0.015 0-0.031 0.001-0.046 0.002 0.087-0.194 0.281-0.326 0.5-0.326s0.413 0.133 0.5 0.326c-0.202-0.018-0.392 0.081-0.5 0.237-0.1-0.144-0.266-0.239-0.454-0.239z"></path>
<path fill="#ffcd5a" d="M13.753 18.795l0.082 0.246c0.551-0.184 1.34-0.29 2.163-0.29s1.612 0.106 2.163 0.29l0.082-0.246c-0.577-0.193-1.395-0.303-2.245-0.303s-1.669 0.11-2.245 0.303z"></path>
<path fill="#ffcd5a" d="M15.999 18.233c0.135 0 0.254-0.080 0.335-0.188-0.054-0.033-0.125-0.052-0.206-0.063 0-0.003 0.001-0.006 0.001-0.009 0-0.111-0.052-0.207-0.13-0.259-0.077 0.052-0.13 0.148-0.13 0.259 0 0.003 0.001 0.006 0.001 0.009-0.081 0.010-0.153 0.029-0.206 0.063 0.081 0.108 0.2 0.188 0.335 0.188z"></path>
<path fill="#ffcd5a" d="M14.808 18.356c0.133-0.027 0.233-0.129 0.291-0.251-0.059-0.022-0.133-0.026-0.215-0.020-0.001-0.003-0-0.006-0.001-0.009-0.022-0.109-0.093-0.192-0.179-0.228-0.065 0.067-0.097 0.171-0.075 0.28 0.001 0.003 0.002 0.005 0.003 0.008-0.077 0.026-0.144 0.059-0.19 0.103 0.101 0.090 0.233 0.145 0.366 0.117z"></path>
<path fill="#ffcd5a" d="M17.293 17.847c-0.086 0.036-0.157 0.119-0.179 0.228-0.001 0.003-0 0.006-0.001 0.009-0.081-0.006-0.155-0.002-0.215 0.020 0.057 0.122 0.158 0.225 0.291 0.251s0.265-0.027 0.366-0.117c-0.046-0.043-0.112-0.076-0.19-0.103 0.001-0.003 0.002-0.005 0.003-0.008 0.022-0.109-0.010-0.213-0.075-0.28z"></path>
<path fill="#ffcd5a" d="M15.964 13.072l-0.087 0.262-0.276 0.002c-0.036 0-0.051 0.046-0.022 0.067l0.222 0.164-0.083 0.263c-0.011 0.034 0.028 0.062 0.057 0.041l0.225-0.161 0.225 0.161c0.029 0.021 0.068-0.007 0.057-0.041l-0.083-0.263 0.222-0.164c0.029-0.021 0.014-0.067-0.022-0.067l-0.276-0.002-0.087-0.262c-0.011-0.034-0.059-0.034-0.071 0z"></path>
<path fill="#ffcd5a" d="M14.384 13.504l-0.087 0.262-0.276 0.002c-0.036 0-0.051 0.046-0.022 0.067l0.222 0.164-0.083 0.263c-0.011 0.034 0.028 0.062 0.057 0.041l0.225-0.161 0.225 0.161c0.029 0.021 0.068-0.007 0.057-0.041l-0.083-0.263 0.222-0.164c0.029-0.021 0.014-0.067-0.022-0.067l-0.276-0.002-0.087-0.262c-0.011-0.034-0.059-0.034-0.070 0z"></path>
<path fill="#ffcd5a" d="M13.222 14.671l-0.087 0.262-0.276 0.002c-0.036 0-0.051 0.046-0.022 0.067l0.222 0.164-0.083 0.263c-0.011 0.034 0.028 0.062 0.057 0.041l0.225-0.161 0.225 0.161c0.029 0.021 0.068-0.007 0.057-0.041l-0.083-0.263 0.222-0.164c0.029-0.021 0.014-0.067-0.022-0.067l-0.276-0.002-0.087-0.262c-0.011-0.034-0.059-0.034-0.071 0z"></path>
<path fill="#ffcd5a" d="M12.795 16.249l-0.087 0.262-0.276 0.002c-0.036 0-0.051 0.046-0.022 0.067l0.222 0.164-0.083 0.263c-0.011 0.034 0.028 0.062 0.057 0.041l0.225-0.161 0.225 0.161c0.029 0.021 0.068-0.007 0.057-0.041l-0.083-0.263 0.222-0.164c0.029-0.021 0.014-0.067-0.022-0.067l-0.276-0.002-0.087-0.262c-0.011-0.034-0.059-0.034-0.070 0z"></path>
<path fill="#ffcd5a" d="M17.616 13.504l0.087 0.262 0.276 0.002c0.036 0 0.051 0.046 0.022 0.067l-0.222 0.164 0.083 0.263c0.011 0.034-0.028 0.062-0.057 0.041l-0.225-0.161-0.225 0.161c-0.029 0.021-0.068-0.007-0.057-0.041l0.083-0.263-0.222-0.164c-0.029-0.021-0.014-0.067 0.022-0.067l0.276-0.002 0.087-0.262c0.011-0.034 0.059-0.034 0.070 0z"></path>
<path fill="#ffcd5a" d="M18.778 14.671l0.087 0.262 0.276 0.002c0.036 0 0.051 0.046 0.022 0.067l-0.222 0.164 0.083 0.263c0.011 0.034-0.028 0.062-0.057 0.041l-0.225-0.161-0.225 0.161c-0.029 0.021-0.068-0.007-0.057-0.041l0.083-0.263-0.222-0.164c-0.029-0.021-0.014-0.067 0.022-0.067l0.276-0.002 0.087-0.262c0.011-0.034 0.059-0.034 0.070 0z"></path>
<path fill="#ffcd5a" d="M19.205 16.249l0.087 0.262 0.276 0.002c0.036 0 0.051 0.046 0.022 0.067l-0.222 0.164 0.083 0.263c0.011 0.034-0.028 0.062-0.057 0.041l-0.225-0.161-0.225 0.161c-0.029 0.021-0.068-0.007-0.057-0.041l0.083-0.263-0.222-0.164c-0.029-0.021-0.014-0.067 0.022-0.067l0.276-0.002 0.087-0.262c0.011-0.034 0.059-0.034 0.071 0z"></path>
</svg>
