<svg xmlns="http://www.w3.org/2000/svg" width="32" height="32" version="1.1" viewBox="0 0 32 32"><title>tanzania</title><path fill="#73af00" d="M2.397 5.517c-1.324 0-2.397 1.073-2.397 2.397v13.603l24.276-16h-21.879z"/><path fill="#4173cd" d="M29.603 26.483c1.324 0 2.397-1.073 2.397-2.397v-13.603l-24.276 16h21.879z"/><path fill="#ffe15a" d="M29.603 5.517h-5.657l-23.946 15.689v2.88c0 1.324 1.073 2.397 2.397 2.397h5.657l23.946-15.689v-2.88c0-1.324-1.073-2.397-2.397-2.397z"/><path fill="#464655" d="M29.603 5.517h-2.637l-26.966 17.667v0.902c0 1.324 1.073 2.397 2.397 2.397h2.638l26.966-17.667v-0.902c0-1.324-1.073-2.397-2.397-2.397z"/></svg>