<svg xmlns="http://www.w3.org/2000/svg" width="32" height="32" version="1.1" viewBox="0 0 32 32"><title>thailand</title><path fill="#f5f5f5" d="M29.606 5.519h-27.212c-1.325 0-2.394 1.075-2.394 2.394v16.175c0 1.325 1.075 2.394 2.394 2.394h27.206c1.325 0 2.394-1.075 2.394-2.394v-16.175c0.006-1.325-1.069-2.394-2.387-2.394z"/><path fill="#ff4b55" d="M0 24.087c0 1.325 1.075 2.394 2.394 2.394h27.206c1.325 0 2.394-1.075 2.394-2.394v-0.913h-31.994v0.913z"/><path fill="#ff4b55" d="M29.606 5.519h-27.212c-1.325 0-2.394 1.075-2.394 2.394v0.912h32v-0.912c0-1.325-1.075-2.394-2.394-2.394z"/><path fill="#41479b" d="M0 12.137h32v7.725h-32v-7.725z"/></svg>