<svg xmlns="http://www.w3.org/2000/svg" width="32" height="32" version="1.1" viewBox="0 0 32 32"><title>togo</title><path fill="#73af00" d="M29.618 5.517h-27.236c-1.317 0.008-2.382 1.077-2.382 2.396v1.797h32v-1.797c0-1.319-1.065-2.388-2.382-2.396z"/><path fill="#73af00" d="M0 13.904h32v4.193h-32v-4.193z"/><path fill="#ffe15a" d="M0 9.711h32v4.193h-32v-4.193z"/><path fill="#73af00" d="M0 24.086c0 1.324 1.073 2.397 2.397 2.397h27.207c1.324 0 2.397-1.073 2.397-2.397v-1.796h-32v1.796z"/><path fill="#ffe15a" d="M0 18.097h32v4.193h-32v-4.193z"/><path fill="#ff4b55" d="M0.552 18.097h11.586c0.305 0 0.552-0.247 0.552-0.552v-11.476c0-0.305-0.247-0.552-0.552-0.552h-9.756c-1.317 0.008-2.382 1.077-2.382 2.396v9.631c0 0.305 0.247 0.552 0.552 0.552z"/><path fill="#f5f5f5" d="M6.208 8.477l-0.797 2.391-2.52 0.020c-0.138 0.001-0.195 0.177-0.084 0.259l2.027 1.497-0.76 2.403c-0.042 0.132 0.108 0.241 0.221 0.16l2.050-1.465 2.050 1.466c0.112 0.080 0.262-0.029 0.221-0.16l-0.76-2.403 2.027-1.497c0.111-0.082 0.054-0.258-0.084-0.259l-2.52-0.020-0.798-2.391c-0.044-0.131-0.229-0.131-0.273-0z"/></svg>