<svg xmlns="http://www.w3.org/2000/svg" width="32" height="32" version="1.1" viewBox="0 0 32 32"><title>tokelau</title><path fill="#41479b" d="M29.603 26.483h-27.207c-1.324 0-2.397-1.073-2.397-2.397v-16.172c0-1.324 1.073-2.397 2.397-2.397h27.207c1.324 0 2.397 1.073 2.397 2.397v16.172c0 1.324-1.073 2.396-2.397 2.396z"/><path fill="#ffe15a" d="M29.793 23.172h-22.069c-0.305 0-0.552-0.247-0.552-0.552v0c0-0.305 0.247-0.552 0.552-0.552h22.069l0.552 0.552-0.552 0.552z"/><path fill="#ffe15a" d="M30.069 21.517h-22.345c0 0 8.828-9.931 17.103-12.138 0 0-2.759 7.172 3.862 11.586h1.379c0.152 0 0.276 0.123 0.276 0.276v0c0 0.152-0.123 0.276-0.276 0.276z"/><path fill="#f5f5f5" d="M6.76 18.323l0.214 0.642 0.677 0.005c0.088 0.001 0.124 0.113 0.053 0.165l-0.544 0.402 0.204 0.645c0.026 0.084-0.069 0.153-0.14 0.102l-0.551-0.393-0.55 0.393c-0.071 0.051-0.166-0.018-0.14-0.102l0.204-0.645-0.544-0.402c-0.071-0.052-0.034-0.164 0.053-0.165l0.677-0.005 0.214-0.642c0.028-0.083 0.145-0.083 0.173 0z"/><path fill="#f5f5f5" d="M6.744 9.498l0.174 0.521 0.549 0.004c0.071 0.001 0.101 0.091 0.043 0.133l-0.442 0.326 0.166 0.523c0.021 0.068-0.056 0.124-0.114 0.082l-0.447-0.319-0.447 0.319c-0.058 0.041-0.135-0.015-0.114-0.082l0.166-0.523-0.442-0.326c-0.057-0.042-0.028-0.133 0.043-0.133l0.549-0.004 0.174-0.521c0.022-0.067 0.118-0.067 0.14 0z"/><path fill="#f5f5f5" d="M2.585 12.721l0.174 0.521 0.549 0.004c0.071 0.001 0.101 0.091 0.043 0.133l-0.442 0.326 0.166 0.523c0.021 0.068-0.056 0.124-0.114 0.082l-0.447-0.319-0.447 0.319c-0.058 0.041-0.135-0.015-0.113-0.082l0.166-0.523-0.442-0.326c-0.057-0.042-0.028-0.133 0.043-0.133l0.549-0.004 0.174-0.521c0.023-0.067 0.118-0.067 0.14 0z"/><path fill="#f5f5f5" d="M9.718 12.501l0.134 0.401 0.422 0.003c0.055 0 0.077 0.070 0.033 0.103l-0.34 0.251 0.127 0.403c0.017 0.052-0.043 0.095-0.087 0.063l-0.344-0.246-0.344 0.246c-0.044 0.032-0.104-0.011-0.087-0.063l0.127-0.403-0.34-0.251c-0.044-0.033-0.021-0.102 0.033-0.103l0.422-0.003 0.134-0.401c0.017-0.052 0.091-0.052 0.108 0z"/></svg>