<!-- Generated by IcoMoon.io -->
<svg version="1.1" xmlns="http://www.w3.org/2000/svg" width="32" height="32" viewBox="0 0 32 32">
<title>tonga</title>
<path fill="#ff4b55" d="M2.397 26.483h27.207c1.324 0 2.397-1.073 2.397-2.397v-16.172c0-1.324-1.073-2.397-2.397-2.397h-27.207c-1.324 0-2.397 1.073-2.397 2.397v16.172c0 1.324 1.073 2.396 2.397 2.396z"></path>
<path fill="#f5f5f5" d="M0.552 16h11.586c0.305 0 0.552-0.247 0.552-0.552v-9.379c0-0.305-0.247-0.552-0.552-0.552h-9.742c-1.324 0-2.397 1.073-2.397 2.397v7.534c0 0.305 0.247 0.552 0.552 0.552z"></path>
<path fill="#ff4b55" d="M10.483 9.379h-2.759v-2.759h-2.759v2.759h-2.759v2.759h2.759v2.759h2.759v-2.759h2.759z"></path>
</svg>
