<!-- Generated by IcoMoon.io -->
<svg version="1.1" xmlns="http://www.w3.org/2000/svg" width="32" height="32" viewBox="0 0 32 32">
<title>trinidad-and-tobago</title>
<path fill="#ff4b55" d="M29.603 26.483h-27.207c-1.324 0-2.397-1.073-2.397-2.397v-16.172c0-1.324 1.073-2.397 2.397-2.397h27.207c1.324 0 2.397 1.073 2.397 2.397v16.172c0 1.324-1.073 2.396-2.397 2.396z"></path>
<path fill="#f5f5f5" d="M0.729 6.193l21.891 20.29h1.655l-22.525-20.877c-0.39 0.109-0.739 0.313-1.022 0.587z"></path>
<path fill="#f5f5f5" d="M31.271 25.807l-21.891-20.29h-1.655l22.525 20.877c0.39-0.109 0.739-0.313 1.022-0.587z"></path>
<path fill="#464655" d="M1.655 5.517l22.621 20.965h6.069l-22.621-20.965z"></path>
</svg>
