<svg xmlns="http://www.w3.org/2000/svg" width="32" height="32" version="1.1" viewBox="0 0 32 32"><title>tunisia</title><path fill="#ff4b55" d="M29.603 26.483h-27.207c-1.324 0-2.397-1.073-2.397-2.397v-16.172c0-1.324 1.073-2.397 2.397-2.397h27.207c1.324 0 2.397 1.073 2.397 2.397v16.172c0 1.324-1.073 2.396-2.397 2.396z"/><path fill="#f5f5f5" d="M16.063 10.483c3.045 0 5.513 2.475 5.513 5.517 0 3.051-2.468 5.517-5.513 5.517-3.051 0-5.522-2.466-5.522-5.517-0-3.043 2.47-5.517 5.522-5.517z"/><path fill="#ff4b55" d="M17.065 19.092c-1.708 0-3.093-1.385-3.093-3.091 0-1.702 1.385-3.087 3.093-3.087 0.581 0 1.124 0.163 1.588 0.444 0.070 0.042 0.143-0.049 0.085-0.106-0.696-0.686-1.649-1.111-2.702-1.111-2.137 0-3.868 1.731-3.868 3.86 0 2.133 1.731 3.864 3.868 3.864 1.052 0 2.005-0.424 2.701-1.11 0.058-0.057-0.015-0.148-0.085-0.106-0.464 0.281-1.006 0.443-1.587 0.443z"/><path fill="#ff4b55" d="M16.782 13.837l0.853 1.158 1.372-0.432c0.178-0.056 0.324 0.146 0.216 0.298l-0.838 1.169 0.835 1.171c0.108 0.152-0.039 0.354-0.216 0.297l-1.37-0.436-0.856 1.156c-0.111 0.15-0.348 0.072-0.349-0.114l-0.009-1.438-1.364-0.457c-0.177-0.059-0.176-0.309 0.001-0.368l1.365-0.453 0.013-1.438c0.002-0.186 0.239-0.263 0.35-0.113z"/></svg>