<svg xmlns="http://www.w3.org/2000/svg" width="32" height="32" version="1.1" viewBox="0 0 32 32"><title>turks-and-caicos</title><path fill="#41479b" d="M29.603 26.483h-27.207c-1.324 0-2.397-1.073-2.397-2.397v-16.172c0-1.324 1.073-2.397 2.397-2.397h27.207c1.324 0 2.397 1.073 2.397 2.397v16.172c0 1.324-1.073 2.396-2.397 2.396z"/><path fill="#f5f5f5" d="M0.552 16h0.958l5.111-3.348v3.348h2.759v-3.348l5.111 3.348h0.958c0.305 0 0.552-0.247 0.552-0.552v-0.438l-4.385-2.873h4.385v-2.759h-4.385l4.385-2.873v-0.438c0-0.305-0.247-0.552-0.552-0.552h-0.959l-5.111 3.348v-3.348h-2.759v3.348l-4.943-3.239c-0.577 0.181-1.060 0.575-1.357 1.090l4.064 2.663h-4.385v2.759h4.385l-4.385 2.873v0.438c0 0.305 0.247 0.552 0.552 0.552z"/><path fill="#ff4b55" d="M16 9.931h-7.172v-4.414h-1.655v4.414h-7.172v1.655h7.172v4.414h1.655v-4.414h7.172z"/><path fill="#ff4b55" d="M0.514 6.431l4.541 2.948h1.013l-5.156-3.347c-0.148 0.117-0.282 0.251-0.399 0.399z"/><path fill="#ff4b55" d="M10.393 9.379l5.523-3.585c-0.096-0.162-0.265-0.277-0.468-0.277h-0.119l-5.95 3.862h1.013z"/><path fill="#ff4b55" d="M5.592 12.138l-5.513 3.579c0.095 0.166 0.267 0.284 0.472 0.284h0.104l5.95-3.862h-1.013z"/><path fill="#ff4b55" d="M15.991 15.492l-5.167-3.354h-1.013l5.867 3.808c0.176-0.082 0.296-0.252 0.313-0.455z"/><path fill="#ffe15a" d="M21.505 12.874c-0.067 0-0.12 0.054-0.12 0.12v2.048c0 4.097 2.892 4.82 2.892 4.82s2.892-0.723 2.892-4.82v-2.048c0-0.067-0.054-0.12-0.12-0.12h-5.543z"/><path fill="#f5f5f5" d="M26.866 13.175v1.868c0 3.484-2.154 4.363-2.59 4.506-0.439-0.143-2.591-1.023-2.591-4.506v-1.868h5.181zM27.047 12.874h-5.543c-0.067 0-0.12 0.054-0.12 0.12v2.048c0 4.097 2.892 4.82 2.892 4.82s2.892-0.723 2.892-4.82v-2.048c-0-0.067-0.054-0.12-0.12-0.12v0z"/><path fill="#73af00" d="M24.599 16.69h-0.616c0 0-0.497 0.497-0.611 1.589-0.004 0.035 0.010 0.070 0.038 0.092 0.105 0.082 0.398 0.271 0.881 0.271s0.777-0.189 0.881-0.271c0.028-0.022 0.042-0.057 0.038-0.092-0.114-1.092-0.611-1.589-0.611-1.589z"/><path fill="#ff4b55" d="M24.599 16.587h-0.616v-0.514c0-0.169 0.139-0.308 0.308-0.308v0c0.169 0 0.308 0.139 0.308 0.308v0.514h0z"/><path fill="#ff4b55" d="M24.599 16.793h-0.616c-0.057 0-0.103-0.046-0.103-0.103v0c0-0.057 0.046-0.103 0.103-0.103h0.616c0.057 0 0.103 0.046 0.103 0.103v0c-0 0.057-0.046 0.103-0.103 0.103z"/><path fill="#d35a10" d="M26.654 14.521c-0.018 0-0.286 0.001-0.565 0.049v-0.161c0.235-0.107 0.466-0.163 0.47-0.164 0.028-0.007 0.045-0.034 0.038-0.062s-0.034-0.045-0.062-0.038c-0.015 0.004-0.223 0.053-0.448 0.152-0.004-0.062-0.025-0.118-0.060-0.165 0.184-0.143 0.341-0.233 0.344-0.235 0.025-0.014 0.033-0.045 0.019-0.070s-0.046-0.033-0.070-0.019c-0.012 0.007-0.177 0.102-0.368 0.251-0.049-0.033-0.108-0.052-0.172-0.052-0.066 0-0.127 0.021-0.177 0.057 0.053-0.264 0.161-0.379 0.162-0.38 0.020-0.020 0.020-0.053-0-0.072s-0.053-0.020-0.073 0c-0.006 0.006-0.106 0.109-0.169 0.341-0.063-0.232-0.163-0.335-0.169-0.341-0.020-0.020-0.052-0.020-0.072-0s-0.020 0.052-0 0.073c0.001 0.001 0.11 0.116 0.162 0.38-0.050-0.036-0.111-0.057-0.177-0.057-0.064 0-0.123 0.019-0.172 0.052-0.191-0.149-0.355-0.244-0.368-0.251-0.025-0.014-0.056-0.005-0.070 0.019s-0.005 0.056 0.019 0.070c0.003 0.002 0.16 0.092 0.344 0.235-0.035 0.047-0.056 0.103-0.060 0.165-0.226-0.098-0.433-0.148-0.448-0.152-0.028-0.007-0.055 0.011-0.062 0.038s0.011 0.055 0.038 0.062c0.004 0.001 0.235 0.056 0.47 0.164v0.161c-0.279-0.048-0.547-0.049-0.565-0.049-0.028 0-0.051 0.023-0.051 0.051s0.023 0.051 0.051 0.051c0.004 0 0.285 0.001 0.565 0.051v0.166c-0.154-0.005-0.326 0.017-0.485 0.097-0.025 0.013-0.036 0.043-0.023 0.069 0.009 0.018 0.027 0.028 0.046 0.028 0.008 0 0.015-0.002 0.023-0.005 0.142-0.071 0.298-0.089 0.439-0.085v0.636c0 0.078-0.008 0.156-0.023 0.232l-0.079 0.394c-0.006 0.028 0.012 0.055 0.040 0.060 0.003 0.001 0.007 0.001 0.010 0.001 0.024 0 0.045-0.017 0.050-0.041l0.079-0.394c0.017-0.083 0.025-0.168 0.025-0.252v-0.628c0.077 0.009 0.146 0.023 0.202 0.036l0.039 0.509c0.005 0.063 0.037 0.118 0.083 0.155l-0.167 0.25c-0.089 0.134 0.007 0.313 0.168 0.313h0.274c0.161 0 0.257-0.179 0.168-0.313l-0.167-0.25c0.046-0.037 0.078-0.092 0.083-0.155l0.039-0.509c0.056-0.014 0.125-0.028 0.202-0.036v0.628c0 0.084 0.008 0.169 0.025 0.252l0.079 0.394c0.005 0.024 0.026 0.041 0.050 0.041 0.003 0 0.007-0 0.010-0.001 0.028-0.006 0.046-0.033 0.040-0.060l-0.079-0.394c-0.015-0.076-0.023-0.154-0.023-0.232v-0.636c0.141-0.005 0.298 0.014 0.439 0.085 0.007 0.004 0.015 0.005 0.023 0.005 0.019 0 0.037-0.010 0.046-0.028 0.013-0.025 0.002-0.056-0.023-0.069-0.159-0.080-0.331-0.101-0.485-0.097v-0.166c0.28-0.050 0.561-0.051 0.565-0.051 0.028 0 0.051-0.023 0.051-0.051s-0.023-0.051-0.051-0.051zM25.986 14.59c-0.061 0.013-0.122 0.029-0.179 0.048-0.001-0.020-0.004-0.040-0.009-0.059 0.057-0.044 0.121-0.084 0.188-0.119v0.13h-0zM25.986 14.316v0.028c-0.081 0.040-0.162 0.087-0.233 0.14-0.015-0.020-0.032-0.039-0.052-0.054 0.077-0.085 0.162-0.164 0.246-0.234 0.024 0.034 0.039 0.075 0.039 0.119zM25.781 14.11c0.031 0 0.059 0.007 0.086 0.019-0.089 0.075-0.179 0.159-0.259 0.251-0.011-0.003-0.021-0.006-0.032-0.008v-0.005c0-0.023 0.001-0.046 0.002-0.068 0.009-0.105 0.096-0.189 0.204-0.189zM25.267 14.11c0.108 0 0.195 0.084 0.204 0.189 0.001 0.022 0.002 0.044 0.002 0.068v0.005c-0.011 0.002-0.021 0.005-0.032 0.008-0.081-0.092-0.171-0.177-0.259-0.251 0.026-0.012 0.055-0.019 0.086-0.019zM25.062 14.316c0-0.045 0.015-0.085 0.039-0.119 0.084 0.070 0.169 0.149 0.246 0.234-0.020 0.016-0.037 0.034-0.052 0.055-0.072-0.053-0.152-0.1-0.233-0.14l0-0.028zM25.062 14.46c0.067 0.035 0.131 0.075 0.188 0.119-0.005 0.019-0.008 0.039-0.009 0.059-0.057-0.019-0.117-0.035-0.179-0.048v-0.13h-0zM25.062 14.848v-0.153c0.064 0.015 0.127 0.032 0.183 0.053l0.010 0.132c-0.056-0.013-0.122-0.025-0.194-0.032zM25.986 14.848c-0.072 0.008-0.138 0.019-0.194 0.032l0.010-0.132c0.057-0.021 0.119-0.039 0.183-0.053v0.153z"/><path fill="#ffa033" d="M23.408 15.908h-0.231l-0.882-0.784c-0.096-0.086-0.137-0.218-0.106-0.343l0.246-0.984c0.022-0.087 0.13-0.117 0.194-0.054l0.399 0.399c0.022 0.022 0.051 0.034 0.082 0.034h0.298v1.731l0-0z"/><path fill="#ff9480" d="M23.243 13.941l-0.142 0.637c-0.026 0.116-0.021 0.236 0.013 0.349l0.294 0.981h0.231l0.294-0.981c0.034-0.113 0.038-0.234 0.013-0.349l-0.142-0.637c-0.029-0.131-0.146-0.225-0.28-0.225h-0.001c-0.135-0-0.251 0.093-0.28 0.225z"/><path fill="#ffa0e4" d="M23.524 13.946v0c-0.064 0-0.115 0.052-0.115 0.115v1.846h0.231v-1.846c0-0.064-0.052-0.115-0.115-0.115z"/></svg>