<!-- Generated by IcoMoon.io -->
<svg version="1.1" xmlns="http://www.w3.org/2000/svg" width="32" height="32" viewBox="0 0 32 32">
<title>tuvalu</title>
<path fill="#3cc8ff" d="M29.612 26.483h-27.218c-1.319 0-2.394-1.069-2.394-2.394v-16.178c0-1.325 1.075-2.394 2.394-2.394h27.212c1.325 0 2.394 1.075 2.394 2.394v16.178c0.006 1.325-1.069 2.394-2.388 2.394z"></path>
<path fill="#41479b" d="M0.006 7.78v7.664c0 0.306 0.25 0.55 0.55 0.55h14.897c0.306 0 0.55-0.25 0.55-0.55v-9.377c0-0.306-0.25-0.55-0.55-0.55h-13.059c-1.275 0-2.325 1-2.388 2.263z"></path>
<path fill="#f5f5f5" d="M9.383 8.861v-3.344h-2.757v3.351l-4.945-3.244c-0.575 0.181-1.063 0.575-1.357 1.088l4.070 2.663h-4.388v2.757h4.388l-4.388 2.876v0.438c0 0.306 0.25 0.55 0.55 0.55h0.956l5.114-3.351v3.357h2.757v-3.351l5.114 3.351h0.956c0.306 0 0.55-0.25 0.55-0.55v-0.438l-4.388-2.876h4.388v-2.757h-4.388l4.388-2.876v-0.438c0-0.306-0.25-0.55-0.55-0.55h-0.956l-5.114 3.344z"></path>
<path fill="#ff4b55" d="M16.009 9.93h-7.176v-4.413h-1.657v4.413h-7.17v1.657h7.17v4.413h1.657v-4.413h7.176z"></path>
<path fill="#ff4b55" d="M0.513 6.429l4.545 2.951h1.013l-5.157-3.351c-0.144 0.119-0.281 0.25-0.4 0.4z"></path>
<path fill="#ff4b55" d="M10.396 9.38l5.526-3.588c-0.094-0.163-0.263-0.275-0.469-0.275h-0.119l-5.951 3.863h1.013z"></path>
<path fill="#ff4b55" d="M5.595 12.137l-5.514 3.582c0.094 0.169 0.269 0.281 0.475 0.281h0.106l5.951-3.863h-1.019z"></path>
<path fill="#ff4b55" d="M15.997 15.494l-5.17-3.357h-1.013l5.87 3.807c0.175-0.081 0.3-0.25 0.313-0.45z"></path>
<path fill="#ffe15a" d="M17.778 22.676l0.269 0.806 0.85 0.006c0.113 0 0.156 0.144 0.069 0.206l-0.681 0.506 0.256 0.806c0.031 0.106-0.088 0.194-0.175 0.125l-0.688-0.494-0.688 0.494c-0.088 0.063-0.206-0.025-0.175-0.125l0.256-0.806-0.681-0.506c-0.088-0.063-0.044-0.206 0.069-0.206l0.85-0.006 0.269-0.806c0.019-0.106 0.163-0.106 0.2 0z"></path>
<path fill="#ffe15a" d="M25.593 16.6l0.269 0.806 0.85 0.006c0.113 0 0.156 0.144 0.069 0.206l-0.681 0.506 0.256 0.806c0.031 0.106-0.088 0.194-0.175 0.125l-0.688-0.494-0.688 0.494c-0.088 0.063-0.206-0.025-0.175-0.125l0.256-0.806-0.681-0.506c-0.088-0.063-0.044-0.206 0.069-0.206l0.85-0.006 0.269-0.806c0.019-0.106 0.163-0.106 0.2 0z"></path>
<path fill="#ffe15a" d="M29.274 14.337l0.269 0.806 0.85 0.006c0.113 0 0.156 0.144 0.069 0.206l-0.681 0.506 0.256 0.806c0.031 0.106-0.088 0.194-0.175 0.125l-0.688-0.494-0.688 0.494c-0.088 0.063-0.206-0.025-0.175-0.125l0.256-0.806-0.681-0.506c-0.088-0.063-0.044-0.206 0.069-0.206l0.85-0.006 0.269-0.806c0.019-0.1 0.169-0.1 0.2 0z"></path>
<path fill="#ffe15a" d="M28.399 6.592l0.269 0.806 0.85 0.006c0.113 0 0.156 0.144 0.069 0.206l-0.681 0.506 0.256 0.806c0.031 0.106-0.088 0.194-0.175 0.125l-0.688-0.494-0.688 0.494c-0.088 0.063-0.206-0.025-0.175-0.125l0.256-0.806-0.681-0.506c-0.088-0.063-0.044-0.206 0.069-0.206l0.85-0.006 0.269-0.806c0.019-0.106 0.163-0.106 0.2 0z"></path>
<path fill="#ffe15a" d="M21.042 24.689l-0.269-0.806-0.85-0.006c-0.113 0-0.156-0.144-0.069-0.206l0.681-0.506-0.256-0.806c-0.031-0.106 0.088-0.194 0.175-0.125l0.688 0.494 0.688-0.494c0.088-0.063 0.206 0.025 0.175 0.125l-0.256 0.806 0.681 0.506c0.088 0.063 0.044 0.206-0.069 0.206l-0.85 0.006-0.269 0.806c-0.012 0.1-0.163 0.1-0.2 0z"></path>
<path fill="#ffe15a" d="M23.586 22.407l-0.269-0.806-0.85-0.006c-0.113 0-0.156-0.144-0.069-0.206l0.681-0.506-0.256-0.806c-0.031-0.106 0.088-0.194 0.175-0.125l0.688 0.494 0.688-0.494c0.088-0.063 0.206 0.025 0.175 0.125l-0.256 0.806 0.681 0.506c0.088 0.063 0.044 0.206-0.069 0.206l-0.85 0.006-0.269 0.806c-0.019 0.106-0.169 0.106-0.2 0z"></path>
<path fill="#ffe15a" d="M25.868 12.468l-0.269-0.806-0.85-0.006c-0.113 0-0.156-0.144-0.069-0.206l0.681-0.506-0.256-0.806c-0.031-0.106 0.088-0.194 0.175-0.125l0.688 0.494 0.688-0.494c0.088-0.063 0.206 0.025 0.175 0.125l-0.256 0.806 0.681 0.506c0.088 0.063 0.044 0.206-0.069 0.206l-0.85 0.006-0.269 0.806c-0.019 0.106-0.163 0.106-0.2 0z"></path>
<path fill="#ffe15a" d="M23.23 13.318l-0.269-0.806-0.85-0.006c-0.113 0-0.156-0.144-0.069-0.206l0.681-0.506-0.256-0.806c-0.031-0.106 0.088-0.194 0.175-0.125l0.688 0.494 0.688-0.494c0.088-0.063 0.206 0.025 0.175 0.125l-0.256 0.806 0.681 0.506c0.088 0.063 0.044 0.206-0.069 0.206l-0.85 0.006-0.269 0.806c-0.012 0.1-0.163 0.1-0.2 0z"></path>
<path fill="#ffe15a" d="M21.542 19.888l-0.269-0.806-0.85-0.006c-0.113 0-0.156-0.144-0.069-0.206l0.681-0.506-0.256-0.806c-0.031-0.106 0.088-0.194 0.175-0.125l0.688 0.494 0.688-0.494c0.088-0.063 0.206 0.025 0.175 0.125l-0.256 0.806 0.694 0.513c0.088 0.063 0.044 0.206-0.069 0.206l-0.85 0.006-0.269 0.806c-0.031 0.1-0.175 0.1-0.213-0.006z"></path>
</svg>
