<!-- Generated by IcoMoon.io -->
<svg version="1.1" xmlns="http://www.w3.org/2000/svg" width="32" height="32" viewBox="0 0 32 32">
<title>uganda</title>
<path fill="#464655" d="M29.603 5.517h-27.207c-1.324 0-2.397 1.073-2.397 2.397v1.098h32v-1.098c0-1.324-1.073-2.397-2.397-2.397z"></path>
<path fill="#ffe15a" d="M0 9.012h32v3.494h-32v-3.494z"></path>
<path fill="#ff4b55" d="M0 12.506h32v3.494h-32v-3.494z"></path>
<path fill="#464655" d="M0 16h32v3.494h-32v-3.494z"></path>
<path fill="#ffe15a" d="M0 19.494h32v3.494h-32v-3.494z"></path>
<path fill="#ff4b55" d="M0 24.086c0 1.324 1.073 2.397 2.397 2.397h27.207c1.324 0 2.397-1.073 2.397-2.397v-1.098h-32v1.098z"></path>
<path fill="#f5f5f5" d="M19.31 16c0 1.828-1.482 3.31-3.31 3.31s-3.31-1.482-3.31-3.31c0-1.828 1.482-3.31 3.31-3.31s3.31 1.482 3.31 3.31z"></path>
<path fill="#ff4b55" d="M16.2 13.985l0.326-0.13c0.047-0.019 0.070-0.073 0.049-0.119-0.073-0.162-0.269-0.498-0.641-0.508-0.236-0.006-0.412 0.047-0.512 0.088-0.051 0.021-0.071 0.081-0.043 0.129l0.197 0.336 0.625 0.205z"></path>
<path fill="#ffe15a" d="M15.933 13.227c-0.027-0.001-0.052 0.001-0.077 0.002l-0.036 0.521 0.189 0.105 0.41-0.371c-0.108-0.13-0.266-0.25-0.486-0.256z"></path>
<path fill="#464655" d="M17.336 17.046l-1.474-1.72c0-0.356 0.129-0.647 0.2-0.78 0.203-0.091 0.334-0.314 0.279-0.56-0.040-0.179-0.184-0.325-0.363-0.366-0.322-0.074-0.607 0.169-0.607 0.478 0 0.012 0.003 0.023 0.003 0.034-0.318 0.084-0.377 0.186-0.377 0.186s0.208-0.055 0.389-0.103c0.004 0.015 0.008 0.029 0.013 0.043l-0.357 0.121 0.389-0.047c0.043 0.079 0.107 0.145 0.185 0.19-0.291 0.235-0.738 0.675-0.738 1.173 0 0.455 0.337 0.758 0.761 0.96 0.148 0.070 0.285 0.163 0.397 0.283l0.004 0.005 0.037 0.565c-0.304 0-0.667 0-0.831 0-0.307 0-0.392 0.2-0.392 0.53l0.146-0.207 0.123 0.23 0.015-0.261 0.131 0.169c0 0-0.001-0.221 0.165-0.25 0.088-0.015 0.394-0.035 0.654-0.035l0.055 0.841c-0.352-0.002-0.751 0.164-0.751 0.164 0.123-0.023 0.422 0.023 0.422 0.023l-0.050 0.146c0.346-0.188 0.979-0.192 0.979-0.192s-0.138-0.094-0.461-0.131l0.007-0.852h0.507l0.077-0.2c0 0-0.262-0.347-0.262-0.531 0.405 0.077 0.722 0.093 0.722 0.093zM16.293 17.506l0.003-0.292c0.152 0.163 0.273 0.292 0.273 0.292s-0.114 0-0.275 0z"></path>
<path fill="#696e7d" d="M17.336 17.291c-0.123-0.491-0.661-0.642-1.229-0.983-0.614-0.369-0.246-0.983-0.246-0.983s2.058 0.604 2.211 1.474c0.12 0.678-0.369 1.106-0.614 1.229l0.088-0.246h-0.457c0 0 0.484-0.376 0.491-0.737l-0.246 0.246z"></path>
<path fill="#fffcff" d="M18.073 16.8c-0.103-0.582-1.056-1.044-1.677-1.287v0c-0.199-0.022-0.373 0.312 0.172 0.673 0.733 0.485 0.768 1.106 0.768 1.106l0.246-0.246c-0.008 0.361-0.491 0.737-0.491 0.737h0.457l-0.088 0.246c0.246-0.123 0.734-0.551 0.614-1.229z"></path>
<path fill="#ff4b55" d="M18.073 16.8c-0.068-0.386-0.51-0.718-0.981-0.97-0.227-0.068-0.424-0.059-0.424-0.059 0.138 0.085 0.2 0.299 0.2 0.299-0.1-0.061-0.323-0.031-0.323-0.031 0.062 0.053 0.121 0.161 0.16 0.244 0.601 0.467 0.631 1.007 0.631 1.007l0.246-0.246c-0.008 0.361-0.491 0.737-0.491 0.737h0.457l-0.088 0.246c0.246-0.123 0.734-0.551 0.614-1.229z"></path>
<path fill="#f5f5f5" d="M15.744 14.051c0 0.045-0.037 0.082-0.082 0.082s-0.082-0.037-0.082-0.082c0-0.045 0.037-0.082 0.082-0.082s0.082 0.037 0.082 0.082z"></path>
<path fill="#ff4b55" d="M15.447 14.363c0 0-0.179 0.21-0.061 0.271s0.231-0.113 0.231-0.113l-0.17-0.158z"></path>
</svg>
