<svg xmlns="http://www.w3.org/2000/svg" width="32" height="32" version="1.1" viewBox="0 0 32 32"><title>united-states</title><path fill="#f5f5f5" d="M29.603 5.517h-27.207c-1.324 0-2.397 1.073-2.397 2.397v16.172c0 1.324 1.073 2.397 2.397 2.397h27.207c1.324 0 2.397-1.073 2.397-2.397v-16.172c0-1.324-1.073-2.397-2.397-2.397z"/><path fill="#ff4b55" d="M0.132 7.13h31.736c-0.325-0.939-1.216-1.613-2.265-1.613h-27.207c-1.049 0-1.94 0.674-2.265 1.613z"/><path fill="#ff4b55" d="M0 11.968h32v1.613h-32v-1.613z"/><path fill="#ff4b55" d="M0 8.742h32v1.613h-32v-1.613z"/><path fill="#ff4b55" d="M0 16.255c0 0.305 0.247 0.552 0.552 0.552h31.448v-1.613h-32v1.061z"/><path fill="#ff4b55" d="M0 21.645h32v1.613h-32v-1.613z"/><path fill="#ff4b55" d="M31.868 24.87h-31.736c0.325 0.939 1.216 1.613 2.265 1.613h27.207c1.049 0 1.94-0.674 2.265-1.613z"/><path fill="#ff4b55" d="M0 18.419h32v1.613h-32v-1.613z"/><path fill="#41479b" d="M0.552 16.806h13.793c0.305 0 0.552-0.247 0.552-0.552v-10.186c0-0.305-0.247-0.552-0.552-0.552h-11.948c-1.324 0-2.397 1.073-2.397 2.397v8.341c0 0.305 0.247 0.552 0.552 0.552z"/><path fill="#f5f5f5" d="M1.549 6.784l0.122 0.366 0.386 0.003c0.050 0 0.071 0.064 0.030 0.094l-0.311 0.229 0.117 0.368c0.015 0.048-0.039 0.087-0.080 0.058l-0.314-0.224-0.314 0.224c-0.041 0.029-0.095-0.010-0.080-0.058l0.117-0.368-0.311-0.229c-0.040-0.030-0.019-0.093 0.030-0.094l0.386-0.003 0.122-0.366c0.016-0.048 0.083-0.048 0.099-0z"/><path fill="#f5f5f5" d="M1.549 8.699l0.122 0.366 0.386 0.003c0.050 0 0.071 0.064 0.030 0.094l-0.311 0.229 0.117 0.368c0.015 0.048-0.039 0.087-0.080 0.058l-0.314-0.224-0.314 0.225c-0.041 0.029-0.095-0.010-0.080-0.058l0.117-0.368-0.311-0.229c-0.040-0.030-0.019-0.093 0.030-0.094l0.386-0.003 0.122-0.366c0.016-0.047 0.083-0.047 0.099-0z"/><path fill="#f5f5f5" d="M1.549 10.615l0.122 0.366 0.386 0.003c0.050 0 0.071 0.064 0.030 0.094l-0.311 0.229 0.117 0.368c0.015 0.048-0.039 0.087-0.080 0.058l-0.314-0.224-0.314 0.225c-0.041 0.029-0.095-0.010-0.080-0.058l0.117-0.368-0.311-0.229c-0.040-0.030-0.019-0.093 0.030-0.094l0.386-0.003 0.122-0.366c0.016-0.047 0.083-0.047 0.099-0z"/><path fill="#f5f5f5" d="M1.549 12.531l0.122 0.366 0.386 0.003c0.050 0 0.071 0.064 0.030 0.094l-0.311 0.229 0.117 0.368c0.015 0.048-0.039 0.087-0.080 0.058l-0.314-0.224-0.314 0.225c-0.041 0.029-0.095-0.010-0.080-0.058l0.117-0.368-0.311-0.229c-0.040-0.030-0.019-0.093 0.030-0.094l0.386-0.003 0.122-0.366c0.016-0.047 0.083-0.047 0.099-0z"/><path fill="#f5f5f5" d="M1.549 14.447l0.122 0.366 0.386 0.003c0.050 0 0.071 0.064 0.030 0.094l-0.311 0.229 0.117 0.368c0.015 0.048-0.039 0.087-0.080 0.058l-0.314-0.224-0.314 0.225c-0.041 0.029-0.095-0.010-0.080-0.058l0.117-0.368-0.311-0.229c-0.040-0.030-0.019-0.093 0.030-0.094l0.386-0.003 0.122-0.366c0.016-0.047 0.083-0.047 0.099-0z"/><path fill="#f5f5f5" d="M3.036 7.723l0.122 0.366 0.386 0.003c0.050 0 0.071 0.064 0.030 0.094l-0.311 0.229 0.116 0.368c0.015 0.048-0.039 0.087-0.080 0.058l-0.314-0.225-0.314 0.225c-0.041 0.029-0.095-0.010-0.080-0.058l0.116-0.368-0.311-0.229c-0.040-0.030-0.019-0.093 0.030-0.094l0.386-0.003 0.122-0.366c0.016-0.047 0.083-0.047 0.099 0z"/><path fill="#f5f5f5" d="M3.036 9.639l0.122 0.366 0.386 0.003c0.050 0 0.071 0.064 0.030 0.094l-0.311 0.229 0.116 0.368c0.015 0.048-0.039 0.087-0.080 0.058l-0.314-0.225-0.314 0.225c-0.041 0.029-0.095-0.010-0.080-0.058l0.116-0.368-0.311-0.229c-0.040-0.030-0.019-0.093 0.030-0.094l0.386-0.003 0.122-0.366c0.016-0.047 0.083-0.047 0.099 0z"/><path fill="#f5f5f5" d="M3.036 11.555l0.122 0.366 0.386 0.003c0.050 0 0.071 0.064 0.030 0.094l-0.311 0.229 0.116 0.368c0.015 0.048-0.039 0.087-0.080 0.058l-0.314-0.225-0.314 0.225c-0.041 0.029-0.095-0.010-0.080-0.058l0.116-0.368-0.311-0.229c-0.040-0.030-0.019-0.093 0.030-0.094l0.386-0.003 0.122-0.366c0.016-0.047 0.083-0.047 0.099 0z"/><path fill="#f5f5f5" d="M3.036 13.471l0.122 0.366 0.386 0.003c0.050 0 0.071 0.064 0.030 0.094l-0.311 0.229 0.116 0.368c0.015 0.048-0.039 0.087-0.080 0.058l-0.314-0.225-0.314 0.225c-0.041 0.029-0.095-0.010-0.080-0.058l0.116-0.368-0.311-0.229c-0.040-0.030-0.019-0.093 0.030-0.094l0.386-0.003 0.122-0.366c0.016-0.047 0.083-0.047 0.099 0z"/><path fill="#f5f5f5" d="M4.523 6.784l0.122 0.366 0.386 0.003c0.050 0 0.071 0.064 0.030 0.094l-0.311 0.229 0.117 0.368c0.015 0.048-0.039 0.087-0.080 0.058l-0.314-0.224-0.314 0.224c-0.041 0.029-0.095-0.010-0.080-0.058l0.117-0.368-0.311-0.229c-0.040-0.030-0.019-0.093 0.030-0.094l0.386-0.003 0.122-0.366c0.016-0.047 0.083-0.047 0.099 0z"/><path fill="#f5f5f5" d="M4.523 8.699l0.122 0.366 0.386 0.003c0.050 0 0.071 0.064 0.030 0.094l-0.311 0.229 0.117 0.368c0.015 0.048-0.039 0.087-0.080 0.058l-0.314-0.225-0.314 0.225c-0.041 0.029-0.095-0.010-0.080-0.058l0.117-0.368-0.311-0.229c-0.040-0.030-0.019-0.093 0.030-0.094l0.386-0.003 0.122-0.366c0.016-0.047 0.083-0.047 0.099 0z"/><path fill="#f5f5f5" d="M4.523 10.615l0.122 0.366 0.386 0.003c0.050 0 0.071 0.064 0.030 0.094l-0.311 0.229 0.117 0.368c0.015 0.048-0.039 0.087-0.080 0.058l-0.314-0.225-0.314 0.225c-0.041 0.029-0.095-0.010-0.080-0.058l0.117-0.368-0.311-0.229c-0.040-0.030-0.019-0.093 0.030-0.094l0.386-0.003 0.122-0.366c0.016-0.047 0.083-0.047 0.099 0z"/><path fill="#f5f5f5" d="M4.523 12.531l0.122 0.366 0.386 0.003c0.050 0 0.071 0.064 0.030 0.094l-0.311 0.229 0.117 0.368c0.015 0.048-0.039 0.087-0.080 0.058l-0.314-0.225-0.314 0.225c-0.041 0.029-0.095-0.010-0.080-0.058l0.117-0.368-0.311-0.229c-0.040-0.030-0.019-0.093 0.030-0.094l0.386-0.003 0.122-0.366c0.016-0.047 0.083-0.047 0.099 0z"/><path fill="#f5f5f5" d="M4.523 14.447l0.122 0.366 0.386 0.003c0.050 0 0.071 0.064 0.030 0.094l-0.311 0.229 0.117 0.368c0.015 0.048-0.039 0.087-0.080 0.058l-0.314-0.225-0.314 0.225c-0.041 0.029-0.095-0.010-0.080-0.058l0.117-0.368-0.311-0.229c-0.040-0.030-0.019-0.093 0.030-0.094l0.386-0.003 0.122-0.366c0.016-0.047 0.083-0.047 0.099 0z"/><path fill="#f5f5f5" d="M6.011 7.723l0.122 0.366 0.386 0.003c0.050 0 0.071 0.064 0.030 0.094l-0.311 0.229 0.117 0.368c0.015 0.048-0.039 0.087-0.080 0.058l-0.314-0.225-0.314 0.225c-0.041 0.029-0.095-0.010-0.080-0.058l0.117-0.368-0.311-0.229c-0.040-0.030-0.019-0.093 0.030-0.094l0.386-0.003 0.122-0.366c0.016-0.047 0.083-0.047 0.099 0z"/><path fill="#f5f5f5" d="M6.011 9.639l0.122 0.366 0.386 0.003c0.050 0 0.071 0.064 0.030 0.094l-0.311 0.229 0.117 0.368c0.015 0.048-0.039 0.087-0.080 0.058l-0.314-0.225-0.314 0.225c-0.041 0.029-0.095-0.010-0.080-0.058l0.117-0.368-0.311-0.229c-0.040-0.030-0.019-0.093 0.030-0.094l0.386-0.003 0.122-0.366c0.016-0.047 0.083-0.047 0.099 0z"/><path fill="#f5f5f5" d="M6.011 11.555l0.122 0.366 0.386 0.003c0.050 0 0.071 0.064 0.030 0.094l-0.311 0.229 0.117 0.368c0.015 0.048-0.039 0.087-0.080 0.058l-0.314-0.225-0.314 0.225c-0.041 0.029-0.095-0.010-0.080-0.058l0.117-0.368-0.311-0.229c-0.040-0.030-0.019-0.093 0.030-0.094l0.386-0.003 0.122-0.366c0.016-0.047 0.083-0.047 0.099 0z"/><path fill="#f5f5f5" d="M6.011 13.471l0.122 0.366 0.386 0.003c0.050 0 0.071 0.064 0.030 0.094l-0.311 0.229 0.117 0.368c0.015 0.048-0.039 0.087-0.080 0.058l-0.314-0.225-0.314 0.225c-0.041 0.029-0.095-0.010-0.080-0.058l0.117-0.368-0.311-0.229c-0.040-0.030-0.019-0.093 0.030-0.094l0.386-0.003 0.122-0.366c0.016-0.047 0.083-0.047 0.099 0z"/><path fill="#f5f5f5" d="M7.498 6.784l0.122 0.366 0.386 0.003c0.050 0 0.071 0.064 0.030 0.094l-0.311 0.229 0.117 0.368c0.015 0.048-0.039 0.087-0.080 0.058l-0.314-0.224-0.314 0.224c-0.041 0.029-0.095-0.010-0.080-0.058l0.117-0.368-0.311-0.229c-0.040-0.030-0.019-0.093 0.030-0.094l0.386-0.003 0.122-0.366c0.016-0.048 0.083-0.048 0.099-0z"/><path fill="#f5f5f5" d="M7.498 8.699l0.122 0.366 0.386 0.003c0.050 0 0.071 0.064 0.030 0.094l-0.311 0.229 0.117 0.368c0.015 0.048-0.039 0.087-0.080 0.058l-0.314-0.225-0.314 0.225c-0.041 0.029-0.095-0.010-0.080-0.058l0.117-0.368-0.311-0.229c-0.040-0.030-0.019-0.093 0.030-0.094l0.386-0.003 0.122-0.366c0.016-0.047 0.083-0.047 0.099 0z"/><path fill="#f5f5f5" d="M7.498 10.615l0.122 0.366 0.386 0.003c0.050 0 0.071 0.064 0.030 0.094l-0.311 0.229 0.117 0.368c0.015 0.048-0.039 0.087-0.080 0.058l-0.314-0.225-0.314 0.225c-0.041 0.029-0.095-0.010-0.080-0.058l0.117-0.368-0.311-0.229c-0.040-0.030-0.019-0.093 0.030-0.094l0.386-0.003 0.122-0.366c0.016-0.047 0.083-0.047 0.099 0z"/><path fill="#f5f5f5" d="M7.498 12.531l0.122 0.366 0.386 0.003c0.050 0 0.071 0.064 0.030 0.094l-0.311 0.229 0.117 0.368c0.015 0.048-0.039 0.087-0.080 0.058l-0.314-0.225-0.314 0.225c-0.041 0.029-0.095-0.010-0.080-0.058l0.117-0.368-0.311-0.229c-0.040-0.030-0.019-0.093 0.030-0.094l0.386-0.003 0.122-0.366c0.016-0.047 0.083-0.047 0.099 0z"/><path fill="#f5f5f5" d="M7.498 14.447l0.122 0.366 0.386 0.003c0.050 0 0.071 0.064 0.030 0.094l-0.311 0.229 0.117 0.368c0.015 0.048-0.039 0.087-0.080 0.058l-0.314-0.225-0.314 0.225c-0.041 0.029-0.095-0.010-0.080-0.058l0.117-0.368-0.311-0.229c-0.040-0.030-0.019-0.093 0.030-0.094l0.386-0.003 0.122-0.366c0.016-0.047 0.083-0.047 0.099 0z"/><path fill="#f5f5f5" d="M8.985 7.723l0.122 0.366 0.386 0.003c0.050 0 0.071 0.064 0.030 0.094l-0.311 0.229 0.117 0.368c0.015 0.048-0.039 0.087-0.080 0.058l-0.314-0.225-0.314 0.225c-0.041 0.029-0.095-0.010-0.080-0.058l0.117-0.368-0.311-0.229c-0.040-0.030-0.020-0.093 0.030-0.094l0.386-0.003 0.122-0.366c0.016-0.047 0.083-0.047 0.099 0z"/><path fill="#f5f5f5" d="M8.985 9.639l0.122 0.366 0.386 0.003c0.050 0 0.071 0.064 0.030 0.094l-0.311 0.229 0.117 0.368c0.015 0.048-0.039 0.087-0.080 0.058l-0.314-0.225-0.314 0.225c-0.041 0.029-0.095-0.010-0.080-0.058l0.117-0.368-0.311-0.229c-0.040-0.030-0.020-0.093 0.030-0.094l0.386-0.003 0.122-0.366c0.016-0.047 0.083-0.047 0.099 0z"/><path fill="#f5f5f5" d="M8.985 11.555l0.122 0.366 0.386 0.003c0.050 0 0.071 0.064 0.030 0.094l-0.311 0.229 0.117 0.368c0.015 0.048-0.039 0.087-0.080 0.058l-0.314-0.225-0.314 0.225c-0.041 0.029-0.095-0.010-0.080-0.058l0.117-0.368-0.311-0.229c-0.040-0.030-0.020-0.093 0.030-0.094l0.386-0.003 0.122-0.366c0.016-0.047 0.083-0.047 0.099 0z"/><path fill="#f5f5f5" d="M8.985 13.471l0.122 0.366 0.386 0.003c0.050 0 0.071 0.064 0.030 0.094l-0.311 0.229 0.117 0.368c0.015 0.048-0.039 0.087-0.080 0.058l-0.314-0.225-0.314 0.225c-0.041 0.029-0.095-0.010-0.080-0.058l0.117-0.368-0.311-0.229c-0.040-0.030-0.020-0.093 0.030-0.094l0.386-0.003 0.122-0.366c0.016-0.047 0.083-0.047 0.099 0z"/><path fill="#f5f5f5" d="M10.472 6.784l0.122 0.366 0.386 0.003c0.050 0 0.071 0.064 0.030 0.094l-0.311 0.229 0.117 0.368c0.015 0.048-0.039 0.087-0.080 0.058l-0.314-0.224-0.314 0.224c-0.041 0.029-0.095-0.010-0.080-0.058l0.117-0.368-0.311-0.229c-0.040-0.030-0.020-0.093 0.030-0.094l0.386-0.003 0.122-0.366c0.016-0.047 0.083-0.047 0.099 0z"/><path fill="#f5f5f5" d="M10.472 8.699l0.122 0.366 0.386 0.003c0.050 0 0.071 0.064 0.030 0.094l-0.311 0.229 0.117 0.368c0.015 0.048-0.039 0.087-0.080 0.058l-0.314-0.225-0.314 0.225c-0.041 0.029-0.095-0.010-0.080-0.058l0.117-0.368-0.311-0.229c-0.040-0.030-0.020-0.093 0.030-0.094l0.386-0.003 0.122-0.366c0.016-0.047 0.083-0.047 0.099 0z"/><path fill="#f5f5f5" d="M10.472 10.615l0.122 0.366 0.386 0.003c0.050 0 0.071 0.064 0.030 0.094l-0.311 0.229 0.117 0.368c0.015 0.048-0.039 0.087-0.080 0.058l-0.314-0.225-0.314 0.225c-0.041 0.029-0.095-0.010-0.080-0.058l0.117-0.368-0.311-0.229c-0.040-0.030-0.020-0.093 0.030-0.094l0.386-0.003 0.122-0.366c0.016-0.047 0.083-0.047 0.099 0z"/><path fill="#f5f5f5" d="M10.472 12.531l0.122 0.366 0.386 0.003c0.050 0 0.071 0.064 0.030 0.094l-0.311 0.229 0.117 0.368c0.015 0.048-0.039 0.087-0.080 0.058l-0.314-0.225-0.314 0.225c-0.041 0.029-0.095-0.010-0.080-0.058l0.117-0.368-0.311-0.229c-0.040-0.030-0.020-0.093 0.030-0.094l0.386-0.003 0.122-0.366c0.016-0.047 0.083-0.047 0.099 0z"/><path fill="#f5f5f5" d="M10.472 14.447l0.122 0.366 0.386 0.003c0.050 0 0.071 0.064 0.030 0.094l-0.311 0.229 0.117 0.368c0.015 0.048-0.039 0.087-0.080 0.058l-0.314-0.225-0.314 0.225c-0.041 0.029-0.095-0.010-0.080-0.058l0.117-0.368-0.311-0.229c-0.040-0.030-0.020-0.093 0.030-0.094l0.386-0.003 0.122-0.366c0.016-0.047 0.083-0.047 0.099 0z"/><path fill="#f5f5f5" d="M11.959 7.723l0.122 0.366 0.386 0.003c0.050 0 0.071 0.064 0.030 0.094l-0.311 0.229 0.117 0.368c0.015 0.048-0.039 0.087-0.080 0.058l-0.314-0.225-0.314 0.225c-0.041 0.029-0.095-0.010-0.080-0.058l0.117-0.368-0.311-0.229c-0.040-0.030-0.020-0.093 0.030-0.094l0.386-0.003 0.122-0.366c0.016-0.047 0.083-0.047 0.099 0z"/><path fill="#f5f5f5" d="M11.959 9.639l0.122 0.366 0.386 0.003c0.050 0 0.071 0.064 0.030 0.094l-0.311 0.229 0.117 0.368c0.015 0.048-0.039 0.087-0.080 0.058l-0.314-0.225-0.314 0.225c-0.041 0.029-0.095-0.010-0.080-0.058l0.117-0.368-0.311-0.229c-0.040-0.030-0.020-0.093 0.030-0.094l0.386-0.003 0.122-0.366c0.016-0.047 0.083-0.047 0.099 0z"/><path fill="#f5f5f5" d="M11.959 11.555l0.122 0.366 0.386 0.003c0.050 0 0.071 0.064 0.030 0.094l-0.311 0.229 0.117 0.368c0.015 0.048-0.039 0.087-0.080 0.058l-0.314-0.225-0.314 0.225c-0.041 0.029-0.095-0.010-0.080-0.058l0.117-0.368-0.311-0.229c-0.040-0.030-0.020-0.093 0.030-0.094l0.386-0.003 0.122-0.366c0.016-0.047 0.083-0.047 0.099 0z"/><path fill="#f5f5f5" d="M11.959 13.471l0.122 0.366 0.386 0.003c0.050 0 0.071 0.064 0.030 0.094l-0.311 0.229 0.117 0.368c0.015 0.048-0.039 0.087-0.080 0.058l-0.314-0.225-0.314 0.225c-0.041 0.029-0.095-0.010-0.080-0.058l0.117-0.368-0.311-0.229c-0.040-0.030-0.020-0.093 0.030-0.094l0.386-0.003 0.122-0.366c0.016-0.047 0.083-0.047 0.099 0z"/><path fill="#f5f5f5" d="M13.446 6.784l0.122 0.366 0.386 0.003c0.050 0 0.071 0.064 0.030 0.094l-0.311 0.229 0.117 0.368c0.015 0.048-0.039 0.087-0.080 0.058l-0.314-0.224-0.314 0.224c-0.041 0.029-0.095-0.010-0.080-0.058l0.117-0.368-0.311-0.229c-0.040-0.030-0.020-0.093 0.030-0.094l0.386-0.003 0.122-0.366c0.016-0.047 0.083-0.047 0.099 0z"/><path fill="#f5f5f5" d="M13.446 8.699l0.122 0.366 0.386 0.003c0.050 0 0.071 0.064 0.030 0.094l-0.311 0.229 0.117 0.368c0.015 0.048-0.039 0.087-0.080 0.058l-0.314-0.225-0.314 0.225c-0.041 0.029-0.095-0.010-0.080-0.058l0.117-0.368-0.311-0.229c-0.040-0.030-0.020-0.093 0.030-0.094l0.386-0.003 0.122-0.366c0.016-0.047 0.083-0.047 0.099 0z"/><path fill="#f5f5f5" d="M13.446 10.615l0.122 0.366 0.386 0.003c0.050 0 0.071 0.064 0.030 0.094l-0.311 0.229 0.117 0.368c0.015 0.048-0.039 0.087-0.080 0.058l-0.314-0.225-0.314 0.225c-0.041 0.029-0.095-0.010-0.080-0.058l0.117-0.368-0.311-0.229c-0.040-0.030-0.020-0.093 0.030-0.094l0.386-0.003 0.122-0.366c0.016-0.047 0.083-0.047 0.099 0z"/><path fill="#f5f5f5" d="M13.446 12.531l0.122 0.366 0.386 0.003c0.050 0 0.071 0.064 0.030 0.094l-0.311 0.229 0.117 0.368c0.015 0.048-0.039 0.087-0.080 0.058l-0.314-0.225-0.314 0.225c-0.041 0.029-0.095-0.010-0.080-0.058l0.117-0.368-0.311-0.229c-0.040-0.030-0.020-0.093 0.030-0.094l0.386-0.003 0.122-0.366c0.016-0.047 0.083-0.047 0.099 0z"/><path fill="#f5f5f5" d="M13.446 14.447l0.122 0.366 0.386 0.003c0.050 0 0.071 0.064 0.030 0.094l-0.311 0.229 0.117 0.368c0.015 0.048-0.039 0.087-0.080 0.058l-0.314-0.225-0.314 0.225c-0.041 0.029-0.095-0.010-0.080-0.058l0.117-0.368-0.311-0.229c-0.040-0.030-0.020-0.093 0.030-0.094l0.386-0.003 0.122-0.366c0.016-0.047 0.083-0.047 0.099 0z"/></svg>