<svg xmlns="http://www.w3.org/2000/svg" width="32" height="32" version="1.1" viewBox="0 0 32 32"><title>uzbekistn</title><path fill="#82afff" d="M29.603 5.517h-27.207c-1.324 0-2.397 1.073-2.397 2.397v3.971h32v-3.971c0-1.324-1.073-2.397-2.397-2.397z"/><path fill="#73af00" d="M0 24.086c0 1.324 1.073 2.397 2.397 2.397h27.207c1.324 0 2.397-1.073 2.397-2.397v-3.971h-32v3.971z"/><path fill="#f5f5f5" d="M0 12.756h32v6.487h-32v-6.487z"/><path fill="#ff4b55" d="M0 12.506v0.251h32v-0.871h-32z"/><path fill="#ff4b55" d="M0 19.494v0.621h32v-0.871h-32z"/><path fill="#f5f5f5" d="M7.093 10.754c-1.13 0-2.045-0.913-2.045-2.039 0-1.13 0.915-2.047 2.045-2.047 0.004 0 0.009 0 0.013 0 0.067 0.001 0.090-0.087 0.031-0.119-0.348-0.186-0.745-0.292-1.167-0.289-1.351 0.010-2.449 1.13-2.435 2.481 0.014 1.338 1.108 2.42 2.453 2.42 0.416 0 0.808-0.105 1.151-0.289 0.058-0.031 0.035-0.12-0.031-0.119-0.005 0-0.010 0-0.015 0z"/><path fill="#f5f5f5" d="M8.695 10.191l-0.091 0.274-0.289 0.002c-0.037 0-0.053 0.048-0.023 0.070l0.232 0.171-0.087 0.275c-0.011 0.036 0.029 0.065 0.060 0.043l0.235-0.168 0.235 0.168c0.030 0.022 0.071-0.008 0.060-0.043l-0.087-0.275 0.232-0.171c0.030-0.022 0.015-0.070-0.023-0.070l-0.289-0.002-0.091-0.274c-0.012-0.035-0.062-0.035-0.074 0z"/><path fill="#f5f5f5" d="M10.729 10.191l-0.091 0.274-0.289 0.002c-0.037 0-0.053 0.048-0.023 0.070l0.232 0.171-0.087 0.275c-0.011 0.036 0.029 0.065 0.060 0.043l0.235-0.168 0.235 0.168c0.030 0.022 0.071-0.008 0.060-0.043l-0.087-0.275 0.232-0.171c0.030-0.022 0.015-0.070-0.023-0.070l-0.289-0.002-0.091-0.274c-0.012-0.035-0.062-0.035-0.074 0z"/><path fill="#f5f5f5" d="M10.729 8.292l-0.091 0.274-0.289 0.002c-0.037 0-0.053 0.048-0.023 0.070l0.232 0.171-0.087 0.275c-0.011 0.036 0.029 0.065 0.060 0.043l0.235-0.168 0.235 0.168c0.030 0.022 0.071-0.008 0.060-0.043l-0.087-0.275 0.232-0.171c0.030-0.022 0.015-0.070-0.023-0.070l-0.289-0.002-0.091-0.274c-0.012-0.036-0.062-0.036-0.074 0z"/><path fill="#f5f5f5" d="M12.762 8.292l-0.091 0.274-0.289 0.002c-0.037 0-0.053 0.048-0.023 0.070l0.232 0.171-0.087 0.275c-0.011 0.036 0.029 0.065 0.060 0.043l0.235-0.168 0.235 0.168c0.030 0.022 0.071-0.008 0.060-0.043l-0.087-0.275 0.232-0.171c0.030-0.022 0.015-0.070-0.023-0.070l-0.289-0.002-0.091-0.274c-0.012-0.036-0.062-0.036-0.074 0z"/><path fill="#f5f5f5" d="M14.796 8.292l-0.091 0.274-0.289 0.002c-0.037 0-0.053 0.048-0.023 0.070l0.232 0.171-0.087 0.275c-0.011 0.036 0.029 0.065 0.060 0.043l0.235-0.168 0.235 0.168c0.030 0.022 0.071-0.008 0.060-0.043l-0.087-0.275 0.232-0.171c0.030-0.022 0.015-0.070-0.023-0.070l-0.289-0.002-0.091-0.274c-0.012-0.036-0.062-0.036-0.074 0z"/><path fill="#f5f5f5" d="M16.83 8.292l-0.091 0.274-0.289 0.002c-0.037 0-0.053 0.048-0.023 0.070l0.232 0.171-0.087 0.275c-0.011 0.036 0.029 0.065 0.060 0.043l0.235-0.168 0.235 0.168c0.030 0.022 0.071-0.008 0.060-0.043l-0.087-0.275 0.232-0.171c0.030-0.022 0.015-0.070-0.023-0.070l-0.289-0.002-0.091-0.274c-0.012-0.036-0.062-0.036-0.074 0z"/><path fill="#f5f5f5" d="M12.762 10.191l-0.091 0.274-0.289 0.002c-0.037 0-0.053 0.048-0.023 0.070l0.232 0.171-0.087 0.275c-0.011 0.036 0.029 0.065 0.060 0.043l0.235-0.168 0.235 0.168c0.030 0.022 0.071-0.008 0.060-0.043l-0.087-0.275 0.232-0.171c0.030-0.022 0.015-0.070-0.023-0.070l-0.289-0.002-0.091-0.274c-0.012-0.035-0.062-0.035-0.074 0z"/><path fill="#f5f5f5" d="M12.762 6.394l-0.091 0.274-0.289 0.002c-0.037 0-0.053 0.048-0.023 0.070l0.232 0.171-0.087 0.275c-0.011 0.036 0.029 0.065 0.060 0.043l0.235-0.168 0.235 0.168c0.030 0.022 0.071-0.008 0.060-0.043l-0.087-0.275 0.232-0.171c0.030-0.022 0.015-0.070-0.023-0.070l-0.289-0.002-0.091-0.274c-0.012-0.035-0.062-0.035-0.074 0z"/><path fill="#f5f5f5" d="M14.796 10.191l-0.091 0.274-0.289 0.002c-0.037 0-0.053 0.048-0.023 0.070l0.232 0.171-0.087 0.275c-0.011 0.036 0.029 0.065 0.060 0.043l0.235-0.168 0.235 0.168c0.030 0.022 0.071-0.008 0.060-0.043l-0.087-0.275 0.232-0.171c0.030-0.022 0.015-0.070-0.023-0.070l-0.289-0.002-0.091-0.274c-0.012-0.035-0.062-0.035-0.074 0z"/><path fill="#f5f5f5" d="M16.83 10.191l-0.091 0.274-0.289 0.002c-0.037 0-0.053 0.048-0.023 0.070l0.232 0.171-0.087 0.275c-0.011 0.036 0.029 0.065 0.060 0.043l0.235-0.168 0.235 0.168c0.030 0.022 0.071-0.008 0.060-0.043l-0.087-0.275 0.232-0.171c0.030-0.022 0.015-0.070-0.023-0.070l-0.289-0.002-0.091-0.274c-0.012-0.035-0.062-0.035-0.074 0z"/><path fill="#f5f5f5" d="M14.796 6.394l-0.091 0.274-0.289 0.002c-0.037 0-0.053 0.048-0.023 0.070l0.232 0.171-0.087 0.275c-0.011 0.036 0.029 0.065 0.060 0.043l0.235-0.168 0.235 0.168c0.030 0.022 0.071-0.008 0.060-0.043l-0.087-0.275 0.232-0.171c0.030-0.022 0.015-0.070-0.023-0.070l-0.289-0.002-0.091-0.274c-0.012-0.035-0.062-0.035-0.074 0z"/><path fill="#f5f5f5" d="M16.83 6.394l-0.091 0.274-0.289 0.002c-0.037 0-0.053 0.048-0.023 0.070l0.232 0.171-0.087 0.275c-0.011 0.036 0.029 0.065 0.060 0.043l0.235-0.168 0.235 0.168c0.030 0.022 0.071-0.008 0.060-0.043l-0.087-0.275 0.232-0.171c0.030-0.022 0.015-0.070-0.023-0.070l-0.289-0.002-0.091-0.274c-0.012-0.035-0.062-0.035-0.074 0z"/></svg>