<!-- Generated by IcoMoon.io -->
<svg version="1.1" xmlns="http://www.w3.org/2000/svg" width="32" height="32" viewBox="0 0 32 32">
<title>vanuatu</title>
<path fill="#464655" d="M29.603 5.516h-27.21c-1.28 0-2.326 1.004-2.393 2.267v16.433c0.067 1.263 1.113 2.267 2.393 2.267h27.21c1.324 0 2.397-1.073 2.397-2.397v-16.174c0-1.324-1.073-2.397-2.397-2.397z"></path>
<path fill="#ffe15a" d="M0 24.217c0.016 0.294 0.085 0.573 0.197 0.829l15.396-8.494h16.408v-1.104h-16.408l-15.396-8.494c-0.112 0.256-0.181 0.536-0.197 0.829v0.323l14.308 7.894-14.308 7.894v0.323z"></path>
<path fill="#73af00" d="M32 17.655h-15.998l-15.082 8.321c0.407 0.318 0.918 0.507 1.474 0.507h27.21c1.324 0 2.397-1.073 2.397-2.397v-6.432z"></path>
<path fill="#ff4b55" d="M29.603 5.516h-27.21c-0.556 0-1.067 0.19-1.474 0.507l15.082 8.321h15.998v-6.432c0-1.324-1.073-2.397-2.397-2.397z"></path>
<path fill="#ffe15a" d="M4.779 12.905c-1.575-0.496-2.765 0.649-3.037 1.238-0.23 0.499-0.658 2.761 1.474 3.121s2.108-1.651 2.108-1.651c-0.096 0.321-0.269 1.234-1.807 1.234-0.577 0-1.407-0.858-1.25-1.803 0.147-0.89 0.942-1.345 1.543-1.37 0.569-0.024 1.895 0.369 1.895 1.984 0 1.815-1.871 2.020-1.871 2.020v1.096c1.629-0.16 2.55-1.062 2.794-2.507 0.243-1.438-0.247-2.858-1.849-3.362z"></path>
<path fill="#ffe15a" d="M3.034 15.597c-0.037 0.047-0.057 0.106-0.058 0.166l-0.005 0.295-0.057 0.1c-0.021 0.036-0.008 0.082 0.028 0.103s0.083 0.009 0.104-0.028l0.059-0.103 0.235-0.085c0.071-0.026 0.129-0.079 0.16-0.149 0.062-0.137 0.194-0.389 0.408-0.653 0.214 0.263 0.346 0.515 0.408 0.653 0.031 0.069 0.088 0.123 0.16 0.149l0.236 0.085 0.059 0.103c0.021 0.037 0.068 0.049 0.104 0.028s0.048-0.067 0.028-0.103l-0.057-0.1-0.005-0.295c-0.001-0.060-0.021-0.119-0.058-0.166-0.197-0.25-0.407-0.447-0.614-0.622 0.165-0.155 0.352-0.303 0.587-0.418 0.054-0.027 0.083-0.088 0.069-0.146-0.019-0.080-0.107-0.123-0.182-0.088-0.158 0.073-0.429 0.218-0.734 0.44-0.305-0.222-0.576-0.367-0.734-0.44-0.075-0.035-0.163 0.007-0.182 0.088-0.014 0.059 0.014 0.12 0.069 0.146 0.235 0.114 0.422 0.263 0.587 0.418-0.207 0.174-0.416 0.371-0.614 0.622z"></path>
</svg>
