<svg xmlns="http://www.w3.org/2000/svg" width="32" height="32" version="1.1" viewBox="0 0 32 32"><title>venezuela</title><path fill="#ffe15a" d="M29.603 5.517h-27.207c-1.324 0-2.397 1.073-2.397 2.397v4.592h32v-4.592c0-1.324-1.073-2.397-2.397-2.397z"/><path fill="#ff4b55" d="M0 24.086c0 1.324 1.073 2.397 2.397 2.397h27.207c1.324 0 2.397-1.073 2.397-2.397v-4.592h-32v4.592z"/><path fill="#41479b" d="M0 12.506h32v6.988h-32v-6.988z"/><path fill="#f5f5f5" d="M11.134 17.344l0.138 0.415 0.437 0.003c0.057 0 0.080 0.073 0.035 0.106l-0.351 0.26 0.132 0.417c0.017 0.054-0.044 0.099-0.090 0.066l-0.355-0.254-0.355 0.254c-0.046 0.033-0.107-0.012-0.090-0.066l0.132-0.417-0.351-0.26c-0.046-0.034-0.022-0.106 0.035-0.106l0.437-0.003 0.138-0.415c0.018-0.054 0.094-0.054 0.112 0z"/><path fill="#f5f5f5" d="M11.983 16.024l-0.074 0.431 0.383 0.209c0.050 0.027 0.036 0.102-0.020 0.11l-0.432 0.063-0.081 0.43c-0.011 0.056-0.086 0.066-0.111 0.015l-0.193-0.392-0.433 0.056c-0.056 0.007-0.089-0.061-0.049-0.101l0.313-0.305-0.187-0.395c-0.024-0.051 0.031-0.104 0.081-0.077l0.387 0.204 0.318-0.3c0.041-0.039 0.108-0.003 0.098 0.053z"/><path fill="#f5f5f5" d="M13.057 14.869l-0.205 0.386 0.299 0.319c0.039 0.041 0.003 0.108-0.053 0.098l-0.43-0.076-0.211 0.383c-0.027 0.050-0.102 0.036-0.11-0.020l-0.061-0.433-0.429-0.082c-0.056-0.011-0.066-0.086-0.015-0.111l0.393-0.192-0.054-0.434c-0.007-0.056 0.061-0.089 0.101-0.048l0.304 0.314 0.396-0.185c0.051-0.024 0.104 0.031 0.077 0.081z"/><path fill="#f5f5f5" d="M14.35 14.152l-0.302 0.316 0.202 0.388c0.026 0.050-0.027 0.105-0.078 0.080l-0.394-0.189-0.306 0.312c-0.040 0.040-0.108 0.007-0.1-0.049l0.058-0.433-0.391-0.195c-0.051-0.025-0.040-0.1 0.016-0.111l0.43-0.079 0.065-0.432c0.008-0.056 0.083-0.069 0.11-0.019l0.208 0.384 0.431-0.072c0.056-0.009 0.091 0.058 0.052 0.099z"/><path fill="#f5f5f5" d="M15.836 13.82l-0.375 0.224 0.091 0.428c0.012 0.055-0.054 0.094-0.096 0.057l-0.329-0.288-0.379 0.218c-0.049 0.028-0.106-0.022-0.084-0.074l0.172-0.402-0.325-0.293c-0.042-0.038-0.012-0.107 0.045-0.102l0.435 0.039 0.178-0.399c0.023-0.052 0.099-0.044 0.111 0.011l0.097 0.426 0.435 0.046c0.056 0.006 0.072 0.080 0.024 0.109z"/><path fill="#f5f5f5" d="M20.866 17.344l-0.138 0.415-0.437 0.003c-0.057 0-0.080 0.073-0.035 0.106l0.352 0.26-0.132 0.417c-0.017 0.054 0.044 0.099 0.090 0.066l0.355-0.254 0.355 0.254c0.046 0.033 0.107-0.012 0.090-0.066l-0.132-0.417 0.352-0.26c0.046-0.034 0.022-0.106-0.035-0.106l-0.437-0.003-0.138-0.415c-0.018-0.054-0.094-0.054-0.112 0z"/><path fill="#f5f5f5" d="M20.017 16.024l0.074 0.431-0.384 0.209c-0.050 0.027-0.036 0.102 0.020 0.11l0.433 0.063 0.081 0.43c0.011 0.056 0.086 0.066 0.111 0.015l0.193-0.392 0.433 0.056c0.056 0.007 0.089-0.061 0.049-0.101l-0.313-0.305 0.187-0.395c0.024-0.051-0.031-0.104-0.081-0.077l-0.387 0.204-0.318-0.3c-0.041-0.039-0.108-0.003-0.099 0.053z"/><path fill="#f5f5f5" d="M18.943 14.869l0.205 0.386-0.299 0.319c-0.039 0.041-0.003 0.108 0.053 0.098l0.43-0.076 0.211 0.383c0.027 0.050 0.102 0.036 0.11-0.020l0.061-0.433 0.429-0.082c0.056-0.011 0.066-0.086 0.015-0.111l-0.393-0.192 0.054-0.434c0.007-0.056-0.061-0.089-0.101-0.048l-0.304 0.314-0.396-0.185c-0.051-0.024-0.104 0.031-0.077 0.081z"/><path fill="#f5f5f5" d="M17.65 14.152l0.302 0.316-0.202 0.388c-0.026 0.050 0.027 0.105 0.078 0.080l0.394-0.189 0.306 0.312c0.040 0.040 0.108 0.007 0.1-0.049l-0.058-0.433 0.391-0.195c0.051-0.025 0.040-0.1-0.016-0.111l-0.43-0.079-0.065-0.432c-0.008-0.056-0.083-0.069-0.11-0.019l-0.208 0.384-0.431-0.072c-0.056-0.009-0.091 0.058-0.052 0.099z"/><path fill="#f5f5f5" d="M16.164 13.82l0.375 0.224-0.090 0.428c-0.012 0.055 0.054 0.094 0.096 0.057l0.329-0.288 0.379 0.218c0.049 0.028 0.106-0.022 0.084-0.074l-0.172-0.402 0.325-0.293c0.042-0.038 0.012-0.107-0.045-0.102l-0.435 0.039-0.178-0.399c-0.023-0.052-0.099-0.044-0.111 0.011l-0.097 0.426-0.435 0.046c-0.056 0.006-0.072 0.080-0.024 0.109z"/></svg>