<!-- Generated by IcoMoon.io -->
<svg version="1.1" xmlns="http://www.w3.org/2000/svg" width="32" height="32" viewBox="0 0 32 32">
<title>vietnam</title>
<path fill="#ff4b55" d="M29.612 5.517h-27.218c-1.319 0-2.394 1.069-2.394 2.394v16.178c0 1.325 1.075 2.394 2.394 2.394h27.212c1.325 0 2.394-1.075 2.394-2.394v-16.178c0.006-1.325-1.069-2.394-2.388-2.394z"></path>
<path fill="#ffe15a" d="M16.259 9.749l1.475 4.426 4.663 0.037c0.263 0 0.369 0.338 0.156 0.488l-3.751 2.769 1.407 4.445c0.081 0.25-0.206 0.456-0.419 0.3l-3.788-2.707-3.794 2.713c-0.213 0.15-0.494-0.056-0.419-0.3l1.407-4.445-3.751-2.769c-0.213-0.156-0.1-0.488 0.156-0.488l4.663-0.037 1.475-4.426c0.088-0.256 0.438-0.256 0.519-0.006z"></path>
</svg>
