<!-- Generated by IcoMoon.io -->
<svg version="1.1" xmlns="http://www.w3.org/2000/svg" width="32" height="32" viewBox="0 0 32 32">
<title>abkhazia</title>
<path fill="#73af00" d="M0 8.512h32v-2.443c0-0.305-0.247-0.552-0.552-0.552h-30.896c-0.305 0-0.552 0.247-0.552 0.552v2.443z"></path>
<path fill="#f5f5f5" d="M0 8.512h32v2.995h-32v-2.995z"></path>
<path fill="#73af00" d="M0 11.507h32v2.995h-32v-2.995z"></path>
<path fill="#f5f5f5" d="M0 14.502h32v2.995h-32v-2.995z"></path>
<path fill="#73af00" d="M0 17.498h32v2.995h-32v-2.995z"></path>
<path fill="#f5f5f5" d="M0 20.492h32v2.995h-32v-2.995z"></path>
<path fill="#73af00" d="M0.552 26.483h30.896c0.305 0 0.552-0.247 0.552-0.552v-2.443h-32v2.443c0 0.305 0.247 0.552 0.552 0.552z"></path>
<path fill="#ff4b55" d="M0.552 14.502h14.896c0.305 0 0.552-0.247 0.552-0.552v-7.882c0-0.305-0.247-0.552-0.552-0.552h-14.896c-0.305 0-0.552 0.247-0.552 0.552v7.882c0 0.305 0.247 0.552 0.552 0.552z"></path>
<path fill="#f5f5f5" d="M8.484 13.793h-0.89c-0.081 0-0.153-0.050-0.181-0.126l-0.286-0.773c-0.112-0.302-0.162-0.623-0.148-0.945l0.1-2.233c0.003-0.057 0.039-0.106 0.092-0.126v0c0.091-0.033 0.188 0.034 0.188 0.132v1.017c0 0.028 0.023 0.052 0.051 0.052v0c0.027 0 0.050-0.021 0.051-0.049l0.080-1.622c0.003-0.066 0.053-0.12 0.118-0.129v0c0.081-0.012 0.154 0.050 0.157 0.131l0.055 1.512c0.001 0.030 0.028 0.053 0.058 0.049v0c0.026-0.003 0.045-0.025 0.045-0.050l0.033-1.68c0.002-0.092 0.092-0.155 0.179-0.126v0c0.053 0.018 0.090 0.066 0.093 0.123l0.082 1.698c0.001 0.019 0.012 0.036 0.029 0.044v0c0.034 0.017 0.075-0.007 0.076-0.045l0.041-1.316c0.003-0.099 0.107-0.163 0.197-0.12v0c0.045 0.022 0.075 0.066 0.078 0.116l0.096 1.615 0.256 0.747c0.014 0.042 0.073 0.043 0.089 0.001 0.073-0.198 0.237-0.568 0.502-0.731 0.047-0.029 0.107-0.025 0.151 0.008v0c0.065 0.049 0.072 0.142 0.017 0.201-0.129 0.137-0.317 0.425-0.303 0.932 0.002 0.065-0.017 0.128-0.055 0.18l-0.722 0.986c-0.072 0.099-0.119 0.214-0.135 0.335l-0.003 0.024c-0.013 0.096-0.095 0.168-0.192 0.168z"></path>
<path fill="#f5f5f5" d="M8.042 6.273l0.145 0.435 0.458 0.003c0.036 0 0.050 0.046 0.022 0.067l-0.369 0.272 0.138 0.437c0.011 0.034-0.028 0.062-0.057 0.041l-0.373-0.266-0.373 0.266c-0.029 0.021-0.067-0.007-0.057-0.041l0.138-0.437-0.369-0.272c-0.029-0.021-0.014-0.066 0.022-0.067l0.458-0.003 0.145-0.435c0.011-0.034 0.059-0.034 0.070 0z"></path>
<path fill="#f5f5f5" d="M5.887 6.898l0.145 0.435 0.458 0.003c0.035 0 0.050 0.046 0.022 0.067l-0.369 0.272 0.138 0.437c0.011 0.034-0.028 0.062-0.057 0.041l-0.373-0.266-0.373 0.266c-0.029 0.021-0.067-0.007-0.057-0.041l0.138-0.437-0.369-0.272c-0.029-0.021-0.014-0.066 0.022-0.067l0.458-0.003 0.145-0.435c0.011-0.034 0.059-0.034 0.070 0z"></path>
<path fill="#f5f5f5" d="M10.249 6.898l0.145 0.435 0.458 0.003c0.036 0 0.050 0.046 0.022 0.067l-0.369 0.272 0.138 0.437c0.011 0.034-0.028 0.062-0.057 0.041l-0.373-0.266-0.373 0.266c-0.029 0.021-0.067-0.007-0.057-0.041l0.138-0.437-0.369-0.272c-0.029-0.021-0.014-0.066 0.022-0.067l0.458-0.003 0.145-0.435c0.011-0.034 0.059-0.034 0.070 0z"></path>
<path fill="#f5f5f5" d="M11.695 8.542l0.145 0.435 0.458 0.004c0.036 0 0.050 0.046 0.022 0.067l-0.369 0.272 0.138 0.437c0.011 0.034-0.028 0.062-0.057 0.041l-0.373-0.266-0.373 0.266c-0.029 0.021-0.067-0.007-0.057-0.041l0.138-0.437-0.369-0.272c-0.029-0.021-0.014-0.066 0.022-0.067l0.458-0.004 0.145-0.435c0.011-0.034 0.059-0.034 0.070 0z"></path>
<path fill="#f5f5f5" d="M4.321 8.542l0.145 0.435 0.458 0.004c0.035 0 0.050 0.046 0.022 0.067l-0.369 0.272 0.138 0.437c0.011 0.034-0.028 0.062-0.057 0.041l-0.373-0.266-0.373 0.266c-0.029 0.021-0.067-0.007-0.057-0.041l0.138-0.437-0.369-0.272c-0.029-0.021-0.014-0.066 0.022-0.067l0.458-0.004 0.145-0.435c0.011-0.034 0.059-0.034 0.070 0z"></path>
<path fill="#f5f5f5" d="M12.111 10.697l0.145 0.435 0.458 0.004c0.036 0 0.050 0.046 0.022 0.067l-0.369 0.272 0.138 0.437c0.011 0.034-0.028 0.062-0.057 0.041l-0.373-0.266-0.373 0.266c-0.029 0.021-0.067-0.007-0.057-0.041l0.138-0.437-0.369-0.272c-0.029-0.021-0.014-0.066 0.022-0.067l0.458-0.004 0.145-0.435c0.011-0.034 0.059-0.034 0.070 0z"></path>
<path fill="#f5f5f5" d="M3.76 10.697l0.145 0.435 0.458 0.004c0.035 0 0.050 0.046 0.022 0.067l-0.369 0.272 0.138 0.437c0.011 0.034-0.028 0.062-0.057 0.041l-0.373-0.266-0.373 0.266c-0.029 0.021-0.067-0.007-0.057-0.041l0.138-0.437-0.369-0.272c-0.029-0.021-0.014-0.066 0.022-0.067l0.458-0.004 0.145-0.435c0.011-0.034 0.059-0.034 0.070 0z"></path>
</svg>
