<!-- Generated by IcoMoon.io -->
<svg version="1.1" xmlns="http://www.w3.org/2000/svg" width="32" height="32" viewBox="0 0 32 32">
<title>albania</title>
<path fill="#ff4b55" d="M31.448 26.483h-30.896c-0.305 0-0.552-0.247-0.552-0.552v-19.862c0-0.305 0.247-0.552 0.552-0.552h30.896c0.305 0 0.552 0.247 0.552 0.552v19.862c-0 0.305-0.247 0.552-0.552 0.552z"></path>
<path fill="#464655" d="M22.034 18.612c-0.302-0.19-0.483 0.112-0.483 0.112l-0.879 0.103 0.44-0.371c0.319 0.026 0.362-0.069 0.448-0.198s0.448-0.069 0.448-0.069c-0.052-0.397-0.552-0.172-0.552-0.172-0.405-0.043-0.474 0.285-0.474 0.285l-0.629 0.483-1.385-0.41c0.144-0.158 0.256-0.314 0.273-0.409 0.028-0.159-1.023-0.425-1.345-0.759s-0.437-0.862-0.287-1c0.149-0.138 0.276 0.253 0.437 0.575s0.46 0.575 0.655 0.414-0.207-0.402-0.391-0.747c-0.184-0.345 0.138-0.471 0.287-0.437s0.241 0.747 0.598 1.115c0.356 0.368 0.678 0.299 0.713 0.069s-0.588-0.513-0.715-0.709c-0.126-0.195-0.159-0.579 0.048-0.59s0.965 1.119 1.609 1.552c0.701 0.471 1.264-0.081 1.172-0.31s-0.517-0.138-1.012-0.264c-0.494-0.126-1-0.793-1.149-1.161s-0.026-0.368 0.060-0.333c0.086 0.034 0.414 0.517 1.043 0.888s1.069 0.017 1.121-0.069 0.251-0.473-0.397-0.382c-0.736 0.103-1.155-0.333-1.457-0.566s-0.422-0.552-0.285-0.681 0.592 0.454 1.282 0.638c0.634 0.169 0.891-0.103 0.873-0.353s-0.164-0.147-0.879-0.216-1.215-0.741-1.241-0.784-0.017-0.284 0.345-0.052 1.009 0.371 1.388 0.353 0.457-0.526 0.276-0.612-0.224 0.043-0.638 0.129-1.19-0.336-1.379-0.534 0.017-0.328 0.112-0.31 0.715 0.379 1.267 0.362 0.785-0.526 0.767-0.681-0.172-0.284-0.405-0.129-0.543 0.336-1.060 0.25c-0.517-0.086-0.759-0.431-0.69-0.56s0.569 0.095 1.362 0.009 0.828-0.784 0.75-0.922-0.267-0.095-0.535 0.155-0.785 0.302-1.19 0.302c-0.405 0-0.414-0.198-0.353-0.336s0.491-0.103 1.095-0.293c0.603-0.19 0.948-0.672 1.043-0.974s-0.138-0.534-0.233-0.534-0.035-0.138-0.448 0.457c-0.414 0.595-1.5 0.828-1.5 0.828-0.078-0.147-0.198-0.198-0.198-0.198-0.733 0.147-1.617 0.779-1.617 0.779s0.156 0.5-0.039 0.889c-0.251 0.501-1.11 0.188-0.876-0.604 0.195-0.659 0.948-1.058 1.584-1.129s0.669-0.312 0.669-0.312-0.668 0.217-0.68-0.081c0.138 0.028 0.341 0.040 0.686 0.010 0.513-0.045 0.798-0.409 0.571-0.487s-0.13 0.156-0.519 0.338c-0.278 0.13-0.569 0.071-0.715 0.027 0.135-0.294 0.702-0.144 0.702-0.144 0.006-0.513-0.674-0.329-0.674-0.329-0.299-0.644-2.046 0.103-2.046 0.103l0.414 0.333c-1.012 0.563-1.218 1.632-1.218 1.632s-0.207-1.069-1.218-1.632l0.414-0.333c0 0-1.747-0.747-2.046-0.103 0 0-0.681-0.183-0.674 0.329 0 0 0.568-0.151 0.702 0.144-0.146 0.044-0.438 0.103-0.715-0.027-0.389-0.182-0.292-0.415-0.519-0.338s0.058 0.441 0.571 0.487c0.345 0.031 0.549 0.018 0.686-0.010-0.012 0.299-0.68 0.081-0.68 0.081s0.033 0.24 0.669 0.312c0.636 0.071 1.389 0.47 1.584 1.129 0.234 0.792-0.626 1.105-0.876 0.604-0.195-0.389-0.039-0.889-0.039-0.889s-0.884-0.633-1.617-0.779c0 0-0.121 0.052-0.198 0.198 0 0-1.086-0.233-1.5-0.828s-0.353-0.457-0.448-0.457-0.328 0.233-0.233 0.534 0.44 0.784 1.043 0.974 1.034 0.155 1.095 0.293c0.060 0.138 0.052 0.336-0.353 0.336s-0.922-0.052-1.19-0.302c-0.267-0.25-0.457-0.293-0.534-0.155s-0.043 0.836 0.75 0.922c0.793 0.086 1.293-0.138 1.362-0.009s-0.172 0.474-0.69 0.56c-0.517 0.086-0.828-0.095-1.060-0.25s-0.388-0.026-0.405 0.129 0.216 0.664 0.767 0.681 1.172-0.345 1.267-0.362 0.302 0.112 0.112 0.31c-0.19 0.198-0.966 0.621-1.379 0.534s-0.457-0.216-0.638-0.129-0.103 0.595 0.276 0.612 1.026-0.121 1.388-0.353 0.371 0.009 0.345 0.052-0.526 0.716-1.241 0.784c-0.716 0.069-0.862-0.034-0.879 0.216s0.24 0.522 0.874 0.353c0.69-0.184 1.144-0.767 1.282-0.638s0.017 0.448-0.284 0.681c-0.302 0.233-0.721 0.669-1.457 0.566-0.647-0.091-0.448 0.296-0.397 0.382s0.491 0.44 1.121 0.069 0.957-0.853 1.043-0.888c0.086-0.034 0.21-0.034 0.060 0.333s-0.655 1.034-1.149 1.161c-0.494 0.127-0.92 0.035-1.011 0.264s0.471 0.782 1.172 0.31c0.644-0.433 1.402-1.563 1.609-1.552s0.174 0.395 0.048 0.59c-0.127 0.195-0.749 0.479-0.715 0.709s0.356 0.299 0.713-0.069c0.356-0.368 0.448-1.081 0.598-1.115s0.471 0.092 0.287 0.437c-0.184 0.345-0.586 0.586-0.391 0.747s0.494-0.092 0.655-0.414c0.161-0.322 0.287-0.713 0.437-0.575s0.034 0.667-0.287 1c-0.322 0.333-1.372 0.6-1.345 0.759 0.016 0.094 0.129 0.25 0.273 0.409l-1.385 0.41-0.629-0.483c0 0-0.069-0.328-0.474-0.285 0 0-0.5-0.224-0.552 0.172 0 0 0.362-0.060 0.448 0.069s0.129 0.224 0.448 0.198l0.44 0.371-0.879-0.103c0 0-0.181-0.302-0.483-0.112 0 0-0.379-0.121-0.474 0.241 0 0 0.328-0.060 0.414-0.017 0 0 0.129 0.293 0.543 0.121l0.871 0.043-0.491 0.241c0 0-0.621-0.198-0.595 0.319 0 0-0.181 0.207-0.017 0.414 0 0 0.034-0.224 0.198-0.319 0 0 0.319 0.129 0.526-0.25l0.629-0.379 0.621 0.302c0 0-0.017 0.336 0.44 0.198 0 0 0.155 0.103 0.198 0.241 0 0 0.198-0.215-0.121-0.465 0 0-0.078-0.293-0.457-0.181l-0.353-0.181 1.308-0.388c0.226 0.216 0.471 0.392 0.556 0.363 0.169-0.058 0.299-0.234 0.415-0.48s0.643-1.103 0.902-1.097c0.26 0.006 0.377 0.214 0.312 0.584s-0.571 1.079-0.899 1.225c-0.328 0.147-0.379 0.215-0.681 0.19s-0.405 0.103-0.336 0.276c0.069 0.172 0.408 0.282 0.741 0.155 0.362-0.138 0.5-0.328 0.638-0.215s-0.147 0.517-0.534 0.638-0.681 0.043-0.621 0.285 0.474 0.259 0.741 0.103 0.569-0.586 0.647-0.448c0.078 0.138 0.026 0.491-0.233 0.681s-0.553 0.078-0.612 0.25c-0.086 0.25 0.216 0.414 0.448 0.319s0.5-0.388 0.621-0.647 0.345-0.035 0.276 0.207-0.011 0.44-0.506 0.819l0.92 1.414 0.92-1.414c-0.494-0.379-0.437-0.578-0.506-0.819s0.155-0.465 0.276-0.207 0.388 0.552 0.621 0.647 0.535-0.069 0.448-0.319c-0.059-0.172-0.353-0.060-0.612-0.25s-0.31-0.543-0.233-0.681c0.078-0.138 0.379 0.293 0.647 0.448s0.681 0.138 0.741-0.103-0.233-0.164-0.621-0.285-0.672-0.526-0.535-0.638 0.276 0.078 0.638 0.215c0.333 0.127 0.672 0.017 0.741-0.155s-0.035-0.302-0.336-0.276c-0.302 0.026-0.353-0.043-0.681-0.19s-0.834-0.855-0.898-1.225 0.052-0.578 0.312-0.584c0.26-0.007 0.785 0.85 0.902 1.097s0.247 0.422 0.415 0.48c0.086 0.030 0.33-0.147 0.556-0.363l1.308 0.388-0.353 0.181c-0.379-0.112-0.457 0.181-0.457 0.181-0.319 0.25-0.121 0.465-0.121 0.465 0.043-0.138 0.198-0.241 0.198-0.241 0.457 0.138 0.44-0.198 0.44-0.198l0.621-0.302 0.629 0.379c0.207 0.379 0.526 0.25 0.526 0.25 0.164 0.095 0.198 0.319 0.198 0.319 0.164-0.207-0.017-0.414-0.017-0.414 0.026-0.517-0.595-0.319-0.595-0.319l-0.492-0.241 0.871-0.043c0.414 0.172 0.543-0.121 0.543-0.121 0.086-0.043 0.414 0.017 0.414 0.017-0.095-0.362-0.474-0.241-0.474-0.241z"></path>
</svg>
