<!-- Generated by IcoMoon.io -->
<svg version="1.1" xmlns="http://www.w3.org/2000/svg" width="32" height="32" viewBox="0 0 32 32">
<title>algeria</title>
<path fill="#73af00" d="M16 26.483h-15.448c-0.305 0-0.552-0.247-0.552-0.552v-19.862c0-0.305 0.247-0.552 0.552-0.552h15.448v20.966h-0z"></path>
<path fill="#f5f5f5" d="M16 5.517h15.448c0.305 0 0.552 0.247 0.552 0.552v19.862c0 0.305-0.247 0.552-0.552 0.552h-15.448v-20.966z"></path>
<path fill="#ff4b55" d="M18.663 13.994l-0.957 1.251-1.494-0.5c-0.084-0.028-0.155 0.066-0.105 0.139l0.895 1.296-0.937 1.266c-0.052 0.071 0.015 0.168 0.1 0.142l1.509-0.45 0.915 1.282c0.051 0.072 0.164 0.037 0.166-0.051l0.038-1.575 1.502-0.473c0.084-0.026 0.086-0.145 0.003-0.174l-1.486-0.523 0.014-1.575c0.001-0.088-0.111-0.126-0.164-0.056z"></path>
<path fill="#ff4b55" d="M16.992 19.789c-2.091 0-3.787-1.696-3.787-3.789 0-2.089 1.696-3.789 3.787-3.789 0.778 0 1.495 0.239 2.093 0.644 0.092 0.062 0.196-0.058 0.119-0.138-0.894-0.929-2.158-1.496-3.561-1.448-2.409 0.082-4.404 2.014-4.558 4.42-0.176 2.756 2.006 5.046 4.722 5.046 1.338 0 2.541-0.559 3.4-1.454 0.076-0.079-0.029-0.198-0.119-0.136-0.599 0.406-1.317 0.645-2.097 0.645z"></path>
</svg>
