<!-- Generated by IcoMoon.io -->
<svg version="1.1" xmlns="http://www.w3.org/2000/svg" width="32" height="32" viewBox="0 0 32 32">
<title>anguilla</title>
<path fill="#41479b" d="M31.448 26.483h-30.896c-0.305 0-0.552-0.247-0.552-0.552v-19.862c0-0.305 0.247-0.552 0.552-0.552h30.896c0.305 0 0.552 0.247 0.552 0.552v19.862c-0 0.305-0.247 0.552-0.552 0.552z"></path>
<path fill="#f5f5f5" d="M15.448 5.517h-0.958l-5.111 3.348v-3.348h-2.759v3.348l-5.111-3.348h-0.958c-0.305 0-0.552 0.247-0.552 0.552v0.438l4.385 2.873h-4.385v2.759h4.385l-4.385 2.873v0.438c0 0.305 0.247 0.552 0.552 0.552h0.958l5.111-3.348v3.348h2.759v-3.348l5.111 3.348h0.958c0.305 0 0.552-0.247 0.552-0.552v-0.438l-4.385-2.873h4.385v-2.759h-4.385l4.385-2.873v-0.438c0-0.305-0.247-0.552-0.552-0.552z"></path>
<path fill="#ff4b55" d="M16 9.931h-7.172v-4.414h-1.655v4.414h-7.172v1.655h7.172v4.414h1.655v-4.414h7.172z"></path>
<path fill="#ff4b55" d="M6.069 9.379l-5.806-3.769c-0.154 0.098-0.263 0.262-0.263 0.458v0.029l5.056 3.282h1.013z"></path>
<path fill="#ff4b55" d="M10.393 9.379l5.523-3.585c-0.096-0.162-0.265-0.277-0.468-0.277h-0.119l-5.95 3.862h1.013z"></path>
<path fill="#ff4b55" d="M5.592 12.138l-5.513 3.579c0.095 0.166 0.267 0.284 0.472 0.284h0.104l5.95-3.862h-1.013z"></path>
<path fill="#ff4b55" d="M15.991 15.492l-5.167-3.354h-1.013l5.867 3.808c0.176-0.082 0.296-0.252 0.313-0.455z"></path>
<path fill="#f5f5f5" d="M20.538 12.041c-0.074 0.986-0.38 7.253 3.596 8.669 3.977-1.417 3.67-7.684 3.596-8.669-0.482 0.189-2.226 0.761-3.596-0.214-1.37 0.975-3.114 0.403-3.596 0.214z"></path>
<path fill="#ffa028" d="M26.088 13.306c-0.218-0.169-0.622 0.145-1.074 0.113-0.419-0.030-0.936-0.455-1.608-0.271-0.186-0.171-0.096-0.568-0.096-0.568-0.466 0.301-0.5 0.714-0.47 0.938-0.332 0.439-0.31 1.11-0.248 1.315 0.081 0.266 0.234 0.299 0.258 0.597s0.137 0.194 0.137 0.194c0.233-0.131 0.267-0.378 0.366-0.782 0.379 0.048 0.627-0.291 0.627-0.291-0.249 0.078-0.406-0.059-0.491-0.18 0.013-0.040 0.024-0.077 0.039-0.119 0.283-0.775 1.635-0.562 1.76-0.347 0.226 0.387 0.525 0.533 0.525 0.533 0-0.404-0.299-0.759-0.299-0.759 0.452-0.081 0.573-0.371 0.573-0.371zM22.834 14.969c-0.045 0-0.081-0.036-0.081-0.081s0.036-0.081 0.081-0.081c0.045 0 0.081 0.036 0.081 0.081s-0.036 0.081-0.081 0.081z"></path>
<path fill="#ffa028" d="M24.756 18.265c0.263-0.083 0.233-0.594 0.516-0.948 0.263-0.328 0.905-0.513 1.136-1.17 0.246-0.056 0.522 0.243 0.522 0.243 0.016-0.555-0.305-0.817-0.505-0.919-0.173-0.523-0.738-0.885-0.942-0.95-0.265-0.085-0.379 0.023-0.639-0.126s-0.237 0.003-0.237 0.003c-0.025 0.267 0.16 0.435 0.437 0.745-0.255 0.285-0.116 0.682-0.116 0.682 0.077-0.249 0.279-0.301 0.427-0.303 0.025 0.034 0.050 0.063 0.075 0.1 0.478 0.672-0.465 1.665-0.713 1.646-0.447-0.034-0.736 0.13-0.736 0.13 0.333 0.229 0.794 0.185 0.794 0.185-0.19 0.418-0.019 0.683-0.019 0.683zM25.233 14.642c0.025-0.037 0.076-0.046 0.112-0.021s0.046 0.076 0.021 0.112-0.076 0.046-0.112 0.021c-0.037-0.025-0.046-0.075-0.021-0.112z"></path>
<path fill="#ffa028" d="M21.197 14.677c-0.035 0.274 0.441 0.461 0.643 0.867 0.187 0.376 0.084 1.037 0.583 1.523-0.053 0.247-0.441 0.371-0.441 0.371 0.497 0.248 0.869 0.067 1.047-0.072 0.547 0.063 1.113-0.297 1.258-0.454 0.188-0.205 0.138-0.353 0.383-0.526s0.097-0.217 0.097-0.217c-0.232-0.135-0.461-0.038-0.86 0.083-0.151-0.351-0.57-0.392-0.57-0.392 0.194 0.175 0.155 0.38 0.095 0.515-0.041 0.009-0.078 0.018-0.122 0.026-0.811 0.151-1.315-1.122-1.193-1.339 0.219-0.392 0.192-0.723 0.192-0.723-0.348 0.205-0.502 0.643-0.502 0.643-0.299-0.348-0.611-0.305-0.611-0.305zM24.283 16.633c0.023 0.038 0.010 0.088-0.029 0.111s-0.088 0.010-0.111-0.029-0.010-0.088 0.029-0.111c0.038-0.023 0.088-0.010 0.111 0.029z"></path>
<path fill="#cdce0c" d="M24.134 20.916l-0.032-0.011c-4.477-1.557-3.754-8.94-3.746-9.014l0.014-0.133 0.122 0.055c0.021 0.010 2.098 0.931 3.583-0.183l0.058-0.043 0.058 0.043c1.487 1.116 3.562 0.193 3.583 0.183l0.122-0.056 0.014 0.134c0.008 0.075 0.731 7.457-3.746 9.014l-0.032 0.011zM20.538 12.041c-0.074 0.986-0.38 7.253 3.596 8.669 3.977-1.417 3.67-7.684 3.596-8.669-0.482 0.189-2.226 0.761-3.596-0.214-1.37 0.975-3.114 0.403-3.596 0.214z"></path>
<path fill="#82afff" d="M21.64 18.489c0.543 0.985 1.336 1.81 2.494 2.222 1.158-0.413 1.951-1.238 2.494-2.222h-4.988z"></path>
</svg>
