<svg xmlns="http://www.w3.org/2000/svg" width="32" height="32" version="1.1" viewBox="0 0 32 32"><title>antigua-and-barbuda</title><path fill="#464655" d="M31.448 5.517h-30.896c-0.305 0-0.552 0.247-0.552 0.552v19.862c0 0.305 0.247 0.552 0.552 0.552h30.896c0.305 0 0.552-0.247 0.552-0.552v-19.862c-0-0.305-0.247-0.552-0.552-0.552z"/><path fill="#ffe15a" d="M16 6.621l0.7 3.655 2.045-3.109-0.752 3.645 3.079-2.090-2.090 3.079 3.645-0.752-3.109 2.045 3.655 0.7-3.655 0.7 3.109 2.045-3.645-0.752 2.090 3.079-3.079-2.090 0.752 3.645-2.045-3.109-0.7 3.655-0.7-3.655-2.045 3.109 0.752-3.645-3.079 2.090 2.090-3.079-3.645 0.752 3.109-2.045-3.655-0.7 3.655-0.7-3.109-2.045 3.645 0.752-2.090-3.079 3.079 2.090-0.752-3.645 2.045 3.109z"/><path fill="#ff4b55" d="M0 6.069v19.862c0 0.305 0.247 0.552 0.552 0.552h15.448l-15.856-20.777c-0.087 0.097-0.144 0.223-0.144 0.363z"/><path fill="#ff4b55" d="M16 26.483h15.448c0.305 0 0.552-0.247 0.552-0.552v-19.862c0-0.141-0.057-0.266-0.144-0.364l-15.856 20.777z"/><path fill="#4173cd" d="M9.684 18.207h12.632l3.368-4.414h-19.368z"/><path fill="#f5f5f5" d="M9.684 18.207l6.316 8.276 6.316-8.276z"/></svg>