<svg xmlns="http://www.w3.org/2000/svg" width="32" height="32" version="1.1" viewBox="0 0 32 32"><title>aruba</title><path fill="#4173cd" d="M31.448 26.483h-30.896c-0.305 0-0.552-0.247-0.552-0.552v-19.862c0-0.305 0.247-0.552 0.552-0.552h30.896c0.305 0 0.552 0.247 0.552 0.552v19.862c-0 0.305-0.247 0.552-0.552 0.552z"/><path fill="#ffe15a" d="M0 19.862h32v1.103h-32v-1.103z"/><path fill="#ffe15a" d="M0 22.069h32v1.103h-32v-1.103z"/><path fill="#ff4b55" d="M4.077 10.996l-2.053-0.701 2.053-0.701 0.701-2.053 0.701 2.053 2.053 0.701-2.053 0.701-0.701 2.053z"/><path fill="#f5f5f5" d="M4.778 7.91l0.607 1.778 1.778 0.607-1.778 0.607-0.607 1.778-0.607-1.778-1.778-0.607 1.778-0.607 0.607-1.778zM4.778 7.172l-0.795 2.328-2.328 0.795 2.328 0.795 0.795 2.328 0.795-2.328 2.328-0.795-2.328-0.795-0.795-2.328z"/></svg>