<svg xmlns="http://www.w3.org/2000/svg" width="32" height="32" version="1.1" viewBox="0 0 32 32"><title>bahrain</title><path fill="#f5f5f5" d="M13.241 26.483h-12.69c-0.305 0-0.552-0.247-0.552-0.552v-19.862c0-0.305 0.247-0.552 0.552-0.552h12.69v20.966z"/><path fill="#ff4b55" d="M8.828 5.517l4.414 1.31-4.414 1.31 4.414 1.31-4.414 1.31 4.414 1.31-4.414 1.31 4.414 1.31-4.414 1.31 4.414 1.31-4.414 1.31 4.414 1.31-4.414 1.31 4.414 1.31-4.414 1.31 4.414 1.31-4.414 1.31h22.621c0.305 0 0.552-0.247 0.552-0.552v-19.862c0-0.305-0.247-0.552-0.552-0.552l-22.621 0z"/></svg>