<!-- Generated by IcoMoon.io -->
<svg version="1.1" xmlns="http://www.w3.org/2000/svg" width="32" height="32" viewBox="0 0 32 32">
<title>balearic-islands</title>
<path fill="#ffe15a" d="M0 7.847h32v-1.778c0-0.305-0.247-0.552-0.552-0.552h-30.896c-0.305 0-0.552 0.247-0.552 0.552v1.778z"></path>
<path fill="#ff4b55" d="M0 7.847h32v2.329h-32v-2.329z"></path>
<path fill="#ffe15a" d="M0 10.176h32v2.329h-32v-2.329z"></path>
<path fill="#ff4b55" d="M0 12.506h32v2.329h-32v-2.329z"></path>
<path fill="#ffe15a" d="M0 14.835h32v2.329h-32v-2.329z"></path>
<path fill="#ffe15a" d="M0.552 26.483h30.896c0.305 0 0.552-0.247 0.552-0.552v-1.778h-32v1.778c0 0.305 0.247 0.552 0.552 0.552z"></path>
<path fill="#ff4b55" d="M0 17.165h32v2.329h-32v-2.329z"></path>
<path fill="#ffe15a" d="M0 19.494h32v2.329h-32v-2.329z"></path>
<path fill="#ff4b55" d="M0 21.824h32v2.329h-32v-2.329z"></path>
<path fill="#64466e" d="M15.448 16h-14.896c-0.305 0-0.552-0.247-0.552-0.552v-9.379c0-0.305 0.247-0.552 0.552-0.552h14.896c0.305 0 0.552 0.247 0.552 0.552v9.379c-0 0.305-0.247 0.552-0.552 0.552z"></path>
<path fill="#f5f5f5" d="M14.715 10.163h-1.27v-1.452h0.181v-0.363h-1.815v0.363h0.181v1.452h-0.726v-1.452h0.181v-0.363h-1.815v0.363h0.181v1.452h-1.089v-1.815h0.181v-0.363h-1.815v0.363h0.181v1.815h-1.089v-1.452h0.181v-0.363h-1.815v0.363h0.181v1.452h-0.726v-1.452h0.181v-0.363h-1.815v0.363h0.181v1.452h-1.452v0.363h0.181v3.267h2.541v-1.089c0-0.2 0.163-0.363 0.363-0.363s0.363 0.163 0.363 0.363v1.089h1.815v-1.089c0-0.2 0.162-0.363 0.363-0.363s0.363 0.163 0.363 0.363v1.089h0.363v-1.27c0-0.301 0.244-0.544 0.545-0.544s0.545 0.244 0.545 0.544v1.27h0.363v-1.089c0-0.2 0.162-0.363 0.363-0.363s0.363 0.163 0.363 0.363v1.089h1.815v-1.089c0-0.2 0.162-0.363 0.363-0.363s0.363 0.163 0.363 0.363v1.089h2.541v-3.267h0.181v-0.363h-0.181zM3.644 11.615h-0.726v-1.089c0-0.2 0.163-0.363 0.363-0.363s0.363 0.163 0.363 0.363c0 0 0 1.089 0 1.089zM5.822 11.615h-0.726v-1.089c0-0.2 0.162-0.363 0.363-0.363s0.363 0.163 0.363 0.363l0 1.089zM8.363 10.526h-0.726v-0.726c0-0.2 0.162-0.363 0.363-0.363s0.363 0.163 0.363 0.363l0 0.726zM10.904 11.615h-0.726v-1.089c0-0.2 0.162-0.363 0.363-0.363s0.363 0.163 0.363 0.363l0 1.089zM13.082 11.615h-0.726v-1.089c0-0.2 0.162-0.363 0.363-0.363s0.363 0.163 0.363 0.363l0 1.089z"></path>
</svg>
