<svg xmlns="http://www.w3.org/2000/svg" width="32" height="32" version="1.1" viewBox="0 0 32 32"><title>basque-country</title><path fill="#ff4b55" d="M31.448 26.483h-30.896c-0.305 0-0.552-0.247-0.552-0.552v-19.862c0-0.305 0.247-0.552 0.552-0.552h30.896c0.305 0 0.552 0.247 0.552 0.552v19.862c-0 0.305-0.247 0.552-0.552 0.552z"/><path fill="#73af00" d="M32 6.069c0-0.305-0.247-0.552-0.552-0.552h-1.965l-13.483 8.834-13.483-8.834h-1.965c-0.305 0-0.552 0.247-0.552 0.552v1.097l13.483 8.834-13.483 8.834v1.097c0 0.305 0.247 0.552 0.552 0.552h1.965l13.483-8.834 13.483 8.834h1.965c0.305 0 0.552-0.247 0.552-0.552v-1.097l-13.483-8.834 13.483-8.834 0-1.097z"/><path fill="#f5f5f5" d="M32 14.621h-14.621v-9.103h-2.759v9.103h-14.621v2.759h14.621v9.103h2.759v-9.103h14.621z"/></svg>