<!-- Generated by IcoMoon.io -->
<svg version="1.1" xmlns="http://www.w3.org/2000/svg" width="32" height="32" viewBox="0 0 32 32">
<title>belize</title>
<path fill="#ff4b55" d="M32 7.724h-32v-1.655c0-0.305 0.247-0.552 0.552-0.552h30.896c0.305 0 0.552 0.247 0.552 0.552l-0 1.655z"></path>
<path fill="#ff4b55" d="M0 24.276h32v1.655c0 0.305-0.247 0.552-0.552 0.552h-30.896c-0.305 0-0.552-0.247-0.552-0.552v-1.655z"></path>
<path fill="#41479b" d="M0 7.724h32v16.552h-32v-16.552z"></path>
<path fill="#f5f5f5" d="M23.172 16c0 3.961-3.211 7.172-7.172 7.172s-7.172-3.211-7.172-7.172c0-3.961 3.211-7.172 7.172-7.172s7.172 3.211 7.172 7.172z"></path>
<path fill="#82afff" d="M14.624 19.771l-1.107 0.184c-0.139 0.023-0.266-0.084-0.266-0.226v-0.416h1.373l0 0.458z"></path>
<path fill="#82afff" d="M17.37 19.771l1.107 0.184c0.139 0.023 0.266-0.084 0.266-0.226v-0.416h-1.373v0.458h-0z"></path>
<path fill="#965032" d="M15.768 12.328h-0.096c-0.115 0-0.218-0.064-0.27-0.166l-0.169-0.339 0.153-0.077 0.169 0.339c0.022 0.044 0.067 0.072 0.116 0.072h0.096v0.172z"></path>
<path fill="#965032" d="M13.996 11.974l0.284 0.567-0.153 0.077-0.284-0.567 0.153-0.077z"></path>
<path fill="#965032" d="M16.311 14.966l-0.469-0.469c-0.102-0.102-0.16-0.243-0.16-0.387v-0.158c0-0.058-0.014-0.116-0.040-0.168l-0.117-0.234c-0.024-0.049-0.073-0.079-0.128-0.079h-0.404c-0.12 0-0.228-0.067-0.281-0.174l-0.166-0.331 0.153-0.077 0.166 0.331c0.024 0.049 0.073 0.079 0.128 0.079h0.404c0.12 0 0.228 0.067 0.281 0.174l0.117 0.234c0.038 0.076 0.058 0.16 0.058 0.245v0.158c0 0.099 0.040 0.196 0.11 0.265l0.176 0.176v-0.8c0-0.217-0.075-0.429-0.21-0.599-0.16-0.2-0.248-0.45-0.248-0.706v-0.663h0.172v0.663c0 0.217 0.075 0.429 0.21 0.599 0.16 0.2 0.248 0.45 0.248 0.706v1.214h-0z"></path>
<path fill="#965032" d="M15.903 14.523h-0.255c-0.157 0-0.299-0.099-0.354-0.246l-0.065-0.174 0.161-0.060 0.065 0.174c0.030 0.080 0.107 0.134 0.193 0.134h0.255v0.172z"></path>
<path fill="#965032" d="M16.605 11.521l0.157 0.069-0.966 2.19-0.157-0.069 0.966-2.19z"></path>
<path fill="#965032" d="M16.998 13.472h-0.829v-0.172h0.658v-0.829h0.172z"></path>
<path fill="#73af00" d="M15.425 14.302h-0.686c-0.19 0-0.343-0.154-0.343-0.343v0c0-0.19 0.154-0.343 0.343-0.343h0.687c0.19 0 0.343 0.154 0.343 0.343v0c-0 0.19-0.154 0.343-0.343 0.343z"></path>
<path fill="#73af00" d="M17.026 14.302h-0.686c-0.19 0-0.343-0.154-0.343-0.343v0c0-0.19 0.154-0.343 0.343-0.343h0.686c0.19 0 0.343 0.154 0.343 0.343v0c0 0.19-0.154 0.343-0.343 0.343z"></path>
<path fill="#73af00" d="M17.713 13.615h-0.915c-0.19 0-0.343-0.154-0.343-0.343v0c0-0.19 0.154-0.343 0.343-0.343h0.915c0.19 0 0.343 0.154 0.343 0.343v0c-0 0.19-0.154 0.343-0.343 0.343z"></path>
<path fill="#73af00" d="M17.942 12.7h-1.602c-0.19 0-0.343-0.154-0.343-0.343v0c0-0.19 0.154-0.343 0.343-0.343h1.602c0.19 0 0.343 0.154 0.343 0.343v0c0 0.19-0.154 0.343-0.343 0.343z"></path>
<path fill="#73af00" d="M17.026 11.785h-0.458c-0.19 0-0.343-0.154-0.343-0.343v0c0-0.19 0.154-0.343 0.343-0.343h0.458c0.19 0 0.343 0.154 0.343 0.343v0c0 0.19-0.154 0.343-0.343 0.343z"></path>
<path fill="#73af00" d="M14.052 12.242h-0.229c-0.19 0-0.343-0.154-0.343-0.343v0c0-0.19 0.154-0.343 0.343-0.343h0.229c0.19 0 0.343 0.154 0.343 0.343v0c-0 0.19-0.154 0.343-0.343 0.343z"></path>
<path fill="#73af00" d="M15.653 12.013h-0.687c-0.19 0-0.343-0.154-0.343-0.343v0c0-0.19 0.154-0.343 0.343-0.343h0.687c0.19 0 0.343 0.154 0.343 0.343v0c-0 0.19-0.154 0.343-0.343 0.343z"></path>
<path fill="#73af00" d="M15.425 13.157h-1.373c-0.19 0-0.343-0.154-0.343-0.343v0c0-0.19 0.154-0.343 0.343-0.343h1.373c0.19 0 0.343 0.154 0.343 0.343v0c0 0.19-0.154 0.343-0.343 0.343z"></path>
<path fill="#73af00" d="M19.429 17.941h-6.865c-0.253 0-0.458 0.205-0.458 0.458s0.205 0.458 0.458 0.458h1.831c0 0.253 0.205 0.458 0.458 0.458h2.288c0.253 0 0.458-0.205 0.458-0.458h1.831c0.253 0 0.458-0.205 0.458-0.458s-0.205-0.458-0.458-0.458z"></path>
<path fill="#be7855" d="M20.559 13.879c-0.017-0.034-0.106 0.006-0.162-0.014-0.691-0.257-1.619-0.725-2.226-1.044l-0.122-0.193-1.15-0.559c-0.073-0.036-0.161-0.008-0.202 0.063l-0.057 0.1c-0.043 0.076-0.015 0.173 0.063 0.213l1.095 0.57 0.309-0.023 1.203 0.618c0 0 0.817 0.418 0.86 0.449s0.068 0.203 0.149 0.188c0.058-0.010 0.312-0.218 0.238-0.367z"></path>
<path fill="#ffbe3c" d="M12.974 18.284c0 0 0.076 0.338 0.005 0.377s-0.453 0.038-0.443-0.043c0.009-0.081 0.062-0.367 0.062-0.367l0.377 0.033z"></path>
<path fill="#ffbe3c" d="M13.608 18.103c0 0-0.062 0.253 0.062 0.262s0.825 0.005 0.844-0.014 0.043-0.067 0.043-0.067l-0.648-0.181h-0.3z"></path>
<path fill="#eaf3f5" d="M12.897 14.952c0 0-0.17 0.405-0.232 1.809-0.017 0.373 0.029 0.286-0.157 1.487l0.221 0.115c0.064 0.034 0.141 0.031 0.203-0.006l0.215-0.13c0 0-0.105-1.344 0.238-2.117 0 0 0.181 0.334 0.181 0.582s-0.009 1.44-0.009 1.44 0.4 0.067 0.582 0.048c0 0-0.114-2.586-0.229-3.195l-1.012-0.032z"></path>
<path fill="#965032" d="M12.929 14.78c0 0-0.068 0.050-0.032 0.172 0 0 0.522 0.225 1.012 0.032 0 0 0.054-0.079-0.014-0.175l-0.965-0.029z"></path>
<path fill="#965032" d="M12.231 13.541c-0.297 0.11-0.748 0.386-0.72 0.605s0.184 0.166 0.232 0.112 0.188-0.227 0.231-0.257 0.746-0.391 0.746-0.391l1.86-0.957c0 0 0.014-0.093-0.097-0.168-0 0-1.138 0.641-2.254 1.056z"></path>
<path fill="#ffbe3c" d="M13.108 12.464l-0.011 0.079c0 0-0.029 0.504 0.136 0.64 0 0 0.036 0.104-0.021 0.154s-0.622 0.336-0.622 0.336-0.147 0.304-0.143 0.476c0 0-0.139-0.054-0.125-0.122s0.097-0.247 0.072-0.332-0.118-0.061-0.118-0.061-0.046 0.050 0.029 0.082l-0.025 0.107-0.304 0.179 0.068 0.082c0 0 0.004 0.629 0.375 0.711 0 0 0.197 0.014 0.429-0.429 0 0 0.125 0.222 0.082 0.415 0 0 0.408 0.222 0.965 0.029l0.007-0.386c0 0 0.086 0.594 0.379 0.536 0 0 0.812-0.313 0.677-0.431-0.315-0.277-0.695-0.043-0.695-0.043-0.018-0.402-0.052-0.921-0.104-0.977-0.086-0.093-0.35-0.043-0.403-0.162s-0.038-0.329 0.019-0.572c0.057-0.243-0.234-0.415-0.234-0.415l-0.434 0.105z"></path>
<path fill="#464655" d="M13.097 12.542c0 0 0.292 0.074 0.521-0.017l0.1 0.248h0.057c0 0 0.138-0.459-0.045-0.453 0 0-0.001-0.149-0.32-0.143-0.275 0.005-0.37 0.184-0.313 0.365z"></path>
<path fill="#965032" d="M19.057 18.284c0 0-0.076 0.338-0.005 0.377s0.453 0.038 0.443-0.043-0.062-0.367-0.062-0.367l-0.377 0.033z"></path>
<path fill="#965032" d="M18.423 18.103c0 0 0.062 0.253-0.062 0.262s-0.825 0.005-0.844-0.014c-0.019-0.019-0.043-0.067-0.043-0.067l0.648-0.181h0.3z"></path>
<path fill="#eaf3f5" d="M19.134 14.952c0 0 0.17 0.405 0.232 1.809 0.017 0.373-0.029 0.286 0.157 1.487l-0.221 0.115c-0.064 0.034-0.141 0.031-0.203-0.006l-0.215-0.13c0 0 0.105-1.344-0.238-2.117 0 0-0.181 0.334-0.181 0.582s0.009 1.44 0.009 1.44-0.4 0.067-0.582 0.048c0 0 0.114-2.586 0.229-3.195l1.012-0.032z"></path>
<path fill="#be7855" d="M19.102 14.78c0 0 0.068 0.050 0.032 0.172 0 0-0.522 0.225-1.012 0.032 0 0-0.054-0.079 0.014-0.175l0.965-0.029z"></path>
<path fill="#965032" d="M18.923 12.464l0.011 0.079c0 0 0.029 0.504-0.136 0.64 0 0-0.036 0.104 0.021 0.154s0.622 0.336 0.622 0.336 0.147 0.304 0.143 0.476c0 0 0.139-0.054 0.125-0.122s-0.097-0.247-0.072-0.332 0.118-0.061 0.118-0.061 0.047 0.050-0.029 0.082l0.025 0.107 0.304 0.179-0.068 0.082c0 0-0.004 0.629-0.375 0.711 0 0-0.197 0.014-0.429-0.429 0 0-0.125 0.222-0.082 0.415 0 0-0.408 0.222-0.965 0.029l-0.007-0.386c0 0-0.086 0.594-0.379 0.536 0 0-0.812-0.313-0.677-0.431 0.315-0.277 0.695-0.043 0.695-0.043 0.018-0.402 0.052-0.921 0.104-0.977 0.086-0.093 0.35-0.043 0.403-0.162s0.038-0.329-0.019-0.572c-0.057-0.243 0.234-0.415 0.234-0.415l0.434 0.105z"></path>
<path fill="#464655" d="M18.934 12.542c0 0-0.292 0.074-0.521-0.017l-0.1 0.248h-0.057c0 0-0.138-0.459 0.045-0.453 0 0 0.001-0.149 0.32-0.143 0.275 0.005 0.37 0.184 0.313 0.365z"></path>
<path fill="#eaf3f5" d="M14.029 12.733c-0.024-0.058 0.016-0.074 0.016-0.074s0.289-0.159 0.323-0.156c0.056 0.005 0.124 0.102 0.124 0.186s0.109 0.3 0.332 0.354c0 0-0.279 0.379-0.666 0.327 0-0 0.026-0.259-0.129-0.637z"></path>
<path fill="#82afff" d="M14.434 14.509c-0.086 0-0.155 0.074-0.155 0.166v1.894c0 0.458 0.215 2.059 1.716 2.517 1.502-0.458 1.716-2.059 1.716-2.517v-1.894c0-0.091-0.070-0.166-0.155-0.166h-3.122z"></path>
<path fill="#ffe15a" d="M17.711 16.568v-1.894c0-0.091-0.070-0.166-0.155-0.166h-1.561v1.602l1.508 1.508c0.167-0.441 0.208-0.853 0.208-1.051z"></path>
<path fill="#eaf3f5" d="M14.279 16.568v-1.894c0-0.091 0.069-0.166 0.155-0.166h1.561v1.602l-1.508 1.508c-0.167-0.441-0.208-0.853-0.208-1.051z"></path>
<path fill="#8c5a28" d="M14.983 17.57l0.397 0.42h1.106l0.234-0.3-0.27 0.108h-0.894z"></path>
<path fill="#f5f5f5" d="M15.411 17.028l-0.061 0.611-0.276-0.105c0 0 0.127-0.295 0.336-0.506z"></path>
<path fill="#8c5a28" d="M15.955 16.786h0.041v1.041h-0.041v-1.041z"></path>
<path fill="#8c5a28" d="M16.332 16.874h0.041v0.953h-0.041v-0.953z"></path>
<path fill="#8c5a28" d="M15.579 16.874h0.041v0.953h-0.041v-0.953z"></path>
<path fill="#f5f5f5" d="M16.113 17.728h-0.275c-0.019 0-0.034-0.015-0.034-0.034v-0.152c0-0.019 0.015-0.034 0.034-0.034h0.275c0.019 0 0.034 0.015 0.034 0.034v0.152c-0 0.019-0.015 0.034-0.034 0.034z"></path>
<path fill="#f5f5f5" d="M16.113 17.435h-0.275c-0.019 0-0.034-0.015-0.034-0.034v-0.152c0-0.019 0.015-0.034 0.034-0.034h0.275c0.019 0 0.034 0.015 0.034 0.034v0.152c-0 0.019-0.015 0.034-0.034 0.034z"></path>
<path fill="#f5f5f5" d="M16.113 17.165h-0.275c-0.019 0-0.034-0.015-0.034-0.034v-0.152c0-0.019 0.015-0.034 0.034-0.034h0.275c0.019 0 0.034 0.015 0.034 0.034v0.152c-0 0.019-0.015 0.034-0.034 0.034z"></path>
<path fill="#f5f5f5" d="M16.467 17.728h-0.229c-0.019 0-0.034-0.015-0.034-0.034v-0.152c0-0.019 0.015-0.034 0.034-0.034h0.229c0.019 0 0.034 0.015 0.034 0.034v0.152c-0 0.019-0.015 0.034-0.034 0.034z"></path>
<path fill="#f5f5f5" d="M16.467 17.458h-0.229c-0.019 0-0.034-0.015-0.034-0.034v-0.117c0-0.019 0.015-0.034 0.034-0.034h0.229c0.019 0 0.034 0.015 0.034 0.034v0.117c-0 0.019-0.015 0.034-0.034 0.034z"></path>
<path fill="#f5f5f5" d="M16.467 17.191h-0.229c-0.019 0-0.034-0.015-0.034-0.034v-0.088c0-0.019 0.015-0.034 0.034-0.034h0.229c0.019 0 0.034 0.015 0.034 0.034v0.088c-0 0.019-0.015 0.034-0.034 0.034z"></path>
<path fill="#f5f5f5" d="M15.714 17.728h-0.229c-0.019 0-0.034-0.015-0.034-0.034v-0.152c0-0.019 0.015-0.034 0.034-0.034h0.229c0.019 0 0.034 0.015 0.034 0.034v0.152c0 0.019-0.015 0.034-0.034 0.034z"></path>
<path fill="#f5f5f5" d="M15.714 17.458h-0.229c-0.019 0-0.034-0.015-0.034-0.034v-0.117c0-0.019 0.015-0.034 0.034-0.034h0.229c0.019 0 0.034 0.015 0.034 0.034v0.117c0 0.019-0.015 0.034-0.034 0.034z"></path>
<path fill="#f5f5f5" d="M15.714 17.191h-0.229c-0.019 0-0.034-0.015-0.034-0.034v-0.088c0-0.019 0.015-0.034 0.034-0.034h0.229c0.019 0 0.034 0.015 0.034 0.034v0.088c0 0.019-0.015 0.034-0.034 0.034z"></path>
<path fill="#ff4b55" d="M16.332 16.874v0.123l-0.181-0.063z"></path>
<path fill="#ff4b55" d="M15.58 16.874v0.123l-0.181-0.063z"></path>
<path fill="#ff4b55" d="M15.957 16.785v0.123l-0.181-0.063z"></path>
<path fill="#4173cd" d="M17.357 17.941h-2.724c0.041 0.077 0.085 0.154 0.135 0.229h2.454c0.050-0.075 0.094-0.152 0.135-0.229z"></path>
<path fill="#73af00" d="M17.222 18.17h-2.454c0.108 0.163 0.241 0.318 0.4 0.458h1.653c0.159-0.14 0.292-0.295 0.401-0.458v0z"></path>
<path fill="#ffe15a" d="M15.169 18.627c0.22 0.192 0.489 0.355 0.826 0.458 0.337-0.103 0.607-0.265 0.827-0.458h-1.653z"></path>
<path fill="#be7855" d="M15.701 16.245c0 0-0.017 0.006-0.035 0.004-0.014-0.006-0.042-0.007-0.025-0.060 0.008-0.026 0.026-0.063 0.013-0.073-0.010-0.012-0.021-0.025-0.033-0.039-0.024-0.027-0.051-0.059-0.080-0.092-0.060-0.066-0.131-0.142-0.214-0.217-0.041-0.038-0.084-0.077-0.128-0.116-0.045-0.038-0.087-0.081-0.136-0.116-0.028-0.015-0.063-0.022-0.094-0.033s-0.049-0.035-0.071-0.055c-0.043-0.040-0.086-0.079-0.127-0.117-0.084-0.075-0.157-0.149-0.22-0.213-0.061-0.061-0.11-0.114-0.145-0.152-0.033-0.037-0.031-0.092 0.005-0.127l0.102-0.098c0.036-0.034 0.091-0.034 0.127-0 0.037 0.036 0.088 0.087 0.147 0.15 0.061 0.065 0.133 0.141 0.205 0.227 0.037 0.043 0.074 0.086 0.113 0.131 0.019 0.023 0.041 0.042 0.052 0.073s0.016 0.067 0.030 0.095c0.034 0.050 0.075 0.094 0.111 0.14 0.038 0.045 0.075 0.089 0.111 0.132 0.072 0.086 0.146 0.16 0.21 0.222 0.033 0.030 0.063 0.058 0.090 0.083 0.013 0.012 0.026 0.024 0.037 0.035 0.009 0.013 0.047-0.003 0.073-0.011 0.053-0.015 0.053 0.013 0.059 0.027 0.001 0.018-0.005 0.035-0.005 0.035l-0.171 0.165z"></path>
<path fill="#965032" d="M14.581 16.425c-0.018 0-0.035-0.005-0.051-0.017-0.038-0.028-0.046-0.082-0.018-0.12l0.815-1.106c0.028-0.038 0.081-0.046 0.12-0.018s0.046 0.082 0.018 0.12l-0.815 1.106c-0.017 0.023-0.043 0.035-0.069 0.035z"></path>
<path fill="#f5f5f5" d="M15.234 15.109l0.424 0.281 0.181-0.253-0.396-0.319z"></path>
<path fill="#965032" d="M16.361 15.001l1.087 1.341c0 0 0.153 0.007 0.132-0.115l-1.125-1.32-0.094 0.094z"></path>
<path fill="#eaf3f5" d="M16.118 15.185c0 0 0.306-0.056 0.434-0.247l0.174 0.205c0 0-0.285 0.201-0.313 0.42 0 0-0.233-0.062-0.295-0.379z"></path>
<path fill="#965032" d="M17.292 15.053c-0.020 0-0.039-0.011-0.049-0.030-0.031-0.059-0.036-0.112-0.016-0.158 0.029-0.065 0.096-0.083 0.103-0.085 0.030-0.007 0.060 0.010 0.068 0.040s-0.010 0.060-0.039 0.068c-0.006 0.002-0.024 0.010-0.030 0.023s-0.001 0.035 0.013 0.061c0.014 0.027 0.004 0.061-0.023 0.075-0.008 0.004-0.017 0.006-0.026 0.006z"></path>
<path fill="#965032" d="M16.399 15.88c0-0.020-0.011-0.039-0.030-0.049-0.059-0.031-0.112-0.036-0.158-0.016-0.064 0.029-0.083 0.096-0.085 0.103-0.007 0.030 0.010 0.060 0.040 0.068s0.060-0.010 0.067-0.039c0.002-0.006 0.010-0.024 0.023-0.030s0.035-0.001 0.061 0.013c0.027 0.014 0.061 0.004 0.075-0.023 0.004-0.008 0.006-0.017 0.006-0.026z"></path>
<path fill="#eaf3f5" d="M17.329 14.928l-1.023 1.005 0.241 0.269 1-1.010z"></path>
<path fill="#ffbe3c" d="M12.13 13.479c0.069-0.016 0.129 0.076 0.067 0.143s-0.241 0.187-0.296 0.176c-0.095-0.019-0.162-0.229 0.229-0.319z"></path>
<path fill="#965032" d="M19.896 13.576c-0.064-0.016-0.119 0.076-0.062 0.143s0.224 0.187 0.274 0.176c0.088-0.019 0.15-0.229-0.212-0.319z"></path>
<path fill="#464655" d="M17.556 14.509c0.086 0 0.155 0.074 0.155 0.166v1.894c0 0.458-0.215 2.059-1.716 2.517-1.502-0.458-1.716-2.059-1.716-2.517v-1.894c0-0.091 0.069-0.166 0.155-0.166h3.122zM17.556 14.394h-3.122c-0.149 0-0.27 0.126-0.27 0.28v1.894c0 0.109 0.015 0.686 0.306 1.307 0.309 0.66 0.825 1.116 1.491 1.319l0.033 0.010 0.033-0.010c0.666-0.203 1.182-0.659 1.491-1.319 0.291-0.621 0.306-1.198 0.306-1.307v-1.894c-0-0.154-0.121-0.28-0.27-0.28v0z"></path>
<path fill="#eaf3f5" d="M18.742 19.112c-0.486-0.163-1.008-0.088-1.5 0.24-0.629 0.419-1.046 0.419-1.246 0.419s-0.617 0-1.246-0.419c-0.492-0.328-1.014-0.403-1.5-0.241v0.491c0.306-0.146 0.738-0.208 1.246 0.131 0.744 0.496 1.274 0.496 1.5 0.496s0.756 0 1.5-0.496c0.508-0.339 0.94-0.277 1.246-0.131v-0.49z"></path>
<path fill="#965032" d="M15.997 21.716c-3.217 0-5.835-2.618-5.835-5.835s2.618-5.835 5.835-5.835 5.835 2.618 5.835 5.835-2.617 5.835-5.835 5.835zM15.997 10.276c-3.091 0-5.606 2.515-5.606 5.606s2.515 5.606 5.606 5.606 5.606-2.515 5.606-5.606-2.515-5.606-5.606-5.606z"></path>
<path fill="#73af00" d="M9.614 16.368c0 0-0.024-0.715 0.663-0.715 0 0 0.014 0.281-0.234 0.405-0.2 0.1-0.429 0.31-0.429 0.31z"></path>
<path fill="#73af00" d="M10.939 16.368c0 0 0.024-0.715-0.663-0.715 0 0-0.014 0.281 0.234 0.405 0.2 0.1 0.429 0.31 0.429 0.31z"></path>
<path fill="#73af00" d="M22.375 15.653c0 0 0.024 0.715-0.663 0.715 0 0-0.014-0.281 0.234-0.405 0.2-0.1 0.429-0.31 0.429-0.31z"></path>
<path fill="#73af00" d="M21.050 15.653c0 0-0.024 0.715 0.663 0.715 0 0 0.014-0.281-0.234-0.405-0.201-0.1-0.429-0.31-0.429-0.31z"></path>
<path fill="#73af00" d="M16.352 22.391c0 0-0.715 0.024-0.715-0.663 0 0 0.281-0.014 0.405 0.234 0.1 0.2 0.31 0.429 0.31 0.429z"></path>
<path fill="#73af00" d="M16.352 21.066c0 0-0.715-0.024-0.715 0.663 0 0 0.281 0.014 0.405-0.234 0.1-0.201 0.31-0.429 0.31-0.429z"></path>
<path fill="#73af00" d="M15.637 9.63c0 0 0.715-0.024 0.715 0.663 0 0-0.281 0.014-0.405-0.234-0.1-0.2-0.31-0.429-0.31-0.429z"></path>
<path fill="#73af00" d="M15.637 10.955c0 0 0.715 0.024 0.715-0.663 0 0-0.281-0.014-0.405 0.234-0.1 0.2-0.31 0.429-0.31 0.429z"></path>
<path fill="#73af00" d="M11.735 20.775c0 0-0.523-0.489-0.037-0.974 0 0 0.209 0.189 0.121 0.452-0.071 0.213-0.084 0.523-0.084 0.523z"></path>
<path fill="#73af00" d="M12.672 19.838c0 0-0.489-0.523-0.974-0.037 0 0 0.189 0.209 0.452 0.121 0.213-0.071 0.522-0.084 0.522-0.084z"></path>
<path fill="#73af00" d="M20.253 11.246c0 0 0.523 0.489 0.037 0.974 0 0-0.209-0.189-0.121-0.452 0.071-0.213 0.084-0.522 0.084-0.522z"></path>
<path fill="#73af00" d="M19.316 12.183c0 0 0.489 0.523 0.974 0.037 0 0-0.189-0.209-0.452-0.121-0.213 0.071-0.523 0.084-0.523 0.084z"></path>
<path fill="#73af00" d="M20.759 20.269c0 0-0.489 0.523-0.974 0.037 0 0 0.189-0.209 0.452-0.121 0.213 0.071 0.523 0.084 0.523 0.084z"></path>
<path fill="#73af00" d="M19.822 19.332c0 0-0.523 0.489-0.037 0.974 0 0 0.209-0.189 0.121-0.452-0.071-0.213-0.084-0.523-0.084-0.523z"></path>
<path fill="#73af00" d="M11.23 11.751c0 0 0.489-0.522 0.974-0.037 0 0-0.189 0.209-0.452 0.121-0.213-0.071-0.523-0.084-0.523-0.084z"></path>
<path fill="#73af00" d="M12.167 12.688c0 0 0.523-0.489 0.037-0.974 0 0-0.209 0.189-0.121 0.452 0.071 0.213 0.084 0.522 0.084 0.522z"></path>
<path fill="#73af00" d="M10.236 18.782c0 0-0.296-0.651 0.339-0.914 0 0 0.121 0.254-0.061 0.464-0.147 0.169-0.278 0.45-0.278 0.45z"></path>
<path fill="#73af00" d="M11.461 18.275c0 0-0.252-0.67-0.886-0.407 0 0 0.094 0.265 0.371 0.285 0.223 0.016 0.515 0.122 0.515 0.122z"></path>
<path fill="#73af00" d="M21.752 13.238c0 0 0.296 0.652-0.339 0.914 0 0-0.121-0.254 0.061-0.464 0.147-0.169 0.278-0.45 0.278-0.45z"></path>
<path fill="#73af00" d="M20.528 13.745c0 0 0.252 0.67 0.886 0.407 0 0-0.094-0.265-0.371-0.285-0.224-0.016-0.515-0.122-0.515-0.122z"></path>
<path fill="#73af00" d="M18.766 21.768c0 0-0.651 0.296-0.914-0.339 0 0 0.254-0.121 0.464 0.061 0.169 0.147 0.45 0.278 0.45 0.278z"></path>
<path fill="#73af00" d="M18.259 20.544c0 0-0.67 0.252-0.407 0.886 0 0 0.265-0.094 0.285-0.371 0.016-0.224 0.122-0.515 0.122-0.515z"></path>
<path fill="#73af00" d="M13.222 10.252c0 0 0.652-0.296 0.914 0.339 0 0-0.254 0.121-0.464-0.061-0.169-0.147-0.45-0.278-0.45-0.278z"></path>
<path fill="#73af00" d="M13.729 11.477c0 0 0.67-0.252 0.407-0.886 0 0-0.265 0.094-0.285 0.371-0.016 0.223-0.122 0.515-0.122 0.515z"></path>
<path fill="#73af00" d="M13.883 22.042c0 0-0.67-0.252-0.407-0.886 0 0 0.265 0.094 0.285 0.371 0.016 0.224 0.122 0.515 0.122 0.515z"></path>
<path fill="#73af00" d="M14.39 20.818c0 0-0.652-0.296-0.914 0.339 0 0 0.254 0.121 0.464-0.061 0.169-0.147 0.45-0.278 0.45-0.278z"></path>
<path fill="#73af00" d="M18.106 9.979c0 0 0.67 0.252 0.407 0.886 0 0-0.265-0.094-0.285-0.371-0.016-0.224-0.122-0.515-0.122-0.515z"></path>
<path fill="#73af00" d="M17.598 11.203c0 0 0.651 0.296 0.914-0.339 0 0-0.254-0.121-0.464 0.061-0.169 0.147-0.45 0.278-0.45 0.278z"></path>
<path fill="#73af00" d="M22.026 18.122c0 0-0.252 0.67-0.886 0.407 0 0 0.094-0.265 0.371-0.285 0.224-0.016 0.515-0.122 0.515-0.122z"></path>
<path fill="#73af00" d="M20.802 17.615c0 0-0.296 0.651 0.339 0.914 0 0 0.121-0.254-0.061-0.464-0.147-0.169-0.278-0.45-0.278-0.45z"></path>
<path fill="#73af00" d="M9.962 13.899c0 0 0.252-0.67 0.886-0.407 0 0-0.094 0.265-0.371 0.285-0.224 0.016-0.515 0.122-0.515 0.122z"></path>
<path fill="#73af00" d="M11.187 14.406c0 0 0.296-0.652-0.339-0.914 0 0-0.121 0.254 0.061 0.464 0.147 0.169 0.278 0.45 0.278 0.45z"></path>
<path fill="#73af00" d="M9.806 17.606c0 0-0.163-0.697 0.51-0.831 0 0 0.069 0.273-0.15 0.443-0.177 0.137-0.36 0.388-0.36 0.388z"></path>
<path fill="#73af00" d="M11.106 17.347c0 0-0.116-0.706-0.789-0.572 0 0 0.041 0.279 0.308 0.352 0.216 0.059 0.481 0.22 0.481 0.22z"></path>
<path fill="#73af00" d="M22.183 14.415c0 0 0.163 0.697-0.51 0.831 0 0-0.069-0.273 0.15-0.443 0.177-0.137 0.36-0.388 0.36-0.388z"></path>
<path fill="#73af00" d="M20.883 14.673c0 0 0.116 0.706 0.789 0.572 0 0-0.041-0.279-0.308-0.352-0.216-0.059-0.481-0.22-0.481-0.22z"></path>
<path fill="#73af00" d="M17.59 22.199c0 0-0.697 0.163-0.831-0.51 0 0 0.273-0.069 0.443 0.15 0.137 0.177 0.388 0.36 0.388 0.36z"></path>
<path fill="#73af00" d="M17.331 20.899c0 0-0.706 0.116-0.572 0.789 0 0 0.279-0.041 0.352-0.308 0.059-0.216 0.22-0.481 0.22-0.481z"></path>
<path fill="#73af00" d="M14.399 9.822c0 0 0.697-0.163 0.831 0.51 0 0-0.273 0.069-0.443-0.15-0.137-0.177-0.388-0.36-0.388-0.36z"></path>
<path fill="#73af00" d="M14.657 11.122c0 0 0.706-0.116 0.572-0.789 0 0-0.279 0.041-0.352 0.308-0.059 0.216-0.22 0.481-0.22 0.481z"></path>
<path fill="#73af00" d="M12.747 21.514c0 0-0.608-0.377-0.226-0.948 0 0 0.242 0.144 0.207 0.419-0.028 0.222 0.019 0.529 0.019 0.529z"></path>
<path fill="#73af00" d="M13.483 20.412c0 0-0.581-0.417-0.963 0.154 0 0 0.226 0.168 0.467 0.031 0.195-0.111 0.496-0.184 0.496-0.184z"></path>
<path fill="#73af00" d="M19.242 10.506c0 0 0.608 0.377 0.226 0.948 0 0-0.242-0.144-0.207-0.419 0.028-0.222-0.019-0.529-0.019-0.529z"></path>
<path fill="#73af00" d="M18.506 11.608c0 0 0.581 0.417 0.963-0.154 0 0-0.226-0.168-0.467-0.031-0.195 0.111-0.496 0.184-0.496 0.184z"></path>
<path fill="#73af00" d="M21.498 19.258c0 0-0.377 0.608-0.948 0.226 0 0 0.144-0.242 0.419-0.207 0.222 0.028 0.529-0.019 0.529-0.019z"></path>
<path fill="#73af00" d="M20.396 18.522c0 0-0.417 0.581 0.154 0.963 0 0 0.168-0.226 0.031-0.467-0.111-0.195-0.184-0.496-0.184-0.496z"></path>
<path fill="#73af00" d="M10.49 12.763c0 0 0.377-0.608 0.948-0.226 0 0-0.144 0.242-0.419 0.207-0.222-0.028-0.529 0.019-0.529 0.019z"></path>
<path fill="#73af00" d="M11.592 13.499c0 0 0.417-0.581-0.154-0.963 0 0-0.168 0.226-0.031 0.467 0.111 0.195 0.184 0.496 0.184 0.496z"></path>
<path fill="#73af00" d="M10.888 19.853c0 0-0.417-0.581 0.154-0.963 0 0 0.168 0.226 0.031 0.467-0.111 0.195-0.184 0.496-0.184 0.496z"></path>
<path fill="#73af00" d="M11.99 19.116c0 0-0.377-0.608-0.948-0.226 0 0 0.144 0.242 0.419 0.207 0.222-0.028 0.529 0.019 0.529 0.019z"></path>
<path fill="#73af00" d="M21.101 12.168c0 0 0.417 0.581-0.154 0.963 0 0-0.168-0.226-0.031-0.467 0.111-0.195 0.184-0.496 0.184-0.496z"></path>
<path fill="#73af00" d="M19.999 12.904c0 0 0.377 0.608 0.948 0.226 0 0-0.144-0.242-0.419-0.207-0.222 0.028-0.529-0.019-0.529-0.019z"></path>
<path fill="#73af00" d="M19.836 21.117c0 0-0.581 0.417-0.963-0.154 0 0 0.226-0.168 0.467-0.031 0.195 0.111 0.496 0.184 0.496 0.184z"></path>
<path fill="#73af00" d="M19.1 20.015c0 0-0.608 0.377-0.226 0.948 0 0 0.242-0.144 0.207-0.419-0.028-0.222 0.019-0.529 0.019-0.529z"></path>
<path fill="#73af00" d="M12.152 10.904c0 0 0.581-0.417 0.963 0.154 0 0-0.226 0.168-0.467 0.031-0.195-0.111-0.496-0.184-0.496-0.184z"></path>
<path fill="#73af00" d="M12.888 12.006c0 0 0.608-0.377 0.226-0.948 0 0-0.242 0.144-0.207 0.419 0.028 0.222-0.019 0.529-0.019 0.529z"></path>
<path fill="#73af00" d="M15.1 22.338c0 0-0.706-0.116-0.572-0.789 0 0 0.279 0.041 0.352 0.308 0.059 0.216 0.22 0.481 0.22 0.481z"></path>
<path fill="#73af00" d="M15.359 21.038c0 0-0.697-0.163-0.831 0.51 0 0 0.273 0.069 0.443-0.15 0.137-0.177 0.388-0.36 0.388-0.36z"></path>
<path fill="#73af00" d="M16.888 9.682c0 0 0.706 0.116 0.572 0.789 0 0-0.279-0.041-0.352-0.308-0.059-0.216-0.22-0.481-0.22-0.481z"></path>
<path fill="#73af00" d="M16.63 10.982c0 0 0.697 0.163 0.831-0.51 0 0-0.273-0.069-0.443 0.15-0.137 0.177-0.388 0.36-0.388 0.36z"></path>
<path fill="#73af00" d="M22.322 16.904c0 0-0.116 0.706-0.789 0.572 0 0 0.041-0.279 0.308-0.352 0.216-0.059 0.481-0.22 0.481-0.22z"></path>
<path fill="#73af00" d="M21.022 16.646c0 0-0.163 0.697 0.51 0.831 0 0 0.069-0.273-0.15-0.443-0.177-0.137-0.36-0.388-0.36-0.388z"></path>
<path fill="#73af00" d="M9.666 15.116c0 0 0.116-0.706 0.789-0.572 0 0-0.041 0.279-0.308 0.352-0.216 0.059-0.481 0.22-0.481 0.22z"></path>
<path fill="#73af00" d="M10.966 15.375c0 0 0.163-0.697-0.51-0.831 0 0-0.069 0.273 0.15 0.443 0.177 0.137 0.36 0.388 0.36 0.388z"></path>
</svg>
