<!-- Generated by IcoMoon.io -->
<svg version="1.1" xmlns="http://www.w3.org/2000/svg" width="32" height="32" viewBox="0 0 32 32">
<title>bonaire</title>
<path fill="#41479b" d="M31.448 5.517h-30.896c-0.305 0-0.552 0.247-0.552 0.552v19.862c0 0.305 0.247 0.552 0.552 0.552h30.896c0.305 0 0.552-0.247 0.552-0.552v-19.862c-0-0.305-0.247-0.552-0.552-0.552z"></path>
<path fill="#f5f5f5" d="M0.203 26.349l31.593-20.699c-0.096-0.080-0.214-0.133-0.348-0.133h-30.896c-0.305 0-0.552 0.247-0.552 0.552v19.862c0 0.171 0.082 0.317 0.203 0.418z"></path>
<path fill="#ffe15a" d="M14.049 5.517h-13.497c-0.305 0-0.552 0.247-0.552 0.552v8.653l14.049-9.204z"></path>
<path fill="#464655" d="M12.642 14.321c-0.25-1.671-1.568-2.989-3.239-3.239l-0.575-1.151-0.575 1.151c-1.671 0.25-2.989 1.568-3.239 3.239l-1.151 0.575 1.151 0.575c0.25 1.671 1.568 2.989 3.239 3.239l0.575 1.151 0.575-1.151c1.671-0.25 2.989-1.568 3.239-3.239l1.151-0.575-1.151-0.575zM8.828 18.207c-1.828 0-3.31-1.482-3.31-3.31s1.482-3.31 3.31-3.31 3.31 1.482 3.31 3.31-1.482 3.31-3.31 3.31z"></path>
<path fill="#ff4b55" d="M8.828 12.775l0.594 1.093 1.243-0.032-0.649 1.061 0.649 1.061-1.243-0.032-0.594 1.093-0.594-1.093-1.243 0.032 0.649-1.061-0.649-1.061 1.243 0.032z"></path>
</svg>
