<!-- Generated by IcoMoon.io -->
<svg version="1.1" xmlns="http://www.w3.org/2000/svg" width="32" height="32" viewBox="0 0 32 32">
<title>bosnia-and-herzegovina</title>
<path fill="#41479b" d="M31.448 26.483h-30.896c-0.305 0-0.552-0.247-0.552-0.552v-19.862c0-0.305 0.247-0.552 0.552-0.552h30.896c0.305 0 0.552 0.247 0.552 0.552v19.862c-0 0.305-0.247 0.552-0.552 0.552z"></path>
<path fill="#ffe15a" d="M27.586 5.517v20.965l-20.965-20.965z"></path>
<path fill="#f5f5f5" d="M12.96 13.323l0.318 0.953 1.005 0.008c0.078 0.001 0.11 0.1 0.047 0.146l-0.809 0.597 0.303 0.958c0.024 0.074-0.061 0.136-0.124 0.090l-0.818-0.584-0.818 0.584c-0.063 0.045-0.148-0.016-0.124-0.090l0.303-0.958-0.809-0.597c-0.063-0.046-0.030-0.146 0.047-0.146l1.005-0.008 0.318-0.953c0.025-0.074 0.129-0.074 0.154 0z"></path>
<path fill="#f5f5f5" d="M10.661 11.025l0.318 0.953 1.005 0.008c0.078 0.001 0.11 0.1 0.047 0.146l-0.809 0.597 0.303 0.958c0.024 0.074-0.061 0.136-0.124 0.090l-0.818-0.584-0.818 0.584c-0.063 0.045-0.148-0.016-0.124-0.090l0.303-0.958-0.809-0.597c-0.063-0.046-0.030-0.146 0.047-0.146l1.005-0.008 0.318-0.953c0.025-0.074 0.129-0.074 0.154 0z"></path>
<path fill="#f5f5f5" d="M8.362 8.726l0.318 0.953 1.005 0.008c0.078 0.001 0.11 0.1 0.047 0.146l-0.809 0.597 0.303 0.958c0.024 0.074-0.061 0.136-0.124 0.090l-0.818-0.584-0.818 0.584c-0.063 0.045-0.148-0.016-0.124-0.090l0.303-0.958-0.808-0.597c-0.063-0.046-0.030-0.146 0.048-0.146l1.005-0.008 0.318-0.953c0.025-0.074 0.129-0.074 0.154 0z"></path>
<path fill="#f5f5f5" d="M6.063 6.427l0.318 0.953 1.005 0.008c0.078 0.001 0.11 0.1 0.048 0.146l-0.808 0.597 0.303 0.958c0.024 0.074-0.061 0.136-0.124 0.090l-0.818-0.584-0.818 0.584c-0.063 0.045-0.148-0.016-0.124-0.090l0.303-0.958-0.808-0.597c-0.063-0.046-0.030-0.146 0.048-0.146l1.005-0.008 0.318-0.953c0.025-0.074 0.129-0.074 0.154 0z"></path>
<path fill="#f5f5f5" d="M22.155 22.519l0.318 0.953 1.005 0.008c0.078 0.001 0.11 0.1 0.047 0.146l-0.808 0.597 0.303 0.958c0.023 0.074-0.061 0.136-0.124 0.090l-0.818-0.584-0.818 0.584c-0.063 0.045-0.148-0.016-0.124-0.090l0.303-0.958-0.808-0.597c-0.063-0.046-0.030-0.146 0.047-0.146l1.005-0.008 0.318-0.953c0.025-0.074 0.129-0.074 0.154 0z"></path>
<path fill="#f5f5f5" d="M19.856 20.22l0.318 0.953 1.005 0.008c0.078 0.001 0.11 0.1 0.047 0.146l-0.808 0.597 0.303 0.958c0.023 0.074-0.061 0.136-0.124 0.090l-0.818-0.584-0.818 0.584c-0.063 0.045-0.148-0.016-0.124-0.090l0.303-0.958-0.808-0.597c-0.063-0.046-0.030-0.146 0.047-0.146l1.005-0.008 0.318-0.953c0.025-0.074 0.129-0.074 0.154 0z"></path>
<path fill="#f5f5f5" d="M17.557 17.921l0.318 0.953 1.005 0.008c0.078 0.001 0.11 0.1 0.047 0.146l-0.808 0.597 0.303 0.958c0.023 0.074-0.061 0.136-0.124 0.090l-0.818-0.584-0.818 0.584c-0.063 0.045-0.148-0.016-0.124-0.090l0.303-0.958-0.808-0.597c-0.063-0.046-0.030-0.146 0.047-0.146l1.005-0.008 0.318-0.953c0.025-0.074 0.129-0.074 0.154 0z"></path>
<path fill="#f5f5f5" d="M15.258 15.622l0.318 0.953 1.005 0.008c0.078 0.001 0.11 0.1 0.047 0.146l-0.809 0.597 0.303 0.958c0.023 0.074-0.061 0.136-0.124 0.090l-0.818-0.584-0.818 0.584c-0.063 0.045-0.148-0.016-0.124-0.090l0.303-0.958-0.809-0.597c-0.063-0.046-0.030-0.146 0.047-0.146l1.005-0.008 0.318-0.953c0.025-0.074 0.129-0.074 0.154 0z"></path>
<path fill="#f5f5f5" d="M2.622 5.517l0.427 0.315-0.303 0.958c-0.023 0.074 0.061 0.136 0.124 0.090l0.818-0.584 0.818 0.584c0.063 0.045 0.148-0.016 0.124-0.090l-0.303-0.958 0.427-0.315h-2.132z"></path>
<path fill="#f5f5f5" d="M25.777 25.779l-1.005-0.008-0.318-0.953c-0.025-0.074-0.129-0.074-0.154 0l-0.318 0.953-1.005 0.008c-0.078 0.001-0.11 0.1-0.047 0.146l0.755 0.558h1.384l0.755-0.558c0.062-0.046 0.030-0.146-0.048-0.146z"></path>
</svg>
