<svg xmlns="http://www.w3.org/2000/svg" width="32" height="32" version="1.1" viewBox="0 0 32 32"><title>british-indian-ocean-territory</title><path fill="#f5f5f5" d="M31.448 26.483h-30.896c-0.305 0-0.552-0.247-0.552-0.552v-19.862c0-0.305 0.247-0.552 0.552-0.552h30.896c0.305 0 0.552 0.247 0.552 0.552v19.862c-0 0.305-0.247 0.552-0.552 0.552z"/><path fill="#41479b" d="M32 22.069c-1.602 0-1.602-0.552-3.203-0.552s-1.602 0.552-3.203 0.552c-1.601 0-1.601-0.552-3.201-0.552-1.599 0-1.599 0.552-3.199 0.552s-1.6-0.552-3.2-0.552c-1.6 0-1.6 0.552-3.199 0.552s-1.6-0.552-3.199-0.552-1.6 0.552-3.199 0.552c-1.599 0-1.599-0.552-3.198-0.552s-1.598 0.552-3.196 0.552v-1.655c1.598 0 1.598-0.552 3.196-0.552s1.599 0.552 3.198 0.552c1.6 0 1.6-0.552 3.199-0.552s1.6 0.552 3.199 0.552c1.6 0 1.6-0.552 3.199-0.552s1.6 0.552 3.2 0.552c1.599 0 1.599-0.552 3.199-0.552 1.601 0 1.601 0.552 3.201 0.552 1.602 0 1.602-0.552 3.203-0.552s1.602 0.552 3.203 0.552v1.655z"/><path fill="#41479b" d="M32 15.448c-1.602 0-1.602-0.552-3.203-0.552s-1.602 0.552-3.203 0.552c-1.601 0-1.601-0.552-3.201-0.552-1.599 0-1.599 0.552-3.199 0.552s-1.6-0.552-3.2-0.552c-1.6 0-1.6 0.552-3.199 0.552s-1.6-0.552-3.199-0.552-1.6 0.552-3.199 0.552c-1.599 0-1.599-0.552-3.198-0.552s-1.598 0.552-3.196 0.552v-1.655c1.598 0 1.598-0.552 3.196-0.552s1.599 0.552 3.198 0.552c1.6 0 1.6-0.552 3.199-0.552s1.6 0.552 3.199 0.552c1.6 0 1.6-0.552 3.199-0.552s1.6 0.552 3.2 0.552c1.599 0 1.599-0.552 3.199-0.552 1.601 0 1.601 0.552 3.201 0.552 1.602 0 1.602-0.552 3.203-0.552s1.602 0.552 3.203 0.552v1.655z"/><path fill="#41479b" d="M32 12.138c-1.602 0-1.602-0.552-3.203-0.552s-1.602 0.552-3.203 0.552c-1.601 0-1.601-0.552-3.201-0.552-1.599 0-1.599 0.552-3.199 0.552s-1.6-0.552-3.2-0.552c-1.6 0-1.6 0.552-3.199 0.552s-1.6-0.552-3.199-0.552-1.6 0.552-3.199 0.552c-1.599 0-1.599-0.552-3.198-0.552s-1.598 0.552-3.196 0.552v-1.655c1.598 0 1.598-0.552 3.196-0.552s1.599 0.552 3.198 0.552c1.6 0 1.6-0.552 3.199-0.552s1.6 0.552 3.199 0.552c1.6 0 1.6-0.552 3.199-0.552s1.6 0.552 3.2 0.552c1.599 0 1.599-0.552 3.199-0.552 1.601 0 1.601 0.552 3.201 0.552 1.602 0 1.602-0.552 3.203-0.552s1.602 0.552 3.203 0.552v1.655z"/><path fill="#41479b" d="M32 8.828c-1.602 0-1.602-0.552-3.203-0.552s-1.602 0.552-3.203 0.552c-1.601 0-1.601-0.552-3.201-0.552-1.599 0-1.599 0.552-3.199 0.552s-1.6-0.552-3.2-0.552c-1.6 0-1.6 0.552-3.199 0.552s-1.6-0.552-3.199-0.552-1.6 0.552-3.199 0.552c-1.599 0-1.599-0.552-3.198-0.552s-1.598 0.552-3.196 0.552v-1.655c1.598 0 1.598-0.552 3.196-0.552s1.599 0.552 3.198 0.552c1.6 0 1.6-0.552 3.199-0.552s1.6 0.552 3.199 0.552c1.6 0 1.6-0.552 3.199-0.552s1.6 0.552 3.2 0.552c1.599 0 1.599-0.552 3.199-0.552 1.601 0 1.601 0.552 3.201 0.552 1.602 0 1.602-0.552 3.203-0.552s1.602 0.552 3.203 0.552v1.655z"/><path fill="#41479b" d="M32 18.759c-1.602 0-1.602-0.552-3.203-0.552s-1.602 0.552-3.203 0.552c-1.601 0-1.601-0.552-3.201-0.552-1.599 0-1.599 0.552-3.199 0.552s-1.6-0.552-3.2-0.552c-1.6 0-1.6 0.552-3.199 0.552s-1.6-0.552-3.199-0.552-1.6 0.552-3.199 0.552c-1.599 0-1.599-0.552-3.198-0.552s-1.598 0.552-3.196 0.552v-1.655c1.598 0 1.598-0.552 3.196-0.552s1.599 0.552 3.198 0.552c1.6 0 1.6-0.552 3.199-0.552s1.6 0.552 3.199 0.552c1.6 0 1.6-0.552 3.199-0.552s1.6 0.552 3.2 0.552c1.599 0 1.599-0.552 3.199-0.552 1.601 0 1.601 0.552 3.201 0.552 1.602 0 1.602-0.552 3.203-0.552s1.602 0.552 3.203 0.552v1.655z"/><path fill="#41479b" d="M32 25.379c-1.602 0-1.602-0.552-3.203-0.552s-1.602 0.552-3.203 0.552c-1.601 0-1.601-0.552-3.201-0.552-1.599 0-1.599 0.552-3.199 0.552s-1.6-0.552-3.2-0.552c-1.6 0-1.6 0.552-3.199 0.552s-1.6-0.552-3.199-0.552-1.6 0.552-3.199 0.552c-1.599 0-1.599-0.552-3.198-0.552s-1.598 0.552-3.196 0.552v-1.655c1.598 0 1.598-0.552 3.196-0.552s1.599 0.552 3.198 0.552c1.6 0 1.6-0.552 3.199-0.552s1.6 0.552 3.199 0.552c1.6 0 1.6-0.552 3.199-0.552s1.6 0.552 3.2 0.552c1.599 0 1.599-0.552 3.199-0.552 1.601 0 1.601 0.552 3.201 0.552 1.602 0 1.602-0.552 3.203-0.552s1.602 0.552 3.203 0.552v1.655z"/><path fill="#41479b" d="M15.448 16h-14.896c-0.305 0-0.552-0.247-0.552-0.552v-9.379c0-0.305 0.247-0.552 0.552-0.552h14.896c0.305 0 0.552 0.247 0.552 0.552v9.379c-0 0.305-0.247 0.552-0.552 0.552z"/><path fill="#f5f5f5" d="M15.448 5.517h-0.958l-5.111 3.348v-3.348h-2.759v3.348l-5.111-3.348h-0.958c-0.305 0-0.552 0.247-0.552 0.552v0.438l4.385 2.873h-4.385v2.759h4.385l-4.385 2.873v0.438c0 0.305 0.247 0.552 0.552 0.552h0.958l5.111-3.348v3.348h2.759v-3.348l5.111 3.348h0.958c0.305 0 0.552-0.247 0.552-0.552v-0.438l-4.385-2.873h4.385v-2.759h-4.385l4.385-2.873v-0.438c0-0.305-0.247-0.552-0.552-0.552z"/><path fill="#ff4b55" d="M16 9.931h-7.172v-4.414h-1.655v4.414h-7.172v1.655h7.172v4.414h1.655v-4.414h7.172z"/><path fill="#ff4b55" d="M6.069 9.379l-5.806-3.769c-0.154 0.098-0.263 0.262-0.263 0.458v0.029l5.056 3.282h1.013z"/><path fill="#ff4b55" d="M10.393 9.379l5.523-3.585c-0.096-0.162-0.265-0.277-0.468-0.277h-0.119l-5.95 3.862h1.013z"/><path fill="#ff4b55" d="M5.592 12.138l-5.513 3.579c0.095 0.166 0.267 0.284 0.472 0.284h0.104l5.95-3.862h-1.013z"/><path fill="#ff4b55" d="M15.991 15.492l-5.167-3.354h-1.013l5.867 3.808c0.176-0.082 0.296-0.252 0.313-0.455z"/><path fill="#965032" d="M24.276 24.212v0c-0.211 0-0.382-0.171-0.382-0.382v-12.222h0.764v12.222c0 0.211-0.171 0.382-0.382 0.382z"/><path fill="#73af00" d="M29.623 13.135l-0.764-0.382-2.813-0.351 1.74-2.237 0.27-0.81-0.81 0.27-2.237 1.74-0.352-2.812-0.382-0.764-0.382 0.764-0.352 2.812-2.237-1.74-0.81-0.27 0.27 0.81 1.74 2.237-2.813 0.351-0.764 0.382 0.764 0.382 2.813 0.352-1.74 2.237-0.27 0.81 0.81-0.27 2.431-1.89 0.54-0.857 0.54 0.857 2.431 1.89 0.81 0.27-0.27-0.81-1.74-2.237 2.813-0.352z"/><path fill="#ffe15a" d="M25.939 17.584c-0.343-0.343-1.078-0.217-1.472-0.117v-0.321c0-0.105-0.085-0.191-0.191-0.191s-0.191 0.085-0.191 0.191v0.32c-0.393-0.1-1.128-0.226-1.472 0.117-0.327 0.327-0.090 1.116 0.135 1.665v0.508c0 0.14 0.114 0.254 0.254 0.254h2.547c0.14 0 0.254-0.114 0.254-0.254v-0.508c0.225-0.549 0.462-1.337 0.135-1.665zM25.669 17.854c0.146 0.146-0.017 0.785-0.281 1.393h-0.921v-1.386c0.429-0.121 1.016-0.193 1.202-0.007zM22.883 17.854c0.186-0.186 0.773-0.114 1.202 0.007v1.386h-0.921c-0.263-0.607-0.426-1.247-0.281-1.393z"/></svg>