<svg xmlns="http://www.w3.org/2000/svg" width="32" height="32" version="1.1" viewBox="0 0 32 32"><title>british-columbia</title><path fill="#41479b" d="M32 16h-31.996v-9.93c0-0.305 0.247-0.552 0.552-0.552h30.893c0.305 0 0.552 0.247 0.552 0.552v9.93z"/><path fill="#f5f5f5" d="M0.004 16h31.996v9.93c0 0.305-0.247 0.552-0.552 0.552h-30.893c-0.305 0-0.552-0.247-0.552-0.552v-9.93z"/><path fill="#f5f5f5" d="M31.448 5.519h-3.31l-10.22 3.348v-3.348h-3.833v3.348l-10.22-3.348h-3.31c-0.305 0-0.552 0.247-0.552 0.552v0.438l8.768 2.872h-8.768v2.758h8.768l-8.768 2.872v0.989h3.862l10.22-3.348v3.348h3.833v-3.348l10.22 3.348h3.862v-0.989l-8.768-2.872h8.768v-2.758h-8.768l8.768-2.872v-0.438c0-0.305-0.247-0.552-0.552-0.552z"/><path fill="#ff4b55" d="M0.004 9.932h31.996v1.655h-31.996v-1.655z"/><path fill="#ff4b55" d="M15.174 5.519h1.655v10.482h-1.655v-10.482z"/><path fill="#ffe15a" d="M18.83 9.798l-0.814 0.421-0.321-0.748c-0.033-0.077-0.166-0.091-0.224-0.023l-0.663 0.771-0.693-1.075c-0.047-0.072-0.179-0.072-0.226 0l-0.693 1.075-0.663-0.771c-0.058-0.068-0.191-0.054-0.224 0.023l-0.321 0.748-0.814-0.421c-0.108-0.056-0.24 0.035-0.183 0.125l0.795 1.233h-0.034c-0.092 0-0.167 0.058-0.167 0.13v0.366c0 0.072 0.075 0.13 0.167 0.13h4.501c0.092 0 0.167-0.058 0.167-0.13v-0.366c0-0.072-0.075-0.13-0.167-0.13h-0.034l0.795-1.233c0.058-0.090-0.075-0.181-0.183-0.125z"/><path fill="#ff4b55" d="M11.187 12.138l-11.183 3.628v0.233h1.312l11.898-3.862z"/><path fill="#ff4b55" d="M32 16v-0.503l-10.35-3.359h-2.027l11.895 3.862z"/><path fill="#41479b" d="M31.996 19.034c-1.602 0-1.602-0.483-3.204-0.483-1.601 0-1.601 0.483-3.202 0.483-1.6 0-1.6-0.483-3.199-0.483s-1.599 0.483-3.199 0.483c-1.6 0-1.6-0.483-3.2-0.483s-1.6 0.483-3.2 0.483-1.6-0.483-3.2-0.483c-1.599 0-1.599 0.483-3.198 0.483s-1.598-0.483-3.197-0.483c-1.599 0-1.599 0.483-3.199 0.483v-1.448c1.599 0 1.599-0.483 3.199-0.483 1.598 0 1.598 0.483 3.197 0.483s1.599-0.483 3.198-0.483c1.6 0 1.6 0.483 3.2 0.483s1.6-0.483 3.2-0.483 1.6 0.483 3.2 0.483c1.599 0 1.599-0.483 3.199-0.483s1.6 0.483 3.199 0.483c1.601 0 1.601-0.483 3.202-0.483 1.602 0 1.602 0.483 3.204 0.483v1.448z"/><path fill="#41479b" d="M31.996 21.93c-1.602 0-1.602-0.483-3.204-0.483-1.601 0-1.601 0.483-3.202 0.483-1.6 0-1.6-0.483-3.199-0.483s-1.599 0.483-3.199 0.483c-1.6 0-1.6-0.483-3.2-0.483s-1.6 0.483-3.2 0.483-1.6-0.483-3.2-0.483c-1.599 0-1.599 0.483-3.198 0.483s-1.598-0.483-3.197-0.483c-1.599 0-1.599 0.483-3.199 0.483v-1.448c1.599 0 1.599-0.483 3.199-0.483 1.598 0 1.598 0.483 3.197 0.483s1.599-0.483 3.198-0.483c1.6 0 1.6 0.483 3.2 0.483s1.6-0.483 3.2-0.483 1.6 0.483 3.2 0.483c1.599 0 1.599-0.483 3.199-0.483s1.6 0.483 3.199 0.483c1.601 0 1.601-0.483 3.202-0.483 1.602 0 1.602 0.483 3.204 0.483v1.448z"/><path fill="#41479b" d="M31.996 24.826c-1.602 0-1.602-0.483-3.204-0.483-1.601 0-1.601 0.483-3.202 0.483-1.6 0-1.6-0.483-3.199-0.483s-1.599 0.483-3.199 0.483c-1.6 0-1.6-0.483-3.2-0.483s-1.6 0.483-3.2 0.483-1.6-0.483-3.2-0.483c-1.599 0-1.599 0.483-3.198 0.483s-1.598-0.483-3.197-0.483c-1.599 0-1.599 0.483-3.199 0.483v-1.448c1.599 0 1.599-0.483 3.199-0.483 1.598 0 1.598 0.483 3.197 0.483s1.599-0.483 3.198-0.483c1.6 0 1.6 0.483 3.2 0.483s1.6-0.483 3.2-0.483 1.6 0.483 3.2 0.483c1.599 0 1.599-0.483 3.199-0.483s1.6 0.483 3.199 0.483c1.601 0 1.601-0.483 3.202-0.483 1.602 0 1.602 0.483 3.204 0.483v1.448z"/><path fill="#ff4b55" d="M12.14 9.38l-11.782-3.822c-0.207 0.080-0.354 0.277-0.354 0.512v0.029l10.11 3.281h2.026z"/><path fill="#ff4b55" d="M20.787 9.38l11.115-3.606c-0.099-0.15-0.26-0.256-0.454-0.256h-0.79l-11.898 3.862h2.026z"/><path fill="#ffe15a" d="M25.103 25.738c1.159-0.597 1.576-1.492 1.727-1.824 0.23-0.504 1.297-0.91 1.297-0.91s-1.318 0.006-2.023 0.922c-0.65 0.844-1.821 0.917-2.95 1.563-0.108-0.135-0.218-0.268-0.333-0.397l3.518-4.258-4.258 3.518c-0.167-0.149-0.339-0.291-0.516-0.427 0.112-0.291 0.333-0.742 0.768-1.255 0.842-0.995 0.885-1.981 0.898-2.346 0.020-0.553 0.85-1.337 0.85-1.337s-1.215 0.51-1.516 1.626c-0.277 1.028-1.33 1.543-2.126 2.571-0.151-0.084-0.304-0.165-0.46-0.241l1.619-5.277-2.587 4.878c-0.21-0.073-0.424-0.14-0.641-0.198-0.008-0.312 0.025-0.812 0.229-1.451 0.397-1.241 0.059-2.169-0.069-2.511-0.194-0.519 0.273-1.56 0.273-1.56s-0.927 0.936-0.779 2.082c0.137 1.056-0.639 1.935-0.981 3.19-0.171-0.019-0.343-0.035-0.517-0.045l-0.524-5.498-0.524 5.498c-0.225 0.013-0.447 0.035-0.667 0.064-0.127-0.285-0.289-0.76-0.345-1.43-0.108-1.299-0.775-2.026-1.024-2.294-0.377-0.405-0.345-1.546-0.345-1.546s-0.499 1.22 0.078 2.222c0.531 0.923 0.151 2.032 0.315 3.322-0.167 0.048-0.332 0.099-0.495 0.156l-2.587-4.878 1.62 5.277c-0.202 0.098-0.398 0.205-0.592 0.316-0.226-0.215-0.558-0.592-0.865-1.189-0.597-1.159-1.492-1.576-1.824-1.727-0.504-0.23-0.91-1.297-0.91-1.297s0.006 1.318 0.922 2.023c0.844 0.65 0.917 1.821 1.563 2.95-0.135 0.108-0.268 0.218-0.397 0.333l-4.259-3.518 3.518 4.258c-0.149 0.167-0.291 0.339-0.427 0.516-0.291-0.112-0.742-0.333-1.255-0.768-0.995-0.842-1.981-0.885-2.346-0.898-0.553-0.020-1.337-0.85-1.337-0.85s0.51 1.215 1.626 1.516c0.922 0.249 1.435 1.121 2.272 1.872h16.325c0.226-0.215 0.564-0.486 1.064-0.743z"/><path fill="#ffe15a" d="M27.801 26.481l1.707-0.905-2.95 0.905z"/><path fill="#ffe15a" d="M2.496 25.576l1.707 0.905h1.243z"/></svg>