<svg xmlns="http://www.w3.org/2000/svg" width="32" height="32" version="1.1" viewBox="0 0 32 32"><title>burundi</title><path fill="#73af00" d="M31.448 5.514h-30.896c-0.305 0-0.552 0.247-0.552 0.552v19.862c0 0.305 0.247 0.552 0.552 0.552h30.896c0.305 0 0.552-0.247 0.552-0.552v-19.862c-0-0.305-0.247-0.552-0.552-0.552z"/><path fill="#ff4b55" d="M2.517 5.514l13.483 8.834 13.483-8.834z"/><path fill="#ff4b55" d="M29.483 26.486l-13.483-8.834-13.483 8.834z"/><path fill="#f5f5f5" d="M32 6.066c0-0.305-0.247-0.552-0.552-0.552h-1.965l-10.252 6.717c-0.869-0.746-1.996-1.2-3.231-1.2s-2.362 0.454-3.231 1.2l-10.252-6.717h-1.965c-0.305 0-0.552 0.247-0.552 0.552v1.097l11.254 7.373c-0.142 0.462-0.219 0.952-0.219 1.461s0.077 0.999 0.219 1.461l-11.254 7.373v1.097c0 0.305 0.247 0.552 0.552 0.552h1.965l10.252-6.717c0.869 0.746 1.996 1.2 3.231 1.2s2.362-0.454 3.231-1.2l10.252 6.717h1.965c0.305 0 0.552-0.247 0.552-0.552v-1.097l-11.254-7.373c0.142-0.462 0.219-0.952 0.219-1.461s-0.077-0.999-0.219-1.461l11.254-7.373 0-1.097z"/><path fill="#ff4b55" d="M15.642 14.409l-0.748 0.019 0.391-0.639-0.391-0.638 0.748 0.019 0.357-0.658 0.358 0.658 0.748-0.019-0.391 0.638 0.391 0.639-0.748-0.019-0.358 0.658z"/><path fill="#73af00" d="M16 12.686l0.309 0.568 0.647-0.017-0.338 0.552 0.338 0.552-0.647-0.017-0.309 0.568-0.309-0.568-0.647 0.017 0.338-0.552-0.338-0.552 0.647 0.017 0.309-0.568zM16 12.34l-0.406 0.747-0.85-0.022 0.444 0.725-0.444 0.725 0.85-0.022 0.406 0.747 0.406-0.747 0.85 0.022-0.444-0.725 0.444-0.725-0.85 0.022-0.406-0.747z"/><path fill="#ff4b55" d="M13.588 18.066l-0.748 0.019 0.391-0.639-0.391-0.638 0.748 0.019 0.357-0.658 0.357 0.658 0.748-0.019-0.391 0.638 0.391 0.639-0.748-0.019-0.357 0.658z"/><path fill="#73af00" d="M13.945 16.343l0.309 0.568 0.647-0.017-0.338 0.552 0.338 0.552-0.647-0.017-0.309 0.568-0.309-0.568-0.647 0.017 0.338-0.552-0.338-0.552 0.647 0.017 0.309-0.568zM13.945 15.997l-0.406 0.747-0.85-0.022 0.444 0.725-0.444 0.725 0.85-0.022 0.406 0.747 0.406-0.747 0.85 0.022-0.444-0.725 0.444-0.725-0.85 0.022-0.406-0.747z"/><path fill="#ff4b55" d="M17.697 18.066l-0.748 0.019 0.391-0.639-0.391-0.638 0.748 0.019 0.357-0.658 0.358 0.658 0.748-0.019-0.391 0.638 0.391 0.639-0.748-0.019-0.358 0.658z"/><path fill="#73af00" d="M18.055 16.343l0.309 0.568 0.647-0.017-0.338 0.552 0.338 0.552-0.647-0.017-0.309 0.568-0.309-0.568-0.647 0.017 0.338-0.552-0.338-0.552 0.647 0.017 0.309-0.568zM18.055 15.997l-0.406 0.747-0.85-0.022 0.444 0.725-0.444 0.725 0.85-0.022 0.406 0.747 0.406-0.747 0.85 0.022-0.444-0.725 0.444-0.725-0.85 0.022-0.406-0.747z"/></svg>