<svg xmlns="http://www.w3.org/2000/svg" width="32" height="32" version="1.1" viewBox="0 0 32 32"><title>cayman-islands</title><path fill="#41479b" d="M31.448 26.483h-30.896c-0.305 0-0.552-0.247-0.552-0.552v-19.862c0-0.305 0.247-0.552 0.552-0.552h30.896c0.305 0 0.552 0.247 0.552 0.552v19.862c-0 0.305-0.247 0.552-0.552 0.552z"/><path fill="#f5f5f5" d="M15.448 5.517h-0.958l-5.111 3.348v-3.348h-2.759v3.348l-5.111-3.348h-0.958c-0.305 0-0.552 0.247-0.552 0.552v0.438l4.385 2.873h-4.385v2.759h4.385l-4.385 2.873v0.438c0 0.305 0.247 0.552 0.552 0.552h0.958l5.111-3.348v3.348h2.759v-3.348l5.111 3.348h0.958c0.305 0 0.552-0.247 0.552-0.552v-0.438l-4.385-2.873h4.385v-2.759h-4.385l4.385-2.873v-0.438c0-0.305-0.247-0.552-0.552-0.552z"/><path fill="#ff4b55" d="M16 9.931h-7.172v-4.414h-1.655v4.414h-7.172v1.655h7.172v4.414h1.655v-4.414h7.172z"/><path fill="#ff4b55" d="M6.069 9.379l-5.806-3.769c-0.154 0.098-0.263 0.262-0.263 0.458v0.029l5.056 3.282h1.013z"/><path fill="#ff4b55" d="M10.393 9.379l5.523-3.585c-0.096-0.162-0.265-0.277-0.468-0.277h-0.119l-5.95 3.862h1.013z"/><path fill="#ff4b55" d="M5.592 12.138l-5.513 3.579c0.095 0.166 0.267 0.284 0.472 0.284h0.104l5.95-3.862h-1.013z"/><path fill="#ff4b55" d="M15.991 15.492l-5.167-3.354h-1.013l5.867 3.808c0.176-0.082 0.296-0.252 0.313-0.455z"/><path fill="#ffe15a" d="M23.989 10.764c0 0-0.231-0.923-0.923-1.384 0 0 0.692 1.154 0.692 2.076l0.231-0.692z"/><path fill="#ffe15a" d="M22.922 9.761c0 0 0.483 0.296 0.743 0.779l-0.209 0.483c0 0-0.173-0.685-0.534-1.262z"/><path fill="#ffe15a" d="M22.389 9.87c0 0 0.836 0.26 1.233 0.8l-0.238 0.361c0 0-0.317-0.613-0.995-1.161z"/><path fill="#ffe15a" d="M22.266 10.288c0 0 0.88 0.137 1.276 0.555l-0.101 0.397c0-0-0.483-0.577-1.175-0.952z"/><path fill="#ffe15a" d="M22.295 10.576c0 0 0.851 0.087 1.24 0.534s-0.144 0.31-0.144 0.31-0.447-0.512-1.096-0.844z"/><path fill="#ffe15a" d="M23.989 10.764c0 0 0.231-0.923 0.923-1.384 0 0-0.692 1.154-0.692 2.076l-0.231-0.692z"/><path fill="#ffe15a" d="M25.056 9.761c0 0-0.483 0.296-0.743 0.779l0.209 0.483c-0 0 0.173-0.685 0.534-1.262z"/><path fill="#ffe15a" d="M25.59 9.87c0 0-0.836 0.26-1.233 0.8l0.238 0.361c-0 0 0.317-0.613 0.995-1.161z"/><path fill="#ffe15a" d="M25.712 10.288c0 0-0.88 0.137-1.276 0.555l0.101 0.397c0-0 0.483-0.577 1.175-0.952z"/><path fill="#ffe15a" d="M25.683 10.576c0 0-0.851 0.087-1.24 0.534s0.144 0.31 0.144 0.31 0.447-0.512 1.096-0.844z"/><path fill="#ffe15a" d="M23.989 9.379c0 0-0.231 0.485 0 0.728 0.231-0.243 0-0.728 0-0.728z"/><path fill="#ffe15a" d="M23.759 9.5c0 0-0.031 0.537 0.274 0.675 0.122-0.312-0.274-0.675-0.274-0.675z"/><path fill="#ffe15a" d="M24.219 9.5c0 0 0.031 0.537-0.274 0.675-0.122-0.312 0.274-0.675 0.274-0.675z"/><path fill="#ffe15a" d="M24.295 9.809c0 0-0.201 0.498-0.536 0.493 0.023-0.334 0.536-0.493 0.536-0.493z"/><path fill="#ffe15a" d="M23.684 9.809c0 0 0.201 0.498 0.536 0.493-0.023-0.334-0.536-0.493-0.536-0.493z"/><path fill="#ffd255" d="M24.681 10.994c0 0.51-0.31 0.923-0.692 0.923s-0.692-0.413-0.692-0.923c0-0.51 0.31-0.923 0.692-0.923s0.692 0.413 0.692 0.923z"/><path fill="#73af00" d="M22.408 11.936l-0.159-0.245c0 0-0.461 0.111-0.572-0.236l-0.178-0.014c0 0 0.024-0.236 0.231-0.269 0 0 0.125-0.154 0.346-0.125s0.337 0.216 0.464 0.264c0.127 0.048 0.142 0.207 0.142 0.207l0.971 0.995c0 0-0.279 0.356-0.529 0.471s-1.168-0.447-0.716-1.048z"/><path fill="#73af00" d="M25.561 12.119c0 0 0.404 0.274 0.418 1.031h-0.671c0 0 0.007-0.512-0.123-0.786l0.375-0.245z"/><path fill="#73af00" d="M25.474 12.148c0 0 0.505 0.166 0.815-0.231l-0.526-0.072-0.288 0.303z"/><path fill="#73af00" d="M25.323 11.593l0.512 0.173c0.065 0.022 0.087 0.102 0.042 0.153-0.194 0.219-0.775 0.744-1.711 0.744-1.218 0-1.533-0.767-1.548-0.824s-0.079-0.526-0.079-0.526l0.519-0.058 2.264 0.339z"/><path fill="#ff4b55" d="M20.34 18.652h1.342l-0.692 1.341-0.692-0.923z"/><path fill="#ff4b55" d="M27.638 18.652h-1.342l0.692 1.341 0.692-0.923z"/><path fill="#ffd25a" d="M20.334 20.915c-0.662 0-1.169-0.355-1.195-0.374l0.534-0.753c0.004 0.003 0.451 0.307 0.907 0.169 0.461-0.139 0.764-0.684 0.937-1.116l0.857 0.343c-0.363 0.909-0.882 1.467-1.541 1.661-0.172 0.051-0.34 0.071-0.499 0.071z"/><path fill="#ffd25a" d="M27.644 20.915c0.662 0 1.169-0.355 1.195-0.374l-0.534-0.753c-0.004 0.003-0.451 0.307-0.907 0.169-0.461-0.139-0.764-0.684-0.937-1.116l-0.857 0.343c0.363 0.909 0.882 1.467 1.541 1.661 0.172 0.051 0.34 0.071 0.499 0.071z"/><path fill="#ff4b55" d="M26.988 16.070h-5.999v-2.217c0-0.305 0.247-0.552 0.552-0.552h4.895c0.305 0 0.552 0.247 0.552 0.552v2.217h-0z"/><path fill="#ffe15a" d="M22.626 14.917l-0.072-0.461c-0.339-0.014-0.534-0.411-0.534-0.411l-0.274 0.151c0.288 0.692 0.88 0.721 0.88 0.721z"/><path fill="#ffe15a" d="M26.239 14.441c0.101-0.077 0.322-0.106 0.322-0.106-0.159-0.163-0.332-0.048-0.332-0.048 0.144-0.135 0.063-0.327 0.063-0.327 0 0.063-0.101 0.106-0.101 0.106 0.005-0.125-0.125-0.245-0.125-0.245l-0.067 0.111c-0.043-0.106-0.197-0.187-0.197-0.187l-0.063 0.26c-0.144-0.125-0.399-0.115-0.399-0.115l0.048 0.12c-0.154 0.005-0.572 0.091-0.817 0.12s-0.442-0.038-0.442-0.149c0-0.093 0.214-0.104 0.307-0.105 0.066 0.015 0.148 0.038 0.264 0.073 0.216 0.065 0.343-0.029 0.343-0.029-0.076-0.029-0.084-0.063-0.084-0.063 0.162-0.094 0.314-0.071 0.314-0.071-0.054-0.119-0.288-0.112-0.288-0.112 0.061-0.032 0.108-0.133 0.108-0.133-0.014 0.014-0.148 0.047-0.329 0.072-0.137 0.018-0.265 0.123-0.319 0.171-0.144-0.011-0.521-0.016-0.455 0.246 0.082 0.322 0.731 0.207 1.13 0.144s0.606-0.010 0.692 0.043c0.087 0.053-0.037 0.232-0.442 0.159-0.35-0.063-0.543-0.065-0.649-0.054-0.117 0.008-0.218 0.039-0.288 0.054-0.159 0.034-0.769 0.25-0.884-0.063s-0.678 0.509-0.678 0.509l0.044 0.052-0.15-0.035c-0.202 0.27-0.808 0.353-0.808 0.353s-0.090-0.162-0.166-0.184c-0.076-0.022-0.108 0.097-0.108 0.097s-0.090 0.004-0.097 0.087c-0.007 0.083 0.065 0.090 0.065 0.090s-0.087 0.126 0.058 0.162c0 0-0.011 0.177 0.202 0.054 0.632 0.080 1.093-0.245 1.292-0.422 0.13 0.008 0.334 0.004 0.49-0.077 0.25-0.13 0.538-0.293 0.707-0.231 0 0 0.135 0.413-0.394 0.423 0 0-0.078-0.099-0.157-0.099-0.034 0-0.069 0.041-0.058 0.077 0 0-0.092-0.005-0.109 0.049-0.013 0.044 0.019 0.095 0.087 0.087 0 0-0.046 0.068 0 0.109s0.103 0 0.103 0-0.024 0.084 0.033 0.092c0.049 0.007 0.113-0.073 0.132-0.097 0.085 0.013 0.662 0.080 0.787-0.526 0 0 0.288 0.125 0.572 0.101s0.562 0.019 0.538 0.159c-0.031 0.101-0.093 0.094-0.093 0.094-0.068-0.027-0.182-0.024-0.198 0.073s0.117 0.1 0.117 0.1c0.038 0.090 0.147 0.052 0.147 0.052 0.095 0.068 0.157-0.005 0.157-0.005 0.041 0.035 0.083 0.042 0.122 0.008 0.038-0.033 0.017-0.25 0.013-0.327-0.006-0.129-0.024-0.466-0.212-0.471s-0.428 0.106-0.759-0.173c-0.017-0.015-0.034-0.024-0.051-0.036 0.157 0.015 0.269 0.057 0.378 0.075 0.149 0.024 0.587-0.014 0.687-0.091z"/><path fill="#ffe15a" d="M21.747 14.196c0 0-0.092 0.002-0.137-0.011-0.077-0.023-0.087-0.144-0.004-0.166 0 0-0.1-0.068-0.054-0.144 0.037-0.061 0.13-0.061 0.162-0.025 0 0-0.030-0.101 0.058-0.134 0.070-0.026 0.126 0.054 0.126 0.159 0 0 0.105-0.085 0.159-0.029 0.038 0.039 0.027 0.091-0.036 0.198-0.064 0.11-0.274 0.151-0.274 0.151z"/><path fill="#41479b" d="M21.633 14.151c0 0-0.049 0.084-0.19 0.033 0 0 0.122-0.057 0.138-0.106l0.052 0.073z"/><path fill="#41479b" d="M21.582 13.904c0 0-0.076-0.049-0.16-0.046 0 0 0.125-0.092 0.231-0.011l-0.071 0.057z"/><path fill="#41479b" d="M21.758 13.774c0 0 0.024-0.090-0.024-0.138 0 0 0.1 0.043 0.114 0.125l-0.090 0.014z"/><path fill="#41479b" d="M21.981 13.866c0 0 0.049-0.109 0.005-0.16 0 0 0.13 0.076 0.076 0.201l-0.081-0.041z"/><path fill="#41479b" d="M21.726 15.073c0 0-0.052-0.107-0.12-0.107 0 0 0.142-0.052 0.203 0.070l-0.083 0.037z"/><path fill="#41479b" d="M21.612 15.209c0 0-0.093-0.074-0.154-0.045 0 0 0.106-0.107 0.213-0.024l-0.059 0.069z"/><path fill="#41479b" d="M21.677 15.401c0 0-0.119-0.001-0.149 0.059 0 0 0.017-0.15 0.154-0.15l-0.005 0.091z"/><path fill="#41479b" d="M21.786 15.525c0 0-0.049 0.084-0.19 0.033 0 0 0.122-0.057 0.138-0.106l0.052 0.073z"/><path fill="#41479b" d="M23.932 15.482c0 0-0.040 0.069-0.156 0.027 0 0 0.094-0.034 0.107-0.074l0.048 0.047z"/><path fill="#ffd255" d="M22.711 13.994c0 0-0.26 0.442-0.197 1.082 0 0 0.765-0.112 1.097-0.876 0 0 0.081-0.033 0.112-0.111 0.027-0.067 0.025-0.177-0.104-0.176 0 0 0.038-0.077 0.085-0.095 0 0-0.083-0.032-0.18-0.011 0 0 0.076-0.076 0.076-0.173 0 0-0.115 0.076-0.187 0.083 0 0-0.007-0.119 0.022-0.133 0 0-0.151 0.014-0.227 0.094 0 0-0.050-0.069-0.047-0.141 0 0-0.141 0.061-0.195 0.151 0 0-0.043-0.047-0.040-0.094 0 0-0.101 0.123-0.123 0.187 0 0-0.095-0.026-0.137 0.050-0.030 0.055-0.023 0.116 0.044 0.162z"/><path fill="#41479b" d="M23.816 15.16c0 0-0.031-0.058-0.123-0.071 0 0 0.118-0.054 0.192 0.024l-0.069 0.047z"/><path fill="#41479b" d="M25.725 15.38c0 0-0.067 0.021-0.099 0.117 0 0-0.035-0.135 0.063-0.199l0.037 0.082z"/><path fill="#41479b" d="M25.866 15.43c0 0-0.064 0.062-0.061 0.163 0 0-0.079-0.115-0.009-0.208l0.070 0.046z"/><path fill="#41479b" d="M26.171 15.424c0 0-0.019 0.066 0.039 0.136 0 0-0.121-0.038-0.123-0.144l0.084 0.008z"/><path fill="#41479b" d="M26.028 15.45c0 0-0.051 0.049-0.038 0.148 0 0-0.095-0.084-0.036-0.183l0.074 0.035z"/><path fill="#41479b" d="M23.718 15.279c0 0-0.062-0.022-0.139 0.031 0 0 0.050-0.119 0.158-0.112l-0.019 0.081z"/><path fill="#41479b" d="M23.802 15.41c0 0-0.063-0.017-0.135 0.043 0 0 0.011-0.115 0.119-0.117l0.017 0.074z"/><path fill="#f5f5f5" d="M26.988 16.442c-0.5 0-0.5 0.451-1.001 0.451s-0.5-0.451-1.001-0.451c-0.5 0-0.5 0.451-1 0.451s-0.5-0.451-0.999-0.451-0.5 0.451-0.999 0.451c-0.5 0-0.5-0.451-0.999-0.451v-0.833c0.5 0 0.5 0.451 0.999 0.451s0.5-0.451 0.999-0.451c0.5 0 0.5 0.451 0.999 0.451s0.5-0.451 1-0.451c0.5 0 0.5 0.451 1.001 0.451s0.5-0.451 1.001-0.451v0.833z"/><path fill="#41479b" d="M25.988 16.893c-0.5 0-0.5-0.451-1.001-0.451s-0.5 0.451-1 0.451c-0.5 0-0.5-0.451-0.999-0.451s-0.5 0.451-0.999 0.451c-0.499 0-0.5-0.449-0.997-0.451 0.007 0.2 0.030 0.496 0.088 0.844 0.406 0.054 0.443 0.441 0.908 0.441 0.5 0 0.5-0.451 0.999-0.451s0.5 0.451 0.999 0.451c0.5 0 0.5-0.451 1-0.451s0.5 0.451 1.001 0.451c0.466 0 0.503-0.387 0.91-0.441 0.058-0.348 0.081-0.644 0.088-0.844-0.497 0.002-0.498 0.451-0.998 0.451z"/><path fill="#f5f5f5" d="M25.988 17.727c-0.5 0-0.5-0.451-1.001-0.451s-0.5 0.451-1 0.451c-0.5 0-0.5-0.451-0.999-0.451s-0.5 0.451-0.999 0.451c-0.465 0-0.502-0.387-0.908-0.441 0.046 0.276 0.116 0.583 0.217 0.901 0.225 0.129 0.323 0.373 0.691 0.373 0.5 0 0.5-0.451 0.999-0.451s0.5 0.451 0.999 0.451c0.5 0 0.5-0.451 1-0.451s0.5 0.451 1.001 0.451c0.369 0 0.467-0.244 0.692-0.373 0.102-0.318 0.171-0.625 0.217-0.901-0.407 0.054-0.444 0.441-0.91 0.441z"/><path fill="#41479b" d="M25.988 18.56c-0.5 0-0.5-0.451-1.001-0.451s-0.5 0.451-1 0.451c-0.5 0-0.5-0.451-0.999-0.451s-0.5 0.451-0.999 0.451c-0.368 0-0.466-0.244-0.691-0.373 0.127 0.396 0.305 0.807 0.554 1.19 0.042 0.009 0.085 0.016 0.137 0.016 0.5 0 0.5-0.451 0.999-0.451s0.5 0.451 0.999 0.451c0.5 0 0.5-0.451 1-0.451s0.5 0.451 1.001 0.451c0.052 0 0.096-0.007 0.138-0.016 0.249-0.383 0.427-0.794 0.554-1.19-0.226 0.129-0.324 0.373-0.692 0.373z"/><path fill="#f5f5f5" d="M25.988 19.393c-0.5 0-0.5-0.451-1.001-0.451s-0.5 0.451-1 0.451c-0.5 0-0.5-0.451-0.999-0.451s-0.5 0.451-0.999 0.451c-0.051 0-0.095-0.007-0.137-0.016 0.158 0.243 0.345 0.475 0.566 0.684 0.153-0.129 0.274-0.287 0.57-0.287 0.5 0 0.5 0.451 0.999 0.451s0.5-0.451 1-0.451c0.297 0 0.418 0.158 0.572 0.288 0.221-0.21 0.409-0.442 0.567-0.686-0.042 0.009-0.086 0.016-0.138 0.016z"/><path fill="#41479b" d="M25.559 20.062c-0.154-0.129-0.275-0.288-0.572-0.288-0.5 0-0.5 0.451-1 0.451s-0.5-0.451-0.999-0.451c-0.296 0-0.417 0.157-0.57 0.287 0.402 0.382 0.914 0.69 1.571 0.854 0.656-0.164 1.168-0.471 1.57-0.853z"/><path fill="#f5f5f5" d="M24.987 15.609c-0.5 0-0.5 0.451-1 0.451s-0.5-0.451-0.999-0.451-0.5 0.451-0.999 0.451c-0.5 0-0.5-0.451-0.999-0.451 0 0.285 0 0.532 0 0.692 0 0.039 0.001 0.087 0.003 0.141 0.497 0.002 0.498 0.451 0.997 0.451s0.5-0.451 0.999-0.451c0.5 0 0.5 0.451 0.999 0.451s0.5-0.451 1-0.451c0.5 0 0.5 0.451 1.001 0.451 0.499 0 0.501-0.449 0.998-0.451 0.002-0.054 0.003-0.102 0.003-0.141 0-0.16 0-0.408 0-0.692-0.5 0-0.5 0.451-1.001 0.451s-0.5-0.451-1.001-0.451z"/><path fill="#f5f5f5" d="M26.758 13.302c0.127 0 0.231 0.103 0.231 0.231v2.538c0 0.087 0 0.167 0 0.231 0 0.039-0.001 0.087-0.003 0.141-0.007 0.2-0.030 0.496-0.088 0.844-0.046 0.276-0.116 0.583-0.217 0.901-0.127 0.396-0.305 0.807-0.554 1.19-0.158 0.244-0.346 0.476-0.567 0.686-0.402 0.381-0.914 0.689-1.57 0.853-0.657-0.164-1.169-0.472-1.571-0.854-0.221-0.209-0.408-0.441-0.566-0.684-0.249-0.383-0.427-0.794-0.554-1.19-0.102-0.318-0.171-0.625-0.217-0.901-0.058-0.348-0.081-0.644-0.088-0.844-0.002-0.054-0.003-0.102-0.003-0.141 0-0.063 0-0.143 0-0.231v-2.538c0-0.127 0.103-0.231 0.231-0.231h5.537zM26.758 13.129h-5.537c-0.223 0-0.404 0.181-0.404 0.404v2.769c0 0.041 0.001 0.091 0.003 0.147 0.007 0.188 0.028 0.491 0.091 0.866 0.054 0.319 0.129 0.63 0.223 0.925 0.146 0.456 0.339 0.871 0.574 1.232 0.173 0.266 0.372 0.507 0.592 0.716 0.459 0.436 1.013 0.738 1.648 0.896l0.042 0.011 0.042-0.011c0.634-0.159 1.188-0.46 1.647-0.895 0.221-0.209 0.42-0.451 0.593-0.717 0.235-0.361 0.428-0.775 0.574-1.232 0.095-0.295 0.17-0.606 0.223-0.925 0.063-0.375 0.084-0.678 0.091-0.866 0.002-0.057 0.003-0.107 0.003-0.147v-2.769c0-0.223-0.181-0.404-0.404-0.404v0z"/><path fill="#73af00" d="M23.989 19.52l-0.633 0.441 0.223-0.738-0.615-0.466 0.771-0.016 0.253-0.729 0.253 0.729 0.771 0.016-0.614 0.466 0.223 0.738z"/><path fill="#ffe15a" d="M23.989 18.155l0.22 0.632 0.669 0.014-0.533 0.404 0.194 0.641-0.549-0.382-0.549 0.382 0.194-0.641-0.533-0.404 0.669-0.014 0.22-0.632zM23.989 17.87l-0.088 0.254-0.198 0.571-0.873 0.018 0.696 0.528-0.253 0.836 0.717-0.499 0.717 0.499-0.078-0.257-0.175-0.578 0.696-0.528-0.873-0.018-0.287-0.825z"/><path fill="#73af00" d="M22.599 17.721l-0.633 0.44 0.223-0.738-0.615-0.466 0.771-0.016 0.253-0.729 0.253 0.729 0.771 0.016-0.615 0.466 0.223 0.738z"/><path fill="#ffe15a" d="M22.599 16.355l0.22 0.632 0.669 0.014-0.533 0.404 0.194 0.641-0.549-0.382-0.549 0.382 0.194-0.641-0.533-0.404 0.669-0.014 0.22-0.632zM22.599 16.070l-0.088 0.254-0.198 0.571-0.873 0.018 0.696 0.528-0.253 0.836 0.717-0.499 0.717 0.499-0.078-0.257-0.175-0.578 0.696-0.528-0.873-0.018-0.287-0.825z"/><path fill="#73af00" d="M25.367 17.721l-0.633 0.44 0.223-0.738-0.615-0.466 0.771-0.016 0.253-0.729 0.253 0.729 0.771 0.016-0.615 0.466 0.223 0.738z"/><path fill="#ffe15a" d="M25.367 16.355l0.22 0.632 0.669 0.014-0.533 0.404 0.194 0.641-0.549-0.382-0.549 0.382 0.194-0.641-0.533-0.404 0.669-0.014 0.22-0.632zM25.367 16.070l-0.088 0.254-0.198 0.571-0.873 0.018 0.696 0.528-0.253 0.836 0.717-0.499 0.717 0.499-0.078-0.257-0.175-0.578 0.696-0.528-0.873-0.018-0.287-0.825z"/><path fill="#ffe15a" d="M27.638 18.652c-0.573 1.458-1.991 2.494-3.649 2.494s-3.077-1.036-3.649-2.494l-0.859 0.336c0.707 1.801 2.459 3.081 4.508 3.081s3.801-1.28 4.508-3.081l-0.859-0.336z"/><path fill="#f5f5f5" d="M24.451 13.302h-0.692l-0.231-0.692h0.692z"/><path fill="#f5f5f5" d="M25.604 13.302h-0.461l-0.154-0.461h0.211c0.15 0 0.283 0.096 0.33 0.238l0.075 0.223z"/><path fill="#f5f5f5" d="M23.066 13.302h-0.461l-0.053-0.158c-0.050-0.149 0.061-0.304 0.219-0.304h0.141l0.154 0.461z"/><path fill="#41479b" d="M25.143 13.302h-0.692l-0.231-0.692h0.526c0.099 0 0.187 0.063 0.219 0.158l0.178 0.534z"/><path fill="#41479b" d="M23.758 13.302h-0.692l-0.156-0.467c-0.037-0.111 0.045-0.225 0.162-0.225h0.455l0.231 0.692z"/><path fill="#509664" d="M25.683 11.701c-0.18 0.26-0.685 0.57-1.507 0.57-0.677 0-1.113-0.409-1.258-0.57-0.035-0.039-0.054-0.089-0.054-0.142v-0.157c0-0.068 0.035-0.129 0.094-0.163 0.146-0.085 0.485-0.221 1.154-0.221 0.829 0 1.572 0.685 1.572 0.685z"/></svg>