<!-- Generated by IcoMoon.io -->
<svg version="1.1" xmlns="http://www.w3.org/2000/svg" width="32" height="32" viewBox="0 0 32 32">
<title>ceuta</title>
<path fill="#f5f5f5" d="M31.448 26.483h-30.896c-0.305 0-0.552-0.247-0.552-0.552v-19.862c0-0.305 0.247-0.552 0.552-0.552h30.896c0.305 0 0.552 0.247 0.552 0.552v19.862c-0 0.305-0.247 0.552-0.552 0.552z"></path>
<path fill="#464655" d="M16 16v-10.483h-15.448c-0.134 0-0.253 0.054-0.348 0.133l15.796 10.349z"></path>
<path fill="#464655" d="M31.796 5.651l-15.796 10.349h16v-9.931c0-0.171-0.082-0.317-0.203-0.418z"></path>
<path fill="#464655" d="M0.203 26.349l15.796-10.349h-16v9.931c0 0.171 0.082 0.317 0.203 0.418z"></path>
<path fill="#464655" d="M16 16v10.483h15.448c0.134 0 0.253-0.054 0.348-0.133l-15.796-10.349z"></path>
<path fill="#ff4b55" d="M17.324 15.228v1.766c0 0.73-0.594 1.324-1.324 1.324s-1.324-0.594-1.324-1.324v-1.765h2.648zM17.765 14.345h-3.531c-0.244 0-0.441 0.198-0.441 0.441v2.207c0 1.219 0.988 2.207 2.207 2.207s2.207-0.988 2.207-2.207v-2.207c0-0.244-0.198-0.441-0.441-0.441v0z"></path>
<path fill="#f5f5f5" d="M17.324 15.228v1.766c0 0.73-0.594 1.324-1.324 1.324s-1.324-0.594-1.324-1.324v-1.765h2.648z"></path>
<path fill="#ffe15a" d="M14.452 14.786c0 0.122-0.099 0.221-0.221 0.221s-0.221-0.099-0.221-0.221c0-0.122 0.099-0.221 0.221-0.221s0.221 0.099 0.221 0.221z"></path>
<path fill="#ffe15a" d="M17.983 14.786c0 0.122-0.099 0.221-0.221 0.221s-0.221-0.099-0.221-0.221c0-0.122 0.099-0.221 0.221-0.221s0.221 0.099 0.221 0.221z"></path>
<path fill="#ffe15a" d="M14.452 16.552c0 0.122-0.099 0.221-0.221 0.221s-0.221-0.099-0.221-0.221c0-0.122 0.099-0.221 0.221-0.221s0.221 0.099 0.221 0.221z"></path>
<path fill="#ffe15a" d="M17.983 16.552c0 0.122-0.099 0.221-0.221 0.221s-0.221-0.099-0.221-0.221c0-0.122 0.099-0.221 0.221-0.221s0.221 0.099 0.221 0.221z"></path>
<path fill="#ffe15a" d="M16.217 14.786c0 0.122-0.099 0.221-0.221 0.221s-0.221-0.099-0.221-0.221c0-0.122 0.099-0.221 0.221-0.221s0.221 0.099 0.221 0.221z"></path>
<path fill="#ffe15a" d="M16.217 18.776c0 0.122-0.099 0.221-0.221 0.221s-0.221-0.099-0.221-0.221c0-0.122 0.099-0.221 0.221-0.221s0.221 0.099 0.221 0.221z"></path>
<path fill="#ffe15a" d="M17.542 18.179c0 0.122-0.099 0.221-0.221 0.221s-0.221-0.099-0.221-0.221c0-0.122 0.099-0.221 0.221-0.221s0.221 0.099 0.221 0.221z"></path>
<path fill="#ffe15a" d="M14.918 18.179c0 0.122-0.099 0.221-0.221 0.221s-0.221-0.099-0.221-0.221c0-0.122 0.099-0.221 0.221-0.221s0.221 0.099 0.221 0.221z"></path>
<path fill="#41479b" d="M16.285 16.44v0.38c0 0.157-0.128 0.285-0.285 0.285s-0.285-0.128-0.285-0.285v-0.38h0.57z"></path>
<path fill="#41479b" d="M16.285 15.539v0.38c0 0.157-0.128 0.285-0.285 0.285s-0.285-0.128-0.285-0.285v-0.38h0.57z"></path>
<path fill="#41479b" d="M16.285 17.35v0.38c0 0.157-0.128 0.285-0.285 0.285s-0.285-0.128-0.285-0.285v-0.38h0.57z"></path>
<path fill="#41479b" d="M17.053 16.44v0.38c0 0.157-0.128 0.285-0.285 0.285s-0.285-0.128-0.285-0.285v-0.38h0.57z"></path>
<path fill="#41479b" d="M15.517 16.44v0.38c0 0.157-0.128 0.285-0.285 0.285s-0.285-0.128-0.285-0.285v-0.38h0.57z"></path>
<path fill="#ffe15a" d="M18.137 14.345h-4.252c-0.143 0-0.26-0.116-0.26-0.26v-0.162c0-0.143 0.116-0.26 0.26-0.26h4.252c0.143 0 0.26 0.116 0.26 0.26v0.162c0 0.143-0.116 0.26-0.26 0.26z"></path>
<path fill="#ff4b55" d="M16.011 13.834l-0.341 0.17 0.341 0.17 0.341-0.17z"></path>
<path fill="#4173cd" d="M17.374 14.004c0 0.094-0.114 0.17-0.256 0.17s-0.256-0.076-0.256-0.17c0-0.094 0.114-0.17 0.256-0.17s0.256 0.076 0.256 0.17z"></path>
<path fill="#4173cd" d="M15.159 14.004c0 0.094-0.114 0.17-0.256 0.17s-0.256-0.076-0.256-0.17c0-0.094 0.114-0.17 0.256-0.17s0.256 0.076 0.256 0.17z"></path>
<path fill="#f5f5f5" d="M16.693 14.004c0 0.047-0.038 0.085-0.085 0.085s-0.085-0.038-0.085-0.085c0-0.047 0.038-0.085 0.085-0.085s0.085 0.038 0.085 0.085z"></path>
<path fill="#f5f5f5" d="M17.715 14.004c0 0.047-0.038 0.085-0.085 0.085s-0.085-0.038-0.085-0.085c0-0.047 0.038-0.085 0.085-0.085s0.085 0.038 0.085 0.085z"></path>
<path fill="#f5f5f5" d="M15.5 14.004c0 0.047-0.038 0.085-0.085 0.085s-0.085-0.038-0.085-0.085c0-0.047 0.038-0.085 0.085-0.085s0.085 0.038 0.085 0.085z"></path>
<path fill="#f5f5f5" d="M14.478 14.004c0 0.047-0.038 0.085-0.085 0.085s-0.085-0.038-0.085-0.085c0-0.047 0.038-0.085 0.085-0.085s0.085 0.038 0.085 0.085z"></path>
<path fill="#ff4b55" d="M13.625 13.919v0.17l0.17 0.085 0.341-0.17-0.341-0.17z"></path>
<path fill="#ff4b55" d="M18.396 14.089v-0.17l-0.17-0.085-0.341 0.17 0.341 0.17z"></path>
<path fill="#f5f5f5" d="M14.877 12.555c-0.054-0.027-0.119-0.010-0.173 0.032 0.028-0.041 0.044-0.096 0.041-0.156-0.006-0.122-0.087-0.217-0.181-0.212s-0.165 0.107-0.159 0.229c0.003 0.065 0.029 0.12 0.065 0.159-0.073-0.036-0.154-0.032-0.203 0.017-0.067 0.066-0.051 0.19 0.036 0.277s0.21 0.102 0.277 0.036c0.019-0.019 0.029-0.042 0.035-0.068 0.014 0.036 0.034 0.067 0.068 0.083 0.084 0.042 0.197-0.013 0.251-0.123s0.029-0.232-0.055-0.274zM14.626 12.678c-0.012 0.025-0.020 0.051-0.024 0.077-0.013-0.034-0.031-0.067-0.059-0.095-0.005-0.005-0.011-0.007-0.016-0.012 0.019 0.008 0.038 0.013 0.059 0.012 0.028-0.001 0.052-0.013 0.074-0.029-0.012 0.015-0.024 0.029-0.033 0.048z"></path>
<path fill="#f5f5f5" d="M17.068 12.828c0.054 0.109 0.166 0.165 0.25 0.123 0.033-0.016 0.054-0.047 0.068-0.083 0.006 0.025 0.017 0.049 0.035 0.068 0.067 0.067 0.19 0.051 0.277-0.036s0.102-0.21 0.036-0.277c-0.049-0.049-0.129-0.053-0.203-0.017 0.036-0.039 0.062-0.094 0.065-0.159 0.006-0.122-0.065-0.225-0.159-0.229s-0.175 0.090-0.181 0.212c-0.003 0.060 0.013 0.115 0.041 0.156-0.054-0.042-0.119-0.059-0.173-0.032-0.084 0.042-0.109 0.164-0.055 0.274zM17.34 12.63c0.022 0.016 0.047 0.028 0.074 0.029 0.021 0.001 0.040-0.005 0.059-0.012-0.005 0.005-0.011 0.007-0.016 0.012-0.029 0.029-0.047 0.062-0.059 0.095-0.004-0.026-0.012-0.052-0.024-0.077-0.009-0.018-0.022-0.033-0.033-0.048z"></path>
<path fill="#ffe15a" d="M19.11 12.054c-0.245-0.087-0.762-0.134-0.958 0.312-0.038 0.086 0.001 0.187 0.087 0.225 0.083 0.037 0.179 0 0.22-0.080l0.064 0.076c-0.054 0.151-0.075 0.286-0.081 0.333-0.088 0.363-0.425 0.403-0.567 0.403-0.229 0-0.358-0.245-0.359-0.248-0.023-0.045-0.066-0.078-0.116-0.089s-0.102 0.001-0.142 0.032c-0.093 0.073-0.384 0.272-0.603 0.306-0.106 0.017-0.192-0.001-0.25-0.051-0.047-0.040-0.064-0.091-0.064-0.122 0-0.076 0.094-0.17 0.17-0.17 0.058 0 0.080 0.037 0.080 0.037 0.040 0.085 0.142 0.122 0.227 0.082s0.121-0.142 0.081-0.227c-0.033-0.070-0.124-0.178-0.274-0.217 0.091-0.144 0.174-0.32 0.226-0.527l-0.511-0.17c0 0 0.17-0.511-0.341-0.511s-0.341 0.511-0.341 0.511l-0.511 0.17c0.052 0.207 0.135 0.383 0.226 0.527-0.15 0.039-0.241 0.147-0.274 0.217-0.040 0.085-0.004 0.187 0.081 0.227s0.187 0.004 0.227-0.081c0 0 0.022-0.037 0.080-0.037 0.076 0 0.17 0.094 0.17 0.17 0 0.031-0.017 0.082-0.064 0.122-0.058 0.050-0.144 0.068-0.25 0.051-0.219-0.035-0.51-0.233-0.603-0.306-0.040-0.031-0.092-0.043-0.142-0.032s-0.092 0.044-0.116 0.089c-0.001 0.002-0.131 0.248-0.359 0.248-0.142 0-0.479-0.039-0.567-0.403-0.006-0.046-0.028-0.182-0.081-0.333l0.064-0.076c0.041 0.081 0.136 0.117 0.22 0.080 0.086-0.038 0.125-0.138 0.087-0.225-0.197-0.446-0.713-0.399-0.958-0.312-0.070 0.025-0.116 0.093-0.113 0.167s0.054 0.138 0.126 0.158c0.209 0.056 0.302 0.455 0.319 0.59 0.001 0.006 0.002 0.012 0.003 0.018 0.095 0.417 0.441 0.676 0.901 0.676 0.264 0 0.446-0.149 0.552-0.273 0.149 0.098 0.389 0.235 0.614 0.271 0.043 0.007 0.085 0.010 0.126 0.010 0.154 0 0.292-0.047 0.399-0.138 0.115-0.098 0.183-0.241 0.183-0.381 0 0.141 0.069 0.283 0.183 0.381 0.106 0.091 0.245 0.138 0.399 0.138 0.041 0 0.083-0.004 0.126-0.010 0.224-0.036 0.464-0.173 0.614-0.271 0.106 0.124 0.288 0.273 0.552 0.273 0.46 0 0.806-0.259 0.901-0.676 0.001-0.006 0.002-0.012 0.003-0.018 0.016-0.135 0.11-0.534 0.319-0.59 0.072-0.019 0.123-0.083 0.126-0.158s-0.043-0.142-0.113-0.167z"></path>
<path fill="#4173cd" d="M12.981 12.706c-0.054-0.13-0.027-0.265 0.060-0.301s0.201 0.040 0.255 0.171c0.054 0.13 0.027 0.265-0.060 0.301s-0.201-0.040-0.255-0.171z"></path>
<path fill="#4173cd" d="M19.019 12.707c-0.054 0.13-0.168 0.207-0.255 0.171s-0.114-0.171-0.060-0.301c0.054-0.13 0.168-0.207 0.255-0.171s0.114 0.171 0.060 0.301z"></path>
<path fill="#4173cd" d="M16.256 12.471c0 0.188-0.114 0.341-0.256 0.341s-0.256-0.153-0.256-0.341c0-0.188 0.114-0.341 0.256-0.341s0.256 0.153 0.256 0.341z"></path>
</svg>
