<svg xmlns="http://www.w3.org/2000/svg" width="32" height="32" version="1.1" viewBox="0 0 32 32"><title>chile</title><path fill="#f5f5f5" d="M32 16h-32v-9.931c0-0.305 0.247-0.552 0.552-0.552h30.896c0.305 0 0.552 0.247 0.552 0.552l-0 9.931z"/><path fill="#ff4b55" d="M1.103 16v-0.552h-1.103v10.483c0 0.305 0.247 0.552 0.552 0.552h30.896c0.305 0 0.552-0.247 0.552-0.552v-9.931h-30.897z"/><path fill="#41479b" d="M9.931 16h-9.379c-0.305 0-0.552-0.247-0.552-0.552v-9.379c0-0.305 0.247-0.552 0.552-0.552h9.379c0.305 0 0.552 0.247 0.552 0.552v9.379c-0 0.305-0.247 0.552-0.552 0.552z"/><path fill="#f5f5f5" d="M5.454 8.405l0.526 1.577 1.662 0.013c0.215 0.002 0.304 0.276 0.131 0.404l-1.337 0.988 0.501 1.585c0.065 0.205-0.169 0.375-0.344 0.25l-1.353-0.967-1.353 0.967c-0.175 0.125-0.409-0.045-0.344-0.25l0.501-1.585-1.337-0.988c-0.173-0.128-0.084-0.403 0.131-0.404l1.662-0.013 0.526-1.577c0.068-0.204 0.357-0.204 0.425-0z"/></svg>