<svg xmlns="http://www.w3.org/2000/svg" width="32" height="32" version="1.1" viewBox="0 0 32 32"><title>costa-rica</title><path fill="#ff4b55" d="M0 12.689h32v6.621h-32v-6.621z"/><path fill="#41479b" d="M0.552 5.517h30.896c0.305 0 0.552 0.247 0.552 0.552v3.035h-32v-3.034c0-0.305 0.247-0.552 0.552-0.552z"/><path fill="#f5f5f5" d="M0 9.104h32v3.586h-32v-3.586z"/><path fill="#41479b" d="M31.448 26.483h-30.896c-0.305 0-0.552-0.247-0.552-0.552v-3.035h32v3.035c0 0.305-0.247 0.552-0.552 0.552z"/><path fill="#f5f5f5" d="M0 19.31h32v3.586h-32v-3.586z"/><path fill="#f5f5f5" d="M11.23 16c0 1.524-1.155 2.759-2.581 2.759s-2.581-1.235-2.581-2.759c0-1.524 1.155-2.759 2.581-2.759s2.581 1.235 2.581 2.759z"/><path fill="#3cc8ff" d="M7.314 14.932h2.67v1.335h-2.67v-1.335z"/><path fill="#ffe15a" d="M7.671 15.691l0.030 0.294 0.12-0.271-0.062 0.289 0.198-0.22-0.149 0.256 0.256-0.148-0.22 0.198 0.289-0.062-0.271 0.12 0.295 0.030-0.295 0.030 0.271 0.12-0.289-0.062 0.22 0.198-0.256-0.148 0.149 0.256-0.198-0.22 0.062 0.289-0.12-0.271-0.030 0.294-0.030-0.294-0.12 0.271 0.062-0.289-0.198 0.22 0.148-0.256-0.256 0.148 0.22-0.198-0.29 0.062 0.271-0.12-0.294-0.030 0.294-0.030-0.271-0.12 0.29 0.062-0.22-0.198 0.256 0.148-0.148-0.256 0.198 0.22-0.062-0.289 0.12 0.271z"/><path fill="#41479b" d="M9.183 18.136h-1.068l-0.979-0.801v-1.157h3.115v1.157z"/><path fill="#73af00" d="M9.717 15.822h-0c-0-0.024-0.020-0.044-0.044-0.044s-0.044 0.020-0.044 0.044h-0c0 0.154-0.089 0.368-0.199 0.521-0.153-0.194-0.211-0.418-0.233-0.559-0.010-0.067-0.083-0.105-0.144-0.074-0.029 0.015-0.049 0.043-0.054 0.076-0.068 0.436-0.274 0.622-0.407 0.698-0.199-0.193-0.265-0.505-0.287-0.689-0.008-0.072-0.085-0.113-0.15-0.081-0.025 0.012-0.043 0.035-0.052 0.061-0.279 0.851-1.055 0.937-1.055 0.937v0.267h3.115v-0.445c-0.356-0.089-0.445-0.712-0.445-0.712z"/><path fill="#f0aa00" d="M10.162 15.021c-0.356-0.178-0.356-0.356-0.356-0.356s-0.445-0.178-0.801-0.178c0 0 0.089-0.178-0.089-0.178s-0.267 0-0.267 0-0.089 0-0.267 0-0.089 0.178-0.089 0.178c-0.356 0-0.801 0.178-0.801 0.178s0 0.178-0.356 0.356c-0.356 0.178-0.356 0.578-0.356 0.578 0 0.074 0.060 0.133 0.133 0.133s0.133-0.060 0.133-0.133c0-0.015-0.003-0.030-0.008-0.043l0.008-0.001 0.89-0.623h1.424l0.89 0.623 0.008 0.001c-0.005 0.014-0.008 0.028-0.008 0.043 0 0.074 0.060 0.133 0.133 0.133s0.133-0.060 0.133-0.133c-0-0-0-0.4-0.356-0.578z"/><path fill="#f0aa00" d="M10.429 16.089c-0.089 0-0.356 0-0.356-0.267s0.356-0.267 0.356-0.267l-0.534-0.178c-0.178 0.623 0.178 0.623 0.178 1.424 0 0.717-0.801 1.157-1.068 1.157s-0.356 0.178-0.356 0.178-0.089-0.178-0.356-0.178c-0.267 0-1.068-0.439-1.068-1.157 0-0.801 0.356-0.801 0.178-1.424l-0.534 0.178c0 0 0.356 0 0.356 0.267s-0.267 0.267-0.356 0.267-0.445 0-0.445 0.445 0.445 0.979 1.068 1.335c0.623 0.356 0.356 0.712 1.157 0.712s0.534-0.356 1.157-0.712c0.623-0.356 1.068-0.89 1.068-1.335s-0.356-0.445-0.445-0.445z"/><path fill="#73af00" d="M8.472 14.696l-0.215-0.097c-0.036-0.016-0.075-0.020-0.114-0.011-0.139 0.032-0.483 0.137-0.739 0.433l0.267 0.089 0.801-0.414z"/><path fill="#73af00" d="M8.828 14.696l0.215-0.097c0.036-0.016 0.075-0.020 0.114-0.011 0.139 0.032 0.483 0.137 0.739 0.433l-0.267 0.089-0.801-0.414z"/><path fill="#73af00" d="M8.681 14.754l0.162-0.162c0.009-0.009 0.009-0.023 0-0.031s-0.023-0.009-0.031 0l-0.162 0.162-0.162-0.162c-0.009-0.009-0.023-0.009-0.031 0s-0.009 0.023 0 0.031l0.162 0.162-0.162 0.162c-0.009 0.009-0.009 0.023 0 0.031 0.004 0.004 0.010 0.007 0.016 0.007s0.011-0.002 0.016-0.007l0.162-0.162 0.162 0.162c0.004 0.004 0.010 0.007 0.016 0.007s0.011-0.002 0.016-0.007c0.009-0.009 0.009-0.023 0-0.031l-0.162-0.162z"/><path fill="#f5f5f5" d="M10.429 15.555c0-0.151-0.143-0.217-0.267-0.245v-0.070c-0.168-0.016-0.261-0.079-0.423-0.189-0.063-0.043-0.133-0.091-0.219-0.143-0.313-0.19-0.553-0.217-0.692-0.211v0.147h-0.356v-0.147c-0.139-0.007-0.379 0.021-0.692 0.211-0.086 0.052-0.157 0.1-0.219 0.143-0.162 0.111-0.256 0.174-0.423 0.189v0.070c-0.124 0.028-0.267 0.094-0.267 0.245l0.267-0.089v0.041c0.253-0.019 0.397-0.116 0.574-0.236 0.060-0.041 0.128-0.087 0.207-0.135 0.203-0.123 0.361-0.162 0.465-0.171v0.146h0.534v-0.146c0.103 0.009 0.261 0.047 0.465 0.171 0.080 0.048 0.148 0.095 0.207 0.135 0.177 0.12 0.321 0.217 0.574 0.236v-0.041l0.267 0.089z"/><path fill="#3cc8ff" d="M9.717 14.152v-0.11h-0.248c0.043-0.037 0.070-0.081 0.070-0.133 0-0.246-0.559-0.311-0.89-0.311s-0.89 0.066-0.89 0.311c0 0.053 0.027 0.096 0.070 0.133h-0.248v0.11c-0.218 0.049-0.396 0.165-0.405 0.172l0.099 0.148c0.002-0.002 0.247-0.163 0.485-0.163v-0.089h1.78v0.089c0.237 0 0.482 0.161 0.485 0.163l0.099-0.148c-0.009-0.006-0.187-0.123-0.405-0.172zM9.006 14.018v-0.068c0-0.044-0.041-0.075-0.083-0.065l-0.273 0.068-0.273-0.068c-0.042-0.011-0.083 0.021-0.083 0.065v0.068c-0.2-0.029-0.318-0.078-0.35-0.109 0.048-0.046 0.284-0.133 0.706-0.133s0.658 0.088 0.706 0.133c-0.032 0.030-0.15 0.079-0.35 0.109z"/><path fill="#f5f5f5" d="M8.661 15.144l0.023 0.068 0.071 0.001c0.009 0 0.013 0.012 0.006 0.017l-0.057 0.042 0.021 0.068c0.003 0.009-0.007 0.016-0.015 0.011l-0.058-0.041-0.058 0.041c-0.008 0.005-0.018-0.002-0.015-0.011l0.021-0.068-0.057-0.042c-0.007-0.005-0.004-0.017 0.006-0.017l0.071-0.001 0.023-0.068c0.003-0.009 0.015-0.009 0.018 0z"/><path fill="#f5f5f5" d="M8.312 15.167l0.030 0.065 0.071-0.007c0.009-0.001 0.014 0.010 0.007 0.017l-0.053 0.048 0.028 0.065c0.004 0.008-0.005 0.017-0.014 0.012l-0.062-0.035-0.053 0.047c-0.007 0.006-0.018-0-0.016-0.009l0.014-0.070-0.061-0.036c-0.008-0.005-0.005-0.017 0.004-0.018l0.071-0.008 0.015-0.070c0.002-0.009 0.014-0.010 0.018-0.002z"/><path fill="#f5f5f5" d="M7.954 15.262l0.043 0.057 0.068-0.022c0.009-0.003 0.016 0.007 0.011 0.015l-0.041 0.058 0.042 0.058c0.005 0.007-0.002 0.018-0.011 0.015l-0.068-0.021-0.042 0.058c-0.005 0.007-0.017 0.004-0.017-0.005l-0.001-0.071-0.068-0.022c-0.009-0.003-0.009-0.015-0-0.018l0.067-0.023-0-0.071c-0-0.009 0.012-0.013 0.017-0.006z"/><path fill="#f5f5f5" d="M7.595 15.413l0.050 0.051 0.064-0.031c0.008-0.004 0.017 0.005 0.013 0.013l-0.033 0.063 0.049 0.052c0.006 0.007 0.001 0.018-0.008 0.016l-0.070-0.012-0.034 0.063c-0.004 0.008-0.017 0.006-0.018-0.003l-0.011-0.070-0.070-0.013c-0.009-0.002-0.011-0.014-0.003-0.018l0.064-0.032-0.010-0.071c-0.001-0.009 0.010-0.015 0.016-0.008z"/><path fill="#f5f5f5" d="M8.991 15.167l-0.030 0.065-0.071-0.007c-0.009-0.001-0.014 0.010-0.007 0.017l0.053 0.048-0.028 0.065c-0.004 0.008 0.005 0.017 0.014 0.012l0.062-0.035 0.053 0.047c0.007 0.006 0.018-0 0.016-0.009l-0.014-0.070 0.061-0.036c0.008-0.005 0.005-0.017-0.004-0.018l-0.071-0.008-0.015-0.070c-0.002-0.009-0.014-0.010-0.018-0.002z"/><path fill="#f5f5f5" d="M9.35 15.262l-0.043 0.057-0.068-0.022c-0.009-0.003-0.016 0.007-0.011 0.015l0.041 0.058-0.042 0.058c-0.005 0.007 0.002 0.018 0.011 0.015l0.068-0.021 0.042 0.058c0.005 0.007 0.017 0.004 0.017-0.005l0.001-0.071 0.068-0.022c0.009-0.003 0.009-0.015 0-0.018l-0.067-0.023 0-0.071c0-0.009-0.012-0.013-0.017-0.006z"/><path fill="#f5f5f5" d="M9.709 15.413l-0.050 0.051-0.064-0.031c-0.008-0.004-0.017 0.005-0.013 0.013l0.033 0.063-0.049 0.052c-0.006 0.007-0.001 0.018 0.008 0.016l0.070-0.012 0.034 0.063c0.004 0.008 0.017 0.006 0.018-0.003l0.011-0.070 0.070-0.013c0.009-0.002 0.011-0.014 0.003-0.018l-0.064-0.032 0.009-0.071c0.001-0.009-0.010-0.015-0.016-0.008z"/><path fill="#8c5a28" d="M8.035 17.279l0.453 0.303h0.548l0.253-0.217-0.195 0.078h-0.645z"/><path fill="#f5f5f5" d="M8.344 16.888l-0.044 0.441-0.199-0.076c0-0 0.092-0.213 0.243-0.365z"/><path fill="#8c5a28" d="M8.736 16.713h0.029v0.751h-0.029v-0.751z"/><path fill="#8c5a28" d="M9.009 16.777h0.029v0.688h-0.029v-0.688z"/><path fill="#8c5a28" d="M8.466 16.777h0.029v0.688h-0.029v-0.688z"/><path fill="#f5f5f5" d="M8.841 17.393h-0.18c-0.019 0-0.034-0.015-0.034-0.034v-0.091c0-0.019 0.015-0.034 0.034-0.034h0.18c0.019 0 0.034 0.015 0.034 0.034v0.091c0 0.019-0.015 0.034-0.034 0.034z"/><path fill="#f5f5f5" d="M8.841 17.182h-0.18c-0.019 0-0.034-0.015-0.034-0.034v-0.091c0-0.019 0.015-0.034 0.034-0.034h0.18c0.019 0 0.034 0.015 0.034 0.034v0.091c0 0.019-0.015 0.034-0.034 0.034z"/><path fill="#f5f5f5" d="M8.841 16.987h-0.18c-0.019 0-0.034-0.015-0.034-0.034v-0.091c0-0.019 0.015-0.034 0.034-0.034h0.18c0.019 0 0.034 0.015 0.034 0.034v0.091c0 0.019-0.015 0.034-0.034 0.034z"/><path fill="#f5f5f5" d="M9.097 17.393h-0.146c-0.019 0-0.034-0.015-0.034-0.034v-0.091c0-0.019 0.015-0.034 0.034-0.034h0.146c0.019 0 0.034 0.015 0.034 0.034v0.091c0 0.019-0.015 0.034-0.034 0.034z"/><path fill="#f5f5f5" d="M9.097 17.199h-0.146c-0.019 0-0.034-0.015-0.034-0.034v-0.066c0-0.019 0.015-0.034 0.034-0.034h0.146c0.019 0 0.034 0.015 0.034 0.034v0.066c0 0.019-0.015 0.034-0.034 0.034z"/><path fill="#f5f5f5" d="M9.097 17.006h-0.146c-0.019 0-0.034-0.015-0.034-0.034v-0.044c0-0.019 0.015-0.034 0.034-0.034h0.146c0.019 0 0.034 0.015 0.034 0.034v0.044c0 0.019-0.015 0.034-0.034 0.034z"/><path fill="#f5f5f5" d="M8.553 17.393h-0.146c-0.019 0-0.034-0.015-0.034-0.034v-0.091c0-0.019 0.015-0.034 0.034-0.034h0.146c0.019 0 0.034 0.015 0.034 0.034v0.091c-0 0.019-0.015 0.034-0.034 0.034z"/><path fill="#f5f5f5" d="M8.553 17.199h-0.146c-0.019 0-0.034-0.015-0.034-0.034v-0.066c0-0.019 0.015-0.034 0.034-0.034h0.146c0.019 0 0.034 0.015 0.034 0.034v0.066c-0 0.019-0.015 0.034-0.034 0.034z"/><path fill="#f5f5f5" d="M8.553 17.006h-0.146c-0.019 0-0.034-0.015-0.034-0.034v-0.044c0-0.019 0.015-0.034 0.034-0.034h0.146c0.019 0 0.034 0.015 0.034 0.034v0.044c-0 0.019-0.015 0.034-0.034 0.034z"/><path fill="#f5f5f5" d="M8.495 16.777v0.089l0.131-0.045z"/><path fill="#f5f5f5" d="M9.038 16.777v0.089l0.131-0.045z"/><path fill="#f5f5f5" d="M8.766 16.713v0.089l0.131-0.045z"/><path fill="#8c5a28" d="M8.418 16.113l0.157 0.105h0.19l0.088-0.075-0.068 0.027h-0.224z"/><path fill="#f5f5f5" d="M8.526 15.977l-0.015 0.153-0.069-0.026c-0 0 0.032-0.074 0.084-0.127z"/><path fill="#8c5a28" d="M8.662 15.916h0.010v0.261h-0.010v-0.261z"/><path fill="#8c5a28" d="M8.756 15.938h0.010v0.239h-0.010v-0.239z"/><path fill="#8c5a28" d="M8.567 15.938h0.010v0.239h-0.010v-0.239z"/><path fill="#f5f5f5" d="M8.698 16.152h-0.063c-0.007 0-0.012-0.005-0.012-0.012v-0.032c0-0.006 0.005-0.012 0.012-0.012h0.063c0.007 0 0.012 0.005 0.012 0.012v0.032c0 0.007-0.005 0.012-0.012 0.012z"/><path fill="#f5f5f5" d="M8.698 16.079h-0.063c-0.007 0-0.012-0.005-0.012-0.012v-0.032c0-0.006 0.005-0.012 0.012-0.012h0.063c0.007 0 0.012 0.005 0.012 0.012v0.032c0 0.006-0.005 0.012-0.012 0.012z"/><path fill="#f5f5f5" d="M8.698 16.011h-0.063c-0.007 0-0.012-0.005-0.012-0.012v-0.031c0-0.007 0.005-0.012 0.012-0.012h0.063c0.007 0 0.012 0.005 0.012 0.012v0.031c0 0.007-0.005 0.012-0.012 0.012z"/><path fill="#f5f5f5" d="M8.787 16.152h-0.051c-0.007 0-0.012-0.005-0.012-0.012v-0.032c0-0.006 0.005-0.012 0.012-0.012h0.051c0.007 0 0.012 0.005 0.012 0.012v0.032c-0 0.007-0.005 0.012-0.012 0.012z"/><path fill="#f5f5f5" d="M8.787 16.085h-0.051c-0.007 0-0.012-0.005-0.012-0.012v-0.023c0-0.006 0.005-0.012 0.012-0.012h0.051c0.007 0 0.012 0.005 0.012 0.012v0.023c-0 0.007-0.005 0.012-0.012 0.012z"/><path fill="#f5f5f5" d="M8.787 16.017h-0.051c-0.007 0-0.012-0.005-0.012-0.012v-0.015c0-0.007 0.005-0.012 0.012-0.012h0.051c0.007 0 0.012 0.005 0.012 0.012v0.015c-0 0.007-0.005 0.012-0.012 0.012z"/><path fill="#f5f5f5" d="M8.598 16.152h-0.051c-0.007 0-0.012-0.005-0.012-0.012v-0.032c0-0.006 0.005-0.012 0.012-0.012h0.051c0.007 0 0.012 0.005 0.012 0.012v0.032c-0 0.007-0.005 0.012-0.012 0.012z"/><path fill="#f5f5f5" d="M8.598 16.085h-0.051c-0.007 0-0.012-0.005-0.012-0.012v-0.023c0-0.006 0.005-0.012 0.012-0.012h0.051c0.007 0 0.012 0.005 0.012 0.012v0.023c-0 0.007-0.005 0.012-0.012 0.012z"/><path fill="#f5f5f5" d="M8.598 16.017h-0.051c-0.007 0-0.012-0.005-0.012-0.012v-0.015c0-0.007 0.005-0.012 0.012-0.012h0.051c0.007 0 0.012 0.005 0.012 0.012v0.015c-0 0.007-0.005 0.012-0.012 0.012z"/><path fill="#f5f5f5" d="M8.578 15.938v0.031l0.045-0.016z"/><path fill="#f5f5f5" d="M8.767 15.938v0.031l0.045-0.016z"/><path fill="#f5f5f5" d="M8.672 15.916v0.031l0.045-0.016z"/><path fill="#f5f5f5" d="M8.307 15.644h-0.116c-0.042 0-0.076-0.034-0.076-0.076v0c0-0.042 0.034-0.076 0.076-0.076h0.116c0.042 0 0.076 0.034 0.076 0.076v0c0 0.042-0.034 0.076-0.076 0.076z"/><path fill="#f5f5f5" d="M9.185 15.644h-0.076c-0.042 0-0.076-0.034-0.076-0.076v0c0-0.042 0.034-0.076 0.076-0.076h0.076c0.042 0 0.076 0.034 0.076 0.076v0c-0 0.042-0.034 0.076-0.076 0.076z"/><path fill="#f5f5f5" d="M9.726 15.758h-0.067c-0.024 0-0.043-0.019-0.043-0.043v-0.007c0-0.024 0.019-0.043 0.043-0.043h0.067c0.024 0 0.043 0.019 0.043 0.043v0.007c0 0.024-0.019 0.043-0.043 0.043z"/></svg>