<svg xmlns="http://www.w3.org/2000/svg" width="32" height="32" version="1.1" viewBox="0 0 32 32"><title>croatia</title><path fill="#41479b" d="M0 19.494h32v6.437c0 0.305-0.247 0.552-0.552 0.552h-30.896c-0.305 0-0.552-0.247-0.552-0.552v-6.437z"/><path fill="#ff4b55" d="M0.552 5.517h30.896c0.305 0 0.552 0.247 0.552 0.552v6.437h-32v-6.437c0-0.305 0.247-0.552 0.552-0.552z"/><path fill="#f5f5f5" d="M0 12.506h32v6.988h-32v-6.988z"/><path fill="#ff4b55" d="M12.138 12.689h1.545v1.766h-1.545v-1.766z"/><path fill="#ff4b55" d="M15.227 12.689h1.545v1.766h-1.545v-1.766z"/><path fill="#ff4b55" d="M13.682 14.455h1.545v1.766h-1.545v-1.766z"/><path fill="#ff4b55" d="M18.317 12.689h1.545v1.766h-1.545v-1.766z"/><path fill="#ff4b55" d="M16.772 14.455h1.545v1.766h-1.545v-1.766z"/><path fill="#f5f5f5" d="M13.682 12.689h1.545v1.766h-1.545v-1.766z"/><path fill="#f5f5f5" d="M16.772 12.689h1.545v1.766h-1.545v-1.766z"/><path fill="#f5f5f5" d="M12.138 14.455h1.545v1.766h-1.545v-1.766z"/><path fill="#f5f5f5" d="M15.227 14.455h1.545v1.766h-1.545v-1.766z"/><path fill="#f5f5f5" d="M18.317 14.455h1.545v1.766h-1.545v-1.766z"/><path fill="#ff4b55" d="M15.227 16.221h1.545v1.766h-1.545v-1.766z"/><path fill="#ff4b55" d="M13.682 17.986h1.545v1.766h-1.545v-1.766z"/><path fill="#ff4b55" d="M16.772 17.986h1.545v1.766h-1.545v-1.766z"/><path fill="#f5f5f5" d="M13.682 16.221h1.545v1.766h-1.545v-1.766z"/><path fill="#f5f5f5" d="M16.772 16.221h1.545v1.766h-1.545v-1.766z"/><path fill="#f5f5f5" d="M15.227 17.986h1.545v1.766h-1.545v-1.766z"/><path fill="#ff4b55" d="M19.862 12.69v4.966c0 2.133-1.729 3.862-3.862 3.862s-3.862-1.729-3.862-3.862v-4.965h7.724zM20.138 12.414h-8.276v5.241c0 2.282 1.856 4.138 4.138 4.138s4.138-1.856 4.138-4.138v-5.241z"/><path fill="#ff4b55" d="M13.683 17.986v-1.765h-1.545v1.434c0 0.112 0.007 0.222 0.017 0.331l1.528-0z"/><path fill="#f5f5f5" d="M19.845 17.986h-1.528v1.765h0.923c0.335-0.517 0.55-1.118 0.605-1.765z"/><path fill="#f5f5f5" d="M12.759 19.752h0.923v-1.765h-1.528c0.055 0.648 0.27 1.249 0.605 1.765z"/><path fill="#ff4b55" d="M18.317 17.986h1.528c0.009-0.109 0.017-0.219 0.017-0.331v-1.434h-1.545v1.766z"/><path fill="#ff4b55" d="M13.683 20.74v-0.988h-0.923c0.247 0.382 0.561 0.715 0.923 0.988z"/><path fill="#ff4b55" d="M19.241 19.752h-0.923v0.988c0.363-0.273 0.676-0.606 0.923-0.988z"/><path fill="#f5f5f5" d="M13.683 20.74c0.45 0.338 0.973 0.584 1.545 0.7v-1.688h-1.545v0.988z"/><path fill="#f5f5f5" d="M16.772 21.44c0.572-0.116 1.095-0.362 1.545-0.7v-0.988h-1.545v1.688z"/><path fill="#ff4b55" d="M16.772 19.752h-1.545v1.688c0.25 0.051 0.508 0.078 0.772 0.078s0.523-0.027 0.772-0.078v-1.688h-0z"/><path fill="#4173cd" d="M13.204 9.768c-0.336-0.052-0.68-0.089-1.031-0.111-0.271 0.223-0.53 0.456-0.775 0.697 0.246 0.595 0.493 1.189 0.739 1.784 0.495-0.205 1.001-0.369 1.515-0.492-0.15-0.626-0.299-1.252-0.449-1.878z"/><path fill="#4173cd" d="M16.938 9.475c-0.302-0.153-0.615-0.294-0.938-0.423-0.323 0.129-0.636 0.27-0.938 0.423 0.050 0.642 0.1 1.283 0.151 1.925 0.524-0.041 1.050-0.041 1.574 0 0.050-0.642 0.1-1.283 0.151-1.925z"/><path fill="#4173cd" d="M20.601 10.354c-0.245-0.241-0.504-0.474-0.775-0.697-0.351 0.022-0.694 0.059-1.031 0.111-0.15 0.626-0.299 1.252-0.449 1.878 0.514 0.123 1.021 0.287 1.515 0.492 0.246-0.595 0.493-1.189 0.739-1.784z"/><path fill="#41479b" d="M15.062 9.475c-0.322-0.104-0.653-0.195-0.993-0.272-0.3 0.178-0.588 0.366-0.864 0.565 0.15 0.626 0.299 1.252 0.449 1.878 0.514-0.123 1.036-0.205 1.559-0.246-0.050-0.642-0.101-1.283-0.151-1.925z"/><path fill="#41479b" d="M18.796 9.768c-0.276-0.198-0.565-0.387-0.864-0.565-0.34 0.077-0.671 0.168-0.993 0.272-0.050 0.642-0.1 1.283-0.151 1.925 0.524 0.041 1.045 0.123 1.559 0.246 0.15-0.626 0.299-1.252 0.449-1.878z"/><path fill="#ff4b55" d="M15.122 10.245c-0.584 0.046-1.165 0.137-1.739 0.274-0.030-0.125-0.060-0.25-0.090-0.376 0.593-0.142 1.194-0.236 1.798-0.283 0.010 0.128 0.020 0.257 0.030 0.385z"/><path fill="#ff4b55" d="M15.183 11.015c-0.544 0.043-1.085 0.128-1.619 0.255-0.030-0.125-0.060-0.25-0.090-0.376 0.553-0.132 1.115-0.221 1.679-0.265 0.010 0.128 0.020 0.257 0.030 0.385z"/><path fill="#ffe15a" d="M17.833 11.145c-0.135-0.024-0.27-0.045-0.405-0.064-0.223-0.031-0.388-0.22-0.369-0.432v0c0.019-0.212 0.232-0.366 0.474-0.333 0.145 0.020 0.29 0.043 0.435 0.069 0.241 0.043 0.397 0.255 0.35 0.463v0c-0.047 0.208-0.264 0.337-0.485 0.298z"/><path fill="#ff4b55" d="M20.010 11.781c-0.513-0.213-1.040-0.383-1.573-0.511 0.030-0.125 0.060-0.25 0.090-0.376 0.553 0.132 1.099 0.309 1.631 0.529-0.049 0.119-0.099 0.238-0.148 0.357z"/><path fill="#ffe15a" d="M19.872 10.622c-0.055 0.15-0.239 0.222-0.412 0.165s-0.28-0.222-0.236-0.376 0.23-0.235 0.415-0.175c0.185 0.060 0.288 0.235 0.234 0.386z"/><path fill="#ffe15a" d="M12.777 10.412c0.044 0.154-0.063 0.319-0.236 0.376s-0.358-0.015-0.412-0.165c-0.055-0.15 0.049-0.326 0.234-0.386s0.371 0.021 0.415 0.175z"/><path fill="#ffe15a" d="M15.912 10.159c0 0.128-0.115 0.232-0.257 0.236s-0.264-0.093-0.271-0.22c-0.007-0.127 0.107-0.238 0.257-0.243s0.271 0.098 0.272 0.226z"/><path fill="#ffe15a" d="M16.617 10.176c-0.008 0.128-0.129 0.225-0.271 0.22s-0.257-0.109-0.257-0.236c0.001-0.128 0.122-0.231 0.271-0.226s0.264 0.115 0.257 0.243z"/><path fill="#ffe15a" d="M16.25 10.755c-0.004 0.128-0.116 0.229-0.251 0.229s-0.247-0.101-0.251-0.229c-0.004-0.128 0.109-0.235 0.251-0.234s0.254 0.107 0.251 0.234z"/></svg>