<svg xmlns="http://www.w3.org/2000/svg" width="32" height="32" version="1.1" viewBox="0 0 32 32"><title>cuba</title><path fill="#41479b" d="M32 9.71h-32v-3.641c0-0.305 0.247-0.552 0.552-0.552h30.896c0.305 0 0.552 0.247 0.552 0.552l-0 3.641z"/><path fill="#41479b" d="M31.448 26.483h-30.896c-0.305 0-0.552-0.247-0.552-0.552v-3.641h32v3.641c0 0.305-0.247 0.552-0.552 0.552z"/><path fill="#f5f5f5" d="M0 9.711h32v4.193h-32v-4.193z"/><path fill="#41479b" d="M0 13.904h32v4.193h-32v-4.193z"/><path fill="#f5f5f5" d="M0 18.097h32v4.193h-32v-4.193z"/><path fill="#ff4b55" d="M0.207 26.352l15.963-10.11c0.178-0.113 0.178-0.372 0-0.484l-15.963-10.11c-0.123 0.101-0.207 0.249-0.207 0.421v19.862c0 0.172 0.084 0.32 0.207 0.421z"/><path fill="#f5f5f5" d="M5.533 13.34l0.567 1.698 1.79 0.014c0.139 0.001 0.196 0.178 0.085 0.261l-1.44 1.064 0.54 1.707c0.042 0.132-0.109 0.242-0.222 0.161l-1.457-1.041-1.457 1.041c-0.113 0.081-0.263-0.029-0.222-0.161l0.54-1.707-1.44-1.064c-0.112-0.082-0.054-0.259 0.085-0.261l1.79-0.014 0.567-1.698c0.044-0.132 0.23-0.132 0.274-0z"/></svg>