<!-- Generated by IcoMoon.io -->
<svg version="1.1" xmlns="http://www.w3.org/2000/svg" width="32" height="32" viewBox="0 0 32 32">
<title>curacao</title>
<path fill="#41479b" d="M31.448 26.483h-30.896c-0.305 0-0.552-0.247-0.552-0.552v-19.862c0-0.305 0.247-0.552 0.552-0.552h30.896c0.305 0 0.552 0.247 0.552 0.552v19.862c-0 0.305-0.247 0.552-0.552 0.552z"></path>
<path fill="#ffe15a" d="M0 19.862h32v2.759h-32v-2.759z"></path>
<path fill="#f5f5f5" d="M7.434 10.679l-0.543 1.627-1.715 0.013c-0.165 0.001-0.233 0.211-0.1 0.309l1.38 1.019-0.517 1.635c-0.050 0.157 0.129 0.287 0.263 0.191l1.395-0.997 1.395 0.997c0.134 0.096 0.312-0.034 0.263-0.191l-0.517-1.635 1.38-1.019c0.132-0.098 0.064-0.308-0.1-0.309l-1.715-0.013-0.543-1.627c-0.052-0.156-0.273-0.156-0.325 0z"></path>
<path fill="#f5f5f5" d="M3.525 7.677l-0.314 0.942-0.993 0.008c-0.095 0.001-0.135 0.122-0.058 0.179l0.799 0.59-0.299 0.947c-0.029 0.091 0.075 0.166 0.152 0.111l0.808-0.577 0.808 0.577c0.077 0.055 0.181-0.020 0.152-0.111l-0.299-0.947 0.799-0.59c0.077-0.057 0.037-0.178-0.058-0.179l-0.993-0.008-0.314-0.942c-0.030-0.090-0.158-0.090-0.188 0z"></path>
</svg>
