<!-- Generated by IcoMoon.io -->
<svg version="1.1" xmlns="http://www.w3.org/2000/svg" width="32" height="32" viewBox="0 0 32 32">
<title>djibouti</title>
<path fill="#f5f5f5" d="M0.203 26.349l15.796-10.349-15.796-10.349c-0.122 0.101-0.203 0.248-0.203 0.418v19.862c0 0.171 0.082 0.317 0.203 0.418z"></path>
<path fill="#73af00" d="M0.203 26.349c0.096 0.080 0.214 0.133 0.348 0.133h30.897c0.305 0 0.552-0.247 0.552-0.552v-9.931h-16l-15.796 10.349z"></path>
<path fill="#82afff" d="M0.203 5.651c0.096-0.080 0.214-0.133 0.348-0.133h30.897c0.305 0 0.552 0.247 0.552 0.552v9.931h-16l-15.796-10.349z"></path>
<path fill="#ff4b55" d="M5.735 13.508l-0.559 1.675-1.766 0.014c-0.097 0.001-0.137 0.124-0.059 0.182l1.421 1.049-0.533 1.684c-0.029 0.092 0.076 0.169 0.155 0.112l1.437-1.027 1.437 1.027c0.079 0.056 0.184-0.020 0.155-0.112l-0.533-1.684 1.421-1.049c0.078-0.057 0.038-0.181-0.059-0.182l-1.766-0.014-0.559-1.675c-0.030-0.092-0.16-0.092-0.191 0z"></path>
</svg>
