<!-- Generated by IcoMoon.io -->
<svg version="1.1" xmlns="http://www.w3.org/2000/svg" width="32" height="32" viewBox="0 0 32 32">
<title>dominica</title>
<path fill="#73af00" d="M31.448 26.483h-30.896c-0.305 0-0.552-0.247-0.552-0.552v-19.862c0-0.305 0.247-0.552 0.552-0.552h30.896c0.305 0 0.552 0.247 0.552 0.552v19.862c-0 0.305-0.247 0.552-0.552 0.552z"></path>
<path fill="#ffe15a" d="M0 13.793h32v1.471h-32v-1.471z"></path>
<path fill="#464655" d="M0 15.264h32v1.471h-32v-1.471z"></path>
<path fill="#f5f5f5" d="M0 16.735h32v1.471h-32v-1.471z"></path>
<path fill="#ffe15a" d="M13.793 5.517h1.471v20.966h-1.471v-20.966z"></path>
<path fill="#464655" d="M15.264 5.517h1.471v20.966h-1.471v-20.966z"></path>
<path fill="#f5f5f5" d="M16.736 5.517h1.471v20.966h-1.471v-20.966z"></path>
<path fill="#ff4b55" d="M21.517 16c0 3.047-2.47 5.518-5.518 5.518s-5.518-2.47-5.518-5.518c0-3.047 2.47-5.518 5.518-5.518s5.518 2.47 5.518 5.518z"></path>
<path fill="#73af00" d="M15.526 16.949c0 0-0.064 0.451 0.374 1.121h0.85l-0.193-0.812-1.031-0.309z"></path>
<path fill="#a561cd" d="M15.466 13.929c0 0-1.392 2.277 0.653 3.634l0.215-1.289 0.137-1.667-0.215-0.713-0.79 0.034z"></path>
<path fill="#73af00" d="M15.466 13.929c0 0-0.159 0.265-0.291 0.663 0.179 0.187 0.669 0.419 1.271 0.318l0.025-0.302-0.215-0.713-0.79 0.034z"></path>
<path fill="#a561cd" d="M15.2 13.603c0 0 0.017-0.455 0.464-0.455 0.558 0 1.014 0.129 1.735 1.624 0 0-0.642 0.63-1.048-0.241-0.12-0.258-0.163-0.567-0.163-0.567s-0.498 0.172-0.842-0.026l-0.146-0.335z"></path>
<path fill="#ffe15a" d="M15.423 13.818l-0.103-0.275c0 0-0.576-0.095-0.335 0.601 0 0 0.017-0.137 0.163-0.12s0.301-0.095 0.275-0.206z"></path>
<path fill="#73af00" d="M16.385 16.429c0 0-0.606 0.475-0.266 1.589 0.18 0.593 0.902 1.244 0.902 1.244s0.535-1.398 0.361-1.939c-0.102-0.319-0.997-0.893-0.997-0.893z"></path>
<path fill="#73af00" d="M17.536 18.225c0 0-1.563-1.491-1.667-2.663s0.573-0.986 0.696-0.911c0.292 0.18 1.031 0.936 0.971 3.574z"></path>
<path fill="#b34900" d="M17.342 18.566h-2.589c-0.054 0-0.097-0.044-0.097-0.097v-0.192c0-0.054 0.044-0.097 0.097-0.097h2.589c0.054 0 0.097 0.044 0.097 0.097v0.192c-0 0.054-0.044 0.097-0.097 0.097z"></path>
<path fill="#ffe15a" d="M16.712 18.199c-0.090 0.037-0.271 0.084-0.226 0.245 0.035 0.123 0.271 0.11 0.226 0.251-0.030 0.096-0.51 0.105-0.696 0.077-0.114-0.017-0.361-0.084-0.326-0.367s0.137-0.327 0.266-0.378c0.128-0.050 0.687-0.039 0.769 0.030 0.042 0.035 0.055 0.113-0.013 0.142z"></path>
<path fill="#73af00" d="M16.051 11.071l0.126 0.377 0.397 0.003c0.051 0 0.073 0.066 0.031 0.097l-0.319 0.236 0.12 0.378c0.015 0.049-0.040 0.089-0.082 0.060l-0.323-0.231-0.323 0.231c-0.042 0.030-0.098-0.011-0.082-0.060l0.12-0.378-0.319-0.236c-0.041-0.031-0.020-0.096 0.031-0.097l0.397-0.003 0.126-0.377c0.016-0.049 0.085-0.049 0.101 0z"></path>
<path fill="#73af00" d="M16.051 19.874l0.126 0.377 0.397 0.003c0.051 0 0.073 0.066 0.031 0.096l-0.319 0.236 0.12 0.378c0.015 0.049-0.040 0.090-0.082 0.060l-0.323-0.231-0.323 0.231c-0.042 0.030-0.098-0.011-0.082-0.060l0.12-0.378-0.319-0.236c-0.041-0.031-0.020-0.096 0.031-0.096l0.397-0.003 0.126-0.377c0.016-0.049 0.085-0.049 0.101 0z"></path>
<path fill="#73af00" d="M12.983 11.974l0.11 0.381-0.325 0.227c-0.042 0.029-0.023 0.096 0.029 0.097l0.397 0.013 0.116 0.38c0.015 0.049 0.084 0.051 0.101 0.003l0.135-0.373 0.397 0.007c0.051 0.001 0.074-0.064 0.034-0.096l-0.313-0.244 0.129-0.375c0.017-0.049-0.038-0.091-0.081-0.062l-0.329 0.223-0.317-0.239c-0.041-0.031-0.098 0.008-0.084 0.057z"></path>
<path fill="#73af00" d="M17.974 19.226l0.11 0.381-0.325 0.227c-0.042 0.029-0.023 0.096 0.029 0.097l0.397 0.013 0.116 0.38c0.015 0.049 0.084 0.051 0.101 0.003l0.135-0.373 0.397 0.007c0.051 0.001 0.074-0.064 0.034-0.096l-0.313-0.244 0.129-0.375c0.017-0.049-0.038-0.091-0.081-0.062l-0.329 0.223-0.317-0.239c-0.041-0.031-0.098 0.008-0.084 0.057z"></path>
<path fill="#73af00" d="M11.118 14.502l0.317 0.239-0.123 0.377c-0.016 0.049 0.039 0.090 0.082 0.060l0.325-0.228 0.321 0.234c0.041 0.030 0.098-0.010 0.083-0.059l-0.116-0.38 0.322-0.233c0.042-0.030 0.021-0.096-0.030-0.097l-0.397-0.007-0.122-0.378c-0.016-0.049-0.085-0.050-0.101-0.001l-0.129 0.375-0.397-0.001c-0.051-0-0.073 0.065-0.032 0.096z"></path>
<path fill="#73af00" d="M19.463 17.305l0.317 0.239-0.123 0.377c-0.016 0.049 0.039 0.090 0.081 0.061l0.325-0.228 0.321 0.234c0.041 0.030 0.098-0.010 0.083-0.059l-0.116-0.38 0.322-0.233c0.042-0.030 0.021-0.096-0.030-0.097l-0.397-0.007-0.122-0.378c-0.016-0.049-0.085-0.050-0.101-0.001l-0.129 0.375-0.397-0.001c-0.051-0-0.073 0.065-0.032 0.096z"></path>
<path fill="#73af00" d="M18.807 11.974l-0.11 0.381 0.325 0.227c0.042 0.029 0.023 0.096-0.029 0.097l-0.397 0.013-0.116 0.38c-0.015 0.049-0.084 0.051-0.101 0.003l-0.135-0.373-0.397 0.007c-0.051 0.001-0.074-0.064-0.034-0.096l0.313-0.244-0.129-0.375c-0.017-0.049 0.038-0.091 0.081-0.062l0.329 0.223 0.317-0.239c0.041-0.031 0.098 0.008 0.084 0.057z"></path>
<path fill="#73af00" d="M13.816 19.226l-0.11 0.381 0.325 0.227c0.042 0.029 0.023 0.096-0.029 0.097l-0.397 0.013-0.116 0.38c-0.015 0.049-0.084 0.051-0.101 0.003l-0.135-0.373-0.397 0.007c-0.051 0.001-0.074-0.064-0.034-0.096l0.313-0.244-0.129-0.375c-0.017-0.049 0.038-0.091 0.081-0.062l0.329 0.223 0.317-0.239c0.041-0.031 0.098 0.008 0.084 0.057z"></path>
<path fill="#73af00" d="M20.673 14.502l-0.317 0.239 0.123 0.377c0.016 0.049-0.039 0.090-0.081 0.060l-0.325-0.228-0.321 0.234c-0.041 0.030-0.098-0.010-0.083-0.059l0.116-0.38-0.322-0.233c-0.042-0.030-0.021-0.096 0.030-0.097l0.397-0.007 0.122-0.378c0.016-0.049 0.085-0.050 0.101-0.001l0.129 0.375 0.397-0.001c0.051-0 0.073 0.065 0.032 0.096z"></path>
<path fill="#73af00" d="M12.328 17.305l-0.317 0.239 0.123 0.377c0.016 0.049-0.039 0.090-0.082 0.061l-0.325-0.228-0.321 0.234c-0.041 0.030-0.098-0.010-0.083-0.059l0.116-0.38-0.322-0.233c-0.042-0.030-0.021-0.096 0.030-0.097l0.397-0.007 0.122-0.378c0.016-0.049 0.085-0.050 0.101-0.001l0.129 0.375 0.397-0.001c0.052-0 0.073 0.065 0.032 0.096z"></path>
</svg>
