<svg xmlns="http://www.w3.org/2000/svg" width="32" height="32" version="1.1" viewBox="0 0 32 32"><title>east-timor</title><path fill="#ff4b55" d="M31.448 5.517h-30.896c-0.305 0-0.552 0.247-0.552 0.552v19.862c0 0.305 0.247 0.552 0.552 0.552h30.896c0.305 0 0.552-0.247 0.552-0.552v-19.862c-0-0.305-0.247-0.552-0.552-0.552z"/><path fill="#ffe15a" d="M0.218 26.359l17.742-10.017c0.267-0.151 0.267-0.535 0-0.685l-17.742-10.017c-0.13 0.101-0.218 0.251-0.218 0.428v19.862c0 0.177 0.089 0.328 0.218 0.428z"/><path fill="#464655" d="M0.171 26.328l12.058-9.948c0.239-0.197 0.239-0.562 0-0.759l-12.058-9.948c-0.105 0.101-0.171 0.24-0.171 0.397v19.862c0 0.157 0.067 0.296 0.171 0.397z"/><path fill="#f5f5f5" d="M3.446 13.409l0.053 1.986-1.862 0.693c-0.179 0.066-0.17 0.322 0.013 0.376l1.905 0.564 0.083 1.985c0.008 0.19 0.254 0.261 0.361 0.104l1.125-1.637 1.913 0.534c0.183 0.051 0.327-0.161 0.211-0.312l-1.21-1.576 1.099-1.655c0.105-0.159-0.052-0.36-0.231-0.297l-1.872 0.664-1.234-1.557c-0.118-0.149-0.359-0.062-0.354 0.128z"/></svg>