<svg xmlns="http://www.w3.org/2000/svg" width="32" height="32" version="1.1" viewBox="0 0 32 32"><title>ecuador</title><path fill="#ff4b55" d="M32 21.241h-32v4.69c0 0.305 0.247 0.552 0.552 0.552h30.896c0.305 0 0.552-0.247 0.552-0.552l-0-4.69z"/><path fill="#ffe15a" d="M32 16h-32v-9.931c0-0.305 0.247-0.552 0.552-0.552h30.896c0.305 0 0.552 0.247 0.552 0.552l-0 9.931z"/><path fill="#41479b" d="M0 16h32v5.241h-32v-5.241z"/><path fill="#ffe15a" d="M15.424 16.31l4.030-3.454v4.999c0 0.843-0.683 1.526-1.526 1.526v0c-0.377 0-0.74-0.14-1.021-0.392l-1.484-1.335v-1.343z"/><path fill="#ff4b55" d="M17.55 18.275l-1.166-1.050v-1.738l2.111-1.809v4.177c0 0.312-0.254 0.566-0.566 0.566-0.14 0-0.275-0.052-0.379-0.145z"/><path fill="#41479b" d="M16.959 14.994v1.976l0.959 0.866v-3.665l0.576-0.493v4.177c0 0.312-0.254 0.566-0.566 0.566-0.14 0-0.275-0.052-0.379-0.145l-1.166-1.050v-1.738l0.576-0.493z"/><path fill="#ffe15a" d="M16.576 16.31l-4.030-3.454v4.999c0 0.843 0.683 1.526 1.526 1.526v0c0.377 0 0.74-0.14 1.021-0.392l1.484-1.335v-1.343z"/><path fill="#ff4b55" d="M14.45 18.275l1.166-1.050v-1.738l-2.111-1.809v4.177c0 0.312 0.254 0.566 0.566 0.566 0.14 0 0.275-0.052 0.379-0.145z"/><path fill="#41479b" d="M15.040 14.994v1.976l-0.96 0.866v-3.665l-0.576-0.493v4.177c0 0.312 0.254 0.566 0.566 0.566 0.14 0 0.275-0.052 0.379-0.145l1.166-1.050v-1.738l-0.576-0.493z"/><path fill="#41479b" d="M19.315 12.873h0.276v1.653h-0.276v-1.653z"/><path fill="#41479b" d="M12.407 12.873h0.276v1.653h-0.276v-1.653z"/><path fill="#5a4646" d="M15.424 12.088c0 0 0.384-1.823-0.96-1.583s-1.343 0.624-2.879 1.391c0 0 1.727 0.384 2.495 0.192 0 0 0.576 0.768 1.151 0.96h0.576l-0.384-0.96z"/><path fill="#5a4646" d="M16.576 12.088c0 0-0.384-1.823 0.959-1.583s1.343 0.624 2.879 1.391c0 0-1.727 0.384-2.495 0.192 0 0-0.576 0.768-1.151 0.96h-0.576l0.384-0.96z"/><path fill="#5a4646" d="M16.576 13.047h-1.151v-0.967c0-0.314 0.255-0.569 0.569-0.569h0.014c0.314 0 0.569 0.255 0.569 0.569v0.967z"/><path fill="#e6e1cd" d="M16.384 12.088c0 0.212-0.172 0.384-0.384 0.384s-0.384-0.172-0.384-0.384c0-0.212 0.172-0.384 0.384-0.384s0.384 0.172 0.384 0.384z"/><path fill="#ffd0af" d="M15.176 11.84l0.722 0.385c0.061 0.032 0.135 0.021 0.184-0.027v0c0.061-0.061 0.061-0.159 0-0.22l-0.466-0.466h-0.112c-0.181 0-0.328 0.147-0.328 0.328v0z"/><path fill="#ffaf94" d="M15.427 11.896h-0.578l0.253-0.296c0.047-0.056 0.117-0.088 0.19-0.088h0.325v0.194c0 0.105-0.085 0.19-0.19 0.19z"/><path fill="#8cb400" d="M17.637 13.048c-0.13-0.154-0.157-0.357-0.094-0.534 0.185-0.032 0.381 0.029 0.51 0.183 0.111 0.131 0.143 0.298 0.111 0.454 0.038 0.065 0.085 0.149 0.137 0.248 0.003-0.014 0.002-0.028 0.006-0.042 0.045-0.159 0.171-0.272 0.321-0.31 0.107 0.111 0.155 0.273 0.11 0.432-0.039 0.137-0.139 0.236-0.261 0.286 0.048 0.111 0.096 0.23 0.14 0.356 0.003-0.007 0.003-0.015 0.006-0.022 0.063-0.153 0.2-0.251 0.353-0.273 0.094 0.122 0.124 0.289 0.062 0.442-0.055 0.134-0.168 0.222-0.298 0.258 0.067 0.263 0.111 0.543 0.111 0.824h-0.192c0-0.245-0.038-0.491-0.094-0.726-0.118 0.038-0.251 0.030-0.365-0.040-0.14-0.086-0.213-0.236-0.21-0.389 0.135-0.072 0.302-0.075 0.442 0.011 0.005 0.003 0.008 0.008 0.013 0.011-0.041-0.118-0.085-0.23-0.13-0.335-0.115 0.054-0.251 0.063-0.375 0.004-0.148-0.070-0.238-0.211-0.252-0.363 0.125-0.087 0.291-0.108 0.439-0.039-0.053-0.102-0.101-0.187-0.138-0.25-0.132-0.015-0.259-0.076-0.352-0.186z"/><path fill="#8cb400" d="M14.363 13.048c0.13-0.154 0.157-0.357 0.094-0.534-0.185-0.032-0.381 0.029-0.51 0.183-0.111 0.131-0.143 0.298-0.111 0.454-0.038 0.065-0.085 0.149-0.137 0.248-0.003-0.014-0.002-0.028-0.006-0.042-0.045-0.159-0.171-0.272-0.321-0.31-0.107 0.111-0.155 0.273-0.11 0.432 0.039 0.137 0.139 0.236 0.261 0.286-0.048 0.111-0.096 0.23-0.14 0.356-0.003-0.007-0.003-0.015-0.006-0.022-0.063-0.153-0.2-0.251-0.353-0.273-0.094 0.122-0.124 0.289-0.062 0.442 0.055 0.134 0.168 0.222 0.298 0.258-0.067 0.263-0.111 0.543-0.111 0.824h0.192c0-0.245 0.038-0.491 0.094-0.726 0.118 0.038 0.251 0.030 0.365-0.040 0.14-0.086 0.213-0.236 0.21-0.389-0.135-0.072-0.302-0.075-0.442 0.011-0.005 0.003-0.008 0.008-0.013 0.011 0.041-0.118 0.085-0.23 0.13-0.335 0.115 0.054 0.251 0.063 0.375 0.004 0.148-0.070 0.238-0.211 0.252-0.363-0.125-0.087-0.291-0.108-0.439-0.039 0.053-0.102 0.101-0.187 0.138-0.25 0.132-0.015 0.259-0.076 0.352-0.186z"/><path fill="#ffe15a" d="M16 17.269l-4.030-3.454v4.999c0 0.843 0.683 1.526 1.526 1.526v0c0.377 0 0.74-0.14 1.021-0.392l1.484-1.335v-1.343z"/><path fill="#ff4b55" d="M13.874 19.235l1.166-1.050v-1.738l-2.111-1.809v4.177c0 0.312 0.254 0.566 0.566 0.566 0.14 0 0.275-0.052 0.379-0.145z"/><path fill="#41479b" d="M14.465 15.953v1.976l-0.96 0.866v-3.665l-0.576-0.493v4.177c0 0.312 0.254 0.566 0.566 0.566 0.14 0 0.275-0.052 0.379-0.145l1.166-1.050v-1.738l-0.576-0.493z"/><path fill="#ffe15a" d="M16 17.269l4.030-3.454v4.999c0 0.843-0.683 1.526-1.526 1.526v0c-0.377 0-0.74-0.14-1.021-0.392l-1.484-1.335v-1.343z"/><path fill="#ff4b55" d="M18.126 19.235l-1.166-1.050v-1.738l2.111-1.809v4.177c0 0.312-0.254 0.566-0.566 0.566-0.14 0-0.275-0.052-0.379-0.145z"/><path fill="#41479b" d="M17.535 15.953v1.976l0.959 0.866v-3.665l0.576-0.493v4.177c0 0.312-0.254 0.566-0.566 0.566-0.14 0-0.275-0.052-0.379-0.145l-1.166-1.050v-1.738l0.576-0.493z"/><path fill="#69c3ff" d="M17.919 15.926c0 1.59-0.859 2.879-1.919 2.879s-1.919-1.289-1.919-2.879c0-1.59 0.859-2.879 1.919-2.879s1.919 1.289 1.919 2.879z"/><path fill="#009b64" d="M14.273 16.693h3.454l0.192-0.768-0.875 0.146c-0.175 0.029-0.355-0.021-0.49-0.136l-0.993-0.851c-0.089-0.076-0.202-0.118-0.319-0.118v0c-0.13 0-0.254 0.052-0.346 0.143l-0.624 0.624v0.959z"/><path fill="#f5f5f5" d="M15.818 15.797l0.33-0.211-0.586-0.502c-0.089-0.076-0.202-0.118-0.319-0.118v0c-0.13 0-0.254 0.052-0.346 0.143l-0.624 0.624v0.192l0.96-0.192 0.17 0.085c0.133 0.066 0.291 0.058 0.416-0.022z"/><path fill="#5aa0e6" d="M14.273 16.693l0.192 1.151 0.96 0.96h0.576l0.768-0.192 0.768-0.768 0.192-1.151z"/><path fill="#ffc88c" d="M16 18.996c-1.164 0-2.111-1.377-2.111-3.070s0.947-3.070 2.111-3.070 2.111 1.377 2.111 3.070-0.947 3.070-2.111 3.070zM16 13.239c-0.952 0-1.727 1.205-1.727 2.687s0.775 2.687 1.727 2.687 1.727-1.205 1.727-2.687-0.775-2.687-1.727-2.687z"/><path fill="#e1e1e1" d="M14.646 18.787c-0.161-0.222-0.4-0.367-0.672-0.367s-0.511 0.144-0.672 0.367c0.274 0.076 0.499 0.299 0.605 0.592 0.043 0.118 0.066 0.248 0.066 0.384-0-0.475 0.287-0.87 0.672-0.977z"/><path fill="#e1e1e1" d="M14.127 19.393c0 0-0.015 0.256-0.146 0.376l-0.005-0.005c-0.131-0.12-0.146-0.376-0.146-0.376l0.298 0.005z"/><path fill="#966446" d="M18.4 19.476h-4.8c-0.052 0-0.095-0.042-0.095-0.095v-0.002c0-0.052 0.042-0.095 0.095-0.095h4.8c0.052 0 0.095 0.042 0.095 0.095v0.002c0 0.052-0.042 0.095-0.095 0.095z"/><path fill="#be915a" d="M16.964 19.764h-1.928c-0.209 0-0.379-0.17-0.379-0.379v-0.009c0-0.209 0.17-0.379 0.379-0.379h1.928c0.209 0 0.379 0.17 0.379 0.379v0.009c-0 0.209-0.17 0.379-0.379 0.379z"/><path fill="#b9b9b9" d="M14.273 19.284h-0.672c-0.053 0-0.096 0.043-0.096 0.096s0.043 0.096 0.096 0.096h0.672v-0.192z"/><path fill="#ff4b55" d="M16 19.764v1.753l-0.768-0.218 0.384-1.535z"/><path fill="#41479b" d="M15.808 19.764l-0.384 1.343-0.768-0.192 0.576-1.151z"/><path fill="#ffe15a" d="M15.040 19.764l-0.576 0.768 0.576 0.192 0.384-0.959z"/><path fill="#ff4b55" d="M16 19.764v1.753l0.768-0.218-0.384-1.535z"/><path fill="#41479b" d="M16.192 19.764l0.384 1.343 0.768-0.192-0.576-1.151z"/><path fill="#ffe15a" d="M16.959 19.764l0.576 0.768-0.576 0.192-0.384-0.959z"/><path fill="#41479b" d="M12.108 15.468l-0.276-0.278v-1.375h0.276z"/><path fill="#41479b" d="M20.165 15.19l-0.276 0.278v-1.653h0.276z"/></svg>