<!-- Generated by IcoMoon.io -->
<svg version="1.1" xmlns="http://www.w3.org/2000/svg" width="32" height="32" viewBox="0 0 32 32">
<title>equatorial-guinea</title>
<path fill="#73af00" d="M32 12.506h-32v-6.437c0-0.305 0.247-0.552 0.552-0.552h30.896c0.305 0 0.552 0.247 0.552 0.552l-0 6.437z"></path>
<path fill="#ff4b55" d="M31.448 26.483h-30.896c-0.305 0-0.552-0.247-0.552-0.552v-6.437h32v6.437c0 0.305-0.247 0.552-0.552 0.552z"></path>
<path fill="#f5f5f5" d="M0 12.506h32v6.988h-32v-6.988z"></path>
<path fill="#4173cd" d="M8.006 16.342c0.158-0.2 0.158-0.483 0-0.684l-7.86-9.956c-0.088 0.098-0.146 0.225-0.146 0.367v19.862c0 0.142 0.058 0.269 0.146 0.367l7.86-9.956z"></path>
<path fill="#b46446" d="M15.868 16.494c0 0.014-0.004 1.311-0.336 1.949h0.932c-0.332-0.638-0.336-1.935-0.336-1.949 0-0.447 0.463-0.802 0.468-0.806l-0.156-0.208c-0.012 0.009-0.166 0.127-0.312 0.32v-0.346h-0.26v0.346c-0.145-0.192-0.3-0.311-0.312-0.32l-0.156 0.208c0.005 0.004 0.468 0.359 0.468 0.806z"></path>
<path fill="#73af00" d="M17.297 14.935c-0.008 0-0.015 0.002-0.023 0.003-0.053-0.152-0.196-0.262-0.367-0.262-0.061 0-0.119 0.015-0.17 0.041-0.055-0.101-0.161-0.171-0.284-0.171-0.035 0-0.069 0.007-0.101 0.018-0.069-0.163-0.231-0.277-0.419-0.277-0.231 0-0.42 0.173-0.449 0.397-0.023-0.004-0.047-0.007-0.071-0.007-0.251 0-0.455 0.204-0.455 0.455 0 0.030 0.003 0.058 0.009 0.086-0.115 0.038-0.206 0.127-0.245 0.241-0.008-0.001-0.015-0.002-0.023-0.002-0.143 0-0.26 0.116-0.26 0.26s0.116 0.26 0.26 0.26c0.066 0 0.126-0.026 0.172-0.066 0.062 0.042 0.137 0.066 0.218 0.066 0.071 0 0.137-0.021 0.195-0.054 0.057 0.033 0.123 0.054 0.195 0.054 0.215 0 0.39-0.175 0.39-0.39 0-0.017-0.003-0.032-0.005-0.048 0.060 0.030 0.128 0.048 0.2 0.048 0.090 0 0.174-0.027 0.245-0.073 0.066 0.12 0.193 0.202 0.34 0.202 0.032 0 0.062-0.005 0.091-0.012 0.072 0.086 0.178 0.142 0.298 0.142 0.116 0 0.22-0.052 0.291-0.133 0.2-0.016 0.358-0.182 0.358-0.387-0-0.215-0.175-0.39-0.39-0.39z"></path>
<path fill="#5fa000" d="M16.907 15.259c0-0.014 0.003-0.026 0.004-0.039-0.070 0.064-0.162 0.104-0.264 0.104-0.136 0-0.255-0.069-0.325-0.175-0.070 0.105-0.189 0.175-0.325 0.175-0.104 0-0.199-0.042-0.269-0.108-0.040 0.21-0.225 0.368-0.446 0.368-0.023 0-0.044-0.003-0.066-0.007 0 0.002 0.001 0.004 0.001 0.007 0 0.17-0.109 0.313-0.261 0.366 0.041 0.015 0.085 0.024 0.131 0.024 0.071 0 0.137-0.021 0.195-0.054 0.057 0.033 0.123 0.054 0.195 0.054 0.215 0 0.39-0.175 0.39-0.39 0-0.017-0.003-0.032-0.005-0.048 0.060 0.030 0.128 0.048 0.2 0.048 0.090 0 0.174-0.027 0.245-0.073 0.066 0.12 0.193 0.202 0.34 0.202 0.032 0 0.062-0.005 0.091-0.012 0.072 0.086 0.178 0.142 0.298 0.142 0.116 0 0.22-0.052 0.291-0.133l0.001-0c-0.236-0.017-0.422-0.211-0.422-0.451z"></path>
<path fill="#464655" d="M15.997 19.27c-0.021 0-0.039-0.013-0.046-0.033-0.005-0.015-0.127-0.357-0.603-0.357h-0.649c-0.385 0-0.698-0.313-0.698-0.698v-4.287c0-0.027 0.022-0.049 0.049-0.049h4.027c0.027 0 0.049 0.022 0.049 0.049v4.287c0 0.385-0.313 0.698-0.698 0.698h-0.779c-0.479 0-0.602 0.353-0.603 0.356-0.007 0.020-0.025 0.033-0.046 0.033l-0-0zM14.098 13.944v4.238c0 0.331 0.27 0.601 0.601 0.601h0.649c0.386 0 0.572 0.207 0.649 0.331 0.077-0.125 0.264-0.331 0.65-0.331h0.779c0.331 0 0.601-0.27 0.601-0.601v-4.238h-3.93z"></path>
<path fill="#ffe15a" d="M15.499 12.737l0.123 0.198 0.233 0.008-0.109 0.206 0.109 0.206-0.233 0.008-0.123 0.198-0.123-0.198-0.233-0.008 0.109-0.206-0.109-0.206 0.233-0.008z"></path>
<path fill="#ffe15a" d="M14.402 12.916l0.166 0.163 0.228-0.046-0.058 0.226 0.154 0.175-0.225 0.062-0.074 0.221-0.166-0.163-0.228 0.047 0.058-0.226-0.154-0.174 0.225-0.062z"></path>
<path fill="#ffe15a" d="M13.349 13.228l0.197 0.124 0.213-0.095-0.008 0.233 0.188 0.137-0.206 0.109-0.024 0.232-0.197-0.124-0.213 0.095 0.008-0.233-0.188-0.137 0.206-0.109z"></path>
<path fill="#ffe15a" d="M16.501 12.737l-0.123 0.198-0.233 0.008 0.109 0.206-0.109 0.206 0.233 0.008 0.123 0.198 0.123-0.198 0.233-0.008-0.109-0.206 0.109-0.206-0.233-0.008z"></path>
<path fill="#ffe15a" d="M17.598 12.916l-0.166 0.163-0.228-0.046 0.058 0.226-0.154 0.175 0.224 0.062 0.074 0.221 0.166-0.163 0.228 0.047-0.058-0.226 0.154-0.174-0.224-0.062z"></path>
<path fill="#ffe15a" d="M18.651 13.228l-0.198 0.124-0.213-0.095 0.008 0.233-0.188 0.137 0.206 0.109 0.024 0.232 0.198-0.124 0.213 0.095-0.008-0.233 0.188-0.137-0.206-0.109z"></path>
</svg>
