<svg xmlns="http://www.w3.org/2000/svg" width="32" height="32" version="1.1" viewBox="0 0 32 32"><title>georgia</title><path fill="#f5f5f5" d="M31.448 26.483h-30.896c-0.305 0-0.552-0.247-0.552-0.552v-19.862c0-0.305 0.247-0.552 0.552-0.552h30.896c0.305 0 0.552 0.247 0.552 0.552v19.862c-0 0.305-0.247 0.552-0.552 0.552z"/><path fill="#ff4b55" d="M32 14.345h-14.345v-8.828h-3.31v8.828h-14.345v3.31h14.345v8.828h3.31v-8.828h14.345z"/><path fill="#ff4b55" d="M9.379 9.177c-0.546 0.055-1.082 0.11-1.618 0.165 0.055-0.536 0.11-1.072 0.165-1.618-0.501 0.065-1.007 0.065-1.508 0 0.055 0.546 0.11 1.082 0.165 1.618-0.536-0.055-1.072-0.11-1.618-0.165 0.065 0.501 0.065 1.007 0 1.508 0.546-0.055 1.082-0.11 1.618-0.165-0.055 0.536-0.11 1.072-0.165 1.618 0.501-0.065 1.007-0.065 1.508 0-0.055-0.546-0.11-1.082-0.165-1.618 0.536 0.055 1.072 0.11 1.618 0.165-0.065-0.501-0.065-1.007 0-1.508z"/><path fill="#ff4b55" d="M27.034 9.177c-0.546 0.055-1.082 0.11-1.618 0.165 0.055-0.536 0.11-1.072 0.165-1.618-0.501 0.065-1.007 0.065-1.508 0 0.055 0.546 0.11 1.082 0.165 1.618-0.536-0.055-1.072-0.11-1.618-0.165 0.065 0.501 0.065 1.007 0 1.508 0.546-0.055 1.082-0.11 1.618-0.165-0.055 0.536-0.11 1.072-0.165 1.618 0.501-0.065 1.007-0.065 1.508 0-0.055-0.546-0.11-1.082-0.165-1.618 0.536 0.055 1.072 0.11 1.618 0.165-0.065-0.501-0.065-1.007 0-1.508z"/><path fill="#ff4b55" d="M9.379 21.315c-0.546 0.055-1.082 0.11-1.618 0.165 0.055-0.536 0.11-1.072 0.165-1.618-0.501 0.065-1.007 0.065-1.508 0 0.055 0.546 0.11 1.082 0.165 1.618-0.536-0.055-1.072-0.11-1.618-0.165 0.065 0.501 0.065 1.007 0 1.508 0.546-0.055 1.082-0.11 1.618-0.165-0.055 0.536-0.11 1.072-0.165 1.618 0.501-0.065 1.007-0.065 1.508 0-0.055-0.546-0.11-1.082-0.165-1.618 0.536 0.055 1.072 0.11 1.618 0.165-0.065-0.501-0.065-1.007 0-1.508z"/><path fill="#ff4b55" d="M27.034 21.315c-0.546 0.055-1.082 0.11-1.618 0.165 0.055-0.536 0.11-1.072 0.165-1.618-0.501 0.065-1.007 0.065-1.508 0 0.055 0.546 0.11 1.082 0.165 1.618-0.536-0.055-1.072-0.11-1.618-0.165 0.065 0.501 0.065 1.007 0 1.508 0.546-0.055 1.082-0.11 1.618-0.165-0.055 0.536-0.11 1.072-0.165 1.618 0.501-0.065 1.007-0.065 1.508 0-0.055-0.546-0.11-1.082-0.165-1.618 0.536 0.055 1.072 0.11 1.618 0.165-0.065-0.501-0.065-1.007 0-1.508z"/></svg>