<svg xmlns="http://www.w3.org/2000/svg" width="32" height="32" version="1.1" viewBox="0 0 32 32"><title>gibraltar</title><path fill="#f5f5f5" d="M31.448 26.483h-30.896c-0.305 0-0.552-0.247-0.552-0.552v-19.862c0-0.305 0.247-0.552 0.552-0.552h30.896c0.305 0 0.552 0.247 0.552 0.552v19.862c-0 0.305-0.247 0.552-0.552 0.552z"/><path fill="#ff4b55" d="M31.448 26.483h-30.896c-0.305 0-0.552-0.247-0.552-0.552v-6.621h32v6.621c0 0.305-0.247 0.552-0.552 0.552z"/><path fill="#ff4b55" d="M22.069 13.241v-1.103h-1.103v-2.759h0.552v-1.103h-3.31v1.103h0.552v2.759h-1.655v-3.862h0.552v-1.103h-3.31v1.103h0.552v3.862h-1.655v-2.759h0.552v-1.103h-3.31v1.103h0.552v2.759h-1.103v1.103h0.552v4.414h-0.552v1.103h12.138v-1.103h-0.552v-4.414z"/><path fill="#464655" d="M17.103 18.207h-2.207v-2.207c0-0.609 0.494-1.103 1.103-1.103v0c0.609 0 1.103 0.494 1.103 1.103v2.207z"/><path fill="#464655" d="M16 10.483c-0.305 0-0.552 0.247-0.552 0.552v1.655h1.103v-1.655c0-0.305-0.247-0.552-0.552-0.552z"/><path fill="#464655" d="M19.862 11.034c-0.305 0-0.552 0.247-0.552 0.552v1.103h1.103v-1.103c0-0.305-0.247-0.552-0.552-0.552z"/><path fill="#464655" d="M12.138 11.034c-0.305 0-0.552 0.247-0.552 0.552v1.103h1.103v-1.103c0-0.305-0.247-0.552-0.552-0.552z"/><path fill="#464655" d="M20.414 18.207h-2.207v-1.655c0-0.609 0.494-1.103 1.103-1.103v0c0.609 0 1.103 0.494 1.103 1.103v1.655z"/><path fill="#464655" d="M13.793 18.207h-2.207v-1.655c0-0.609 0.494-1.103 1.103-1.103v0c0.609 0 1.103 0.494 1.103 1.103v1.655z"/><path fill="#ffe15a" d="M17.517 20.138c0-0.092-0.046-0.178-0.123-0.23l-1.119-0.746v-0.234l0.951-0.476c0.136-0.068 0.192-0.234 0.123-0.37s-0.234-0.192-0.37-0.123l-0.98 0.49-0.98-0.49c-0.136-0.068-0.302-0.013-0.37 0.123s-0.013 0.302 0.123 0.37l0.951 0.475v0.234l-1.119 0.746c-0.077 0.051-0.123 0.137-0.123 0.229s0.046 0.178 0.123 0.23l1.119 0.746v2.335h-1.103v0.422c0 0.152 0.123 0.276 0.276 0.276 0.106 0 0.197-0.059 0.244-0.147h0.584v0.552h-0.589c-0.048-0.082-0.137-0.138-0.239-0.138-0.152 0-0.276 0.123-0.276 0.276v0.414h1.103v0.276c0 0.152 0.123 0.276 0.276 0.276s0.276-0.123 0.276-0.276v-4.266l1.119-0.746c0.077-0.051 0.123-0.137 0.123-0.23zM16 20.634l-0.744-0.496 0.744-0.496 0.744 0.496-0.744 0.496z"/></svg>