<svg xmlns="http://www.w3.org/2000/svg" width="32" height="32" version="1.1" viewBox="0 0 32 32"><title>greece</title><path fill="#f5f5f5" d="M0 7.847h32v2.329h-32v-2.329z"/><path fill="#f5f5f5" d="M0 12.506h32v2.329h-32v-2.329z"/><path fill="#f5f5f5" d="M0 17.165h32v2.329h-32v-2.329z"/><path fill="#41479b" d="M0 19.494h32v2.329h-32v-2.329z"/><path fill="#f5f5f5" d="M0 21.824h32v2.329h-32v-2.329z"/><path fill="#41479b" d="M0.552 26.483h30.896c0.305 0 0.552-0.247 0.552-0.552v-1.778h-32v1.778c0 0.305 0.247 0.552 0.552 0.552z"/><path fill="#41479b" d="M32 7.847v-1.778c0-0.305-0.247-0.552-0.552-0.552h-30.896c-0.305 0-0.552 0.247-0.552 0.552v11.096h32v-2.329h-20.965v-2.329h20.965v-2.329h-20.965v-2.329c0 0 20.965 0 20.965 0z"/><path fill="#f5f5f5" d="M11.034 10.176h-4.353v-4.659h-2.33v4.659h-4.353v2.329h4.353v4.659h2.329v-4.659h4.352z"/></svg>