<!-- Generated by IcoMoon.io -->
<svg version="1.1" xmlns="http://www.w3.org/2000/svg" width="32" height="32" viewBox="0 0 32 32">
<title>greenland</title>
<path fill="#f5f5f5" d="M32 16h-32v-9.931c0-0.305 0.247-0.552 0.552-0.552h30.896c0.305 0 0.552 0.247 0.552 0.552l-0 9.931z"></path>
<path fill="#ff4b55" d="M0 16h32v9.931c0 0.305-0.247 0.552-0.552 0.552h-30.896c-0.305 0-0.552-0.247-0.552-0.552v-9.931z"></path>
<path fill="#ff4b55" d="M11.034 8.828c-3.961 0-7.172 3.211-7.172 7.172h14.345c0-3.961-3.211-7.172-7.172-7.172z"></path>
<path fill="#f5f5f5" d="M11.034 23.172c3.961 0 7.172-3.211 7.172-7.172h-14.345c0 3.961 3.211 7.172 7.172 7.172z"></path>
</svg>
