<svg xmlns="http://www.w3.org/2000/svg" width="32" height="32" version="1.1" viewBox="0 0 32 32"><title>grenada</title><path fill="#ff4b55" d="M31.448 26.483h-30.896c-0.305 0-0.552-0.247-0.552-0.552v-19.862c0-0.305 0.247-0.552 0.552-0.552h30.896c0.305 0 0.552 0.247 0.552 0.552v19.862c-0 0.305-0.247 0.552-0.552 0.552z"/><path fill="#ffe15a" d="M28.689 8.828v14.345h-25.379v-14.345h25.379z"/><path fill="#73af00" d="M3.31 8.828l12.69 7.172-12.69 7.172z"/><path fill="#73af00" d="M28.689 8.828l-12.69 7.172 12.69 7.172z"/><path fill="#ff4b55" d="M18.207 16c0 1.219-0.988 2.207-2.207 2.207s-2.207-0.988-2.207-2.207c0-1.219 0.988-2.207 2.207-2.207s2.207 0.988 2.207 2.207z"/><path fill="#ffe15a" d="M16.139 14.383l0.345 1.035 1.091 0.008c0.141 0.001 0.2 0.181 0.086 0.265l-0.878 0.648 0.329 1.040c0.043 0.135-0.111 0.246-0.226 0.164l-0.888-0.634-0.887 0.634c-0.115 0.082-0.268-0.029-0.226-0.164l0.329-1.040-0.878-0.648c-0.114-0.084-0.055-0.264 0.086-0.265l1.091-0.008 0.345-1.035c0.044-0.134 0.234-0.134 0.279 0z"/><path fill="#ffe15a" d="M16.082 6.25l0.204 0.611 0.645 0.005c0.083 0.001 0.118 0.107 0.051 0.157l-0.519 0.383 0.194 0.615c0.025 0.080-0.065 0.145-0.133 0.097l-0.524-0.375-0.524 0.375c-0.068 0.049-0.159-0.017-0.133-0.097l0.194-0.615-0.519-0.383c-0.067-0.050-0.033-0.156 0.051-0.157l0.645-0.005 0.204-0.611c0.026-0.079 0.138-0.079 0.165-0z"/><path fill="#ffe15a" d="M23.341 6.25l0.204 0.611 0.645 0.005c0.083 0.001 0.118 0.107 0.051 0.157l-0.519 0.383 0.194 0.615c0.025 0.080-0.065 0.145-0.133 0.097l-0.524-0.375-0.524 0.375c-0.068 0.049-0.159-0.017-0.133-0.097l0.194-0.615-0.519-0.383c-0.067-0.050-0.033-0.156 0.051-0.157l0.645-0.005 0.204-0.611c0.027-0.079 0.139-0.079 0.165 0z"/><path fill="#ffe15a" d="M8.824 6.25l0.204 0.611 0.645 0.005c0.083 0.001 0.118 0.107 0.051 0.157l-0.519 0.383 0.194 0.615c0.025 0.080-0.065 0.145-0.133 0.097l-0.524-0.375-0.524 0.375c-0.068 0.049-0.159-0.017-0.133-0.097l0.194-0.615-0.519-0.383c-0.067-0.050-0.033-0.156 0.051-0.157l0.645-0.005 0.204-0.611c0.027-0.079 0.139-0.079 0.165 0z"/><path fill="#ffe15a" d="M16.082 23.875l0.204 0.611 0.645 0.005c0.083 0.001 0.118 0.107 0.051 0.157l-0.519 0.383 0.194 0.615c0.025 0.080-0.065 0.145-0.133 0.097l-0.524-0.375-0.524 0.375c-0.068 0.049-0.159-0.017-0.133-0.097l0.194-0.615-0.519-0.383c-0.067-0.050-0.033-0.156 0.051-0.157l0.645-0.005 0.204-0.611c0.026-0.079 0.138-0.079 0.165-0z"/><path fill="#ffe15a" d="M23.341 23.875l0.204 0.611 0.645 0.005c0.083 0.001 0.118 0.107 0.051 0.157l-0.519 0.383 0.194 0.615c0.025 0.080-0.065 0.145-0.133 0.097l-0.524-0.375-0.524 0.375c-0.068 0.049-0.159-0.017-0.133-0.097l0.194-0.615-0.519-0.383c-0.067-0.050-0.033-0.156 0.051-0.157l0.645-0.005 0.204-0.611c0.027-0.079 0.139-0.079 0.165 0z"/><path fill="#ffe15a" d="M8.824 23.875l0.204 0.611 0.645 0.005c0.083 0.001 0.118 0.107 0.051 0.157l-0.519 0.383 0.194 0.615c0.025 0.080-0.065 0.145-0.133 0.097l-0.524-0.375-0.524 0.375c-0.068 0.049-0.159-0.017-0.133-0.097l0.194-0.615-0.519-0.383c-0.067-0.050-0.033-0.156 0.051-0.157l0.645-0.005 0.204-0.611c0.027-0.079 0.139-0.079 0.165 0z"/><path fill="#ffe15a" d="M7.379 14.621h-1.379v1.379c0 0.762 0.617 1.379 1.379 1.379s1.379-0.617 1.379-1.379-0.618-1.379-1.379-1.379z"/><path fill="#ff4b55" d="M8.759 17.379l-0.758-0.147-0.621-1.232 1.232 0.621z"/></svg>