<svg xmlns="http://www.w3.org/2000/svg" width="32" height="32" version="1.1" viewBox="0 0 32 32"><title>guernsey</title><path fill="#f5f5f5" d="M31.448 26.483h-30.896c-0.305 0-0.552-0.247-0.552-0.552v-19.862c0-0.305 0.247-0.552 0.552-0.552h30.896c0.305 0 0.552 0.247 0.552 0.552v19.862c-0 0.305-0.247 0.552-0.552 0.552z"/><path fill="#ff4b55" d="M32 13.793h-13.793v-8.276h-4.414v8.276h-13.793v4.414h13.793v8.276h4.414v-8.276h13.793z"/><path fill="#ffe15a" d="M22.621 17.655v-3.31l-0.828 0.828h-11.586l-0.828-0.828v3.31l0.828-0.828h11.586z"/><path fill="#ffe15a" d="M14.345 22.621h3.31l-0.828-0.828v-11.586l0.828-0.828h-3.31l0.828 0.828v11.586z"/></svg>