<!-- Generated by IcoMoon.io -->
<svg version="1.1" xmlns="http://www.w3.org/2000/svg" width="32" height="32" viewBox="0 0 32 32">
<title>hawaii</title>
<path fill="#f5f5f5" d="M32 8.138h-32v-2.069c0-0.305 0.247-0.552 0.552-0.552h30.896c0.305 0 0.552 0.247 0.552 0.552l-0 2.069z"></path>
<path fill="#ff4b55" d="M0 8.138h32v2.621h-32v-2.621z"></path>
<path fill="#41479b" d="M0 10.759h32v2.621h-32v-2.621z"></path>
<path fill="#f5f5f5" d="M0 13.379h32v2.621h-32v-2.621z"></path>
<path fill="#ff4b55" d="M32 18.621h-32v-3.172h0.69v0.552h31.31z"></path>
<path fill="#f5f5f5" d="M0 21.241h32v2.621h-32v-2.621z"></path>
<path fill="#ff4b55" d="M31.448 26.483h-30.896c-0.305 0-0.552-0.247-0.552-0.552v-2.069h32v2.069c0 0.305-0.247 0.552-0.552 0.552z"></path>
<path fill="#41479b" d="M0 18.621h32v2.621h-32v-2.621z"></path>
<path fill="#41479b" d="M15.448 16h-14.896c-0.305 0-0.552-0.247-0.552-0.552v-9.379c0-0.305 0.247-0.552 0.552-0.552h14.897c0.305 0 0.552 0.247 0.552 0.552v9.379c-0 0.305-0.247 0.552-0.552 0.552z"></path>
<path fill="#f5f5f5" d="M15.448 5.517h-0.958l-5.111 3.348v-3.348h-2.759v3.348l-5.111-3.348h-0.958c-0.305 0-0.552 0.247-0.552 0.552v0.438l4.385 2.873h-4.385v2.759h4.385l-4.385 2.873v0.438c0 0.305 0.247 0.552 0.552 0.552h0.958l5.111-3.348v3.348h2.759v-3.348l5.111 3.348h0.958c0.305 0 0.552-0.247 0.552-0.552v-0.438l-4.385-2.873h4.385v-2.759h-4.385l4.385-2.873v-0.438c0-0.305-0.247-0.552-0.552-0.552z"></path>
<path fill="#ff4b55" d="M16 9.931h-7.172v-4.414h-1.655v4.414h-7.172v1.655h7.172v4.414h1.655v-4.414h7.172z"></path>
<path fill="#ff4b55" d="M6.069 9.379l-5.806-3.769c-0.154 0.098-0.263 0.262-0.263 0.458v0.029l5.056 3.282h1.013z"></path>
<path fill="#ff4b55" d="M10.393 9.379l5.523-3.585c-0.096-0.162-0.265-0.277-0.468-0.277h-0.119l-5.95 3.862h1.013z"></path>
<path fill="#ff4b55" d="M5.592 12.138l-5.513 3.579c0.095 0.166 0.267 0.284 0.472 0.284h0.104l5.95-3.862h-1.013z"></path>
<path fill="#ff4b55" d="M15.991 15.492l-5.167-3.354h-1.013l5.867 3.808c0.176-0.082 0.296-0.252 0.313-0.455z"></path>
</svg>
