<!-- Generated by IcoMoon.io -->
<svg version="1.1" xmlns="http://www.w3.org/2000/svg" width="32" height="32" viewBox="0 0 32 32">
<title>honduras</title>
<path fill="#4173cd" d="M32 12.506h-32v-6.437c0-0.305 0.247-0.552 0.552-0.552h30.896c0.305 0 0.552 0.247 0.552 0.552l-0 6.437z"></path>
<path fill="#4173cd" d="M31.448 26.483h-30.896c-0.305 0-0.552-0.247-0.552-0.552v-6.437h32v6.437c0 0.305-0.247 0.552-0.552 0.552z"></path>
<path fill="#f5f5f5" d="M0 12.506h32v6.988h-32v-6.988z"></path>
<path fill="#4173cd" d="M16.080 15.099l0.197 0.592 0.624 0.005c0.081 0.001 0.114 0.104 0.049 0.152l-0.502 0.371 0.188 0.595c0.024 0.077-0.063 0.141-0.129 0.094l-0.508-0.363-0.508 0.363c-0.066 0.047-0.153-0.017-0.129-0.094l0.188-0.595-0.502-0.371c-0.065-0.048-0.031-0.151 0.049-0.152l0.624-0.005 0.197-0.592c0.026-0.077 0.134-0.077 0.16 0z"></path>
<path fill="#4173cd" d="M10.444 16.688l0.197 0.592 0.624 0.005c0.081 0.001 0.114 0.104 0.049 0.152l-0.502 0.371 0.188 0.595c0.024 0.077-0.063 0.141-0.129 0.094l-0.508-0.363-0.508 0.363c-0.066 0.047-0.153-0.017-0.129-0.094l0.188-0.595-0.502-0.371c-0.065-0.048-0.031-0.151 0.049-0.152l0.624-0.005 0.197-0.592c0.026-0.077 0.134-0.077 0.16 0z"></path>
<path fill="#4173cd" d="M10.444 13.51l0.197 0.592 0.624 0.005c0.081 0.001 0.114 0.104 0.049 0.152l-0.502 0.371 0.188 0.595c0.024 0.077-0.063 0.141-0.129 0.094l-0.508-0.363-0.508 0.363c-0.066 0.047-0.153-0.017-0.129-0.094l0.188-0.595-0.502-0.371c-0.065-0.048-0.031-0.151 0.049-0.152l0.624-0.005 0.197-0.592c0.026-0.077 0.134-0.077 0.16 0z"></path>
<path fill="#4173cd" d="M21.716 16.688l0.197 0.592 0.624 0.005c0.081 0.001 0.114 0.104 0.049 0.152l-0.502 0.371 0.188 0.595c0.024 0.077-0.063 0.141-0.129 0.094l-0.508-0.363-0.508 0.363c-0.066 0.047-0.153-0.017-0.129-0.094l0.188-0.595-0.502-0.371c-0.065-0.048-0.032-0.151 0.049-0.152l0.624-0.005 0.197-0.592c0.026-0.077 0.134-0.077 0.16 0z"></path>
<path fill="#4173cd" d="M21.716 13.51l0.197 0.592 0.624 0.005c0.081 0.001 0.114 0.104 0.049 0.152l-0.502 0.371 0.188 0.595c0.024 0.077-0.063 0.141-0.129 0.094l-0.508-0.363-0.508 0.363c-0.066 0.047-0.153-0.017-0.129-0.094l0.188-0.595-0.502-0.371c-0.065-0.048-0.032-0.151 0.049-0.152l0.624-0.005 0.197-0.592c0.026-0.077 0.134-0.077 0.16 0z"></path>
</svg>
