<svg xmlns="http://www.w3.org/2000/svg" width="32" height="32" version="1.1" viewBox="0 0 32 32"><title>hong-kong</title><path fill="#ff4b55" d="M31.448 26.483h-30.896c-0.305 0-0.552-0.247-0.552-0.552v-19.862c0-0.305 0.247-0.552 0.552-0.552h30.896c0.305 0 0.552 0.247 0.552 0.552v19.862c-0 0.305-0.247 0.552-0.552 0.552z"/><path fill="#f5f5f5" d="M14.030 16.808c-0.695 0.007-1.476-0.216-2.161-0.97-0.047-0.052-0.041-0.134 0.013-0.179l0-0c0.052-0.044 0.129-0.037 0.175 0.013 1.043 1.145 2.336 0.945 3.108 0.668-0.285 0.013-0.644-0.009-0.875-0.16-0.963-0.633-0.527-1.307-1.167-2.122-0.636-0.809-1.208-0.789-2.109-0.653-0.892 0.135-1.176-0.519-1.264-0.882-0.016-0.065-0.107-0.069-0.13-0.006-1.112 3.003 2.231 6.72 5.663 4.048-0.339 0.125-0.775 0.239-1.254 0.244zM11.526 15.788c-0.020 0.054-0.096 0.052-0.113-0.003l-0.128-0.422-0.441-0.015c-0.057-0.002-0.079-0.075-0.032-0.108l0.362-0.252-0.121-0.424c-0.016-0.055 0.047-0.098 0.093-0.064l0.351 0.266 0.366-0.246c0.047-0.032 0.108 0.015 0.089 0.069l-0.144 0.416 0.347 0.271c0.045 0.035 0.019 0.107-0.038 0.106l-0.441-0.009-0.151 0.414z"/><path fill="#f5f5f5" d="M16.492 14.812c0.552-0.423 1.311-0.713 2.311-0.52 0.069 0.013 0.113 0.083 0.097 0.151l-0 0c-0.015 0.066-0.081 0.107-0.148 0.094-1.522-0.291-2.436 0.645-2.888 1.329 0.221-0.181 0.521-0.379 0.796-0.396 1.151-0.071 1.206 0.73 2.206 0.998 0.994 0.266 1.44-0.093 2.079-0.742 0.633-0.643 1.252-0.29 1.541-0.052 0.052 0.043 0.127-0.009 0.108-0.073-0.912-3.070-5.815-4.039-6.959 0.157 0.196-0.303 0.477-0.656 0.857-0.947zM19.107 14.126c-0.017-0.055 0.046-0.099 0.092-0.065l0.355 0.261 0.362-0.252c0.047-0.033 0.108 0.013 0.090 0.067l-0.138 0.419 0.351 0.266c0.046 0.034 0.021 0.107-0.036 0.107l-0.441-0.002-0.145 0.416c-0.019 0.054-0.095 0.053-0.113-0.001l-0.134-0.42-0.441-0.009c-0.057-0.001-0.080-0.074-0.033-0.108l0.358-0.257-0.128-0.422z"/><path fill="#f5f5f5" d="M14.65 15.102c-0.271-0.64-0.363-1.447 0.075-2.367 0.030-0.063 0.108-0.088 0.171-0.056l0 0c0.061 0.031 0.083 0.105 0.054 0.167-0.662 1.401 0.015 2.52 0.565 3.129-0.12-0.259-0.237-0.599-0.184-0.87 0.219-1.132 1.008-0.985 1.518-1.886 0.506-0.896 0.27-1.417-0.199-2.199-0.464-0.773 0.033-1.285 0.335-1.505 0.054-0.039 0.023-0.125-0.043-0.122-3.2 0.115-5.365 4.62-1.588 6.777-0.244-0.266-0.516-0.626-0.703-1.067zM14.64 12.398c-0.057 0.002-0.084-0.069-0.040-0.105l0.341-0.279-0.153-0.413c-0.020-0.053 0.040-0.101 0.088-0.071l0.371 0.239 0.346-0.274c0.045-0.035 0.109 0.007 0.094 0.062l-0.112 0.426 0.367 0.244c0.047 0.032 0.027 0.105-0.030 0.109l-0.44 0.025-0.119 0.425c-0.015 0.055-0.092 0.059-0.113 0.005l-0.16-0.411-0.44 0.018z"/><path fill="#f5f5f5" d="M17.144 16.555c0.575 0.392 1.089 1.020 1.219 2.031 0.009 0.070-0.043 0.133-0.113 0.14h-0c-0.068 0.006-0.127-0.043-0.136-0.111-0.202-1.536-1.377-2.11-2.169-2.324 0.241 0.153 0.523 0.375 0.626 0.631 0.429 1.070-0.314 1.374-0.254 2.408 0.059 1.027 0.54 1.338 1.358 1.741 0.809 0.399 0.669 1.098 0.534 1.446-0.024 0.062 0.048 0.118 0.103 0.079 2.628-1.83 2.008-6.789-2.335-6.557 0.349 0.091 0.773 0.247 1.168 0.516zM18.616 18.822c0.047-0.033 0.108 0.013 0.091 0.067l-0.136 0.419 0.353 0.264c0.046 0.034 0.021 0.107-0.036 0.107l-0.441 0-0.142 0.417c-0.018 0.054-0.095 0.053-0.113-0.001l-0.137-0.419-0.441-0.007c-0.057-0.001-0.080-0.074-0.034-0.107l0.357-0.259-0.13-0.421c-0.017-0.055 0.045-0.099 0.092-0.066l0.357 0.259 0.36-0.254z"/><path fill="#f5f5f5" d="M15.706 17.801c-0.198 0.667-0.641 1.348-1.563 1.779-0.064 0.030-0.14-0.001-0.168-0.065l-0-0c-0.027-0.063 0.002-0.134 0.064-0.163 1.402-0.659 1.591-1.954 1.554-2.774-0.072 0.276-0.198 0.613-0.411 0.789-0.889 0.734-1.404 0.119-2.371 0.49-0.961 0.369-1.11 0.922-1.245 1.823-0.133 0.892-0.842 0.971-1.215 0.948-0.067-0.004-0.097 0.081-0.044 0.122 2.543 1.947 7.079-0.153 5.536-4.219 0.020 0.36 0 0.811-0.136 1.27zM13.994 19.894c0.046 0.035 0.021 0.107-0.036 0.107l-0.441-0.002-0.145 0.416c-0.019 0.054-0.095 0.053-0.113-0.001l-0.134-0.42-0.441-0.009c-0.057-0.001-0.080-0.074-0.034-0.108l0.358-0.258-0.128-0.422c-0.017-0.055 0.046-0.099 0.092-0.065l0.355 0.261 0.362-0.252c0.047-0.033 0.108 0.013 0.090 0.067l-0.138 0.419 0.351 0.266z"/></svg>