<svg xmlns="http://www.w3.org/2000/svg" width="32" height="32" version="1.1" viewBox="0 0 32 32"><title>india</title><path fill="#fab446" d="M32 12.506h-32v-6.437c0-0.305 0.247-0.552 0.552-0.552h30.896c0.305 0 0.552 0.247 0.552 0.552l-0 6.437z"/><path fill="#73af00" d="M31.448 26.483h-30.896c-0.305 0-0.552-0.247-0.552-0.552v-6.437h32v6.437c0 0.305-0.247 0.552-0.552 0.552z"/><path fill="#f5f5f5" d="M0 12.506h32v6.988h-32v-6.988z"/><path fill="#41479b" d="M16 18.966c-1.635 0-2.966-1.33-2.966-2.965s1.33-2.966 2.966-2.966 2.965 1.33 2.965 2.966-1.33 2.965-2.966 2.965zM16 13.586c-1.331 0-2.414 1.083-2.414 2.414s1.083 2.414 2.414 2.414 2.414-1.083 2.414-2.414c0-1.331-1.083-2.414-2.414-2.414z"/><path fill="#41479b" d="M16.336 16c0 0.186-0.151 0.336-0.336 0.336s-0.336-0.151-0.336-0.336c0-0.186 0.151-0.336 0.336-0.336s0.336 0.151 0.336 0.336z"/><path fill="#41479b" d="M16 16.050l-0.854 0.086-1.835-0.086v-0.101l1.835-0.086 0.854 0.086z"/><path fill="#41479b" d="M16 16.050l0.854 0.086 1.835-0.086v-0.101l-1.835-0.086-0.854 0.086z"/><path fill="#41479b" d="M15.95 16l-0.086-0.854 0.086-1.835h0.101l0.086 1.835-0.086 0.854z"/><path fill="#41479b" d="M15.95 16l-0.086 0.854 0.086 1.835h0.101l0.086-1.835-0.086-0.854z"/><path fill="#41479b" d="M15.964 16.036l-0.665-0.543-1.237-1.359 0.071-0.071 1.359 1.237 0.543 0.665z"/><path fill="#41479b" d="M15.964 16.036l0.543 0.665 1.359 1.237 0.071-0.071-1.237-1.359-0.665-0.543z"/><path fill="#41479b" d="M15.964 15.964l0.543-0.665 1.359-1.237 0.071 0.071-1.237 1.359-0.665 0.543z"/><path fill="#41479b" d="M15.964 15.964l-0.665 0.543-1.237 1.359 0.071 0.071 1.359-1.237 0.543-0.665z"/><path fill="#41479b" d="M16.019 16.047l-0.756 0.407-1.729 0.623-0.039-0.093 1.663-0.782 0.822-0.247z"/><path fill="#41479b" d="M16.019 16.047l0.822-0.247 1.663-0.782-0.039-0.093-1.729 0.623-0.756 0.407z"/><path fill="#41479b" d="M15.953 16.019l-0.407-0.756-0.623-1.729 0.093-0.039 0.782 1.663 0.247 0.822z"/><path fill="#41479b" d="M15.953 16.019l0.247 0.822 0.782 1.663 0.093-0.039-0.623-1.729-0.407-0.756z"/><path fill="#41479b" d="M15.981 16.047l-0.822-0.247-1.663-0.782 0.039-0.093 1.729 0.623 0.756 0.407z"/><path fill="#41479b" d="M15.981 16.047l0.756 0.407 1.729 0.623 0.039-0.093-1.663-0.782-0.822-0.247z"/><path fill="#41479b" d="M15.953 15.981l0.247-0.822 0.782-1.663 0.093 0.039-0.623 1.729-0.407 0.756z"/><path fill="#41479b" d="M15.953 15.981l-0.407 0.756-0.623 1.729 0.093 0.039 0.782-1.663 0.247-0.822z"/><path fill="#f5f5f5" d="M16.453 16c0 0.25-0.203 0.453-0.454 0.453s-0.454-0.203-0.454-0.453c0-0.25 0.203-0.454 0.454-0.454s0.454 0.203 0.454 0.454z"/><path fill="#41479b" d="M16.272 16c0 0.15-0.122 0.272-0.272 0.272s-0.272-0.122-0.272-0.272c0-0.15 0.122-0.272 0.272-0.272s0.272 0.122 0.272 0.272z"/></svg>