<svg xmlns="http://www.w3.org/2000/svg" width="32" height="32" version="1.1" viewBox="0 0 32 32"><title>iraq</title><path fill="#ff4b55" d="M32 12.506h-32v-6.437c0-0.305 0.247-0.552 0.552-0.552h30.896c0.305 0 0.552 0.247 0.552 0.552l-0 6.437z"/><path fill="#464655" d="M31.448 26.483h-30.896c-0.305 0-0.552-0.247-0.552-0.552v-6.437h32v6.437c0 0.305-0.247 0.552-0.552 0.552z"/><path fill="#f5f5f5" d="M0 12.506h32v6.988h-32v-6.988z"/><path fill="#73af00" d="M19.254 14.595c-0.058-0.030-0.127-0.138-0.105-0.185 0.023-0.050-0.013-0.045 0.106-0.010 0.214 0.056 0.353 0.030 0.489-0.086l0.121-0.096 0.141 0.071c0.078 0.035 0.159 0.060 0.182 0.055 0.066-0.015 0.192-0.177 0.189-0.232-0.003-0.075 0.053-0.055 0.081 0.025 0.058 0.151-0.049 0.412-0.195 0.448-0.070 0.020-0.136 0.015-0.247-0.020-0.131-0.050-0.151-0.050-0.222 0-0.146 0.116-0.356 0.126-0.54 0.030z"/><path fill="#73af00" d="M19.806 14.011c-0.071-0.099-0.156-0.446-0.131-0.531 0.025-0.078 0.049-0.092 0.117-0.071 0.12 0.042 0.149 0.12 0.135 0.404-0.021 0.212-0.049 0.283-0.12 0.198z"/><path fill="#73af00" d="M15.063 15.546c-0.291 0.165-0.723 0.194-0.723 0.652-0.633 0.024-1.38 0.052-2.053 0.038 0.182-0.236 1.338-1.303 1.818-1.726 0.079-0.070 0.107-0.206 0.060-0.301l-0.012-0.026c-0.069-0.143-0.258-0.177-0.372-0.067-0.479 0.458-0.953 0.884-1.030 0.958-0.62 0.626-0.801 0.809-0.899 0.907-0.069 0.070-0.108 0.164-0.107 0.262v0.006c0.001 0.204 0.167 0.369 0.371 0.369h2.711c0.154 0-0.035-0.534 0.163-0.534 0.138 0 0.151 0.192 0.145 0.395-0.005 0.154-0.132 0.276-0.286 0.277-1.172 0.002-2.392 0.013-3.541 0.014-0.095 0-0.171-0.077-0.171-0.172v-0.207c0-0.175-0.194-0.277-0.341-0.181-0.005 0.003-0.011 0.007-0.016 0.010-0.076 0.048-0.116 0.141-0.086 0.227 0.019 0.055 0.028 0.122 0.030 0.193 0.002 0.093-0.073 0.17-0.166 0.172-0.38 0.012-0.792 0.015-0.91-0.209-0.066-0.126-0.207-0.186-0.334-0.122l-0.017 0.009c-0.134 0.067-0.188 0.233-0.114 0.364 0.14 0.249 0.268 0.537 0.201 0.941-0.054 0.127-0.156 0.207-0.266 0.279-0.123 0.080-0.046 0.266 0.098 0.24 0.348-0.064 0.588-0.34 0.662-0.665h5.401c0.198 0 0.359-0.161 0.359-0.359v-1.172c-0.050-0.35-0.425-0.336-0.574-0.572z"/><path fill="#73af00" d="M21.914 13.997c0.080 0.051 0.16 0.103 0.248 0.145 0.097 0.046 0.134 0.165 0.078 0.257-0.015 0.024-0.028 0.051-0.035 0.084v2.325c0.159 0.033 0.25 0.002 0.323-0.048 0.082-0.056 0.192-0.015 0.218 0.081 0.055 0.204 0.145 0.403 0.192 0.584 0.030 0.113-0.055 0.224-0.172 0.224h-0.911c-0.081 0-0.146-0.065-0.146-0.146v-3.394c-0-0.105 0.116-0.169 0.205-0.112z"/><path fill="#73af00" d="M20.811 14.563c0.001 0.642 0.008 1.333 0.009 2.022 0 0.089-0.072 0.161-0.161 0.161h-0.010c-0.089 0-0.161-0.072-0.161-0.161v-1.631c0-0.089-0.104-0.136-0.171-0.078l-0.214 0.185c-0.044 0.038-0.069 0.092-0.069 0.15-0.001 0.265-0.003 1.038-0.004 1.375-0 0.089-0.072 0.161-0.161 0.161h-0.015c-0.089 0-0.161-0.071-0.161-0.16-0.002-0.224-0.004-0.64-0.005-0.952-0-0.090-0.107-0.137-0.174-0.078-0.221 0.194-0.273 0.238-0.389 0.358 0.009 0.061 0.057 0 0.085 0.047v0.312c-0.807-0.152-0.867 0.493-0.837 1.184 0.005 0.104 0.090 0.186 0.194 0.186h2.533c0.094 0 0.17-0.076 0.17-0.17v-3.149c0-0.105-0.125-0.159-0.202-0.088-0.062 0.057-0.128 0.113-0.185 0.165-0.046 0.042-0.071 0.1-0.071 0.162zM18.947 16.722c-0.050-0.142 0.229-0.194 0.262-0.066 0.012 0.156-0.201 0.161-0.262 0.066z"/><path fill="#73af00" d="M10.581 17.899c0.097 0 0.175 0.080 0.175 0.175 0 0.099-0.078 0.175-0.175 0.175-0.099 0-0.18-0.076-0.18-0.175 0-0.094 0.081-0.175 0.18-0.175z"/><path fill="#73af00" d="M16.34 14.068c0.047 0.028 0.096 0.056 0.148 0.080 0.093 0.044 0.13 0.16 0.073 0.247-0.017 0.026-0.032 0.055-0.041 0.093v2.32c0.168 0.037 0.26 0.001 0.334-0.054s0.178-0.017 0.202 0.071c0.042 0.157 0.105 0.313 0.154 0.461 0.060 0.181-0.074 0.367-0.265 0.367h-0.71c-0.115 0-0.208-0.093-0.208-0.208v-3.197c0-0.161 0.175-0.262 0.313-0.18z"/></svg>