<!-- Generated by IcoMoon.io -->
<svg version="1.1" xmlns="http://www.w3.org/2000/svg" width="32" height="32" viewBox="0 0 32 32">
<title>israel</title>
<path fill="#41479b" d="M31.448 26.483h-30.896c-0.305 0-0.552-0.247-0.552-0.552v-19.862c0-0.305 0.247-0.552 0.552-0.552h30.896c0.305 0 0.552 0.247 0.552 0.552v19.862c-0 0.305-0.247 0.552-0.552 0.552z"></path>
<path fill="#f5f5f5" d="M0 9.379h32v13.241h-32v-13.241z"></path>
<path fill="#41479b" d="M18.867 16l1.433-2.483h-2.867l-1.434-2.483-1.434 2.483h-2.867l1.433 2.483-1.433 2.483h2.867l1.434 2.483 1.433-2.483h2.867l-1.433-2.483zM18.894 14.329l-0.496 0.859-0.496-0.859h0.992zM17.929 16l-0.965 1.671h-1.93l-0.964-1.671 0.965-1.671h1.93l0.965 1.671zM16 12.658l0.496 0.859h-0.992l0.496-0.859zM13.106 14.329h0.992l-0.496 0.859-0.496-0.859zM13.106 17.671l0.496-0.859 0.496 0.859h-0.992zM16 19.342l-0.496-0.859h0.992l-0.496 0.859zM18.398 16.812l0.496 0.859h-0.992l0.496-0.859z"></path>
</svg>
