<!-- Generated by IcoMoon.io -->
<svg version="1.1" xmlns="http://www.w3.org/2000/svg" width="32" height="32" viewBox="0 0 32 32">
<title>jersey</title>
<path fill="#f5f5f5" d="M31.448 26.483h-30.896c-0.305 0-0.552-0.247-0.552-0.552v-19.862c0-0.305 0.247-0.552 0.552-0.552h30.896c0.305 0 0.552 0.247 0.552 0.552v19.862c-0 0.305-0.247 0.552-0.552 0.552z"></path>
<path fill="#ff4b55" d="M32 6.069c0-0.305-0.247-0.552-0.552-0.552h-1.462l-13.986 9.164-13.986-9.164h-1.462c-0.305 0-0.552 0.247-0.552 0.552v0.767l13.986 9.164-13.986 9.164v0.767c0 0.305 0.247 0.552 0.552 0.552h1.462l13.986-9.164 13.986 9.164h1.462c0.305 0 0.552-0.247 0.552-0.552v-0.767l-13.987-9.164 13.986-9.164v-0.768z"></path>
<path fill="#ffe15a" d="M17.66 7.929c0 0-0.175-0.262-0.437-0.087 0 0 0.303 0.218 0.098 0.448-0.217 0.243-0.515 0.005-0.533-0.169 0.079-0.006 0.142-0.072 0.142-0.153 0-0.085-0.069-0.154-0.154-0.154s-0.154 0.069-0.154 0.154c0 0.066 0.042 0.122 0.101 0.144-0.038 0.149-0.428 0.263-0.541 0.016-0.127-0.278 0.074-0.513 0.344-0.481 0 0-0.052-0.344-0.418-0.199 0 0 0.153-0.393-0.109-0.655-0.262 0.262-0.109 0.655-0.109 0.655-0.366-0.145-0.418 0.199-0.418 0.199 0.27-0.033 0.471 0.203 0.344 0.48-0.113 0.247-0.503 0.133-0.541-0.016 0.059-0.022 0.101-0.078 0.101-0.144 0-0.085-0.069-0.154-0.154-0.154s-0.154 0.069-0.154 0.154c0 0.081 0.063 0.147 0.142 0.153-0.019 0.174-0.317 0.411-0.533 0.169-0.205-0.229 0.098-0.448 0.098-0.448-0.262-0.175-0.437 0.087-0.437 0.087-0.087-0.349-0.437-0.262-0.437-0.262 0.349 0.437 0.606 1.338 0.606 1.338h2.98c0 0 0.257-0.901 0.606-1.338-0 0-0.35-0.087-0.437 0.262z"></path>
<path fill="#ff4b55" d="M17.49 9.004c-0.482-0.17-0.986-0.255-1.49-0.255s-1.008 0.085-1.49 0.255c-0.782 3.425 1.49 4.34 1.49 4.34s2.272-0.915 1.49-4.34z"></path>
<path fill="#82afff" d="M14.91 10.223c0 0-0.072-0.014-0.134 0.036 0 0-0.022-0.086 0.090-0.107s0.044 0.070 0.044 0.070z"></path>
<path fill="#82afff" d="M14.824 10.114c0 0-0.057-0.046-0.135-0.031 0 0 0.021-0.086 0.13-0.052s0.005 0.083 0.005 0.083z"></path>
<path fill="#82afff" d="M14.871 10.159c0 0-0.078-0.014-0.146 0.036 0 0-0.024-0.086 0.099-0.107s0.048 0.070 0.048 0.070z"></path>
<path fill="#82afff" d="M16.226 10.387c0 0-0.073 0.003-0.122 0.066 0 0-0.041-0.079 0.063-0.125s0.059 0.059 0.059 0.059z"></path>
<path fill="#82afff" d="M16.12 10.294c0 0-0.066-0.031-0.139 0.001 0 0 0.001-0.089 0.115-0.080s0.024 0.079 0.024 0.079z"></path>
<path fill="#82afff" d="M16.173 10.334c0 0-0.079 0.005-0.134 0.069 0 0-0.043-0.078 0.071-0.127s0.063 0.058 0.063 0.058z"></path>
<path fill="#82afff" d="M17.058 10.432c0 0-0.027 0-0.076 0.046 0 0-0.035-0.078 0.068-0.117s0.008 0.071 0.008 0.071z"></path>
<path fill="#82afff" d="M17.006 10.325c0 0-0.061-0.034-0.133-0.007 0 0 0.006-0.085 0.115-0.071s0.019 0.078 0.019 0.078z"></path>
<path fill="#82afff" d="M17.055 10.367c0 0-0.077 0-0.133 0.059 0 0-0.037-0.078 0.076-0.118s0.057 0.059 0.057 0.059z"></path>
<path fill="#82afff" d="M14.79 9.682c0 0-0.066-0.044-0.149-0.021 0 0 0.015-0.095 0.136-0.068s0.014 0.089 0.014 0.089z"></path>
<path fill="#82afff" d="M14.785 9.519c0 0-0.043-0.067-0.133-0.073 0 0 0.059-0.090 0.162-0.021s-0.029 0.094-0.029 0.094z"></path>
<path fill="#82afff" d="M14.785 9.606c0 0-0.069-0.051-0.161-0.032 0 0 0.021-0.1 0.15-0.063s0.011 0.096 0.011 0.096z"></path>
<path fill="#ffe15a" d="M16.848 9.905c0.115 0.003 0.252-0.043 0.274-0.162 0.025-0.137-0.092-0.207-0.25-0.2-0.115 0.005-0.407 0.071-0.616 0.063-0.207-0.007-0.212-0.212 0.101-0.19 0.464 0.032 0.538-0.028 0.538-0.028-0.249 0.047-0.349-0.040-0.613-0.040s-0.316 0.183-0.209 0.283c0.12 0.112 0.554 0.037 0.669 0.016s0.261-0.023 0.273 0.058c0.010 0.073-0.183 0.069-0.319 0.063-0.218-0.008-0.534 0.051-0.816 0.065-0.235 0.012-0.267-0.054-0.321-0.122 0.012-0.023 0.020-0.048 0.020-0.074 0-0.013-0.002-0.026-0.005-0.039 0.018-0.019 0.036-0.051 0.045-0.101 0 0-0.060-0.011-0.105 0.012-0.036-0.029-0.085-0.047-0.138-0.047s-0.101 0.018-0.138 0.047c-0.045-0.023-0.105-0.012-0.105-0.012 0.009 0.051 0.027 0.082 0.045 0.101-0.003 0.013-0.005 0.025-0.005 0.039 0 0.049 0.024 0.093 0.061 0.125 0.018 0.015 0.032 0.035 0.037 0.059l0.007 0.033c0.003 0.015 0.012 0.026 0.024 0.033-0.194-0.020-0.285-0.142-0.332-0.209-0.053-0.076-0.086-0.245-0.167-0.264l-0.048 0.254c0 0 0.102 0.237 0.293 0.333 0.215 0.109 0.255 0.112 0.326 0.143 0.008 0.037-0.133 0.060-0.276 0.031-0.1-0.020-0.235-0.165-0.312-0.155l0.089 0.199c0.243 0.154 0.455 0.157 0.637 0.125 0.129-0.023 0.178-0.128 0.186-0.172 0.053-0.010 0.11-0.021 0.287-0.064 0.074-0.018 0.16-0.028 0.245-0.032 0.024 0.055 0.079 0.125 0.268 0.132 0 0 0.046 0.073-0.11 0.058s-0.196-0.063-0.287-0.053l0.081 0.194c0 0 0.199-0.069 0.444-0.044 0 0 0.046 0.012 0.073-0.027s0.015-0.062-0.010-0.098c-0.014-0.020-0.022-0.084-0.026-0.137 0.090 0.023 0.365-0.033 0.465-0.025s0.114 0.125 0.091 0.164c-0.023 0.039-0.231 0.006-0.231 0.006l0.070 0.191c0 0 0.021-0.010 0.074-0.060 0.043-0.041 0.22-0.027 0.22-0.058v-0.355c0-0.017-0.015-0.030-0.031-0.028-0.39 0.034-0.47-0.031-0.47-0.031z"></path>
<path fill="#ff4b55" d="M15.292 9.779c0.006 0.011 0.010 0.024 0.013 0.037l0.006 0.033c0.002 0.012 0.011 0.020 0.022 0.020h0.091c0.011 0 0.020-0.008 0.022-0.020l0.006-0.033c0.002-0.013 0.007-0.026 0.013-0.037h-0.171z"></path>
<path fill="#82afff" d="M15.378 9.845c-0.021 0-0.037 0.003-0.035 0.032l0.008 0.124c0.001 0.019 0.013 0.033 0.027 0.033s0.025-0.014 0.027-0.033l0.008-0.124c0.002-0.029-0.014-0.032-0.035-0.032z"></path>
<path fill="#82afff" d="M15.108 11.448c0 0-0.058-0.011-0.109 0.030 0 0-0.018-0.070 0.074-0.087s0.036 0.058 0.036 0.058z"></path>
<path fill="#82afff" d="M15.038 11.359c0 0-0.046-0.037-0.11-0.025 0 0 0.018-0.070 0.106-0.042s0.004 0.068 0.004 0.068z"></path>
<path fill="#82afff" d="M15.076 11.396c0 0-0.064-0.011-0.119 0.030 0 0-0.019-0.070 0.081-0.087s0.039 0.058 0.039 0.058z"></path>
<path fill="#82afff" d="M16.182 11.582c0 0-0.059 0.003-0.099 0.054 0 0-0.034-0.064 0.052-0.102s0.048 0.048 0.048 0.048z"></path>
<path fill="#82afff" d="M16.095 11.506c0 0-0.054-0.026-0.113 0.001 0 0 0.001-0.072 0.094-0.065s0.020 0.065 0.020 0.065z"></path>
<path fill="#82afff" d="M16.139 11.539c0 0-0.065 0.004-0.109 0.056 0 0-0.035-0.064 0.058-0.103s0.051 0.047 0.051 0.047z"></path>
<path fill="#82afff" d="M16.861 11.619c0 0-0.022 0-0.062 0.037 0 0-0.029-0.064 0.055-0.095s0.007 0.057 0.007 0.057z"></path>
<path fill="#82afff" d="M16.818 11.532c0 0-0.050-0.028-0.109-0.006 0 0 0.005-0.070 0.094-0.057s0.015 0.063 0.015 0.063z"></path>
<path fill="#82afff" d="M16.858 11.566c0 0-0.062 0-0.108 0.048 0 0-0.030-0.063 0.062-0.096s0.046 0.048 0.046 0.048z"></path>
<path fill="#82afff" d="M15.011 11.007c0 0-0.054-0.036-0.122-0.017 0 0 0.012-0.078 0.111-0.056s0.011 0.072 0.011 0.072z"></path>
<path fill="#82afff" d="M15.006 10.874c0 0-0.035-0.055-0.109-0.059 0 0 0.048-0.073 0.132-0.017s-0.023 0.076-0.023 0.076z"></path>
<path fill="#82afff" d="M15.007 10.945c0 0-0.057-0.042-0.131-0.026 0 0 0.017-0.082 0.123-0.052s0.009 0.078 0.009 0.078z"></path>
<path fill="#ffe15a" d="M16.689 11.189c0.094 0.003 0.206-0.035 0.224-0.132 0.020-0.112-0.075-0.168-0.204-0.163-0.094 0.004-0.332 0.058-0.502 0.052-0.169-0.006-0.173-0.173 0.082-0.155 0.378 0.026 0.439-0.023 0.439-0.023-0.203 0.038-0.285-0.033-0.5-0.033s-0.257 0.149-0.17 0.231c0.098 0.091 0.452 0.030 0.546 0.013s0.213-0.019 0.223 0.047c0.009 0.059-0.149 0.056-0.261 0.052-0.178-0.007-0.436 0.041-0.666 0.053-0.191 0.010-0.218-0.044-0.262-0.099 0.010-0.018 0.016-0.039 0.016-0.061 0-0.011-0.002-0.021-0.005-0.032 0.014-0.016 0.030-0.041 0.037-0.082 0 0-0.049-0.009-0.086 0.010-0.030-0.023-0.069-0.038-0.113-0.038s-0.083 0.015-0.113 0.038c-0.037-0.019-0.086-0.010-0.086-0.010 0.007 0.041 0.022 0.067 0.037 0.082-0.003 0.010-0.005 0.021-0.005 0.032 0 0.040 0.019 0.076 0.050 0.102 0.015 0.012 0.026 0.029 0.030 0.048l0.005 0.027c0.002 0.012 0.010 0.021 0.020 0.027-0.158-0.016-0.233-0.115-0.271-0.171-0.043-0.062-0.070-0.2-0.136-0.215l-0.039 0.207c0 0 0.084 0.193 0.239 0.272 0.175 0.089 0.208 0.091 0.266 0.117 0.007 0.030-0.108 0.049-0.225 0.025-0.082-0.017-0.191-0.135-0.254-0.127l0.073 0.162c0.198 0.125 0.371 0.128 0.52 0.102 0.105-0.019 0.145-0.104 0.152-0.141 0.043-0.008 0.089-0.017 0.234-0.052 0.061-0.015 0.13-0.023 0.2-0.026 0.020 0.045 0.064 0.102 0.218 0.107 0 0 0.037 0.059-0.090 0.047s-0.16-0.051-0.234-0.043l0.067 0.158c0 0 0.163-0.056 0.362-0.036 0 0 0.037 0.010 0.059-0.022s0.012-0.051-0.009-0.080c-0.011-0.016-0.018-0.069-0.022-0.112 0.073 0.018 0.298-0.027 0.379-0.020s0.093 0.102 0.075 0.134c-0.019 0.032-0.189 0.005-0.189 0.005l0.057 0.156c0 0 0.017-0.008 0.061-0.049 0.035-0.033 0.18-0.022 0.18-0.047v-0.289c0-0.014-0.012-0.024-0.026-0.023-0.318 0.028-0.383-0.025-0.383-0.025z"></path>
<path fill="#ff4b55" d="M15.42 11.086c0.005 0.009 0.008 0.020 0.010 0.030l0.005 0.027c0.002 0.009 0.009 0.016 0.018 0.016h0.074c0.009 0 0.016-0.007 0.018-0.016l0.005-0.027c0.002-0.011 0.005-0.021 0.010-0.030h-0.139z"></path>
<path fill="#82afff" d="M15.49 11.14c-0.017 0-0.030 0.002-0.028 0.026l0.007 0.101c0.001 0.015 0.011 0.027 0.022 0.027s0.021-0.012 0.022-0.027l0.007-0.101c0.002-0.024-0.011-0.026-0.028-0.026z"></path>
<path fill="#82afff" d="M15.329 12.422c0 0-0.044-0.008-0.082 0.022 0 0-0.013-0.053 0.055-0.065s0.027 0.043 0.027 0.043z"></path>
<path fill="#82afff" d="M15.276 12.356c0 0-0.035-0.028-0.083-0.019 0 0 0.013-0.053 0.079-0.031s0.003 0.051 0.003 0.051z"></path>
<path fill="#82afff" d="M15.305 12.383c0 0-0.048-0.008-0.089 0.022 0 0-0.015-0.053 0.060-0.065s0.029 0.043 0.029 0.043z"></path>
<path fill="#82afff" d="M16.133 12.523c0 0-0.044 0.002-0.074 0.040 0 0-0.025-0.048 0.039-0.076s0.036 0.036 0.036 0.036z"></path>
<path fill="#82afff" d="M16.068 12.465c0 0-0.040-0.019-0.085 0.001 0 0 0.001-0.054 0.070-0.049s0.015 0.049 0.015 0.049z"></path>
<path fill="#82afff" d="M16.101 12.49c0 0-0.048 0.003-0.082 0.042 0 0-0.026-0.048 0.044-0.077s0.038 0.035 0.038 0.035z"></path>
<path fill="#82afff" d="M16.641 12.55c0 0-0.017 0-0.047 0.028 0 0-0.021-0.048 0.041-0.071s0.005 0.043 0.005 0.043z"></path>
<path fill="#82afff" d="M16.609 12.485c0 0-0.038-0.021-0.081-0.004 0 0 0.004-0.052 0.070-0.043s0.011 0.048 0.011 0.048z"></path>
<path fill="#82afff" d="M16.639 12.51c0 0-0.047 0-0.081 0.036 0 0-0.023-0.047 0.046-0.072s0.035 0.036 0.035 0.036z"></path>
<path fill="#82afff" d="M15.256 12.092c0 0-0.040-0.027-0.091-0.013 0 0 0.009-0.058 0.083-0.042s0.008 0.054 0.008 0.054z"></path>
<path fill="#82afff" d="M15.253 11.992c0 0-0.026-0.041-0.081-0.044 0 0 0.036-0.055 0.099-0.013s-0.017 0.057-0.017 0.057z"></path>
<path fill="#82afff" d="M15.253 12.045c0 0-0.042-0.031-0.098-0.020 0 0 0.013-0.061 0.092-0.039s0.006 0.058 0.006 0.058z"></path>
<path fill="#ffe15a" d="M16.513 12.228c0.070 0.002 0.154-0.026 0.167-0.099 0.015-0.084-0.056-0.126-0.153-0.122-0.070 0.003-0.248 0.043-0.376 0.039-0.126-0.004-0.13-0.129 0.061-0.116 0.283 0.020 0.328-0.017 0.328-0.017-0.152 0.029-0.213-0.025-0.375-0.025s-0.193 0.112-0.127 0.173c0.073 0.069 0.339 0.023 0.409 0.009s0.16-0.014 0.167 0.036c0.006 0.044-0.112 0.042-0.195 0.039-0.133-0.005-0.326 0.031-0.498 0.040-0.143 0.007-0.163-0.033-0.196-0.074 0.008-0.014 0.012-0.029 0.012-0.045 0-0.008-0.001-0.016-0.003-0.024 0.011-0.012 0.022-0.031 0.027-0.062 0 0-0.037-0.006-0.064 0.008-0.022-0.018-0.052-0.028-0.084-0.028s-0.062 0.011-0.084 0.028c-0.028-0.014-0.064-0.008-0.064-0.008 0.005 0.031 0.017 0.050 0.027 0.062-0.002 0.008-0.003 0.016-0.003 0.024 0 0.030 0.014 0.057 0.037 0.076 0.011 0.009 0.019 0.022 0.022 0.036l0.004 0.020c0.002 0.009 0.008 0.016 0.015 0.020-0.118-0.012-0.174-0.086-0.203-0.128-0.032-0.047-0.053-0.15-0.102-0.161l-0.029 0.155c0 0 0.063 0.145 0.179 0.204 0.131 0.067 0.156 0.069 0.199 0.088 0.005 0.023-0.081 0.037-0.169 0.019-0.061-0.012-0.143-0.101-0.19-0.095l0.055 0.121c0.148 0.094 0.278 0.096 0.389 0.076 0.079-0.014 0.108-0.078 0.114-0.105 0.032-0.006 0.067-0.013 0.175-0.039 0.045-0.011 0.098-0.017 0.15-0.019 0.015 0.033 0.048 0.076 0.163 0.080 0 0 0.028 0.044-0.067 0.036s-0.119-0.039-0.175-0.032l0.050 0.118c0 0 0.122-0.042 0.271-0.027 0 0 0.028 0.008 0.044-0.017s0.009-0.038-0.006-0.060c-0.009-0.012-0.014-0.052-0.016-0.084 0.055 0.014 0.223-0.020 0.284-0.015s0.070 0.076 0.056 0.1-0.141 0.004-0.141 0.004l0.043 0.117c0 0 0.013-0.006 0.045-0.037 0.026-0.025 0.134-0.017 0.134-0.036v-0.217c0-0.010-0.009-0.018-0.019-0.017-0.238 0.021-0.287-0.019-0.287-0.019z"></path>
<path fill="#ff4b55" d="M15.563 12.151c0.004 0.007 0.006 0.015 0.008 0.023l0.004 0.020c0.001 0.007 0.007 0.012 0.013 0.012h0.055c0.007 0 0.012-0.005 0.013-0.012l0.004-0.020c0.001-0.008 0.004-0.016 0.008-0.023h-0.104z"></path>
<path fill="#82afff" d="M15.615 12.191c-0.013 0-0.023 0.002-0.021 0.019l0.005 0.076c0.001 0.012 0.008 0.020 0.016 0.020s0.015-0.009 0.016-0.020l0.005-0.076c0.001-0.018-0.009-0.019-0.021-0.019z"></path>
</svg>
