<svg xmlns="http://www.w3.org/2000/svg" width="32" height="32" version="1.1" viewBox="0 0 32 32"><title>jordan</title><path fill="#464655" d="M32 12.506h-32v-6.437c0-0.305 0.247-0.552 0.552-0.552h30.896c0.305 0 0.552 0.247 0.552 0.552l-0 6.437z"/><path fill="#73af00" d="M31.448 26.483h-30.896c-0.305 0-0.552-0.247-0.552-0.552v-6.437h32v6.437c0 0.305-0.247 0.552-0.552 0.552z"/><path fill="#f5f5f5" d="M0 12.506h32v6.988h-32v-6.988z"/><path fill="#ff4b55" d="M0.203 26.349l18.694-10.126c0.177-0.096 0.177-0.351 0-0.447l-18.694-10.126c-0.122 0.101-0.203 0.248-0.203 0.418v19.862c0 0.171 0.082 0.317 0.203 0.418z"/><path fill="#f5f5f5" d="M5.962 14.573l0.328 0.711 0.761-0.187c0.048-0.012 0.087 0.038 0.065 0.081l-0.352 0.7 0.62 0.478c0.039 0.030 0.025 0.091-0.023 0.101l-0.766 0.161 0.013 0.783c0.001 0.049-0.056 0.076-0.094 0.045l-0.604-0.499-0.604 0.499c-0.038 0.031-0.095 0.004-0.094-0.045l0.013-0.783-0.766-0.161c-0.048-0.010-0.062-0.072-0.023-0.101l0.62-0.478-0.352-0.7c-0.022-0.044 0.017-0.093 0.065-0.081l0.761 0.187 0.328-0.711c0.020-0.044 0.083-0.044 0.104 0z"/></svg>