<svg xmlns="http://www.w3.org/2000/svg" width="32" height="32" version="1.1" viewBox="0 0 32 32"><title>kazakhstan</title><path fill="#82c3d2" d="M31.448 5.517h-30.896c-0.305 0-0.552 0.247-0.552 0.552v19.862c0 0.305 0.247 0.552 0.552 0.552h30.896c0.305 0 0.552-0.247 0.552-0.552v-19.862c-0-0.305-0.247-0.552-0.552-0.552z"/><path fill="#ffe15a" d="M3.72 8.028c-0.050-0.211-0.062-0.289 0.033-0.384 0.046-0.046 0.046-0.121 0-0.167s-0.121-0.046-0.167 0c-0.192 0.192-0.146 0.391-0.096 0.602-0.151-0.049-0.308-0.013-0.393 0.093-0.042 0.053-0.123 0.201 0.029 0.439 0.035 0.055 0.108 0.071 0.163 0.036s0.071-0.108 0.036-0.164c-0.057-0.089-0.058-0.144-0.043-0.165 0.019-0.024 0.077-0.036 0.138-0.015 0.039 0.014 0.131 0.061 0.131 0.203 0 0.114-0.053 0.218-0.144 0.286s-0.211 0.087-0.326 0.052c-0.142-0.043-0.241-0.192-0.241-0.363 0-0.122 0.026-0.245 0.074-0.353 0.008-0.016 0.189-0.391 0.235-0.531 0.092-0.276-0.002-0.415-0.065-0.473-0.086-0.078-0.211-0.097-0.318-0.050-0.016 0.007-0.030 0.018-0.044 0.027-0.014-0.010-0.028-0.020-0.044-0.027-0.108-0.047-0.233-0.028-0.318 0.050-0.064 0.058-0.158 0.197-0.065 0.473 0.047 0.14 0.228 0.515 0.234 0.527 0.050 0.111 0.076 0.235 0.076 0.357 0 0.171-0.099 0.32-0.241 0.363-0.115 0.036-0.234 0.017-0.326-0.052s-0.144-0.172-0.144-0.286c0-0.143 0.091-0.19 0.131-0.203 0.061-0.021 0.119-0.009 0.138 0.015 0.016 0.020 0.014 0.075-0.043 0.165-0.035 0.055-0.019 0.128 0.036 0.164s0.129 0.019 0.163-0.036c0.151-0.237 0.071-0.386 0.029-0.439-0.084-0.106-0.241-0.143-0.393-0.093 0.050-0.211 0.095-0.41-0.097-0.602-0.046-0.046-0.121-0.046-0.167 0s-0.046 0.121 0 0.167c0.095 0.095 0.083 0.173 0.032 0.384-0.030 0.127-0.067 0.285-0.067 0.479 0 0.13 0.046 0.254 0.122 0.355h-0.004c-0.065 0-0.118 0.053-0.118 0.118s0.053 0.118 0.118 0.118h0.004c-0.077 0.102-0.122 0.226-0.122 0.355 0 0.195 0.037 0.353 0.067 0.479 0.050 0.211 0.062 0.289-0.032 0.384-0.046 0.046-0.046 0.121 0 0.167 0.023 0.023 0.053 0.035 0.084 0.035s0.061-0.012 0.084-0.035c0.192-0.192 0.146-0.391 0.097-0.602 0.151 0.049 0.308 0.013 0.392-0.093 0.042-0.053 0.123-0.201-0.029-0.439-0.035-0.055-0.108-0.071-0.163-0.036s-0.071 0.108-0.036 0.164c0.057 0.089 0.058 0.144 0.043 0.165-0.019 0.024-0.077 0.036-0.138 0.015-0.039-0.014-0.131-0.061-0.131-0.203 0-0.114 0.053-0.218 0.144-0.286s0.211-0.087 0.326-0.052c0.142 0.043 0.241 0.192 0.241 0.363 0 0.122-0.026 0.245-0.076 0.357l-0.776 1.745c-0.064 0.143-0.096 0.296-0.096 0.453 0 0.202 0.092 0.387 0.236 0.499-0.145 0.113-0.236 0.297-0.236 0.499 0 0.157 0.032 0.309 0.096 0.453l0.776 1.745c0.050 0.111 0.076 0.235 0.076 0.357 0 0.171-0.099 0.32-0.241 0.363-0.115 0.036-0.234 0.017-0.326-0.052s-0.144-0.172-0.144-0.286c0-0.143 0.091-0.19 0.131-0.203 0.061-0.021 0.119-0.009 0.138 0.015 0.016 0.020 0.014 0.075-0.043 0.165-0.035 0.055-0.019 0.128 0.036 0.164s0.129 0.019 0.163-0.036c0.151-0.237 0.071-0.386 0.029-0.439-0.084-0.106-0.241-0.143-0.393-0.093 0.050-0.211 0.095-0.41-0.097-0.602-0.046-0.046-0.121-0.046-0.167 0s-0.046 0.121 0 0.167c0.095 0.095 0.083 0.173 0.032 0.384-0.030 0.127-0.067 0.285-0.067 0.479 0 0.13 0.046 0.254 0.122 0.355h-0.004c-0.065 0-0.118 0.053-0.118 0.118s0.053 0.118 0.118 0.118h0.004c-0.077 0.102-0.122 0.226-0.122 0.355 0 0.195 0.037 0.353 0.067 0.48 0.050 0.211 0.062 0.289-0.032 0.384-0.046 0.046-0.046 0.121 0 0.167 0.023 0.023 0.053 0.035 0.084 0.035s0.061-0.012 0.084-0.035c0.192-0.192 0.146-0.391 0.097-0.602 0.151 0.049 0.308 0.013 0.392-0.093 0.042-0.053 0.123-0.201-0.029-0.439-0.035-0.055-0.108-0.071-0.163-0.036s-0.071 0.108-0.036 0.163c0.057 0.089 0.058 0.144 0.043 0.165-0.019 0.024-0.077 0.036-0.138 0.015-0.039-0.014-0.131-0.061-0.131-0.203 0-0.114 0.053-0.218 0.144-0.286s0.211-0.087 0.326-0.052c0.142 0.043 0.241 0.192 0.241 0.363 0 0.122-0.026 0.245-0.076 0.357l-0.776 1.745c-0.064 0.143-0.096 0.296-0.096 0.453 0 0.202 0.092 0.387 0.236 0.499-0.145 0.113-0.236 0.297-0.236 0.499 0 0.157 0.032 0.309 0.096 0.453l0.776 1.745c0.050 0.111 0.076 0.235 0.076 0.357 0 0.171-0.099 0.32-0.241 0.363-0.115 0.036-0.234 0.016-0.326-0.052s-0.144-0.172-0.144-0.286c0-0.142 0.091-0.19 0.131-0.203 0.061-0.021 0.119-0.009 0.138 0.015 0.016 0.020 0.014 0.075-0.043 0.165-0.035 0.055-0.019 0.128 0.036 0.163s0.129 0.019 0.163-0.036c0.151-0.237 0.071-0.386 0.029-0.439-0.084-0.106-0.241-0.143-0.393-0.093 0.050-0.211 0.095-0.41-0.097-0.602-0.046-0.046-0.121-0.046-0.167 0s-0.046 0.121 0 0.167c0.095 0.095 0.083 0.173 0.032 0.384-0.030 0.127-0.067 0.285-0.067 0.479 0 0.186 0.089 0.362 0.238 0.474-0.149 0.111-0.238 0.288-0.238 0.474 0 0.195 0.037 0.353 0.067 0.48 0.050 0.211 0.062 0.289-0.032 0.384-0.046 0.046-0.046 0.121 0 0.167 0.023 0.023 0.053 0.035 0.084 0.035s0.061-0.012 0.084-0.035c0.192-0.192 0.146-0.391 0.097-0.602 0.151 0.049 0.308 0.013 0.392-0.093 0.042-0.053 0.123-0.201-0.029-0.439-0.035-0.055-0.108-0.071-0.163-0.036s-0.071 0.108-0.036 0.163c0.057 0.089 0.058 0.144 0.043 0.165-0.019 0.024-0.077 0.036-0.138 0.015-0.039-0.014-0.131-0.061-0.131-0.203 0-0.114 0.053-0.218 0.144-0.286s0.211-0.087 0.326-0.052c0.142 0.043 0.241 0.192 0.241 0.363 0 0.122-0.026 0.245-0.074 0.353-0.008 0.016-0.189 0.391-0.235 0.531-0.092 0.276 0.002 0.415 0.065 0.474 0.055 0.050 0.125 0.076 0.197 0.076 0.041 0 0.082-0.009 0.121-0.026 0.016-0.007 0.030-0.018 0.044-0.027 0.014 0.010 0.028 0.020 0.044 0.027 0.039 0.017 0.080 0.026 0.121 0.026 0.072 0 0.142-0.026 0.197-0.076 0.064-0.058 0.158-0.197 0.065-0.474-0.047-0.14-0.228-0.515-0.234-0.527-0.050-0.111-0.076-0.235-0.076-0.357 0-0.171 0.099-0.32 0.241-0.363 0.115-0.036 0.234-0.016 0.326 0.052s0.144 0.172 0.144 0.286c0 0.142-0.091 0.19-0.131 0.203-0.061 0.021-0.119 0.009-0.138-0.015-0.016-0.020-0.014-0.075 0.043-0.165 0.035-0.055 0.019-0.128-0.036-0.163s-0.128-0.018-0.163 0.036c-0.151 0.237-0.071 0.386-0.029 0.439 0.084 0.106 0.241 0.143 0.393 0.093-0.050 0.211-0.095 0.41 0.096 0.602 0.023 0.023 0.053 0.035 0.084 0.035s0.061-0.012 0.084-0.035c0.046-0.046 0.046-0.121 0-0.167-0.095-0.095-0.083-0.173-0.033-0.384 0.030-0.127 0.067-0.285 0.067-0.48 0-0.186-0.089-0.362-0.238-0.474 0.149-0.111 0.238-0.288 0.238-0.474 0-0.195-0.037-0.353-0.067-0.48-0.050-0.211-0.062-0.289 0.033-0.384 0.046-0.046 0.046-0.121 0-0.167s-0.121-0.046-0.167 0c-0.192 0.192-0.146 0.391-0.096 0.602-0.151-0.049-0.308-0.013-0.393 0.093-0.042 0.053-0.123 0.201 0.029 0.439 0.035 0.055 0.108 0.071 0.163 0.036s0.071-0.108 0.036-0.163c-0.057-0.089-0.058-0.144-0.043-0.165 0.019-0.024 0.077-0.036 0.138-0.015 0.039 0.014 0.131 0.061 0.131 0.203 0 0.114-0.053 0.218-0.144 0.286s-0.211 0.087-0.326 0.052c-0.142-0.043-0.241-0.192-0.241-0.363 0-0.122 0.026-0.245 0.076-0.357l0.776-1.745c0.064-0.143 0.096-0.296 0.096-0.453 0-0.202-0.092-0.387-0.236-0.499 0.145-0.113 0.236-0.297 0.236-0.499 0-0.157-0.032-0.309-0.096-0.453l-0.776-1.745c-0.050-0.111-0.076-0.235-0.076-0.357 0-0.171 0.099-0.32 0.241-0.363 0.115-0.036 0.234-0.016 0.326 0.052s0.144 0.172 0.144 0.286c0 0.142-0.091 0.19-0.131 0.203-0.061 0.021-0.119 0.009-0.138-0.015-0.016-0.020-0.014-0.075 0.043-0.165 0.035-0.055 0.019-0.128-0.036-0.163s-0.128-0.018-0.163 0.036c-0.151 0.237-0.071 0.386-0.029 0.439 0.084 0.106 0.241 0.143 0.393 0.093-0.050 0.211-0.095 0.41 0.096 0.602 0.023 0.023 0.053 0.035 0.084 0.035s0.061-0.012 0.084-0.035c0.046-0.046 0.046-0.121 0-0.167-0.095-0.095-0.083-0.173-0.033-0.384 0.030-0.127 0.067-0.285 0.067-0.48 0-0.13-0.046-0.253-0.122-0.355h0.004c0.065 0 0.118-0.053 0.118-0.118s-0.053-0.118-0.118-0.118h-0.004c0.077-0.102 0.122-0.226 0.122-0.355 0-0.195-0.037-0.353-0.067-0.479-0.050-0.211-0.062-0.289 0.033-0.384 0.046-0.046 0.046-0.121 0-0.167s-0.121-0.046-0.167 0c-0.192 0.192-0.146 0.391-0.096 0.602-0.151-0.049-0.308-0.013-0.393 0.093-0.042 0.053-0.123 0.201 0.029 0.439 0.035 0.055 0.108 0.071 0.163 0.036s0.071-0.108 0.036-0.164c-0.057-0.089-0.058-0.144-0.043-0.165 0.019-0.024 0.077-0.036 0.138-0.015 0.039 0.014 0.131 0.061 0.131 0.203 0 0.114-0.053 0.218-0.144 0.286s-0.211 0.087-0.326 0.052c-0.142-0.043-0.241-0.192-0.241-0.363 0-0.122 0.026-0.245 0.076-0.357l0.776-1.745c0.064-0.143 0.096-0.296 0.096-0.453 0-0.202-0.092-0.387-0.236-0.499 0.145-0.113 0.236-0.297 0.236-0.499 0-0.157-0.032-0.309-0.096-0.453l-0.776-1.745c-0.050-0.111-0.076-0.235-0.076-0.357 0-0.171 0.099-0.32 0.241-0.363 0.115-0.036 0.234-0.016 0.326 0.052s0.144 0.172 0.144 0.286c0 0.143-0.091 0.19-0.131 0.203-0.061 0.021-0.119 0.009-0.138-0.015-0.016-0.020-0.014-0.075 0.043-0.165 0.035-0.055 0.019-0.128-0.036-0.164s-0.128-0.019-0.163 0.036c-0.151 0.237-0.071 0.386-0.029 0.439 0.084 0.106 0.241 0.143 0.393 0.093-0.050 0.211-0.095 0.41 0.096 0.602 0.023 0.023 0.053 0.035 0.084 0.035s0.061-0.012 0.084-0.035c0.046-0.046 0.046-0.121 0-0.167-0.095-0.095-0.083-0.173-0.033-0.384 0.030-0.127 0.067-0.285 0.067-0.479 0-0.13-0.046-0.254-0.122-0.355h0.004c0.065 0 0.118-0.053 0.118-0.118s-0.053-0.118-0.118-0.118h-0.004c0.077-0.102 0.122-0.226 0.122-0.355-0-0.195-0.038-0.353-0.067-0.48zM2.518 7.523c-0.042-0.126-0.027-0.198 0-0.223 0.018-0.017 0.046-0.016 0.063-0.009 0.021 0.010 0.021 0.025 0.021 0.032 0 0.065 0.053 0.118 0.118 0.118s0.118-0.053 0.118-0.118c0-0.007 0-0.022 0.021-0.032 0.017-0.008 0.044-0.009 0.063 0.009 0.028 0.025 0.042 0.097 0 0.223-0.031 0.092-0.141 0.33-0.203 0.459-0.060-0.126-0.172-0.367-0.203-0.459zM2.721 12.41c0.034 0.046 0.072 0.089 0.119 0.124-0.047 0.035-0.085 0.078-0.119 0.124-0.034-0.046-0.072-0.089-0.119-0.124 0.047-0.035 0.085-0.078 0.119-0.124zM2.721 19.516c0.034 0.046 0.072 0.089 0.119 0.124-0.047 0.035-0.085 0.078-0.119 0.124-0.034-0.046-0.072-0.089-0.119-0.124 0.047-0.035 0.085-0.078 0.119-0.124zM2.924 24.651c0.042 0.126 0.027 0.198-0 0.223-0.019 0.017-0.046 0.016-0.063 0.009-0.021-0.009-0.021-0.024-0.021-0.032 0-0.065-0.053-0.118-0.118-0.118s-0.118 0.053-0.118 0.118c0 0.007 0 0.022-0.021 0.032-0.017 0.008-0.045 0.008-0.063-0.009-0.028-0.025-0.042-0.097-0-0.223 0.031-0.092 0.141-0.33 0.203-0.459 0.061 0.126 0.172 0.367 0.203 0.459zM2.839 23.193c-0.045 0.035-0.085 0.077-0.118 0.124-0.033-0.047-0.073-0.089-0.118-0.124 0.045-0.035 0.085-0.077 0.118-0.124 0.033 0.047 0.073 0.089 0.118 0.124zM3.474 20.496l-0.753 1.695-0.753-1.695c-0.050-0.111-0.076-0.235-0.076-0.357 0-0.171 0.099-0.32 0.241-0.363 0.115-0.036 0.234-0.016 0.326 0.052s0.144 0.172 0.144 0.286c0 0.142-0.091 0.19-0.131 0.203-0.061 0.021-0.119 0.009-0.138-0.015-0.016-0.020-0.014-0.075 0.043-0.165 0.035-0.055 0.019-0.128-0.036-0.163s-0.128-0.018-0.163 0.036c-0.151 0.237-0.071 0.386-0.029 0.439 0.086 0.108 0.247 0.145 0.401 0.092 0.018-0.006 0.035-0.014 0.053-0.023v0.299c0-0-0-0-0-0-0.004-0.062-0.055-0.112-0.118-0.112-0.065 0-0.118 0.053-0.118 0.118 0 0.077 0.054 0.211 0.237 0.253v0.221c0 0.065 0.053 0.118 0.118 0.118s0.118-0.053 0.118-0.118v-0.221c0.183-0.041 0.237-0.175 0.237-0.253 0-0.065-0.053-0.122-0.118-0.122s-0.118 0.049-0.118 0.114c-0 0-0 0-0.001 0.001v-0.299c0.018 0.009 0.035 0.017 0.053 0.023 0.154 0.054 0.316 0.017 0.401-0.092 0.042-0.053 0.123-0.201-0.029-0.439-0.035-0.055-0.108-0.071-0.163-0.036s-0.071 0.108-0.036 0.163c0.057 0.089 0.058 0.144 0.043 0.165-0.019 0.024-0.077 0.036-0.138 0.015-0.039-0.014-0.131-0.061-0.131-0.203 0-0.114 0.053-0.218 0.144-0.286s0.211-0.087 0.326-0.052c0.142 0.043 0.241 0.192 0.241 0.363 0 0.122-0.026 0.245-0.076 0.357zM3.474 18.784c0.050 0.111 0.076 0.235 0.076 0.357 0 0.171-0.099 0.32-0.241 0.363-0.115 0.036-0.234 0.016-0.326-0.052s-0.144-0.172-0.144-0.286c0-0.142 0.091-0.19 0.131-0.203 0.061-0.021 0.119-0.009 0.138 0.015 0.016 0.020 0.014 0.075-0.043 0.165-0.035 0.055-0.019 0.128 0.036 0.163s0.129 0.019 0.163-0.036c0.151-0.237 0.071-0.386 0.029-0.439-0.086-0.108-0.247-0.145-0.401-0.092-0.018 0.006-0.035 0.014-0.053 0.023v-0.3l0 0c0.004 0.062 0.055 0.111 0.118 0.111 0.065 0 0.118-0.053 0.118-0.118 0-0.077-0.054-0.211-0.237-0.253v-0.221c0-0.065-0.053-0.118-0.118-0.118s-0.118 0.053-0.118 0.118v0.221c-0.183 0.041-0.237 0.175-0.237 0.253 0 0.065 0.053 0.122 0.118 0.122s0.118-0.049 0.118-0.114c0-0 0-0 0-0l0 0.299c-0.018-0.009-0.035-0.017-0.053-0.023-0.154-0.053-0.316-0.017-0.401 0.092-0.042 0.053-0.123 0.201 0.029 0.439 0.035 0.055 0.108 0.071 0.163 0.036s0.071-0.108 0.036-0.163c-0.057-0.089-0.058-0.144-0.043-0.165 0.019-0.024 0.077-0.036 0.138-0.015 0.039 0.014 0.131 0.061 0.131 0.203 0 0.114-0.053 0.218-0.144 0.286s-0.211 0.087-0.326 0.052c-0.142-0.043-0.241-0.192-0.241-0.363 0-0.122 0.026-0.245 0.076-0.357l0.753-1.695 0.753 1.695zM2.839 16.087c-0.045 0.035-0.085 0.077-0.118 0.124-0.033-0.047-0.073-0.089-0.118-0.124 0.045-0.035 0.085-0.077 0.118-0.124 0.033 0.047 0.073 0.089 0.118 0.124zM3.474 13.39l-0.753 1.695-0.753-1.695c-0.050-0.111-0.076-0.235-0.076-0.357 0-0.171 0.099-0.32 0.241-0.363 0.115-0.036 0.234-0.016 0.326 0.052s0.144 0.172 0.144 0.286c0 0.143-0.091 0.19-0.131 0.203-0.061 0.021-0.119 0.009-0.138-0.015-0.016-0.020-0.014-0.075 0.043-0.165 0.035-0.055 0.019-0.128-0.036-0.164s-0.128-0.019-0.163 0.036c-0.151 0.237-0.071 0.386-0.029 0.439 0.086 0.108 0.247 0.145 0.401 0.092 0.018-0.006 0.035-0.014 0.053-0.023v0.3l-0-0c-0.004-0.062-0.055-0.111-0.118-0.111-0.065 0-0.118 0.053-0.118 0.118 0 0.077 0.054 0.211 0.237 0.253v0.221c0 0.065 0.053 0.118 0.118 0.118s0.118-0.053 0.118-0.118v-0.221c0.183-0.041 0.237-0.175 0.237-0.253 0-0.065-0.053-0.122-0.118-0.122s-0.118 0.049-0.118 0.114c-0 0-0 0.001-0 0.001l-0-0.299c0.018 0.009 0.035 0.017 0.053 0.023 0.154 0.054 0.316 0.017 0.401-0.092 0.042-0.053 0.123-0.201-0.029-0.439-0.035-0.055-0.108-0.071-0.163-0.036s-0.071 0.108-0.036 0.164c0.057 0.089 0.058 0.144 0.043 0.165-0.019 0.024-0.077 0.036-0.138 0.015-0.039-0.014-0.131-0.061-0.131-0.203 0-0.114 0.053-0.218 0.144-0.286s0.211-0.087 0.326-0.052c0.142 0.043 0.241 0.192 0.241 0.363 0 0.122-0.026 0.245-0.076 0.357zM3.474 11.678c0.050 0.111 0.076 0.235 0.076 0.357 0 0.171-0.099 0.32-0.241 0.363-0.115 0.036-0.234 0.016-0.326-0.052s-0.144-0.172-0.144-0.286c0-0.143 0.091-0.19 0.131-0.203 0.061-0.021 0.119-0.009 0.138 0.015 0.016 0.020 0.014 0.075-0.043 0.165-0.035 0.055-0.019 0.128 0.036 0.164s0.129 0.019 0.163-0.036c0.151-0.237 0.071-0.386 0.029-0.439-0.086-0.108-0.247-0.145-0.401-0.092-0.018 0.006-0.035 0.014-0.053 0.023v-0.3c0 0 0 0 0 0 0.004 0.062 0.055 0.112 0.118 0.112 0.065 0 0.118-0.053 0.118-0.118 0-0.077-0.054-0.211-0.237-0.253v-0.221c0-0.065-0.053-0.118-0.118-0.118s-0.118 0.053-0.118 0.118v0.221c-0.183 0.041-0.237 0.175-0.237 0.253 0 0.065 0.053 0.122 0.118 0.122s0.118-0.049 0.118-0.114c0-0 0-0.001 0.001-0.001v0.299c-0.018-0.009-0.035-0.017-0.053-0.023-0.154-0.054-0.316-0.017-0.401 0.092-0.042 0.053-0.123 0.201 0.029 0.439 0.035 0.055 0.108 0.071 0.163 0.036s0.071-0.108 0.036-0.164c-0.057-0.089-0.058-0.144-0.043-0.165 0.019-0.024 0.077-0.036 0.138-0.015 0.039 0.014 0.131 0.061 0.131 0.203 0 0.114-0.053 0.218-0.144 0.286s-0.211 0.087-0.326 0.052c-0.142-0.043-0.241-0.192-0.241-0.363 0-0.122 0.026-0.245 0.076-0.357l0.753-1.695 0.753 1.695zM2.603 8.981c0.045-0.035 0.085-0.077 0.118-0.124 0.033 0.047 0.073 0.089 0.118 0.124-0.045 0.035-0.085 0.077-0.118 0.124-0.033-0.047-0.073-0.089-0.118-0.124z"/><path fill="#ffe15a" d="M19.772 14.689c0 1.574-1.276 2.85-2.85 2.85s-2.85-1.276-2.85-2.85c0-1.574 1.276-2.85 2.85-2.85s2.85 1.276 2.85 2.85z"/><path fill="#ffe15a" d="M17.135 11.055c0 0.118-0.096 0.214-0.214 0.214s-0.214-0.096-0.214-0.214 0.214-0.641 0.214-0.641 0.214 0.523 0.214 0.641z"/><path fill="#ffe15a" d="M16.708 18.324c0-0.118 0.096-0.214 0.214-0.214s0.214 0.096 0.214 0.214-0.214 0.641-0.214 0.641-0.214-0.523-0.214-0.641z"/><path fill="#ffe15a" d="M20.556 14.903c-0.118 0-0.214-0.096-0.214-0.214s0.096-0.214 0.214-0.214c0.118 0 0.641 0.214 0.641 0.214s-0.523 0.214-0.641 0.214z"/><path fill="#ffe15a" d="M13.287 14.476c0.118 0 0.214 0.096 0.214 0.214s-0.096 0.214-0.214 0.214-0.641-0.214-0.641-0.214 0.523-0.214 0.641-0.214z"/><path fill="#ffe15a" d="M19.643 12.271c-0.084 0.084-0.219 0.084-0.302 0s-0.084-0.219 0-0.302 0.605-0.302 0.605-0.302-0.219 0.521-0.302 0.605z"/><path fill="#ffe15a" d="M14.201 17.108c0.084-0.084 0.219-0.084 0.302 0s0.084 0.219 0 0.302-0.605 0.302-0.605 0.302 0.219-0.521 0.302-0.605z"/><path fill="#ffe15a" d="M19.34 17.411c-0.084-0.084-0.084-0.219 0-0.302s0.219-0.084 0.302 0 0.302 0.605 0.302 0.605-0.521-0.219-0.605-0.302z"/><path fill="#ffe15a" d="M14.503 11.968c0.084 0.084 0.084 0.219 0 0.302s-0.219 0.084-0.302 0-0.302-0.605-0.302-0.605 0.521 0.219 0.605 0.302z"/><path fill="#ffe15a" d="M15.728 11.25c0.045 0.109-0.007 0.234-0.116 0.279s-0.234-0.007-0.279-0.116c-0.045-0.109-0.048-0.674-0.048-0.674s0.398 0.402 0.443 0.511z"/><path fill="#ffe15a" d="M18.115 18.129c-0.045-0.109 0.007-0.234 0.116-0.279s0.234 0.007 0.279 0.116 0.048 0.674 0.048 0.674-0.398-0.402-0.443-0.511z"/><path fill="#ffe15a" d="M20.361 13.496c-0.109 0.045-0.234-0.007-0.279-0.116s0.007-0.234 0.116-0.279c0.109-0.045 0.674-0.048 0.674-0.048s-0.402 0.398-0.511 0.443z"/><path fill="#ffe15a" d="M13.482 15.883c0.109-0.045 0.234 0.007 0.279 0.116s-0.007 0.234-0.116 0.279-0.674 0.048-0.674 0.048 0.402-0.398 0.511-0.443z"/><path fill="#ffe15a" d="M18.51 11.414c-0.045 0.109-0.17 0.161-0.279 0.116s-0.161-0.17-0.116-0.279c0.045-0.109 0.443-0.511 0.443-0.511s-0.003 0.565-0.048 0.674z"/><path fill="#ffe15a" d="M15.333 17.966c0.045-0.109 0.17-0.161 0.279-0.116s0.161 0.17 0.116 0.279c-0.045 0.109-0.443 0.511-0.443 0.511s0.003-0.565 0.048-0.674z"/><path fill="#ffe15a" d="M20.198 16.278c-0.109-0.045-0.161-0.17-0.116-0.279s0.17-0.161 0.279-0.116 0.511 0.443 0.511 0.443-0.565-0.003-0.674-0.048z"/><path fill="#ffe15a" d="M13.646 13.101c0.109 0.045 0.161 0.17 0.116 0.279s-0.17 0.161-0.279 0.116c-0.109-0.045-0.511-0.443-0.511-0.443s0.565 0.003 0.674 0.048z"/><path fill="#ffe15a" d="M16.422 11.083c0.023 0.116-0.052 0.228-0.168 0.251s-0.228-0.052-0.251-0.168c-0.023-0.116 0.085-0.671 0.085-0.671s0.312 0.472 0.335 0.587z"/><path fill="#ffe15a" d="M17.421 18.296c-0.023-0.116 0.052-0.228 0.168-0.251s0.228 0.052 0.251 0.168c0.023 0.116-0.085 0.671-0.085 0.671s-0.312-0.472-0.335-0.587z"/><path fill="#ffe15a" d="M20.528 14.19c-0.116 0.023-0.228-0.052-0.251-0.168s0.052-0.228 0.168-0.251c0.116-0.023 0.671 0.085 0.671 0.085s-0.472 0.312-0.587 0.335z"/><path fill="#ffe15a" d="M13.315 15.189c0.116-0.023 0.228 0.052 0.251 0.168s-0.052 0.228-0.168 0.251c-0.116 0.023-0.671-0.085-0.671-0.085s0.472-0.312 0.587-0.335z"/><path fill="#ffe15a" d="M19.119 11.786c-0.066 0.098-0.198 0.125-0.297 0.059s-0.125-0.198-0.059-0.297c0.066-0.098 0.534-0.415 0.534-0.415s-0.113 0.554-0.179 0.652z"/><path fill="#ffe15a" d="M14.725 17.593c0.066-0.098 0.198-0.125 0.297-0.059s0.125 0.198 0.059 0.297c-0.066 0.098-0.534 0.415-0.534 0.415s0.113-0.554 0.179-0.652z"/><path fill="#ffe15a" d="M19.825 16.887c-0.098-0.066-0.125-0.198-0.059-0.297s0.198-0.125 0.297-0.059c0.098 0.066 0.415 0.534 0.415 0.534s-0.554-0.113-0.652-0.179z"/><path fill="#ffe15a" d="M14.018 12.493c0.098 0.066 0.125 0.198 0.059 0.297s-0.198 0.125-0.297 0.059-0.415-0.534-0.415-0.534 0.554 0.113 0.652 0.179z"/><path fill="#ffe15a" d="M15.080 11.549c0.066 0.098 0.039 0.231-0.059 0.297s-0.231 0.039-0.297-0.059c-0.066-0.098-0.179-0.652-0.179-0.652s0.469 0.316 0.534 0.414z"/><path fill="#ffe15a" d="M18.763 17.83c-0.066-0.098-0.039-0.231 0.059-0.297s0.231-0.039 0.297 0.059c0.066 0.098 0.179 0.652 0.179 0.652s-0.468-0.316-0.534-0.414z"/><path fill="#ffe15a" d="M20.062 12.848c-0.098 0.066-0.231 0.039-0.297-0.059s-0.039-0.231 0.059-0.297c0.098-0.066 0.652-0.179 0.652-0.179s-0.316 0.469-0.414 0.534z"/><path fill="#ffe15a" d="M13.781 16.531c0.098-0.066 0.231-0.039 0.297 0.059s0.039 0.231-0.059 0.297c-0.098 0.066-0.652 0.179-0.652 0.179s0.316-0.468 0.414-0.534z"/><path fill="#ffe15a" d="M17.84 11.167c-0.023 0.116-0.136 0.191-0.251 0.168s-0.191-0.136-0.168-0.251 0.335-0.587 0.335-0.587 0.108 0.555 0.085 0.671z"/><path fill="#ffe15a" d="M16.003 18.213c0.023-0.116 0.136-0.191 0.251-0.168s0.191 0.136 0.168 0.251c-0.023 0.116-0.335 0.587-0.335 0.587s-0.108-0.555-0.085-0.671z"/><path fill="#ffe15a" d="M20.445 15.608c-0.116-0.023-0.191-0.136-0.168-0.251s0.136-0.191 0.251-0.168 0.587 0.335 0.587 0.335-0.555 0.108-0.671 0.085z"/><path fill="#ffe15a" d="M13.399 13.771c0.116 0.023 0.191 0.136 0.168 0.251s-0.136 0.191-0.251 0.168-0.587-0.335-0.587-0.335 0.555-0.108 0.671-0.085z"/><path fill="#ffe15a" d="M23.627 15.44c-0.084-0.035-0.179 0.005-0.214 0.088 0 0 0 0 0 0-0.001 0.002-0.004 0.009-0.009 0.022-0.124 0.289-0.379 0.71-0.637 1.107 0.24-0.774 0.46-1.601 0.476-1.659 0.023-0.087-0.028-0.176-0.115-0.2s-0.176 0.027-0.2 0.114c-0.112 0.402-0.342 0.931-0.553 1.379 0.039-0.499 0.046-0.962 0.047-0.995 0.001-0.088-0.068-0.162-0.156-0.166-0.083 0.003-0.163 0.063-0.17 0.152-0.209 2.879-2.98 4.167-3.25 4.286-0.141 0.014-0.799 0.088-1.395 0.295-0.068 0.023-0.125 0.047-0.183 0.070-0.021-0.008-0.044-0.012-0.068-0.011-1.831 0.133-3.292-0.619-4.341-2.228-0.793-1.216-1.042-2.493-1.044-2.505-0.017-0.089-0.102-0.146-0.191-0.13-0.089 0.017-0.147 0.102-0.13 0.191 0.007 0.035 0.116 0.592 0.416 1.326-0.402-0.635-0.682-1.404-0.781-1.804-0.002-0.008-0.007-0.014-0.010-0.021-0.005-0.011-0.008-0.023-0.015-0.033-0.005-0.007-0.011-0.012-0.017-0.018-0.009-0.009-0.018-0.019-0.028-0.026-0.006-0.004-0.013-0.006-0.020-0.009-0.012-0.006-0.024-0.011-0.037-0.014-0.009-0.002-0.019-0.001-0.028-0.001s-0.019-0.003-0.029-0.001c-0.002 0-0.004 0.002-0.006 0.002s-0.004-0-0.006 0c-0.009 0.002-0.015 0.008-0.023 0.011-0.010 0.004-0.021 0.008-0.030 0.014s-0.015 0.014-0.023 0.021c-0.007 0.008-0.015 0.014-0.021 0.023s-0.009 0.019-0.013 0.029c-0.004 0.010-0.008 0.019-0.011 0.029s-0.001 0.021-0.001 0.033c0 0.009-0.002 0.017-0.001 0.026 0.001 0.004 0.002 0.008 0.003 0.011v0.001c0 0.001 0 0.002 0.001 0.002 0.101 0.596 0.342 1.213 0.56 1.684-0.346-0.393-0.635-0.845-0.738-1.113-0.003-0.008-0.009-0.013-0.013-0.020-0.006-0.011-0.011-0.022-0.020-0.031-0.006-0.006-0.013-0.011-0.020-0.016-0.010-0.008-0.019-0.016-0.031-0.022-0.007-0.004-0.015-0.005-0.023-0.007-0.012-0.004-0.024-0.008-0.037-0.008-0.010-0.001-0.020 0.002-0.030 0.003s-0.019 0-0.028 0.003c-0.002 0.001-0.003 0.002-0.005 0.003s-0.004 0-0.005 0.001c-0.009 0.003-0.015 0.010-0.023 0.015-0.009 0.005-0.019 0.010-0.027 0.017s-0.014 0.016-0.020 0.025c-0.006 0.008-0.013 0.015-0.017 0.025s-0.006 0.020-0.009 0.030c-0.003 0.010-0.006 0.019-0.007 0.030s0.002 0.021 0.003 0.032c0.001 0.009-0 0.018 0.003 0.028 0.178 0.574 0.606 1.256 0.941 1.737-0.279-0.215-0.485-0.448-0.544-0.518-0.006-0.008-0.013-0.015-0.019-0.023-0.058-0.069-0.159-0.079-0.229-0.023s-0.081 0.159-0.024 0.229c0.003 0.004 0.015 0.019 0.036 0.043 0.245 0.292 0.512 0.564 0.755 0.794l-0.331-0.141c-0.075-0.033-0.164-0.003-0.206 0.069s-0.023 0.163 0.044 0.213c0.032 0.024 0.619 0.462 1.126 0.721-0.048 0.003-0.104-0.001-0.167-0.005-0.077-0.007-0.152 0.048-0.171 0.125s0.023 0.158 0.097 0.189c0.012 0.005 0.167 0.069 0.358 0.137-0.045 0.018-0.080 0.056-0.095 0.104-0.022 0.073 0.009 0.151 0.075 0.189 0.017 0.010 0.248 0.142 0.534 0.26-0.008 0.012-0.014 0.025-0.019 0.039-0.022 0.069 0.003 0.144 0.063 0.185 0.050 0.034 1.16 0.788 2.457 0.788 0.085 0 0.171-0.003 0.258-0.010 0.090-0.007 0.157-0.086 0.15-0.176s-0.085-0.158-0.176-0.15c-0.815 0.066-1.599-0.239-2.066-0.473 0.062-0.015 0.097-0.029 0.106-0.032 0.072-0.029 0.114-0.105 0.099-0.181s-0.080-0.132-0.158-0.134c-0.19-0.004-0.452-0.096-0.678-0.195 0.085-0.043 0.135-0.084 0.14-0.087 0.049-0.041 0.070-0.107 0.053-0.169s-0.068-0.108-0.132-0.118c-0.069-0.012-0.156-0.034-0.247-0.061 0.088-0.051 0.126-0.107 0.14-0.135 0.023-0.045 0.023-0.098 0.001-0.144s-0.063-0.079-0.113-0.089c-0.043-0.009-0.091-0.025-0.143-0.045 0.010-0.010 0.018-0.020 0.025-0.033 0.042-0.071 0.024-0.161-0.040-0.212-0.003-0.003-0.13-0.102-0.322-0.268 0.030-0.011 0.057-0.032 0.077-0.060 0.041-0.059 0.038-0.139-0.007-0.195-0.004-0.005-0.131-0.164-0.306-0.407 0.058 0.045 0.116 0.091 0.173 0.128 0.027 0.017 0.058 0.026 0.088 0.026 0.041 0 0.082-0.016 0.114-0.046 0.013-0.012 0.023-0.027 0.031-0.042 0.099 0.106 0.203 0.202 0.313 0.284 0.014 0.011 0.032 0.011 0.048 0.016 0.046 0.078 0.095 0.156 0.145 0.233 0.993 1.527 2.392 2.346 4.071 2.395-0.155 0.094-0.322 0.191-0.588 0.294-0.058 0.023-0.109 0.045-0.161 0.068-0.025 0.005-0.048 0.014-0.068 0.029-0.464 0.215-0.656 0.427-0.734 0.575s-0.011 0.299 0.084 0.377c0.030 0.024 0.067 0.037 0.105 0.037 0.026 0 0.052-0.006 0.075-0.018 0.058-0.029 0.096-0.090 0.094-0.154 0.007-0.007 0.035-0.031 0.124-0.034 0.065-0.005 0.202 0.009 0.361 0.022 0.152 0.012 0.334 0.027 0.527 0.037-0.121 0.141-0.262 0.305-0.262 0.305-0.042 0.049-0.052 0.119-0.023 0.177s0.089 0.095 0.153 0.093c0.129-0.005 0.217-0.007 0.275-0.008 0.050 0.066 0.112 0.092 0.152 0.102 0.112 0.029 0.224-0.016 0.309-0.070 0.064 0.046 0.128 0.065 0.178 0.073 0.114 0.016 0.22-0.018 0.296-0.055 0.079 0.051 0.157 0.064 0.216 0.064 0.001 0 0.002 0 0.003 0 0.128-0.001 0.239-0.062 0.318-0.123 0.070 0.041 0.137 0.055 0.188 0.057 0.117 0.004 0.214-0.041 0.279-0.083 0.23 0.046 0.429-0.062 0.56-0.182 0.060 0.035 0.117 0.043 0.162 0.041 0.117-0.004 0.206-0.075 0.263-0.139 0.261 0.032 0.449-0.017 0.557-0.145 0.059-0.070 0.083-0.149 0.090-0.221 0.725-0.004 0.79-0.4 0.796-0.449 0.005-0.044-0.009-0.089-0.038-0.123s-0.070-0.055-0.115-0.058l-1.9-0.114c-0.079-0.006-0.15 0.048-0.169 0.125-0 0.001-0.033 0.122-0.134 0.218-0.136 0.13-0.356 0.199-0.595 0.235 0.001-0.022-0.002-0.044-0.011-0.066-0.033-0.084-0.127-0.125-0.211-0.093-0.392 0.152-1.027 0.133-1.524 0.099 0.076-0.062 0.168-0.124 0.241-0.164 0.062-0.034 0.095-0.104 0.082-0.174-0.009-0.051-0.046-0.086-0.090-0.108 0.138-0.070 0.251-0.137 0.359-0.203 0.186-0.114 0.363-0.222 0.684-0.333 0.619-0.215 1.336-0.281 1.343-0.281 0.016-0.001 0.032-0.005 0.047-0.012 0.026-0.011 2.047-0.858 3-2.812-0.012 0.059-0.026 0.113-0.040 0.16-0.025 0.081 0.015 0.166 0.093 0.199 0.060 0.025 0.128 0.012 0.174-0.031-0.060 0.159-0.115 0.284-0.159 0.357-0.045 0.075-0.023 0.172 0.049 0.221 0.017 0.011 0.035 0.019 0.054 0.023-0.074 0.108-0.148 0.21-0.223 0.304-0.050 0.062-0.047 0.151 0.005 0.21-0.128 0.134-0.241 0.245-0.328 0.315-0.056 0.046-0.075 0.122-0.049 0.187-0.083 0.048-0.151 0.081-0.199 0.095-0.079 0.024-0.128 0.104-0.113 0.186 0.008 0.043 0.032 0.079 0.066 0.103-0.1 0.027-0.209 0.053-0.328 0.076-0.067 0.013-0.119 0.067-0.129 0.134s0.021 0.134 0.080 0.168c0.005 0.003 0.061 0.035 0.146 0.071-0.316 0.127-0.881 0.294-1.807 0.385-0.090 0.009-0.155 0.089-0.147 0.179s0.086 0.152 0.179 0.147c1.759-0.174 2.302-0.614 2.324-0.633 0.051-0.043 0.071-0.112 0.051-0.175-0.013-0.042-0.043-0.076-0.081-0.095 0.562-0.177 0.803-0.373 0.816-0.383 0.062-0.051 0.077-0.14 0.037-0.209s-0.126-0.099-0.2-0.069c-0.021 0.008-0.054 0.016-0.096 0.025 0.377-0.258 0.777-0.566 0.954-0.703 0.031-0.023 0.059-0.045 0.084-0.066 0.068-0.057 0.078-0.159 0.021-0.228s-0.158-0.081-0.228-0.025c-0.026 0.020-0.052 0.041-0.079 0.062-0.081 0.060-0.185 0.129-0.299 0.199 0.428-0.486 0.859-1.013 0.982-1.164 0.011-0.014 0.022-0.027 0.033-0.041 0.056-0.070 0.046-0.173-0.025-0.23s-0.173-0.046-0.23 0.024l-0 0-0 0c-0.003 0.003-0.017 0.021-0.040 0.049-0.129 0.157-0.265 0.31-0.399 0.452 0.436-0.79 0.766-1.568 0.814-1.683 0.002-0.004 0.003-0.008 0.005-0.012 0.035-0.083-0.005-0.178-0.088-0.213zM15.965 20.95l0.045 0.006c-0.055 0.051-0.099 0.109-0.135 0.168-0.078-0.006-0.148-0.012-0.203-0.014 0.076-0.050 0.174-0.104 0.293-0.159z"/></svg>