<svg xmlns="http://www.w3.org/2000/svg" width="32" height="32" version="1.1" viewBox="0 0 32 32"><title>kosovo</title><path fill="#41479b" d="M31.448 26.483h-30.896c-0.305 0-0.552-0.247-0.552-0.552v-19.862c0-0.305 0.247-0.552 0.552-0.552h30.896c0.305 0 0.552 0.247 0.552 0.552v19.862c-0 0.305-0.247 0.552-0.552 0.552z"/><path fill="#ff9b55" d="M16.707 12.655c-0.319-0.060-0.707-0.466-0.569-0.69s-0.121-0.724-0.431-0.552c-0.31 0.172-0.517 0.379-0.81 0.448s-0.534 0.293-0.31 0.5 0.569 0.621 0.241 1.052-0.224 0.138-0.621 0.328-0.672 0.569-0.552 0.793c0.121 0.224 0.224 0.31-0.121 0.466s-0.5 0.052-0.776 0.121-0.948 0.414-1.155 0.707c-0.207 0.293-0.655 0.017-0.845-0.017s-0.569 0.103-0.655 0.328c-0.086 0.224 0.069 0.431 0.397 0.535s0.466 0.121 0.31 0.397-0.052 0.81 0.207 0.965c0.259 0.155 0.759 0.638 0.759 0.965s-0.069 0.81 0.414 0.879c0.483 0.069 1.224 0.276 1.483 0.724s0.328 0.707 0.379 0.983 0.103 0.5 0.259 0.81 0.259 0.845 0.103 0.965c-0.155 0.121-0.276 0.207-0.155 0.44s0.147 0.319 0.371 0.19c0.224-0.129 0.224 0.009 0.345-0.017s0.672-0.224 0.569-0.491c-0.103-0.267-0.328-0.879-0.009-1.198s0.75-0.371 1.026-0.586 0.733-0.25 1.086-0.595c0.353-0.345 0.733-0.138 0.793 0.103s0.155 0.707 0.431 0.698 0.336-0.009 0.388-0.345c0.052-0.336 0.483-1.086 0.655-0.991s0.328 0.017 0.336-0.129c0.009-0.147 0.336-0.276 0.474-0.069s0.44 0.371 0.431 0.112c-0.009-0.259-0.362-0.224-0.371-0.509s0.285-0.465 0.543-0.586c0.259-0.121 0.103-0.431 0.181-0.603s0.5-0.388 0.517-0.56-0.103-0.241 0.078-0.285c0.181-0.043 0.405-0.121 0.276-0.319s-0.086-0.345 0.052-0.44c0.138-0.095 0.203-0.545 0.001-0.603s-0.565 0.11-0.656 0.221c-0.091 0.11-0.461-0.363-0.636-0.48s-1.305-0.045-1.279-0.24 0.5-0.905 0.293-1.018-0.535-0.276-0.802-0.362-0.207 0.207-0.353-0.026-0.198-1.060-0.362-1.060-0.285 0.345-0.353 0.216 0.026-1.026-0.353-1.043-0.388 0.207-0.603 0.043c-0.216-0.164-0.185-0.090-0.621-0.172z"/><path fill="#f5f5f5" d="M14.365 7.751l-0.286 0.859-0.905 0.007c-0.050 0-0.070 0.064-0.030 0.093l0.728 0.538-0.273 0.863c-0.015 0.047 0.039 0.086 0.079 0.058l0.736-0.526 0.736 0.526c0.040 0.029 0.094-0.010 0.079-0.058l-0.273-0.863 0.728-0.538c0.040-0.029 0.019-0.093-0.030-0.093l-0.905-0.007-0.286-0.859c-0.016-0.047-0.082-0.047-0.098 0z"/><path fill="#f5f5f5" d="M17.554 7.751l-0.286 0.859-0.905 0.007c-0.050 0-0.070 0.064-0.030 0.093l0.728 0.538-0.273 0.863c-0.015 0.047 0.039 0.086 0.079 0.058l0.736-0.526 0.736 0.526c0.040 0.029 0.094-0.010 0.079-0.058l-0.273-0.863 0.728-0.538c0.040-0.029 0.019-0.093-0.030-0.093l-0.905-0.007-0.286-0.859c-0.016-0.047-0.082-0.047-0.098 0z"/><path fill="#f5f5f5" d="M11.218 8.277l-0.286 0.859-0.905 0.007c-0.050 0-0.070 0.064-0.030 0.093l0.728 0.538-0.273 0.863c-0.015 0.047 0.039 0.086 0.079 0.058l0.736-0.526 0.736 0.526c0.040 0.029 0.094-0.010 0.079-0.058l-0.273-0.863 0.728-0.538c0.040-0.029 0.019-0.093-0.030-0.093l-0.905-0.007-0.286-0.859c-0.016-0.047-0.082-0.047-0.098 0z"/><path fill="#f5f5f5" d="M8.241 9.359l-0.286 0.859-0.905 0.007c-0.050 0-0.070 0.064-0.030 0.093l0.728 0.538-0.273 0.863c-0.015 0.047 0.039 0.086 0.079 0.058l0.737-0.526 0.736 0.526c0.040 0.029 0.094-0.010 0.079-0.058l-0.273-0.863 0.728-0.538c0.040-0.029 0.019-0.093-0.030-0.093l-0.905-0.007-0.286-0.859c-0.016-0.047-0.082-0.047-0.098 0z"/><path fill="#f5f5f5" d="M20.79 8.277l0.286 0.859 0.905 0.007c0.050 0 0.070 0.064 0.030 0.093l-0.728 0.538 0.273 0.863c0.015 0.047-0.039 0.086-0.079 0.058l-0.736-0.526-0.736 0.526c-0.040 0.029-0.094-0.010-0.079-0.058l0.273-0.863-0.728-0.538c-0.040-0.029-0.019-0.093 0.030-0.093l0.905-0.007 0.286-0.859c0.016-0.047 0.082-0.047 0.098 0z"/><path fill="#f5f5f5" d="M23.767 9.359l0.286 0.859 0.905 0.007c0.050 0 0.070 0.064 0.030 0.093l-0.728 0.538 0.273 0.863c0.015 0.047-0.039 0.086-0.079 0.058l-0.736-0.526-0.736 0.526c-0.040 0.029-0.094-0.010-0.079-0.058l0.273-0.863-0.728-0.538c-0.040-0.029-0.019-0.093 0.030-0.093l0.905-0.007 0.286-0.859c0.016-0.047 0.082-0.047 0.098 0z"/></svg>