<svg xmlns="http://www.w3.org/2000/svg" width="32" height="32" version="1.1" viewBox="0 0 32 32"><title>laos</title><path fill="#ff4b55" d="M32 9.931h-32v-3.862c0-0.305 0.247-0.552 0.552-0.552h30.896c0.305 0 0.552 0.247 0.552 0.552l-0 3.862z"/><path fill="#ff4b55" d="M31.448 26.483h-30.896c-0.305 0-0.552-0.247-0.552-0.552v-3.862h32v3.862c0 0.305-0.247 0.552-0.552 0.552z"/><path fill="#41479b" d="M0 9.931h32v12.138h-32v-12.138z"/><path fill="#f5f5f5" d="M20.414 16c0 2.438-1.976 4.414-4.414 4.414s-4.414-1.976-4.414-4.414c0-2.438 1.976-4.414 4.414-4.414s4.414 1.976 4.414 4.414z"/></svg>