<svg xmlns="http://www.w3.org/2000/svg" width="32" height="32" version="1.1" viewBox="0 0 32 32"><title>lesotho</title><path fill="#73af00" d="M0 19.494h32v6.437c0 0.305-0.247 0.552-0.552 0.552h-30.896c-0.305 0-0.552-0.247-0.552-0.552v-6.437z"/><path fill="#41479b" d="M0.552 5.517h30.896c0.305 0 0.552 0.247 0.552 0.552v6.437h-32v-6.437c0-0.305 0.247-0.552 0.552-0.552z"/><path fill="#f5f5f5" d="M0 12.506h32v6.988h-32v-6.988z"/><path fill="#464655" d="M17.905 17.245l-0.128 0.065c-0.017 0.009-0.036 0.017-0.054 0.025l-1.133-1.431c0.233-0.506 0.371-1.197 0.371-1.511 0-0.516-0.339-0.946-0.784-1.037-0.030-0.067-0.097-0.114-0.175-0.114s-0.146 0.047-0.175 0.114c-0.445 0.091-0.784 0.521-0.784 1.037 0 0.314 0.138 1.005 0.371 1.511l-1.133 1.431c-0.018-0.009-0.036-0.016-0.054-0.025l-0.128-0.065-0.479 0.941 0.128 0.065c0.653 0.332 1.433 0.508 2.254 0.508s1.601-0.176 2.254-0.508l0.128-0.065-0.479-0.941zM16.768 14.393c0 0.233-0.087 0.724-0.247 1.174-0.021 0.059-0.043 0.115-0.065 0.169l-0.167-0.211v-0.747h0.288l-0.384-0.384v-0.835c0.331 0.096 0.576 0.434 0.576 0.835zM15.481 15.567c-0.161-0.45-0.247-0.941-0.247-1.174 0-0.402 0.245-0.739 0.576-0.835v0.835l-0.384 0.384h0.288v0.747l-0.167 0.211c-0.022-0.053-0.044-0.109-0.065-0.169zM14.19 17.697l0.039 0.161-0.141 0.038 0.101-0.2zM14.023 18.064l0.241-0.066 0.044 0.182c-0.097-0.036-0.193-0.074-0.285-0.116zM14.388 17.697c0.11 0.043 0.223 0.081 0.341 0.116l0.035 0.106-0.303 0.075-0.072-0.296zM14.523 18.253l-0.029-0.12 0.314-0.077 0.097 0.298c-0.13-0.028-0.258-0.062-0.382-0.101zM14.949 17.87c0.12 0.028 0.243 0.052 0.368 0.071l0.052 0.093-0.333 0.104-0.087-0.268zM15.12 18.396l-0.039-0.121 0.36-0.112 0.163 0.292c-0.164-0.012-0.326-0.032-0.484-0.059zM15.553 17.969c0.148 0.014 0.297 0.022 0.448 0.022 0.032 0 0.064-0.002 0.096-0.002l0.040 0.061-0.443 0.172-0.141-0.253zM16.001 18.471c-0.057 0-0.113-0.002-0.17-0.004l-0.066-0.118 0.452-0.175 0.183 0.281c-0.132 0.010-0.265 0.016-0.4 0.016zM16.319 17.979c0.152-0.010 0.302-0.027 0.45-0.052l0.043 0.055-0.351 0.215-0.143-0.219zM16.616 18.434l-0.076-0.116 0.361-0.222 0.201 0.257c-0.159 0.035-0.321 0.062-0.486 0.081zM16.982 17.887c0.125-0.027 0.248-0.059 0.367-0.096l0.045 0.058-0.255 0.239-0.157-0.201zM17.308 18.304l-0.080-0.102 0.254-0.239 0.177 0.229c-0.115 0.041-0.231 0.079-0.351 0.111zM17.541 17.725c0.081-0.030 0.16-0.062 0.237-0.096l0.038 0.074-0.123 0.219-0.151-0.196zM17.846 18.121l-0.058-0.075 0.105-0.188 0.102 0.2c-0.049 0.023-0.099 0.043-0.149 0.064z"/></svg>