<svg xmlns="http://www.w3.org/2000/svg" width="32" height="32" version="1.1" viewBox="0 0 32 32"><title>liberia</title><path fill="#ff4b55" d="M32 7.423h-32v-1.354c0-0.305 0.247-0.552 0.552-0.552h30.896c0.305 0 0.552 0.247 0.552 0.552l-0 1.354z"/><path fill="#f5f5f5" d="M0 7.424h32v1.906h-32v-1.906z"/><path fill="#ff4b55" d="M0 9.329h32v1.906h-32v-1.906z"/><path fill="#f5f5f5" d="M0 11.235h32v1.906h-32v-1.906z"/><path fill="#ff4b55" d="M32 15.047h-31.448c-0.305 0-0.552-0.247-0.552-0.552v-1.354h32v1.906z"/><path fill="#f5f5f5" d="M32 16.953h-32v-2.608h0.552l0 0.702h31.448z"/><path fill="#ff4b55" d="M0 16.953h32v1.906h-32v-1.906z"/><path fill="#f5f5f5" d="M0 18.859h32v1.906h-32v-1.906z"/><path fill="#ff4b55" d="M0 20.765h32v1.906h-32v-1.906z"/><path fill="#f5f5f5" d="M0 22.671h32v1.906h-32v-1.906z"/><path fill="#ff4b55" d="M31.448 26.483h-30.896c-0.305 0-0.552-0.247-0.552-0.552v-1.354h32v1.354c0 0.305-0.247 0.552-0.552 0.552z"/><path fill="#41479b" d="M8.828 15.047h-8.276c-0.305 0-0.552-0.247-0.552-0.552v-8.426c0-0.305 0.247-0.552 0.552-0.552h8.276c0.305 0 0.552 0.247 0.552 0.552v8.426c-0 0.305-0.247 0.552-0.552 0.552z"/><path fill="#f5f5f5" d="M4.532 7.984l-0.527 1.579-1.665 0.013c-0.16 0.001-0.226 0.205-0.097 0.3l1.339 0.989-0.502 1.587c-0.048 0.152 0.125 0.278 0.255 0.185l1.355-0.968 1.354 0.968c0.13 0.093 0.303-0.033 0.255-0.185l-0.502-1.587 1.339-0.989c0.128-0.095 0.062-0.299-0.097-0.3l-1.665-0.013-0.527-1.579c-0.051-0.152-0.265-0.152-0.315 0z"/></svg>