<svg xmlns="http://www.w3.org/2000/svg" width="32" height="32" version="1.1" viewBox="0 0 32 32"><title>madeira</title><path fill="#41479b" d="M21.333 5.517h10.115c0.305 0 0.552 0.247 0.552 0.552v19.862c0 0.305-0.247 0.552-0.552 0.552h-10.115v-20.966z"/><path fill="#ffe15a" d="M10.667 5.517h10.667v20.966h-10.667v-20.966z"/><path fill="#41479b" d="M0.552 5.517h10.115v20.965h-10.115c-0.305 0-0.552-0.247-0.552-0.552v-19.862c0-0.305 0.247-0.552 0.552-0.552z"/><path fill="#ff4b55" d="M18.759 14.62h-1.379v-1.379l0.828-1.103h-4.414l0.828 1.103v1.379h-1.379l-1.103-0.828v4.414l1.103-0.828h1.379v1.379l-0.828 1.103h4.414l-0.828-1.103v-1.379h1.379l1.103 0.828v-4.414z"/><path fill="#f5f5f5" d="M18.759 15.448h-2.207v-2.207h-1.104v2.207h-2.207v1.103h2.207v2.207h1.104v-2.207h2.207z"/></svg>