<svg xmlns="http://www.w3.org/2000/svg" width="32" height="32" version="1.1" viewBox="0 0 32 32"><title>malasya</title><path fill="#ff4b55" d="M32 7.015h-32v-0.946c0-0.305 0.247-0.552 0.552-0.552h30.896c0.305 0 0.552 0.247 0.552 0.552l-0 0.946z"/><path fill="#f5f5f5" d="M0 7.014h32v1.498h-32v-1.498z"/><path fill="#ff4b55" d="M0 8.513h32v1.498h-32v-1.498z"/><path fill="#f5f5f5" d="M0 10.009h32v1.498h-32v-1.498z"/><path fill="#ff4b55" d="M0 11.508h32v1.498h-32v-1.498z"/><path fill="#f5f5f5" d="M0 13.005h32v1.498h-32v-1.498z"/><path fill="#ff4b55" d="M0 14.503h32v1.497h-32v-1.498z"/><path fill="#f5f5f5" d="M0 16h32v1.497h-32v-1.497z"/><path fill="#ff4b55" d="M32 18.995h-32v-2.443h0.552l0 0.946h31.448z"/><path fill="#f5f5f5" d="M0 18.995h32v1.497h-32v-1.497z"/><path fill="#ff4b55" d="M0 20.493h32v1.497h-32v-1.497z"/><path fill="#f5f5f5" d="M0 21.991h32v1.497h-32v-1.497z"/><path fill="#ff4b55" d="M0 23.488h32v1.497h-32v-1.497z"/><path fill="#f5f5f5" d="M31.448 26.483h-30.896c-0.305 0-0.552-0.247-0.552-0.552v-0.946h32v0.946c0 0.305-0.247 0.552-0.552 0.552z"/><path fill="#41479b" d="M19.31 17.498h-18.759c-0.305 0-0.552-0.247-0.552-0.552v-10.877c0-0.305 0.247-0.552 0.552-0.552h18.759c0.305 0 0.552 0.247 0.552 0.552v10.877c-0 0.305-0.247 0.552-0.552 0.552z"/><path fill="#ffe15a" d="M5.241 11.501c0-2.087 1.694-3.779 3.778-3.779 0.525 0 1.023 0.107 1.478 0.301 0.059 0.025 0.103-0.057 0.050-0.093-0.752-0.512-1.671-0.792-2.657-0.741-2.167 0.113-3.94 1.858-4.080 4.024-0.163 2.519 1.831 4.606 4.31 4.606 0.896 0 1.729-0.276 2.421-0.744 0.053-0.036 0.009-0.118-0.050-0.093-0.453 0.192-0.95 0.299-1.472 0.299-2.085-0-3.779-1.693-3.779-3.78z"/><path fill="#ffe15a" d="M13.879 11.501l1.597-0.618c0.079-0.031 0.052-0.149-0.032-0.142l-1.707 0.137 1.173-1.254c0.058-0.062-0.018-0.156-0.091-0.114l-1.482 0.865 0.512-1.636c0.025-0.081-0.084-0.133-0.131-0.063l-0.96 1.422-0.246-1.697c-0.012-0.084-0.133-0.084-0.145-0l-0.157 1.074-0.065 0.454-0.025 0.169-0.96-1.42c-0.047-0.070-0.156-0.018-0.131 0.063l0.514 1.635-1.482-0.865c-0.073-0.043-0.149 0.052-0.091 0.114l1.173 1.254-1.707-0.137c-0.084-0.007-0.111 0.111-0.032 0.142l1.599 0.618-1.599 0.618c-0.079 0.031-0.052 0.149 0.032 0.142l1.707-0.137-1.173 1.257c-0.058 0.062 0.018 0.156 0.091 0.114l1.482-0.868-0.514 1.635c-0.025 0.081 0.084 0.133 0.131 0.063l0.96-1.42 0.025 0.173 0.065 0.45 0.157 1.076c0.012 0.084 0.133 0.084 0.145-0l0.246-1.7 0.96 1.422c0.047 0.070 0.156 0.018 0.131-0.063l-0.512-1.636 1.482 0.868c0.073 0.043 0.149-0.052 0.091-0.114l-1.173-1.257 1.707 0.137c0.084 0.007 0.111-0.111 0.032-0.142l-1.598-0.618z"/></svg>