<!-- Generated by IcoMoon.io -->
<svg version="1.1" xmlns="http://www.w3.org/2000/svg" width="32" height="32" viewBox="0 0 32 32">
<title>maldives</title>
<path fill="#ff4b55" d="M31.448 26.483h-30.896c-0.305 0-0.552-0.247-0.552-0.552v-19.862c0-0.305 0.247-0.552 0.552-0.552h30.896c0.305 0 0.552 0.247 0.552 0.552v19.862c-0 0.305-0.247 0.552-0.552 0.552z"></path>
<path fill="#73af00" d="M27.586 9.931v12.138h-23.172v-12.138h23.172z"></path>
<path fill="#f5f5f5" d="M14.899 16.002c0-2.089 1.423-3.839 3.349-4.345 0.064-0.017 0.059-0.11-0.006-0.118-0.175-0.023-0.352-0.035-0.533-0.035-2.487 0-4.5 2.013-4.5 4.499 0 2.475 2.013 4.494 4.5 4.494 0.181 0 0.359-0.013 0.534-0.036 0.066-0.009 0.070-0.101 0.006-0.118-1.927-0.508-3.35-2.26-3.35-4.34z"></path>
</svg>
