<!-- Generated by IcoMoon.io -->
<svg version="1.1" xmlns="http://www.w3.org/2000/svg" width="32" height="32" viewBox="0 0 32 32">
<title>malta</title>
<path fill="#ff4b55" d="M31.448 5.517h-15.448v20.965h15.448c0.305 0 0.552-0.247 0.552-0.552v-19.862c0-0.305-0.247-0.552-0.552-0.552z"></path>
<path fill="#f5f5f5" d="M0.552 26.483h15.448v-20.965h-15.448c-0.305 0-0.552 0.247-0.552 0.552v19.862c0 0.305 0.247 0.552 0.552 0.552z"></path>
<path fill="#ff4b55" d="M4.598 6.805v1.476c0.081 0.003 0.172 0.040 0.247 0.115s0.112 0.166 0.115 0.247h1.476v1.471h-1.476c-0.003 0.081-0.040 0.172-0.115 0.247s-0.166 0.112-0.247 0.115v1.476h-1.471v-1.476c-0.081-0.003-0.172-0.040-0.247-0.115s-0.112-0.166-0.115-0.247h-1.476v-1.471h1.476c0.003-0.081 0.040-0.172 0.115-0.247s0.166-0.112 0.247-0.115v-1.476h1.471zM4.782 6.621h-1.839v1.515c-0.070 0.029-0.136 0.073-0.194 0.13s-0.101 0.123-0.13 0.194h-1.515v1.839h1.515c0.029 0.070 0.073 0.136 0.13 0.194s0.123 0.101 0.193 0.13v1.515h1.839v-1.515c0.070-0.029 0.136-0.073 0.194-0.13s0.101-0.123 0.13-0.193h1.515v-1.839h-1.515c-0.029-0.070-0.073-0.136-0.13-0.194s-0.123-0.101-0.194-0.13v-1.331l-0-0.184z"></path>
<path fill="#cdcdcd" d="M6.437 8.644h-1.839v-1.839h-1.471v1.839h-1.839v1.471h1.839v1.839h1.471v-1.839h1.839z"></path>
<path fill="#b4a08c" d="M4.598 9.379c0 0.406-0.329 0.736-0.736 0.736s-0.736-0.329-0.736-0.736c0-0.406 0.329-0.736 0.736-0.736s0.736 0.329 0.736 0.736z"></path>
<path fill="#b4a08c" d="M2.81 9.969c0.089-0.089 0.265-0.058 0.393 0.069s0.159 0.304 0.069 0.393c-0.089 0.089-0.265 0.058-0.393-0.069s-0.159-0.304-0.069-0.393z"></path>
<path fill="#b4a08c" d="M4.915 9.969c0.089 0.089 0.058 0.265-0.069 0.393s-0.304 0.159-0.393 0.069c-0.089-0.089-0.058-0.265 0.069-0.393s0.304-0.159 0.393-0.069z"></path>
<path fill="#b4a08c" d="M4.914 8.79c-0.089 0.089-0.265 0.058-0.393-0.069s-0.159-0.304-0.069-0.393c0.089-0.089 0.265-0.058 0.393 0.069s0.159 0.304 0.069 0.393z"></path>
<path fill="#b4a08c" d="M2.809 8.79c-0.089-0.089-0.058-0.265 0.069-0.393s0.304-0.159 0.393-0.069c0.089 0.089 0.058 0.265-0.069 0.393s-0.304 0.159-0.393 0.069z"></path>
<path fill="#b4a08c" d="M3.862 10.386c-0.555 0-1.007-0.452-1.007-1.007s0.452-1.007 1.007-1.007 1.007 0.452 1.007 1.007c0 0.555-0.452 1.007-1.007 1.007zM3.862 8.464c-0.504 0-0.915 0.411-0.915 0.915s0.411 0.915 0.915 0.915 0.915-0.411 0.915-0.915-0.411-0.915-0.915-0.915z"></path>
</svg>
