<!-- Generated by IcoMoon.io -->
<svg version="1.1" xmlns="http://www.w3.org/2000/svg" width="32" height="32" viewBox="0 0 32 32">
<title>marshall-island</title>
<path fill="#41479b" d="M31.448 26.483h-30.896c-0.305 0-0.552-0.247-0.552-0.552v-19.862c0-0.305 0.247-0.552 0.552-0.552h30.896c0.305 0 0.552 0.247 0.552 0.552v19.862c-0 0.305-0.247 0.552-0.552 0.552z"></path>
<path fill="#f5f5f5" d="M0.249 26.38l31.751-13.138v-3.862l-32 16.552c0 0.19 0.102 0.35 0.249 0.449z"></path>
<path fill="#ff9b55" d="M31.791 5.647l-31.791 19.732v0.552l32-16.552v-3.31c0-0.173-0.084-0.321-0.209-0.422z"></path>
<path fill="#f5f5f5" d="M9.119 13.136l3.571-0.446-3.571-0.446 1.81-1.11-2.252 0.551 1.37-1.87-1.87 1.37 0.55-2.252-1.11 1.81-0.446-3.571-0.446 3.571-1.11-1.81 0.551 2.252-1.87-1.37 1.37 1.87-2.252-0.551 1.81 1.11-3.571 0.446 3.571 0.446-1.81 1.11 2.252-0.551-1.37 1.87 1.87-1.37-0.551 2.252 1.11-1.81 0.446 3.571 0.446-3.571 1.11 1.81-0.55-2.252 1.87 1.37-1.37-1.87 2.252 0.551z"></path>
</svg>
