<!-- Generated by IcoMoon.io -->
<svg version="1.1" xmlns="http://www.w3.org/2000/svg" width="32" height="32" viewBox="0 0 32 32">
<title>melilla</title>
<path fill="#4173cd" d="M31.448 26.483h-30.896c-0.305 0-0.552-0.247-0.552-0.552v-19.862c0-0.305 0.247-0.552 0.552-0.552h30.896c0.305 0 0.552 0.247 0.552 0.552v19.862c-0 0.305-0.247 0.552-0.552 0.552z"></path>
<path fill="#73af00" d="M13.532 21.517c-0.046 0.824 0.499 0.926 0.795 0.93s0.743 0.134 1.16 0.219c0.417 0.085 0.551-0.26 0.551-0.26 0.246 0.323 0.487 0.224 0.487 0.224 0.197-0.197 0.723-0.296 0.929-0.309s0.157-0.296 0.157-0.296c0.216-0.12 0.362-0.258 0.466-0.397 0.005 0.002 0.008 0.005 0.013 0.007 0.354 0.152 0.627-0.17 0.685-0.291 0.036-0.075 0.102-0.108 0.149-0.124l0.017 0.187c0.152-0.219 0.484-0.139 0.484-0.139-0.34-0.524-0.685-0.282-0.685-0.282l0.134 0.127c-0.203 0.102-0.323 0.507-0.622 0.388-0.026-0.010-0.047-0.025-0.070-0.038 0.121-0.239 0.125-0.465 0.092-0.593-0.058-0.233-0.417-0.287-0.591-0.049-0.122 0.166-0.045 0.422 0.132 0.614-0.093 0.065-0.213 0.126-0.369 0.169-0.484 0.134-1.209-0.502-1.711-0.529s-0.941 0.394-1.191 0.663c-0.251 0.269-0.587 0.031-0.582-0.143zM17.924 20.916c0.094-0.040 0.134 0.031 0.148 0.148 0.006 0.049-0.021 0.129-0.087 0.215-0.104-0.159-0.121-0.337-0.061-0.362z"></path>
<path fill="#f5f5f5" d="M14.953 22.511l-0.267 0.138 0.075-0.185z"></path>
<path fill="#f5f5f5" d="M14.703 22.448l-0.247 0.127 0.069-0.171z"></path>
<path fill="#f5f5f5" d="M14.473 22.401l-0.183 0.103 0.047-0.131z"></path>
<path fill="#f5f5f5" d="M16.525 22.631l-0.291 0.076 0.113-0.164z"></path>
<path fill="#f5f5f5" d="M16.323 22.523l-0.271 0.061 0.11-0.148z"></path>
<path fill="#f5f5f5" d="M16.134 22.424l-0.186 0.097 0.052-0.129z"></path>
<path fill="#f5f5f5" d="M12.269 12.698c-0.052-0.074-0.049-0.167 0.008-0.207s0.146-0.012 0.198 0.062c0.052 0.074 0.049 0.167-0.008 0.207s-0.146 0.012-0.198-0.062z"></path>
<path fill="#f5f5f5" d="M19.731 12.699c-0.052 0.074-0.141 0.102-0.198 0.062s-0.061-0.133-0.008-0.207c0.052-0.074 0.141-0.102 0.198-0.062s0.061 0.133 0.008 0.207z"></path>
<path fill="#f5f5f5" d="M17.731 15.356v3.215c0 0.954-0.776 1.731-1.731 1.731s-1.731-0.776-1.731-1.731v-3.215h3.462zM18.72 14.12h-5.44c-0.137 0-0.247 0.111-0.247 0.247v4.204c0 1.639 1.329 2.967 2.967 2.967s2.967-1.328 2.967-2.967v-4.204c0-0.137-0.111-0.247-0.247-0.247v0z"></path>
<path fill="#ff4b55" d="M14.269 15.356h-1.236v-0.685c0-0.305 0.247-0.552 0.552-0.552h0.685l-0 1.236z"></path>
<path fill="#ff4b55" d="M15.382 14.119h1.236v1.236h-1.236v-1.236z"></path>
<path fill="#ff4b55" d="M13.032 16.592h1.236v1.236h-1.236v-1.236z"></path>
<path fill="#ff4b55" d="M17.731 16.592h1.236v1.236h-1.236v-1.236z"></path>
<path fill="#ff4b55" d="M18.967 15.356h-1.236v-1.236h0.685c0.305 0 0.552 0.247 0.552 0.552v0.685h-0z"></path>
<path fill="#ff4b55" d="M17.052 21.342l-0.476-1.142c-0.181 0.064-0.374 0.101-0.576 0.101s-0.396-0.037-0.576-0.101l-0.476 1.142c0.327 0.124 0.681 0.195 1.052 0.195s0.724-0.071 1.052-0.195z"></path>
<path fill="#ff4b55" d="M13.811 20.569l0.967-0.774c-0.245-0.244-0.415-0.561-0.48-0.915l-1.192 0.341c0.115 0.513 0.363 0.974 0.705 1.348z"></path>
<path fill="#ff4b55" d="M18.894 19.221l-1.192-0.341c-0.064 0.354-0.235 0.671-0.48 0.915l0.967 0.774c0.342-0.375 0.59-0.836 0.705-1.348z"></path>
<path fill="#ffe15a" d="M13.404 14.367h0.495v0.742h-0.495v-0.742z"></path>
<path fill="#ffe15a" d="M13.404 16.839h0.495v0.742h-0.495v-0.742z"></path>
<path fill="#ffe15a" d="M13.651 19.312h0.495v0.742h-0.495v-0.742z"></path>
<path fill="#ffe15a" d="M17.854 19.312h0.495v0.742h-0.495v-0.742z"></path>
<path fill="#ffe15a" d="M18.102 14.367h0.495v0.742h-0.495v-0.742z"></path>
<path fill="#ff4b55" d="M13.404 15.595h0.495v0.742h-0.495v-0.742z"></path>
<path fill="#ff4b55" d="M18.102 15.595h0.495v0.742h-0.495v-0.742z"></path>
<path fill="#ff4b55" d="M13.404 18.047h0.495v0.742h-0.495v-0.742z"></path>
<path fill="#ff4b55" d="M14.469 20.234h0.495v0.742h-0.495v-0.742z"></path>
<path fill="#ff4b55" d="M17.035 20.234h0.495v0.742h-0.495v-0.742z"></path>
<path fill="#ff4b55" d="M18.102 18.047h0.495v0.742h-0.495v-0.742z"></path>
<path fill="#ffe15a" d="M15.752 14.367h0.495v0.742h-0.495v-0.742z"></path>
<path fill="#ff4b55" d="M14.578 14.367h0.495v0.742h-0.495v-0.742z"></path>
<path fill="#ff4b55" d="M16.907 14.367h0.495v0.742h-0.495v-0.742z"></path>
<path fill="#ffe15a" d="M18.102 16.839h0.495v0.742h-0.495v-0.742z"></path>
<path fill="#ffe15a" d="M15.752 20.549h0.495v0.742h-0.495v-0.742z"></path>
<path fill="#ffe15a" d="M16 15.827c0.477 0 0.865 0.388 0.865 0.865s-0.388 0.865-0.865 0.865-0.865-0.388-0.865-0.865c0-0.477 0.388-0.865 0.865-0.865zM16 15.704c-0.546 0-0.989 0.443-0.989 0.989s0.443 0.989 0.989 0.989 0.989-0.443 0.989-0.989-0.443-0.989-0.989-0.989v0z"></path>
<path fill="#73af00" d="M15.851 16.623c-0.245 0-0.398 0.069-0.494 0.155 0.039-0.194 0.121-0.402 0.293-0.402 0.034 0 0.062-0.028 0.062-0.062s-0.028-0.062-0.062-0.062c-0.171 0-0.277 0.119-0.343 0.268-0.041-0.811-0.167-0.814-0.213-0.814-0.034 0-0.062 0.028-0.062 0.062 0 0.030 0.021 0.054 0.049 0.060 0.026 0.031 0.048 0.135 0.066 0.279-0.080-0.17-0.196-0.293-0.367-0.293-0.034 0-0.062 0.028-0.062 0.062s0.028 0.062 0.062 0.062c0.169 0 0.273 0.206 0.334 0.453-0.119-0.169-0.298-0.294-0.561-0.294-0.034 0-0.062 0.028-0.062 0.062s0.028 0.062 0.062 0.062c0.274 0 0.43 0.158 0.521 0.34-0.106-0.090-0.257-0.155-0.475-0.155-0.034 0-0.062 0.028-0.062 0.062s0.028 0.062 0.062 0.062c0.588 0 0.597 0.553 0.598 0.577 0 0.009 0.006 0.015 0.010 0.023 0.003 0.007 0.003 0.015 0.008 0.020l0 0c0.011 0.011 0.027 0.018 0.044 0.018h0c0.006-0 0.011-0.005 0.016-0.007 0.019-0.006 0.032-0.019 0.038-0.037 0.002-0.006 0.007-0.010 0.007-0.017 0-0.015 0.011-0.361 0.531-0.361 0.034 0 0.062-0.028 0.062-0.062s-0.028-0.062-0.062-0.062z"></path>
<path fill="#73af00" d="M16.155 16.623c0.245 0 0.398 0.069 0.494 0.155-0.039-0.194-0.121-0.402-0.293-0.402-0.034 0-0.062-0.028-0.062-0.062s0.028-0.062 0.062-0.062c0.171 0 0.277 0.119 0.343 0.268 0.041-0.811 0.167-0.814 0.213-0.814 0.034 0 0.062 0.028 0.062 0.062 0 0.030-0.021 0.054-0.049 0.060-0.026 0.031-0.048 0.135-0.066 0.279 0.080-0.17 0.196-0.293 0.367-0.293 0.034 0 0.062 0.028 0.062 0.062s-0.028 0.062-0.062 0.062c-0.169 0-0.273 0.206-0.334 0.453 0.119-0.169 0.298-0.294 0.561-0.294 0.034 0 0.062 0.028 0.062 0.062s-0.028 0.062-0.062 0.062c-0.273 0-0.43 0.158-0.521 0.34 0.106-0.090 0.257-0.155 0.475-0.155 0.034 0 0.062 0.028 0.062 0.062s-0.028 0.062-0.062 0.062c-0.588 0-0.597 0.553-0.598 0.577 0 0.009-0.006 0.015-0.010 0.023-0.003 0.007-0.003 0.015-0.008 0.020l-0 0c-0.011 0.011-0.027 0.018-0.044 0.018h-0c-0.006-0-0.011-0.005-0.016-0.007-0.019-0.006-0.032-0.019-0.038-0.037-0.002-0.006-0.007-0.010-0.007-0.017-0-0.015-0.011-0.361-0.531-0.361-0.034 0-0.062-0.028-0.062-0.062s0.028-0.062 0.062-0.062z"></path>
<path fill="#ff4b55" d="M15.046 16.94c0.11 0.426 0.494 0.742 0.954 0.742s0.844-0.316 0.954-0.742h-1.908z"></path>
<path fill="#ffe15a" d="M16 17.682c0.46 0 0.844-0.316 0.954-0.742h-0.954v0.742z"></path>
<path fill="#ffe15a" d="M16 18.068c0.477 0 0.865 0.388 0.865 0.865s-0.388 0.865-0.865 0.865-0.865-0.388-0.865-0.865c0-0.477 0.388-0.865 0.865-0.865zM16 17.945c-0.546 0-0.989 0.443-0.989 0.989s0.443 0.989 0.989 0.989 0.989-0.443 0.989-0.989c0-0.546-0.443-0.989-0.989-0.989v0z"></path>
<path fill="#73af00" d="M15.851 18.864c-0.245 0-0.398 0.069-0.494 0.155 0.039-0.194 0.121-0.402 0.293-0.402 0.034 0 0.062-0.028 0.062-0.062s-0.028-0.062-0.062-0.062c-0.171 0-0.277 0.119-0.343 0.268-0.041-0.811-0.167-0.814-0.213-0.814-0.034 0-0.062 0.028-0.062 0.062 0 0.030 0.021 0.054 0.049 0.060 0.026 0.031 0.048 0.135 0.066 0.279-0.080-0.17-0.196-0.293-0.367-0.293-0.034 0-0.062 0.028-0.062 0.062s0.028 0.062 0.062 0.062c0.169 0 0.273 0.206 0.334 0.453-0.119-0.169-0.298-0.294-0.561-0.294-0.034 0-0.062 0.028-0.062 0.062s0.028 0.062 0.062 0.062c0.274 0 0.43 0.158 0.521 0.34-0.106-0.090-0.257-0.155-0.475-0.155-0.034 0-0.062 0.028-0.062 0.062s0.028 0.062 0.062 0.062c0.588 0 0.597 0.553 0.598 0.577 0 0.009 0.006 0.015 0.010 0.023s0.003 0.015 0.008 0.020l0 0c0.011 0.011 0.027 0.018 0.044 0.018h0c0.006-0 0.011-0.005 0.016-0.007 0.019-0.006 0.032-0.019 0.038-0.037 0.002-0.006 0.007-0.010 0.007-0.017 0-0.015 0.011-0.361 0.531-0.361 0.034 0 0.062-0.028 0.062-0.062s-0.028-0.062-0.062-0.062z"></path>
<path fill="#73af00" d="M16.155 18.864c0.245 0 0.398 0.069 0.494 0.155-0.039-0.194-0.121-0.402-0.293-0.402-0.034 0-0.062-0.028-0.062-0.062s0.028-0.062 0.062-0.062c0.171 0 0.277 0.119 0.343 0.268 0.041-0.811 0.167-0.814 0.213-0.814 0.034 0 0.062 0.028 0.062 0.062 0 0.030-0.021 0.054-0.049 0.060-0.026 0.031-0.048 0.135-0.066 0.279 0.080-0.17 0.196-0.293 0.367-0.293 0.034 0 0.062 0.028 0.062 0.062s-0.028 0.062-0.062 0.062c-0.169 0-0.273 0.206-0.334 0.453 0.119-0.169 0.298-0.294 0.561-0.294 0.034 0 0.062 0.028 0.062 0.062s-0.028 0.062-0.062 0.062c-0.273 0-0.43 0.158-0.521 0.34 0.106-0.090 0.257-0.155 0.475-0.155 0.034 0 0.062 0.028 0.062 0.062s-0.028 0.062-0.062 0.062c-0.588 0-0.597 0.553-0.598 0.577 0 0.009-0.006 0.015-0.010 0.023s-0.003 0.015-0.008 0.020l-0 0c-0.011 0.011-0.027 0.018-0.044 0.018h-0c-0.006-0-0.011-0.005-0.016-0.007-0.019-0.006-0.032-0.019-0.038-0.037-0.002-0.006-0.007-0.010-0.007-0.017-0-0.015-0.011-0.361-0.531-0.361-0.034 0-0.062-0.028-0.062-0.062s0.028-0.062 0.062-0.062z"></path>
<path fill="#ff4b55" d="M15.046 19.181c0.11 0.426 0.494 0.742 0.954 0.742s0.844-0.316 0.954-0.742h-1.908z"></path>
<path fill="#ffe15a" d="M16 19.923c0.46 0 0.844-0.316 0.954-0.742h-0.954v0.742z"></path>
<path fill="#f5f5f5" d="M12.538 14.861v-0.495h-1.236v0.495h0.247v5.44h-0.247v0.494h1.236v-0.494h-0.247v-5.44z"></path>
<path fill="#f5f5f5" d="M20.698 14.861v-0.495h-1.236v0.495h0.247v5.44h-0.247v0.494h1.236v-0.494h-0.247v-5.44z"></path>
<path fill="#ffe15a" d="M18.72 14.12h-5.44c-0.273 0-0.495-0.221-0.495-0.495v0c0-0.273 0.221-0.495 0.495-0.495h5.44c0.273 0 0.495 0.221 0.495 0.495v0c0 0.273-0.221 0.495-0.495 0.495z"></path>
<path fill="#ff4b55" d="M16.185 13.81h-0.371c-0.102 0-0.185-0.083-0.185-0.185v0c0-0.102 0.083-0.185 0.185-0.185h0.371c0.102 0 0.185 0.083 0.185 0.185v0c0 0.102-0.083 0.185-0.185 0.185z"></path>
<path fill="#73af00" d="M18.040 13.81h-0.371c-0.102 0-0.185-0.083-0.185-0.185v0c0-0.102 0.083-0.185 0.185-0.185h0.371c0.102 0 0.185 0.083 0.185 0.185v0c0 0.102-0.083 0.185-0.185 0.185z"></path>
<path fill="#73af00" d="M14.331 13.81h-0.371c-0.102 0-0.185-0.083-0.185-0.185v0c0-0.102 0.083-0.185 0.185-0.185h0.371c0.102 0 0.185 0.083 0.185 0.185v0c0 0.102-0.083 0.185-0.185 0.185z"></path>
<path fill="#ffe15a" d="M19.472 12.105l-0.361 0.124 0.035 0.344c-0.398 0.453-0.598 0.482-0.68 0.453-0.102-0.035-0.149-0.18-0.168-0.292l0.149 0.149c0.742-0.742 0.317-1.831 0.317-1.831-0.209 0.039-0.301 0.232-0.301 0.232-0.193-0.015-0.394 0-0.394 0-0.015 0.17 0.046 0.409 0.046 0.409-0.424 0.087-0.599 0.317-0.599 0.317 0.073 0.204 0.305 0.378 0.305 0.378-0.070 0.17 0.015 0.371 0.015 0.371 0.106 0 0.198-0.032 0.263-0.063-0.277 0.345-0.407 0.354-0.451 0.337-0.134-0.050-0.168-0.445-0.149-0.71 0.002-0.027-0.014-0.052-0.039-0.062s-0.054-0.002-0.071 0.020l-0.213 0.272c-0.89-1.186-0.186-1.895-0.186-1.895v-0.495h-0.247v0.247h-0.212v-0.247h-0.212v0.247h-0.212v-0.247h-0.212v0.247h-0.212v-0.247h-0.212v0.247h-0.212v-0.247h-0.247v0.495c0 0 0.704 0.709-0.186 1.895l-0.213-0.272c-0.017-0.021-0.046-0.029-0.071-0.020s-0.041 0.035-0.039 0.062c0.019 0.265-0.015 0.66-0.149 0.71-0.044 0.016-0.175 0.008-0.452-0.338 0.065 0.032 0.158 0.065 0.265 0.065 0 0 0.085-0.201 0.015-0.371 0 0 0.232-0.175 0.305-0.378 0 0-0.175-0.23-0.599-0.317 0 0 0.062-0.239 0.046-0.409 0 0-0.201-0.015-0.394 0 0 0-0.093-0.193-0.301-0.232 0 0-0.425 1.089 0.317 1.831l0.147-0.147c-0.019 0.111-0.066 0.255-0.167 0.29-0.083 0.029-0.282-0.001-0.679-0.452l0.035-0.345-0.361-0.124c-0.185-0.562-0.629-0.495-0.629-0.495 0.294 0.252 0.355 0.896 0.355 0.896l0.762 0.742 0.041-0.118c-0.017-0.099-0.044-0.177-0.072-0.239 0.239 0.221 0.433 0.306 0.587 0.252 0.151-0.052 0.215-0.223 0.242-0.351 0.203 0.251 0.366 0.371 0.502 0.371 0.027 0 0.052-0.005 0.077-0.014 0.194-0.072 0.232-0.415 0.235-0.644l0.134 0.171v0.455h0.989c0-0.137 0.111-0.247 0.247-0.247s0.247 0.111 0.247 0.247h0.989v-0.455l0.134-0.171c0.003 0.229 0.040 0.572 0.235 0.644 0.024 0.009 0.050 0.014 0.077 0.014 0.136 0 0.299-0.121 0.502-0.371 0.027 0.129 0.091 0.299 0.242 0.351 0.154 0.054 0.349-0.031 0.589-0.254-0.029 0.063-0.056 0.141-0.073 0.241l0.041 0.118 0.762-0.742c0 0 0.062-0.644 0.355-0.896-0-0-0.443-0.067-0.629 0.494z"></path>
<path fill="#f5f5f5" d="M15.073 13.81v0c-0.102 0-0.185-0.083-0.185-0.185v0c0-0.102 0.083-0.185 0.185-0.185v0c0.102 0 0.185 0.083 0.185 0.185v0c0 0.102-0.083 0.185-0.185 0.185z"></path>
<path fill="#f5f5f5" d="M16.927 13.81v0c-0.102 0-0.185-0.083-0.185-0.185v0c0-0.102 0.083-0.185 0.185-0.185v0c0.102 0 0.185 0.083 0.185 0.185v0c0 0.102-0.083 0.185-0.185 0.185z"></path>
<path fill="#ff4b55" d="M18.782 13.81v0c-0.102 0-0.185-0.083-0.185-0.185v0c0-0.102 0.083-0.185 0.185-0.185v0c0.102 0 0.185 0.083 0.185 0.185v0c0 0.102-0.083 0.185-0.185 0.185z"></path>
<path fill="#ff4b55" d="M13.218 13.81v0c-0.102 0-0.185-0.083-0.185-0.185v0c0-0.102 0.083-0.185 0.185-0.185v0c0.102 0 0.185 0.083 0.185 0.185v0c0 0.102-0.083 0.185-0.185 0.185z"></path>
<path fill="#f5f5f5" d="M16.247 11.647c0 0.137-0.111 0.247-0.247 0.247s-0.247-0.111-0.247-0.247c0-0.137 0.111-0.247 0.247-0.247s0.247 0.111 0.247 0.247z"></path>
<path fill="#f5f5f5" d="M13.363 12.093c-0.025-0.099 0.024-0.197 0.11-0.219s0.175 0.041 0.2 0.141c0.025 0.099-0.024 0.197-0.11 0.219s-0.175-0.041-0.2-0.141z"></path>
<path fill="#f5f5f5" d="M18.639 12.093c-0.025 0.099-0.115 0.162-0.2 0.141s-0.135-0.12-0.11-0.219c0.025-0.099 0.115-0.162 0.2-0.141s0.135 0.12 0.11 0.219z"></path>
<path fill="#f5f5f5" d="M13.033 16.512c-0.234-0.044-0.545-0.076-0.886-0.040-0.335 0.035-0.725 0.139-1.092 0.388v1.566c0.512-1.237 1.653-0.998 1.978-0.9v-1.014z"></path>
<path fill="#f5f5f5" d="M18.967 16.512c0.234-0.044 0.545-0.076 0.886-0.040 0.335 0.035 0.725 0.139 1.092 0.388v1.566c-0.512-1.237-1.653-0.998-1.978-0.9v-1.014z"></path>
<path fill="#ff4b55" d="M14.651 20.697c0 0-0.266 0.418-0.401 0.459 0 0-0.183 0.133-0.22 0.12l0.642-0.744-0.020 0.165z"></path>
<path fill="#73af00" d="M14.627 20.938c-0.125-0.013-0.224 0.058-0.287 0.143s-0.232 0.113-0.249 0.003c-0.016-0.099 0.335-0.41 0.335-0.41s-0.058-0.105-0.218-0.064c-0.152 0.039-0.302 0.284-0.302 0.284s-0.152-0.059-0.274 0.042l-0.523 0.598c0 0 0.642 0.549 1.46-0.26l-0.139-0.045c0.045-0.17 0.197-0.291 0.197-0.291z"></path>
<path fill="#f5f5f5" d="M13.916 21.092c0 0.034-0.027 0.061-0.061 0.061s-0.061-0.027-0.061-0.061c0-0.034 0.027-0.061 0.061-0.061s0.061 0.027 0.061 0.061z"></path>
<path fill="#f5f5f5" d="M11.302 10.512c0.76-0.003 1.513 0.13 2.225 0.393v-0.775c-0.715-0.246-1.468-0.363-2.225-0.345v0.726z"></path>
<path fill="#f5f5f5" d="M17.484 9.669c-0.975-0.234-1.992-0.234-2.967 0 0-0.247 0-0.495 0-0.742 0.975-0.234 1.992-0.234 2.967 0 0 0.247 0 0.495 0 0.742z"></path>
<path fill="#f5f5f5" d="M14.764 9.104c-0.605 0.056-1.201 0.198-1.769 0.425 0.036 0.245 0.071 0.489 0.107 0.734 0.534-0.213 1.094-0.35 1.662-0.412v-0.746z"></path>
<path fill="#f5f5f5" d="M11.054 11.358c0.337-0.094 0.68-0.163 1.027-0.201v-0.746c-0.347 0.032-0.69 0.096-1.027 0.184v0.764z"></path>
<path fill="#f5f5f5" d="M20.698 10.512c-0.76-0.003-1.513 0.13-2.225 0.393v-0.775c0.715-0.246 1.468-0.363 2.225-0.345v0.726z"></path>
<path fill="#f5f5f5" d="M17.236 9.104c0.605 0.056 1.201 0.198 1.769 0.425-0.036 0.245-0.071 0.489-0.107 0.734-0.535-0.213-1.094-0.35-1.662-0.412v-0.746z"></path>
<path fill="#f5f5f5" d="M20.945 11.358c-0.337-0.094-0.68-0.163-1.027-0.201v-0.746c0.347 0.032 0.69 0.096 1.027 0.184v0.764z"></path>
</svg>
