<svg xmlns="http://www.w3.org/2000/svg" width="32" height="32" version="1.1" viewBox="0 0 32 32"><title>montenegro</title><path fill="#c8414b" d="M1.103 6.621h29.793v18.759h-29.793v-18.759z"/><path fill="#e6b432" d="M31.448 5.517h-30.896c-0.305 0-0.552 0.247-0.552 0.552v19.862c0 0.305 0.247 0.552 0.552 0.552h30.896c0.305 0 0.552-0.247 0.552-0.552v-19.862c-0-0.305-0.247-0.552-0.552-0.552zM30.896 25.379h-29.793v-18.759h29.793v18.759z"/><path fill="#41479b" d="M21.366 19.461c0 0.464-0.376 0.84-0.84 0.84s-0.84-0.376-0.84-0.84c0-0.464 0.376-0.84 0.84-0.84s0.84 0.376 0.84 0.84z"/><path fill="#e6b432" d="M22 14.64c-0.618 0.519-1.033 0.541-1.033 0.541 1.099-0.448 0.984-1.301 0.984-1.301-0.519 0.684-1.050 0.875-1.050 0.875 1.105-0.749 0.93-1.755 0.93-1.755-0.361 0.798-0.817 1.11-0.817 1.11 0.919-1.222 0.468-2.010 0.468-2.010-0.361 1.132-0.664 1.46-0.664 1.46 0.705-1.886 0.101-2.431 0.101-2.431 0 1.012-0.377 1.591-0.377 1.591 0.394-1.334-0.224-2.1-0.224-2.1s-0.006 1.088-0.215 1.658c-0.050-0.076-0.080-0.066-0.080-0.066-0.107 0.699-0.482 1.191-0.644 1.376-0.036-0.174-0.144-0.227-0.144-0.227s-0.020 0.171-0.173 0.423c-0.101 0.165-0.575 0.55-0.652 0.889-0.061 0.272 0.208 0.498 0.295 0.552s0.18 0.153 0.142 0.312c-0.038 0.159-0.323 0.142-0.525 0.137s-0.23 0.328-0.454 0.317l-0.038 0.249-0.088 0.019c0 0-0.919 1.831-0.997 2.453l-0.676 0.089-0.676-0.089c-0.078-0.623-0.997-2.453-0.997-2.453l-0.088-0.019-0.038-0.249c-0.224 0.011-0.252-0.323-0.454-0.317s-0.487 0.022-0.525-0.137 0.055-0.257 0.142-0.312c0.088-0.055 0.357-0.28 0.295-0.552-0.077-0.339-0.551-0.724-0.652-0.889-0.153-0.252-0.173-0.423-0.173-0.423s-0.108 0.053-0.144 0.227c-0.162-0.185-0.538-0.677-0.644-1.376 0 0-0.030-0.010-0.080 0.066-0.21-0.57-0.215-1.658-0.215-1.658s-0.618 0.765-0.224 2.1c0 0-0.377-0.58-0.377-1.591 0 0-0.604 0.544 0.101 2.431 0 0-0.303-0.328-0.664-1.46 0 0-0.451 0.787 0.467 2.009 0 0-0.457-0.312-0.817-1.11 0 0-0.175 1.006 0.93 1.755 0 0-0.53-0.191-1.050-0.875 0 0-0.115 0.853 0.984 1.301 0 0-0.416-0.022-1.033-0.541 0 0-0.109 0.755 1.323 1.143 0 0-0.585-0.011-1.181-0.41 0 0-0.016 0.744 1.208 0.891 0 0-0.405 0.060-0.858-0.104 0 0 0.016 0.601 1.083 0.678 0 0-0.421 0.033-0.694-0.033 0 0 0.027 0.618 0.869 0.514 0 0-0.284 0.093-0.377 0.12 0 0 0.016 0.504 0.894 0.324 0 0-0.156 0.097-0.369 0.13 0 0 0.18 0.421 0.913 0.235l-0.15 0.164c0 0 0.566 0.328 1.001-0.123l-0.156 0.279c0 0 0.369 0.139 0.599-0.221 0 0-0.063 0.541-0.828 0.64 0 0 0.027 0.115 0.060 0.159 0 0-0.049 0.093-0.492 0.169 0 0 0.093 0.142 0.191 0.186 0 0-0.191 0.164-0.295 0.197 0 0 0.164 0.082 0.268 0.098 0 0-0.23 0.224-0.514 0.23s-0.793-0.027-0.793-0.027-0.005-0.273-0.137-0.509c-0.131-0.235-0.175-0.253-0.175-0.253s0.029-0.189-0.053-0.267-0.127-0.115-0.127-0.115 0.044-0.377-0.077-0.612c-0.12-0.235-0.547-0.749-0.569-1.132s-0.005-0.525-0.005-0.525l-0.131 0.033-0.088-0.18 0.148-0.016-0.060-0.273-0.202 0.077-0.027-0.235-0.241 0.098 0.12 0.213-0.213 0.060 0.126 0.252 0.164-0.104 0.044 0.219c0 0-0.098 0.022-0.153 0.109 0 0 0.271 0.18 0.35 0.394 0.126 0.339 0.088 1.105 0.268 1.334s0.323 0.388 0.323 0.388-0.051 0.156 0.007 0.242c0.057 0.086 0.139 0.111 0.139 0.111s-0.049 0.349 0.078 0.578c0.127 0.23 0.201 0.287 0.201 0.287s-0.463 0.283-0.135 0.611c0 0-0.044 0.298 0.268 0.369 0 0 0.016 0.235 0.284 0.208 0 0 0.131-0.038 0.164 0.027s0 0.443 0 0.443 0.12-0.011 0.197-0.066l0.241 0.12 0.005-0.268 0.301-0.12c0 0-0.131 0.022-0.399-0.23 0 0 0.044-0.027 0.077-0.241 0 0 0.213-0.169 0.257-0.306s0.345-0.437 0.694-0.536l0.048 0.213c0 0 0.5-0.443 0.709-0.468l0.172 0.227c0 0 0.645-0.957 0.93-1.126-0.022 0.077 0.137 0.087-0.216 0.481s-0.134 0.705-0.134 0.705c-0.219 0.18-0.175 0.345-0.202 0.53s-0.755 0.667-0.755 0.667c0.23 0.29 0.487 0.224 0.487 0.224-0.142 0.093-0.098 0.405-0.098 0.405 0.208 0.055 0.416-0.038 0.416-0.038-0.071 0.197 0.038 0.334 0.038 0.334 0.131-0.082 0.432-0.131 0.432-0.131-0.038 0.339 0.18 0.519 0.18 0.519l0.191-0.208c0.033 0.383 0.372 0.602 0.372 0.602s0.339-0.219 0.372-0.602l0.191 0.208c0 0 0.219-0.18 0.18-0.519 0 0 0.301 0.049 0.432 0.131 0 0 0.109-0.137 0.038-0.334 0 0 0.208 0.093 0.416 0.038 0 0 0.044-0.312-0.098-0.405 0 0 0.257 0.066 0.487-0.224 0 0-0.727-0.481-0.755-0.667s0.016-0.35-0.202-0.53c0 0 0.219-0.312-0.134-0.705s-0.194-0.405-0.216-0.481c0.284 0.169 0.93 1.126 0.93 1.126l0.172-0.227c0.209 0.025 0.709 0.468 0.709 0.468l0.048-0.213 0.009-0.010c0.261 0.14 0.692 0.331 0.866 0.464 0.186 0.142 0.339 0.153 0.787 0s1.283-0.389 1.159-0.667c-0.007-0.015-0.014-0.025-0.022-0.037 0.020-0.072 0.028-0.198-0.104-0.307 0 0 0.002 0.031 0 0.070l-0.427-0.159c-0.014-0.038-0.035-0.075-0.076-0.107 0 0 0.001 0.033-0.005 0.077l-0.11-0.041 0.219-0.616c-0.017-0.009-0.035-0.014-0.052-0.023 0.004-0.056 0.015-0.133 0.031-0.213 0.053 0.019 0.102 0.042 0.138 0.071l0.062-0.225c0 0-0.066-0.004-0.154-0.021 0.022-0.068 0.048-0.129 0.080-0.169l-0.29-0.087c0 0 0.008 0.088 0.002 0.197-0.055-0.022-0.108-0.051-0.151-0.087l-0.068 0.25c0.023 0.001 0.102 0.008 0.194 0.025-0.017 0.073-0.046 0.139-0.088 0.187-0.010-0.001-0.020-0.005-0.030-0.006l-0.212 0.598-0.576-0.215c-0.025 0.039-0.044 0.081-0.062 0.124 0.003-0.006 0.006-0.016 0.009-0.020 0 0-0.223 0.117-0.22 0.288-0.041 0.016-0.077 0.046-0.097 0.1-0.066 0.172 0.336 0.558 0.238 0.607-0.097 0.048-0.601-0.367-0.682-0.437 0.104-0.020 0.256-0.096 0.256-0.096-0.104-0.033-0.295-0.197-0.295-0.197 0.098-0.044 0.191-0.186 0.191-0.186-0.443-0.077-0.492-0.169-0.492-0.169 0.033-0.044 0.060-0.159 0.060-0.159-0.765-0.098-0.828-0.64-0.828-0.64 0.23 0.361 0.599 0.221 0.599 0.221l-0.156-0.279c0.435 0.451 1.001 0.123 1.001 0.123l-0.15-0.164c0.733 0.186 0.913-0.235 0.913-0.235-0.213-0.033-0.369-0.13-0.369-0.13 0.878 0.18 0.894-0.324 0.894-0.324-0.093-0.027-0.377-0.12-0.377-0.12 0.842 0.104 0.869-0.514 0.869-0.514-0.273 0.066-0.694 0.033-0.694 0.033 1.066-0.077 1.083-0.678 1.083-0.678-0.454 0.164-0.858 0.104-0.858 0.104 1.225-0.148 1.208-0.891 1.208-0.891-0.596 0.399-1.181 0.41-1.181 0.41 1.433-0.388 1.324-1.143 1.324-1.143zM20.758 20.049c-0.058-0.095 0.081-0.18 0.143-0.27l0.242 0.090c-0.082 0.098-0.326 0.278-0.386 0.18zM20.596 19.665c-0.079 0.122-0.133 0.258-0.375 0.265-0.303 0.008-0.353-0.262-0.418-0.41-0.019-0.043-0.052-0.076-0.090-0.098-0-0.026 0.001-0.056 0.004-0.085l0.88 0.328z"/><path fill="#e6b432" d="M15.977 13.888c0 0-0.39-0.332-0.504-0.513 0 0 0.131-0.053 0.197-0.135 0 0-0.353-0.189-0.541-0.381 0 0 0.123-0.021 0.217-0.098 0 0-0.317-0.057-0.477-0.317 0.366-0.125 0.244-0.467 0.244-0.467-0.074 0.098-0.377 0.221-0.705 0.082s-0.689-0.041-0.689 0.139c0 0-0.738-0.213-0.554 0.5 0 0 0.119-0.267 0.381-0.168s0.529 0.435 0.529 0.435-0.164 0.090-0.467-0.008c0 0 0.123 0.472 0.677 0.234 0 0 0.219 0.118 0.23 0.462 0 0 0.093-0.049 0.153-0.159 0 0 0.088 0.334-0.027 0.607 0 0 0.153-0.027 0.202-0.077 0 0 0.044 0.29-0.148 0.525 0 0 0.841 0.401 1.374-0.038 0 0-0.201-0.23-0.267-0.443-0-0 0.11-0.045 0.176-0.181z"/><path fill="#e6b432" d="M18.417 12.199c0-0.18-0.361-0.279-0.689-0.139s-0.632 0.016-0.705-0.082c0 0-0.123 0.342 0.244 0.467-0.161 0.259-0.477 0.317-0.477 0.317 0.094 0.078 0.217 0.098 0.217 0.098-0.189 0.193-0.541 0.381-0.541 0.381 0.066 0.082 0.197 0.135 0.197 0.135-0.115 0.18-0.504 0.513-0.504 0.513 0.066 0.135 0.176 0.18 0.176 0.18-0.066 0.213-0.267 0.443-0.267 0.443 0.533 0.439 1.374 0.038 1.374 0.038-0.191-0.235-0.148-0.525-0.148-0.525 0.049 0.049 0.202 0.077 0.202 0.077-0.115-0.273-0.027-0.607-0.027-0.607 0.060 0.109 0.153 0.159 0.153 0.159 0.011-0.345 0.23-0.462 0.23-0.462 0.554 0.238 0.677-0.234 0.677-0.234-0.303 0.098-0.468 0.008-0.468 0.008s0.267-0.336 0.529-0.435c0.262-0.098 0.381 0.168 0.381 0.168 0.184-0.713-0.554-0.5-0.554-0.5z"/><path fill="#e6b432" d="M18.083 16.555c-0.072-0.419-0.134-0.781 0.047-1.196l0.034-0.077-0.716-0.822-0.085 0.028c-0.007 0.002-0.756 0.247-1.236 0.007l-0.060-0.030-0.060 0.030c-0.478 0.239-1.228-0.005-1.236-0.007l-0.085-0.028-0.716 0.822 0.034 0.077c0.181 0.415 0.119 0.777 0.047 1.196-0.068 0.396-0.145 0.844-0.009 1.391 0.147 0.594 0.642 0.805 1.078 0.991 0.336 0.144 0.654 0.279 0.834 0.564l0.113 0.179 0.113-0.179c0.18-0.285 0.497-0.42 0.834-0.564 0.436-0.186 0.931-0.398 1.078-0.991 0.135-0.547 0.058-0.996-0.009-1.391zM14.283 15.332l0.491-0.564c0.223 0.061 0.824 0.194 1.293-0.005 0.469 0.199 1.071 0.067 1.293 0.005l0.491 0.564c-0.173 0.454-0.105 0.851-0.033 1.269 0.054 0.313 0.107 0.636 0.062 1.008h-3.628c-0.045-0.372 0.009-0.694 0.062-1.008 0.072-0.418 0.14-0.814-0.033-1.269zM16.909 18.692c-0.304 0.13-0.617 0.263-0.842 0.517-0.225-0.253-0.538-0.387-0.842-0.517-0.427-0.182-0.795-0.341-0.916-0.789h3.516c-0.121 0.447-0.489 0.607-0.916 0.789z"/><path fill="#41479b" d="M14.283 15.332l0.491-0.564c0.223 0.061 0.824 0.194 1.293-0.005 0.469 0.199 1.071 0.067 1.293 0.005l0.491 0.564c-0.173 0.454-0.105 0.851-0.033 1.269 0.054 0.313 0.107 0.636 0.062 1.008h-3.628c-0.045-0.372 0.009-0.694 0.062-1.008 0.072-0.418 0.14-0.814-0.033-1.269z"/><path fill="#73af00" d="M14.29 17.825c0.004 0.019 0.007 0.038 0.012 0.057 0.115 0.464 0.49 0.624 0.924 0.81 0.304 0.13 0.617 0.263 0.842 0.517 0.225-0.253 0.538-0.387 0.842-0.517 0.434-0.185 0.809-0.345 0.924-0.81 0.005-0.019 0.008-0.038 0.012-0.057h-3.554z"/><path fill="#e6b432" d="M17.673 16.274c0-0.242-0.23-0.28-0.439-0.276s-0.515-0.034-0.523-0.197c-0.005-0.101 0.165-0.111 0.276-0.075 0.064 0.021 0.464 0.092 0.589-0.176 0 0-0.146 0.005-0.3-0.030-0.119-0.027-0.607 0.034-0.695 0.222s0.195 0.376 0.521 0.376 0.371 0.065 0.368 0.145c-0.003 0.105-0.262 0.134-0.411 0.133-0.234-0.085-0.78-0.018-0.782-0.029-0.003-0.013-0.126-0.223-0.126-0.223s0.224-0.016 0.252-0.057c0.028-0.041-0.17-0.198-0.17-0.198s0.166-0.066 0.173-0.114c0.007-0.052-0.135-0.175-0.135-0.175s0.055-0.054 0.096-0.146c0.029-0.066-0.205-0.084-0.205-0.084 0.013-0.050 0.008-0.099-0.054-0.121-0.048-0.017-0.226 0.050-0.347 0.050s-0.167 0.088-0.167 0.088-0.213 0.025-0.242 0.050c-0.029 0.025 0.008 0.188 0.008 0.188-0.109-0.017-0.159-0.113-0.159-0.113-0.054 0.247 0.201 0.272 0.201 0.272l0.042 0.134c0 0 0 0 0.104 0.013s0.054 0.113-0.109 0.113-0.232 0.195-0.232 0.195c-0.113 0.003-0.176-0.088-0.201-0.205-0.028-0.128-0.011-0.325 0.009-0.45 0.025-0.151-0.050-0.195-0.050-0.195l-0.050 0.126c-0.003-0.129-0.117-0.142-0.117-0.142l-0.019 0.157c-0.057-0.104-0.154-0.057-0.154-0.057s0.094 0.34 0.091 0.359c-0.003 0.019-0.035 0.035-0.079-0.013s-0.075-0.016-0.075-0.016c0.047 0.34 0.229 0.29 0.229 0.29s0.008 0.107 0.063 0.323c0.059 0.231 0.3 0.187 0.3 0.187 0 0.075 0.059 0.184 0.075 0.435s-0.213 0.426-0.213 0.426c-0.209-0.004-0.188 0.201-0.188 0.201h0.577c0-0.533 0.229-0.625 0.229-0.625 0.34 0.016 0.667-0.126 0.667-0.126-0.050 0.205 0.038 0.29 0.038 0.29 0.139-0.019 0.069 0.255 0.028 0.255s-0.126 0-0.176 0-0.195 0.157-0.195 0.157h0.598c0 0 0.091-0.132 0.123-0.198s-0.069-0.157-0.076-0.227 0.104-0.113 0.104-0.113c0.116 0.164 0.384 0.173 0.384 0.173l-0.006-0.123c0 0 0.139 0.047 0.17 0.088s0.025 0.23-0.142 0.252-0.179 0.142-0.179 0.142 0.381 0 0.456 0 0.135-0.142 0.135-0.195c0-0.053 0-0.403 0-0.479s-0.063-0.066-0.211-0.082c-0.134-0.014-0.122-0.161-0.177-0.332 0.194-0.006 0.495-0.049 0.495-0.249z"/><path fill="#e6b432" d="M17.637 10.554c-0.037-0.33-0.301-0.75-1.303-0.947-0.003-0.107-0.069-0.197-0.163-0.235v-0.184h0.164v-0.197h-0.164v-0.164h-0.197v0.164h-0.164v0.197h0.164v0.184c-0.094 0.038-0.159 0.128-0.162 0.235-1.002 0.197-1.265 0.617-1.303 0.947-0.047 0.412 0.248 0.802 0.514 0.951v0.209h2.1v-0.209c0.266-0.15 0.56-0.54 0.514-0.951zM16.538 11.19h-0.294v-1.211c0.242 0.109 0.392 0.277 0.436 0.508 0.054 0.287-0.060 0.58-0.142 0.703zM15.467 10.487c0.044-0.23 0.193-0.398 0.436-0.508v1.211h-0.294c-0.082-0.123-0.196-0.416-0.142-0.703zM15.224 10.154c-0.048 0.097-0.079 0.193-0.095 0.282-0.047 0.269 0.007 0.542 0.097 0.753h-0.069c-0.147-0.101-0.336-0.351-0.309-0.597 0.019-0.172 0.15-0.32 0.375-0.439zM16.99 11.19h-0.069c0.090-0.211 0.145-0.484 0.097-0.753-0.016-0.089-0.047-0.186-0.095-0.282 0.225 0.119 0.356 0.267 0.375 0.439 0.028 0.246-0.161 0.495-0.308 0.597z"/></svg>