<!-- Generated by IcoMoon.io -->
<svg version="1.1" xmlns="http://www.w3.org/2000/svg" width="32" height="32" viewBox="0 0 32 32">
<title>montserrat</title>
<path fill="#41479b" d="M31.448 26.483h-30.896c-0.305 0-0.552-0.247-0.552-0.552v-19.862c0-0.305 0.247-0.552 0.552-0.552h30.896c0.305 0 0.552 0.247 0.552 0.552v19.862c-0 0.305-0.247 0.552-0.552 0.552z"></path>
<path fill="#f5f5f5" d="M15.448 5.517h-0.958l-5.111 3.348v-3.348h-2.759v3.348l-5.111-3.348h-0.958c-0.305 0-0.552 0.247-0.552 0.552v0.438l4.385 2.873h-4.385v2.759h4.385l-4.385 2.873v0.438c0 0.305 0.247 0.552 0.552 0.552h0.958l5.111-3.348v3.348h2.759v-3.348l5.111 3.348h0.958c0.305 0 0.552-0.247 0.552-0.552v-0.438l-4.385-2.873h4.385v-2.759h-4.385l4.385-2.873v-0.438c0-0.305-0.247-0.552-0.552-0.552z"></path>
<path fill="#ff4b55" d="M16 9.931h-7.172v-4.414h-1.655v4.414h-7.172v1.655h7.172v4.414h1.655v-4.414h7.172z"></path>
<path fill="#ff4b55" d="M6.069 9.379l-5.806-3.769c-0.154 0.098-0.263 0.262-0.263 0.458v0.029l5.056 3.282h1.013z"></path>
<path fill="#ff4b55" d="M10.393 9.379l5.523-3.585c-0.096-0.162-0.265-0.277-0.468-0.277h-0.119l-5.95 3.862h1.013z"></path>
<path fill="#ff4b55" d="M5.592 12.138l-5.513 3.579c0.095 0.166 0.267 0.284 0.472 0.284h0.104l5.95-3.862h-1.013z"></path>
<path fill="#ff4b55" d="M15.991 15.492l-5.167-3.354h-1.013l5.867 3.808c0.176-0.082 0.296-0.252 0.313-0.455z"></path>
<path fill="#82afff" d="M20.335 11.703h7.329v5.664h-7.329v-5.664z"></path>
<path fill="#c86464" d="M20.335 17.367c0 1.932 2.166 3.498 3.665 3.498v0c1.333 0 3.665-1.566 3.665-3.498h-7.33z"></path>
<path fill="#73af00" d="M24.979 13.771c0.118 0.021 0.319 0.049 0.34 0.333s-0.083 1.298-0.187 1.423c0 0 0.34 0.77 0.354 1.229s-0.049 1.829-0.007 2.048c0.042 0.219 0.198 0.666 0.198 0.666s-0.479-0.281-0.666-0.104c-0.187 0.177-0.875 0.416-1.145 0.135 0 0 0.323-0.916 0.323-1.957s0-3.613 0-3.613 0.135-0.108 0.312-0.111c0.177-0.003 0.479-0.049 0.479-0.049z"></path>
<path fill="#fff5e1" d="M25.048 19.276c0.021 0.132 0.076 0.229 0.049 0.278s-0.208 0.493-0.104 0.493 0.285-0.055 0.333-0.153c0.049-0.097 0.069-0.243 0.097-0.285s-0.049-0.25-0.111-0.285c-0.062-0.035-0.264-0.049-0.264-0.049z"></path>
<path fill="#fff5e1" d="M23.847 14.063l-0.382 0.049c0 0 0.049-0.25 0.055-0.423s0.021-0.493 0.021-0.493 0.271-0.167 0.278-0.194c0.003-0.014 0.036-0.101 0.010-0.146s-0.108-0.049-0.108-0.049-0.319 0.167-0.319 0.194 0 0.194-0.035 0.257c-0.035 0.063-0.229 0.583-0.243 0.722s-0.035 0.43 0.021 0.444 0.632 0.076 0.694 0.049c0.062-0.028 0.007-0.409 0.007-0.409z"></path>
<path fill="#464655" d="M25.577 12.692h-1.389v-0.656h-0.479v0.656h-1.389v0.479h1.389v6.299h0.479v-6.299h1.389z"></path>
<path fill="#963c3c" d="M24.756 13.542c0 0 0.465 0.134 0.527-0.021 0.073-0.181-0.17-0.205-0.215-0.396-0.005-0.021-0.049-0.278-0.236-0.326s-0.361 0-0.368 0.125c-0.007 0.125 0.292 0.618 0.292 0.618z"></path>
<path fill="#fff5e1" d="M24.507 14.132c-0.014 0.002-0.035-0.139-0.007-0.312s0-0.229 0-0.229-0.194 0.021-0.194-0.056 0.042-0.43 0.16-0.611c0 0 0.083 0.104 0.236 0.104 0 0-0.007 0.125 0.076 0.208 0 0-0.104 0.090-0.055 0.153s0.139 0.139 0.139 0.139 0.007 0.146 0.118 0.243c-0 0-0.139 0.306-0.472 0.361z"></path>
<path fill="#464655" d="M22.605 17.145h0.042v0.826h-0.042v-0.826z"></path>
<path fill="#464655" d="M22.772 16.985h0.042v1.146h-0.042v-1.146z"></path>
<path fill="#464655" d="M22.94 16.839h0.042v1.438h-0.042v-1.438z"></path>
<path fill="#464655" d="M23.107 16.629h0.042v1.855h-0.042v-1.855z"></path>
<path fill="#464655" d="M23.275 16.356h0.042v2.401h-0.042v-2.401z"></path>
<path fill="#464655" d="M23.442 16.356h0.042v2.514h-0.042v-2.514z"></path>
<path fill="#ffe15a" d="M24.194 17.672c-0.184-0.957-0.694-1.513-0.875-1.541s-0.312 0.118-0.326 0.222-0.111 0.416-0.312 0.562c-0.201 0.146-0.576 0.229-0.659 0.5s0.139 0.389 0.271 0.361c0.010-0.002 0.020-0.006 0.029-0.009l1.419 1.745c0.052 0.063 0.152 0.053 0.188-0.020 0.146-0.298 0.423-1.004 0.266-1.82zM22.441 17.692c0.056-0.060 0.079-0.142 0.018-0.228-0.104-0.146-0.222 0.063-0.222 0.063s-0.035-0.18 0.236-0.271 0.576-0.243 0.715-0.569c0.139-0.326 0.132-0.264 0.132-0.264s0.555 0.312 0.632 1.291c0.076 0.979-0.194 1.374-0.194 1.374l-1.316-1.397z"></path>
<path fill="#fff5e1" d="M23.708 15.578c-0.064 0.041-0.121 0.076-0.161 0.097-0.13 0.068-0.286 0.135-0.302 0.198s-0.104 0.115-0.099 0.187c0.005 0.073 0 0.291 0 0.291 0.078-0.016 0.234-0.042 0.286-0.135s0.099-0.276 0.265-0.354c0.003-0.001 0.007-0.003 0.010-0.004v-0.28h-0z"></path>
<path fill="#fff5e1" d="M25.088 14.249c-0.078 0.036-0.312 0.318-0.349 0.448s-0.151 0.437-0.151 0.437-0.237 0.031-0.401 0.123v0.455c0.091-0.026 0.172-0.052 0.219-0.078 0.135-0.073 0.328-0.208 0.427-0.234s0.182-0.193 0.219-0.291 0.151-0.39 0.167-0.588c0.016-0.198-0.052-0.307-0.13-0.271z"></path>
<path fill="#f5f5f5" d="M24 20.983l-0.018-0.003c-3.721-0.587-3.763-3.81-3.763-3.947v-5.447h7.563v5.447c0 0.137-0.043 3.359-3.763 3.947l-0.018 0.003zM20.452 11.82v5.214c0 0.129 0.040 3.149 3.548 3.713 3.508-0.564 3.548-3.585 3.548-3.713v-5.214h-7.096z"></path>
</svg>
