<!-- Generated by IcoMoon.io -->
<svg version="1.1" xmlns="http://www.w3.org/2000/svg" width="32" height="32" viewBox="0 0 32 32">
<title>mozambique</title>
<path fill="#5aa587" d="M32 12.506h-32v-6.437c0-0.305 0.247-0.552 0.552-0.552h30.896c0.305 0 0.552 0.247 0.552 0.552l-0 6.437z"></path>
<path fill="#ffe15a" d="M31.448 26.483h-30.896c-0.305 0-0.552-0.247-0.552-0.552v-6.437h32v6.437c0 0.305-0.247 0.552-0.552 0.552z"></path>
<path fill="#464655" d="M0 12.506h32v6.988h-32v-6.988z"></path>
<path fill="#f5f5f5" d="M0 11.885h32v0.871h-32v-0.871z"></path>
<path fill="#f5f5f5" d="M0 19.243h32v0.871h-32v-0.871z"></path>
<path fill="#ff4b55" d="M0.203 26.349l12.678-10.063c0.184-0.146 0.184-0.426 0-0.572l-12.678-10.063c-0.122 0.101-0.203 0.248-0.203 0.418v19.862c0 0.171 0.082 0.317 0.203 0.418z"></path>
<path fill="#ffe15a" d="M5.113 12.411l0.807 2.418 2.549 0.020c0.143 0.001 0.202 0.183 0.087 0.268l-2.051 1.514 0.769 2.431c0.043 0.136-0.112 0.248-0.228 0.165l-2.074-1.482-2.074 1.483c-0.116 0.083-0.271-0.029-0.228-0.165l0.769-2.431-2.051-1.514c-0.115-0.085-0.056-0.267 0.087-0.268l2.549-0.020 0.807-2.418c0.045-0.135 0.237-0.135 0.282 0z"></path>
<path fill="#f5f5f5" d="M4.825 16.903l-0.199 0.201h-1.667l0.455-1.67 0.186-0.093-0.298 1.489c-0.002 0.018 0.001 0.037 0.013 0.051 0.011 0.015 0.028 0.022 0.046 0.022h1.464z"></path>
<path fill="#f5f5f5" d="M5.225 17.181c-0.072 0.054-0.16 0.084-0.252 0.084s-0.18-0.031-0.252-0.084l0.252-0.252 0.252 0.252z"></path>
<path fill="#f5f5f5" d="M6.988 17.104h-1.667l-0.199-0.201h1.464c0.018 0 0.035-0.007 0.046-0.022 0.012-0.015 0.016-0.033 0.013-0.051l-0.298-1.489 0.186 0.093 0.455 1.67z"></path>
<path fill="#f5f5f5" d="M6.511 16.781h-1.477v-1.523c0.247-0.209 0.899-0.066 1.176 0.020l0.301 1.504z"></path>
<path fill="#f5f5f5" d="M4.912 15.258v1.523h-1.476l0.301-1.503c0.277-0.086 0.928-0.229 1.176-0.020z"></path>
<path fill="#464655" d="M7.127 17.149l-0.483-1.774c-0.005-0.016-0.016-0.031-0.032-0.038l-0.323-0.161c-0.001-0.001-0.003-0.001-0.005-0.001-0.001 0-0.001-0.001-0.002-0.002-0.039-0.013-0.933-0.305-1.309-0.020-0.376-0.285-1.27 0.006-1.309 0.020-0.001 0.001-0.001 0.001-0.002 0.002-0.002 0-0.004 0-0.005 0.001l-0.323 0.161c-0.016 0.007-0.027 0.022-0.032 0.038l-0.483 1.774c-0.005 0.018-0.001 0.038 0.010 0.053 0.012 0.015 0.031 0.024 0.049 0.024h1.713c0.101 0.102 0.239 0.161 0.383 0.161s0.281-0.060 0.383-0.161h1.713c0.018 0 0.037-0.010 0.049-0.024 0.011-0.015 0.015-0.034 0.010-0.053zM5.034 15.258c0.247-0.209 0.899-0.066 1.176 0.020l0.301 1.503h-1.476c0 0 0-1.523 0-1.523zM3.736 15.277c0.276-0.086 0.929-0.229 1.176-0.020v1.523h-1.476l0.301-1.504zM2.958 17.104l0.455-1.67 0.186-0.093-0.298 1.489c-0.002 0.018 0.001 0.037 0.013 0.051 0.011 0.015 0.028 0.022 0.046 0.022h1.464l-0.199 0.201h-1.667zM4.973 17.265c-0.092 0-0.18-0.031-0.252-0.084l0.252-0.252 0.252 0.252c-0.072 0.054-0.16 0.084-0.252 0.084zM5.32 17.104l-0.199-0.201h1.464c0.018 0 0.035-0.007 0.046-0.022 0.012-0.015 0.016-0.033 0.013-0.051l-0.298-1.489 0.186 0.093 0.455 1.67h-1.667z"></path>
<path fill="#464655" d="M6.502 13.66c-0.062 0.043-0.147 0.036-0.201-0.018l-0.081-0.081v0.199l-0.498 0.498h-0.199l-0.797 0.797h-0.199l-1.532 1.532c-0.038 0.038-0.051 0.093-0.034 0.144l0.072 0.216-0.299 0.299h-0.199l-0.609 0.609c-0.049 0.049-0.049 0.128 0 0.176l0.402 0.402c0.058 0.058 0.153 0.054 0.207-0.008l0.897-1.079 0.1-0.299 0.199-0.199 0.398 0.598 0.299-0.299-0.319-0.478 0.079-0.079c0.077-0.077 0.077-0.202 0-0.279l-0.059-0.059 0.056-0.056c0.425 0.364 0.935 0.458 1.421 0.25l-0.166-0.388c-0.402 0.172-0.729 0.028-0.957-0.159l0.841-0.841-0.033-0.166 0.232-0.232h0.199l1.494-1.494-0.714 0.498z"></path>
<path fill="#464655" d="M3.531 13.461l-0.199 0.199c-0.055 0.055-0.055 0.144 0 0.199l0.033 0.033-0.332 0.066-0.896 0.896 0.498 0.498 0.896-0.896 0.066-0.332 0.133 0.133 0.1-0.1 3.313 3.312 0.199-0.199-3.313-3.313 0.1-0.1-0.398-0.398c-0.055-0.055-0.144-0.055-0.199-0z"></path>
</svg>
