<!-- Generated by IcoMoon.io -->
<svg version="1.1" xmlns="http://www.w3.org/2000/svg" width="32" height="32" viewBox="0 0 32 32">
<title>namibia</title>
<path fill="#41479b" d="M0 21.517v-15.448c0-0.305 0.247-0.552 0.552-0.552h23.724l-24.276 16z"></path>
<path fill="#73af00" d="M32 10.483v15.448c0 0.305-0.247 0.552-0.552 0.552h-23.724l24.276-16z"></path>
<path fill="#f5f5f5" d="M32 10.794v-4.725c0-0.305-0.247-0.552-0.552-0.552h-7.502l-23.946 15.689v4.725c0 0.305 0.247 0.552 0.552 0.552h7.502l23.946-15.689z"></path>
<path fill="#ff4b55" d="M32 8.815v-2.747c0-0.305-0.247-0.552-0.552-0.552h-4.482l-26.966 17.667v2.747c0 0.305 0.247 0.552 0.552 0.552h4.482l26.966-17.667z"></path>
<path fill="#ffe15a" d="M5.638 9.118c0.543 0 1.035 0.22 1.391 0.576l0.195-1.355-1.077 0.848-0.509-1.273-0.509 1.273-1.077-0.848 0.195 1.355c0.356-0.356 0.848-0.576 1.391-0.576z"></path>
<path fill="#ffe15a" d="M4.246 12.477c-0.356-0.356-0.576-0.848-0.576-1.391s0.22-1.035 0.576-1.391l-1.355-0.195 0.848 1.077-1.273 0.509 1.273 0.509-0.848 1.077 1.355-0.195z"></path>
<path fill="#ffe15a" d="M8.81 11.086l-1.273-0.509 0.848-1.077-1.355 0.195c0.356 0.356 0.576 0.848 0.576 1.391s-0.22 1.035-0.576 1.391l1.355 0.195-0.848-1.077 1.273-0.509z"></path>
<path fill="#ffe15a" d="M5.638 13.054c-0.543 0-1.035-0.22-1.391-0.576l-0.195 1.355 1.077-0.848 0.509 1.273 0.509-1.273 1.077 0.848-0.195-1.355c-0.356 0.356-0.848 0.576-1.391 0.576z"></path>
<path fill="#ffe15a" d="M7.245 11.086c0 0.887-0.719 1.607-1.607 1.607s-1.607-0.719-1.607-1.607c0-0.887 0.719-1.607 1.607-1.607s1.607 0.719 1.607 1.607z"></path>
</svg>
