<svg xmlns="http://www.w3.org/2000/svg" width="32" height="32" version="1.1" viewBox="0 0 32 32"><title>nauru</title><path fill="#41479b" d="M31.448 26.483h-30.896c-0.305 0-0.552-0.247-0.552-0.552v-19.862c0-0.305 0.247-0.552 0.552-0.552h30.896c0.305 0 0.552 0.247 0.552 0.552v19.862c-0 0.305-0.247 0.552-0.552 0.552z"/><path fill="#ffe15a" d="M0 14.896h32v2.207h-32v-2.207z"/><path fill="#f5f5f5" d="M7.448 19.31l0.321 1.284 0.92-0.951-0.364 1.272 1.272-0.364-0.951 0.92 1.284 0.321-1.284 0.321 0.951 0.92-1.272-0.364 0.364 1.272-0.92-0.951-0.321 1.284-0.321-1.284-0.92 0.951 0.364-1.272-1.272 0.364 0.951-0.92-1.284-0.321 1.284-0.321-0.951-0.92 1.272 0.364-0.364-1.272 0.92 0.951z"/></svg>