<!-- Generated by IcoMoon.io -->
<svg version="1.1" xmlns="http://www.w3.org/2000/svg" width="32" height="32" viewBox="0 0 32 32">
<title>nepal</title>
<path fill="#f5f5f5" d="M31.448 26.483h-30.896c-0.305 0-0.552-0.247-0.552-0.552v-19.862c0-0.305 0.247-0.552 0.552-0.552h30.896c0.305 0 0.552 0.247 0.552 0.552v19.862c-0 0.305-0.247 0.552-0.552 0.552z"></path>
<path fill="#41479b" d="M0.717 6.93l11.43 8.353h-8.808l9.398 10.483h-12.021v-18.836zM0.193 5.658c-0.116 0.101-0.193 0.245-0.193 0.411v19.862c0 0.305 0.247 0.552 0.552 0.552h13.793l-9.398-10.483h9.398l-14.152-10.342z"></path>
<path fill="#ff4b55" d="M0.717 6.93l11.43 8.353h-8.808l9.398 10.483h-12.021v-18.836z"></path>
<path fill="#f5f5f5" d="M4.209 18.525l0.442 0.911 0.838-0.569c0.037-0.025 0.087 0.004 0.083 0.048l-0.073 1.010 1.010-0.073c0.045-0.003 0.073 0.046 0.048 0.083l-0.569 0.838 0.911 0.442c0.040 0.020 0.040 0.077 0 0.096l-0.911 0.442 0.569 0.838c0.025 0.037-0.004 0.087-0.048 0.083l-1.010-0.073 0.073 1.010c0.003 0.045-0.046 0.073-0.083 0.048l-0.838-0.569-0.442 0.911c-0.019 0.040-0.077 0.040-0.096 0l-0.442-0.911-0.838 0.569c-0.037 0.025-0.087-0.004-0.083-0.048l0.073-1.010-1.010 0.073c-0.045 0.003-0.073-0.046-0.048-0.083l0.569-0.838-0.912-0.441c-0.040-0.020-0.040-0.077 0-0.096l0.911-0.442-0.569-0.838c-0.025-0.037 0.004-0.087 0.048-0.083l1.010 0.073-0.073-1.010c-0.003-0.045 0.046-0.073 0.083-0.048l0.838 0.569 0.442-0.911c0.020-0.040 0.077-0.040 0.096-0z"></path>
<path fill="#f5f5f5" d="M5.356 13.254l-0.383-0.262 0.338-0.354-0.481-0.088 0.165-0.46-0.475 0.115-0.037-0.488-0.387 0.299-0.232-0.43-0.232 0.43-0.387-0.299-0.037 0.488-0.475-0.115 0.164 0.46-0.481 0.088 0.338 0.354-0.383 0.262c-0.484-0.226-0.909-0.556-1.244-0.964 0.225 1.31 1.363 2.308 2.738 2.308s2.513-0.998 2.738-2.308c-0.335 0.408-0.76 0.738-1.244 0.964z"></path>
</svg>
