<svg xmlns="http://www.w3.org/2000/svg" width="32" height="32" version="1.1" viewBox="0 0 32 32"><title>niger</title><path fill="#73af00" d="M0 19.494h32v6.437c0 0.305-0.247 0.552-0.552 0.552h-30.896c-0.305 0-0.552-0.247-0.552-0.552v-6.437z"/><path fill="#ff9b55" d="M0.552 5.517h30.896c0.305 0 0.552 0.247 0.552 0.552v6.437h-32v-6.437c0-0.305 0.247-0.552 0.552-0.552z"/><path fill="#f5f5f5" d="M0 12.506h32v6.988h-32v-6.988z"/><path fill="#ff9b55" d="M18.759 16c0 1.524-1.235 2.759-2.759 2.759s-2.759-1.235-2.759-2.759c0-1.524 1.235-2.759 2.759-2.759s2.759 1.235 2.759 2.759z"/></svg>