<svg xmlns="http://www.w3.org/2000/svg" width="32" height="32" version="1.1" viewBox="0 0 32 32"><title>niue</title><path fill="#ffe15a" d="M31.448 26.483h-30.896c-0.305 0-0.552-0.247-0.552-0.552v-19.862c0-0.305 0.247-0.552 0.552-0.552h30.896c0.305 0 0.552 0.247 0.552 0.552v19.862c-0 0.305-0.247 0.552-0.552 0.552z"/><path fill="#41479b" d="M15.448 16h-14.896c-0.305 0-0.552-0.247-0.552-0.552v-9.379c0-0.305 0.247-0.552 0.552-0.552h14.896c0.305 0 0.552 0.247 0.552 0.552v9.379c-0 0.305-0.247 0.552-0.552 0.552z"/><path fill="#f5f5f5" d="M15.448 5.517h-0.958l-5.111 3.348v-3.348h-2.759v3.348l-5.111-3.348h-0.958c-0.305 0-0.552 0.247-0.552 0.552v0.438l4.385 2.873h-4.385v2.759h4.385l-4.385 2.873v0.438c0 0.305 0.247 0.552 0.552 0.552h0.958l5.111-3.348v3.348h2.759v-3.348l5.111 3.348h0.958c0.305 0 0.552-0.247 0.552-0.552v-0.438l-4.385-2.873h4.385v-2.759h-4.385l4.385-2.873v-0.438c0-0.305-0.247-0.552-0.552-0.552z"/><path fill="#ff4b55" d="M16 9.931h-7.172v-4.414h-1.655v4.414h-7.172v1.655h7.172v4.414h1.655v-4.414h7.172z"/><path fill="#ff4b55" d="M6.069 9.379l-5.806-3.769c-0.154 0.098-0.263 0.262-0.263 0.458v0.029l5.056 3.282h1.013z"/><path fill="#ff4b55" d="M10.393 9.379l5.523-3.585c-0.096-0.162-0.265-0.277-0.468-0.277h-0.119l-5.95 3.862h1.013z"/><path fill="#ff4b55" d="M5.592 12.138l-5.513 3.579c0.095 0.166 0.267 0.284 0.472 0.284h0.104l5.95-3.862h-1.013z"/><path fill="#ff4b55" d="M15.991 15.492l-5.167-3.354h-1.013l5.867 3.808c0.176-0.082 0.296-0.252 0.313-0.455z"/><path fill="#41479b" d="M9.655 10.759c0 0.914-0.741 1.655-1.655 1.655s-1.655-0.741-1.655-1.655c0-0.914 0.741-1.655 1.655-1.655s1.655 0.741 1.655 1.655z"/><path fill="#ffe15a" d="M8.112 9.417l0.277 0.829 0.874 0.007c0.113 0.001 0.16 0.145 0.069 0.213l-0.703 0.519 0.264 0.833c0.034 0.108-0.089 0.197-0.181 0.131l-0.711-0.508-0.711 0.508c-0.092 0.066-0.215-0.023-0.181-0.131l0.264-0.833-0.703-0.519c-0.091-0.067-0.044-0.212 0.069-0.213l0.874-0.007 0.277-0.829c0.036-0.107 0.188-0.107 0.223 0z"/><path fill="#ffe15a" d="M3.531 10.092l0.149 0.446 0.47 0.004c0.061 0.001 0.086 0.078 0.037 0.114l-0.378 0.279 0.142 0.448c0.018 0.058-0.048 0.106-0.097 0.071l-0.382-0.273-0.382 0.273c-0.050 0.035-0.115-0.013-0.097-0.071l0.142-0.448-0.378-0.279c-0.049-0.036-0.024-0.114 0.037-0.114l0.47-0.004 0.149-0.446c0.019-0.058 0.101-0.058 0.12 0z"/><path fill="#ffe15a" d="M12.63 10.092l0.149 0.446 0.47 0.004c0.061 0.001 0.086 0.078 0.037 0.114l-0.378 0.279 0.142 0.448c0.018 0.058-0.048 0.106-0.097 0.071l-0.382-0.273-0.382 0.273c-0.050 0.035-0.116-0.013-0.097-0.071l0.142-0.448-0.378-0.279c-0.049-0.036-0.024-0.114 0.037-0.114l0.47-0.004 0.149-0.446c0.019-0.058 0.101-0.058 0.12 0z"/><path fill="#ffe15a" d="M8.067 6.743l0.149 0.446 0.47 0.004c0.061 0 0.086 0.078 0.037 0.114l-0.378 0.279 0.142 0.448c0.018 0.058-0.048 0.106-0.097 0.071l-0.382-0.273-0.382 0.273c-0.050 0.035-0.115-0.013-0.097-0.071l0.142-0.448-0.378-0.279c-0.049-0.036-0.024-0.114 0.037-0.114l0.47-0.004 0.149-0.446c0.019-0.058 0.101-0.058 0.12 0z"/><path fill="#ffe15a" d="M8.067 13.52l0.149 0.446 0.47 0.004c0.061 0.001 0.086 0.078 0.037 0.114l-0.378 0.279 0.142 0.448c0.018 0.058-0.048 0.106-0.097 0.071l-0.382-0.273-0.382 0.273c-0.050 0.035-0.115-0.013-0.097-0.071l0.142-0.448-0.378-0.279c-0.049-0.036-0.024-0.114 0.037-0.114l0.47-0.004 0.149-0.446c0.019-0.058 0.101-0.058 0.12 0z"/></svg>