<svg xmlns="http://www.w3.org/2000/svg" width="32" height="32" version="1.1" viewBox="0 0 32 32"><title>norfolk-island</title><path fill="#73af00" d="M10.667 26.483h-10.115c-0.305 0-0.552-0.247-0.552-0.552v-19.862c0-0.305 0.247-0.552 0.552-0.552h10.115v20.965z"/><path fill="#f5f5f5" d="M10.667 5.517h10.667v20.966h-10.667v-20.966z"/><path fill="#73af00" d="M31.448 26.483h-10.115v-20.965h10.115c0.305 0 0.552 0.247 0.552 0.552v19.862c0 0.305-0.247 0.552-0.552 0.552z"/><path fill="#73af00" d="M19.685 21.412l-1.712-9.988c-0.065-0.381-0.201-0.747-0.4-1.079l-1.573-2.621-1.573 2.621c-0.199 0.332-0.335 0.698-0.4 1.079l-1.712 9.988c-0.033 0.191 0.114 0.365 0.308 0.365h2.753v2.498h1.249v-2.498h2.753c0.194 0 0.341-0.174 0.308-0.365z"/></svg>