<svg xmlns="http://www.w3.org/2000/svg" width="32" height="32" version="1.1" viewBox="0 0 32 32"><title>north-korea</title><path fill="#41479b" d="M31.448 26.483h-30.896c-0.305 0-0.552-0.247-0.552-0.552v-19.862c0-0.305 0.247-0.552 0.552-0.552h30.896c0.305 0 0.552 0.247 0.552 0.552v19.862c-0 0.305-0.247 0.552-0.552 0.552z"/><path fill="#f5f5f5" d="M0 8.276h32v1.103h-32v-1.103z"/><path fill="#f5f5f5" d="M0 22.621h32v1.103h-32v-1.103z"/><path fill="#ff4b55" d="M0 9.379h32v13.241h-32v-13.241z"/><path fill="#f5f5f5" d="M13.241 16c0 2.438-1.976 4.414-4.414 4.414s-4.414-1.976-4.414-4.414c0-2.438 1.976-4.414 4.414-4.414s4.414 1.976 4.414 4.414z"/><path fill="#ff4b55" d="M8.945 11.982l0.885 2.655 2.799 0.022c0.119 0.001 0.168 0.153 0.073 0.224l-2.251 1.662 0.844 2.668c0.036 0.113-0.093 0.207-0.19 0.138l-2.277-1.627-2.277 1.627c-0.097 0.069-0.226-0.025-0.19-0.138l0.844-2.668-2.251-1.662c-0.096-0.071-0.046-0.223 0.073-0.224l2.799-0.022 0.885-2.655c0.038-0.113 0.197-0.113 0.235 0z"/></svg>