<svg xmlns="http://www.w3.org/2000/svg" width="32" height="32" version="1.1" viewBox="0 0 32 32"><title>oman</title><path fill="#f5f5f5" d="M32 12.506h-32v-6.437c0-0.305 0.247-0.552 0.552-0.552h30.896c0.305 0 0.552 0.247 0.552 0.552l-0 6.437z"/><path fill="#73af00" d="M31.448 26.483h-30.896c-0.305 0-0.552-0.247-0.552-0.552v-6.437h32v6.437c0 0.305-0.247 0.552-0.552 0.552z"/><path fill="#ff4b55" d="M0 12.506h32v6.988h-32v-6.988z"/><path fill="#ff4b55" d="M8.276 26.483h-7.724c-0.305 0-0.552-0.247-0.552-0.552v-19.862c0-0.305 0.247-0.552 0.552-0.552h7.724v20.966z"/><path fill="#f5f5f5" d="M2.253 10.090c-0.031 0.004-0.061 0.007-0.090 0.011v0.393c0.029 0.007 0.059 0.015 0.090 0.022v-0.426z"/><path fill="#f5f5f5" d="M3.613 10.839c-0.082-0.007-0.208-0.019-0.358-0.037l-0.942 0.838c0.122 0.019 0.268 0.043 0.329 0.063 0.242-0.212 0.567-0.501 0.971-0.864z"/><path fill="#f5f5f5" d="M5.031 9.506v-0.081h-1.672v0.12h1.672z"/><path fill="#f5f5f5" d="M3.793 7.115c0 0.118 0.177 0.217 0.388 0.217s0.388-0.099 0.388-0.217c0-0.118-0.177-0.217-0.388-0.217s-0.388 0.099-0.388 0.217z"/><path fill="#f5f5f5" d="M3.43 10.037c-0.377-0.002-0.754 0.012-1.062 0.041v0.464c0.362 0.078 0.783 0.137 1.062 0.167 0-0 0-0.672 0-0.672z"/><path fill="#f5f5f5" d="M1.486 12.326c0.149-0.003 0.477-0.062 0.699-0.235 0.069-0.054 0.186-0.153 0.351-0.296-0.112-0.023-0.3-0.051-0.4-0.065l-0.65 0.596z"/><path fill="#f5f5f5" d="M3.646 9.311v-0.211c-0.028-0.042-0.057-0.086-0.087-0.13l-0.257 0.187c0.051 0.088 0.084 0.144 0.090 0.154l0.254 0z"/><path fill="#f5f5f5" d="M1.671 10.263c-0.001 0.003-0.003 0.011 0.010 0.028 0.048 0.061 0.185 0.119 0.368 0.172v-0.345c-0.22 0.036-0.364 0.085-0.379 0.144z"/><path fill="#f5f5f5" d="M4.607 10.098v-0.438h-0.847v1.069h0.215c0.348 0 0.631-0.283 0.631-0.632z"/><path fill="#f5f5f5" d="M3.246 8.508c-0.453-0.668-0.938-1.371-1.056-1.51 0.017 0.062 0.058 0.179 0.153 0.398 0.123 0.282 0.422 0.824 0.67 1.259l0.233-0.147z"/><path fill="#f5f5f5" d="M3.071 8.755c0.065 0.113 0.124 0.216 0.173 0.302l0.25-0.182c-0.060-0.088-0.121-0.179-0.183-0.271l-0.24 0.152z"/><path fill="#f5f5f5" d="M3.646 10.728v-0.688c-0.033-0.001-0.067-0.001-0.1-0.002v0.682c0.039 0.003 0.072 0.006 0.1 0.008z"/><path fill="#f5f5f5" d="M3.761 8.72h0.847v0.12h-0.847v-0.12z"/><path fill="#f5f5f5" d="M5.784 9.303v0.007h0.043c0.032 0 0.057 0.026 0.057 0.057v0.235c0 0.032-0.026 0.057-0.057 0.057h-0.043v0.007c0 0.032 0.026 0.057 0.057 0.057h0.969c0.032 0 0.057-0.026 0.057-0.057v-0.364c0-0.032-0.026-0.057-0.057-0.057h-0.969c-0.032-0-0.057 0.026-0.057 0.057z"/><path fill="#f5f5f5" d="M6.868 12.323l-0.647-0.593c-0.1 0.014-0.288 0.042-0.4 0.065 0.168 0.146 0.285 0.245 0.351 0.296 0.218 0.171 0.539 0.23 0.695 0.232z"/><path fill="#f5f5f5" d="M5.54 9.465v0.081h0.23v-0.12h-0.23z"/><path fill="#f5f5f5" d="M5.716 11.703c0.061-0.020 0.208-0.044 0.33-0.063l-1.388-1.239c-0.038 0.085-0.090 0.161-0.155 0.225l0.037 0.033c0.503 0.45 0.896 0.799 1.177 1.044z"/><path fill="#f5f5f5" d="M2.605 9.668v-0.007h-0.043c-0.032 0-0.057-0.026-0.057-0.057v-0.235c0-0.032 0.026-0.057 0.057-0.057h0.043v-0.007c0-0.032-0.026-0.057-0.057-0.057h-0.969c-0.032 0-0.057 0.026-0.057 0.057v0.364c0 0.032 0.026 0.057 0.057 0.057h0.969c0.032 0 0.057-0.026 0.057-0.057z"/><path fill="#f5f5f5" d="M2.849 9.506v-0.081h-0.23v0.12h0.23z"/><path fill="#f5f5f5" d="M5.056 9.157l-0.257-0.187c-0.026 0.039-0.052 0.077-0.077 0.115v0.226h0.244c0.006-0.010 0.039-0.066 0.090-0.154z"/><path fill="#f5f5f5" d="M3.837 8.369h0.693l-0.153-0.169h-0.388z"/><path fill="#f5f5f5" d="M3.761 8.489h0.847v0.117h-0.847v-0.117z"/><path fill="#f5f5f5" d="M4.18 7.447c-0.056 0-0.108-0.007-0.158-0.018v0.649h0.319v-0.65c-0.051 0.011-0.104 0.019-0.161 0.019z"/><path fill="#f5f5f5" d="M3.761 9.075h0.843c-0-0.007 0.001-0.014 0.004-0.021v-0.099h-0.847v0.12z"/><path fill="#f5f5f5" d="M4.863 8.875l0.25 0.182c0.050-0.086 0.109-0.189 0.173-0.302l-0.24-0.152c-0.063 0.092-0.124 0.183-0.183 0.271z"/><path fill="#f5f5f5" d="M3.761 9.191h0.847v0.12h-0.847v-0.12z"/><path fill="#f5f5f5" d="M5.344 8.655c0.247-0.436 0.546-0.977 0.67-1.259 0.096-0.219 0.137-0.336 0.153-0.398-0.116 0.136-0.601 0.84-1.056 1.51l0.233 0.147z"/><path fill="#d23741" d="M7.028 12.314l-0.749-0.687c-0.013-0.011-0.029-0.017-0.046-0.015-0.006 0.001-0.021 0.003-0.040 0.005-0.001-0.001-0.001-0.002-0.003-0.003l-1.492-1.332c0.015-0.059 0.024-0.121 0.024-0.185v-0.438h0.362c0.047 0.061 0.119 0.101 0.201 0.101s0.155-0.040 0.201-0.101h0.183v0.007c0 0.095 0.077 0.172 0.172 0.172h0.969c0.095 0 0.172-0.077 0.172-0.172v-0.364c0-0.095-0.077-0.172-0.172-0.172h-0.969c-0.095 0-0.172 0.077-0.172 0.172v0.007h-0.183c-0.047-0.061-0.119-0.101-0.201-0.101-0.062 0-0.119 0.023-0.163 0.061 0.194-0.331 0.801-1.381 0.997-1.829 0.209-0.48 0.193-0.542 0.143-0.582-0.052-0.042-0.118 0.006-0.143 0.025-0.096 0.070-1.027 1.446-1.397 1.994v-0.453c0-0.001-0.001-0.002-0.001-0.004l-0-0c-0.001-0.019-0.012-0.036-0.028-0.045l-0.237-0.262v-0.722c0.137-0.059 0.226-0.16 0.226-0.278 0-0.186-0.221-0.332-0.502-0.332s-0.502 0.146-0.502 0.332c0 0.119 0.091 0.221 0.23 0.28v0.725l-0.232 0.258c-0.017 0.010-0.030 0.028-0.030 0.049v0.468c-0.362-0.538-1.31-1.939-1.407-2.009-0.025-0.018-0.091-0.066-0.143-0.025-0.050 0.040-0.066 0.102 0.143 0.582 0.189 0.433 0.765 1.431 0.977 1.795-0.034-0.017-0.071-0.027-0.112-0.027-0.082 0-0.155 0.040-0.201 0.101h-0.183v-0.007c0-0.095-0.077-0.172-0.172-0.172h-0.969c-0.095 0-0.172 0.077-0.172 0.172v0.364c0 0.095 0.077 0.172 0.172 0.172h0.969c0.095 0 0.172-0.077 0.172-0.172v-0.007h0.183c0.047 0.061 0.119 0.101 0.201 0.101s0.155-0.040 0.201-0.101h0.341v0.264c-0.532-0.011-2.006-0.013-2.087 0.31-0.008 0.030-0.008 0.076 0.031 0.127 0.155 0.199 0.942 0.344 1.513 0.421l-0.936 0.832c-0.001 0.001-0.002 0.002-0.003 0.004-0.019-0.003-0.034-0.005-0.040-0.005-0.017-0.002-0.034 0.003-0.046 0.015l-0.749 0.687c-0.023 0.021-0.025 0.056-0.005 0.079 0.025 0.030 0.088 0.044 0.172 0.044 0.208 0 0.544-0.088 0.759-0.256 0.177-0.138 0.667-0.568 1.457-1.277 0.034-0.031 0.057-0.051 0.067-0.060h0.197c0.164 0 0.315-0.054 0.438-0.143l0.049 0.043c0.909 0.814 1.461 1.297 1.64 1.437 0.215 0.168 0.551 0.256 0.759 0.256 0.084 0 0.147-0.015 0.172-0.044 0.020-0.024 0.018-0.058-0.005-0.079zM3.761 10.73v-1.069h0.847v0.438c0 0.348-0.283 0.632-0.631 0.632h-0.215zM2.049 10.463c-0.183-0.053-0.321-0.111-0.368-0.172-0.013-0.017-0.011-0.025-0.010-0.028 0.015-0.060 0.159-0.108 0.379-0.144v0.345zM2.191 6.998c0.118 0.139 0.602 0.841 1.056 1.51l-0.233 0.147c-0.248-0.436-0.546-0.977-0.67-1.259-0.095-0.219-0.136-0.336-0.153-0.398zM3.558 8.97c0.030 0.044 0.059 0.088 0.087 0.13v0.211h-0.254c-0.006-0.010-0.039-0.066-0.090-0.154l0.257-0.187zM3.244 9.057c-0.050-0.086-0.109-0.189-0.173-0.302l0.24-0.152c0.063 0.092 0.124 0.183 0.183 0.271l-0.25 0.182zM3.646 10.040v0.688c-0.028-0.002-0.062-0.004-0.1-0.008v-0.682c0.034 0 0.067 0.001 0.1 0.002zM2.368 10.078c0.308-0.029 0.685-0.043 1.062-0.041v0.672c-0.279-0.030-0.7-0.089-1.062-0.167v-0.464zM2.164 10.101c0.029-0.004 0.059-0.008 0.090-0.011v0.426c-0.031-0.007-0.061-0.015-0.090-0.022 0 0 0-0.393 0-0.393zM3.255 10.802c0.15 0.018 0.276 0.031 0.358 0.037-0.404 0.363-0.729 0.652-0.971 0.864-0.061-0.020-0.207-0.044-0.329-0.063l0.942-0.838zM2.536 11.795c-0.165 0.143-0.283 0.242-0.351 0.296-0.222 0.173-0.55 0.232-0.699 0.235l0.65-0.596c0.1 0.014 0.288 0.042 0.4 0.065zM3.359 9.546v-0.12h1.672v0.12h-1.672zM4.568 7.115c0 0.118-0.177 0.217-0.388 0.217s-0.388-0.099-0.388-0.217c0-0.118 0.177-0.217 0.388-0.217s0.388 0.099 0.388 0.217zM3.761 8.84v-0.12h0.847v0.12h-0.847zM4.607 8.955v0.099c-0.003 0.007-0.004 0.014-0.004 0.021h-0.843v-0.12h0.847c0 0 0 0 0 0zM3.761 8.605v-0.117h0.847v0.117h-0.847zM4.378 8.199l0.153 0.169h-0.693l0.153-0.169h0.388zM4.022 8.078v-0.649c0.050 0.011 0.102 0.018 0.158 0.018 0.057 0 0.111-0.007 0.161-0.019v0.65h-0.319zM3.761 9.19h0.847v0.12h-0.847v-0.12zM6.014 7.396c-0.123 0.282-0.422 0.824-0.67 1.259l-0.233-0.147c0.455-0.67 0.94-1.374 1.056-1.51-0.017 0.062-0.058 0.179-0.153 0.398zM5.425 9.465v0.041c0 0.077-0.063 0.14-0.14 0.14s-0.14-0.063-0.14-0.14v-0.041c0-0.077 0.063-0.14 0.14-0.14s0.14 0.063 0.14 0.14zM5.114 9.057l-0.25-0.182c0.060-0.088 0.121-0.179 0.183-0.271l0.24 0.152c-0.064 0.113-0.124 0.216-0.173 0.302zM4.722 9.085c0.025-0.037 0.051-0.076 0.077-0.115l0.257 0.187c-0.051 0.088-0.084 0.144-0.090 0.154h-0.244v-0.226zM4.657 10.401l1.388 1.239c-0.122 0.019-0.269 0.043-0.33 0.063-0.281-0.245-0.674-0.594-1.177-1.044l-0.037-0.033c0.065-0.064 0.117-0.141 0.155-0.225zM6.222 11.73l0.647 0.593c-0.156-0.002-0.477-0.062-0.695-0.232-0.066-0.051-0.183-0.15-0.351-0.296 0.112-0.023 0.3-0.051 0.4-0.065zM6.868 9.303v0.364c0 0.032-0.026 0.057-0.057 0.057h-0.969c-0.032 0-0.057-0.026-0.057-0.057v-0.007h0.043c0.032 0 0.057-0.026 0.057-0.057v-0.235c0-0.032-0.026-0.057-0.057-0.057h-0.043v-0.007c0-0.032 0.026-0.057 0.057-0.057h0.969c0.032-0 0.058 0.026 0.058 0.057zM5.77 9.546h-0.23v-0.12h0.23v0.12zM1.522 9.668v-0.364c0-0.032 0.026-0.057 0.057-0.057h0.969c0.032 0 0.057 0.026 0.057 0.057v0.007h-0.043c-0.032 0-0.057 0.026-0.057 0.057v0.235c0 0.032 0.026 0.057 0.057 0.057h0.043v0.007c0 0.032-0.026 0.057-0.057 0.057h-0.969c-0.032 0-0.058-0.026-0.058-0.057zM2.619 9.425h0.23v0.12h-0.23v-0.12zM3.244 9.506c0 0.077-0.063 0.14-0.14 0.14s-0.14-0.063-0.14-0.14v-0.041c0-0.077 0.063-0.14 0.14-0.14s0.14 0.063 0.14 0.14v0.041z"/></svg>