<svg xmlns="http://www.w3.org/2000/svg" width="32" height="32" version="1.1" viewBox="0 0 32 32"><title>philippines</title><path fill="#f5f5f5" d="M0.203 26.349l15.796-10.349-15.796-10.349c-0.122 0.101-0.203 0.248-0.203 0.418v19.862c0 0.171 0.082 0.317 0.203 0.418z"/><path fill="#ff4b55" d="M0.203 26.349c0.096 0.080 0.214 0.133 0.348 0.133h30.897c0.305 0 0.552-0.247 0.552-0.552v-9.931h-16l-15.796 10.349z"/><path fill="#41479b" d="M0.203 5.651c0.096-0.080 0.214-0.133 0.348-0.133h30.897c0.305 0 0.552 0.247 0.552 0.552v9.931h-16l-15.796-10.349z"/><path fill="#ffe15a" d="M7.586 16c0 0.99-0.803 1.793-1.793 1.793s-1.793-0.803-1.793-1.793c0-0.99 0.803-1.793 1.793-1.793s1.793 0.803 1.793 1.793z"/><path fill="#ffe15a" d="M5.793 16l-0.672-2.69 0.672-0.897 0.672 0.897z"/><path fill="#ffe15a" d="M5.793 16l0.672 2.69-0.672 0.897-0.672-0.897z"/><path fill="#ffe15a" d="M5.793 16l-2.69 0.672-0.897-0.672 0.897-0.672z"/><path fill="#ffe15a" d="M5.793 16l2.69-0.672 0.897 0.672-0.897 0.672z"/><path fill="#ffe15a" d="M5.793 16l1.426-2.377 1.109-0.159-0.159 1.109z"/><path fill="#ffe15a" d="M5.793 16l-1.426 2.377-1.109 0.159 0.159-1.109z"/><path fill="#ffe15a" d="M5.793 16l-2.377-1.426-0.159-1.109 1.109 0.159z"/><path fill="#ffe15a" d="M5.793 16l2.377 1.426 0.159 1.109-1.109-0.159z"/><path fill="#ffe15a" d="M1.479 8.231l0.093 0.697-0.63 0.314c-0.082 0.041-0.064 0.162 0.025 0.178l0.692 0.127 0.104 0.696c0.014 0.090 0.134 0.111 0.177 0.031l0.334-0.619 0.694 0.116c0.090 0.015 0.147-0.093 0.084-0.159l-0.486-0.509 0.325-0.624c0.042-0.081-0.043-0.169-0.125-0.129l-0.635 0.304-0.493-0.502c-0.064-0.065-0.174-0.011-0.161 0.079z"/><path fill="#ffe15a" d="M1.756 21.807l-0.118 0.694-0.695 0.113c-0.090 0.015-0.11 0.135-0.029 0.178l0.623 0.327-0.107 0.695c-0.014 0.090 0.095 0.146 0.16 0.082l0.503-0.492 0.628 0.317c0.081 0.041 0.168-0.045 0.128-0.127l-0.312-0.631 0.496-0.5c0.064-0.065 0.009-0.174-0.081-0.161l-0.696 0.102-0.322-0.626c-0.042-0.081-0.163-0.062-0.178 0.028z"/><path fill="#ffe15a" d="M12.671 14.972l-0.405 0.575-0.676-0.197c-0.087-0.025-0.157 0.075-0.102 0.148l0.422 0.563-0.396 0.582c-0.051 0.075 0.023 0.173 0.109 0.143l0.666-0.227 0.431 0.556c0.056 0.072 0.171 0.032 0.17-0.059l-0.011-0.704 0.662-0.238c0.086-0.031 0.083-0.153-0.004-0.18l-0.673-0.207-0.021-0.703c-0.003-0.091-0.12-0.126-0.172-0.052z"/></svg>