<!-- Generated by IcoMoon.io -->
<svg version="1.1" xmlns="http://www.w3.org/2000/svg" width="32" height="32" viewBox="0 0 32 32">
<title>portugal</title>
<path fill="#ff4b55" d="M31.448 26.483h-30.896c-0.305 0-0.552-0.247-0.552-0.552v-19.862c0-0.305 0.247-0.552 0.552-0.552h30.896c0.305 0 0.552 0.247 0.552 0.552v19.862c-0 0.305-0.247 0.552-0.552 0.552z"></path>
<path fill="#73af00" d="M11.586 5.517h-11.034c-0.305 0-0.552 0.247-0.552 0.552v19.862c0 0.305 0.247 0.552 0.552 0.552h11.034v-20.965h-0z"></path>
<path fill="#ffe15a" d="M16.552 16c0 2.74-2.221 4.961-4.961 4.961s-4.961-2.221-4.961-4.961c0-2.74 2.221-4.961 4.961-4.961s4.961 2.221 4.961 4.961z"></path>
<path fill="#ff4b55" d="M13.246 14.345v2.207c0 0.913-0.742 1.655-1.655 1.655s-1.655-0.742-1.655-1.655v-2.207h3.31zM13.797 13.241h-4.414c-0.305 0-0.552 0.247-0.552 0.552v2.759c0 1.523 1.235 2.759 2.759 2.759s2.759-1.235 2.759-2.759v-2.759c0-0.305-0.247-0.552-0.552-0.552v0z"></path>
<path fill="#f5f5f5" d="M13.246 14.345v2.207c0 0.913-0.742 1.655-1.655 1.655s-1.655-0.742-1.655-1.655v-2.207h3.31z"></path>
<path fill="#ffe15a" d="M9.655 13.793c0 0.152-0.123 0.276-0.276 0.276s-0.276-0.123-0.276-0.276c0-0.152 0.123-0.276 0.276-0.276s0.276 0.123 0.276 0.276z"></path>
<path fill="#ffe15a" d="M14.069 13.793c0 0.152-0.123 0.276-0.276 0.276s-0.276-0.123-0.276-0.276c0-0.152 0.123-0.276 0.276-0.276s0.276 0.123 0.276 0.276z"></path>
<path fill="#ffe15a" d="M9.655 16c0 0.152-0.123 0.276-0.276 0.276s-0.276-0.123-0.276-0.276c0-0.152 0.123-0.276 0.276-0.276s0.276 0.123 0.276 0.276z"></path>
<path fill="#ffe15a" d="M14.069 16c0 0.152-0.123 0.276-0.276 0.276s-0.276-0.123-0.276-0.276c0-0.152 0.123-0.276 0.276-0.276s0.276 0.123 0.276 0.276z"></path>
<path fill="#ffe15a" d="M11.862 13.793c0 0.152-0.123 0.276-0.276 0.276s-0.276-0.123-0.276-0.276c0-0.152 0.123-0.276 0.276-0.276s0.276 0.123 0.276 0.276z"></path>
<path fill="#ffe15a" d="M13.518 18.034c0 0.152-0.123 0.276-0.276 0.276s-0.276-0.123-0.276-0.276c0-0.152 0.123-0.276 0.276-0.276s0.276 0.123 0.276 0.276z"></path>
<path fill="#ffe15a" d="M10.238 18.034c0 0.152-0.123 0.276-0.276 0.276s-0.276-0.123-0.276-0.276c0-0.152 0.123-0.276 0.276-0.276s0.276 0.123 0.276 0.276z"></path>
<path fill="#41479b" d="M11.947 15.86v0.475c0 0.197-0.16 0.356-0.356 0.356s-0.356-0.16-0.356-0.356v-0.475h0.713z"></path>
<path fill="#41479b" d="M11.947 14.734v0.475c0 0.197-0.16 0.356-0.356 0.356s-0.356-0.16-0.356-0.356v-0.475h0.713z"></path>
<path fill="#41479b" d="M11.947 16.998v0.475c0 0.197-0.16 0.356-0.356 0.356s-0.356-0.16-0.356-0.356v-0.475h0.713z"></path>
<path fill="#41479b" d="M12.907 15.86v0.475c0 0.197-0.16 0.356-0.356 0.356s-0.356-0.16-0.356-0.356v-0.475h0.713z"></path>
<path fill="#41479b" d="M10.987 15.86v0.475c0 0.197-0.16 0.356-0.356 0.356s-0.356-0.16-0.356-0.356v-0.475h0.713z"></path>
</svg>
