<svg xmlns="http://www.w3.org/2000/svg" width="32" height="32" version="1.1" viewBox="0 0 32 32"><title>puerto-rico</title><path fill="#ff4b55" d="M32 9.71h-32v-3.641c0-0.305 0.247-0.552 0.552-0.552h30.896c0.305 0 0.552 0.247 0.552 0.552l-0 3.641z"/><path fill="#f5f5f5" d="M0 9.711h32v4.193h-32v-4.193z"/><path fill="#ff4b55" d="M0 13.904h32v4.193h-32v-4.193z"/><path fill="#ff4b55" d="M31.448 26.483h-30.896c-0.305 0-0.552-0.247-0.552-0.552v-3.641h32v3.641c0 0.305-0.247 0.552-0.552 0.552z"/><path fill="#f5f5f5" d="M0 18.097h32v4.193h-32v-4.193z"/><path fill="#41479b" d="M0.203 26.349l15.271-10.005c0.248-0.162 0.248-0.526 0-0.688l-15.271-10.005c-0.122 0.101-0.203 0.248-0.203 0.418v19.862c0 0.171 0.082 0.317 0.203 0.418z"/><path fill="#f5f5f5" d="M5.636 13.439l0.576 1.726 1.82 0.014c0.236 0.002 0.333 0.303 0.144 0.443l-1.464 1.081 0.549 1.735c0.071 0.225-0.185 0.41-0.376 0.273l-1.481-1.058-1.481 1.058c-0.192 0.137-0.447-0.049-0.376-0.273l0.549-1.735-1.464-1.081c-0.19-0.14-0.092-0.441 0.144-0.443l1.82-0.014 0.576-1.726c0.075-0.224 0.391-0.224 0.465 0z"/></svg>