<!-- Generated by IcoMoon.io -->
<svg version="1.1" xmlns="http://www.w3.org/2000/svg" width="32" height="32" viewBox="0 0 32 32">
<title>qatar</title>
<path fill="#f5f5f5" d="M14.897 26.483h-14.345c-0.305 0-0.552-0.247-0.552-0.552v-19.862c0-0.305 0.247-0.552 0.552-0.552h14.345v20.966z"></path>
<path fill="#873250" d="M31.448 5.517h-20.987c0.015 0 0.029 0.002 0.043 0.006l3.337 1.019c0.139 0.042 0.139 0.239-0 0.282l-2.896 0.882c-0.139 0.042-0.139 0.239-0 0.282l2.896 0.885c0.139 0.042 0.139 0.239-0 0.281l-2.896 0.882c-0.139 0.042-0.139 0.239-0 0.282l2.896 0.885c0.139 0.042 0.139 0.239-0 0.281l-2.895 0.881c-0.139 0.042-0.139 0.239 0 0.282l2.895 0.881c0.139 0.042 0.139 0.239 0 0.282l-2.896 0.885c-0.139 0.043-0.139 0.239 0 0.282l2.896 0.882c0.139 0.042 0.139 0.239 0 0.282l-2.896 0.885c-0.139 0.043-0.139 0.239 0 0.282l2.896 0.882c0.139 0.042 0.139 0.239 0 0.282l-2.896 0.885c-0.139 0.043-0.139 0.239 0 0.282l2.896 0.882c0.139 0.042 0.139 0.239 0 0.282l-2.896 0.885c-0.139 0.043-0.139 0.239 0 0.282l2.895 0.882c0.139 0.042 0.139 0.239 0 0.282l-2.895 0.882c-0.139 0.042-0.139 0.239-0 0.282l2.896 0.885c0.139 0.042 0.139 0.239-0 0.282l-3.337 1.016c-0.014 0.004-0.028 0.006-0.043 0.006h20.987c0.305 0 0.552-0.247 0.552-0.552v-19.862c-0-0.305-0.247-0.552-0.552-0.552z"></path>
</svg>
