<svg xmlns="http://www.w3.org/2000/svg" width="32" height="32" version="1.1" viewBox="0 0 32 32"><title>republic-of-macedonia</title><path fill="#ff4b55" d="M31.448 26.483h-30.896c-0.305 0-0.552-0.247-0.552-0.552v-19.862c0-0.305 0.247-0.552 0.552-0.552h30.896c0.305 0 0.552 0.247 0.552 0.552v19.862c-0 0.305-0.247 0.552-0.552 0.552z"/><path fill="#ffe15a" d="M14.108 14.001c-0 0-0.001 0.001-0.001 0.001l-8.038-8.484h-5.517c-0.134 0-0.253 0.054-0.348 0.133l13.491 8.839c0.118-0.18 0.258-0.342 0.413-0.489z"/><path fill="#ffe15a" d="M13.27 16.283c-0.010-0.094-0.028-0.186-0.028-0.283s0.019-0.188 0.028-0.283v0l-13.27-1.373v3.31l13.27-1.373z"/><path fill="#ffe15a" d="M15.571 13.285c0.141-0.022 0.282-0.043 0.429-0.043s0.288 0.021 0.429 0.043h-0l1.226-7.767h-3.31l1.226 7.767z"/><path fill="#ffe15a" d="M18.305 14.49l13.492-8.839c-0.096-0.080-0.214-0.133-0.348-0.133h-5.517l-8.038 8.485c-0-0-0.001-0.001-0.001-0.001 0.155 0.147 0.295 0.309 0.413 0.489z"/><path fill="#ffe15a" d="M17.892 17.999c0-0 0.001-0.001 0.001-0.001l8.038 8.485h5.517c0.134 0 0.253-0.054 0.348-0.133l-13.492-8.839c-0.118 0.18-0.258 0.342-0.413 0.489z"/><path fill="#ffe15a" d="M18.73 15.718v-0c0.010 0.094 0.029 0.186 0.029 0.283s-0.019 0.188-0.029 0.283v-0l13.27 1.373v-3.31l-13.27 1.373z"/><path fill="#ffe15a" d="M16.429 18.715c-0.141 0.022-0.282 0.043-0.429 0.043s-0.288-0.021-0.429-0.043h0l-1.226 7.767h3.31l-1.226-7.767z"/><path fill="#ffe15a" d="M13.695 17.51l-13.492 8.839c0.096 0.080 0.214 0.133 0.348 0.133h5.517l8.038-8.485c0 0 0.001 0.001 0.001 0.001-0.155-0.147-0.295-0.309-0.413-0.489z"/><path fill="#ffe15a" d="M18.207 16c0 1.219-0.988 2.207-2.207 2.207s-2.207-0.988-2.207-2.207c0-1.219 0.988-2.207 2.207-2.207s2.207 0.988 2.207 2.207z"/></svg>