<!-- Generated by IcoMoon.io -->
<svg version="1.1" xmlns="http://www.w3.org/2000/svg" width="32" height="32" viewBox="0 0 32 32">
<title>saba-island</title>
<path fill="#41479b" d="M31.448 26.483h-30.896c-0.305 0-0.552-0.247-0.552-0.552v-9.931h32v9.931c0 0.305-0.247 0.552-0.552 0.552z"></path>
<path fill="#ff4b55" d="M0.552 5.517h30.896c0.305 0 0.552 0.247 0.552 0.552v9.931h-32v-9.931c0-0.305 0.247-0.552 0.552-0.552z"></path>
<path fill="#f5f5f5" d="M16 5.517l-16 10.483 16 10.483 16-10.483z"></path>
<path fill="#ffe15a" d="M16.165 9.919l1.324 3.81 4.033 0.082c0.166 0.003 0.235 0.214 0.102 0.315l-3.214 2.437 1.168 3.861c0.048 0.159-0.131 0.289-0.268 0.195l-3.311-2.304-3.311 2.304c-0.136 0.095-0.316-0.035-0.268-0.195l1.168-3.861-3.214-2.437c-0.132-0.1-0.064-0.311 0.102-0.315l4.033-0.082 1.324-3.81c0.055-0.157 0.277-0.157 0.331 0z"></path>
</svg>
