<!-- Generated by IcoMoon.io -->
<svg version="1.1" xmlns="http://www.w3.org/2000/svg" width="32" height="32" viewBox="0 0 32 32">
<title>sahrawi-arab-democratic-republic</title>
<path fill="#464655" d="M32 12.506h-32v-6.437c0-0.305 0.247-0.552 0.552-0.552h30.896c0.305 0 0.552 0.247 0.552 0.552l-0 6.437z"></path>
<path fill="#73af00" d="M31.448 26.483h-30.896c-0.305 0-0.552-0.247-0.552-0.552v-6.437h32v6.437c0 0.305-0.247 0.552-0.552 0.552z"></path>
<path fill="#f5f5f5" d="M0 12.506h32v6.988h-32v-6.988z"></path>
<path fill="#ff4b55" d="M0.203 26.349l12.678-10.063c0.184-0.146 0.184-0.426 0-0.572l-12.678-10.063c-0.122 0.101-0.203 0.248-0.203 0.418v19.862c0 0.171 0.082 0.317 0.203 0.418z"></path>
<path fill="#ff4b55" d="M16.56 16c0-1.258 0.822-2.325 1.958-2.692 0.065-0.021 0.057-0.117-0.012-0.123-0.218-0.021-0.444-0.018-0.674 0.014-1.335 0.187-2.364 1.316-2.429 2.662-0.078 1.625 1.217 2.968 2.825 2.968 0.093 0 0.185-0.005 0.276-0.013 0.069-0.007 0.078-0.103 0.012-0.124-1.136-0.367-1.957-1.433-1.957-2.691z"></path>
<path fill="#ff4b55" d="M18.961 14.142l-0.372 1.114-1.175 0.009c-0.152 0.001-0.215 0.195-0.093 0.286l0.945 0.698-0.354 1.12c-0.046 0.145 0.119 0.265 0.243 0.177l0.956-0.683 0.956 0.683c0.124 0.088 0.289-0.032 0.243-0.177l-0.354-1.12 0.945-0.698c0.122-0.090 0.059-0.284-0.093-0.286l-1.175-0.009-0.372-1.114c-0.048-0.144-0.252-0.144-0.3 0z"></path>
</svg>
