<svg xmlns="http://www.w3.org/2000/svg" width="32" height="32" version="1.1" viewBox="0 0 32 32"><title>saint-kitts-and-nevis</title><path fill="#73af00" d="M31.448 26.483h-30.896c-0.305 0-0.552-0.247-0.552-0.552v-19.862c0-0.305 0.247-0.552 0.552-0.552h30.896c0.305 0 0.552 0.247 0.552 0.552v19.862c-0 0.305-0.247 0.552-0.552 0.552z"/><path fill="#ffe15a" d="M23.443 5.517l-23.443 15.359v1.649l25.96-17.008z"/><path fill="#ffe15a" d="M32 11.124v-1.649l-25.96 17.008h2.517z"/><path fill="#464655" d="M32 9.475v-3.406c0-0.305-0.247-0.552-0.552-0.552h-5.489l-25.96 17.008v3.406c0 0.305 0.247 0.552 0.552 0.552h5.489l25.96-17.008z"/><path fill="#f5f5f5" d="M9.751 17.244l1.132 0.912 1.229-0.776c0.159-0.101 0.355 0.059 0.288 0.235l-0.517 1.359 1.118 0.929c0.145 0.12 0.053 0.356-0.135 0.346l-1.452-0.072-0.538 1.351c-0.070 0.175-0.322 0.16-0.371-0.021l-0.38-1.403-1.451-0.095c-0.188-0.012-0.252-0.257-0.094-0.36l1.217-0.795-0.358-1.409c-0.046-0.182 0.166-0.319 0.313-0.201z"/><path fill="#f5f5f5" d="M20.188 10.393l1.132 0.912 1.229-0.776c0.159-0.101 0.355 0.059 0.288 0.235l-0.517 1.359 1.118 0.929c0.145 0.12 0.053 0.356-0.135 0.346l-1.452-0.072-0.538 1.351c-0.070 0.175-0.322 0.16-0.371-0.021l-0.38-1.403-1.451-0.095c-0.188-0.012-0.252-0.257-0.094-0.36l1.217-0.795-0.358-1.409c-0.046-0.182 0.166-0.319 0.313-0.201z"/><path fill="#ff4b55" d="M32 25.931v-14.807l-23.443 15.359h22.891c0.305 0 0.552-0.247 0.552-0.552z"/></svg>