<svg xmlns="http://www.w3.org/2000/svg" width="32" height="32" version="1.1" viewBox="0 0 32 32"><title>samoa</title><path fill="#ff4b55" d="M31.448 26.483h-30.896c-0.305 0-0.552-0.247-0.552-0.552v-19.862c0-0.305 0.247-0.552 0.552-0.552h30.896c0.305 0 0.552 0.247 0.552 0.552v19.862c-0 0.305-0.247 0.552-0.552 0.552z"/><path fill="#41479b" d="M0.552 5.517h14.897c0.305 0 0.552 0.247 0.552 0.552v9.379c0 0.305-0.247 0.552-0.552 0.552h-14.897c-0.305-0-0.552-0.247-0.552-0.552v-9.379c0-0.305 0.247-0.552 0.552-0.552z"/><path fill="#f5f5f5" d="M7.86 12.35l-0.253 0.759-0.801 0.006c-0.104 0.001-0.147 0.133-0.063 0.195l0.644 0.476-0.241 0.763c-0.031 0.099 0.081 0.181 0.166 0.12l0.651-0.466 0.651 0.466c0.084 0.060 0.197-0.021 0.166-0.12l-0.241-0.763 0.644-0.476c0.083-0.062 0.040-0.194-0.063-0.195l-0.801-0.006-0.253-0.759c-0.033-0.098-0.172-0.098-0.205 0z"/><path fill="#f5f5f5" d="M7.88 6.428l-0.205 0.614-0.648 0.005c-0.084 0.001-0.119 0.108-0.051 0.157l0.521 0.385-0.195 0.617c-0.025 0.080 0.066 0.146 0.134 0.097l0.527-0.377 0.527 0.377c0.068 0.049 0.159-0.017 0.134-0.097l-0.195-0.617 0.521-0.385c0.067-0.050 0.033-0.157-0.051-0.157l-0.648-0.005-0.205-0.614c-0.027-0.080-0.139-0.080-0.165 0z"/><path fill="#f5f5f5" d="M11.156 8.256l-0.205 0.614-0.648 0.005c-0.084 0.001-0.119 0.108-0.051 0.157l0.521 0.385-0.195 0.617c-0.025 0.080 0.066 0.146 0.134 0.097l0.527-0.377 0.527 0.377c0.068 0.049 0.159-0.017 0.134-0.097l-0.195-0.617 0.521-0.385c0.067-0.050 0.033-0.157-0.051-0.157l-0.648-0.005-0.205-0.614c-0.027-0.080-0.139-0.080-0.165 0z"/><path fill="#f5f5f5" d="M4.673 8.98l-0.205 0.614-0.648 0.005c-0.084 0.001-0.119 0.108-0.051 0.157l0.521 0.385-0.195 0.617c-0.025 0.080 0.066 0.146 0.134 0.097l0.527-0.377 0.527 0.377c0.068 0.049 0.159-0.017 0.134-0.097l-0.195-0.617 0.521-0.385c0.067-0.050 0.033-0.157-0.051-0.157l-0.648-0.005-0.205-0.614c-0.027-0.080-0.139-0.080-0.165 0z"/><path fill="#f5f5f5" d="M9.744 10.986l-0.115 0.345-0.364 0.003c-0.047 0-0.067 0.060-0.029 0.088l0.292 0.216-0.11 0.347c-0.014 0.045 0.037 0.082 0.075 0.055l0.296-0.211 0.296 0.211c0.038 0.027 0.089-0.010 0.075-0.055l-0.11-0.347 0.292-0.216c0.038-0.028 0.018-0.088-0.029-0.088l-0.364-0.003-0.115-0.345c-0.015-0.045-0.078-0.045-0.093 0z"/></svg>