<svg xmlns="http://www.w3.org/2000/svg" width="32" height="32" version="1.1" viewBox="0 0 32 32"><title>sao-tome-and-prince</title><path fill="#73af00" d="M31.448 26.483h-30.896c-0.305 0-0.552-0.247-0.552-0.552v-19.862c0-0.305 0.247-0.552 0.552-0.552h30.896c0.305 0 0.552 0.247 0.552 0.552v19.862c-0 0.305-0.247 0.552-0.552 0.552z"/><path fill="#ffe15a" d="M0 10.482h32v11.034h-32v-11.034z"/><path fill="#ff4b55" d="M0.167 26.324l10.868-10.324-10.868-10.324c-0.102 0.1-0.167 0.239-0.167 0.393v19.862c0 0.155 0.064 0.293 0.167 0.393z"/><path fill="#464655" d="M17.394 13.485l0.565 1.695 1.787 0.014c0.231 0.002 0.327 0.297 0.141 0.435l-1.438 1.062 0.539 1.704c0.070 0.221-0.181 0.403-0.37 0.269l-1.454-1.039-1.454 1.039c-0.188 0.135-0.439-0.048-0.37-0.269l0.539-1.704-1.438-1.062c-0.186-0.137-0.090-0.433 0.141-0.435l1.787-0.014 0.565-1.695c0.073-0.22 0.383-0.22 0.457 0z"/><path fill="#464655" d="M25.644 13.485l0.565 1.695 1.787 0.014c0.231 0.002 0.327 0.297 0.141 0.435l-1.438 1.062 0.539 1.704c0.070 0.221-0.181 0.403-0.37 0.269l-1.454-1.039-1.454 1.039c-0.188 0.135-0.439-0.048-0.37-0.269l0.539-1.704-1.438-1.062c-0.186-0.137-0.090-0.433 0.141-0.435l1.787-0.014 0.565-1.695c0.073-0.22 0.383-0.22 0.457 0z"/></svg>