<svg xmlns="http://www.w3.org/2000/svg" width="32" height="32" version="1.1" viewBox="0 0 32 32"><title>sardinia</title><path fill="#f5f5f5" d="M31.448 26.483h-30.896c-0.305 0-0.552-0.247-0.552-0.552v-19.862c0-0.305 0.247-0.552 0.552-0.552h30.896c0.305 0 0.552 0.247 0.552 0.552v19.862c-0 0.305-0.247 0.552-0.552 0.552z"/><path fill="#ff4b55" d="M32 14.897h-14.897v-9.379h-2.207v9.379h-14.896v2.207h14.896v9.379h2.207v-9.379h14.897z"/><path fill="#464655" d="M10.321 10.46c0.093-0.185-0.42-0.786-0.393-0.921s0.088-0.344-0.13-1.133c-0.218-0.789-0.871-0.979-1.66-1.061s-1.832 0.484-2.067 1.102c-0.142 0.373-0.046 0.789 0.103 1.185-0.067 0.007-0.195 0.011-0.29-0.059-0.075-0.056-0.116-0.151-0.124-0.283-0.026-0.5 0.247-1.319 0.249-1.328l0.020-0.061-0.857-0.302 0.050 0.402-0.661-0.141 0.040 0.111c0.058 0.16 0.57 1.565 0.639 1.689 0.113 0.203 0.266 0.332 0.456 0.385 0.068 0.019 0.135 0.026 0.199 0.026 0.008 0 0.015-0.002 0.023-0.002-0.039 0.071-0.117 0.162-0.317 0.254-0.234 0.108-0.472 0.225-0.498 0.662l-0.007 0.004c0.002 0.004 0.005 0.006 0.007 0.010-0.006 0.116-0 0.248 0.027 0.414 0.069 0.411 0.209 0.813 0.215 0.83l0.014 0.039 0.041 0.005c0.003 0 0.272 0.032 0.354 0.315 0.048 0.164 0.198 0.288 0.345 0.288 0.004 0 0.008-0 0.011-0 0.064-0.003 0.218-0.036 0.268-0.286l0.007-0.036-0.405-0.373 0.136-0.448-0.065-0.017c-0.004-0.001-0.272-0.082-0.55-0.385-0.026-0.125-0.023-0.215 0.011-0.266 0.038-0.057 0.118-0.073 0.211-0.092 0.087-0.017 0.176-0.035 0.249-0.092 0.234-0.183 0.364-0.496 0.431-0.711 0.036 0.081 0.070 0.16 0.101 0.235 0.231 0.571-0.408 1.224-0.408 1.224 0.408 0.163 0.449 0.258 1.020 0.966s1.088 0.408 1.088 0.408-0.073-0.453 0.302-0.644c0.375-0.191 0.384-0.437 0.384-0.437 0.937 0.22 0.993-0.164 0.952-0.297s0.010-0.343 0.010-0.343 0.094 0.006 0.164-0.041c0.11-0.074 0.036-0.251 0.036-0.251 0.107-0.051 0.149-0.164 0.067-0.251s-0.077-0.184-0.077-0.184 0.215 0.015 0.276-0.108zM5.735 9.918c-0.155-0.043-0.282-0.152-0.377-0.323-0.045-0.082-0.364-0.939-0.59-1.559l0.475 0.101 0.089 0.713 0.129-0.016-0.13-1.042 0.537 0.189c-0.065 0.204-0.26 0.866-0.236 1.315 0.009 0.172 0.068 0.3 0.175 0.38 0.097 0.073 0.214 0.090 0.303 0.090 0.053 0 0.088-0.005 0.113-0.009 0.013 0.033 0.027 0.065 0.041 0.097-0.075 0.037-0.297 0.13-0.529 0.064zM6.245 12.611c-0.018 0.064-0.057 0.143-0.138 0.146-0.002 0-0.004 0-0.006 0-0.089 0-0.189-0.087-0.22-0.193-0.002-0.005-0.005-0.008-0.007-0.014l0.066-0.219 0.304 0.28zM5.957 11.832l-0.166 0.546c-0.108-0.146-0.259-0.198-0.332-0.215-0.036-0.107-0.142-0.442-0.197-0.773-0.012-0.070-0.017-0.129-0.023-0.188 0.275 0.402 0.585 0.576 0.717 0.629zM5.896 10.79c-0.048 0.037-0.119 0.051-0.194 0.067-0.107 0.021-0.227 0.045-0.295 0.149-0.025 0.038-0.037 0.085-0.043 0.138-0.043-0.061-0.088-0.113-0.128-0.188 0.029-0.332 0.21-0.416 0.425-0.516 0.31-0.143 0.382-0.296 0.413-0.388 0.111-0.022 0.193-0.056 0.242-0.079 0.002 0.006 0.005 0.011 0.007 0.017-0.034 0.151-0.152 0.586-0.426 0.801zM6.625 10.204l-0.266-0.573 3.133-1.454c0.205 0.389 0.225 0.85 0.225 0.85l-3.092 1.178z"/><path fill="#464655" d="M27.424 10.46c0.093-0.185-0.42-0.786-0.392-0.921s0.088-0.344-0.13-1.133c-0.218-0.789-0.871-0.979-1.66-1.061s-1.831 0.484-2.067 1.102c-0.142 0.373-0.046 0.789 0.103 1.185-0.067 0.007-0.195 0.011-0.29-0.059-0.075-0.056-0.116-0.151-0.124-0.283-0.026-0.5 0.247-1.319 0.249-1.328l0.020-0.061-0.857-0.302 0.050 0.402-0.661-0.141 0.040 0.111c0.058 0.16 0.57 1.565 0.639 1.689 0.113 0.203 0.267 0.332 0.456 0.385 0.068 0.019 0.135 0.026 0.199 0.026 0.008 0 0.015-0.002 0.023-0.002-0.039 0.071-0.117 0.162-0.317 0.254-0.235 0.108-0.472 0.225-0.498 0.662l-0.007 0.004c0.002 0.004 0.005 0.006 0.007 0.010-0.006 0.116-0 0.248 0.027 0.414 0.069 0.411 0.209 0.813 0.215 0.83l0.014 0.039 0.041 0.005c0.003 0 0.272 0.032 0.354 0.315 0.048 0.164 0.198 0.288 0.345 0.288 0.004 0 0.008-0 0.011-0 0.064-0.003 0.218-0.036 0.268-0.286l0.007-0.036-0.405-0.373 0.136-0.448-0.065-0.017c-0.004-0.001-0.272-0.082-0.55-0.385-0.026-0.125-0.023-0.215 0.011-0.266 0.038-0.057 0.118-0.073 0.211-0.092 0.087-0.017 0.176-0.035 0.249-0.092 0.234-0.183 0.364-0.496 0.43-0.711 0.036 0.081 0.070 0.16 0.101 0.235 0.231 0.571-0.408 1.224-0.408 1.224 0.408 0.163 0.449 0.258 1.020 0.966s1.088 0.408 1.088 0.408-0.073-0.453 0.302-0.644c0.375-0.191 0.384-0.437 0.384-0.437 0.937 0.22 0.993-0.164 0.952-0.297s0.010-0.343 0.010-0.343 0.094 0.006 0.164-0.041c0.11-0.074 0.036-0.251 0.036-0.251 0.108-0.051 0.148-0.164 0.067-0.251s-0.077-0.184-0.077-0.184 0.215 0.015 0.276-0.108zM22.838 9.918c-0.155-0.043-0.282-0.152-0.377-0.323-0.045-0.082-0.364-0.939-0.59-1.559l0.475 0.101 0.089 0.713 0.129-0.016-0.131-1.042 0.537 0.189c-0.065 0.204-0.26 0.866-0.236 1.315 0.009 0.172 0.068 0.3 0.175 0.38 0.097 0.073 0.214 0.090 0.303 0.090 0.053 0 0.088-0.005 0.113-0.009 0.013 0.033 0.027 0.065 0.041 0.097-0.076 0.037-0.297 0.13-0.529 0.064zM23.349 12.611c-0.018 0.064-0.057 0.143-0.138 0.146-0.002 0-0.004 0-0.006 0-0.089 0-0.189-0.087-0.22-0.193-0.002-0.005-0.005-0.008-0.007-0.014l0.066-0.219 0.304 0.28zM23.061 11.832l-0.166 0.546c-0.108-0.146-0.259-0.198-0.332-0.215-0.036-0.107-0.142-0.442-0.197-0.773-0.012-0.070-0.017-0.129-0.023-0.188 0.275 0.402 0.585 0.576 0.717 0.629zM22.999 10.79c-0.048 0.037-0.119 0.051-0.194 0.067-0.107 0.021-0.227 0.045-0.295 0.149-0.025 0.038-0.037 0.085-0.043 0.138-0.043-0.061-0.088-0.113-0.128-0.188 0.029-0.332 0.21-0.416 0.425-0.516 0.31-0.143 0.382-0.296 0.413-0.388 0.11-0.022 0.193-0.056 0.242-0.079 0.002 0.006 0.005 0.011 0.007 0.017-0.034 0.151-0.152 0.586-0.426 0.801zM23.728 10.204l-0.266-0.573 3.133-1.454c0.205 0.389 0.225 0.85 0.225 0.85l-3.092 1.178z"/><path fill="#464655" d="M10.321 22.046c0.093-0.185-0.42-0.785-0.393-0.921s0.088-0.344-0.13-1.133c-0.218-0.789-0.871-0.979-1.66-1.061s-1.832 0.484-2.067 1.102c-0.142 0.373-0.046 0.789 0.103 1.185-0.067 0.007-0.195 0.011-0.29-0.059-0.075-0.056-0.116-0.151-0.124-0.283-0.026-0.5 0.247-1.32 0.249-1.328l0.020-0.061-0.857-0.302 0.050 0.402-0.661-0.141 0.040 0.111c0.058 0.16 0.57 1.565 0.639 1.689 0.113 0.203 0.266 0.332 0.456 0.385 0.068 0.019 0.135 0.026 0.199 0.026 0.008 0 0.015-0.002 0.023-0.002-0.039 0.071-0.117 0.162-0.317 0.254-0.234 0.108-0.472 0.225-0.498 0.662l-0.007 0.004c0.002 0.004 0.005 0.006 0.007 0.010-0.006 0.116-0 0.248 0.027 0.414 0.069 0.41 0.209 0.813 0.215 0.83l0.014 0.039 0.041 0.005c0.003 0 0.272 0.032 0.354 0.315 0.048 0.164 0.198 0.288 0.345 0.288 0.004 0 0.008-0 0.011-0 0.064-0.003 0.218-0.036 0.268-0.286l0.007-0.036-0.405-0.373 0.136-0.448-0.065-0.017c-0.004-0.001-0.272-0.082-0.55-0.385-0.026-0.125-0.023-0.215 0.011-0.266 0.038-0.057 0.118-0.073 0.211-0.092 0.087-0.017 0.176-0.035 0.249-0.092 0.234-0.183 0.364-0.497 0.431-0.711 0.036 0.081 0.070 0.16 0.101 0.235 0.231 0.571-0.408 1.224-0.408 1.224 0.408 0.163 0.449 0.258 1.020 0.965s1.088 0.408 1.088 0.408-0.073-0.453 0.302-0.644c0.375-0.191 0.384-0.437 0.384-0.437 0.937 0.22 0.993-0.164 0.952-0.297s0.010-0.343 0.010-0.343 0.094 0.006 0.164-0.041c0.11-0.074 0.036-0.251 0.036-0.251 0.107-0.051 0.149-0.164 0.067-0.251s-0.077-0.184-0.077-0.184 0.215 0.015 0.276-0.108zM5.735 21.504c-0.155-0.043-0.282-0.152-0.377-0.323-0.045-0.082-0.364-0.939-0.59-1.559l0.475 0.101 0.089 0.713 0.129-0.016-0.13-1.042 0.537 0.189c-0.065 0.204-0.26 0.866-0.236 1.315 0.009 0.172 0.068 0.3 0.175 0.38 0.097 0.073 0.214 0.090 0.303 0.090 0.053 0 0.088-0.005 0.113-0.009 0.013 0.033 0.027 0.065 0.041 0.097-0.075 0.037-0.297 0.13-0.529 0.064zM6.245 24.198c-0.018 0.064-0.057 0.143-0.138 0.146-0.002 0-0.004 0-0.006 0-0.089 0-0.189-0.087-0.22-0.193-0.002-0.005-0.005-0.008-0.007-0.014l0.066-0.219 0.304 0.279zM5.957 23.418l-0.166 0.546c-0.108-0.146-0.259-0.198-0.332-0.215-0.036-0.108-0.142-0.442-0.197-0.773-0.012-0.070-0.017-0.129-0.023-0.188 0.275 0.402 0.585 0.576 0.717 0.629zM5.896 22.377c-0.048 0.037-0.119 0.051-0.194 0.067-0.107 0.021-0.227 0.045-0.295 0.149-0.025 0.038-0.037 0.085-0.043 0.138-0.043-0.061-0.088-0.113-0.128-0.188 0.029-0.332 0.21-0.416 0.425-0.516 0.31-0.143 0.382-0.296 0.413-0.388 0.111-0.022 0.193-0.056 0.242-0.079 0.002 0.006 0.005 0.011 0.007 0.017-0.034 0.151-0.152 0.586-0.426 0.801zM6.625 21.79l-0.266-0.573 3.133-1.454c0.205 0.389 0.225 0.85 0.225 0.85l-3.092 1.177z"/><path fill="#464655" d="M27.424 22.046c0.093-0.185-0.42-0.785-0.392-0.921s0.088-0.344-0.13-1.133c-0.218-0.789-0.871-0.979-1.66-1.061s-1.831 0.484-2.067 1.102c-0.142 0.373-0.046 0.789 0.103 1.185-0.067 0.007-0.195 0.011-0.29-0.059-0.075-0.056-0.116-0.151-0.124-0.283-0.026-0.5 0.247-1.32 0.249-1.328l0.020-0.061-0.857-0.302 0.050 0.402-0.661-0.141 0.040 0.111c0.058 0.16 0.57 1.565 0.639 1.689 0.113 0.203 0.267 0.332 0.456 0.385 0.068 0.019 0.135 0.026 0.199 0.026 0.008 0 0.015-0.002 0.023-0.002-0.039 0.071-0.117 0.162-0.317 0.254-0.235 0.108-0.472 0.225-0.498 0.662l-0.007 0.004c0.002 0.004 0.005 0.006 0.007 0.010-0.006 0.116-0 0.248 0.027 0.414 0.069 0.41 0.209 0.813 0.215 0.83l0.014 0.039 0.041 0.005c0.003 0 0.272 0.032 0.354 0.315 0.048 0.164 0.198 0.288 0.345 0.288 0.004 0 0.008-0 0.011-0 0.064-0.003 0.218-0.036 0.268-0.286l0.007-0.036-0.405-0.373 0.136-0.448-0.065-0.017c-0.004-0.001-0.272-0.082-0.55-0.385-0.026-0.125-0.023-0.215 0.011-0.266 0.038-0.057 0.118-0.073 0.211-0.092 0.087-0.017 0.176-0.035 0.249-0.092 0.234-0.183 0.364-0.497 0.43-0.711 0.036 0.081 0.070 0.16 0.101 0.235 0.231 0.571-0.408 1.224-0.408 1.224 0.408 0.163 0.449 0.258 1.020 0.965s1.088 0.408 1.088 0.408-0.073-0.453 0.302-0.644c0.375-0.191 0.384-0.437 0.384-0.437 0.937 0.22 0.993-0.164 0.952-0.297s0.010-0.343 0.010-0.343 0.094 0.006 0.164-0.041c0.11-0.074 0.036-0.251 0.036-0.251 0.108-0.051 0.148-0.164 0.067-0.251s-0.077-0.184-0.077-0.184 0.215 0.015 0.276-0.108zM22.838 21.504c-0.155-0.043-0.282-0.152-0.377-0.323-0.045-0.082-0.364-0.939-0.59-1.559l0.475 0.101 0.089 0.713 0.129-0.016-0.131-1.042 0.537 0.189c-0.065 0.204-0.26 0.866-0.236 1.315 0.009 0.172 0.068 0.3 0.175 0.38 0.097 0.073 0.214 0.090 0.303 0.090 0.053 0 0.088-0.005 0.113-0.009 0.013 0.033 0.027 0.065 0.041 0.097-0.076 0.037-0.297 0.13-0.529 0.064zM23.349 24.198c-0.018 0.064-0.057 0.143-0.138 0.146-0.002 0-0.004 0-0.006 0-0.089 0-0.189-0.087-0.22-0.193-0.002-0.005-0.005-0.008-0.007-0.014l0.066-0.219 0.304 0.279zM23.061 23.418l-0.166 0.546c-0.108-0.146-0.259-0.198-0.332-0.215-0.036-0.108-0.142-0.442-0.197-0.773-0.012-0.070-0.017-0.129-0.023-0.188 0.275 0.402 0.585 0.576 0.717 0.629zM22.999 22.377c-0.048 0.037-0.119 0.051-0.194 0.067-0.107 0.021-0.227 0.045-0.295 0.149-0.025 0.038-0.037 0.085-0.043 0.138-0.043-0.061-0.088-0.113-0.128-0.188 0.029-0.332 0.21-0.416 0.425-0.516 0.31-0.143 0.382-0.296 0.413-0.388 0.11-0.022 0.193-0.056 0.242-0.079 0.002 0.006 0.005 0.011 0.007 0.017-0.034 0.151-0.152 0.586-0.426 0.801zM23.728 21.79l-0.266-0.573 3.133-1.454c0.205 0.389 0.225 0.85 0.225 0.85l-3.092 1.177z"/></svg>