<!-- Generated by IcoMoon.io -->
<svg version="1.1" xmlns="http://www.w3.org/2000/svg" width="32" height="32" viewBox="0 0 32 32">
<title>scotland</title>
<path fill="#4173cd" d="M31.448 5.517h-30.896c-0.305 0-0.552 0.247-0.552 0.552v19.862c0 0.305 0.247 0.552 0.552 0.552h30.896c0.305 0 0.552-0.247 0.552-0.552v-19.862c-0-0.305-0.247-0.552-0.552-0.552z"></path>
<path fill="#f5f5f5" d="M32 6.069c0-0.305-0.247-0.552-0.552-0.552h-2.469l-12.979 8.504-12.979-8.504h-2.469c-0.305 0-0.552 0.247-0.552 0.552v1.427l12.979 8.504-12.979 8.504v1.427c0 0.305 0.247 0.552 0.552 0.552h2.469l12.979-8.504 12.979 8.504h2.469c0.305 0 0.552-0.247 0.552-0.552v-1.427l-12.979-8.504 12.979-8.504v-1.427z"></path>
</svg>
