<svg xmlns="http://www.w3.org/2000/svg" width="32" height="32" version="1.1" viewBox="0 0 32 32"><title>senegal</title><path fill="#73af00" d="M10.667 26.483h-10.115c-0.305 0-0.552-0.247-0.552-0.552v-19.862c0-0.305 0.247-0.552 0.552-0.552h10.115v20.966z"/><path fill="#ffe15a" d="M10.667 5.517h10.667v20.966h-10.667v-20.966z"/><path fill="#ff4b55" d="M31.448 26.483h-10.115v-20.965h10.115c0.305 0 0.552 0.247 0.552 0.552v19.862c0 0.305-0.247 0.552-0.552 0.552z"/><path fill="#73af00" d="M16.128 12.861l0.731 2.191 2.31 0.018c0.129 0.001 0.183 0.166 0.079 0.243l-1.858 1.372 0.697 2.202c0.039 0.123-0.101 0.225-0.206 0.15l-1.879-1.343-1.879 1.343c-0.105 0.075-0.245-0.027-0.206-0.15l0.697-2.202-1.858-1.372c-0.104-0.077-0.050-0.242 0.079-0.243l2.31-0.018 0.731-2.191c0.041-0.123 0.214-0.123 0.255 0z"/></svg>