<svg xmlns="http://www.w3.org/2000/svg" width="32" height="32" version="1.1" viewBox="0 0 32 32"><title>serbia</title><path fill="#f5f5f5" d="M0 19.494h32v6.437c0 0.305-0.247 0.552-0.552 0.552h-30.896c-0.305 0-0.552-0.247-0.552-0.552v-6.437z"/><path fill="#ff4b55" d="M0.552 5.517h30.896c0.305 0 0.552 0.247 0.552 0.552v6.437h-32v-6.437c0-0.305 0.247-0.552 0.552-0.552z"/><path fill="#41479b" d="M0 12.506h32v6.988h-32v-6.988z"/><path fill="#ffe15a" d="M10.814 12.504h-3.972l-0.165-0.993h4.303z"/><path fill="#ffd350" d="M6.8 12.256l0.041 0.248h3.972l0.041-0.248z"/><path fill="#ffe15a" d="M8.745 9.194h0.165v0.662h-0.165v-0.662z"/><path fill="#ffe15a" d="M8.579 9.359h0.497v0.165h-0.497v-0.165z"/><path fill="#ffe15a" d="M10.827 11.842c-0.019 0-0.038-0.003-0.056-0.010-0.086-0.031-0.13-0.126-0.099-0.212l0.351-0.968c0.017-0.048 0.013-0.101-0.011-0.145-0.013-0.023-0.043-0.065-0.101-0.077-0.427-0.091-1.256-0.244-2.001-0.244h-0.16c-0.745 0-1.574 0.153-2.002 0.244-0.058 0.012-0.088 0.053-0.101 0.077-0.024 0.044-0.029 0.097-0.011 0.145l0.351 0.968c0.031 0.086-0.013 0.181-0.099 0.212s-0.181-0.013-0.212-0.099l-0.351-0.968c-0.050-0.138-0.038-0.29 0.033-0.418 0.069-0.124 0.186-0.211 0.322-0.24 0.44-0.094 1.295-0.251 2.071-0.251h0.16c0.776 0 1.63 0.157 2.070 0.251 0.136 0.029 0.253 0.117 0.322 0.24 0.071 0.128 0.083 0.28 0.033 0.418l-0.351 0.968c-0.024 0.067-0.088 0.109-0.155 0.109z"/><path fill="#ffe15a" d="M8.828 11.697c-0.091 0-0.165-0.074-0.165-0.165v-1.345c0-0.091 0.074-0.165 0.165-0.165s0.165 0.074 0.165 0.165v1.345c0 0.091-0.074 0.165-0.165 0.165z"/><path fill="#ffe15a" d="M9.972 11.842c-0.011 0-0.023-0.001-0.034-0.003-0.089-0.019-0.147-0.106-0.128-0.196l0.201-0.968c0.026-0.126-0.015-0.236-0.038-0.256-0.229-0.084-0.69-0.233-1.1-0.233h-0.092c-0.41 0-0.87 0.148-1.108 0.237-0.015 0.015-0.056 0.125-0.029 0.252l0.201 0.968c0.019 0.089-0.039 0.177-0.128 0.196-0.090 0.017-0.177-0.039-0.196-0.129l-0.201-0.968c-0.050-0.241 0.027-0.55 0.238-0.629 0.316-0.118 0.785-0.258 1.224-0.258h0.092c0.438 0 0.907 0.14 1.223 0.258 0.211 0.079 0.288 0.388 0.238 0.629l-0.201 0.968c-0.016 0.078-0.085 0.132-0.162 0.132z"/><path fill="#ffd350" d="M6.717 11.759h4.221l0.041-0.248h-4.303z"/><path fill="#ff4b55" d="M5.683 12.504c-0.091 0-0.165 0.074-0.165 0.165v5.78c0 1.835 1.482 3.323 3.31 3.323s3.31-1.488 3.31-3.323v-5.78c0-0.091-0.074-0.165-0.165-0.165h-6.29z"/><path fill="#f5f5f5" d="M9.159 17.966l0.331-0.828-0.662 0.166-0.662-0.166 0.331 0.828-0.828 2.814c0 0 0.497 0.331 1.159 0.331s1.159-0.331 1.159-0.331l-0.828-2.814z"/><path fill="#ffe15a" d="M7.629 18.633l-0.292 0.073 0.642-1.156-0.289-0.161-0.78 1.404h-0.73v0.331h0.356l-0.459 0.367 0.207 0.259 0.39-0.312-0.154 0.461 0.314 0.105 0.302-0.907 0.574-0.143z"/><path fill="#f5f5f5" d="M7.669 14.159l-0.756-0.378c-0.139-0.069-0.211-0.226-0.173-0.376l0.043-0.171c0.030-0.119-0.060-0.233-0.182-0.233-0.057 0-0.111 0.026-0.147 0.071-0.392 0.49-0.606 1.099-0.606 1.727v3.499c0 0 0.691-0.138 1.316-1.046 0.115-0.167 0.303-0.265 0.505-0.276l-0.33 0.991 0.662 0.166 0.579-0.689-0.91-3.283z"/><path fill="#ffe15a" d="M10.026 18.633l0.292 0.073-0.642-1.156 0.289-0.161 0.78 1.404h0.73v0.331h-0.356l0.459 0.367-0.207 0.259-0.39-0.312 0.154 0.461-0.314 0.105-0.302-0.907-0.574-0.143z"/><path fill="#f5f5f5" d="M9.986 14.159l0.756-0.378c0.139-0.069 0.211-0.226 0.173-0.376l-0.043-0.171c-0.030-0.119 0.060-0.233 0.182-0.233 0.057 0 0.111 0.026 0.147 0.071 0.392 0.49 0.606 1.099 0.606 1.727v3.499c0 0-0.691-0.138-1.316-1.046-0.115-0.167-0.303-0.265-0.505-0.276l0.33 0.991-0.662 0.166-0.579-0.689 0.91-3.283z"/><path fill="#ffe15a" d="M7.835 13.001h-0.828l0.248 0.331 0.579 0.165-0.331 0.165h0.497z"/><path fill="#ffe15a" d="M9.821 13.001h0.828l-0.248 0.331-0.579 0.165 0.331 0.165h-0.497z"/><path fill="#f5f5f5" d="M9.937 12.871l-0.779 0.13-0.331 0.662-0.331-0.662-0.779-0.13c-0.089-0.015-0.158 0.078-0.117 0.159l0.399 0.799-0.331 0.331h2.317l-0.331-0.331 0.399-0.799c0.040-0.081-0.028-0.174-0.117-0.159z"/><path fill="#ffbe50" d="M9.076 11.584c0 0.137-0.111 0.248-0.248 0.248s-0.248-0.111-0.248-0.248c0-0.137 0.111-0.248 0.248-0.248s0.248 0.111 0.248 0.248z"/><path fill="#41479b" d="M9.021 12.176c0 0.076-0.088 0.138-0.196 0.138s-0.196-0.062-0.196-0.138c0-0.076 0.088-0.138 0.196-0.138s0.196 0.062 0.196 0.138z"/><path fill="#ff4b55" d="M8.041 12.176c0 0.076-0.088 0.138-0.196 0.138s-0.196-0.062-0.196-0.138c0-0.076 0.088-0.138 0.196-0.138s0.196 0.062 0.196 0.138z"/><path fill="#41479b" d="M7.062 12.176c0 0.076-0.088 0.138-0.196 0.138s-0.196-0.062-0.196-0.138c0-0.076 0.088-0.138 0.196-0.138s0.196 0.062 0.196 0.138z"/><path fill="#41479b" d="M10.979 12.176c0 0.076-0.088 0.138-0.196 0.138s-0.196-0.062-0.196-0.138c0-0.076 0.088-0.138 0.196-0.138s0.196 0.062 0.196 0.138z"/><path fill="#ff4b55" d="M9.999 12.176c0 0.076-0.088 0.138-0.196 0.138s-0.196-0.062-0.196-0.138c0-0.076 0.088-0.138 0.196-0.138s0.196 0.062 0.196 0.138z"/><path fill="#ffbe50" d="M10.226 11.584c0 0.137-0.111 0.248-0.248 0.248s-0.248-0.111-0.248-0.248c0-0.137 0.111-0.248 0.248-0.248s0.248 0.111 0.248 0.248z"/><path fill="#ffbe50" d="M11.134 11.584c0 0.137-0.111 0.248-0.248 0.248s-0.248-0.111-0.248-0.248c0-0.137 0.111-0.248 0.248-0.248s0.248 0.111 0.248 0.248z"/><path fill="#ffbe50" d="M7.927 11.584c0 0.137-0.111 0.248-0.248 0.248s-0.248-0.111-0.248-0.248c0-0.137 0.111-0.248 0.248-0.248s0.248 0.111 0.248 0.248z"/><path fill="#ffbe50" d="M7.019 11.584c0 0.137-0.111 0.248-0.248 0.248s-0.248-0.111-0.248-0.248c0-0.137 0.111-0.248 0.248-0.248s0.248 0.111 0.248 0.248z"/><path fill="#41479b" d="M9.113 10.187c0.028-0.049 0.046-0.105 0.046-0.165 0-0.183-0.148-0.331-0.331-0.331s-0.331 0.148-0.331 0.331c0 0.061 0.017 0.117 0.046 0.165h0.57z"/><path fill="#ff4b55" d="M8.828 17.553c-0.685 0-1.241-0.557-1.241-1.241v-2.235h2.483v2.235c0 0.685-0.557 1.241-1.241 1.241z"/><path fill="#a54b50" d="M9.986 14.159v2.152c0 0.64-0.519 1.159-1.159 1.159s-1.159-0.519-1.159-1.159v-2.152h2.317zM10.152 13.994h-2.648v2.317c0 0.73 0.594 1.324 1.324 1.324s1.324-0.594 1.324-1.324v-2.317z"/><path fill="#f5f5f5" d="M8.579 17.442c0.080 0.017 0.163 0.027 0.248 0.027s0.168-0.010 0.248-0.027v-3.283h-0.497c0 0 0 3.283 0 3.283z"/><path fill="#f5f5f5" d="M7.669 15.525h2.317v0.497h-2.317v-0.497z"/></svg>