<svg xmlns="http://www.w3.org/2000/svg" width="32" height="32" version="1.1" viewBox="0 0 32 32"><title>seychelles</title><path fill="#73af00" d="M0.552 26.483h30.896c0.305 0 0.552-0.247 0.552-0.552v-6.437l-31.697 6.922c0.076 0.039 0.158 0.066 0.249 0.066z"/><path fill="#41479b" d="M10.667 5.517h-10.115c-0.305 0-0.552 0.247-0.552 0.552v19.862c0 0.123 0.048 0.231 0.116 0.323l10.55-20.737z"/><path fill="#ffe15a" d="M0.163 26.322l21.17-20.805h-10.667l-10.55 20.737c0.017 0.022 0.027 0.049 0.047 0.068z"/><path fill="#ff4b55" d="M31.448 5.517h-10.115l-21.17 20.805c0.023 0.023 0.054 0.036 0.080 0.054l31.756-13.871v-6.437c0-0.305-0.247-0.552-0.552-0.552z"/><path fill="#f5f5f5" d="M0.303 26.416l31.697-6.922v-6.988l-31.756 13.871c0.020 0.014 0.038 0.029 0.060 0.040z"/></svg>