<!-- Generated by IcoMoon.io -->
<svg version="1.1" xmlns="http://www.w3.org/2000/svg" width="32" height="32" viewBox="0 0 32 32">
<title>singapore</title>
<path fill="#ff4b55" d="M32 16h-32v-9.931c0-0.305 0.247-0.552 0.552-0.552h30.896c0.305 0 0.552 0.247 0.552 0.552l-0 9.931z"></path>
<path fill="#f5f5f5" d="M0 16h32v9.931c0 0.305-0.247 0.552-0.552 0.552h-30.896c-0.305 0-0.552-0.247-0.552-0.552v-9.931z"></path>
<path fill="#f5f5f5" d="M4.536 10.766c0-1.814 1.331-3.318 3.070-3.596 0.094-0.015 0.099-0.145 0.005-0.166-0.43-0.099-0.887-0.127-1.362-0.063-1.875 0.255-3.324 1.878-3.351 3.77-0.030 2.16 1.711 3.919 3.862 3.919 0.293 0 0.577-0.034 0.85-0.097 0.093-0.021 0.088-0.152-0.006-0.167-1.738-0.278-3.068-1.779-3.068-3.6z"></path>
<path fill="#f5f5f5" d="M7.634 11.737l-0.163 0.49-0.516 0.004c-0.067 0.001-0.095 0.086-0.041 0.126l0.415 0.307-0.156 0.492c-0.020 0.064 0.052 0.116 0.107 0.078l0.42-0.3 0.42 0.3c0.054 0.039 0.127-0.014 0.107-0.078l-0.156-0.492 0.415-0.307c0.054-0.040 0.026-0.125-0.041-0.126l-0.516-0.004-0.163-0.49c-0.021-0.063-0.111-0.063-0.132 0z"></path>
<path fill="#f5f5f5" d="M10.185 11.737l-0.163 0.49-0.516 0.004c-0.067 0.001-0.095 0.086-0.041 0.126l0.415 0.307-0.156 0.492c-0.020 0.064 0.052 0.116 0.107 0.078l0.42-0.3 0.42 0.3c0.054 0.039 0.127-0.014 0.107-0.078l-0.156-0.492 0.415-0.307c0.054-0.040 0.026-0.125-0.041-0.126l-0.516-0.004-0.163-0.49c-0.021-0.063-0.111-0.063-0.132 0z"></path>
<path fill="#f5f5f5" d="M8.921 7.799l-0.163 0.49-0.516 0.004c-0.067 0.001-0.095 0.086-0.041 0.126l0.415 0.307-0.156 0.492c-0.020 0.064 0.052 0.116 0.107 0.078l0.42-0.3 0.42 0.3c0.054 0.039 0.127-0.014 0.107-0.078l-0.156-0.492 0.415-0.307c0.054-0.040 0.026-0.125-0.041-0.126l-0.516-0.004-0.163-0.49c-0.021-0.063-0.111-0.063-0.132 0z"></path>
<path fill="#f5f5f5" d="M6.887 9.308l-0.163 0.49-0.516 0.004c-0.067 0.001-0.095 0.086-0.041 0.126l0.415 0.307-0.156 0.492c-0.020 0.064 0.052 0.116 0.107 0.078l0.42-0.3 0.42 0.3c0.054 0.039 0.127-0.014 0.107-0.078l-0.156-0.492 0.415-0.307c0.054-0.040 0.026-0.125-0.041-0.126l-0.516-0.004-0.163-0.49c-0.021-0.063-0.111-0.063-0.132 0z"></path>
<path fill="#f5f5f5" d="M10.938 9.308l-0.163 0.49-0.516 0.004c-0.067 0.001-0.095 0.086-0.041 0.126l0.415 0.307-0.156 0.492c-0.020 0.064 0.052 0.116 0.107 0.078l0.42-0.3 0.42 0.3c0.054 0.039 0.127-0.014 0.107-0.078l-0.156-0.492 0.415-0.307c0.054-0.040 0.026-0.125-0.041-0.126l-0.516-0.004-0.163-0.49c-0.021-0.063-0.111-0.063-0.132 0z"></path>
</svg>
