<svg xmlns="http://www.w3.org/2000/svg" width="32" height="32" version="1.1" viewBox="0 0 32 32"><title>sint-eustatius</title><path fill="#41479b" d="M31.448 26.483h-30.896c-0.305 0-0.552-0.247-0.552-0.552v-19.862c0-0.305 0.247-0.552 0.552-0.552h30.896c0.305 0 0.552 0.247 0.552 0.552v19.862c-0 0.305-0.247 0.552-0.552 0.552z"/><path fill="#ff4b55" d="M31.448 5.517h-30.896c-0.305 0-0.552 0.247-0.552 0.552v19.862c0 0.305 0.247 0.552 0.552 0.552h30.896c0.305 0 0.552-0.247 0.552-0.552v-19.862c-0-0.305-0.247-0.552-0.552-0.552zM30.896 15.448h-5.38l-8.964-4.746v-4.082h14.345v8.828h-0zM16 20.341l-8.2-4.341 8.2-4.341 8.2 4.341-8.2 4.341zM15.448 6.621v4.082l-8.965 4.746h-5.38v-8.828h14.345zM1.103 16.552h5.38l8.965 4.746v4.082h-14.345v-8.828zM16.552 25.379v-4.082l8.965-4.746h5.38v8.828h-14.345z"/><path fill="#f5f5f5" d="M16 11.659l-8.2 4.341 8.2 4.341 8.2-4.341z"/><path fill="#73af00" d="M13.241 18.881h5.517l3.841-2.034-1.728-1.728h-0.603l-0.445 0.445-0.318-0.318h-0.635l-2.437 2.437h-3.059l-0.695-1.029h-0.882l-0.347 0.487h-0.39l-0.235 0.46z"/><path fill="#ffe15a" d="M16.074 13.357l0.219 0.658 0.693 0.005c0.090 0.001 0.127 0.115 0.055 0.169l-0.558 0.412 0.209 0.661c0.027 0.086-0.070 0.156-0.143 0.104l-0.564-0.403-0.564 0.403c-0.073 0.052-0.17-0.019-0.143-0.104l0.209-0.661-0.558-0.412c-0.072-0.053-0.035-0.168 0.055-0.169l0.693-0.005 0.219-0.658c0.028-0.085 0.149-0.085 0.177 0z"/></svg>