<svg xmlns="http://www.w3.org/2000/svg" width="32" height="32" version="1.1" viewBox="0 0 32 32"><title>somalia</title><path fill="#82afff" d="M31.448 26.483h-30.896c-0.305 0-0.552-0.247-0.552-0.552v-19.862c0-0.305 0.247-0.552 0.552-0.552h30.896c0.305 0 0.552 0.247 0.552 0.552v19.862c-0 0.305-0.247 0.552-0.552 0.552z"/><path fill="#f5f5f5" d="M15.842 12.090l-0.926 2.776-2.926 0.023c-0.16 0.001-0.227 0.206-0.098 0.301l2.354 1.738-0.883 2.79c-0.048 0.153 0.126 0.279 0.256 0.186l2.38-1.701 2.38 1.701c0.131 0.093 0.305-0.033 0.256-0.186l-0.883-2.79 2.354-1.738c0.129-0.095 0.063-0.3-0.098-0.301l-2.926-0.023-0.926-2.776c-0.051-0.152-0.266-0.152-0.317-0z"/></svg>