<!-- Generated by IcoMoon.io -->
<svg version="1.1" xmlns="http://www.w3.org/2000/svg" width="32" height="32" viewBox="0 0 32 32">
<title>south-korea</title>
<path fill="#f5f5f5" d="M31.448 26.483h-30.896c-0.305 0-0.552-0.247-0.552-0.552v-19.862c0-0.305 0.247-0.552 0.552-0.552h30.896c0.305 0 0.552 0.247 0.552 0.552v19.862c-0 0.305-0.247 0.552-0.552 0.552z"></path>
<path fill="#ff4b55" d="M19.063 11.408c-2.535-1.69-5.959-0.999-7.648 1.532-0.847 1.263-0.503 2.98 0.765 3.825s2.977 0.502 3.823-0.766c0.845-1.268 2.557-1.607 3.824-0.766 1.269 0.845 1.61 2.562 0.764 3.825 1.69-2.535 1.007-5.959-1.526-7.649z"></path>
<path fill="#41479b" d="M11.415 12.94c-0.847 1.263-0.503 2.98 0.765 3.825s2.977 0.502 3.823-0.766c0.845-1.268 2.557-1.607 3.824-0.766 1.269 0.845 1.61 2.562 0.764 3.825-1.688 2.54-5.111 3.222-7.646 1.532-2.533-1.69-3.218-5.114-1.528-7.649z"></path>
<path fill="#464655" d="M21.87 9.324l1.002 1.506c0.084 0.127 0.050 0.297-0.076 0.382l-0.254 0.17c-0.127 0.085-0.298 0.051-0.383-0.076l-1.003-1.506c-0.084-0.127-0.050-0.298 0.076-0.382l0.255-0.171c0.127-0.085 0.298-0.050 0.383 0.077z"></path>
<path fill="#464655" d="M23.416 11.647l1.005 1.505c0.085 0.127 0.050 0.299-0.077 0.383l-0.255 0.169c-0.127 0.084-0.297 0.049-0.381-0.077l-1.005-1.504c-0.085-0.127-0.051-0.298 0.076-0.383l0.255-0.17c0.127-0.085 0.298-0.051 0.383 0.076z"></path>
<path fill="#464655" d="M22.943 8.608l2.552 3.83c0.084 0.127 0.050 0.298-0.077 0.383l-0.256 0.171c-0.127 0.085-0.298 0.050-0.383-0.076l-2.553-3.829c-0.085-0.127-0.050-0.298 0.077-0.383l0.257-0.171c0.127-0.084 0.298-0.050 0.383 0.077z"></path>
<path fill="#464655" d="M24.013 7.893l1.004 1.509c0.085 0.127 0.050 0.299-0.078 0.383l-0.255 0.169c-0.127 0.084-0.297 0.049-0.382-0.077l-1.005-1.507c-0.085-0.127-0.050-0.298 0.076-0.383l0.256-0.171c0.127-0.085 0.298-0.050 0.383 0.077z"></path>
<path fill="#464655" d="M25.56 10.221l1.003 1.506c0.084 0.127 0.050 0.298-0.076 0.382l-0.255 0.17c-0.127 0.085-0.298 0.051-0.383-0.076l-1.003-1.506c-0.084-0.127-0.050-0.298 0.076-0.382l0.255-0.17c0.127-0.085 0.298-0.051 0.383 0.076z"></path>
<path fill="#464655" d="M8.295 18.374l2.551 3.825c0.085 0.127 0.050 0.298-0.076 0.383l-0.255 0.171c-0.127 0.085-0.298 0.050-0.383-0.076l-2.551-3.825c-0.085-0.127-0.050-0.298 0.076-0.383l0.255-0.171c0.127-0.085 0.298-0.050 0.383 0.076z"></path>
<path fill="#464655" d="M7.224 19.089l1.002 1.503c0.084 0.127 0.050 0.298-0.076 0.382l-0.254 0.17c-0.127 0.085-0.298 0.051-0.383-0.076l-1.003-1.502c-0.085-0.127-0.051-0.298 0.076-0.383l0.255-0.171c0.127-0.085 0.298-0.050 0.383 0.076z"></path>
<path fill="#464655" d="M8.772 21.413l1.003 1.506c0.084 0.127 0.050 0.298-0.076 0.382l-0.255 0.17c-0.127 0.085-0.298 0.051-0.383-0.076l-1.004-1.506c-0.084-0.127-0.050-0.298 0.076-0.382l0.255-0.171c0.127-0.085 0.298-0.050 0.383 0.076z"></path>
<path fill="#464655" d="M6.153 19.805l2.55 3.826c0.084 0.127 0.050 0.298-0.076 0.382l-0.255 0.17c-0.127 0.085-0.298 0.051-0.383-0.076l-2.551-3.825c-0.085-0.127-0.050-0.298 0.077-0.383l0.256-0.171c0.127-0.084 0.298-0.050 0.382 0.076z"></path>
<path fill="#464655" d="M7.581 13.153l2.551-3.829c0.085-0.127 0.256-0.161 0.383-0.076l0.255 0.171c0.127 0.085 0.161 0.256 0.076 0.383l-2.552 3.826c-0.084 0.126-0.255 0.161-0.382 0.077l-0.254-0.168c-0.127-0.084-0.162-0.256-0.077-0.383z"></path>
<path fill="#464655" d="M6.509 12.438l2.552-3.829c0.085-0.127 0.256-0.161 0.383-0.076l0.255 0.17c0.127 0.085 0.161 0.256 0.076 0.382l-2.551 3.829c-0.085 0.127-0.256 0.161-0.383 0.076l-0.255-0.171c-0.127-0.085-0.161-0.256-0.076-0.382z"></path>
<path fill="#464655" d="M5.437 11.727l2.552-3.833c0.085-0.127 0.256-0.161 0.383-0.077l0.255 0.17c0.127 0.085 0.161 0.255 0.076 0.382l-2.55 3.834c-0.084 0.127-0.256 0.161-0.383 0.077l-0.256-0.171c-0.127-0.085-0.161-0.256-0.077-0.382z"></path>
<path fill="#464655" d="M21.156 22.199l1.003-1.502c0.085-0.127 0.256-0.161 0.383-0.076l0.254 0.17c0.126 0.085 0.16 0.256 0.076 0.382l-1.002 1.503c-0.085 0.127-0.256 0.161-0.383 0.076l-0.255-0.171c-0.127-0.085-0.161-0.256-0.076-0.383z"></path>
<path fill="#464655" d="M22.703 19.884l1.005-1.51c0.084-0.127 0.256-0.161 0.383-0.077l0.256 0.171c0.127 0.085 0.161 0.256 0.076 0.383l-1.007 1.507c-0.084 0.126-0.255 0.161-0.382 0.077l-0.254-0.168c-0.127-0.084-0.162-0.256-0.077-0.383z"></path>
<path fill="#464655" d="M22.227 22.919l1.004-1.506c0.084-0.127 0.256-0.161 0.383-0.077l0.256 0.171c0.127 0.084 0.161 0.256 0.077 0.382l-1.003 1.506c-0.084 0.127-0.256 0.161-0.383 0.077l-0.257-0.171c-0.127-0.084-0.161-0.256-0.077-0.383z"></path>
<path fill="#464655" d="M23.775 20.591l1.004-1.503c0.085-0.127 0.256-0.161 0.382-0.076l0.256 0.171c0.127 0.085 0.161 0.256 0.076 0.383l-1.004 1.503c-0.085 0.127-0.256 0.161-0.382 0.076l-0.256-0.171c-0.127-0.084-0.161-0.256-0.076-0.383z"></path>
<path fill="#464655" d="M23.298 23.63l1.005-1.503c0.084-0.126 0.255-0.161 0.381-0.077l0.255 0.169c0.127 0.084 0.162 0.256 0.077 0.383l-1.004 1.506c-0.084 0.127-0.256 0.161-0.383 0.076l-0.256-0.171c-0.127-0.085-0.161-0.256-0.076-0.383z"></path>
<path fill="#464655" d="M24.847 21.311l1.002-1.505c0.085-0.127 0.256-0.161 0.383-0.076l0.255 0.17c0.127 0.085 0.161 0.256 0.076 0.382l-1.003 1.503c-0.084 0.127-0.255 0.161-0.382 0.077l-0.254-0.168c-0.127-0.084-0.162-0.256-0.077-0.383z"></path>
</svg>
