<svg xmlns="http://www.w3.org/2000/svg" width="32" height="32" version="1.1" viewBox="0 0 32 32"><title>south-africa</title><path fill="#464655" d="M0 9.379v13.241l8.828-6.621z"/><path fill="#ff4b55" d="M4.414 5.517l9.931 7.724h17.655v-7.172c0-0.305-0.247-0.552-0.552-0.552l-27.034 0z"/><path fill="#41479b" d="M4.414 26.483l9.931-7.724h17.655v7.172c0 0.305-0.247 0.552-0.552 0.552l-27.034-0z"/><path fill="#73af00" d="M3.556 5.517h-3.004c-0.305 0-0.552 0.247-0.552 0.552v2.263l9.686 7.668-9.686 7.668v2.263c0 0.305 0.247 0.552 0.552 0.552h3.003l10.454-8.276h17.991v-4.414h-17.991l-10.454-8.276z"/><path fill="#f5f5f5" d="M5.333 5.517h-1.778l10.454 8.276h17.991v-1.104h-17.607z"/><path fill="#ffe15a" d="M0 8.332v1.407l7.908 6.261-7.908 6.261v1.407l9.686-7.668z"/><path fill="#f5f5f5" d="M14.009 18.207l-10.454 8.276h1.778l9.060-7.172h17.607v-1.104z"/></svg>