<!-- Generated by IcoMoon.io -->
<svg version="1.1" xmlns="http://www.w3.org/2000/svg" width="32" height="32" viewBox="0 0 32 32">
<title>south-sudan</title>
<path fill="#464655" d="M32 12.506h-32v-6.437c0-0.305 0.247-0.552 0.552-0.552h30.896c0.305 0 0.552 0.247 0.552 0.552l-0 6.437z"></path>
<path fill="#73af00" d="M31.448 26.483h-30.896c-0.305 0-0.552-0.247-0.552-0.552v-6.437h32v6.437c0 0.305-0.247 0.552-0.552 0.552z"></path>
<path fill="#ff4b55" d="M0 12.506h32v6.988h-32v-6.988z"></path>
<path fill="#f5f5f5" d="M5.962 14.573l0.328 0.711 0.761-0.187c0.048-0.012 0.087 0.038 0.065 0.081l-0.352 0.7 0.62 0.478c0.039 0.030 0.025 0.091-0.023 0.101l-0.766 0.161 0.013 0.783c0.001 0.049-0.056 0.076-0.094 0.045l-0.604-0.499-0.604 0.499c-0.038 0.031-0.095 0.004-0.094-0.045l0.013-0.783-0.766-0.161c-0.048-0.010-0.062-0.072-0.023-0.101l0.62-0.478-0.352-0.7c-0.022-0.044 0.017-0.093 0.065-0.081l0.761 0.187 0.328-0.711c0.020-0.044 0.084-0.044 0.104 0z"></path>
<path fill="#f5f5f5" d="M0 12.138h32v0.938h-32v-0.938z"></path>
<path fill="#f5f5f5" d="M0 18.924h32v0.938h-32v-0.938z"></path>
<path fill="#41479b" d="M0.18 26.333l14.395-10.108c0.156-0.11 0.156-0.342 0-0.451l-14.395-10.108c-0.109 0.101-0.18 0.242-0.18 0.402v19.862c0 0.16 0.071 0.302 0.18 0.402z"></path>
<path fill="#ffe15a" d="M4.598 13.428l1.239 1.269 1.601-0.762c0.207-0.099 0.421 0.123 0.314 0.327l-0.823 1.571 1.22 1.288c0.158 0.167 0.013 0.439-0.214 0.4l-1.748-0.298-0.848 1.558c-0.11 0.202-0.413 0.148-0.446-0.080l-0.257-1.755-1.744-0.325c-0.226-0.042-0.268-0.347-0.062-0.449l1.589-0.787-0.23-1.759c-0.030-0.228 0.247-0.362 0.408-0.198z"></path>
</svg>
