<!-- Generated by IcoMoon.io -->
<svg version="1.1" xmlns="http://www.w3.org/2000/svg" width="32" height="32" viewBox="0 0 32 32">
<title>st-vincent-and-the-grenadines</title>
<path fill="#ffe15a" d="M7.173 5.517h17.655v20.966h-17.655v-20.966z"></path>
<path fill="#73af00" d="M31.448 26.483h-6.621v-20.965h6.621c0.305 0 0.552 0.247 0.552 0.552v19.862c-0 0.305-0.247 0.552-0.552 0.552z"></path>
<path fill="#4173cd" d="M0.552 5.517h6.621v20.965h-6.621c-0.305 0-0.552-0.247-0.552-0.552v-19.862c0-0.305 0.247-0.552 0.552-0.552z"></path>
<path fill="#73af00" d="M11.993 15.717l1.79 3.579 1.79-3.579-1.79-3.579z"></path>
<path fill="#73af00" d="M16.428 15.717l1.79 3.579 1.79-3.579-1.79-3.579z"></path>
<path fill="#73af00" d="M14.21 20.020l1.79 3.579 1.79-3.579-1.79-3.579z"></path>
</svg>
