<svg xmlns="http://www.w3.org/2000/svg" width="32" height="32" version="1.1" viewBox="0 0 32 32"><title>sudan</title><path fill="#ff4b55" d="M32 12.506h-32v-6.437c0-0.305 0.247-0.552 0.552-0.552h30.896c0.305 0 0.552 0.247 0.552 0.552l-0 6.437z"/><path fill="#464655" d="M31.448 26.483h-30.896c-0.305 0-0.552-0.247-0.552-0.552v-6.437h32v6.437c0 0.305-0.247 0.552-0.552 0.552z"/><path fill="#f5f5f5" d="M0 12.506h32v6.988h-32v-6.988z"/><path fill="#73af00" d="M0.203 26.349l12.678-10.063c0.184-0.146 0.184-0.426 0-0.572l-12.678-10.063c-0.122 0.101-0.203 0.248-0.203 0.418v19.862c0 0.171 0.082 0.317 0.203 0.418z"/></svg>