<!-- Generated by IcoMoon.io -->
<svg version="1.1" xmlns="http://www.w3.org/2000/svg" width="32" height="32" viewBox="0 0 32 32">
<title>suriname</title>
<path fill="#73af00" d="M31.448 26.483h-30.896c-0.305 0-0.552-0.247-0.552-0.552v-19.862c0-0.305 0.247-0.552 0.552-0.552h30.896c0.305 0 0.552 0.247 0.552 0.552v19.862c-0 0.305-0.247 0.552-0.552 0.552z"></path>
<path fill="#f5f5f5" d="M0 9.379h32v2.207h-32v-2.207z"></path>
<path fill="#f5f5f5" d="M0 20.414h32v2.207h-32v-2.207z"></path>
<path fill="#c8414b" d="M0 11.586h32v8.827h-32v-8.827z"></path>
<path fill="#ffe15a" d="M15.863 12.601l-0.803 2.409-2.539 0.020c-0.139 0.001-0.197 0.179-0.085 0.261l2.043 1.508-0.766 2.421c-0.042 0.133 0.109 0.243 0.222 0.162l2.066-1.477 2.066 1.477c0.113 0.081 0.264-0.029 0.222-0.162l-0.766-2.421 2.043-1.508c0.112-0.083 0.054-0.26-0.085-0.261l-2.539-0.020-0.803-2.409c-0.044-0.132-0.231-0.132-0.275 0z"></path>
</svg>
