<svg xmlns="http://www.w3.org/2000/svg" width="32" height="32" version="1.1" viewBox="0 0 32 32"><title>swaziland</title><path fill="#4173cd" d="M0 22.621h32v3.31c0 0.305-0.247 0.552-0.552 0.552h-30.896c-0.305 0-0.552-0.247-0.552-0.552v-3.31z"/><path fill="#4173cd" d="M0.552 5.517h30.896c0.305 0 0.552 0.247 0.552 0.552v3.31h-32v-3.31c0-0.305 0.247-0.552 0.552-0.552z"/><path fill="#ff4b55" d="M0 9.379h32v13.241h-32v-13.241z"/><path fill="#ffe15a" d="M0 8.827h32v1.103h-32v-1.103z"/><path fill="#ffe15a" d="M0 22.069h32v1.103h-32v-1.103z"/><path fill="#ffe15a" d="M28.056 16.532h-24.135c-0.164 0-0.297-0.133-0.297-0.297v-0.094c0-0.164 0.133-0.297 0.297-0.297h24.135c0.164 0 0.297 0.133 0.297 0.297v0.094c0 0.164-0.133 0.297-0.297 0.297z"/><path fill="#f5f5f5" d="M23.373 15.159l1.202-0.515 1.202 0.515-1.202 0.515z"/><path fill="#ffe15a" d="M23.668 14.939h-17.64c-0.121 0-0.219 0.098-0.219 0.219s0.098 0.219 0.219 0.219h17.64c0.121 0 0.219-0.098 0.219-0.219s-0.098-0.219-0.219-0.219z"/><path fill="#f5f5f5" d="M24.622 13.957l1.202-0.515 1.202 0.515-1.202 0.515z"/><path fill="#ffe15a" d="M24.918 13.737h-17.64c-0.121 0-0.219 0.098-0.219 0.219s0.098 0.219 0.219 0.219h17.64c0.121 0 0.219-0.098 0.219-0.219s-0.098-0.219-0.219-0.219z"/><path fill="#f5f5f5" d="M15.988 11.724c-3.050 0-5.712 1.727-7.137 4.293 1.425 2.566 4.087 4.293 7.137 4.293s5.712-1.727 7.137-4.293c-1.425-2.566-4.087-4.293-7.137-4.293z"/><path fill="#464655" d="M8.851 16.017c1.425 2.566 4.087 4.293 7.137 4.293 0.509 0 1.007-0.052 1.49-0.145-0.369-0.811-1.668-0.809-1.748-1.115-0.086-0.329 1.059-0.258 1.259-0.529s-1.088-0.386-1.145-0.658c-0.057-0.272 0.515-0.458 0.615-0.887s0.329-0.558 0.501-0.816c0.172-0.258-0.286-0.343-0.401-1.202s-0.787-0.973-1.116-1.674c-0.329-0.701 0.2-1.216 0.544-1.56-3.051-0-5.712 1.727-7.137 4.293z"/><path fill="#f5f5f5" d="M11.523 14.472h0.343v1.374h-0.343v-1.374z"/><path fill="#f5f5f5" d="M12.211 14.472h0.343v1.374h-0.343v-1.374z"/><path fill="#f5f5f5" d="M12.897 14.472h0.343v1.374h-0.343v-1.374z"/><path fill="#f5f5f5" d="M13.584 14.472h0.343v1.374h-0.343v-1.374z"/><path fill="#f5f5f5" d="M14.271 14.472h0.343v1.374h-0.343v-1.374z"/><path fill="#f5f5f5" d="M14.958 14.472h0.343v1.374h-0.343v-1.374z"/><path fill="#f5f5f5" d="M11.523 16.532h0.343v1.374h-0.343v-1.374z"/><path fill="#f5f5f5" d="M12.211 16.532h0.343v1.374h-0.343v-1.374z"/><path fill="#f5f5f5" d="M12.897 16.532h0.343v1.374h-0.343v-1.374z"/><path fill="#f5f5f5" d="M13.584 16.532h0.343v1.374h-0.343v-1.374z"/><path fill="#f5f5f5" d="M14.271 16.532h0.343v1.374h-0.343v-1.374z"/><path fill="#f5f5f5" d="M14.958 16.532h0.343v1.374h-0.343v-1.374z"/><path fill="#464655" d="M16.675 14.472h0.343v1.374h-0.343v-1.374z"/><path fill="#464655" d="M17.362 14.472h0.343v1.374h-0.343v-1.374z"/><path fill="#464655" d="M18.049 14.472h0.343v1.374h-0.343v-1.374z"/><path fill="#464655" d="M18.736 14.472h0.343v1.374h-0.343v-1.374z"/><path fill="#464655" d="M19.422 14.472h0.343v1.374h-0.343v-1.374z"/><path fill="#464655" d="M20.109 14.472h0.343v1.374h-0.343v-1.374z"/><path fill="#464655" d="M16.675 16.532h0.343v1.374h-0.343v-1.374z"/><path fill="#464655" d="M17.362 16.532h0.343v1.374h-0.343v-1.374z"/><path fill="#464655" d="M18.049 16.532h0.343v1.374h-0.343v-1.374z"/><path fill="#464655" d="M18.736 16.532h0.343v1.374h-0.343v-1.374z"/><path fill="#464655" d="M19.422 16.532h0.343v1.374h-0.343v-1.374z"/><path fill="#464655" d="M20.109 16.532h0.343v1.374h-0.343v-1.374z"/><path fill="#245dbd" d="M26.587 15.792c-0.275 0.639-1.058 0.714-0.624 2.343l0.222-0.226c0 0 0.233 0.614 0.793 1.027 0 0 0.688-0.576 0.74-1.491l0.286 0.125c0-0-0.137-1.666-1.417-1.779z"/><path fill="#ff4b55" d="M27.602 17.101c-0.022 0-0.044-0.010-0.060-0.030-0.269-0.325-0.613-0.429-0.616-0.43-0.045-0.013-0.073-0.068-0.062-0.121s0.057-0.087 0.102-0.073c0.016 0.005 0.392 0.118 0.696 0.485 0.033 0.039 0.032 0.103-0.001 0.142-0.017 0.019-0.038 0.029-0.059 0.029z"/><path fill="#ff4b55" d="M27.408 17.859c-0.025 0-0.050-0.013-0.067-0.039-0.2-0.308-0.426-0.475-0.429-0.477-0.040-0.029-0.052-0.091-0.028-0.138s0.077-0.061 0.117-0.032c0.010 0.007 0.256 0.189 0.474 0.525 0.028 0.044 0.021 0.107-0.015 0.141-0.015 0.014-0.034 0.021-0.052 0.021z"/><path fill="#ff4b55" d="M26.964 18.703c-0.005 0-0.010-0-0.015-0.002-0.046-0.009-0.077-0.061-0.069-0.116 0.033-0.229 0.005-0.606-0.040-0.8-0.013-0.053 0.014-0.108 0.059-0.124s0.092 0.016 0.104 0.070c0.052 0.219 0.082 0.628 0.044 0.888-0.007 0.049-0.043 0.083-0.083 0.083z"/><path fill="#ff4b55" d="M26.369 17.777c-0.024 0-0.048-0.012-0.065-0.036-0.030-0.042-0.026-0.106 0.010-0.141 0.002-0.002 0.218-0.221 0.275-0.525 0.010-0.054 0.055-0.088 0.101-0.076s0.075 0.065 0.064 0.119c-0.069 0.371-0.32 0.625-0.331 0.635-0.016 0.016-0.035 0.023-0.054 0.023z"/><path fill="#ff4b55" d="M26.134 17.136c-0.028 0-0.056-0.017-0.072-0.048-0.024-0.047-0.012-0.109 0.028-0.138 0.003-0.002 0.31-0.228 0.405-0.475 0.019-0.051 0.070-0.073 0.112-0.050s0.061 0.083 0.042 0.133c-0.117 0.303-0.456 0.552-0.471 0.563s-0.029 0.015-0.044 0.015z"/><path fill="#245dbd" d="M5.143 16.007c-0.23 0.534-0.885 0.597-0.522 1.959l0.186-0.189c0 0 0.195 0.513 0.663 0.859 0 0 0.575-0.482 0.619-1.247l0.239 0.105c0 0-0.115-1.393-1.185-1.488z"/><path fill="#ff4b55" d="M5.992 17.102c-0.018 0-0.037-0.009-0.050-0.025-0.225-0.272-0.512-0.359-0.515-0.36-0.038-0.011-0.061-0.057-0.052-0.102s0.048-0.072 0.085-0.061c0.013 0.004 0.328 0.099 0.582 0.405 0.027 0.033 0.027 0.086-0.001 0.119-0.014 0.016-0.032 0.024-0.050 0.024z"/><path fill="#ff4b55" d="M5.83 17.735c-0.021 0-0.042-0.011-0.056-0.033-0.167-0.257-0.357-0.397-0.359-0.399-0.033-0.024-0.043-0.076-0.023-0.116s0.064-0.051 0.097-0.027c0.009 0.006 0.214 0.158 0.396 0.439 0.024 0.037 0.018 0.089-0.013 0.117-0.013 0.012-0.028 0.017-0.043 0.017z"/><path fill="#ff4b55" d="M5.458 18.441c-0.004 0-0.008-0-0.012-0.001-0.038-0.008-0.064-0.051-0.058-0.097 0.028-0.192 0.005-0.506-0.034-0.669-0.011-0.045 0.011-0.091 0.049-0.103s0.077 0.014 0.087 0.058c0.043 0.183 0.069 0.525 0.037 0.742-0.006 0.041-0.036 0.070-0.070 0.070z"/><path fill="#ff4b55" d="M4.961 17.667c-0.020 0-0.040-0.010-0.054-0.030-0.025-0.035-0.021-0.088 0.008-0.118 0.002-0.002 0.182-0.185 0.229-0.439 0.008-0.045 0.046-0.074 0.084-0.064s0.062 0.055 0.054 0.1c-0.058 0.31-0.268 0.522-0.277 0.531-0.013 0.013-0.029 0.020-0.045 0.020z"/><path fill="#ff4b55" d="M4.764 17.131c-0.024 0-0.047-0.014-0.060-0.040-0.021-0.039-0.010-0.091 0.023-0.115 0.003-0.002 0.259-0.191 0.339-0.397 0.016-0.043 0.059-0.061 0.094-0.042s0.051 0.069 0.035 0.111c-0.098 0.253-0.382 0.462-0.394 0.47s-0.024 0.012-0.037 0.012z"/></svg>