<!-- Generated by IcoMoon.io -->
<svg version="1.1" xmlns="http://www.w3.org/2000/svg" width="32" height="32" viewBox="0 0 32 32">
<title>taiwan</title>
<path fill="#ff4b55" d="M31.448 26.483h-30.896c-0.305 0-0.552-0.247-0.552-0.552v-19.862c0-0.305 0.247-0.552 0.552-0.552h30.896c0.305 0 0.552 0.247 0.552 0.552v19.862c-0 0.305-0.247 0.552-0.552 0.552z"></path>
<path fill="#41479b" d="M0.552 5.517h14.897c0.305 0 0.552 0.247 0.552 0.552v9.379c0 0.305-0.247 0.552-0.552 0.552h-14.897c-0.305-0-0.552-0.247-0.552-0.552v-9.379c0-0.305 0.247-0.552 0.552-0.552z"></path>
<path fill="#f5f5f5" d="M6.025 10.759c0-0.545 0.221-1.039 0.578-1.396l-1.655-0.473c-0.096-0.027-0.165 0.092-0.093 0.161l1.238 1.197-1.671 0.418c-0.097 0.024-0.097 0.162 0 0.186l1.671 0.418-1.238 1.197c-0.072 0.069-0.003 0.189 0.093 0.161l1.655-0.473c-0.357-0.357-0.578-0.851-0.578-1.396z"></path>
<path fill="#f5f5f5" d="M6.604 9.362c0.357-0.357 0.851-0.578 1.396-0.578s1.039 0.221 1.396 0.578l0.473-1.655c0.027-0.096-0.092-0.165-0.161-0.093l-1.197 1.238-0.418-1.671c-0.024-0.097-0.162-0.097-0.186 0l-0.418 1.671-1.197-1.238c-0.069-0.072-0.189-0.003-0.161 0.093l0.473 1.655z"></path>
<path fill="#f5f5f5" d="M9.396 12.155c-0.357 0.357-0.851 0.578-1.396 0.578s-1.039-0.221-1.396-0.578l-0.473 1.655c-0.027 0.096 0.092 0.165 0.161 0.093l1.197-1.238 0.418 1.671c0.024 0.097 0.162 0.097 0.186 0l0.418-1.671 1.197 1.238c0.069 0.072 0.189 0.003 0.161-0.093l-0.473-1.655z"></path>
<path fill="#f5f5f5" d="M11.577 10.666l-1.671-0.418 1.238-1.197c0.072-0.069 0.003-0.189-0.093-0.161l-1.655 0.473c0.357 0.357 0.578 0.851 0.578 1.396s-0.221 1.039-0.578 1.396l1.655 0.473c0.096 0.027 0.165-0.092 0.093-0.161l-1.238-1.197 1.671-0.418c0.097-0.024 0.097-0.162 0-0.186z"></path>
<path fill="#f5f5f5" d="M9.572 10.759c0 0.868-0.704 1.572-1.572 1.572s-1.572-0.704-1.572-1.572c0-0.868 0.704-1.572 1.572-1.572s1.572 0.704 1.572 1.572z"></path>
</svg>
