<!-- Generated by IcoMoon.io -->
<svg version="1.1" xmlns="http://www.w3.org/2000/svg" width="32" height="32" viewBox="0 0 32 32">
<title>tanzania</title>
<path fill="#73af00" d="M0 21.517v-15.448c0-0.305 0.247-0.552 0.552-0.552h23.724l-24.276 16z"></path>
<path fill="#4173cd" d="M32 10.483v15.448c0 0.305-0.247 0.552-0.552 0.552h-23.724l24.276-16z"></path>
<path fill="#ffe15a" d="M32 10.794v-4.725c0-0.305-0.247-0.552-0.552-0.552h-7.502l-23.946 15.689v4.725c0 0.305 0.247 0.552 0.552 0.552h7.502l23.946-15.689z"></path>
<path fill="#464655" d="M32 8.815v-2.747c0-0.305-0.247-0.552-0.552-0.552h-4.482l-26.966 17.667v2.747c0 0.305 0.247 0.552 0.552 0.552h4.482l26.966-17.667z"></path>
</svg>
