<!-- Generated by IcoMoon.io -->
<svg version="1.1" xmlns="http://www.w3.org/2000/svg" width="32" height="32" viewBox="0 0 32 32">
<title>thailand</title>
<path fill="#f5f5f5" d="M31.45 26.481h-30.9c-0.306 0-0.55-0.25-0.55-0.55v-19.863c0-0.306 0.25-0.55 0.55-0.55h30.894c0.306 0 0.55 0.25 0.55 0.55v19.863c0.006 0.306-0.244 0.55-0.544 0.55z"></path>
<path fill="#ff4b55" d="M31.45 26.481h-30.9c-0.306 0-0.55-0.25-0.55-0.55v-2.756h32v2.756c0 0.306-0.25 0.55-0.55 0.55z"></path>
<path fill="#ff4b55" d="M0.55 5.519h30.894c0.306 0 0.55 0.25 0.55 0.55v2.756h-31.994v-2.756c0-0.306 0.25-0.55 0.55-0.55z"></path>
<path fill="#41479b" d="M0 12.137h32v7.725h-32v-7.725z"></path>
</svg>
