<!-- Generated by IcoMoon.io -->
<svg version="1.1" xmlns="http://www.w3.org/2000/svg" width="32" height="32" viewBox="0 0 32 32">
<title>togo</title>
<path fill="#73af00" d="M32 9.71h-32v-3.641c0-0.305 0.247-0.552 0.552-0.552h30.896c0.305 0 0.552 0.247 0.552 0.552l-0 3.641z"></path>
<path fill="#73af00" d="M0 13.904h32v4.193h-32v-4.193z"></path>
<path fill="#ffe15a" d="M0 9.711h32v4.193h-32v-4.193z"></path>
<path fill="#73af00" d="M31.448 26.483h-30.896c-0.305 0-0.552-0.247-0.552-0.552v-3.641h32v3.641c0 0.305-0.247 0.552-0.552 0.552z"></path>
<path fill="#ffe15a" d="M0 18.097h32v4.193h-32v-4.193z"></path>
<path fill="#ff4b55" d="M12.138 18.097h-11.586c-0.305 0-0.552-0.247-0.552-0.552v-11.476c0-0.305 0.247-0.552 0.552-0.552h11.586c0.305 0 0.552 0.247 0.552 0.552v11.476c-0 0.305-0.247 0.552-0.552 0.552z"></path>
<path fill="#f5f5f5" d="M6.208 8.477l-0.797 2.391-2.52 0.020c-0.138 0.001-0.195 0.177-0.084 0.259l2.027 1.497-0.76 2.403c-0.042 0.132 0.108 0.241 0.221 0.16l2.050-1.466 2.050 1.466c0.112 0.080 0.262-0.029 0.221-0.16l-0.76-2.403 2.027-1.497c0.111-0.082 0.054-0.258-0.084-0.259l-2.52-0.020-0.798-2.391c-0.044-0.131-0.229-0.131-0.273-0z"></path>
</svg>
