<!-- Generated by IcoMoon.io -->
<svg version="1.1" xmlns="http://www.w3.org/2000/svg" width="32" height="32" viewBox="0 0 32 32">
<title>tonga</title>
<path fill="#ff4b55" d="M31.448 26.483h-30.896c-0.305 0-0.552-0.247-0.552-0.552v-19.862c0-0.305 0.247-0.552 0.552-0.552h30.896c0.305 0 0.552 0.247 0.552 0.552v19.862c-0 0.305-0.247 0.552-0.552 0.552z"></path>
<path fill="#f5f5f5" d="M12.138 16h-11.586c-0.305 0-0.552-0.247-0.552-0.552v-9.379c0-0.305 0.247-0.552 0.552-0.552h11.586c0.305 0 0.552 0.247 0.552 0.552v9.379c-0 0.305-0.247 0.552-0.552 0.552z"></path>
<path fill="#ff4b55" d="M10.483 9.379h-2.759v-2.759h-2.759v2.759h-2.759v2.759h2.759v2.759h2.759v-2.759h2.759z"></path>
</svg>
