<!-- Generated by IcoMoon.io -->
<svg version="1.1" xmlns="http://www.w3.org/2000/svg" width="32" height="32" viewBox="0 0 32 32">
<title>trinidad-and-tobago</title>
<path fill="#ff4b55" d="M31.448 26.483h-30.896c-0.305 0-0.552-0.247-0.552-0.552v-19.862c0-0.305 0.247-0.552 0.552-0.552h30.896c0.305 0 0.552 0.247 0.552 0.552v19.862c-0 0.305-0.247 0.552-0.552 0.552z"></path>
<path fill="#f5f5f5" d="M0.552 5.517c-0.149 0-0.283 0.060-0.383 0.157l22.452 20.809h1.655l-22.621-20.965h-1.103z"></path>
<path fill="#f5f5f5" d="M9.379 5.517h-1.655l22.621 20.965h1.103c0.149 0 0.283-0.060 0.383-0.157l-22.452-20.809z"></path>
<path fill="#464655" d="M1.655 5.517l22.621 20.965h6.069l-22.621-20.965z"></path>
</svg>
