<svg xmlns="http://www.w3.org/2000/svg" width="32" height="32" version="1.1" viewBox="0 0 32 32"><title>turkmenistan</title><path fill="#73af00" d="M31.448 26.483h-30.896c-0.305 0-0.552-0.247-0.552-0.552v-19.862c0-0.305 0.247-0.552 0.552-0.552h30.896c0.305 0 0.552 0.247 0.552 0.552v19.862c-0 0.305-0.247 0.552-0.552 0.552z"/><path fill="#ff4b55" d="M4.414 5.517h5.518v20.966h-5.518v-20.966z"/><path fill="#f5f5f5" d="M9.379 7.908l-1.103 0.92h-2.207l-1.103-0.92v-0.92l1.103-0.92h2.207l1.103 0.92z"/><path fill="#73af00" d="M9.379 15.632l-1.103 0.92h-2.207l-1.103-0.92v-0.919l1.103-0.92h2.207l1.103 0.92z"/><path fill="#73af00" d="M9.379 11.77l-1.103 0.92h-2.207l-1.103-0.92v-0.919l1.103-0.92h2.207l1.103 0.92z"/><path fill="#73af00" d="M9.379 19.494l-1.103 0.92h-2.207l-1.103-0.92v-0.919l1.103-0.92h2.207l1.103 0.92z"/><path fill="#ffb400" d="M4.414 8.276l1.103 1.103-1.103 1.103z"/><path fill="#ffb400" d="M9.931 10.483l-1.103-1.103 1.103-1.103z"/><path fill="#ffb400" d="M4.414 12.138l1.103 1.103-1.103 1.103z"/><path fill="#ffb400" d="M9.931 14.345l-1.103-1.103 1.103-1.103z"/><path fill="#ffb400" d="M4.414 16l1.103 1.103-1.103 1.103z"/><path fill="#ffb400" d="M9.931 18.207l-1.103-1.103 1.103-1.103z"/><path fill="#ffb400" d="M4.414 19.862l1.103 1.103-1.103 1.103z"/><path fill="#ffb400" d="M9.931 22.069l-1.103-1.103 1.103-1.103z"/><path fill="#ffb400" d="M4.414 5.517h1.103l-1.103 1.103z"/><path fill="#ffb400" d="M9.931 6.62l-1.103-1.103h1.103z"/><path fill="#ffb400" d="M6.896 9.931h0.552v2.759h-0.552v-2.759z"/><path fill="#ff4b55" d="M6.069 11.034h2.207v0.552h-2.207v-0.552z"/><path fill="#ffb400" d="M8.828 10.391l-0.552-0.46v2.759l0.552-0.46z"/><path fill="#ffb400" d="M5.517 12.23l0.552 0.46v-2.759l-0.552 0.46z"/><path fill="#ffb400" d="M7.172 6.069h-1.103l-1.103 0.92v0.46h2.207z"/><path fill="#ffb400" d="M7.172 8.827h1.103l1.103-0.92v-0.46h-2.207z"/><path fill="#ff4b55" d="M7.172 8.276l-1.103-0.824 1.103-0.831 1.103 0.831z"/><path fill="#73af00" d="M7.172 8.276l1.103-0.824-0.004-0.003h-1.099z"/><path fill="#73af00" d="M7.172 7.448v-0.828l-1.099 0.828z"/><path fill="#ff4b55" d="M6.069 14.345h2.207v1.655h-2.207v-1.655z"/><path fill="#ffb400" d="M8.276 14.896h0.552v0.552h-0.552v-0.552z"/><path fill="#f5f5f5" d="M6.896 14.896h0.552v0.552h-0.552v-0.552z"/><path fill="#ff4b55" d="M6.896 18.207h0.552v0.552h-0.552v-0.552z"/><path fill="#ffb400" d="M7.724 18.759h0.552v0.552h-0.552v-0.552z"/><path fill="#ffb400" d="M6.069 18.759h0.552v0.552h-0.552v-0.552z"/><path fill="#ff4b55" d="M6.896 19.31h0.552v0.552h-0.552v-0.552z"/><path fill="#ffb400" d="M5.518 14.896h0.552v0.552h-0.552v-0.552z"/><path fill="#f5f5f5" d="M9.379 23.356l-1.103 0.92h-2.207l-1.103-0.92v-0.919l1.103-0.92h2.207l1.103 0.92z"/><path fill="#ffb400" d="M7.172 21.517h-1.103l-1.103 0.92v0.46h2.207z"/><path fill="#ffb400" d="M7.172 24.276h1.103l1.103-0.92v-0.46h-2.207z"/><path fill="#ff4b55" d="M8.276 23.172l-1.104 0.552-1.103-0.552v-0.552l1.103-0.552 1.104 0.552z"/><path fill="#f5f5f5" d="M17.501 8.521c-0.059-0.029-0.112 0.048-0.064 0.092 0.624 0.589 1.019 1.417 1.019 2.34 0 1.813-1.457 3.267-3.249 3.267-0.331 0-0.649-0.052-0.95-0.146-0.062-0.019-0.103 0.064-0.049 0.101 0.524 0.364 1.155 0.582 1.845 0.582 1.816 0 3.299-1.455 3.299-3.294-0-1.293-0.759-2.406-1.851-2.943z"/><path fill="#f5f5f5" d="M13.011 10.65l-0.135 0.382 0.318 0.251c0.041 0.033 0.017 0.099-0.035 0.097l-0.405-0.010-0.141 0.38c-0.018 0.049-0.089 0.047-0.103-0.003l-0.115-0.388-0.405-0.017c-0.052-0.002-0.072-0.070-0.029-0.099l0.334-0.229-0.109-0.39c-0.014-0.050 0.044-0.090 0.086-0.058l0.321 0.246 0.337-0.224c0.043-0.029 0.099 0.014 0.082 0.064z"/><path fill="#f5f5f5" d="M14.65 11.478l-0.135 0.382 0.318 0.251c0.041 0.033 0.017 0.099-0.035 0.097l-0.405-0.010-0.141 0.38c-0.018 0.049-0.089 0.047-0.103-0.003l-0.115-0.388-0.405-0.017c-0.052-0.002-0.072-0.070-0.029-0.099l0.334-0.229-0.109-0.39c-0.014-0.050 0.044-0.090 0.086-0.058l0.321 0.246 0.337-0.224c0.044-0.029 0.099 0.014 0.082 0.064z"/><path fill="#f5f5f5" d="M14.634 9.772l-0.135 0.382 0.318 0.251c0.041 0.033 0.017 0.099-0.035 0.097l-0.405-0.010-0.141 0.38c-0.018 0.049-0.089 0.047-0.103-0.003l-0.115-0.388-0.405-0.017c-0.052-0.002-0.072-0.070-0.029-0.099l0.334-0.229-0.109-0.39c-0.014-0.050 0.044-0.090 0.086-0.058l0.321 0.246 0.337-0.224c0.044-0.029 0.099 0.014 0.082 0.064z"/><path fill="#f5f5f5" d="M14.69 8.126l-0.135 0.382 0.318 0.251c0.041 0.033 0.017 0.099-0.035 0.097l-0.405-0.010-0.141 0.38c-0.018 0.049-0.089 0.047-0.103-0.003l-0.115-0.388-0.405-0.017c-0.052-0.002-0.072-0.070-0.029-0.099l0.334-0.229-0.109-0.39c-0.014-0.050 0.044-0.090 0.086-0.058l0.321 0.246 0.337-0.224c0.043-0.029 0.099 0.014 0.082 0.064z"/><path fill="#f5f5f5" d="M16.296 8.954l-0.135 0.382 0.317 0.251c0.041 0.033 0.017 0.099-0.035 0.097l-0.405-0.010-0.141 0.38c-0.018 0.049-0.089 0.047-0.103-0.003l-0.115-0.388-0.405-0.017c-0.052-0.002-0.072-0.070-0.029-0.099l0.334-0.229-0.109-0.39c-0.014-0.050 0.044-0.090 0.086-0.058l0.321 0.246 0.337-0.224c0.044-0.029 0.099 0.014 0.082 0.064z"/></svg>