<!-- Generated by IcoMoon.io -->
<svg version="1.1" xmlns="http://www.w3.org/2000/svg" width="32" height="32" viewBox="0 0 32 32">
<title>tuvalu-1</title>
<path fill="#82afff" d="M31.448 26.483h-30.896c-0.305 0-0.552-0.247-0.552-0.552v-19.862c0-0.305 0.247-0.552 0.552-0.552h30.896c0.305 0 0.552 0.247 0.552 0.552v19.862c-0 0.305-0.247 0.552-0.552 0.552z"></path>
<path fill="#41479b" d="M15.448 16h-14.896c-0.305 0-0.552-0.247-0.552-0.552v-9.379c0-0.305 0.247-0.552 0.552-0.552h14.897c0.305 0 0.552 0.247 0.552 0.552v9.379c-0 0.305-0.247 0.552-0.552 0.552z"></path>
<path fill="#f5f5f5" d="M15.448 5.517h-0.958l-5.111 3.348v-3.348h-2.759v3.348l-5.111-3.348h-0.958c-0.305 0-0.552 0.247-0.552 0.552v0.438l4.385 2.873h-4.385v2.759h4.385l-4.385 2.873v0.438c0 0.305 0.247 0.552 0.552 0.552h0.958l5.111-3.348v3.348h2.759v-3.348l5.111 3.348h0.958c0.305 0 0.552-0.247 0.552-0.552v-0.438l-4.385-2.873h4.385v-2.759h-4.385l4.385-2.873v-0.438c0-0.305-0.247-0.552-0.552-0.552z"></path>
<path fill="#ff4b55" d="M16 9.931h-7.172v-4.414h-1.655v4.414h-7.172v1.655h7.172v4.414h1.655v-4.414h7.172z"></path>
<path fill="#ff4b55" d="M6.069 9.379l-5.806-3.769c-0.154 0.098-0.263 0.262-0.263 0.458v0.029l5.056 3.282h1.013z"></path>
<path fill="#ff4b55" d="M10.393 9.379l5.523-3.585c-0.096-0.162-0.265-0.277-0.468-0.277h-0.119l-5.95 3.862h1.013z"></path>
<path fill="#ff4b55" d="M5.592 12.138l-5.513 3.579c0.095 0.166 0.267 0.284 0.472 0.284h0.104l5.95-3.862h-1.013z"></path>
<path fill="#ff4b55" d="M15.991 15.492l-5.167-3.354h-1.013l5.867 3.808c0.176-0.082 0.296-0.252 0.313-0.455z"></path>
<path fill="#ffe15a" d="M13.667 22.085l-0.295 0.886-0.934 0.007c-0.089 0.001-0.127 0.115-0.055 0.168l0.751 0.555-0.282 0.89c-0.027 0.085 0.070 0.156 0.143 0.104l0.759-0.543 0.759 0.543c0.073 0.052 0.17-0.019 0.143-0.104l-0.282-0.89 0.751-0.555c0.072-0.053 0.035-0.167-0.055-0.168l-0.934-0.007-0.295-0.886c-0.028-0.085-0.149-0.085-0.177 0z"></path>
<path fill="#ffe15a" d="M28.046 15.189l-0.295 0.886-0.933 0.007c-0.090 0.001-0.127 0.115-0.055 0.168l0.751 0.555-0.282 0.89c-0.027 0.085 0.070 0.156 0.143 0.104l0.759-0.543 0.759 0.543c0.073 0.052 0.17-0.019 0.143-0.104l-0.282-0.89 0.751-0.555c0.072-0.053 0.035-0.167-0.055-0.168l-0.933-0.007-0.295-0.886c-0.028-0.085-0.149-0.085-0.177 0z"></path>
<path fill="#ffe15a" d="M28.046 7.74l-0.295 0.886-0.933 0.007c-0.090 0.001-0.127 0.115-0.055 0.168l0.751 0.555-0.282 0.89c-0.027 0.085 0.070 0.156 0.143 0.104l0.759-0.543 0.759 0.543c0.073 0.052 0.17-0.019 0.143-0.104l-0.282-0.89 0.751-0.555c0.072-0.053 0.035-0.167-0.055-0.168l-0.933-0.007-0.295-0.886c-0.028-0.085-0.149-0.085-0.177 0z"></path>
<path fill="#ffe15a" d="M17.363 17.426l0.292 0.887-0.745 0.563c-0.071 0.054-0.033 0.168 0.056 0.168l0.933-0.003 0.305 0.882c0.029 0.085 0.149 0.083 0.177-0.002l0.285-0.889 0.933-0.018c0.090-0.002 0.125-0.116 0.053-0.169l-0.757-0.546 0.272-0.893c0.026-0.086-0.072-0.155-0.144-0.102l-0.753 0.551-0.765-0.534c-0.073-0.051-0.17 0.020-0.142 0.106z"></path>
<path fill="#ffe15a" d="M17.294 21.254l0.292 0.887-0.745 0.563c-0.071 0.054-0.033 0.168 0.056 0.168l0.933-0.003 0.305 0.882c0.029 0.085 0.149 0.083 0.177-0.002l0.285-0.889 0.933-0.018c0.090-0.002 0.125-0.116 0.053-0.169l-0.757-0.546 0.272-0.893c0.026-0.086-0.072-0.155-0.144-0.102l-0.753 0.551-0.765-0.534c-0.073-0.051-0.17 0.021-0.142 0.106z"></path>
<path fill="#ffe15a" d="M21.329 20.288l0.292 0.887-0.745 0.563c-0.071 0.054-0.033 0.168 0.056 0.168l0.933-0.003 0.305 0.882c0.029 0.085 0.149 0.083 0.177-0.002l0.285-0.889 0.933-0.018c0.090-0.002 0.125-0.116 0.053-0.169l-0.757-0.546 0.272-0.893c0.026-0.086-0.072-0.155-0.144-0.102l-0.753 0.551-0.765-0.534c-0.073-0.051-0.17 0.020-0.142 0.105z"></path>
<path fill="#ffe15a" d="M21.26 11.943l0.292 0.887-0.745 0.563c-0.071 0.054-0.033 0.168 0.056 0.168l0.933-0.003 0.305 0.882c0.029 0.085 0.149 0.083 0.177-0.002l0.285-0.889 0.933-0.018c0.090-0.002 0.125-0.116 0.053-0.169l-0.757-0.546 0.272-0.893c0.026-0.086-0.072-0.155-0.144-0.102l-0.753 0.551-0.765-0.534c-0.073-0.051-0.17 0.020-0.142 0.105z"></path>
<path fill="#ffe15a" d="M24.674 10.805l0.292 0.887-0.745 0.563c-0.071 0.054-0.033 0.168 0.056 0.168l0.933-0.003 0.305 0.882c0.029 0.085 0.149 0.083 0.177-0.002l0.285-0.889 0.933-0.018c0.090-0.002 0.125-0.116 0.053-0.169l-0.757-0.546 0.272-0.893c0.026-0.086-0.072-0.155-0.144-0.102l-0.753 0.551-0.765-0.534c-0.073-0.051-0.17 0.021-0.142 0.106z"></path>
</svg>
