<svg xmlns="http://www.w3.org/2000/svg" width="32" height="32" version="1.1" viewBox="0 0 32 32"><title>tuvalu</title><path fill="#3cc8ff" d="M31.448 26.483h-30.896c-0.305 0-0.552-0.247-0.552-0.552v-19.862c0-0.305 0.247-0.552 0.552-0.552h30.896c0.305 0 0.552 0.247 0.552 0.552v19.862c-0 0.305-0.247 0.552-0.552 0.552z"/><path fill="#41479b" d="M15.448 16h-14.896c-0.305 0-0.552-0.247-0.552-0.552v-9.379c0-0.305 0.247-0.552 0.552-0.552h14.896c0.305 0 0.552 0.247 0.552 0.552v9.379c-0 0.305-0.247 0.552-0.552 0.552z"/><path fill="#f5f5f5" d="M15.448 5.517h-0.958l-5.111 3.348v-3.348h-2.759v3.348l-5.111-3.348h-0.958c-0.305 0-0.552 0.247-0.552 0.552v0.438l4.385 2.873h-4.385v2.759h4.385l-4.385 2.873v0.438c0 0.305 0.247 0.552 0.552 0.552h0.958l5.111-3.348v3.348h2.759v-3.348l5.111 3.348h0.958c0.305 0 0.552-0.247 0.552-0.552v-0.438l-4.385-2.873h4.385v-2.759h-4.385l4.385-2.873v-0.438c0-0.305-0.247-0.552-0.552-0.552z"/><path fill="#ff4b55" d="M16 9.931h-7.172v-4.414h-1.655v4.414h-7.172v1.655h7.172v4.414h1.655v-4.414h7.172z"/><path fill="#ff4b55" d="M6.069 9.379l-5.806-3.769c-0.154 0.098-0.263 0.262-0.263 0.458v0.029l5.056 3.282h1.013z"/><path fill="#ff4b55" d="M10.393 9.379l5.523-3.585c-0.096-0.162-0.265-0.277-0.468-0.277h-0.119l-5.95 3.862h1.013z"/><path fill="#ff4b55" d="M5.592 12.138l-5.513 3.579c0.095 0.166 0.267 0.284 0.472 0.284h0.104l5.95-3.862h-1.013z"/><path fill="#ff4b55" d="M15.991 15.492l-5.167-3.354h-1.013l5.867 3.808c0.176-0.082 0.296-0.252 0.313-0.455z"/><path fill="#ffe15a" d="M17.771 22.674l0.269 0.805 0.849 0.007c0.11 0.001 0.155 0.141 0.067 0.206l-0.683 0.504 0.256 0.809c0.033 0.105-0.086 0.191-0.176 0.128l-0.691-0.494-0.691 0.494c-0.089 0.064-0.209-0.023-0.176-0.128l0.256-0.809-0.683-0.504c-0.088-0.065-0.043-0.206 0.067-0.206l0.849-0.007 0.269-0.805c0.035-0.104 0.182-0.104 0.217 0z"/><path fill="#ffe15a" d="M25.583 16.598l0.269 0.805 0.849 0.007c0.11 0.001 0.155 0.141 0.067 0.206l-0.683 0.504 0.256 0.809c0.033 0.105-0.086 0.191-0.176 0.128l-0.691-0.494-0.691 0.494c-0.089 0.064-0.209-0.023-0.176-0.128l0.256-0.809-0.683-0.504c-0.088-0.065-0.043-0.206 0.067-0.206l0.849-0.007 0.269-0.805c0.035-0.104 0.182-0.104 0.217 0z"/><path fill="#ffe15a" d="M29.267 14.34l0.269 0.805 0.849 0.007c0.11 0.001 0.155 0.141 0.067 0.206l-0.683 0.504 0.256 0.809c0.033 0.105-0.086 0.191-0.176 0.128l-0.691-0.494-0.691 0.494c-0.089 0.064-0.209-0.023-0.176-0.128l0.256-0.809-0.683-0.504c-0.088-0.065-0.043-0.206 0.067-0.206l0.849-0.007 0.269-0.805c0.035-0.104 0.182-0.104 0.217 0z"/><path fill="#ffe15a" d="M28.388 6.594l0.269 0.805 0.849 0.007c0.11 0.001 0.155 0.141 0.067 0.206l-0.683 0.504 0.256 0.809c0.033 0.105-0.086 0.191-0.176 0.127l-0.691-0.494-0.691 0.494c-0.089 0.064-0.209-0.023-0.176-0.127l0.256-0.809-0.683-0.504c-0.088-0.065-0.043-0.205 0.067-0.206l0.849-0.007 0.269-0.805c0.035-0.104 0.182-0.104 0.217 0z"/><path fill="#ffe15a" d="M21.036 24.686l-0.269-0.805-0.849-0.007c-0.11-0.001-0.155-0.141-0.067-0.206l0.683-0.504-0.256-0.809c-0.033-0.105 0.086-0.191 0.176-0.128l0.691 0.494 0.691-0.494c0.089-0.064 0.209 0.023 0.176 0.128l-0.256 0.809 0.683 0.504c0.088 0.065 0.043 0.206-0.067 0.206l-0.849 0.007-0.269 0.805c-0.035 0.104-0.182 0.104-0.217 0z"/><path fill="#ffe15a" d="M23.575 22.408l-0.269-0.805-0.849-0.007c-0.11-0.001-0.155-0.141-0.067-0.206l0.683-0.504-0.256-0.809c-0.033-0.105 0.086-0.191 0.176-0.128l0.691 0.494 0.691-0.494c0.089-0.064 0.209 0.023 0.176 0.128l-0.256 0.809 0.683 0.504c0.088 0.065 0.043 0.206-0.067 0.206l-0.849 0.007-0.269 0.805c-0.035 0.104-0.182 0.104-0.217 0z"/><path fill="#ffe15a" d="M25.86 12.47l-0.269-0.805-0.849-0.007c-0.11-0.001-0.155-0.141-0.067-0.206l0.683-0.504-0.256-0.809c-0.033-0.105 0.086-0.191 0.176-0.127l0.691 0.494 0.691-0.494c0.089-0.064 0.209 0.023 0.176 0.127l-0.256 0.809 0.683 0.504c0.088 0.065 0.043 0.206-0.067 0.206l-0.849 0.007-0.269 0.805c-0.035 0.104-0.182 0.104-0.217 0z"/><path fill="#ffe15a" d="M23.224 13.317l-0.269-0.805-0.849-0.007c-0.11-0.001-0.155-0.141-0.067-0.206l0.683-0.504-0.256-0.809c-0.033-0.105 0.086-0.191 0.176-0.127l0.691 0.494 0.691-0.494c0.089-0.064 0.209 0.023 0.176 0.127l-0.256 0.809 0.683 0.504c0.088 0.065 0.043 0.206-0.067 0.206l-0.849 0.007-0.269 0.805c-0.035 0.104-0.182 0.104-0.217 0z"/><path fill="#ffe15a" d="M21.536 19.891l-0.269-0.805-0.849-0.007c-0.11-0.001-0.155-0.141-0.067-0.206l0.683-0.504-0.256-0.809c-0.033-0.105 0.086-0.191 0.176-0.128l0.691 0.494 0.691-0.494c0.089-0.064 0.209 0.023 0.176 0.128l-0.256 0.809 0.683 0.504c0.088 0.065 0.043 0.206-0.067 0.206l-0.849 0.007-0.269 0.805c-0.035 0.104-0.182 0.104-0.217 0z"/></svg>