<!-- Generated by IcoMoon.io -->
<svg version="1.1" xmlns="http://www.w3.org/2000/svg" width="32" height="32" viewBox="0 0 32 32">
<title>united-nations</title>
<path fill="#82afff" d="M31.448 5.517h-30.896c-0.305 0-0.552 0.247-0.552 0.552v19.862c0 0.305 0.247 0.552 0.552 0.552h30.896c0.305 0 0.552-0.247 0.552-0.552v-19.862c-0-0.305-0.247-0.552-0.552-0.552z"></path>
<path fill="#f5f5f5" d="M15.953 20.103c2.806 0 5.089-2.283 5.089-5.089s-2.283-5.089-5.089-5.089-5.089 2.283-5.089 5.089 2.283 5.089 5.089 5.089zM16.534 10.457l0.437-0.161c0.617 0.133 1.191 0.383 1.697 0.728-0.043-0.004-0.158-0.016-0.178-0.023-0.024-0.008-0.062 0.156-0.062 0.156l0.201 0.080 0.055-0.202c0.209 0.143 0.403 0.305 0.586 0.478l-0.295 0.295h-0.052l-0.042-0.167-0.161-0.29-0.57-0.206-0.394 0.191 0.224 0.485c-0.552-0.351-1.199-0.562-1.894-0.586v-0.675l0.402 0.127-0.167-0.294-0.235 0.101v-0.302c0.174 0.005 0.346 0.019 0.515 0.042l-0.197 0.066 0.132 0.157zM19.175 14.182l0.096-0.041 0.024-0.236c0.103 0.309 0.162 0.638 0.175 0.979h-0.885l0.033-0.141 0.25-0.022 0.207-0.353-0.006-0.066-0.212 0.272-0.13 0.032-0.083-0.097 0.097-0.165-0.211-0.156-0.19 0.166c-0.051-0.184-0.121-0.361-0.211-0.526l0.103-0.037 0.083-0.049-0.001-0.097 0.053-0.066-0.031-0.019c-0.023 0.011-0.141 0.045-0.141 0.045l-0.041 0.133-0.059 0.036c-0.087-0.149-0.188-0.288-0.303-0.415l0.488-0.488 0.004 0.007 0.119-0.071-0.018-0.040 0.145-0.145c0.327 0.352 0.582 0.77 0.745 1.232l-0.122-0.181-0.063 0.023 0.083 0.487zM18.531 17.408l-0.264-0.264-0.1-0.264-0.051 0.113-0.102-0.102 0.105-0.321-0.068-0.233-0.005 0.001c0.072-0.113 0.136-0.231 0.189-0.355l0.001-0c0.016 0 0.076-0.076 0.076-0.076l0.147 0.016 0.38-0.15-0.146-0.138-0.086-0.077-0.067-0.135-0.119-0.207c0.002-0.023 0.002-0.047 0.004-0.070h1.044c-0.032 0.873-0.382 1.664-0.939 2.263zM13.465 17.241l0.131-0.228-0.281-0.983-0.222-0.547 0.201-0.087 0.054-0.163 0.136-0.004c0.047 0.553 0.277 1.052 0.628 1.442l-0.576 0.576-0.071-0.005zM13.779 14.83l-0.003 0.053h-0.035c0.001-0.020 0.001-0.040 0.003-0.060l0.035 0.007zM17.13 16.891l-0.045-0.024-0.569 0.22-0.295-0.114-0.137 0.038v-0.188l0.142-0.043 0.086 0.021 0.181 0.071-0.109-0.2 0.234 0.196 0.112 0.026-0.034-0.15 0.076-0.248 0.265-0.162 0.023 0.149-0.324 0.176 0.062 0.124 0.337-0.068 0.005 0.168c-0.004 0.002-0.008 0.004-0.011 0.007zM15.788 15.911l-0.010-0.022-0.061 0.004c-0.079-0.021-0.153-0.052-0.221-0.093l0.227-0.028 0.1-0.268v0.41c-0.011-0.002-0.023-0.001-0.034-0.003zM14.834 15.352l-0.222-0.034 0.113-0.173h0.066c0.008 0.072 0.022 0.14 0.042 0.207zM16.084 14.449l0.061 0.019 0.077 0.093-0.138 0.138v-0.25zM16.495 16.108l-0.106 0.124-0.177 0.088-0.059-0.104-0.036 0.206-0.034 0.013v-0.26c0.025-0.003 0.050-0.003 0.074-0.008l0.084 0.106 0.070-0.087-0.005-0.058c0.039-0.012 0.079-0.023 0.116-0.039l0.072 0.019zM16.416 14.736l-0.003 0.141-0.005 0.006h-0.14l0.148-0.148zM16.5 15.222l0.169-0.005 0.092 0.077-0.031 0.055-0.129-0.074-0.071 0.055 0.035 0.106-0.001 0.005-0.296-0.296h0.197l0.034 0.078zM16.388 15.633l-0.161-0.017-0.114 0.296c-0.009 0.002-0.019 0.002-0.029 0.003v-0.585l0.304 0.304zM15.55 14.883l-0.011-0.048-0.113 0.048h-0.050l0.017-0.069 0.073-0.071-0.058-0.013-0.060 0.086-0.063 0.029 0.007 0.038h-0.066l0.040-0.154 0.116-0.103 0.257 0.257h-0.088v-0zM15.066 15.144l0.027 0.031 0.018-0.031h0.093l-0.121 0.131c-0.013-0.043-0.023-0.086-0.030-0.131h0.013zM15.21 15.542l0.169-0.291-0.044-0.039 0.074-0.038 0.009-0.028h0.119l-0.027 0.015-0.011 0.039 0.092-0.006-0.068 0.068-0.070 0.015-0.014 0.069-0.214 0.214c-0.004-0.006-0.010-0.011-0.014-0.017zM15.823 14.141l-0.049-0.008 0.038 0.157 0.011 0.009v0.4l-0.219-0.219 0.154-0.083-0.139-0.23c0.065-0.026 0.133-0.042 0.204-0.052l-0 0.027zM13.763 15.144l-0.003 0.050-0.011 0.066c-0.004-0.038-0.006-0.077-0.008-0.116l0.021 0zM13.89 15.454l0.162 0.163 0.133-0.093 0.314 0.263 0.338 0.059 0.094-0.265c0.032 0.057 0.068 0.111 0.108 0.161l-0.29 0.29 0.047-0.119-0.173-0.028 0.055 0.203 0.008 0.007-0.39 0.39c-0.254-0.286-0.437-0.635-0.517-1.023l0.11-0.008zM15.224 15.927c0.168 0.135 0.373 0.222 0.599 0.248v0.302l-0.003 0.007 0.003-0.001v0.226l-0.076 0.015-0.044 0.283 0.12-0.014v0.090l-0.19 0.052-0.063 0.061c-0.413-0.073-0.786-0.259-1.087-0.527l0.742-0.742zM17.425 17.004l0.192 0.041 0.188 0.006 0.104 0.104-0.316-0.012-0.204-0.111c0.013-0.009 0.025-0.018 0.037-0.028zM17.609 16.485l-0.057-0.057 0.116-0.009c-0.019 0.023-0.040 0.044-0.059 0.066zM17.908 13.967c-0.089 0.001-0.175 0.002-0.183 0.002-0.016 0-0.144 0.109-0.144 0.109l-0.098 0.127-0.029-0.154 0.069-0.158-0.053-0.049-0.239 0.152-0.051-0.026 0.187-0.187 0.041 0.014 0.119-0.028-0.061-0.085 0.142-0.142c0.115 0.13 0.217 0.271 0.299 0.425zM17.208 13.574l-0.011-0.037-0.078 0.012-0.048 0.093-0.213 0.021c0.016 0.031 0.082 0.161 0.088 0.172l-0.264 0.264c-0.056-0.045-0.116-0.084-0.18-0.118l0.033-0.018-0.039-0.131-0.026-0.048-0.118 0.129c-0.085-0.031-0.175-0.051-0.268-0.061v-1.050c0.513 0.030 0.979 0.235 1.341 0.556l-0.216 0.216zM15.823 13.853c-0.084 0.009-0.165 0.027-0.243 0.053l0.039-0.091-0.204 0.16 0 0.001c-0.068 0.035-0.132 0.077-0.191 0.124l-0.742-0.742c0.361-0.322 0.828-0.526 1.341-0.556v1.050zM14.998 14.243l-0.351 0.061 0.012-0.133-0.291-0.1-0.465 0.097c0.096-0.231 0.23-0.441 0.394-0.625l0.7 0.7zM13.871 14.255l0.146 0.031-0.175 0.048c0.009-0.027 0.019-0.053 0.029-0.079zM13.48 14.883h-0.023l0.024-0.022c-0 0.007-0.001 0.015-0.001 0.022zM13.758 17.393l0.539-0.539c0.294 0.265 0.651 0.46 1.046 0.56l-0.186 0.179 0.399 0.528 0.265 0.015v0.395c-0.697-0.026-1.343-0.252-1.88-0.627l0.086-0.056-0.27-0.455zM16.084 18.15l0.337 0.019 0.009 0.077 0.205 0.224c-0.179 0.035-0.363 0.054-0.55 0.061v-0.381zM18.221 17.467l0.125 0.125c-0.060 0.056-0.12 0.111-0.184 0.162l0.059-0.288zM18.347 12.436l-0.076 0.076-0.091-0.198-0.165-0.088c0 0-0.153-0.135-0.233-0.219 0.203 0.124 0.392 0.267 0.565 0.428zM17.746 11.986l0.115 0.403 0.269 0.235 0.011 0.017-0.532 0.532c-0.409-0.369-0.94-0.602-1.525-0.633v-1.044c0.606 0.022 1.172 0.197 1.663 0.489zM15.823 12.541c-0.585 0.031-1.116 0.264-1.525 0.633l-0.738-0.738c0.599-0.557 1.39-0.906 2.263-0.939v1.044zM14.113 13.358c-0.28 0.31-0.482 0.691-0.577 1.112l-0.229 0.413h-0.87c0.032-0.873 0.382-1.664 0.939-2.263l0.738 0.738zM13.18 15.144l-0.248 0.533-0.351-0.13-0.066 0.233c-0.046-0.206-0.072-0.418-0.080-0.636l0.744 0zM12.919 17.787l0.040 0.036-0.507 0.507c-0.35-0.369-0.641-0.794-0.861-1.259l0.135 0.079 0.899 0.8 0.294-0.163zM13.155 17.996l0.123 0.109 0.398-0.076c0.602 0.456 1.342 0.735 2.147 0.762v1.044c-1.232-0.033-2.349-0.529-3.186-1.321l0.518-0.518zM16.084 18.792c0.221-0.008 0.438-0.031 0.648-0.075l0.024 0.161 0.622 0.459 0.7-0.389 0.201-0.424-0.013-0.262 0.132-0.31-0.032-0.025c0.057-0.047 0.11-0.099 0.165-0.15l0.12 0.12 0.037 0.227 0.137-0.054 0.444 0.444c-0.836 0.793-1.953 1.288-3.186 1.321v-1.044h-0zM18.887 17.763l-0.025-0.297-0.033 0.002c0.539-0.63 0.872-1.438 0.902-2.323h1.044c-0.033 1.232-0.529 2.349-1.321 3.185l-0.567-0.567zM19.731 14.883c-0.023-0.659-0.214-1.274-0.532-1.806l0.444 0.415 0.356-0.306-0.546-0.824-0.361-0.277 0.001-0.027 0.361-0.361c0.793 0.836 1.288 1.953 1.321 3.185l-1.044 0zM15.823 11.236c-0.945 0.032-1.801 0.411-2.448 1.015l-0.738-0.738c0.836-0.793 1.953-1.288 3.186-1.321v1.044zM13.19 12.436c-0.604 0.647-0.983 1.503-1.015 2.447h-1.044c0.033-1.232 0.529-2.349 1.321-3.185l0.738 0.738zM12.175 15.144c0.013 0.388 0.085 0.761 0.207 1.111l-0.039 0.14-1.020-0.022c-0.115-0.391-0.18-0.803-0.191-1.228l1.044-0z"></path>
<path fill="#f5f5f5" d="M12.437 21.060l0.942-0.153c0.084-0.014 0.119-0.115 0.061-0.178-0.227-0.242-0.677-0.744-0.938-1.171-0.359-0.587-0.991-1.071-0.991-1.071s0.121 1.615 1.339 2.17c0 0-1.207-0.305-1.979-0.511s-0.983-0.434-0.983-0.434 0.603 1.543 2.55 1.347z"></path>
<path fill="#f5f5f5" d="M11.502 19.255c-0.033-0.402-0.327-1.431-0.881-2.282 0 0 0.001 2.067 0.735 2.767 0 0-1.039-0.996-1.659-1.453-0.58-0.428-0.837-0.913-0.837-0.913s0.156 1.306 1.001 1.957c0.571 0.44 1.838 0.75 1.838 0.75s-0.163-0.424-0.196-0.826z"></path>
<path fill="#f5f5f5" d="M9.512 17.711l0.635 0.549c0.066 0.057 0.169 0.012 0.171-0.075 0.003-0.221 0.017-0.556 0.065-0.767 0.076-0.337 0.17-1.432-0.214-2.227 0 0-0.464 1.426-0.101 2.614 0 0-0.57-0.907-1.153-1.593-0.305-0.359-0.425-0.782-0.425-0.782s-0.010 1.424 1.023 2.283z"></path>
<path fill="#f5f5f5" d="M9.338 16.306c0.050 0.067 0.153 0.053 0.181-0.026 0.083-0.23 0.245-0.644 0.46-1.038 0.392-0.718 0.211-1.563 0.211-1.563s-0.629 1.077-0.811 2.274c-0.012-0.053-0.025-0.11-0.040-0.176-0.172-0.725-0.843-2.534-0.843-2.534s-0.236 0.993 0.059 1.78c0.152 0.404 0.575 1.001 0.783 1.281z"></path>
<path fill="#f5f5f5" d="M9.208 14.718c0.019 0.072 0.12 0.074 0.142 0.002 0.060-0.199 0.185-0.474 0.445-0.74 0.489-0.5 0.86-1.195 1.050-1.815 0 0-1.044 0.838-1.373 1.403 0 0 0.033-0.777-0.079-1.338-0.095-0.479 0.107-0.94 0.107-0.94s-0.662 0.635-0.564 1.799c0.062 0.732 0.188 1.305 0.273 1.629z"></path>
<path fill="#f5f5f5" d="M9.869 12.724c0.198-0.182 0.545-0.491 0.879-0.678 0.444-0.249 0.795-1.053 0.873-1.232 0 0-1.237 1.013-1.574 1.338 0 0 0.204-0.905 0.334-1.297s0.114-0.522 0.228-0.685c0 0-0.595 0.522-0.759 0.938-0.134 0.342-0.108 1.119-0.127 1.548-0.003 0.078 0.087 0.121 0.144 0.069z"></path>
<path fill="#f5f5f5" d="M11.121 10.903c0.348-0.283 0.903-1.109 0.903-1.109-0.137 0.079-0.696 0.272-1.164 0.75s-0.566 1.131-0.566 1.131 0.478-0.489 0.826-0.772z"></path>
<path fill="#f5f5f5" d="M19.023 21.3c-1.022-0.201-1.898-0.348-2.924-0.081-0.050 0.013-0.098 0.028-0.146 0.043-0.049-0.014-0.096-0.029-0.146-0.043-1.026-0.267-1.902-0.12-2.924 0.081-0.921 0.181-1.804 0.024-1.804 0.024s0.64 0.65 2.097 0.65c0.636 0 1.435-0.535 1.939-0.564 0.124-0.007 0.247 0 0.368 0.014-1.082 0.442-1.582 1.111-1.592 1.124-0.043 0.057-0.032 0.139 0.025 0.183 0.024 0.018 0.051 0.027 0.079 0.027 0.039 0 0.078-0.018 0.104-0.052 0.040-0.052 0.839-0.88 1.854-1.185 1.014 0.306 1.814 1.133 1.854 1.185 0.026 0.034 0.065 0.052 0.104 0.052 0.027 0 0.055-0.009 0.079-0.027 0.057-0.043 0.069-0.125 0.025-0.183-0.010-0.013-0.509-0.683-1.592-1.124 0.121-0.014 0.244-0.021 0.368-0.014 0.504 0.029 1.303 0.564 1.939 0.564 1.457 0 2.097-0.65 2.097-0.65s-0.882 0.157-1.804-0.024z"></path>
<path fill="#f5f5f5" d="M19.056 20.658c1.218-0.555 1.339-2.17 1.339-2.17s-0.632 0.484-0.991 1.071c-0.261 0.427-0.711 0.928-0.938 1.171-0.058 0.062-0.023 0.164 0.061 0.178l0.942 0.153c1.947 0.196 2.549-1.348 2.549-1.348s-0.211 0.227-0.983 0.434c-0.772 0.207-1.979 0.511-1.979 0.511z"></path>
<path fill="#f5f5f5" d="M22.21 18.287c-0.62 0.457-1.659 1.453-1.659 1.453 0.734-0.7 0.735-2.767 0.735-2.767-0.554 0.85-0.849 1.879-0.881 2.282s-0.196 0.826-0.196 0.826 1.267-0.31 1.838-0.75c0.845-0.651 1-1.957 1-1.957s-0.257 0.486-0.837 0.913z"></path>
<path fill="#f5f5f5" d="M21.84 17.803c0.363-1.188-0.101-2.614-0.101-2.614-0.384 0.796-0.29 1.89-0.214 2.227 0.048 0.211 0.061 0.546 0.065 0.767 0.001 0.087 0.105 0.133 0.171 0.075l0.635-0.549c1.033-0.859 1.023-2.283 1.023-2.283s-0.121 0.423-0.425 0.782c-0.583 0.686-1.153 1.593-1.153 1.593z"></path>
<path fill="#f5f5f5" d="M22.527 15.954c-0.182-1.197-0.811-2.274-0.811-2.274s-0.181 0.845 0.211 1.563c0.215 0.394 0.377 0.808 0.46 1.038 0.028 0.078 0.132 0.093 0.181 0.026 0.208-0.281 0.631-0.878 0.783-1.281 0.295-0.787 0.059-1.78 0.059-1.78s-0.671 1.809-0.843 2.534c-0.015 0.065-0.028 0.122-0.040 0.176z"></path>
<path fill="#f5f5f5" d="M22.514 12.23c-0.112 0.561-0.079 1.338-0.079 1.338-0.329-0.565-1.373-1.403-1.373-1.403 0.19 0.621 0.561 1.315 1.050 1.815 0.26 0.266 0.385 0.54 0.445 0.74 0.021 0.071 0.123 0.070 0.142-0.002 0.085-0.324 0.211-0.897 0.273-1.629 0.098-1.164-0.564-1.799-0.564-1.799s0.202 0.461 0.107 0.94z"></path>
<path fill="#f5f5f5" d="M21.859 12.151c-0.337-0.325-1.574-1.338-1.574-1.338 0.078 0.179 0.429 0.982 0.873 1.232 0.334 0.188 0.681 0.497 0.879 0.678 0.057 0.053 0.148 0.009 0.145-0.069-0.018-0.429 0.007-1.206-0.127-1.548-0.163-0.416-0.759-0.938-0.759-0.938 0.114 0.163 0.098 0.294 0.228 0.685s0.334 1.297 0.334 1.297z"></path>
<path fill="#f5f5f5" d="M20.785 10.903c0.348 0.283 0.826 0.772 0.826 0.772s-0.098-0.652-0.566-1.131c-0.468-0.479-1.026-0.672-1.164-0.75 0 0 0.555 0.826 0.903 1.109z"></path>
<path fill="#f5f5f5" d="M18.653 13.593l-0.222 0.146 0.237 0.037 0.259 0.286 0.145-0.093-0.174-0.355z"></path>
<path fill="#f5f5f5" d="M19.003 14.811l0.082 0.031 0.208-0.559-0.057-0.078-0.090 0.045-0.143 0.506z"></path>
<path fill="#f5f5f5" d="M16.915 13.864l-0.065-0.069-0.147 0.188 0.037 0.057z"></path>
<path fill="#f5f5f5" d="M18.418 13.428l0.040-0.128-0.131 0.027-0.037 0.011-0.039 0.052 0.142 0.165 0.058-0.049z"></path>
<path fill="#f5f5f5" d="M15.782 16.417l0.002-0.079-0.1 0.145 0.029 0.049z"></path>
</svg>
