<!-- Generated by IcoMoon.io -->
<svg version="1.1" xmlns="http://www.w3.org/2000/svg" width="32" height="32" viewBox="0 0 32 32">
<title>uruguay</title>
<path fill="#f5f5f5" d="M31.448 5.517h-30.896c-0.305 0-0.552 0.247-0.552 0.552v19.862c0 0.305 0.247 0.552 0.552 0.552h30.896c0.305 0 0.552-0.247 0.552-0.552v-19.862c-0-0.305-0.247-0.552-0.552-0.552z"></path>
<path fill="#4173cd" d="M11.586 7.847h20.414v2.329h-20.414v-2.329z"></path>
<path fill="#f5f5f5" d="M0 10.176h32v2.329h-32v-2.329z"></path>
<path fill="#4173cd" d="M11.586 12.506h20.414v2.329h-20.414v-2.329z"></path>
<path fill="#f5f5f5" d="M0 14.835h32v2.329h-32v-2.329z"></path>
<path fill="#4173cd" d="M0 17.165h32v2.329h-32v-2.329z"></path>
<path fill="#f5f5f5" d="M0 19.494h32v2.329h-32v-2.329z"></path>
<path fill="#4173cd" d="M0 21.824h32v2.329h-32v-2.329z"></path>
<path fill="#ffe15a" d="M3.998 6.978l0.923 4.271 1.444-0.598z"></path>
<path fill="#ffcd5a" d="M3.998 6.978l1.645 3.972-0.722 0.299z"></path>
<path fill="#ffe15a" d="M7.588 15.643l-0.923-4.271-1.444 0.598z"></path>
<path fill="#ffcd5a" d="M7.588 15.643l-1.645-3.972 0.722-0.299z"></path>
<path fill="#ffe15a" d="M10.126 9.516l-4.271 0.923 0.598 1.444z"></path>
<path fill="#ffcd5a" d="M10.126 9.516l-3.972 1.645-0.299-0.722z"></path>
<path fill="#ffe15a" d="M1.46 13.105l4.271-0.923-0.598-1.444z"></path>
<path fill="#ffcd5a" d="M1.46 13.105l3.972-1.645 0.299 0.722z"></path>
<path fill="#ffe15a" d="M7.588 6.978l-2.367 3.673 1.444 0.598z"></path>
<path fill="#ffcd5a" d="M7.588 6.978l-1.645 3.972-0.722-0.299z"></path>
<path fill="#ffe15a" d="M3.998 15.643l2.367-3.673-1.444-0.598z"></path>
<path fill="#ffcd5a" d="M3.998 15.643l1.645-3.972 0.722 0.299z"></path>
<path fill="#ffe15a" d="M10.126 13.105l-3.673-2.367-0.598 1.444z"></path>
<path fill="#ffcd5a" d="M10.126 13.105l-3.972-1.645 0.299-0.722z"></path>
<path fill="#ffe15a" d="M1.46 9.516l3.672 2.367 0.598-1.444z"></path>
<path fill="#ffcd5a" d="M1.46 9.516l3.972 1.645-0.299 0.722z"></path>
<path fill="#ffe15a" d="M5.793 6.621l-0.782 4.299h1.563z"></path>
<path fill="#ffcd5a" d="M5.793 6.621v4.299h-0.782z"></path>
<path fill="#ffe15a" d="M5.793 16l0.782-4.299h-1.563z"></path>
<path fill="#ffcd5a" d="M5.793 16v-4.299h0.782z"></path>
<path fill="#ffe15a" d="M10.483 11.31l-4.299-0.782v1.563z"></path>
<path fill="#ffcd5a" d="M10.483 11.31h-4.299v-0.782z"></path>
<path fill="#ffe15a" d="M1.103 11.31l4.299 0.782v-1.563z"></path>
<path fill="#ffcd5a" d="M1.103 11.31h4.299v0.782z"></path>
<path fill="#ffe15a" d="M9.109 7.994l-3.592 2.487 1.105 1.105z"></path>
<path fill="#ffcd5a" d="M9.109 7.994l-3.040 3.040-0.553-0.553z"></path>
<path fill="#ffe15a" d="M2.477 14.626l3.592-2.487-1.105-1.105z"></path>
<path fill="#ffcd5a" d="M2.477 14.626l3.040-3.040 0.553 0.553z"></path>
<path fill="#ffe15a" d="M9.109 14.626l-2.487-3.592-1.105 1.105z"></path>
<path fill="#ffcd5a" d="M9.109 14.626l-3.040-3.040 0.553-0.553z"></path>
<path fill="#ffe15a" d="M2.477 7.994l2.487 3.592 1.105-1.105z"></path>
<path fill="#ffcd5a" d="M2.477 7.994l3.040 3.040-0.553 0.553z"></path>
<path fill="#ffe15a" d="M7.356 11.311c0 0.863-0.7 1.563-1.563 1.563s-1.563-0.7-1.563-1.563c0-0.863 0.7-1.563 1.563-1.563s1.563 0.7 1.563 1.563z"></path>
</svg>
