<svg xmlns="http://www.w3.org/2000/svg" width="32" height="32" version="1.1" viewBox="0 0 32 32"><title>vanuatu</title><path fill="#464655" d="M31.448 26.483h-30.896c-0.305 0-0.552-0.247-0.552-0.552v-19.862c0-0.305 0.247-0.552 0.552-0.552h30.896c0.305 0 0.552 0.247 0.552 0.552v19.862c-0 0.305-0.247 0.552-0.552 0.552z"/><path fill="#ffe15a" d="M32 15.448h-16.41l-15.59-8.602v1.261l14.306 7.893-14.306 7.893v1.261l15.59-8.602h16.41z"/><path fill="#73af00" d="M0.221 26.361c0.093 0.072 0.204 0.122 0.331 0.122h30.896c0.305 0 0.552-0.247 0.552-0.552v-8.276h-16l-15.779 8.706z"/><path fill="#ff4b55" d="M31.448 5.517h-30.896c-0.127 0-0.238 0.050-0.331 0.122l15.779 8.706h16v-8.276c0-0.305-0.247-0.552-0.552-0.552z"/><path fill="#ffe15a" d="M4.778 12.905c-1.575-0.496-2.765 0.649-3.036 1.238-0.23 0.499-0.658 2.76 1.474 3.121s2.107-1.651 2.107-1.651c-0.096 0.321-0.269 1.234-1.807 1.234-0.577 0-1.406-0.857-1.25-1.803 0.147-0.89 0.942-1.345 1.543-1.37 0.569-0.024 1.895 0.369 1.895 1.983 0 1.815-1.871 2.019-1.871 2.019v1.096c1.628-0.16 2.55-1.062 2.794-2.506 0.243-1.438-0.247-2.858-1.848-3.362z"/><path fill="#ffe15a" d="M3.034 15.597c-0.037 0.047-0.057 0.106-0.058 0.166l-0.005 0.295-0.057 0.1c-0.021 0.036-0.008 0.082 0.028 0.103s0.083 0.009 0.104-0.028l0.059-0.103 0.235-0.085c0.071-0.026 0.129-0.079 0.16-0.149 0.062-0.137 0.194-0.389 0.408-0.652 0.214 0.263 0.346 0.515 0.408 0.652 0.031 0.069 0.088 0.123 0.16 0.149l0.235 0.085 0.059 0.103c0.021 0.037 0.068 0.049 0.104 0.028s0.048-0.067 0.028-0.103l-0.057-0.1-0.005-0.295c-0.001-0.060-0.021-0.119-0.058-0.166-0.197-0.25-0.407-0.447-0.614-0.622 0.165-0.155 0.352-0.303 0.587-0.418 0.054-0.027 0.083-0.088 0.069-0.146-0.019-0.080-0.107-0.123-0.182-0.088-0.158 0.073-0.429 0.218-0.734 0.44-0.305-0.222-0.576-0.367-0.734-0.44-0.075-0.035-0.163 0.007-0.182 0.088-0.014 0.059 0.014 0.12 0.069 0.146 0.235 0.114 0.422 0.263 0.587 0.418-0.207 0.174-0.416 0.371-0.614 0.622z"/></svg>