<svg xmlns="http://www.w3.org/2000/svg" width="32" height="32" version="1.1" viewBox="0 0 32 32"><title>vietnam</title><path fill="#ff4b55" d="M31.448 26.483h-30.896c-0.305 0-0.552-0.247-0.552-0.552v-19.862c0-0.305 0.247-0.552 0.552-0.552h30.896c0.305 0 0.552 0.247 0.552 0.552v19.862c-0 0.305-0.247 0.552-0.552 0.552z"/><path fill="#ffe15a" d="M16.257 9.748l1.476 4.424 4.664 0.036c0.261 0.002 0.369 0.335 0.159 0.49l-3.752 2.771 1.407 4.447c0.079 0.249-0.204 0.454-0.417 0.303l-3.794-2.712-3.794 2.712c-0.212 0.152-0.495-0.054-0.417-0.303l1.407-4.447-3.752-2.771c-0.21-0.155-0.102-0.488 0.159-0.49l4.664-0.036 1.476-4.424c0.083-0.247 0.432-0.247 0.515 0z"/></svg>