<!-- Generated by IcoMoon.io -->
<svg version="1.1" xmlns="http://www.w3.org/2000/svg" width="32" height="32" viewBox="0 0 32 32">
<title>zambia</title>
<path fill="#73af00" d="M31.448 5.517h-30.896c-0.305 0-0.552 0.247-0.552 0.552v19.862c0 0.305 0.247 0.552 0.552 0.552h30.896c0.305 0 0.552-0.247 0.552-0.552v-19.862c-0-0.305-0.247-0.552-0.552-0.552z"></path>
<path fill="#ff4b55" d="M20.414 12.689h3.862v13.793h-3.862v-13.793z"></path>
<path fill="#464655" d="M24.275 12.689h3.862v13.793h-3.862v-13.793z"></path>
<path fill="#ff9b55" d="M28.138 12.689h3.862v13.793h-3.862v-13.793z"></path>
<path fill="#ff9b55" d="M31.059 8.054c0.012-0.024 0.006-0.053-0.014-0.071s-0.050-0.020-0.073-0.005c-0.112 0.074-0.224 0.141-0.336 0.202 0.359-0.297 0.409-0.555 0.413-0.573 0.004-0.024-0.006-0.047-0.026-0.060s-0.046-0.013-0.066 0.001c-0.388 0.263-0.776 0.451-1.111 0.583 0.45-0.284 0.628-0.574 0.639-0.592 0.014-0.024 0.010-0.054-0.009-0.073s-0.049-0.023-0.073-0.009c-0.359 0.216-0.784 0.387-1.19 0.518 0.054-0.083 0.092-0.177 0.058-0.229-0.032-0.049-0.091-0.049-0.174 0-0.169 0.099-1.451 0.426-1.947 0.548-0.506-0.091-0.925 0.038-1.056 0.086-0.035-0.041-0.051-0.082-0.057-0.113-0.011-0.051-0.003-0.103 0.021-0.139 0.039-0.059 0.121-0.064 0.193-0.069 0.031-0.002 0.059-0.004 0.084-0.010 0.016 0.005 0.035 0.014 0.034 0.021-0.001 0.027 0.016 0.052 0.042 0.060s0.054-0.002 0.069-0.025c0.004-0.006 0.088-0.144 0.023-0.262-0.048-0.086-0.157-0.131-0.325-0.134-0.069-0.048-0.329-0.205-0.65-0.084-0.325 0.123-0.469 0.456-0.517 0.597-0.253-0.035-1.414-0.212-2.045-0.583-0.031-0.014-0.135-0.055-0.194 0.001-0.036 0.034-0.040 0.087-0.013 0.157 0.015 0.037 0.037 0.074 0.067 0.109-0.338-0.155-0.793-0.372-1.137-0.564-0.054-0.025-0.152-0.059-0.202-0.006-0.032 0.033-0.031 0.082 0.001 0.144 0.007 0.013 0.014 0.028 0.021 0.044 0.034 0.072 0.079 0.171 0.191 0.284-0.083-0.046-0.159-0.092-0.219-0.139-0.302-0.235-0.343-0.258-0.397-0.222-0.047 0.031-0.032 0.084-0.016 0.141l0.004 0.015c0.013 0.047 0.035 0.122 0.093 0.213-0.047-0.032-0.087-0.038-0.119-0.016-0.019 0.013-0.047 0.046-0.025 0.117 0.053 0.171 0.416 0.622 1.106 0.755-0.069 0.010-0.142 0.018-0.213 0.019-0.027 0.001-0.050 0.019-0.057 0.045s0.005 0.053 0.028 0.067c0.013 0.007 0.257 0.144 0.704 0.132-0.067 0.017-0.143 0.030-0.227 0.035-0.026 0.002-0.048 0.020-0.054 0.045s0.005 0.052 0.027 0.065c0.013 0.008 0.273 0.161 0.675 0.138l-0.035 0.022c-0.020 0.012-0.031 0.036-0.028 0.059s0.020 0.043 0.043 0.049c0.013 0.004 0.239 0.067 0.522 0.037l-0.050 0.035c-0.020 0.014-0.029 0.039-0.023 0.063s0.026 0.042 0.050 0.045c0.005 0.001 0.042 0.005 0.1 0.005 0.039 0 0.087-0.002 0.142-0.009-0.001 0.014 0 0.028 0.005 0.043 0.028 0.085 0.154 0.106 0.195 0.106 0.003 0 0.005 0 0.008 0 0.050 0 0.104-0.007 0.158-0.018 0.087 0.081 0.246 0.074 0.4 0.038-0.009 0.014-0.016 0.028-0.020 0.041-0.009 0.028-0.002 0.057 0.018 0.077s0.067 0.066 0.498-0.055c-0.002 0.001-0.004 0.003-0.005 0.004-0.057 0.044-0.054 0.090-0.046 0.114 0.026 0.085 0.217 0.139 0.562 0.162 0.008 0.192-0.046 0.4-0.046 0.403-0.006 0.023 0.002 0.047 0.021 0.062s0.044 0.017 0.065 0.006c0.020-0.011 0.040-0.025 0.059-0.040l-0.002 0.063c-0.001 0.023 0.012 0.044 0.033 0.055 0.009 0.004 0.018 0.007 0.027 0.007 0.002 0 0.005-0.001 0.007-0.001-0.006 0.054-0.028 0.119-0.098 0.134-0.031 0.007-0.065 0.010-0.097 0.014-0.147 0.015-0.313 0.032-0.34 0.369-0.002 0.025 0.012 0.049 0.035 0.059s0.050 0.005 0.068-0.014l0.064-0.068c0.038 0.009 0.098 0.019 0.162 0.008-0.016 0.078-0.011 0.174 0.067 0.255 0.017 0.018 0.043 0.023 0.065 0.014s0.037-0.031 0.037-0.055v-0.043c0.037-0.009 0.086-0.027 0.133-0.064 0.027 0.059 0.079 0.128 0.178 0.186 0.009 0.005 0.020 0.008 0.030 0.008 0.014 0 0.027-0.005 0.038-0.014 0.019-0.016 0.027-0.043 0.018-0.066l-0.031-0.086c0.022-0.021 0.050-0.052 0.075-0.085 0.012 0.018 0.033 0.028 0.055 0.026s0.042-0.017 0.050-0.039l0.022-0.058c0.013-0.004 0.025-0.008 0.037-0.013 0.015 0.129 0.114 0.237 0.12 0.243 0.011 0.012 0.027 0.019 0.044 0.019 0.005 0 0.010-0.001 0.015-0.002 0.021-0.005 0.038-0.021 0.043-0.042l0.033-0.124c0.088-0.045 0.097-0.126 0.102-0.176 0.001-0.010 0.003-0.024 0.003-0.030 0.034 0.017 0.107 0.099 0.163 0.184 0.011 0.017 0.030 0.027 0.050 0.027 0.020-0.001 0.039-0.010 0.050-0.027 0 0 0.047-0.071 0.069-0.112 0.096-0.175-0.050-0.279-0.12-0.33-0.017-0.012-0.041-0.029-0.045-0.034-0.013-0.032-0.009-0.062 0-0.085 0.058 0.040 0.125 0.074 0.198 0.091 0.005 0.001 0.009 0.002 0.014 0.002 0.019 0 0.038-0.009 0.049-0.025 0.014-0.020 0.014-0.047 0.001-0.067-0.001-0.002-0.111-0.171-0.182-0.379 0.114 0.067 0.269 0.148 0.349 0.148 0.055 0 0.076-0.034 0.083-0.049 0.004-0.009 0.011-0.024 0.005-0.053 0.106 0.057 0.226 0.102 0.317 0.078 0.027-0.007 0.090-0.023 0.099-0.080 0.005-0.029-0.005-0.052-0.026-0.075 0.099 0.024 0.205 0.036 0.309 0.022 0.087-0.011 0.113-0.054 0.119-0.087 0.004-0.021 0.011-0.062-0.067-0.14 0.15-0.008 0.284-0.041 0.295-0.131 0.001-0.008-0.001-0.015-0.001-0.023 0.482-0.053 0.848-0.354 0.864-0.367 0.005-0.004 0.008-0.009 0.011-0.014 0.291-0.036 0.623-0.102 0.891-0.223 0.506-0.227 0.762-0.534 0.716-0.646-0.013-0.032-0.052-0.056-0.099-0.038-0.013 0.005-0.040 0.016-0.075 0.030 0.3-0.243 0.417-0.469 0.428-0.491z"></path>
<path fill="#464655" d="M31.059 8.054c0.012-0.024 0.006-0.053-0.014-0.071s-0.050-0.020-0.073-0.005c-0.112 0.074-0.224 0.141-0.336 0.202 0.359-0.297 0.41-0.555 0.413-0.573 0.004-0.024-0.006-0.047-0.026-0.060s-0.046-0.013-0.066 0.001c-0.388 0.263-0.776 0.451-1.111 0.583 0.45-0.284 0.628-0.574 0.639-0.592 0.014-0.024 0.010-0.054-0.009-0.073s-0.049-0.023-0.073-0.009c-0.359 0.216-0.784 0.387-1.19 0.518 0.054-0.083 0.092-0.177 0.058-0.229-0.032-0.049-0.091-0.049-0.174 0-0.169 0.099-1.451 0.426-1.947 0.548-0.506-0.091-0.925 0.038-1.056 0.086-0.035-0.041-0.051-0.082-0.057-0.113-0.011-0.051-0.003-0.103 0.021-0.139 0.039-0.059 0.121-0.064 0.193-0.069 0.031-0.002 0.059-0.004 0.084-0.010 0.016 0.005 0.035 0.014 0.035 0.021-0.001 0.027 0.016 0.052 0.042 0.060s0.054-0.002 0.069-0.025c0.004-0.006 0.088-0.144 0.023-0.262-0.048-0.086-0.157-0.131-0.325-0.134-0.069-0.048-0.329-0.205-0.65-0.084-0.325 0.122-0.469 0.456-0.517 0.597-0.253-0.035-1.414-0.212-2.045-0.583-0.031-0.014-0.135-0.055-0.194 0.001-0.036 0.034-0.040 0.087-0.013 0.157 0.015 0.037 0.037 0.074 0.067 0.109-0.338-0.155-0.793-0.372-1.137-0.564-0.054-0.025-0.152-0.059-0.202-0.006-0.032 0.033-0.031 0.082 0.001 0.144 0.007 0.013 0.014 0.028 0.021 0.044 0.034 0.072 0.079 0.171 0.191 0.284-0.083-0.046-0.159-0.092-0.219-0.139-0.302-0.235-0.343-0.258-0.397-0.222-0.047 0.031-0.032 0.084-0.016 0.141l0.004 0.015c0.013 0.047 0.035 0.122 0.093 0.213-0.047-0.032-0.087-0.038-0.119-0.016-0.019 0.013-0.047 0.046-0.025 0.117 0.052 0.171 0.416 0.622 1.106 0.755-0.069 0.010-0.142 0.018-0.213 0.019-0.027 0.001-0.050 0.019-0.057 0.045s0.005 0.053 0.028 0.067c0.013 0.007 0.257 0.144 0.704 0.132-0.067 0.017-0.143 0.030-0.227 0.035-0.026 0.002-0.048 0.020-0.054 0.045s0.005 0.052 0.027 0.065c0.013 0.008 0.273 0.161 0.675 0.138l-0.035 0.022c-0.020 0.012-0.031 0.036-0.028 0.059s0.020 0.043 0.043 0.049c0.013 0.004 0.239 0.067 0.522 0.037l-0.050 0.035c-0.020 0.014-0.029 0.039-0.023 0.063s0.026 0.042 0.050 0.045c0.005 0.001 0.042 0.005 0.1 0.005 0.039 0 0.087-0.002 0.142-0.009-0.001 0.014 0 0.028 0.005 0.043 0.028 0.085 0.154 0.106 0.195 0.106 0.003 0 0.005 0 0.008 0 0.050 0 0.104-0.007 0.158-0.018 0.087 0.081 0.246 0.074 0.4 0.038-0.009 0.014-0.016 0.028-0.020 0.041-0.009 0.028-0.002 0.057 0.018 0.077s0.067 0.066 0.498-0.055c-0.002 0.001-0.004 0.003-0.005 0.004-0.057 0.044-0.054 0.090-0.046 0.114 0.026 0.085 0.217 0.139 0.562 0.162 0.008 0.192-0.046 0.4-0.046 0.403-0.006 0.023 0.002 0.047 0.021 0.062s0.044 0.017 0.065 0.006c0.020-0.011 0.040-0.025 0.059-0.040l-0.002 0.063c-0.001 0.023 0.012 0.044 0.033 0.055 0.009 0.004 0.018 0.007 0.027 0.007 0.002 0 0.005-0.001 0.007-0.001-0.006 0.054-0.028 0.119-0.098 0.134-0.031 0.007-0.065 0.010-0.097 0.014-0.147 0.015-0.313 0.032-0.34 0.369-0.002 0.025 0.012 0.049 0.035 0.059s0.050 0.005 0.068-0.014l0.064-0.068c0.038 0.009 0.098 0.019 0.162 0.008-0.016 0.078-0.011 0.174 0.067 0.255 0.017 0.018 0.043 0.023 0.065 0.014s0.037-0.031 0.037-0.055v-0.043c0.037-0.009 0.086-0.027 0.133-0.064 0.027 0.059 0.079 0.128 0.178 0.186 0.009 0.005 0.020 0.008 0.030 0.008 0.014 0 0.027-0.005 0.038-0.014 0.019-0.016 0.027-0.043 0.018-0.066l-0.031-0.086c0.022-0.021 0.050-0.052 0.075-0.085 0.012 0.018 0.033 0.028 0.055 0.026s0.042-0.017 0.050-0.039l0.022-0.058c0.013-0.004 0.025-0.008 0.037-0.013 0.015 0.129 0.114 0.237 0.12 0.243 0.011 0.012 0.027 0.019 0.043 0.019 0.005 0 0.010-0.001 0.015-0.002 0.021-0.005 0.038-0.021 0.043-0.042l0.033-0.124c0.088-0.045 0.097-0.126 0.102-0.176 0.001-0.010 0.003-0.024 0.003-0.030 0.034 0.017 0.107 0.099 0.163 0.184 0.011 0.017 0.030 0.027 0.050 0.027 0.020-0.001 0.039-0.010 0.050-0.027 0 0 0.047-0.071 0.069-0.112 0.096-0.175-0.050-0.279-0.12-0.33-0.017-0.012-0.041-0.029-0.045-0.034-0.013-0.032-0.009-0.062 0-0.085 0.058 0.040 0.125 0.074 0.198 0.091 0.005 0.001 0.009 0.002 0.014 0.002 0.019 0 0.038-0.009 0.049-0.025 0.014-0.020 0.014-0.047 0.001-0.067-0.001-0.002-0.111-0.171-0.182-0.379 0.114 0.067 0.269 0.148 0.349 0.148 0.055 0 0.076-0.034 0.083-0.049 0.004-0.009 0.011-0.024 0.005-0.053 0.106 0.057 0.226 0.102 0.317 0.078 0.027-0.007 0.090-0.023 0.099-0.080 0.005-0.029-0.005-0.052-0.026-0.075 0.099 0.024 0.205 0.036 0.309 0.022 0.087-0.011 0.113-0.054 0.119-0.087 0.004-0.021 0.011-0.062-0.067-0.14 0.15-0.008 0.284-0.041 0.295-0.131 0.001-0.008-0-0.015-0.001-0.023 0.482-0.053 0.848-0.354 0.864-0.367 0.005-0.004 0.008-0.009 0.011-0.014 0.291-0.036 0.623-0.102 0.891-0.223 0.506-0.227 0.762-0.534 0.716-0.646-0.013-0.032-0.052-0.056-0.099-0.038-0.013 0.005-0.040 0.016-0.075 0.030 0.3-0.244 0.417-0.469 0.428-0.492zM30.18 7.715c-0.22 0.215-0.634 0.525-1.317 0.704-0.006 0.002-0.011 0.005-0.016 0.008-0.144-0.011-0.325-0.037-0.485-0.097 0.505-0.114 1.214-0.312 1.818-0.615zM27.14 8.413c0.008 0.002 0.017 0.001 0.025-0.001 0.071-0.017 1.716-0.421 1.98-0.557-0.031 0.061-0.090 0.145-0.138 0.181-0.001 0.001-0.002 0.002-0.003 0.004-0.708 0.21-1.309 0.299-1.319 0.3-0.033 0.005-0.055 0.035-0.051 0.068s0.035 0.055 0.068 0.051c0.005-0.001 0.188-0.028 0.468-0.086 0.145 0.083 0.323 0.129 0.486 0.154-0.243 0.021-0.467 0.009-0.471 0.009-0.028-0.001-0.056 0.019-0.062 0.048s0.010 0.058 0.038 0.068l0.226 0.083c-0.317 0.068-0.624 0.004-0.627 0.003-0.024-0.005-0.049 0.005-0.063 0.026s-0.012 0.048 0.003 0.068c0.043 0.057 0.165 0.118 0.271 0.162-0.436 0.083-0.737-0.185-0.751-0.198-0.024-0.022-0.062-0.021-0.084 0.004s-0.021 0.062 0.003 0.084c0.345 0.323 0.987 0.46 1.276 0.507-0.043 0.025-0.094 0.049-0.148 0.059-0.221 0.039-0.733-0.204-1.092-0.4l-0.288-0.166c-0.028-0.016-0.064-0.007-0.081 0.021s-0.008 0.064 0.020 0.081c0.014 0.008 0.127 0.078 0.287 0.166l0.701 0.405c-0.215 0.027-0.442-0.022-0.445-0.022-0.002-0-0.003 0-0.005-0-0.164-0.115-0.429-0.31-0.826-0.639-0.064-0.228-0.184-0.329-0.334-0.424 0.17-0.052 0.527-0.133 0.938-0.056zM27.573 9.679c-0 0-0.001 0-0.001 0.001s-0.001-0-0.001-0.001c0.001 0 0.001 0 0.002 0zM23.684 9.408l0.137-0.097c0.024-0.017 0.032-0.050 0.018-0.076s-0.045-0.039-0.073-0.029c-0.226 0.081-0.454 0.072-0.597 0.054l0.158-0.097c0.025-0.015 0.035-0.047 0.024-0.074s-0.041-0.042-0.070-0.034c-0.288 0.076-0.527 0.044-0.684 0.001 0.249-0.058 0.394-0.169 0.402-0.175 0.022-0.017 0.029-0.047 0.018-0.072s-0.038-0.039-0.066-0.034c-0.329 0.062-0.583 0.041-0.753 0.006 0.176-0.030 0.316-0.072 0.325-0.074 0.001-0 0.002-0.001 0.003-0.001 0.004-0.001 0.007-0.004 0.011-0.006s0.006-0.004 0.009-0.006c0.003-0.003 0.005-0.006 0.007-0.009s0.005-0.006 0.006-0.009c0.002-0.003 0.002-0.007 0.003-0.010s0.002-0.008 0.003-0.012c0-0.001 0.001-0.002 0.001-0.003 0-0.003-0.001-0.006-0.002-0.009s0-0.006-0.001-0.009c-0-0.001-0.001-0.002-0.001-0.002-0.001-0.004-0.004-0.007-0.006-0.011s-0.003-0.006-0.006-0.009c-0.003-0.003-0.006-0.005-0.009-0.007s-0.006-0.005-0.009-0.007c-0.003-0.002-0.007-0.002-0.010-0.003s-0.008-0.002-0.012-0.003c-0.001-0-0.002-0.001-0.003-0.001-0.767-0.007-1.19-0.411-1.326-0.617 0.239 0.166 0.553 0.308 0.782 0.389h0c0.304 0.117 0.683 0.192 0.699 0.195 0.032 0.006 0.064-0.015 0.070-0.047s-0.015-0.064-0.047-0.070c-0.004-0.001-0.386-0.076-0.681-0.19-0.635-0.246-0.764-0.512-0.807-0.647 0.069 0.049 0.161 0.121 0.21 0.159 0.372 0.289 1.237 0.563 1.274 0.574 0.031 0.010 0.064-0.007 0.075-0.038s-0.007-0.065-0.038-0.075c-0.895-0.305-1.029-0.595-1.101-0.75-0.006-0.013-0.012-0.026-0.018-0.038 0.012 0.004 0.025 0.008 0.035 0.013 0.496 0.278 1.225 0.606 1.501 0.728-0.050 0.024-0.102 0.044-0.136 0.046-0.023 0.001-0.043 0.016-0.052 0.037s-0.004 0.046 0.011 0.063c0.004 0.004 0.062 0.067 0.176 0.091l-0.081 0.053c-0.019 0.012-0.029 0.034-0.027 0.057s0.018 0.042 0.039 0.049c0.006 0.002 0.098 0.034 0.219 0.047l-0.067 0.049c-0.017 0.012-0.026 0.033-0.024 0.054s0.015 0.039 0.034 0.048c0.008 0.004 0.1 0.045 0.247 0.038l-0.005 0.004c-0.019 0.014-0.029 0.037-0.024 0.061s0.023 0.041 0.046 0.047c0.009 0.002 0.122 0.025 0.284 0.007l-0.037 0.024c-0.020 0.013-0.030 0.036-0.026 0.059s0.021 0.042 0.044 0.048c0.017 0.005 0.279 0.069 0.622-0.039-0.072 0.047-0.139 0.082-0.194 0.094-0.025 0.006-0.044 0.027-0.046 0.053s0.012 0.050 0.036 0.060c0.002 0.001 0.007 0.003 0.015 0.006-0.183 0.121-0.37 0.163-0.502 0.176zM23.396 8.325c-0.012-0.027-0.041-0.041-0.069-0.034-0.069 0.017-0.125 0.015-0.168 0.006 0.071-0.031 0.131-0.069 0.142-0.076 0.004-0.003 0.008-0.006 0.011-0.010 0.106 0.043 0.227 0.084 0.362 0.123l-0.229 0.167c-0.077 0.008-0.153 0.001-0.214-0.010l0.142-0.093c0.024-0.016 0.034-0.047 0.022-0.074zM23.932 9.553c-0.023-0-0.065-0.012-0.080-0.023 0.004-0.006 0.014-0.019 0.036-0.036 0.141-0.036 0.303-0.105 0.458-0.231 0.163 0.012 0.419-0.027 0.68-0.289 0.010 0.017 0.020 0.035 0.031 0.053-0.028 0.021-0.702 0.53-1.125 0.526zM24.398 9.146c0.193-0.116 0.409-0.318 0.544-0.453 0.002 0.049 0.012 0.106 0.033 0.168-0.005 0.003-0.009 0.005-0.013 0.009-0.214 0.226-0.422 0.275-0.564 0.276zM25.519 9.918c-0.197-0.013-0.38-0.044-0.446-0.073 0.163-0.127 0.209-0.183 0.214-0.189 0.016-0.021 0.017-0.050 0.003-0.071s-0.043-0.031-0.067-0.023c-0.214 0.069-0.465 0.137-0.588 0.154 0.057-0.051 0.158-0.115 0.249-0.161 0.029-0.015 0.041-0.050 0.027-0.079s-0.049-0.042-0.079-0.028c-0.163 0.076-0.395 0.153-0.541 0.152 0.396-0.143 0.8-0.448 0.839-0.477 0.030 0.036 0.064 0.073 0.105 0.111 0.357 0.332 0.317 0.592 0.286 0.685zM25.618 10.282c-0.003 0.004-0.008 0.009-0.013 0.015 0.013-0.088 0.022-0.199 0.014-0.305 0.033-0.072 0.099-0.286-0.073-0.57 0.113 0.017 0.374 0.071 0.487 0.235 0.015 0.022 0.030 0.046 0.044 0.071l-0 0c-0.006 0.013-0.119 0.287-0.082 0.628-0.026-0.031-0.052-0.069-0.069-0.114-0.008-0.021-0.027-0.036-0.049-0.038s-0.044 0.008-0.056 0.027c-0.025 0.038-0.062 0.091-0.098 0.138l0.001-0.048c0.001-0.025-0.015-0.049-0.039-0.057s-0.051-0.002-0.067 0.018zM26.003 11.026c-0.012 0.036-0.076 0.104-0.117 0.142-0.001 0.001-0.003 0.003-0.004 0.004-0.031-0.052-0.030-0.092-0.030-0.095 0.002-0.028-0.016-0.053-0.042-0.062s-0.056 0.004-0.069 0.028c-0.055 0.098-0.151 0.107-0.168 0.109 0.003-0.072 0.045-0.137 0.047-0.141 0.017-0.025 0.012-0.059-0.011-0.078s-0.057-0.019-0.079 0.001c-0.088 0.079-0.227 0.028-0.228 0.028-0.006-0.002-0.012-0.004-0.018-0.004 0.039-0.084 0.106-0.091 0.199-0.1 0.036-0.004 0.072-0.007 0.11-0.016 0.184-0.040 0.205-0.243 0.191-0.345-0-0.003-0.002-0.005-0.003-0.008 0.029-0.035 0.057-0.074 0.081-0.108 0.012 0.018 0.024 0.034 0.037 0.049 0 0.044 0.003 0.178 0.018 0.249 0.012 0.056 0.053 0.094 0.092 0.118-0.006 0.013-0.012 0.026-0.015 0.041-0.014 0.058-0.002 0.121 0.016 0.176-0.003 0.004-0.006 0.008-0.007 0.013zM26.034 10.653c-0.006-0.027-0.009-0.069-0.012-0.111 0.017 0.011 0.028 0.018 0.030 0.019 0.021 0.011 0.047 0.010 0.065-0.005s0.027-0.039 0.022-0.062c-0.063-0.252-0.021-0.488 0.014-0.617 0.103 0.226 0.177 0.505 0.151 0.689-0.004 0.028 0.013 0.055 0.039 0.065 0.006 0.002 0.011 0.003 0.017 0.003-0.001 0.006-0.001 0.013-0.002 0.019-0.060-0.002-0.16 0.007-0.256 0.058-0.028-0.012-0.063-0.033-0.069-0.057zM26.82 10.962c-0.005 0.009-0.011 0.019-0.017 0.029-0.071-0.094-0.169-0.191-0.253-0.16-0.067 0.026-0.074 0.091-0.079 0.134-0.006 0.052-0.009 0.074-0.053 0.088-0.019 0.006-0.033 0.022-0.038 0.041l-0.007 0.025c-0.023-0.050-0.035-0.111-0.001-0.162 0.017-0.026 0.011-0.062-0.014-0.081s-0.061-0.015-0.081 0.010c-0.001 0.001-0.055 0.064-0.133 0.075-0.008 0.001-0.016 0.004-0.023 0.008-0.011-0.037-0.018-0.075-0.011-0.104 0.004-0.018 0.013-0.030 0.028-0.039 0.12-0.072 0.259-0.052 0.26-0.052 0.032 0.005 0.061-0.015 0.068-0.045 0.003-0.014 0.029-0.13 0.010-0.228l0.077-0.13c0.028 0.036 0.065 0.079 0.111 0.122-0.025 0.046-0.050 0.122-0.015 0.207 0.014 0.034 0.047 0.058 0.085 0.085 0.097 0.070 0.123 0.105 0.085 0.175zM26.6 10.232c-0.011-0.018-0.033-0.028-0.051-0.029-0.021 0-0.040 0.011-0.051 0.029l-0.078 0.13c-0.033-0.264-0.157-0.579-0.29-0.772-0.172-0.251-0.599-0.299-0.68-0.298-0.039-0.047-0.083-0.096-0.137-0.146-0.354-0.329-0.238-0.592-0.232-0.604 0-0.001 0-0.002 0.001-0.003 0.002-0.004 0.002-0.008 0.003-0.012s0.002-0.007 0.002-0.011c0-0.004-0.001-0.007-0.002-0.011s-0.001-0.008-0.003-0.011c-0.001-0.003-0.003-0.006-0.005-0.009s-0.004-0.007-0.007-0.010c-0.001-0.001-0.001-0.002-0.002-0.003-0.002-0.002-0.005-0.003-0.007-0.004s-0.004-0.004-0.007-0.005c-0.001-0.001-0.002-0-0.003-0.001-0.004-0.002-0.008-0.002-0.012-0.003s-0.007-0.002-0.011-0.002c-0.004 0-0.007 0.001-0.011 0.002s-0.008 0.001-0.011 0.003c-0.003 0.001-0.006 0.003-0.009 0.005s-0.007 0.004-0.010 0.007c-0.001 0.001-0.002 0.001-0.003 0.002l-0 0c-0.405 0.443-0.829 0.495-1.049 0.486l0.255-0.17c0.050-0.028 0.101-0.061 0.151-0.101 0.025-0.020 0.030-0.056 0.012-0.082s-0.055-0.032-0.081-0.015l-0.14 0.093c-0.173 0.096-0.339 0.121-0.456 0.125l0.133-0.093c0.102-0.049 0.213-0.123 0.331-0.232 0.023-0.021 0.026-0.057 0.006-0.081s-0.055-0.029-0.081-0.011l-0.317 0.222c-0.15 0.071-0.273 0.079-0.356 0.072l0.453-0.33c0.019-0.014 0.028-0.037 0.023-0.059s-0.021-0.041-0.043-0.047c-0.738-0.196-0.915-0.397-0.955-0.499-0.003-0.009-0.006-0.016-0.007-0.022 0.015 0.002 0.035 0.008 0.048 0.013 0.723 0.425 2.077 0.595 2.134 0.602 0.029 0.003 0.057-0.015 0.065-0.043 0.020-0.073 0.139-0.446 0.459-0.567 0.303-0.114 0.541 0.070 0.551 0.078s0.024 0.013 0.037 0.013c0.129 0 0.214 0.026 0.24 0.072 0.008 0.015 0.011 0.032 0.010 0.049-0.021-0.011-0.044-0.018-0.067-0.021-0.010-0.002-0.021-0-0.030 0.003-0.012 0.005-0.041 0.007-0.068 0.008-0.084 0.006-0.211 0.015-0.283 0.122-0.043 0.063-0.057 0.147-0.039 0.23 0.011 0.052 0.039 0.12 0.102 0.186 0.006 0.012 0.016 0.021 0.028 0.027 0.022 0.019 0.046 0.038 0.075 0.056 0.141 0.088 0.244 0.169 0.299 0.369 0 0.007 0.002 0.014 0.005 0.020 0.023 0.090 0.036 0.203 0.039 0.349 0.001 0.033 0.027 0.059 0.060 0.059 0 0 0.001 0 0.001 0 0.033-0.001 0.059-0.028 0.058-0.061-0.002-0.082-0.007-0.154-0.015-0.219 0.445 0.363 0.707 0.544 0.839 0.634 0.019 0.013 0.036 0.025 0.052 0.036-0.134 0.012-0.346-0.11-0.512-0.237-0.055-0.049-0.106-0.090-0.134-0.111-0.025-0.019-0.062-0.015-0.082 0.009s-0.018 0.061 0.006 0.082c0.015 0.014 0.063 0.057 0.131 0.109 0.078 0.071 0.139 0.138 0.157 0.177-0.093-0.020-0.348-0.171-0.555-0.319-0.026-0.018-0.061-0.014-0.081 0.011s-0.018 0.060 0.005 0.081c0.143 0.136 0.231 0.26 0.287 0.526v0c0.032 0.152 0.094 0.296 0.147 0.4-0.139-0.095-0.229-0.241-0.23-0.243zM27.962 10.066c-0.316 0.041-0.674-0.199-0.677-0.202-0.026-0.017-0.060-0.013-0.080 0.011s-0.018 0.059 0.004 0.080c0.104 0.104 0.209 0.174 0.286 0.225 0.011 0.007 0.023 0.015 0.035 0.023-0.115-0.006-0.314-0.135-0.425-0.225-0.024-0.020-0.060-0.018-0.081 0.005s-0.022 0.058-0.001 0.081c0.045 0.049 0.087 0.103 0.112 0.143-0.087-0.032-0.234-0.116-0.341-0.184-0.025-0.109-0.055-0.198-0.092-0.273 0.347 0.207 0.405 0.137 0.427 0.111 0.013-0.015 0.027-0.042 0.023-0.080 0-0 0-0 0-0 0.142 0.072 0.293 0.114 0.41 0.059 0.012-0.006 0.030-0.015 0.044-0.029 0.215 0.12 0.327 0.21 0.361 0.253-0.002 0-0.004 0.001-0.006 0.001zM27.881 9.839c-0.066-0.045-0.15-0.096-0.261-0.156-0.002-0.001-0.005-0.001-0.007-0.002 0.020 0.001 0.040 0.001 0.060 0.001 0.057 0 0.118-0.004 0.178-0.013 0.005 0.003 0.009 0.006 0.014 0.008 0.185 0.058 0.296 0.102 0.332 0.132-0.048 0.021-0.184 0.034-0.316 0.030zM28.233 9.691c0 0-0.001 0-0.001 0-0.048-0.028-0.116-0.055-0.203-0.085 0.003-0.006 0.006-0.013 0.006-0.020 0.001-0.015-0.003-0.029-0.011-0.041 0.101 0.024 0.192 0.034 0.263 0.021 0.089-0.016 0.17-0.060 0.228-0.099h0c0.060 0 0.23-0.002 0.448-0.020-0.157 0.097-0.426 0.231-0.73 0.244zM30.641 8.671c-0.081 0.102-0.266 0.269-0.601 0.42-0.458 0.206-1.133 0.247-1.415 0.255-0-0.005-0.001-0.009-0.003-0.013-0.007-0.022-0.027-0.038-0.050-0.040-0.005-0.001-0.308-0.036-0.644-0.137 0.202 0.019 0.392 0.028 0.57 0.028 0.503 0 0.913-0.070 1.247-0.175 0.002-0 0.003 0 0.005-0 0.184-0.048 0.622-0.228 0.858-0.324 0.011-0.005 0.022-0.009 0.032-0.013zM30.322 8.613c-0.388 0.24-1.066 0.497-2.137 0.44 0.021-0.010 0.035-0.031 0.034-0.055-0-0.025-0.017-0.047-0.041-0.055-0.048-0.016-0.105-0.038-0.16-0.061 0.164 0.005 0.378-0.011 0.58-0.089 0.023-0.009 0.038-0.031 0.038-0.056s-0.016-0.047-0.039-0.056l-0.078-0.029c0.198-0.008 0.441-0.034 0.61-0.105 0.027-0.011 0.041-0.040 0.035-0.068-0-0.001-0.001-0.003-0.002-0.004 0.358-0.090 1.016-0.296 1.696-0.722-0.146 0.243-0.572 0.696-1.775 0.98-0.031 0.007-0.051 0.038-0.045 0.069s0.036 0.052 0.068 0.048c0.009-0.001 0.827-0.13 1.672-0.613-0.1 0.111-0.248 0.247-0.456 0.376z"></path>
</svg>
